<?xml version="1.0" encoding="utf-8" standalone="no"?>
<!DOCTYPE svg PUBLIC "-//W3C//DTD SVG 1.1//EN"
  "http://www.w3.org/Graphics/SVG/1.1/DTD/svg11.dtd">
<!-- Created with matplotlib (https://matplotlib.org/) -->
<svg height="648pt" version="1.1" viewBox="0 0 1152 648" width="1152pt" xmlns="http://www.w3.org/2000/svg" xmlns:xlink="http://www.w3.org/1999/xlink">
 <metadata>
  <rdf:RDF xmlns:cc="http://creativecommons.org/ns#" xmlns:dc="http://purl.org/dc/elements/1.1/" xmlns:rdf="http://www.w3.org/1999/02/22-rdf-syntax-ns#">
   <cc:Work>
    <dc:type rdf:resource="http://purl.org/dc/dcmitype/StillImage"/>
    <dc:date>2024-03-21T10:13:10.557125</dc:date>
    <dc:format>image/svg+xml</dc:format>
    <dc:creator>
     <cc:Agent>
      <dc:title>Matplotlib v3.3.1, https://matplotlib.org/</dc:title>
     </cc:Agent>
    </dc:creator>
   </cc:Work>
  </rdf:RDF>
 </metadata>
 <defs>
  <style type="text/css">*{stroke-linecap:butt;stroke-linejoin:round;}</style>
 </defs>
 <g id="figure_1">
  <g id="patch_1">
   <path d="M 0 648 
L 1152 648 
L 1152 0 
L 0 0 
z
" style="fill:#ffffff;"/>
  </g>
  <g id="axes_1">
   <g id="patch_2">
    <path d="M 144 576.72 
L 1036.8 576.72 
L 1036.8 77.76 
L 144 77.76 
z
" style="fill:none;"/>
   </g>
   <g id="PolyCollection_1">
    <defs>
     <path d="M 184.581818 -534.330339 
L 184.581818 -543.501543 
L 186.717703 -545.751743 
L 188.853589 -547.56 
L 190.989474 -547.070892 
L 193.125359 -546.476355 
L 195.261244 -546.419521 
L 197.397129 -546.331652 
L 199.533014 -546.217221 
L 201.6689 -546.079742 
L 203.804785 -545.921953 
L 205.94067 -545.746145 
L 208.076555 -545.554194 
L 210.21244 -545.074116 
L 212.348325 -544.580035 
L 214.484211 -544.073186 
L 216.620096 -543.55464 
L 218.755981 -543.0253 
L 220.891866 -542.486012 
L 223.027751 -541.937445 
L 225.163636 -541.380264 
L 227.299522 -540.815012 
L 229.435407 -540.242203 
L 231.571292 -539.66228 
L 233.707177 -539.075676 
L 235.843062 -538.367707 
L 237.978947 -537.654113 
L 240.114833 -536.935142 
L 242.250718 -536.211086 
L 244.386603 -535.482141 
L 246.522488 -534.748583 
L 248.658373 -534.010565 
L 250.794258 -533.268325 
L 252.930144 -532.522 
L 255.066029 -531.771771 
L 257.201914 -531.017819 
L 259.337799 -530.260255 
L 261.473684 -529.404875 
L 263.609569 -528.546091 
L 265.745455 -527.683974 
L 267.88134 -526.818674 
L 270.017225 -525.950291 
L 272.15311 -525.3859 
L 274.288995 -524.818662 
L 276.42488 -524.248645 
L 278.560766 -523.67596 
L 280.696651 -523.100678 
L 282.832536 -522.522881 
L 284.968421 -521.942653 
L 287.104306 -521.40024 
L 289.240191 -520.855479 
L 291.376077 -520.308412 
L 293.511962 -519.759122 
L 295.647847 -519.207665 
L 297.783732 -518.654097 
L 299.919617 -518.45281 
L 302.055502 -518.249551 
L 304.191388 -518.044361 
L 306.327273 -517.837268 
L 308.463158 -517.628341 
L 310.599043 -517.417608 
L 312.734928 -517.544931 
L 314.870813 -517.670601 
L 317.006699 -517.79466 
L 319.142584 -517.917149 
L 321.278469 -518.038124 
L 323.414354 -518.15757 
L 325.550239 -518.27553 
L 327.686124 -518.392087 
L 329.82201 -518.507199 
L 331.957895 -518.620949 
L 334.09378 -518.733339 
L 336.229665 -518.844394 
L 338.36555 -518.894156 
L 340.501435 -518.942613 
L 342.637321 -518.989778 
L 344.773206 -519.035664 
L 346.909091 -519.080328 
L 349.044976 -519.123783 
L 351.180861 -519.166016 
L 353.316746 -519.207096 
L 355.452632 -519.247022 
L 357.588517 -519.28581 
L 359.724402 -519.323486 
L 361.860287 -519.360078 
L 363.996172 -519.308774 
L 366.132057 -519.256372 
L 368.267943 -519.2029 
L 370.403828 -519.148345 
L 372.539713 -519.092734 
L 374.675598 -519.036095 
L 376.811483 -518.978469 
L 378.947368 -518.919816 
L 381.083254 -518.86019 
L 383.219139 -518.799591 
L 385.355024 -518.738062 
L 387.490909 -518.675574 
L 389.626794 -518.56538 
L 391.762679 -518.454366 
L 393.898565 -518.342533 
L 396.03445 -518.229921 
L 398.170335 -518.11649 
L 400.30622 -518.002309 
L 402.442105 -517.887364 
L 404.57799 -517.771654 
L 406.713876 -517.655181 
L 408.849761 -517.537999 
L 410.985646 -517.420094 
L 413.121531 -517.301454 
L 415.257416 -517.099209 
L 417.393301 -516.896242 
L 419.529187 -516.69258 
L 421.665072 -516.488209 
L 423.800957 -516.283172 
L 425.936842 -516.077454 
L 428.072727 -515.871069 
L 430.208612 -515.664018 
L 432.344498 -515.456313 
L 434.480383 -515.247969 
L 436.616268 -515.039001 
L 438.752153 -514.829379 
L 440.888038 -514.674924 
L 443.023923 -514.519871 
L 445.159809 -514.364249 
L 447.295694 -514.208043 
L 449.431579 -514.051282 
L 451.567464 -513.77945 
L 453.703349 -513.507077 
L 455.839234 -513.221603 
L 457.97512 -512.935615 
L 460.111005 -512.649127 
L 462.24689 -512.362152 
L 464.382775 -512.074678 
L 466.51866 -511.517678 
L 468.654545 -510.922446 
L 470.790431 -510.291344 
L 472.926316 -509.674163 
L 475.062201 -509.099825 
L 477.198086 -508.539796 
L 479.333971 -507.978031 
L 481.469856 -507.324716 
L 483.605742 -506.650534 
L 485.741627 -505.880494 
L 487.877512 -505.114706 
L 490.013397 -504.372188 
L 492.149282 -503.674 
L 494.285167 -502.990871 
L 496.421053 -502.307089 
L 498.556938 -501.649133 
L 500.692823 -501.026048 
L 502.828708 -500.428718 
L 504.964593 -499.844128 
L 507.100478 -499.245353 
L 509.236364 -498.642397 
L 511.372249 -498.040636 
L 513.508134 -497.460686 
L 515.644019 -496.908826 
L 517.779904 -496.368108 
L 519.915789 -495.831433 
L 522.051675 -495.322889 
L 524.18756 -494.84031 
L 526.323445 -494.382002 
L 528.45933 -493.937016 
L 530.595215 -493.498337 
L 532.7311 -493.023232 
L 534.866986 -492.489321 
L 537.002871 -491.926653 
L 539.138756 -491.34059 
L 541.274641 -490.770462 
L 543.410526 -490.049588 
L 545.546411 -489.298248 
L 547.682297 -488.541364 
L 549.818182 -487.795151 
L 551.954067 -487.062662 
L 554.089952 -486.306849 
L 556.225837 -485.511039 
L 558.361722 -484.654673 
L 560.497608 -483.748461 
L 562.633493 -482.794612 
L 564.769378 -481.81088 
L 566.905263 -480.794182 
L 569.041148 -479.661358 
L 571.177033 -478.493873 
L 573.312919 -477.286835 
L 575.448804 -476.084536 
L 577.584689 -474.892335 
L 579.720574 -473.717348 
L 581.856459 -472.544194 
L 583.992344 -471.34509 
L 586.12823 -470.123757 
L 588.264115 -468.910691 
L 590.4 -467.717199 
L 592.535885 -466.539461 
L 594.67177 -465.341634 
L 596.807656 -464.16955 
L 598.943541 -463.031419 
L 601.079426 -461.928227 
L 603.215311 -460.848166 
L 605.351196 -459.784318 
L 607.487081 -458.731347 
L 609.622967 -457.657412 
L 611.758852 -456.56482 
L 613.894737 -455.468672 
L 616.030622 -454.269553 
L 618.166507 -453.081479 
L 620.302392 -452.012102 
L 622.438278 -450.936014 
L 624.574163 -449.861718 
L 626.710048 -448.804468 
L 628.845933 -447.749566 
L 630.981818 -446.690358 
L 633.117703 -445.630204 
L 635.253589 -444.534806 
L 637.389474 -443.40847 
L 639.525359 -442.24693 
L 641.661244 -441.074985 
L 643.797129 -439.887369 
L 645.933014 -438.495675 
L 648.0689 -437.062081 
L 650.204785 -435.613178 
L 652.34067 -434.196394 
L 654.476555 -432.815217 
L 656.61244 -431.445722 
L 658.748325 -430.083077 
L 660.884211 -428.441918 
L 663.020096 -426.790492 
L 665.155981 -425.136232 
L 667.291866 -423.492378 
L 669.427751 -421.851969 
L 671.563636 -419.902344 
L 673.699522 -417.960568 
L 675.835407 -416.047618 
L 677.971292 -414.178388 
L 680.107177 -412.326176 
L 682.243062 -410.500832 
L 684.378947 -408.700411 
L 686.514833 -406.868468 
L 688.650718 -405.018118 
L 690.786603 -403.191162 
L 692.922488 -401.409662 
L 695.058373 -399.640804 
L 697.194258 -398.01194 
L 699.330144 -396.361403 
L 701.466029 -394.704476 
L 703.601914 -393.047952 
L 705.737799 -391.168872 
L 707.873684 -389.271052 
L 710.009569 -387.435608 
L 712.145455 -385.570045 
L 714.28134 -383.694425 
L 716.417225 -381.781739 
L 718.55311 -379.840102 
L 720.688995 -377.88317 
L 722.82488 -375.828435 
L 724.960766 -373.756071 
L 727.096651 -371.679303 
L 729.232536 -369.633279 
L 731.368421 -367.608982 
L 733.504306 -365.600537 
L 735.640191 -363.594704 
L 737.776077 -361.573755 
L 739.911962 -359.529467 
L 742.047847 -357.463619 
L 744.183732 -355.374362 
L 746.319617 -353.284354 
L 748.455502 -351.109451 
L 750.591388 -348.889411 
L 752.727273 -346.662578 
L 754.863158 -344.459445 
L 756.999043 -342.256451 
L 759.134928 -340.056722 
L 761.270813 -337.858632 
L 763.406699 -335.639204 
L 765.542584 -333.388879 
L 767.678469 -331.149626 
L 769.814354 -328.918236 
L 771.950239 -326.700308 
L 774.086124 -325.160271 
L 776.22201 -323.720926 
L 778.357895 -322.319187 
L 780.49378 -320.922061 
L 782.629665 -319.544329 
L 784.76555 -318.19634 
L 786.901435 -316.883804 
L 789.037321 -315.57181 
L 791.173206 -314.259261 
L 793.309091 -312.937514 
L 795.444976 -311.642636 
L 797.580861 -310.376945 
L 799.716746 -309.640317 
L 801.852632 -308.903897 
L 803.988517 -308.189011 
L 806.124402 -307.509244 
L 808.260287 -306.866764 
L 810.396172 -306.276395 
L 812.532057 -305.690026 
L 814.667943 -305.125524 
L 816.803828 -304.568066 
L 818.939713 -304.026973 
L 821.075598 -303.534933 
L 823.211483 -303.046784 
L 825.347368 -302.192946 
L 827.483254 -301.310656 
L 829.619139 -300.420323 
L 831.755024 -299.52899 
L 833.890909 -298.991425 
L 836.026794 -298.422339 
L 838.162679 -297.803407 
L 840.298565 -297.13531 
L 842.43445 -296.421326 
L 844.570335 -295.662942 
L 846.70622 -294.92173 
L 848.842105 -294.14123 
L 850.97799 -292.448738 
L 853.113876 -290.800605 
L 855.249761 -289.204985 
L 857.385646 -287.653195 
L 859.521531 -286.107879 
L 861.657416 -284.548615 
L 863.793301 -282.993991 
L 865.929187 -280.777855 
L 868.065072 -278.531489 
L 870.200957 -276.214106 
L 872.336842 -273.882385 
L 874.472727 -271.520977 
L 876.608612 -269.151636 
L 878.744498 -267.311983 
L 880.880383 -265.646943 
L 883.016268 -264.001088 
L 885.152153 -262.348703 
L 887.288038 -260.689831 
L 889.423923 -259.030292 
L 891.559809 -257.370087 
L 893.695694 -255.709214 
L 895.831579 -254.067402 
L 897.967464 -252.424965 
L 900.103349 -250.777762 
L 902.239234 -249.129907 
L 904.37512 -248.41188 
L 906.511005 -247.692687 
L 908.64689 -246.972383 
L 910.782775 -246.250953 
L 912.91866 -245.528411 
L 915.054545 -244.804786 
L 917.190431 -244.080092 
L 919.326316 -243.354314 
L 921.462201 -242.627493 
L 923.598086 -241.899617 
L 925.733971 -241.170713 
L 925.733971 -93.96 
L 925.733971 -93.96 
L 923.598086 -95.237708 
L 921.462201 -96.516471 
L 919.326316 -97.796262 
L 917.190431 -99.077123 
L 915.054545 -100.35904 
L 912.91866 -101.642055 
L 910.782775 -102.926125 
L 908.64689 -104.211334 
L 906.511005 -105.497641 
L 904.37512 -106.785087 
L 902.239234 -108.073673 
L 900.103349 -110.150218 
L 897.967464 -112.227445 
L 895.831579 -114.297739 
L 893.695694 -116.368686 
L 891.559809 -118.457804 
L 889.423923 -120.547589 
L 887.288038 -122.638041 
L 885.152153 -124.72916 
L 883.016268 -126.815986 
L 880.880383 -128.899172 
L 878.744498 -131.004016 
L 876.608612 -133.243464 
L 874.472727 -135.99101 
L 872.336842 -138.667386 
L 870.200957 -141.31663 
L 868.065072 -143.950203 
L 865.929187 -146.536459 
L 863.793301 -149.071008 
L 861.657416 -150.912787 
L 859.521531 -152.752149 
L 857.385646 -154.573061 
L 855.249761 -156.40117 
L 853.113876 -158.264412 
L 850.97799 -160.188003 
L 848.842105 -162.155202 
L 846.70622 -163.206242 
L 844.570335 -164.227663 
L 842.43445 -165.260032 
L 840.298565 -166.25942 
L 838.162679 -167.217728 
L 836.026794 -168.129706 
L 833.890909 -168.990671 
L 831.755024 -169.822225 
L 829.619139 -171.002936 
L 827.483254 -172.184342 
L 825.347368 -173.351202 
L 823.211483 -174.478886 
L 821.075598 -175.228879 
L 818.939713 -175.982484 
L 816.803828 -176.780391 
L 814.667943 -177.589996 
L 812.532057 -178.402448 
L 810.396172 -179.233322 
L 808.260287 -180.068781 
L 806.124402 -180.96499 
L 803.988517 -181.904127 
L 801.852632 -182.889526 
L 799.716746 -183.895846 
L 797.580861 -184.908237 
L 795.444976 -186.443606 
L 793.309091 -188.010414 
L 791.173206 -189.598977 
L 789.037321 -191.163811 
L 786.901435 -192.728035 
L 784.76555 -194.284493 
L 782.629665 -195.872013 
L 780.49378 -197.487639 
L 778.357895 -199.122463 
L 776.22201 -200.761622 
L 774.086124 -202.427634 
L 771.950239 -204.181614 
L 769.814354 -206.613067 
L 767.678469 -209.057844 
L 765.542584 -211.510066 
L 763.406699 -213.973639 
L 761.270813 -216.413317 
L 759.134928 -218.832601 
L 756.999043 -221.25094 
L 754.863158 -223.67146 
L 752.727273 -226.092397 
L 750.591388 -228.536952 
L 748.455502 -230.974379 
L 746.319617 -233.384369 
L 744.183732 -235.71902 
L 742.047847 -238.053811 
L 739.911962 -240.365026 
L 737.776077 -242.654625 
L 735.640191 -244.917023 
L 733.504306 -247.158887 
L 731.368421 -249.403253 
L 729.232536 -251.660913 
L 727.096651 -253.936633 
L 724.960766 -256.241792 
L 722.82488 -258.54324 
L 720.688995 -260.828421 
L 718.55311 -263.010049 
L 716.417225 -265.180576 
L 714.28134 -267.328959 
L 712.145455 -269.440944 
L 710.009569 -271.544094 
L 707.873684 -273.609178 
L 705.737799 -275.752671 
L 703.601914 -277.899818 
L 701.466029 -279.840246 
L 699.330144 -281.786551 
L 697.194258 -283.734745 
L 695.058373 -285.675966 
L 692.922488 -287.727005 
L 690.786603 -289.790908 
L 688.650718 -291.882069 
L 686.514833 -293.99015 
L 684.378947 -296.07674 
L 682.243062 -298.147534 
L 680.107177 -300.230498 
L 677.971292 -302.342386 
L 675.835407 -304.471625 
L 673.699522 -306.642556 
L 671.563636 -308.846341 
L 669.427751 -311.055726 
L 667.291866 -312.960089 
L 665.155981 -314.86951 
L 663.020096 -316.793921 
L 660.884211 -318.717525 
L 658.748325 -320.633559 
L 656.61244 -322.31784 
L 654.476555 -324.012776 
L 652.34067 -325.724287 
L 650.204785 -327.483239 
L 648.0689 -329.280674 
L 645.933014 -331.071162 
L 643.797129 -332.822974 
L 641.661244 -334.37757 
L 639.525359 -335.912578 
L 637.389474 -337.445349 
L 635.253589 -338.93322 
L 633.117703 -340.381734 
L 630.981818 -341.788918 
L 628.845933 -343.190962 
L 626.710048 -344.586671 
L 624.574163 -345.987173 
L 622.438278 -347.417475 
L 620.302392 -348.851707 
L 618.166507 -350.267949 
L 616.030622 -351.777048 
L 613.894737 -353.30486 
L 611.758852 -354.743816 
L 609.622967 -356.173297 
L 607.487081 -357.582343 
L 605.351196 -358.968925 
L 603.215311 -360.368329 
L 601.079426 -361.78114 
L 598.943541 -363.215359 
L 596.807656 -364.676209 
L 594.67177 -366.15412 
L 592.535885 -367.641546 
L 590.4 -369.100132 
L 588.264115 -370.569415 
L 586.12823 -372.049771 
L 583.992344 -373.533474 
L 581.856459 -375.000784 
L 579.720574 -376.44695 
L 577.584689 -377.897562 
L 575.448804 -379.365803 
L 573.312919 -380.844728 
L 571.177033 -382.330446 
L 569.041148 -383.778196 
L 566.905263 -385.186533 
L 564.769378 -386.489886 
L 562.633493 -387.767079 
L 560.497608 -389.019947 
L 558.361722 -390.226929 
L 556.225837 -391.386954 
L 554.089952 -392.472725 
L 551.954067 -393.525196 
L 549.818182 -394.559871 
L 547.682297 -395.603214 
L 545.546411 -396.654032 
L 543.410526 -397.701668 
L 541.274641 -398.730258 
L 539.138756 -399.595876 
L 537.002871 -400.479652 
L 534.866986 -401.341673 
L 532.7311 -402.171352 
L 530.595215 -402.940002 
L 528.45933 -403.664891 
L 526.323445 -404.399755 
L 524.18756 -405.152498 
L 522.051675 -405.934318 
L 519.915789 -406.743603 
L 517.779904 -407.583577 
L 515.644019 -408.434761 
L 513.508134 -409.300033 
L 511.372249 -410.195784 
L 509.236364 -411.118653 
L 507.100478 -412.044634 
L 504.964593 -412.967711 
L 502.828708 -413.881912 
L 500.692823 -414.808712 
L 498.556938 -415.758102 
L 496.421053 -416.743472 
L 494.285167 -417.752196 
L 492.149282 -418.761684 
L 490.013397 -419.787815 
L 487.877512 -420.848718 
L 485.741627 -421.941449 
L 483.605742 -423.042293 
L 481.469856 -424.055004 
L 479.333971 -425.047821 
L 477.198086 -425.952727 
L 475.062201 -426.858842 
L 472.926316 -427.782489 
L 470.790431 -428.747563 
L 468.654545 -429.730697 
L 466.51866 -430.683213 
L 464.382775 -431.597941 
L 462.24689 -432.164985 
L 460.111005 -432.732529 
L 457.97512 -433.300588 
L 455.839234 -433.869118 
L 453.703349 -434.438163 
L 451.567464 -435.004138 
L 449.431579 -435.570654 
L 447.295694 -436.024406 
L 445.159809 -436.478714 
L 443.023923 -436.933605 
L 440.888038 -437.389066 
L 438.752153 -437.845124 
L 436.616268 -438.364406 
L 434.480383 -438.884314 
L 432.344498 -439.404874 
L 430.208612 -439.926046 
L 428.072727 -440.447898 
L 425.936842 -440.970389 
L 423.800957 -441.493575 
L 421.665072 -442.017414 
L 419.529187 -442.541948 
L 417.393301 -443.067162 
L 415.257416 -443.593099 
L 413.121531 -444.119758 
L 410.985646 -444.560563 
L 408.849761 -445.002103 
L 406.713876 -445.444366 
L 404.57799 -445.887366 
L 402.442105 -446.331101 
L 400.30622 -446.775601 
L 398.170335 -447.220865 
L 396.03445 -447.666907 
L 393.898565 -448.11374 
L 391.762679 -448.561352 
L 389.626794 -449.009811 
L 387.490909 -449.459062 
L 385.355024 -449.879639 
L 383.219139 -450.301147 
L 381.083254 -450.723614 
L 378.947368 -451.147052 
L 376.811483 -451.571464 
L 374.675598 -451.996875 
L 372.539713 -452.423301 
L 370.403828 -452.850755 
L 368.267943 -453.279265 
L 366.132057 -453.70883 
L 363.996172 -454.139493 
L 361.860287 -454.571254 
L 359.724402 -454.908588 
L 357.588517 -455.247033 
L 355.452632 -455.586562 
L 353.316746 -455.927231 
L 351.180861 -456.269052 
L 349.044976 -456.612054 
L 346.909091 -456.956251 
L 344.773206 -457.301657 
L 342.637321 -457.648313 
L 340.501435 -457.996219 
L 338.36555 -458.345417 
L 336.229665 -458.695921 
L 334.09378 -458.981854 
L 331.957895 -459.26912 
L 329.82201 -459.557719 
L 327.686124 -459.847708 
L 325.550239 -460.139114 
L 323.414354 -460.431951 
L 321.278469 -460.726275 
L 319.142584 -461.022099 
L 317.006699 -461.319464 
L 314.870813 -461.6184 
L 312.734928 -461.918919 
L 310.599043 -462.22112 
L 308.463158 -462.873852 
L 306.327273 -463.52839 
L 304.191388 -464.184762 
L 302.055502 -464.843038 
L 299.919617 -465.503244 
L 297.783732 -466.165451 
L 295.647847 -467.185413 
L 293.511962 -468.20746 
L 291.376077 -469.231702 
L 289.240191 -470.258166 
L 287.104306 -471.286936 
L 284.968421 -472.318055 
L 282.832536 -473.385515 
L 280.696651 -474.455407 
L 278.560766 -475.527813 
L 276.42488 -476.602818 
L 274.288995 -477.680489 
L 272.15311 -478.760939 
L 270.017225 -479.844237 
L 267.88134 -481.239391 
L 265.745455 -482.637628 
L 263.609569 -484.039047 
L 261.473684 -485.443772 
L 259.337799 -486.851929 
L 257.201914 -488.161436 
L 255.066029 -489.474528 
L 252.930144 -490.79137 
L 250.794258 -492.112116 
L 248.658373 -493.436919 
L 246.522488 -494.765972 
L 244.386603 -496.099458 
L 242.250718 -497.437583 
L 240.114833 -498.780571 
L 237.978947 -500.128671 
L 235.843062 -501.48212 
L 233.707177 -502.841222 
L 231.571292 -504.111164 
L 229.435407 -505.387788 
L 227.299522 -506.671525 
L 225.163636 -507.962819 
L 223.027751 -509.262185 
L 220.891866 -510.570164 
L 218.755981 -511.887423 
L 216.620096 -513.214629 
L 214.484211 -514.552629 
L 212.348325 -515.902327 
L 210.21244 -517.264792 
L 208.076555 -518.64126 
L 205.94067 -519.733463 
L 203.804785 -520.841837 
L 201.6689 -521.968229 
L 199.533014 -523.114904 
L 197.397129 -524.284654 
L 195.261244 -525.480966 
L 193.125359 -526.708286 
L 190.989474 -529.138948 
L 188.853589 -531.675011 
L 186.717703 -532.781703 
L 184.581818 -534.330339 
z
" id="ma22ef4f488" style="stroke:#d55e00;stroke-opacity:0.1;"/>
    </defs>
    <g clip-path="url(#p239a8fd824)">
     <use style="fill:#d55e00;fill-opacity:0.1;stroke:#d55e00;stroke-opacity:0.1;" x="0" xlink:href="#ma22ef4f488" y="648"/>
    </g>
   </g>
   <g id="patch_3">
    <path d="M 144 576.72 
L 1036.8 576.72 
" style="fill:none;stroke:#d3d3d3;stroke-linecap:square;stroke-linejoin:miter;stroke-width:1.25;"/>
   </g>
   <g id="matplotlib.axis_1">
    <g id="xtick_1">
     <g id="line2d_1">
      <defs>
       <path d="M 0 0 
L 0 6 
" id="mad89a6c43c" style="stroke:#696969;stroke-width:1.25;"/>
      </defs>
      <g>
       <use style="fill:#696969;stroke:#696969;stroke-width:1.25;" x="389.626794" xlink:href="#mad89a6c43c" y="576.72"/>
      </g>
     </g>
     <g id="text_1">
      <!-- 2000 -->
      <g style="fill:#696969;" transform="translate(362.652107 601.550938)scale(0.23 -0.23)">
       <defs>
        <path d="M 52.484375 6.9375 
L 52.484375 0 
L 5.171875 0 
L 5.171875 6.9375 
Q 33.203125 27.9375 38.59375 34.59375 
Q 44 41.265625 44 47.796875 
Q 44 53.90625 39.453125 57.65625 
Q 34.90625 61.421875 29 61.421875 
Q 22.90625 61.421875 18.21875 57.296875 
Q 13.53125 53.171875 12.9375 46.09375 
L 5.171875 48.4375 
Q 10.0625 68.015625 29.109375 68.015625 
Q 39.40625 68.015625 45.84375 62.15625 
Q 52.296875 56.296875 52.296875 47.859375 
Q 52.296875 42.046875 49.234375 36.671875 
Q 46.1875 31.296875 37.6875 23.828125 
Q 29.203125 16.359375 15.71875 6.9375 
z
" id="FranklinGothic-Book-50"/>
        <path d="M 29.390625 -1.3125 
Q 17.875 -1.3125 10.984375 8.671875 
Q 4.109375 18.65625 4.109375 33.453125 
Q 4.109375 48 10.640625 58 
Q 17.1875 68.015625 29.15625 68.015625 
Q 41.65625 68.015625 48.125 57.5625 
Q 54.59375 47.125 54.59375 33.0625 
Q 54.59375 19.28125 47.953125 8.984375 
Q 41.3125 -1.3125 29.390625 -1.3125 
z
M 29.4375 5.21875 
Q 37.890625 5.21875 41.9375 12.859375 
Q 46 20.515625 46 32.078125 
Q 46 44.734375 41.84375 53.125 
Q 37.703125 61.53125 29.046875 61.53125 
Q 20.703125 61.53125 16.625 53.859375 
Q 12.546875 46.1875 12.546875 33.6875 
Q 12.546875 20.703125 16.84375 12.953125 
Q 21.140625 5.21875 29.4375 5.21875 
z
" id="FranklinGothic-Book-48"/>
       </defs>
       <use xlink:href="#FranklinGothic-Book-50"/>
       <use x="58.642578" xlink:href="#FranklinGothic-Book-48"/>
       <use x="117.285156" xlink:href="#FranklinGothic-Book-48"/>
       <use x="175.927734" xlink:href="#FranklinGothic-Book-48"/>
      </g>
     </g>
    </g>
    <g id="xtick_2">
     <g id="line2d_2">
      <g>
       <use style="fill:#696969;stroke:#696969;stroke-width:1.25;" x="645.933014" xlink:href="#mad89a6c43c" y="576.72"/>
      </g>
     </g>
     <g id="text_2">
      <!-- 2010 -->
      <g style="fill:#696969;" transform="translate(619.763327 601.550938)scale(0.23 -0.23)">
       <defs>
        <path d="M 55.859375 6.203125 
L 55.859375 0 
L 9.1875 0 
L 9.1875 6.203125 
L 29.203125 6.203125 
L 29.203125 57.671875 
Q 20.359375 48.4375 10.84375 43.265625 
L 10.84375 51.65625 
Q 23.96875 58.546875 31.203125 68.015625 
L 37.15625 68.015625 
L 37.15625 6.203125 
z
" id="FranklinGothic-Book-49"/>
       </defs>
       <use xlink:href="#FranklinGothic-Book-50"/>
       <use x="58.642578" xlink:href="#FranklinGothic-Book-48"/>
       <use x="113.535156" xlink:href="#FranklinGothic-Book-49"/>
       <use x="168.927734" xlink:href="#FranklinGothic-Book-48"/>
      </g>
     </g>
    </g>
    <g id="xtick_3">
     <g id="line2d_3">
      <g>
       <use style="fill:#696969;stroke:#696969;stroke-width:1.25;" x="902.239234" xlink:href="#mad89a6c43c" y="576.72"/>
      </g>
     </g>
     <g id="text_3">
      <!-- 2020 -->
      <g style="fill:#696969;" transform="translate(875.264547 601.550938)scale(0.23 -0.23)">
       <use xlink:href="#FranklinGothic-Book-50"/>
       <use x="58.642578" xlink:href="#FranklinGothic-Book-48"/>
       <use x="117.285156" xlink:href="#FranklinGothic-Book-50"/>
       <use x="175.927734" xlink:href="#FranklinGothic-Book-48"/>
      </g>
     </g>
    </g>
    <g id="text_4">
     <!-- Year -->
     <g style="fill:#696969;" transform="translate(569.365781 624.712813)scale(0.23 -0.23)">
      <defs>
       <path d="M 52 66.65625 
L 29.6875 28.03125 
L 29.6875 0 
L 21.34375 0 
L 21.34375 28.03125 
L -0.984375 66.65625 
L 8.84375 66.65625 
L 26.5625 35.984375 
L 44.390625 66.65625 
z
" id="FranklinGothic-Book-89"/>
       <path d="M 40.234375 14.703125 
L 47.359375 13.234375 
Q 45.40625 6.9375 39.734375 2.8125 
Q 34.078125 -1.3125 26.421875 -1.3125 
Q 16.3125 -1.3125 10.0625 5.78125 
Q 3.8125 12.890625 3.8125 24.421875 
Q 3.8125 36.1875 10.296875 43.4375 
Q 16.796875 50.6875 26.609375 50.6875 
Q 36.28125 50.6875 42.15625 44 
Q 48.046875 37.3125 48.1875 23.96875 
L 12.359375 23.96875 
Q 12.359375 12.796875 17.046875 8.890625 
Q 21.734375 4.984375 26.953125 4.984375 
Q 36.375 4.984375 40.234375 14.703125 
z
M 39.796875 29.6875 
Q 39.703125 33.84375 38.421875 37.0625 
Q 37.15625 40.28125 34.125 42.546875 
Q 31.109375 44.828125 26.859375 44.828125 
Q 21.140625 44.828125 17.15625 40.71875 
Q 13.1875 36.625 12.703125 29.6875 
z
" id="FranklinGothic-Book-101"/>
       <path d="M 46.296875 0 
L 38.671875 0 
Q 38.234375 2.34375 37.796875 8.890625 
Q 32.71875 -1.3125 20.515625 -1.3125 
Q 12.203125 -1.3125 7.765625 3.078125 
Q 3.328125 7.46875 3.328125 13.625 
Q 3.328125 21.09375 9.671875 25.90625 
Q 16.015625 30.71875 31.25 30.71875 
Q 33.296875 30.71875 37.796875 30.515625 
Q 37.796875 36.375 36.890625 38.984375 
Q 35.984375 41.609375 33.046875 43.171875 
Q 30.125 44.734375 25.34375 44.734375 
Q 13.671875 44.734375 11.765625 35.84375 
L 4.6875 37.0625 
Q 7.28125 50.6875 26.46875 50.6875 
Q 36.671875 50.6875 40.9375 46.171875 
Q 45.21875 41.65625 45.21875 30.515625 
L 45.21875 9.578125 
Q 45.21875 4.34375 46.296875 0 
z
M 37.796875 24.65625 
Q 33.109375 24.953125 30.671875 24.953125 
Q 21.578125 24.953125 16.546875 21.96875 
Q 11.53125 19 11.53125 13.28125 
Q 11.53125 9.671875 14.234375 7.125 
Q 16.9375 4.59375 22.078125 4.59375 
Q 29 4.59375 33.46875 9.625 
Q 37.9375 14.65625 37.9375 21.4375 
Q 37.9375 22.796875 37.796875 24.65625 
z
" id="FranklinGothic-Book-97"/>
       <path d="M 15.328125 0 
L 7.671875 0 
L 7.671875 49.3125 
L 14.40625 49.3125 
L 14.40625 37.796875 
Q 17.96875 45.953125 21.546875 48.359375 
Q 25.140625 50.78125 28.90625 50.78125 
Q 30.078125 50.78125 31.9375 50.59375 
L 31.9375 43.265625 
L 30.375 43.265625 
Q 24.03125 43.265625 19.828125 38.53125 
Q 15.625 33.796875 15.328125 26.078125 
z
" id="FranklinGothic-Book-114"/>
      </defs>
      <use xlink:href="#FranklinGothic-Book-89"/>
      <use x="45.025391" xlink:href="#FranklinGothic-Book-101"/>
      <use x="97.076172" xlink:href="#FranklinGothic-Book-97"/>
      <use x="149.957031" xlink:href="#FranklinGothic-Book-114"/>
     </g>
    </g>
   </g>
   <g id="matplotlib.axis_2">
    <g id="ytick_1">
     <g id="line2d_4">
      <path clip-path="url(#p239a8fd824)" d="M 144 477.046118 
L 1036.8 477.046118 
" style="fill:none;stroke:#d3d3d3;stroke-linecap:round;stroke-opacity:0.5;"/>
     </g>
     <g id="text_5">
      <!-- −2000 -->
      <g style="fill:#696969;" transform="translate(67.063281 484.711586)scale(0.23 -0.23)">
       <defs>
        <path d="M 6 36.765625 
L 52.6875 36.765625 
L 52.6875 30.03125 
L 6 30.03125 
z
" id="FranklinGothic-Book-8722"/>
       </defs>
       <use xlink:href="#FranklinGothic-Book-8722"/>
       <use x="58.642578" xlink:href="#FranklinGothic-Book-50"/>
       <use x="117.285156" xlink:href="#FranklinGothic-Book-48"/>
       <use x="175.927734" xlink:href="#FranklinGothic-Book-48"/>
       <use x="234.570312" xlink:href="#FranklinGothic-Book-48"/>
      </g>
     </g>
    </g>
    <g id="ytick_2">
     <g id="line2d_5">
      <path clip-path="url(#p239a8fd824)" d="M 144 338.122582 
L 1036.8 338.122582 
" style="fill:none;stroke:#d3d3d3;stroke-linecap:round;stroke-opacity:0.5;"/>
     </g>
     <g id="text_6">
      <!-- −1000 -->
      <g style="fill:#696969;" transform="translate(67.810781 345.788051)scale(0.23 -0.23)">
       <use xlink:href="#FranklinGothic-Book-8722"/>
       <use x="58.642578" xlink:href="#FranklinGothic-Book-49"/>
       <use x="114.035156" xlink:href="#FranklinGothic-Book-48"/>
       <use x="172.677734" xlink:href="#FranklinGothic-Book-48"/>
       <use x="231.320312" xlink:href="#FranklinGothic-Book-48"/>
      </g>
     </g>
    </g>
    <g id="ytick_3">
     <g id="line2d_6">
      <path clip-path="url(#p239a8fd824)" d="M 144 199.199047 
L 1036.8 199.199047 
" style="fill:none;stroke:#d3d3d3;stroke-linecap:round;stroke-opacity:0.5;"/>
     </g>
     <g id="text_7">
      <!-- 0 -->
      <g style="fill:#696969;" transform="translate(121.012656 206.864515)scale(0.23 -0.23)">
       <use xlink:href="#FranklinGothic-Book-48"/>
      </g>
     </g>
    </g>
    <g id="text_8">
     <!-- Gt -->
     <g style="fill:#696969;" transform="translate(53.232344 338.218906)rotate(-90)scale(0.23 -0.23)">
      <defs>
       <path d="M 57.71875 33.59375 
L 57.71875 -0.875 
L 52.59375 -0.875 
L 50.296875 7.46875 
Q 44.140625 -1.3125 31.984375 -1.3125 
Q 18.796875 -1.3125 11.46875 8.59375 
Q 4.15625 18.5 4.15625 32.671875 
Q 4.15625 47.796875 11.90625 57.90625 
Q 19.671875 68.015625 33.015625 68.015625 
Q 51.421875 68.015625 57.03125 48.6875 
L 49.125 46.78125 
Q 47.40625 54.203125 42.71875 57.5625 
Q 38.03125 60.9375 32.46875 60.9375 
Q 22.609375 60.9375 17.921875 52.96875 
Q 13.234375 45.015625 13.234375 33.015625 
Q 13.234375 20.0625 18.484375 12.765625 
Q 23.734375 5.46875 32.765625 5.46875 
Q 39.796875 5.46875 44.5 10.125 
Q 49.21875 14.796875 49.21875 23 
Q 49.21875 24.515625 49.125 26.609375 
L 32.625 26.609375 
L 32.625 33.59375 
z
" id="FranklinGothic-Book-71"/>
       <path d="M 30.03125 5.28125 
L 30.03125 -0.78125 
Q 25.984375 -1.3125 23 -1.3125 
Q 8.6875 -1.3125 8.6875 13.625 
L 8.6875 43.3125 
L -0.046875 43.3125 
L -0.046875 49.3125 
L 8.6875 49.3125 
L 9.03125 61.71875 
L 16.15625 62.40625 
L 16.15625 49.3125 
L 27.203125 49.3125 
L 27.203125 43.3125 
L 16.15625 43.3125 
L 16.15625 12.359375 
Q 16.15625 4.734375 24.078125 4.734375 
Q 26.703125 4.734375 30.03125 5.28125 
z
" id="FranklinGothic-Book-116"/>
      </defs>
      <use xlink:href="#FranklinGothic-Book-71"/>
      <use x="64.697266" xlink:href="#FranklinGothic-Book-116"/>
     </g>
    </g>
   </g>
   <g id="text_9">
    <!-- Compared to 2005-2005 average -->
    <g style="fill:#696969;" transform="translate(144 75.2652)scale(0.3 -0.3)">
     <defs>
      <path d="M 48.296875 22.40625 
L 55.90625 20.703125 
Q 50.4375 -1.3125 31.203125 -1.3125 
Q 18.5625 -1.3125 11.359375 8.890625 
Q 4.15625 19.09375 4.15625 33.984375 
Q 4.15625 49.359375 11.671875 58.6875 
Q 19.1875 68.015625 31.84375 68.015625 
Q 50.59375 68.015625 55.90625 46.578125 
L 48.046875 45.015625 
Q 43.75 60.9375 31.78125 60.9375 
Q 22.953125 60.9375 18.09375 53.53125 
Q 13.234375 46.140625 13.234375 32.765625 
Q 13.234375 20.515625 18.203125 13.109375 
Q 23.1875 5.71875 31.390625 5.71875 
Q 44.140625 5.71875 48.296875 22.40625 
z
" id="FranklinGothic-Book-67"/>
      <path d="M 25.34375 -1.3125 
Q 15.1875 -1.3125 9.5 6.203125 
Q 3.8125 13.71875 3.8125 24.859375 
Q 3.8125 36.625 10.203125 43.65625 
Q 16.609375 50.6875 26.125 50.6875 
Q 36.328125 50.6875 42.203125 43.28125 
Q 48.09375 35.890625 48.09375 24.8125 
Q 48.09375 13.28125 41.75 5.984375 
Q 35.40625 -1.3125 25.34375 -1.3125 
z
M 25.921875 4.984375 
Q 31.78125 4.984375 35.734375 9.8125 
Q 39.703125 14.65625 39.703125 24.859375 
Q 39.703125 35.109375 35.546875 39.71875 
Q 31.390625 44.34375 25.828125 44.34375 
Q 20.125 44.34375 16.15625 39.671875 
Q 12.203125 35.015625 12.203125 24.90625 
Q 12.203125 14.203125 16.15625 9.59375 
Q 20.125 4.984375 25.921875 4.984375 
z
" id="FranklinGothic-Book-111"/>
      <path d="M 73.734375 0 
L 66.265625 0 
L 66.265625 30.671875 
Q 66.265625 35.40625 65.59375 37.765625 
Q 64.9375 40.140625 62.390625 42.109375 
Q 59.859375 44.09375 56.6875 44.09375 
Q 52.296875 44.09375 48.21875 40.0625 
Q 44.140625 36.03125 44.140625 27.78125 
L 44.140625 0 
L 36.71875 0 
L 36.71875 32.46875 
Q 36.71875 38.96875 33.609375 41.65625 
Q 30.515625 44.34375 27.09375 44.34375 
Q 22.21875 44.34375 18.59375 40.140625 
Q 14.984375 35.9375 14.984375 29.5 
L 14.984375 0 
L 7.671875 0 
L 7.671875 49.3125 
L 14.265625 49.3125 
L 14.265625 39.84375 
Q 19.78125 50.6875 29.4375 50.6875 
Q 34.765625 50.6875 38.46875 47.21875 
Q 42.1875 43.75 43.265625 38.875 
Q 48.34375 50.6875 58.84375 50.6875 
Q 63.875 50.6875 67.65625 47.796875 
Q 71.4375 44.921875 72.578125 41.1875 
Q 73.734375 37.453125 73.734375 30.671875 
z
" id="FranklinGothic-Book-109"/>
      <path d="M 15.328125 -16.65625 
L 7.671875 -16.65625 
L 7.671875 49.3125 
L 14.546875 49.3125 
L 14.546875 39.75 
Q 19.78125 50.6875 30.125 50.6875 
Q 38.875 50.6875 44.234375 43.375 
Q 49.609375 36.078125 49.609375 24.90625 
Q 49.609375 12.84375 44.09375 5.765625 
Q 38.578125 -1.3125 29.9375 -1.3125 
Q 20.65625 -1.3125 15.328125 7.515625 
z
M 15.328125 31.78125 
L 15.328125 17.921875 
Q 16.0625 12.3125 20.0625 8.640625 
Q 24.078125 4.984375 28.421875 4.984375 
Q 33.453125 4.984375 37.328125 9.375 
Q 41.21875 13.765625 41.21875 24.5625 
Q 41.21875 33.890625 37.703125 38.9375 
Q 34.1875 44 28.375 44 
Q 23.78125 44 20.140625 40.421875 
Q 16.5 36.859375 15.328125 31.78125 
z
" id="FranklinGothic-Book-112"/>
      <path d="M 46.1875 66.65625 
L 46.1875 0 
L 39.203125 0 
L 39.203125 8.453125 
Q 34.03125 -1.3125 23.640625 -1.3125 
Q 14.984375 -1.3125 9.421875 5.9375 
Q 3.859375 13.1875 3.859375 24.265625 
Q 3.859375 35.59375 9.375 43.140625 
Q 14.890625 50.6875 24.03125 50.6875 
Q 32.90625 50.6875 38.53125 42.578125 
L 38.53125 66.65625 
z
M 38.53125 30.28125 
Q 38.53125 36.765625 34.5625 40.671875 
Q 30.609375 44.578125 25.34375 44.578125 
Q 19.625 44.578125 15.9375 39.5 
Q 12.25 34.421875 12.25 25.25 
Q 12.25 15.328125 15.640625 10.15625 
Q 19.046875 4.984375 24.953125 4.984375 
Q 30.328125 4.984375 34.421875 9.46875 
Q 38.53125 13.96875 38.53125 20.015625 
z
" id="FranklinGothic-Book-100"/>
      <path id="FranklinGothic-Book-32"/>
      <path d="M 48.875 66.65625 
L 48.1875 59.46875 
L 15.4375 59.46875 
L 14.015625 37.84375 
Q 21.4375 45.125 30.328125 45.125 
Q 39.703125 45.125 46.515625 38.625 
Q 53.328125 32.125 53.328125 22.015625 
Q 53.328125 11.765625 45.921875 5.21875 
Q 38.53125 -1.3125 27.828125 -1.3125 
Q 19.4375 -1.3125 12.890625 3.078125 
Q 6.34375 7.46875 4.296875 14.453125 
L 11.421875 16.890625 
Q 15.828125 5.28125 27.9375 5.28125 
Q 35.890625 5.28125 40.578125 9.984375 
Q 45.265625 14.703125 45.265625 22.015625 
Q 45.265625 29.6875 40.625 33.984375 
Q 35.984375 38.28125 29.5 38.28125 
Q 20.015625 38.28125 13.8125 29.203125 
L 7.234375 30.609375 
L 9.375 66.65625 
z
" id="FranklinGothic-Book-53"/>
      <path d="M 23.53125 27.984375 
L 23.53125 22.015625 
L 1.46875 22.015625 
L 1.46875 27.984375 
z
" id="FranklinGothic-Book-45"/>
      <path d="M 43.796875 49.3125 
L 26.765625 0 
L 18.796875 0 
L 1.171875 49.3125 
L 9.671875 49.3125 
L 23.390625 9.234375 
L 36.96875 49.3125 
z
" id="FranklinGothic-Book-118"/>
      <path d="M 47.953125 57.03125 
L 47.953125 50.921875 
Q 42.671875 50.921875 40.890625 49.703125 
Q 39.109375 48.484375 38.53125 45.3125 
Q 43.265625 39.84375 43.265625 33.40625 
Q 43.265625 26.65625 38.109375 21.828125 
Q 32.953125 17 24.265625 17 
Q 22.3125 17 20.90625 17.28125 
Q 18.21875 17.828125 17.53125 17.828125 
Q 16.21875 17.828125 14.359375 16.53125 
Q 12.5 15.234375 12.5 13.1875 
Q 12.5 10.25 15.1875 9.375 
Q 17.875 8.5 27.828125 8.25 
Q 36.28125 8.015625 40.3125 7.109375 
Q 44.34375 6.203125 47.125 3.09375 
Q 49.90625 0 49.90625 -4.5 
Q 49.90625 -18.609375 25.09375 -18.609375 
Q 13.328125 -18.609375 7.9375 -15.0625 
Q 2.546875 -11.53125 2.546875 -5.609375 
Q 2.546875 1.5625 10.0625 4.25 
Q 5.21875 7.421875 5.21875 12.203125 
Q 5.21875 17.921875 12.0625 20.953125 
Q 5.671875 26.125 5.671875 33.984375 
Q 5.671875 41.3125 11.140625 46 
Q 16.609375 50.6875 24.46875 50.6875 
Q 30.03125 50.6875 34.578125 48.578125 
Q 35.296875 53.421875 37.953125 55.265625 
Q 40.625 57.125 46.046875 57.125 
Q 46.578125 57.125 47.953125 57.03125 
z
M 24.515625 22.859375 
Q 29.390625 22.859375 32.46875 25.859375 
Q 35.546875 28.859375 35.546875 33.640625 
Q 35.546875 38.53125 32.34375 41.625 
Q 29.15625 44.734375 24.609375 44.734375 
Q 20.265625 44.734375 16.890625 41.828125 
Q 13.53125 38.921875 13.53125 33.546875 
Q 13.53125 28.765625 16.546875 25.8125 
Q 19.578125 22.859375 24.515625 22.859375 
z
M 15.328125 2 
Q 9.96875 -0.34375 9.96875 -4.78125 
Q 9.96875 -8.546875 14.375 -10.625 
Q 18.796875 -12.703125 25.640625 -12.703125 
Q 31.984375 -12.703125 37.25 -10.90625 
Q 42.53125 -9.125 42.53125 -4.890625 
Q 42.53125 -2.59375 40.96875 -1.125 
Q 39.40625 0.34375 36.6875 0.734375 
Q 33.984375 1.125 27.25 1.3125 
Q 19.1875 1.515625 15.328125 2 
z
" id="FranklinGothic-Book-103"/>
     </defs>
     <use xlink:href="#FranklinGothic-Book-67"/>
     <use x="57.910156" xlink:href="#FranklinGothic-Book-111"/>
     <use x="109.863281" xlink:href="#FranklinGothic-Book-109"/>
     <use x="190.384766" xlink:href="#FranklinGothic-Book-112"/>
     <use x="243.802734" xlink:href="#FranklinGothic-Book-97"/>
     <use x="296.683594" xlink:href="#FranklinGothic-Book-114"/>
     <use x="329.642578" xlink:href="#FranklinGothic-Book-101"/>
     <use x="381.693359" xlink:href="#FranklinGothic-Book-100"/>
     <use x="435.550781" xlink:href="#FranklinGothic-Book-32"/>
     <use x="460.550781" xlink:href="#FranklinGothic-Book-116"/>
     <use x="489.8125" xlink:href="#FranklinGothic-Book-111"/>
     <use x="541.765625" xlink:href="#FranklinGothic-Book-32"/>
     <use x="566.765625" xlink:href="#FranklinGothic-Book-50"/>
     <use x="625.408203" xlink:href="#FranklinGothic-Book-48"/>
     <use x="684.050781" xlink:href="#FranklinGothic-Book-48"/>
     <use x="742.693359" xlink:href="#FranklinGothic-Book-53"/>
     <use x="801.335938" xlink:href="#FranklinGothic-Book-45"/>
     <use x="826.335938" xlink:href="#FranklinGothic-Book-50"/>
     <use x="884.978516" xlink:href="#FranklinGothic-Book-48"/>
     <use x="943.621094" xlink:href="#FranklinGothic-Book-48"/>
     <use x="1002.263672" xlink:href="#FranklinGothic-Book-53"/>
     <use x="1060.90625" xlink:href="#FranklinGothic-Book-32"/>
     <use x="1085.90625" xlink:href="#FranklinGothic-Book-97"/>
     <use x="1136.537109" xlink:href="#FranklinGothic-Book-118"/>
     <use x="1180.056641" xlink:href="#FranklinGothic-Book-101"/>
     <use x="1232.107422" xlink:href="#FranklinGothic-Book-114"/>
     <use x="1265.066406" xlink:href="#FranklinGothic-Book-97"/>
     <use x="1317.947266" xlink:href="#FranklinGothic-Book-103"/>
     <use x="1367.068359" xlink:href="#FranklinGothic-Book-101"/>
    </g>
   </g>
   <g id="text_10">
    <!-- Antarctic ice sheet cumulative mass balance -->
    <g style="fill:#696969;" transform="translate(144 42.76)scale(0.4 -0.4)">
     <defs>
      <path d="M 53.21875 0 
L 44.671875 0 
L 37.9375 19.484375 
L 13.28125 19.484375 
L 7.328125 0 
L 0.34375 0 
L 21.96875 66.65625 
L 31.5 66.65625 
z
M 36.1875 25.734375 
L 25.921875 57.765625 
L 15.578125 25.734375 
z
" id="FranklinGothic-Book-65"/>
      <path d="M 46.53125 0 
L 39.359375 0 
L 39.359375 31.6875 
Q 39.359375 38.53125 36.375 41.3125 
Q 33.40625 44.09375 29.15625 44.09375 
Q 23.296875 44.09375 19.3125 39.40625 
Q 15.328125 34.71875 15.328125 27.046875 
L 15.328125 0 
L 7.671875 0 
L 7.671875 49.3125 
L 14.796875 49.3125 
L 14.796875 40.234375 
Q 20.796875 50.6875 30.375 50.6875 
Q 35.890625 50.6875 39.765625 47.828125 
Q 43.65625 44.96875 45.09375 41.40625 
Q 46.53125 37.84375 46.53125 28.515625 
z
" id="FranklinGothic-Book-110"/>
      <path d="M 36.8125 17.28125 
L 43.75 16.0625 
Q 42.28125 7.90625 37.25 3.296875 
Q 32.234375 -1.3125 24.703125 -1.3125 
Q 14.5 -1.3125 9.15625 6.203125 
Q 3.8125 13.71875 3.8125 24.5625 
Q 3.8125 35.796875 9.453125 43.234375 
Q 15.09375 50.6875 24.8125 50.6875 
Q 32.859375 50.6875 37.71875 45.875 
Q 42.578125 41.0625 43.75 33.453125 
L 36.8125 32.125 
Q 34.859375 44.34375 25 44.34375 
Q 18.65625 44.34375 15.234375 38.9375 
Q 11.8125 33.546875 11.8125 24.953125 
Q 11.8125 15.484375 15.203125 10.234375 
Q 18.609375 4.984375 24.75 4.984375 
Q 34.28125 4.984375 36.8125 17.28125 
z
" id="FranklinGothic-Book-99"/>
      <path d="M 15.578125 66.65625 
L 15.578125 58.15625 
L 7.328125 58.15625 
L 7.328125 66.65625 
z
M 15.328125 49.3125 
L 15.328125 0 
L 7.671875 0 
L 7.671875 49.3125 
z
" id="FranklinGothic-Book-105"/>
      <path d="M 1.03125 12.796875 
L 8.34375 14.3125 
Q 10.796875 4.984375 23.78125 4.984375 
Q 28.5625 4.984375 31.875 7.125 
Q 35.203125 9.28125 35.203125 13.1875 
Q 35.203125 19 26.765625 20.5625 
L 16.359375 22.515625 
Q 10.25 23.6875 6.640625 27.09375 
Q 3.03125 30.515625 3.03125 36.140625 
Q 3.03125 42.328125 7.953125 46.5 
Q 12.890625 50.6875 21.234375 50.6875 
Q 37.3125 50.6875 41.0625 38.140625 
L 34.03125 36.625 
Q 31 44.34375 21.578125 44.34375 
Q 16.890625 44.34375 13.890625 42.40625 
Q 10.890625 40.484375 10.890625 37.015625 
Q 10.890625 31.546875 18.5625 30.125 
L 28.171875 28.421875 
Q 43.265625 25.6875 43.265625 13.8125 
Q 43.265625 7.03125 37.640625 2.859375 
Q 32.03125 -1.3125 22.703125 -1.3125 
Q 5.171875 -1.3125 1.03125 12.796875 
z
" id="FranklinGothic-Book-115"/>
      <path d="M 46.34375 0 
L 38.671875 0 
L 38.671875 29.9375 
Q 38.671875 35.203125 38.015625 37.84375 
Q 37.359375 40.484375 34.890625 42.40625 
Q 32.421875 44.34375 29.203125 44.34375 
Q 23.296875 44.34375 19.3125 39.5 
Q 15.328125 34.671875 15.328125 26.5625 
L 15.328125 0 
L 7.671875 0 
L 7.671875 66.65625 
L 15.328125 66.65625 
L 15.328125 40.234375 
Q 20.5625 50.6875 30.28125 50.6875 
Q 34.625 50.6875 38.015625 48.96875 
Q 41.40625 47.265625 43.203125 44.484375 
Q 45.015625 41.703125 45.671875 38.984375 
Q 46.34375 36.28125 46.34375 29.9375 
z
" id="FranklinGothic-Book-104"/>
      <path d="M 46.484375 0 
L 39.59375 0 
L 39.59375 9.421875 
Q 34.328125 -1.3125 23.875 -1.3125 
Q 16.3125 -1.3125 11.984375 3.65625 
Q 7.671875 8.640625 7.671875 17.828125 
L 7.671875 49.3125 
L 15.328125 49.3125 
L 15.328125 17.828125 
Q 15.328125 10.5 18.375 7.734375 
Q 21.4375 4.984375 25.09375 4.984375 
Q 28.8125 4.984375 31.8125 7.078125 
Q 34.8125 9.1875 36.8125 13.0625 
Q 38.8125 16.9375 38.8125 21.53125 
L 38.8125 49.3125 
L 46.484375 49.3125 
z
" id="FranklinGothic-Book-117"/>
      <path d="M 15.328125 0 
L 7.671875 0 
L 7.671875 66.65625 
L 15.328125 66.65625 
z
" id="FranklinGothic-Book-108"/>
      <path d="M 11.375 0 
L 7.671875 0 
L 7.671875 66.65625 
L 15.328125 66.65625 
L 15.328125 41.109375 
Q 20.609375 50.6875 29.890625 50.6875 
Q 38.375 50.6875 44.109375 44 
Q 49.859375 37.3125 49.859375 24.5625 
Q 49.859375 13.578125 44.21875 6.125 
Q 38.578125 -1.3125 29.546875 -1.3125 
Q 19.484375 -1.3125 14.109375 8.15625 
z
M 15.328125 19.34375 
Q 15.875 11.765625 20 8.34375 
Q 24.125 4.9375 28.71875 4.9375 
Q 34.578125 4.9375 38.15625 10.015625 
Q 41.75 15.09375 41.75 23.921875 
Q 41.75 33.453125 38.28125 38.890625 
Q 34.8125 44.34375 28.65625 44.34375 
Q 23.828125 44.34375 19.9375 40.453125 
Q 16.0625 36.578125 15.328125 30.421875 
z
" id="FranklinGothic-Book-98"/>
     </defs>
     <use xlink:href="#FranklinGothic-Book-65"/>
     <use x="53.564453" xlink:href="#FranklinGothic-Book-110"/>
     <use x="107.763672" xlink:href="#FranklinGothic-Book-116"/>
     <use x="138.525391" xlink:href="#FranklinGothic-Book-97"/>
     <use x="191.40625" xlink:href="#FranklinGothic-Book-114"/>
     <use x="222.865234" xlink:href="#FranklinGothic-Book-99"/>
     <use x="269.447266" xlink:href="#FranklinGothic-Book-116"/>
     <use x="300.208984" xlink:href="#FranklinGothic-Book-105"/>
     <use x="323.158203" xlink:href="#FranklinGothic-Book-99"/>
     <use x="369.740234" xlink:href="#FranklinGothic-Book-32"/>
     <use x="394.740234" xlink:href="#FranklinGothic-Book-105"/>
     <use x="417.689453" xlink:href="#FranklinGothic-Book-99"/>
     <use x="464.271484" xlink:href="#FranklinGothic-Book-101"/>
     <use x="516.322266" xlink:href="#FranklinGothic-Book-32"/>
     <use x="541.322266" xlink:href="#FranklinGothic-Book-115"/>
     <use x="587.708984" xlink:href="#FranklinGothic-Book-104"/>
     <use x="641.712891" xlink:href="#FranklinGothic-Book-101"/>
     <use x="693.763672" xlink:href="#FranklinGothic-Book-101"/>
     <use x="745.314453" xlink:href="#FranklinGothic-Book-116"/>
     <use x="776.076172" xlink:href="#FranklinGothic-Book-32"/>
     <use x="801.076172" xlink:href="#FranklinGothic-Book-99"/>
     <use x="847.658203" xlink:href="#FranklinGothic-Book-117"/>
     <use x="901.808594" xlink:href="#FranklinGothic-Book-109"/>
     <use x="983.205078" xlink:href="#FranklinGothic-Book-117"/>
     <use x="1037.355469" xlink:href="#FranklinGothic-Book-108"/>
     <use x="1060.353516" xlink:href="#FranklinGothic-Book-97"/>
     <use x="1113.234375" xlink:href="#FranklinGothic-Book-116"/>
     <use x="1143.996094" xlink:href="#FranklinGothic-Book-105"/>
     <use x="1166.945312" xlink:href="#FranklinGothic-Book-118"/>
     <use x="1210.464844" xlink:href="#FranklinGothic-Book-101"/>
     <use x="1262.515625" xlink:href="#FranklinGothic-Book-32"/>
     <use x="1287.515625" xlink:href="#FranklinGothic-Book-109"/>
     <use x="1368.912109" xlink:href="#FranklinGothic-Book-97"/>
     <use x="1421.792969" xlink:href="#FranklinGothic-Book-115"/>
     <use x="1468.179688" xlink:href="#FranklinGothic-Book-115"/>
     <use x="1514.566406" xlink:href="#FranklinGothic-Book-32"/>
     <use x="1539.566406" xlink:href="#FranklinGothic-Book-98"/>
     <use x="1593.277344" xlink:href="#FranklinGothic-Book-97"/>
     <use x="1646.158203" xlink:href="#FranklinGothic-Book-108"/>
     <use x="1669.15625" xlink:href="#FranklinGothic-Book-97"/>
     <use x="1722.037109" xlink:href="#FranklinGothic-Book-110"/>
     <use x="1776.236328" xlink:href="#FranklinGothic-Book-99"/>
     <use x="1822.818359" xlink:href="#FranklinGothic-Book-101"/>
    </g>
   </g>
   <g id="legend_1">
    <g id="line2d_7"/>
    <g id="text_11">
     <!-- Velicogna et al. (2002.01-2023.09) -->
     <g style="fill:#136491;" transform="translate(684.197375 129.7184)scale(0.2 -0.2)">
      <defs>
       <path d="M 53.328125 66.65625 
L 30.859375 0 
L 22.796875 0 
L 0.34375 66.65625 
L 9.03125 66.65625 
L 27.640625 11.671875 
L 46.046875 66.65625 
z
" id="FranklinGothic-Book-86"/>
       <path d="M 17.96875 10.9375 
L 17.96875 0 
L 7.078125 0 
L 7.078125 10.9375 
z
" id="FranklinGothic-Book-46"/>
       <path d="M 24.703125 -16.65625 
L 19.578125 -16.65625 
Q 5.21875 2.203125 5.21875 25.09375 
Q 5.21875 46.96875 19.578125 66.65625 
L 24.703125 66.65625 
Q 12.359375 48.25 12.359375 25 
Q 12.359375 2.828125 24.703125 -16.65625 
z
" id="FranklinGothic-Book-40"/>
       <path d="M 19.34375 31.34375 
L 19.34375 37.984375 
L 26.953125 37.984375 
Q 35.296875 37.984375 38.890625 41.40625 
Q 42.484375 44.828125 42.484375 49.703125 
Q 42.484375 55.078125 38.46875 58.21875 
Q 34.46875 61.375 28.421875 61.375 
Q 17.1875 61.375 12.890625 50.53125 
L 5.375 52.6875 
Q 11.8125 68.015625 29.203125 68.015625 
Q 38.96875 68.015625 44.96875 62.8125 
Q 50.984375 57.625 50.984375 50.296875 
Q 50.984375 44.625 47.359375 40.40625 
Q 43.75 36.1875 38.09375 35.109375 
Q 44.4375 34.1875 49 29.78125 
Q 53.5625 25.390625 53.5625 18.40625 
Q 53.5625 10.0625 46.765625 4.375 
Q 39.984375 -1.3125 28.171875 -1.3125 
Q 18.796875 -1.3125 12.125 3.125 
Q 5.46875 7.5625 2.9375 14.9375 
L 10.6875 17.53125 
Q 14.203125 5.46875 28.03125 5.46875 
Q 37.015625 5.46875 40.9375 9.296875 
Q 44.875 13.140625 44.875 18.453125 
Q 44.875 24.21875 40.15625 27.78125 
Q 35.453125 31.34375 26.953125 31.34375 
z
" id="FranklinGothic-Book-51"/>
       <path d="M 5.71875 12.15625 
L 12.40625 14.59375 
Q 16.546875 5.375 26.375 5.375 
Q 35.890625 5.375 40.703125 13.375 
Q 45.515625 21.390625 45.65625 35.109375 
Q 39.109375 23.09375 25.984375 23.09375 
Q 16.703125 23.09375 10.40625 29.421875 
Q 4.109375 35.75 4.109375 45.0625 
Q 4.109375 54.546875 10.71875 61.28125 
Q 17.328125 68.015625 27.59375 68.015625 
Q 40.140625 68.015625 46.828125 59.203125 
Q 53.515625 50.390625 53.515625 34.96875 
Q 53.515625 18.75 46.4375 8.71875 
Q 39.359375 -1.3125 26.265625 -1.3125 
Q 10.984375 -1.3125 5.71875 12.15625 
z
M 27.828125 29.78125 
Q 34.71875 29.78125 39.375 34.59375 
Q 44.046875 39.40625 44.046875 45.84375 
Q 44.046875 52.09375 39.625 56.578125 
Q 35.203125 61.078125 27.984375 61.078125 
Q 20.65625 61.078125 16.40625 56.46875 
Q 12.15625 51.859375 12.15625 45.21875 
Q 12.15625 38.09375 16.859375 33.9375 
Q 21.578125 29.78125 27.828125 29.78125 
z
" id="FranklinGothic-Book-57"/>
       <path d="M 4.640625 66.65625 
L 9.71875 66.65625 
Q 24.125 47.796875 24.125 24.90625 
Q 24.125 3.03125 9.71875 -16.65625 
L 4.640625 -16.65625 
Q 17 1.765625 17 25 
Q 17 47.171875 4.640625 66.65625 
z
" id="FranklinGothic-Book-41"/>
      </defs>
      <use xlink:href="#FranklinGothic-Book-86"/>
      <use x="49.912109" xlink:href="#FranklinGothic-Book-101"/>
      <use x="101.962891" xlink:href="#FranklinGothic-Book-108"/>
      <use x="124.960938" xlink:href="#FranklinGothic-Book-105"/>
      <use x="147.910156" xlink:href="#FranklinGothic-Book-99"/>
      <use x="194.492188" xlink:href="#FranklinGothic-Book-111"/>
      <use x="246.445312" xlink:href="#FranklinGothic-Book-103"/>
      <use x="295.566406" xlink:href="#FranklinGothic-Book-110"/>
      <use x="349.765625" xlink:href="#FranklinGothic-Book-97"/>
      <use x="402.646484" xlink:href="#FranklinGothic-Book-32"/>
      <use x="427.646484" xlink:href="#FranklinGothic-Book-101"/>
      <use x="479.197266" xlink:href="#FranklinGothic-Book-116"/>
      <use x="509.958984" xlink:href="#FranklinGothic-Book-32"/>
      <use x="534.958984" xlink:href="#FranklinGothic-Book-97"/>
      <use x="587.839844" xlink:href="#FranklinGothic-Book-108"/>
      <use x="610.837891" xlink:href="#FranklinGothic-Book-46"/>
      <use x="635.837891" xlink:href="#FranklinGothic-Book-32"/>
      <use x="660.837891" xlink:href="#FranklinGothic-Book-40"/>
      <use x="690.183594" xlink:href="#FranklinGothic-Book-50"/>
      <use x="748.826172" xlink:href="#FranklinGothic-Book-48"/>
      <use x="807.46875" xlink:href="#FranklinGothic-Book-48"/>
      <use x="866.111328" xlink:href="#FranklinGothic-Book-50"/>
      <use x="924.753906" xlink:href="#FranklinGothic-Book-46"/>
      <use x="949.753906" xlink:href="#FranklinGothic-Book-48"/>
      <use x="1004.646484" xlink:href="#FranklinGothic-Book-49"/>
      <use x="1063.289062" xlink:href="#FranklinGothic-Book-45"/>
      <use x="1088.289062" xlink:href="#FranklinGothic-Book-50"/>
      <use x="1146.931641" xlink:href="#FranklinGothic-Book-48"/>
      <use x="1205.574219" xlink:href="#FranklinGothic-Book-50"/>
      <use x="1264.216797" xlink:href="#FranklinGothic-Book-51"/>
      <use x="1322.859375" xlink:href="#FranklinGothic-Book-46"/>
      <use x="1347.859375" xlink:href="#FranklinGothic-Book-48"/>
      <use x="1406.501953" xlink:href="#FranklinGothic-Book-57"/>
      <use x="1465.144531" xlink:href="#FranklinGothic-Book-41"/>
     </g>
    </g>
    <g id="line2d_8"/>
    <g id="text_12">
     <!-- IMBIE 2021 (1992.01-2020.12) -->
     <g style="fill:#d55e00;" transform="translate(684.197375 157.440275)scale(0.2 -0.2)">
      <defs>
       <path d="M 16.703125 0 
L 8.34375 0 
L 8.34375 66.65625 
L 16.703125 66.65625 
z
" id="FranklinGothic-Book-73"/>
       <path d="M 72.703125 0 
L 64.59375 0 
L 64.59375 58.203125 
L 42.921875 0 
L 37.25 0 
L 15.4375 58.203125 
L 15.4375 0 
L 8.34375 0 
L 8.34375 66.65625 
L 20.75 66.65625 
L 40.828125 13.328125 
L 60.5 66.65625 
L 72.703125 66.65625 
z
" id="FranklinGothic-Book-77"/>
       <path d="M 8.34375 0 
L 8.34375 66.65625 
L 34.71875 66.65625 
Q 44.671875 66.65625 49.484375 61.765625 
Q 54.296875 56.890625 54.296875 50.4375 
Q 54.296875 39.109375 42.484375 35.40625 
Q 49.515625 33.59375 52.921875 28.953125 
Q 56.34375 24.3125 56.34375 18.453125 
Q 56.34375 10.59375 51.046875 5.296875 
Q 45.75 0 34.71875 0 
z
M 16.40625 38.09375 
L 30.90625 38.09375 
Q 39.9375 38.09375 42.96875 41.53125 
Q 46 44.96875 46 49.609375 
Q 46 54.203125 42.75 57.03125 
Q 39.5 59.859375 33.0625 59.859375 
L 16.40625 59.859375 
z
M 16.40625 7.328125 
L 34.28125 7.328125 
Q 40.828125 7.328125 44.390625 10.5 
Q 47.953125 13.671875 47.953125 18.75 
Q 47.953125 22.3125 46.34375 25.359375 
Q 44.734375 28.421875 41.796875 30.078125 
Q 38.875 31.734375 33.0625 31.734375 
L 16.40625 31.734375 
z
" id="FranklinGothic-Book-66"/>
       <path d="M 51.46875 7.328125 
L 51.46875 0 
L 8.34375 0 
L 8.34375 66.65625 
L 50.53125 66.65625 
L 50.53125 59.328125 
L 16.703125 59.328125 
L 16.703125 38.140625 
L 43.5625 38.140625 
L 43.5625 31.34375 
L 16.703125 31.34375 
L 16.703125 7.328125 
z
" id="FranklinGothic-Book-69"/>
      </defs>
      <use xlink:href="#FranklinGothic-Book-73"/>
      <use x="25" xlink:href="#FranklinGothic-Book-77"/>
      <use x="106.005859" xlink:href="#FranklinGothic-Book-66"/>
      <use x="166.455078" xlink:href="#FranklinGothic-Book-73"/>
      <use x="191.455078" xlink:href="#FranklinGothic-Book-69"/>
      <use x="246.240234" xlink:href="#FranklinGothic-Book-32"/>
      <use x="271.240234" xlink:href="#FranklinGothic-Book-50"/>
      <use x="329.882812" xlink:href="#FranklinGothic-Book-48"/>
      <use x="388.525391" xlink:href="#FranklinGothic-Book-50"/>
      <use x="443.667969" xlink:href="#FranklinGothic-Book-49"/>
      <use x="502.310547" xlink:href="#FranklinGothic-Book-32"/>
      <use x="527.310547" xlink:href="#FranklinGothic-Book-40"/>
      <use x="556.65625" xlink:href="#FranklinGothic-Book-49"/>
      <use x="613.923828" xlink:href="#FranklinGothic-Book-57"/>
      <use x="672.566406" xlink:href="#FranklinGothic-Book-57"/>
      <use x="731.208984" xlink:href="#FranklinGothic-Book-50"/>
      <use x="789.851562" xlink:href="#FranklinGothic-Book-46"/>
      <use x="814.851562" xlink:href="#FranklinGothic-Book-48"/>
      <use x="869.744141" xlink:href="#FranklinGothic-Book-49"/>
      <use x="928.386719" xlink:href="#FranklinGothic-Book-45"/>
      <use x="953.386719" xlink:href="#FranklinGothic-Book-50"/>
      <use x="1012.029297" xlink:href="#FranklinGothic-Book-48"/>
      <use x="1070.671875" xlink:href="#FranklinGothic-Book-50"/>
      <use x="1129.314453" xlink:href="#FranklinGothic-Book-48"/>
      <use x="1187.957031" xlink:href="#FranklinGothic-Book-46"/>
      <use x="1209.082031" xlink:href="#FranklinGothic-Book-49"/>
      <use x="1267.724609" xlink:href="#FranklinGothic-Book-50"/>
      <use x="1326.367188" xlink:href="#FranklinGothic-Book-41"/>
     </g>
    </g>
   </g>
   <g id="line2d_9">
    <path clip-path="url(#p239a8fd824)" d="M 184.581818 109.084059 
L 188.853589 108.382495 
L 193.125359 111.40768 
L 208.076555 115.902273 
L 235.843062 128.075086 
L 261.473684 140.575676 
L 270.017225 145.102736 
L 291.376077 153.229943 
L 297.783732 155.590226 
L 310.599043 158.180636 
L 338.36555 159.380213 
L 363.996172 161.275867 
L 391.762679 164.492141 
L 415.257416 167.653846 
L 440.888038 171.968005 
L 449.431579 173.189032 
L 464.382775 176.163691 
L 470.790431 178.480546 
L 477.198086 180.753738 
L 481.469856 182.31014 
L 485.741627 184.089028 
L 492.149282 186.782158 
L 500.692823 190.08262 
L 515.644019 195.328206 
L 524.18756 198.003596 
L 534.866986 201.084503 
L 541.274641 203.24964 
L 554.089952 208.610213 
L 558.361722 210.559199 
L 564.769378 213.849617 
L 569.041148 216.280223 
L 583.992344 225.560718 
L 596.807656 233.57712 
L 603.215311 237.391752 
L 613.894737 243.613234 
L 618.166507 246.325286 
L 637.389474 257.573091 
L 643.797129 261.644828 
L 658.748325 272.641682 
L 669.427751 281.546153 
L 677.971292 289.739613 
L 690.786603 301.508965 
L 695.058373 305.341615 
L 703.601914 312.526115 
L 720.688995 328.644204 
L 748.455502 356.958085 
L 771.950239 382.559039 
L 776.22201 385.758726 
L 784.76555 391.759584 
L 797.580861 400.357409 
L 806.124402 403.762883 
L 812.532057 405.953763 
L 821.075598 408.618094 
L 823.211483 409.237165 
L 829.619139 412.28837 
L 831.755024 413.324393 
L 838.162679 415.489432 
L 842.43445 417.159321 
L 848.842105 419.851784 
L 855.249761 425.196923 
L 863.793301 431.9675 
L 870.200957 439.234632 
L 876.608612 446.80245 
L 878.744498 448.842 
L 897.967464 465.673795 
L 902.239234 469.39821 
L 925.733971 480.434643 
L 925.733971 480.434643 
" style="fill:none;stroke:#d55e00;stroke-linecap:round;"/>
   </g>
   <g id="line2d_10">
    <path clip-path="url(#p239a8fd824)" d="M 447.295694 192.566142 
L 449.431579 153.024059 
L 455.839234 192.111585 
L 457.97512 189.683062 
L 460.111005 169.681685 
L 462.24689 208.531235 
L 464.382775 215.384472 
L 466.51866 255.296926 
L 468.654545 216.583243 
L 470.790431 208.802414 
L 472.926316 189.109447 
L 475.062201 183.926488 
L 479.333971 195.164846 
L 483.605742 207.759098 
L 485.741627 199.123472 
L 487.877512 204.174732 
L 490.013397 214.473967 
L 492.149282 228.095281 
L 494.285167 250.205656 
L 496.421053 232.367874 
L 498.556938 222.432341 
L 500.692823 181.146628 
L 502.828708 206.137583 
L 504.964593 221.664788 
L 507.100478 195.244588 
L 509.236364 201.219134 
L 511.372249 194.039704 
L 513.508134 220.855142 
L 515.644019 225.404471 
L 517.779904 232.611129 
L 519.915789 244.561193 
L 522.051675 225.868614 
L 524.18756 204.499257 
L 526.323445 194.464255 
L 528.45933 199.199047 
L 530.595215 186.812763 
L 532.7311 196.782194 
L 534.866986 178.776175 
L 537.002871 181.995728 
L 539.138756 175.85767 
L 541.274641 195.772914 
L 543.410526 198.930924 
L 545.546411 207.054756 
L 547.682297 168.77771 
L 549.818182 169.713082 
L 551.954067 175.362824 
L 554.089952 150.662497 
L 556.225837 168.996792 
L 558.361722 127.830831 
L 560.497608 151.846682 
L 562.633493 181.584098 
L 564.769378 186.692733 
L 566.905263 190.97783 
L 569.041148 230.989336 
L 571.177033 232.539445 
L 573.312919 194.349921 
L 575.448804 187.467649 
L 577.584689 163.574745 
L 579.720574 167.000739 
L 581.856459 174.45996 
L 583.992344 172.571572 
L 586.12823 160.899912 
L 588.264115 201.571722 
L 590.4 225.919183 
L 592.535885 241.774387 
L 594.67177 268.088449 
L 596.807656 251.826199 
L 598.943541 249.623983 
L 601.079426 213.802272 
L 603.215311 201.453914 
L 605.351196 221.420839 
L 607.487081 246.057677 
L 609.622967 236.888724 
L 611.758852 203.69225 
L 613.894737 236.289825 
L 616.030622 241.79467 
L 618.166507 251.518206 
L 620.302392 257.61417 
L 622.438278 256.571271 
L 624.574163 236.831765 
L 626.710048 213.903964 
L 628.845933 208.163921 
L 630.981818 223.90632 
L 633.117703 197.230222 
L 635.253589 196.810117 
L 637.389474 211.814971 
L 639.525359 242.644048 
L 641.661244 224.611495 
L 643.797129 238.847546 
L 645.933014 275.257182 
L 648.0689 258.444933 
L 650.204785 240.391681 
L 652.34067 239.85099 
L 654.476555 244.173179 
L 656.61244 269.656063 
L 658.748325 290.516126 
L 660.884211 268.905181 
L 663.020096 268.092895 
L 665.155981 280.475705 
L 667.291866 287.040954 
L 669.427751 274.385298 
L 673.699522 287.912004 
L 675.835407 279.532415 
L 677.971292 276.096141 
L 680.107177 273.521193 
L 684.378947 243.560388 
L 686.514833 261.11421 
L 688.650718 240.436831 
L 690.786603 261.965256 
L 692.922488 267.500803 
L 695.058373 298.945589 
L 697.194258 287.221138 
L 699.330144 301.123355 
L 701.466029 285.342752 
L 703.601914 271.604743 
L 707.873684 309.992928 
L 710.009569 315.882452 
L 714.28134 254.079956 
L 718.55311 287.239476 
L 720.688995 300.669075 
L 722.82488 312.487022 
L 724.960766 337.99769 
L 729.232536 292.604008 
L 731.368421 292.972711 
L 733.504306 309.100622 
L 735.640191 285.860243 
L 742.047847 315.714772 
L 744.183732 333.184128 
L 746.319617 334.952347 
L 748.455502 382.099383 
L 752.727273 347.238883 
L 754.863158 341.237942 
L 756.999043 319.105617 
L 759.134928 339.15534 
L 763.406699 339.83287 
L 765.542584 316.561094 
L 767.678469 339.659493 
L 769.814354 348.953756 
L 774.086124 382.29985 
L 776.22201 407.852611 
L 778.357895 399.40606 
L 780.49378 387.528654 
L 782.629665 358.522253 
L 786.901435 363.918877 
L 789.037321 413.978722 
L 791.173206 413.942185 
L 797.580861 411.039239 
L 799.716746 410.604409 
L 801.852632 396.994209 
L 803.988517 389.262558 
L 808.260287 399.360077 
L 810.396172 382.585754 
L 812.532057 345.784771 
L 814.667943 375.342698 
L 821.075598 392.479472 
L 823.211483 361.337955 
L 825.347368 345.200042 
L 827.483254 373.47501 
L 829.619139 430.024807 
L 831.755024 390.670132 
L 833.890909 372.894726 
L 833.890909 353.854283 
M 861.657416 375.800451 
L 863.793301 382.34236 
L 870.200957 412.495991 
L 872.336842 412.92596 
L 874.472727 444.474106 
L 876.608612 449.584269 
L 878.744498 456.223425 
L 880.880383 433.052229 
L 883.016268 425.190268 
L 885.152153 383.518765 
L 887.288038 398.921912 
L 889.423923 386.383785 
L 891.559809 405.110816 
L 893.695694 416.870277 
L 895.831579 431.962652 
L 897.967464 429.799751 
L 900.103349 440.428235 
L 902.239234 482.815334 
L 904.37512 483.610394 
L 906.511005 473.950346 
L 908.64689 442.67324 
L 910.782775 419.411188 
L 912.91866 413.890089 
L 915.054545 427.951513 
L 917.190431 410.062329 
L 919.326316 419.332141 
L 921.462201 446.573101 
L 923.598086 467.246313 
L 925.733971 468.339502 
L 927.869856 501.302723 
L 930.005742 479.343218 
L 932.141627 461.856079 
L 934.277512 405.983117 
L 936.413397 401.177752 
L 938.549282 442.693939 
L 940.685167 463.416469 
L 942.821053 448.163915 
L 944.956938 475.532824 
L 947.092823 443.029995 
L 949.228708 484.538125 
L 951.364593 471.590868 
L 953.500478 481.715616 
L 955.636364 476.371227 
L 957.772249 462.598765 
L 959.908134 392.708973 
L 962.044019 362.792068 
L 964.179904 384.463306 
L 966.315789 411.954745 
L 970.58756 395.875041 
L 972.723445 428.846875 
L 976.995215 416.101335 
L 979.1311 419.627492 
L 981.266986 424.535661 
L 983.402871 405.062193 
L 985.538756 350.652651 
L 987.674641 385.114579 
L 989.810526 394.208375 
L 991.946411 414.268378 
L 994.082297 380.967017 
L 996.218182 387.719951 
L 996.218182 387.719951 
" style="fill:none;stroke:#136491;stroke-linecap:round;"/>
   </g>
  </g>
  <g id="text_13">
   <g id="patch_4">
    <path d="M 875.469375 646.18275 
L 1040.76 646.18275 
L 1040.76 628.26525 
L 875.469375 628.26525 
z
" style="fill:#ffffff;stroke:#ffffff;stroke-linejoin:miter;"/>
   </g>
   <!-- Created: 2024-03-21 10:13:10 -->
   <g style="fill:#696969;" transform="translate(879.429375 640.224)scale(0.12 -0.12)">
    <defs>
     <path d="M 17.96875 49.3125 
L 17.96875 38.375 
L 7.078125 38.375 
L 7.078125 49.3125 
z
M 17.96875 10.984375 
L 17.96875 0 
L 7.078125 0 
L 7.078125 10.984375 
z
" id="FranklinGothic-Book-58"/>
     <path d="M 44.09375 0 
L 36.03125 0 
L 36.03125 15.875 
L 3.078125 15.875 
L 3.078125 21.484375 
L 33.640625 68.0625 
L 44.09375 68.0625 
L 44.09375 22.46875 
L 54.890625 22.46875 
L 54.890625 15.875 
L 44.09375 15.875 
z
M 36.03125 22.46875 
L 36.03125 54 
Q 36.03125 57.421875 36.1875 61.375 
Q 34.078125 57.515625 32.5625 55.125 
L 11.765625 22.46875 
z
" id="FranklinGothic-Book-52"/>
    </defs>
    <use xlink:href="#FranklinGothic-Book-67"/>
    <use x="57.910156" xlink:href="#FranklinGothic-Book-114"/>
    <use x="90.869141" xlink:href="#FranklinGothic-Book-101"/>
    <use x="142.919922" xlink:href="#FranklinGothic-Book-97"/>
    <use x="195.800781" xlink:href="#FranklinGothic-Book-116"/>
    <use x="224.8125" xlink:href="#FranklinGothic-Book-101"/>
    <use x="276.863281" xlink:href="#FranklinGothic-Book-100"/>
    <use x="330.720703" xlink:href="#FranklinGothic-Book-58"/>
    <use x="355.720703" xlink:href="#FranklinGothic-Book-32"/>
    <use x="380.720703" xlink:href="#FranklinGothic-Book-50"/>
    <use x="439.363281" xlink:href="#FranklinGothic-Book-48"/>
    <use x="498.005859" xlink:href="#FranklinGothic-Book-50"/>
    <use x="552.273438" xlink:href="#FranklinGothic-Book-52"/>
    <use x="610.916016" xlink:href="#FranklinGothic-Book-45"/>
    <use x="635.916016" xlink:href="#FranklinGothic-Book-48"/>
    <use x="694.558594" xlink:href="#FranklinGothic-Book-51"/>
    <use x="753.201172" xlink:href="#FranklinGothic-Book-45"/>
    <use x="778.201172" xlink:href="#FranklinGothic-Book-50"/>
    <use x="833.34375" xlink:href="#FranklinGothic-Book-49"/>
    <use x="891.986328" xlink:href="#FranklinGothic-Book-32"/>
    <use x="916.986328" xlink:href="#FranklinGothic-Book-49"/>
    <use x="972.378906" xlink:href="#FranklinGothic-Book-48"/>
    <use x="1031.021484" xlink:href="#FranklinGothic-Book-58"/>
    <use x="1056.021484" xlink:href="#FranklinGothic-Book-49"/>
    <use x="1113.789062" xlink:href="#FranklinGothic-Book-51"/>
    <use x="1172.431641" xlink:href="#FranklinGothic-Book-58"/>
    <use x="1197.431641" xlink:href="#FranklinGothic-Book-49"/>
    <use x="1252.824219" xlink:href="#FranklinGothic-Book-48"/>
   </g>
  </g>
 </g>
 <defs>
  <clipPath id="p239a8fd824">
   <rect height="498.96" width="892.8" x="144" y="77.76"/>
  </clipPath>
 </defs>
</svg>
