<?xml version="1.0" encoding="utf-8" standalone="no"?>
<!DOCTYPE svg PUBLIC "-//W3C//DTD SVG 1.1//EN"
  "http://www.w3.org/Graphics/SVG/1.1/DTD/svg11.dtd">
<!-- Created with matplotlib (https://matplotlib.org/) -->
<svg height="648pt" version="1.1" viewBox="0 0 1152 648" width="1152pt" xmlns="http://www.w3.org/2000/svg" xmlns:xlink="http://www.w3.org/1999/xlink">
 <metadata>
  <rdf:RDF xmlns:cc="http://creativecommons.org/ns#" xmlns:dc="http://purl.org/dc/elements/1.1/" xmlns:rdf="http://www.w3.org/1999/02/22-rdf-syntax-ns#">
   <cc:Work>
    <dc:type rdf:resource="http://purl.org/dc/dcmitype/StillImage"/>
    <dc:date>2024-02-08T11:46:37.914177</dc:date>
    <dc:format>image/svg+xml</dc:format>
    <dc:creator>
     <cc:Agent>
      <dc:title>Matplotlib v3.3.1, https://matplotlib.org/</dc:title>
     </cc:Agent>
    </dc:creator>
   </cc:Work>
  </rdf:RDF>
 </metadata>
 <defs>
  <style type="text/css">*{stroke-linecap:butt;stroke-linejoin:round;}</style>
 </defs>
 <g id="figure_1">
  <g id="patch_1">
   <path d="M 0 648 
L 1152 648 
L 1152 0 
L 0 0 
z
" style="fill:#ffffff;"/>
  </g>
  <g id="axes_1">
   <g id="patch_2">
    <path d="M 144 576.72 
L 1036.8 576.72 
L 1036.8 77.76 
L 144 77.76 
z
" style="fill:none;"/>
   </g>
   <g id="PolyCollection_1">
    <defs>
     <path d="M 446.606156 -449.794329 
L 446.606156 -497.922039 
L 448.736435 -487.81226 
L 455.127273 -477.826231 
L 457.257552 -496.470675 
L 459.387831 -493.594849 
L 461.51811 -475.199249 
L 463.648389 -481.334255 
L 465.778669 -484.347281 
L 467.908948 -459.976743 
L 470.039227 -464.585059 
L 472.169506 -481.249513 
L 474.299785 -487.059004 
L 478.560344 -466.968577 
L 480.690623 -467.07484 
L 482.820902 -464.964377 
L 484.951181 -476.990924 
L 487.08146 -469.169162 
L 489.211739 -446.159867 
L 491.342019 -439.39939 
L 493.472298 -419.486517 
L 495.602577 -438.955507 
L 497.732856 -429.86666 
L 499.863135 -459.651229 
L 501.993414 -457.301337 
L 504.123694 -439.103468 
L 506.253973 -458.912768 
L 508.384252 -459.394314 
L 510.514531 -470.122839 
L 512.64481 -450.74128 
L 514.775089 -439.936085 
L 516.905369 -429.683726 
L 519.035648 -421.86331 
L 521.165927 -429.121474 
L 523.296206 -449.065285 
L 525.426485 -450.945736 
L 527.556764 -456.667795 
L 529.687044 -463.184809 
L 531.817323 -456.13379 
L 533.947602 -468.699722 
L 536.077881 -468.360757 
L 538.20816 -474.54015 
L 540.33844 -461.783213 
L 542.468719 -454.145731 
L 544.598998 -443.401065 
L 546.729277 -461.298977 
L 548.859556 -461.621801 
L 550.989835 -471.831117 
L 553.120115 -476.349311 
L 555.250394 -471.905097 
L 557.380673 -482.329629 
L 559.510952 -481.977213 
L 561.641231 -471.819011 
L 563.77151 -471.110143 
L 565.90179 -450.571798 
L 568.032069 -424.628837 
L 570.162348 -428.252539 
L 572.292627 -436.995695 
L 574.422906 -438.712043 
L 576.553185 -458.345136 
L 578.683465 -458.382798 
L 580.813744 -447.970373 
L 582.944023 -452.8087 
L 585.074302 -462.084516 
L 587.204581 -451.820051 
L 589.33486 -425.830012 
L 591.46514 -414.574208 
L 593.595419 -388.020572 
L 595.725698 -405.052239 
L 597.855977 -383.53197 
L 599.986256 -405.952112 
L 602.116535 -418.024392 
L 604.246815 -408.355807 
L 606.377094 -395.671506 
L 608.507373 -399.86284 
L 610.637652 -421.778568 
L 612.767931 -410.27123 
L 614.89821 -411.476441 
L 617.02849 -397.722784 
L 619.158769 -388.187364 
L 621.289048 -392.690762 
L 623.419327 -400.3955 
L 625.549606 -403.046694 
L 627.679885 -405.406001 
L 629.810165 -408.377328 
L 631.940444 -421.654819 
L 634.070723 -416.131835 
L 636.201002 -414.665675 
L 638.331281 -409.60137 
L 640.46156 -413.445669 
L 642.59184 -398.53119 
L 644.722119 -378.037233 
L 646.852398 -380.938616 
L 648.982677 -396.380374 
L 651.112956 -383.031593 
L 653.243236 -377.629668 
L 655.373515 -377.496503 
L 657.503794 -350.155982 
L 659.634073 -360.06265 
L 661.764352 -371.970828 
L 663.894631 -366.434393 
L 666.024911 -362.041294 
L 668.15519 -360.977319 
L 672.415748 -351.557577 
L 674.546027 -348.114119 
L 676.676306 -344.045189 
L 678.806586 -353.661315 
L 683.067144 -361.364708 
L 685.197423 -357.007926 
L 687.327702 -368.216652 
L 689.457981 -362.894088 
L 689.457981 -363.993035 
L 695.848819 -328.162238 
L 695.848819 -338.752217 
L 697.979098 -332.86202 
L 700.109377 -334.377949 
L 702.239656 -343.055195 
L 706.500215 -336.571809 
L 708.630494 -339.097908 
L 710.760773 -348.063005 
L 712.891052 -352.746647 
L 717.151611 -334.883707 
L 719.28189 -331.216962 
L 721.412169 -307.599681 
L 723.542448 -294.362543 
L 727.803006 -324.619242 
L 729.933286 -309.12099 
L 732.063565 -310.439189 
L 734.193844 -317.237329 
L 740.584681 -302.868961 
L 742.714961 -297.142867 
L 744.84524 -290.129511 
L 746.975519 -276.019403 
L 751.236077 -259.299799 
L 753.366356 -269.490283 
L 755.496636 -284.281012 
L 757.626915 -279.714395 
L 761.887473 -271.78099 
L 764.017752 -298.019873 
L 766.148031 -286.395511 
L 768.278311 -276.309945 
L 772.538869 -238.44401 
L 774.669148 -229.551548 
L 776.799427 -230.456801 
L 778.929707 -232.900849 
L 778.929707 -242.486038 
L 785.320544 -247.735967 
L 787.450823 -226.504895 
L 789.581102 -232.053436 
L 795.97194 -229.373995 
L 798.102219 -228.545413 
L 800.232498 -217.448331 
L 802.362777 -226.460506 
L 806.623336 -240.947243 
L 808.753615 -244.075947 
L 810.883894 -260.211777 
L 813.014173 -265.815468 
L 819.405011 -256.702409 
L 821.53529 -263.674067 
L 823.665569 -261.859526 
L 830.056407 -215.123996 
L 830.056407 -231.885298 
L 832.186686 -239.576585 
L 834.316965 -240.072927 
L 859.880315 -211.075243 
L 862.010594 -208.363519 
L 868.401432 -189.645096 
L 870.531711 -195.501665 
L 872.66199 -175.274038 
L 874.792269 -158.121312 
L 876.922548 -150.182526 
L 879.052827 -159.270028 
L 881.183107 -165.417139 
L 883.313386 -187.744468 
L 885.443665 -178.675798 
L 887.573944 -193.465182 
L 889.704223 -174.160294 
L 891.834503 -171.892454 
L 893.964782 -169.909776 
L 896.095061 -167.605618 
L 898.22534 -154.451876 
L 900.355619 -122.106236 
L 902.485898 -111.040091 
L 904.616178 -124.813924 
L 906.746457 -140.844836 
L 908.876736 -157.589997 
L 911.007015 -163.684649 
L 913.137294 -154.742418 
L 915.267573 -165.465562 
L 917.397853 -157.236235 
L 919.528132 -145.590352 
L 921.658411 -139.515876 
L 923.78869 -135.416009 
L 925.918969 -101.153599 
L 928.049248 -124.418464 
L 930.179528 -122.963065 
L 932.309807 -155.531992 
L 934.440086 -157.189157 
L 936.570365 -129.667048 
L 938.700644 -121.239991 
L 940.830923 -133.515381 
L 942.961203 -123.836035 
L 945.091482 -148.822629 
L 947.221761 -116.111121 
L 949.35204 -130.272343 
L 951.482319 -116.221419 
L 953.612598 -123.782231 
L 955.742878 -131.013494 
L 957.873157 -164.681368 
L 960.003436 -179.029559 
L 962.133715 -176.387781 
L 964.263994 -161.068428 
L 966.394273 -169.110786 
L 968.524553 -170.353659 
L 970.654832 -161.715421 
L 972.785111 -170.246051 
L 974.91539 -168.992417 
L 977.045669 -157.342498 
L 979.175948 -146.712166 
L 981.306228 -159.159729 
L 983.436507 -192.761694 
L 985.566786 -175.452936 
L 987.697065 -175.467732 
L 989.827344 -159.049431 
L 991.957623 -179.426364 
L 994.087903 -176.858567 
L 996.218182 -159.732742 
L 996.218182 -142.49393 
L 996.218182 -142.49393 
L 994.087903 -161.97368 
L 991.957623 -166.768965 
L 989.827344 -148.355879 
L 987.697065 -166.434035 
L 985.566786 -166.70171 
L 983.436507 -184.274108 
L 981.306228 -150.871218 
L 979.175948 -138.609278 
L 977.045669 -149.487109 
L 974.91539 -161.338793 
L 972.785111 -162.804953 
L 970.654832 -154.489539 
L 968.524553 -163.119706 
L 966.394273 -161.871453 
L 964.263994 -153.861377 
L 962.133715 -169.178041 
L 960.003436 -171.817129 
L 957.873157 -157.474318 
L 955.742878 -123.806443 
L 953.612598 -116.55635 
L 951.482319 -109.03051 
L 949.35204 -123.086814 
L 947.221761 -108.906761 
L 945.091482 -141.642481 
L 942.961203 -116.655887 
L 940.830923 -126.324472 
L 938.700644 -114.059842 
L 936.570365 -122.486899 
L 934.440086 -149.995557 
L 932.309807 -148.346463 
L 930.179528 -115.780226 
L 928.049248 -117.203343 
L 925.918969 -93.96 
L 923.78869 -128.222409 
L 921.658411 -132.295375 
L 919.528132 -138.391372 
L 917.397853 -150.045326 
L 915.267573 -158.266582 
L 913.137294 -147.543438 
L 911.007015 -156.493739 
L 908.876736 -150.391017 
L 906.746457 -133.637785 
L 904.616178 -117.628395 
L 902.485898 -103.803448 
L 900.355619 -114.869593 
L 898.22534 -147.263657 
L 896.095061 -160.414709 
L 893.964782 -162.708105 
L 891.834503 -164.696165 
L 889.704223 -166.958624 
L 887.573944 -186.258132 
L 885.443665 -171.479508 
L 883.313386 -180.542798 
L 881.183107 -158.199327 
L 879.052827 -152.049526 
L 876.922548 -142.89477 
L 874.792269 -150.820104 
L 872.66199 -167.905575 
L 870.531711 -187.934127 
L 868.401432 -181.520686 
L 862.010594 -199.913596 
L 859.880315 -201.84247 
L 834.316965 -223.993591 
L 832.186686 -223.473037 
L 830.056407 -215.407812 
L 830.056407 -198.474338 
L 823.665569 -245.559594 
L 821.53529 -247.218103 
L 819.405011 -240.214163 
L 813.014173 -255.988161 
L 810.883894 -250.992456 
L 808.753615 -234.813583 
L 806.623336 -230.885888 
L 802.362777 -217.023279 
L 800.232498 -208.274743 
L 798.102219 -219.032859 
L 795.97194 -219.457911 
L 789.581102 -222.10776 
L 787.450823 -217.191416 
L 785.320544 -237.731107 
L 778.929707 -233.116065 
L 778.929707 -224.227639 
L 776.799427 -222.184431 
L 774.669148 -214.23623 
L 772.538869 -228.944908 
L 768.278311 -267.819668 
L 766.148031 -277.789556 
L 764.017752 -289.142207 
L 761.887473 -262.766124 
L 757.626915 -270.287928 
L 755.496636 -275.365684 
L 753.366356 -260.561504 
L 751.236077 -250.596996 
L 746.975519 -265.226313 
L 744.84524 -280.592746 
L 742.714961 -287.45007 
L 740.584681 -292.643504 
L 734.193844 -307.071056 
L 732.063565 -300.098053 
L 729.933286 -299.013902 
L 727.803006 -313.492568 
L 723.542448 -283.558693 
L 721.412169 -297.113275 
L 719.28189 -320.582595 
L 717.151611 -323.687087 
L 712.891052 -341.673776 
L 710.760773 -337.920945 
L 708.630494 -328.659925 
L 706.500215 -325.813692 
L 702.239656 -331.401241 
L 700.109377 -324.39192 
L 697.979098 -322.426728 
L 695.848819 -328.628988 
L 695.848819 -317.657 
L 689.457981 -353.425923 
L 689.457981 -352.407681 
L 687.327702 -357.533861 
L 685.197423 -346.112609 
L 683.067144 -349.864095 
L 678.806586 -342.857465 
L 676.676306 -332.956178 
L 674.546027 -336.9175 
L 672.415748 -339.946667 
L 668.15519 -350.036268 
L 666.024911 -351.390785 
L 663.894631 -356.093258 
L 661.764352 -362.178494 
L 659.634073 -350.749172 
L 657.503794 -340.570794 
L 655.373515 -367.155367 
L 653.243236 -368.851539 
L 651.112956 -374.369143 
L 648.982677 -387.096488 
L 646.852398 -372.125515 
L 644.722119 -369.151497 
L 642.59184 -389.537846 
L 640.46156 -404.444254 
L 638.331281 -400.476206 
L 636.201002 -405.607766 
L 634.070723 -406.794145 
L 631.940444 -411.768328 
L 629.810165 -398.765238 
L 627.679885 -395.729345 
L 625.549606 -393.205936 
L 623.419327 -389.814936 
L 621.289048 -382.005281 
L 619.158769 -377.534165 
L 617.02849 -386.846299 
L 614.89821 -400.476206 
L 612.767931 -399.650314 
L 610.637652 -410.899393 
L 608.507373 -389.06168 
L 606.377094 -384.684722 
L 604.246815 -397.492772 
L 602.116535 -407.06182 
L 599.986256 -394.607531 
L 597.855977 -372.703908 
L 595.725698 -393.901353 
L 593.595419 -377.413106 
L 591.46514 -403.875276 
L 589.33486 -414.848609 
L 587.204581 -441.191064 
L 585.074302 -451.546996 
L 582.944023 -442.195855 
L 580.813744 -437.876736 
L 578.683465 -448.057804 
L 576.553185 -448.238048 
L 574.422906 -428.551151 
L 572.292627 -426.864395 
L 570.162348 -418.045914 
L 568.032069 -414.303843 
L 565.90179 -440.370553 
L 563.77151 -461.196749 
L 561.641231 -461.865265 
L 559.510952 -471.765207 
L 557.380673 -472.60724 
L 555.250394 -461.851814 
L 553.120115 -466.153446 
L 550.989835 -462.278211 
L 548.859556 -452.144221 
L 546.729277 -451.832157 
L 544.598998 -433.977288 
L 542.468719 -444.875295 
L 540.33844 -451.439388 
L 538.20816 -465.640963 
L 536.077881 -459.437357 
L 533.947602 -459.577248 
L 531.817323 -446.93599 
L 529.687044 -454.070405 
L 527.556764 -447.209045 
L 525.426485 -441.519269 
L 523.296206 -439.837893 
L 521.165927 -419.713839 
L 519.035648 -412.388419 
L 516.905369 -420.601605 
L 514.775089 -430.431602 
L 512.64481 -441.051174 
L 510.514531 -461.156396 
L 508.384252 -449.655784 
L 506.253973 -449.378693 
L 504.123694 -429.93526 
L 501.993414 -447.221151 
L 499.863135 -449.331615 
L 497.732856 -419.762262 
L 495.602577 -428.740811 
L 493.472298 -408.60196 
L 491.342019 -427.637828 
L 489.211739 -435.447483 
L 487.08146 -458.168927 
L 484.951181 -466.179003 
L 482.820902 -454.308488 
L 480.690623 -456.349006 
L 478.560344 -456.783473 
L 474.299785 -474.081471 
L 472.169506 -469.525614 
L 470.039227 -453.030642 
L 467.908948 -447.036873 
L 465.778669 -466.933605 
L 463.648389 -465.41095 
L 461.51811 -459.413146 
L 459.387831 -476.964022 
L 457.257552 -470.324604 
L 455.127273 -455.473345 
L 448.736435 -460.245763 
L 446.606156 -449.794329 
z
" id="maf35340e82" style="stroke:#56b4e9;stroke-opacity:0.1;"/>
    </defs>
    <g clip-path="url(#p5779924292)">
     <use style="fill:#56b4e9;fill-opacity:0.1;stroke:#56b4e9;stroke-opacity:0.1;" x="0" xlink:href="#maf35340e82" y="648"/>
    </g>
   </g>
   <g id="PolyCollection_2">
    <defs>
     <path d="M 184.581818 -534.750631 
L 184.581818 -543.630476 
L 186.712097 -545.80919 
L 188.842377 -547.56 
L 190.972656 -547.08643 
L 193.102935 -546.510781 
L 195.233214 -546.455753 
L 197.363493 -546.370675 
L 199.493772 -546.259879 
L 201.624052 -546.126768 
L 203.754331 -545.973992 
L 205.88461 -545.803769 
L 208.014889 -545.617916 
L 210.145168 -545.15309 
L 212.275447 -544.674705 
L 214.405727 -544.183958 
L 216.536006 -543.681886 
L 218.666285 -543.169362 
L 220.796564 -542.647207 
L 222.926843 -542.116067 
L 225.057122 -541.576588 
L 227.187402 -541.029293 
L 229.317681 -540.474681 
L 231.44796 -539.913182 
L 233.578239 -539.345213 
L 235.708518 -538.659737 
L 237.838797 -537.968812 
L 239.969077 -537.272682 
L 242.099356 -536.571629 
L 244.229635 -535.865841 
L 246.359914 -535.155587 
L 248.490193 -534.441016 
L 250.620472 -533.722356 
L 252.750752 -532.99974 
L 254.881031 -532.273346 
L 257.01131 -531.543346 
L 259.141589 -530.809849 
L 261.271868 -529.981643 
L 263.402147 -529.150142 
L 265.532427 -528.315413 
L 267.662706 -527.477604 
L 269.792985 -526.636808 
L 271.923264 -526.090347 
L 274.053543 -525.541129 
L 276.183822 -524.989221 
L 278.314102 -524.43473 
L 280.444381 -523.877724 
L 282.57466 -523.318283 
L 284.704939 -522.756488 
L 286.835218 -522.231307 
L 288.965497 -521.703852 
L 291.095777 -521.174165 
L 293.226056 -520.642326 
L 295.356335 -520.108388 
L 297.486614 -519.572405 
L 299.616893 -519.377514 
L 301.747173 -519.180712 
L 303.877452 -518.982041 
L 306.007731 -518.781527 
L 308.13801 -518.579237 
L 310.268289 -518.375198 
L 312.398568 -518.498477 
L 314.528848 -518.620155 
L 316.659127 -518.740272 
L 318.789406 -518.85887 
L 320.919685 -518.976001 
L 323.049964 -519.091653 
L 325.180243 -519.205865 
L 327.310523 -519.318719 
L 329.440802 -519.430175 
L 331.571081 -519.540311 
L 333.70136 -519.64913 
L 335.831639 -519.756657 
L 337.961918 -519.804839 
L 340.092198 -519.851756 
L 342.222477 -519.897422 
L 344.352756 -519.941851 
L 346.483035 -519.985096 
L 348.613314 -520.027171 
L 350.743593 -520.068062 
L 352.873873 -520.107836 
L 355.004152 -520.146495 
L 357.134431 -520.18405 
L 359.26471 -520.220529 
L 361.394989 -520.255959 
L 363.525268 -520.206284 
L 365.655548 -520.155547 
L 367.785827 -520.103774 
L 369.916106 -520.050952 
L 372.046385 -519.997108 
L 374.176664 -519.942268 
L 376.306943 -519.886473 
L 378.437223 -519.829683 
L 380.567502 -519.771951 
L 382.697781 -519.713278 
L 384.82806 -519.653703 
L 386.958339 -519.593201 
L 389.088618 -519.486507 
L 391.218898 -519.37902 
L 393.349177 -519.27074 
L 395.479456 -519.161706 
L 397.609735 -519.051878 
L 399.740014 -518.941325 
L 401.870293 -518.830031 
L 404.000573 -518.717997 
L 406.130852 -518.605224 
L 408.261131 -518.491765 
L 410.39141 -518.377606 
L 412.521689 -518.262735 
L 414.651969 -518.066915 
L 416.782248 -517.870396 
L 418.912527 -517.673204 
L 421.042806 -517.475326 
L 423.173085 -517.276803 
L 425.303364 -517.07762 
L 427.433644 -516.877792 
L 429.563923 -516.677318 
L 431.694202 -516.476212 
L 433.824481 -516.274487 
L 435.95476 -516.072157 
L 438.085039 -515.869195 
L 440.215319 -515.719647 
L 442.345598 -515.56952 
L 444.475877 -515.418842 
L 446.606156 -515.267598 
L 448.736435 -515.115817 
L 450.866714 -514.852621 
L 452.996994 -514.588901 
L 455.127273 -514.312496 
L 457.257552 -514.035594 
L 459.387831 -513.758207 
L 461.51811 -513.480349 
L 463.648389 -513.202008 
L 465.778669 -512.662703 
L 467.908948 -512.086381 
L 470.039227 -511.475329 
L 472.169506 -510.877754 
L 474.299785 -510.321663 
L 476.430064 -509.779425 
L 478.560344 -509.235507 
L 480.690623 -508.602946 
L 482.820902 -507.950182 
L 484.951181 -507.204607 
L 487.08146 -506.463147 
L 489.211739 -505.744217 
L 491.342019 -505.06821 
L 493.472298 -504.406783 
L 495.602577 -503.744725 
L 497.732856 -503.107671 
L 499.863135 -502.50438 
L 501.993414 -501.926027 
L 504.123694 -501.360009 
L 506.253973 -500.780257 
L 508.384252 -500.196456 
L 510.514531 -499.613812 
L 512.64481 -499.052286 
L 514.775089 -498.517959 
L 516.905369 -497.994418 
L 519.035648 -497.474792 
L 521.165927 -496.982405 
L 523.296206 -496.515157 
L 525.426485 -496.071408 
L 527.556764 -495.640559 
L 529.687044 -495.215817 
L 531.817323 -494.755806 
L 533.947602 -494.238856 
L 536.077881 -493.694064 
L 538.20816 -493.126619 
L 540.33844 -492.574603 
L 542.468719 -491.876631 
L 544.598998 -491.14916 
L 546.729277 -490.416322 
L 548.859556 -489.693814 
L 550.989835 -488.984596 
L 553.120115 -488.252794 
L 555.250394 -487.482267 
L 557.380673 -486.653106 
L 559.510952 -485.775683 
L 561.641231 -484.852137 
L 563.77151 -483.899658 
L 565.90179 -482.915259 
L 568.032069 -481.818424 
L 570.162348 -480.688028 
L 572.292627 -479.519337 
L 574.422906 -478.355233 
L 576.553185 -477.200908 
L 578.683465 -476.063248 
L 580.813744 -474.927364 
L 582.944023 -473.766354 
L 585.074302 -472.583822 
L 587.204581 -471.409293 
L 589.33486 -470.253717 
L 591.46514 -469.113394 
L 593.595419 -467.953622 
L 595.725698 -466.818773 
L 597.855977 -465.716799 
L 599.986256 -464.648655 
L 602.116535 -463.602906 
L 604.246815 -462.572855 
L 606.377094 -461.553336 
L 608.507373 -460.513519 
L 610.637652 -459.455637 
L 612.767931 -458.394312 
L 614.89821 -457.233289 
L 617.02849 -456.082958 
L 619.158769 -455.047554 
L 621.289048 -454.005652 
L 623.419327 -452.965485 
L 625.549606 -451.941823 
L 627.679885 -450.920434 
L 629.810165 -449.894876 
L 631.940444 -448.868402 
L 634.070723 -447.807804 
L 636.201002 -446.71725 
L 638.331281 -445.592611 
L 640.46156 -444.457897 
L 642.59184 -443.308011 
L 644.722119 -441.960529 
L 646.852398 -440.572479 
L 648.982677 -439.169606 
L 651.112956 -437.797832 
L 653.243236 -436.460533 
L 655.373515 -435.134546 
L 657.503794 -433.81519 
L 659.634073 -432.226169 
L 661.764352 -430.627207 
L 663.894631 -429.025501 
L 666.024911 -427.43387 
L 668.15519 -425.845575 
L 670.285469 -423.957887 
L 672.415748 -422.0778 
L 674.546027 -420.225623 
L 676.676306 -418.415776 
L 678.806586 -416.622407 
L 680.936865 -414.855052 
L 683.067144 -413.111828 
L 685.197423 -411.338084 
L 687.327702 -409.546517 
L 689.457981 -407.777602 
L 691.588261 -406.052698 
L 693.71854 -404.340035 
L 695.848819 -402.762918 
L 697.979098 -401.164817 
L 700.109377 -399.560529 
L 702.239656 -397.95663 
L 704.369936 -396.137247 
L 706.500215 -394.299718 
L 708.630494 -392.522584 
L 710.760773 -390.716289 
L 712.891052 -388.900254 
L 715.021331 -387.048333 
L 717.151611 -385.16838 
L 719.28189 -383.273617 
L 721.412169 -381.284159 
L 723.542448 -379.277631 
L 725.672727 -377.26684 
L 727.803006 -375.285816 
L 729.933286 -373.325829 
L 732.063565 -371.38119 
L 734.193844 -369.439079 
L 736.324123 -367.482334 
L 738.454402 -365.502991 
L 740.584681 -363.502773 
L 742.714961 -361.479889 
L 744.84524 -359.456279 
L 746.975519 -357.35047 
L 749.105798 -355.200958 
L 751.236077 -353.044869 
L 753.366356 -350.911727 
L 755.496636 -348.77872 
L 757.626915 -346.648874 
L 759.757194 -344.520615 
L 761.887473 -342.371695 
L 764.017752 -340.192861 
L 766.148031 -338.024746 
L 768.278311 -335.864245 
L 770.40859 -333.716778 
L 772.538869 -332.225667 
L 774.669148 -330.832048 
L 776.799427 -329.474841 
L 778.929707 -328.1221 
L 781.059986 -326.788137 
L 783.190265 -325.482972 
L 785.320544 -324.212134 
L 787.450823 -322.941821 
L 789.581102 -321.67097 
L 791.711382 -320.391214 
L 793.841661 -319.137472 
L 795.97194 -317.911991 
L 798.102219 -317.198765 
L 800.232498 -316.48574 
L 802.362777 -315.793565 
L 804.493057 -315.135393 
L 806.623336 -314.513325 
L 808.753615 -313.941711 
L 810.883894 -313.37397 
L 813.014173 -312.827402 
L 815.144452 -312.287654 
L 817.274732 -311.76375 
L 819.405011 -311.287342 
L 821.53529 -310.814701 
L 823.665569 -309.987988 
L 825.795848 -309.133728 
L 827.926127 -308.27168 
L 830.056407 -307.408663 
L 832.186686 -306.888176 
L 834.316965 -306.337169 
L 836.447244 -305.7379 
L 838.577523 -305.091028 
L 840.707802 -304.399726 
L 842.838082 -303.665436 
L 844.968361 -302.947771 
L 847.09864 -302.192066 
L 849.228919 -300.553343 
L 851.359198 -298.957569 
L 853.489477 -297.41264 
L 855.619757 -295.910149 
L 857.750036 -294.413926 
L 859.880315 -292.904198 
L 862.010594 -291.398963 
L 864.140873 -289.253232 
L 866.271152 -287.07823 
L 868.401432 -284.834468 
L 870.531711 -282.576823 
L 872.66199 -280.290434 
L 874.792269 -277.996365 
L 876.922548 -276.215155 
L 879.052827 -274.603012 
L 881.183107 -273.009444 
L 883.313386 -271.409554 
L 885.443665 -269.803382 
L 887.573944 -268.196565 
L 889.704223 -266.589102 
L 891.834503 -264.980994 
L 893.964782 -263.39134 
L 896.095061 -261.801081 
L 898.22534 -260.206209 
L 900.355619 -258.610704 
L 902.485898 -257.915488 
L 904.616178 -257.219143 
L 906.746457 -256.521722 
L 908.876736 -255.823211 
L 911.007015 -255.123624 
L 913.137294 -254.422988 
L 915.267573 -253.721316 
L 917.397853 -253.018595 
L 919.528132 -252.314865 
L 921.658411 -251.610113 
L 923.78869 -250.904365 
L 923.78869 -108.370375 
L 923.78869 -108.370375 
L 921.658411 -109.607491 
L 919.528132 -110.84563 
L 917.397853 -112.084763 
L 915.267573 -113.324933 
L 913.137294 -114.566125 
L 911.007015 -115.808379 
L 908.876736 -117.051656 
L 906.746457 -118.296036 
L 904.616178 -119.541478 
L 902.485898 -120.788023 
L 900.355619 -122.035672 
L 898.22534 -124.046248 
L 896.095061 -126.057483 
L 893.964782 -128.062006 
L 891.834503 -130.067161 
L 889.704223 -132.089911 
L 887.573944 -134.113306 
L 885.443665 -136.137346 
L 883.313386 -138.162032 
L 881.183107 -140.182562 
L 879.052827 -142.199568 
L 876.922548 -144.237544 
L 874.792269 -146.405846 
L 872.66199 -149.066106 
L 870.531711 -151.657456 
L 868.401432 -154.222537 
L 866.271152 -156.772444 
L 864.140873 -159.276538 
L 862.010594 -161.730567 
L 859.880315 -163.513834 
L 857.750036 -165.294761 
L 855.619757 -167.057825 
L 853.489477 -168.827857 
L 851.359198 -170.631906 
L 849.228919 -172.494387 
L 847.09864 -174.39909 
L 844.968361 -175.41674 
L 842.838082 -176.405712 
L 840.707802 -177.405283 
L 838.577523 -178.372922 
L 836.447244 -179.300786 
L 834.316965 -180.183791 
L 832.186686 -181.017403 
L 830.056407 -181.82254 
L 827.926127 -182.965742 
L 825.795848 -184.109615 
L 823.665569 -185.239406 
L 821.53529 -186.331265 
L 819.405011 -187.057431 
L 817.274732 -187.787094 
L 815.144452 -188.559653 
L 813.014173 -189.343537 
L 810.883894 -190.130179 
L 808.753615 -190.934657 
L 806.623336 -191.743574 
L 804.493057 -192.611312 
L 802.362777 -193.520614 
L 800.232498 -194.474707 
L 798.102219 -195.449058 
L 795.97194 -196.429287 
L 793.841661 -197.915879 
L 791.711382 -199.43291 
L 789.581102 -200.971006 
L 787.450823 -202.486128 
L 785.320544 -204.000658 
L 783.190265 -205.507668 
L 781.059986 -207.044755 
L 778.929707 -208.609054 
L 776.799427 -210.191942 
L 774.669148 -211.779026 
L 772.538869 -213.392112 
L 770.40859 -215.090369 
L 768.278311 -217.444578 
L 766.148031 -219.811686 
L 764.017752 -222.186004 
L 761.887473 -224.571312 
L 759.757194 -226.933484 
L 757.626915 -229.27591 
L 755.496636 -231.617421 
L 753.366356 -233.961044 
L 751.236077 -236.305071 
L 749.105798 -238.671964 
L 746.975519 -241.031957 
L 744.84524 -243.365384 
L 742.714961 -245.625867 
L 740.584681 -247.886484 
L 738.454402 -250.124274 
L 736.324123 -252.341135 
L 734.193844 -254.531659 
L 732.063565 -256.702302 
L 729.933286 -258.875366 
L 727.803006 -261.061303 
L 725.672727 -263.264726 
L 723.542448 -265.496652 
L 721.412169 -267.724986 
L 719.28189 -269.93757 
L 717.151611 -272.049889 
L 715.021331 -274.151461 
L 712.891052 -276.231592 
L 710.760773 -278.276482 
L 708.630494 -280.312817 
L 706.500215 -282.312296 
L 704.369936 -284.387692 
L 702.239656 -286.466626 
L 700.109377 -288.345409 
L 697.979098 -290.229882 
L 695.848819 -292.116185 
L 693.71854 -293.995734 
L 691.588261 -295.981614 
L 689.457981 -297.97995 
L 687.327702 -300.004677 
L 685.197423 -302.045786 
L 683.067144 -304.066088 
L 680.936865 -306.071095 
L 678.806586 -308.087885 
L 676.676306 -310.132681 
L 674.546027 -312.194277 
L 672.415748 -314.296239 
L 670.285469 -316.430013 
L 668.15519 -318.569207 
L 666.024911 -320.413072 
L 663.894631 -322.261832 
L 661.764352 -324.125106 
L 659.634073 -325.9876 
L 657.503794 -327.842763 
L 655.373515 -329.473537 
L 653.243236 -331.114627 
L 651.112956 -332.771764 
L 648.982677 -334.474837 
L 646.852398 -336.215169 
L 644.722119 -337.948775 
L 642.59184 -339.644934 
L 640.46156 -341.150142 
L 638.331281 -342.636384 
L 636.201002 -344.120461 
L 634.070723 -345.561064 
L 631.940444 -346.96356 
L 629.810165 -348.32604 
L 627.679885 -349.683543 
L 625.549606 -351.034912 
L 623.419327 -352.390921 
L 621.289048 -353.775783 
L 619.158769 -355.164452 
L 617.02849 -356.535702 
L 614.89821 -357.996858 
L 612.767931 -359.476133 
L 610.637652 -360.869375 
L 608.507373 -362.253443 
L 606.377094 -363.617725 
L 604.246815 -364.960257 
L 602.116535 -366.315204 
L 599.986256 -367.683131 
L 597.855977 -369.071786 
L 595.725698 -370.486227 
L 593.595419 -371.917186 
L 591.46514 -373.357358 
L 589.33486 -374.769607 
L 587.204581 -376.192212 
L 585.074302 -377.625538 
L 582.944023 -379.062106 
L 580.813744 -380.482801 
L 578.683465 -381.883025 
L 576.553185 -383.287552 
L 574.422906 -384.709149 
L 572.292627 -386.141089 
L 570.162348 -387.579607 
L 568.032069 -388.981364 
L 565.90179 -390.34496 
L 563.77151 -391.606907 
L 561.641231 -392.843525 
L 559.510952 -394.056591 
L 557.380673 -395.225228 
L 555.250394 -396.348401 
L 553.120115 -397.399678 
L 550.989835 -398.418713 
L 548.859556 -399.420517 
L 546.729277 -400.430715 
L 544.598998 -401.448149 
L 542.468719 -402.462503 
L 540.33844 -403.458416 
L 538.20816 -404.296535 
L 536.077881 -405.152234 
L 533.947602 -405.986869 
L 531.817323 -406.79019 
L 529.687044 -407.534421 
L 527.556764 -408.236281 
L 525.426485 -408.947799 
L 523.296206 -409.676629 
L 521.165927 -410.433611 
L 519.035648 -411.217186 
L 516.905369 -412.030474 
L 514.775089 -412.854618 
L 512.64481 -413.6924 
L 510.514531 -414.559695 
L 508.384252 -415.453245 
L 506.253973 -416.349809 
L 504.123694 -417.243561 
L 501.993414 -418.128718 
L 499.863135 -419.026075 
L 497.732856 -419.945304 
L 495.602577 -420.89937 
L 493.472298 -421.876048 
L 491.342019 -422.853465 
L 489.211739 -423.846997 
L 487.08146 -424.874197 
L 484.951181 -425.932213 
L 482.820902 -426.998084 
L 480.690623 -427.978623 
L 478.560344 -428.939899 
L 476.430064 -429.816057 
L 474.299785 -430.693386 
L 472.169506 -431.58769 
L 470.039227 -432.522104 
L 467.908948 -433.474005 
L 465.778669 -434.39626 
L 463.648389 -435.281928 
L 461.51811 -435.830958 
L 459.387831 -436.380472 
L 457.257552 -436.930484 
L 455.127273 -437.480953 
L 452.996994 -438.03192 
L 450.866714 -438.579914 
L 448.736435 -439.128433 
L 446.606156 -439.56777 
L 444.475877 -440.007644 
L 442.345598 -440.448084 
L 440.215319 -440.889076 
L 438.085039 -441.330645 
L 435.95476 -441.833431 
L 433.824481 -442.336821 
L 431.694202 -442.840844 
L 429.563923 -443.345458 
L 427.433644 -443.850732 
L 425.303364 -444.356625 
L 423.173085 -444.86319 
L 421.042806 -445.370387 
L 418.912527 -445.878256 
L 416.782248 -446.386785 
L 414.651969 -446.896014 
L 412.521689 -447.405941 
L 410.39141 -447.832742 
L 408.261131 -448.260255 
L 406.130852 -448.688468 
L 404.000573 -449.117394 
L 401.870293 -449.547033 
L 399.740014 -449.977411 
L 397.609735 -450.408529 
L 395.479456 -450.840401 
L 393.349177 -451.273039 
L 391.218898 -451.706431 
L 389.088618 -452.140643 
L 386.958339 -452.575621 
L 384.82806 -452.982837 
L 382.697781 -453.390954 
L 380.567502 -453.799999 
L 378.437223 -454.209986 
L 376.306943 -454.620914 
L 374.176664 -455.032811 
L 372.046385 -455.44569 
L 369.916106 -455.859564 
L 367.785827 -456.27446 
L 365.655548 -456.690379 
L 363.525268 -457.10736 
L 361.394989 -457.525404 
L 359.26471 -457.852022 
L 357.134431 -458.179715 
L 355.004152 -458.508458 
L 352.873873 -458.838303 
L 350.743593 -459.169265 
L 348.613314 -459.501371 
L 346.483035 -459.834633 
L 344.352756 -460.169065 
L 342.222477 -460.504708 
L 340.092198 -460.841562 
L 337.961918 -461.179667 
L 335.831639 -461.519036 
L 333.70136 -461.795884 
L 331.571081 -462.074024 
L 329.440802 -462.353455 
L 327.310523 -462.634232 
L 325.180243 -462.91638 
L 323.049964 -463.199914 
L 320.919685 -463.484887 
L 318.789406 -463.771313 
L 316.659127 -464.059232 
L 314.528848 -464.348671 
L 312.398568 -464.639643 
L 310.268289 -464.932243 
L 308.13801 -465.564238 
L 306.007731 -466.197982 
L 303.877452 -466.833502 
L 301.747173 -467.470865 
L 299.616893 -468.110097 
L 297.486614 -468.751266 
L 295.356335 -469.738826 
L 293.226056 -470.728403 
L 291.095777 -471.720106 
L 288.965497 -472.71396 
L 286.835218 -473.710048 
L 284.704939 -474.708409 
L 282.57466 -475.741957 
L 280.444381 -476.77786 
L 278.314102 -477.816197 
L 276.183822 -478.85705 
L 274.053543 -479.900485 
L 271.923264 -480.94661 
L 269.792985 -481.995493 
L 267.662706 -483.346324 
L 265.532427 -484.700141 
L 263.402147 -486.057038 
L 261.271868 -487.417137 
L 259.141589 -488.780558 
L 257.01131 -490.048464 
L 254.881031 -491.31984 
L 252.750752 -492.594847 
L 250.620472 -493.873635 
L 248.490193 -495.15635 
L 246.359914 -496.443181 
L 244.229635 -497.734303 
L 242.099356 -499.029917 
L 239.969077 -500.33024 
L 237.838797 -501.635512 
L 235.708518 -502.945963 
L 233.578239 -504.261889 
L 231.44796 -505.491486 
L 229.317681 -506.727553 
L 227.187402 -507.970507 
L 225.057122 -509.220778 
L 222.926843 -510.478865 
L 220.796564 -511.74529 
L 218.666285 -513.020702 
L 216.536006 -514.305744 
L 214.405727 -515.601237 
L 212.275447 -516.908057 
L 210.145168 -518.227237 
L 208.014889 -519.559977 
L 205.88461 -520.617482 
L 203.754331 -521.690643 
L 201.624052 -522.781251 
L 199.493772 -523.891497 
L 197.363493 -525.024086 
L 195.233214 -526.182393 
L 193.102935 -527.370722 
L 190.972656 -529.724164 
L 188.842377 -532.179659 
L 186.712097 -533.251194 
L 184.581818 -534.750631 
z
" id="me2794cc971" style="stroke:#d55e00;stroke-opacity:0.1;"/>
    </defs>
    <g clip-path="url(#p5779924292)">
     <use style="fill:#d55e00;fill-opacity:0.1;stroke:#d55e00;stroke-opacity:0.1;" x="0" xlink:href="#me2794cc971" y="648"/>
    </g>
   </g>
   <g id="patch_3">
    <path d="M 144 576.72 
L 1036.8 576.72 
" style="fill:none;stroke:#d3d3d3;stroke-linecap:square;stroke-linejoin:miter;stroke-width:1.25;"/>
   </g>
   <g id="matplotlib.axis_1">
    <g id="xtick_1">
     <g id="line2d_1">
      <defs>
       <path d="M 0 0 
L 0 6 
" id="mb046eee439" style="stroke:#696969;stroke-width:1.25;"/>
      </defs>
      <g>
       <use style="fill:#696969;stroke:#696969;stroke-width:1.25;" x="389.088618" xlink:href="#mb046eee439" y="576.72"/>
      </g>
     </g>
     <g id="text_1">
      <!-- 2000 -->
      <g style="fill:#696969;" transform="translate(362.113931 601.550938)scale(0.23 -0.23)">
       <defs>
        <path d="M 52.484375 6.9375 
L 52.484375 0 
L 5.171875 0 
L 5.171875 6.9375 
Q 33.203125 27.9375 38.59375 34.59375 
Q 44 41.265625 44 47.796875 
Q 44 53.90625 39.453125 57.65625 
Q 34.90625 61.421875 29 61.421875 
Q 22.90625 61.421875 18.21875 57.296875 
Q 13.53125 53.171875 12.9375 46.09375 
L 5.171875 48.4375 
Q 10.0625 68.015625 29.109375 68.015625 
Q 39.40625 68.015625 45.84375 62.15625 
Q 52.296875 56.296875 52.296875 47.859375 
Q 52.296875 42.046875 49.234375 36.671875 
Q 46.1875 31.296875 37.6875 23.828125 
Q 29.203125 16.359375 15.71875 6.9375 
z
" id="FranklinGothic-Book-50"/>
        <path d="M 29.390625 -1.3125 
Q 17.875 -1.3125 10.984375 8.671875 
Q 4.109375 18.65625 4.109375 33.453125 
Q 4.109375 48 10.640625 58 
Q 17.1875 68.015625 29.15625 68.015625 
Q 41.65625 68.015625 48.125 57.5625 
Q 54.59375 47.125 54.59375 33.0625 
Q 54.59375 19.28125 47.953125 8.984375 
Q 41.3125 -1.3125 29.390625 -1.3125 
z
M 29.4375 5.21875 
Q 37.890625 5.21875 41.9375 12.859375 
Q 46 20.515625 46 32.078125 
Q 46 44.734375 41.84375 53.125 
Q 37.703125 61.53125 29.046875 61.53125 
Q 20.703125 61.53125 16.625 53.859375 
Q 12.546875 46.1875 12.546875 33.6875 
Q 12.546875 20.703125 16.84375 12.953125 
Q 21.140625 5.21875 29.4375 5.21875 
z
" id="FranklinGothic-Book-48"/>
       </defs>
       <use xlink:href="#FranklinGothic-Book-50"/>
       <use x="58.642578" xlink:href="#FranklinGothic-Book-48"/>
       <use x="117.285156" xlink:href="#FranklinGothic-Book-48"/>
       <use x="175.927734" xlink:href="#FranklinGothic-Book-48"/>
      </g>
     </g>
    </g>
    <g id="xtick_2">
     <g id="line2d_2">
      <g>
       <use style="fill:#696969;stroke:#696969;stroke-width:1.25;" x="644.722119" xlink:href="#mb046eee439" y="576.72"/>
      </g>
     </g>
     <g id="text_2">
      <!-- 2010 -->
      <g style="fill:#696969;" transform="translate(618.552431 601.550938)scale(0.23 -0.23)">
       <defs>
        <path d="M 55.859375 6.203125 
L 55.859375 0 
L 9.1875 0 
L 9.1875 6.203125 
L 29.203125 6.203125 
L 29.203125 57.671875 
Q 20.359375 48.4375 10.84375 43.265625 
L 10.84375 51.65625 
Q 23.96875 58.546875 31.203125 68.015625 
L 37.15625 68.015625 
L 37.15625 6.203125 
z
" id="FranklinGothic-Book-49"/>
       </defs>
       <use xlink:href="#FranklinGothic-Book-50"/>
       <use x="58.642578" xlink:href="#FranklinGothic-Book-48"/>
       <use x="113.535156" xlink:href="#FranklinGothic-Book-49"/>
       <use x="168.927734" xlink:href="#FranklinGothic-Book-48"/>
      </g>
     </g>
    </g>
    <g id="xtick_3">
     <g id="line2d_3">
      <g>
       <use style="fill:#696969;stroke:#696969;stroke-width:1.25;" x="900.355619" xlink:href="#mb046eee439" y="576.72"/>
      </g>
     </g>
     <g id="text_3">
      <!-- 2020 -->
      <g style="fill:#696969;" transform="translate(873.380932 601.550938)scale(0.23 -0.23)">
       <use xlink:href="#FranklinGothic-Book-50"/>
       <use x="58.642578" xlink:href="#FranklinGothic-Book-48"/>
       <use x="117.285156" xlink:href="#FranklinGothic-Book-50"/>
       <use x="175.927734" xlink:href="#FranklinGothic-Book-48"/>
      </g>
     </g>
    </g>
    <g id="text_4">
     <!-- Year -->
     <g style="fill:#696969;" transform="translate(569.365781 624.712813)scale(0.23 -0.23)">
      <defs>
       <path d="M 52 66.65625 
L 29.6875 28.03125 
L 29.6875 0 
L 21.34375 0 
L 21.34375 28.03125 
L -0.984375 66.65625 
L 8.84375 66.65625 
L 26.5625 35.984375 
L 44.390625 66.65625 
z
" id="FranklinGothic-Book-89"/>
       <path d="M 40.234375 14.703125 
L 47.359375 13.234375 
Q 45.40625 6.9375 39.734375 2.8125 
Q 34.078125 -1.3125 26.421875 -1.3125 
Q 16.3125 -1.3125 10.0625 5.78125 
Q 3.8125 12.890625 3.8125 24.421875 
Q 3.8125 36.1875 10.296875 43.4375 
Q 16.796875 50.6875 26.609375 50.6875 
Q 36.28125 50.6875 42.15625 44 
Q 48.046875 37.3125 48.1875 23.96875 
L 12.359375 23.96875 
Q 12.359375 12.796875 17.046875 8.890625 
Q 21.734375 4.984375 26.953125 4.984375 
Q 36.375 4.984375 40.234375 14.703125 
z
M 39.796875 29.6875 
Q 39.703125 33.84375 38.421875 37.0625 
Q 37.15625 40.28125 34.125 42.546875 
Q 31.109375 44.828125 26.859375 44.828125 
Q 21.140625 44.828125 17.15625 40.71875 
Q 13.1875 36.625 12.703125 29.6875 
z
" id="FranklinGothic-Book-101"/>
       <path d="M 46.296875 0 
L 38.671875 0 
Q 38.234375 2.34375 37.796875 8.890625 
Q 32.71875 -1.3125 20.515625 -1.3125 
Q 12.203125 -1.3125 7.765625 3.078125 
Q 3.328125 7.46875 3.328125 13.625 
Q 3.328125 21.09375 9.671875 25.90625 
Q 16.015625 30.71875 31.25 30.71875 
Q 33.296875 30.71875 37.796875 30.515625 
Q 37.796875 36.375 36.890625 38.984375 
Q 35.984375 41.609375 33.046875 43.171875 
Q 30.125 44.734375 25.34375 44.734375 
Q 13.671875 44.734375 11.765625 35.84375 
L 4.6875 37.0625 
Q 7.28125 50.6875 26.46875 50.6875 
Q 36.671875 50.6875 40.9375 46.171875 
Q 45.21875 41.65625 45.21875 30.515625 
L 45.21875 9.578125 
Q 45.21875 4.34375 46.296875 0 
z
M 37.796875 24.65625 
Q 33.109375 24.953125 30.671875 24.953125 
Q 21.578125 24.953125 16.546875 21.96875 
Q 11.53125 19 11.53125 13.28125 
Q 11.53125 9.671875 14.234375 7.125 
Q 16.9375 4.59375 22.078125 4.59375 
Q 29 4.59375 33.46875 9.625 
Q 37.9375 14.65625 37.9375 21.4375 
Q 37.9375 22.796875 37.796875 24.65625 
z
" id="FranklinGothic-Book-97"/>
       <path d="M 15.328125 0 
L 7.671875 0 
L 7.671875 49.3125 
L 14.40625 49.3125 
L 14.40625 37.796875 
Q 17.96875 45.953125 21.546875 48.359375 
Q 25.140625 50.78125 28.90625 50.78125 
Q 30.078125 50.78125 31.9375 50.59375 
L 31.9375 43.265625 
L 30.375 43.265625 
Q 24.03125 43.265625 19.828125 38.53125 
Q 15.625 33.796875 15.328125 26.078125 
z
" id="FranklinGothic-Book-114"/>
      </defs>
      <use xlink:href="#FranklinGothic-Book-89"/>
      <use x="45.025391" xlink:href="#FranklinGothic-Book-101"/>
      <use x="97.076172" xlink:href="#FranklinGothic-Book-97"/>
      <use x="149.957031" xlink:href="#FranklinGothic-Book-114"/>
     </g>
    </g>
   </g>
   <g id="matplotlib.axis_2">
    <g id="ytick_1">
     <g id="line2d_4">
      <path clip-path="url(#p5779924292)" d="M 144 465.081754 
L 1036.8 465.081754 
" style="fill:none;stroke:#d3d3d3;stroke-linecap:round;stroke-opacity:0.5;"/>
     </g>
     <g id="text_5">
      <!-- −2000 -->
      <g style="fill:#696969;" transform="translate(67.063281 472.747223)scale(0.23 -0.23)">
       <defs>
        <path d="M 6 36.765625 
L 52.6875 36.765625 
L 52.6875 30.03125 
L 6 30.03125 
z
" id="FranklinGothic-Book-8722"/>
       </defs>
       <use xlink:href="#FranklinGothic-Book-8722"/>
       <use x="58.642578" xlink:href="#FranklinGothic-Book-50"/>
       <use x="117.285156" xlink:href="#FranklinGothic-Book-48"/>
       <use x="175.927734" xlink:href="#FranklinGothic-Book-48"/>
       <use x="234.570312" xlink:href="#FranklinGothic-Book-48"/>
      </g>
     </g>
    </g>
    <g id="ytick_2">
     <g id="line2d_5">
      <path clip-path="url(#p5779924292)" d="M 144 330.571667 
L 1036.8 330.571667 
" style="fill:none;stroke:#d3d3d3;stroke-linecap:round;stroke-opacity:0.5;"/>
     </g>
     <g id="text_6">
      <!-- −1000 -->
      <g style="fill:#696969;" transform="translate(67.810781 338.237136)scale(0.23 -0.23)">
       <use xlink:href="#FranklinGothic-Book-8722"/>
       <use x="58.642578" xlink:href="#FranklinGothic-Book-49"/>
       <use x="114.035156" xlink:href="#FranklinGothic-Book-48"/>
       <use x="172.677734" xlink:href="#FranklinGothic-Book-48"/>
       <use x="231.320312" xlink:href="#FranklinGothic-Book-48"/>
      </g>
     </g>
    </g>
    <g id="ytick_3">
     <g id="line2d_6">
      <path clip-path="url(#p5779924292)" d="M 144 196.06158 
L 1036.8 196.06158 
" style="fill:none;stroke:#d3d3d3;stroke-linecap:round;stroke-opacity:0.5;"/>
     </g>
     <g id="text_7">
      <!-- 0 -->
      <g style="fill:#696969;" transform="translate(121.012656 203.727049)scale(0.23 -0.23)">
       <use xlink:href="#FranklinGothic-Book-48"/>
      </g>
     </g>
    </g>
    <g id="text_8">
     <!-- Gt -->
     <g style="fill:#696969;" transform="translate(53.232344 338.218906)rotate(-90)scale(0.23 -0.23)">
      <defs>
       <path d="M 57.71875 33.59375 
L 57.71875 -0.875 
L 52.59375 -0.875 
L 50.296875 7.46875 
Q 44.140625 -1.3125 31.984375 -1.3125 
Q 18.796875 -1.3125 11.46875 8.59375 
Q 4.15625 18.5 4.15625 32.671875 
Q 4.15625 47.796875 11.90625 57.90625 
Q 19.671875 68.015625 33.015625 68.015625 
Q 51.421875 68.015625 57.03125 48.6875 
L 49.125 46.78125 
Q 47.40625 54.203125 42.71875 57.5625 
Q 38.03125 60.9375 32.46875 60.9375 
Q 22.609375 60.9375 17.921875 52.96875 
Q 13.234375 45.015625 13.234375 33.015625 
Q 13.234375 20.0625 18.484375 12.765625 
Q 23.734375 5.46875 32.765625 5.46875 
Q 39.796875 5.46875 44.5 10.125 
Q 49.21875 14.796875 49.21875 23 
Q 49.21875 24.515625 49.125 26.609375 
L 32.625 26.609375 
L 32.625 33.59375 
z
" id="FranklinGothic-Book-71"/>
       <path d="M 30.03125 5.28125 
L 30.03125 -0.78125 
Q 25.984375 -1.3125 23 -1.3125 
Q 8.6875 -1.3125 8.6875 13.625 
L 8.6875 43.3125 
L -0.046875 43.3125 
L -0.046875 49.3125 
L 8.6875 49.3125 
L 9.03125 61.71875 
L 16.15625 62.40625 
L 16.15625 49.3125 
L 27.203125 49.3125 
L 27.203125 43.3125 
L 16.15625 43.3125 
L 16.15625 12.359375 
Q 16.15625 4.734375 24.078125 4.734375 
Q 26.703125 4.734375 30.03125 5.28125 
z
" id="FranklinGothic-Book-116"/>
      </defs>
      <use xlink:href="#FranklinGothic-Book-71"/>
      <use x="64.697266" xlink:href="#FranklinGothic-Book-116"/>
     </g>
    </g>
   </g>
   <g id="text_9">
    <!-- Compared to 2005-2005 average -->
    <g style="fill:#696969;" transform="translate(144 75.2652)scale(0.3 -0.3)">
     <defs>
      <path d="M 48.296875 22.40625 
L 55.90625 20.703125 
Q 50.4375 -1.3125 31.203125 -1.3125 
Q 18.5625 -1.3125 11.359375 8.890625 
Q 4.15625 19.09375 4.15625 33.984375 
Q 4.15625 49.359375 11.671875 58.6875 
Q 19.1875 68.015625 31.84375 68.015625 
Q 50.59375 68.015625 55.90625 46.578125 
L 48.046875 45.015625 
Q 43.75 60.9375 31.78125 60.9375 
Q 22.953125 60.9375 18.09375 53.53125 
Q 13.234375 46.140625 13.234375 32.765625 
Q 13.234375 20.515625 18.203125 13.109375 
Q 23.1875 5.71875 31.390625 5.71875 
Q 44.140625 5.71875 48.296875 22.40625 
z
" id="FranklinGothic-Book-67"/>
      <path d="M 25.34375 -1.3125 
Q 15.1875 -1.3125 9.5 6.203125 
Q 3.8125 13.71875 3.8125 24.859375 
Q 3.8125 36.625 10.203125 43.65625 
Q 16.609375 50.6875 26.125 50.6875 
Q 36.328125 50.6875 42.203125 43.28125 
Q 48.09375 35.890625 48.09375 24.8125 
Q 48.09375 13.28125 41.75 5.984375 
Q 35.40625 -1.3125 25.34375 -1.3125 
z
M 25.921875 4.984375 
Q 31.78125 4.984375 35.734375 9.8125 
Q 39.703125 14.65625 39.703125 24.859375 
Q 39.703125 35.109375 35.546875 39.71875 
Q 31.390625 44.34375 25.828125 44.34375 
Q 20.125 44.34375 16.15625 39.671875 
Q 12.203125 35.015625 12.203125 24.90625 
Q 12.203125 14.203125 16.15625 9.59375 
Q 20.125 4.984375 25.921875 4.984375 
z
" id="FranklinGothic-Book-111"/>
      <path d="M 73.734375 0 
L 66.265625 0 
L 66.265625 30.671875 
Q 66.265625 35.40625 65.59375 37.765625 
Q 64.9375 40.140625 62.390625 42.109375 
Q 59.859375 44.09375 56.6875 44.09375 
Q 52.296875 44.09375 48.21875 40.0625 
Q 44.140625 36.03125 44.140625 27.78125 
L 44.140625 0 
L 36.71875 0 
L 36.71875 32.46875 
Q 36.71875 38.96875 33.609375 41.65625 
Q 30.515625 44.34375 27.09375 44.34375 
Q 22.21875 44.34375 18.59375 40.140625 
Q 14.984375 35.9375 14.984375 29.5 
L 14.984375 0 
L 7.671875 0 
L 7.671875 49.3125 
L 14.265625 49.3125 
L 14.265625 39.84375 
Q 19.78125 50.6875 29.4375 50.6875 
Q 34.765625 50.6875 38.46875 47.21875 
Q 42.1875 43.75 43.265625 38.875 
Q 48.34375 50.6875 58.84375 50.6875 
Q 63.875 50.6875 67.65625 47.796875 
Q 71.4375 44.921875 72.578125 41.1875 
Q 73.734375 37.453125 73.734375 30.671875 
z
" id="FranklinGothic-Book-109"/>
      <path d="M 15.328125 -16.65625 
L 7.671875 -16.65625 
L 7.671875 49.3125 
L 14.546875 49.3125 
L 14.546875 39.75 
Q 19.78125 50.6875 30.125 50.6875 
Q 38.875 50.6875 44.234375 43.375 
Q 49.609375 36.078125 49.609375 24.90625 
Q 49.609375 12.84375 44.09375 5.765625 
Q 38.578125 -1.3125 29.9375 -1.3125 
Q 20.65625 -1.3125 15.328125 7.515625 
z
M 15.328125 31.78125 
L 15.328125 17.921875 
Q 16.0625 12.3125 20.0625 8.640625 
Q 24.078125 4.984375 28.421875 4.984375 
Q 33.453125 4.984375 37.328125 9.375 
Q 41.21875 13.765625 41.21875 24.5625 
Q 41.21875 33.890625 37.703125 38.9375 
Q 34.1875 44 28.375 44 
Q 23.78125 44 20.140625 40.421875 
Q 16.5 36.859375 15.328125 31.78125 
z
" id="FranklinGothic-Book-112"/>
      <path d="M 46.1875 66.65625 
L 46.1875 0 
L 39.203125 0 
L 39.203125 8.453125 
Q 34.03125 -1.3125 23.640625 -1.3125 
Q 14.984375 -1.3125 9.421875 5.9375 
Q 3.859375 13.1875 3.859375 24.265625 
Q 3.859375 35.59375 9.375 43.140625 
Q 14.890625 50.6875 24.03125 50.6875 
Q 32.90625 50.6875 38.53125 42.578125 
L 38.53125 66.65625 
z
M 38.53125 30.28125 
Q 38.53125 36.765625 34.5625 40.671875 
Q 30.609375 44.578125 25.34375 44.578125 
Q 19.625 44.578125 15.9375 39.5 
Q 12.25 34.421875 12.25 25.25 
Q 12.25 15.328125 15.640625 10.15625 
Q 19.046875 4.984375 24.953125 4.984375 
Q 30.328125 4.984375 34.421875 9.46875 
Q 38.53125 13.96875 38.53125 20.015625 
z
" id="FranklinGothic-Book-100"/>
      <path id="FranklinGothic-Book-32"/>
      <path d="M 48.875 66.65625 
L 48.1875 59.46875 
L 15.4375 59.46875 
L 14.015625 37.84375 
Q 21.4375 45.125 30.328125 45.125 
Q 39.703125 45.125 46.515625 38.625 
Q 53.328125 32.125 53.328125 22.015625 
Q 53.328125 11.765625 45.921875 5.21875 
Q 38.53125 -1.3125 27.828125 -1.3125 
Q 19.4375 -1.3125 12.890625 3.078125 
Q 6.34375 7.46875 4.296875 14.453125 
L 11.421875 16.890625 
Q 15.828125 5.28125 27.9375 5.28125 
Q 35.890625 5.28125 40.578125 9.984375 
Q 45.265625 14.703125 45.265625 22.015625 
Q 45.265625 29.6875 40.625 33.984375 
Q 35.984375 38.28125 29.5 38.28125 
Q 20.015625 38.28125 13.8125 29.203125 
L 7.234375 30.609375 
L 9.375 66.65625 
z
" id="FranklinGothic-Book-53"/>
      <path d="M 23.53125 27.984375 
L 23.53125 22.015625 
L 1.46875 22.015625 
L 1.46875 27.984375 
z
" id="FranklinGothic-Book-45"/>
      <path d="M 43.796875 49.3125 
L 26.765625 0 
L 18.796875 0 
L 1.171875 49.3125 
L 9.671875 49.3125 
L 23.390625 9.234375 
L 36.96875 49.3125 
z
" id="FranklinGothic-Book-118"/>
      <path d="M 47.953125 57.03125 
L 47.953125 50.921875 
Q 42.671875 50.921875 40.890625 49.703125 
Q 39.109375 48.484375 38.53125 45.3125 
Q 43.265625 39.84375 43.265625 33.40625 
Q 43.265625 26.65625 38.109375 21.828125 
Q 32.953125 17 24.265625 17 
Q 22.3125 17 20.90625 17.28125 
Q 18.21875 17.828125 17.53125 17.828125 
Q 16.21875 17.828125 14.359375 16.53125 
Q 12.5 15.234375 12.5 13.1875 
Q 12.5 10.25 15.1875 9.375 
Q 17.875 8.5 27.828125 8.25 
Q 36.28125 8.015625 40.3125 7.109375 
Q 44.34375 6.203125 47.125 3.09375 
Q 49.90625 0 49.90625 -4.5 
Q 49.90625 -18.609375 25.09375 -18.609375 
Q 13.328125 -18.609375 7.9375 -15.0625 
Q 2.546875 -11.53125 2.546875 -5.609375 
Q 2.546875 1.5625 10.0625 4.25 
Q 5.21875 7.421875 5.21875 12.203125 
Q 5.21875 17.921875 12.0625 20.953125 
Q 5.671875 26.125 5.671875 33.984375 
Q 5.671875 41.3125 11.140625 46 
Q 16.609375 50.6875 24.46875 50.6875 
Q 30.03125 50.6875 34.578125 48.578125 
Q 35.296875 53.421875 37.953125 55.265625 
Q 40.625 57.125 46.046875 57.125 
Q 46.578125 57.125 47.953125 57.03125 
z
M 24.515625 22.859375 
Q 29.390625 22.859375 32.46875 25.859375 
Q 35.546875 28.859375 35.546875 33.640625 
Q 35.546875 38.53125 32.34375 41.625 
Q 29.15625 44.734375 24.609375 44.734375 
Q 20.265625 44.734375 16.890625 41.828125 
Q 13.53125 38.921875 13.53125 33.546875 
Q 13.53125 28.765625 16.546875 25.8125 
Q 19.578125 22.859375 24.515625 22.859375 
z
M 15.328125 2 
Q 9.96875 -0.34375 9.96875 -4.78125 
Q 9.96875 -8.546875 14.375 -10.625 
Q 18.796875 -12.703125 25.640625 -12.703125 
Q 31.984375 -12.703125 37.25 -10.90625 
Q 42.53125 -9.125 42.53125 -4.890625 
Q 42.53125 -2.59375 40.96875 -1.125 
Q 39.40625 0.34375 36.6875 0.734375 
Q 33.984375 1.125 27.25 1.3125 
Q 19.1875 1.515625 15.328125 2 
z
" id="FranklinGothic-Book-103"/>
     </defs>
     <use xlink:href="#FranklinGothic-Book-67"/>
     <use x="57.910156" xlink:href="#FranklinGothic-Book-111"/>
     <use x="109.863281" xlink:href="#FranklinGothic-Book-109"/>
     <use x="190.384766" xlink:href="#FranklinGothic-Book-112"/>
     <use x="243.802734" xlink:href="#FranklinGothic-Book-97"/>
     <use x="296.683594" xlink:href="#FranklinGothic-Book-114"/>
     <use x="329.642578" xlink:href="#FranklinGothic-Book-101"/>
     <use x="381.693359" xlink:href="#FranklinGothic-Book-100"/>
     <use x="435.550781" xlink:href="#FranklinGothic-Book-32"/>
     <use x="460.550781" xlink:href="#FranklinGothic-Book-116"/>
     <use x="489.8125" xlink:href="#FranklinGothic-Book-111"/>
     <use x="541.765625" xlink:href="#FranklinGothic-Book-32"/>
     <use x="566.765625" xlink:href="#FranklinGothic-Book-50"/>
     <use x="625.408203" xlink:href="#FranklinGothic-Book-48"/>
     <use x="684.050781" xlink:href="#FranklinGothic-Book-48"/>
     <use x="742.693359" xlink:href="#FranklinGothic-Book-53"/>
     <use x="801.335938" xlink:href="#FranklinGothic-Book-45"/>
     <use x="826.335938" xlink:href="#FranklinGothic-Book-50"/>
     <use x="884.978516" xlink:href="#FranklinGothic-Book-48"/>
     <use x="943.621094" xlink:href="#FranklinGothic-Book-48"/>
     <use x="1002.263672" xlink:href="#FranklinGothic-Book-53"/>
     <use x="1060.90625" xlink:href="#FranklinGothic-Book-32"/>
     <use x="1085.90625" xlink:href="#FranklinGothic-Book-97"/>
     <use x="1136.537109" xlink:href="#FranklinGothic-Book-118"/>
     <use x="1180.056641" xlink:href="#FranklinGothic-Book-101"/>
     <use x="1232.107422" xlink:href="#FranklinGothic-Book-114"/>
     <use x="1265.066406" xlink:href="#FranklinGothic-Book-97"/>
     <use x="1317.947266" xlink:href="#FranklinGothic-Book-103"/>
     <use x="1367.068359" xlink:href="#FranklinGothic-Book-101"/>
    </g>
   </g>
   <g id="text_10">
    <!-- Antarctic ice sheet cumulative mass balance -->
    <g style="fill:#696969;" transform="translate(144 42.76)scale(0.4 -0.4)">
     <defs>
      <path d="M 53.21875 0 
L 44.671875 0 
L 37.9375 19.484375 
L 13.28125 19.484375 
L 7.328125 0 
L 0.34375 0 
L 21.96875 66.65625 
L 31.5 66.65625 
z
M 36.1875 25.734375 
L 25.921875 57.765625 
L 15.578125 25.734375 
z
" id="FranklinGothic-Book-65"/>
      <path d="M 46.53125 0 
L 39.359375 0 
L 39.359375 31.6875 
Q 39.359375 38.53125 36.375 41.3125 
Q 33.40625 44.09375 29.15625 44.09375 
Q 23.296875 44.09375 19.3125 39.40625 
Q 15.328125 34.71875 15.328125 27.046875 
L 15.328125 0 
L 7.671875 0 
L 7.671875 49.3125 
L 14.796875 49.3125 
L 14.796875 40.234375 
Q 20.796875 50.6875 30.375 50.6875 
Q 35.890625 50.6875 39.765625 47.828125 
Q 43.65625 44.96875 45.09375 41.40625 
Q 46.53125 37.84375 46.53125 28.515625 
z
" id="FranklinGothic-Book-110"/>
      <path d="M 36.8125 17.28125 
L 43.75 16.0625 
Q 42.28125 7.90625 37.25 3.296875 
Q 32.234375 -1.3125 24.703125 -1.3125 
Q 14.5 -1.3125 9.15625 6.203125 
Q 3.8125 13.71875 3.8125 24.5625 
Q 3.8125 35.796875 9.453125 43.234375 
Q 15.09375 50.6875 24.8125 50.6875 
Q 32.859375 50.6875 37.71875 45.875 
Q 42.578125 41.0625 43.75 33.453125 
L 36.8125 32.125 
Q 34.859375 44.34375 25 44.34375 
Q 18.65625 44.34375 15.234375 38.9375 
Q 11.8125 33.546875 11.8125 24.953125 
Q 11.8125 15.484375 15.203125 10.234375 
Q 18.609375 4.984375 24.75 4.984375 
Q 34.28125 4.984375 36.8125 17.28125 
z
" id="FranklinGothic-Book-99"/>
      <path d="M 15.578125 66.65625 
L 15.578125 58.15625 
L 7.328125 58.15625 
L 7.328125 66.65625 
z
M 15.328125 49.3125 
L 15.328125 0 
L 7.671875 0 
L 7.671875 49.3125 
z
" id="FranklinGothic-Book-105"/>
      <path d="M 1.03125 12.796875 
L 8.34375 14.3125 
Q 10.796875 4.984375 23.78125 4.984375 
Q 28.5625 4.984375 31.875 7.125 
Q 35.203125 9.28125 35.203125 13.1875 
Q 35.203125 19 26.765625 20.5625 
L 16.359375 22.515625 
Q 10.25 23.6875 6.640625 27.09375 
Q 3.03125 30.515625 3.03125 36.140625 
Q 3.03125 42.328125 7.953125 46.5 
Q 12.890625 50.6875 21.234375 50.6875 
Q 37.3125 50.6875 41.0625 38.140625 
L 34.03125 36.625 
Q 31 44.34375 21.578125 44.34375 
Q 16.890625 44.34375 13.890625 42.40625 
Q 10.890625 40.484375 10.890625 37.015625 
Q 10.890625 31.546875 18.5625 30.125 
L 28.171875 28.421875 
Q 43.265625 25.6875 43.265625 13.8125 
Q 43.265625 7.03125 37.640625 2.859375 
Q 32.03125 -1.3125 22.703125 -1.3125 
Q 5.171875 -1.3125 1.03125 12.796875 
z
" id="FranklinGothic-Book-115"/>
      <path d="M 46.34375 0 
L 38.671875 0 
L 38.671875 29.9375 
Q 38.671875 35.203125 38.015625 37.84375 
Q 37.359375 40.484375 34.890625 42.40625 
Q 32.421875 44.34375 29.203125 44.34375 
Q 23.296875 44.34375 19.3125 39.5 
Q 15.328125 34.671875 15.328125 26.5625 
L 15.328125 0 
L 7.671875 0 
L 7.671875 66.65625 
L 15.328125 66.65625 
L 15.328125 40.234375 
Q 20.5625 50.6875 30.28125 50.6875 
Q 34.625 50.6875 38.015625 48.96875 
Q 41.40625 47.265625 43.203125 44.484375 
Q 45.015625 41.703125 45.671875 38.984375 
Q 46.34375 36.28125 46.34375 29.9375 
z
" id="FranklinGothic-Book-104"/>
      <path d="M 46.484375 0 
L 39.59375 0 
L 39.59375 9.421875 
Q 34.328125 -1.3125 23.875 -1.3125 
Q 16.3125 -1.3125 11.984375 3.65625 
Q 7.671875 8.640625 7.671875 17.828125 
L 7.671875 49.3125 
L 15.328125 49.3125 
L 15.328125 17.828125 
Q 15.328125 10.5 18.375 7.734375 
Q 21.4375 4.984375 25.09375 4.984375 
Q 28.8125 4.984375 31.8125 7.078125 
Q 34.8125 9.1875 36.8125 13.0625 
Q 38.8125 16.9375 38.8125 21.53125 
L 38.8125 49.3125 
L 46.484375 49.3125 
z
" id="FranklinGothic-Book-117"/>
      <path d="M 15.328125 0 
L 7.671875 0 
L 7.671875 66.65625 
L 15.328125 66.65625 
z
" id="FranklinGothic-Book-108"/>
      <path d="M 11.375 0 
L 7.671875 0 
L 7.671875 66.65625 
L 15.328125 66.65625 
L 15.328125 41.109375 
Q 20.609375 50.6875 29.890625 50.6875 
Q 38.375 50.6875 44.109375 44 
Q 49.859375 37.3125 49.859375 24.5625 
Q 49.859375 13.578125 44.21875 6.125 
Q 38.578125 -1.3125 29.546875 -1.3125 
Q 19.484375 -1.3125 14.109375 8.15625 
z
M 15.328125 19.34375 
Q 15.875 11.765625 20 8.34375 
Q 24.125 4.9375 28.71875 4.9375 
Q 34.578125 4.9375 38.15625 10.015625 
Q 41.75 15.09375 41.75 23.921875 
Q 41.75 33.453125 38.28125 38.890625 
Q 34.8125 44.34375 28.65625 44.34375 
Q 23.828125 44.34375 19.9375 40.453125 
Q 16.0625 36.578125 15.328125 30.421875 
z
" id="FranklinGothic-Book-98"/>
     </defs>
     <use xlink:href="#FranklinGothic-Book-65"/>
     <use x="53.564453" xlink:href="#FranklinGothic-Book-110"/>
     <use x="107.763672" xlink:href="#FranklinGothic-Book-116"/>
     <use x="138.525391" xlink:href="#FranklinGothic-Book-97"/>
     <use x="191.40625" xlink:href="#FranklinGothic-Book-114"/>
     <use x="222.865234" xlink:href="#FranklinGothic-Book-99"/>
     <use x="269.447266" xlink:href="#FranklinGothic-Book-116"/>
     <use x="300.208984" xlink:href="#FranklinGothic-Book-105"/>
     <use x="323.158203" xlink:href="#FranklinGothic-Book-99"/>
     <use x="369.740234" xlink:href="#FranklinGothic-Book-32"/>
     <use x="394.740234" xlink:href="#FranklinGothic-Book-105"/>
     <use x="417.689453" xlink:href="#FranklinGothic-Book-99"/>
     <use x="464.271484" xlink:href="#FranklinGothic-Book-101"/>
     <use x="516.322266" xlink:href="#FranklinGothic-Book-32"/>
     <use x="541.322266" xlink:href="#FranklinGothic-Book-115"/>
     <use x="587.708984" xlink:href="#FranklinGothic-Book-104"/>
     <use x="641.712891" xlink:href="#FranklinGothic-Book-101"/>
     <use x="693.763672" xlink:href="#FranklinGothic-Book-101"/>
     <use x="745.314453" xlink:href="#FranklinGothic-Book-116"/>
     <use x="776.076172" xlink:href="#FranklinGothic-Book-32"/>
     <use x="801.076172" xlink:href="#FranklinGothic-Book-99"/>
     <use x="847.658203" xlink:href="#FranklinGothic-Book-117"/>
     <use x="901.808594" xlink:href="#FranklinGothic-Book-109"/>
     <use x="983.205078" xlink:href="#FranklinGothic-Book-117"/>
     <use x="1037.355469" xlink:href="#FranklinGothic-Book-108"/>
     <use x="1060.353516" xlink:href="#FranklinGothic-Book-97"/>
     <use x="1113.234375" xlink:href="#FranklinGothic-Book-116"/>
     <use x="1143.996094" xlink:href="#FranklinGothic-Book-105"/>
     <use x="1166.945312" xlink:href="#FranklinGothic-Book-118"/>
     <use x="1210.464844" xlink:href="#FranklinGothic-Book-101"/>
     <use x="1262.515625" xlink:href="#FranklinGothic-Book-32"/>
     <use x="1287.515625" xlink:href="#FranklinGothic-Book-109"/>
     <use x="1368.912109" xlink:href="#FranklinGothic-Book-97"/>
     <use x="1421.792969" xlink:href="#FranklinGothic-Book-115"/>
     <use x="1468.179688" xlink:href="#FranklinGothic-Book-115"/>
     <use x="1514.566406" xlink:href="#FranklinGothic-Book-32"/>
     <use x="1539.566406" xlink:href="#FranklinGothic-Book-98"/>
     <use x="1593.277344" xlink:href="#FranklinGothic-Book-97"/>
     <use x="1646.158203" xlink:href="#FranklinGothic-Book-108"/>
     <use x="1669.15625" xlink:href="#FranklinGothic-Book-97"/>
     <use x="1722.037109" xlink:href="#FranklinGothic-Book-110"/>
     <use x="1776.236328" xlink:href="#FranklinGothic-Book-99"/>
     <use x="1822.818359" xlink:href="#FranklinGothic-Book-101"/>
    </g>
   </g>
   <g id="legend_1">
    <g id="line2d_7"/>
    <g id="text_11">
     <!-- IMBIE 2021 (1992.01-2020.12) -->
     <g style="fill:#d55e00;" transform="translate(703.134875 129.7184)scale(0.2 -0.2)">
      <defs>
       <path d="M 16.703125 0 
L 8.34375 0 
L 8.34375 66.65625 
L 16.703125 66.65625 
z
" id="FranklinGothic-Book-73"/>
       <path d="M 72.703125 0 
L 64.59375 0 
L 64.59375 58.203125 
L 42.921875 0 
L 37.25 0 
L 15.4375 58.203125 
L 15.4375 0 
L 8.34375 0 
L 8.34375 66.65625 
L 20.75 66.65625 
L 40.828125 13.328125 
L 60.5 66.65625 
L 72.703125 66.65625 
z
" id="FranklinGothic-Book-77"/>
       <path d="M 8.34375 0 
L 8.34375 66.65625 
L 34.71875 66.65625 
Q 44.671875 66.65625 49.484375 61.765625 
Q 54.296875 56.890625 54.296875 50.4375 
Q 54.296875 39.109375 42.484375 35.40625 
Q 49.515625 33.59375 52.921875 28.953125 
Q 56.34375 24.3125 56.34375 18.453125 
Q 56.34375 10.59375 51.046875 5.296875 
Q 45.75 0 34.71875 0 
z
M 16.40625 38.09375 
L 30.90625 38.09375 
Q 39.9375 38.09375 42.96875 41.53125 
Q 46 44.96875 46 49.609375 
Q 46 54.203125 42.75 57.03125 
Q 39.5 59.859375 33.0625 59.859375 
L 16.40625 59.859375 
z
M 16.40625 7.328125 
L 34.28125 7.328125 
Q 40.828125 7.328125 44.390625 10.5 
Q 47.953125 13.671875 47.953125 18.75 
Q 47.953125 22.3125 46.34375 25.359375 
Q 44.734375 28.421875 41.796875 30.078125 
Q 38.875 31.734375 33.0625 31.734375 
L 16.40625 31.734375 
z
" id="FranklinGothic-Book-66"/>
       <path d="M 51.46875 7.328125 
L 51.46875 0 
L 8.34375 0 
L 8.34375 66.65625 
L 50.53125 66.65625 
L 50.53125 59.328125 
L 16.703125 59.328125 
L 16.703125 38.140625 
L 43.5625 38.140625 
L 43.5625 31.34375 
L 16.703125 31.34375 
L 16.703125 7.328125 
z
" id="FranklinGothic-Book-69"/>
       <path d="M 24.703125 -16.65625 
L 19.578125 -16.65625 
Q 5.21875 2.203125 5.21875 25.09375 
Q 5.21875 46.96875 19.578125 66.65625 
L 24.703125 66.65625 
Q 12.359375 48.25 12.359375 25 
Q 12.359375 2.828125 24.703125 -16.65625 
z
" id="FranklinGothic-Book-40"/>
       <path d="M 5.71875 12.15625 
L 12.40625 14.59375 
Q 16.546875 5.375 26.375 5.375 
Q 35.890625 5.375 40.703125 13.375 
Q 45.515625 21.390625 45.65625 35.109375 
Q 39.109375 23.09375 25.984375 23.09375 
Q 16.703125 23.09375 10.40625 29.421875 
Q 4.109375 35.75 4.109375 45.0625 
Q 4.109375 54.546875 10.71875 61.28125 
Q 17.328125 68.015625 27.59375 68.015625 
Q 40.140625 68.015625 46.828125 59.203125 
Q 53.515625 50.390625 53.515625 34.96875 
Q 53.515625 18.75 46.4375 8.71875 
Q 39.359375 -1.3125 26.265625 -1.3125 
Q 10.984375 -1.3125 5.71875 12.15625 
z
M 27.828125 29.78125 
Q 34.71875 29.78125 39.375 34.59375 
Q 44.046875 39.40625 44.046875 45.84375 
Q 44.046875 52.09375 39.625 56.578125 
Q 35.203125 61.078125 27.984375 61.078125 
Q 20.65625 61.078125 16.40625 56.46875 
Q 12.15625 51.859375 12.15625 45.21875 
Q 12.15625 38.09375 16.859375 33.9375 
Q 21.578125 29.78125 27.828125 29.78125 
z
" id="FranklinGothic-Book-57"/>
       <path d="M 17.96875 10.9375 
L 17.96875 0 
L 7.078125 0 
L 7.078125 10.9375 
z
" id="FranklinGothic-Book-46"/>
       <path d="M 4.640625 66.65625 
L 9.71875 66.65625 
Q 24.125 47.796875 24.125 24.90625 
Q 24.125 3.03125 9.71875 -16.65625 
L 4.640625 -16.65625 
Q 17 1.765625 17 25 
Q 17 47.171875 4.640625 66.65625 
z
" id="FranklinGothic-Book-41"/>
      </defs>
      <use xlink:href="#FranklinGothic-Book-73"/>
      <use x="25" xlink:href="#FranklinGothic-Book-77"/>
      <use x="106.005859" xlink:href="#FranklinGothic-Book-66"/>
      <use x="166.455078" xlink:href="#FranklinGothic-Book-73"/>
      <use x="191.455078" xlink:href="#FranklinGothic-Book-69"/>
      <use x="246.240234" xlink:href="#FranklinGothic-Book-32"/>
      <use x="271.240234" xlink:href="#FranklinGothic-Book-50"/>
      <use x="329.882812" xlink:href="#FranklinGothic-Book-48"/>
      <use x="388.525391" xlink:href="#FranklinGothic-Book-50"/>
      <use x="443.667969" xlink:href="#FranklinGothic-Book-49"/>
      <use x="502.310547" xlink:href="#FranklinGothic-Book-32"/>
      <use x="527.310547" xlink:href="#FranklinGothic-Book-40"/>
      <use x="556.65625" xlink:href="#FranklinGothic-Book-49"/>
      <use x="613.923828" xlink:href="#FranklinGothic-Book-57"/>
      <use x="672.566406" xlink:href="#FranklinGothic-Book-57"/>
      <use x="731.208984" xlink:href="#FranklinGothic-Book-50"/>
      <use x="789.851562" xlink:href="#FranklinGothic-Book-46"/>
      <use x="814.851562" xlink:href="#FranklinGothic-Book-48"/>
      <use x="869.744141" xlink:href="#FranklinGothic-Book-49"/>
      <use x="928.386719" xlink:href="#FranklinGothic-Book-45"/>
      <use x="953.386719" xlink:href="#FranklinGothic-Book-50"/>
      <use x="1012.029297" xlink:href="#FranklinGothic-Book-48"/>
      <use x="1070.671875" xlink:href="#FranklinGothic-Book-50"/>
      <use x="1129.314453" xlink:href="#FranklinGothic-Book-48"/>
      <use x="1187.957031" xlink:href="#FranklinGothic-Book-46"/>
      <use x="1209.082031" xlink:href="#FranklinGothic-Book-49"/>
      <use x="1267.724609" xlink:href="#FranklinGothic-Book-50"/>
      <use x="1326.367188" xlink:href="#FranklinGothic-Book-41"/>
     </g>
    </g>
    <g id="line2d_8"/>
    <g id="text_12">
     <!-- NASA GRACE (2002.04-2023.10) -->
     <g style="fill:#56b4e9;" transform="translate(703.134875 157.04965)scale(0.2 -0.2)">
      <defs>
       <path d="M 57.421875 0 
L 49.3125 0 
L 14.84375 58.109375 
L 14.9375 53.71875 
Q 15.09375 51.21875 15.09375 49.515625 
L 15.09375 0 
L 8.34375 0 
L 8.34375 66.65625 
L 18.796875 66.65625 
L 51.03125 12.3125 
L 50.921875 16.9375 
Q 50.828125 19.671875 50.828125 21.78125 
L 50.828125 66.65625 
L 57.421875 66.65625 
z
" id="FranklinGothic-Book-78"/>
       <path d="M 1.03125 17.71875 
L 8.546875 19.4375 
Q 13.09375 5.8125 28.21875 5.8125 
Q 36.140625 5.8125 40.140625 9.15625 
Q 44.140625 12.5 44.140625 18.109375 
Q 44.140625 22.359375 41.078125 24.953125 
Q 38.03125 27.546875 34.03125 28.515625 
L 20.703125 31.84375 
Q 15.53125 33.15625 12.234375 35.03125 
Q 8.9375 36.921875 6.640625 40.828125 
Q 4.34375 44.734375 4.34375 49.75 
Q 4.34375 58.109375 10.640625 63.0625 
Q 16.9375 68.015625 26.8125 68.015625 
Q 44.96875 68.015625 50.6875 51.5625 
L 43.109375 49.3125 
Q 41.796875 55.171875 36.90625 58.171875 
Q 32.03125 61.1875 26.515625 61.1875 
Q 21.046875 61.1875 16.765625 58.296875 
Q 12.5 55.421875 12.5 50.140625 
Q 12.5 42.78125 23.34375 40.1875 
L 35.796875 37.203125 
Q 52.875 33.109375 52.875 18.796875 
Q 52.875 10.15625 46.453125 4.421875 
Q 40.046875 -1.3125 28.375 -1.3125 
Q 7.671875 -1.3125 1.03125 17.71875 
z
" id="FranklinGothic-Book-83"/>
       <path d="M 56.296875 0 
L 47.5625 0 
L 35.25 28.859375 
L 16.15625 28.859375 
L 16.15625 0 
L 8.34375 0 
L 8.34375 66.65625 
L 34.625 66.65625 
Q 45.3125 66.65625 50.453125 60.8125 
Q 55.609375 54.984375 55.609375 48.046875 
Q 55.609375 42.71875 52.734375 37.828125 
Q 49.859375 32.953125 43.21875 30.859375 
z
M 16.15625 35.640625 
L 33.59375 35.640625 
Q 40.484375 35.640625 43.875 39.28125 
Q 47.265625 42.921875 47.265625 48.1875 
Q 47.265625 53.46875 43.671875 56.390625 
Q 40.09375 59.328125 34.625 59.328125 
L 16.15625 59.328125 
z
" id="FranklinGothic-Book-82"/>
       <path d="M 44.09375 0 
L 36.03125 0 
L 36.03125 15.875 
L 3.078125 15.875 
L 3.078125 21.484375 
L 33.640625 68.0625 
L 44.09375 68.0625 
L 44.09375 22.46875 
L 54.890625 22.46875 
L 54.890625 15.875 
L 44.09375 15.875 
z
M 36.03125 22.46875 
L 36.03125 54 
Q 36.03125 57.421875 36.1875 61.375 
Q 34.078125 57.515625 32.5625 55.125 
L 11.765625 22.46875 
z
" id="FranklinGothic-Book-52"/>
       <path d="M 19.34375 31.34375 
L 19.34375 37.984375 
L 26.953125 37.984375 
Q 35.296875 37.984375 38.890625 41.40625 
Q 42.484375 44.828125 42.484375 49.703125 
Q 42.484375 55.078125 38.46875 58.21875 
Q 34.46875 61.375 28.421875 61.375 
Q 17.1875 61.375 12.890625 50.53125 
L 5.375 52.6875 
Q 11.8125 68.015625 29.203125 68.015625 
Q 38.96875 68.015625 44.96875 62.8125 
Q 50.984375 57.625 50.984375 50.296875 
Q 50.984375 44.625 47.359375 40.40625 
Q 43.75 36.1875 38.09375 35.109375 
Q 44.4375 34.1875 49 29.78125 
Q 53.5625 25.390625 53.5625 18.40625 
Q 53.5625 10.0625 46.765625 4.375 
Q 39.984375 -1.3125 28.171875 -1.3125 
Q 18.796875 -1.3125 12.125 3.125 
Q 5.46875 7.5625 2.9375 14.9375 
L 10.6875 17.53125 
Q 14.203125 5.46875 28.03125 5.46875 
Q 37.015625 5.46875 40.9375 9.296875 
Q 44.875 13.140625 44.875 18.453125 
Q 44.875 24.21875 40.15625 27.78125 
Q 35.453125 31.34375 26.953125 31.34375 
z
" id="FranklinGothic-Book-51"/>
      </defs>
      <use xlink:href="#FranklinGothic-Book-78"/>
      <use x="65.722656" xlink:href="#FranklinGothic-Book-65"/>
      <use x="119.287109" xlink:href="#FranklinGothic-Book-83"/>
      <use x="176.220703" xlink:href="#FranklinGothic-Book-65"/>
      <use x="229.785156" xlink:href="#FranklinGothic-Book-32"/>
      <use x="254.785156" xlink:href="#FranklinGothic-Book-71"/>
      <use x="319.482422" xlink:href="#FranklinGothic-Book-82"/>
      <use x="380.761719" xlink:href="#FranklinGothic-Book-65"/>
      <use x="431.826172" xlink:href="#FranklinGothic-Book-67"/>
      <use x="489.736328" xlink:href="#FranklinGothic-Book-69"/>
      <use x="544.521484" xlink:href="#FranklinGothic-Book-32"/>
      <use x="569.521484" xlink:href="#FranklinGothic-Book-40"/>
      <use x="598.867188" xlink:href="#FranklinGothic-Book-50"/>
      <use x="657.509766" xlink:href="#FranklinGothic-Book-48"/>
      <use x="716.152344" xlink:href="#FranklinGothic-Book-48"/>
      <use x="774.794922" xlink:href="#FranklinGothic-Book-50"/>
      <use x="833.4375" xlink:href="#FranklinGothic-Book-46"/>
      <use x="858.4375" xlink:href="#FranklinGothic-Book-48"/>
      <use x="917.080078" xlink:href="#FranklinGothic-Book-52"/>
      <use x="975.722656" xlink:href="#FranklinGothic-Book-45"/>
      <use x="1000.722656" xlink:href="#FranklinGothic-Book-50"/>
      <use x="1059.365234" xlink:href="#FranklinGothic-Book-48"/>
      <use x="1118.007812" xlink:href="#FranklinGothic-Book-50"/>
      <use x="1176.650391" xlink:href="#FranklinGothic-Book-51"/>
      <use x="1235.292969" xlink:href="#FranklinGothic-Book-46"/>
      <use x="1256.417969" xlink:href="#FranklinGothic-Book-49"/>
      <use x="1311.810547" xlink:href="#FranklinGothic-Book-48"/>
      <use x="1370.453125" xlink:href="#FranklinGothic-Book-41"/>
     </g>
    </g>
   </g>
   <g id="line2d_9">
    <path clip-path="url(#p5779924292)" d="M 446.606156 174.141816 
L 448.736435 173.970988 
L 455.127273 181.350212 
L 457.257552 164.602361 
L 459.387831 162.720565 
L 461.51811 180.693802 
L 463.648389 174.627397 
L 465.778669 172.359557 
L 467.908948 194.493192 
L 470.039227 189.19215 
L 472.169506 172.612436 
L 474.299785 167.429763 
L 478.560344 186.123975 
L 480.690623 186.288077 
L 482.820902 188.363568 
L 484.951181 176.415037 
L 487.08146 184.330955 
L 489.211739 207.196325 
L 491.342019 214.481391 
L 493.472298 233.955762 
L 495.602577 214.151841 
L 497.732856 223.185539 
L 499.863135 193.508578 
L 501.993414 195.738756 
L 504.123694 213.480636 
L 506.253973 193.854269 
L 508.384252 193.474951 
L 510.514531 182.360382 
L 512.64481 202.103773 
L 514.775089 212.816156 
L 516.905369 222.857334 
L 519.035648 230.874135 
L 521.165927 223.582344 
L 523.296206 203.548411 
L 525.426485 201.767498 
L 527.556764 196.06158 
L 529.687044 189.372393 
L 531.817323 196.46511 
L 533.947602 183.861515 
L 536.077881 184.100943 
L 538.20816 177.909444 
L 540.33844 191.388699 
L 542.468719 198.489487 
L 544.598998 209.310823 
L 546.729277 191.434433 
L 548.859556 191.116989 
L 550.989835 180.945336 
L 553.120115 176.748622 
L 555.250394 181.121544 
L 557.380673 170.531565 
L 559.510952 171.12879 
L 561.641231 181.157862 
L 563.77151 181.846554 
L 565.90179 202.528825 
L 568.032069 228.53366 
L 570.162348 224.850774 
L 572.292627 216.069955 
L 574.422906 214.368403 
L 576.553185 194.708408 
L 578.683465 194.779699 
L 580.813744 205.076446 
L 582.944023 200.497723 
L 585.074302 191.184244 
L 587.204581 201.494442 
L 589.33486 227.66069 
L 591.46514 238.775258 
L 593.595419 265.283161 
L 595.725698 248.523204 
L 597.855977 269.882061 
L 599.986256 247.720179 
L 602.116535 235.456894 
L 604.246815 245.07571 
L 606.377094 257.821886 
L 608.507373 253.53774 
L 610.637652 231.661019 
L 612.767931 243.039228 
L 614.89821 242.023677 
L 617.02849 255.715458 
L 619.158769 265.139235 
L 621.289048 260.651979 
L 623.419327 252.894782 
L 625.549606 249.873685 
L 627.679885 247.432327 
L 629.810165 244.428717 
L 631.940444 231.288427 
L 634.070723 236.53701 
L 636.201002 237.86328 
L 638.331281 242.961212 
L 640.46156 239.055039 
L 642.59184 253.965482 
L 644.722119 274.405635 
L 646.852398 271.467935 
L 648.982677 256.261569 
L 651.112956 269.299632 
L 653.243236 274.759396 
L 655.373515 275.674065 
L 657.503794 302.636612 
L 659.634073 292.594089 
L 661.764352 280.925339 
L 663.894631 286.736175 
L 666.024911 291.283961 
L 668.15519 292.493206 
L 672.415748 302.247878 
L 674.546027 305.484191 
L 676.676306 309.499317 
L 678.806586 299.74061 
L 683.067144 292.385598 
L 685.197423 296.439732 
L 687.327702 285.124744 
L 689.457981 290.349116 
L 689.457981 289.290521 
L 695.848819 325.090381 
L 695.848819 314.309397 
L 697.979098 320.355626 
L 700.109377 318.615065 
L 702.239656 310.771782 
L 706.500215 316.80725 
L 708.630494 314.121083 
L 710.760773 305.008025 
L 712.891052 300.789789 
L 717.151611 318.714603 
L 719.28189 322.100222 
L 721.412169 345.643522 
L 723.542448 359.039382 
L 727.803006 328.944095 
L 729.933286 343.932554 
L 732.063565 342.731379 
L 734.193844 335.845807 
L 740.584681 350.243767 
L 742.714961 355.703532 
L 744.84524 362.638872 
L 746.975519 377.377142 
L 751.236077 393.051602 
L 753.366356 382.974107 
L 755.496636 368.176652 
L 757.626915 372.998839 
L 761.887473 380.726443 
L 764.017752 354.41896 
L 766.148031 365.907467 
L 768.278311 375.935194 
L 772.538869 414.305541 
L 774.669148 426.106111 
L 776.799427 421.679384 
L 778.929707 419.435756 
L 778.929707 410.198948 
L 785.320544 405.266463 
L 787.450823 426.151845 
L 789.581102 420.919402 
L 795.97194 423.584047 
L 798.102219 424.210864 
L 800.232498 435.138463 
L 802.362777 426.258108 
L 806.623336 412.083435 
L 808.753615 408.555235 
L 810.883894 392.397883 
L 813.014173 387.098186 
L 819.405011 399.541714 
L 821.53529 392.553915 
L 823.665569 394.29044 
L 830.056407 441.200833 
L 830.056407 424.353445 
L 832.186686 416.475189 
L 834.316965 415.966741 
L 859.880315 441.541144 
L 862.010594 443.861443 
L 868.401432 462.417109 
L 870.531711 456.282104 
L 872.66199 476.410193 
L 874.792269 493.529292 
L 876.922548 501.461352 
L 879.052827 492.340223 
L 881.183107 486.191767 
L 883.313386 463.856367 
L 885.443665 472.922347 
L 887.573944 458.138343 
L 889.704223 477.440541 
L 891.834503 479.705691 
L 893.964782 481.691059 
L 896.095061 483.989837 
L 898.22534 497.142233 
L 900.355619 529.512086 
L 902.485898 540.57823 
L 904.616178 526.778841 
L 908.876736 494.009493 
L 911.007015 487.910806 
L 913.137294 496.857072 
L 915.267573 486.133928 
L 917.397853 494.359219 
L 919.528132 506.009138 
L 921.658411 512.094374 
L 923.78869 516.180791 
L 925.918969 550.4432 
L 928.049248 527.189096 
L 930.179528 528.628354 
L 932.309807 496.060772 
L 934.440086 494.407643 
L 936.570365 521.923027 
L 938.700644 530.350083 
L 940.830923 518.080073 
L 942.961203 527.754039 
L 945.091482 502.767445 
L 947.221761 535.491059 
L 949.35204 521.320421 
L 951.482319 535.374035 
L 955.742878 520.590032 
L 957.873157 486.922157 
L 960.003436 472.576656 
L 962.133715 475.217089 
L 964.263994 490.535098 
L 966.394273 482.508881 
L 968.524553 481.263317 
L 970.654832 489.89752 
L 972.785111 481.474498 
L 974.91539 482.834395 
L 977.045669 494.585196 
L 979.175948 505.339278 
L 981.306228 492.984526 
L 983.436507 459.482099 
L 985.566786 476.922677 
L 987.697065 477.049116 
L 989.827344 494.297345 
L 991.957623 474.902335 
L 994.087903 478.583876 
L 996.218182 496.886664 
L 996.218182 496.886664 
" style="fill:none;stroke:#56b4e9;stroke-linecap:round;"/>
   </g>
   <g id="line2d_10">
    <path clip-path="url(#p5779924292)" d="M 184.581818 108.809446 
L 188.842377 108.13017 
L 193.102935 111.059249 
L 208.014889 115.411053 
L 235.708518 127.19715 
L 261.271868 139.30061 
L 269.792985 143.68385 
L 291.095777 151.552865 
L 297.486614 153.838164 
L 310.268289 156.34628 
L 337.961918 157.507747 
L 363.525268 159.343178 
L 393.349177 162.728111 
L 414.651969 165.518536 
L 440.215319 169.695639 
L 450.866714 171.283732 
L 463.648389 173.758032 
L 470.039227 176.001284 
L 476.430064 178.202259 
L 480.690623 179.709215 
L 484.951181 181.43159 
L 491.342019 184.039162 
L 499.863135 187.234772 
L 514.775089 192.313712 
L 523.296206 194.904107 
L 533.947602 197.887137 
L 540.33844 199.98349 
L 553.120115 205.173764 
L 557.380673 207.060833 
L 563.77151 210.246718 
L 568.032069 212.600106 
L 582.944023 221.58577 
L 595.725698 229.3475 
L 602.116535 233.040945 
L 612.767931 239.064778 
L 617.02849 241.69067 
L 636.201002 252.581145 
L 642.59184 256.523528 
L 657.503794 267.171023 
L 668.15519 275.792609 
L 676.676306 283.725772 
L 689.457981 295.121224 
L 695.848819 300.560449 
L 702.239656 305.788372 
L 719.28189 321.394407 
L 746.975519 348.808787 
L 770.40859 373.596427 
L 774.669148 376.694463 
L 783.190265 382.50468 
L 795.97194 390.829361 
L 804.493057 394.126647 
L 810.883894 396.247925 
L 819.405011 398.827613 
L 821.53529 399.427017 
L 830.056407 403.384398 
L 836.447244 405.480657 
L 840.707802 407.097495 
L 847.09864 409.704422 
L 853.489477 414.879751 
L 862.010594 421.435235 
L 868.401432 428.471498 
L 874.792269 435.798895 
L 879.052827 439.59871 
L 900.355619 457.676812 
L 923.78869 468.36263 
L 923.78869 468.36263 
" style="fill:none;stroke:#d55e00;stroke-linecap:round;"/>
   </g>
  </g>
  <g id="text_13">
   <g id="patch_4">
    <path d="M 874.974375 646.18275 
L 1040.76 646.18275 
L 1040.76 628.26525 
L 874.974375 628.26525 
z
" style="fill:#ffffff;stroke:#ffffff;stroke-linejoin:miter;"/>
   </g>
   <!-- Created: 2024-02-08 11:46:37 -->
   <g style="fill:#696969;" transform="translate(878.934375 640.224)scale(0.12 -0.12)">
    <defs>
     <path d="M 17.96875 49.3125 
L 17.96875 38.375 
L 7.078125 38.375 
L 7.078125 49.3125 
z
M 17.96875 10.984375 
L 17.96875 0 
L 7.078125 0 
L 7.078125 10.984375 
z
" id="FranklinGothic-Book-58"/>
     <path d="M 19.484375 34.578125 
Q 6.84375 40.09375 6.84375 50.59375 
Q 6.84375 58.203125 13.140625 63.109375 
Q 19.4375 68.015625 29.828125 68.015625 
Q 40.09375 68.015625 46.140625 63.296875 
Q 52.203125 58.59375 52.203125 50.984375 
Q 52.203125 40.375 39.265625 35.796875 
Q 49.703125 30.953125 52.359375 26.453125 
Q 55.03125 21.96875 55.03125 17.484375 
Q 55.03125 9.46875 48.21875 4.078125 
Q 41.40625 -1.3125 29.734375 -1.3125 
Q 17.28125 -1.3125 10.4375 4.171875 
Q 3.609375 9.671875 3.609375 17.234375 
Q 3.609375 28.515625 19.484375 34.578125 
z
M 29.59375 38.71875 
Q 37.984375 40.96875 41.453125 43.890625 
Q 44.921875 46.828125 44.921875 51.21875 
Q 44.921875 56.34375 40.796875 59 
Q 36.671875 61.671875 29.9375 61.671875 
Q 23.484375 61.671875 19.375 58.859375 
Q 15.28125 56.0625 15.28125 51.3125 
Q 15.28125 46.625 19.84375 43.203125 
Q 24.421875 39.796875 29.59375 38.71875 
z
M 28.65625 31.0625 
Q 11.765625 27.046875 11.765625 16.9375 
Q 11.765625 11.671875 16.375 8.328125 
Q 21 4.984375 29.984375 4.984375 
Q 37.59375 4.984375 42.234375 8.25 
Q 46.875 11.53125 46.875 16.609375 
Q 46.875 26.3125 28.65625 31.0625 
z
" id="FranklinGothic-Book-56"/>
     <path d="M 53.5625 53.03125 
L 46.046875 50.984375 
Q 42.1875 61.140625 31.984375 61.140625 
Q 13.234375 61.140625 12.796875 30.125 
Q 15.765625 37.015625 21.234375 40.328125 
Q 26.703125 43.65625 32.8125 43.65625 
Q 42.09375 43.65625 48.359375 37.1875 
Q 54.640625 30.71875 54.640625 21.6875 
Q 54.640625 12.3125 47.96875 5.5 
Q 41.3125 -1.3125 30.90625 -1.3125 
Q 19.09375 -1.3125 12.078125 7.59375 
Q 5.078125 16.5 5.078125 31.84375 
Q 5.078125 46.828125 11.6875 57.421875 
Q 18.3125 68.015625 32.171875 68.015625 
Q 48.140625 68.015625 53.5625 53.03125 
z
M 30.765625 5.375 
Q 37.84375 5.375 42.359375 10.03125 
Q 46.875 14.703125 46.875 21.234375 
Q 46.875 27.6875 42.453125 32.296875 
Q 38.03125 36.921875 31.5 36.921875 
Q 24.75 36.921875 19.71875 32.078125 
Q 14.703125 27.25 14.703125 20.75 
Q 14.703125 14.75 19.1875 10.0625 
Q 23.6875 5.375 30.765625 5.375 
z
" id="FranklinGothic-Book-54"/>
     <path d="M 28.078125 0 
L 19.484375 0 
Q 19.484375 16.75 26.3125 32.59375 
Q 33.15625 48.4375 43.0625 59.328125 
L 6.890625 59.328125 
L 7.71875 66.65625 
L 51.765625 66.65625 
L 51.765625 61.671875 
Q 39.84375 47.3125 33.9375 31.78125 
Q 28.03125 16.265625 28.03125 2.296875 
Q 28.03125 1.515625 28.078125 0 
z
" id="FranklinGothic-Book-55"/>
    </defs>
    <use xlink:href="#FranklinGothic-Book-67"/>
    <use x="57.910156" xlink:href="#FranklinGothic-Book-114"/>
    <use x="90.869141" xlink:href="#FranklinGothic-Book-101"/>
    <use x="142.919922" xlink:href="#FranklinGothic-Book-97"/>
    <use x="195.800781" xlink:href="#FranklinGothic-Book-116"/>
    <use x="224.8125" xlink:href="#FranklinGothic-Book-101"/>
    <use x="276.863281" xlink:href="#FranklinGothic-Book-100"/>
    <use x="330.720703" xlink:href="#FranklinGothic-Book-58"/>
    <use x="355.720703" xlink:href="#FranklinGothic-Book-32"/>
    <use x="380.720703" xlink:href="#FranklinGothic-Book-50"/>
    <use x="439.363281" xlink:href="#FranklinGothic-Book-48"/>
    <use x="498.005859" xlink:href="#FranklinGothic-Book-50"/>
    <use x="552.273438" xlink:href="#FranklinGothic-Book-52"/>
    <use x="610.916016" xlink:href="#FranklinGothic-Book-45"/>
    <use x="635.916016" xlink:href="#FranklinGothic-Book-48"/>
    <use x="694.558594" xlink:href="#FranklinGothic-Book-50"/>
    <use x="753.201172" xlink:href="#FranklinGothic-Book-45"/>
    <use x="778.201172" xlink:href="#FranklinGothic-Book-48"/>
    <use x="836.84375" xlink:href="#FranklinGothic-Book-56"/>
    <use x="895.486328" xlink:href="#FranklinGothic-Book-32"/>
    <use x="920.486328" xlink:href="#FranklinGothic-Book-49"/>
    <use x="977.378906" xlink:href="#FranklinGothic-Book-49"/>
    <use x="1036.021484" xlink:href="#FranklinGothic-Book-58"/>
    <use x="1061.021484" xlink:href="#FranklinGothic-Book-52"/>
    <use x="1119.664062" xlink:href="#FranklinGothic-Book-54"/>
    <use x="1178.306641" xlink:href="#FranklinGothic-Book-58"/>
    <use x="1203.306641" xlink:href="#FranklinGothic-Book-51"/>
    <use x="1256.949219" xlink:href="#FranklinGothic-Book-55"/>
   </g>
  </g>
 </g>
 <defs>
  <clipPath id="p5779924292">
   <rect height="498.96" width="892.8" x="144" y="77.76"/>
  </clipPath>
 </defs>
</svg>
