<?xml version="1.0" encoding="utf-8" standalone="no"?>
<!DOCTYPE svg PUBLIC "-//W3C//DTD SVG 1.1//EN"
  "http://www.w3.org/Graphics/SVG/1.1/DTD/svg11.dtd">
<!-- Created with matplotlib (https://matplotlib.org/) -->
<svg height="648pt" version="1.1" viewBox="0 0 1152 648" width="1152pt" xmlns="http://www.w3.org/2000/svg" xmlns:xlink="http://www.w3.org/1999/xlink">
 <metadata>
  <rdf:RDF xmlns:cc="http://creativecommons.org/ns#" xmlns:dc="http://purl.org/dc/elements/1.1/" xmlns:rdf="http://www.w3.org/1999/02/22-rdf-syntax-ns#">
   <cc:Work>
    <dc:type rdf:resource="http://purl.org/dc/dcmitype/StillImage"/>
    <dc:date>2024-01-25T13:00:31.966595</dc:date>
    <dc:format>image/svg+xml</dc:format>
    <dc:creator>
     <cc:Agent>
      <dc:title>Matplotlib v3.3.1, https://matplotlib.org/</dc:title>
     </cc:Agent>
    </dc:creator>
   </cc:Work>
  </rdf:RDF>
 </metadata>
 <defs>
  <style type="text/css">*{stroke-linecap:butt;stroke-linejoin:round;}</style>
 </defs>
 <g id="figure_1">
  <g id="patch_1">
   <path d="M 0 648 
L 1152 648 
L 1152 0 
L 0 0 
z
" style="fill:#ffffff;"/>
  </g>
  <g id="axes_1">
   <g id="patch_2">
    <path d="M 144 576.72 
L 1036.8 576.72 
L 1036.8 77.76 
L 144 77.76 
z
" style="fill:none;"/>
   </g>
   <g id="line2d_1">
    <path clip-path="url(#p2120518dde)" d="M 606.820389 421.34361 
L 611.511929 409.712302 
L 616.203468 432.767215 
L 620.895008 431.313301 
L 625.586548 383.541861 
L 630.278087 418.435783 
L 634.969627 417.397273 
L 639.661167 406.389072 
L 644.352706 421.759013 
L 649.044246 413.450937 
L 653.735786 441.282993 
L 658.427325 408.466091 
L 663.118865 411.997023 
L 667.810405 392.888447 
L 672.501944 442.113801 
L 677.193484 446.475541 
L 681.885024 461.430079 
L 686.576563 399.534909 
L 691.268103 383.126458 
L 695.959643 391.642236 
L 700.651182 402.858139 
L 705.342722 384.164967 
L 710.034262 399.119505 
L 714.725801 389.772919 
L 719.417341 442.529205 
L 724.108881 426.951561 
L 728.80042 408.050687 
L 733.49196 404.519755 
L 738.1835 419.681994 
L 742.875039 387.488198 
L 747.566579 393.511553 
L 752.258119 431.936407 
L 756.949658 398.704101 
L 761.641198 372.741362 
L 766.332738 441.075291 
L 771.024277 435.259638 
L 775.715817 452.498896 
L 780.407357 381.464842 
L 785.098896 395.796274 
L 789.790436 357.13464 
L 794.481976 324.425743 
L 799.173516 316.107281 
L 803.865055 365.770886 
L 808.556595 317.203947 
L 813.248135 370.201168 
L 817.939674 380.264325 
L 822.631214 358.13784 
L 827.322754 319.409742 
L 832.014293 311.402833 
L 836.705833 340.892351 
L 841.397373 283.217683 
L 846.088912 296.863699 
L 850.780452 354.706605 
L 855.471992 343.289231 
L 860.163531 334.233427 
L 864.855071 289.924378 
L 869.546611 322.319646 
L 874.23815 291.858083 
L 878.92969 244.848909 
L 883.62123 311.8577 
L 888.312769 313.122605 
L 893.004309 273.239684 
L 897.695849 249.144185 
L 902.387388 252.373949 
L 907.078928 267.667041 
L 911.770468 227.231633 
L 916.462007 239.21811 
L 921.153547 241.062503 
L 925.845087 274.080876 
L 930.536626 241.51737 
L 935.228166 217.669037 
L 939.919706 253.030287 
L 944.611245 240.279467 
L 949.302785 233.493845 
L 953.994325 223.694469 
L 958.685864 186.470132 
L 963.377404 140.703016 
L 968.068944 164.520194 
L 972.760483 184.39519 
L 977.452023 150.668554 
L 982.143563 142.451866 
L 986.835102 181.954693 
L 991.526642 175.18361 
L 996.218182 100.44 
" style="fill:none;stroke:#0072b2;stroke-linecap:round;stroke-width:3;"/>
   </g>
   <g id="line2d_2">
    <path clip-path="url(#p2120518dde)" d="M 691.268103 367.200018 
L 695.959643 383.78255 
L 700.651182 388.254194 
L 705.342722 382.264561 
L 710.034262 385.755629 
L 714.725801 385.260711 
L 719.417341 434.290687 
L 724.108881 416.524757 
L 728.80042 408.356111 
L 733.49196 409.178457 
L 738.1835 416.201653 
L 742.875039 379.066919 
L 747.566579 389.334758 
L 752.258119 420.690712 
L 756.949658 393.208633 
L 761.641198 368.594614 
L 766.332738 435.701652 
L 771.024277 420.438851 
L 775.715817 447.258462 
L 780.407357 378.504161 
L 785.098896 393.852775 
L 789.790436 364.748302 
L 794.481976 333.482769 
L 799.173516 323.752343 
L 803.865055 370.220761 
L 808.556595 324.742883 
L 813.248135 371.490408 
L 817.939674 379.27734 
L 822.631214 354.653786 
L 827.322754 319.911659 
L 832.014293 313.451056 
L 836.705833 340.438653 
L 841.397373 293.607258 
L 846.088912 304.81652 
L 850.780452 352.668397 
L 855.471992 343.602237 
L 860.163531 326.177183 
L 864.855071 282.924481 
L 869.546611 315.572059 
L 874.23815 287.363171 
L 878.92969 238.317311 
L 883.62123 299.974227 
L 888.312769 299.767475 
L 893.004309 267.361952 
L 897.695849 241.288419 
L 902.387388 252.679747 
L 907.078928 275.031315 
L 911.770468 230.795446 
L 916.462007 242.884103 
L 921.153547 244.354288 
L 925.845087 280.128829 
L 930.536626 245.570105 
L 935.228166 226.013314 
L 939.919706 255.146018 
L 944.611245 244.638628 
L 949.302785 235.063148 
L 953.994325 224.786203 
L 958.685864 191.857784 
L 963.377404 145.885444 
L 968.068944 179.538172 
L 972.760483 200.419749 
L 977.452023 161.316637 
L 982.143563 162.532931 
L 986.835102 200.75747 
L 991.526642 188.738878 
L 996.218182 112.839477 
" style="fill:none;stroke:#d55e00;stroke-linecap:round;stroke-width:3;"/>
   </g>
   <g id="patch_3">
    <path d="M 144 576.72 
L 1036.8 576.72 
" style="fill:none;stroke:#d3d3d3;stroke-linecap:square;stroke-linejoin:miter;stroke-width:1.25;"/>
   </g>
   <g id="matplotlib.axis_1">
    <g id="xtick_1">
     <g id="line2d_3">
      <defs>
       <path d="M 0 0 
L 0 6 
" id="m6c9d0db220" style="stroke:#696969;stroke-width:1.25;"/>
      </defs>
      <g>
       <use style="fill:#696969;stroke:#696969;stroke-width:1.25;" x="231.497215" xlink:href="#m6c9d0db220" y="576.72"/>
      </g>
     </g>
     <g id="text_1">
      <!-- 1860 -->
      <g style="fill:#696969;" transform="translate(204.594402 601.550938)scale(0.23 -0.23)">
       <defs>
        <path d="M 55.859375 6.203125 
L 55.859375 0 
L 9.1875 0 
L 9.1875 6.203125 
L 29.203125 6.203125 
L 29.203125 57.671875 
Q 20.359375 48.4375 10.84375 43.265625 
L 10.84375 51.65625 
Q 23.96875 58.546875 31.203125 68.015625 
L 37.15625 68.015625 
L 37.15625 6.203125 
z
" id="FranklinGothic-Book-49"/>
        <path d="M 19.484375 34.578125 
Q 6.84375 40.09375 6.84375 50.59375 
Q 6.84375 58.203125 13.140625 63.109375 
Q 19.4375 68.015625 29.828125 68.015625 
Q 40.09375 68.015625 46.140625 63.296875 
Q 52.203125 58.59375 52.203125 50.984375 
Q 52.203125 40.375 39.265625 35.796875 
Q 49.703125 30.953125 52.359375 26.453125 
Q 55.03125 21.96875 55.03125 17.484375 
Q 55.03125 9.46875 48.21875 4.078125 
Q 41.40625 -1.3125 29.734375 -1.3125 
Q 17.28125 -1.3125 10.4375 4.171875 
Q 3.609375 9.671875 3.609375 17.234375 
Q 3.609375 28.515625 19.484375 34.578125 
z
M 29.59375 38.71875 
Q 37.984375 40.96875 41.453125 43.890625 
Q 44.921875 46.828125 44.921875 51.21875 
Q 44.921875 56.34375 40.796875 59 
Q 36.671875 61.671875 29.9375 61.671875 
Q 23.484375 61.671875 19.375 58.859375 
Q 15.28125 56.0625 15.28125 51.3125 
Q 15.28125 46.625 19.84375 43.203125 
Q 24.421875 39.796875 29.59375 38.71875 
z
M 28.65625 31.0625 
Q 11.765625 27.046875 11.765625 16.9375 
Q 11.765625 11.671875 16.375 8.328125 
Q 21 4.984375 29.984375 4.984375 
Q 37.59375 4.984375 42.234375 8.25 
Q 46.875 11.53125 46.875 16.609375 
Q 46.875 26.3125 28.65625 31.0625 
z
" id="FranklinGothic-Book-56"/>
        <path d="M 53.5625 53.03125 
L 46.046875 50.984375 
Q 42.1875 61.140625 31.984375 61.140625 
Q 13.234375 61.140625 12.796875 30.125 
Q 15.765625 37.015625 21.234375 40.328125 
Q 26.703125 43.65625 32.8125 43.65625 
Q 42.09375 43.65625 48.359375 37.1875 
Q 54.640625 30.71875 54.640625 21.6875 
Q 54.640625 12.3125 47.96875 5.5 
Q 41.3125 -1.3125 30.90625 -1.3125 
Q 19.09375 -1.3125 12.078125 7.59375 
Q 5.078125 16.5 5.078125 31.84375 
Q 5.078125 46.828125 11.6875 57.421875 
Q 18.3125 68.015625 32.171875 68.015625 
Q 48.140625 68.015625 53.5625 53.03125 
z
M 30.765625 5.375 
Q 37.84375 5.375 42.359375 10.03125 
Q 46.875 14.703125 46.875 21.234375 
Q 46.875 27.6875 42.453125 32.296875 
Q 38.03125 36.921875 31.5 36.921875 
Q 24.75 36.921875 19.71875 32.078125 
Q 14.703125 27.25 14.703125 20.75 
Q 14.703125 14.75 19.1875 10.0625 
Q 23.6875 5.375 30.765625 5.375 
z
" id="FranklinGothic-Book-54"/>
        <path d="M 29.390625 -1.3125 
Q 17.875 -1.3125 10.984375 8.671875 
Q 4.109375 18.65625 4.109375 33.453125 
Q 4.109375 48 10.640625 58 
Q 17.1875 68.015625 29.15625 68.015625 
Q 41.65625 68.015625 48.125 57.5625 
Q 54.59375 47.125 54.59375 33.0625 
Q 54.59375 19.28125 47.953125 8.984375 
Q 41.3125 -1.3125 29.390625 -1.3125 
z
M 29.4375 5.21875 
Q 37.890625 5.21875 41.9375 12.859375 
Q 46 20.515625 46 32.078125 
Q 46 44.734375 41.84375 53.125 
Q 37.703125 61.53125 29.046875 61.53125 
Q 20.703125 61.53125 16.625 53.859375 
Q 12.546875 46.1875 12.546875 33.6875 
Q 12.546875 20.703125 16.84375 12.953125 
Q 21.140625 5.21875 29.4375 5.21875 
z
" id="FranklinGothic-Book-48"/>
       </defs>
       <use xlink:href="#FranklinGothic-Book-49"/>
       <use x="58.017578" xlink:href="#FranklinGothic-Book-56"/>
       <use x="116.660156" xlink:href="#FranklinGothic-Book-54"/>
       <use x="175.302734" xlink:href="#FranklinGothic-Book-48"/>
      </g>
     </g>
    </g>
    <g id="xtick_2">
     <g id="line2d_4">
      <g>
       <use style="fill:#696969;stroke:#696969;stroke-width:1.25;" x="325.328008" xlink:href="#m6c9d0db220" y="576.72"/>
      </g>
     </g>
     <g id="text_2">
      <!-- 1880 -->
      <g style="fill:#696969;" transform="translate(298.425196 601.550938)scale(0.23 -0.23)">
       <use xlink:href="#FranklinGothic-Book-49"/>
       <use x="58.017578" xlink:href="#FranklinGothic-Book-56"/>
       <use x="116.660156" xlink:href="#FranklinGothic-Book-56"/>
       <use x="175.302734" xlink:href="#FranklinGothic-Book-48"/>
      </g>
     </g>
    </g>
    <g id="xtick_3">
     <g id="line2d_5">
      <g>
       <use style="fill:#696969;stroke:#696969;stroke-width:1.25;" x="419.158802" xlink:href="#m6c9d0db220" y="576.72"/>
      </g>
     </g>
     <g id="text_3">
      <!-- 1900 -->
      <g style="fill:#696969;" transform="translate(392.342239 601.550938)scale(0.23 -0.23)">
       <defs>
        <path d="M 5.71875 12.15625 
L 12.40625 14.59375 
Q 16.546875 5.375 26.375 5.375 
Q 35.890625 5.375 40.703125 13.375 
Q 45.515625 21.390625 45.65625 35.109375 
Q 39.109375 23.09375 25.984375 23.09375 
Q 16.703125 23.09375 10.40625 29.421875 
Q 4.109375 35.75 4.109375 45.0625 
Q 4.109375 54.546875 10.71875 61.28125 
Q 17.328125 68.015625 27.59375 68.015625 
Q 40.140625 68.015625 46.828125 59.203125 
Q 53.515625 50.390625 53.515625 34.96875 
Q 53.515625 18.75 46.4375 8.71875 
Q 39.359375 -1.3125 26.265625 -1.3125 
Q 10.984375 -1.3125 5.71875 12.15625 
z
M 27.828125 29.78125 
Q 34.71875 29.78125 39.375 34.59375 
Q 44.046875 39.40625 44.046875 45.84375 
Q 44.046875 52.09375 39.625 56.578125 
Q 35.203125 61.078125 27.984375 61.078125 
Q 20.65625 61.078125 16.40625 56.46875 
Q 12.15625 51.859375 12.15625 45.21875 
Q 12.15625 38.09375 16.859375 33.9375 
Q 21.578125 29.78125 27.828125 29.78125 
z
" id="FranklinGothic-Book-57"/>
       </defs>
       <use xlink:href="#FranklinGothic-Book-49"/>
       <use x="57.267578" xlink:href="#FranklinGothic-Book-57"/>
       <use x="115.910156" xlink:href="#FranklinGothic-Book-48"/>
       <use x="174.552734" xlink:href="#FranklinGothic-Book-48"/>
      </g>
     </g>
    </g>
    <g id="xtick_4">
     <g id="line2d_6">
      <g>
       <use style="fill:#696969;stroke:#696969;stroke-width:1.25;" x="512.989595" xlink:href="#m6c9d0db220" y="576.72"/>
      </g>
     </g>
     <g id="text_4">
      <!-- 1920 -->
      <g style="fill:#696969;" transform="translate(486.173033 601.550938)scale(0.23 -0.23)">
       <defs>
        <path d="M 52.484375 6.9375 
L 52.484375 0 
L 5.171875 0 
L 5.171875 6.9375 
Q 33.203125 27.9375 38.59375 34.59375 
Q 44 41.265625 44 47.796875 
Q 44 53.90625 39.453125 57.65625 
Q 34.90625 61.421875 29 61.421875 
Q 22.90625 61.421875 18.21875 57.296875 
Q 13.53125 53.171875 12.9375 46.09375 
L 5.171875 48.4375 
Q 10.0625 68.015625 29.109375 68.015625 
Q 39.40625 68.015625 45.84375 62.15625 
Q 52.296875 56.296875 52.296875 47.859375 
Q 52.296875 42.046875 49.234375 36.671875 
Q 46.1875 31.296875 37.6875 23.828125 
Q 29.203125 16.359375 15.71875 6.9375 
z
" id="FranklinGothic-Book-50"/>
       </defs>
       <use xlink:href="#FranklinGothic-Book-49"/>
       <use x="57.267578" xlink:href="#FranklinGothic-Book-57"/>
       <use x="115.910156" xlink:href="#FranklinGothic-Book-50"/>
       <use x="174.552734" xlink:href="#FranklinGothic-Book-48"/>
      </g>
     </g>
    </g>
    <g id="xtick_5">
     <g id="line2d_7">
      <g>
       <use style="fill:#696969;stroke:#696969;stroke-width:1.25;" x="606.820389" xlink:href="#m6c9d0db220" y="576.72"/>
      </g>
     </g>
     <g id="text_5">
      <!-- 1940 -->
      <g style="fill:#696969;" transform="translate(580.061326 601.550938)scale(0.23 -0.23)">
       <defs>
        <path d="M 44.09375 0 
L 36.03125 0 
L 36.03125 15.875 
L 3.078125 15.875 
L 3.078125 21.484375 
L 33.640625 68.0625 
L 44.09375 68.0625 
L 44.09375 22.46875 
L 54.890625 22.46875 
L 54.890625 15.875 
L 44.09375 15.875 
z
M 36.03125 22.46875 
L 36.03125 54 
Q 36.03125 57.421875 36.1875 61.375 
Q 34.078125 57.515625 32.5625 55.125 
L 11.765625 22.46875 
z
" id="FranklinGothic-Book-52"/>
       </defs>
       <use xlink:href="#FranklinGothic-Book-49"/>
       <use x="57.267578" xlink:href="#FranklinGothic-Book-57"/>
       <use x="115.410156" xlink:href="#FranklinGothic-Book-52"/>
       <use x="174.052734" xlink:href="#FranklinGothic-Book-48"/>
      </g>
     </g>
    </g>
    <g id="xtick_6">
     <g id="line2d_8">
      <g>
       <use style="fill:#696969;stroke:#696969;stroke-width:1.25;" x="700.651182" xlink:href="#m6c9d0db220" y="576.72"/>
      </g>
     </g>
     <g id="text_6">
      <!-- 1960 -->
      <g style="fill:#696969;" transform="translate(673.83462 601.550938)scale(0.23 -0.23)">
       <use xlink:href="#FranklinGothic-Book-49"/>
       <use x="57.267578" xlink:href="#FranklinGothic-Book-57"/>
       <use x="115.910156" xlink:href="#FranklinGothic-Book-54"/>
       <use x="174.552734" xlink:href="#FranklinGothic-Book-48"/>
      </g>
     </g>
    </g>
    <g id="xtick_7">
     <g id="line2d_9">
      <g>
       <use style="fill:#696969;stroke:#696969;stroke-width:1.25;" x="794.481976" xlink:href="#m6c9d0db220" y="576.72"/>
      </g>
     </g>
     <g id="text_7">
      <!-- 1980 -->
      <g style="fill:#696969;" transform="translate(767.665413 601.550938)scale(0.23 -0.23)">
       <use xlink:href="#FranklinGothic-Book-49"/>
       <use x="57.267578" xlink:href="#FranklinGothic-Book-57"/>
       <use x="115.910156" xlink:href="#FranklinGothic-Book-56"/>
       <use x="174.552734" xlink:href="#FranklinGothic-Book-48"/>
      </g>
     </g>
    </g>
    <g id="xtick_8">
     <g id="line2d_10">
      <g>
       <use style="fill:#696969;stroke:#696969;stroke-width:1.25;" x="888.312769" xlink:href="#m6c9d0db220" y="576.72"/>
      </g>
     </g>
     <g id="text_8">
      <!-- 2000 -->
      <g style="fill:#696969;" transform="translate(861.338082 601.550938)scale(0.23 -0.23)">
       <use xlink:href="#FranklinGothic-Book-50"/>
       <use x="58.642578" xlink:href="#FranklinGothic-Book-48"/>
       <use x="117.285156" xlink:href="#FranklinGothic-Book-48"/>
       <use x="175.927734" xlink:href="#FranklinGothic-Book-48"/>
      </g>
     </g>
    </g>
    <g id="xtick_9">
     <g id="line2d_11">
      <g>
       <use style="fill:#696969;stroke:#696969;stroke-width:1.25;" x="982.143563" xlink:href="#m6c9d0db220" y="576.72"/>
      </g>
     </g>
     <g id="text_9">
      <!-- 2020 -->
      <g style="fill:#696969;" transform="translate(955.168875 601.550938)scale(0.23 -0.23)">
       <use xlink:href="#FranklinGothic-Book-50"/>
       <use x="58.642578" xlink:href="#FranklinGothic-Book-48"/>
       <use x="117.285156" xlink:href="#FranklinGothic-Book-50"/>
       <use x="175.927734" xlink:href="#FranklinGothic-Book-48"/>
      </g>
     </g>
    </g>
    <g id="text_10">
     <!-- Year -->
     <g style="fill:#696969;" transform="translate(569.365781 624.712813)scale(0.23 -0.23)">
      <defs>
       <path d="M 52 66.65625 
L 29.6875 28.03125 
L 29.6875 0 
L 21.34375 0 
L 21.34375 28.03125 
L -0.984375 66.65625 
L 8.84375 66.65625 
L 26.5625 35.984375 
L 44.390625 66.65625 
z
" id="FranklinGothic-Book-89"/>
       <path d="M 40.234375 14.703125 
L 47.359375 13.234375 
Q 45.40625 6.9375 39.734375 2.8125 
Q 34.078125 -1.3125 26.421875 -1.3125 
Q 16.3125 -1.3125 10.0625 5.78125 
Q 3.8125 12.890625 3.8125 24.421875 
Q 3.8125 36.1875 10.296875 43.4375 
Q 16.796875 50.6875 26.609375 50.6875 
Q 36.28125 50.6875 42.15625 44 
Q 48.046875 37.3125 48.1875 23.96875 
L 12.359375 23.96875 
Q 12.359375 12.796875 17.046875 8.890625 
Q 21.734375 4.984375 26.953125 4.984375 
Q 36.375 4.984375 40.234375 14.703125 
z
M 39.796875 29.6875 
Q 39.703125 33.84375 38.421875 37.0625 
Q 37.15625 40.28125 34.125 42.546875 
Q 31.109375 44.828125 26.859375 44.828125 
Q 21.140625 44.828125 17.15625 40.71875 
Q 13.1875 36.625 12.703125 29.6875 
z
" id="FranklinGothic-Book-101"/>
       <path d="M 46.296875 0 
L 38.671875 0 
Q 38.234375 2.34375 37.796875 8.890625 
Q 32.71875 -1.3125 20.515625 -1.3125 
Q 12.203125 -1.3125 7.765625 3.078125 
Q 3.328125 7.46875 3.328125 13.625 
Q 3.328125 21.09375 9.671875 25.90625 
Q 16.015625 30.71875 31.25 30.71875 
Q 33.296875 30.71875 37.796875 30.515625 
Q 37.796875 36.375 36.890625 38.984375 
Q 35.984375 41.609375 33.046875 43.171875 
Q 30.125 44.734375 25.34375 44.734375 
Q 13.671875 44.734375 11.765625 35.84375 
L 4.6875 37.0625 
Q 7.28125 50.6875 26.46875 50.6875 
Q 36.671875 50.6875 40.9375 46.171875 
Q 45.21875 41.65625 45.21875 30.515625 
L 45.21875 9.578125 
Q 45.21875 4.34375 46.296875 0 
z
M 37.796875 24.65625 
Q 33.109375 24.953125 30.671875 24.953125 
Q 21.578125 24.953125 16.546875 21.96875 
Q 11.53125 19 11.53125 13.28125 
Q 11.53125 9.671875 14.234375 7.125 
Q 16.9375 4.59375 22.078125 4.59375 
Q 29 4.59375 33.46875 9.625 
Q 37.9375 14.65625 37.9375 21.4375 
Q 37.9375 22.796875 37.796875 24.65625 
z
" id="FranklinGothic-Book-97"/>
       <path d="M 15.328125 0 
L 7.671875 0 
L 7.671875 49.3125 
L 14.40625 49.3125 
L 14.40625 37.796875 
Q 17.96875 45.953125 21.546875 48.359375 
Q 25.140625 50.78125 28.90625 50.78125 
Q 30.078125 50.78125 31.9375 50.59375 
L 31.9375 43.265625 
L 30.375 43.265625 
Q 24.03125 43.265625 19.828125 38.53125 
Q 15.625 33.796875 15.328125 26.078125 
z
" id="FranklinGothic-Book-114"/>
      </defs>
      <use xlink:href="#FranklinGothic-Book-89"/>
      <use x="45.025391" xlink:href="#FranklinGothic-Book-101"/>
      <use x="97.076172" xlink:href="#FranklinGothic-Book-97"/>
      <use x="149.957031" xlink:href="#FranklinGothic-Book-114"/>
     </g>
    </g>
   </g>
   <g id="matplotlib.axis_2">
    <g id="ytick_1">
     <g id="line2d_12">
      <path clip-path="url(#p2120518dde)" d="M 144 569.96866 
L 1036.8 569.96866 
" style="fill:none;stroke:#d3d3d3;stroke-linecap:round;stroke-opacity:0.5;"/>
     </g>
     <g id="text_11">
      <!-- −0.4 -->
      <g style="fill:#696969;" transform="translate(88.287969 577.634128)scale(0.23 -0.23)">
       <defs>
        <path d="M 6 36.765625 
L 52.6875 36.765625 
L 52.6875 30.03125 
L 6 30.03125 
z
" id="FranklinGothic-Book-8722"/>
        <path d="M 17.96875 10.9375 
L 17.96875 0 
L 7.078125 0 
L 7.078125 10.9375 
z
" id="FranklinGothic-Book-46"/>
       </defs>
       <use xlink:href="#FranklinGothic-Book-8722"/>
       <use x="58.642578" xlink:href="#FranklinGothic-Book-48"/>
       <use x="117.285156" xlink:href="#FranklinGothic-Book-46"/>
       <use x="142.285156" xlink:href="#FranklinGothic-Book-52"/>
      </g>
     </g>
    </g>
    <g id="ytick_2">
     <g id="line2d_13">
      <path clip-path="url(#p2120518dde)" d="M 144 520.120201 
L 1036.8 520.120201 
" style="fill:none;stroke:#d3d3d3;stroke-linecap:round;stroke-opacity:0.5;"/>
     </g>
     <g id="text_12">
      <!-- −0.2 -->
      <g style="fill:#696969;" transform="translate(88.287969 527.785669)scale(0.23 -0.23)">
       <use xlink:href="#FranklinGothic-Book-8722"/>
       <use x="58.642578" xlink:href="#FranklinGothic-Book-48"/>
       <use x="117.285156" xlink:href="#FranklinGothic-Book-46"/>
       <use x="142.285156" xlink:href="#FranklinGothic-Book-50"/>
      </g>
     </g>
    </g>
    <g id="ytick_3">
     <g id="line2d_14">
      <path clip-path="url(#p2120518dde)" d="M 144 470.271741 
L 1036.8 470.271741 
" style="fill:none;stroke:#d3d3d3;stroke-linecap:round;stroke-opacity:0.5;"/>
     </g>
     <g id="text_13">
      <!-- 0.0 -->
      <g style="fill:#696969;" transform="translate(101.775312 477.93721)scale(0.23 -0.23)">
       <use xlink:href="#FranklinGothic-Book-48"/>
       <use x="58.642578" xlink:href="#FranklinGothic-Book-46"/>
       <use x="83.642578" xlink:href="#FranklinGothic-Book-48"/>
      </g>
     </g>
    </g>
    <g id="ytick_4">
     <g id="line2d_15">
      <path clip-path="url(#p2120518dde)" d="M 144 420.423282 
L 1036.8 420.423282 
" style="fill:none;stroke:#d3d3d3;stroke-linecap:round;stroke-opacity:0.5;"/>
     </g>
     <g id="text_14">
      <!-- 0.2 -->
      <g style="fill:#696969;" transform="translate(101.775312 428.088751)scale(0.23 -0.23)">
       <use xlink:href="#FranklinGothic-Book-48"/>
       <use x="58.642578" xlink:href="#FranklinGothic-Book-46"/>
       <use x="83.642578" xlink:href="#FranklinGothic-Book-50"/>
      </g>
     </g>
    </g>
    <g id="ytick_5">
     <g id="line2d_16">
      <path clip-path="url(#p2120518dde)" d="M 144 370.574823 
L 1036.8 370.574823 
" style="fill:none;stroke:#d3d3d3;stroke-linecap:round;stroke-opacity:0.5;"/>
     </g>
     <g id="text_15">
      <!-- 0.4 -->
      <g style="fill:#696969;" transform="translate(101.775312 378.240292)scale(0.23 -0.23)">
       <use xlink:href="#FranklinGothic-Book-48"/>
       <use x="58.642578" xlink:href="#FranklinGothic-Book-46"/>
       <use x="83.642578" xlink:href="#FranklinGothic-Book-52"/>
      </g>
     </g>
    </g>
    <g id="ytick_6">
     <g id="line2d_17">
      <path clip-path="url(#p2120518dde)" d="M 144 320.726364 
L 1036.8 320.726364 
" style="fill:none;stroke:#d3d3d3;stroke-linecap:round;stroke-opacity:0.5;"/>
     </g>
     <g id="text_16">
      <!-- 0.6 -->
      <g style="fill:#696969;" transform="translate(101.775312 328.391833)scale(0.23 -0.23)">
       <use xlink:href="#FranklinGothic-Book-48"/>
       <use x="58.642578" xlink:href="#FranklinGothic-Book-46"/>
       <use x="83.642578" xlink:href="#FranklinGothic-Book-54"/>
      </g>
     </g>
    </g>
    <g id="ytick_7">
     <g id="line2d_18">
      <path clip-path="url(#p2120518dde)" d="M 144 270.877905 
L 1036.8 270.877905 
" style="fill:none;stroke:#d3d3d3;stroke-linecap:round;stroke-opacity:0.5;"/>
     </g>
     <g id="text_17">
      <!-- 0.8 -->
      <g style="fill:#696969;" transform="translate(101.775312 278.543374)scale(0.23 -0.23)">
       <use xlink:href="#FranklinGothic-Book-48"/>
       <use x="58.642578" xlink:href="#FranklinGothic-Book-46"/>
       <use x="83.642578" xlink:href="#FranklinGothic-Book-56"/>
      </g>
     </g>
    </g>
    <g id="ytick_8">
     <g id="line2d_19">
      <path clip-path="url(#p2120518dde)" d="M 144 221.029446 
L 1036.8 221.029446 
" style="fill:none;stroke:#d3d3d3;stroke-linecap:round;stroke-opacity:0.5;"/>
     </g>
     <g id="text_18">
      <!-- 1.0 -->
      <g style="fill:#696969;" transform="translate(101.919062 228.694915)scale(0.23 -0.23)">
       <use xlink:href="#FranklinGothic-Book-49"/>
       <use x="58.017578" xlink:href="#FranklinGothic-Book-46"/>
       <use x="83.017578" xlink:href="#FranklinGothic-Book-48"/>
      </g>
     </g>
    </g>
    <g id="ytick_9">
     <g id="line2d_20">
      <path clip-path="url(#p2120518dde)" d="M 144 171.180987 
L 1036.8 171.180987 
" style="fill:none;stroke:#d3d3d3;stroke-linecap:round;stroke-opacity:0.5;"/>
     </g>
     <g id="text_19">
      <!-- 1.2 -->
      <g style="fill:#696969;" transform="translate(101.919062 178.846456)scale(0.23 -0.23)">
       <use xlink:href="#FranklinGothic-Book-49"/>
       <use x="58.017578" xlink:href="#FranklinGothic-Book-46"/>
       <use x="83.017578" xlink:href="#FranklinGothic-Book-50"/>
      </g>
     </g>
    </g>
    <g id="ytick_10">
     <g id="line2d_21">
      <path clip-path="url(#p2120518dde)" d="M 144 121.332528 
L 1036.8 121.332528 
" style="fill:none;stroke:#d3d3d3;stroke-linecap:round;stroke-opacity:0.5;"/>
     </g>
     <g id="text_20">
      <!-- 1.4 -->
      <g style="fill:#696969;" transform="translate(101.919062 128.997996)scale(0.23 -0.23)">
       <use xlink:href="#FranklinGothic-Book-49"/>
       <use x="58.017578" xlink:href="#FranklinGothic-Book-46"/>
       <use x="83.017578" xlink:href="#FranklinGothic-Book-52"/>
      </g>
     </g>
    </g>
    <g id="text_21">
     <!-- $\!^\circ\!$C -->
     <g style="fill:#696969;" transform="translate(74.457031 338.855)rotate(-90)scale(0.23 -0.23)">
      <defs>
       <path d="M 31.296875 40.671875 
Q 27.390625 40.671875 24.703125 37.953125 
Q 22.015625 35.25 22.015625 31.34375 
Q 22.015625 27.484375 24.703125 24.828125 
Q 27.390625 22.171875 31.296875 22.171875 
Q 35.203125 22.171875 37.890625 24.828125 
Q 40.578125 27.484375 40.578125 31.34375 
Q 40.578125 35.203125 37.859375 37.9375 
Q 35.15625 40.671875 31.296875 40.671875 
z
M 31.296875 46.96875 
Q 34.421875 46.96875 37.296875 45.765625 
Q 40.1875 44.578125 42.28125 42.328125 
Q 44.53125 40.140625 45.65625 37.34375 
Q 46.78125 34.5625 46.78125 31.34375 
Q 46.78125 24.90625 42.265625 20.4375 
Q 37.75 15.96875 31.203125 15.96875 
Q 24.609375 15.96875 20.21875 20.359375 
Q 15.828125 24.75 15.828125 31.34375 
Q 15.828125 37.890625 20.3125 42.421875 
Q 24.8125 46.96875 31.296875 46.96875 
z
" id="DejaVuSans-8728"/>
       <path d="M 48.296875 22.40625 
L 55.90625 20.703125 
Q 50.4375 -1.3125 31.203125 -1.3125 
Q 18.5625 -1.3125 11.359375 8.890625 
Q 4.15625 19.09375 4.15625 33.984375 
Q 4.15625 49.359375 11.671875 58.6875 
Q 19.1875 68.015625 31.84375 68.015625 
Q 50.59375 68.015625 55.90625 46.578125 
L 48.046875 45.015625 
Q 43.75 60.9375 31.78125 60.9375 
Q 22.953125 60.9375 18.09375 53.53125 
Q 13.234375 46.140625 13.234375 32.765625 
Q 13.234375 20.515625 18.203125 13.109375 
Q 23.1875 5.71875 31.390625 5.71875 
Q 44.140625 5.71875 48.296875 22.40625 
z
" id="FranklinGothic-Book-67"/>
      </defs>
      <use transform="translate(-1.64095 39.121875)scale(0.7)" xlink:href="#DejaVuSans-8728"/>
      <use transform="translate(42.313804 0.840625)" xlink:href="#FranklinGothic-Book-67"/>
     </g>
    </g>
   </g>
   <g id="text_22">
    <!-- Compared to 1850-1900 average -->
    <g style="fill:#696969;" transform="translate(144 75.2652)scale(0.3 -0.3)">
     <defs>
      <path d="M 25.34375 -1.3125 
Q 15.1875 -1.3125 9.5 6.203125 
Q 3.8125 13.71875 3.8125 24.859375 
Q 3.8125 36.625 10.203125 43.65625 
Q 16.609375 50.6875 26.125 50.6875 
Q 36.328125 50.6875 42.203125 43.28125 
Q 48.09375 35.890625 48.09375 24.8125 
Q 48.09375 13.28125 41.75 5.984375 
Q 35.40625 -1.3125 25.34375 -1.3125 
z
M 25.921875 4.984375 
Q 31.78125 4.984375 35.734375 9.8125 
Q 39.703125 14.65625 39.703125 24.859375 
Q 39.703125 35.109375 35.546875 39.71875 
Q 31.390625 44.34375 25.828125 44.34375 
Q 20.125 44.34375 16.15625 39.671875 
Q 12.203125 35.015625 12.203125 24.90625 
Q 12.203125 14.203125 16.15625 9.59375 
Q 20.125 4.984375 25.921875 4.984375 
z
" id="FranklinGothic-Book-111"/>
      <path d="M 73.734375 0 
L 66.265625 0 
L 66.265625 30.671875 
Q 66.265625 35.40625 65.59375 37.765625 
Q 64.9375 40.140625 62.390625 42.109375 
Q 59.859375 44.09375 56.6875 44.09375 
Q 52.296875 44.09375 48.21875 40.0625 
Q 44.140625 36.03125 44.140625 27.78125 
L 44.140625 0 
L 36.71875 0 
L 36.71875 32.46875 
Q 36.71875 38.96875 33.609375 41.65625 
Q 30.515625 44.34375 27.09375 44.34375 
Q 22.21875 44.34375 18.59375 40.140625 
Q 14.984375 35.9375 14.984375 29.5 
L 14.984375 0 
L 7.671875 0 
L 7.671875 49.3125 
L 14.265625 49.3125 
L 14.265625 39.84375 
Q 19.78125 50.6875 29.4375 50.6875 
Q 34.765625 50.6875 38.46875 47.21875 
Q 42.1875 43.75 43.265625 38.875 
Q 48.34375 50.6875 58.84375 50.6875 
Q 63.875 50.6875 67.65625 47.796875 
Q 71.4375 44.921875 72.578125 41.1875 
Q 73.734375 37.453125 73.734375 30.671875 
z
" id="FranklinGothic-Book-109"/>
      <path d="M 15.328125 -16.65625 
L 7.671875 -16.65625 
L 7.671875 49.3125 
L 14.546875 49.3125 
L 14.546875 39.75 
Q 19.78125 50.6875 30.125 50.6875 
Q 38.875 50.6875 44.234375 43.375 
Q 49.609375 36.078125 49.609375 24.90625 
Q 49.609375 12.84375 44.09375 5.765625 
Q 38.578125 -1.3125 29.9375 -1.3125 
Q 20.65625 -1.3125 15.328125 7.515625 
z
M 15.328125 31.78125 
L 15.328125 17.921875 
Q 16.0625 12.3125 20.0625 8.640625 
Q 24.078125 4.984375 28.421875 4.984375 
Q 33.453125 4.984375 37.328125 9.375 
Q 41.21875 13.765625 41.21875 24.5625 
Q 41.21875 33.890625 37.703125 38.9375 
Q 34.1875 44 28.375 44 
Q 23.78125 44 20.140625 40.421875 
Q 16.5 36.859375 15.328125 31.78125 
z
" id="FranklinGothic-Book-112"/>
      <path d="M 46.1875 66.65625 
L 46.1875 0 
L 39.203125 0 
L 39.203125 8.453125 
Q 34.03125 -1.3125 23.640625 -1.3125 
Q 14.984375 -1.3125 9.421875 5.9375 
Q 3.859375 13.1875 3.859375 24.265625 
Q 3.859375 35.59375 9.375 43.140625 
Q 14.890625 50.6875 24.03125 50.6875 
Q 32.90625 50.6875 38.53125 42.578125 
L 38.53125 66.65625 
z
M 38.53125 30.28125 
Q 38.53125 36.765625 34.5625 40.671875 
Q 30.609375 44.578125 25.34375 44.578125 
Q 19.625 44.578125 15.9375 39.5 
Q 12.25 34.421875 12.25 25.25 
Q 12.25 15.328125 15.640625 10.15625 
Q 19.046875 4.984375 24.953125 4.984375 
Q 30.328125 4.984375 34.421875 9.46875 
Q 38.53125 13.96875 38.53125 20.015625 
z
" id="FranklinGothic-Book-100"/>
      <path id="FranklinGothic-Book-32"/>
      <path d="M 30.03125 5.28125 
L 30.03125 -0.78125 
Q 25.984375 -1.3125 23 -1.3125 
Q 8.6875 -1.3125 8.6875 13.625 
L 8.6875 43.3125 
L -0.046875 43.3125 
L -0.046875 49.3125 
L 8.6875 49.3125 
L 9.03125 61.71875 
L 16.15625 62.40625 
L 16.15625 49.3125 
L 27.203125 49.3125 
L 27.203125 43.3125 
L 16.15625 43.3125 
L 16.15625 12.359375 
Q 16.15625 4.734375 24.078125 4.734375 
Q 26.703125 4.734375 30.03125 5.28125 
z
" id="FranklinGothic-Book-116"/>
      <path d="M 48.875 66.65625 
L 48.1875 59.46875 
L 15.4375 59.46875 
L 14.015625 37.84375 
Q 21.4375 45.125 30.328125 45.125 
Q 39.703125 45.125 46.515625 38.625 
Q 53.328125 32.125 53.328125 22.015625 
Q 53.328125 11.765625 45.921875 5.21875 
Q 38.53125 -1.3125 27.828125 -1.3125 
Q 19.4375 -1.3125 12.890625 3.078125 
Q 6.34375 7.46875 4.296875 14.453125 
L 11.421875 16.890625 
Q 15.828125 5.28125 27.9375 5.28125 
Q 35.890625 5.28125 40.578125 9.984375 
Q 45.265625 14.703125 45.265625 22.015625 
Q 45.265625 29.6875 40.625 33.984375 
Q 35.984375 38.28125 29.5 38.28125 
Q 20.015625 38.28125 13.8125 29.203125 
L 7.234375 30.609375 
L 9.375 66.65625 
z
" id="FranklinGothic-Book-53"/>
      <path d="M 23.53125 27.984375 
L 23.53125 22.015625 
L 1.46875 22.015625 
L 1.46875 27.984375 
z
" id="FranklinGothic-Book-45"/>
      <path d="M 43.796875 49.3125 
L 26.765625 0 
L 18.796875 0 
L 1.171875 49.3125 
L 9.671875 49.3125 
L 23.390625 9.234375 
L 36.96875 49.3125 
z
" id="FranklinGothic-Book-118"/>
      <path d="M 47.953125 57.03125 
L 47.953125 50.921875 
Q 42.671875 50.921875 40.890625 49.703125 
Q 39.109375 48.484375 38.53125 45.3125 
Q 43.265625 39.84375 43.265625 33.40625 
Q 43.265625 26.65625 38.109375 21.828125 
Q 32.953125 17 24.265625 17 
Q 22.3125 17 20.90625 17.28125 
Q 18.21875 17.828125 17.53125 17.828125 
Q 16.21875 17.828125 14.359375 16.53125 
Q 12.5 15.234375 12.5 13.1875 
Q 12.5 10.25 15.1875 9.375 
Q 17.875 8.5 27.828125 8.25 
Q 36.28125 8.015625 40.3125 7.109375 
Q 44.34375 6.203125 47.125 3.09375 
Q 49.90625 0 49.90625 -4.5 
Q 49.90625 -18.609375 25.09375 -18.609375 
Q 13.328125 -18.609375 7.9375 -15.0625 
Q 2.546875 -11.53125 2.546875 -5.609375 
Q 2.546875 1.5625 10.0625 4.25 
Q 5.21875 7.421875 5.21875 12.203125 
Q 5.21875 17.921875 12.0625 20.953125 
Q 5.671875 26.125 5.671875 33.984375 
Q 5.671875 41.3125 11.140625 46 
Q 16.609375 50.6875 24.46875 50.6875 
Q 30.03125 50.6875 34.578125 48.578125 
Q 35.296875 53.421875 37.953125 55.265625 
Q 40.625 57.125 46.046875 57.125 
Q 46.578125 57.125 47.953125 57.03125 
z
M 24.515625 22.859375 
Q 29.390625 22.859375 32.46875 25.859375 
Q 35.546875 28.859375 35.546875 33.640625 
Q 35.546875 38.53125 32.34375 41.625 
Q 29.15625 44.734375 24.609375 44.734375 
Q 20.265625 44.734375 16.890625 41.828125 
Q 13.53125 38.921875 13.53125 33.546875 
Q 13.53125 28.765625 16.546875 25.8125 
Q 19.578125 22.859375 24.515625 22.859375 
z
M 15.328125 2 
Q 9.96875 -0.34375 9.96875 -4.78125 
Q 9.96875 -8.546875 14.375 -10.625 
Q 18.796875 -12.703125 25.640625 -12.703125 
Q 31.984375 -12.703125 37.25 -10.90625 
Q 42.53125 -9.125 42.53125 -4.890625 
Q 42.53125 -2.59375 40.96875 -1.125 
Q 39.40625 0.34375 36.6875 0.734375 
Q 33.984375 1.125 27.25 1.3125 
Q 19.1875 1.515625 15.328125 2 
z
" id="FranklinGothic-Book-103"/>
     </defs>
     <use xlink:href="#FranklinGothic-Book-67"/>
     <use x="57.910156" xlink:href="#FranklinGothic-Book-111"/>
     <use x="109.863281" xlink:href="#FranklinGothic-Book-109"/>
     <use x="190.384766" xlink:href="#FranklinGothic-Book-112"/>
     <use x="243.802734" xlink:href="#FranklinGothic-Book-97"/>
     <use x="296.683594" xlink:href="#FranklinGothic-Book-114"/>
     <use x="329.642578" xlink:href="#FranklinGothic-Book-101"/>
     <use x="381.693359" xlink:href="#FranklinGothic-Book-100"/>
     <use x="435.550781" xlink:href="#FranklinGothic-Book-32"/>
     <use x="460.550781" xlink:href="#FranklinGothic-Book-116"/>
     <use x="489.8125" xlink:href="#FranklinGothic-Book-111"/>
     <use x="541.765625" xlink:href="#FranklinGothic-Book-32"/>
     <use x="566.765625" xlink:href="#FranklinGothic-Book-49"/>
     <use x="624.783203" xlink:href="#FranklinGothic-Book-56"/>
     <use x="683.425781" xlink:href="#FranklinGothic-Book-53"/>
     <use x="742.068359" xlink:href="#FranklinGothic-Book-48"/>
     <use x="800.710938" xlink:href="#FranklinGothic-Book-45"/>
     <use x="825.710938" xlink:href="#FranklinGothic-Book-49"/>
     <use x="882.978516" xlink:href="#FranklinGothic-Book-57"/>
     <use x="941.621094" xlink:href="#FranklinGothic-Book-48"/>
     <use x="1000.263672" xlink:href="#FranklinGothic-Book-48"/>
     <use x="1058.90625" xlink:href="#FranklinGothic-Book-32"/>
     <use x="1083.90625" xlink:href="#FranklinGothic-Book-97"/>
     <use x="1134.537109" xlink:href="#FranklinGothic-Book-118"/>
     <use x="1178.056641" xlink:href="#FranklinGothic-Book-101"/>
     <use x="1230.107422" xlink:href="#FranklinGothic-Book-114"/>
     <use x="1263.066406" xlink:href="#FranklinGothic-Book-97"/>
     <use x="1315.947266" xlink:href="#FranklinGothic-Book-103"/>
     <use x="1365.068359" xlink:href="#FranklinGothic-Book-101"/>
    </g>
   </g>
   <g id="text_23">
    <!-- Global mean temperature -->
    <g style="fill:#696969;" transform="translate(144 42.76)scale(0.4 -0.4)">
     <defs>
      <path d="M 57.71875 33.59375 
L 57.71875 -0.875 
L 52.59375 -0.875 
L 50.296875 7.46875 
Q 44.140625 -1.3125 31.984375 -1.3125 
Q 18.796875 -1.3125 11.46875 8.59375 
Q 4.15625 18.5 4.15625 32.671875 
Q 4.15625 47.796875 11.90625 57.90625 
Q 19.671875 68.015625 33.015625 68.015625 
Q 51.421875 68.015625 57.03125 48.6875 
L 49.125 46.78125 
Q 47.40625 54.203125 42.71875 57.5625 
Q 38.03125 60.9375 32.46875 60.9375 
Q 22.609375 60.9375 17.921875 52.96875 
Q 13.234375 45.015625 13.234375 33.015625 
Q 13.234375 20.0625 18.484375 12.765625 
Q 23.734375 5.46875 32.765625 5.46875 
Q 39.796875 5.46875 44.5 10.125 
Q 49.21875 14.796875 49.21875 23 
Q 49.21875 24.515625 49.125 26.609375 
L 32.625 26.609375 
L 32.625 33.59375 
z
" id="FranklinGothic-Book-71"/>
      <path d="M 15.328125 0 
L 7.671875 0 
L 7.671875 66.65625 
L 15.328125 66.65625 
z
" id="FranklinGothic-Book-108"/>
      <path d="M 11.375 0 
L 7.671875 0 
L 7.671875 66.65625 
L 15.328125 66.65625 
L 15.328125 41.109375 
Q 20.609375 50.6875 29.890625 50.6875 
Q 38.375 50.6875 44.109375 44 
Q 49.859375 37.3125 49.859375 24.5625 
Q 49.859375 13.578125 44.21875 6.125 
Q 38.578125 -1.3125 29.546875 -1.3125 
Q 19.484375 -1.3125 14.109375 8.15625 
z
M 15.328125 19.34375 
Q 15.875 11.765625 20 8.34375 
Q 24.125 4.9375 28.71875 4.9375 
Q 34.578125 4.9375 38.15625 10.015625 
Q 41.75 15.09375 41.75 23.921875 
Q 41.75 33.453125 38.28125 38.890625 
Q 34.8125 44.34375 28.65625 44.34375 
Q 23.828125 44.34375 19.9375 40.453125 
Q 16.0625 36.578125 15.328125 30.421875 
z
" id="FranklinGothic-Book-98"/>
      <path d="M 46.53125 0 
L 39.359375 0 
L 39.359375 31.6875 
Q 39.359375 38.53125 36.375 41.3125 
Q 33.40625 44.09375 29.15625 44.09375 
Q 23.296875 44.09375 19.3125 39.40625 
Q 15.328125 34.71875 15.328125 27.046875 
L 15.328125 0 
L 7.671875 0 
L 7.671875 49.3125 
L 14.796875 49.3125 
L 14.796875 40.234375 
Q 20.796875 50.6875 30.375 50.6875 
Q 35.890625 50.6875 39.765625 47.828125 
Q 43.65625 44.96875 45.09375 41.40625 
Q 46.53125 37.84375 46.53125 28.515625 
z
" id="FranklinGothic-Book-110"/>
      <path d="M 46.484375 0 
L 39.59375 0 
L 39.59375 9.421875 
Q 34.328125 -1.3125 23.875 -1.3125 
Q 16.3125 -1.3125 11.984375 3.65625 
Q 7.671875 8.640625 7.671875 17.828125 
L 7.671875 49.3125 
L 15.328125 49.3125 
L 15.328125 17.828125 
Q 15.328125 10.5 18.375 7.734375 
Q 21.4375 4.984375 25.09375 4.984375 
Q 28.8125 4.984375 31.8125 7.078125 
Q 34.8125 9.1875 36.8125 13.0625 
Q 38.8125 16.9375 38.8125 21.53125 
L 38.8125 49.3125 
L 46.484375 49.3125 
z
" id="FranklinGothic-Book-117"/>
     </defs>
     <use xlink:href="#FranklinGothic-Book-71"/>
     <use x="64.697266" xlink:href="#FranklinGothic-Book-108"/>
     <use x="87.695312" xlink:href="#FranklinGothic-Book-111"/>
     <use x="139.648438" xlink:href="#FranklinGothic-Book-98"/>
     <use x="193.359375" xlink:href="#FranklinGothic-Book-97"/>
     <use x="246.240234" xlink:href="#FranklinGothic-Book-108"/>
     <use x="269.238281" xlink:href="#FranklinGothic-Book-32"/>
     <use x="294.238281" xlink:href="#FranklinGothic-Book-109"/>
     <use x="375.634766" xlink:href="#FranklinGothic-Book-101"/>
     <use x="427.685547" xlink:href="#FranklinGothic-Book-97"/>
     <use x="480.566406" xlink:href="#FranklinGothic-Book-110"/>
     <use x="534.765625" xlink:href="#FranklinGothic-Book-32"/>
     <use x="559.765625" xlink:href="#FranklinGothic-Book-116"/>
     <use x="588.777344" xlink:href="#FranklinGothic-Book-101"/>
     <use x="640.828125" xlink:href="#FranklinGothic-Book-109"/>
     <use x="721.349609" xlink:href="#FranklinGothic-Book-112"/>
     <use x="774.767578" xlink:href="#FranklinGothic-Book-101"/>
     <use x="826.818359" xlink:href="#FranklinGothic-Book-114"/>
     <use x="859.777344" xlink:href="#FranklinGothic-Book-97"/>
     <use x="912.658203" xlink:href="#FranklinGothic-Book-116"/>
     <use x="943.419922" xlink:href="#FranklinGothic-Book-117"/>
     <use x="997.570312" xlink:href="#FranklinGothic-Book-114"/>
     <use x="1030.529297" xlink:href="#FranklinGothic-Book-101"/>
    </g>
   </g>
   <g id="legend_1">
    <g id="line2d_22"/>
    <g id="text_24">
     <!-- HadCRUT5 (1850-2023) -->
     <g style="fill:#696969;" transform="translate(185.856 129.7184)scale(0.2 -0.2)">
      <defs>
       <path d="M 55.953125 0 
L 47.609375 0 
L 47.609375 31.734375 
L 16.703125 31.734375 
L 16.703125 0 
L 8.34375 0 
L 8.34375 66.65625 
L 16.703125 66.65625 
L 16.703125 39.0625 
L 47.609375 39.0625 
L 47.609375 66.65625 
L 55.953125 66.65625 
z
" id="FranklinGothic-Book-72"/>
       <path d="M 56.296875 0 
L 47.5625 0 
L 35.25 28.859375 
L 16.15625 28.859375 
L 16.15625 0 
L 8.34375 0 
L 8.34375 66.65625 
L 34.625 66.65625 
Q 45.3125 66.65625 50.453125 60.8125 
Q 55.609375 54.984375 55.609375 48.046875 
Q 55.609375 42.71875 52.734375 37.828125 
Q 49.859375 32.953125 43.21875 30.859375 
z
M 16.15625 35.640625 
L 33.59375 35.640625 
Q 40.484375 35.640625 43.875 39.28125 
Q 47.265625 42.921875 47.265625 48.1875 
Q 47.265625 53.46875 43.671875 56.390625 
Q 40.09375 59.328125 34.625 59.328125 
L 16.15625 59.328125 
z
" id="FranklinGothic-Book-82"/>
       <path d="M 46.34375 66.65625 
L 53.265625 66.65625 
L 53.265625 23.140625 
Q 53.265625 10.0625 46.84375 4.375 
Q 40.4375 -1.3125 30.03125 -1.3125 
Q 18.453125 -1.3125 12.890625 4.546875 
Q 7.328125 10.40625 7.328125 23.140625 
L 7.328125 66.65625 
L 15.671875 66.65625 
L 15.671875 23.140625 
Q 15.671875 15.375 17.46875 12.203125 
Q 19.28125 9.03125 22.9375 7.515625 
Q 26.609375 6 30.609375 6 
Q 38.328125 6 42.328125 10.046875 
Q 46.34375 14.109375 46.34375 23.140625 
z
" id="FranklinGothic-Book-85"/>
       <path d="M 28.421875 0 
L 20.125 0 
L 20.125 59.328125 
L 1.03125 59.328125 
L 1.03125 66.65625 
L 47.5625 66.65625 
L 47.5625 59.328125 
L 28.421875 59.328125 
z
" id="FranklinGothic-Book-84"/>
       <path d="M 24.703125 -16.65625 
L 19.578125 -16.65625 
Q 5.21875 2.203125 5.21875 25.09375 
Q 5.21875 46.96875 19.578125 66.65625 
L 24.703125 66.65625 
Q 12.359375 48.25 12.359375 25 
Q 12.359375 2.828125 24.703125 -16.65625 
z
" id="FranklinGothic-Book-40"/>
       <path d="M 19.34375 31.34375 
L 19.34375 37.984375 
L 26.953125 37.984375 
Q 35.296875 37.984375 38.890625 41.40625 
Q 42.484375 44.828125 42.484375 49.703125 
Q 42.484375 55.078125 38.46875 58.21875 
Q 34.46875 61.375 28.421875 61.375 
Q 17.1875 61.375 12.890625 50.53125 
L 5.375 52.6875 
Q 11.8125 68.015625 29.203125 68.015625 
Q 38.96875 68.015625 44.96875 62.8125 
Q 50.984375 57.625 50.984375 50.296875 
Q 50.984375 44.625 47.359375 40.40625 
Q 43.75 36.1875 38.09375 35.109375 
Q 44.4375 34.1875 49 29.78125 
Q 53.5625 25.390625 53.5625 18.40625 
Q 53.5625 10.0625 46.765625 4.375 
Q 39.984375 -1.3125 28.171875 -1.3125 
Q 18.796875 -1.3125 12.125 3.125 
Q 5.46875 7.5625 2.9375 14.9375 
L 10.6875 17.53125 
Q 14.203125 5.46875 28.03125 5.46875 
Q 37.015625 5.46875 40.9375 9.296875 
Q 44.875 13.140625 44.875 18.453125 
Q 44.875 24.21875 40.15625 27.78125 
Q 35.453125 31.34375 26.953125 31.34375 
z
" id="FranklinGothic-Book-51"/>
       <path d="M 4.640625 66.65625 
L 9.71875 66.65625 
Q 24.125 47.796875 24.125 24.90625 
Q 24.125 3.03125 9.71875 -16.65625 
L 4.640625 -16.65625 
Q 17 1.765625 17 25 
Q 17 47.171875 4.640625 66.65625 
z
" id="FranklinGothic-Book-41"/>
      </defs>
      <use xlink:href="#FranklinGothic-Book-72"/>
      <use x="64.257812" xlink:href="#FranklinGothic-Book-97"/>
      <use x="117.138672" xlink:href="#FranklinGothic-Book-100"/>
      <use x="170.996094" xlink:href="#FranklinGothic-Book-67"/>
      <use x="228.90625" xlink:href="#FranklinGothic-Book-82"/>
      <use x="289.310547" xlink:href="#FranklinGothic-Book-85"/>
      <use x="349.90625" xlink:href="#FranklinGothic-Book-84"/>
      <use x="398.441406" xlink:href="#FranklinGothic-Book-53"/>
      <use x="457.083984" xlink:href="#FranklinGothic-Book-32"/>
      <use x="482.083984" xlink:href="#FranklinGothic-Book-40"/>
      <use x="511.429688" xlink:href="#FranklinGothic-Book-49"/>
      <use x="569.447266" xlink:href="#FranklinGothic-Book-56"/>
      <use x="628.089844" xlink:href="#FranklinGothic-Book-53"/>
      <use x="686.732422" xlink:href="#FranklinGothic-Book-48"/>
      <use x="745.375" xlink:href="#FranklinGothic-Book-45"/>
      <use x="770.375" xlink:href="#FranklinGothic-Book-50"/>
      <use x="829.017578" xlink:href="#FranklinGothic-Book-48"/>
      <use x="887.660156" xlink:href="#FranklinGothic-Book-50"/>
      <use x="946.302734" xlink:href="#FranklinGothic-Book-51"/>
      <use x="1004.945312" xlink:href="#FranklinGothic-Book-41"/>
     </g>
    </g>
    <g id="line2d_23"/>
    <g id="text_25">
     <!-- NOAAGlobalTemp (1850-2023) -->
     <g style="fill:#e69f00;" transform="translate(185.856 157.04965)scale(0.2 -0.2)">
      <defs>
       <path d="M 57.421875 0 
L 49.3125 0 
L 14.84375 58.109375 
L 14.9375 53.71875 
Q 15.09375 51.21875 15.09375 49.515625 
L 15.09375 0 
L 8.34375 0 
L 8.34375 66.65625 
L 18.796875 66.65625 
L 51.03125 12.3125 
L 50.921875 16.9375 
Q 50.828125 19.671875 50.828125 21.78125 
L 50.828125 66.65625 
L 57.421875 66.65625 
z
" id="FranklinGothic-Book-78"/>
       <path d="M 31.34375 -1.3125 
Q 18.5 -1.3125 11.328125 8.671875 
Q 4.15625 18.65625 4.15625 33.15625 
Q 4.15625 48.296875 11.671875 58.15625 
Q 19.1875 68.015625 31.59375 68.015625 
Q 43.953125 68.015625 51.421875 58.328125 
Q 58.890625 48.640625 58.890625 33.890625 
Q 58.890625 19.734375 51.640625 9.203125 
Q 44.390625 -1.3125 31.34375 -1.3125 
z
M 31.546875 5.46875 
Q 40.28125 5.46875 45.203125 13.421875 
Q 50.140625 21.390625 50.140625 33.9375 
Q 50.140625 46.828125 45.03125 54 
Q 39.9375 61.1875 31.5 61.1875 
Q 22.953125 61.1875 17.921875 53.421875 
Q 12.890625 45.65625 12.890625 33.109375 
Q 12.890625 20.84375 17.96875 13.15625 
Q 23.046875 5.46875 31.546875 5.46875 
z
" id="FranklinGothic-Book-79"/>
       <path d="M 53.21875 0 
L 44.671875 0 
L 37.9375 19.484375 
L 13.28125 19.484375 
L 7.328125 0 
L 0.34375 0 
L 21.96875 66.65625 
L 31.5 66.65625 
z
M 36.1875 25.734375 
L 25.921875 57.765625 
L 15.578125 25.734375 
z
" id="FranklinGothic-Book-65"/>
      </defs>
      <use xlink:href="#FranklinGothic-Book-78"/>
      <use x="65.722656" xlink:href="#FranklinGothic-Book-79"/>
      <use x="127.058594" xlink:href="#FranklinGothic-Book-65"/>
      <use x="180.623047" xlink:href="#FranklinGothic-Book-65"/>
      <use x="231.5625" xlink:href="#FranklinGothic-Book-71"/>
      <use x="296.259766" xlink:href="#FranklinGothic-Book-108"/>
      <use x="319.257812" xlink:href="#FranklinGothic-Book-111"/>
      <use x="371.210938" xlink:href="#FranklinGothic-Book-98"/>
      <use x="424.921875" xlink:href="#FranklinGothic-Book-97"/>
      <use x="477.802734" xlink:href="#FranklinGothic-Book-108"/>
      <use x="500.800781" xlink:href="#FranklinGothic-Book-84"/>
      <use x="542.835938" xlink:href="#FranklinGothic-Book-101"/>
      <use x="594.886719" xlink:href="#FranklinGothic-Book-109"/>
      <use x="675.408203" xlink:href="#FranklinGothic-Book-112"/>
      <use x="728.826172" xlink:href="#FranklinGothic-Book-32"/>
      <use x="753.826172" xlink:href="#FranklinGothic-Book-40"/>
      <use x="783.171875" xlink:href="#FranklinGothic-Book-49"/>
      <use x="841.189453" xlink:href="#FranklinGothic-Book-56"/>
      <use x="899.832031" xlink:href="#FranklinGothic-Book-53"/>
      <use x="958.474609" xlink:href="#FranklinGothic-Book-48"/>
      <use x="1017.117188" xlink:href="#FranklinGothic-Book-45"/>
      <use x="1042.117188" xlink:href="#FranklinGothic-Book-50"/>
      <use x="1100.759766" xlink:href="#FranklinGothic-Book-48"/>
      <use x="1159.402344" xlink:href="#FranklinGothic-Book-50"/>
      <use x="1218.044922" xlink:href="#FranklinGothic-Book-51"/>
      <use x="1276.6875" xlink:href="#FranklinGothic-Book-41"/>
     </g>
    </g>
    <g id="line2d_24"/>
    <g id="text_26">
     <!-- Kadow et al. (1850-2023) -->
     <g style="fill:#cc79a7;" transform="translate(185.856 184.3809)scale(0.2 -0.2)">
      <defs>
       <path d="M 61.03125 0 
L 51.90625 0 
L 31.984375 36.765625 
L 16.703125 17.78125 
L 16.703125 0 
L 8.34375 0 
L 8.34375 66.65625 
L 16.703125 66.65625 
L 16.703125 27.984375 
L 46.828125 66.65625 
L 55.859375 66.65625 
L 37.796875 43.3125 
z
" id="FranklinGothic-Book-75"/>
       <path d="M 64.5 49.3125 
L 50.296875 0 
L 44.09375 0 
L 33.0625 36.625 
L 22.953125 0 
L 16.65625 0 
L 1.859375 49.3125 
L 9.578125 49.3125 
L 20.265625 12.546875 
L 30.515625 49.3125 
L 36.140625 49.3125 
L 47.21875 12.40625 
L 58.296875 49.3125 
z
" id="FranklinGothic-Book-119"/>
      </defs>
      <use xlink:href="#FranklinGothic-Book-75"/>
      <use x="62.216797" xlink:href="#FranklinGothic-Book-97"/>
      <use x="115.097656" xlink:href="#FranklinGothic-Book-100"/>
      <use x="168.955078" xlink:href="#FranklinGothic-Book-111"/>
      <use x="219.533203" xlink:href="#FranklinGothic-Book-119"/>
      <use x="285.939453" xlink:href="#FranklinGothic-Book-32"/>
      <use x="310.939453" xlink:href="#FranklinGothic-Book-101"/>
      <use x="362.490234" xlink:href="#FranklinGothic-Book-116"/>
      <use x="393.251953" xlink:href="#FranklinGothic-Book-32"/>
      <use x="418.251953" xlink:href="#FranklinGothic-Book-97"/>
      <use x="471.132812" xlink:href="#FranklinGothic-Book-108"/>
      <use x="494.130859" xlink:href="#FranklinGothic-Book-46"/>
      <use x="519.130859" xlink:href="#FranklinGothic-Book-32"/>
      <use x="544.130859" xlink:href="#FranklinGothic-Book-40"/>
      <use x="573.476562" xlink:href="#FranklinGothic-Book-49"/>
      <use x="631.494141" xlink:href="#FranklinGothic-Book-56"/>
      <use x="690.136719" xlink:href="#FranklinGothic-Book-53"/>
      <use x="748.779297" xlink:href="#FranklinGothic-Book-48"/>
      <use x="807.421875" xlink:href="#FranklinGothic-Book-45"/>
      <use x="832.421875" xlink:href="#FranklinGothic-Book-50"/>
      <use x="891.064453" xlink:href="#FranklinGothic-Book-48"/>
      <use x="949.707031" xlink:href="#FranklinGothic-Book-50"/>
      <use x="1008.349609" xlink:href="#FranklinGothic-Book-51"/>
      <use x="1066.992188" xlink:href="#FranklinGothic-Book-41"/>
     </g>
    </g>
    <g id="line2d_25"/>
    <g id="text_27">
     <!-- GISTEMP (1880-2023) -->
     <g style="fill:#56b4e9;" transform="translate(185.856 211.71215)scale(0.2 -0.2)">
      <defs>
       <path d="M 16.703125 0 
L 8.34375 0 
L 8.34375 66.65625 
L 16.703125 66.65625 
z
" id="FranklinGothic-Book-73"/>
       <path d="M 1.03125 17.71875 
L 8.546875 19.4375 
Q 13.09375 5.8125 28.21875 5.8125 
Q 36.140625 5.8125 40.140625 9.15625 
Q 44.140625 12.5 44.140625 18.109375 
Q 44.140625 22.359375 41.078125 24.953125 
Q 38.03125 27.546875 34.03125 28.515625 
L 20.703125 31.84375 
Q 15.53125 33.15625 12.234375 35.03125 
Q 8.9375 36.921875 6.640625 40.828125 
Q 4.34375 44.734375 4.34375 49.75 
Q 4.34375 58.109375 10.640625 63.0625 
Q 16.9375 68.015625 26.8125 68.015625 
Q 44.96875 68.015625 50.6875 51.5625 
L 43.109375 49.3125 
Q 41.796875 55.171875 36.90625 58.171875 
Q 32.03125 61.1875 26.515625 61.1875 
Q 21.046875 61.1875 16.765625 58.296875 
Q 12.5 55.421875 12.5 50.140625 
Q 12.5 42.78125 23.34375 40.1875 
L 35.796875 37.203125 
Q 52.875 33.109375 52.875 18.796875 
Q 52.875 10.15625 46.453125 4.421875 
Q 40.046875 -1.3125 28.375 -1.3125 
Q 7.671875 -1.3125 1.03125 17.71875 
z
" id="FranklinGothic-Book-83"/>
       <path d="M 51.46875 7.328125 
L 51.46875 0 
L 8.34375 0 
L 8.34375 66.65625 
L 50.53125 66.65625 
L 50.53125 59.328125 
L 16.703125 59.328125 
L 16.703125 38.140625 
L 43.5625 38.140625 
L 43.5625 31.34375 
L 16.703125 31.34375 
L 16.703125 7.328125 
z
" id="FranklinGothic-Book-69"/>
       <path d="M 72.703125 0 
L 64.59375 0 
L 64.59375 58.203125 
L 42.921875 0 
L 37.25 0 
L 15.4375 58.203125 
L 15.4375 0 
L 8.34375 0 
L 8.34375 66.65625 
L 20.75 66.65625 
L 40.828125 13.328125 
L 60.5 66.65625 
L 72.703125 66.65625 
z
" id="FranklinGothic-Book-77"/>
       <path d="M 16.703125 0 
L 8.34375 0 
L 8.34375 66.65625 
L 31.984375 66.65625 
Q 43.0625 66.65625 48.328125 60.625 
Q 53.609375 54.59375 53.609375 46.875 
Q 53.609375 38.28125 47.875 32.65625 
Q 42.140625 27.046875 32.859375 27.046875 
L 16.703125 27.046875 
z
M 16.703125 33.984375 
L 32.03125 33.984375 
Q 37.9375 33.984375 41.546875 37.515625 
Q 45.171875 41.0625 45.171875 46.875 
Q 45.171875 51.859375 41.9375 55.765625 
Q 38.71875 59.671875 32.625 59.671875 
L 16.703125 59.671875 
z
" id="FranklinGothic-Book-80"/>
      </defs>
      <use xlink:href="#FranklinGothic-Book-71"/>
      <use x="64.697266" xlink:href="#FranklinGothic-Book-73"/>
      <use x="89.697266" xlink:href="#FranklinGothic-Book-83"/>
      <use x="144.630859" xlink:href="#FranklinGothic-Book-84"/>
      <use x="193.166016" xlink:href="#FranklinGothic-Book-69"/>
      <use x="247.951172" xlink:href="#FranklinGothic-Book-77"/>
      <use x="328.957031" xlink:href="#FranklinGothic-Book-80"/>
      <use x="384.865234" xlink:href="#FranklinGothic-Book-32"/>
      <use x="409.865234" xlink:href="#FranklinGothic-Book-40"/>
      <use x="439.210938" xlink:href="#FranklinGothic-Book-49"/>
      <use x="497.228516" xlink:href="#FranklinGothic-Book-56"/>
      <use x="555.871094" xlink:href="#FranklinGothic-Book-56"/>
      <use x="614.513672" xlink:href="#FranklinGothic-Book-48"/>
      <use x="673.15625" xlink:href="#FranklinGothic-Book-45"/>
      <use x="698.15625" xlink:href="#FranklinGothic-Book-50"/>
      <use x="756.798828" xlink:href="#FranklinGothic-Book-48"/>
      <use x="815.441406" xlink:href="#FranklinGothic-Book-50"/>
      <use x="874.083984" xlink:href="#FranklinGothic-Book-51"/>
      <use x="932.726562" xlink:href="#FranklinGothic-Book-41"/>
     </g>
    </g>
    <g id="line2d_26"/>
    <g id="text_28">
     <!-- Berkeley Earth (1850-2023) -->
     <g style="fill:#009e73;" transform="translate(185.856 239.0434)scale(0.2 -0.2)">
      <defs>
       <path d="M 8.34375 0 
L 8.34375 66.65625 
L 34.71875 66.65625 
Q 44.671875 66.65625 49.484375 61.765625 
Q 54.296875 56.890625 54.296875 50.4375 
Q 54.296875 39.109375 42.484375 35.40625 
Q 49.515625 33.59375 52.921875 28.953125 
Q 56.34375 24.3125 56.34375 18.453125 
Q 56.34375 10.59375 51.046875 5.296875 
Q 45.75 0 34.71875 0 
z
M 16.40625 38.09375 
L 30.90625 38.09375 
Q 39.9375 38.09375 42.96875 41.53125 
Q 46 44.96875 46 49.609375 
Q 46 54.203125 42.75 57.03125 
Q 39.5 59.859375 33.0625 59.859375 
L 16.40625 59.859375 
z
M 16.40625 7.328125 
L 34.28125 7.328125 
Q 40.828125 7.328125 44.390625 10.5 
Q 47.953125 13.671875 47.953125 18.75 
Q 47.953125 22.3125 46.34375 25.359375 
Q 44.734375 28.421875 41.796875 30.078125 
Q 38.875 31.734375 33.0625 31.734375 
L 16.40625 31.734375 
z
" id="FranklinGothic-Book-66"/>
       <path d="M 48.390625 0 
L 40.4375 0 
L 26.03125 27.546875 
L 15.328125 15.234375 
L 15.328125 0 
L 7.671875 0 
L 7.671875 66.65625 
L 15.328125 66.65625 
L 15.328125 23.96875 
L 38.234375 49.3125 
L 46.4375 49.3125 
L 31 31.984375 
z
" id="FranklinGothic-Book-107"/>
       <path d="M 41.5 49.3125 
L 21.734375 -5.765625 
Q 17.4375 -17.671875 8.015625 -17.671875 
Q 5.03125 -17.671875 1.421875 -16.65625 
L 1.421875 -10.640625 
Q 4.390625 -11.328125 6.546875 -11.328125 
Q 10.203125 -11.328125 12.671875 -9.21875 
Q 15.140625 -7.125 17.578125 0.921875 
L 0.53125 49.3125 
L 8.34375 49.3125 
L 21.53125 12.25 
L 35.0625 49.3125 
z
" id="FranklinGothic-Book-121"/>
       <path d="M 46.34375 0 
L 38.671875 0 
L 38.671875 29.9375 
Q 38.671875 35.203125 38.015625 37.84375 
Q 37.359375 40.484375 34.890625 42.40625 
Q 32.421875 44.34375 29.203125 44.34375 
Q 23.296875 44.34375 19.3125 39.5 
Q 15.328125 34.671875 15.328125 26.5625 
L 15.328125 0 
L 7.671875 0 
L 7.671875 66.65625 
L 15.328125 66.65625 
L 15.328125 40.234375 
Q 20.5625 50.6875 30.28125 50.6875 
Q 34.625 50.6875 38.015625 48.96875 
Q 41.40625 47.265625 43.203125 44.484375 
Q 45.015625 41.703125 45.671875 38.984375 
Q 46.34375 36.28125 46.34375 29.9375 
z
" id="FranklinGothic-Book-104"/>
      </defs>
      <use xlink:href="#FranklinGothic-Book-66"/>
      <use x="60.449219" xlink:href="#FranklinGothic-Book-101"/>
      <use x="112.5" xlink:href="#FranklinGothic-Book-114"/>
      <use x="144.958984" xlink:href="#FranklinGothic-Book-107"/>
      <use x="192.806641" xlink:href="#FranklinGothic-Book-101"/>
      <use x="244.857422" xlink:href="#FranklinGothic-Book-108"/>
      <use x="267.855469" xlink:href="#FranklinGothic-Book-101"/>
      <use x="318.28125" xlink:href="#FranklinGothic-Book-121"/>
      <use x="359.785156" xlink:href="#FranklinGothic-Book-32"/>
      <use x="384.785156" xlink:href="#FranklinGothic-Book-69"/>
      <use x="439.570312" xlink:href="#FranklinGothic-Book-97"/>
      <use x="492.451172" xlink:href="#FranklinGothic-Book-114"/>
      <use x="528.785156" xlink:href="#FranklinGothic-Book-116"/>
      <use x="559.546875" xlink:href="#FranklinGothic-Book-104"/>
      <use x="613.550781" xlink:href="#FranklinGothic-Book-32"/>
      <use x="638.550781" xlink:href="#FranklinGothic-Book-40"/>
      <use x="667.896484" xlink:href="#FranklinGothic-Book-49"/>
      <use x="725.914062" xlink:href="#FranklinGothic-Book-56"/>
      <use x="784.556641" xlink:href="#FranklinGothic-Book-53"/>
      <use x="843.199219" xlink:href="#FranklinGothic-Book-48"/>
      <use x="901.841797" xlink:href="#FranklinGothic-Book-45"/>
      <use x="926.841797" xlink:href="#FranklinGothic-Book-50"/>
      <use x="985.484375" xlink:href="#FranklinGothic-Book-48"/>
      <use x="1044.126953" xlink:href="#FranklinGothic-Book-50"/>
      <use x="1102.769531" xlink:href="#FranklinGothic-Book-51"/>
      <use x="1161.412109" xlink:href="#FranklinGothic-Book-41"/>
     </g>
    </g>
    <g id="line2d_27"/>
    <g id="text_29">
     <!-- JRA-55 (1958-2023) -->
     <g style="fill:#d55e00;" transform="translate(185.856 266.577775)scale(0.2 -0.2)">
      <defs>
       <path d="M 29.6875 66.65625 
L 29.6875 20.359375 
Q 29.6875 8.25 24.21875 3.46875 
Q 18.75 -1.3125 9.71875 -1.3125 
Q 4.890625 -1.3125 0 0 
L 0 6.84375 
Q 4.78125 5.859375 8.6875 5.859375 
Q 14.265625 5.859375 16.890625 7.515625 
Q 19.53125 9.1875 20.4375 11.8125 
Q 21.34375 14.453125 21.34375 20.359375 
L 21.34375 66.65625 
z
" id="FranklinGothic-Book-74"/>
      </defs>
      <use xlink:href="#FranklinGothic-Book-74"/>
      <use x="37.353516" xlink:href="#FranklinGothic-Book-82"/>
      <use x="98.632812" xlink:href="#FranklinGothic-Book-65"/>
      <use x="153.947266" xlink:href="#FranklinGothic-Book-45"/>
      <use x="178.947266" xlink:href="#FranklinGothic-Book-53"/>
      <use x="237.589844" xlink:href="#FranklinGothic-Book-53"/>
      <use x="296.232422" xlink:href="#FranklinGothic-Book-32"/>
      <use x="321.232422" xlink:href="#FranklinGothic-Book-40"/>
      <use x="350.578125" xlink:href="#FranklinGothic-Book-49"/>
      <use x="407.845703" xlink:href="#FranklinGothic-Book-57"/>
      <use x="466.488281" xlink:href="#FranklinGothic-Book-53"/>
      <use x="525.130859" xlink:href="#FranklinGothic-Book-56"/>
      <use x="583.773438" xlink:href="#FranklinGothic-Book-45"/>
      <use x="608.773438" xlink:href="#FranklinGothic-Book-50"/>
      <use x="667.416016" xlink:href="#FranklinGothic-Book-48"/>
      <use x="726.058594" xlink:href="#FranklinGothic-Book-50"/>
      <use x="784.701172" xlink:href="#FranklinGothic-Book-51"/>
      <use x="843.34375" xlink:href="#FranklinGothic-Book-41"/>
     </g>
    </g>
    <g id="line2d_28"/>
    <g id="text_30">
     <!-- ERA5 (1940-2023) -->
     <g style="fill:#0072b2;" transform="translate(185.856 293.909025)scale(0.2 -0.2)">
      <use xlink:href="#FranklinGothic-Book-69"/>
      <use x="54.785156" xlink:href="#FranklinGothic-Book-82"/>
      <use x="116.064453" xlink:href="#FranklinGothic-Book-65"/>
      <use x="169.628906" xlink:href="#FranklinGothic-Book-53"/>
      <use x="228.271484" xlink:href="#FranklinGothic-Book-32"/>
      <use x="253.271484" xlink:href="#FranklinGothic-Book-40"/>
      <use x="282.617188" xlink:href="#FranklinGothic-Book-49"/>
      <use x="339.884766" xlink:href="#FranklinGothic-Book-57"/>
      <use x="398.027344" xlink:href="#FranklinGothic-Book-52"/>
      <use x="456.669922" xlink:href="#FranklinGothic-Book-48"/>
      <use x="515.3125" xlink:href="#FranklinGothic-Book-45"/>
      <use x="540.3125" xlink:href="#FranklinGothic-Book-50"/>
      <use x="598.955078" xlink:href="#FranklinGothic-Book-48"/>
      <use x="657.597656" xlink:href="#FranklinGothic-Book-50"/>
      <use x="716.240234" xlink:href="#FranklinGothic-Book-51"/>
      <use x="774.882812" xlink:href="#FranklinGothic-Book-41"/>
     </g>
    </g>
   </g>
   <g id="line2d_29">
    <path clip-path="url(#p2120518dde)" d="M 184.581818 523.487049 
L 189.273358 495.177278 
L 193.964898 489.050071 
L 198.656437 490.0055 
L 203.347977 486.973052 
L 208.039517 485.228356 
L 212.731056 515.158202 
L 217.422596 549.67826 
L 222.114136 498.355117 
L 226.805675 470.190738 
L 231.497215 508.4702 
L 236.188755 526.644118 
L 240.880294 554.04 
L 245.571834 495.281129 
L 250.263374 503.963069 
L 254.954913 479.350392 
L 259.646453 468.716054 
L 264.337993 458.51789 
L 269.029532 469.879185 
L 273.721072 471.727732 
L 278.412612 488.634668 
L 283.104151 496.423489 
L 292.487231 479.890417 
L 297.17877 491.625575 
L 301.87031 500.577528 
L 306.56185 501.96913 
L 311.253389 405.450051 
L 315.944929 384.430618 
L 320.636469 472.246987 
L 325.328008 489.278544 
L 330.019548 460.054884 
L 334.711088 476.795659 
L 339.402627 489.153922 
L 344.094167 532.27284 
L 348.785707 522.863943 
L 358.168786 538.628518 
L 362.860326 487.949251 
L 367.551865 457.084747 
L 372.243405 528.617286 
L 376.934945 499.663639 
L 381.626484 514.867419 
L 386.318024 509.051766 
L 391.009564 506.559343 
L 395.701104 490.358593 
L 400.392643 467.698315 
L 405.084183 463.419655 
L 409.775723 515.615146 
L 414.467262 473.306266 
L 419.158802 446.242707 
L 423.850342 466.161321 
L 428.541881 505.23005 
L 433.233421 529.925808 
L 437.924961 544.361091 
L 442.6165 498.936682 
L 447.30804 477.460305 
L 451.99958 520.35075 
L 456.691119 526.021012 
L 461.382659 541.702506 
L 466.074199 531.2551 
L 470.765738 534.225238 
L 475.457278 517.276761 
L 480.148818 510.173356 
L 484.840357 463.523506 
L 489.531897 449.85672 
L 494.223437 508.927145 
L 498.914976 545.648843 
L 503.606516 504.710796 
L 508.298056 489.174693 
L 517.681135 460.885692 
L 522.372675 481.822045 
L 527.064214 473.264726 
L 531.755754 475.694838 
L 536.447294 465.143581 
L 541.138833 431.682803 
L 545.830373 460.844152 
L 550.521913 457.998635 
L 555.213452 504.440783 
L 559.904992 447.509689 
L 564.596532 431.495871 
L 569.288071 441.756346 
L 573.979611 489.693947 
L 578.671151 452.452994 
L 583.36269 467.615234 
L 588.05423 450.459056 
L 592.74577 411.244935 
L 597.43731 409.707941 
L 602.128849 414.962799 
L 606.820389 394.254918 
L 611.511929 405.470822 
L 616.203468 403.08225 
L 620.895008 389.623166 
L 625.586548 363.764278 
L 630.278087 395.376509 
L 634.969627 431.807424 
L 639.661167 414.422774 
L 644.352706 437.83078 
L 649.044246 440.240122 
L 653.735786 456.27471 
L 658.427325 411.348786 
L 663.118865 393.3618 
L 667.810405 374.83479 
L 672.501944 423.74859 
L 677.193484 436.293786 
L 681.885024 456.648573 
L 686.576563 399.675938 
L 691.268103 398.533578 
L 695.959643 402.895318 
L 700.651182 417.122899 
L 705.342722 397.931242 
L 710.034262 412.574227 
L 714.725801 401.98143 
L 719.417341 468.425271 
L 724.108881 438.806979 
L 728.80042 423.187795 
L 733.49196 415.606675 
L 738.1835 434.777562 
L 742.875039 397.453528 
L 747.566579 409.417158 
L 752.258119 439.180842 
L 756.949658 411.80573 
L 761.641198 377.659536 
L 766.332738 428.691896 
L 771.024277 412.324985 
L 775.715817 436.584568 
L 780.407357 354.521542 
L 785.098896 385.676829 
L 789.790436 366.879806 
L 794.481976 336.223004 
L 799.173516 323.719349 
L 803.865055 377.389523 
L 808.556595 332.422059 
L 813.248135 374.253224 
L 817.939674 375.167113 
L 822.631214 361.438016 
L 827.322754 326.917958 
L 832.014293 315.743595 
L 836.705833 344.261068 
L 841.397373 297.507367 
L 846.088912 300.352884 
L 850.780452 352.257592 
L 855.471992 338.237712 
L 860.163531 325.775598 
L 864.855071 286.499166 
L 869.546611 313.915818 
L 874.23815 279.063437 
L 878.92969 241.614783 
L 883.62123 302.076809 
L 888.312769 301.910648 
L 893.004309 268.49141 
L 897.695849 245.332647 
L 902.387388 249.673617 
L 907.078928 271.503088 
L 911.770468 230.336569 
L 916.462007 243.006385 
L 921.153547 239.433912 
L 925.845087 271.523858 
L 930.536626 238.08385 
L 935.228166 220.927672 
L 939.919706 247.949691 
L 949.302785 238.270782 
L 953.994325 219.972243 
L 958.685864 183.915191 
L 963.377404 149.810537 
L 968.068944 173.98704 
L 972.760483 192.784063 
L 977.452023 158.887111 
L 982.143563 152.26142 
L 986.835102 190.893975 
L 991.526642 180.259637 
L 996.218182 108.000142 
L 996.218182 108.000142 
" style="fill:none;stroke:#009e73;stroke-linecap:round;stroke-width:3;"/>
   </g>
   <g id="line2d_30">
    <path clip-path="url(#p2120518dde)" d="M 325.328008 445.479056 
L 330.019548 425.124269 
L 334.711088 430.732221 
L 339.402627 447.140672 
L 344.094167 474.349622 
L 348.785707 486.811737 
L 353.477246 481.826891 
L 358.168786 494.289006 
L 362.860326 446.517566 
L 367.551865 429.901413 
L 372.243405 491.588881 
L 376.934945 459.187383 
L 381.626484 471.026392 
L 386.318024 480.788382 
L 391.009564 478.503661 
L 395.701104 459.187383 
L 400.392643 430.524519 
L 405.084183 429.278307 
L 409.775723 471.234094 
L 414.467262 446.102162 
L 419.158802 422.216442 
L 423.850342 440.701912 
L 428.541881 472.272603 
L 433.233421 495.119814 
L 437.924961 520.251745 
L 442.6165 468.326267 
L 447.30804 458.356575 
L 451.99958 499.481554 
L 456.691119 509.451246 
L 461.382659 523.782678 
L 466.074199 512.151371 
L 470.765738 514.22839 
L 475.457278 494.70441 
L 480.148818 488.265651 
L 484.840357 439.871105 
L 489.531897 437.378682 
L 494.223437 492.627391 
L 498.914976 517.343918 
L 503.606516 476.426642 
L 508.298056 471.649498 
L 512.989595 470.403286 
L 517.681135 449.009989 
L 522.372675 472.895709 
L 527.064214 468.118565 
L 531.755754 469.987882 
L 536.447294 457.318066 
L 541.138833 429.486009 
L 545.830373 456.69496 
L 550.521913 453.164027 
L 555.213452 492.627391 
L 559.904992 441.948124 
L 564.596532 425.539673 
L 569.288071 441.948124 
L 573.979611 473.726517 
L 578.671151 433.016942 
L 583.36269 451.917816 
L 588.05423 438.624893 
L 592.74577 409.546626 
L 597.43731 402.900164 
L 602.128849 406.846501 
L 606.820389 371.952579 
L 611.511929 356.998042 
L 616.203468 386.076309 
L 620.895008 380.468358 
L 625.586548 351.805494 
L 630.278087 379.845252 
L 634.969627 420.762529 
L 639.661167 409.131222 
L 644.352706 429.693711 
L 649.044246 430.732221 
L 653.735786 446.517566 
L 658.427325 420.554827 
L 663.118865 400.823145 
L 667.810405 383.583886 
L 672.501944 436.755576 
L 677.193484 438.624893 
L 681.885024 450.671604 
L 686.576563 391.476559 
L 691.268103 387.945627 
L 695.959643 395.838299 
L 700.651182 409.754327 
L 705.342722 388.984136 
L 710.034262 395.838299 
L 714.725801 389.607242 
L 719.417341 452.956325 
L 724.108881 430.109115 
L 728.80042 417.854702 
L 733.49196 409.338924 
L 738.1835 424.293461 
L 742.875039 390.43805 
L 747.566579 397.084511 
L 752.258119 423.878058 
L 756.949658 401.446251 
L 761.641198 363.852205 
L 766.332738 421.385635 
L 771.024277 407.054203 
L 775.715817 428.239798 
L 780.407357 359.490465 
L 785.098896 386.491713 
L 789.790436 362.398291 
L 794.481976 339.343379 
L 799.173516 323.14263 
L 803.865055 369.044753 
L 808.556595 326.050457 
L 813.248135 364.47531 
L 817.939674 374.445002 
L 822.631214 358.659657 
L 827.322754 323.558034 
L 832.014293 306.526477 
L 836.705833 335.604745 
L 841.397373 292.402747 
L 846.088912 302.58014 
L 850.780452 348.066859 
L 855.471992 345.782138 
L 860.163531 325.219649 
L 864.855071 292.610449 
L 869.546611 320.234803 
L 874.23815 288.041006 
L 878.92969 252.108576 
L 883.62123 308.603496 
L 888.312769 305.280265 
L 893.004309 269.97094 
L 897.695849 247.12373 
L 902.387388 249.200749 
L 907.078928 270.594046 
L 911.770468 235.284721 
L 916.462007 244.631307 
L 921.153547 237.777144 
L 925.845087 268.517027 
L 930.536626 240.269566 
L 935.228166 223.030308 
L 939.919706 251.48547 
L 944.611245 241.931182 
L 949.302785 234.661615 
L 953.994325 217.630058 
L 958.685864 179.82831 
L 963.377404 150.126936 
L 968.068944 173.181849 
L 972.760483 191.875021 
L 977.452023 159.888926 
L 982.143563 150.750042 
L 986.835102 192.082723 
L 991.526642 181.282223 
L 996.218182 111.702082 
L 996.218182 111.702082 
" style="fill:none;stroke:#56b4e9;stroke-linecap:round;stroke-width:3;"/>
   </g>
   <g id="line2d_31">
    <path clip-path="url(#p2120518dde)" d="M 184.581818 501.780538 
L 189.273358 476.943283 
L 193.964898 456.448642 
L 198.656437 474.206592 
L 203.347977 466.671527 
L 208.039517 464.927942 
L 212.731056 493.977121 
L 217.422596 516.979296 
L 222.114136 488.711103 
L 226.805675 471.023462 
L 231.497215 495.071516 
L 236.188755 498.358324 
L 240.880294 502.86187 
L 245.571834 480.941622 
L 250.263374 483.619174 
L 254.954913 473.514956 
L 259.646453 475.316883 
L 264.337993 461.244862 
L 269.029532 455.378082 
L 273.721072 461.953373 
L 278.412612 473.476707 
L 283.104151 481.658953 
L 287.795691 469.953296 
L 292.487231 476.613161 
L 297.17877 481.774042 
L 301.87031 467.887014 
L 306.56185 488.956246 
L 311.253389 413.726181 
L 315.944929 398.549045 
L 320.636469 451.617647 
L 325.328008 463.661936 
L 330.019548 441.741473 
L 334.711088 467.265898 
L 339.402627 476.638012 
L 344.094167 511.250747 
L 348.785707 518.960028 
L 353.477246 519.192947 
L 358.168786 533.821823 
L 362.860326 487.460732 
L 367.551865 449.097433 
L 372.243405 517.049101 
L 376.934945 491.512558 
L 381.626484 516.512998 
L 386.318024 508.070515 
L 391.009564 517.770031 
L 395.701104 504.901144 
L 400.392643 460.08701 
L 405.084183 462.895968 
L 409.775723 515.258799 
L 414.467262 478.26843 
L 419.158802 454.580493 
L 423.850342 462.243143 
L 428.541881 500.608079 
L 433.233421 523.522251 
L 437.924961 537.389425 
L 442.6165 489.69484 
L 447.30804 466.691261 
L 451.99958 508.826357 
L 456.691119 517.207478 
L 461.382659 530.560067 
L 466.074199 522.215686 
L 470.765738 529.684996 
L 475.457278 513.430853 
L 480.148818 507.206372 
L 484.840357 455.464338 
L 489.531897 439.11425 
L 494.223437 494.821329 
L 498.914976 527.285306 
L 503.606516 489.540364 
L 508.298056 473.976138 
L 512.989595 453.013333 
L 517.681135 457.580115 
L 522.372675 475.555309 
L 527.064214 466.543872 
L 531.755754 465.872216 
L 536.447294 452.346204 
L 541.138833 423.515978 
L 545.830373 449.01915 
L 550.521913 446.785459 
L 555.213452 487.204275 
L 559.904992 433.782042 
L 564.596532 418.48965 
L 569.288071 427.94023 
L 573.979611 473.216818 
L 578.671151 434.00467 
L 583.36269 446.158265 
L 588.05423 432.98202 
L 592.74577 392.480076 
L 597.43731 395.64211 
L 602.128849 398.171019 
L 606.820389 382.679751 
L 611.511929 394.259375 
L 616.203468 390.693133 
L 620.895008 382.401751 
L 625.586548 352.942539 
L 630.278087 395.54719 
L 634.969627 421.411099 
L 639.661167 408.422038 
L 644.352706 422.223779 
L 649.044246 426.69623 
L 653.735786 447.424875 
L 658.427325 405.661986 
L 663.118865 386.821152 
L 667.810405 372.264964 
L 672.501944 420.172375 
L 677.193484 431.964549 
L 681.885024 447.825878 
L 686.576563 393.883025 
L 691.268103 393.489664 
L 695.959643 401.245395 
L 700.651182 410.304018 
L 705.342722 390.701493 
L 710.034262 406.224563 
L 714.725801 395.840779 
L 719.417341 458.314449 
L 724.108881 431.572204 
L 728.80042 416.324886 
L 733.49196 407.953957 
L 738.1835 423.838529 
L 742.875039 393.467109 
L 747.566579 398.76977 
L 752.258119 431.949707 
L 756.949658 405.904342 
L 761.641198 369.665093 
L 766.332738 425.698939 
L 771.024277 412.672819 
L 775.715817 440.115629 
L 780.407357 357.955353 
L 785.098896 384.034684 
L 789.790436 365.334704 
L 794.481976 336.039538 
L 799.173516 324.352807 
L 803.865055 373.563209 
L 808.556595 328.282473 
L 813.248135 371.387884 
L 817.939674 370.32801 
L 822.631214 362.758329 
L 827.322754 328.23822 
L 832.014293 314.023321 
L 836.705833 343.904527 
L 841.397373 296.817594 
L 846.088912 300.90187 
L 850.780452 352.44724 
L 855.471992 337.487906 
L 860.163531 324.515042 
L 864.855071 288.985555 
L 869.546611 316.987006 
L 874.23815 279.891569 
L 878.92969 243.950234 
L 883.62123 304.288225 
L 888.312769 304.815155 
L 893.004309 265.925277 
L 897.695849 247.117254 
L 902.387388 249.822006 
L 907.078928 267.213326 
L 911.770468 234.636148 
L 916.462007 246.026607 
L 921.153547 238.585587 
L 925.845087 272.989379 
L 930.536626 237.916545 
L 935.228166 220.678422 
L 939.919706 250.627319 
L 944.611245 245.906721 
L 949.302785 238.380684 
L 953.994325 219.831502 
L 958.685864 186.603291 
L 963.377404 158.854861 
L 968.068944 184.310303 
L 972.760483 200.323713 
L 977.452023 168.06581 
L 982.143563 160.764832 
L 986.835102 199.481785 
L 991.526642 187.230626 
L 996.218182 123.694458 
L 996.218182 123.694458 
" style="fill:none;stroke:#cc79a7;stroke-linecap:round;stroke-width:3;"/>
   </g>
   <g id="line2d_32">
    <path clip-path="url(#p2120518dde)" d="M 184.581818 452.205122 
L 189.273358 431.92411 
L 193.964898 434.488958 
L 198.656437 438.808494 
L 203.347977 437.120812 
L 208.039517 438.421171 
L 212.731056 471.693564 
L 217.422596 478.423043 
L 222.114136 462.531438 
L 226.805675 431.444277 
L 231.497215 467.446246 
L 236.188755 472.478095 
L 240.880294 484.66621 
L 245.571834 447.846102 
L 250.263374 456.459625 
L 254.954913 440.523322 
L 259.646453 434.032949 
L 264.337993 452.565754 
L 269.029532 442.699062 
L 273.721072 437.061222 
L 278.412612 450.257625 
L 283.104151 450.576676 
L 287.795691 451.976587 
L 292.487231 456.316394 
L 297.17877 460.902701 
L 301.87031 458.950885 
L 306.56185 463.316343 
L 311.253389 396.867807 
L 315.944929 394.976411 
L 320.636469 437.80816 
L 325.328008 451.666405 
L 330.019548 441.4682 
L 334.711088 440.967887 
L 339.402627 464.699077 
L 344.094167 486.670201 
L 348.785707 489.971311 
L 353.477246 472.889802 
L 358.168786 486.501318 
L 362.860326 451.666135 
L 367.551865 428.95391 
L 372.243405 478.266976 
L 376.934945 455.893554 
L 381.626484 472.631857 
L 386.318024 488.430848 
L 391.009564 466.911975 
L 395.701104 456.965816 
L 400.392643 424.448689 
L 405.084183 427.766104 
L 409.775723 466.184873 
L 414.467262 449.173567 
L 419.158802 429.879991 
L 423.850342 442.499917 
L 428.541881 466.786004 
L 433.233421 488.405426 
L 437.924961 517.126965 
L 442.6165 470.0258 
L 447.30804 460.990289 
L 451.99958 493.15912 
L 456.691119 509.274275 
L 461.382659 517.791196 
L 466.074199 508.339554 
L 470.765738 511.791373 
L 475.457278 491.749198 
L 480.148818 490.574581 
L 484.840357 445.26121 
L 489.531897 434.339849 
L 494.223437 487.394707 
L 498.914976 518.123914 
L 503.606516 480.651311 
L 508.298056 469.697112 
L 512.989595 472.435973 
L 517.681135 452.868937 
L 522.372675 471.633683 
L 527.064214 470.248727 
L 531.755754 465.87008 
L 536.447294 459.423511 
L 541.138833 431.09378 
L 545.830373 454.664707 
L 550.521913 451.393859 
L 555.213452 486.532827 
L 559.904992 437.531978 
L 564.596532 424.564192 
L 569.288071 439.676916 
L 573.979611 472.121866 
L 578.671151 435.710931 
L 583.36269 447.862054 
L 588.05423 438.984292 
L 592.74577 406.992922 
L 597.43731 405.517595 
L 602.128849 407.921703 
L 606.820389 371.275567 
L 611.511929 354.981871 
L 616.203468 387.84426 
L 620.895008 385.201149 
L 625.586548 351.430978 
L 630.278087 375.49123 
L 634.969627 419.596814 
L 639.661167 411.778624 
L 644.352706 425.218246 
L 649.044246 424.380605 
L 653.735786 440.562308 
L 658.427325 411.354787 
L 663.118865 396.164798 
L 667.810405 377.411621 
L 672.501944 426.789843 
L 677.193484 441.352551 
L 681.885024 451.66977 
L 686.576563 394.575214 
L 691.268103 388.185016 
L 695.959643 391.532173 
L 700.651182 402.693534 
L 705.342722 392.965317 
L 710.034262 396.136115 
L 714.725801 388.578258 
L 719.417341 446.394411 
L 724.108881 424.517273 
L 728.80042 414.34368 
L 733.49196 405.317702 
L 738.1835 423.551126 
L 742.875039 385.573704 
L 747.566579 395.527361 
L 752.258119 422.034466 
L 756.949658 402.851491 
L 761.641198 359.844484 
L 766.332738 421.580638 
L 771.024277 405.514064 
L 775.715817 417.134238 
L 780.407357 357.004472 
L 785.098896 380.652809 
L 789.790436 353.396025 
L 794.481976 336.425034 
L 799.173516 321.012015 
L 803.865055 361.776403 
L 808.556595 322.695688 
L 813.248135 360.41284 
L 817.939674 367.441763 
L 822.631214 355.485382 
L 827.322754 325.237088 
L 832.014293 305.501335 
L 836.705833 335.598588 
L 841.397373 297.636972 
L 846.088912 304.78927 
L 850.780452 350.745645 
L 855.471992 341.974684 
L 860.163531 328.436029 
L 864.855071 289.462822 
L 869.546611 319.713587 
L 874.23815 284.528821 
L 878.92969 251.959292 
L 883.62123 304.094071 
L 888.312769 301.922527 
L 893.004309 271.329074 
L 897.695849 253.680268 
L 902.387388 251.340008 
L 907.078928 273.165242 
L 911.770468 233.861456 
L 916.462007 244.223995 
L 921.153547 245.782735 
L 925.845087 272.934194 
L 930.536626 244.798644 
L 935.228166 227.296289 
L 939.919706 253.014418 
L 944.611245 244.727028 
L 949.302785 238.970175 
L 953.994325 218.563047 
L 958.685864 181.153107 
L 963.377404 152.08537 
L 968.068944 172.69291 
L 972.760483 194.487217 
L 977.452023 165.123151 
L 982.143563 156.94601 
L 986.835102 194.549735 
L 991.526642 183.012642 
L 996.218182 114.85582 
L 996.218182 114.85582 
" style="fill:none;stroke:#e69f00;stroke-linecap:round;stroke-width:3;"/>
   </g>
   <g id="line2d_33">
    <path clip-path="url(#p2120518dde)" d="M 184.581818 489.611995 
L 189.273358 443.66129 
L 193.964898 442.676599 
L 198.656437 452.884411 
L 203.347977 458.159974 
L 208.039517 459.504863 
L 212.731056 465.346344 
L 217.422596 501.954137 
L 222.114136 482.3975 
L 226.805675 455.603826 
L 231.497215 482.746314 
L 236.188755 492.453742 
L 240.880294 519.18658 
L 245.571834 471.300833 
L 250.263374 501.514235 
L 254.954913 468.369061 
L 259.646453 470.563928 
L 264.337993 474.478682 
L 269.029532 473.190857 
L 273.721072 464.408755 
L 278.412612 467.234056 
L 283.104151 477.362077 
L 287.795691 467.279684 
L 292.487231 470.566273 
L 297.17877 478.530632 
L 301.87031 479.122523 
L 306.56185 491.206778 
L 311.253389 410.701248 
L 315.944929 388.320874 
L 320.636469 461.179165 
L 325.328008 464.219358 
L 330.019548 443.386057 
L 334.711088 459.159247 
L 339.402627 471.856726 
L 344.094167 508.207635 
L 348.785707 502.924571 
L 353.477246 490.407631 
L 358.168786 509.819158 
L 362.860326 480.057914 
L 367.551865 447.785191 
L 372.243405 511.831143 
L 376.934945 485.525307 
L 381.626484 512.005705 
L 386.318024 508.780681 
L 391.009564 506.075081 
L 395.701104 497.348529 
L 400.392643 456.287273 
L 405.084183 450.253837 
L 409.775723 506.580593 
L 414.467262 474.089749 
L 419.158802 443.946448 
L 423.850342 458.630894 
L 428.541881 494.907186 
L 433.233421 518.418352 
L 437.924961 534.425679 
L 442.6165 487.13997 
L 447.30804 465.036055 
L 451.99958 511.137782 
L 456.691119 513.566252 
L 461.382659 519.016547 
L 466.074199 517.825751 
L 470.765738 519.861946 
L 475.457278 504.024989 
L 480.148818 501.899565 
L 484.840357 450.910945 
L 489.531897 433.273467 
L 494.223437 490.188184 
L 498.914976 520.794274 
L 503.606516 491.27013 
L 508.298056 466.576442 
L 512.989595 459.863352 
L 517.681135 445.429552 
L 522.372675 469.997201 
L 527.064214 464.680408 
L 531.755754 463.214821 
L 536.447294 455.822364 
L 541.138833 416.04654 
L 545.830373 442.605449 
L 550.521913 436.960661 
L 555.213452 483.314052 
L 559.904992 429.568036 
L 564.596532 411.271723 
L 569.288071 421.75586 
L 573.979611 465.842511 
L 578.671151 428.952766 
L 583.36269 436.859327 
L 588.05423 427.75244 
L 592.74577 390.285838 
L 597.43731 388.541589 
L 602.128849 395.669038 
L 606.820389 366.574231 
L 611.511929 375.997215 
L 616.203468 385.150197 
L 620.895008 383.900119 
L 625.586548 349.583555 
L 630.278087 374.76121 
L 634.969627 415.114276 
L 639.661167 408.232945 
L 644.352706 416.571509 
L 649.044246 421.342244 
L 653.735786 441.98439 
L 658.427325 400.742803 
L 663.118865 381.673647 
L 667.810405 366.151783 
L 672.501944 414.599744 
L 677.193484 434.678632 
L 681.885024 451.092651 
L 686.576563 394.307605 
L 691.268103 389.895429 
L 695.959643 397.465479 
L 700.651182 414.278061 
L 705.342722 390.485438 
L 710.034262 401.462803 
L 714.725801 394.675411 
L 719.417341 461.734281 
L 724.108881 436.450877 
L 728.80042 422.612231 
L 733.49196 414.796413 
L 738.1835 427.534755 
L 742.875039 393.323428 
L 747.566579 406.702217 
L 752.258119 436.816907 
L 756.949658 408.877413 
L 761.641198 373.050957 
L 766.332738 428.501566 
L 771.024277 413.105284 
L 775.715817 439.296333 
L 780.407357 359.806636 
L 785.098896 384.190639 
L 789.790436 362.854958 
L 794.481976 336.631203 
L 799.173516 323.187073 
L 803.865055 376.959544 
L 808.556595 329.717771 
L 813.248135 373.538635 
L 817.939674 373.105894 
L 822.631214 361.651407 
L 827.322754 324.928192 
L 832.014293 315.176509 
L 836.705833 340.823895 
L 841.397373 295.62827 
L 846.088912 301.033299 
L 850.780452 354.371075 
L 855.471992 344.199409 
L 860.163531 327.290166 
L 864.855071 291.569666 
L 869.546611 316.537951 
L 874.23815 280.243505 
L 878.92969 241.602681 
L 883.62123 304.625268 
L 888.312769 302.980324 
L 893.004309 263.551293 
L 897.695849 250.045814 
L 902.387388 249.870433 
L 907.078928 269.012096 
L 911.770468 234.244845 
L 916.462007 242.796303 
L 921.153547 238.023652 
L 925.845087 269.441012 
L 930.536626 236.757422 
L 935.228166 215.923321 
L 939.919706 251.483631 
L 944.611245 241.53654 
L 949.302785 230.079294 
L 953.994325 217.792574 
L 958.685864 179.847237 
L 963.377404 152.975761 
L 968.068944 174.847477 
L 972.760483 195.415006 
L 977.452023 163.407675 
L 982.143563 155.469819 
L 986.835102 195.60156 
L 991.526642 185.781473 
L 996.218182 111.242485 
L 996.218182 111.242485 
" style="fill:none;stroke:#696969;stroke-linecap:round;stroke-width:3;"/>
   </g>
  </g>
  <g id="text_31">
   <g id="patch_4">
    <path d="M 875.289375 646.18275 
L 1040.76 646.18275 
L 1040.76 628.26525 
L 875.289375 628.26525 
z
" style="fill:#ffffff;stroke:#ffffff;stroke-linejoin:miter;"/>
   </g>
   <!-- Created: 2024-01-25 13:00:31 -->
   <g style="fill:#696969;" transform="translate(879.249375 640.224)scale(0.12 -0.12)">
    <defs>
     <path d="M 17.96875 49.3125 
L 17.96875 38.375 
L 7.078125 38.375 
L 7.078125 49.3125 
z
M 17.96875 10.984375 
L 17.96875 0 
L 7.078125 0 
L 7.078125 10.984375 
z
" id="FranklinGothic-Book-58"/>
    </defs>
    <use xlink:href="#FranklinGothic-Book-67"/>
    <use x="57.910156" xlink:href="#FranklinGothic-Book-114"/>
    <use x="90.869141" xlink:href="#FranklinGothic-Book-101"/>
    <use x="142.919922" xlink:href="#FranklinGothic-Book-97"/>
    <use x="195.800781" xlink:href="#FranklinGothic-Book-116"/>
    <use x="224.8125" xlink:href="#FranklinGothic-Book-101"/>
    <use x="276.863281" xlink:href="#FranklinGothic-Book-100"/>
    <use x="330.720703" xlink:href="#FranklinGothic-Book-58"/>
    <use x="355.720703" xlink:href="#FranklinGothic-Book-32"/>
    <use x="380.720703" xlink:href="#FranklinGothic-Book-50"/>
    <use x="439.363281" xlink:href="#FranklinGothic-Book-48"/>
    <use x="498.005859" xlink:href="#FranklinGothic-Book-50"/>
    <use x="552.273438" xlink:href="#FranklinGothic-Book-52"/>
    <use x="610.916016" xlink:href="#FranklinGothic-Book-45"/>
    <use x="635.916016" xlink:href="#FranklinGothic-Book-48"/>
    <use x="690.808594" xlink:href="#FranklinGothic-Book-49"/>
    <use x="749.451172" xlink:href="#FranklinGothic-Book-45"/>
    <use x="774.451172" xlink:href="#FranklinGothic-Book-50"/>
    <use x="833.09375" xlink:href="#FranklinGothic-Book-53"/>
    <use x="891.736328" xlink:href="#FranklinGothic-Book-32"/>
    <use x="916.736328" xlink:href="#FranklinGothic-Book-49"/>
    <use x="974.503906" xlink:href="#FranklinGothic-Book-51"/>
    <use x="1033.146484" xlink:href="#FranklinGothic-Book-58"/>
    <use x="1058.146484" xlink:href="#FranklinGothic-Book-48"/>
    <use x="1116.789062" xlink:href="#FranklinGothic-Book-48"/>
    <use x="1175.431641" xlink:href="#FranklinGothic-Book-58"/>
    <use x="1200.431641" xlink:href="#FranklinGothic-Book-51"/>
    <use x="1254.324219" xlink:href="#FranklinGothic-Book-49"/>
   </g>
  </g>
 </g>
 <defs>
  <clipPath id="p2120518dde">
   <rect height="498.96" width="892.8" x="144" y="77.76"/>
  </clipPath>
 </defs>
</svg>
