<?xml version="1.0" encoding="utf-8" standalone="no"?>
<!DOCTYPE svg PUBLIC "-//W3C//DTD SVG 1.1//EN"
  "http://www.w3.org/Graphics/SVG/1.1/DTD/svg11.dtd">
<!-- Created with matplotlib (https://matplotlib.org/) -->
<svg height="648pt" version="1.1" viewBox="0 0 1152 648" width="1152pt" xmlns="http://www.w3.org/2000/svg" xmlns:xlink="http://www.w3.org/1999/xlink">
 <metadata>
  <rdf:RDF xmlns:cc="http://creativecommons.org/ns#" xmlns:dc="http://purl.org/dc/elements/1.1/" xmlns:rdf="http://www.w3.org/1999/02/22-rdf-syntax-ns#">
   <cc:Work>
    <dc:type rdf:resource="http://purl.org/dc/dcmitype/StillImage"/>
    <dc:date>2023-08-10T11:39:12.479820</dc:date>
    <dc:format>image/svg+xml</dc:format>
    <dc:creator>
     <cc:Agent>
      <dc:title>Matplotlib v3.3.1, https://matplotlib.org/</dc:title>
     </cc:Agent>
    </dc:creator>
   </cc:Work>
  </rdf:RDF>
 </metadata>
 <defs>
  <style type="text/css">*{stroke-linecap:butt;stroke-linejoin:round;}</style>
 </defs>
 <g id="figure_1">
  <g id="patch_1">
   <path d="M 0 648 
L 1152 648 
L 1152 0 
L 0 0 
z
" style="fill:#ffffff;"/>
  </g>
  <g id="axes_1">
   <g id="patch_2">
    <path d="M 144 576.72 
L 1036.8 576.72 
L 1036.8 77.76 
L 144 77.76 
z
" style="fill:none;"/>
   </g>
   <g id="line2d_1">
    <path clip-path="url(#pf97c1ee569)" d="M 789.790436 334.439159 
L 794.481976 299.075314 
L 799.173516 290.081651 
L 803.865055 343.7764 
L 808.556595 291.267333 
L 813.248135 348.566283 
L 817.939674 359.446257 
L 822.631214 335.523788 
L 827.322754 293.652169 
L 832.014293 284.995348 
L 836.705833 316.8785 
L 841.397373 254.522438 
L 846.088912 269.276087 
L 850.780452 331.814043 
L 855.471992 319.469932 
L 860.163531 309.679078 
L 864.855071 261.773509 
L 869.546611 296.798267 
L 874.23815 263.86417 
L 878.92969 213.03931 
L 883.62123 285.487136 
L 888.312769 286.854712 
L 893.004309 243.734534 
L 897.695849 217.683228 
L 902.387388 221.17515 
L 907.078928 237.709566 
L 911.770468 193.992057 
L 916.462007 206.951464 
L 921.153547 208.945565 
L 925.845087 244.644006 
L 930.536626 209.437353 
L 935.228166 183.653275 
L 939.919706 221.884762 
L 944.611245 208.09897 
L 949.302785 200.762567 
L 953.994325 190.167785 
L 958.685864 149.921987 
L 963.377404 100.44 
L 968.068944 126.190395 
L 972.760483 147.678624 
L 977.452023 111.21443 
L 982.143563 102.330802 
L 986.835102 145.040034 
L 991.526642 137.719349 
L 996.218182 105.822692 
" style="fill:none;stroke:#0072b2;stroke-linecap:round;stroke-width:3;"/>
   </g>
   <g id="line2d_2">
    <path clip-path="url(#pf97c1ee569)" d="M 691.268103 345.321533 
L 695.959643 363.250053 
L 700.651182 368.084656 
L 705.342722 361.60885 
L 710.034262 365.383285 
L 714.725801 364.848195 
L 719.417341 417.857884 
L 724.108881 398.649911 
L 728.80042 389.818225 
L 733.49196 390.70732 
L 738.1835 398.300582 
L 742.875039 358.151659 
L 747.566579 369.252928 
L 752.258119 403.154013 
L 756.949658 373.441241 
L 761.641198 346.829328 
L 766.332738 419.383376 
L 771.024277 402.881709 
L 775.715817 431.87824 
L 780.407357 357.543223 
L 785.098896 374.137667 
L 789.790436 342.670814 
L 794.481976 308.86749 
L 799.173516 298.347255 
L 803.865055 348.587468 
L 808.556595 299.418196 
L 813.248135 349.960171 
L 817.939674 358.379159 
L 822.631214 331.756936 
L 827.322754 294.194826 
L 832.014293 287.209823 
L 836.705833 316.387976 
L 841.397373 265.755324 
L 846.088912 277.874431 
L 850.780452 329.610396 
L 855.471992 319.808344 
L 860.163531 300.968916 
L 864.855071 254.205437 
L 869.546611 289.502985 
L 874.23815 259.004411 
L 878.92969 205.977548 
L 883.62123 272.639094 
L 888.312769 272.41556 
L 893.004309 237.379714 
L 897.695849 209.189819 
L 902.387388 221.505769 
L 907.078928 245.671591 
L 911.770468 197.845141 
L 916.462007 210.915022 
L 921.153547 212.504541 
L 925.845087 251.182865 
L 930.536626 213.819045 
L 935.228166 192.674848 
L 939.919706 224.172225 
L 944.611245 212.81196 
L 949.302785 202.459248 
L 953.994325 191.348134 
L 958.685864 155.746949 
L 963.377404 106.04308 
L 968.068944 142.427366 
L 972.760483 165.003879 
L 977.452023 122.726808 
L 982.143563 124.041827 
L 986.835102 165.369014 
L 991.526642 152.374884 
L 996.218182 126.702702 
" style="fill:none;stroke:#d55e00;stroke-linecap:round;stroke-width:3;"/>
   </g>
   <g id="patch_3">
    <path d="M 144 576.72 
L 1036.8 576.72 
" style="fill:none;stroke:#d3d3d3;stroke-linecap:square;stroke-linejoin:miter;stroke-width:1.25;"/>
   </g>
   <g id="matplotlib.axis_1">
    <g id="xtick_1">
     <g id="line2d_3">
      <defs>
       <path d="M 0 0 
L 0 6 
" id="m2a2268ff1a" style="stroke:#696969;stroke-width:1.25;"/>
      </defs>
      <g>
       <use style="fill:#696969;stroke:#696969;stroke-width:1.25;" x="231.497215" xlink:href="#m2a2268ff1a" y="576.72"/>
      </g>
     </g>
     <g id="text_1">
      <!-- 1860 -->
      <g style="fill:#696969;" transform="translate(213.951902 596.218438)scale(0.15 -0.15)">
       <defs>
        <path d="M 55.859375 6.203125 
L 55.859375 0 
L 9.1875 0 
L 9.1875 6.203125 
L 29.203125 6.203125 
L 29.203125 57.671875 
Q 20.359375 48.4375 10.84375 43.265625 
L 10.84375 51.65625 
Q 23.96875 58.546875 31.203125 68.015625 
L 37.15625 68.015625 
L 37.15625 6.203125 
z
" id="FranklinGothic-Book-49"/>
        <path d="M 19.484375 34.578125 
Q 6.84375 40.09375 6.84375 50.59375 
Q 6.84375 58.203125 13.140625 63.109375 
Q 19.4375 68.015625 29.828125 68.015625 
Q 40.09375 68.015625 46.140625 63.296875 
Q 52.203125 58.59375 52.203125 50.984375 
Q 52.203125 40.375 39.265625 35.796875 
Q 49.703125 30.953125 52.359375 26.453125 
Q 55.03125 21.96875 55.03125 17.484375 
Q 55.03125 9.46875 48.21875 4.078125 
Q 41.40625 -1.3125 29.734375 -1.3125 
Q 17.28125 -1.3125 10.4375 4.171875 
Q 3.609375 9.671875 3.609375 17.234375 
Q 3.609375 28.515625 19.484375 34.578125 
z
M 29.59375 38.71875 
Q 37.984375 40.96875 41.453125 43.890625 
Q 44.921875 46.828125 44.921875 51.21875 
Q 44.921875 56.34375 40.796875 59 
Q 36.671875 61.671875 29.9375 61.671875 
Q 23.484375 61.671875 19.375 58.859375 
Q 15.28125 56.0625 15.28125 51.3125 
Q 15.28125 46.625 19.84375 43.203125 
Q 24.421875 39.796875 29.59375 38.71875 
z
M 28.65625 31.0625 
Q 11.765625 27.046875 11.765625 16.9375 
Q 11.765625 11.671875 16.375 8.328125 
Q 21 4.984375 29.984375 4.984375 
Q 37.59375 4.984375 42.234375 8.25 
Q 46.875 11.53125 46.875 16.609375 
Q 46.875 26.3125 28.65625 31.0625 
z
" id="FranklinGothic-Book-56"/>
        <path d="M 53.5625 53.03125 
L 46.046875 50.984375 
Q 42.1875 61.140625 31.984375 61.140625 
Q 13.234375 61.140625 12.796875 30.125 
Q 15.765625 37.015625 21.234375 40.328125 
Q 26.703125 43.65625 32.8125 43.65625 
Q 42.09375 43.65625 48.359375 37.1875 
Q 54.640625 30.71875 54.640625 21.6875 
Q 54.640625 12.3125 47.96875 5.5 
Q 41.3125 -1.3125 30.90625 -1.3125 
Q 19.09375 -1.3125 12.078125 7.59375 
Q 5.078125 16.5 5.078125 31.84375 
Q 5.078125 46.828125 11.6875 57.421875 
Q 18.3125 68.015625 32.171875 68.015625 
Q 48.140625 68.015625 53.5625 53.03125 
z
M 30.765625 5.375 
Q 37.84375 5.375 42.359375 10.03125 
Q 46.875 14.703125 46.875 21.234375 
Q 46.875 27.6875 42.453125 32.296875 
Q 38.03125 36.921875 31.5 36.921875 
Q 24.75 36.921875 19.71875 32.078125 
Q 14.703125 27.25 14.703125 20.75 
Q 14.703125 14.75 19.1875 10.0625 
Q 23.6875 5.375 30.765625 5.375 
z
" id="FranklinGothic-Book-54"/>
        <path d="M 29.390625 -1.3125 
Q 17.875 -1.3125 10.984375 8.671875 
Q 4.109375 18.65625 4.109375 33.453125 
Q 4.109375 48 10.640625 58 
Q 17.1875 68.015625 29.15625 68.015625 
Q 41.65625 68.015625 48.125 57.5625 
Q 54.59375 47.125 54.59375 33.0625 
Q 54.59375 19.28125 47.953125 8.984375 
Q 41.3125 -1.3125 29.390625 -1.3125 
z
M 29.4375 5.21875 
Q 37.890625 5.21875 41.9375 12.859375 
Q 46 20.515625 46 32.078125 
Q 46 44.734375 41.84375 53.125 
Q 37.703125 61.53125 29.046875 61.53125 
Q 20.703125 61.53125 16.625 53.859375 
Q 12.546875 46.1875 12.546875 33.6875 
Q 12.546875 20.703125 16.84375 12.953125 
Q 21.140625 5.21875 29.4375 5.21875 
z
" id="FranklinGothic-Book-48"/>
       </defs>
       <use xlink:href="#FranklinGothic-Book-49"/>
       <use x="58.017578" xlink:href="#FranklinGothic-Book-56"/>
       <use x="116.660156" xlink:href="#FranklinGothic-Book-54"/>
       <use x="175.302734" xlink:href="#FranklinGothic-Book-48"/>
      </g>
     </g>
    </g>
    <g id="xtick_2">
     <g id="line2d_4">
      <g>
       <use style="fill:#696969;stroke:#696969;stroke-width:1.25;" x="325.328008" xlink:href="#m2a2268ff1a" y="576.72"/>
      </g>
     </g>
     <g id="text_2">
      <!-- 1880 -->
      <g style="fill:#696969;" transform="translate(307.782696 596.218438)scale(0.15 -0.15)">
       <use xlink:href="#FranklinGothic-Book-49"/>
       <use x="58.017578" xlink:href="#FranklinGothic-Book-56"/>
       <use x="116.660156" xlink:href="#FranklinGothic-Book-56"/>
       <use x="175.302734" xlink:href="#FranklinGothic-Book-48"/>
      </g>
     </g>
    </g>
    <g id="xtick_3">
     <g id="line2d_5">
      <g>
       <use style="fill:#696969;stroke:#696969;stroke-width:1.25;" x="419.158802" xlink:href="#m2a2268ff1a" y="576.72"/>
      </g>
     </g>
     <g id="text_3">
      <!-- 1900 -->
      <g style="fill:#696969;" transform="translate(401.669739 596.218438)scale(0.15 -0.15)">
       <defs>
        <path d="M 5.71875 12.15625 
L 12.40625 14.59375 
Q 16.546875 5.375 26.375 5.375 
Q 35.890625 5.375 40.703125 13.375 
Q 45.515625 21.390625 45.65625 35.109375 
Q 39.109375 23.09375 25.984375 23.09375 
Q 16.703125 23.09375 10.40625 29.421875 
Q 4.109375 35.75 4.109375 45.0625 
Q 4.109375 54.546875 10.71875 61.28125 
Q 17.328125 68.015625 27.59375 68.015625 
Q 40.140625 68.015625 46.828125 59.203125 
Q 53.515625 50.390625 53.515625 34.96875 
Q 53.515625 18.75 46.4375 8.71875 
Q 39.359375 -1.3125 26.265625 -1.3125 
Q 10.984375 -1.3125 5.71875 12.15625 
z
M 27.828125 29.78125 
Q 34.71875 29.78125 39.375 34.59375 
Q 44.046875 39.40625 44.046875 45.84375 
Q 44.046875 52.09375 39.625 56.578125 
Q 35.203125 61.078125 27.984375 61.078125 
Q 20.65625 61.078125 16.40625 56.46875 
Q 12.15625 51.859375 12.15625 45.21875 
Q 12.15625 38.09375 16.859375 33.9375 
Q 21.578125 29.78125 27.828125 29.78125 
z
" id="FranklinGothic-Book-57"/>
       </defs>
       <use xlink:href="#FranklinGothic-Book-49"/>
       <use x="57.267578" xlink:href="#FranklinGothic-Book-57"/>
       <use x="115.910156" xlink:href="#FranklinGothic-Book-48"/>
       <use x="174.552734" xlink:href="#FranklinGothic-Book-48"/>
      </g>
     </g>
    </g>
    <g id="xtick_4">
     <g id="line2d_6">
      <g>
       <use style="fill:#696969;stroke:#696969;stroke-width:1.25;" x="512.989595" xlink:href="#m2a2268ff1a" y="576.72"/>
      </g>
     </g>
     <g id="text_4">
      <!-- 1920 -->
      <g style="fill:#696969;" transform="translate(495.500533 596.218438)scale(0.15 -0.15)">
       <defs>
        <path d="M 52.484375 6.9375 
L 52.484375 0 
L 5.171875 0 
L 5.171875 6.9375 
Q 33.203125 27.9375 38.59375 34.59375 
Q 44 41.265625 44 47.796875 
Q 44 53.90625 39.453125 57.65625 
Q 34.90625 61.421875 29 61.421875 
Q 22.90625 61.421875 18.21875 57.296875 
Q 13.53125 53.171875 12.9375 46.09375 
L 5.171875 48.4375 
Q 10.0625 68.015625 29.109375 68.015625 
Q 39.40625 68.015625 45.84375 62.15625 
Q 52.296875 56.296875 52.296875 47.859375 
Q 52.296875 42.046875 49.234375 36.671875 
Q 46.1875 31.296875 37.6875 23.828125 
Q 29.203125 16.359375 15.71875 6.9375 
z
" id="FranklinGothic-Book-50"/>
       </defs>
       <use xlink:href="#FranklinGothic-Book-49"/>
       <use x="57.267578" xlink:href="#FranklinGothic-Book-57"/>
       <use x="115.910156" xlink:href="#FranklinGothic-Book-50"/>
       <use x="174.552734" xlink:href="#FranklinGothic-Book-48"/>
      </g>
     </g>
    </g>
    <g id="xtick_5">
     <g id="line2d_7">
      <g>
       <use style="fill:#696969;stroke:#696969;stroke-width:1.25;" x="606.820389" xlink:href="#m2a2268ff1a" y="576.72"/>
      </g>
     </g>
     <g id="text_5">
      <!-- 1940 -->
      <g style="fill:#696969;" transform="translate(589.368826 596.218438)scale(0.15 -0.15)">
       <defs>
        <path d="M 44.09375 0 
L 36.03125 0 
L 36.03125 15.875 
L 3.078125 15.875 
L 3.078125 21.484375 
L 33.640625 68.0625 
L 44.09375 68.0625 
L 44.09375 22.46875 
L 54.890625 22.46875 
L 54.890625 15.875 
L 44.09375 15.875 
z
M 36.03125 22.46875 
L 36.03125 54 
Q 36.03125 57.421875 36.1875 61.375 
Q 34.078125 57.515625 32.5625 55.125 
L 11.765625 22.46875 
z
" id="FranklinGothic-Book-52"/>
       </defs>
       <use xlink:href="#FranklinGothic-Book-49"/>
       <use x="57.267578" xlink:href="#FranklinGothic-Book-57"/>
       <use x="115.410156" xlink:href="#FranklinGothic-Book-52"/>
       <use x="174.052734" xlink:href="#FranklinGothic-Book-48"/>
      </g>
     </g>
    </g>
    <g id="xtick_6">
     <g id="line2d_8">
      <g>
       <use style="fill:#696969;stroke:#696969;stroke-width:1.25;" x="700.651182" xlink:href="#m2a2268ff1a" y="576.72"/>
      </g>
     </g>
     <g id="text_6">
      <!-- 1960 -->
      <g style="fill:#696969;" transform="translate(683.16212 596.218438)scale(0.15 -0.15)">
       <use xlink:href="#FranklinGothic-Book-49"/>
       <use x="57.267578" xlink:href="#FranklinGothic-Book-57"/>
       <use x="115.910156" xlink:href="#FranklinGothic-Book-54"/>
       <use x="174.552734" xlink:href="#FranklinGothic-Book-48"/>
      </g>
     </g>
    </g>
    <g id="xtick_7">
     <g id="line2d_9">
      <g>
       <use style="fill:#696969;stroke:#696969;stroke-width:1.25;" x="794.481976" xlink:href="#m2a2268ff1a" y="576.72"/>
      </g>
     </g>
     <g id="text_7">
      <!-- 1980 -->
      <g style="fill:#696969;" transform="translate(776.992913 596.218438)scale(0.15 -0.15)">
       <use xlink:href="#FranklinGothic-Book-49"/>
       <use x="57.267578" xlink:href="#FranklinGothic-Book-57"/>
       <use x="115.910156" xlink:href="#FranklinGothic-Book-56"/>
       <use x="174.552734" xlink:href="#FranklinGothic-Book-48"/>
      </g>
     </g>
    </g>
    <g id="xtick_8">
     <g id="line2d_10">
      <g>
       <use style="fill:#696969;stroke:#696969;stroke-width:1.25;" x="888.312769" xlink:href="#m2a2268ff1a" y="576.72"/>
      </g>
     </g>
     <g id="text_8">
      <!-- 2000 -->
      <g style="fill:#696969;" transform="translate(870.720582 596.218438)scale(0.15 -0.15)">
       <use xlink:href="#FranklinGothic-Book-50"/>
       <use x="58.642578" xlink:href="#FranklinGothic-Book-48"/>
       <use x="117.285156" xlink:href="#FranklinGothic-Book-48"/>
       <use x="175.927734" xlink:href="#FranklinGothic-Book-48"/>
      </g>
     </g>
    </g>
    <g id="xtick_9">
     <g id="line2d_11">
      <g>
       <use style="fill:#696969;stroke:#696969;stroke-width:1.25;" x="982.143563" xlink:href="#m2a2268ff1a" y="576.72"/>
      </g>
     </g>
     <g id="text_9">
      <!-- 2020 -->
      <g style="fill:#696969;" transform="translate(964.551375 596.218438)scale(0.15 -0.15)">
       <use xlink:href="#FranklinGothic-Book-50"/>
       <use x="58.642578" xlink:href="#FranklinGothic-Book-48"/>
       <use x="117.285156" xlink:href="#FranklinGothic-Book-50"/>
       <use x="175.927734" xlink:href="#FranklinGothic-Book-48"/>
      </g>
     </g>
    </g>
    <g id="text_10">
     <!-- Year -->
     <g style="fill:#696969;" transform="translate(572.109375 616.048125)scale(0.2 -0.2)">
      <defs>
       <path d="M 52 66.65625 
L 29.6875 28.03125 
L 29.6875 0 
L 21.34375 0 
L 21.34375 28.03125 
L -0.984375 66.65625 
L 8.84375 66.65625 
L 26.5625 35.984375 
L 44.390625 66.65625 
z
" id="FranklinGothic-Book-89"/>
       <path d="M 40.234375 14.703125 
L 47.359375 13.234375 
Q 45.40625 6.9375 39.734375 2.8125 
Q 34.078125 -1.3125 26.421875 -1.3125 
Q 16.3125 -1.3125 10.0625 5.78125 
Q 3.8125 12.890625 3.8125 24.421875 
Q 3.8125 36.1875 10.296875 43.4375 
Q 16.796875 50.6875 26.609375 50.6875 
Q 36.28125 50.6875 42.15625 44 
Q 48.046875 37.3125 48.1875 23.96875 
L 12.359375 23.96875 
Q 12.359375 12.796875 17.046875 8.890625 
Q 21.734375 4.984375 26.953125 4.984375 
Q 36.375 4.984375 40.234375 14.703125 
z
M 39.796875 29.6875 
Q 39.703125 33.84375 38.421875 37.0625 
Q 37.15625 40.28125 34.125 42.546875 
Q 31.109375 44.828125 26.859375 44.828125 
Q 21.140625 44.828125 17.15625 40.71875 
Q 13.1875 36.625 12.703125 29.6875 
z
" id="FranklinGothic-Book-101"/>
       <path d="M 46.296875 0 
L 38.671875 0 
Q 38.234375 2.34375 37.796875 8.890625 
Q 32.71875 -1.3125 20.515625 -1.3125 
Q 12.203125 -1.3125 7.765625 3.078125 
Q 3.328125 7.46875 3.328125 13.625 
Q 3.328125 21.09375 9.671875 25.90625 
Q 16.015625 30.71875 31.25 30.71875 
Q 33.296875 30.71875 37.796875 30.515625 
Q 37.796875 36.375 36.890625 38.984375 
Q 35.984375 41.609375 33.046875 43.171875 
Q 30.125 44.734375 25.34375 44.734375 
Q 13.671875 44.734375 11.765625 35.84375 
L 4.6875 37.0625 
Q 7.28125 50.6875 26.46875 50.6875 
Q 36.671875 50.6875 40.9375 46.171875 
Q 45.21875 41.65625 45.21875 30.515625 
L 45.21875 9.578125 
Q 45.21875 4.34375 46.296875 0 
z
M 37.796875 24.65625 
Q 33.109375 24.953125 30.671875 24.953125 
Q 21.578125 24.953125 16.546875 21.96875 
Q 11.53125 19 11.53125 13.28125 
Q 11.53125 9.671875 14.234375 7.125 
Q 16.9375 4.59375 22.078125 4.59375 
Q 29 4.59375 33.46875 9.625 
Q 37.9375 14.65625 37.9375 21.4375 
Q 37.9375 22.796875 37.796875 24.65625 
z
" id="FranklinGothic-Book-97"/>
       <path d="M 15.328125 0 
L 7.671875 0 
L 7.671875 49.3125 
L 14.40625 49.3125 
L 14.40625 37.796875 
Q 17.96875 45.953125 21.546875 48.359375 
Q 25.140625 50.78125 28.90625 50.78125 
Q 30.078125 50.78125 31.9375 50.59375 
L 31.9375 43.265625 
L 30.375 43.265625 
Q 24.03125 43.265625 19.828125 38.53125 
Q 15.625 33.796875 15.328125 26.078125 
z
" id="FranklinGothic-Book-114"/>
      </defs>
      <use xlink:href="#FranklinGothic-Book-89"/>
      <use x="45.025391" xlink:href="#FranklinGothic-Book-101"/>
      <use x="97.076172" xlink:href="#FranklinGothic-Book-97"/>
      <use x="149.957031" xlink:href="#FranklinGothic-Book-114"/>
     </g>
    </g>
   </g>
   <g id="matplotlib.axis_2">
    <g id="ytick_1">
     <g id="line2d_12">
      <path clip-path="url(#pf97c1ee569)" d="M 144 564.5487 
L 1036.8 564.5487 
" style="fill:none;stroke:#d3d3d3;stroke-linecap:round;stroke-opacity:0.5;"/>
     </g>
     <g id="text_11">
      <!-- −0.4 -->
      <g style="fill:#696969;" transform="translate(104.361719 569.547919)scale(0.15 -0.15)">
       <defs>
        <path d="M 6 36.765625 
L 52.6875 36.765625 
L 52.6875 30.03125 
L 6 30.03125 
z
" id="FranklinGothic-Book-8722"/>
        <path d="M 17.96875 10.9375 
L 17.96875 0 
L 7.078125 0 
L 7.078125 10.9375 
z
" id="FranklinGothic-Book-46"/>
       </defs>
       <use xlink:href="#FranklinGothic-Book-8722"/>
       <use x="58.642578" xlink:href="#FranklinGothic-Book-48"/>
       <use x="117.285156" xlink:href="#FranklinGothic-Book-46"/>
       <use x="142.285156" xlink:href="#FranklinGothic-Book-52"/>
      </g>
     </g>
    </g>
    <g id="ytick_2">
     <g id="line2d_13">
      <path clip-path="url(#pf97c1ee569)" d="M 144 510.654092 
L 1036.8 510.654092 
" style="fill:none;stroke:#d3d3d3;stroke-linecap:round;stroke-opacity:0.5;"/>
     </g>
     <g id="text_12">
      <!-- −0.2 -->
      <g style="fill:#696969;" transform="translate(104.361719 515.653311)scale(0.15 -0.15)">
       <use xlink:href="#FranklinGothic-Book-8722"/>
       <use x="58.642578" xlink:href="#FranklinGothic-Book-48"/>
       <use x="117.285156" xlink:href="#FranklinGothic-Book-46"/>
       <use x="142.285156" xlink:href="#FranklinGothic-Book-50"/>
      </g>
     </g>
    </g>
    <g id="ytick_3">
     <g id="line2d_14">
      <path clip-path="url(#pf97c1ee569)" d="M 144 456.759484 
L 1036.8 456.759484 
" style="fill:none;stroke:#d3d3d3;stroke-linecap:round;stroke-opacity:0.5;"/>
     </g>
     <g id="text_13">
      <!-- 0.0 -->
      <g style="fill:#696969;" transform="translate(113.157813 461.758703)scale(0.15 -0.15)">
       <use xlink:href="#FranklinGothic-Book-48"/>
       <use x="58.642578" xlink:href="#FranklinGothic-Book-46"/>
       <use x="83.642578" xlink:href="#FranklinGothic-Book-48"/>
      </g>
     </g>
    </g>
    <g id="ytick_4">
     <g id="line2d_15">
      <path clip-path="url(#pf97c1ee569)" d="M 144 402.864876 
L 1036.8 402.864876 
" style="fill:none;stroke:#d3d3d3;stroke-linecap:round;stroke-opacity:0.5;"/>
     </g>
     <g id="text_14">
      <!-- 0.2 -->
      <g style="fill:#696969;" transform="translate(113.157813 407.864095)scale(0.15 -0.15)">
       <use xlink:href="#FranklinGothic-Book-48"/>
       <use x="58.642578" xlink:href="#FranklinGothic-Book-46"/>
       <use x="83.642578" xlink:href="#FranklinGothic-Book-50"/>
      </g>
     </g>
    </g>
    <g id="ytick_5">
     <g id="line2d_16">
      <path clip-path="url(#pf97c1ee569)" d="M 144 348.970268 
L 1036.8 348.970268 
" style="fill:none;stroke:#d3d3d3;stroke-linecap:round;stroke-opacity:0.5;"/>
     </g>
     <g id="text_15">
      <!-- 0.4 -->
      <g style="fill:#696969;" transform="translate(113.157813 353.969487)scale(0.15 -0.15)">
       <use xlink:href="#FranklinGothic-Book-48"/>
       <use x="58.642578" xlink:href="#FranklinGothic-Book-46"/>
       <use x="83.642578" xlink:href="#FranklinGothic-Book-52"/>
      </g>
     </g>
    </g>
    <g id="ytick_6">
     <g id="line2d_17">
      <path clip-path="url(#pf97c1ee569)" d="M 144 295.075661 
L 1036.8 295.075661 
" style="fill:none;stroke:#d3d3d3;stroke-linecap:round;stroke-opacity:0.5;"/>
     </g>
     <g id="text_16">
      <!-- 0.6 -->
      <g style="fill:#696969;" transform="translate(113.157813 300.074879)scale(0.15 -0.15)">
       <use xlink:href="#FranklinGothic-Book-48"/>
       <use x="58.642578" xlink:href="#FranklinGothic-Book-46"/>
       <use x="83.642578" xlink:href="#FranklinGothic-Book-54"/>
      </g>
     </g>
    </g>
    <g id="ytick_7">
     <g id="line2d_18">
      <path clip-path="url(#pf97c1ee569)" d="M 144 241.181053 
L 1036.8 241.181053 
" style="fill:none;stroke:#d3d3d3;stroke-linecap:round;stroke-opacity:0.5;"/>
     </g>
     <g id="text_17">
      <!-- 0.8 -->
      <g style="fill:#696969;" transform="translate(113.157813 246.180271)scale(0.15 -0.15)">
       <use xlink:href="#FranklinGothic-Book-48"/>
       <use x="58.642578" xlink:href="#FranklinGothic-Book-46"/>
       <use x="83.642578" xlink:href="#FranklinGothic-Book-56"/>
      </g>
     </g>
    </g>
    <g id="ytick_8">
     <g id="line2d_19">
      <path clip-path="url(#pf97c1ee569)" d="M 144 187.286445 
L 1036.8 187.286445 
" style="fill:none;stroke:#d3d3d3;stroke-linecap:round;stroke-opacity:0.5;"/>
     </g>
     <g id="text_18">
      <!-- 1.0 -->
      <g style="fill:#696969;" transform="translate(113.251563 192.285664)scale(0.15 -0.15)">
       <use xlink:href="#FranklinGothic-Book-49"/>
       <use x="58.017578" xlink:href="#FranklinGothic-Book-46"/>
       <use x="83.017578" xlink:href="#FranklinGothic-Book-48"/>
      </g>
     </g>
    </g>
    <g id="ytick_9">
     <g id="line2d_20">
      <path clip-path="url(#pf97c1ee569)" d="M 144 133.391837 
L 1036.8 133.391837 
" style="fill:none;stroke:#d3d3d3;stroke-linecap:round;stroke-opacity:0.5;"/>
     </g>
     <g id="text_19">
      <!-- 1.2 -->
      <g style="fill:#696969;" transform="translate(113.251563 138.391056)scale(0.15 -0.15)">
       <use xlink:href="#FranklinGothic-Book-49"/>
       <use x="58.017578" xlink:href="#FranklinGothic-Book-46"/>
       <use x="83.017578" xlink:href="#FranklinGothic-Book-50"/>
      </g>
     </g>
    </g>
    <g id="ytick_10">
     <g id="line2d_21">
      <path clip-path="url(#pf97c1ee569)" d="M 144 79.497229 
L 1036.8 79.497229 
" style="fill:none;stroke:#d3d3d3;stroke-linecap:round;stroke-opacity:0.5;"/>
     </g>
     <g id="text_20">
      <!-- 1.4 -->
      <g style="fill:#696969;" transform="translate(113.251563 84.496448)scale(0.15 -0.15)">
       <use xlink:href="#FranklinGothic-Book-49"/>
       <use x="58.017578" xlink:href="#FranklinGothic-Book-46"/>
       <use x="83.017578" xlink:href="#FranklinGothic-Book-52"/>
      </g>
     </g>
    </g>
    <g id="text_21">
     <!-- $\!^\circ\!$C -->
     <g style="fill:#696969;" transform="translate(91.030469 337.34)rotate(-90)scale(0.2 -0.2)">
      <defs>
       <path d="M 31.296875 40.671875 
Q 27.390625 40.671875 24.703125 37.953125 
Q 22.015625 35.25 22.015625 31.34375 
Q 22.015625 27.484375 24.703125 24.828125 
Q 27.390625 22.171875 31.296875 22.171875 
Q 35.203125 22.171875 37.890625 24.828125 
Q 40.578125 27.484375 40.578125 31.34375 
Q 40.578125 35.203125 37.859375 37.9375 
Q 35.15625 40.671875 31.296875 40.671875 
z
M 31.296875 46.96875 
Q 34.421875 46.96875 37.296875 45.765625 
Q 40.1875 44.578125 42.28125 42.328125 
Q 44.53125 40.140625 45.65625 37.34375 
Q 46.78125 34.5625 46.78125 31.34375 
Q 46.78125 24.90625 42.265625 20.4375 
Q 37.75 15.96875 31.203125 15.96875 
Q 24.609375 15.96875 20.21875 20.359375 
Q 15.828125 24.75 15.828125 31.34375 
Q 15.828125 37.890625 20.3125 42.421875 
Q 24.8125 46.96875 31.296875 46.96875 
z
" id="DejaVuSans-8728"/>
       <path d="M 48.296875 22.40625 
L 55.90625 20.703125 
Q 50.4375 -1.3125 31.203125 -1.3125 
Q 18.5625 -1.3125 11.359375 8.890625 
Q 4.15625 19.09375 4.15625 33.984375 
Q 4.15625 49.359375 11.671875 58.6875 
Q 19.1875 68.015625 31.84375 68.015625 
Q 50.59375 68.015625 55.90625 46.578125 
L 48.046875 45.015625 
Q 43.75 60.9375 31.78125 60.9375 
Q 22.953125 60.9375 18.09375 53.53125 
Q 13.234375 46.140625 13.234375 32.765625 
Q 13.234375 20.515625 18.203125 13.109375 
Q 23.1875 5.71875 31.390625 5.71875 
Q 44.140625 5.71875 48.296875 22.40625 
z
" id="FranklinGothic-Book-67"/>
      </defs>
      <use transform="translate(-1.64095 39.121875)scale(0.7)" xlink:href="#DejaVuSans-8728"/>
      <use transform="translate(42.313804 0.840625)" xlink:href="#FranklinGothic-Book-67"/>
     </g>
    </g>
   </g>
   <g id="text_22">
    <!-- Compared to 1850-1900 average -->
    <g style="fill:#696969;" transform="translate(144 75.2652)scale(0.3 -0.3)">
     <defs>
      <path d="M 25.34375 -1.3125 
Q 15.1875 -1.3125 9.5 6.203125 
Q 3.8125 13.71875 3.8125 24.859375 
Q 3.8125 36.625 10.203125 43.65625 
Q 16.609375 50.6875 26.125 50.6875 
Q 36.328125 50.6875 42.203125 43.28125 
Q 48.09375 35.890625 48.09375 24.8125 
Q 48.09375 13.28125 41.75 5.984375 
Q 35.40625 -1.3125 25.34375 -1.3125 
z
M 25.921875 4.984375 
Q 31.78125 4.984375 35.734375 9.8125 
Q 39.703125 14.65625 39.703125 24.859375 
Q 39.703125 35.109375 35.546875 39.71875 
Q 31.390625 44.34375 25.828125 44.34375 
Q 20.125 44.34375 16.15625 39.671875 
Q 12.203125 35.015625 12.203125 24.90625 
Q 12.203125 14.203125 16.15625 9.59375 
Q 20.125 4.984375 25.921875 4.984375 
z
" id="FranklinGothic-Book-111"/>
      <path d="M 73.734375 0 
L 66.265625 0 
L 66.265625 30.671875 
Q 66.265625 35.40625 65.59375 37.765625 
Q 64.9375 40.140625 62.390625 42.109375 
Q 59.859375 44.09375 56.6875 44.09375 
Q 52.296875 44.09375 48.21875 40.0625 
Q 44.140625 36.03125 44.140625 27.78125 
L 44.140625 0 
L 36.71875 0 
L 36.71875 32.46875 
Q 36.71875 38.96875 33.609375 41.65625 
Q 30.515625 44.34375 27.09375 44.34375 
Q 22.21875 44.34375 18.59375 40.140625 
Q 14.984375 35.9375 14.984375 29.5 
L 14.984375 0 
L 7.671875 0 
L 7.671875 49.3125 
L 14.265625 49.3125 
L 14.265625 39.84375 
Q 19.78125 50.6875 29.4375 50.6875 
Q 34.765625 50.6875 38.46875 47.21875 
Q 42.1875 43.75 43.265625 38.875 
Q 48.34375 50.6875 58.84375 50.6875 
Q 63.875 50.6875 67.65625 47.796875 
Q 71.4375 44.921875 72.578125 41.1875 
Q 73.734375 37.453125 73.734375 30.671875 
z
" id="FranklinGothic-Book-109"/>
      <path d="M 15.328125 -16.65625 
L 7.671875 -16.65625 
L 7.671875 49.3125 
L 14.546875 49.3125 
L 14.546875 39.75 
Q 19.78125 50.6875 30.125 50.6875 
Q 38.875 50.6875 44.234375 43.375 
Q 49.609375 36.078125 49.609375 24.90625 
Q 49.609375 12.84375 44.09375 5.765625 
Q 38.578125 -1.3125 29.9375 -1.3125 
Q 20.65625 -1.3125 15.328125 7.515625 
z
M 15.328125 31.78125 
L 15.328125 17.921875 
Q 16.0625 12.3125 20.0625 8.640625 
Q 24.078125 4.984375 28.421875 4.984375 
Q 33.453125 4.984375 37.328125 9.375 
Q 41.21875 13.765625 41.21875 24.5625 
Q 41.21875 33.890625 37.703125 38.9375 
Q 34.1875 44 28.375 44 
Q 23.78125 44 20.140625 40.421875 
Q 16.5 36.859375 15.328125 31.78125 
z
" id="FranklinGothic-Book-112"/>
      <path d="M 46.1875 66.65625 
L 46.1875 0 
L 39.203125 0 
L 39.203125 8.453125 
Q 34.03125 -1.3125 23.640625 -1.3125 
Q 14.984375 -1.3125 9.421875 5.9375 
Q 3.859375 13.1875 3.859375 24.265625 
Q 3.859375 35.59375 9.375 43.140625 
Q 14.890625 50.6875 24.03125 50.6875 
Q 32.90625 50.6875 38.53125 42.578125 
L 38.53125 66.65625 
z
M 38.53125 30.28125 
Q 38.53125 36.765625 34.5625 40.671875 
Q 30.609375 44.578125 25.34375 44.578125 
Q 19.625 44.578125 15.9375 39.5 
Q 12.25 34.421875 12.25 25.25 
Q 12.25 15.328125 15.640625 10.15625 
Q 19.046875 4.984375 24.953125 4.984375 
Q 30.328125 4.984375 34.421875 9.46875 
Q 38.53125 13.96875 38.53125 20.015625 
z
" id="FranklinGothic-Book-100"/>
      <path id="FranklinGothic-Book-32"/>
      <path d="M 30.03125 5.28125 
L 30.03125 -0.78125 
Q 25.984375 -1.3125 23 -1.3125 
Q 8.6875 -1.3125 8.6875 13.625 
L 8.6875 43.3125 
L -0.046875 43.3125 
L -0.046875 49.3125 
L 8.6875 49.3125 
L 9.03125 61.71875 
L 16.15625 62.40625 
L 16.15625 49.3125 
L 27.203125 49.3125 
L 27.203125 43.3125 
L 16.15625 43.3125 
L 16.15625 12.359375 
Q 16.15625 4.734375 24.078125 4.734375 
Q 26.703125 4.734375 30.03125 5.28125 
z
" id="FranklinGothic-Book-116"/>
      <path d="M 48.875 66.65625 
L 48.1875 59.46875 
L 15.4375 59.46875 
L 14.015625 37.84375 
Q 21.4375 45.125 30.328125 45.125 
Q 39.703125 45.125 46.515625 38.625 
Q 53.328125 32.125 53.328125 22.015625 
Q 53.328125 11.765625 45.921875 5.21875 
Q 38.53125 -1.3125 27.828125 -1.3125 
Q 19.4375 -1.3125 12.890625 3.078125 
Q 6.34375 7.46875 4.296875 14.453125 
L 11.421875 16.890625 
Q 15.828125 5.28125 27.9375 5.28125 
Q 35.890625 5.28125 40.578125 9.984375 
Q 45.265625 14.703125 45.265625 22.015625 
Q 45.265625 29.6875 40.625 33.984375 
Q 35.984375 38.28125 29.5 38.28125 
Q 20.015625 38.28125 13.8125 29.203125 
L 7.234375 30.609375 
L 9.375 66.65625 
z
" id="FranklinGothic-Book-53"/>
      <path d="M 23.53125 27.984375 
L 23.53125 22.015625 
L 1.46875 22.015625 
L 1.46875 27.984375 
z
" id="FranklinGothic-Book-45"/>
      <path d="M 43.796875 49.3125 
L 26.765625 0 
L 18.796875 0 
L 1.171875 49.3125 
L 9.671875 49.3125 
L 23.390625 9.234375 
L 36.96875 49.3125 
z
" id="FranklinGothic-Book-118"/>
      <path d="M 47.953125 57.03125 
L 47.953125 50.921875 
Q 42.671875 50.921875 40.890625 49.703125 
Q 39.109375 48.484375 38.53125 45.3125 
Q 43.265625 39.84375 43.265625 33.40625 
Q 43.265625 26.65625 38.109375 21.828125 
Q 32.953125 17 24.265625 17 
Q 22.3125 17 20.90625 17.28125 
Q 18.21875 17.828125 17.53125 17.828125 
Q 16.21875 17.828125 14.359375 16.53125 
Q 12.5 15.234375 12.5 13.1875 
Q 12.5 10.25 15.1875 9.375 
Q 17.875 8.5 27.828125 8.25 
Q 36.28125 8.015625 40.3125 7.109375 
Q 44.34375 6.203125 47.125 3.09375 
Q 49.90625 0 49.90625 -4.5 
Q 49.90625 -18.609375 25.09375 -18.609375 
Q 13.328125 -18.609375 7.9375 -15.0625 
Q 2.546875 -11.53125 2.546875 -5.609375 
Q 2.546875 1.5625 10.0625 4.25 
Q 5.21875 7.421875 5.21875 12.203125 
Q 5.21875 17.921875 12.0625 20.953125 
Q 5.671875 26.125 5.671875 33.984375 
Q 5.671875 41.3125 11.140625 46 
Q 16.609375 50.6875 24.46875 50.6875 
Q 30.03125 50.6875 34.578125 48.578125 
Q 35.296875 53.421875 37.953125 55.265625 
Q 40.625 57.125 46.046875 57.125 
Q 46.578125 57.125 47.953125 57.03125 
z
M 24.515625 22.859375 
Q 29.390625 22.859375 32.46875 25.859375 
Q 35.546875 28.859375 35.546875 33.640625 
Q 35.546875 38.53125 32.34375 41.625 
Q 29.15625 44.734375 24.609375 44.734375 
Q 20.265625 44.734375 16.890625 41.828125 
Q 13.53125 38.921875 13.53125 33.546875 
Q 13.53125 28.765625 16.546875 25.8125 
Q 19.578125 22.859375 24.515625 22.859375 
z
M 15.328125 2 
Q 9.96875 -0.34375 9.96875 -4.78125 
Q 9.96875 -8.546875 14.375 -10.625 
Q 18.796875 -12.703125 25.640625 -12.703125 
Q 31.984375 -12.703125 37.25 -10.90625 
Q 42.53125 -9.125 42.53125 -4.890625 
Q 42.53125 -2.59375 40.96875 -1.125 
Q 39.40625 0.34375 36.6875 0.734375 
Q 33.984375 1.125 27.25 1.3125 
Q 19.1875 1.515625 15.328125 2 
z
" id="FranklinGothic-Book-103"/>
     </defs>
     <use xlink:href="#FranklinGothic-Book-67"/>
     <use x="57.910156" xlink:href="#FranklinGothic-Book-111"/>
     <use x="109.863281" xlink:href="#FranklinGothic-Book-109"/>
     <use x="190.384766" xlink:href="#FranklinGothic-Book-112"/>
     <use x="243.802734" xlink:href="#FranklinGothic-Book-97"/>
     <use x="296.683594" xlink:href="#FranklinGothic-Book-114"/>
     <use x="329.642578" xlink:href="#FranklinGothic-Book-101"/>
     <use x="381.693359" xlink:href="#FranklinGothic-Book-100"/>
     <use x="435.550781" xlink:href="#FranklinGothic-Book-32"/>
     <use x="460.550781" xlink:href="#FranklinGothic-Book-116"/>
     <use x="489.8125" xlink:href="#FranklinGothic-Book-111"/>
     <use x="541.765625" xlink:href="#FranklinGothic-Book-32"/>
     <use x="566.765625" xlink:href="#FranklinGothic-Book-49"/>
     <use x="624.783203" xlink:href="#FranklinGothic-Book-56"/>
     <use x="683.425781" xlink:href="#FranklinGothic-Book-53"/>
     <use x="742.068359" xlink:href="#FranklinGothic-Book-48"/>
     <use x="800.710938" xlink:href="#FranklinGothic-Book-45"/>
     <use x="825.710938" xlink:href="#FranklinGothic-Book-49"/>
     <use x="882.978516" xlink:href="#FranklinGothic-Book-57"/>
     <use x="941.621094" xlink:href="#FranklinGothic-Book-48"/>
     <use x="1000.263672" xlink:href="#FranklinGothic-Book-48"/>
     <use x="1058.90625" xlink:href="#FranklinGothic-Book-32"/>
     <use x="1083.90625" xlink:href="#FranklinGothic-Book-97"/>
     <use x="1134.537109" xlink:href="#FranklinGothic-Book-118"/>
     <use x="1178.056641" xlink:href="#FranklinGothic-Book-101"/>
     <use x="1230.107422" xlink:href="#FranklinGothic-Book-114"/>
     <use x="1263.066406" xlink:href="#FranklinGothic-Book-97"/>
     <use x="1315.947266" xlink:href="#FranklinGothic-Book-103"/>
     <use x="1365.068359" xlink:href="#FranklinGothic-Book-101"/>
    </g>
   </g>
   <g id="text_23">
    <!-- Global mean temperature -->
    <g style="fill:#696969;" transform="translate(144 42.76)scale(0.4 -0.4)">
     <defs>
      <path d="M 57.71875 33.59375 
L 57.71875 -0.875 
L 52.59375 -0.875 
L 50.296875 7.46875 
Q 44.140625 -1.3125 31.984375 -1.3125 
Q 18.796875 -1.3125 11.46875 8.59375 
Q 4.15625 18.5 4.15625 32.671875 
Q 4.15625 47.796875 11.90625 57.90625 
Q 19.671875 68.015625 33.015625 68.015625 
Q 51.421875 68.015625 57.03125 48.6875 
L 49.125 46.78125 
Q 47.40625 54.203125 42.71875 57.5625 
Q 38.03125 60.9375 32.46875 60.9375 
Q 22.609375 60.9375 17.921875 52.96875 
Q 13.234375 45.015625 13.234375 33.015625 
Q 13.234375 20.0625 18.484375 12.765625 
Q 23.734375 5.46875 32.765625 5.46875 
Q 39.796875 5.46875 44.5 10.125 
Q 49.21875 14.796875 49.21875 23 
Q 49.21875 24.515625 49.125 26.609375 
L 32.625 26.609375 
L 32.625 33.59375 
z
" id="FranklinGothic-Book-71"/>
      <path d="M 15.328125 0 
L 7.671875 0 
L 7.671875 66.65625 
L 15.328125 66.65625 
z
" id="FranklinGothic-Book-108"/>
      <path d="M 11.375 0 
L 7.671875 0 
L 7.671875 66.65625 
L 15.328125 66.65625 
L 15.328125 41.109375 
Q 20.609375 50.6875 29.890625 50.6875 
Q 38.375 50.6875 44.109375 44 
Q 49.859375 37.3125 49.859375 24.5625 
Q 49.859375 13.578125 44.21875 6.125 
Q 38.578125 -1.3125 29.546875 -1.3125 
Q 19.484375 -1.3125 14.109375 8.15625 
z
M 15.328125 19.34375 
Q 15.875 11.765625 20 8.34375 
Q 24.125 4.9375 28.71875 4.9375 
Q 34.578125 4.9375 38.15625 10.015625 
Q 41.75 15.09375 41.75 23.921875 
Q 41.75 33.453125 38.28125 38.890625 
Q 34.8125 44.34375 28.65625 44.34375 
Q 23.828125 44.34375 19.9375 40.453125 
Q 16.0625 36.578125 15.328125 30.421875 
z
" id="FranklinGothic-Book-98"/>
      <path d="M 46.53125 0 
L 39.359375 0 
L 39.359375 31.6875 
Q 39.359375 38.53125 36.375 41.3125 
Q 33.40625 44.09375 29.15625 44.09375 
Q 23.296875 44.09375 19.3125 39.40625 
Q 15.328125 34.71875 15.328125 27.046875 
L 15.328125 0 
L 7.671875 0 
L 7.671875 49.3125 
L 14.796875 49.3125 
L 14.796875 40.234375 
Q 20.796875 50.6875 30.375 50.6875 
Q 35.890625 50.6875 39.765625 47.828125 
Q 43.65625 44.96875 45.09375 41.40625 
Q 46.53125 37.84375 46.53125 28.515625 
z
" id="FranklinGothic-Book-110"/>
      <path d="M 46.484375 0 
L 39.59375 0 
L 39.59375 9.421875 
Q 34.328125 -1.3125 23.875 -1.3125 
Q 16.3125 -1.3125 11.984375 3.65625 
Q 7.671875 8.640625 7.671875 17.828125 
L 7.671875 49.3125 
L 15.328125 49.3125 
L 15.328125 17.828125 
Q 15.328125 10.5 18.375 7.734375 
Q 21.4375 4.984375 25.09375 4.984375 
Q 28.8125 4.984375 31.8125 7.078125 
Q 34.8125 9.1875 36.8125 13.0625 
Q 38.8125 16.9375 38.8125 21.53125 
L 38.8125 49.3125 
L 46.484375 49.3125 
z
" id="FranklinGothic-Book-117"/>
     </defs>
     <use xlink:href="#FranklinGothic-Book-71"/>
     <use x="64.697266" xlink:href="#FranklinGothic-Book-108"/>
     <use x="87.695312" xlink:href="#FranklinGothic-Book-111"/>
     <use x="139.648438" xlink:href="#FranklinGothic-Book-98"/>
     <use x="193.359375" xlink:href="#FranklinGothic-Book-97"/>
     <use x="246.240234" xlink:href="#FranklinGothic-Book-108"/>
     <use x="269.238281" xlink:href="#FranklinGothic-Book-32"/>
     <use x="294.238281" xlink:href="#FranklinGothic-Book-109"/>
     <use x="375.634766" xlink:href="#FranklinGothic-Book-101"/>
     <use x="427.685547" xlink:href="#FranklinGothic-Book-97"/>
     <use x="480.566406" xlink:href="#FranklinGothic-Book-110"/>
     <use x="534.765625" xlink:href="#FranklinGothic-Book-32"/>
     <use x="559.765625" xlink:href="#FranklinGothic-Book-116"/>
     <use x="588.777344" xlink:href="#FranklinGothic-Book-101"/>
     <use x="640.828125" xlink:href="#FranklinGothic-Book-109"/>
     <use x="721.349609" xlink:href="#FranklinGothic-Book-112"/>
     <use x="774.767578" xlink:href="#FranklinGothic-Book-101"/>
     <use x="826.818359" xlink:href="#FranklinGothic-Book-114"/>
     <use x="859.777344" xlink:href="#FranklinGothic-Book-97"/>
     <use x="912.658203" xlink:href="#FranklinGothic-Book-116"/>
     <use x="943.419922" xlink:href="#FranklinGothic-Book-117"/>
     <use x="997.570312" xlink:href="#FranklinGothic-Book-114"/>
     <use x="1030.529297" xlink:href="#FranklinGothic-Book-101"/>
    </g>
   </g>
   <g id="legend_1">
    <g id="line2d_22"/>
    <g id="text_24">
     <!-- HadCRUT5 (1850-2023) -->
     <g style="fill:#696969;" transform="translate(185.856 129.7184)scale(0.2 -0.2)">
      <defs>
       <path d="M 55.953125 0 
L 47.609375 0 
L 47.609375 31.734375 
L 16.703125 31.734375 
L 16.703125 0 
L 8.34375 0 
L 8.34375 66.65625 
L 16.703125 66.65625 
L 16.703125 39.0625 
L 47.609375 39.0625 
L 47.609375 66.65625 
L 55.953125 66.65625 
z
" id="FranklinGothic-Book-72"/>
       <path d="M 56.296875 0 
L 47.5625 0 
L 35.25 28.859375 
L 16.15625 28.859375 
L 16.15625 0 
L 8.34375 0 
L 8.34375 66.65625 
L 34.625 66.65625 
Q 45.3125 66.65625 50.453125 60.8125 
Q 55.609375 54.984375 55.609375 48.046875 
Q 55.609375 42.71875 52.734375 37.828125 
Q 49.859375 32.953125 43.21875 30.859375 
z
M 16.15625 35.640625 
L 33.59375 35.640625 
Q 40.484375 35.640625 43.875 39.28125 
Q 47.265625 42.921875 47.265625 48.1875 
Q 47.265625 53.46875 43.671875 56.390625 
Q 40.09375 59.328125 34.625 59.328125 
L 16.15625 59.328125 
z
" id="FranklinGothic-Book-82"/>
       <path d="M 46.34375 66.65625 
L 53.265625 66.65625 
L 53.265625 23.140625 
Q 53.265625 10.0625 46.84375 4.375 
Q 40.4375 -1.3125 30.03125 -1.3125 
Q 18.453125 -1.3125 12.890625 4.546875 
Q 7.328125 10.40625 7.328125 23.140625 
L 7.328125 66.65625 
L 15.671875 66.65625 
L 15.671875 23.140625 
Q 15.671875 15.375 17.46875 12.203125 
Q 19.28125 9.03125 22.9375 7.515625 
Q 26.609375 6 30.609375 6 
Q 38.328125 6 42.328125 10.046875 
Q 46.34375 14.109375 46.34375 23.140625 
z
" id="FranklinGothic-Book-85"/>
       <path d="M 28.421875 0 
L 20.125 0 
L 20.125 59.328125 
L 1.03125 59.328125 
L 1.03125 66.65625 
L 47.5625 66.65625 
L 47.5625 59.328125 
L 28.421875 59.328125 
z
" id="FranklinGothic-Book-84"/>
       <path d="M 24.703125 -16.65625 
L 19.578125 -16.65625 
Q 5.21875 2.203125 5.21875 25.09375 
Q 5.21875 46.96875 19.578125 66.65625 
L 24.703125 66.65625 
Q 12.359375 48.25 12.359375 25 
Q 12.359375 2.828125 24.703125 -16.65625 
z
" id="FranklinGothic-Book-40"/>
       <path d="M 19.34375 31.34375 
L 19.34375 37.984375 
L 26.953125 37.984375 
Q 35.296875 37.984375 38.890625 41.40625 
Q 42.484375 44.828125 42.484375 49.703125 
Q 42.484375 55.078125 38.46875 58.21875 
Q 34.46875 61.375 28.421875 61.375 
Q 17.1875 61.375 12.890625 50.53125 
L 5.375 52.6875 
Q 11.8125 68.015625 29.203125 68.015625 
Q 38.96875 68.015625 44.96875 62.8125 
Q 50.984375 57.625 50.984375 50.296875 
Q 50.984375 44.625 47.359375 40.40625 
Q 43.75 36.1875 38.09375 35.109375 
Q 44.4375 34.1875 49 29.78125 
Q 53.5625 25.390625 53.5625 18.40625 
Q 53.5625 10.0625 46.765625 4.375 
Q 39.984375 -1.3125 28.171875 -1.3125 
Q 18.796875 -1.3125 12.125 3.125 
Q 5.46875 7.5625 2.9375 14.9375 
L 10.6875 17.53125 
Q 14.203125 5.46875 28.03125 5.46875 
Q 37.015625 5.46875 40.9375 9.296875 
Q 44.875 13.140625 44.875 18.453125 
Q 44.875 24.21875 40.15625 27.78125 
Q 35.453125 31.34375 26.953125 31.34375 
z
" id="FranklinGothic-Book-51"/>
       <path d="M 4.640625 66.65625 
L 9.71875 66.65625 
Q 24.125 47.796875 24.125 24.90625 
Q 24.125 3.03125 9.71875 -16.65625 
L 4.640625 -16.65625 
Q 17 1.765625 17 25 
Q 17 47.171875 4.640625 66.65625 
z
" id="FranklinGothic-Book-41"/>
      </defs>
      <use xlink:href="#FranklinGothic-Book-72"/>
      <use x="64.257812" xlink:href="#FranklinGothic-Book-97"/>
      <use x="117.138672" xlink:href="#FranklinGothic-Book-100"/>
      <use x="170.996094" xlink:href="#FranklinGothic-Book-67"/>
      <use x="228.90625" xlink:href="#FranklinGothic-Book-82"/>
      <use x="289.310547" xlink:href="#FranklinGothic-Book-85"/>
      <use x="349.90625" xlink:href="#FranklinGothic-Book-84"/>
      <use x="398.441406" xlink:href="#FranklinGothic-Book-53"/>
      <use x="457.083984" xlink:href="#FranklinGothic-Book-32"/>
      <use x="482.083984" xlink:href="#FranklinGothic-Book-40"/>
      <use x="511.429688" xlink:href="#FranklinGothic-Book-49"/>
      <use x="569.447266" xlink:href="#FranklinGothic-Book-56"/>
      <use x="628.089844" xlink:href="#FranklinGothic-Book-53"/>
      <use x="686.732422" xlink:href="#FranklinGothic-Book-48"/>
      <use x="745.375" xlink:href="#FranklinGothic-Book-45"/>
      <use x="770.375" xlink:href="#FranklinGothic-Book-50"/>
      <use x="829.017578" xlink:href="#FranklinGothic-Book-48"/>
      <use x="887.660156" xlink:href="#FranklinGothic-Book-50"/>
      <use x="946.302734" xlink:href="#FranklinGothic-Book-51"/>
      <use x="1004.945312" xlink:href="#FranklinGothic-Book-41"/>
     </g>
    </g>
    <g id="line2d_23"/>
    <g id="text_25">
     <!-- NOAAGlobalTemp (1850-2023) -->
     <g style="fill:#e69f00;" transform="translate(185.856 157.04965)scale(0.2 -0.2)">
      <defs>
       <path d="M 57.421875 0 
L 49.3125 0 
L 14.84375 58.109375 
L 14.9375 53.71875 
Q 15.09375 51.21875 15.09375 49.515625 
L 15.09375 0 
L 8.34375 0 
L 8.34375 66.65625 
L 18.796875 66.65625 
L 51.03125 12.3125 
L 50.921875 16.9375 
Q 50.828125 19.671875 50.828125 21.78125 
L 50.828125 66.65625 
L 57.421875 66.65625 
z
" id="FranklinGothic-Book-78"/>
       <path d="M 31.34375 -1.3125 
Q 18.5 -1.3125 11.328125 8.671875 
Q 4.15625 18.65625 4.15625 33.15625 
Q 4.15625 48.296875 11.671875 58.15625 
Q 19.1875 68.015625 31.59375 68.015625 
Q 43.953125 68.015625 51.421875 58.328125 
Q 58.890625 48.640625 58.890625 33.890625 
Q 58.890625 19.734375 51.640625 9.203125 
Q 44.390625 -1.3125 31.34375 -1.3125 
z
M 31.546875 5.46875 
Q 40.28125 5.46875 45.203125 13.421875 
Q 50.140625 21.390625 50.140625 33.9375 
Q 50.140625 46.828125 45.03125 54 
Q 39.9375 61.1875 31.5 61.1875 
Q 22.953125 61.1875 17.921875 53.421875 
Q 12.890625 45.65625 12.890625 33.109375 
Q 12.890625 20.84375 17.96875 13.15625 
Q 23.046875 5.46875 31.546875 5.46875 
z
" id="FranklinGothic-Book-79"/>
       <path d="M 53.21875 0 
L 44.671875 0 
L 37.9375 19.484375 
L 13.28125 19.484375 
L 7.328125 0 
L 0.34375 0 
L 21.96875 66.65625 
L 31.5 66.65625 
z
M 36.1875 25.734375 
L 25.921875 57.765625 
L 15.578125 25.734375 
z
" id="FranklinGothic-Book-65"/>
      </defs>
      <use xlink:href="#FranklinGothic-Book-78"/>
      <use x="65.722656" xlink:href="#FranklinGothic-Book-79"/>
      <use x="127.058594" xlink:href="#FranklinGothic-Book-65"/>
      <use x="180.623047" xlink:href="#FranklinGothic-Book-65"/>
      <use x="231.5625" xlink:href="#FranklinGothic-Book-71"/>
      <use x="296.259766" xlink:href="#FranklinGothic-Book-108"/>
      <use x="319.257812" xlink:href="#FranklinGothic-Book-111"/>
      <use x="371.210938" xlink:href="#FranklinGothic-Book-98"/>
      <use x="424.921875" xlink:href="#FranklinGothic-Book-97"/>
      <use x="477.802734" xlink:href="#FranklinGothic-Book-108"/>
      <use x="500.800781" xlink:href="#FranklinGothic-Book-84"/>
      <use x="542.835938" xlink:href="#FranklinGothic-Book-101"/>
      <use x="594.886719" xlink:href="#FranklinGothic-Book-109"/>
      <use x="675.408203" xlink:href="#FranklinGothic-Book-112"/>
      <use x="728.826172" xlink:href="#FranklinGothic-Book-32"/>
      <use x="753.826172" xlink:href="#FranklinGothic-Book-40"/>
      <use x="783.171875" xlink:href="#FranklinGothic-Book-49"/>
      <use x="841.189453" xlink:href="#FranklinGothic-Book-56"/>
      <use x="899.832031" xlink:href="#FranklinGothic-Book-53"/>
      <use x="958.474609" xlink:href="#FranklinGothic-Book-48"/>
      <use x="1017.117188" xlink:href="#FranklinGothic-Book-45"/>
      <use x="1042.117188" xlink:href="#FranklinGothic-Book-50"/>
      <use x="1100.759766" xlink:href="#FranklinGothic-Book-48"/>
      <use x="1159.402344" xlink:href="#FranklinGothic-Book-50"/>
      <use x="1218.044922" xlink:href="#FranklinGothic-Book-51"/>
      <use x="1276.6875" xlink:href="#FranklinGothic-Book-41"/>
     </g>
    </g>
    <g id="line2d_24"/>
    <g id="text_26">
     <!-- NOAAGlobalTemp (1880-2022) -->
     <g style="fill:#e69f00;" transform="translate(185.856 184.3809)scale(0.2 -0.2)">
      <use xlink:href="#FranklinGothic-Book-78"/>
      <use x="65.722656" xlink:href="#FranklinGothic-Book-79"/>
      <use x="127.058594" xlink:href="#FranklinGothic-Book-65"/>
      <use x="180.623047" xlink:href="#FranklinGothic-Book-65"/>
      <use x="231.5625" xlink:href="#FranklinGothic-Book-71"/>
      <use x="296.259766" xlink:href="#FranklinGothic-Book-108"/>
      <use x="319.257812" xlink:href="#FranklinGothic-Book-111"/>
      <use x="371.210938" xlink:href="#FranklinGothic-Book-98"/>
      <use x="424.921875" xlink:href="#FranklinGothic-Book-97"/>
      <use x="477.802734" xlink:href="#FranklinGothic-Book-108"/>
      <use x="500.800781" xlink:href="#FranklinGothic-Book-84"/>
      <use x="542.835938" xlink:href="#FranklinGothic-Book-101"/>
      <use x="594.886719" xlink:href="#FranklinGothic-Book-109"/>
      <use x="675.408203" xlink:href="#FranklinGothic-Book-112"/>
      <use x="728.826172" xlink:href="#FranklinGothic-Book-32"/>
      <use x="753.826172" xlink:href="#FranklinGothic-Book-40"/>
      <use x="783.171875" xlink:href="#FranklinGothic-Book-49"/>
      <use x="841.189453" xlink:href="#FranklinGothic-Book-56"/>
      <use x="899.832031" xlink:href="#FranklinGothic-Book-56"/>
      <use x="958.474609" xlink:href="#FranklinGothic-Book-48"/>
      <use x="1017.117188" xlink:href="#FranklinGothic-Book-45"/>
      <use x="1042.117188" xlink:href="#FranklinGothic-Book-50"/>
      <use x="1100.759766" xlink:href="#FranklinGothic-Book-48"/>
      <use x="1159.402344" xlink:href="#FranklinGothic-Book-50"/>
      <use x="1218.044922" xlink:href="#FranklinGothic-Book-50"/>
      <use x="1276.6875" xlink:href="#FranklinGothic-Book-41"/>
     </g>
    </g>
    <g id="line2d_25"/>
    <g id="text_27">
     <!-- GISTEMP (1880-2023) -->
     <g style="fill:#56b4e9;" transform="translate(185.856 211.71215)scale(0.2 -0.2)">
      <defs>
       <path d="M 16.703125 0 
L 8.34375 0 
L 8.34375 66.65625 
L 16.703125 66.65625 
z
" id="FranklinGothic-Book-73"/>
       <path d="M 1.03125 17.71875 
L 8.546875 19.4375 
Q 13.09375 5.8125 28.21875 5.8125 
Q 36.140625 5.8125 40.140625 9.15625 
Q 44.140625 12.5 44.140625 18.109375 
Q 44.140625 22.359375 41.078125 24.953125 
Q 38.03125 27.546875 34.03125 28.515625 
L 20.703125 31.84375 
Q 15.53125 33.15625 12.234375 35.03125 
Q 8.9375 36.921875 6.640625 40.828125 
Q 4.34375 44.734375 4.34375 49.75 
Q 4.34375 58.109375 10.640625 63.0625 
Q 16.9375 68.015625 26.8125 68.015625 
Q 44.96875 68.015625 50.6875 51.5625 
L 43.109375 49.3125 
Q 41.796875 55.171875 36.90625 58.171875 
Q 32.03125 61.1875 26.515625 61.1875 
Q 21.046875 61.1875 16.765625 58.296875 
Q 12.5 55.421875 12.5 50.140625 
Q 12.5 42.78125 23.34375 40.1875 
L 35.796875 37.203125 
Q 52.875 33.109375 52.875 18.796875 
Q 52.875 10.15625 46.453125 4.421875 
Q 40.046875 -1.3125 28.375 -1.3125 
Q 7.671875 -1.3125 1.03125 17.71875 
z
" id="FranklinGothic-Book-83"/>
       <path d="M 51.46875 7.328125 
L 51.46875 0 
L 8.34375 0 
L 8.34375 66.65625 
L 50.53125 66.65625 
L 50.53125 59.328125 
L 16.703125 59.328125 
L 16.703125 38.140625 
L 43.5625 38.140625 
L 43.5625 31.34375 
L 16.703125 31.34375 
L 16.703125 7.328125 
z
" id="FranklinGothic-Book-69"/>
       <path d="M 72.703125 0 
L 64.59375 0 
L 64.59375 58.203125 
L 42.921875 0 
L 37.25 0 
L 15.4375 58.203125 
L 15.4375 0 
L 8.34375 0 
L 8.34375 66.65625 
L 20.75 66.65625 
L 40.828125 13.328125 
L 60.5 66.65625 
L 72.703125 66.65625 
z
" id="FranklinGothic-Book-77"/>
       <path d="M 16.703125 0 
L 8.34375 0 
L 8.34375 66.65625 
L 31.984375 66.65625 
Q 43.0625 66.65625 48.328125 60.625 
Q 53.609375 54.59375 53.609375 46.875 
Q 53.609375 38.28125 47.875 32.65625 
Q 42.140625 27.046875 32.859375 27.046875 
L 16.703125 27.046875 
z
M 16.703125 33.984375 
L 32.03125 33.984375 
Q 37.9375 33.984375 41.546875 37.515625 
Q 45.171875 41.0625 45.171875 46.875 
Q 45.171875 51.859375 41.9375 55.765625 
Q 38.71875 59.671875 32.625 59.671875 
L 16.703125 59.671875 
z
" id="FranklinGothic-Book-80"/>
      </defs>
      <use xlink:href="#FranklinGothic-Book-71"/>
      <use x="64.697266" xlink:href="#FranklinGothic-Book-73"/>
      <use x="89.697266" xlink:href="#FranklinGothic-Book-83"/>
      <use x="144.630859" xlink:href="#FranklinGothic-Book-84"/>
      <use x="193.166016" xlink:href="#FranklinGothic-Book-69"/>
      <use x="247.951172" xlink:href="#FranklinGothic-Book-77"/>
      <use x="328.957031" xlink:href="#FranklinGothic-Book-80"/>
      <use x="384.865234" xlink:href="#FranklinGothic-Book-32"/>
      <use x="409.865234" xlink:href="#FranklinGothic-Book-40"/>
      <use x="439.210938" xlink:href="#FranklinGothic-Book-49"/>
      <use x="497.228516" xlink:href="#FranklinGothic-Book-56"/>
      <use x="555.871094" xlink:href="#FranklinGothic-Book-56"/>
      <use x="614.513672" xlink:href="#FranklinGothic-Book-48"/>
      <use x="673.15625" xlink:href="#FranklinGothic-Book-45"/>
      <use x="698.15625" xlink:href="#FranklinGothic-Book-50"/>
      <use x="756.798828" xlink:href="#FranklinGothic-Book-48"/>
      <use x="815.441406" xlink:href="#FranklinGothic-Book-50"/>
      <use x="874.083984" xlink:href="#FranklinGothic-Book-51"/>
      <use x="932.726562" xlink:href="#FranklinGothic-Book-41"/>
     </g>
    </g>
    <g id="line2d_26"/>
    <g id="text_28">
     <!-- Berkeley Earth (1850-2023) -->
     <g style="fill:#009e73;" transform="translate(185.856 239.0434)scale(0.2 -0.2)">
      <defs>
       <path d="M 8.34375 0 
L 8.34375 66.65625 
L 34.71875 66.65625 
Q 44.671875 66.65625 49.484375 61.765625 
Q 54.296875 56.890625 54.296875 50.4375 
Q 54.296875 39.109375 42.484375 35.40625 
Q 49.515625 33.59375 52.921875 28.953125 
Q 56.34375 24.3125 56.34375 18.453125 
Q 56.34375 10.59375 51.046875 5.296875 
Q 45.75 0 34.71875 0 
z
M 16.40625 38.09375 
L 30.90625 38.09375 
Q 39.9375 38.09375 42.96875 41.53125 
Q 46 44.96875 46 49.609375 
Q 46 54.203125 42.75 57.03125 
Q 39.5 59.859375 33.0625 59.859375 
L 16.40625 59.859375 
z
M 16.40625 7.328125 
L 34.28125 7.328125 
Q 40.828125 7.328125 44.390625 10.5 
Q 47.953125 13.671875 47.953125 18.75 
Q 47.953125 22.3125 46.34375 25.359375 
Q 44.734375 28.421875 41.796875 30.078125 
Q 38.875 31.734375 33.0625 31.734375 
L 16.40625 31.734375 
z
" id="FranklinGothic-Book-66"/>
       <path d="M 48.390625 0 
L 40.4375 0 
L 26.03125 27.546875 
L 15.328125 15.234375 
L 15.328125 0 
L 7.671875 0 
L 7.671875 66.65625 
L 15.328125 66.65625 
L 15.328125 23.96875 
L 38.234375 49.3125 
L 46.4375 49.3125 
L 31 31.984375 
z
" id="FranklinGothic-Book-107"/>
       <path d="M 41.5 49.3125 
L 21.734375 -5.765625 
Q 17.4375 -17.671875 8.015625 -17.671875 
Q 5.03125 -17.671875 1.421875 -16.65625 
L 1.421875 -10.640625 
Q 4.390625 -11.328125 6.546875 -11.328125 
Q 10.203125 -11.328125 12.671875 -9.21875 
Q 15.140625 -7.125 17.578125 0.921875 
L 0.53125 49.3125 
L 8.34375 49.3125 
L 21.53125 12.25 
L 35.0625 49.3125 
z
" id="FranklinGothic-Book-121"/>
       <path d="M 46.34375 0 
L 38.671875 0 
L 38.671875 29.9375 
Q 38.671875 35.203125 38.015625 37.84375 
Q 37.359375 40.484375 34.890625 42.40625 
Q 32.421875 44.34375 29.203125 44.34375 
Q 23.296875 44.34375 19.3125 39.5 
Q 15.328125 34.671875 15.328125 26.5625 
L 15.328125 0 
L 7.671875 0 
L 7.671875 66.65625 
L 15.328125 66.65625 
L 15.328125 40.234375 
Q 20.5625 50.6875 30.28125 50.6875 
Q 34.625 50.6875 38.015625 48.96875 
Q 41.40625 47.265625 43.203125 44.484375 
Q 45.015625 41.703125 45.671875 38.984375 
Q 46.34375 36.28125 46.34375 29.9375 
z
" id="FranklinGothic-Book-104"/>
      </defs>
      <use xlink:href="#FranklinGothic-Book-66"/>
      <use x="60.449219" xlink:href="#FranklinGothic-Book-101"/>
      <use x="112.5" xlink:href="#FranklinGothic-Book-114"/>
      <use x="144.958984" xlink:href="#FranklinGothic-Book-107"/>
      <use x="192.806641" xlink:href="#FranklinGothic-Book-101"/>
      <use x="244.857422" xlink:href="#FranklinGothic-Book-108"/>
      <use x="267.855469" xlink:href="#FranklinGothic-Book-101"/>
      <use x="318.28125" xlink:href="#FranklinGothic-Book-121"/>
      <use x="359.785156" xlink:href="#FranklinGothic-Book-32"/>
      <use x="384.785156" xlink:href="#FranklinGothic-Book-69"/>
      <use x="439.570312" xlink:href="#FranklinGothic-Book-97"/>
      <use x="492.451172" xlink:href="#FranklinGothic-Book-114"/>
      <use x="528.785156" xlink:href="#FranklinGothic-Book-116"/>
      <use x="559.546875" xlink:href="#FranklinGothic-Book-104"/>
      <use x="613.550781" xlink:href="#FranklinGothic-Book-32"/>
      <use x="638.550781" xlink:href="#FranklinGothic-Book-40"/>
      <use x="667.896484" xlink:href="#FranklinGothic-Book-49"/>
      <use x="725.914062" xlink:href="#FranklinGothic-Book-56"/>
      <use x="784.556641" xlink:href="#FranklinGothic-Book-53"/>
      <use x="843.199219" xlink:href="#FranklinGothic-Book-48"/>
      <use x="901.841797" xlink:href="#FranklinGothic-Book-45"/>
      <use x="926.841797" xlink:href="#FranklinGothic-Book-50"/>
      <use x="985.484375" xlink:href="#FranklinGothic-Book-48"/>
      <use x="1044.126953" xlink:href="#FranklinGothic-Book-50"/>
      <use x="1102.769531" xlink:href="#FranklinGothic-Book-51"/>
      <use x="1161.412109" xlink:href="#FranklinGothic-Book-41"/>
     </g>
    </g>
    <g id="line2d_27"/>
    <g id="text_29">
     <!-- JRA-55 (1958-2023) -->
     <g style="fill:#d55e00;" transform="translate(185.856 266.577775)scale(0.2 -0.2)">
      <defs>
       <path d="M 29.6875 66.65625 
L 29.6875 20.359375 
Q 29.6875 8.25 24.21875 3.46875 
Q 18.75 -1.3125 9.71875 -1.3125 
Q 4.890625 -1.3125 0 0 
L 0 6.84375 
Q 4.78125 5.859375 8.6875 5.859375 
Q 14.265625 5.859375 16.890625 7.515625 
Q 19.53125 9.1875 20.4375 11.8125 
Q 21.34375 14.453125 21.34375 20.359375 
L 21.34375 66.65625 
z
" id="FranklinGothic-Book-74"/>
      </defs>
      <use xlink:href="#FranklinGothic-Book-74"/>
      <use x="37.353516" xlink:href="#FranklinGothic-Book-82"/>
      <use x="98.632812" xlink:href="#FranklinGothic-Book-65"/>
      <use x="153.947266" xlink:href="#FranklinGothic-Book-45"/>
      <use x="178.947266" xlink:href="#FranklinGothic-Book-53"/>
      <use x="237.589844" xlink:href="#FranklinGothic-Book-53"/>
      <use x="296.232422" xlink:href="#FranklinGothic-Book-32"/>
      <use x="321.232422" xlink:href="#FranklinGothic-Book-40"/>
      <use x="350.578125" xlink:href="#FranklinGothic-Book-49"/>
      <use x="407.845703" xlink:href="#FranklinGothic-Book-57"/>
      <use x="466.488281" xlink:href="#FranklinGothic-Book-53"/>
      <use x="525.130859" xlink:href="#FranklinGothic-Book-56"/>
      <use x="583.773438" xlink:href="#FranklinGothic-Book-45"/>
      <use x="608.773438" xlink:href="#FranklinGothic-Book-50"/>
      <use x="667.416016" xlink:href="#FranklinGothic-Book-48"/>
      <use x="726.058594" xlink:href="#FranklinGothic-Book-50"/>
      <use x="784.701172" xlink:href="#FranklinGothic-Book-51"/>
      <use x="843.34375" xlink:href="#FranklinGothic-Book-41"/>
     </g>
    </g>
    <g id="line2d_28"/>
    <g id="text_30">
     <!-- ERA5 (1979-2023) -->
     <g style="fill:#0072b2;" transform="translate(185.856 293.909025)scale(0.2 -0.2)">
      <defs>
       <path d="M 28.078125 0 
L 19.484375 0 
Q 19.484375 16.75 26.3125 32.59375 
Q 33.15625 48.4375 43.0625 59.328125 
L 6.890625 59.328125 
L 7.71875 66.65625 
L 51.765625 66.65625 
L 51.765625 61.671875 
Q 39.84375 47.3125 33.9375 31.78125 
Q 28.03125 16.265625 28.03125 2.296875 
Q 28.03125 1.515625 28.078125 0 
z
" id="FranklinGothic-Book-55"/>
      </defs>
      <use xlink:href="#FranklinGothic-Book-69"/>
      <use x="54.785156" xlink:href="#FranklinGothic-Book-82"/>
      <use x="116.064453" xlink:href="#FranklinGothic-Book-65"/>
      <use x="169.628906" xlink:href="#FranklinGothic-Book-53"/>
      <use x="228.271484" xlink:href="#FranklinGothic-Book-32"/>
      <use x="253.271484" xlink:href="#FranklinGothic-Book-40"/>
      <use x="282.617188" xlink:href="#FranklinGothic-Book-49"/>
      <use x="339.884766" xlink:href="#FranklinGothic-Book-57"/>
      <use x="392.777344" xlink:href="#FranklinGothic-Book-55"/>
      <use x="451.419922" xlink:href="#FranklinGothic-Book-57"/>
      <use x="510.0625" xlink:href="#FranklinGothic-Book-45"/>
      <use x="535.0625" xlink:href="#FranklinGothic-Book-50"/>
      <use x="593.705078" xlink:href="#FranklinGothic-Book-48"/>
      <use x="652.347656" xlink:href="#FranklinGothic-Book-50"/>
      <use x="710.990234" xlink:href="#FranklinGothic-Book-51"/>
      <use x="769.632812" xlink:href="#FranklinGothic-Book-41"/>
     </g>
    </g>
   </g>
   <g id="line2d_29">
    <path clip-path="url(#pf97c1ee569)" d="M 184.581818 517.054825 
L 189.273358 484.4935 
L 193.964898 477.577025 
L 198.656437 478.946846 
L 203.347977 475.960187 
L 208.039517 474.478085 
L 212.731056 508.790985 
L 217.422596 547.235806 
L 222.114136 491.634535 
L 226.805675 461.049345 
L 231.497215 502.480825 
L 236.188755 524.061124 
L 240.880294 554.04 
L 245.571834 488.468227 
L 250.263374 497.854871 
L 254.954913 472.591774 
L 259.646453 461.184082 
L 264.337993 448.967971 
L 269.029532 455.817077 
L 273.721072 455.525148 
L 278.412612 475.061943 
L 283.104151 484.942621 
L 287.795691 476.386852 
L 292.487231 466.93284 
L 297.17877 479.890002 
L 301.87031 490.556643 
L 306.56185 491.656991 
L 311.253389 387.146364 
L 315.944929 365.431328 
L 320.636469 457.905493 
L 325.328008 479.710353 
L 330.019548 448.676042 
L 339.402627 477.666849 
L 344.094167 524.465334 
L 348.785707 513.821149 
L 353.477246 520.939728 
L 358.168786 529.113744 
L 362.860326 474.927207 
L 367.551865 440.951148 
L 372.243405 519.951661 
L 376.934945 487.569984 
L 381.626484 504.524329 
L 386.318024 498.416273 
L 391.009564 495.45207 
L 395.701104 475.915275 
L 400.392643 452.426208 
L 405.084183 448.384112 
L 409.775723 503.940471 
L 414.467262 458.377071 
L 419.158802 429.565912 
L 423.850342 450.337792 
L 428.541881 493.588215 
L 433.233421 520.198677 
L 437.924961 535.558641 
L 442.6165 486.649284 
L 447.30804 463.250042 
L 451.99958 509.217651 
L 456.691119 514.629568 
L 461.382659 532.145316 
L 466.074199 521.231657 
L 470.765738 524.914456 
L 475.457278 506.680113 
L 480.148818 498.214169 
L 484.840357 447.485869 
L 489.531897 433.13643 
L 494.223437 496.88926 
L 498.914976 537.242847 
L 503.606516 492.892076 
L 508.298056 475.174224 
L 517.681135 444.274649 
L 522.372675 468.572134 
L 527.064214 459.522331 
L 531.755754 461.992501 
L 536.447294 450.203055 
L 541.138833 413.442442 
L 545.830373 445.083068 
L 550.521913 442.54553 
L 555.213452 492.061201 
L 559.904992 429.902753 
L 564.596532 413.50981 
L 569.288071 424.3561 
L 573.979611 477.038079 
L 578.671151 437.133613 
L 583.36269 453.593925 
L 588.05423 434.91046 
L 592.74577 392.176528 
L 597.43731 390.424953 
L 602.128849 396.510552 
L 606.820389 373.964641 
L 611.511929 385.978648 
L 616.203468 383.261461 
L 620.895008 368.687461 
L 625.586548 340.505072 
L 630.278087 374.593412 
L 634.969627 414.116124 
L 639.661167 395.275468 
L 644.352706 420.381372 
L 649.044246 423.121015 
L 653.735786 440.389746 
L 658.427325 392.288808 
L 667.810405 353.102937 
L 672.501944 405.740004 
L 677.193484 419.30348 
L 681.885024 441.490094 
L 686.576563 379.690944 
L 691.268103 378.298666 
L 695.959643 383.0369 
L 700.651182 398.598968 
L 705.342722 378.141474 
L 710.034262 393.815822 
L 714.725801 382.789883 
L 719.417341 454.581992 
L 724.108881 421.863474 
L 728.80042 406.054389 
L 733.49196 397.655813 
L 738.1835 418.180676 
L 742.875039 377.849544 
L 747.566579 390.67197 
L 752.258119 422.80663 
L 756.949658 393.209508 
L 761.641198 356.179421 
L 766.332738 411.354026 
L 771.024277 393.725998 
L 775.715817 420.179268 
L 780.407357 331.455269 
L 785.098896 365.25168 
L 789.790436 344.749273 
L 794.481976 311.806194 
L 799.173516 298.354998 
L 803.865055 356.516262 
L 808.556595 307.629362 
L 813.248135 353.013113 
L 817.939674 354.00118 
L 822.631214 339.359812 
L 827.322754 301.858147 
L 832.014293 290.091158 
L 836.705833 321.013189 
L 841.397373 270.576819 
L 846.088912 273.630846 
L 850.780452 329.771063 
L 855.471992 314.208995 
L 860.163531 300.690431 
L 864.855071 258.472988 
L 869.546611 288.294671 
L 874.23815 250.478621 
L 878.92969 209.922929 
L 883.62123 275.247685 
L 888.312769 274.798563 
L 893.004309 238.621807 
L 897.695849 213.381166 
L 902.387388 218.074488 
L 907.078928 241.653379 
L 911.770468 196.539101 
L 916.462007 210.057665 
L 921.153547 206.487147 
L 925.845087 241.091977 
L 930.536626 204.713117 
L 935.228166 186.141933 
L 939.919706 215.626775 
L 949.302785 205.319431 
L 953.994325 186.366494 
L 958.685864 146.731501 
L 963.377404 109.791238 
L 968.068944 135.728018 
L 972.760483 155.781304 
L 977.452023 118.998234 
L 982.143563 112.328776 
L 986.835102 153.939905 
L 991.526642 142.577125 
L 996.218182 114.25476 
L 996.218182 114.25476 
" style="fill:none;stroke:#009e73;stroke-linecap:round;stroke-width:3;"/>
   </g>
   <g id="line2d_30">
    <path clip-path="url(#pf97c1ee569)" d="M 325.328008 430.321185 
L 330.019548 408.31422 
L 334.711088 415.275607 
L 339.402627 431.219428 
L 344.094167 461.535145 
L 348.785707 474.335115 
L 353.477246 469.394776 
L 358.168786 482.419306 
L 362.860326 431.219428 
L 367.551865 413.47912 
L 372.243405 479.949136 
L 376.934945 445.591324 
L 381.626484 458.840415 
L 386.318024 470.51758 
L 391.009564 469.843897 
L 395.701104 447.612372 
L 400.392643 413.928242 
L 405.084183 413.029998 
L 409.775723 458.391293 
L 414.467262 432.791354 
L 419.158802 405.170368 
L 423.850342 425.605407 
L 428.541881 457.49305 
L 433.233421 482.419306 
L 437.924961 510.264853 
L 442.6165 454.349198 
L 447.30804 443.345715 
L 451.99958 487.359645 
L 456.691119 498.812249 
L 461.382659 514.306949 
L 466.074199 500.608736 
L 470.765738 503.078906 
L 475.457278 480.622819 
L 480.148818 476.131602 
L 484.840357 424.482602 
L 489.531897 420.889629 
L 494.223437 479.949136 
L 498.914976 507.345562 
L 503.606516 463.556193 
L 508.298056 457.717611 
L 512.989595 457.043928 
L 517.681135 433.914159 
L 522.372675 459.064976 
L 527.064214 454.349198 
L 531.755754 456.594806 
L 536.447294 442.447472 
L 541.138833 413.029998 
L 545.830373 442.222911 
L 550.521913 436.608889 
L 555.213452 480.84738 
L 559.904992 426.054528 
L 564.596532 409.212464 
L 569.288071 426.50365 
L 573.979611 460.412341 
L 578.671151 417.521216 
L 583.36269 436.384328 
L 588.05423 422.910676 
L 592.74577 391.247594 
L 597.43731 383.837086 
L 602.128849 388.328303 
L 606.820389 349.928395 
L 611.511929 333.984573 
L 616.203468 365.647655 
L 620.895008 360.033634 
L 625.586548 328.595113 
L 630.278087 359.13539 
L 634.969627 403.14932 
L 639.661167 390.573912 
L 644.352706 412.580876 
L 649.044246 413.928242 
L 653.735786 430.994868 
L 658.427325 402.924759 
L 663.118865 381.816038 
L 667.810405 363.177486 
L 672.501944 419.991385 
L 677.193484 422.461555 
L 681.885024 435.935207 
L 686.576563 371.486238 
L 691.268103 368.117825 
L 695.959643 376.426577 
L 700.651182 391.247594 
L 705.342722 369.016068 
L 710.034262 376.202016 
L 714.725801 369.689751 
L 719.417341 437.956254 
L 724.108881 413.254559 
L 728.80042 400.005468 
L 733.49196 390.798472 
L 738.1835 406.966855 
L 742.875039 370.587995 
L 747.566579 377.549381 
L 752.258119 406.293172 
L 756.949658 382.26516 
L 761.641198 340.94596 
L 766.332738 403.823003 
L 771.024277 388.328303 
L 775.715817 411.233511 
L 780.407357 336.679304 
L 785.098896 366.096777 
L 789.790436 340.047717 
L 794.481976 315.570582 
L 799.173516 297.830274 
L 803.865055 347.233664 
L 808.556595 300.525004 
L 813.248135 342.293325 
L 817.939674 353.072247 
L 822.631214 336.005621 
L 827.322754 298.054835 
L 832.014293 279.640844 
L 836.705833 311.079365 
L 841.397373 263.921583 
L 846.088912 275.374187 
L 850.780452 325.002139 
L 855.471992 322.082847 
L 860.163531 299.626761 
L 864.855071 264.146144 
L 869.546611 295.360104 
L 874.23815 259.654927 
L 878.92969 221.030458 
L 883.62123 281.661892 
L 888.312769 278.293479 
L 893.004309 240.342692 
L 897.695849 215.640997 
L 902.387388 218.111166 
L 907.078928 241.016375 
L 911.770468 202.167345 
L 916.462007 212.721706 
L 921.153547 205.535758 
L 925.845087 238.770766 
L 930.536626 208.230488 
L 935.228166 190.265619 
L 939.919706 220.356775 
L 944.611245 210.476097 
L 949.302785 202.167345 
L 953.994325 183.977915 
L 958.685864 143.107837 
L 963.377404 111.444755 
L 968.068944 136.820133 
L 972.760483 156.356928 
L 977.452023 121.325433 
L 982.143563 111.220194 
L 986.835102 157.255172 
L 991.526642 144.455202 
L 996.218182 119.663683 
L 996.218182 119.663683 
" style="fill:none;stroke:#56b4e9;stroke-linecap:round;stroke-width:3;"/>
   </g>
   <g id="line2d_31">
    <path clip-path="url(#pf97c1ee569)" d="M 325.328008 421.166585 
L 330.019548 410.882775 
L 334.711088 414.697368 
L 339.402627 437.13805 
L 344.094167 460.413649 
L 348.785707 456.69775 
L 353.477246 453.500385 
L 358.168786 465.445878 
L 362.860326 423.316396 
L 367.551865 410.677436 
L 372.243405 479.657976 
L 376.934945 456.100598 
L 381.626484 468.959627 
L 386.318024 476.145732 
L 391.009564 471.775867 
L 395.701104 453.589716 
L 400.392643 413.379106 
L 405.084183 414.931315 
L 409.775723 461.884275 
L 414.467262 430.660008 
L 419.158802 408.434792 
L 423.850342 430.088343 
L 428.541881 458.559584 
L 433.233421 489.089353 
L 437.924961 509.679855 
L 442.6165 462.181549 
L 447.30804 443.665989 
L 451.99958 490.355315 
L 456.691119 503.756546 
L 461.382659 507.403459 
L 466.074199 497.024458 
L 470.765738 508.33898 
L 475.457278 480.174915 
L 480.148818 475.186722 
L 484.840357 426.92729 
L 489.531897 414.878476 
L 494.223437 476.972812 
L 498.914976 496.56211 
L 503.606516 471.556404 
L 508.298056 457.017345 
L 512.989595 451.967959 
L 517.681135 432.781254 
L 522.372675 456.045042 
L 527.064214 457.295172 
L 531.755754 454.704189 
L 536.447294 437.836164 
L 541.138833 409.517602 
L 545.830373 436.021151 
L 550.521913 438.186726 
L 555.213452 477.724709 
L 559.904992 419.0278 
L 564.596532 406.070076 
L 569.288071 424.312593 
L 573.979611 459.353429 
L 578.671151 419.231409 
L 583.36269 431.881529 
L 588.05423 421.541332 
L 592.74577 392.472175 
L 597.43731 395.069985 
L 602.128849 386.869449 
L 606.820389 346.952385 
L 611.511929 316.311144 
L 616.203468 360.293187 
L 620.895008 361.11984 
L 625.586548 314.606278 
L 630.278087 341.399286 
L 634.969627 391.88122 
L 639.661167 398.610726 
L 644.352706 403.570175 
L 649.044246 408.880792 
L 653.735786 430.281376 
L 658.427325 389.27609 
L 663.118865 377.781448 
L 667.810405 354.685812 
L 672.501944 416.268822 
L 677.193484 424.126903 
L 681.885024 438.766183 
L 686.576563 370.556157 
L 691.268103 356.280441 
L 695.959643 368.168244 
L 700.651182 376.451217 
L 705.342722 364.087906 
L 710.034262 361.19271 
L 714.725801 357.698341 
L 719.417341 427.948435 
L 724.108881 408.7119 
L 728.80042 392.632354 
L 733.49196 390.518024 
L 738.1835 397.30349 
L 742.875039 361.503951 
L 747.566579 374.445282 
L 752.258119 407.829847 
L 756.949658 379.993125 
L 761.641198 337.717252 
L 766.332738 406.585533 
L 771.024277 386.325315 
L 775.715817 408.31198 
L 780.407357 332.907989 
L 785.098896 358.575947 
L 789.790436 328.783704 
L 794.481976 314.455284 
L 799.173516 302.769877 
L 803.865055 338.067432 
L 808.556595 293.252269 
L 813.248135 344.756471 
L 817.939674 347.638283 
L 822.631214 326.203859 
L 827.322754 286.55647 
L 832.014293 284.044824 
L 836.705833 310.62587 
L 841.397373 269.186418 
L 846.088912 284.955509 
L 850.780452 326.358155 
L 855.471992 314.180578 
L 860.163531 297.176807 
L 864.855071 263.535838 
L 869.546611 302.803337 
L 874.23815 251.439036 
L 878.92969 214.433112 
L 883.62123 271.533483 
L 888.312769 275.581305 
L 893.004309 236.447757 
L 897.695849 222.945248 
L 902.387388 218.107309 
L 907.078928 233.248123 
L 911.770468 210.353851 
L 916.462007 218.997671 
L 921.153547 223.4186 
L 925.845087 243.926621 
L 930.536626 216.73504 
L 935.228166 195.413458 
L 939.919706 235.577965 
L 944.611245 219.06304 
L 949.302785 208.984546 
L 953.994325 191.056303 
L 958.685864 140.15983 
L 963.377404 122.145849 
L 968.068944 145.63496 
L 972.760483 168.515377 
L 977.452023 135.115744 
L 982.143563 125.976588 
L 986.835102 162.44406 
L 991.526642 158.805298 
L 991.526642 158.805298 
" style="fill:none;stroke:#e69f00;stroke-linecap:round;stroke-width:3;"/>
   </g>
   <g id="line2d_32">
    <path clip-path="url(#pf97c1ee569)" d="M 184.581818 437.149977 
L 189.273358 414.787263 
L 193.964898 418.333954 
L 198.656437 422.563469 
L 203.347977 421.180802 
L 208.039517 422.999611 
L 212.731056 460.472464 
L 217.422596 465.460477 
L 222.114136 448.242206 
L 226.805675 414.6788 
L 231.497215 453.546558 
L 236.188755 458.83052 
L 240.880294 471.977818 
L 245.571834 432.356411 
L 250.263374 442.106776 
L 254.954913 425.118253 
L 259.646453 418.458833 
L 264.337993 438.412076 
L 269.029532 427.939411 
L 273.721072 421.826505 
L 278.412612 434.417947 
L 283.104151 436.850413 
L 287.795691 438.391417 
L 292.487231 442.035545 
L 297.17877 445.877715 
L 301.87031 441.195665 
L 306.56185 448.236614 
L 311.253389 376.66599 
L 315.944929 373.663813 
L 320.636469 419.564099 
L 325.328008 434.88555 
L 330.019548 424.576253 
L 334.711088 423.650321 
L 339.402627 449.606772 
L 344.094167 473.091572 
L 348.785707 477.255268 
L 353.477246 458.640631 
L 358.168786 473.146724 
L 362.860326 435.601495 
L 367.551865 411.476068 
L 372.243405 464.979468 
L 376.934945 440.271822 
L 381.626484 457.513066 
L 386.318024 475.649972 
L 391.009564 453.520531 
L 395.701104 442.004129 
L 400.392643 405.215693 
L 405.084183 409.040121 
L 409.775723 451.24838 
L 414.467262 434.074279 
L 419.158802 411.961658 
L 423.850342 425.745518 
L 428.541881 452.731784 
L 433.233421 475.293526 
L 437.924961 506.058859 
L 442.6165 455.26135 
L 447.30804 444.946011 
L 451.99958 479.348781 
L 456.691119 497.0912 
L 461.382659 506.918658 
L 466.074199 496.310672 
L 470.765738 500.575083 
L 475.457278 478.642402 
L 480.148818 477.179478 
L 484.840357 429.018269 
L 489.531897 417.058359 
L 494.223437 474.049302 
L 498.914976 506.763598 
L 503.606516 465.626473 
L 508.298056 453.943851 
L 512.989595 457.224371 
L 517.681135 435.87647 
L 522.372675 456.292937 
L 527.064214 454.649152 
L 531.755754 449.509133 
L 536.447294 442.645924 
L 541.138833 412.990843 
L 545.830373 437.757144 
L 550.521913 434.376807 
L 555.213452 472.60313 
L 559.904992 419.821378 
L 564.596532 406.300074 
L 569.288071 423.172343 
L 573.979611 457.610638 
L 578.671151 417.900013 
L 583.36269 430.803213 
L 588.05423 421.015099 
L 592.74577 386.473843 
L 597.43731 385.141837 
L 602.128849 387.244064 
L 606.820389 347.475839 
L 611.511929 330.121304 
L 616.203468 365.940693 
L 620.895008 362.657299 
L 625.586548 325.887254 
L 630.278087 352.295207 
L 634.969627 400.287165 
L 639.661167 392.041178 
L 644.352706 407.178849 
L 649.044246 406.249436 
L 653.735786 423.603163 
L 658.427325 392.347412 
L 663.118865 376.222662 
L 667.810405 355.995656 
L 672.501944 409.19682 
L 677.193484 425.166107 
L 681.885024 436.275627 
L 686.576563 374.494508 
L 691.268103 367.735024 
L 695.959643 371.472323 
L 700.651182 383.680844 
L 705.342722 372.996126 
L 710.034262 376.53671 
L 714.725801 368.412929 
L 719.417341 430.900605 
L 724.108881 407.434601 
L 728.80042 396.351826 
L 733.49196 386.801297 
L 738.1835 406.435395 
L 742.875039 365.432377 
L 747.566579 375.893388 
L 752.258119 404.645802 
L 756.949658 383.937675 
L 761.641198 337.481443 
L 766.332738 404.136857 
L 771.024277 386.768219 
L 775.715817 399.625429 
L 780.407357 334.658938 
L 785.098896 360.032429 
L 789.790436 330.61682 
L 794.481976 312.321711 
L 799.173516 295.728258 
L 803.865055 339.756492 
L 808.556595 297.561168 
L 813.248135 338.147738 
L 817.939674 345.892416 
L 822.631214 332.940306 
L 827.322754 300.162481 
L 832.014293 278.775978 
L 836.705833 307.641099 
L 841.397373 270.285893 
L 846.088912 278.073282 
L 850.780452 327.825506 
L 855.471992 317.940561 
L 860.163531 303.598667 
L 864.855071 261.199846 
L 869.546611 294.716678 
L 874.23815 255.915098 
L 878.92969 221.071089 
L 883.62123 278.093538 
L 888.312769 275.670122 
L 893.004309 241.596783 
L 897.695849 223.512268 
L 902.387388 220.440589 
L 907.078928 243.283505 
L 911.770468 200.764566 
L 916.462007 212.498411 
L 921.153547 213.708053 
L 925.845087 242.666816 
L 930.536626 212.043383 
L 935.228166 193.182022 
L 939.919706 221.592946 
L 944.611245 213.080966 
L 949.302785 206.370504 
L 953.994325 184.409417 
L 958.685864 144.103234 
L 963.377404 113.581415 
L 968.068944 136.105835 
L 972.760483 159.372564 
L 977.452023 128.157593 
L 982.143563 118.922438 
L 986.835102 159.703792 
L 991.526642 147.104445 
L 996.218182 122.615055 
L 996.218182 122.615055 
" style="fill:none;stroke:#e69f00;stroke-linecap:round;stroke-width:3;"/>
   </g>
   <g id="line2d_33">
    <path clip-path="url(#pf97c1ee569)" d="M 184.581818 477.65486 
L 189.273358 427.988562 
L 193.964898 426.923945 
L 198.656437 437.960314 
L 203.347977 443.693513 
L 208.039517 445.127426 
L 212.731056 451.43377 
L 217.422596 491.012981 
L 222.114136 469.868951 
L 226.805675 440.881674 
L 231.497215 470.246077 
L 236.188755 480.78569 
L 240.880294 509.65181 
L 245.571834 457.89829 
L 250.263374 490.529727 
L 254.954913 454.73054 
L 259.646453 457.067625 
L 264.337993 461.299078 
L 269.029532 459.951003 
L 273.721072 450.414279 
L 278.412612 453.464827 
L 283.104151 464.429646 
L 287.795691 453.505548 
L 292.487231 457.086945 
L 297.17877 465.688213 
L 301.87031 466.328148 
L 306.56185 479.393272 
L 311.253389 392.353185 
L 315.944929 368.156221 
L 320.636469 446.928344 
L 325.328008 450.215311 
L 330.019548 427.690987 
L 334.711088 444.744474 
L 339.402627 458.472593 
L 344.094167 497.77407 
L 348.785707 492.062184 
L 353.477246 478.529255 
L 358.168786 499.5164 
L 362.860326 467.339463 
L 367.551865 432.447196 
L 372.243405 501.691693 
L 376.934945 473.250638 
L 381.626484 501.880424 
L 386.318024 498.393631 
L 391.009564 495.468417 
L 395.701104 486.03354 
L 400.392643 441.639389 
L 405.084183 435.116221 
L 409.775723 496.014961 
L 414.467262 460.886866 
L 419.158802 428.292859 
L 423.850342 444.178167 
L 428.541881 483.401511 
L 433.233421 508.824167 
L 437.924961 526.133775 
L 442.6165 474.985073 
L 447.30804 451.106522 
L 451.99958 500.96399 
L 456.691119 503.581389 
L 461.382659 509.481271 
L 466.074199 508.203791 
L 470.765738 510.40832 
L 475.457278 493.288137 
L 480.148818 490.992093 
L 484.840357 435.868658 
L 489.531897 416.803845 
L 494.223437 478.34234 
L 498.914976 511.436203 
L 503.606516 479.521112 
L 508.298056 452.825467 
L 512.989595 445.566554 
L 517.681135 429.963054 
L 522.372675 456.519914 
L 527.064214 450.780795 
L 531.755754 449.199435 
L 536.447294 441.213078 
L 541.138833 398.207929 
L 545.830373 426.925564 
L 550.521913 420.823747 
L 555.213452 470.944404 
L 559.904992 412.751369 
L 564.596532 392.969969 
L 569.288071 404.305081 
L 573.979611 451.970208 
L 578.671151 412.086162 
L 583.36269 420.634487 
L 588.05423 410.788402 
L 592.74577 370.280675 
L 597.43731 368.39485 
L 602.128849 376.100817 
L 606.820389 344.644419 
L 611.511929 354.832253 
L 616.203468 364.728178 
L 620.895008 363.378661 
L 625.586548 326.274633 
L 630.278087 353.495929 
L 634.969627 397.123927 
L 639.661167 389.684518 
L 644.352706 398.699933 
L 649.044246 403.857909 
L 653.735786 426.175545 
L 658.427325 381.586428 
L 663.118865 360.96944 
L 667.810405 344.187689 
L 672.501944 396.568116 
L 677.193484 418.276786 
L 681.885024 436.023116 
L 686.576563 374.628891 
L 691.268103 369.858579 
L 695.959643 378.043088 
L 700.651182 396.227722 
L 705.342722 370.495839 
L 710.034262 382.368026 
L 714.725801 375.025277 
L 719.417341 447.529923 
L 724.108881 420.184109 
L 728.80042 405.227464 
L 733.49196 396.774558 
L 738.1835 410.548939 
L 742.875039 373.559565 
L 747.566579 388.041007 
L 752.258119 420.600403 
L 756.949658 390.390955 
L 761.641198 351.651388 
L 766.332738 411.601241 
L 771.024277 394.952363 
L 775.715817 423.275982 
L 780.407357 337.327504 
L 785.098896 363.690792 
L 789.790436 340.623265 
L 794.481976 312.270945 
L 799.173516 297.735579 
L 803.865055 355.874039 
L 808.556595 304.788609 
L 813.248135 352.171106 
L 817.939674 351.706246 
L 822.631214 339.322021 
L 827.322754 299.618019 
L 832.014293 289.074797 
L 836.705833 316.803969 
L 841.397373 267.945218 
L 846.088912 273.783603 
L 850.780452 331.450763 
L 855.471992 320.466592 
L 860.163531 302.171715 
L 864.855071 263.551813 
L 869.546611 290.546744 
L 874.23815 251.306323 
L 878.92969 209.535855 
L 883.62123 277.667133 
L 888.312769 275.888657 
L 893.004309 233.259216 
L 897.695849 218.657514 
L 902.387388 218.467889 
L 907.078928 239.163272 
L 911.770468 201.573982 
L 916.462007 210.819567 
L 921.153547 205.659527 
L 925.845087 239.627003 
L 930.536626 204.290517 
L 935.228166 181.765323 
L 939.919706 220.212041 
L 944.611245 209.457547 
L 949.302785 197.070335 
L 953.994325 183.786312 
L 958.685864 142.760999 
L 963.377404 113.708371 
L 968.068944 137.355404 
L 972.760483 159.592382 
L 977.452023 124.987037 
L 982.143563 116.439035 
L 986.835102 159.807454 
L 991.526642 149.182611 
L 996.218182 115.835043 
L 996.218182 115.835043 
" style="fill:none;stroke:#696969;stroke-linecap:round;stroke-width:3;"/>
   </g>
  </g>
  <g id="text_31">
   <g id="patch_4">
    <path d="M 874.239375 646.18275 
L 1040.76 646.18275 
L 1040.76 628.26525 
L 874.239375 628.26525 
z
" style="fill:#ffffff;stroke:#ffffff;stroke-linejoin:miter;"/>
   </g>
   <!-- Created: 2023-08-10 11:39:12 -->
   <g style="fill:#696969;" transform="translate(878.199375 640.224)scale(0.12 -0.12)">
    <defs>
     <path d="M 17.96875 49.3125 
L 17.96875 38.375 
L 7.078125 38.375 
L 7.078125 49.3125 
z
M 17.96875 10.984375 
L 17.96875 0 
L 7.078125 0 
L 7.078125 10.984375 
z
" id="FranklinGothic-Book-58"/>
    </defs>
    <use xlink:href="#FranklinGothic-Book-67"/>
    <use x="57.910156" xlink:href="#FranklinGothic-Book-114"/>
    <use x="90.869141" xlink:href="#FranklinGothic-Book-101"/>
    <use x="142.919922" xlink:href="#FranklinGothic-Book-97"/>
    <use x="195.800781" xlink:href="#FranklinGothic-Book-116"/>
    <use x="224.8125" xlink:href="#FranklinGothic-Book-101"/>
    <use x="276.863281" xlink:href="#FranklinGothic-Book-100"/>
    <use x="330.720703" xlink:href="#FranklinGothic-Book-58"/>
    <use x="355.720703" xlink:href="#FranklinGothic-Book-32"/>
    <use x="380.720703" xlink:href="#FranklinGothic-Book-50"/>
    <use x="439.363281" xlink:href="#FranklinGothic-Book-48"/>
    <use x="498.005859" xlink:href="#FranklinGothic-Book-50"/>
    <use x="556.648438" xlink:href="#FranklinGothic-Book-51"/>
    <use x="615.291016" xlink:href="#FranklinGothic-Book-45"/>
    <use x="640.291016" xlink:href="#FranklinGothic-Book-48"/>
    <use x="698.933594" xlink:href="#FranklinGothic-Book-56"/>
    <use x="757.576172" xlink:href="#FranklinGothic-Book-45"/>
    <use x="782.576172" xlink:href="#FranklinGothic-Book-49"/>
    <use x="837.96875" xlink:href="#FranklinGothic-Book-48"/>
    <use x="896.611328" xlink:href="#FranklinGothic-Book-32"/>
    <use x="921.611328" xlink:href="#FranklinGothic-Book-49"/>
    <use x="978.503906" xlink:href="#FranklinGothic-Book-49"/>
    <use x="1037.146484" xlink:href="#FranklinGothic-Book-58"/>
    <use x="1062.146484" xlink:href="#FranklinGothic-Book-51"/>
    <use x="1120.789062" xlink:href="#FranklinGothic-Book-57"/>
    <use x="1179.431641" xlink:href="#FranklinGothic-Book-58"/>
    <use x="1204.431641" xlink:href="#FranklinGothic-Book-49"/>
    <use x="1263.074219" xlink:href="#FranklinGothic-Book-50"/>
   </g>
  </g>
 </g>
 <defs>
  <clipPath id="pf97c1ee569">
   <rect height="498.96" width="892.8" x="144" y="77.76"/>
  </clipPath>
 </defs>
</svg>
