<?xml version="1.0" encoding="utf-8" standalone="no"?>
<!DOCTYPE svg PUBLIC "-//W3C//DTD SVG 1.1//EN"
  "http://www.w3.org/Graphics/SVG/1.1/DTD/svg11.dtd">
<!-- Created with matplotlib (https://matplotlib.org/) -->
<svg height="648pt" version="1.1" viewBox="0 0 1152 648" width="1152pt" xmlns="http://www.w3.org/2000/svg" xmlns:xlink="http://www.w3.org/1999/xlink">
 <metadata>
  <rdf:RDF xmlns:cc="http://creativecommons.org/ns#" xmlns:dc="http://purl.org/dc/elements/1.1/" xmlns:rdf="http://www.w3.org/1999/02/22-rdf-syntax-ns#">
   <cc:Work>
    <dc:type rdf:resource="http://purl.org/dc/dcmitype/StillImage"/>
    <dc:date>2023-11-02T21:13:03.864298</dc:date>
    <dc:format>image/svg+xml</dc:format>
    <dc:creator>
     <cc:Agent>
      <dc:title>Matplotlib v3.3.1, https://matplotlib.org/</dc:title>
     </cc:Agent>
    </dc:creator>
   </cc:Work>
  </rdf:RDF>
 </metadata>
 <defs>
  <style type="text/css">*{stroke-linecap:butt;stroke-linejoin:round;}</style>
 </defs>
 <g id="figure_1">
  <g id="patch_1">
   <path d="M 0 648 
L 1152 648 
L 1152 0 
L 0 0 
z
" style="fill:#ffffff;"/>
  </g>
  <g id="axes_1">
   <g id="patch_2">
    <path d="M 144 576.72 
L 1036.8 576.72 
L 1036.8 77.76 
L 144 77.76 
z
" style="fill:none;"/>
   </g>
   <g id="line2d_1">
    <path clip-path="url(#p19948b5479)" d="M 606.820389 409.430043 
L 611.511929 397.350374 
L 616.203468 421.294003 
L 620.895008 419.784044 
L 625.586548 370.171119 
L 630.278087 406.410125 
L 634.969627 405.331583 
L 639.661167 393.89904 
L 644.352706 409.861459 
L 649.044246 401.233124 
L 653.735786 430.138046 
L 658.427325 396.056124 
L 663.118865 399.723166 
L 667.810405 379.877996 
L 672.501944 431.00088 
L 677.193484 435.530755 
L 681.885024 451.061758 
L 686.576563 386.780664 
L 691.268103 369.739702 
L 695.959643 378.583745 
L 700.651182 390.231997 
L 705.342722 370.818244 
L 710.034262 386.349247 
L 714.725801 376.64237 
L 719.417341 431.432296 
L 724.108881 415.254169 
L 728.80042 395.624707 
L 733.49196 391.957664 
L 738.1835 407.704376 
L 742.875039 374.269578 
L 747.566579 380.525121 
L 752.258119 420.431169 
L 756.949658 385.91783 
L 761.641198 358.954284 
L 766.332738 429.922338 
L 771.024277 423.882503 
L 775.715817 441.786298 
L 780.407357 368.014035 
L 785.098896 382.897913 
L 789.790436 342.745957 
L 794.481976 308.776202 
L 799.173516 300.137082 
L 803.865055 351.715111 
L 808.556595 301.276022 
L 813.248135 356.31617 
L 817.939674 366.767241 
L 822.631214 343.787828 
L 827.322754 303.566845 
L 832.014293 295.251287 
L 836.705833 325.877562 
L 841.397373 265.979661 
L 846.088912 280.151701 
L 850.780452 340.224326 
L 855.471992 328.366837 
L 860.163531 318.961952 
L 864.855071 272.944885 
L 869.546611 306.588919 
L 874.23815 274.95313 
L 878.92969 226.131854 
L 883.62123 295.723689 
L 888.312769 297.037353 
L 893.004309 255.617031 
L 897.695849 230.592703 
L 902.387388 233.946968 
L 907.078928 249.829576 
L 911.770468 207.83547 
L 916.462007 220.284 
L 921.153547 222.19949 
L 925.845087 256.49065 
L 930.536626 222.671892 
L 935.228166 197.904256 
L 939.919706 234.628607 
L 944.611245 221.38627 
L 949.302785 214.339077 
L 953.994325 204.161956 
L 958.685864 165.502702 
L 963.377404 117.971362 
L 968.068944 142.706641 
L 972.760483 163.347775 
L 977.452023 128.32105 
L 982.143563 119.787627 
L 986.835102 160.813202 
L 991.526642 153.781109 
L 996.218182 100.44 
" style="fill:none;stroke:#0072b2;stroke-linecap:round;stroke-width:3;"/>
   </g>
   <g id="line2d_2">
    <path clip-path="url(#p19948b5479)" d="M 691.268103 353.199333 
L 695.959643 370.421085 
L 700.651182 375.065102 
L 705.342722 368.844581 
L 710.034262 372.470222 
L 714.725801 371.956226 
L 719.417341 422.876201 
L 724.108881 404.425433 
L 728.80042 395.941904 
L 733.49196 396.79595 
L 738.1835 404.089875 
L 742.875039 365.523677 
L 747.566579 376.187319 
L 752.258119 408.751977 
L 756.949658 380.210523 
L 761.641198 354.647688 
L 766.332738 424.341557 
L 771.024277 408.490408 
L 775.715817 436.343856 
L 780.407357 364.939226 
L 785.098896 380.879495 
L 789.790436 350.653109 
L 794.481976 318.182357 
L 799.173516 308.076844 
L 803.865055 356.336519 
L 808.556595 309.105567 
L 813.248135 357.655109 
L 817.939674 365.742209 
L 822.631214 340.16947 
L 827.322754 304.08811 
L 832.014293 297.378465 
L 836.705833 325.406375 
L 841.397373 276.769731 
L 846.088912 288.411087 
L 850.780452 338.107549 
L 855.471992 328.691908 
L 860.163531 310.595156 
L 864.855071 265.675156 
L 869.546611 299.581228 
L 874.23815 270.284948 
L 878.92969 219.348476 
L 883.62123 283.382134 
L 888.312769 283.167412 
L 893.004309 249.512726 
L 897.695849 222.434115 
L 902.387388 234.264554 
L 907.078928 257.477727 
L 911.770468 211.536661 
L 916.462007 224.091309 
L 921.153547 225.618167 
L 925.845087 262.771738 
L 930.536626 226.880851 
L 935.228166 206.570188 
L 939.919706 236.825895 
L 944.611245 225.913467 
L 949.302785 215.968873 
L 953.994325 205.295774 
L 958.685864 171.098036 
L 963.377404 123.353562 
L 968.068944 158.303529 
L 972.760483 179.990046 
L 977.452023 139.379594 
L 982.143563 140.642773 
L 986.835102 180.340786 
L 991.526642 167.858903 
L 996.218182 108.045739 
" style="fill:none;stroke:#d55e00;stroke-linecap:round;stroke-width:3;"/>
   </g>
   <g id="patch_3">
    <path d="M 144 576.72 
L 1036.8 576.72 
" style="fill:none;stroke:#d3d3d3;stroke-linecap:square;stroke-linejoin:miter;stroke-width:1.25;"/>
   </g>
   <g id="matplotlib.axis_1">
    <g id="xtick_1">
     <g id="line2d_3">
      <defs>
       <path d="M 0 0 
L 0 6 
" id="md83cb2b1c0" style="stroke:#696969;stroke-width:1.25;"/>
      </defs>
      <g>
       <use style="fill:#696969;stroke:#696969;stroke-width:1.25;" x="231.497215" xlink:href="#md83cb2b1c0" y="576.72"/>
      </g>
     </g>
     <g id="text_1">
      <!-- 1860 -->
      <g style="fill:#696969;" transform="translate(204.594402 601.550938)scale(0.23 -0.23)">
       <defs>
        <path d="M 55.859375 6.203125 
L 55.859375 0 
L 9.1875 0 
L 9.1875 6.203125 
L 29.203125 6.203125 
L 29.203125 57.671875 
Q 20.359375 48.4375 10.84375 43.265625 
L 10.84375 51.65625 
Q 23.96875 58.546875 31.203125 68.015625 
L 37.15625 68.015625 
L 37.15625 6.203125 
z
" id="FranklinGothic-Book-49"/>
        <path d="M 19.484375 34.578125 
Q 6.84375 40.09375 6.84375 50.59375 
Q 6.84375 58.203125 13.140625 63.109375 
Q 19.4375 68.015625 29.828125 68.015625 
Q 40.09375 68.015625 46.140625 63.296875 
Q 52.203125 58.59375 52.203125 50.984375 
Q 52.203125 40.375 39.265625 35.796875 
Q 49.703125 30.953125 52.359375 26.453125 
Q 55.03125 21.96875 55.03125 17.484375 
Q 55.03125 9.46875 48.21875 4.078125 
Q 41.40625 -1.3125 29.734375 -1.3125 
Q 17.28125 -1.3125 10.4375 4.171875 
Q 3.609375 9.671875 3.609375 17.234375 
Q 3.609375 28.515625 19.484375 34.578125 
z
M 29.59375 38.71875 
Q 37.984375 40.96875 41.453125 43.890625 
Q 44.921875 46.828125 44.921875 51.21875 
Q 44.921875 56.34375 40.796875 59 
Q 36.671875 61.671875 29.9375 61.671875 
Q 23.484375 61.671875 19.375 58.859375 
Q 15.28125 56.0625 15.28125 51.3125 
Q 15.28125 46.625 19.84375 43.203125 
Q 24.421875 39.796875 29.59375 38.71875 
z
M 28.65625 31.0625 
Q 11.765625 27.046875 11.765625 16.9375 
Q 11.765625 11.671875 16.375 8.328125 
Q 21 4.984375 29.984375 4.984375 
Q 37.59375 4.984375 42.234375 8.25 
Q 46.875 11.53125 46.875 16.609375 
Q 46.875 26.3125 28.65625 31.0625 
z
" id="FranklinGothic-Book-56"/>
        <path d="M 53.5625 53.03125 
L 46.046875 50.984375 
Q 42.1875 61.140625 31.984375 61.140625 
Q 13.234375 61.140625 12.796875 30.125 
Q 15.765625 37.015625 21.234375 40.328125 
Q 26.703125 43.65625 32.8125 43.65625 
Q 42.09375 43.65625 48.359375 37.1875 
Q 54.640625 30.71875 54.640625 21.6875 
Q 54.640625 12.3125 47.96875 5.5 
Q 41.3125 -1.3125 30.90625 -1.3125 
Q 19.09375 -1.3125 12.078125 7.59375 
Q 5.078125 16.5 5.078125 31.84375 
Q 5.078125 46.828125 11.6875 57.421875 
Q 18.3125 68.015625 32.171875 68.015625 
Q 48.140625 68.015625 53.5625 53.03125 
z
M 30.765625 5.375 
Q 37.84375 5.375 42.359375 10.03125 
Q 46.875 14.703125 46.875 21.234375 
Q 46.875 27.6875 42.453125 32.296875 
Q 38.03125 36.921875 31.5 36.921875 
Q 24.75 36.921875 19.71875 32.078125 
Q 14.703125 27.25 14.703125 20.75 
Q 14.703125 14.75 19.1875 10.0625 
Q 23.6875 5.375 30.765625 5.375 
z
" id="FranklinGothic-Book-54"/>
        <path d="M 29.390625 -1.3125 
Q 17.875 -1.3125 10.984375 8.671875 
Q 4.109375 18.65625 4.109375 33.453125 
Q 4.109375 48 10.640625 58 
Q 17.1875 68.015625 29.15625 68.015625 
Q 41.65625 68.015625 48.125 57.5625 
Q 54.59375 47.125 54.59375 33.0625 
Q 54.59375 19.28125 47.953125 8.984375 
Q 41.3125 -1.3125 29.390625 -1.3125 
z
M 29.4375 5.21875 
Q 37.890625 5.21875 41.9375 12.859375 
Q 46 20.515625 46 32.078125 
Q 46 44.734375 41.84375 53.125 
Q 37.703125 61.53125 29.046875 61.53125 
Q 20.703125 61.53125 16.625 53.859375 
Q 12.546875 46.1875 12.546875 33.6875 
Q 12.546875 20.703125 16.84375 12.953125 
Q 21.140625 5.21875 29.4375 5.21875 
z
" id="FranklinGothic-Book-48"/>
       </defs>
       <use xlink:href="#FranklinGothic-Book-49"/>
       <use x="58.017578" xlink:href="#FranklinGothic-Book-56"/>
       <use x="116.660156" xlink:href="#FranklinGothic-Book-54"/>
       <use x="175.302734" xlink:href="#FranklinGothic-Book-48"/>
      </g>
     </g>
    </g>
    <g id="xtick_2">
     <g id="line2d_4">
      <g>
       <use style="fill:#696969;stroke:#696969;stroke-width:1.25;" x="325.328008" xlink:href="#md83cb2b1c0" y="576.72"/>
      </g>
     </g>
     <g id="text_2">
      <!-- 1880 -->
      <g style="fill:#696969;" transform="translate(298.425196 601.550938)scale(0.23 -0.23)">
       <use xlink:href="#FranklinGothic-Book-49"/>
       <use x="58.017578" xlink:href="#FranklinGothic-Book-56"/>
       <use x="116.660156" xlink:href="#FranklinGothic-Book-56"/>
       <use x="175.302734" xlink:href="#FranklinGothic-Book-48"/>
      </g>
     </g>
    </g>
    <g id="xtick_3">
     <g id="line2d_5">
      <g>
       <use style="fill:#696969;stroke:#696969;stroke-width:1.25;" x="419.158802" xlink:href="#md83cb2b1c0" y="576.72"/>
      </g>
     </g>
     <g id="text_3">
      <!-- 1900 -->
      <g style="fill:#696969;" transform="translate(392.342239 601.550938)scale(0.23 -0.23)">
       <defs>
        <path d="M 5.71875 12.15625 
L 12.40625 14.59375 
Q 16.546875 5.375 26.375 5.375 
Q 35.890625 5.375 40.703125 13.375 
Q 45.515625 21.390625 45.65625 35.109375 
Q 39.109375 23.09375 25.984375 23.09375 
Q 16.703125 23.09375 10.40625 29.421875 
Q 4.109375 35.75 4.109375 45.0625 
Q 4.109375 54.546875 10.71875 61.28125 
Q 17.328125 68.015625 27.59375 68.015625 
Q 40.140625 68.015625 46.828125 59.203125 
Q 53.515625 50.390625 53.515625 34.96875 
Q 53.515625 18.75 46.4375 8.71875 
Q 39.359375 -1.3125 26.265625 -1.3125 
Q 10.984375 -1.3125 5.71875 12.15625 
z
M 27.828125 29.78125 
Q 34.71875 29.78125 39.375 34.59375 
Q 44.046875 39.40625 44.046875 45.84375 
Q 44.046875 52.09375 39.625 56.578125 
Q 35.203125 61.078125 27.984375 61.078125 
Q 20.65625 61.078125 16.40625 56.46875 
Q 12.15625 51.859375 12.15625 45.21875 
Q 12.15625 38.09375 16.859375 33.9375 
Q 21.578125 29.78125 27.828125 29.78125 
z
" id="FranklinGothic-Book-57"/>
       </defs>
       <use xlink:href="#FranklinGothic-Book-49"/>
       <use x="57.267578" xlink:href="#FranklinGothic-Book-57"/>
       <use x="115.910156" xlink:href="#FranklinGothic-Book-48"/>
       <use x="174.552734" xlink:href="#FranklinGothic-Book-48"/>
      </g>
     </g>
    </g>
    <g id="xtick_4">
     <g id="line2d_6">
      <g>
       <use style="fill:#696969;stroke:#696969;stroke-width:1.25;" x="512.989595" xlink:href="#md83cb2b1c0" y="576.72"/>
      </g>
     </g>
     <g id="text_4">
      <!-- 1920 -->
      <g style="fill:#696969;" transform="translate(486.173033 601.550938)scale(0.23 -0.23)">
       <defs>
        <path d="M 52.484375 6.9375 
L 52.484375 0 
L 5.171875 0 
L 5.171875 6.9375 
Q 33.203125 27.9375 38.59375 34.59375 
Q 44 41.265625 44 47.796875 
Q 44 53.90625 39.453125 57.65625 
Q 34.90625 61.421875 29 61.421875 
Q 22.90625 61.421875 18.21875 57.296875 
Q 13.53125 53.171875 12.9375 46.09375 
L 5.171875 48.4375 
Q 10.0625 68.015625 29.109375 68.015625 
Q 39.40625 68.015625 45.84375 62.15625 
Q 52.296875 56.296875 52.296875 47.859375 
Q 52.296875 42.046875 49.234375 36.671875 
Q 46.1875 31.296875 37.6875 23.828125 
Q 29.203125 16.359375 15.71875 6.9375 
z
" id="FranklinGothic-Book-50"/>
       </defs>
       <use xlink:href="#FranklinGothic-Book-49"/>
       <use x="57.267578" xlink:href="#FranklinGothic-Book-57"/>
       <use x="115.910156" xlink:href="#FranklinGothic-Book-50"/>
       <use x="174.552734" xlink:href="#FranklinGothic-Book-48"/>
      </g>
     </g>
    </g>
    <g id="xtick_5">
     <g id="line2d_7">
      <g>
       <use style="fill:#696969;stroke:#696969;stroke-width:1.25;" x="606.820389" xlink:href="#md83cb2b1c0" y="576.72"/>
      </g>
     </g>
     <g id="text_5">
      <!-- 1940 -->
      <g style="fill:#696969;" transform="translate(580.061326 601.550938)scale(0.23 -0.23)">
       <defs>
        <path d="M 44.09375 0 
L 36.03125 0 
L 36.03125 15.875 
L 3.078125 15.875 
L 3.078125 21.484375 
L 33.640625 68.0625 
L 44.09375 68.0625 
L 44.09375 22.46875 
L 54.890625 22.46875 
L 54.890625 15.875 
L 44.09375 15.875 
z
M 36.03125 22.46875 
L 36.03125 54 
Q 36.03125 57.421875 36.1875 61.375 
Q 34.078125 57.515625 32.5625 55.125 
L 11.765625 22.46875 
z
" id="FranklinGothic-Book-52"/>
       </defs>
       <use xlink:href="#FranklinGothic-Book-49"/>
       <use x="57.267578" xlink:href="#FranklinGothic-Book-57"/>
       <use x="115.410156" xlink:href="#FranklinGothic-Book-52"/>
       <use x="174.052734" xlink:href="#FranklinGothic-Book-48"/>
      </g>
     </g>
    </g>
    <g id="xtick_6">
     <g id="line2d_8">
      <g>
       <use style="fill:#696969;stroke:#696969;stroke-width:1.25;" x="700.651182" xlink:href="#md83cb2b1c0" y="576.72"/>
      </g>
     </g>
     <g id="text_6">
      <!-- 1960 -->
      <g style="fill:#696969;" transform="translate(673.83462 601.550938)scale(0.23 -0.23)">
       <use xlink:href="#FranklinGothic-Book-49"/>
       <use x="57.267578" xlink:href="#FranklinGothic-Book-57"/>
       <use x="115.910156" xlink:href="#FranklinGothic-Book-54"/>
       <use x="174.552734" xlink:href="#FranklinGothic-Book-48"/>
      </g>
     </g>
    </g>
    <g id="xtick_7">
     <g id="line2d_9">
      <g>
       <use style="fill:#696969;stroke:#696969;stroke-width:1.25;" x="794.481976" xlink:href="#md83cb2b1c0" y="576.72"/>
      </g>
     </g>
     <g id="text_7">
      <!-- 1980 -->
      <g style="fill:#696969;" transform="translate(767.665413 601.550938)scale(0.23 -0.23)">
       <use xlink:href="#FranklinGothic-Book-49"/>
       <use x="57.267578" xlink:href="#FranklinGothic-Book-57"/>
       <use x="115.910156" xlink:href="#FranklinGothic-Book-56"/>
       <use x="174.552734" xlink:href="#FranklinGothic-Book-48"/>
      </g>
     </g>
    </g>
    <g id="xtick_8">
     <g id="line2d_10">
      <g>
       <use style="fill:#696969;stroke:#696969;stroke-width:1.25;" x="888.312769" xlink:href="#md83cb2b1c0" y="576.72"/>
      </g>
     </g>
     <g id="text_8">
      <!-- 2000 -->
      <g style="fill:#696969;" transform="translate(861.338082 601.550938)scale(0.23 -0.23)">
       <use xlink:href="#FranklinGothic-Book-50"/>
       <use x="58.642578" xlink:href="#FranklinGothic-Book-48"/>
       <use x="117.285156" xlink:href="#FranklinGothic-Book-48"/>
       <use x="175.927734" xlink:href="#FranklinGothic-Book-48"/>
      </g>
     </g>
    </g>
    <g id="xtick_9">
     <g id="line2d_11">
      <g>
       <use style="fill:#696969;stroke:#696969;stroke-width:1.25;" x="982.143563" xlink:href="#md83cb2b1c0" y="576.72"/>
      </g>
     </g>
     <g id="text_9">
      <!-- 2020 -->
      <g style="fill:#696969;" transform="translate(955.168875 601.550938)scale(0.23 -0.23)">
       <use xlink:href="#FranklinGothic-Book-50"/>
       <use x="58.642578" xlink:href="#FranklinGothic-Book-48"/>
       <use x="117.285156" xlink:href="#FranklinGothic-Book-50"/>
       <use x="175.927734" xlink:href="#FranklinGothic-Book-48"/>
      </g>
     </g>
    </g>
    <g id="text_10">
     <!-- Year -->
     <g style="fill:#696969;" transform="translate(569.365781 624.712813)scale(0.23 -0.23)">
      <defs>
       <path d="M 52 66.65625 
L 29.6875 28.03125 
L 29.6875 0 
L 21.34375 0 
L 21.34375 28.03125 
L -0.984375 66.65625 
L 8.84375 66.65625 
L 26.5625 35.984375 
L 44.390625 66.65625 
z
" id="FranklinGothic-Book-89"/>
       <path d="M 40.234375 14.703125 
L 47.359375 13.234375 
Q 45.40625 6.9375 39.734375 2.8125 
Q 34.078125 -1.3125 26.421875 -1.3125 
Q 16.3125 -1.3125 10.0625 5.78125 
Q 3.8125 12.890625 3.8125 24.421875 
Q 3.8125 36.1875 10.296875 43.4375 
Q 16.796875 50.6875 26.609375 50.6875 
Q 36.28125 50.6875 42.15625 44 
Q 48.046875 37.3125 48.1875 23.96875 
L 12.359375 23.96875 
Q 12.359375 12.796875 17.046875 8.890625 
Q 21.734375 4.984375 26.953125 4.984375 
Q 36.375 4.984375 40.234375 14.703125 
z
M 39.796875 29.6875 
Q 39.703125 33.84375 38.421875 37.0625 
Q 37.15625 40.28125 34.125 42.546875 
Q 31.109375 44.828125 26.859375 44.828125 
Q 21.140625 44.828125 17.15625 40.71875 
Q 13.1875 36.625 12.703125 29.6875 
z
" id="FranklinGothic-Book-101"/>
       <path d="M 46.296875 0 
L 38.671875 0 
Q 38.234375 2.34375 37.796875 8.890625 
Q 32.71875 -1.3125 20.515625 -1.3125 
Q 12.203125 -1.3125 7.765625 3.078125 
Q 3.328125 7.46875 3.328125 13.625 
Q 3.328125 21.09375 9.671875 25.90625 
Q 16.015625 30.71875 31.25 30.71875 
Q 33.296875 30.71875 37.796875 30.515625 
Q 37.796875 36.375 36.890625 38.984375 
Q 35.984375 41.609375 33.046875 43.171875 
Q 30.125 44.734375 25.34375 44.734375 
Q 13.671875 44.734375 11.765625 35.84375 
L 4.6875 37.0625 
Q 7.28125 50.6875 26.46875 50.6875 
Q 36.671875 50.6875 40.9375 46.171875 
Q 45.21875 41.65625 45.21875 30.515625 
L 45.21875 9.578125 
Q 45.21875 4.34375 46.296875 0 
z
M 37.796875 24.65625 
Q 33.109375 24.953125 30.671875 24.953125 
Q 21.578125 24.953125 16.546875 21.96875 
Q 11.53125 19 11.53125 13.28125 
Q 11.53125 9.671875 14.234375 7.125 
Q 16.9375 4.59375 22.078125 4.59375 
Q 29 4.59375 33.46875 9.625 
Q 37.9375 14.65625 37.9375 21.4375 
Q 37.9375 22.796875 37.796875 24.65625 
z
" id="FranklinGothic-Book-97"/>
       <path d="M 15.328125 0 
L 7.671875 0 
L 7.671875 49.3125 
L 14.40625 49.3125 
L 14.40625 37.796875 
Q 17.96875 45.953125 21.546875 48.359375 
Q 25.140625 50.78125 28.90625 50.78125 
Q 30.078125 50.78125 31.9375 50.59375 
L 31.9375 43.265625 
L 30.375 43.265625 
Q 24.03125 43.265625 19.828125 38.53125 
Q 15.625 33.796875 15.328125 26.078125 
z
" id="FranklinGothic-Book-114"/>
      </defs>
      <use xlink:href="#FranklinGothic-Book-89"/>
      <use x="45.025391" xlink:href="#FranklinGothic-Book-101"/>
      <use x="97.076172" xlink:href="#FranklinGothic-Book-97"/>
      <use x="149.957031" xlink:href="#FranklinGothic-Book-114"/>
     </g>
    </g>
   </g>
   <g id="matplotlib.axis_2">
    <g id="ytick_1">
     <g id="line2d_12">
      <path clip-path="url(#p19948b5479)" d="M 144 563.784266 
L 1036.8 563.784266 
" style="fill:none;stroke:#d3d3d3;stroke-linecap:round;stroke-opacity:0.5;"/>
     </g>
     <g id="text_11">
      <!-- −0.4 -->
      <g style="fill:#696969;" transform="translate(88.287969 571.449735)scale(0.23 -0.23)">
       <defs>
        <path d="M 6 36.765625 
L 52.6875 36.765625 
L 52.6875 30.03125 
L 6 30.03125 
z
" id="FranklinGothic-Book-8722"/>
        <path d="M 17.96875 10.9375 
L 17.96875 0 
L 7.078125 0 
L 7.078125 10.9375 
z
" id="FranklinGothic-Book-46"/>
       </defs>
       <use xlink:href="#FranklinGothic-Book-8722"/>
       <use x="58.642578" xlink:href="#FranklinGothic-Book-48"/>
       <use x="117.285156" xlink:href="#FranklinGothic-Book-46"/>
       <use x="142.285156" xlink:href="#FranklinGothic-Book-52"/>
      </g>
     </g>
    </g>
    <g id="ytick_2">
     <g id="line2d_13">
      <path clip-path="url(#p19948b5479)" d="M 144 512.014257 
L 1036.8 512.014257 
" style="fill:none;stroke:#d3d3d3;stroke-linecap:round;stroke-opacity:0.5;"/>
     </g>
     <g id="text_12">
      <!-- −0.2 -->
      <g style="fill:#696969;" transform="translate(88.287969 519.679726)scale(0.23 -0.23)">
       <use xlink:href="#FranklinGothic-Book-8722"/>
       <use x="58.642578" xlink:href="#FranklinGothic-Book-48"/>
       <use x="117.285156" xlink:href="#FranklinGothic-Book-46"/>
       <use x="142.285156" xlink:href="#FranklinGothic-Book-50"/>
      </g>
     </g>
    </g>
    <g id="ytick_3">
     <g id="line2d_14">
      <path clip-path="url(#p19948b5479)" d="M 144 460.244248 
L 1036.8 460.244248 
" style="fill:none;stroke:#d3d3d3;stroke-linecap:round;stroke-opacity:0.5;"/>
     </g>
     <g id="text_13">
      <!-- 0.0 -->
      <g style="fill:#696969;" transform="translate(101.775312 467.909717)scale(0.23 -0.23)">
       <use xlink:href="#FranklinGothic-Book-48"/>
       <use x="58.642578" xlink:href="#FranklinGothic-Book-46"/>
       <use x="83.642578" xlink:href="#FranklinGothic-Book-48"/>
      </g>
     </g>
    </g>
    <g id="ytick_4">
     <g id="line2d_15">
      <path clip-path="url(#p19948b5479)" d="M 144 408.474239 
L 1036.8 408.474239 
" style="fill:none;stroke:#d3d3d3;stroke-linecap:round;stroke-opacity:0.5;"/>
     </g>
     <g id="text_14">
      <!-- 0.2 -->
      <g style="fill:#696969;" transform="translate(101.775312 416.139707)scale(0.23 -0.23)">
       <use xlink:href="#FranklinGothic-Book-48"/>
       <use x="58.642578" xlink:href="#FranklinGothic-Book-46"/>
       <use x="83.642578" xlink:href="#FranklinGothic-Book-50"/>
      </g>
     </g>
    </g>
    <g id="ytick_5">
     <g id="line2d_16">
      <path clip-path="url(#p19948b5479)" d="M 144 356.70423 
L 1036.8 356.70423 
" style="fill:none;stroke:#d3d3d3;stroke-linecap:round;stroke-opacity:0.5;"/>
     </g>
     <g id="text_15">
      <!-- 0.4 -->
      <g style="fill:#696969;" transform="translate(101.775312 364.369698)scale(0.23 -0.23)">
       <use xlink:href="#FranklinGothic-Book-48"/>
       <use x="58.642578" xlink:href="#FranklinGothic-Book-46"/>
       <use x="83.642578" xlink:href="#FranklinGothic-Book-52"/>
      </g>
     </g>
    </g>
    <g id="ytick_6">
     <g id="line2d_17">
      <path clip-path="url(#p19948b5479)" d="M 144 304.93422 
L 1036.8 304.93422 
" style="fill:none;stroke:#d3d3d3;stroke-linecap:round;stroke-opacity:0.5;"/>
     </g>
     <g id="text_16">
      <!-- 0.6 -->
      <g style="fill:#696969;" transform="translate(101.775312 312.599689)scale(0.23 -0.23)">
       <use xlink:href="#FranklinGothic-Book-48"/>
       <use x="58.642578" xlink:href="#FranklinGothic-Book-46"/>
       <use x="83.642578" xlink:href="#FranklinGothic-Book-54"/>
      </g>
     </g>
    </g>
    <g id="ytick_7">
     <g id="line2d_18">
      <path clip-path="url(#p19948b5479)" d="M 144 253.164211 
L 1036.8 253.164211 
" style="fill:none;stroke:#d3d3d3;stroke-linecap:round;stroke-opacity:0.5;"/>
     </g>
     <g id="text_17">
      <!-- 0.8 -->
      <g style="fill:#696969;" transform="translate(101.775312 260.82968)scale(0.23 -0.23)">
       <use xlink:href="#FranklinGothic-Book-48"/>
       <use x="58.642578" xlink:href="#FranklinGothic-Book-46"/>
       <use x="83.642578" xlink:href="#FranklinGothic-Book-56"/>
      </g>
     </g>
    </g>
    <g id="ytick_8">
     <g id="line2d_19">
      <path clip-path="url(#p19948b5479)" d="M 144 201.394202 
L 1036.8 201.394202 
" style="fill:none;stroke:#d3d3d3;stroke-linecap:round;stroke-opacity:0.5;"/>
     </g>
     <g id="text_18">
      <!-- 1.0 -->
      <g style="fill:#696969;" transform="translate(101.919062 209.059671)scale(0.23 -0.23)">
       <use xlink:href="#FranklinGothic-Book-49"/>
       <use x="58.017578" xlink:href="#FranklinGothic-Book-46"/>
       <use x="83.017578" xlink:href="#FranklinGothic-Book-48"/>
      </g>
     </g>
    </g>
    <g id="ytick_9">
     <g id="line2d_20">
      <path clip-path="url(#p19948b5479)" d="M 144 149.624193 
L 1036.8 149.624193 
" style="fill:none;stroke:#d3d3d3;stroke-linecap:round;stroke-opacity:0.5;"/>
     </g>
     <g id="text_19">
      <!-- 1.2 -->
      <g style="fill:#696969;" transform="translate(101.919062 157.289662)scale(0.23 -0.23)">
       <use xlink:href="#FranklinGothic-Book-49"/>
       <use x="58.017578" xlink:href="#FranklinGothic-Book-46"/>
       <use x="83.017578" xlink:href="#FranklinGothic-Book-50"/>
      </g>
     </g>
    </g>
    <g id="ytick_10">
     <g id="line2d_21">
      <path clip-path="url(#p19948b5479)" d="M 144 97.854184 
L 1036.8 97.854184 
" style="fill:none;stroke:#d3d3d3;stroke-linecap:round;stroke-opacity:0.5;"/>
     </g>
     <g id="text_20">
      <!-- 1.4 -->
      <g style="fill:#696969;" transform="translate(101.919062 105.519653)scale(0.23 -0.23)">
       <use xlink:href="#FranklinGothic-Book-49"/>
       <use x="58.017578" xlink:href="#FranklinGothic-Book-46"/>
       <use x="83.017578" xlink:href="#FranklinGothic-Book-52"/>
      </g>
     </g>
    </g>
    <g id="text_21">
     <!-- $\!^\circ\!$C -->
     <g style="fill:#696969;" transform="translate(74.457031 338.855)rotate(-90)scale(0.23 -0.23)">
      <defs>
       <path d="M 31.296875 40.671875 
Q 27.390625 40.671875 24.703125 37.953125 
Q 22.015625 35.25 22.015625 31.34375 
Q 22.015625 27.484375 24.703125 24.828125 
Q 27.390625 22.171875 31.296875 22.171875 
Q 35.203125 22.171875 37.890625 24.828125 
Q 40.578125 27.484375 40.578125 31.34375 
Q 40.578125 35.203125 37.859375 37.9375 
Q 35.15625 40.671875 31.296875 40.671875 
z
M 31.296875 46.96875 
Q 34.421875 46.96875 37.296875 45.765625 
Q 40.1875 44.578125 42.28125 42.328125 
Q 44.53125 40.140625 45.65625 37.34375 
Q 46.78125 34.5625 46.78125 31.34375 
Q 46.78125 24.90625 42.265625 20.4375 
Q 37.75 15.96875 31.203125 15.96875 
Q 24.609375 15.96875 20.21875 20.359375 
Q 15.828125 24.75 15.828125 31.34375 
Q 15.828125 37.890625 20.3125 42.421875 
Q 24.8125 46.96875 31.296875 46.96875 
z
" id="DejaVuSans-8728"/>
       <path d="M 48.296875 22.40625 
L 55.90625 20.703125 
Q 50.4375 -1.3125 31.203125 -1.3125 
Q 18.5625 -1.3125 11.359375 8.890625 
Q 4.15625 19.09375 4.15625 33.984375 
Q 4.15625 49.359375 11.671875 58.6875 
Q 19.1875 68.015625 31.84375 68.015625 
Q 50.59375 68.015625 55.90625 46.578125 
L 48.046875 45.015625 
Q 43.75 60.9375 31.78125 60.9375 
Q 22.953125 60.9375 18.09375 53.53125 
Q 13.234375 46.140625 13.234375 32.765625 
Q 13.234375 20.515625 18.203125 13.109375 
Q 23.1875 5.71875 31.390625 5.71875 
Q 44.140625 5.71875 48.296875 22.40625 
z
" id="FranklinGothic-Book-67"/>
      </defs>
      <use transform="translate(-1.64095 39.121875)scale(0.7)" xlink:href="#DejaVuSans-8728"/>
      <use transform="translate(42.313804 0.840625)" xlink:href="#FranklinGothic-Book-67"/>
     </g>
    </g>
   </g>
   <g id="text_22">
    <!-- Compared to 1850-1900 average -->
    <g style="fill:#696969;" transform="translate(144 75.2652)scale(0.3 -0.3)">
     <defs>
      <path d="M 25.34375 -1.3125 
Q 15.1875 -1.3125 9.5 6.203125 
Q 3.8125 13.71875 3.8125 24.859375 
Q 3.8125 36.625 10.203125 43.65625 
Q 16.609375 50.6875 26.125 50.6875 
Q 36.328125 50.6875 42.203125 43.28125 
Q 48.09375 35.890625 48.09375 24.8125 
Q 48.09375 13.28125 41.75 5.984375 
Q 35.40625 -1.3125 25.34375 -1.3125 
z
M 25.921875 4.984375 
Q 31.78125 4.984375 35.734375 9.8125 
Q 39.703125 14.65625 39.703125 24.859375 
Q 39.703125 35.109375 35.546875 39.71875 
Q 31.390625 44.34375 25.828125 44.34375 
Q 20.125 44.34375 16.15625 39.671875 
Q 12.203125 35.015625 12.203125 24.90625 
Q 12.203125 14.203125 16.15625 9.59375 
Q 20.125 4.984375 25.921875 4.984375 
z
" id="FranklinGothic-Book-111"/>
      <path d="M 73.734375 0 
L 66.265625 0 
L 66.265625 30.671875 
Q 66.265625 35.40625 65.59375 37.765625 
Q 64.9375 40.140625 62.390625 42.109375 
Q 59.859375 44.09375 56.6875 44.09375 
Q 52.296875 44.09375 48.21875 40.0625 
Q 44.140625 36.03125 44.140625 27.78125 
L 44.140625 0 
L 36.71875 0 
L 36.71875 32.46875 
Q 36.71875 38.96875 33.609375 41.65625 
Q 30.515625 44.34375 27.09375 44.34375 
Q 22.21875 44.34375 18.59375 40.140625 
Q 14.984375 35.9375 14.984375 29.5 
L 14.984375 0 
L 7.671875 0 
L 7.671875 49.3125 
L 14.265625 49.3125 
L 14.265625 39.84375 
Q 19.78125 50.6875 29.4375 50.6875 
Q 34.765625 50.6875 38.46875 47.21875 
Q 42.1875 43.75 43.265625 38.875 
Q 48.34375 50.6875 58.84375 50.6875 
Q 63.875 50.6875 67.65625 47.796875 
Q 71.4375 44.921875 72.578125 41.1875 
Q 73.734375 37.453125 73.734375 30.671875 
z
" id="FranklinGothic-Book-109"/>
      <path d="M 15.328125 -16.65625 
L 7.671875 -16.65625 
L 7.671875 49.3125 
L 14.546875 49.3125 
L 14.546875 39.75 
Q 19.78125 50.6875 30.125 50.6875 
Q 38.875 50.6875 44.234375 43.375 
Q 49.609375 36.078125 49.609375 24.90625 
Q 49.609375 12.84375 44.09375 5.765625 
Q 38.578125 -1.3125 29.9375 -1.3125 
Q 20.65625 -1.3125 15.328125 7.515625 
z
M 15.328125 31.78125 
L 15.328125 17.921875 
Q 16.0625 12.3125 20.0625 8.640625 
Q 24.078125 4.984375 28.421875 4.984375 
Q 33.453125 4.984375 37.328125 9.375 
Q 41.21875 13.765625 41.21875 24.5625 
Q 41.21875 33.890625 37.703125 38.9375 
Q 34.1875 44 28.375 44 
Q 23.78125 44 20.140625 40.421875 
Q 16.5 36.859375 15.328125 31.78125 
z
" id="FranklinGothic-Book-112"/>
      <path d="M 46.1875 66.65625 
L 46.1875 0 
L 39.203125 0 
L 39.203125 8.453125 
Q 34.03125 -1.3125 23.640625 -1.3125 
Q 14.984375 -1.3125 9.421875 5.9375 
Q 3.859375 13.1875 3.859375 24.265625 
Q 3.859375 35.59375 9.375 43.140625 
Q 14.890625 50.6875 24.03125 50.6875 
Q 32.90625 50.6875 38.53125 42.578125 
L 38.53125 66.65625 
z
M 38.53125 30.28125 
Q 38.53125 36.765625 34.5625 40.671875 
Q 30.609375 44.578125 25.34375 44.578125 
Q 19.625 44.578125 15.9375 39.5 
Q 12.25 34.421875 12.25 25.25 
Q 12.25 15.328125 15.640625 10.15625 
Q 19.046875 4.984375 24.953125 4.984375 
Q 30.328125 4.984375 34.421875 9.46875 
Q 38.53125 13.96875 38.53125 20.015625 
z
" id="FranklinGothic-Book-100"/>
      <path id="FranklinGothic-Book-32"/>
      <path d="M 30.03125 5.28125 
L 30.03125 -0.78125 
Q 25.984375 -1.3125 23 -1.3125 
Q 8.6875 -1.3125 8.6875 13.625 
L 8.6875 43.3125 
L -0.046875 43.3125 
L -0.046875 49.3125 
L 8.6875 49.3125 
L 9.03125 61.71875 
L 16.15625 62.40625 
L 16.15625 49.3125 
L 27.203125 49.3125 
L 27.203125 43.3125 
L 16.15625 43.3125 
L 16.15625 12.359375 
Q 16.15625 4.734375 24.078125 4.734375 
Q 26.703125 4.734375 30.03125 5.28125 
z
" id="FranklinGothic-Book-116"/>
      <path d="M 48.875 66.65625 
L 48.1875 59.46875 
L 15.4375 59.46875 
L 14.015625 37.84375 
Q 21.4375 45.125 30.328125 45.125 
Q 39.703125 45.125 46.515625 38.625 
Q 53.328125 32.125 53.328125 22.015625 
Q 53.328125 11.765625 45.921875 5.21875 
Q 38.53125 -1.3125 27.828125 -1.3125 
Q 19.4375 -1.3125 12.890625 3.078125 
Q 6.34375 7.46875 4.296875 14.453125 
L 11.421875 16.890625 
Q 15.828125 5.28125 27.9375 5.28125 
Q 35.890625 5.28125 40.578125 9.984375 
Q 45.265625 14.703125 45.265625 22.015625 
Q 45.265625 29.6875 40.625 33.984375 
Q 35.984375 38.28125 29.5 38.28125 
Q 20.015625 38.28125 13.8125 29.203125 
L 7.234375 30.609375 
L 9.375 66.65625 
z
" id="FranklinGothic-Book-53"/>
      <path d="M 23.53125 27.984375 
L 23.53125 22.015625 
L 1.46875 22.015625 
L 1.46875 27.984375 
z
" id="FranklinGothic-Book-45"/>
      <path d="M 43.796875 49.3125 
L 26.765625 0 
L 18.796875 0 
L 1.171875 49.3125 
L 9.671875 49.3125 
L 23.390625 9.234375 
L 36.96875 49.3125 
z
" id="FranklinGothic-Book-118"/>
      <path d="M 47.953125 57.03125 
L 47.953125 50.921875 
Q 42.671875 50.921875 40.890625 49.703125 
Q 39.109375 48.484375 38.53125 45.3125 
Q 43.265625 39.84375 43.265625 33.40625 
Q 43.265625 26.65625 38.109375 21.828125 
Q 32.953125 17 24.265625 17 
Q 22.3125 17 20.90625 17.28125 
Q 18.21875 17.828125 17.53125 17.828125 
Q 16.21875 17.828125 14.359375 16.53125 
Q 12.5 15.234375 12.5 13.1875 
Q 12.5 10.25 15.1875 9.375 
Q 17.875 8.5 27.828125 8.25 
Q 36.28125 8.015625 40.3125 7.109375 
Q 44.34375 6.203125 47.125 3.09375 
Q 49.90625 0 49.90625 -4.5 
Q 49.90625 -18.609375 25.09375 -18.609375 
Q 13.328125 -18.609375 7.9375 -15.0625 
Q 2.546875 -11.53125 2.546875 -5.609375 
Q 2.546875 1.5625 10.0625 4.25 
Q 5.21875 7.421875 5.21875 12.203125 
Q 5.21875 17.921875 12.0625 20.953125 
Q 5.671875 26.125 5.671875 33.984375 
Q 5.671875 41.3125 11.140625 46 
Q 16.609375 50.6875 24.46875 50.6875 
Q 30.03125 50.6875 34.578125 48.578125 
Q 35.296875 53.421875 37.953125 55.265625 
Q 40.625 57.125 46.046875 57.125 
Q 46.578125 57.125 47.953125 57.03125 
z
M 24.515625 22.859375 
Q 29.390625 22.859375 32.46875 25.859375 
Q 35.546875 28.859375 35.546875 33.640625 
Q 35.546875 38.53125 32.34375 41.625 
Q 29.15625 44.734375 24.609375 44.734375 
Q 20.265625 44.734375 16.890625 41.828125 
Q 13.53125 38.921875 13.53125 33.546875 
Q 13.53125 28.765625 16.546875 25.8125 
Q 19.578125 22.859375 24.515625 22.859375 
z
M 15.328125 2 
Q 9.96875 -0.34375 9.96875 -4.78125 
Q 9.96875 -8.546875 14.375 -10.625 
Q 18.796875 -12.703125 25.640625 -12.703125 
Q 31.984375 -12.703125 37.25 -10.90625 
Q 42.53125 -9.125 42.53125 -4.890625 
Q 42.53125 -2.59375 40.96875 -1.125 
Q 39.40625 0.34375 36.6875 0.734375 
Q 33.984375 1.125 27.25 1.3125 
Q 19.1875 1.515625 15.328125 2 
z
" id="FranklinGothic-Book-103"/>
     </defs>
     <use xlink:href="#FranklinGothic-Book-67"/>
     <use x="57.910156" xlink:href="#FranklinGothic-Book-111"/>
     <use x="109.863281" xlink:href="#FranklinGothic-Book-109"/>
     <use x="190.384766" xlink:href="#FranklinGothic-Book-112"/>
     <use x="243.802734" xlink:href="#FranklinGothic-Book-97"/>
     <use x="296.683594" xlink:href="#FranklinGothic-Book-114"/>
     <use x="329.642578" xlink:href="#FranklinGothic-Book-101"/>
     <use x="381.693359" xlink:href="#FranklinGothic-Book-100"/>
     <use x="435.550781" xlink:href="#FranklinGothic-Book-32"/>
     <use x="460.550781" xlink:href="#FranklinGothic-Book-116"/>
     <use x="489.8125" xlink:href="#FranklinGothic-Book-111"/>
     <use x="541.765625" xlink:href="#FranklinGothic-Book-32"/>
     <use x="566.765625" xlink:href="#FranklinGothic-Book-49"/>
     <use x="624.783203" xlink:href="#FranklinGothic-Book-56"/>
     <use x="683.425781" xlink:href="#FranklinGothic-Book-53"/>
     <use x="742.068359" xlink:href="#FranklinGothic-Book-48"/>
     <use x="800.710938" xlink:href="#FranklinGothic-Book-45"/>
     <use x="825.710938" xlink:href="#FranklinGothic-Book-49"/>
     <use x="882.978516" xlink:href="#FranklinGothic-Book-57"/>
     <use x="941.621094" xlink:href="#FranklinGothic-Book-48"/>
     <use x="1000.263672" xlink:href="#FranklinGothic-Book-48"/>
     <use x="1058.90625" xlink:href="#FranklinGothic-Book-32"/>
     <use x="1083.90625" xlink:href="#FranklinGothic-Book-97"/>
     <use x="1134.537109" xlink:href="#FranklinGothic-Book-118"/>
     <use x="1178.056641" xlink:href="#FranklinGothic-Book-101"/>
     <use x="1230.107422" xlink:href="#FranklinGothic-Book-114"/>
     <use x="1263.066406" xlink:href="#FranklinGothic-Book-97"/>
     <use x="1315.947266" xlink:href="#FranklinGothic-Book-103"/>
     <use x="1365.068359" xlink:href="#FranklinGothic-Book-101"/>
    </g>
   </g>
   <g id="text_23">
    <!-- Global mean temperature -->
    <g style="fill:#696969;" transform="translate(144 42.76)scale(0.4 -0.4)">
     <defs>
      <path d="M 57.71875 33.59375 
L 57.71875 -0.875 
L 52.59375 -0.875 
L 50.296875 7.46875 
Q 44.140625 -1.3125 31.984375 -1.3125 
Q 18.796875 -1.3125 11.46875 8.59375 
Q 4.15625 18.5 4.15625 32.671875 
Q 4.15625 47.796875 11.90625 57.90625 
Q 19.671875 68.015625 33.015625 68.015625 
Q 51.421875 68.015625 57.03125 48.6875 
L 49.125 46.78125 
Q 47.40625 54.203125 42.71875 57.5625 
Q 38.03125 60.9375 32.46875 60.9375 
Q 22.609375 60.9375 17.921875 52.96875 
Q 13.234375 45.015625 13.234375 33.015625 
Q 13.234375 20.0625 18.484375 12.765625 
Q 23.734375 5.46875 32.765625 5.46875 
Q 39.796875 5.46875 44.5 10.125 
Q 49.21875 14.796875 49.21875 23 
Q 49.21875 24.515625 49.125 26.609375 
L 32.625 26.609375 
L 32.625 33.59375 
z
" id="FranklinGothic-Book-71"/>
      <path d="M 15.328125 0 
L 7.671875 0 
L 7.671875 66.65625 
L 15.328125 66.65625 
z
" id="FranklinGothic-Book-108"/>
      <path d="M 11.375 0 
L 7.671875 0 
L 7.671875 66.65625 
L 15.328125 66.65625 
L 15.328125 41.109375 
Q 20.609375 50.6875 29.890625 50.6875 
Q 38.375 50.6875 44.109375 44 
Q 49.859375 37.3125 49.859375 24.5625 
Q 49.859375 13.578125 44.21875 6.125 
Q 38.578125 -1.3125 29.546875 -1.3125 
Q 19.484375 -1.3125 14.109375 8.15625 
z
M 15.328125 19.34375 
Q 15.875 11.765625 20 8.34375 
Q 24.125 4.9375 28.71875 4.9375 
Q 34.578125 4.9375 38.15625 10.015625 
Q 41.75 15.09375 41.75 23.921875 
Q 41.75 33.453125 38.28125 38.890625 
Q 34.8125 44.34375 28.65625 44.34375 
Q 23.828125 44.34375 19.9375 40.453125 
Q 16.0625 36.578125 15.328125 30.421875 
z
" id="FranklinGothic-Book-98"/>
      <path d="M 46.53125 0 
L 39.359375 0 
L 39.359375 31.6875 
Q 39.359375 38.53125 36.375 41.3125 
Q 33.40625 44.09375 29.15625 44.09375 
Q 23.296875 44.09375 19.3125 39.40625 
Q 15.328125 34.71875 15.328125 27.046875 
L 15.328125 0 
L 7.671875 0 
L 7.671875 49.3125 
L 14.796875 49.3125 
L 14.796875 40.234375 
Q 20.796875 50.6875 30.375 50.6875 
Q 35.890625 50.6875 39.765625 47.828125 
Q 43.65625 44.96875 45.09375 41.40625 
Q 46.53125 37.84375 46.53125 28.515625 
z
" id="FranklinGothic-Book-110"/>
      <path d="M 46.484375 0 
L 39.59375 0 
L 39.59375 9.421875 
Q 34.328125 -1.3125 23.875 -1.3125 
Q 16.3125 -1.3125 11.984375 3.65625 
Q 7.671875 8.640625 7.671875 17.828125 
L 7.671875 49.3125 
L 15.328125 49.3125 
L 15.328125 17.828125 
Q 15.328125 10.5 18.375 7.734375 
Q 21.4375 4.984375 25.09375 4.984375 
Q 28.8125 4.984375 31.8125 7.078125 
Q 34.8125 9.1875 36.8125 13.0625 
Q 38.8125 16.9375 38.8125 21.53125 
L 38.8125 49.3125 
L 46.484375 49.3125 
z
" id="FranklinGothic-Book-117"/>
     </defs>
     <use xlink:href="#FranklinGothic-Book-71"/>
     <use x="64.697266" xlink:href="#FranklinGothic-Book-108"/>
     <use x="87.695312" xlink:href="#FranklinGothic-Book-111"/>
     <use x="139.648438" xlink:href="#FranklinGothic-Book-98"/>
     <use x="193.359375" xlink:href="#FranklinGothic-Book-97"/>
     <use x="246.240234" xlink:href="#FranklinGothic-Book-108"/>
     <use x="269.238281" xlink:href="#FranklinGothic-Book-32"/>
     <use x="294.238281" xlink:href="#FranklinGothic-Book-109"/>
     <use x="375.634766" xlink:href="#FranklinGothic-Book-101"/>
     <use x="427.685547" xlink:href="#FranklinGothic-Book-97"/>
     <use x="480.566406" xlink:href="#FranklinGothic-Book-110"/>
     <use x="534.765625" xlink:href="#FranklinGothic-Book-32"/>
     <use x="559.765625" xlink:href="#FranklinGothic-Book-116"/>
     <use x="588.777344" xlink:href="#FranklinGothic-Book-101"/>
     <use x="640.828125" xlink:href="#FranklinGothic-Book-109"/>
     <use x="721.349609" xlink:href="#FranklinGothic-Book-112"/>
     <use x="774.767578" xlink:href="#FranklinGothic-Book-101"/>
     <use x="826.818359" xlink:href="#FranklinGothic-Book-114"/>
     <use x="859.777344" xlink:href="#FranklinGothic-Book-97"/>
     <use x="912.658203" xlink:href="#FranklinGothic-Book-116"/>
     <use x="943.419922" xlink:href="#FranklinGothic-Book-117"/>
     <use x="997.570312" xlink:href="#FranklinGothic-Book-114"/>
     <use x="1030.529297" xlink:href="#FranklinGothic-Book-101"/>
    </g>
   </g>
   <g id="legend_1">
    <g id="line2d_22"/>
    <g id="text_24">
     <!-- HadCRUT5 (1850-2023) -->
     <g style="fill:#696969;" transform="translate(185.856 129.7184)scale(0.2 -0.2)">
      <defs>
       <path d="M 55.953125 0 
L 47.609375 0 
L 47.609375 31.734375 
L 16.703125 31.734375 
L 16.703125 0 
L 8.34375 0 
L 8.34375 66.65625 
L 16.703125 66.65625 
L 16.703125 39.0625 
L 47.609375 39.0625 
L 47.609375 66.65625 
L 55.953125 66.65625 
z
" id="FranklinGothic-Book-72"/>
       <path d="M 56.296875 0 
L 47.5625 0 
L 35.25 28.859375 
L 16.15625 28.859375 
L 16.15625 0 
L 8.34375 0 
L 8.34375 66.65625 
L 34.625 66.65625 
Q 45.3125 66.65625 50.453125 60.8125 
Q 55.609375 54.984375 55.609375 48.046875 
Q 55.609375 42.71875 52.734375 37.828125 
Q 49.859375 32.953125 43.21875 30.859375 
z
M 16.15625 35.640625 
L 33.59375 35.640625 
Q 40.484375 35.640625 43.875 39.28125 
Q 47.265625 42.921875 47.265625 48.1875 
Q 47.265625 53.46875 43.671875 56.390625 
Q 40.09375 59.328125 34.625 59.328125 
L 16.15625 59.328125 
z
" id="FranklinGothic-Book-82"/>
       <path d="M 46.34375 66.65625 
L 53.265625 66.65625 
L 53.265625 23.140625 
Q 53.265625 10.0625 46.84375 4.375 
Q 40.4375 -1.3125 30.03125 -1.3125 
Q 18.453125 -1.3125 12.890625 4.546875 
Q 7.328125 10.40625 7.328125 23.140625 
L 7.328125 66.65625 
L 15.671875 66.65625 
L 15.671875 23.140625 
Q 15.671875 15.375 17.46875 12.203125 
Q 19.28125 9.03125 22.9375 7.515625 
Q 26.609375 6 30.609375 6 
Q 38.328125 6 42.328125 10.046875 
Q 46.34375 14.109375 46.34375 23.140625 
z
" id="FranklinGothic-Book-85"/>
       <path d="M 28.421875 0 
L 20.125 0 
L 20.125 59.328125 
L 1.03125 59.328125 
L 1.03125 66.65625 
L 47.5625 66.65625 
L 47.5625 59.328125 
L 28.421875 59.328125 
z
" id="FranklinGothic-Book-84"/>
       <path d="M 24.703125 -16.65625 
L 19.578125 -16.65625 
Q 5.21875 2.203125 5.21875 25.09375 
Q 5.21875 46.96875 19.578125 66.65625 
L 24.703125 66.65625 
Q 12.359375 48.25 12.359375 25 
Q 12.359375 2.828125 24.703125 -16.65625 
z
" id="FranklinGothic-Book-40"/>
       <path d="M 19.34375 31.34375 
L 19.34375 37.984375 
L 26.953125 37.984375 
Q 35.296875 37.984375 38.890625 41.40625 
Q 42.484375 44.828125 42.484375 49.703125 
Q 42.484375 55.078125 38.46875 58.21875 
Q 34.46875 61.375 28.421875 61.375 
Q 17.1875 61.375 12.890625 50.53125 
L 5.375 52.6875 
Q 11.8125 68.015625 29.203125 68.015625 
Q 38.96875 68.015625 44.96875 62.8125 
Q 50.984375 57.625 50.984375 50.296875 
Q 50.984375 44.625 47.359375 40.40625 
Q 43.75 36.1875 38.09375 35.109375 
Q 44.4375 34.1875 49 29.78125 
Q 53.5625 25.390625 53.5625 18.40625 
Q 53.5625 10.0625 46.765625 4.375 
Q 39.984375 -1.3125 28.171875 -1.3125 
Q 18.796875 -1.3125 12.125 3.125 
Q 5.46875 7.5625 2.9375 14.9375 
L 10.6875 17.53125 
Q 14.203125 5.46875 28.03125 5.46875 
Q 37.015625 5.46875 40.9375 9.296875 
Q 44.875 13.140625 44.875 18.453125 
Q 44.875 24.21875 40.15625 27.78125 
Q 35.453125 31.34375 26.953125 31.34375 
z
" id="FranklinGothic-Book-51"/>
       <path d="M 4.640625 66.65625 
L 9.71875 66.65625 
Q 24.125 47.796875 24.125 24.90625 
Q 24.125 3.03125 9.71875 -16.65625 
L 4.640625 -16.65625 
Q 17 1.765625 17 25 
Q 17 47.171875 4.640625 66.65625 
z
" id="FranklinGothic-Book-41"/>
      </defs>
      <use xlink:href="#FranklinGothic-Book-72"/>
      <use x="64.257812" xlink:href="#FranklinGothic-Book-97"/>
      <use x="117.138672" xlink:href="#FranklinGothic-Book-100"/>
      <use x="170.996094" xlink:href="#FranklinGothic-Book-67"/>
      <use x="228.90625" xlink:href="#FranklinGothic-Book-82"/>
      <use x="289.310547" xlink:href="#FranklinGothic-Book-85"/>
      <use x="349.90625" xlink:href="#FranklinGothic-Book-84"/>
      <use x="398.441406" xlink:href="#FranklinGothic-Book-53"/>
      <use x="457.083984" xlink:href="#FranklinGothic-Book-32"/>
      <use x="482.083984" xlink:href="#FranklinGothic-Book-40"/>
      <use x="511.429688" xlink:href="#FranklinGothic-Book-49"/>
      <use x="569.447266" xlink:href="#FranklinGothic-Book-56"/>
      <use x="628.089844" xlink:href="#FranklinGothic-Book-53"/>
      <use x="686.732422" xlink:href="#FranklinGothic-Book-48"/>
      <use x="745.375" xlink:href="#FranklinGothic-Book-45"/>
      <use x="770.375" xlink:href="#FranklinGothic-Book-50"/>
      <use x="829.017578" xlink:href="#FranklinGothic-Book-48"/>
      <use x="887.660156" xlink:href="#FranklinGothic-Book-50"/>
      <use x="946.302734" xlink:href="#FranklinGothic-Book-51"/>
      <use x="1004.945312" xlink:href="#FranklinGothic-Book-41"/>
     </g>
    </g>
    <g id="line2d_23"/>
    <g id="text_25">
     <!-- NOAAGlobalTemp (1850-2023) -->
     <g style="fill:#e69f00;" transform="translate(185.856 157.04965)scale(0.2 -0.2)">
      <defs>
       <path d="M 57.421875 0 
L 49.3125 0 
L 14.84375 58.109375 
L 14.9375 53.71875 
Q 15.09375 51.21875 15.09375 49.515625 
L 15.09375 0 
L 8.34375 0 
L 8.34375 66.65625 
L 18.796875 66.65625 
L 51.03125 12.3125 
L 50.921875 16.9375 
Q 50.828125 19.671875 50.828125 21.78125 
L 50.828125 66.65625 
L 57.421875 66.65625 
z
" id="FranklinGothic-Book-78"/>
       <path d="M 31.34375 -1.3125 
Q 18.5 -1.3125 11.328125 8.671875 
Q 4.15625 18.65625 4.15625 33.15625 
Q 4.15625 48.296875 11.671875 58.15625 
Q 19.1875 68.015625 31.59375 68.015625 
Q 43.953125 68.015625 51.421875 58.328125 
Q 58.890625 48.640625 58.890625 33.890625 
Q 58.890625 19.734375 51.640625 9.203125 
Q 44.390625 -1.3125 31.34375 -1.3125 
z
M 31.546875 5.46875 
Q 40.28125 5.46875 45.203125 13.421875 
Q 50.140625 21.390625 50.140625 33.9375 
Q 50.140625 46.828125 45.03125 54 
Q 39.9375 61.1875 31.5 61.1875 
Q 22.953125 61.1875 17.921875 53.421875 
Q 12.890625 45.65625 12.890625 33.109375 
Q 12.890625 20.84375 17.96875 13.15625 
Q 23.046875 5.46875 31.546875 5.46875 
z
" id="FranklinGothic-Book-79"/>
       <path d="M 53.21875 0 
L 44.671875 0 
L 37.9375 19.484375 
L 13.28125 19.484375 
L 7.328125 0 
L 0.34375 0 
L 21.96875 66.65625 
L 31.5 66.65625 
z
M 36.1875 25.734375 
L 25.921875 57.765625 
L 15.578125 25.734375 
z
" id="FranklinGothic-Book-65"/>
      </defs>
      <use xlink:href="#FranklinGothic-Book-78"/>
      <use x="65.722656" xlink:href="#FranklinGothic-Book-79"/>
      <use x="127.058594" xlink:href="#FranklinGothic-Book-65"/>
      <use x="180.623047" xlink:href="#FranklinGothic-Book-65"/>
      <use x="231.5625" xlink:href="#FranklinGothic-Book-71"/>
      <use x="296.259766" xlink:href="#FranklinGothic-Book-108"/>
      <use x="319.257812" xlink:href="#FranklinGothic-Book-111"/>
      <use x="371.210938" xlink:href="#FranklinGothic-Book-98"/>
      <use x="424.921875" xlink:href="#FranklinGothic-Book-97"/>
      <use x="477.802734" xlink:href="#FranklinGothic-Book-108"/>
      <use x="500.800781" xlink:href="#FranklinGothic-Book-84"/>
      <use x="542.835938" xlink:href="#FranklinGothic-Book-101"/>
      <use x="594.886719" xlink:href="#FranklinGothic-Book-109"/>
      <use x="675.408203" xlink:href="#FranklinGothic-Book-112"/>
      <use x="728.826172" xlink:href="#FranklinGothic-Book-32"/>
      <use x="753.826172" xlink:href="#FranklinGothic-Book-40"/>
      <use x="783.171875" xlink:href="#FranklinGothic-Book-49"/>
      <use x="841.189453" xlink:href="#FranklinGothic-Book-56"/>
      <use x="899.832031" xlink:href="#FranklinGothic-Book-53"/>
      <use x="958.474609" xlink:href="#FranklinGothic-Book-48"/>
      <use x="1017.117188" xlink:href="#FranklinGothic-Book-45"/>
      <use x="1042.117188" xlink:href="#FranklinGothic-Book-50"/>
      <use x="1100.759766" xlink:href="#FranklinGothic-Book-48"/>
      <use x="1159.402344" xlink:href="#FranklinGothic-Book-50"/>
      <use x="1218.044922" xlink:href="#FranklinGothic-Book-51"/>
      <use x="1276.6875" xlink:href="#FranklinGothic-Book-41"/>
     </g>
    </g>
    <g id="line2d_24"/>
    <g id="text_26">
     <!-- Kadow et al. (1850-2023) -->
     <g style="fill:#cc79a7;" transform="translate(185.856 184.3809)scale(0.2 -0.2)">
      <defs>
       <path d="M 61.03125 0 
L 51.90625 0 
L 31.984375 36.765625 
L 16.703125 17.78125 
L 16.703125 0 
L 8.34375 0 
L 8.34375 66.65625 
L 16.703125 66.65625 
L 16.703125 27.984375 
L 46.828125 66.65625 
L 55.859375 66.65625 
L 37.796875 43.3125 
z
" id="FranklinGothic-Book-75"/>
       <path d="M 64.5 49.3125 
L 50.296875 0 
L 44.09375 0 
L 33.0625 36.625 
L 22.953125 0 
L 16.65625 0 
L 1.859375 49.3125 
L 9.578125 49.3125 
L 20.265625 12.546875 
L 30.515625 49.3125 
L 36.140625 49.3125 
L 47.21875 12.40625 
L 58.296875 49.3125 
z
" id="FranklinGothic-Book-119"/>
      </defs>
      <use xlink:href="#FranklinGothic-Book-75"/>
      <use x="62.216797" xlink:href="#FranklinGothic-Book-97"/>
      <use x="115.097656" xlink:href="#FranklinGothic-Book-100"/>
      <use x="168.955078" xlink:href="#FranklinGothic-Book-111"/>
      <use x="219.533203" xlink:href="#FranklinGothic-Book-119"/>
      <use x="285.939453" xlink:href="#FranklinGothic-Book-32"/>
      <use x="310.939453" xlink:href="#FranklinGothic-Book-101"/>
      <use x="362.490234" xlink:href="#FranklinGothic-Book-116"/>
      <use x="393.251953" xlink:href="#FranklinGothic-Book-32"/>
      <use x="418.251953" xlink:href="#FranklinGothic-Book-97"/>
      <use x="471.132812" xlink:href="#FranklinGothic-Book-108"/>
      <use x="494.130859" xlink:href="#FranklinGothic-Book-46"/>
      <use x="519.130859" xlink:href="#FranklinGothic-Book-32"/>
      <use x="544.130859" xlink:href="#FranklinGothic-Book-40"/>
      <use x="573.476562" xlink:href="#FranklinGothic-Book-49"/>
      <use x="631.494141" xlink:href="#FranklinGothic-Book-56"/>
      <use x="690.136719" xlink:href="#FranklinGothic-Book-53"/>
      <use x="748.779297" xlink:href="#FranklinGothic-Book-48"/>
      <use x="807.421875" xlink:href="#FranklinGothic-Book-45"/>
      <use x="832.421875" xlink:href="#FranklinGothic-Book-50"/>
      <use x="891.064453" xlink:href="#FranklinGothic-Book-48"/>
      <use x="949.707031" xlink:href="#FranklinGothic-Book-50"/>
      <use x="1008.349609" xlink:href="#FranklinGothic-Book-51"/>
      <use x="1066.992188" xlink:href="#FranklinGothic-Book-41"/>
     </g>
    </g>
    <g id="line2d_25"/>
    <g id="text_27">
     <!-- GISTEMP (1880-2023) -->
     <g style="fill:#56b4e9;" transform="translate(185.856 211.71215)scale(0.2 -0.2)">
      <defs>
       <path d="M 16.703125 0 
L 8.34375 0 
L 8.34375 66.65625 
L 16.703125 66.65625 
z
" id="FranklinGothic-Book-73"/>
       <path d="M 1.03125 17.71875 
L 8.546875 19.4375 
Q 13.09375 5.8125 28.21875 5.8125 
Q 36.140625 5.8125 40.140625 9.15625 
Q 44.140625 12.5 44.140625 18.109375 
Q 44.140625 22.359375 41.078125 24.953125 
Q 38.03125 27.546875 34.03125 28.515625 
L 20.703125 31.84375 
Q 15.53125 33.15625 12.234375 35.03125 
Q 8.9375 36.921875 6.640625 40.828125 
Q 4.34375 44.734375 4.34375 49.75 
Q 4.34375 58.109375 10.640625 63.0625 
Q 16.9375 68.015625 26.8125 68.015625 
Q 44.96875 68.015625 50.6875 51.5625 
L 43.109375 49.3125 
Q 41.796875 55.171875 36.90625 58.171875 
Q 32.03125 61.1875 26.515625 61.1875 
Q 21.046875 61.1875 16.765625 58.296875 
Q 12.5 55.421875 12.5 50.140625 
Q 12.5 42.78125 23.34375 40.1875 
L 35.796875 37.203125 
Q 52.875 33.109375 52.875 18.796875 
Q 52.875 10.15625 46.453125 4.421875 
Q 40.046875 -1.3125 28.375 -1.3125 
Q 7.671875 -1.3125 1.03125 17.71875 
z
" id="FranklinGothic-Book-83"/>
       <path d="M 51.46875 7.328125 
L 51.46875 0 
L 8.34375 0 
L 8.34375 66.65625 
L 50.53125 66.65625 
L 50.53125 59.328125 
L 16.703125 59.328125 
L 16.703125 38.140625 
L 43.5625 38.140625 
L 43.5625 31.34375 
L 16.703125 31.34375 
L 16.703125 7.328125 
z
" id="FranklinGothic-Book-69"/>
       <path d="M 72.703125 0 
L 64.59375 0 
L 64.59375 58.203125 
L 42.921875 0 
L 37.25 0 
L 15.4375 58.203125 
L 15.4375 0 
L 8.34375 0 
L 8.34375 66.65625 
L 20.75 66.65625 
L 40.828125 13.328125 
L 60.5 66.65625 
L 72.703125 66.65625 
z
" id="FranklinGothic-Book-77"/>
       <path d="M 16.703125 0 
L 8.34375 0 
L 8.34375 66.65625 
L 31.984375 66.65625 
Q 43.0625 66.65625 48.328125 60.625 
Q 53.609375 54.59375 53.609375 46.875 
Q 53.609375 38.28125 47.875 32.65625 
Q 42.140625 27.046875 32.859375 27.046875 
L 16.703125 27.046875 
z
M 16.703125 33.984375 
L 32.03125 33.984375 
Q 37.9375 33.984375 41.546875 37.515625 
Q 45.171875 41.0625 45.171875 46.875 
Q 45.171875 51.859375 41.9375 55.765625 
Q 38.71875 59.671875 32.625 59.671875 
L 16.703125 59.671875 
z
" id="FranklinGothic-Book-80"/>
      </defs>
      <use xlink:href="#FranklinGothic-Book-71"/>
      <use x="64.697266" xlink:href="#FranklinGothic-Book-73"/>
      <use x="89.697266" xlink:href="#FranklinGothic-Book-83"/>
      <use x="144.630859" xlink:href="#FranklinGothic-Book-84"/>
      <use x="193.166016" xlink:href="#FranklinGothic-Book-69"/>
      <use x="247.951172" xlink:href="#FranklinGothic-Book-77"/>
      <use x="328.957031" xlink:href="#FranklinGothic-Book-80"/>
      <use x="384.865234" xlink:href="#FranklinGothic-Book-32"/>
      <use x="409.865234" xlink:href="#FranklinGothic-Book-40"/>
      <use x="439.210938" xlink:href="#FranklinGothic-Book-49"/>
      <use x="497.228516" xlink:href="#FranklinGothic-Book-56"/>
      <use x="555.871094" xlink:href="#FranklinGothic-Book-56"/>
      <use x="614.513672" xlink:href="#FranklinGothic-Book-48"/>
      <use x="673.15625" xlink:href="#FranklinGothic-Book-45"/>
      <use x="698.15625" xlink:href="#FranklinGothic-Book-50"/>
      <use x="756.798828" xlink:href="#FranklinGothic-Book-48"/>
      <use x="815.441406" xlink:href="#FranklinGothic-Book-50"/>
      <use x="874.083984" xlink:href="#FranklinGothic-Book-51"/>
      <use x="932.726562" xlink:href="#FranklinGothic-Book-41"/>
     </g>
    </g>
    <g id="line2d_26"/>
    <g id="text_28">
     <!-- Berkeley Earth (1850-2023) -->
     <g style="fill:#009e73;" transform="translate(185.856 239.0434)scale(0.2 -0.2)">
      <defs>
       <path d="M 8.34375 0 
L 8.34375 66.65625 
L 34.71875 66.65625 
Q 44.671875 66.65625 49.484375 61.765625 
Q 54.296875 56.890625 54.296875 50.4375 
Q 54.296875 39.109375 42.484375 35.40625 
Q 49.515625 33.59375 52.921875 28.953125 
Q 56.34375 24.3125 56.34375 18.453125 
Q 56.34375 10.59375 51.046875 5.296875 
Q 45.75 0 34.71875 0 
z
M 16.40625 38.09375 
L 30.90625 38.09375 
Q 39.9375 38.09375 42.96875 41.53125 
Q 46 44.96875 46 49.609375 
Q 46 54.203125 42.75 57.03125 
Q 39.5 59.859375 33.0625 59.859375 
L 16.40625 59.859375 
z
M 16.40625 7.328125 
L 34.28125 7.328125 
Q 40.828125 7.328125 44.390625 10.5 
Q 47.953125 13.671875 47.953125 18.75 
Q 47.953125 22.3125 46.34375 25.359375 
Q 44.734375 28.421875 41.796875 30.078125 
Q 38.875 31.734375 33.0625 31.734375 
L 16.40625 31.734375 
z
" id="FranklinGothic-Book-66"/>
       <path d="M 48.390625 0 
L 40.4375 0 
L 26.03125 27.546875 
L 15.328125 15.234375 
L 15.328125 0 
L 7.671875 0 
L 7.671875 66.65625 
L 15.328125 66.65625 
L 15.328125 23.96875 
L 38.234375 49.3125 
L 46.4375 49.3125 
L 31 31.984375 
z
" id="FranklinGothic-Book-107"/>
       <path d="M 41.5 49.3125 
L 21.734375 -5.765625 
Q 17.4375 -17.671875 8.015625 -17.671875 
Q 5.03125 -17.671875 1.421875 -16.65625 
L 1.421875 -10.640625 
Q 4.390625 -11.328125 6.546875 -11.328125 
Q 10.203125 -11.328125 12.671875 -9.21875 
Q 15.140625 -7.125 17.578125 0.921875 
L 0.53125 49.3125 
L 8.34375 49.3125 
L 21.53125 12.25 
L 35.0625 49.3125 
z
" id="FranklinGothic-Book-121"/>
       <path d="M 46.34375 0 
L 38.671875 0 
L 38.671875 29.9375 
Q 38.671875 35.203125 38.015625 37.84375 
Q 37.359375 40.484375 34.890625 42.40625 
Q 32.421875 44.34375 29.203125 44.34375 
Q 23.296875 44.34375 19.3125 39.5 
Q 15.328125 34.671875 15.328125 26.5625 
L 15.328125 0 
L 7.671875 0 
L 7.671875 66.65625 
L 15.328125 66.65625 
L 15.328125 40.234375 
Q 20.5625 50.6875 30.28125 50.6875 
Q 34.625 50.6875 38.015625 48.96875 
Q 41.40625 47.265625 43.203125 44.484375 
Q 45.015625 41.703125 45.671875 38.984375 
Q 46.34375 36.28125 46.34375 29.9375 
z
" id="FranklinGothic-Book-104"/>
      </defs>
      <use xlink:href="#FranklinGothic-Book-66"/>
      <use x="60.449219" xlink:href="#FranklinGothic-Book-101"/>
      <use x="112.5" xlink:href="#FranklinGothic-Book-114"/>
      <use x="144.958984" xlink:href="#FranklinGothic-Book-107"/>
      <use x="192.806641" xlink:href="#FranklinGothic-Book-101"/>
      <use x="244.857422" xlink:href="#FranklinGothic-Book-108"/>
      <use x="267.855469" xlink:href="#FranklinGothic-Book-101"/>
      <use x="318.28125" xlink:href="#FranklinGothic-Book-121"/>
      <use x="359.785156" xlink:href="#FranklinGothic-Book-32"/>
      <use x="384.785156" xlink:href="#FranklinGothic-Book-69"/>
      <use x="439.570312" xlink:href="#FranklinGothic-Book-97"/>
      <use x="492.451172" xlink:href="#FranklinGothic-Book-114"/>
      <use x="528.785156" xlink:href="#FranklinGothic-Book-116"/>
      <use x="559.546875" xlink:href="#FranklinGothic-Book-104"/>
      <use x="613.550781" xlink:href="#FranklinGothic-Book-32"/>
      <use x="638.550781" xlink:href="#FranklinGothic-Book-40"/>
      <use x="667.896484" xlink:href="#FranklinGothic-Book-49"/>
      <use x="725.914062" xlink:href="#FranklinGothic-Book-56"/>
      <use x="784.556641" xlink:href="#FranklinGothic-Book-53"/>
      <use x="843.199219" xlink:href="#FranklinGothic-Book-48"/>
      <use x="901.841797" xlink:href="#FranklinGothic-Book-45"/>
      <use x="926.841797" xlink:href="#FranklinGothic-Book-50"/>
      <use x="985.484375" xlink:href="#FranklinGothic-Book-48"/>
      <use x="1044.126953" xlink:href="#FranklinGothic-Book-50"/>
      <use x="1102.769531" xlink:href="#FranklinGothic-Book-51"/>
      <use x="1161.412109" xlink:href="#FranklinGothic-Book-41"/>
     </g>
    </g>
    <g id="line2d_27"/>
    <g id="text_29">
     <!-- JRA-55 (1958-2023) -->
     <g style="fill:#d55e00;" transform="translate(185.856 266.577775)scale(0.2 -0.2)">
      <defs>
       <path d="M 29.6875 66.65625 
L 29.6875 20.359375 
Q 29.6875 8.25 24.21875 3.46875 
Q 18.75 -1.3125 9.71875 -1.3125 
Q 4.890625 -1.3125 0 0 
L 0 6.84375 
Q 4.78125 5.859375 8.6875 5.859375 
Q 14.265625 5.859375 16.890625 7.515625 
Q 19.53125 9.1875 20.4375 11.8125 
Q 21.34375 14.453125 21.34375 20.359375 
L 21.34375 66.65625 
z
" id="FranklinGothic-Book-74"/>
      </defs>
      <use xlink:href="#FranklinGothic-Book-74"/>
      <use x="37.353516" xlink:href="#FranklinGothic-Book-82"/>
      <use x="98.632812" xlink:href="#FranklinGothic-Book-65"/>
      <use x="153.947266" xlink:href="#FranklinGothic-Book-45"/>
      <use x="178.947266" xlink:href="#FranklinGothic-Book-53"/>
      <use x="237.589844" xlink:href="#FranklinGothic-Book-53"/>
      <use x="296.232422" xlink:href="#FranklinGothic-Book-32"/>
      <use x="321.232422" xlink:href="#FranklinGothic-Book-40"/>
      <use x="350.578125" xlink:href="#FranklinGothic-Book-49"/>
      <use x="407.845703" xlink:href="#FranklinGothic-Book-57"/>
      <use x="466.488281" xlink:href="#FranklinGothic-Book-53"/>
      <use x="525.130859" xlink:href="#FranklinGothic-Book-56"/>
      <use x="583.773438" xlink:href="#FranklinGothic-Book-45"/>
      <use x="608.773438" xlink:href="#FranklinGothic-Book-50"/>
      <use x="667.416016" xlink:href="#FranklinGothic-Book-48"/>
      <use x="726.058594" xlink:href="#FranklinGothic-Book-50"/>
      <use x="784.701172" xlink:href="#FranklinGothic-Book-51"/>
      <use x="843.34375" xlink:href="#FranklinGothic-Book-41"/>
     </g>
    </g>
    <g id="line2d_28"/>
    <g id="text_30">
     <!-- ERA5 (1940-2023) -->
     <g style="fill:#0072b2;" transform="translate(185.856 293.909025)scale(0.2 -0.2)">
      <use xlink:href="#FranklinGothic-Book-69"/>
      <use x="54.785156" xlink:href="#FranklinGothic-Book-82"/>
      <use x="116.064453" xlink:href="#FranklinGothic-Book-65"/>
      <use x="169.628906" xlink:href="#FranklinGothic-Book-53"/>
      <use x="228.271484" xlink:href="#FranklinGothic-Book-32"/>
      <use x="253.271484" xlink:href="#FranklinGothic-Book-40"/>
      <use x="282.617188" xlink:href="#FranklinGothic-Book-49"/>
      <use x="339.884766" xlink:href="#FranklinGothic-Book-57"/>
      <use x="398.027344" xlink:href="#FranklinGothic-Book-52"/>
      <use x="456.669922" xlink:href="#FranklinGothic-Book-48"/>
      <use x="515.3125" xlink:href="#FranklinGothic-Book-45"/>
      <use x="540.3125" xlink:href="#FranklinGothic-Book-50"/>
      <use x="598.955078" xlink:href="#FranklinGothic-Book-48"/>
      <use x="657.597656" xlink:href="#FranklinGothic-Book-50"/>
      <use x="716.240234" xlink:href="#FranklinGothic-Book-51"/>
      <use x="774.882812" xlink:href="#FranklinGothic-Book-41"/>
     </g>
    </g>
   </g>
   <g id="line2d_29">
    <path clip-path="url(#p19948b5479)" d="M 184.581818 518.189269 
L 189.273358 486.803701 
L 193.964898 480.159883 
L 198.656437 481.518846 
L 203.347977 478.714637 
L 208.039517 477.679237 
L 212.731056 510.919897 
L 217.422596 547.84917 
L 222.114136 494.396635 
L 226.805675 465.060297 
L 231.497215 504.664354 
L 236.188755 525.372357 
L 240.880294 554.04 
L 245.571834 490.621739 
L 250.263374 500.652178 
L 254.954913 476.794832 
L 259.646453 466.074126 
L 264.337993 454.188595 
L 269.029532 461.155975 
L 273.721072 460.940267 
L 278.412612 479.555899 
L 283.104151 487.795959 
L 292.487231 470.280439 
L 297.17877 483.848496 
L 301.87031 494.396635 
L 306.56185 495.130044 
L 311.253389 395.796339 
L 315.944929 374.074506 
L 320.636469 462.06195 
L 325.328008 483.244513 
L 330.019548 453.368903 
L 334.711088 467.540943 
L 339.402627 481.001145 
L 344.094167 526.041053 
L 348.785707 515.989043 
L 353.477246 522.762286 
L 358.168786 531.606329 
L 362.860326 478.779349 
L 367.551865 446.746656 
L 372.243405 522.87014 
L 376.934945 491.355147 
L 381.626484 507.770554 
L 386.318024 501.903287 
L 391.009564 499.012794 
L 395.701104 480.116741 
L 400.392643 457.316366 
L 405.084183 453.563041 
L 409.775723 506.648871 
L 414.467262 462.450225 
L 419.158802 435.400396 
L 423.850342 455.374991 
L 428.541881 496.424294 
L 433.233421 522.223015 
L 437.924961 537.257889 
L 442.6165 490.298176 
L 447.30804 467.821364 
L 451.99958 511.78273 
L 456.691119 517.089156 
L 461.382659 533.590846 
L 466.074199 522.783857 
L 470.765738 526.084195 
L 475.457278 508.633388 
L 480.148818 500.95417 
L 484.840357 452.76492 
L 489.531897 438.808588 
L 494.223437 500.43647 
L 498.914976 538.897272 
L 503.606516 495.367323 
L 508.298056 478.412645 
L 512.989595 463.399342 
L 517.681135 450.046994 
L 522.372675 472.674802 
L 527.064214 463.917042 
L 531.755754 466.030984 
L 536.447294 454.922003 
L 541.138833 419.567401 
L 545.830373 449.335157 
L 550.521913 446.638802 
L 555.213452 494.094644 
L 559.904992 434.451279 
L 564.596532 418.467289 
L 569.288071 429.252707 
L 573.979611 479.814749 
L 578.671151 441.526513 
L 583.36269 457.122229 
L 588.05423 439.045867 
L 592.74577 398.492693 
L 597.43731 397.11216 
L 602.128849 402.677436 
L 606.820389 381.40859 
L 611.511929 392.819563 
L 616.203468 390.360488 
L 620.895008 376.274731 
L 625.586548 349.095476 
L 630.278087 381.840007 
L 634.969627 419.890964 
L 639.661167 402.00874 
L 644.352706 425.97394 
L 649.044246 428.519299 
L 653.735786 444.934706 
L 658.427325 398.341698 
L 667.810405 360.571162 
L 672.501944 411.090062 
L 677.193484 424.075706 
L 681.885024 445.322981 
L 686.576563 386.089462 
L 691.268103 384.838353 
L 695.959643 389.260375 
L 700.651182 404.165824 
L 705.342722 384.730499 
L 710.034262 399.830085 
L 714.725801 388.764246 
L 719.417341 457.898779 
L 724.108881 426.534782 
L 728.80042 411.348912 
L 733.49196 403.087282 
L 738.1835 422.910881 
L 742.875039 384.277512 
L 747.566579 396.443464 
L 752.258119 427.030911 
L 756.949658 398.837827 
L 761.641198 363.914641 
L 766.332738 417.151468 
L 771.024277 400.261502 
L 775.715817 425.585665 
L 780.407357 340.16515 
L 785.098896 372.607689 
L 789.790436 352.891944 
L 794.481976 321.182813 
L 799.173516 308.197169 
L 803.865055 364.087208 
L 808.556595 317.170637 
L 813.248135 360.657445 
L 817.939674 361.628133 
L 822.631214 347.65023 
L 827.322754 311.475936 
L 832.014293 300.043393 
L 836.705833 329.59544 
L 841.397373 281.212052 
L 846.088912 284.25354 
L 850.780452 338.094349 
L 855.471992 323.232043 
L 860.163531 310.28954 
L 864.855071 269.606941 
L 869.546611 298.317726 
L 874.23815 262.035578 
L 878.92969 223.143358 
L 883.62123 285.763498 
L 888.312769 285.396794 
L 893.004309 250.689317 
L 897.695849 226.443696 
L 902.387388 231.081426 
L 907.078928 253.687664 
L 911.770468 210.610702 
L 916.462007 223.639488 
L 921.153547 220.231295 
L 925.845087 252.932684 
L 930.536626 217.987928 
L 935.228166 199.976279 
L 939.919706 228.514497 
L 944.611245 223.747342 
L 949.302785 218.721337 
L 953.994325 200.278271 
L 958.685864 162.939152 
L 963.377404 127.411983 
L 968.068944 152.347871 
L 972.760483 171.783195 
L 977.452023 136.493305 
L 982.143563 129.827917 
L 986.835102 169.755536 
L 991.526642 158.819122 
L 996.218182 100.588407 
L 996.218182 100.588407 
" style="fill:none;stroke:#009e73;stroke-linecap:round;stroke-width:3;"/>
   </g>
   <g id="line2d_30">
    <path clip-path="url(#p19948b5479)" d="M 325.328008 434.287341 
L 330.019548 413.14792 
L 334.711088 419.619171 
L 339.402627 437.522966 
L 344.094167 465.133638 
L 348.785707 477.860432 
L 353.477246 472.683431 
L 358.168786 485.194516 
L 362.860326 436.875841 
L 367.551865 419.619171 
L 372.243405 483.468849 
L 376.934945 450.465468 
L 381.626484 462.976554 
L 386.318024 472.467722 
L 391.009564 473.114847 
L 395.701104 452.191135 
L 400.392643 419.187755 
L 405.084183 418.109213 
L 409.775723 461.682304 
L 414.467262 437.307258 
L 419.158802 412.285087 
L 423.850342 431.483132 
L 428.541881 463.839387 
L 433.233421 486.704475 
L 437.924961 513.668021 
L 442.6165 458.662386 
L 447.30804 448.739801 
L 451.99958 490.802934 
L 456.691119 500.725519 
L 461.382659 516.47223 
L 466.074199 502.882603 
L 470.765738 504.392561 
L 475.457278 484.331683 
L 480.148818 479.37039 
L 484.840357 429.541756 
L 489.531897 426.737548 
L 494.223437 483.037432 
L 498.914976 509.353854 
L 503.606516 467.722138 
L 508.298056 461.466595 
L 512.989595 461.250887 
L 517.681135 438.3858 
L 522.372675 463.407971 
L 527.064214 458.662386 
L 531.755754 459.740928 
L 536.447294 447.229843 
L 541.138833 417.246379 
L 545.830373 446.151301 
L 550.521913 442.052842 
L 555.213452 483.468849 
L 559.904992 430.40459 
L 564.596532 414.44217 
L 569.288071 431.267423 
L 573.979611 463.623679 
L 578.671151 421.776255 
L 583.36269 441.837134 
L 588.05423 427.600381 
L 592.74577 397.185501 
L 597.43731 389.851416 
L 602.128849 394.381292 
L 606.820389 357.710869 
L 611.511929 341.964158 
L 616.203468 373.026163 
L 620.895008 366.554912 
L 625.586548 336.787157 
L 630.278087 365.47637 
L 634.969627 408.618044 
L 639.661167 396.538376 
L 644.352706 417.462088 
L 649.044246 418.756338 
L 653.735786 434.934466 
L 658.427325 407.970919 
L 663.118865 387.694332 
L 667.810405 369.359121 
L 672.501944 424.796172 
L 677.193484 426.521839 
L 681.885024 439.248633 
L 686.576563 377.771747 
L 691.268103 374.104705 
L 695.959643 382.301623 
L 700.651182 396.754084 
L 705.342722 375.614664 
L 710.034262 382.301623 
L 714.725801 375.830372 
L 719.417341 441.621425 
L 724.108881 417.893504 
L 728.80042 405.16671 
L 733.49196 396.322667 
L 738.1835 411.85367 
L 742.875039 376.477497 
L 747.566579 383.811582 
L 752.258119 411.637962 
L 756.949658 388.341457 
L 761.641198 349.298242 
L 766.332738 408.833753 
L 771.024277 393.949875 
L 775.715817 415.952129 
L 780.407357 344.552658 
L 785.098896 372.594746 
L 789.790436 347.788284 
L 794.481976 324.060363 
L 799.173516 307.019401 
L 803.865055 354.259535 
L 808.556595 309.82361 
L 813.248135 349.729659 
L 817.939674 360.299369 
L 822.631214 343.689825 
L 827.322754 307.450818 
L 832.014293 289.97844 
L 836.705833 320.177612 
L 841.397373 275.094562 
L 846.088912 286.095689 
L 850.780452 333.767239 
L 855.471992 331.178739 
L 860.163531 309.607902 
L 864.855071 275.525979 
L 869.546611 305.725151 
L 874.23815 271.42752 
L 878.92969 234.109972 
L 883.62123 292.135524 
L 888.312769 289.331315 
L 893.004309 252.445183 
L 897.695849 228.717263 
L 902.387388 231.305763 
L 907.078928 252.8766 
L 911.770468 215.77476 
L 916.462007 226.34447 
L 921.153547 219.226094 
L 925.845087 250.935225 
L 930.536626 221.383178 
L 935.228166 203.695091 
L 939.919706 233.03143 
L 944.611245 222.893137 
L 949.302785 215.77476 
L 953.994325 197.655257 
L 958.685864 158.180625 
L 963.377404 128.41287 
L 968.068944 152.572207 
L 972.760483 171.338836 
L 977.452023 137.68833 
L 982.143563 128.197161 
L 986.835102 171.554544 
L 991.526642 159.906292 
L 996.218182 108.208186 
L 996.218182 108.208186 
" style="fill:none;stroke:#56b4e9;stroke-linecap:round;stroke-width:3;"/>
   </g>
   <g id="line2d_31">
    <path clip-path="url(#p19948b5479)" d="M 184.581818 492.96764 
L 189.273358 467.172963 
L 193.964898 445.888298 
L 198.656437 464.330778 
L 203.347977 456.505253 
L 208.039517 454.694457 
L 212.731056 484.863418 
L 217.422596 508.752277 
L 222.114136 479.394406 
L 226.805675 461.024946 
L 231.497215 486 
L 236.188755 489.413507 
L 240.880294 494.090656 
L 245.571834 471.325429 
L 250.263374 474.106195 
L 254.954913 463.612482 
L 259.646453 465.483869 
L 264.337993 450.869402 
L 269.029532 444.77647 
L 273.721072 451.605225 
L 278.412612 463.572758 
L 283.104151 472.070412 
L 287.795691 459.913527 
L 292.487231 466.830115 
L 297.17877 472.189937 
L 301.87031 457.767594 
L 306.56185 479.648999 
L 311.253389 401.518978 
L 315.944929 385.756797 
L 320.636469 440.871078 
L 325.328008 453.379649 
L 330.019548 430.614199 
L 334.711088 457.122536 
L 339.402627 466.855924 
L 344.094167 502.802906 
L 348.785707 510.809362 
L 353.477246 511.05126 
L 358.168786 526.244047 
L 362.860326 478.095837 
L 367.551865 438.253716 
L 372.243405 508.824773 
L 376.934945 482.303852 
L 381.626484 508.268005 
L 386.318024 499.500082 
L 391.009564 509.573493 
L 395.701104 496.208539 
L 400.392643 449.666917 
L 405.084183 452.584154 
L 409.775723 506.965458 
L 414.467262 468.549191 
L 419.158802 443.948136 
L 423.850342 451.906164 
L 428.541881 491.749985 
L 433.233421 515.547449 
L 437.924961 529.949172 
L 442.6165 480.416064 
L 447.30804 456.525748 
L 451.99958 500.28506 
L 456.691119 508.989255 
L 461.382659 522.856558 
L 466.074199 514.190518 
L 470.765738 521.947754 
L 475.457278 505.067049 
L 480.148818 498.602628 
L 484.840357 444.866051 
L 489.531897 427.885703 
L 494.223437 485.740168 
L 498.914976 519.455562 
L 503.606516 480.255634 
L 508.298056 464.091441 
L 512.989595 442.320565 
L 517.681135 447.063386 
L 522.372675 465.731486 
L 527.064214 456.372678 
L 531.755754 455.67513 
L 536.447294 441.62772 
L 541.138833 411.686151 
L 545.830373 438.172416 
L 550.521913 435.852621 
L 555.213452 477.829494 
L 559.904992 422.34795 
L 564.596532 406.466069 
L 569.288071 416.280949 
L 573.979611 463.30285 
L 578.671151 422.57916 
L 583.36269 435.201249 
L 588.05423 421.517089 
L 592.74577 379.453882 
L 597.43731 382.737806 
L 602.128849 385.364199 
L 606.820389 369.275776 
L 611.511929 381.30177 
L 616.203468 377.598056 
L 620.895008 368.98706 
L 625.586548 338.392259 
L 630.278087 382.639227 
L 634.969627 409.500133 
L 639.661167 396.010372 
L 644.352706 410.344141 
L 649.044246 414.988995 
L 653.735786 436.516684 
L 658.427325 393.143927 
L 663.118865 373.576819 
L 667.810405 358.459521 
L 672.501944 408.21366 
L 677.193484 420.460397 
L 681.885024 436.933145 
L 686.576563 380.910912 
L 691.268103 380.502388 
L 695.959643 388.557085 
L 700.651182 397.964899 
L 705.342722 377.606739 
L 710.034262 393.72819 
L 714.725801 382.944134 
L 719.417341 447.826028 
L 724.108881 420.052927 
L 728.80042 404.217858 
L 733.49196 395.524248 
L 738.1835 412.021136 
L 742.875039 380.478963 
L 747.566579 385.986031 
L 752.258119 420.444983 
L 756.949658 393.395624 
L 761.641198 355.759431 
L 766.332738 413.953261 
L 771.024277 400.425012 
L 775.715817 428.925682 
L 780.407357 343.598306 
L 785.098896 370.682939 
L 789.790436 351.262115 
L 794.481976 320.837684 
L 799.173516 308.700455 
L 803.865055 359.807811 
L 808.556595 312.781601 
L 813.248135 357.548632 
L 817.939674 356.447902 
L 822.631214 348.586426 
L 827.322754 312.735642 
L 832.014293 297.97279 
L 836.705833 329.005851 
L 841.397373 280.103819 
L 846.088912 284.345535 
L 850.780452 337.877868 
L 855.471992 322.341883 
L 860.163531 308.868944 
L 864.855071 271.969872 
L 869.546611 301.050718 
L 874.23815 262.525332 
L 878.92969 225.198537 
L 883.62123 287.862427 
L 888.312769 288.409668 
L 893.004309 248.02067 
L 897.695849 228.487639 
L 902.387388 231.296653 
L 907.078928 249.358371 
L 911.770468 215.525413 
L 916.462007 227.35495 
L 921.153547 219.627094 
L 925.845087 255.357078 
L 930.536626 218.932263 
L 935.228166 201.029647 
L 939.919706 232.133009 
L 944.611245 227.230443 
L 949.302785 219.414293 
L 953.994325 200.15008 
L 958.685864 165.640993 
L 963.377404 136.822921 
L 968.068944 163.259616 
L 972.760483 179.890308 
L 977.452023 146.388933 
L 982.143563 138.806518 
L 986.835102 179.015926 
L 991.526642 166.292511 
L 996.218182 116.737652 
L 996.218182 116.737652 
" style="fill:none;stroke:#cc79a7;stroke-linecap:round;stroke-width:3;"/>
   </g>
   <g id="line2d_32">
    <path clip-path="url(#p19948b5479)" d="M 184.581818 437.316526 
L 189.273358 415.854061 
L 193.964898 419.257378 
L 198.656437 423.14289 
L 203.347977 421.829204 
L 208.039517 423.788979 
L 212.731056 459.851127 
L 217.422596 464.181407 
L 222.114136 447.633102 
L 226.805675 415.883591 
L 231.497215 453.425196 
L 236.188755 459.243929 
L 240.880294 472.917834 
L 245.571834 435.742243 
L 250.263374 446.152588 
L 254.954913 430.296146 
L 259.646453 424.231678 
L 264.337993 443.559881 
L 269.029532 433.098047 
L 273.721072 427.246138 
L 278.412612 440.720275 
L 283.104151 441.445055 
L 287.795691 442.912131 
L 292.487231 447.108284 
L 297.17877 452.304483 
L 301.87031 448.507002 
L 306.56185 454.143397 
L 311.253389 385.500549 
L 315.944929 382.549659 
L 320.636469 426.949064 
L 325.328008 441.628623 
L 330.019548 429.835264 
L 334.711088 430.46923 
L 339.402627 454.369287 
L 344.094167 476.732054 
L 348.785707 480.481993 
L 353.477246 462.425175 
L 358.168786 475.800194 
L 362.860326 440.399495 
L 367.551865 416.924557 
L 372.243405 468.686606 
L 376.934945 444.770437 
L 381.626484 461.128918 
L 386.318024 479.555655 
L 391.009564 458.519192 
L 395.701104 447.515218 
L 400.392643 412.056407 
L 405.084183 415.517966 
L 409.775723 456.931859 
L 414.467262 439.415541 
L 419.158802 418.164233 
L 423.850342 431.888548 
L 428.541881 458.330339 
L 433.233421 479.586523 
L 437.924961 508.824067 
L 442.6165 460.550151 
L 447.30804 451.104195 
L 451.99958 483.759703 
L 456.691119 500.477382 
L 461.382659 509.468668 
L 466.074199 499.767702 
L 470.765738 503.927595 
L 475.457278 483.040014 
L 480.148818 481.404685 
L 484.840357 434.146713 
L 489.531897 422.529652 
L 494.223437 477.193195 
L 498.914976 509.157228 
L 503.606516 470.176676 
L 508.298056 459.177469 
L 512.989595 462.120206 
L 517.681135 441.592686 
L 522.372675 461.107865 
L 527.064214 459.457588 
L 531.755754 454.532664 
L 536.447294 447.81777 
L 541.138833 419.284924 
L 545.830373 443.139854 
L 550.521913 439.677993 
L 555.213452 476.091314 
L 559.904992 425.263605 
L 564.596532 412.558468 
L 569.288071 428.403995 
L 573.979611 461.875097 
L 578.671151 423.580282 
L 583.36269 436.175946 
L 588.05423 426.955449 
L 592.74577 393.954225 
L 597.43731 392.537927 
L 602.128849 394.273064 
L 606.820389 356.024173 
L 611.511929 339.336779 
L 616.203468 373.919189 
L 620.895008 371.151715 
L 625.586548 335.762923 
L 630.278087 360.79437 
L 634.969627 406.819072 
L 639.661167 398.959414 
L 644.352706 413.337283 
L 649.044246 412.294635 
L 653.735786 429.106428 
L 658.427325 398.868925 
L 663.118865 383.288395 
L 667.810405 363.818105 
L 672.501944 414.859235 
L 677.193484 430.143813 
L 681.885024 441.018707 
L 686.576563 381.575067 
L 691.268103 374.842248 
L 695.959643 378.492961 
L 700.651182 390.249283 
L 705.342722 380.272986 
L 710.034262 383.608981 
L 714.725801 375.691901 
L 719.417341 435.906613 
L 724.108881 413.30387 
L 728.80042 402.732887 
L 733.49196 393.417715 
L 738.1835 412.242995 
L 742.875039 372.701838 
L 747.566579 382.965372 
L 752.258119 410.27444 
L 756.949658 390.365248 
L 761.641198 345.795088 
L 766.332738 409.749449 
L 771.024277 393.051313 
L 775.715817 405.367873 
L 780.407357 342.920386 
L 785.098896 367.256906 
L 789.790436 338.97715 
L 794.481976 321.419265 
L 799.173516 305.561831 
L 803.865055 347.954825 
L 808.556595 307.295156 
L 813.248135 346.253727 
L 817.939674 353.553536 
L 822.631214 341.105437 
L 827.322754 309.592342 
L 832.014293 289.111566 
L 836.705833 320.442624 
L 841.397373 280.960572 
L 846.088912 288.276429 
L 850.780452 336.227278 
L 855.471992 327.039612 
L 860.163531 313.244112 
L 864.855071 272.494212 
L 869.546611 304.686487 
L 874.23815 267.296849 
L 878.92969 233.66114 
L 883.62123 288.492849 
L 888.312769 286.068956 
L 893.004309 253.324662 
L 897.695849 235.821309 
L 902.387388 232.982155 
L 907.078928 254.809966 
L 911.770468 214.047921 
L 916.462007 225.306086 
L 921.153547 226.762765 
L 925.845087 254.663047 
L 930.536626 225.261133 
L 935.228166 206.832908 
L 939.919706 234.040356 
L 944.611245 225.699323 
L 949.302785 219.489985 
L 953.994325 198.019473 
L 958.685864 159.206786 
L 963.377404 129.741238 
L 968.068944 151.22728 
L 972.760483 173.936583 
L 977.452023 143.854303 
L 982.143563 134.441653 
L 986.835102 173.703596 
L 991.526642 161.736635 
L 996.218182 112.090976 
L 996.218182 112.090976 
" style="fill:none;stroke:#e69f00;stroke-linecap:round;stroke-width:3;"/>
   </g>
   <g id="line2d_33">
    <path clip-path="url(#p19948b5479)" d="M 184.581818 480.3159 
L 189.273358 432.607515 
L 193.964898 431.584866 
L 198.656437 442.186167 
L 203.347977 447.693355 
L 208.039517 449.070742 
L 212.731056 455.12848 
L 217.422596 493.147425 
L 222.114136 472.836922 
L 226.805675 444.992363 
L 231.497215 473.199181 
L 236.188755 483.323308 
L 240.880294 511.051486 
L 245.571834 461.33816 
L 250.263374 492.683222 
L 254.954913 458.295287 
L 259.646453 460.540241 
L 264.337993 464.604884 
L 269.029532 463.309953 
L 273.721072 454.14918 
L 278.412612 457.079471 
L 283.104151 467.612042 
L 287.795691 457.118586 
L 292.487231 460.5588 
L 297.17877 468.820994 
L 301.87031 469.435702 
L 306.56185 481.985781 
L 311.253389 398.376933 
L 315.944929 375.133846 
L 320.636469 450.800665 
L 325.328008 453.958055 
L 330.019548 432.32167 
L 334.711088 448.702886 
L 339.402627 461.889823 
L 344.094167 499.641983 
L 348.785707 494.155267 
L 353.477246 481.155825 
L 358.168786 501.315628 
L 362.860326 470.40715 
L 367.551865 436.890383 
L 372.243405 503.405167 
L 376.934945 476.085298 
L 381.626484 503.586459 
L 386.318024 500.23712 
L 391.009564 497.427222 
L 395.701104 488.364281 
L 400.392643 445.720207 
L 405.084183 439.454192 
L 409.775723 497.952221 
L 414.467262 464.208923 
L 419.158802 432.899816 
L 423.850342 448.158903 
L 428.541881 485.83601 
L 433.233421 510.25647 
L 437.924961 526.88371 
L 442.6165 477.751359 
L 447.30804 454.814133 
L 451.99958 502.706152 
L 456.691119 505.220369 
L 461.382659 510.88767 
L 466.074199 509.66055 
L 470.765738 511.778174 
L 475.457278 495.332892 
L 480.148818 493.127361 
L 484.840357 440.176967 
L 489.531897 421.863714 
L 494.223437 480.976278 
L 498.914976 512.765536 
L 503.606516 482.108582 
L 508.298056 456.465315 
L 512.989595 449.492558 
L 517.681135 434.50417 
L 522.372675 460.014121 
L 527.064214 454.501247 
L 531.755754 452.982226 
L 536.447294 445.310702 
L 541.138833 404.000874 
L 545.830373 431.586421 
L 550.521913 425.725146 
L 555.213452 473.869979 
L 559.904992 417.970993 
L 564.596532 398.969402 
L 569.288071 409.857668 
L 573.979611 455.643772 
L 578.671151 417.332009 
L 583.36269 425.543348 
L 588.05423 416.085409 
L 592.74577 377.174551 
L 597.43731 375.363067 
L 602.128849 382.765255 
L 606.820389 352.548911 
L 611.511929 362.335127 
L 616.203468 371.840941 
L 620.895008 370.544624 
L 625.586548 334.903287 
L 630.278087 361.051483 
L 634.969627 402.959605 
L 639.661167 395.813468 
L 644.352706 404.473483 
L 649.044246 409.428124 
L 653.735786 430.86597 
L 658.427325 388.034616 
L 663.118865 368.230378 
L 667.810405 352.110186 
L 672.501944 402.425705 
L 677.193484 423.27859 
L 681.885024 440.325335 
L 686.576563 381.351355 
L 691.268103 376.769094 
L 695.959643 384.630959 
L 700.651182 402.09873 
L 705.342722 377.381233 
L 710.034262 388.785402 
L 714.725801 381.732114 
L 719.417341 451.378529 
L 724.108881 425.110724 
L 728.80042 410.74369 
L 733.49196 402.624009 
L 738.1835 415.855385 
L 742.875039 380.324182 
L 747.566579 394.234746 
L 752.258119 425.510607 
L 756.949658 396.492056 
L 761.641198 359.279656 
L 766.332738 416.866204 
L 771.024277 400.873648 
L 775.715817 428.080711 
L 780.407357 345.520438 
L 785.098896 370.84445 
L 789.790436 348.686276 
L 794.481976 321.451643 
L 799.173516 307.489281 
L 803.865055 363.335844 
L 808.556595 314.264272 
L 813.248135 359.778886 
L 817.939674 359.332351 
L 822.631214 347.436329 
L 827.322754 309.297513 
L 832.014293 299.169919 
L 836.705833 325.805969 
L 841.397373 278.873297 
L 846.088912 284.481525 
L 850.780452 339.875367 
L 855.471992 329.324206 
L 860.163531 311.750539 
L 864.855071 274.653086 
L 869.546611 300.58384 
L 874.23815 262.890329 
L 878.92969 222.76651 
L 883.62123 288.211961 
L 888.312769 286.503595 
L 893.004309 245.554664 
L 897.695849 231.528581 
L 902.387388 231.346431 
L 907.078928 251.225974 
L 911.770468 215.118505 
L 916.462007 223.999617 
L 921.153547 219.042992 
L 925.845087 251.671424 
L 930.536626 217.727951 
L 935.228166 196.090731 
L 939.919706 233.021827 
L 944.611245 222.69129 
L 949.302785 210.792398 
L 953.994325 198.03205 
L 958.685864 158.62401 
L 963.377404 130.716676 
L 968.068944 153.431511 
L 972.760483 174.791877 
L 977.452023 141.550722 
L 982.143563 133.339694 
L 986.835102 174.998471 
L 991.526642 164.792473 
L 996.218182 105.414324 
L 996.218182 105.414324 
" style="fill:none;stroke:#696969;stroke-linecap:round;stroke-width:3;"/>
   </g>
  </g>
  <g id="text_31">
   <g id="patch_4">
    <path d="M 874.374375 646.18275 
L 1040.76 646.18275 
L 1040.76 628.26525 
L 874.374375 628.26525 
z
" style="fill:#ffffff;stroke:#ffffff;stroke-linejoin:miter;"/>
   </g>
   <!-- Created: 2023-11-02 21:13:03 -->
   <g style="fill:#696969;" transform="translate(878.334375 640.224)scale(0.12 -0.12)">
    <defs>
     <path d="M 17.96875 49.3125 
L 17.96875 38.375 
L 7.078125 38.375 
L 7.078125 49.3125 
z
M 17.96875 10.984375 
L 17.96875 0 
L 7.078125 0 
L 7.078125 10.984375 
z
" id="FranklinGothic-Book-58"/>
    </defs>
    <use xlink:href="#FranklinGothic-Book-67"/>
    <use x="57.910156" xlink:href="#FranklinGothic-Book-114"/>
    <use x="90.869141" xlink:href="#FranklinGothic-Book-101"/>
    <use x="142.919922" xlink:href="#FranklinGothic-Book-97"/>
    <use x="195.800781" xlink:href="#FranklinGothic-Book-116"/>
    <use x="224.8125" xlink:href="#FranklinGothic-Book-101"/>
    <use x="276.863281" xlink:href="#FranklinGothic-Book-100"/>
    <use x="330.720703" xlink:href="#FranklinGothic-Book-58"/>
    <use x="355.720703" xlink:href="#FranklinGothic-Book-32"/>
    <use x="380.720703" xlink:href="#FranklinGothic-Book-50"/>
    <use x="439.363281" xlink:href="#FranklinGothic-Book-48"/>
    <use x="498.005859" xlink:href="#FranklinGothic-Book-50"/>
    <use x="556.648438" xlink:href="#FranklinGothic-Book-51"/>
    <use x="615.291016" xlink:href="#FranklinGothic-Book-45"/>
    <use x="640.291016" xlink:href="#FranklinGothic-Book-49"/>
    <use x="697.183594" xlink:href="#FranklinGothic-Book-49"/>
    <use x="755.826172" xlink:href="#FranklinGothic-Book-45"/>
    <use x="780.826172" xlink:href="#FranklinGothic-Book-48"/>
    <use x="839.46875" xlink:href="#FranklinGothic-Book-50"/>
    <use x="898.111328" xlink:href="#FranklinGothic-Book-32"/>
    <use x="923.111328" xlink:href="#FranklinGothic-Book-50"/>
    <use x="978.253906" xlink:href="#FranklinGothic-Book-49"/>
    <use x="1036.896484" xlink:href="#FranklinGothic-Book-58"/>
    <use x="1061.896484" xlink:href="#FranklinGothic-Book-49"/>
    <use x="1119.664062" xlink:href="#FranklinGothic-Book-51"/>
    <use x="1178.306641" xlink:href="#FranklinGothic-Book-58"/>
    <use x="1203.306641" xlink:href="#FranklinGothic-Book-48"/>
    <use x="1261.949219" xlink:href="#FranklinGothic-Book-51"/>
   </g>
  </g>
 </g>
 <defs>
  <clipPath id="p19948b5479">
   <rect height="498.96" width="892.8" x="144" y="77.76"/>
  </clipPath>
 </defs>
</svg>
