<?xml version="1.0" encoding="utf-8" standalone="no"?>
<!DOCTYPE svg PUBLIC "-//W3C//DTD SVG 1.1//EN"
  "http://www.w3.org/Graphics/SVG/1.1/DTD/svg11.dtd">
<!-- Created with matplotlib (https://matplotlib.org/) -->
<svg height="648pt" version="1.1" viewBox="0 0 1152 648" width="1152pt" xmlns="http://www.w3.org/2000/svg" xmlns:xlink="http://www.w3.org/1999/xlink">
 <metadata>
  <rdf:RDF xmlns:cc="http://creativecommons.org/ns#" xmlns:dc="http://purl.org/dc/elements/1.1/" xmlns:rdf="http://www.w3.org/1999/02/22-rdf-syntax-ns#">
   <cc:Work>
    <dc:type rdf:resource="http://purl.org/dc/dcmitype/StillImage"/>
    <dc:date>2023-08-01T17:12:53.212039</dc:date>
    <dc:format>image/svg+xml</dc:format>
    <dc:creator>
     <cc:Agent>
      <dc:title>Matplotlib v3.3.1, https://matplotlib.org/</dc:title>
     </cc:Agent>
    </dc:creator>
   </cc:Work>
  </rdf:RDF>
 </metadata>
 <defs>
  <style type="text/css">*{stroke-linecap:butt;stroke-linejoin:round;}</style>
 </defs>
 <g id="figure_1">
  <g id="patch_1">
   <path d="M 0 648 
L 1152 648 
L 1152 0 
L 0 0 
z
" style="fill:#ffffff;"/>
  </g>
  <g id="axes_1">
   <g id="patch_2">
    <path d="M 144 576.72 
L 1036.8 576.72 
L 1036.8 77.76 
L 144 77.76 
z
" style="fill:none;"/>
   </g>
   <g id="PolyCollection_1">
    <defs>
     <path d="M 535.511066 -450.82035 
L 535.511066 -469.17243 
L 537.310703 -469.346001 
L 542.709615 -448.80378 
L 544.509252 -448.133413 
L 546.308889 -448.486022 
L 548.108527 -448.314501 
L 549.908164 -449.406496 
L 551.707801 -452.826669 
L 553.507438 -451.399832 
L 555.307075 -455.607225 
L 557.106712 -458.708273 
L 558.90635 -459.222836 
L 562.505624 -446.86648 
L 564.305261 -437.577003 
L 566.104898 -434.836765 
L 567.904535 -435.019903 
L 569.704173 -434.78893 
L 571.50381 -437.581787 
L 573.303447 -436.143333 
L 575.103084 -435.457931 
L 576.902721 -436.787733 
L 578.702358 -441.001276 
L 580.501996 -439.889464 
L 582.301633 -438.619114 
L 584.10127 -431.82387 
L 585.900907 -423.383799 
L 587.700544 -420.76588 
L 589.500181 -419.233124 
L 591.299819 -422.27472 
L 593.099456 -423.959864 
L 594.899093 -422.873335 
L 596.69873 -424.412242 
L 598.498367 -427.52354 
L 600.298004 -428.105072 
L 602.097642 -430.552836 
L 603.897279 -427.306918 
L 605.696916 -418.480071 
L 607.496553 -405.523048 
L 609.29619 -401.042998 
L 611.095827 -401.709949 
L 612.895465 -401.740699 
L 614.695102 -405.494348 
L 616.494739 -403.626749 
L 618.294376 -406.946469 
L 620.094013 -408.354856 
L 621.89365 -406.826199 
L 623.693288 -407.331196 
L 625.492925 -406.657411 
L 627.292562 -400.873527 
L 629.092199 -392.026179 
L 630.891836 -387.929488 
L 632.691473 -388.841079 
L 634.491111 -386.944779 
L 636.290748 -386.412449 
L 638.090385 -388.685958 
L 639.890022 -391.519132 
L 641.689659 -390.814597 
L 643.489297 -391.641452 
L 645.288934 -392.561243 
L 647.088571 -391.174723 
L 648.888208 -382.294574 
L 650.687845 -368.983576 
L 652.487482 -364.752265 
L 654.28712 -362.947535 
L 656.086757 -364.54521 
L 657.886394 -368.544865 
L 659.686031 -371.199684 
L 661.485668 -370.021587 
L 663.285305 -373.637198 
L 665.084943 -372.541102 
L 666.88458 -371.419723 
L 668.684217 -371.065747 
L 670.483854 -361.081303 
L 672.283491 -350.113516 
L 674.083128 -345.800203 
L 675.882766 -346.596307 
L 677.682403 -351.661306 
L 679.48204 -356.497383 
L 681.281677 -357.784133 
L 683.081314 -354.6086 
L 684.880951 -354.545732 
L 686.680589 -355.817448 
L 688.480226 -357.105565 
L 690.279863 -356.470732 
L 692.0795 -349.11924 
L 693.879137 -334.811916 
L 695.678774 -330.991299 
L 697.478412 -332.742045 
L 699.278049 -334.041096 
L 701.077686 -335.696172 
L 702.877323 -335.383197 
L 704.67696 -336.606396 
L 706.476597 -337.548054 
L 708.276235 -335.816442 
L 710.075872 -338.075601 
L 711.875509 -330.968065 
L 713.675146 -318.790063 
L 715.474783 -305.5474 
L 717.27442 -298.976979 
L 719.074058 -301.45891 
L 720.873695 -300.324547 
L 722.673332 -301.521095 
L 726.272606 -303.132437 
L 728.072243 -304.057011 
L 729.871881 -304.384337 
L 731.671518 -302.929482 
L 735.270792 -290.056512 
L 737.070429 -276.71203 
L 738.870067 -272.791644 
L 740.669704 -271.119483 
L 740.669704 -271.211736 
L 746.068615 -275.246241 
L 746.068615 -274.491821 
L 747.868252 -275.740304 
L 749.66789 -278.807184 
L 751.467527 -279.739275 
L 755.066801 -277.665988 
L 756.866438 -261.860758 
L 758.666075 -240.764339 
L 760.465713 -234.184351 
L 764.064987 -238.607683 
L 765.864624 -239.291034 
L 767.664261 -239.501506 
L 769.463898 -240.169824 
L 773.063173 -240.346128 
L 774.86281 -242.730341 
L 776.662447 -243.98224 
L 778.462084 -236.34374 
L 783.860996 -231.996943 
L 785.660633 -231.889657 
L 787.46027 -232.763663 
L 789.259907 -233.933561 
L 792.859182 -237.10226 
L 794.658819 -237.974216 
L 796.458456 -238.005651 
L 798.258093 -235.512102 
L 801.857367 -216.053676 
L 803.657005 -213.362639 
L 805.456642 -214.38835 
L 807.256279 -214.738909 
L 810.855553 -220.781783 
L 812.65519 -221.219128 
L 814.454828 -223.024542 
L 816.254465 -223.686709 
L 816.254465 -223.992167 
L 821.653376 -211.475223 
L 823.453014 -202.341551 
L 825.252651 -199.713382 
L 830.651562 -203.470447 
L 832.451199 -207.317715 
L 834.250837 -205.704322 
L 836.050474 -205.685872 
L 839.649748 -207.932047 
L 841.449385 -208.097418 
L 843.249022 -196.30551 
L 845.04866 -179.704859 
L 850.447571 -188.994335 
L 852.247208 -184.577837 
L 854.046845 -188.095045 
L 859.445757 -188.868599 
L 859.445757 -191.183109 
L 861.245394 -191.487201 
L 863.045031 -189.664703 
L 884.640677 -185.360957 
L 886.440314 -183.327987 
L 891.839226 -170.349781 
L 893.638863 -172.58844 
L 895.4385 -174.220966 
L 897.238137 -173.884757 
L 899.037775 -171.484828 
L 900.837412 -170.476201 
L 902.637049 -171.56273 
L 904.436686 -174.589292 
L 906.236323 -169.514726 
L 908.03596 -156.382766 
L 909.835598 -139.613327 
L 911.635235 -132.306253 
L 913.434872 -132.801683 
L 915.234509 -137.569424 
L 917.034146 -137.68081 
L 918.833784 -133.734457 
L 920.633421 -134.308472 
L 922.433058 -134.167702 
L 924.232695 -136.298391 
L 926.032332 -138.018386 
L 927.831969 -135.389534 
L 929.631607 -126.272945 
L 931.431244 -119.674506 
L 933.230881 -118.631029 
L 935.030518 -123.14183 
L 936.830155 -123.978935 
L 938.629792 -123.589425 
L 940.42943 -125.43174 
L 942.229067 -123.640676 
L 944.028704 -124.955444 
L 945.828341 -127.628714 
L 947.627978 -124.41628 
L 949.427615 -125.275936 
L 951.227253 -122.300625 
L 953.02689 -112.104341 
L 954.826527 -108.725169 
L 956.626164 -105.615238 
L 958.425801 -106.039599 
L 960.225438 -109.048395 
L 962.025076 -110.959728 
L 963.824713 -111.686814 
L 965.62435 -113.777185 
L 967.423987 -112.871061 
L 969.223624 -113.393142 
L 971.023261 -114.589006 
L 972.822899 -107.58944 
L 974.622536 -99.788302 
L 976.422173 -96.626436 
L 978.22181 -97.480625 
L 980.021447 -102.866116 
L 981.821084 -106.040283 
L 983.620722 -99.286039 
L 985.420359 -99.536146 
L 987.219996 -103.675887 
L 989.019633 -103.11964 
L 990.81927 -105.048057 
L 990.81927 -98.091541 
L 990.81927 -98.091541 
L 989.019633 -97.210018 
L 987.219996 -98.773526 
L 985.420359 -95.49344 
L 983.620722 -96.075655 
L 981.821084 -102.976136 
L 980.021447 -99.948207 
L 978.22181 -94.677519 
L 976.422173 -93.96 
L 974.622536 -97.253069 
L 972.822899 -105.179943 
L 971.023261 -112.313447 
L 969.223624 -111.239219 
L 967.423987 -110.696638 
L 965.62435 -111.610962 
L 963.824713 -109.521957 
L 962.025076 -108.800338 
L 960.225438 -106.893105 
L 958.425801 -103.891143 
L 956.626164 -103.465415 
L 954.826527 -106.568513 
L 953.02689 -109.968185 
L 951.227253 -120.152168 
L 949.427615 -123.119279 
L 947.627978 -122.280124 
L 945.828341 -125.480258 
L 944.028704 -122.796054 
L 942.229067 -121.485387 
L 940.42943 -123.281917 
L 938.629792 -121.423202 
L 936.830155 -121.814078 
L 935.030518 -120.987907 
L 933.230881 -116.464805 
L 931.431244 -117.527416 
L 929.631607 -124.124489 
L 927.831969 -133.22331 
L 926.032332 -135.869929 
L 924.232695 -134.145834 
L 922.433058 -132.002845 
L 920.633421 -132.119015 
L 918.833784 -131.554567 
L 917.034146 -135.51732 
L 915.234509 -135.419601 
L 913.434872 -130.658693 
L 911.635235 -130.135929 
L 909.835598 -137.453938 
L 908.03596 -154.23431 
L 906.236323 -167.348503 
L 904.436686 -172.431269 
L 902.637049 -169.41154 
L 900.837412 -168.307244 
L 899.037775 -169.276236 
L 897.238137 -171.7076 
L 895.4385 -172.013741 
L 893.638863 -170.30878 
L 891.839226 -167.847349 
L 886.440314 -180.766787 
L 884.640677 -182.66992 
L 863.045031 -184.329097 
L 861.245394 -186.092826 
L 859.445757 -185.678032 
L 859.445757 -183.270586 
L 854.046845 -182.473798 
L 852.247208 -178.955223 
L 850.447571 -183.349855 
L 845.04866 -176.80335 
L 843.249022 -193.782577 
L 841.449385 -205.672888 
L 839.649748 -205.374947 
L 836.050474 -203.296876 
L 834.250837 -203.33446 
L 832.451199 -204.798882 
L 830.651562 -200.735676 
L 825.252651 -197.081114 
L 823.453014 -199.953922 
L 821.653376 -209.012426 
L 816.254465 -221.675607 
L 816.254465 -221.521853 
L 814.454828 -220.967655 
L 812.65519 -216.636575 
L 810.855553 -218.10988 
L 807.256279 -212.455149 
L 805.456642 -212.111423 
L 803.657005 -210.97501 
L 801.857367 -213.582679 
L 798.258093 -232.878467 
L 796.458456 -235.578387 
L 794.658819 -235.587954 
L 792.859182 -234.769299 
L 789.259907 -230.799712 
L 787.46027 -230.143695 
L 785.660633 -229.224588 
L 783.860996 -229.245771 
L 778.462084 -233.580268 
L 776.662447 -241.144966 
L 774.86281 -239.966869 
L 773.063173 -237.231414 
L 769.463898 -237.152145 
L 767.664261 -236.7148 
L 765.864624 -236.438726 
L 764.064987 -235.475201 
L 760.465713 -231.127037 
L 758.666075 -238.028201 
L 756.866438 -259.113686 
L 755.066801 -274.778146 
L 751.467527 -276.584926 
L 749.66789 -276.183116 
L 747.868252 -272.883896 
L 746.068615 -271.830852 
L 746.068615 -272.454068 
L 740.669704 -268.311593 
L 740.669704 -268.279476 
L 738.870067 -269.835466 
L 737.070429 -273.604148 
L 735.270792 -286.739525 
L 731.671518 -299.798367 
L 729.871881 -301.150719 
L 728.072243 -300.70859 
L 726.272606 -299.514776 
L 722.673332 -298.312078 
L 720.873695 -297.193432 
L 719.074058 -298.482232 
L 717.27442 -296.21214 
L 715.474783 -302.886431 
L 713.675146 -316.012924 
L 711.875509 -327.767248 
L 710.075872 -335.425565 
L 708.276235 -333.208774 
L 706.476597 -334.684812 
L 704.67696 -333.903059 
L 702.877323 -332.656626 
L 701.077686 -332.9327 
L 699.278049 -331.243456 
L 697.478412 -329.930738 
L 695.678774 -328.263361 
L 693.879137 -331.962341 
L 692.0795 -346.127528 
L 690.279863 -353.675826 
L 688.480226 -354.264191 
L 686.680589 -352.950107 
L 684.880951 -351.411883 
L 683.081314 -351.40505 
L 681.281677 -354.648918 
L 679.48204 -353.343034 
L 677.682403 -348.422222 
L 675.882766 -343.564961 
L 674.083128 -342.748357 
L 672.283491 -347.038435 
L 670.483854 -357.929687 
L 668.684217 -368.027568 
L 666.88458 -368.24214 
L 665.084943 -369.211815 
L 663.285305 -370.563484 
L 661.485668 -366.727834 
L 659.686031 -368.12597 
L 657.886394 -365.483451 
L 656.086757 -361.315692 
L 654.28712 -359.831453 
L 652.487482 -361.73322 
L 650.687845 -365.905762 
L 648.888208 -379.421766 
L 647.088571 -388.273214 
L 645.288934 -389.695268 
L 643.489297 -388.726276 
L 641.689659 -387.970489 
L 639.890022 -388.582089 
L 638.090385 -385.668279 
L 636.290748 -383.486339 
L 634.491111 -384.093838 
L 632.691473 -385.916336 
L 630.891836 -384.954177 
L 629.092199 -389.220339 
L 627.292562 -397.859948 
L 625.492925 -403.626065 
L 623.693288 -404.541756 
L 621.89365 -404.003959 
L 620.094013 -405.585917 
L 618.294376 -404.140629 
L 616.494739 -400.838676 
L 614.695102 -402.28123 
L 612.895465 -399.145332 
L 611.095827 -399.044879 
L 609.29619 -398.347861 
L 607.496553 -402.808777 
L 605.696916 -415.735732 
L 603.897279 -424.45051 
L 602.097642 -427.744263 
L 600.298004 -425.326566 
L 598.498367 -424.720434 
L 596.69873 -421.615969 
L 594.899093 -420.201432 
L 593.099456 -421.15129 
L 591.299819 -419.46888 
L 589.500181 -416.66509 
L 587.700544 -417.919039 
L 585.900907 -420.669528 
L 584.10127 -429.214835 
L 582.301633 -435.720338 
L 580.501996 -436.972921 
L 578.702358 -438.118901 
L 576.902721 -433.910824 
L 575.103084 -432.381484 
L 573.303447 -432.60084 
L 571.50381 -434.532674 
L 569.704173 -431.716583 
L 567.904535 -431.912022 
L 566.104898 -431.787652 
L 564.305261 -434.570258 
L 562.505624 -443.963604 
L 558.90635 -455.368735 
L 557.106712 -455.187647 
L 555.307075 -452.064732 
L 553.507438 -447.336625 
L 551.707801 -447.168521 
L 549.908164 -444.389332 
L 548.108527 -443.423073 
L 546.308889 -443.149049 
L 544.509252 -439.256681 
L 542.709615 -441.511056 
L 537.310703 -459.698449 
L 535.511066 -450.82035 
z
" id="m76a92a6a66" style="stroke:#56b4e9;stroke-opacity:0.1;"/>
    </defs>
    <g clip-path="url(#pcf66a3a7a7)">
     <use style="fill:#56b4e9;fill-opacity:0.1;stroke:#56b4e9;stroke-opacity:0.1;" x="0" xlink:href="#m76a92a6a66" y="648"/>
    </g>
   </g>
   <g id="PolyCollection_2">
    <defs>
     <path d="M 314.155694 -484.312629 
L 314.155694 -486.537798 
L 315.955332 -486.954417 
L 317.754969 -487.263804 
L 319.554606 -487.517697 
L 321.354243 -487.736109 
L 323.15388 -487.929334 
L 324.953517 -488.103458 
L 326.753155 -488.262474 
L 328.552792 -488.409135 
L 330.352429 -488.545457 
L 332.152066 -488.672957 
L 333.951703 -488.792803 
L 335.75134 -488.811608 
L 337.550978 -488.824442 
L 339.350615 -488.831959 
L 341.150252 -488.834658 
L 342.949889 -488.833011 
L 344.749526 -488.827373 
L 346.549163 -488.818087 
L 348.348801 -488.805438 
L 350.148438 -488.789666 
L 351.948075 -488.771004 
L 353.747712 -488.749629 
L 355.547349 -488.725739 
L 357.346986 -488.232954 
L 359.146624 -487.737948 
L 360.946261 -487.240837 
L 362.745898 -486.741745 
L 364.545535 -486.240787 
L 366.345172 -485.738038 
L 368.14481 -485.233609 
L 369.944447 -484.727553 
L 371.744084 -484.219974 
L 373.543721 -483.710925 
L 375.343358 -483.200475 
L 377.142995 -482.688672 
L 378.942633 -482.604408 
L 380.74227 -482.515887 
L 382.541907 -482.423409 
L 384.341544 -482.327241 
L 386.141181 -482.227629 
L 387.940818 -482.124778 
L 389.740456 -482.018872 
L 391.540093 -481.910103 
L 393.33973 -481.798621 
L 395.139367 -481.68457 
L 396.939004 -481.568065 
L 398.738641 -481.449251 
L 400.538279 -481.63422 
L 402.337916 -481.816976 
L 404.137553 -481.99762 
L 405.93719 -482.176241 
L 407.736827 -482.352935 
L 409.536464 -482.527777 
L 411.336102 -482.700843 
L 413.135739 -482.872214 
L 414.935376 -483.041951 
L 416.735013 -483.21011 
L 418.53465 -483.376752 
L 420.334287 -483.541939 
L 422.133925 -483.638667 
L 423.933562 -483.73392 
L 425.733199 -483.827744 
L 427.532836 -483.920194 
L 429.332473 -484.011319 
L 431.13211 -484.101152 
L 432.931748 -484.189749 
L 434.731385 -484.277136 
L 436.531022 -484.363354 
L 438.330659 -484.448445 
L 440.130296 -484.532429 
L 441.929933 -484.615347 
L 443.729571 -484.413827 
L 445.529208 -484.211309 
L 447.328845 -484.007793 
L 449.128482 -483.803334 
L 450.928119 -483.597946 
L 452.727757 -483.391649 
L 454.527394 -483.184471 
L 456.327031 -482.976425 
L 458.126668 -482.767552 
L 459.926305 -482.557858 
L 461.725942 -482.347352 
L 463.52558 -482.13608 
L 465.325217 -481.809623 
L 467.124854 -481.482428 
L 468.924491 -481.154528 
L 470.724128 -480.825925 
L 472.523765 -480.496646 
L 474.323403 -480.166696 
L 476.12304 -479.836091 
L 477.922677 -479.504843 
L 479.722314 -479.172967 
L 481.521951 -478.840469 
L 483.321588 -478.507376 
L 485.121226 -478.173689 
L 486.920863 -478.092896 
L 488.7205 -478.011564 
L 490.520137 -477.929692 
L 492.319774 -477.847314 
L 494.119411 -477.764416 
L 495.919049 -477.681013 
L 497.718686 -477.597125 
L 499.518323 -477.512745 
L 501.31796 -477.427893 
L 503.117597 -477.342563 
L 504.917234 -477.256775 
L 506.716872 -477.170543 
L 508.516509 -476.817947 
L 510.316146 -476.464874 
L 512.115783 -476.111321 
L 513.91542 -475.757304 
L 515.715057 -475.40283 
L 517.514695 -475.047904 
L 519.314332 -474.692541 
L 521.113969 -474.33674 
L 522.913606 -473.980509 
L 524.713243 -473.623855 
L 526.51288 -473.26679 
L 528.312518 -472.909315 
L 530.112155 -472.286441 
L 531.911792 -471.66252 
L 533.711429 -471.037589 
L 535.511066 -470.411667 
L 537.310703 -469.784767 
L 539.110341 -469.156924 
L 540.909978 -468.528153 
L 542.709615 -467.898472 
L 544.509252 -467.267916 
L 546.308889 -466.636479 
L 548.108527 -466.004195 
L 549.908164 -465.371084 
L 551.707801 -464.644032 
L 553.507438 -463.905131 
L 555.307075 -463.140263 
L 557.106712 -462.359329 
L 558.90635 -461.568097 
L 560.705987 -460.768946 
L 562.505624 -459.966514 
L 564.305261 -459.162066 
L 566.104898 -458.359634 
L 567.904535 -457.440444 
L 569.704173 -456.536125 
L 571.50381 -455.653221 
L 573.303447 -454.7554 
L 575.103084 -453.853882 
L 576.902721 -452.929793 
L 578.702358 -451.977687 
L 580.501996 -451.003078 
L 582.301633 -450.01243 
L 584.10127 -449.015059 
L 585.900907 -448.014469 
L 587.700544 -447.012519 
L 589.500181 -446.02222 
L 591.299819 -445.045479 
L 593.099456 -444.086566 
L 594.899093 -443.071441 
L 596.69873 -442.058605 
L 598.498367 -441.029478 
L 600.298004 -439.98011 
L 602.097642 -438.91467 
L 603.897279 -437.835269 
L 605.696916 -436.744565 
L 607.496553 -435.647472 
L 609.29619 -434.552703 
L 611.095827 -433.463885 
L 612.895465 -432.390764 
L 614.695102 -431.335041 
L 616.494739 -430.224746 
L 618.294376 -429.111409 
L 620.094013 -427.978857 
L 621.89365 -426.819368 
L 623.693288 -425.524226 
L 625.492925 -424.211979 
L 627.292562 -422.891718 
L 629.092199 -421.56687 
L 630.891836 -420.248194 
L 632.691473 -418.946608 
L 634.491111 -417.6657 
L 636.290748 -416.402703 
L 638.090385 -415.122964 
L 639.890022 -413.844298 
L 641.689659 -412.547065 
L 643.489297 -411.221678 
L 645.288934 -409.87387 
L 647.088571 -408.509532 
L 648.888208 -407.144197 
L 650.687845 -405.789774 
L 652.487482 -404.442978 
L 654.28712 -403.106828 
L 656.086757 -401.782063 
L 657.886394 -400.474422 
L 659.686031 -399.18362 
L 661.485668 -397.902022 
L 663.285305 -396.607365 
L 665.084943 -395.294661 
L 666.88458 -393.968598 
L 668.684217 -392.63579 
L 670.483854 -391.299667 
L 672.283491 -389.96595 
L 674.083128 -388.639914 
L 675.882766 -387.32626 
L 677.682403 -386.027114 
L 679.48204 -384.746643 
L 681.281677 -383.454392 
L 683.081314 -382.15513 
L 684.880951 -380.827658 
L 686.680589 -379.471896 
L 688.480226 -378.044663 
L 690.279863 -376.597147 
L 692.0795 -375.134735 
L 693.879137 -373.66665 
L 695.678774 -372.195846 
L 697.478412 -370.72988 
L 699.278049 -369.167534 
L 701.077686 -367.612671 
L 702.877323 -365.923926 
L 704.67696 -364.228531 
L 706.476597 -362.51427 
L 708.276235 -360.777731 
L 710.075872 -359.017015 
L 711.875509 -357.241081 
L 713.675146 -355.456516 
L 715.474783 -353.66807 
L 717.27442 -351.877936 
L 719.074058 -350.094334 
L 720.873695 -348.321414 
L 722.673332 -346.554356 
L 724.472969 -344.768773 
L 726.272606 -342.986122 
L 728.072243 -341.186202 
L 729.871881 -339.364422 
L 731.671518 -337.52687 
L 733.471155 -335.672829 
L 735.270792 -333.811244 
L 737.070429 -331.950752 
L 738.870067 -330.095747 
L 740.669704 -328.249393 
L 742.469341 -326.419939 
L 744.268978 -324.612106 
L 746.068615 -322.865256 
L 747.868252 -321.097699 
L 749.66789 -319.324198 
L 751.467527 -317.535506 
L 753.267164 -315.719486 
L 755.066801 -313.90795 
L 756.866438 -312.184592 
L 758.666075 -310.47629 
L 760.465713 -308.791528 
L 762.26535 -307.156405 
L 764.064987 -305.576989 
L 765.864624 -304.058146 
L 767.664261 -302.915712 
L 769.463898 -301.778397 
L 771.263536 -300.617951 
L 773.063173 -299.453575 
L 774.86281 -298.289008 
L 776.662447 -297.126436 
L 778.462084 -295.970862 
L 780.261721 -294.82454 
L 782.061359 -293.693334 
L 783.860996 -292.582458 
L 785.660633 -291.502449 
L 787.46027 -290.425173 
L 789.259907 -289.482948 
L 791.059544 -288.554287 
L 792.859182 -287.602939 
L 794.658819 -286.621237 
L 796.458456 -285.637963 
L 798.258093 -284.642778 
L 800.05773 -283.635949 
L 801.857367 -282.624145 
L 803.657005 -281.606997 
L 805.456642 -280.59313 
L 807.256279 -279.577055 
L 809.055916 -278.570383 
L 810.855553 -277.430983 
L 812.65519 -276.463064 
L 814.454828 -275.480959 
L 816.254465 -274.497179 
L 818.054102 -273.504543 
L 819.853739 -272.499443 
L 821.653376 -271.482794 
L 823.453014 -270.465236 
L 825.252651 -269.448204 
L 827.052288 -268.438956 
L 828.851925 -267.445719 
L 830.651562 -266.473877 
L 832.451199 -265.578783 
L 834.250837 -264.681317 
L 836.050474 -263.773349 
L 837.850111 -262.850394 
L 839.649748 -261.914175 
L 841.449385 -260.966354 
L 843.249022 -260.018129 
L 845.04866 -259.068359 
L 846.848297 -258.129141 
L 848.647934 -257.203186 
L 850.447571 -256.319613 
L 852.247208 -255.438507 
L 854.046845 -254.984283 
L 855.846483 -254.546577 
L 857.64612 -254.105077 
L 859.445757 -253.650245 
L 861.245394 -253.186099 
L 863.045031 -252.717703 
L 864.844668 -252.250373 
L 866.644306 -251.78868 
L 868.443943 -251.330507 
L 870.24358 -250.877425 
L 872.043217 -250.426994 
L 873.842854 -249.98913 
L 875.642491 -249.380482 
L 877.442129 -248.693099 
L 879.241766 -247.961558 
L 881.041403 -247.225165 
L 882.84104 -246.484529 
L 884.640677 -245.731387 
L 886.440314 -244.954068 
L 888.239952 -243.648328 
L 890.039589 -242.331892 
L 891.839226 -240.977217 
L 893.638863 -239.565161 
L 895.4385 -238.068533 
L 897.238137 -235.583451 
L 899.037775 -233.118938 
L 900.837412 -230.643061 
L 902.637049 -228.164546 
L 904.436686 -225.689031 
L 906.236323 -223.218723 
L 908.03596 -220.74832 
L 909.835598 -218.277807 
L 911.635235 -215.807192 
L 913.434872 -213.332606 
L 915.234509 -210.857918 
L 917.034146 -208.377408 
L 918.833784 -205.896788 
L 920.633421 -203.758166 
L 922.433058 -201.619215 
L 924.232695 -199.479957 
L 926.032332 -197.340377 
L 927.831969 -195.200476 
L 929.631607 -193.060275 
L 931.431244 -190.919759 
L 933.230881 -188.778943 
L 935.030518 -186.637826 
L 936.830155 -184.496408 
L 938.629792 -182.35469 
L 938.629792 -119.939933 
L 938.629792 -119.939933 
L 936.830155 -122.273331 
L 935.030518 -124.607017 
L 933.230881 -126.941003 
L 931.431244 -129.275303 
L 929.631607 -131.609891 
L 927.831969 -133.944792 
L 926.032332 -136.280008 
L 924.232695 -138.615532 
L 922.433058 -140.951377 
L 920.633421 -143.287543 
L 918.833784 -145.624023 
L 917.034146 -148.215974 
L 915.234509 -150.808021 
L 913.434872 -153.393631 
L 911.635235 -155.979343 
L 909.835598 -158.560292 
L 908.03596 -161.141344 
L 906.236323 -163.722491 
L 904.436686 -166.303748 
L 902.637049 -168.889555 
L 900.837412 -171.478759 
L 899.037775 -174.066597 
L 897.238137 -176.644177 
L 895.4385 -179.268102 
L 893.638863 -180.923527 
L 891.839226 -182.504658 
L 890.039589 -184.03583 
L 888.239952 -185.531986 
L 886.440314 -187.021193 
L 884.640677 -187.927283 
L 882.84104 -188.815277 
L 881.041403 -189.682333 
L 879.241766 -190.526341 
L 877.442129 -191.335825 
L 875.642491 -192.096586 
L 873.842854 -192.799003 
L 872.043217 -193.299885 
L 870.24358 -193.821494 
L 868.443943 -194.347955 
L 866.644306 -194.881379 
L 864.844668 -195.419183 
L 863.045031 -195.963691 
L 861.245394 -196.509388 
L 859.445757 -197.05339 
L 857.64612 -197.591085 
L 855.846483 -198.115366 
L 854.046845 -198.634227 
L 852.247208 -199.17033 
L 850.447571 -200.144878 
L 848.647934 -201.122343 
L 846.848297 -202.143735 
L 845.04866 -203.177146 
L 843.249022 -204.220056 
L 841.449385 -205.259495 
L 839.649748 -206.298476 
L 837.850111 -207.325211 
L 836.050474 -208.33901 
L 834.250837 -209.339259 
L 832.451199 -210.329086 
L 830.651562 -211.318046 
L 828.851925 -212.38706 
L 827.052288 -213.481133 
L 825.252651 -214.59164 
L 823.453014 -215.709479 
L 821.653376 -216.827927 
L 819.853739 -217.945015 
L 818.054102 -219.049502 
L 816.254465 -220.142071 
L 814.454828 -221.225579 
L 812.65519 -222.307263 
L 810.855553 -223.366655 
L 809.055916 -224.605769 
L 807.256279 -225.711527 
L 805.456642 -226.823831 
L 803.657005 -227.932398 
L 801.857367 -229.044777 
L 800.05773 -230.152565 
L 798.258093 -231.255569 
L 796.458456 -232.347926 
L 794.658819 -233.429521 
L 792.859182 -234.509352 
L 791.059544 -235.559527 
L 789.259907 -236.582585 
L 787.46027 -237.626493 
L 785.660633 -238.828276 
L 783.860996 -240.035074 
L 782.061359 -241.290848 
L 780.261721 -242.574646 
L 778.462084 -243.873847 
L 776.662447 -245.180811 
L 774.86281 -246.492996 
L 773.063173 -247.808788 
L 771.263536 -249.122982 
L 769.463898 -250.431839 
L 767.664261 -251.716662 
L 765.864624 -253.005538 
L 764.064987 -254.678955 
L 762.26535 -256.419273 
L 760.465713 -258.218496 
L 758.666075 -260.063626 
L 756.866438 -261.929414 
L 755.066801 -263.807673 
L 753.267164 -265.773237 
L 751.467527 -267.741439 
L 749.66789 -269.679895 
L 747.868252 -271.606111 
L 746.068615 -273.525768 
L 744.268978 -275.413293 
L 742.469341 -277.357755 
L 740.669704 -279.327584 
L 738.870067 -281.314434 
L 737.070429 -283.308678 
L 735.270792 -285.307768 
L 733.471155 -287.307923 
L 731.671518 -289.301559 
L 729.871881 -291.280373 
L 728.072243 -293.244537 
L 726.272606 -295.179637 
L 724.472969 -297.090608 
L 722.673332 -299.005331 
L 720.873695 -300.886631 
L 719.074058 -302.772755 
L 717.27442 -304.664709 
L 715.474783 -306.560503 
L 713.675146 -308.454827 
L 711.875509 -310.346706 
L 710.075872 -312.232632 
L 708.276235 -314.108356 
L 706.476597 -315.967379 
L 704.67696 -317.807295 
L 702.877323 -319.627811 
L 701.077686 -321.440831 
L 699.278049 -323.136273 
L 697.478412 -324.839813 
L 695.678774 -326.447082 
L 693.879137 -328.059654 
L 692.0795 -329.670491 
L 690.279863 -331.275423 
L 688.480226 -332.866948 
L 686.680589 -334.438915 
L 684.880951 -335.935557 
L 683.081314 -337.391006 
L 681.281677 -338.805782 
L 679.48204 -340.211511 
L 677.682403 -341.611855 
L 675.882766 -343.034715 
L 674.083128 -344.474228 
L 672.283491 -345.925482 
L 670.483854 -347.384731 
L 668.684217 -348.846439 
L 666.88458 -350.30564 
L 665.084943 -351.75755 
L 663.285305 -353.196318 
L 661.485668 -354.613705 
L 659.686031 -356.014848 
L 657.886394 -357.426371 
L 656.086757 -358.856414 
L 654.28712 -360.301681 
L 652.487482 -361.757609 
L 650.687845 -363.223294 
L 648.888208 -364.695267 
L 647.088571 -366.174859 
L 645.288934 -367.65467 
L 643.489297 -369.123198 
L 641.689659 -370.571725 
L 639.890022 -371.992112 
L 638.090385 -373.388601 
L 636.290748 -374.787134 
L 634.491111 -376.186392 
L 632.691473 -377.607509 
L 630.891836 -379.050699 
L 629.092199 -380.510187 
L 627.292562 -381.975258 
L 625.492925 -383.437643 
L 623.693288 -384.893543 
L 621.89365 -386.333446 
L 620.094013 -387.6367 
L 618.294376 -388.907986 
L 616.494739 -390.154726 
L 614.695102 -391.398452 
L 612.895465 -392.586991 
L 611.095827 -393.793257 
L 609.29619 -395.014822 
L 607.496553 -396.241902 
L 605.696916 -397.471237 
L 603.897279 -398.695741 
L 602.097642 -399.910282 
L 600.298004 -401.113486 
L 598.498367 -402.301369 
L 596.69873 -403.468737 
L 594.899093 -404.619159 
L 593.099456 -405.772622 
L 591.299819 -406.873453 
L 589.500181 -407.998304 
L 587.700544 -409.139828 
L 585.900907 -410.293578 
L 584.10127 -411.447471 
L 582.301633 -412.599458 
L 580.501996 -413.747153 
L 578.702358 -414.878277 
L 576.902721 -415.984656 
L 575.103084 -417.057825 
L 573.303447 -418.105881 
L 571.50381 -419.152673 
L 569.704173 -420.188114 
L 567.904535 -421.245709 
L 566.104898 -422.317067 
L 564.305261 -423.247928 
L 562.505624 -424.183115 
L 560.705987 -425.119306 
L 558.90635 -426.055565 
L 557.106712 -426.984848 
L 555.307075 -427.903354 
L 553.507438 -428.868184 
L 551.707801 -429.807676 
L 549.908164 -430.742234 
L 548.108527 -431.613725 
L 546.308889 -432.486057 
L 544.509252 -433.359237 
L 542.709615 -434.233284 
L 540.909978 -435.108219 
L 539.110341 -435.98405 
L 537.310703 -436.860824 
L 535.511066 -437.738541 
L 533.711429 -438.617221 
L 531.911792 -439.496906 
L 530.112155 -440.377602 
L 528.312518 -441.25933 
L 526.51288 -441.776969 
L 524.713243 -442.295017 
L 522.913606 -442.813476 
L 521.113969 -443.332358 
L 519.314332 -443.851671 
L 517.514695 -444.371421 
L 515.715057 -444.891608 
L 513.91542 -445.41226 
L 512.115783 -445.933357 
L 510.316146 -446.454918 
L 508.516509 -446.976957 
L 506.716872 -447.499475 
L 504.917234 -447.748795 
L 503.117597 -447.998574 
L 501.31796 -448.24881 
L 499.518323 -448.499511 
L 497.718686 -448.750698 
L 495.919049 -449.002362 
L 494.119411 -449.254526 
L 492.319774 -449.507195 
L 490.520137 -449.760369 
L 488.7205 -450.014064 
L 486.920863 -450.268298 
L 485.121226 -450.523058 
L 483.321588 -451.036398 
L 481.521951 -451.550333 
L 479.722314 -452.064876 
L 477.922677 -452.580027 
L 476.12304 -453.095807 
L 474.323403 -453.612229 
L 472.523765 -454.129307 
L 470.724128 -454.647055 
L 468.924491 -455.165479 
L 467.124854 -455.684608 
L 465.325217 -456.204453 
L 463.52558 -456.725023 
L 461.725942 -457.133907 
L 459.926305 -457.543569 
L 458.126668 -457.954031 
L 456.327031 -458.365312 
L 454.527394 -458.777435 
L 452.727757 -459.190411 
L 450.928119 -459.604283 
L 449.128482 -460.01905 
L 447.328845 -460.434746 
L 445.529208 -460.851399 
L 443.729571 -461.269036 
L 441.929933 -461.687684 
L 440.130296 -461.823903 
L 438.330659 -461.961188 
L 436.531022 -462.099581 
L 434.731385 -462.239101 
L 432.931748 -462.379789 
L 431.13211 -462.521687 
L 429.332473 -462.664821 
L 427.532836 -462.809248 
L 425.733199 -462.955 
L 423.933562 -463.102125 
L 422.133925 -463.250679 
L 420.334287 -463.400709 
L 418.53465 -463.475174 
L 416.735013 -463.551094 
L 414.935376 -463.628531 
L 413.135739 -463.707547 
L 411.336102 -463.788196 
L 409.536464 -463.870554 
L 407.736827 -463.954674 
L 405.93719 -464.040647 
L 404.137553 -464.128546 
L 402.337916 -464.218468 
L 400.538279 -464.310502 
L 398.738641 -464.40475 
L 396.939004 -464.800075 
L 395.139367 -465.197724 
L 393.33973 -465.597813 
L 391.540093 -466.000471 
L 389.740456 -466.405841 
L 387.940818 -466.814089 
L 386.141181 -467.225378 
L 384.341544 -467.639905 
L 382.541907 -468.057877 
L 380.74227 -468.479553 
L 378.942633 -468.905171 
L 377.142995 -469.335047 
L 375.343358 -470.033541 
L 373.543721 -470.733375 
L 371.744084 -471.434623 
L 369.944447 -472.137327 
L 368.14481 -472.841568 
L 366.345172 -473.547422 
L 364.545535 -474.25497 
L 362.745898 -474.964296 
L 360.946261 -475.6755 
L 359.146624 -476.388687 
L 357.346986 -477.103964 
L 355.547349 -477.821476 
L 353.747712 -478.075095 
L 351.948075 -478.331242 
L 350.148438 -478.590089 
L 348.348801 -478.85184 
L 346.549163 -479.1167 
L 344.749526 -479.384936 
L 342.949889 -479.656821 
L 341.150252 -479.932683 
L 339.350615 -480.212905 
L 337.550978 -480.49793 
L 335.75134 -480.788286 
L 333.951703 -481.084601 
L 332.152066 -481.292914 
L 330.352429 -481.508866 
L 328.552792 -481.733641 
L 326.753155 -481.968755 
L 324.953517 -482.216224 
L 323.15388 -482.478815 
L 321.354243 -482.760493 
L 319.554606 -483.067358 
L 317.754969 -483.409704 
L 315.955332 -483.807557 
L 314.155694 -484.312629 
z
" id="m1860e5ced4" style="stroke:#d55e00;stroke-opacity:0.1;"/>
    </defs>
    <g clip-path="url(#pcf66a3a7a7)">
     <use style="fill:#d55e00;fill-opacity:0.1;stroke:#d55e00;stroke-opacity:0.1;" x="0" xlink:href="#m1860e5ced4" y="648"/>
    </g>
   </g>
   <g id="patch_3">
    <path d="M 144 576.72 
L 1036.8 576.72 
" style="fill:none;stroke:#d3d3d3;stroke-linecap:square;stroke-linejoin:miter;stroke-width:1.25;"/>
   </g>
   <g id="matplotlib.axis_1">
    <g id="xtick_1">
     <g id="line2d_1">
      <defs>
       <path d="M 0 0 
L 0 6 
" id="mdeba5825df" style="stroke:#696969;stroke-width:1.25;"/>
      </defs>
      <g>
       <use style="fill:#696969;stroke:#696969;stroke-width:1.25;" x="270.964402" xlink:href="#mdeba5825df" y="576.72"/>
      </g>
     </g>
     <g id="text_1">
      <!-- 1990 -->
      <g style="fill:#696969;" transform="translate(253.47534 596.218438)scale(0.15 -0.15)">
       <defs>
        <path d="M 55.859375 6.203125 
L 55.859375 0 
L 9.1875 0 
L 9.1875 6.203125 
L 29.203125 6.203125 
L 29.203125 57.671875 
Q 20.359375 48.4375 10.84375 43.265625 
L 10.84375 51.65625 
Q 23.96875 58.546875 31.203125 68.015625 
L 37.15625 68.015625 
L 37.15625 6.203125 
z
" id="FranklinGothic-Book-49"/>
        <path d="M 5.71875 12.15625 
L 12.40625 14.59375 
Q 16.546875 5.375 26.375 5.375 
Q 35.890625 5.375 40.703125 13.375 
Q 45.515625 21.390625 45.65625 35.109375 
Q 39.109375 23.09375 25.984375 23.09375 
Q 16.703125 23.09375 10.40625 29.421875 
Q 4.109375 35.75 4.109375 45.0625 
Q 4.109375 54.546875 10.71875 61.28125 
Q 17.328125 68.015625 27.59375 68.015625 
Q 40.140625 68.015625 46.828125 59.203125 
Q 53.515625 50.390625 53.515625 34.96875 
Q 53.515625 18.75 46.4375 8.71875 
Q 39.359375 -1.3125 26.265625 -1.3125 
Q 10.984375 -1.3125 5.71875 12.15625 
z
M 27.828125 29.78125 
Q 34.71875 29.78125 39.375 34.59375 
Q 44.046875 39.40625 44.046875 45.84375 
Q 44.046875 52.09375 39.625 56.578125 
Q 35.203125 61.078125 27.984375 61.078125 
Q 20.65625 61.078125 16.40625 56.46875 
Q 12.15625 51.859375 12.15625 45.21875 
Q 12.15625 38.09375 16.859375 33.9375 
Q 21.578125 29.78125 27.828125 29.78125 
z
" id="FranklinGothic-Book-57"/>
        <path d="M 29.390625 -1.3125 
Q 17.875 -1.3125 10.984375 8.671875 
Q 4.109375 18.65625 4.109375 33.453125 
Q 4.109375 48 10.640625 58 
Q 17.1875 68.015625 29.15625 68.015625 
Q 41.65625 68.015625 48.125 57.5625 
Q 54.59375 47.125 54.59375 33.0625 
Q 54.59375 19.28125 47.953125 8.984375 
Q 41.3125 -1.3125 29.390625 -1.3125 
z
M 29.4375 5.21875 
Q 37.890625 5.21875 41.9375 12.859375 
Q 46 20.515625 46 32.078125 
Q 46 44.734375 41.84375 53.125 
Q 37.703125 61.53125 29.046875 61.53125 
Q 20.703125 61.53125 16.625 53.859375 
Q 12.546875 46.1875 12.546875 33.6875 
Q 12.546875 20.703125 16.84375 12.953125 
Q 21.140625 5.21875 29.4375 5.21875 
z
" id="FranklinGothic-Book-48"/>
       </defs>
       <use xlink:href="#FranklinGothic-Book-49"/>
       <use x="57.267578" xlink:href="#FranklinGothic-Book-57"/>
       <use x="115.910156" xlink:href="#FranklinGothic-Book-57"/>
       <use x="174.552734" xlink:href="#FranklinGothic-Book-48"/>
      </g>
     </g>
    </g>
    <g id="xtick_2">
     <g id="line2d_2">
      <g>
       <use style="fill:#696969;stroke:#696969;stroke-width:1.25;" x="486.920863" xlink:href="#mdeba5825df" y="576.72"/>
      </g>
     </g>
     <g id="text_2">
      <!-- 2000 -->
      <g style="fill:#696969;" transform="translate(469.328675 596.218438)scale(0.15 -0.15)">
       <defs>
        <path d="M 52.484375 6.9375 
L 52.484375 0 
L 5.171875 0 
L 5.171875 6.9375 
Q 33.203125 27.9375 38.59375 34.59375 
Q 44 41.265625 44 47.796875 
Q 44 53.90625 39.453125 57.65625 
Q 34.90625 61.421875 29 61.421875 
Q 22.90625 61.421875 18.21875 57.296875 
Q 13.53125 53.171875 12.9375 46.09375 
L 5.171875 48.4375 
Q 10.0625 68.015625 29.109375 68.015625 
Q 39.40625 68.015625 45.84375 62.15625 
Q 52.296875 56.296875 52.296875 47.859375 
Q 52.296875 42.046875 49.234375 36.671875 
Q 46.1875 31.296875 37.6875 23.828125 
Q 29.203125 16.359375 15.71875 6.9375 
z
" id="FranklinGothic-Book-50"/>
       </defs>
       <use xlink:href="#FranklinGothic-Book-50"/>
       <use x="58.642578" xlink:href="#FranklinGothic-Book-48"/>
       <use x="117.285156" xlink:href="#FranklinGothic-Book-48"/>
       <use x="175.927734" xlink:href="#FranklinGothic-Book-48"/>
      </g>
     </g>
    </g>
    <g id="xtick_3">
     <g id="line2d_3">
      <g>
       <use style="fill:#696969;stroke:#696969;stroke-width:1.25;" x="702.877323" xlink:href="#mdeba5825df" y="576.72"/>
      </g>
     </g>
     <g id="text_3">
      <!-- 2010 -->
      <g style="fill:#696969;" transform="translate(685.810136 596.218438)scale(0.15 -0.15)">
       <use xlink:href="#FranklinGothic-Book-50"/>
       <use x="58.642578" xlink:href="#FranklinGothic-Book-48"/>
       <use x="113.535156" xlink:href="#FranklinGothic-Book-49"/>
       <use x="168.927734" xlink:href="#FranklinGothic-Book-48"/>
      </g>
     </g>
    </g>
    <g id="xtick_4">
     <g id="line2d_4">
      <g>
       <use style="fill:#696969;stroke:#696969;stroke-width:1.25;" x="918.833784" xlink:href="#mdeba5825df" y="576.72"/>
      </g>
     </g>
     <g id="text_4">
      <!-- 2020 -->
      <g style="fill:#696969;" transform="translate(901.241596 596.218438)scale(0.15 -0.15)">
       <use xlink:href="#FranklinGothic-Book-50"/>
       <use x="58.642578" xlink:href="#FranklinGothic-Book-48"/>
       <use x="117.285156" xlink:href="#FranklinGothic-Book-50"/>
       <use x="175.927734" xlink:href="#FranklinGothic-Book-48"/>
      </g>
     </g>
    </g>
    <g id="text_5">
     <!-- Year -->
     <g style="fill:#696969;" transform="translate(572.109375 616.048125)scale(0.2 -0.2)">
      <defs>
       <path d="M 52 66.65625 
L 29.6875 28.03125 
L 29.6875 0 
L 21.34375 0 
L 21.34375 28.03125 
L -0.984375 66.65625 
L 8.84375 66.65625 
L 26.5625 35.984375 
L 44.390625 66.65625 
z
" id="FranklinGothic-Book-89"/>
       <path d="M 40.234375 14.703125 
L 47.359375 13.234375 
Q 45.40625 6.9375 39.734375 2.8125 
Q 34.078125 -1.3125 26.421875 -1.3125 
Q 16.3125 -1.3125 10.0625 5.78125 
Q 3.8125 12.890625 3.8125 24.421875 
Q 3.8125 36.1875 10.296875 43.4375 
Q 16.796875 50.6875 26.609375 50.6875 
Q 36.28125 50.6875 42.15625 44 
Q 48.046875 37.3125 48.1875 23.96875 
L 12.359375 23.96875 
Q 12.359375 12.796875 17.046875 8.890625 
Q 21.734375 4.984375 26.953125 4.984375 
Q 36.375 4.984375 40.234375 14.703125 
z
M 39.796875 29.6875 
Q 39.703125 33.84375 38.421875 37.0625 
Q 37.15625 40.28125 34.125 42.546875 
Q 31.109375 44.828125 26.859375 44.828125 
Q 21.140625 44.828125 17.15625 40.71875 
Q 13.1875 36.625 12.703125 29.6875 
z
" id="FranklinGothic-Book-101"/>
       <path d="M 46.296875 0 
L 38.671875 0 
Q 38.234375 2.34375 37.796875 8.890625 
Q 32.71875 -1.3125 20.515625 -1.3125 
Q 12.203125 -1.3125 7.765625 3.078125 
Q 3.328125 7.46875 3.328125 13.625 
Q 3.328125 21.09375 9.671875 25.90625 
Q 16.015625 30.71875 31.25 30.71875 
Q 33.296875 30.71875 37.796875 30.515625 
Q 37.796875 36.375 36.890625 38.984375 
Q 35.984375 41.609375 33.046875 43.171875 
Q 30.125 44.734375 25.34375 44.734375 
Q 13.671875 44.734375 11.765625 35.84375 
L 4.6875 37.0625 
Q 7.28125 50.6875 26.46875 50.6875 
Q 36.671875 50.6875 40.9375 46.171875 
Q 45.21875 41.65625 45.21875 30.515625 
L 45.21875 9.578125 
Q 45.21875 4.34375 46.296875 0 
z
M 37.796875 24.65625 
Q 33.109375 24.953125 30.671875 24.953125 
Q 21.578125 24.953125 16.546875 21.96875 
Q 11.53125 19 11.53125 13.28125 
Q 11.53125 9.671875 14.234375 7.125 
Q 16.9375 4.59375 22.078125 4.59375 
Q 29 4.59375 33.46875 9.625 
Q 37.9375 14.65625 37.9375 21.4375 
Q 37.9375 22.796875 37.796875 24.65625 
z
" id="FranklinGothic-Book-97"/>
       <path d="M 15.328125 0 
L 7.671875 0 
L 7.671875 49.3125 
L 14.40625 49.3125 
L 14.40625 37.796875 
Q 17.96875 45.953125 21.546875 48.359375 
Q 25.140625 50.78125 28.90625 50.78125 
Q 30.078125 50.78125 31.9375 50.59375 
L 31.9375 43.265625 
L 30.375 43.265625 
Q 24.03125 43.265625 19.828125 38.53125 
Q 15.625 33.796875 15.328125 26.078125 
z
" id="FranklinGothic-Book-114"/>
      </defs>
      <use xlink:href="#FranklinGothic-Book-89"/>
      <use x="45.025391" xlink:href="#FranklinGothic-Book-101"/>
      <use x="97.076172" xlink:href="#FranklinGothic-Book-97"/>
      <use x="149.957031" xlink:href="#FranklinGothic-Book-114"/>
     </g>
    </g>
   </g>
   <g id="matplotlib.axis_2">
    <g id="ytick_1">
     <g id="line2d_5">
      <path clip-path="url(#pcf66a3a7a7)" d="M 144 572.567701 
L 1036.8 572.567701 
" style="fill:none;stroke:#d3d3d3;stroke-linecap:round;stroke-opacity:0.5;"/>
     </g>
     <g id="text_6">
      <!-- −5000 -->
      <g style="fill:#696969;" transform="translate(90.519531 577.56692)scale(0.15 -0.15)">
       <defs>
        <path d="M 6 36.765625 
L 52.6875 36.765625 
L 52.6875 30.03125 
L 6 30.03125 
z
" id="FranklinGothic-Book-8722"/>
        <path d="M 48.875 66.65625 
L 48.1875 59.46875 
L 15.4375 59.46875 
L 14.015625 37.84375 
Q 21.4375 45.125 30.328125 45.125 
Q 39.703125 45.125 46.515625 38.625 
Q 53.328125 32.125 53.328125 22.015625 
Q 53.328125 11.765625 45.921875 5.21875 
Q 38.53125 -1.3125 27.828125 -1.3125 
Q 19.4375 -1.3125 12.890625 3.078125 
Q 6.34375 7.46875 4.296875 14.453125 
L 11.421875 16.890625 
Q 15.828125 5.28125 27.9375 5.28125 
Q 35.890625 5.28125 40.578125 9.984375 
Q 45.265625 14.703125 45.265625 22.015625 
Q 45.265625 29.6875 40.625 33.984375 
Q 35.984375 38.28125 29.5 38.28125 
Q 20.015625 38.28125 13.8125 29.203125 
L 7.234375 30.609375 
L 9.375 66.65625 
z
" id="FranklinGothic-Book-53"/>
       </defs>
       <use xlink:href="#FranklinGothic-Book-8722"/>
       <use x="58.642578" xlink:href="#FranklinGothic-Book-53"/>
       <use x="117.285156" xlink:href="#FranklinGothic-Book-48"/>
       <use x="175.927734" xlink:href="#FranklinGothic-Book-48"/>
       <use x="234.570312" xlink:href="#FranklinGothic-Book-48"/>
      </g>
     </g>
    </g>
    <g id="ytick_2">
     <g id="line2d_6">
      <path clip-path="url(#pcf66a3a7a7)" d="M 144 504.232581 
L 1036.8 504.232581 
" style="fill:none;stroke:#d3d3d3;stroke-linecap:round;stroke-opacity:0.5;"/>
     </g>
     <g id="text_7">
      <!-- −4000 -->
      <g style="fill:#696969;" transform="translate(90.519531 509.231799)scale(0.15 -0.15)">
       <defs>
        <path d="M 44.09375 0 
L 36.03125 0 
L 36.03125 15.875 
L 3.078125 15.875 
L 3.078125 21.484375 
L 33.640625 68.0625 
L 44.09375 68.0625 
L 44.09375 22.46875 
L 54.890625 22.46875 
L 54.890625 15.875 
L 44.09375 15.875 
z
M 36.03125 22.46875 
L 36.03125 54 
Q 36.03125 57.421875 36.1875 61.375 
Q 34.078125 57.515625 32.5625 55.125 
L 11.765625 22.46875 
z
" id="FranklinGothic-Book-52"/>
       </defs>
       <use xlink:href="#FranklinGothic-Book-8722"/>
       <use x="58.642578" xlink:href="#FranklinGothic-Book-52"/>
       <use x="117.285156" xlink:href="#FranklinGothic-Book-48"/>
       <use x="175.927734" xlink:href="#FranklinGothic-Book-48"/>
       <use x="234.570312" xlink:href="#FranklinGothic-Book-48"/>
      </g>
     </g>
    </g>
    <g id="ytick_3">
     <g id="line2d_7">
      <path clip-path="url(#pcf66a3a7a7)" d="M 144 435.89746 
L 1036.8 435.89746 
" style="fill:none;stroke:#d3d3d3;stroke-linecap:round;stroke-opacity:0.5;"/>
     </g>
     <g id="text_8">
      <!-- −3000 -->
      <g style="fill:#696969;" transform="translate(90.519531 440.896679)scale(0.15 -0.15)">
       <defs>
        <path d="M 19.34375 31.34375 
L 19.34375 37.984375 
L 26.953125 37.984375 
Q 35.296875 37.984375 38.890625 41.40625 
Q 42.484375 44.828125 42.484375 49.703125 
Q 42.484375 55.078125 38.46875 58.21875 
Q 34.46875 61.375 28.421875 61.375 
Q 17.1875 61.375 12.890625 50.53125 
L 5.375 52.6875 
Q 11.8125 68.015625 29.203125 68.015625 
Q 38.96875 68.015625 44.96875 62.8125 
Q 50.984375 57.625 50.984375 50.296875 
Q 50.984375 44.625 47.359375 40.40625 
Q 43.75 36.1875 38.09375 35.109375 
Q 44.4375 34.1875 49 29.78125 
Q 53.5625 25.390625 53.5625 18.40625 
Q 53.5625 10.0625 46.765625 4.375 
Q 39.984375 -1.3125 28.171875 -1.3125 
Q 18.796875 -1.3125 12.125 3.125 
Q 5.46875 7.5625 2.9375 14.9375 
L 10.6875 17.53125 
Q 14.203125 5.46875 28.03125 5.46875 
Q 37.015625 5.46875 40.9375 9.296875 
Q 44.875 13.140625 44.875 18.453125 
Q 44.875 24.21875 40.15625 27.78125 
Q 35.453125 31.34375 26.953125 31.34375 
z
" id="FranklinGothic-Book-51"/>
       </defs>
       <use xlink:href="#FranklinGothic-Book-8722"/>
       <use x="58.642578" xlink:href="#FranklinGothic-Book-51"/>
       <use x="117.285156" xlink:href="#FranklinGothic-Book-48"/>
       <use x="175.927734" xlink:href="#FranklinGothic-Book-48"/>
       <use x="234.570312" xlink:href="#FranklinGothic-Book-48"/>
      </g>
     </g>
    </g>
    <g id="ytick_4">
     <g id="line2d_8">
      <path clip-path="url(#pcf66a3a7a7)" d="M 144 367.56234 
L 1036.8 367.56234 
" style="fill:none;stroke:#d3d3d3;stroke-linecap:round;stroke-opacity:0.5;"/>
     </g>
     <g id="text_9">
      <!-- −2000 -->
      <g style="fill:#696969;" transform="translate(90.519531 372.561558)scale(0.15 -0.15)">
       <use xlink:href="#FranklinGothic-Book-8722"/>
       <use x="58.642578" xlink:href="#FranklinGothic-Book-50"/>
       <use x="117.285156" xlink:href="#FranklinGothic-Book-48"/>
       <use x="175.927734" xlink:href="#FranklinGothic-Book-48"/>
       <use x="234.570312" xlink:href="#FranklinGothic-Book-48"/>
      </g>
     </g>
    </g>
    <g id="ytick_5">
     <g id="line2d_9">
      <path clip-path="url(#pcf66a3a7a7)" d="M 144 299.227219 
L 1036.8 299.227219 
" style="fill:none;stroke:#d3d3d3;stroke-linecap:round;stroke-opacity:0.5;"/>
     </g>
     <g id="text_10">
      <!-- −1000 -->
      <g style="fill:#696969;" transform="translate(91.007031 304.226438)scale(0.15 -0.15)">
       <use xlink:href="#FranklinGothic-Book-8722"/>
       <use x="58.642578" xlink:href="#FranklinGothic-Book-49"/>
       <use x="114.035156" xlink:href="#FranklinGothic-Book-48"/>
       <use x="172.677734" xlink:href="#FranklinGothic-Book-48"/>
       <use x="231.320312" xlink:href="#FranklinGothic-Book-48"/>
      </g>
     </g>
    </g>
    <g id="ytick_6">
     <g id="line2d_10">
      <path clip-path="url(#pcf66a3a7a7)" d="M 144 230.892099 
L 1036.8 230.892099 
" style="fill:none;stroke:#d3d3d3;stroke-linecap:round;stroke-opacity:0.5;"/>
     </g>
     <g id="text_11">
      <!-- 0 -->
      <g style="fill:#696969;" transform="translate(125.703906 235.891317)scale(0.15 -0.15)">
       <use xlink:href="#FranklinGothic-Book-48"/>
      </g>
     </g>
    </g>
    <g id="ytick_7">
     <g id="line2d_11">
      <path clip-path="url(#pcf66a3a7a7)" d="M 144 162.556978 
L 1036.8 162.556978 
" style="fill:none;stroke:#d3d3d3;stroke-linecap:round;stroke-opacity:0.5;"/>
     </g>
     <g id="text_12">
      <!-- 1000 -->
      <g style="fill:#696969;" transform="translate(99.803125 167.556197)scale(0.15 -0.15)">
       <use xlink:href="#FranklinGothic-Book-49"/>
       <use x="55.392578" xlink:href="#FranklinGothic-Book-48"/>
       <use x="114.035156" xlink:href="#FranklinGothic-Book-48"/>
       <use x="172.677734" xlink:href="#FranklinGothic-Book-48"/>
      </g>
     </g>
    </g>
    <g id="ytick_8">
     <g id="line2d_12">
      <path clip-path="url(#pcf66a3a7a7)" d="M 144 94.221858 
L 1036.8 94.221858 
" style="fill:none;stroke:#d3d3d3;stroke-linecap:round;stroke-opacity:0.5;"/>
     </g>
     <g id="text_13">
      <!-- 2000 -->
      <g style="fill:#696969;" transform="translate(99.315625 99.221076)scale(0.15 -0.15)">
       <use xlink:href="#FranklinGothic-Book-50"/>
       <use x="58.642578" xlink:href="#FranklinGothic-Book-48"/>
       <use x="117.285156" xlink:href="#FranklinGothic-Book-48"/>
       <use x="175.927734" xlink:href="#FranklinGothic-Book-48"/>
      </g>
     </g>
    </g>
    <g id="text_14">
     <!-- Gt -->
     <g style="fill:#696969;" transform="translate(77.188281 336.786875)rotate(-90)scale(0.2 -0.2)">
      <defs>
       <path d="M 57.71875 33.59375 
L 57.71875 -0.875 
L 52.59375 -0.875 
L 50.296875 7.46875 
Q 44.140625 -1.3125 31.984375 -1.3125 
Q 18.796875 -1.3125 11.46875 8.59375 
Q 4.15625 18.5 4.15625 32.671875 
Q 4.15625 47.796875 11.90625 57.90625 
Q 19.671875 68.015625 33.015625 68.015625 
Q 51.421875 68.015625 57.03125 48.6875 
L 49.125 46.78125 
Q 47.40625 54.203125 42.71875 57.5625 
Q 38.03125 60.9375 32.46875 60.9375 
Q 22.609375 60.9375 17.921875 52.96875 
Q 13.234375 45.015625 13.234375 33.015625 
Q 13.234375 20.0625 18.484375 12.765625 
Q 23.734375 5.46875 32.765625 5.46875 
Q 39.796875 5.46875 44.5 10.125 
Q 49.21875 14.796875 49.21875 23 
Q 49.21875 24.515625 49.125 26.609375 
L 32.625 26.609375 
L 32.625 33.59375 
z
" id="FranklinGothic-Book-71"/>
       <path d="M 30.03125 5.28125 
L 30.03125 -0.78125 
Q 25.984375 -1.3125 23 -1.3125 
Q 8.6875 -1.3125 8.6875 13.625 
L 8.6875 43.3125 
L -0.046875 43.3125 
L -0.046875 49.3125 
L 8.6875 49.3125 
L 9.03125 61.71875 
L 16.15625 62.40625 
L 16.15625 49.3125 
L 27.203125 49.3125 
L 27.203125 43.3125 
L 16.15625 43.3125 
L 16.15625 12.359375 
Q 16.15625 4.734375 24.078125 4.734375 
Q 26.703125 4.734375 30.03125 5.28125 
z
" id="FranklinGothic-Book-116"/>
      </defs>
      <use xlink:href="#FranklinGothic-Book-71"/>
      <use x="64.697266" xlink:href="#FranklinGothic-Book-116"/>
     </g>
    </g>
   </g>
   <g id="text_15">
    <!-- Compared to 2005-2005 average -->
    <g style="fill:#696969;" transform="translate(144 75.2652)scale(0.3 -0.3)">
     <defs>
      <path d="M 48.296875 22.40625 
L 55.90625 20.703125 
Q 50.4375 -1.3125 31.203125 -1.3125 
Q 18.5625 -1.3125 11.359375 8.890625 
Q 4.15625 19.09375 4.15625 33.984375 
Q 4.15625 49.359375 11.671875 58.6875 
Q 19.1875 68.015625 31.84375 68.015625 
Q 50.59375 68.015625 55.90625 46.578125 
L 48.046875 45.015625 
Q 43.75 60.9375 31.78125 60.9375 
Q 22.953125 60.9375 18.09375 53.53125 
Q 13.234375 46.140625 13.234375 32.765625 
Q 13.234375 20.515625 18.203125 13.109375 
Q 23.1875 5.71875 31.390625 5.71875 
Q 44.140625 5.71875 48.296875 22.40625 
z
" id="FranklinGothic-Book-67"/>
      <path d="M 25.34375 -1.3125 
Q 15.1875 -1.3125 9.5 6.203125 
Q 3.8125 13.71875 3.8125 24.859375 
Q 3.8125 36.625 10.203125 43.65625 
Q 16.609375 50.6875 26.125 50.6875 
Q 36.328125 50.6875 42.203125 43.28125 
Q 48.09375 35.890625 48.09375 24.8125 
Q 48.09375 13.28125 41.75 5.984375 
Q 35.40625 -1.3125 25.34375 -1.3125 
z
M 25.921875 4.984375 
Q 31.78125 4.984375 35.734375 9.8125 
Q 39.703125 14.65625 39.703125 24.859375 
Q 39.703125 35.109375 35.546875 39.71875 
Q 31.390625 44.34375 25.828125 44.34375 
Q 20.125 44.34375 16.15625 39.671875 
Q 12.203125 35.015625 12.203125 24.90625 
Q 12.203125 14.203125 16.15625 9.59375 
Q 20.125 4.984375 25.921875 4.984375 
z
" id="FranklinGothic-Book-111"/>
      <path d="M 73.734375 0 
L 66.265625 0 
L 66.265625 30.671875 
Q 66.265625 35.40625 65.59375 37.765625 
Q 64.9375 40.140625 62.390625 42.109375 
Q 59.859375 44.09375 56.6875 44.09375 
Q 52.296875 44.09375 48.21875 40.0625 
Q 44.140625 36.03125 44.140625 27.78125 
L 44.140625 0 
L 36.71875 0 
L 36.71875 32.46875 
Q 36.71875 38.96875 33.609375 41.65625 
Q 30.515625 44.34375 27.09375 44.34375 
Q 22.21875 44.34375 18.59375 40.140625 
Q 14.984375 35.9375 14.984375 29.5 
L 14.984375 0 
L 7.671875 0 
L 7.671875 49.3125 
L 14.265625 49.3125 
L 14.265625 39.84375 
Q 19.78125 50.6875 29.4375 50.6875 
Q 34.765625 50.6875 38.46875 47.21875 
Q 42.1875 43.75 43.265625 38.875 
Q 48.34375 50.6875 58.84375 50.6875 
Q 63.875 50.6875 67.65625 47.796875 
Q 71.4375 44.921875 72.578125 41.1875 
Q 73.734375 37.453125 73.734375 30.671875 
z
" id="FranklinGothic-Book-109"/>
      <path d="M 15.328125 -16.65625 
L 7.671875 -16.65625 
L 7.671875 49.3125 
L 14.546875 49.3125 
L 14.546875 39.75 
Q 19.78125 50.6875 30.125 50.6875 
Q 38.875 50.6875 44.234375 43.375 
Q 49.609375 36.078125 49.609375 24.90625 
Q 49.609375 12.84375 44.09375 5.765625 
Q 38.578125 -1.3125 29.9375 -1.3125 
Q 20.65625 -1.3125 15.328125 7.515625 
z
M 15.328125 31.78125 
L 15.328125 17.921875 
Q 16.0625 12.3125 20.0625 8.640625 
Q 24.078125 4.984375 28.421875 4.984375 
Q 33.453125 4.984375 37.328125 9.375 
Q 41.21875 13.765625 41.21875 24.5625 
Q 41.21875 33.890625 37.703125 38.9375 
Q 34.1875 44 28.375 44 
Q 23.78125 44 20.140625 40.421875 
Q 16.5 36.859375 15.328125 31.78125 
z
" id="FranklinGothic-Book-112"/>
      <path d="M 46.1875 66.65625 
L 46.1875 0 
L 39.203125 0 
L 39.203125 8.453125 
Q 34.03125 -1.3125 23.640625 -1.3125 
Q 14.984375 -1.3125 9.421875 5.9375 
Q 3.859375 13.1875 3.859375 24.265625 
Q 3.859375 35.59375 9.375 43.140625 
Q 14.890625 50.6875 24.03125 50.6875 
Q 32.90625 50.6875 38.53125 42.578125 
L 38.53125 66.65625 
z
M 38.53125 30.28125 
Q 38.53125 36.765625 34.5625 40.671875 
Q 30.609375 44.578125 25.34375 44.578125 
Q 19.625 44.578125 15.9375 39.5 
Q 12.25 34.421875 12.25 25.25 
Q 12.25 15.328125 15.640625 10.15625 
Q 19.046875 4.984375 24.953125 4.984375 
Q 30.328125 4.984375 34.421875 9.46875 
Q 38.53125 13.96875 38.53125 20.015625 
z
" id="FranklinGothic-Book-100"/>
      <path id="FranklinGothic-Book-32"/>
      <path d="M 23.53125 27.984375 
L 23.53125 22.015625 
L 1.46875 22.015625 
L 1.46875 27.984375 
z
" id="FranklinGothic-Book-45"/>
      <path d="M 43.796875 49.3125 
L 26.765625 0 
L 18.796875 0 
L 1.171875 49.3125 
L 9.671875 49.3125 
L 23.390625 9.234375 
L 36.96875 49.3125 
z
" id="FranklinGothic-Book-118"/>
      <path d="M 47.953125 57.03125 
L 47.953125 50.921875 
Q 42.671875 50.921875 40.890625 49.703125 
Q 39.109375 48.484375 38.53125 45.3125 
Q 43.265625 39.84375 43.265625 33.40625 
Q 43.265625 26.65625 38.109375 21.828125 
Q 32.953125 17 24.265625 17 
Q 22.3125 17 20.90625 17.28125 
Q 18.21875 17.828125 17.53125 17.828125 
Q 16.21875 17.828125 14.359375 16.53125 
Q 12.5 15.234375 12.5 13.1875 
Q 12.5 10.25 15.1875 9.375 
Q 17.875 8.5 27.828125 8.25 
Q 36.28125 8.015625 40.3125 7.109375 
Q 44.34375 6.203125 47.125 3.09375 
Q 49.90625 0 49.90625 -4.5 
Q 49.90625 -18.609375 25.09375 -18.609375 
Q 13.328125 -18.609375 7.9375 -15.0625 
Q 2.546875 -11.53125 2.546875 -5.609375 
Q 2.546875 1.5625 10.0625 4.25 
Q 5.21875 7.421875 5.21875 12.203125 
Q 5.21875 17.921875 12.0625 20.953125 
Q 5.671875 26.125 5.671875 33.984375 
Q 5.671875 41.3125 11.140625 46 
Q 16.609375 50.6875 24.46875 50.6875 
Q 30.03125 50.6875 34.578125 48.578125 
Q 35.296875 53.421875 37.953125 55.265625 
Q 40.625 57.125 46.046875 57.125 
Q 46.578125 57.125 47.953125 57.03125 
z
M 24.515625 22.859375 
Q 29.390625 22.859375 32.46875 25.859375 
Q 35.546875 28.859375 35.546875 33.640625 
Q 35.546875 38.53125 32.34375 41.625 
Q 29.15625 44.734375 24.609375 44.734375 
Q 20.265625 44.734375 16.890625 41.828125 
Q 13.53125 38.921875 13.53125 33.546875 
Q 13.53125 28.765625 16.546875 25.8125 
Q 19.578125 22.859375 24.515625 22.859375 
z
M 15.328125 2 
Q 9.96875 -0.34375 9.96875 -4.78125 
Q 9.96875 -8.546875 14.375 -10.625 
Q 18.796875 -12.703125 25.640625 -12.703125 
Q 31.984375 -12.703125 37.25 -10.90625 
Q 42.53125 -9.125 42.53125 -4.890625 
Q 42.53125 -2.59375 40.96875 -1.125 
Q 39.40625 0.34375 36.6875 0.734375 
Q 33.984375 1.125 27.25 1.3125 
Q 19.1875 1.515625 15.328125 2 
z
" id="FranklinGothic-Book-103"/>
     </defs>
     <use xlink:href="#FranklinGothic-Book-67"/>
     <use x="57.910156" xlink:href="#FranklinGothic-Book-111"/>
     <use x="109.863281" xlink:href="#FranklinGothic-Book-109"/>
     <use x="190.384766" xlink:href="#FranklinGothic-Book-112"/>
     <use x="243.802734" xlink:href="#FranklinGothic-Book-97"/>
     <use x="296.683594" xlink:href="#FranklinGothic-Book-114"/>
     <use x="329.642578" xlink:href="#FranklinGothic-Book-101"/>
     <use x="381.693359" xlink:href="#FranklinGothic-Book-100"/>
     <use x="435.550781" xlink:href="#FranklinGothic-Book-32"/>
     <use x="460.550781" xlink:href="#FranklinGothic-Book-116"/>
     <use x="489.8125" xlink:href="#FranklinGothic-Book-111"/>
     <use x="541.765625" xlink:href="#FranklinGothic-Book-32"/>
     <use x="566.765625" xlink:href="#FranklinGothic-Book-50"/>
     <use x="625.408203" xlink:href="#FranklinGothic-Book-48"/>
     <use x="684.050781" xlink:href="#FranklinGothic-Book-48"/>
     <use x="742.693359" xlink:href="#FranklinGothic-Book-53"/>
     <use x="801.335938" xlink:href="#FranklinGothic-Book-45"/>
     <use x="826.335938" xlink:href="#FranklinGothic-Book-50"/>
     <use x="884.978516" xlink:href="#FranklinGothic-Book-48"/>
     <use x="943.621094" xlink:href="#FranklinGothic-Book-48"/>
     <use x="1002.263672" xlink:href="#FranklinGothic-Book-53"/>
     <use x="1060.90625" xlink:href="#FranklinGothic-Book-32"/>
     <use x="1085.90625" xlink:href="#FranklinGothic-Book-97"/>
     <use x="1136.537109" xlink:href="#FranklinGothic-Book-118"/>
     <use x="1180.056641" xlink:href="#FranklinGothic-Book-101"/>
     <use x="1232.107422" xlink:href="#FranklinGothic-Book-114"/>
     <use x="1265.066406" xlink:href="#FranklinGothic-Book-97"/>
     <use x="1317.947266" xlink:href="#FranklinGothic-Book-103"/>
     <use x="1367.068359" xlink:href="#FranklinGothic-Book-101"/>
    </g>
   </g>
   <g id="text_16">
    <!-- Greenland ice sheet cumulative mass balance -->
    <g style="fill:#696969;" transform="translate(144 42.76)scale(0.4 -0.4)">
     <defs>
      <path d="M 46.53125 0 
L 39.359375 0 
L 39.359375 31.6875 
Q 39.359375 38.53125 36.375 41.3125 
Q 33.40625 44.09375 29.15625 44.09375 
Q 23.296875 44.09375 19.3125 39.40625 
Q 15.328125 34.71875 15.328125 27.046875 
L 15.328125 0 
L 7.671875 0 
L 7.671875 49.3125 
L 14.796875 49.3125 
L 14.796875 40.234375 
Q 20.796875 50.6875 30.375 50.6875 
Q 35.890625 50.6875 39.765625 47.828125 
Q 43.65625 44.96875 45.09375 41.40625 
Q 46.53125 37.84375 46.53125 28.515625 
z
" id="FranklinGothic-Book-110"/>
      <path d="M 15.328125 0 
L 7.671875 0 
L 7.671875 66.65625 
L 15.328125 66.65625 
z
" id="FranklinGothic-Book-108"/>
      <path d="M 15.578125 66.65625 
L 15.578125 58.15625 
L 7.328125 58.15625 
L 7.328125 66.65625 
z
M 15.328125 49.3125 
L 15.328125 0 
L 7.671875 0 
L 7.671875 49.3125 
z
" id="FranklinGothic-Book-105"/>
      <path d="M 36.8125 17.28125 
L 43.75 16.0625 
Q 42.28125 7.90625 37.25 3.296875 
Q 32.234375 -1.3125 24.703125 -1.3125 
Q 14.5 -1.3125 9.15625 6.203125 
Q 3.8125 13.71875 3.8125 24.5625 
Q 3.8125 35.796875 9.453125 43.234375 
Q 15.09375 50.6875 24.8125 50.6875 
Q 32.859375 50.6875 37.71875 45.875 
Q 42.578125 41.0625 43.75 33.453125 
L 36.8125 32.125 
Q 34.859375 44.34375 25 44.34375 
Q 18.65625 44.34375 15.234375 38.9375 
Q 11.8125 33.546875 11.8125 24.953125 
Q 11.8125 15.484375 15.203125 10.234375 
Q 18.609375 4.984375 24.75 4.984375 
Q 34.28125 4.984375 36.8125 17.28125 
z
" id="FranklinGothic-Book-99"/>
      <path d="M 1.03125 12.796875 
L 8.34375 14.3125 
Q 10.796875 4.984375 23.78125 4.984375 
Q 28.5625 4.984375 31.875 7.125 
Q 35.203125 9.28125 35.203125 13.1875 
Q 35.203125 19 26.765625 20.5625 
L 16.359375 22.515625 
Q 10.25 23.6875 6.640625 27.09375 
Q 3.03125 30.515625 3.03125 36.140625 
Q 3.03125 42.328125 7.953125 46.5 
Q 12.890625 50.6875 21.234375 50.6875 
Q 37.3125 50.6875 41.0625 38.140625 
L 34.03125 36.625 
Q 31 44.34375 21.578125 44.34375 
Q 16.890625 44.34375 13.890625 42.40625 
Q 10.890625 40.484375 10.890625 37.015625 
Q 10.890625 31.546875 18.5625 30.125 
L 28.171875 28.421875 
Q 43.265625 25.6875 43.265625 13.8125 
Q 43.265625 7.03125 37.640625 2.859375 
Q 32.03125 -1.3125 22.703125 -1.3125 
Q 5.171875 -1.3125 1.03125 12.796875 
z
" id="FranklinGothic-Book-115"/>
      <path d="M 46.34375 0 
L 38.671875 0 
L 38.671875 29.9375 
Q 38.671875 35.203125 38.015625 37.84375 
Q 37.359375 40.484375 34.890625 42.40625 
Q 32.421875 44.34375 29.203125 44.34375 
Q 23.296875 44.34375 19.3125 39.5 
Q 15.328125 34.671875 15.328125 26.5625 
L 15.328125 0 
L 7.671875 0 
L 7.671875 66.65625 
L 15.328125 66.65625 
L 15.328125 40.234375 
Q 20.5625 50.6875 30.28125 50.6875 
Q 34.625 50.6875 38.015625 48.96875 
Q 41.40625 47.265625 43.203125 44.484375 
Q 45.015625 41.703125 45.671875 38.984375 
Q 46.34375 36.28125 46.34375 29.9375 
z
" id="FranklinGothic-Book-104"/>
      <path d="M 46.484375 0 
L 39.59375 0 
L 39.59375 9.421875 
Q 34.328125 -1.3125 23.875 -1.3125 
Q 16.3125 -1.3125 11.984375 3.65625 
Q 7.671875 8.640625 7.671875 17.828125 
L 7.671875 49.3125 
L 15.328125 49.3125 
L 15.328125 17.828125 
Q 15.328125 10.5 18.375 7.734375 
Q 21.4375 4.984375 25.09375 4.984375 
Q 28.8125 4.984375 31.8125 7.078125 
Q 34.8125 9.1875 36.8125 13.0625 
Q 38.8125 16.9375 38.8125 21.53125 
L 38.8125 49.3125 
L 46.484375 49.3125 
z
" id="FranklinGothic-Book-117"/>
      <path d="M 11.375 0 
L 7.671875 0 
L 7.671875 66.65625 
L 15.328125 66.65625 
L 15.328125 41.109375 
Q 20.609375 50.6875 29.890625 50.6875 
Q 38.375 50.6875 44.109375 44 
Q 49.859375 37.3125 49.859375 24.5625 
Q 49.859375 13.578125 44.21875 6.125 
Q 38.578125 -1.3125 29.546875 -1.3125 
Q 19.484375 -1.3125 14.109375 8.15625 
z
M 15.328125 19.34375 
Q 15.875 11.765625 20 8.34375 
Q 24.125 4.9375 28.71875 4.9375 
Q 34.578125 4.9375 38.15625 10.015625 
Q 41.75 15.09375 41.75 23.921875 
Q 41.75 33.453125 38.28125 38.890625 
Q 34.8125 44.34375 28.65625 44.34375 
Q 23.828125 44.34375 19.9375 40.453125 
Q 16.0625 36.578125 15.328125 30.421875 
z
" id="FranklinGothic-Book-98"/>
     </defs>
     <use xlink:href="#FranklinGothic-Book-71"/>
     <use x="64.697266" xlink:href="#FranklinGothic-Book-114"/>
     <use x="97.65625" xlink:href="#FranklinGothic-Book-101"/>
     <use x="149.707031" xlink:href="#FranklinGothic-Book-101"/>
     <use x="201.757812" xlink:href="#FranklinGothic-Book-110"/>
     <use x="255.957031" xlink:href="#FranklinGothic-Book-108"/>
     <use x="278.955078" xlink:href="#FranklinGothic-Book-97"/>
     <use x="331.835938" xlink:href="#FranklinGothic-Book-110"/>
     <use x="386.035156" xlink:href="#FranklinGothic-Book-100"/>
     <use x="439.892578" xlink:href="#FranklinGothic-Book-32"/>
     <use x="464.892578" xlink:href="#FranklinGothic-Book-105"/>
     <use x="487.841797" xlink:href="#FranklinGothic-Book-99"/>
     <use x="534.423828" xlink:href="#FranklinGothic-Book-101"/>
     <use x="586.474609" xlink:href="#FranklinGothic-Book-32"/>
     <use x="611.474609" xlink:href="#FranklinGothic-Book-115"/>
     <use x="657.861328" xlink:href="#FranklinGothic-Book-104"/>
     <use x="711.865234" xlink:href="#FranklinGothic-Book-101"/>
     <use x="763.916016" xlink:href="#FranklinGothic-Book-101"/>
     <use x="815.466797" xlink:href="#FranklinGothic-Book-116"/>
     <use x="846.228516" xlink:href="#FranklinGothic-Book-32"/>
     <use x="871.228516" xlink:href="#FranklinGothic-Book-99"/>
     <use x="917.810547" xlink:href="#FranklinGothic-Book-117"/>
     <use x="971.960938" xlink:href="#FranklinGothic-Book-109"/>
     <use x="1053.357422" xlink:href="#FranklinGothic-Book-117"/>
     <use x="1107.507812" xlink:href="#FranklinGothic-Book-108"/>
     <use x="1130.505859" xlink:href="#FranklinGothic-Book-97"/>
     <use x="1183.386719" xlink:href="#FranklinGothic-Book-116"/>
     <use x="1214.148438" xlink:href="#FranklinGothic-Book-105"/>
     <use x="1237.097656" xlink:href="#FranklinGothic-Book-118"/>
     <use x="1280.617188" xlink:href="#FranklinGothic-Book-101"/>
     <use x="1332.667969" xlink:href="#FranklinGothic-Book-32"/>
     <use x="1357.667969" xlink:href="#FranklinGothic-Book-109"/>
     <use x="1439.064453" xlink:href="#FranklinGothic-Book-97"/>
     <use x="1491.945312" xlink:href="#FranklinGothic-Book-115"/>
     <use x="1538.332031" xlink:href="#FranklinGothic-Book-115"/>
     <use x="1584.71875" xlink:href="#FranklinGothic-Book-32"/>
     <use x="1609.71875" xlink:href="#FranklinGothic-Book-98"/>
     <use x="1663.429688" xlink:href="#FranklinGothic-Book-97"/>
     <use x="1716.310547" xlink:href="#FranklinGothic-Book-108"/>
     <use x="1739.308594" xlink:href="#FranklinGothic-Book-97"/>
     <use x="1792.189453" xlink:href="#FranklinGothic-Book-110"/>
     <use x="1846.388672" xlink:href="#FranklinGothic-Book-99"/>
     <use x="1892.970703" xlink:href="#FranklinGothic-Book-101"/>
    </g>
   </g>
   <g id="legend_1">
    <g id="line2d_13"/>
    <g id="text_17">
     <!-- Mankoff et al. 2021 (1986.01-2023.08) -->
     <g style="fill:#009e73;" transform="translate(643.66925 129.7184)scale(0.2 -0.2)">
      <defs>
       <path d="M 72.703125 0 
L 64.59375 0 
L 64.59375 58.203125 
L 42.921875 0 
L 37.25 0 
L 15.4375 58.203125 
L 15.4375 0 
L 8.34375 0 
L 8.34375 66.65625 
L 20.75 66.65625 
L 40.828125 13.328125 
L 60.5 66.65625 
L 72.703125 66.65625 
z
" id="FranklinGothic-Book-77"/>
       <path d="M 48.390625 0 
L 40.4375 0 
L 26.03125 27.546875 
L 15.328125 15.234375 
L 15.328125 0 
L 7.671875 0 
L 7.671875 66.65625 
L 15.328125 66.65625 
L 15.328125 23.96875 
L 38.234375 49.3125 
L 46.4375 49.3125 
L 31 31.984375 
z
" id="FranklinGothic-Book-107"/>
       <path d="M 28.125 49.3125 
L 28.125 43.3125 
L 16.40625 43.3125 
L 16.40625 0 
L 8.734375 0 
L 8.734375 43.3125 
L 0.34375 43.3125 
L 0.34375 49.3125 
L 8.734375 49.3125 
Q 8.9375 61.1875 13.296875 64.59375 
Q 17.671875 68.015625 23.96875 68.015625 
Q 27.046875 68.015625 31 67.328125 
L 31 61.234375 
Q 28.515625 61.859375 26.265625 61.859375 
Q 21.234375 61.859375 18.8125 59.640625 
Q 16.40625 57.421875 16.40625 51.3125 
L 16.40625 49.3125 
z
" id="FranklinGothic-Book-102"/>
       <path d="M 17.96875 10.9375 
L 17.96875 0 
L 7.078125 0 
L 7.078125 10.9375 
z
" id="FranklinGothic-Book-46"/>
       <path d="M 24.703125 -16.65625 
L 19.578125 -16.65625 
Q 5.21875 2.203125 5.21875 25.09375 
Q 5.21875 46.96875 19.578125 66.65625 
L 24.703125 66.65625 
Q 12.359375 48.25 12.359375 25 
Q 12.359375 2.828125 24.703125 -16.65625 
z
" id="FranklinGothic-Book-40"/>
       <path d="M 19.484375 34.578125 
Q 6.84375 40.09375 6.84375 50.59375 
Q 6.84375 58.203125 13.140625 63.109375 
Q 19.4375 68.015625 29.828125 68.015625 
Q 40.09375 68.015625 46.140625 63.296875 
Q 52.203125 58.59375 52.203125 50.984375 
Q 52.203125 40.375 39.265625 35.796875 
Q 49.703125 30.953125 52.359375 26.453125 
Q 55.03125 21.96875 55.03125 17.484375 
Q 55.03125 9.46875 48.21875 4.078125 
Q 41.40625 -1.3125 29.734375 -1.3125 
Q 17.28125 -1.3125 10.4375 4.171875 
Q 3.609375 9.671875 3.609375 17.234375 
Q 3.609375 28.515625 19.484375 34.578125 
z
M 29.59375 38.71875 
Q 37.984375 40.96875 41.453125 43.890625 
Q 44.921875 46.828125 44.921875 51.21875 
Q 44.921875 56.34375 40.796875 59 
Q 36.671875 61.671875 29.9375 61.671875 
Q 23.484375 61.671875 19.375 58.859375 
Q 15.28125 56.0625 15.28125 51.3125 
Q 15.28125 46.625 19.84375 43.203125 
Q 24.421875 39.796875 29.59375 38.71875 
z
M 28.65625 31.0625 
Q 11.765625 27.046875 11.765625 16.9375 
Q 11.765625 11.671875 16.375 8.328125 
Q 21 4.984375 29.984375 4.984375 
Q 37.59375 4.984375 42.234375 8.25 
Q 46.875 11.53125 46.875 16.609375 
Q 46.875 26.3125 28.65625 31.0625 
z
" id="FranklinGothic-Book-56"/>
       <path d="M 53.5625 53.03125 
L 46.046875 50.984375 
Q 42.1875 61.140625 31.984375 61.140625 
Q 13.234375 61.140625 12.796875 30.125 
Q 15.765625 37.015625 21.234375 40.328125 
Q 26.703125 43.65625 32.8125 43.65625 
Q 42.09375 43.65625 48.359375 37.1875 
Q 54.640625 30.71875 54.640625 21.6875 
Q 54.640625 12.3125 47.96875 5.5 
Q 41.3125 -1.3125 30.90625 -1.3125 
Q 19.09375 -1.3125 12.078125 7.59375 
Q 5.078125 16.5 5.078125 31.84375 
Q 5.078125 46.828125 11.6875 57.421875 
Q 18.3125 68.015625 32.171875 68.015625 
Q 48.140625 68.015625 53.5625 53.03125 
z
M 30.765625 5.375 
Q 37.84375 5.375 42.359375 10.03125 
Q 46.875 14.703125 46.875 21.234375 
Q 46.875 27.6875 42.453125 32.296875 
Q 38.03125 36.921875 31.5 36.921875 
Q 24.75 36.921875 19.71875 32.078125 
Q 14.703125 27.25 14.703125 20.75 
Q 14.703125 14.75 19.1875 10.0625 
Q 23.6875 5.375 30.765625 5.375 
z
" id="FranklinGothic-Book-54"/>
       <path d="M 4.640625 66.65625 
L 9.71875 66.65625 
Q 24.125 47.796875 24.125 24.90625 
Q 24.125 3.03125 9.71875 -16.65625 
L 4.640625 -16.65625 
Q 17 1.765625 17 25 
Q 17 47.171875 4.640625 66.65625 
z
" id="FranklinGothic-Book-41"/>
      </defs>
      <use xlink:href="#FranklinGothic-Book-77"/>
      <use x="81.005859" xlink:href="#FranklinGothic-Book-97"/>
      <use x="133.886719" xlink:href="#FranklinGothic-Book-110"/>
      <use x="188.085938" xlink:href="#FranklinGothic-Book-107"/>
      <use x="236.058594" xlink:href="#FranklinGothic-Book-111"/>
      <use x="288.011719" xlink:href="#FranklinGothic-Book-102"/>
      <use x="320.617188" xlink:href="#FranklinGothic-Book-102"/>
      <use x="350.597656" xlink:href="#FranklinGothic-Book-32"/>
      <use x="375.597656" xlink:href="#FranklinGothic-Book-101"/>
      <use x="427.148438" xlink:href="#FranklinGothic-Book-116"/>
      <use x="457.910156" xlink:href="#FranklinGothic-Book-32"/>
      <use x="482.910156" xlink:href="#FranklinGothic-Book-97"/>
      <use x="535.791016" xlink:href="#FranklinGothic-Book-108"/>
      <use x="558.789062" xlink:href="#FranklinGothic-Book-46"/>
      <use x="583.789062" xlink:href="#FranklinGothic-Book-32"/>
      <use x="608.789062" xlink:href="#FranklinGothic-Book-50"/>
      <use x="667.431641" xlink:href="#FranklinGothic-Book-48"/>
      <use x="726.074219" xlink:href="#FranklinGothic-Book-50"/>
      <use x="781.216797" xlink:href="#FranklinGothic-Book-49"/>
      <use x="839.859375" xlink:href="#FranklinGothic-Book-32"/>
      <use x="864.859375" xlink:href="#FranklinGothic-Book-40"/>
      <use x="894.205078" xlink:href="#FranklinGothic-Book-49"/>
      <use x="951.472656" xlink:href="#FranklinGothic-Book-57"/>
      <use x="1010.115234" xlink:href="#FranklinGothic-Book-56"/>
      <use x="1068.757812" xlink:href="#FranklinGothic-Book-54"/>
      <use x="1127.400391" xlink:href="#FranklinGothic-Book-46"/>
      <use x="1152.400391" xlink:href="#FranklinGothic-Book-48"/>
      <use x="1207.292969" xlink:href="#FranklinGothic-Book-49"/>
      <use x="1265.935547" xlink:href="#FranklinGothic-Book-45"/>
      <use x="1290.935547" xlink:href="#FranklinGothic-Book-50"/>
      <use x="1349.578125" xlink:href="#FranklinGothic-Book-48"/>
      <use x="1408.220703" xlink:href="#FranklinGothic-Book-50"/>
      <use x="1466.863281" xlink:href="#FranklinGothic-Book-51"/>
      <use x="1525.505859" xlink:href="#FranklinGothic-Book-46"/>
      <use x="1550.505859" xlink:href="#FranklinGothic-Book-48"/>
      <use x="1609.148438" xlink:href="#FranklinGothic-Book-56"/>
      <use x="1667.791016" xlink:href="#FranklinGothic-Book-41"/>
     </g>
    </g>
    <g id="line2d_14"/>
    <g id="text_18">
     <!-- IMBIE 2021 (1992.01-2020.12) -->
     <g style="fill:#d55e00;" transform="translate(643.66925 157.04965)scale(0.2 -0.2)">
      <defs>
       <path d="M 16.703125 0 
L 8.34375 0 
L 8.34375 66.65625 
L 16.703125 66.65625 
z
" id="FranklinGothic-Book-73"/>
       <path d="M 8.34375 0 
L 8.34375 66.65625 
L 34.71875 66.65625 
Q 44.671875 66.65625 49.484375 61.765625 
Q 54.296875 56.890625 54.296875 50.4375 
Q 54.296875 39.109375 42.484375 35.40625 
Q 49.515625 33.59375 52.921875 28.953125 
Q 56.34375 24.3125 56.34375 18.453125 
Q 56.34375 10.59375 51.046875 5.296875 
Q 45.75 0 34.71875 0 
z
M 16.40625 38.09375 
L 30.90625 38.09375 
Q 39.9375 38.09375 42.96875 41.53125 
Q 46 44.96875 46 49.609375 
Q 46 54.203125 42.75 57.03125 
Q 39.5 59.859375 33.0625 59.859375 
L 16.40625 59.859375 
z
M 16.40625 7.328125 
L 34.28125 7.328125 
Q 40.828125 7.328125 44.390625 10.5 
Q 47.953125 13.671875 47.953125 18.75 
Q 47.953125 22.3125 46.34375 25.359375 
Q 44.734375 28.421875 41.796875 30.078125 
Q 38.875 31.734375 33.0625 31.734375 
L 16.40625 31.734375 
z
" id="FranklinGothic-Book-66"/>
       <path d="M 51.46875 7.328125 
L 51.46875 0 
L 8.34375 0 
L 8.34375 66.65625 
L 50.53125 66.65625 
L 50.53125 59.328125 
L 16.703125 59.328125 
L 16.703125 38.140625 
L 43.5625 38.140625 
L 43.5625 31.34375 
L 16.703125 31.34375 
L 16.703125 7.328125 
z
" id="FranklinGothic-Book-69"/>
      </defs>
      <use xlink:href="#FranklinGothic-Book-73"/>
      <use x="25" xlink:href="#FranklinGothic-Book-77"/>
      <use x="106.005859" xlink:href="#FranklinGothic-Book-66"/>
      <use x="166.455078" xlink:href="#FranklinGothic-Book-73"/>
      <use x="191.455078" xlink:href="#FranklinGothic-Book-69"/>
      <use x="246.240234" xlink:href="#FranklinGothic-Book-32"/>
      <use x="271.240234" xlink:href="#FranklinGothic-Book-50"/>
      <use x="329.882812" xlink:href="#FranklinGothic-Book-48"/>
      <use x="388.525391" xlink:href="#FranklinGothic-Book-50"/>
      <use x="443.667969" xlink:href="#FranklinGothic-Book-49"/>
      <use x="502.310547" xlink:href="#FranklinGothic-Book-32"/>
      <use x="527.310547" xlink:href="#FranklinGothic-Book-40"/>
      <use x="556.65625" xlink:href="#FranklinGothic-Book-49"/>
      <use x="613.923828" xlink:href="#FranklinGothic-Book-57"/>
      <use x="672.566406" xlink:href="#FranklinGothic-Book-57"/>
      <use x="731.208984" xlink:href="#FranklinGothic-Book-50"/>
      <use x="789.851562" xlink:href="#FranklinGothic-Book-46"/>
      <use x="814.851562" xlink:href="#FranklinGothic-Book-48"/>
      <use x="869.744141" xlink:href="#FranklinGothic-Book-49"/>
      <use x="928.386719" xlink:href="#FranklinGothic-Book-45"/>
      <use x="953.386719" xlink:href="#FranklinGothic-Book-50"/>
      <use x="1012.029297" xlink:href="#FranklinGothic-Book-48"/>
      <use x="1070.671875" xlink:href="#FranklinGothic-Book-50"/>
      <use x="1129.314453" xlink:href="#FranklinGothic-Book-48"/>
      <use x="1187.957031" xlink:href="#FranklinGothic-Book-46"/>
      <use x="1209.082031" xlink:href="#FranklinGothic-Book-49"/>
      <use x="1267.724609" xlink:href="#FranklinGothic-Book-50"/>
      <use x="1326.367188" xlink:href="#FranklinGothic-Book-41"/>
     </g>
    </g>
    <g id="line2d_15"/>
    <g id="text_19">
     <!-- NASA GRACE (2002.04-2023.05) -->
     <g style="fill:#56b4e9;" transform="translate(643.66925 184.3809)scale(0.2 -0.2)">
      <defs>
       <path d="M 57.421875 0 
L 49.3125 0 
L 14.84375 58.109375 
L 14.9375 53.71875 
Q 15.09375 51.21875 15.09375 49.515625 
L 15.09375 0 
L 8.34375 0 
L 8.34375 66.65625 
L 18.796875 66.65625 
L 51.03125 12.3125 
L 50.921875 16.9375 
Q 50.828125 19.671875 50.828125 21.78125 
L 50.828125 66.65625 
L 57.421875 66.65625 
z
" id="FranklinGothic-Book-78"/>
       <path d="M 53.21875 0 
L 44.671875 0 
L 37.9375 19.484375 
L 13.28125 19.484375 
L 7.328125 0 
L 0.34375 0 
L 21.96875 66.65625 
L 31.5 66.65625 
z
M 36.1875 25.734375 
L 25.921875 57.765625 
L 15.578125 25.734375 
z
" id="FranklinGothic-Book-65"/>
       <path d="M 1.03125 17.71875 
L 8.546875 19.4375 
Q 13.09375 5.8125 28.21875 5.8125 
Q 36.140625 5.8125 40.140625 9.15625 
Q 44.140625 12.5 44.140625 18.109375 
Q 44.140625 22.359375 41.078125 24.953125 
Q 38.03125 27.546875 34.03125 28.515625 
L 20.703125 31.84375 
Q 15.53125 33.15625 12.234375 35.03125 
Q 8.9375 36.921875 6.640625 40.828125 
Q 4.34375 44.734375 4.34375 49.75 
Q 4.34375 58.109375 10.640625 63.0625 
Q 16.9375 68.015625 26.8125 68.015625 
Q 44.96875 68.015625 50.6875 51.5625 
L 43.109375 49.3125 
Q 41.796875 55.171875 36.90625 58.171875 
Q 32.03125 61.1875 26.515625 61.1875 
Q 21.046875 61.1875 16.765625 58.296875 
Q 12.5 55.421875 12.5 50.140625 
Q 12.5 42.78125 23.34375 40.1875 
L 35.796875 37.203125 
Q 52.875 33.109375 52.875 18.796875 
Q 52.875 10.15625 46.453125 4.421875 
Q 40.046875 -1.3125 28.375 -1.3125 
Q 7.671875 -1.3125 1.03125 17.71875 
z
" id="FranklinGothic-Book-83"/>
       <path d="M 56.296875 0 
L 47.5625 0 
L 35.25 28.859375 
L 16.15625 28.859375 
L 16.15625 0 
L 8.34375 0 
L 8.34375 66.65625 
L 34.625 66.65625 
Q 45.3125 66.65625 50.453125 60.8125 
Q 55.609375 54.984375 55.609375 48.046875 
Q 55.609375 42.71875 52.734375 37.828125 
Q 49.859375 32.953125 43.21875 30.859375 
z
M 16.15625 35.640625 
L 33.59375 35.640625 
Q 40.484375 35.640625 43.875 39.28125 
Q 47.265625 42.921875 47.265625 48.1875 
Q 47.265625 53.46875 43.671875 56.390625 
Q 40.09375 59.328125 34.625 59.328125 
L 16.15625 59.328125 
z
" id="FranklinGothic-Book-82"/>
      </defs>
      <use xlink:href="#FranklinGothic-Book-78"/>
      <use x="65.722656" xlink:href="#FranklinGothic-Book-65"/>
      <use x="119.287109" xlink:href="#FranklinGothic-Book-83"/>
      <use x="176.220703" xlink:href="#FranklinGothic-Book-65"/>
      <use x="229.785156" xlink:href="#FranklinGothic-Book-32"/>
      <use x="254.785156" xlink:href="#FranklinGothic-Book-71"/>
      <use x="319.482422" xlink:href="#FranklinGothic-Book-82"/>
      <use x="380.761719" xlink:href="#FranklinGothic-Book-65"/>
      <use x="431.826172" xlink:href="#FranklinGothic-Book-67"/>
      <use x="489.736328" xlink:href="#FranklinGothic-Book-69"/>
      <use x="544.521484" xlink:href="#FranklinGothic-Book-32"/>
      <use x="569.521484" xlink:href="#FranklinGothic-Book-40"/>
      <use x="598.867188" xlink:href="#FranklinGothic-Book-50"/>
      <use x="657.509766" xlink:href="#FranklinGothic-Book-48"/>
      <use x="716.152344" xlink:href="#FranklinGothic-Book-48"/>
      <use x="774.794922" xlink:href="#FranklinGothic-Book-50"/>
      <use x="833.4375" xlink:href="#FranklinGothic-Book-46"/>
      <use x="858.4375" xlink:href="#FranklinGothic-Book-48"/>
      <use x="917.080078" xlink:href="#FranklinGothic-Book-52"/>
      <use x="975.722656" xlink:href="#FranklinGothic-Book-45"/>
      <use x="1000.722656" xlink:href="#FranklinGothic-Book-50"/>
      <use x="1059.365234" xlink:href="#FranklinGothic-Book-48"/>
      <use x="1118.007812" xlink:href="#FranklinGothic-Book-50"/>
      <use x="1176.650391" xlink:href="#FranklinGothic-Book-51"/>
      <use x="1235.292969" xlink:href="#FranklinGothic-Book-46"/>
      <use x="1260.292969" xlink:href="#FranklinGothic-Book-48"/>
      <use x="1318.935547" xlink:href="#FranklinGothic-Book-53"/>
      <use x="1377.578125" xlink:href="#FranklinGothic-Book-41"/>
     </g>
    </g>
   </g>
   <g id="line2d_16">
    <path clip-path="url(#pcf66a3a7a7)" d="M 535.511066 188.00361 
L 537.310703 183.477775 
L 542.709615 202.842582 
L 544.509252 204.304953 
L 546.308889 202.182464 
L 548.108527 202.131213 
L 549.908164 201.102086 
L 551.707801 198.002405 
L 553.507438 198.631772 
L 555.307075 194.164021 
L 557.106712 191.05204 
L 558.90635 190.704214 
L 562.505624 202.584958 
L 564.305261 211.926369 
L 566.104898 214.687792 
L 567.904535 214.534037 
L 569.704173 214.747243 
L 571.50381 211.94277 
L 573.303447 213.627914 
L 575.103084 214.080292 
L 576.902721 212.650722 
L 578.702358 208.439911 
L 580.501996 209.568808 
L 582.301633 210.830274 
L 584.10127 217.480648 
L 585.900907 225.973337 
L 587.700544 228.65754 
L 589.500181 230.050893 
L 591.299819 227.1282 
L 593.099456 225.444423 
L 594.899093 226.462616 
L 596.69873 224.985894 
L 598.498367 221.878013 
L 600.298004 221.284181 
L 602.097642 218.85145 
L 603.897279 222.121286 
L 605.696916 230.892099 
L 607.496553 243.834087 
L 609.29619 248.304571 
L 611.095827 247.622586 
L 612.895465 247.556984 
L 614.695102 244.112211 
L 616.494739 245.767288 
L 618.294376 242.456451 
L 620.094013 241.029614 
L 621.89365 242.584921 
L 623.693288 242.063524 
L 625.492925 242.858262 
L 627.292562 248.633263 
L 629.092199 257.376741 
L 630.891836 261.558167 
L 632.691473 260.621293 
L 634.491111 262.480691 
L 636.290748 263.050606 
L 638.090385 260.822881 
L 639.890022 257.94939 
L 641.689659 258.607457 
L 643.489297 257.816136 
L 645.288934 256.871745 
L 647.088571 258.276031 
L 648.888208 267.14183 
L 650.687845 280.555331 
L 652.487482 284.757257 
L 654.28712 286.610506 
L 656.086757 285.069549 
L 657.886394 280.985842 
L 659.686031 278.337173 
L 661.485668 279.62529 
L 663.285305 275.899659 
L 665.084943 277.123541 
L 666.88458 278.169068 
L 668.684217 278.453343 
L 670.483854 288.494505 
L 672.283491 299.424024 
L 674.083128 303.72572 
L 675.882766 302.919366 
L 679.48204 293.079792 
L 681.281677 291.783474 
L 683.081314 294.993175 
L 684.880951 295.021192 
L 688.480226 292.315122 
L 690.279863 292.926721 
L 692.0795 300.376616 
L 693.879137 314.612872 
L 695.678774 318.37267 
L 697.478412 316.663609 
L 699.278049 315.357724 
L 701.077686 313.685564 
L 702.877323 313.980088 
L 704.67696 312.745273 
L 706.476597 311.883567 
L 708.276235 313.487392 
L 710.075872 311.249417 
L 711.875509 318.632343 
L 713.675146 330.598506 
L 715.474783 343.783084 
L 717.27442 350.405441 
L 719.074058 348.029429 
L 720.873695 349.241011 
L 722.673332 348.083414 
L 726.272606 346.676393 
L 728.072243 345.617199 
L 729.871881 345.232472 
L 731.671518 346.636076 
L 735.270792 359.601981 
L 737.070429 372.841911 
L 738.870067 376.686445 
L 740.669704 378.300521 
L 740.669704 378.238336 
L 746.068615 374.149845 
L 746.068615 374.838663 
L 747.868252 373.6879 
L 749.66789 370.50485 
L 751.467527 369.837899 
L 755.066801 371.777933 
L 756.866438 387.512778 
L 758.666075 408.60373 
L 760.465713 415.344306 
L 764.064987 410.958558 
L 765.864624 410.13512 
L 767.664261 409.891847 
L 769.463898 409.339016 
L 773.063173 409.211229 
L 774.86281 406.651395 
L 776.662447 405.436397 
L 778.462084 413.037996 
L 783.860996 417.378643 
L 785.660633 417.442878 
L 789.259907 415.633364 
L 792.859182 412.06422 
L 794.658819 411.218915 
L 796.458456 411.207981 
L 798.258093 413.804716 
L 801.857367 433.181823 
L 803.657005 435.831175 
L 805.456642 434.750114 
L 807.256279 434.402971 
L 810.855553 428.554168 
L 812.65519 429.072148 
L 814.454828 426.003901 
L 816.254465 425.395719 
L 816.254465 425.166113 
L 821.653376 437.756175 
L 823.453014 446.852263 
L 825.252651 449.602752 
L 830.651562 445.896938 
L 832.451199 441.941702 
L 834.250837 443.480609 
L 836.050474 443.508626 
L 839.649748 441.346503 
L 841.449385 441.114847 
L 843.249022 452.955956 
L 845.04866 469.745895 
L 850.447571 461.827905 
L 852.247208 466.23347 
L 854.046845 462.715578 
L 859.445757 461.930408 
L 859.445757 459.569429 
L 861.245394 459.209987 
L 863.045031 461.0031 
L 884.640677 463.984561 
L 886.440314 465.952613 
L 891.839226 478.901435 
L 893.638863 476.55139 
L 895.4385 474.882646 
L 897.238137 475.203822 
L 899.037775 477.619468 
L 900.837412 478.608277 
L 902.637049 477.512865 
L 904.436686 474.48972 
L 906.236323 479.568386 
L 908.03596 492.691462 
L 909.835598 509.466368 
L 911.635235 516.778909 
L 913.434872 516.269812 
L 915.234509 511.505488 
L 917.034146 511.400935 
L 918.833784 515.355488 
L 920.633421 514.786257 
L 922.433058 514.914727 
L 924.232695 512.777888 
L 926.032332 511.055842 
L 927.831969 513.693578 
L 929.631607 522.801283 
L 931.431244 529.399039 
L 933.230881 530.452083 
L 935.030518 525.935132 
L 936.830155 525.103493 
L 938.629792 525.493687 
L 940.42943 523.643172 
L 942.229067 525.436969 
L 944.028704 524.124251 
L 945.828341 521.445514 
L 947.627978 524.651798 
L 949.427615 523.802393 
L 951.227253 526.773604 
L 953.02689 536.963737 
L 954.826527 540.353159 
L 956.626164 543.459673 
L 958.425801 543.034629 
L 960.225438 540.02925 
L 962.025076 538.119967 
L 963.824713 537.395615 
L 965.62435 535.305927 
L 967.423987 536.216151 
L 969.223624 535.68382 
L 971.023261 534.548774 
L 972.822899 541.615308 
L 974.622536 549.479314 
L 976.422173 552.706782 
L 978.22181 551.920928 
L 980.021447 546.592839 
L 981.821084 543.491791 
L 983.620722 550.319153 
L 985.420359 550.485207 
L 987.219996 546.775293 
L 989.019633 547.835171 
L 990.81927 546.430201 
L 990.81927 546.430201 
" style="fill:none;stroke:#56b4e9;stroke-linecap:round;"/>
   </g>
   <g id="line2d_17">
    <path clip-path="url(#pcf66a3a7a7)" d="M 314.155694 162.574786 
L 335.75134 163.200053 
L 355.547349 164.726393 
L 377.142995 171.98814 
L 398.738641 175.073 
L 422.133925 174.555327 
L 441.929933 174.848485 
L 463.52558 178.569448 
L 485.121226 183.651627 
L 506.716872 185.664991 
L 528.312518 190.915677 
L 551.707801 200.774146 
L 562.505624 205.925186 
L 567.904535 208.656923 
L 580.501996 215.624885 
L 600.298004 227.453202 
L 614.695102 236.633253 
L 621.89365 241.423593 
L 647.088571 260.657804 
L 656.086757 267.680762 
L 686.680589 291.044594 
L 695.678774 298.678536 
L 699.278049 301.848097 
L 702.877323 305.224132 
L 710.075872 312.375177 
L 728.072243 330.784631 
L 738.870067 342.29491 
L 746.068615 349.804488 
L 760.465713 364.494988 
L 764.064987 367.872028 
L 765.864624 369.468158 
L 787.46027 383.974167 
L 798.258093 390.050826 
L 809.055916 396.411924 
L 810.855553 397.601181 
L 819.853739 402.777771 
L 830.651562 409.104038 
L 839.649748 413.893674 
L 850.447571 419.767755 
L 852.247208 420.695581 
L 873.842854 426.605934 
L 877.442129 427.985538 
L 884.640677 431.170665 
L 886.440314 432.012369 
L 891.839226 436.259062 
L 895.4385 439.331683 
L 909.835598 459.580951 
L 918.833784 472.239594 
L 938.629792 496.852688 
L 938.629792 496.852688 
" style="fill:none;stroke:#d55e00;stroke-linecap:round;"/>
   </g>
   <g id="line2d_18">
    <path clip-path="url(#pcf66a3a7a7)" d="M 184.581818 113.713218 
L 186.381455 111.362449 
L 188.181093 110.186259 
L 189.98073 107.776654 
L 191.780367 108.079318 
L 193.580004 109.64415 
L 195.379641 115.844594 
L 197.179278 117.695617 
L 198.978916 115.849688 
L 200.778553 114.928322 
L 202.57819 115.310527 
L 204.377827 112.748959 
L 206.177464 107.451557 
L 207.977101 106.356374 
L 209.776739 104.854451 
L 213.376013 100.44 
L 215.17565 105.253214 
L 216.975287 114.03731 
L 218.774924 121.854151 
L 220.574562 120.979028 
L 222.374199 119.882186 
L 224.173836 117.263407 
L 225.973473 116.175945 
L 227.77311 115.767812 
L 229.572747 114.214913 
L 231.372385 113.572578 
L 233.172022 113.804331 
L 234.971659 112.485675 
L 236.771296 112.836899 
L 238.570933 123.833414 
L 240.37057 129.097191 
L 242.170208 128.675273 
L 243.969845 127.03917 
L 245.769482 124.755951 
L 247.569119 123.533432 
L 249.368756 123.584193 
L 251.168393 124.216446 
L 252.968031 124.271894 
L 254.767668 125.004014 
L 256.567305 124.944009 
L 258.366942 128.472074 
L 260.166579 138.246974 
L 261.966216 142.859267 
L 263.765854 141.059952 
L 265.565491 139.833716 
L 267.365128 137.140203 
L 269.164765 134.844173 
L 270.964402 134.521631 
L 274.563677 135.348551 
L 276.363314 135.016308 
L 278.162951 133.633919 
L 279.962588 139.023228 
L 281.762225 149.636449 
L 283.561863 154.432136 
L 287.161137 150.490923 
L 290.760411 144.246814 
L 292.560048 142.129953 
L 294.359686 139.597764 
L 296.159323 138.997601 
L 297.95896 139.729813 
L 299.758597 137.663322 
L 301.558234 142.513707 
L 303.357871 154.14432 
L 305.157509 156.954263 
L 306.957146 156.331545 
L 308.756783 152.85227 
L 310.55642 152.394082 
L 314.155694 146.450223 
L 315.955332 145.273329 
L 317.754969 144.87515 
L 319.554606 144.846404 
L 321.354243 144.054492 
L 323.15388 142.900783 
L 324.953517 148.022282 
L 326.753155 150.363654 
L 328.552792 148.908386 
L 330.352429 145.41179 
L 332.152066 144.14303 
L 333.951703 143.535594 
L 335.75134 143.586984 
L 337.550978 140.690417 
L 339.350615 139.393458 
L 341.150252 138.437833 
L 342.949889 138.962743 
L 344.749526 143.249224 
L 346.549163 154.974178 
L 348.348801 158.095745 
L 350.148438 157.125806 
L 351.948075 154.213107 
L 353.747712 150.164248 
L 355.547349 149.73689 
L 357.346986 149.73137 
L 359.146624 147.226934 
L 360.946261 147.47655 
L 362.745898 146.498734 
L 364.545535 146.364184 
L 366.345172 147.972065 
L 368.14481 157.215965 
L 369.944447 160.477933 
L 371.744084 159.068538 
L 373.543721 159.132082 
L 375.343358 158.137117 
L 377.142995 157.514756 
L 378.942633 158.278406 
L 380.74227 158.804412 
L 382.541907 158.790627 
L 384.341544 159.195867 
L 386.141181 159.991143 
L 387.940818 164.430871 
L 389.740456 176.112763 
L 391.540093 180.524976 
L 393.33973 178.679581 
L 395.139367 178.579475 
L 396.939004 174.591095 
L 398.738641 171.995886 
L 402.337916 165.525275 
L 404.137553 161.617203 
L 405.93719 160.778088 
L 407.736827 161.010868 
L 409.536464 163.598435 
L 411.336102 170.398199 
L 413.135739 171.6567 
L 414.935376 168.803838 
L 416.735013 167.871491 
L 418.53465 165.747285 
L 422.133925 160.104803 
L 423.933562 159.682454 
L 425.733199 160.010843 
L 427.532836 158.077114 
L 429.332473 158.61768 
L 431.13211 163.412549 
L 432.931748 170.545897 
L 434.731385 172.563123 
L 438.330659 166.950006 
L 440.130296 165.526776 
L 441.929933 162.441826 
L 443.729571 161.230338 
L 445.529208 160.710312 
L 447.328845 159.082117 
L 449.128482 158.009671 
L 450.928119 156.482208 
L 452.727757 163.71287 
L 454.527394 176.787863 
L 456.327031 180.976421 
L 458.126668 182.63077 
L 459.926305 181.902282 
L 461.725942 179.725093 
L 463.52558 178.963795 
L 465.325217 178.038423 
L 467.124854 176.022942 
L 468.924491 176.174853 
L 470.724128 175.693335 
L 472.523765 173.456083 
L 474.323403 173.89049 
L 476.12304 185.495425 
L 477.922677 189.329382 
L 479.722314 187.897593 
L 481.521951 186.007224 
L 483.321588 182.814758 
L 485.121226 182.17614 
L 486.920863 179.368258 
L 488.7205 179.132737 
L 490.520137 178.57003 
L 492.319774 176.628447 
L 494.119411 175.702688 
L 495.919049 180.768231 
L 497.718686 187.795466 
L 499.518323 192.304212 
L 501.31796 189.714449 
L 503.117597 189.062037 
L 504.917234 187.122212 
L 506.716872 187.447284 
L 508.516509 184.999242 
L 510.316146 183.444259 
L 512.115783 183.927177 
L 513.91542 183.713605 
L 515.715057 182.281344 
L 517.514695 185.328713 
L 519.314332 194.076398 
L 521.113969 200.934196 
L 522.913606 199.064011 
L 524.713243 197.783619 
L 528.312518 189.231533 
L 530.112155 187.475455 
L 531.911792 188.022869 
L 535.511066 188.26958 
L 537.310703 188.626845 
L 539.110341 194.47661 
L 540.909978 205.875618 
L 542.709615 209.441529 
L 544.509252 207.676305 
L 548.108527 202.431379 
L 549.908164 198.97044 
L 551.707801 196.864502 
L 555.307075 193.191574 
L 557.106712 189.915903 
L 558.90635 189.641967 
L 560.705987 197.742073 
L 562.505624 211.33829 
L 564.305261 216.833339 
L 566.104898 215.334878 
L 567.904535 212.45764 
L 569.704173 211.253072 
L 571.50381 210.397663 
L 573.303447 210.950024 
L 575.103084 208.93557 
L 576.902721 205.642871 
L 578.702358 204.527115 
L 580.501996 205.296127 
L 582.301633 210.447424 
L 584.10127 219.814303 
L 585.900907 225.305089 
L 587.700544 224.472141 
L 589.500181 222.753913 
L 591.299819 221.573769 
L 593.099456 221.728328 
L 594.899093 219.03011 
L 596.69873 215.92565 
L 598.498367 213.503612 
L 600.298004 212.08028 
L 602.097642 212.243742 
L 603.897279 217.849477 
L 605.696916 230.892099 
L 607.496553 237.704125 
L 609.29619 238.270288 
L 611.095827 238.194861 
L 612.895465 235.299722 
L 614.695102 233.238175 
L 616.494739 231.652271 
L 618.294376 231.164054 
L 620.094013 232.423698 
L 621.89365 231.166145 
L 623.693288 231.660912 
L 625.492925 233.30613 
L 627.292562 243.616957 
L 629.092199 250.641404 
L 630.891836 250.88119 
L 632.691473 251.427395 
L 634.491111 251.624422 
L 638.090385 247.782246 
L 639.890022 247.171732 
L 641.689659 246.375136 
L 643.489297 245.271503 
L 645.288934 245.918059 
L 647.088571 251.29734 
L 648.888208 266.869805 
L 650.687845 274.826103 
L 652.487482 272.74084 
L 654.28712 271.779244 
L 656.086757 268.774588 
L 657.886394 267.209388 
L 659.686031 266.690545 
L 661.485668 265.240566 
L 663.285305 265.053963 
L 665.084943 264.678294 
L 666.88458 264.621394 
L 668.684217 272.013896 
L 670.483854 286.099296 
L 672.283491 291.915325 
L 675.882766 286.68854 
L 677.682403 283.605228 
L 679.48204 280.960148 
L 681.281677 280.28283 
L 683.081314 280.248224 
L 684.880951 280.647874 
L 686.680589 279.566218 
L 688.480226 279.325006 
L 690.279863 282.184465 
L 692.0795 295.140611 
L 693.879137 302.477958 
L 695.678774 300.687632 
L 697.478412 299.776082 
L 699.278049 299.740218 
L 701.077686 297.563907 
L 702.877323 294.318848 
L 704.67696 293.813449 
L 706.476597 294.200869 
L 708.276235 294.929866 
L 710.075872 295.865488 
L 711.875509 303.28903 
L 713.675146 319.485991 
L 715.474783 327.698462 
L 717.27442 326.751608 
L 720.873695 325.576875 
L 722.673332 323.310625 
L 724.472969 322.618314 
L 726.272606 320.35119 
L 728.072243 320.554444 
L 729.871881 319.063545 
L 731.671518 319.688604 
L 733.471155 326.382918 
L 735.270792 342.214691 
L 737.070429 349.875272 
L 738.870067 348.930686 
L 740.669704 348.38271 
L 742.469341 346.188635 
L 744.268978 346.288284 
L 747.868252 343.356605 
L 749.66789 340.954026 
L 751.467527 339.789086 
L 753.267164 340.294129 
L 755.066801 350.907797 
L 756.866438 371.683432 
L 758.666075 381.549552 
L 760.465713 380.68733 
L 762.26535 377.498702 
L 764.064987 376.216898 
L 765.864624 375.627161 
L 767.664261 372.761109 
L 769.463898 371.274397 
L 771.263536 371.695319 
L 773.063173 371.976887 
L 774.86281 370.773815 
L 776.662447 374.793002 
L 778.462084 386.089378 
L 780.261721 389.289832 
L 782.061359 385.846339 
L 783.860996 384.75181 
L 785.660633 383.157183 
L 787.46027 383.001534 
L 789.259907 381.353098 
L 791.059544 381.065351 
L 792.859182 380.51686 
L 794.658819 378.87278 
L 796.458456 379.007003 
L 798.258093 383.657002 
L 800.05773 397.344672 
L 801.857367 403.640296 
L 803.657005 400.853595 
L 805.456642 400.583766 
L 807.256279 397.471878 
L 809.055916 395.619836 
L 810.855553 394.667271 
L 814.454828 393.349789 
L 816.254465 392.876412 
L 818.054102 392.060143 
L 819.853739 397.108343 
L 821.653376 413.745618 
L 823.453014 418.468062 
L 825.252651 415.441948 
L 827.052288 411.980507 
L 828.851925 411.052324 
L 830.651562 410.299417 
L 832.451199 408.945998 
L 834.250837 409.012889 
L 836.050474 407.761555 
L 837.850111 406.045492 
L 839.649748 405.96606 
L 841.449385 412.263137 
L 843.249022 430.657618 
L 845.04866 437.879296 
L 846.848297 437.83022 
L 848.647934 432.420769 
L 850.447571 429.288295 
L 852.247208 427.88946 
L 854.046845 426.160988 
L 855.846483 423.6976 
L 857.64612 424.105976 
L 859.445757 423.224677 
L 861.245394 422.575394 
L 863.045031 427.901603 
L 864.844668 438.515545 
L 866.644306 442.067463 
L 870.24358 436.075783 
L 872.043217 434.980317 
L 873.842854 435.010076 
L 875.642491 434.506189 
L 877.442129 430.719479 
L 879.241766 430.844984 
L 881.041403 430.682731 
L 882.84104 429.44216 
L 884.640677 431.222424 
L 886.440314 438.05125 
L 888.239952 443.770282 
L 890.039589 442.757143 
L 891.839226 441.964032 
L 893.638863 440.73507 
L 895.4385 440.34271 
L 897.238137 439.107269 
L 899.037775 438.974586 
L 900.837412 439.112266 
L 902.637049 435.235013 
L 904.436686 437.81311 
L 906.236323 445.472113 
L 908.03596 463.431483 
L 909.835598 473.400188 
L 911.635235 472.78636 
L 913.434872 471.909333 
L 915.234509 469.380447 
L 917.034146 469.637564 
L 918.833784 468.838392 
L 920.633421 469.0122 
L 922.433058 468.636813 
L 924.232695 467.182094 
L 926.032332 468.240972 
L 927.831969 471.019405 
L 929.631607 484.199177 
L 931.431244 488.216761 
L 933.230881 487.837457 
L 935.030518 485.343039 
L 936.830155 483.627862 
L 938.629792 482.671046 
L 940.42943 482.529281 
L 942.229067 481.163443 
L 944.028704 480.284453 
L 945.828341 479.225022 
L 947.627978 479.461888 
L 949.427615 483.664622 
L 951.227253 492.90642 
L 953.02689 501.164608 
L 954.826527 500.456827 
L 956.626164 500.232657 
L 958.425801 498.053449 
L 960.225438 497.251808 
L 962.025076 495.020331 
L 963.824713 494.466515 
L 965.62435 492.810562 
L 967.423987 492.210883 
L 969.223624 492.538009 
L 971.023261 493.888706 
L 972.822899 504.97605 
L 974.622536 508.483371 
L 976.422173 507.369826 
L 978.22181 504.338607 
L 980.021447 501.850502 
L 981.821084 501.936235 
L 983.620722 501.852006 
L 985.420359 499.497564 
L 987.219996 500.985071 
L 989.019633 500.630113 
L 990.81927 499.800587 
L 992.618907 499.572033 
L 994.418545 515.033086 
L 996.218182 516.989067 
L 996.218182 516.989067 
" style="fill:none;stroke:#009e73;stroke-linecap:round;"/>
   </g>
  </g>
  <g id="text_20">
   <g id="patch_4">
    <path d="M 875.829375 646.18275 
L 1040.76 646.18275 
L 1040.76 628.26525 
L 875.829375 628.26525 
z
" style="fill:#ffffff;stroke:#ffffff;stroke-linejoin:miter;"/>
   </g>
   <!-- Created: 2023-08-01 17:12:52 -->
   <g style="fill:#696969;" transform="translate(879.789375 640.224)scale(0.12 -0.12)">
    <defs>
     <path d="M 17.96875 49.3125 
L 17.96875 38.375 
L 7.078125 38.375 
L 7.078125 49.3125 
z
M 17.96875 10.984375 
L 17.96875 0 
L 7.078125 0 
L 7.078125 10.984375 
z
" id="FranklinGothic-Book-58"/>
     <path d="M 28.078125 0 
L 19.484375 0 
Q 19.484375 16.75 26.3125 32.59375 
Q 33.15625 48.4375 43.0625 59.328125 
L 6.890625 59.328125 
L 7.71875 66.65625 
L 51.765625 66.65625 
L 51.765625 61.671875 
Q 39.84375 47.3125 33.9375 31.78125 
Q 28.03125 16.265625 28.03125 2.296875 
Q 28.03125 1.515625 28.078125 0 
z
" id="FranklinGothic-Book-55"/>
    </defs>
    <use xlink:href="#FranklinGothic-Book-67"/>
    <use x="57.910156" xlink:href="#FranklinGothic-Book-114"/>
    <use x="90.869141" xlink:href="#FranklinGothic-Book-101"/>
    <use x="142.919922" xlink:href="#FranklinGothic-Book-97"/>
    <use x="195.800781" xlink:href="#FranklinGothic-Book-116"/>
    <use x="224.8125" xlink:href="#FranklinGothic-Book-101"/>
    <use x="276.863281" xlink:href="#FranklinGothic-Book-100"/>
    <use x="330.720703" xlink:href="#FranklinGothic-Book-58"/>
    <use x="355.720703" xlink:href="#FranklinGothic-Book-32"/>
    <use x="380.720703" xlink:href="#FranklinGothic-Book-50"/>
    <use x="439.363281" xlink:href="#FranklinGothic-Book-48"/>
    <use x="498.005859" xlink:href="#FranklinGothic-Book-50"/>
    <use x="556.648438" xlink:href="#FranklinGothic-Book-51"/>
    <use x="615.291016" xlink:href="#FranklinGothic-Book-45"/>
    <use x="640.291016" xlink:href="#FranklinGothic-Book-48"/>
    <use x="698.933594" xlink:href="#FranklinGothic-Book-56"/>
    <use x="757.576172" xlink:href="#FranklinGothic-Book-45"/>
    <use x="782.576172" xlink:href="#FranklinGothic-Book-48"/>
    <use x="837.46875" xlink:href="#FranklinGothic-Book-49"/>
    <use x="896.111328" xlink:href="#FranklinGothic-Book-32"/>
    <use x="921.111328" xlink:href="#FranklinGothic-Book-49"/>
    <use x="972.878906" xlink:href="#FranklinGothic-Book-55"/>
    <use x="1023.896484" xlink:href="#FranklinGothic-Book-58"/>
    <use x="1048.896484" xlink:href="#FranklinGothic-Book-49"/>
    <use x="1107.539062" xlink:href="#FranklinGothic-Book-50"/>
    <use x="1166.181641" xlink:href="#FranklinGothic-Book-58"/>
    <use x="1191.181641" xlink:href="#FranklinGothic-Book-53"/>
    <use x="1249.824219" xlink:href="#FranklinGothic-Book-50"/>
   </g>
  </g>
 </g>
 <defs>
  <clipPath id="pcf66a3a7a7">
   <rect height="498.96" width="892.8" x="144" y="77.76"/>
  </clipPath>
 </defs>
</svg>
