<?xml version="1.0" encoding="utf-8" standalone="no"?>
<!DOCTYPE svg PUBLIC "-//W3C//DTD SVG 1.1//EN"
  "http://www.w3.org/Graphics/SVG/1.1/DTD/svg11.dtd">
<!-- Created with matplotlib (https://matplotlib.org/) -->
<svg height="648pt" version="1.1" viewBox="0 0 1152 648" width="1152pt" xmlns="http://www.w3.org/2000/svg" xmlns:xlink="http://www.w3.org/1999/xlink">
 <metadata>
  <rdf:RDF xmlns:cc="http://creativecommons.org/ns#" xmlns:dc="http://purl.org/dc/elements/1.1/" xmlns:rdf="http://www.w3.org/1999/02/22-rdf-syntax-ns#">
   <cc:Work>
    <dc:type rdf:resource="http://purl.org/dc/dcmitype/StillImage"/>
    <dc:date>2024-02-08T12:02:28.232261</dc:date>
    <dc:format>image/svg+xml</dc:format>
    <dc:creator>
     <cc:Agent>
      <dc:title>Matplotlib v3.3.1, https://matplotlib.org/</dc:title>
     </cc:Agent>
    </dc:creator>
   </cc:Work>
  </rdf:RDF>
 </metadata>
 <defs>
  <style type="text/css">*{stroke-linecap:butt;stroke-linejoin:round;}</style>
 </defs>
 <g id="figure_1">
  <g id="patch_1">
   <path d="M 0 648 
L 1152 648 
L 1152 0 
L 0 0 
z
" style="fill:#ffffff;"/>
  </g>
  <g id="axes_1">
   <g id="patch_2">
    <path d="M 144 576.72 
L 1036.8 576.72 
L 1036.8 77.76 
L 144 77.76 
z
" style="fill:none;"/>
   </g>
   <g id="patch_3">
    <path d="M 144 576.72 
L 1036.8 576.72 
" style="fill:none;stroke:#d3d3d3;stroke-linecap:square;stroke-linejoin:miter;stroke-width:1.25;"/>
   </g>
   <g id="matplotlib.axis_1">
    <g id="xtick_1">
     <g id="line2d_1">
      <defs>
       <path d="M 0 0 
L 0 6 
" id="md2b4719388" style="stroke:#696969;stroke-width:1.25;"/>
      </defs>
      <g>
       <use style="fill:#696969;stroke:#696969;stroke-width:1.25;" x="152.564605" xlink:href="#md2b4719388" y="576.72"/>
      </g>
     </g>
     <g id="text_1">
      <!-- 1980 -->
      <g style="fill:#696969;" transform="translate(125.748042 601.550938)scale(0.23 -0.23)">
       <defs>
        <path d="M 55.859375 6.203125 
L 55.859375 0 
L 9.1875 0 
L 9.1875 6.203125 
L 29.203125 6.203125 
L 29.203125 57.671875 
Q 20.359375 48.4375 10.84375 43.265625 
L 10.84375 51.65625 
Q 23.96875 58.546875 31.203125 68.015625 
L 37.15625 68.015625 
L 37.15625 6.203125 
z
" id="FranklinGothic-Book-49"/>
        <path d="M 5.71875 12.15625 
L 12.40625 14.59375 
Q 16.546875 5.375 26.375 5.375 
Q 35.890625 5.375 40.703125 13.375 
Q 45.515625 21.390625 45.65625 35.109375 
Q 39.109375 23.09375 25.984375 23.09375 
Q 16.703125 23.09375 10.40625 29.421875 
Q 4.109375 35.75 4.109375 45.0625 
Q 4.109375 54.546875 10.71875 61.28125 
Q 17.328125 68.015625 27.59375 68.015625 
Q 40.140625 68.015625 46.828125 59.203125 
Q 53.515625 50.390625 53.515625 34.96875 
Q 53.515625 18.75 46.4375 8.71875 
Q 39.359375 -1.3125 26.265625 -1.3125 
Q 10.984375 -1.3125 5.71875 12.15625 
z
M 27.828125 29.78125 
Q 34.71875 29.78125 39.375 34.59375 
Q 44.046875 39.40625 44.046875 45.84375 
Q 44.046875 52.09375 39.625 56.578125 
Q 35.203125 61.078125 27.984375 61.078125 
Q 20.65625 61.078125 16.40625 56.46875 
Q 12.15625 51.859375 12.15625 45.21875 
Q 12.15625 38.09375 16.859375 33.9375 
Q 21.578125 29.78125 27.828125 29.78125 
z
" id="FranklinGothic-Book-57"/>
        <path d="M 19.484375 34.578125 
Q 6.84375 40.09375 6.84375 50.59375 
Q 6.84375 58.203125 13.140625 63.109375 
Q 19.4375 68.015625 29.828125 68.015625 
Q 40.09375 68.015625 46.140625 63.296875 
Q 52.203125 58.59375 52.203125 50.984375 
Q 52.203125 40.375 39.265625 35.796875 
Q 49.703125 30.953125 52.359375 26.453125 
Q 55.03125 21.96875 55.03125 17.484375 
Q 55.03125 9.46875 48.21875 4.078125 
Q 41.40625 -1.3125 29.734375 -1.3125 
Q 17.28125 -1.3125 10.4375 4.171875 
Q 3.609375 9.671875 3.609375 17.234375 
Q 3.609375 28.515625 19.484375 34.578125 
z
M 29.59375 38.71875 
Q 37.984375 40.96875 41.453125 43.890625 
Q 44.921875 46.828125 44.921875 51.21875 
Q 44.921875 56.34375 40.796875 59 
Q 36.671875 61.671875 29.9375 61.671875 
Q 23.484375 61.671875 19.375 58.859375 
Q 15.28125 56.0625 15.28125 51.3125 
Q 15.28125 46.625 19.84375 43.203125 
Q 24.421875 39.796875 29.59375 38.71875 
z
M 28.65625 31.0625 
Q 11.765625 27.046875 11.765625 16.9375 
Q 11.765625 11.671875 16.375 8.328125 
Q 21 4.984375 29.984375 4.984375 
Q 37.59375 4.984375 42.234375 8.25 
Q 46.875 11.53125 46.875 16.609375 
Q 46.875 26.3125 28.65625 31.0625 
z
" id="FranklinGothic-Book-56"/>
        <path d="M 29.390625 -1.3125 
Q 17.875 -1.3125 10.984375 8.671875 
Q 4.109375 18.65625 4.109375 33.453125 
Q 4.109375 48 10.640625 58 
Q 17.1875 68.015625 29.15625 68.015625 
Q 41.65625 68.015625 48.125 57.5625 
Q 54.59375 47.125 54.59375 33.0625 
Q 54.59375 19.28125 47.953125 8.984375 
Q 41.3125 -1.3125 29.390625 -1.3125 
z
M 29.4375 5.21875 
Q 37.890625 5.21875 41.9375 12.859375 
Q 46 20.515625 46 32.078125 
Q 46 44.734375 41.84375 53.125 
Q 37.703125 61.53125 29.046875 61.53125 
Q 20.703125 61.53125 16.625 53.859375 
Q 12.546875 46.1875 12.546875 33.6875 
Q 12.546875 20.703125 16.84375 12.953125 
Q 21.140625 5.21875 29.4375 5.21875 
z
" id="FranklinGothic-Book-48"/>
       </defs>
       <use xlink:href="#FranklinGothic-Book-49"/>
       <use x="57.267578" xlink:href="#FranklinGothic-Book-57"/>
       <use x="115.910156" xlink:href="#FranklinGothic-Book-56"/>
       <use x="174.552734" xlink:href="#FranklinGothic-Book-48"/>
      </g>
     </g>
    </g>
    <g id="xtick_2">
     <g id="line2d_2">
      <g>
       <use style="fill:#696969;stroke:#696969;stroke-width:1.25;" x="536.771167" xlink:href="#md2b4719388" y="576.72"/>
      </g>
     </g>
     <g id="text_2">
      <!-- 2000 -->
      <g style="fill:#696969;" transform="translate(509.79648 601.550938)scale(0.23 -0.23)">
       <defs>
        <path d="M 52.484375 6.9375 
L 52.484375 0 
L 5.171875 0 
L 5.171875 6.9375 
Q 33.203125 27.9375 38.59375 34.59375 
Q 44 41.265625 44 47.796875 
Q 44 53.90625 39.453125 57.65625 
Q 34.90625 61.421875 29 61.421875 
Q 22.90625 61.421875 18.21875 57.296875 
Q 13.53125 53.171875 12.9375 46.09375 
L 5.171875 48.4375 
Q 10.0625 68.015625 29.109375 68.015625 
Q 39.40625 68.015625 45.84375 62.15625 
Q 52.296875 56.296875 52.296875 47.859375 
Q 52.296875 42.046875 49.234375 36.671875 
Q 46.1875 31.296875 37.6875 23.828125 
Q 29.203125 16.359375 15.71875 6.9375 
z
" id="FranklinGothic-Book-50"/>
       </defs>
       <use xlink:href="#FranklinGothic-Book-50"/>
       <use x="58.642578" xlink:href="#FranklinGothic-Book-48"/>
       <use x="117.285156" xlink:href="#FranklinGothic-Book-48"/>
       <use x="175.927734" xlink:href="#FranklinGothic-Book-48"/>
      </g>
     </g>
    </g>
    <g id="xtick_3">
     <g id="line2d_3">
      <g>
       <use style="fill:#696969;stroke:#696969;stroke-width:1.25;" x="920.97773" xlink:href="#md2b4719388" y="576.72"/>
      </g>
     </g>
     <g id="text_3">
      <!-- 2020 -->
      <g style="fill:#696969;" transform="translate(894.003042 601.550938)scale(0.23 -0.23)">
       <use xlink:href="#FranklinGothic-Book-50"/>
       <use x="58.642578" xlink:href="#FranklinGothic-Book-48"/>
       <use x="117.285156" xlink:href="#FranklinGothic-Book-50"/>
       <use x="175.927734" xlink:href="#FranklinGothic-Book-48"/>
      </g>
     </g>
    </g>
    <g id="text_4">
     <!-- Year -->
     <g style="fill:#696969;" transform="translate(569.365781 624.712813)scale(0.23 -0.23)">
      <defs>
       <path d="M 52 66.65625 
L 29.6875 28.03125 
L 29.6875 0 
L 21.34375 0 
L 21.34375 28.03125 
L -0.984375 66.65625 
L 8.84375 66.65625 
L 26.5625 35.984375 
L 44.390625 66.65625 
z
" id="FranklinGothic-Book-89"/>
       <path d="M 40.234375 14.703125 
L 47.359375 13.234375 
Q 45.40625 6.9375 39.734375 2.8125 
Q 34.078125 -1.3125 26.421875 -1.3125 
Q 16.3125 -1.3125 10.0625 5.78125 
Q 3.8125 12.890625 3.8125 24.421875 
Q 3.8125 36.1875 10.296875 43.4375 
Q 16.796875 50.6875 26.609375 50.6875 
Q 36.28125 50.6875 42.15625 44 
Q 48.046875 37.3125 48.1875 23.96875 
L 12.359375 23.96875 
Q 12.359375 12.796875 17.046875 8.890625 
Q 21.734375 4.984375 26.953125 4.984375 
Q 36.375 4.984375 40.234375 14.703125 
z
M 39.796875 29.6875 
Q 39.703125 33.84375 38.421875 37.0625 
Q 37.15625 40.28125 34.125 42.546875 
Q 31.109375 44.828125 26.859375 44.828125 
Q 21.140625 44.828125 17.15625 40.71875 
Q 13.1875 36.625 12.703125 29.6875 
z
" id="FranklinGothic-Book-101"/>
       <path d="M 46.296875 0 
L 38.671875 0 
Q 38.234375 2.34375 37.796875 8.890625 
Q 32.71875 -1.3125 20.515625 -1.3125 
Q 12.203125 -1.3125 7.765625 3.078125 
Q 3.328125 7.46875 3.328125 13.625 
Q 3.328125 21.09375 9.671875 25.90625 
Q 16.015625 30.71875 31.25 30.71875 
Q 33.296875 30.71875 37.796875 30.515625 
Q 37.796875 36.375 36.890625 38.984375 
Q 35.984375 41.609375 33.046875 43.171875 
Q 30.125 44.734375 25.34375 44.734375 
Q 13.671875 44.734375 11.765625 35.84375 
L 4.6875 37.0625 
Q 7.28125 50.6875 26.46875 50.6875 
Q 36.671875 50.6875 40.9375 46.171875 
Q 45.21875 41.65625 45.21875 30.515625 
L 45.21875 9.578125 
Q 45.21875 4.34375 46.296875 0 
z
M 37.796875 24.65625 
Q 33.109375 24.953125 30.671875 24.953125 
Q 21.578125 24.953125 16.546875 21.96875 
Q 11.53125 19 11.53125 13.28125 
Q 11.53125 9.671875 14.234375 7.125 
Q 16.9375 4.59375 22.078125 4.59375 
Q 29 4.59375 33.46875 9.625 
Q 37.9375 14.65625 37.9375 21.4375 
Q 37.9375 22.796875 37.796875 24.65625 
z
" id="FranklinGothic-Book-97"/>
       <path d="M 15.328125 0 
L 7.671875 0 
L 7.671875 49.3125 
L 14.40625 49.3125 
L 14.40625 37.796875 
Q 17.96875 45.953125 21.546875 48.359375 
Q 25.140625 50.78125 28.90625 50.78125 
Q 30.078125 50.78125 31.9375 50.59375 
L 31.9375 43.265625 
L 30.375 43.265625 
Q 24.03125 43.265625 19.828125 38.53125 
Q 15.625 33.796875 15.328125 26.078125 
z
" id="FranklinGothic-Book-114"/>
      </defs>
      <use xlink:href="#FranklinGothic-Book-89"/>
      <use x="45.025391" xlink:href="#FranklinGothic-Book-101"/>
      <use x="97.076172" xlink:href="#FranklinGothic-Book-97"/>
      <use x="149.957031" xlink:href="#FranklinGothic-Book-114"/>
     </g>
    </g>
   </g>
   <g id="matplotlib.axis_2">
    <g id="ytick_1">
     <g id="line2d_4">
      <path clip-path="url(#p9b3742c2d8)" d="M 144 523.973657 
L 1036.8 523.973657 
" style="fill:none;stroke:#d3d3d3;stroke-linecap:round;stroke-opacity:0.5;"/>
     </g>
     <g id="text_5">
      <!-- −1.0 -->
      <g style="fill:#696969;" transform="translate(88.431719 531.639126)scale(0.23 -0.23)">
       <defs>
        <path d="M 6 36.765625 
L 52.6875 36.765625 
L 52.6875 30.03125 
L 6 30.03125 
z
" id="FranklinGothic-Book-8722"/>
        <path d="M 17.96875 10.9375 
L 17.96875 0 
L 7.078125 0 
L 7.078125 10.9375 
z
" id="FranklinGothic-Book-46"/>
       </defs>
       <use xlink:href="#FranklinGothic-Book-8722"/>
       <use x="58.642578" xlink:href="#FranklinGothic-Book-49"/>
       <use x="116.660156" xlink:href="#FranklinGothic-Book-46"/>
       <use x="141.660156" xlink:href="#FranklinGothic-Book-48"/>
      </g>
     </g>
    </g>
    <g id="ytick_2">
     <g id="line2d_5">
      <path clip-path="url(#p9b3742c2d8)" d="M 144 449.739562 
L 1036.8 449.739562 
" style="fill:none;stroke:#d3d3d3;stroke-linecap:round;stroke-opacity:0.5;"/>
     </g>
     <g id="text_6">
      <!-- −0.5 -->
      <g style="fill:#696969;" transform="translate(88.287969 457.405031)scale(0.23 -0.23)">
       <defs>
        <path d="M 48.875 66.65625 
L 48.1875 59.46875 
L 15.4375 59.46875 
L 14.015625 37.84375 
Q 21.4375 45.125 30.328125 45.125 
Q 39.703125 45.125 46.515625 38.625 
Q 53.328125 32.125 53.328125 22.015625 
Q 53.328125 11.765625 45.921875 5.21875 
Q 38.53125 -1.3125 27.828125 -1.3125 
Q 19.4375 -1.3125 12.890625 3.078125 
Q 6.34375 7.46875 4.296875 14.453125 
L 11.421875 16.890625 
Q 15.828125 5.28125 27.9375 5.28125 
Q 35.890625 5.28125 40.578125 9.984375 
Q 45.265625 14.703125 45.265625 22.015625 
Q 45.265625 29.6875 40.625 33.984375 
Q 35.984375 38.28125 29.5 38.28125 
Q 20.015625 38.28125 13.8125 29.203125 
L 7.234375 30.609375 
L 9.375 66.65625 
z
" id="FranklinGothic-Book-53"/>
       </defs>
       <use xlink:href="#FranklinGothic-Book-8722"/>
       <use x="58.642578" xlink:href="#FranklinGothic-Book-48"/>
       <use x="117.285156" xlink:href="#FranklinGothic-Book-46"/>
       <use x="142.285156" xlink:href="#FranklinGothic-Book-53"/>
      </g>
     </g>
    </g>
    <g id="ytick_3">
     <g id="line2d_6">
      <path clip-path="url(#p9b3742c2d8)" d="M 144 375.505467 
L 1036.8 375.505467 
" style="fill:none;stroke:#d3d3d3;stroke-linecap:round;stroke-opacity:0.5;"/>
     </g>
     <g id="text_7">
      <!-- 0.0 -->
      <g style="fill:#696969;" transform="translate(101.775312 383.170936)scale(0.23 -0.23)">
       <use xlink:href="#FranklinGothic-Book-48"/>
       <use x="58.642578" xlink:href="#FranklinGothic-Book-46"/>
       <use x="83.642578" xlink:href="#FranklinGothic-Book-48"/>
      </g>
     </g>
    </g>
    <g id="ytick_4">
     <g id="line2d_7">
      <path clip-path="url(#p9b3742c2d8)" d="M 144 301.271372 
L 1036.8 301.271372 
" style="fill:none;stroke:#d3d3d3;stroke-linecap:round;stroke-opacity:0.5;"/>
     </g>
     <g id="text_8">
      <!-- 0.5 -->
      <g style="fill:#696969;" transform="translate(101.775312 308.936841)scale(0.23 -0.23)">
       <use xlink:href="#FranklinGothic-Book-48"/>
       <use x="58.642578" xlink:href="#FranklinGothic-Book-46"/>
       <use x="83.642578" xlink:href="#FranklinGothic-Book-53"/>
      </g>
     </g>
    </g>
    <g id="ytick_5">
     <g id="line2d_8">
      <path clip-path="url(#p9b3742c2d8)" d="M 144 227.037278 
L 1036.8 227.037278 
" style="fill:none;stroke:#d3d3d3;stroke-linecap:round;stroke-opacity:0.5;"/>
     </g>
     <g id="text_9">
      <!-- 1.0 -->
      <g style="fill:#696969;" transform="translate(101.919062 234.702746)scale(0.23 -0.23)">
       <use xlink:href="#FranklinGothic-Book-49"/>
       <use x="58.017578" xlink:href="#FranklinGothic-Book-46"/>
       <use x="83.017578" xlink:href="#FranklinGothic-Book-48"/>
      </g>
     </g>
    </g>
    <g id="ytick_6">
     <g id="line2d_9">
      <path clip-path="url(#p9b3742c2d8)" d="M 144 152.803183 
L 1036.8 152.803183 
" style="fill:none;stroke:#d3d3d3;stroke-linecap:round;stroke-opacity:0.5;"/>
     </g>
     <g id="text_10">
      <!-- 1.5 -->
      <g style="fill:#696969;" transform="translate(101.919062 160.468651)scale(0.23 -0.23)">
       <use xlink:href="#FranklinGothic-Book-49"/>
       <use x="58.017578" xlink:href="#FranklinGothic-Book-46"/>
       <use x="83.017578" xlink:href="#FranklinGothic-Book-53"/>
      </g>
     </g>
    </g>
    <g id="ytick_7">
     <g id="line2d_10">
      <path clip-path="url(#p9b3742c2d8)" d="M 144 78.569088 
L 1036.8 78.569088 
" style="fill:none;stroke:#d3d3d3;stroke-linecap:round;stroke-opacity:0.5;"/>
     </g>
     <g id="text_11">
      <!-- 2.0 -->
      <g style="fill:#696969;" transform="translate(101.775312 86.234557)scale(0.23 -0.23)">
       <use xlink:href="#FranklinGothic-Book-50"/>
       <use x="58.642578" xlink:href="#FranklinGothic-Book-46"/>
       <use x="83.642578" xlink:href="#FranklinGothic-Book-48"/>
      </g>
     </g>
    </g>
    <g id="text_12">
     <!-- $\!^\circ\!$C -->
     <g style="fill:#696969;" transform="translate(74.457031 338.855)rotate(-90)scale(0.23 -0.23)">
      <defs>
       <path d="M 31.296875 40.671875 
Q 27.390625 40.671875 24.703125 37.953125 
Q 22.015625 35.25 22.015625 31.34375 
Q 22.015625 27.484375 24.703125 24.828125 
Q 27.390625 22.171875 31.296875 22.171875 
Q 35.203125 22.171875 37.890625 24.828125 
Q 40.578125 27.484375 40.578125 31.34375 
Q 40.578125 35.203125 37.859375 37.9375 
Q 35.15625 40.671875 31.296875 40.671875 
z
M 31.296875 46.96875 
Q 34.421875 46.96875 37.296875 45.765625 
Q 40.1875 44.578125 42.28125 42.328125 
Q 44.53125 40.140625 45.65625 37.34375 
Q 46.78125 34.5625 46.78125 31.34375 
Q 46.78125 24.90625 42.265625 20.4375 
Q 37.75 15.96875 31.203125 15.96875 
Q 24.609375 15.96875 20.21875 20.359375 
Q 15.828125 24.75 15.828125 31.34375 
Q 15.828125 37.890625 20.3125 42.421875 
Q 24.8125 46.96875 31.296875 46.96875 
z
" id="DejaVuSans-8728"/>
       <path d="M 48.296875 22.40625 
L 55.90625 20.703125 
Q 50.4375 -1.3125 31.203125 -1.3125 
Q 18.5625 -1.3125 11.359375 8.890625 
Q 4.15625 19.09375 4.15625 33.984375 
Q 4.15625 49.359375 11.671875 58.6875 
Q 19.1875 68.015625 31.84375 68.015625 
Q 50.59375 68.015625 55.90625 46.578125 
L 48.046875 45.015625 
Q 43.75 60.9375 31.78125 60.9375 
Q 22.953125 60.9375 18.09375 53.53125 
Q 13.234375 46.140625 13.234375 32.765625 
Q 13.234375 20.515625 18.203125 13.109375 
Q 23.1875 5.71875 31.390625 5.71875 
Q 44.140625 5.71875 48.296875 22.40625 
z
" id="FranklinGothic-Book-67"/>
      </defs>
      <use transform="translate(-1.64095 39.121875)scale(0.7)" xlink:href="#DejaVuSans-8728"/>
      <use transform="translate(42.313804 0.840625)" xlink:href="#FranklinGothic-Book-67"/>
     </g>
    </g>
   </g>
   <g id="text_13">
    <!-- Compared to 1950-2000 average -->
    <g style="fill:#696969;" transform="translate(144 75.2652)scale(0.3 -0.3)">
     <defs>
      <path d="M 25.34375 -1.3125 
Q 15.1875 -1.3125 9.5 6.203125 
Q 3.8125 13.71875 3.8125 24.859375 
Q 3.8125 36.625 10.203125 43.65625 
Q 16.609375 50.6875 26.125 50.6875 
Q 36.328125 50.6875 42.203125 43.28125 
Q 48.09375 35.890625 48.09375 24.8125 
Q 48.09375 13.28125 41.75 5.984375 
Q 35.40625 -1.3125 25.34375 -1.3125 
z
M 25.921875 4.984375 
Q 31.78125 4.984375 35.734375 9.8125 
Q 39.703125 14.65625 39.703125 24.859375 
Q 39.703125 35.109375 35.546875 39.71875 
Q 31.390625 44.34375 25.828125 44.34375 
Q 20.125 44.34375 16.15625 39.671875 
Q 12.203125 35.015625 12.203125 24.90625 
Q 12.203125 14.203125 16.15625 9.59375 
Q 20.125 4.984375 25.921875 4.984375 
z
" id="FranklinGothic-Book-111"/>
      <path d="M 73.734375 0 
L 66.265625 0 
L 66.265625 30.671875 
Q 66.265625 35.40625 65.59375 37.765625 
Q 64.9375 40.140625 62.390625 42.109375 
Q 59.859375 44.09375 56.6875 44.09375 
Q 52.296875 44.09375 48.21875 40.0625 
Q 44.140625 36.03125 44.140625 27.78125 
L 44.140625 0 
L 36.71875 0 
L 36.71875 32.46875 
Q 36.71875 38.96875 33.609375 41.65625 
Q 30.515625 44.34375 27.09375 44.34375 
Q 22.21875 44.34375 18.59375 40.140625 
Q 14.984375 35.9375 14.984375 29.5 
L 14.984375 0 
L 7.671875 0 
L 7.671875 49.3125 
L 14.265625 49.3125 
L 14.265625 39.84375 
Q 19.78125 50.6875 29.4375 50.6875 
Q 34.765625 50.6875 38.46875 47.21875 
Q 42.1875 43.75 43.265625 38.875 
Q 48.34375 50.6875 58.84375 50.6875 
Q 63.875 50.6875 67.65625 47.796875 
Q 71.4375 44.921875 72.578125 41.1875 
Q 73.734375 37.453125 73.734375 30.671875 
z
" id="FranklinGothic-Book-109"/>
      <path d="M 15.328125 -16.65625 
L 7.671875 -16.65625 
L 7.671875 49.3125 
L 14.546875 49.3125 
L 14.546875 39.75 
Q 19.78125 50.6875 30.125 50.6875 
Q 38.875 50.6875 44.234375 43.375 
Q 49.609375 36.078125 49.609375 24.90625 
Q 49.609375 12.84375 44.09375 5.765625 
Q 38.578125 -1.3125 29.9375 -1.3125 
Q 20.65625 -1.3125 15.328125 7.515625 
z
M 15.328125 31.78125 
L 15.328125 17.921875 
Q 16.0625 12.3125 20.0625 8.640625 
Q 24.078125 4.984375 28.421875 4.984375 
Q 33.453125 4.984375 37.328125 9.375 
Q 41.21875 13.765625 41.21875 24.5625 
Q 41.21875 33.890625 37.703125 38.9375 
Q 34.1875 44 28.375 44 
Q 23.78125 44 20.140625 40.421875 
Q 16.5 36.859375 15.328125 31.78125 
z
" id="FranklinGothic-Book-112"/>
      <path d="M 46.1875 66.65625 
L 46.1875 0 
L 39.203125 0 
L 39.203125 8.453125 
Q 34.03125 -1.3125 23.640625 -1.3125 
Q 14.984375 -1.3125 9.421875 5.9375 
Q 3.859375 13.1875 3.859375 24.265625 
Q 3.859375 35.59375 9.375 43.140625 
Q 14.890625 50.6875 24.03125 50.6875 
Q 32.90625 50.6875 38.53125 42.578125 
L 38.53125 66.65625 
z
M 38.53125 30.28125 
Q 38.53125 36.765625 34.5625 40.671875 
Q 30.609375 44.578125 25.34375 44.578125 
Q 19.625 44.578125 15.9375 39.5 
Q 12.25 34.421875 12.25 25.25 
Q 12.25 15.328125 15.640625 10.15625 
Q 19.046875 4.984375 24.953125 4.984375 
Q 30.328125 4.984375 34.421875 9.46875 
Q 38.53125 13.96875 38.53125 20.015625 
z
" id="FranklinGothic-Book-100"/>
      <path id="FranklinGothic-Book-32"/>
      <path d="M 30.03125 5.28125 
L 30.03125 -0.78125 
Q 25.984375 -1.3125 23 -1.3125 
Q 8.6875 -1.3125 8.6875 13.625 
L 8.6875 43.3125 
L -0.046875 43.3125 
L -0.046875 49.3125 
L 8.6875 49.3125 
L 9.03125 61.71875 
L 16.15625 62.40625 
L 16.15625 49.3125 
L 27.203125 49.3125 
L 27.203125 43.3125 
L 16.15625 43.3125 
L 16.15625 12.359375 
Q 16.15625 4.734375 24.078125 4.734375 
Q 26.703125 4.734375 30.03125 5.28125 
z
" id="FranklinGothic-Book-116"/>
      <path d="M 23.53125 27.984375 
L 23.53125 22.015625 
L 1.46875 22.015625 
L 1.46875 27.984375 
z
" id="FranklinGothic-Book-45"/>
      <path d="M 43.796875 49.3125 
L 26.765625 0 
L 18.796875 0 
L 1.171875 49.3125 
L 9.671875 49.3125 
L 23.390625 9.234375 
L 36.96875 49.3125 
z
" id="FranklinGothic-Book-118"/>
      <path d="M 47.953125 57.03125 
L 47.953125 50.921875 
Q 42.671875 50.921875 40.890625 49.703125 
Q 39.109375 48.484375 38.53125 45.3125 
Q 43.265625 39.84375 43.265625 33.40625 
Q 43.265625 26.65625 38.109375 21.828125 
Q 32.953125 17 24.265625 17 
Q 22.3125 17 20.90625 17.28125 
Q 18.21875 17.828125 17.53125 17.828125 
Q 16.21875 17.828125 14.359375 16.53125 
Q 12.5 15.234375 12.5 13.1875 
Q 12.5 10.25 15.1875 9.375 
Q 17.875 8.5 27.828125 8.25 
Q 36.28125 8.015625 40.3125 7.109375 
Q 44.34375 6.203125 47.125 3.09375 
Q 49.90625 0 49.90625 -4.5 
Q 49.90625 -18.609375 25.09375 -18.609375 
Q 13.328125 -18.609375 7.9375 -15.0625 
Q 2.546875 -11.53125 2.546875 -5.609375 
Q 2.546875 1.5625 10.0625 4.25 
Q 5.21875 7.421875 5.21875 12.203125 
Q 5.21875 17.921875 12.0625 20.953125 
Q 5.671875 26.125 5.671875 33.984375 
Q 5.671875 41.3125 11.140625 46 
Q 16.609375 50.6875 24.46875 50.6875 
Q 30.03125 50.6875 34.578125 48.578125 
Q 35.296875 53.421875 37.953125 55.265625 
Q 40.625 57.125 46.046875 57.125 
Q 46.578125 57.125 47.953125 57.03125 
z
M 24.515625 22.859375 
Q 29.390625 22.859375 32.46875 25.859375 
Q 35.546875 28.859375 35.546875 33.640625 
Q 35.546875 38.53125 32.34375 41.625 
Q 29.15625 44.734375 24.609375 44.734375 
Q 20.265625 44.734375 16.890625 41.828125 
Q 13.53125 38.921875 13.53125 33.546875 
Q 13.53125 28.765625 16.546875 25.8125 
Q 19.578125 22.859375 24.515625 22.859375 
z
M 15.328125 2 
Q 9.96875 -0.34375 9.96875 -4.78125 
Q 9.96875 -8.546875 14.375 -10.625 
Q 18.796875 -12.703125 25.640625 -12.703125 
Q 31.984375 -12.703125 37.25 -10.90625 
Q 42.53125 -9.125 42.53125 -4.890625 
Q 42.53125 -2.59375 40.96875 -1.125 
Q 39.40625 0.34375 36.6875 0.734375 
Q 33.984375 1.125 27.25 1.3125 
Q 19.1875 1.515625 15.328125 2 
z
" id="FranklinGothic-Book-103"/>
     </defs>
     <use xlink:href="#FranklinGothic-Book-67"/>
     <use x="57.910156" xlink:href="#FranklinGothic-Book-111"/>
     <use x="109.863281" xlink:href="#FranklinGothic-Book-109"/>
     <use x="190.384766" xlink:href="#FranklinGothic-Book-112"/>
     <use x="243.802734" xlink:href="#FranklinGothic-Book-97"/>
     <use x="296.683594" xlink:href="#FranklinGothic-Book-114"/>
     <use x="329.642578" xlink:href="#FranklinGothic-Book-101"/>
     <use x="381.693359" xlink:href="#FranklinGothic-Book-100"/>
     <use x="435.550781" xlink:href="#FranklinGothic-Book-32"/>
     <use x="460.550781" xlink:href="#FranklinGothic-Book-116"/>
     <use x="489.8125" xlink:href="#FranklinGothic-Book-111"/>
     <use x="541.765625" xlink:href="#FranklinGothic-Book-32"/>
     <use x="566.765625" xlink:href="#FranklinGothic-Book-49"/>
     <use x="624.033203" xlink:href="#FranklinGothic-Book-57"/>
     <use x="682.675781" xlink:href="#FranklinGothic-Book-53"/>
     <use x="741.318359" xlink:href="#FranklinGothic-Book-48"/>
     <use x="799.960938" xlink:href="#FranklinGothic-Book-45"/>
     <use x="824.960938" xlink:href="#FranklinGothic-Book-50"/>
     <use x="883.603516" xlink:href="#FranklinGothic-Book-48"/>
     <use x="942.246094" xlink:href="#FranklinGothic-Book-48"/>
     <use x="1000.888672" xlink:href="#FranklinGothic-Book-48"/>
     <use x="1059.53125" xlink:href="#FranklinGothic-Book-32"/>
     <use x="1084.53125" xlink:href="#FranklinGothic-Book-97"/>
     <use x="1135.162109" xlink:href="#FranklinGothic-Book-118"/>
     <use x="1178.681641" xlink:href="#FranklinGothic-Book-101"/>
     <use x="1230.732422" xlink:href="#FranklinGothic-Book-114"/>
     <use x="1263.691406" xlink:href="#FranklinGothic-Book-97"/>
     <use x="1316.572266" xlink:href="#FranklinGothic-Book-103"/>
     <use x="1365.693359" xlink:href="#FranklinGothic-Book-101"/>
    </g>
   </g>
   <g id="text_14">
    <!-- Indian Ocean Dipole -->
    <g style="fill:#696969;" transform="translate(144 42.76)scale(0.4 -0.4)">
     <defs>
      <path d="M 16.703125 0 
L 8.34375 0 
L 8.34375 66.65625 
L 16.703125 66.65625 
z
" id="FranklinGothic-Book-73"/>
      <path d="M 46.53125 0 
L 39.359375 0 
L 39.359375 31.6875 
Q 39.359375 38.53125 36.375 41.3125 
Q 33.40625 44.09375 29.15625 44.09375 
Q 23.296875 44.09375 19.3125 39.40625 
Q 15.328125 34.71875 15.328125 27.046875 
L 15.328125 0 
L 7.671875 0 
L 7.671875 49.3125 
L 14.796875 49.3125 
L 14.796875 40.234375 
Q 20.796875 50.6875 30.375 50.6875 
Q 35.890625 50.6875 39.765625 47.828125 
Q 43.65625 44.96875 45.09375 41.40625 
Q 46.53125 37.84375 46.53125 28.515625 
z
" id="FranklinGothic-Book-110"/>
      <path d="M 15.578125 66.65625 
L 15.578125 58.15625 
L 7.328125 58.15625 
L 7.328125 66.65625 
z
M 15.328125 49.3125 
L 15.328125 0 
L 7.671875 0 
L 7.671875 49.3125 
z
" id="FranklinGothic-Book-105"/>
      <path d="M 31.34375 -1.3125 
Q 18.5 -1.3125 11.328125 8.671875 
Q 4.15625 18.65625 4.15625 33.15625 
Q 4.15625 48.296875 11.671875 58.15625 
Q 19.1875 68.015625 31.59375 68.015625 
Q 43.953125 68.015625 51.421875 58.328125 
Q 58.890625 48.640625 58.890625 33.890625 
Q 58.890625 19.734375 51.640625 9.203125 
Q 44.390625 -1.3125 31.34375 -1.3125 
z
M 31.546875 5.46875 
Q 40.28125 5.46875 45.203125 13.421875 
Q 50.140625 21.390625 50.140625 33.9375 
Q 50.140625 46.828125 45.03125 54 
Q 39.9375 61.1875 31.5 61.1875 
Q 22.953125 61.1875 17.921875 53.421875 
Q 12.890625 45.65625 12.890625 33.109375 
Q 12.890625 20.84375 17.96875 13.15625 
Q 23.046875 5.46875 31.546875 5.46875 
z
" id="FranklinGothic-Book-79"/>
      <path d="M 36.8125 17.28125 
L 43.75 16.0625 
Q 42.28125 7.90625 37.25 3.296875 
Q 32.234375 -1.3125 24.703125 -1.3125 
Q 14.5 -1.3125 9.15625 6.203125 
Q 3.8125 13.71875 3.8125 24.5625 
Q 3.8125 35.796875 9.453125 43.234375 
Q 15.09375 50.6875 24.8125 50.6875 
Q 32.859375 50.6875 37.71875 45.875 
Q 42.578125 41.0625 43.75 33.453125 
L 36.8125 32.125 
Q 34.859375 44.34375 25 44.34375 
Q 18.65625 44.34375 15.234375 38.9375 
Q 11.8125 33.546875 11.8125 24.953125 
Q 11.8125 15.484375 15.203125 10.234375 
Q 18.609375 4.984375 24.75 4.984375 
Q 34.28125 4.984375 36.8125 17.28125 
z
" id="FranklinGothic-Book-99"/>
      <path d="M 8.34375 0 
L 8.34375 66.65625 
L 30.71875 66.65625 
Q 44.828125 66.65625 52.6875 57.03125 
Q 60.546875 47.40625 60.546875 33.5 
Q 60.546875 19.390625 52.875 9.6875 
Q 45.21875 0 33.453125 0 
z
M 16.703125 7.078125 
L 30.21875 7.078125 
Q 40.96875 7.078125 46.53125 14.5 
Q 52.09375 21.921875 52.09375 34.078125 
Q 52.09375 43.953125 46.796875 51.8125 
Q 41.5 59.671875 30.21875 59.671875 
L 16.703125 59.671875 
z
" id="FranklinGothic-Book-68"/>
      <path d="M 15.328125 0 
L 7.671875 0 
L 7.671875 66.65625 
L 15.328125 66.65625 
z
" id="FranklinGothic-Book-108"/>
     </defs>
     <use xlink:href="#FranklinGothic-Book-73"/>
     <use x="25" xlink:href="#FranklinGothic-Book-110"/>
     <use x="79.199219" xlink:href="#FranklinGothic-Book-100"/>
     <use x="133.056641" xlink:href="#FranklinGothic-Book-105"/>
     <use x="156.005859" xlink:href="#FranklinGothic-Book-97"/>
     <use x="208.886719" xlink:href="#FranklinGothic-Book-110"/>
     <use x="263.085938" xlink:href="#FranklinGothic-Book-32"/>
     <use x="288.085938" xlink:href="#FranklinGothic-Book-79"/>
     <use x="351.171875" xlink:href="#FranklinGothic-Book-99"/>
     <use x="397.753906" xlink:href="#FranklinGothic-Book-101"/>
     <use x="449.804688" xlink:href="#FranklinGothic-Book-97"/>
     <use x="502.685547" xlink:href="#FranklinGothic-Book-110"/>
     <use x="556.884766" xlink:href="#FranklinGothic-Book-32"/>
     <use x="581.884766" xlink:href="#FranklinGothic-Book-68"/>
     <use x="646.582031" xlink:href="#FranklinGothic-Book-105"/>
     <use x="669.53125" xlink:href="#FranklinGothic-Book-112"/>
     <use x="722.949219" xlink:href="#FranklinGothic-Book-111"/>
     <use x="774.902344" xlink:href="#FranklinGothic-Book-108"/>
     <use x="797.900391" xlink:href="#FranklinGothic-Book-101"/>
    </g>
   </g>
   <g id="legend_1">
    <g id="line2d_11"/>
    <g id="text_15">
     <!-- NOAA OSMC (1981.09-2023.12) -->
     <g style="fill:#009e73;" transform="translate(185.856 129.7184)scale(0.2 -0.2)">
      <defs>
       <path d="M 57.421875 0 
L 49.3125 0 
L 14.84375 58.109375 
L 14.9375 53.71875 
Q 15.09375 51.21875 15.09375 49.515625 
L 15.09375 0 
L 8.34375 0 
L 8.34375 66.65625 
L 18.796875 66.65625 
L 51.03125 12.3125 
L 50.921875 16.9375 
Q 50.828125 19.671875 50.828125 21.78125 
L 50.828125 66.65625 
L 57.421875 66.65625 
z
" id="FranklinGothic-Book-78"/>
       <path d="M 53.21875 0 
L 44.671875 0 
L 37.9375 19.484375 
L 13.28125 19.484375 
L 7.328125 0 
L 0.34375 0 
L 21.96875 66.65625 
L 31.5 66.65625 
z
M 36.1875 25.734375 
L 25.921875 57.765625 
L 15.578125 25.734375 
z
" id="FranklinGothic-Book-65"/>
       <path d="M 1.03125 17.71875 
L 8.546875 19.4375 
Q 13.09375 5.8125 28.21875 5.8125 
Q 36.140625 5.8125 40.140625 9.15625 
Q 44.140625 12.5 44.140625 18.109375 
Q 44.140625 22.359375 41.078125 24.953125 
Q 38.03125 27.546875 34.03125 28.515625 
L 20.703125 31.84375 
Q 15.53125 33.15625 12.234375 35.03125 
Q 8.9375 36.921875 6.640625 40.828125 
Q 4.34375 44.734375 4.34375 49.75 
Q 4.34375 58.109375 10.640625 63.0625 
Q 16.9375 68.015625 26.8125 68.015625 
Q 44.96875 68.015625 50.6875 51.5625 
L 43.109375 49.3125 
Q 41.796875 55.171875 36.90625 58.171875 
Q 32.03125 61.1875 26.515625 61.1875 
Q 21.046875 61.1875 16.765625 58.296875 
Q 12.5 55.421875 12.5 50.140625 
Q 12.5 42.78125 23.34375 40.1875 
L 35.796875 37.203125 
Q 52.875 33.109375 52.875 18.796875 
Q 52.875 10.15625 46.453125 4.421875 
Q 40.046875 -1.3125 28.375 -1.3125 
Q 7.671875 -1.3125 1.03125 17.71875 
z
" id="FranklinGothic-Book-83"/>
       <path d="M 72.703125 0 
L 64.59375 0 
L 64.59375 58.203125 
L 42.921875 0 
L 37.25 0 
L 15.4375 58.203125 
L 15.4375 0 
L 8.34375 0 
L 8.34375 66.65625 
L 20.75 66.65625 
L 40.828125 13.328125 
L 60.5 66.65625 
L 72.703125 66.65625 
z
" id="FranklinGothic-Book-77"/>
       <path d="M 24.703125 -16.65625 
L 19.578125 -16.65625 
Q 5.21875 2.203125 5.21875 25.09375 
Q 5.21875 46.96875 19.578125 66.65625 
L 24.703125 66.65625 
Q 12.359375 48.25 12.359375 25 
Q 12.359375 2.828125 24.703125 -16.65625 
z
" id="FranklinGothic-Book-40"/>
       <path d="M 19.34375 31.34375 
L 19.34375 37.984375 
L 26.953125 37.984375 
Q 35.296875 37.984375 38.890625 41.40625 
Q 42.484375 44.828125 42.484375 49.703125 
Q 42.484375 55.078125 38.46875 58.21875 
Q 34.46875 61.375 28.421875 61.375 
Q 17.1875 61.375 12.890625 50.53125 
L 5.375 52.6875 
Q 11.8125 68.015625 29.203125 68.015625 
Q 38.96875 68.015625 44.96875 62.8125 
Q 50.984375 57.625 50.984375 50.296875 
Q 50.984375 44.625 47.359375 40.40625 
Q 43.75 36.1875 38.09375 35.109375 
Q 44.4375 34.1875 49 29.78125 
Q 53.5625 25.390625 53.5625 18.40625 
Q 53.5625 10.0625 46.765625 4.375 
Q 39.984375 -1.3125 28.171875 -1.3125 
Q 18.796875 -1.3125 12.125 3.125 
Q 5.46875 7.5625 2.9375 14.9375 
L 10.6875 17.53125 
Q 14.203125 5.46875 28.03125 5.46875 
Q 37.015625 5.46875 40.9375 9.296875 
Q 44.875 13.140625 44.875 18.453125 
Q 44.875 24.21875 40.15625 27.78125 
Q 35.453125 31.34375 26.953125 31.34375 
z
" id="FranklinGothic-Book-51"/>
       <path d="M 4.640625 66.65625 
L 9.71875 66.65625 
Q 24.125 47.796875 24.125 24.90625 
Q 24.125 3.03125 9.71875 -16.65625 
L 4.640625 -16.65625 
Q 17 1.765625 17 25 
Q 17 47.171875 4.640625 66.65625 
z
" id="FranklinGothic-Book-41"/>
      </defs>
      <use xlink:href="#FranklinGothic-Book-78"/>
      <use x="65.722656" xlink:href="#FranklinGothic-Book-79"/>
      <use x="127.058594" xlink:href="#FranklinGothic-Book-65"/>
      <use x="180.623047" xlink:href="#FranklinGothic-Book-65"/>
      <use x="234.1875" xlink:href="#FranklinGothic-Book-32"/>
      <use x="259.1875" xlink:href="#FranklinGothic-Book-79"/>
      <use x="322.273438" xlink:href="#FranklinGothic-Book-83"/>
      <use x="379.207031" xlink:href="#FranklinGothic-Book-77"/>
      <use x="460.212891" xlink:href="#FranklinGothic-Book-67"/>
      <use x="518.123047" xlink:href="#FranklinGothic-Book-32"/>
      <use x="543.123047" xlink:href="#FranklinGothic-Book-40"/>
      <use x="572.46875" xlink:href="#FranklinGothic-Book-49"/>
      <use x="629.736328" xlink:href="#FranklinGothic-Book-57"/>
      <use x="688.378906" xlink:href="#FranklinGothic-Book-56"/>
      <use x="743.146484" xlink:href="#FranklinGothic-Book-49"/>
      <use x="801.164062" xlink:href="#FranklinGothic-Book-46"/>
      <use x="826.164062" xlink:href="#FranklinGothic-Book-48"/>
      <use x="884.806641" xlink:href="#FranklinGothic-Book-57"/>
      <use x="943.449219" xlink:href="#FranklinGothic-Book-45"/>
      <use x="968.449219" xlink:href="#FranklinGothic-Book-50"/>
      <use x="1027.091797" xlink:href="#FranklinGothic-Book-48"/>
      <use x="1085.734375" xlink:href="#FranklinGothic-Book-50"/>
      <use x="1144.376953" xlink:href="#FranklinGothic-Book-51"/>
      <use x="1203.019531" xlink:href="#FranklinGothic-Book-46"/>
      <use x="1224.144531" xlink:href="#FranklinGothic-Book-49"/>
      <use x="1282.787109" xlink:href="#FranklinGothic-Book-50"/>
      <use x="1341.429688" xlink:href="#FranklinGothic-Book-41"/>
     </g>
    </g>
   </g>
   <g id="line2d_12">
    <path clip-path="url(#p9b3742c2d8)" d="M 184.581818 434.448076 
L 186.182679 415.685563 
L 187.78354 404.244539 
L 189.3844 418.700173 
L 190.985261 374.894216 
L 192.586122 296.190936 
L 194.186982 309.583901 
L 195.787843 285.374855 
L 197.388704 270.248927 
L 198.989564 285.610696 
L 200.590425 296.720778 
L 202.191286 313.264696 
L 203.792146 332.848006 
L 205.393007 269.667006 
L 206.993868 325.139135 
L 208.594728 388.111726 
L 210.195589 391.667601 
L 211.79645 457.278874 
L 213.39731 511.122746 
L 214.998171 435.564264 
L 216.599032 381.207931 
L 218.199892 274.729066 
L 219.800753 253.840547 
L 221.401614 293.860824 
L 223.002474 368.569068 
L 224.603335 343.768489 
L 226.204196 335.430844 
L 227.805056 403.725146 
L 229.405917 401.024239 
L 231.006778 402.151751 
L 232.607639 386.50286 
L 234.208499 328.040076 
L 235.80936 441.030345 
L 237.410221 440.170952 
L 239.011081 430.697522 
L 240.611942 415.662248 
L 242.212803 445.851277 
L 243.813663 378.911313 
L 245.414524 421.69806 
L 247.015385 404.469168 
L 248.616245 398.35018 
L 250.217106 430.797625 
L 251.817967 396.318884 
L 253.418827 357.162928 
L 255.019688 360.895553 
L 256.620549 451.253055 
L 258.221409 451.017914 
L 259.82227 408.160378 
L 261.423131 400.987786 
L 263.023991 441.014123 
L 264.624852 338.808572 
L 266.225713 399.237349 
L 267.826573 356.721281 
L 269.427434 340.645137 
L 271.028295 312.51524 
L 272.629155 335.758484 
L 274.230016 341.954467 
L 275.830877 419.542454 
L 277.431737 455.839495 
L 279.032598 387.115105 
L 280.633459 379.608051 
L 282.23432 370.198523 
L 283.83518 325.965265 
L 285.436041 370.445788 
L 287.036902 387.033846 
L 288.637762 379.554613 
L 290.238623 442.492652 
L 291.839484 425.460948 
L 293.440344 357.13747 
L 295.041205 406.796382 
L 296.642066 413.651618 
L 298.242926 358.530688 
L 299.843787 314.809015 
L 301.444648 297.108184 
L 303.045508 397.392427 
L 304.646369 395.889952 
L 306.24723 357.584566 
L 307.84809 356.187689 
L 309.448951 389.756578 
L 311.049812 327.702859 
L 312.650672 439.115439 
L 314.251533 437.536869 
L 315.852394 377.324818 
L 317.453254 393.389636 
L 319.054115 418.915029 
L 320.654976 423.9053 
L 322.255836 417.235834 
L 323.856697 332.207852 
L 325.457558 435.62661 
L 327.058419 331.44582 
L 328.659279 401.832678 
L 330.26014 369.368347 
L 331.861001 389.428508 
L 333.461861 485.085059 
L 335.062722 404.037405 
L 336.663583 509.840196 
L 338.264443 455.546109 
L 339.865304 459.584743 
L 341.466165 448.524919 
L 343.067025 375.709316 
L 344.667886 321.162657 
L 346.268747 394.087963 
L 347.869607 385.856071 
L 349.470468 389.848585 
L 351.071329 453.734045 
L 352.672189 451.295284 
L 354.27305 380.773347 
L 355.873911 411.047148 
L 357.474771 452.974424 
L 359.075632 482.645906 
L 360.676493 384.469462 
L 362.277353 398.756469 
L 363.878214 363.114996 
L 365.479075 361.931363 
L 367.079935 395.806972 
L 368.680796 234.104216 
L 370.281657 269.462489 
L 371.882517 368.130972 
L 373.483378 361.785507 
L 375.084239 416.318842 
L 376.6851 339.735484 
L 378.28596 370.265198 
L 379.886821 345.145747 
L 381.487682 348.031742 
L 383.088542 442.500207 
L 384.689403 427.71385 
L 386.290264 464.925923 
L 387.891124 468.253357 
L 389.491985 436.705099 
L 391.092846 479.671961 
L 392.693706 451.589287 
L 394.294567 509.544754 
L 395.895428 493.129011 
L 399.097149 381.021149 
L 400.69801 404.723091 
L 402.29887 382.844709 
L 403.899731 435.528143 
L 405.500592 389.656629 
L 407.101452 404.536774 
L 408.702313 313.686131 
L 410.303174 389.640497 
L 411.904034 344.714823 
L 413.504895 408.510201 
L 415.105756 448.124153 
L 416.706616 415.217467 
L 418.307477 405.654689 
L 419.908338 437.083489 
L 421.509198 349.725647 
L 423.110059 408.360183 
L 424.71092 325.840273 
L 426.311781 291.751152 
L 427.912641 281.498342 
L 429.513502 341.239073 
L 431.114363 254.245921 
L 432.715223 220.870228 
L 434.316084 241.939054 
L 435.916945 141.122772 
L 437.517805 374.79582 
L 439.118666 405.279736 
L 440.719527 386.508889 
L 442.320387 305.779206 
L 443.921248 355.887826 
L 445.522109 372.191942 
L 447.122969 340.939715 
L 448.72383 391.552585 
L 450.324691 450.887778 
L 451.925551 448.856349 
L 453.526412 398.17596 
L 455.127273 412.141051 
L 456.728133 456.228575 
L 458.328994 319.859612 
L 459.929855 324.303312 
L 461.530715 321.523778 
L 463.131576 405.635946 
L 464.732437 423.552875 
L 466.333297 427.725783 
L 467.934158 425.430679 
L 469.535019 494.857184 
L 471.13588 532.001083 
L 472.73674 488.8109 
L 474.337601 554.04 
L 475.938462 509.179829 
L 477.539322 413.670436 
L 479.140183 399.975824 
L 480.741044 347.558792 
L 482.341904 380.550403 
L 483.942765 388.295095 
L 485.543626 409.24642 
L 487.144486 378.064598 
L 488.745347 245.215387 
L 490.346208 324.997368 
L 491.947068 261.513105 
L 493.547929 156.422572 
L 495.14879 142.603571 
L 496.74965 328.402209 
L 498.350511 305.881527 
L 499.951372 336.564655 
L 501.552232 425.194554 
L 503.153093 410.413943 
L 504.753954 366.009858 
L 506.354814 393.566651 
L 507.955675 482.761104 
L 509.556536 515.80017 
L 511.157396 503.503444 
L 512.758257 514.069894 
L 514.359118 504.495763 
L 515.959978 419.772925 
L 517.560839 462.405707 
L 519.1617 377.600817 
L 520.762561 378.756712 
L 522.363421 360.385581 
L 523.964282 445.951561 
L 525.565143 413.014668 
L 527.166003 383.36012 
L 528.766864 399.831079 
L 530.367725 369.259153 
L 531.968585 464.241548 
L 533.569446 417.84126 
L 535.170307 375.167112 
L 536.771167 357.284144 
L 538.372028 312.295164 
L 539.972889 277.619833 
L 541.573749 277.723411 
L 543.17461 341.291373 
L 544.775471 426.004053 
L 546.376331 328.891655 
L 547.977192 385.473945 
L 549.578053 362.786776 
L 551.178913 409.957549 
L 552.779774 356.287657 
L 554.380635 342.764095 
L 555.981495 355.587242 
L 557.582356 293.814396 
L 559.183217 287.900702 
L 562.384938 372.613997 
L 563.985799 387.428173 
L 565.586659 476.894577 
L 567.18752 468.170561 
L 568.788381 428.033818 
L 570.389242 420.22703 
L 571.990102 365.847004 
L 573.590963 357.841962 
L 575.191824 391.466332 
L 576.792684 366.792671 
L 578.393545 391.884227 
L 579.994406 445.607178 
L 581.595266 468.952547 
L 583.196127 430.623519 
L 584.796988 451.005758 
L 586.397848 427.572188 
L 587.998709 312.532718 
L 589.59957 302.062183 
L 591.20043 313.205329 
L 592.801291 393.829265 
L 594.402152 428.923407 
L 596.003012 342.444923 
L 597.603873 344.85292 
L 599.204734 357.286002 
L 600.805594 341.908427 
L 602.406455 328.788956 
L 604.007316 302.501237 
L 605.608176 328.594452 
L 607.209037 374.528602 
L 608.809898 378.741455 
L 610.410758 407.130987 
L 612.011619 363.423886 
L 613.61248 396.914914 
L 615.213341 366.420367 
L 616.814201 345.641452 
L 618.415062 427.516199 
L 620.015923 403.31756 
L 621.616783 432.06195 
L 623.217644 465.291218 
L 624.818505 382.776906 
L 626.419365 386.746469 
L 628.020226 378.607015 
L 629.621087 414.547871 
L 631.221947 375.323939 
L 632.822808 424.829374 
L 634.423669 507.803109 
L 636.024529 474.725408 
L 637.62539 348.896361 
L 639.226251 355.819735 
L 640.827111 397.636302 
L 642.427972 478.833925 
L 644.028833 436.487898 
L 645.629693 444.294839 
L 647.230554 450.341292 
L 648.831415 434.453481 
L 650.432275 431.514585 
L 652.033136 400.389755 
L 653.633997 490.036035 
L 655.234857 396.148262 
L 656.835718 353.862375 
L 658.436579 401.71102 
L 660.037439 432.393956 
L 661.6383 427.218395 
L 663.239161 313.893238 
L 664.840022 281.510174 
L 666.440882 214.445432 
L 668.041743 245.165434 
L 669.642604 287.989124 
L 671.243464 364.8147 
L 672.844325 418.008662 
L 674.445186 341.207437 
L 676.046046 326.591158 
L 677.646907 319.776265 
L 679.247768 325.560061 
L 680.848628 323.761989 
L 682.449489 323.937201 
L 684.05035 332.743952 
L 685.65121 408.357868 
L 687.252071 412.460152 
L 688.852932 416.959442 
L 690.453792 369.513754 
L 692.054653 442.872952 
L 693.655514 394.685545 
L 695.256374 422.86052 
L 696.857235 322.636325 
L 698.458096 347.867288 
L 700.058956 287.898502 
L 701.659817 311.70145 
L 703.260678 485.298042 
L 704.861538 373.370745 
L 706.462399 430.789018 
L 708.06326 428.814563 
L 709.66412 393.979024 
L 711.264981 328.278716 
L 712.865842 309.543302 
L 714.466703 350.437944 
L 716.067563 353.434474 
L 717.668424 384.540451 
L 719.269285 451.493954 
L 720.870145 457.344648 
L 722.471006 409.445442 
L 724.071867 387.192497 
L 725.672727 406.777208 
L 727.273588 300.172596 
L 728.874449 324.030525 
L 730.475309 322.509977 
L 732.07617 303.976331 
L 733.677031 288.812704 
L 735.277891 428.20743 
L 736.878752 391.303077 
L 738.479613 402.913226 
L 740.080473 410.356164 
L 741.681334 481.765345 
L 743.282195 520.538751 
L 744.883055 435.864821 
L 746.483916 410.736169 
L 748.084777 395.683943 
L 749.685637 408.744916 
L 751.286498 387.428246 
L 752.887359 380.055098 
L 754.488219 385.135414 
L 756.08908 373.168244 
L 757.689941 365.461577 
L 759.290802 332.960268 
L 760.891662 313.810619 
L 762.492523 306.180521 
L 764.093384 369.379547 
L 765.694244 373.94642 
L 768.895966 408.691572 
L 770.496826 371.504445 
L 772.097687 463.63483 
L 773.698548 437.678941 
L 775.299408 378.72877 
L 776.900269 279.664872 
L 778.50113 234.186957 
L 780.10199 243.484642 
L 781.702851 346.148347 
L 783.303712 375.706276 
L 784.904572 340.390812 
L 786.505433 345.459641 
L 788.106294 387.076575 
L 789.707154 402.109234 
L 791.308015 387.136255 
L 792.908876 442.883604 
L 794.509736 424.78629 
L 796.110597 474.573981 
L 797.711458 396.142946 
L 799.312318 424.143924 
L 800.913179 402.773753 
L 802.51404 386.982291 
L 804.1149 417.436221 
L 805.715761 390.230977 
L 807.316622 381.119601 
L 808.917483 394.887504 
L 810.518343 369.962662 
L 812.119204 321.15418 
L 815.320925 445.039768 
L 816.921786 482.805365 
L 818.522647 414.548282 
L 820.123507 385.003945 
L 821.724368 360.320279 
L 823.325229 416.659392 
L 824.926089 444.261791 
L 826.52695 408.075781 
L 828.127811 362.698197 
L 829.728671 335.567269 
L 831.329532 338.22313 
L 832.930393 373.940473 
L 834.531253 362.1639 
L 836.132114 250.138155 
L 837.732975 231.991161 
L 839.333835 306.066298 
L 840.934696 320.02455 
L 842.535557 395.480743 
L 844.136417 432.551191 
L 845.737278 423.943868 
L 847.338139 397.421137 
L 848.938999 363.356274 
L 850.53986 429.194113 
L 852.140721 474.455918 
L 853.741581 535.201625 
L 855.342442 475.961393 
L 856.943303 547.969747 
L 858.544164 435.348926 
L 860.145024 400.787137 
L 861.745885 385.437197 
L 863.346746 372.347456 
L 864.947606 342.030461 
L 866.548467 325.503395 
L 868.149328 250.883279 
L 869.750188 275.325589 
L 871.351049 314.106353 
L 872.95191 299.580984 
L 874.55277 266.510835 
L 876.153631 345.078567 
L 877.754492 342.57935 
L 879.355352 374.2413 
L 880.956213 411.617674 
L 882.557074 398.650453 
L 884.157934 338.787619 
L 885.758795 380.852464 
L 887.359656 355.075462 
L 888.960516 347.666853 
L 890.561377 381.60962 
L 892.162238 346.202764 
L 893.763098 338.708166 
L 895.363959 227.431299 
L 896.96482 324.178556 
L 898.56568 295.21665 
L 900.166541 333.031839 
L 901.767402 348.493288 
L 903.368263 402.722537 
L 904.969123 389.736039 
L 906.569984 343.995962 
L 908.170845 265.49858 
L 909.771705 291.475712 
L 911.372566 266.785642 
L 912.973427 198.280746 
L 914.574287 158.748072 
L 916.175148 100.44 
L 917.776009 135.153162 
L 919.376869 275.805517 
L 920.97773 341.031223 
L 922.578591 400.774152 
L 924.179451 403.934473 
L 925.780312 398.334346 
L 927.381173 297.845062 
L 928.982033 301.40434 
L 930.582894 350.186181 
L 932.183755 441.620688 
L 933.784615 447.423234 
L 935.385476 364.040717 
L 936.986337 388.924161 
L 938.587197 365.645345 
L 940.188058 362.345887 
L 941.788919 334.767505 
L 943.389779 356.480628 
L 944.99064 338.452944 
L 946.591501 439.709796 
L 948.192361 420.065755 
L 949.793222 475.097461 
L 951.394083 422.119763 
L 952.994944 431.367177 
L 954.595804 448.080669 
L 956.196665 395.013907 
L 957.797526 383.497734 
L 959.398386 427.021168 
L 960.999247 425.415333 
L 962.600108 381.92629 
L 964.200968 425.655922 
L 965.801829 445.089606 
L 967.40269 448.267245 
L 969.00355 516.061785 
L 970.604411 526.753769 
L 972.205272 498.873301 
L 973.806132 479.912165 
L 975.406993 391.310862 
L 977.007854 317.671968 
L 978.608714 352.567335 
L 980.209575 296.518292 
L 981.810436 320.703262 
L 983.411296 332.673503 
L 985.012157 357.011646 
L 986.613018 379.177301 
L 988.213878 336.775506 
L 989.814739 247.070691 
L 991.4156 228.35158 
L 993.01646 169.182665 
L 994.617321 215.548429 
L 996.218182 240.047368 
L 996.218182 240.047368 
" style="fill:none;stroke:#009e73;stroke-linecap:round;"/>
   </g>
  </g>
  <g id="text_16">
   <g id="patch_4">
    <path d="M 874.164375 646.18275 
L 1040.76 646.18275 
L 1040.76 628.26525 
L 874.164375 628.26525 
z
" style="fill:#ffffff;stroke:#ffffff;stroke-linejoin:miter;"/>
   </g>
   <!-- Created: 2024-02-08 12:02:28 -->
   <g style="fill:#696969;" transform="translate(878.124375 640.224)scale(0.12 -0.12)">
    <defs>
     <path d="M 17.96875 49.3125 
L 17.96875 38.375 
L 7.078125 38.375 
L 7.078125 49.3125 
z
M 17.96875 10.984375 
L 17.96875 0 
L 7.078125 0 
L 7.078125 10.984375 
z
" id="FranklinGothic-Book-58"/>
     <path d="M 44.09375 0 
L 36.03125 0 
L 36.03125 15.875 
L 3.078125 15.875 
L 3.078125 21.484375 
L 33.640625 68.0625 
L 44.09375 68.0625 
L 44.09375 22.46875 
L 54.890625 22.46875 
L 54.890625 15.875 
L 44.09375 15.875 
z
M 36.03125 22.46875 
L 36.03125 54 
Q 36.03125 57.421875 36.1875 61.375 
Q 34.078125 57.515625 32.5625 55.125 
L 11.765625 22.46875 
z
" id="FranklinGothic-Book-52"/>
    </defs>
    <use xlink:href="#FranklinGothic-Book-67"/>
    <use x="57.910156" xlink:href="#FranklinGothic-Book-114"/>
    <use x="90.869141" xlink:href="#FranklinGothic-Book-101"/>
    <use x="142.919922" xlink:href="#FranklinGothic-Book-97"/>
    <use x="195.800781" xlink:href="#FranklinGothic-Book-116"/>
    <use x="224.8125" xlink:href="#FranklinGothic-Book-101"/>
    <use x="276.863281" xlink:href="#FranklinGothic-Book-100"/>
    <use x="330.720703" xlink:href="#FranklinGothic-Book-58"/>
    <use x="355.720703" xlink:href="#FranklinGothic-Book-32"/>
    <use x="380.720703" xlink:href="#FranklinGothic-Book-50"/>
    <use x="439.363281" xlink:href="#FranklinGothic-Book-48"/>
    <use x="498.005859" xlink:href="#FranklinGothic-Book-50"/>
    <use x="552.273438" xlink:href="#FranklinGothic-Book-52"/>
    <use x="610.916016" xlink:href="#FranklinGothic-Book-45"/>
    <use x="635.916016" xlink:href="#FranklinGothic-Book-48"/>
    <use x="694.558594" xlink:href="#FranklinGothic-Book-50"/>
    <use x="753.201172" xlink:href="#FranklinGothic-Book-45"/>
    <use x="778.201172" xlink:href="#FranklinGothic-Book-48"/>
    <use x="836.84375" xlink:href="#FranklinGothic-Book-56"/>
    <use x="895.486328" xlink:href="#FranklinGothic-Book-32"/>
    <use x="920.486328" xlink:href="#FranklinGothic-Book-49"/>
    <use x="979.128906" xlink:href="#FranklinGothic-Book-50"/>
    <use x="1037.771484" xlink:href="#FranklinGothic-Book-58"/>
    <use x="1062.771484" xlink:href="#FranklinGothic-Book-48"/>
    <use x="1121.414062" xlink:href="#FranklinGothic-Book-50"/>
    <use x="1180.056641" xlink:href="#FranklinGothic-Book-58"/>
    <use x="1205.056641" xlink:href="#FranklinGothic-Book-50"/>
    <use x="1263.699219" xlink:href="#FranklinGothic-Book-56"/>
   </g>
  </g>
 </g>
 <defs>
  <clipPath id="p9b3742c2d8">
   <rect height="498.96" width="892.8" x="144" y="77.76"/>
  </clipPath>
 </defs>
</svg>
