<?xml version="1.0" encoding="utf-8" standalone="no"?>
<!DOCTYPE svg PUBLIC "-//W3C//DTD SVG 1.1//EN"
  "http://www.w3.org/Graphics/SVG/1.1/DTD/svg11.dtd">
<!-- Created with matplotlib (https://matplotlib.org/) -->
<svg height="648pt" version="1.1" viewBox="0 0 1152 648" width="1152pt" xmlns="http://www.w3.org/2000/svg" xmlns:xlink="http://www.w3.org/1999/xlink">
 <metadata>
  <rdf:RDF xmlns:cc="http://creativecommons.org/ns#" xmlns:dc="http://purl.org/dc/elements/1.1/" xmlns:rdf="http://www.w3.org/1999/02/22-rdf-syntax-ns#">
   <cc:Work>
    <dc:type rdf:resource="http://purl.org/dc/dcmitype/StillImage"/>
    <dc:date>2024-01-18T12:40:52.088441</dc:date>
    <dc:format>image/svg+xml</dc:format>
    <dc:creator>
     <cc:Agent>
      <dc:title>Matplotlib v3.3.1, https://matplotlib.org/</dc:title>
     </cc:Agent>
    </dc:creator>
   </cc:Work>
  </rdf:RDF>
 </metadata>
 <defs>
  <style type="text/css">*{stroke-linecap:butt;stroke-linejoin:round;}</style>
 </defs>
 <g id="figure_1">
  <g id="patch_1">
   <path d="M 0 648 
L 1152 648 
L 1152 0 
L 0 0 
z
" style="fill:#ffffff;"/>
  </g>
  <g id="axes_1">
   <g id="patch_2">
    <path d="M 144 576.72 
L 1036.8 576.72 
L 1036.8 77.76 
L 144 77.76 
z
" style="fill:none;"/>
   </g>
   <g id="patch_3">
    <path d="M 144 576.72 
L 1036.8 576.72 
" style="fill:none;stroke:#d3d3d3;stroke-linecap:square;stroke-linejoin:miter;stroke-width:1.25;"/>
   </g>
   <g id="matplotlib.axis_1">
    <g id="xtick_1">
     <g id="line2d_1">
      <defs>
       <path d="M 0 0 
L 0 6 
" id="m765eed2f1c" style="stroke:#696969;stroke-width:1.25;"/>
      </defs>
      <g>
       <use style="fill:#696969;stroke:#696969;stroke-width:1.25;" x="231.497215" xlink:href="#m765eed2f1c" y="576.72"/>
      </g>
     </g>
     <g id="text_1">
      <!-- 1860 -->
      <g style="fill:#696969;" transform="translate(204.594402 601.550938)scale(0.23 -0.23)">
       <defs>
        <path d="M 55.859375 6.203125 
L 55.859375 0 
L 9.1875 0 
L 9.1875 6.203125 
L 29.203125 6.203125 
L 29.203125 57.671875 
Q 20.359375 48.4375 10.84375 43.265625 
L 10.84375 51.65625 
Q 23.96875 58.546875 31.203125 68.015625 
L 37.15625 68.015625 
L 37.15625 6.203125 
z
" id="FranklinGothic-Book-49"/>
        <path d="M 19.484375 34.578125 
Q 6.84375 40.09375 6.84375 50.59375 
Q 6.84375 58.203125 13.140625 63.109375 
Q 19.4375 68.015625 29.828125 68.015625 
Q 40.09375 68.015625 46.140625 63.296875 
Q 52.203125 58.59375 52.203125 50.984375 
Q 52.203125 40.375 39.265625 35.796875 
Q 49.703125 30.953125 52.359375 26.453125 
Q 55.03125 21.96875 55.03125 17.484375 
Q 55.03125 9.46875 48.21875 4.078125 
Q 41.40625 -1.3125 29.734375 -1.3125 
Q 17.28125 -1.3125 10.4375 4.171875 
Q 3.609375 9.671875 3.609375 17.234375 
Q 3.609375 28.515625 19.484375 34.578125 
z
M 29.59375 38.71875 
Q 37.984375 40.96875 41.453125 43.890625 
Q 44.921875 46.828125 44.921875 51.21875 
Q 44.921875 56.34375 40.796875 59 
Q 36.671875 61.671875 29.9375 61.671875 
Q 23.484375 61.671875 19.375 58.859375 
Q 15.28125 56.0625 15.28125 51.3125 
Q 15.28125 46.625 19.84375 43.203125 
Q 24.421875 39.796875 29.59375 38.71875 
z
M 28.65625 31.0625 
Q 11.765625 27.046875 11.765625 16.9375 
Q 11.765625 11.671875 16.375 8.328125 
Q 21 4.984375 29.984375 4.984375 
Q 37.59375 4.984375 42.234375 8.25 
Q 46.875 11.53125 46.875 16.609375 
Q 46.875 26.3125 28.65625 31.0625 
z
" id="FranklinGothic-Book-56"/>
        <path d="M 53.5625 53.03125 
L 46.046875 50.984375 
Q 42.1875 61.140625 31.984375 61.140625 
Q 13.234375 61.140625 12.796875 30.125 
Q 15.765625 37.015625 21.234375 40.328125 
Q 26.703125 43.65625 32.8125 43.65625 
Q 42.09375 43.65625 48.359375 37.1875 
Q 54.640625 30.71875 54.640625 21.6875 
Q 54.640625 12.3125 47.96875 5.5 
Q 41.3125 -1.3125 30.90625 -1.3125 
Q 19.09375 -1.3125 12.078125 7.59375 
Q 5.078125 16.5 5.078125 31.84375 
Q 5.078125 46.828125 11.6875 57.421875 
Q 18.3125 68.015625 32.171875 68.015625 
Q 48.140625 68.015625 53.5625 53.03125 
z
M 30.765625 5.375 
Q 37.84375 5.375 42.359375 10.03125 
Q 46.875 14.703125 46.875 21.234375 
Q 46.875 27.6875 42.453125 32.296875 
Q 38.03125 36.921875 31.5 36.921875 
Q 24.75 36.921875 19.71875 32.078125 
Q 14.703125 27.25 14.703125 20.75 
Q 14.703125 14.75 19.1875 10.0625 
Q 23.6875 5.375 30.765625 5.375 
z
" id="FranklinGothic-Book-54"/>
        <path d="M 29.390625 -1.3125 
Q 17.875 -1.3125 10.984375 8.671875 
Q 4.109375 18.65625 4.109375 33.453125 
Q 4.109375 48 10.640625 58 
Q 17.1875 68.015625 29.15625 68.015625 
Q 41.65625 68.015625 48.125 57.5625 
Q 54.59375 47.125 54.59375 33.0625 
Q 54.59375 19.28125 47.953125 8.984375 
Q 41.3125 -1.3125 29.390625 -1.3125 
z
M 29.4375 5.21875 
Q 37.890625 5.21875 41.9375 12.859375 
Q 46 20.515625 46 32.078125 
Q 46 44.734375 41.84375 53.125 
Q 37.703125 61.53125 29.046875 61.53125 
Q 20.703125 61.53125 16.625 53.859375 
Q 12.546875 46.1875 12.546875 33.6875 
Q 12.546875 20.703125 16.84375 12.953125 
Q 21.140625 5.21875 29.4375 5.21875 
z
" id="FranklinGothic-Book-48"/>
       </defs>
       <use xlink:href="#FranklinGothic-Book-49"/>
       <use x="58.017578" xlink:href="#FranklinGothic-Book-56"/>
       <use x="116.660156" xlink:href="#FranklinGothic-Book-54"/>
       <use x="175.302734" xlink:href="#FranklinGothic-Book-48"/>
      </g>
     </g>
    </g>
    <g id="xtick_2">
     <g id="line2d_2">
      <g>
       <use style="fill:#696969;stroke:#696969;stroke-width:1.25;" x="325.328008" xlink:href="#m765eed2f1c" y="576.72"/>
      </g>
     </g>
     <g id="text_2">
      <!-- 1880 -->
      <g style="fill:#696969;" transform="translate(298.425196 601.550938)scale(0.23 -0.23)">
       <use xlink:href="#FranklinGothic-Book-49"/>
       <use x="58.017578" xlink:href="#FranklinGothic-Book-56"/>
       <use x="116.660156" xlink:href="#FranklinGothic-Book-56"/>
       <use x="175.302734" xlink:href="#FranklinGothic-Book-48"/>
      </g>
     </g>
    </g>
    <g id="xtick_3">
     <g id="line2d_3">
      <g>
       <use style="fill:#696969;stroke:#696969;stroke-width:1.25;" x="419.158802" xlink:href="#m765eed2f1c" y="576.72"/>
      </g>
     </g>
     <g id="text_3">
      <!-- 1900 -->
      <g style="fill:#696969;" transform="translate(392.342239 601.550938)scale(0.23 -0.23)">
       <defs>
        <path d="M 5.71875 12.15625 
L 12.40625 14.59375 
Q 16.546875 5.375 26.375 5.375 
Q 35.890625 5.375 40.703125 13.375 
Q 45.515625 21.390625 45.65625 35.109375 
Q 39.109375 23.09375 25.984375 23.09375 
Q 16.703125 23.09375 10.40625 29.421875 
Q 4.109375 35.75 4.109375 45.0625 
Q 4.109375 54.546875 10.71875 61.28125 
Q 17.328125 68.015625 27.59375 68.015625 
Q 40.140625 68.015625 46.828125 59.203125 
Q 53.515625 50.390625 53.515625 34.96875 
Q 53.515625 18.75 46.4375 8.71875 
Q 39.359375 -1.3125 26.265625 -1.3125 
Q 10.984375 -1.3125 5.71875 12.15625 
z
M 27.828125 29.78125 
Q 34.71875 29.78125 39.375 34.59375 
Q 44.046875 39.40625 44.046875 45.84375 
Q 44.046875 52.09375 39.625 56.578125 
Q 35.203125 61.078125 27.984375 61.078125 
Q 20.65625 61.078125 16.40625 56.46875 
Q 12.15625 51.859375 12.15625 45.21875 
Q 12.15625 38.09375 16.859375 33.9375 
Q 21.578125 29.78125 27.828125 29.78125 
z
" id="FranklinGothic-Book-57"/>
       </defs>
       <use xlink:href="#FranklinGothic-Book-49"/>
       <use x="57.267578" xlink:href="#FranklinGothic-Book-57"/>
       <use x="115.910156" xlink:href="#FranklinGothic-Book-48"/>
       <use x="174.552734" xlink:href="#FranklinGothic-Book-48"/>
      </g>
     </g>
    </g>
    <g id="xtick_4">
     <g id="line2d_4">
      <g>
       <use style="fill:#696969;stroke:#696969;stroke-width:1.25;" x="512.989595" xlink:href="#m765eed2f1c" y="576.72"/>
      </g>
     </g>
     <g id="text_4">
      <!-- 1920 -->
      <g style="fill:#696969;" transform="translate(486.173033 601.550938)scale(0.23 -0.23)">
       <defs>
        <path d="M 52.484375 6.9375 
L 52.484375 0 
L 5.171875 0 
L 5.171875 6.9375 
Q 33.203125 27.9375 38.59375 34.59375 
Q 44 41.265625 44 47.796875 
Q 44 53.90625 39.453125 57.65625 
Q 34.90625 61.421875 29 61.421875 
Q 22.90625 61.421875 18.21875 57.296875 
Q 13.53125 53.171875 12.9375 46.09375 
L 5.171875 48.4375 
Q 10.0625 68.015625 29.109375 68.015625 
Q 39.40625 68.015625 45.84375 62.15625 
Q 52.296875 56.296875 52.296875 47.859375 
Q 52.296875 42.046875 49.234375 36.671875 
Q 46.1875 31.296875 37.6875 23.828125 
Q 29.203125 16.359375 15.71875 6.9375 
z
" id="FranklinGothic-Book-50"/>
       </defs>
       <use xlink:href="#FranklinGothic-Book-49"/>
       <use x="57.267578" xlink:href="#FranklinGothic-Book-57"/>
       <use x="115.910156" xlink:href="#FranklinGothic-Book-50"/>
       <use x="174.552734" xlink:href="#FranklinGothic-Book-48"/>
      </g>
     </g>
    </g>
    <g id="xtick_5">
     <g id="line2d_5">
      <g>
       <use style="fill:#696969;stroke:#696969;stroke-width:1.25;" x="606.820389" xlink:href="#m765eed2f1c" y="576.72"/>
      </g>
     </g>
     <g id="text_5">
      <!-- 1940 -->
      <g style="fill:#696969;" transform="translate(580.061326 601.550938)scale(0.23 -0.23)">
       <defs>
        <path d="M 44.09375 0 
L 36.03125 0 
L 36.03125 15.875 
L 3.078125 15.875 
L 3.078125 21.484375 
L 33.640625 68.0625 
L 44.09375 68.0625 
L 44.09375 22.46875 
L 54.890625 22.46875 
L 54.890625 15.875 
L 44.09375 15.875 
z
M 36.03125 22.46875 
L 36.03125 54 
Q 36.03125 57.421875 36.1875 61.375 
Q 34.078125 57.515625 32.5625 55.125 
L 11.765625 22.46875 
z
" id="FranklinGothic-Book-52"/>
       </defs>
       <use xlink:href="#FranklinGothic-Book-49"/>
       <use x="57.267578" xlink:href="#FranklinGothic-Book-57"/>
       <use x="115.410156" xlink:href="#FranklinGothic-Book-52"/>
       <use x="174.052734" xlink:href="#FranklinGothic-Book-48"/>
      </g>
     </g>
    </g>
    <g id="xtick_6">
     <g id="line2d_6">
      <g>
       <use style="fill:#696969;stroke:#696969;stroke-width:1.25;" x="700.651182" xlink:href="#m765eed2f1c" y="576.72"/>
      </g>
     </g>
     <g id="text_6">
      <!-- 1960 -->
      <g style="fill:#696969;" transform="translate(673.83462 601.550938)scale(0.23 -0.23)">
       <use xlink:href="#FranklinGothic-Book-49"/>
       <use x="57.267578" xlink:href="#FranklinGothic-Book-57"/>
       <use x="115.910156" xlink:href="#FranklinGothic-Book-54"/>
       <use x="174.552734" xlink:href="#FranklinGothic-Book-48"/>
      </g>
     </g>
    </g>
    <g id="xtick_7">
     <g id="line2d_7">
      <g>
       <use style="fill:#696969;stroke:#696969;stroke-width:1.25;" x="794.481976" xlink:href="#m765eed2f1c" y="576.72"/>
      </g>
     </g>
     <g id="text_7">
      <!-- 1980 -->
      <g style="fill:#696969;" transform="translate(767.665413 601.550938)scale(0.23 -0.23)">
       <use xlink:href="#FranklinGothic-Book-49"/>
       <use x="57.267578" xlink:href="#FranklinGothic-Book-57"/>
       <use x="115.910156" xlink:href="#FranklinGothic-Book-56"/>
       <use x="174.552734" xlink:href="#FranklinGothic-Book-48"/>
      </g>
     </g>
    </g>
    <g id="xtick_8">
     <g id="line2d_8">
      <g>
       <use style="fill:#696969;stroke:#696969;stroke-width:1.25;" x="888.312769" xlink:href="#m765eed2f1c" y="576.72"/>
      </g>
     </g>
     <g id="text_8">
      <!-- 2000 -->
      <g style="fill:#696969;" transform="translate(861.338082 601.550938)scale(0.23 -0.23)">
       <use xlink:href="#FranklinGothic-Book-50"/>
       <use x="58.642578" xlink:href="#FranklinGothic-Book-48"/>
       <use x="117.285156" xlink:href="#FranklinGothic-Book-48"/>
       <use x="175.927734" xlink:href="#FranklinGothic-Book-48"/>
      </g>
     </g>
    </g>
    <g id="xtick_9">
     <g id="line2d_9">
      <g>
       <use style="fill:#696969;stroke:#696969;stroke-width:1.25;" x="982.143563" xlink:href="#m765eed2f1c" y="576.72"/>
      </g>
     </g>
     <g id="text_9">
      <!-- 2020 -->
      <g style="fill:#696969;" transform="translate(955.168875 601.550938)scale(0.23 -0.23)">
       <use xlink:href="#FranklinGothic-Book-50"/>
       <use x="58.642578" xlink:href="#FranklinGothic-Book-48"/>
       <use x="117.285156" xlink:href="#FranklinGothic-Book-50"/>
       <use x="175.927734" xlink:href="#FranklinGothic-Book-48"/>
      </g>
     </g>
    </g>
    <g id="text_10">
     <!-- Year -->
     <g style="fill:#696969;" transform="translate(569.365781 624.712813)scale(0.23 -0.23)">
      <defs>
       <path d="M 52 66.65625 
L 29.6875 28.03125 
L 29.6875 0 
L 21.34375 0 
L 21.34375 28.03125 
L -0.984375 66.65625 
L 8.84375 66.65625 
L 26.5625 35.984375 
L 44.390625 66.65625 
z
" id="FranklinGothic-Book-89"/>
       <path d="M 40.234375 14.703125 
L 47.359375 13.234375 
Q 45.40625 6.9375 39.734375 2.8125 
Q 34.078125 -1.3125 26.421875 -1.3125 
Q 16.3125 -1.3125 10.0625 5.78125 
Q 3.8125 12.890625 3.8125 24.421875 
Q 3.8125 36.1875 10.296875 43.4375 
Q 16.796875 50.6875 26.609375 50.6875 
Q 36.28125 50.6875 42.15625 44 
Q 48.046875 37.3125 48.1875 23.96875 
L 12.359375 23.96875 
Q 12.359375 12.796875 17.046875 8.890625 
Q 21.734375 4.984375 26.953125 4.984375 
Q 36.375 4.984375 40.234375 14.703125 
z
M 39.796875 29.6875 
Q 39.703125 33.84375 38.421875 37.0625 
Q 37.15625 40.28125 34.125 42.546875 
Q 31.109375 44.828125 26.859375 44.828125 
Q 21.140625 44.828125 17.15625 40.71875 
Q 13.1875 36.625 12.703125 29.6875 
z
" id="FranklinGothic-Book-101"/>
       <path d="M 46.296875 0 
L 38.671875 0 
Q 38.234375 2.34375 37.796875 8.890625 
Q 32.71875 -1.3125 20.515625 -1.3125 
Q 12.203125 -1.3125 7.765625 3.078125 
Q 3.328125 7.46875 3.328125 13.625 
Q 3.328125 21.09375 9.671875 25.90625 
Q 16.015625 30.71875 31.25 30.71875 
Q 33.296875 30.71875 37.796875 30.515625 
Q 37.796875 36.375 36.890625 38.984375 
Q 35.984375 41.609375 33.046875 43.171875 
Q 30.125 44.734375 25.34375 44.734375 
Q 13.671875 44.734375 11.765625 35.84375 
L 4.6875 37.0625 
Q 7.28125 50.6875 26.46875 50.6875 
Q 36.671875 50.6875 40.9375 46.171875 
Q 45.21875 41.65625 45.21875 30.515625 
L 45.21875 9.578125 
Q 45.21875 4.34375 46.296875 0 
z
M 37.796875 24.65625 
Q 33.109375 24.953125 30.671875 24.953125 
Q 21.578125 24.953125 16.546875 21.96875 
Q 11.53125 19 11.53125 13.28125 
Q 11.53125 9.671875 14.234375 7.125 
Q 16.9375 4.59375 22.078125 4.59375 
Q 29 4.59375 33.46875 9.625 
Q 37.9375 14.65625 37.9375 21.4375 
Q 37.9375 22.796875 37.796875 24.65625 
z
" id="FranklinGothic-Book-97"/>
       <path d="M 15.328125 0 
L 7.671875 0 
L 7.671875 49.3125 
L 14.40625 49.3125 
L 14.40625 37.796875 
Q 17.96875 45.953125 21.546875 48.359375 
Q 25.140625 50.78125 28.90625 50.78125 
Q 30.078125 50.78125 31.9375 50.59375 
L 31.9375 43.265625 
L 30.375 43.265625 
Q 24.03125 43.265625 19.828125 38.53125 
Q 15.625 33.796875 15.328125 26.078125 
z
" id="FranklinGothic-Book-114"/>
      </defs>
      <use xlink:href="#FranklinGothic-Book-89"/>
      <use x="45.025391" xlink:href="#FranklinGothic-Book-101"/>
      <use x="97.076172" xlink:href="#FranklinGothic-Book-97"/>
      <use x="149.957031" xlink:href="#FranklinGothic-Book-114"/>
     </g>
    </g>
   </g>
   <g id="matplotlib.axis_2">
    <g id="ytick_1">
     <g id="line2d_10">
      <path clip-path="url(#pb0818bd2df)" d="M 144 559.847834 
L 1036.8 559.847834 
" style="fill:none;stroke:#d3d3d3;stroke-linecap:round;stroke-opacity:0.5;"/>
     </g>
     <g id="text_11">
      <!-- −2.0 -->
      <g style="fill:#696969;" transform="translate(88.287969 567.513303)scale(0.23 -0.23)">
       <defs>
        <path d="M 6 36.765625 
L 52.6875 36.765625 
L 52.6875 30.03125 
L 6 30.03125 
z
" id="FranklinGothic-Book-8722"/>
        <path d="M 17.96875 10.9375 
L 17.96875 0 
L 7.078125 0 
L 7.078125 10.9375 
z
" id="FranklinGothic-Book-46"/>
       </defs>
       <use xlink:href="#FranklinGothic-Book-8722"/>
       <use x="58.642578" xlink:href="#FranklinGothic-Book-50"/>
       <use x="117.285156" xlink:href="#FranklinGothic-Book-46"/>
       <use x="142.285156" xlink:href="#FranklinGothic-Book-48"/>
      </g>
     </g>
    </g>
    <g id="ytick_2">
     <g id="line2d_11">
      <path clip-path="url(#pb0818bd2df)" d="M 144 478.820847 
L 1036.8 478.820847 
" style="fill:none;stroke:#d3d3d3;stroke-linecap:round;stroke-opacity:0.5;"/>
     </g>
     <g id="text_12">
      <!-- −1.5 -->
      <g style="fill:#696969;" transform="translate(88.431719 486.486315)scale(0.23 -0.23)">
       <defs>
        <path d="M 48.875 66.65625 
L 48.1875 59.46875 
L 15.4375 59.46875 
L 14.015625 37.84375 
Q 21.4375 45.125 30.328125 45.125 
Q 39.703125 45.125 46.515625 38.625 
Q 53.328125 32.125 53.328125 22.015625 
Q 53.328125 11.765625 45.921875 5.21875 
Q 38.53125 -1.3125 27.828125 -1.3125 
Q 19.4375 -1.3125 12.890625 3.078125 
Q 6.34375 7.46875 4.296875 14.453125 
L 11.421875 16.890625 
Q 15.828125 5.28125 27.9375 5.28125 
Q 35.890625 5.28125 40.578125 9.984375 
Q 45.265625 14.703125 45.265625 22.015625 
Q 45.265625 29.6875 40.625 33.984375 
Q 35.984375 38.28125 29.5 38.28125 
Q 20.015625 38.28125 13.8125 29.203125 
L 7.234375 30.609375 
L 9.375 66.65625 
z
" id="FranklinGothic-Book-53"/>
       </defs>
       <use xlink:href="#FranklinGothic-Book-8722"/>
       <use x="58.642578" xlink:href="#FranklinGothic-Book-49"/>
       <use x="116.660156" xlink:href="#FranklinGothic-Book-46"/>
       <use x="141.660156" xlink:href="#FranklinGothic-Book-53"/>
      </g>
     </g>
    </g>
    <g id="ytick_3">
     <g id="line2d_12">
      <path clip-path="url(#pb0818bd2df)" d="M 144 397.793859 
L 1036.8 397.793859 
" style="fill:none;stroke:#d3d3d3;stroke-linecap:round;stroke-opacity:0.5;"/>
     </g>
     <g id="text_13">
      <!-- −1.0 -->
      <g style="fill:#696969;" transform="translate(88.431719 405.459328)scale(0.23 -0.23)">
       <use xlink:href="#FranklinGothic-Book-8722"/>
       <use x="58.642578" xlink:href="#FranklinGothic-Book-49"/>
       <use x="116.660156" xlink:href="#FranklinGothic-Book-46"/>
       <use x="141.660156" xlink:href="#FranklinGothic-Book-48"/>
      </g>
     </g>
    </g>
    <g id="ytick_4">
     <g id="line2d_13">
      <path clip-path="url(#pb0818bd2df)" d="M 144 316.766871 
L 1036.8 316.766871 
" style="fill:none;stroke:#d3d3d3;stroke-linecap:round;stroke-opacity:0.5;"/>
     </g>
     <g id="text_14">
      <!-- −0.5 -->
      <g style="fill:#696969;" transform="translate(88.287969 324.43234)scale(0.23 -0.23)">
       <use xlink:href="#FranklinGothic-Book-8722"/>
       <use x="58.642578" xlink:href="#FranklinGothic-Book-48"/>
       <use x="117.285156" xlink:href="#FranklinGothic-Book-46"/>
       <use x="142.285156" xlink:href="#FranklinGothic-Book-53"/>
      </g>
     </g>
    </g>
    <g id="ytick_5">
     <g id="line2d_14">
      <path clip-path="url(#pb0818bd2df)" d="M 144 235.739883 
L 1036.8 235.739883 
" style="fill:none;stroke:#d3d3d3;stroke-linecap:round;stroke-opacity:0.5;"/>
     </g>
     <g id="text_15">
      <!-- 0.0 -->
      <g style="fill:#696969;" transform="translate(101.775312 243.405352)scale(0.23 -0.23)">
       <use xlink:href="#FranklinGothic-Book-48"/>
       <use x="58.642578" xlink:href="#FranklinGothic-Book-46"/>
       <use x="83.642578" xlink:href="#FranklinGothic-Book-48"/>
      </g>
     </g>
    </g>
    <g id="ytick_6">
     <g id="line2d_15">
      <path clip-path="url(#pb0818bd2df)" d="M 144 154.712896 
L 1036.8 154.712896 
" style="fill:none;stroke:#d3d3d3;stroke-linecap:round;stroke-opacity:0.5;"/>
     </g>
     <g id="text_16">
      <!-- 0.5 -->
      <g style="fill:#696969;" transform="translate(101.775312 162.378364)scale(0.23 -0.23)">
       <use xlink:href="#FranklinGothic-Book-48"/>
       <use x="58.642578" xlink:href="#FranklinGothic-Book-46"/>
       <use x="83.642578" xlink:href="#FranklinGothic-Book-53"/>
      </g>
     </g>
    </g>
    <g id="text_17">
     <!-- $\!^\circ\!$C -->
     <g style="fill:#696969;" transform="translate(74.457031 338.855)rotate(-90)scale(0.23 -0.23)">
      <defs>
       <path d="M 31.296875 40.671875 
Q 27.390625 40.671875 24.703125 37.953125 
Q 22.015625 35.25 22.015625 31.34375 
Q 22.015625 27.484375 24.703125 24.828125 
Q 27.390625 22.171875 31.296875 22.171875 
Q 35.203125 22.171875 37.890625 24.828125 
Q 40.578125 27.484375 40.578125 31.34375 
Q 40.578125 35.203125 37.859375 37.9375 
Q 35.15625 40.671875 31.296875 40.671875 
z
M 31.296875 46.96875 
Q 34.421875 46.96875 37.296875 45.765625 
Q 40.1875 44.578125 42.28125 42.328125 
Q 44.53125 40.140625 45.65625 37.34375 
Q 46.78125 34.5625 46.78125 31.34375 
Q 46.78125 24.90625 42.265625 20.4375 
Q 37.75 15.96875 31.203125 15.96875 
Q 24.609375 15.96875 20.21875 20.359375 
Q 15.828125 24.75 15.828125 31.34375 
Q 15.828125 37.890625 20.3125 42.421875 
Q 24.8125 46.96875 31.296875 46.96875 
z
" id="DejaVuSans-8728"/>
       <path d="M 48.296875 22.40625 
L 55.90625 20.703125 
Q 50.4375 -1.3125 31.203125 -1.3125 
Q 18.5625 -1.3125 11.359375 8.890625 
Q 4.15625 19.09375 4.15625 33.984375 
Q 4.15625 49.359375 11.671875 58.6875 
Q 19.1875 68.015625 31.84375 68.015625 
Q 50.59375 68.015625 55.90625 46.578125 
L 48.046875 45.015625 
Q 43.75 60.9375 31.78125 60.9375 
Q 22.953125 60.9375 18.09375 53.53125 
Q 13.234375 46.140625 13.234375 32.765625 
Q 13.234375 20.515625 18.203125 13.109375 
Q 23.1875 5.71875 31.390625 5.71875 
Q 44.140625 5.71875 48.296875 22.40625 
z
" id="FranklinGothic-Book-67"/>
      </defs>
      <use transform="translate(-1.64095 39.121875)scale(0.7)" xlink:href="#DejaVuSans-8728"/>
      <use transform="translate(42.313804 0.840625)" xlink:href="#FranklinGothic-Book-67"/>
     </g>
    </g>
   </g>
   <g id="text_18">
    <!-- Compared to 1991-2020 average -->
    <g style="fill:#696969;" transform="translate(144 75.2652)scale(0.3 -0.3)">
     <defs>
      <path d="M 25.34375 -1.3125 
Q 15.1875 -1.3125 9.5 6.203125 
Q 3.8125 13.71875 3.8125 24.859375 
Q 3.8125 36.625 10.203125 43.65625 
Q 16.609375 50.6875 26.125 50.6875 
Q 36.328125 50.6875 42.203125 43.28125 
Q 48.09375 35.890625 48.09375 24.8125 
Q 48.09375 13.28125 41.75 5.984375 
Q 35.40625 -1.3125 25.34375 -1.3125 
z
M 25.921875 4.984375 
Q 31.78125 4.984375 35.734375 9.8125 
Q 39.703125 14.65625 39.703125 24.859375 
Q 39.703125 35.109375 35.546875 39.71875 
Q 31.390625 44.34375 25.828125 44.34375 
Q 20.125 44.34375 16.15625 39.671875 
Q 12.203125 35.015625 12.203125 24.90625 
Q 12.203125 14.203125 16.15625 9.59375 
Q 20.125 4.984375 25.921875 4.984375 
z
" id="FranklinGothic-Book-111"/>
      <path d="M 73.734375 0 
L 66.265625 0 
L 66.265625 30.671875 
Q 66.265625 35.40625 65.59375 37.765625 
Q 64.9375 40.140625 62.390625 42.109375 
Q 59.859375 44.09375 56.6875 44.09375 
Q 52.296875 44.09375 48.21875 40.0625 
Q 44.140625 36.03125 44.140625 27.78125 
L 44.140625 0 
L 36.71875 0 
L 36.71875 32.46875 
Q 36.71875 38.96875 33.609375 41.65625 
Q 30.515625 44.34375 27.09375 44.34375 
Q 22.21875 44.34375 18.59375 40.140625 
Q 14.984375 35.9375 14.984375 29.5 
L 14.984375 0 
L 7.671875 0 
L 7.671875 49.3125 
L 14.265625 49.3125 
L 14.265625 39.84375 
Q 19.78125 50.6875 29.4375 50.6875 
Q 34.765625 50.6875 38.46875 47.21875 
Q 42.1875 43.75 43.265625 38.875 
Q 48.34375 50.6875 58.84375 50.6875 
Q 63.875 50.6875 67.65625 47.796875 
Q 71.4375 44.921875 72.578125 41.1875 
Q 73.734375 37.453125 73.734375 30.671875 
z
" id="FranklinGothic-Book-109"/>
      <path d="M 15.328125 -16.65625 
L 7.671875 -16.65625 
L 7.671875 49.3125 
L 14.546875 49.3125 
L 14.546875 39.75 
Q 19.78125 50.6875 30.125 50.6875 
Q 38.875 50.6875 44.234375 43.375 
Q 49.609375 36.078125 49.609375 24.90625 
Q 49.609375 12.84375 44.09375 5.765625 
Q 38.578125 -1.3125 29.9375 -1.3125 
Q 20.65625 -1.3125 15.328125 7.515625 
z
M 15.328125 31.78125 
L 15.328125 17.921875 
Q 16.0625 12.3125 20.0625 8.640625 
Q 24.078125 4.984375 28.421875 4.984375 
Q 33.453125 4.984375 37.328125 9.375 
Q 41.21875 13.765625 41.21875 24.5625 
Q 41.21875 33.890625 37.703125 38.9375 
Q 34.1875 44 28.375 44 
Q 23.78125 44 20.140625 40.421875 
Q 16.5 36.859375 15.328125 31.78125 
z
" id="FranklinGothic-Book-112"/>
      <path d="M 46.1875 66.65625 
L 46.1875 0 
L 39.203125 0 
L 39.203125 8.453125 
Q 34.03125 -1.3125 23.640625 -1.3125 
Q 14.984375 -1.3125 9.421875 5.9375 
Q 3.859375 13.1875 3.859375 24.265625 
Q 3.859375 35.59375 9.375 43.140625 
Q 14.890625 50.6875 24.03125 50.6875 
Q 32.90625 50.6875 38.53125 42.578125 
L 38.53125 66.65625 
z
M 38.53125 30.28125 
Q 38.53125 36.765625 34.5625 40.671875 
Q 30.609375 44.578125 25.34375 44.578125 
Q 19.625 44.578125 15.9375 39.5 
Q 12.25 34.421875 12.25 25.25 
Q 12.25 15.328125 15.640625 10.15625 
Q 19.046875 4.984375 24.953125 4.984375 
Q 30.328125 4.984375 34.421875 9.46875 
Q 38.53125 13.96875 38.53125 20.015625 
z
" id="FranklinGothic-Book-100"/>
      <path id="FranklinGothic-Book-32"/>
      <path d="M 30.03125 5.28125 
L 30.03125 -0.78125 
Q 25.984375 -1.3125 23 -1.3125 
Q 8.6875 -1.3125 8.6875 13.625 
L 8.6875 43.3125 
L -0.046875 43.3125 
L -0.046875 49.3125 
L 8.6875 49.3125 
L 9.03125 61.71875 
L 16.15625 62.40625 
L 16.15625 49.3125 
L 27.203125 49.3125 
L 27.203125 43.3125 
L 16.15625 43.3125 
L 16.15625 12.359375 
Q 16.15625 4.734375 24.078125 4.734375 
Q 26.703125 4.734375 30.03125 5.28125 
z
" id="FranklinGothic-Book-116"/>
      <path d="M 23.53125 27.984375 
L 23.53125 22.015625 
L 1.46875 22.015625 
L 1.46875 27.984375 
z
" id="FranklinGothic-Book-45"/>
      <path d="M 43.796875 49.3125 
L 26.765625 0 
L 18.796875 0 
L 1.171875 49.3125 
L 9.671875 49.3125 
L 23.390625 9.234375 
L 36.96875 49.3125 
z
" id="FranklinGothic-Book-118"/>
      <path d="M 47.953125 57.03125 
L 47.953125 50.921875 
Q 42.671875 50.921875 40.890625 49.703125 
Q 39.109375 48.484375 38.53125 45.3125 
Q 43.265625 39.84375 43.265625 33.40625 
Q 43.265625 26.65625 38.109375 21.828125 
Q 32.953125 17 24.265625 17 
Q 22.3125 17 20.90625 17.28125 
Q 18.21875 17.828125 17.53125 17.828125 
Q 16.21875 17.828125 14.359375 16.53125 
Q 12.5 15.234375 12.5 13.1875 
Q 12.5 10.25 15.1875 9.375 
Q 17.875 8.5 27.828125 8.25 
Q 36.28125 8.015625 40.3125 7.109375 
Q 44.34375 6.203125 47.125 3.09375 
Q 49.90625 0 49.90625 -4.5 
Q 49.90625 -18.609375 25.09375 -18.609375 
Q 13.328125 -18.609375 7.9375 -15.0625 
Q 2.546875 -11.53125 2.546875 -5.609375 
Q 2.546875 1.5625 10.0625 4.25 
Q 5.21875 7.421875 5.21875 12.203125 
Q 5.21875 17.921875 12.0625 20.953125 
Q 5.671875 26.125 5.671875 33.984375 
Q 5.671875 41.3125 11.140625 46 
Q 16.609375 50.6875 24.46875 50.6875 
Q 30.03125 50.6875 34.578125 48.578125 
Q 35.296875 53.421875 37.953125 55.265625 
Q 40.625 57.125 46.046875 57.125 
Q 46.578125 57.125 47.953125 57.03125 
z
M 24.515625 22.859375 
Q 29.390625 22.859375 32.46875 25.859375 
Q 35.546875 28.859375 35.546875 33.640625 
Q 35.546875 38.53125 32.34375 41.625 
Q 29.15625 44.734375 24.609375 44.734375 
Q 20.265625 44.734375 16.890625 41.828125 
Q 13.53125 38.921875 13.53125 33.546875 
Q 13.53125 28.765625 16.546875 25.8125 
Q 19.578125 22.859375 24.515625 22.859375 
z
M 15.328125 2 
Q 9.96875 -0.34375 9.96875 -4.78125 
Q 9.96875 -8.546875 14.375 -10.625 
Q 18.796875 -12.703125 25.640625 -12.703125 
Q 31.984375 -12.703125 37.25 -10.90625 
Q 42.53125 -9.125 42.53125 -4.890625 
Q 42.53125 -2.59375 40.96875 -1.125 
Q 39.40625 0.34375 36.6875 0.734375 
Q 33.984375 1.125 27.25 1.3125 
Q 19.1875 1.515625 15.328125 2 
z
" id="FranklinGothic-Book-103"/>
     </defs>
     <use xlink:href="#FranklinGothic-Book-67"/>
     <use x="57.910156" xlink:href="#FranklinGothic-Book-111"/>
     <use x="109.863281" xlink:href="#FranklinGothic-Book-109"/>
     <use x="190.384766" xlink:href="#FranklinGothic-Book-112"/>
     <use x="243.802734" xlink:href="#FranklinGothic-Book-97"/>
     <use x="296.683594" xlink:href="#FranklinGothic-Book-114"/>
     <use x="329.642578" xlink:href="#FranklinGothic-Book-101"/>
     <use x="381.693359" xlink:href="#FranklinGothic-Book-100"/>
     <use x="435.550781" xlink:href="#FranklinGothic-Book-32"/>
     <use x="460.550781" xlink:href="#FranklinGothic-Book-116"/>
     <use x="489.8125" xlink:href="#FranklinGothic-Book-111"/>
     <use x="541.765625" xlink:href="#FranklinGothic-Book-32"/>
     <use x="566.765625" xlink:href="#FranklinGothic-Book-49"/>
     <use x="624.033203" xlink:href="#FranklinGothic-Book-57"/>
     <use x="682.675781" xlink:href="#FranklinGothic-Book-57"/>
     <use x="737.193359" xlink:href="#FranklinGothic-Book-49"/>
     <use x="795.835938" xlink:href="#FranklinGothic-Book-45"/>
     <use x="820.835938" xlink:href="#FranklinGothic-Book-50"/>
     <use x="879.478516" xlink:href="#FranklinGothic-Book-48"/>
     <use x="938.121094" xlink:href="#FranklinGothic-Book-50"/>
     <use x="996.763672" xlink:href="#FranklinGothic-Book-48"/>
     <use x="1055.40625" xlink:href="#FranklinGothic-Book-32"/>
     <use x="1080.40625" xlink:href="#FranklinGothic-Book-97"/>
     <use x="1131.037109" xlink:href="#FranklinGothic-Book-118"/>
     <use x="1174.556641" xlink:href="#FranklinGothic-Book-101"/>
     <use x="1226.607422" xlink:href="#FranklinGothic-Book-114"/>
     <use x="1259.566406" xlink:href="#FranklinGothic-Book-97"/>
     <use x="1312.447266" xlink:href="#FranklinGothic-Book-103"/>
     <use x="1361.568359" xlink:href="#FranklinGothic-Book-101"/>
    </g>
   </g>
   <g id="text_19">
    <!-- Global land temperature -->
    <g style="fill:#696969;" transform="translate(144 42.76)scale(0.4 -0.4)">
     <defs>
      <path d="M 57.71875 33.59375 
L 57.71875 -0.875 
L 52.59375 -0.875 
L 50.296875 7.46875 
Q 44.140625 -1.3125 31.984375 -1.3125 
Q 18.796875 -1.3125 11.46875 8.59375 
Q 4.15625 18.5 4.15625 32.671875 
Q 4.15625 47.796875 11.90625 57.90625 
Q 19.671875 68.015625 33.015625 68.015625 
Q 51.421875 68.015625 57.03125 48.6875 
L 49.125 46.78125 
Q 47.40625 54.203125 42.71875 57.5625 
Q 38.03125 60.9375 32.46875 60.9375 
Q 22.609375 60.9375 17.921875 52.96875 
Q 13.234375 45.015625 13.234375 33.015625 
Q 13.234375 20.0625 18.484375 12.765625 
Q 23.734375 5.46875 32.765625 5.46875 
Q 39.796875 5.46875 44.5 10.125 
Q 49.21875 14.796875 49.21875 23 
Q 49.21875 24.515625 49.125 26.609375 
L 32.625 26.609375 
L 32.625 33.59375 
z
" id="FranklinGothic-Book-71"/>
      <path d="M 15.328125 0 
L 7.671875 0 
L 7.671875 66.65625 
L 15.328125 66.65625 
z
" id="FranklinGothic-Book-108"/>
      <path d="M 11.375 0 
L 7.671875 0 
L 7.671875 66.65625 
L 15.328125 66.65625 
L 15.328125 41.109375 
Q 20.609375 50.6875 29.890625 50.6875 
Q 38.375 50.6875 44.109375 44 
Q 49.859375 37.3125 49.859375 24.5625 
Q 49.859375 13.578125 44.21875 6.125 
Q 38.578125 -1.3125 29.546875 -1.3125 
Q 19.484375 -1.3125 14.109375 8.15625 
z
M 15.328125 19.34375 
Q 15.875 11.765625 20 8.34375 
Q 24.125 4.9375 28.71875 4.9375 
Q 34.578125 4.9375 38.15625 10.015625 
Q 41.75 15.09375 41.75 23.921875 
Q 41.75 33.453125 38.28125 38.890625 
Q 34.8125 44.34375 28.65625 44.34375 
Q 23.828125 44.34375 19.9375 40.453125 
Q 16.0625 36.578125 15.328125 30.421875 
z
" id="FranklinGothic-Book-98"/>
      <path d="M 46.53125 0 
L 39.359375 0 
L 39.359375 31.6875 
Q 39.359375 38.53125 36.375 41.3125 
Q 33.40625 44.09375 29.15625 44.09375 
Q 23.296875 44.09375 19.3125 39.40625 
Q 15.328125 34.71875 15.328125 27.046875 
L 15.328125 0 
L 7.671875 0 
L 7.671875 49.3125 
L 14.796875 49.3125 
L 14.796875 40.234375 
Q 20.796875 50.6875 30.375 50.6875 
Q 35.890625 50.6875 39.765625 47.828125 
Q 43.65625 44.96875 45.09375 41.40625 
Q 46.53125 37.84375 46.53125 28.515625 
z
" id="FranklinGothic-Book-110"/>
      <path d="M 46.484375 0 
L 39.59375 0 
L 39.59375 9.421875 
Q 34.328125 -1.3125 23.875 -1.3125 
Q 16.3125 -1.3125 11.984375 3.65625 
Q 7.671875 8.640625 7.671875 17.828125 
L 7.671875 49.3125 
L 15.328125 49.3125 
L 15.328125 17.828125 
Q 15.328125 10.5 18.375 7.734375 
Q 21.4375 4.984375 25.09375 4.984375 
Q 28.8125 4.984375 31.8125 7.078125 
Q 34.8125 9.1875 36.8125 13.0625 
Q 38.8125 16.9375 38.8125 21.53125 
L 38.8125 49.3125 
L 46.484375 49.3125 
z
" id="FranklinGothic-Book-117"/>
     </defs>
     <use xlink:href="#FranklinGothic-Book-71"/>
     <use x="64.697266" xlink:href="#FranklinGothic-Book-108"/>
     <use x="87.695312" xlink:href="#FranklinGothic-Book-111"/>
     <use x="139.648438" xlink:href="#FranklinGothic-Book-98"/>
     <use x="193.359375" xlink:href="#FranklinGothic-Book-97"/>
     <use x="246.240234" xlink:href="#FranklinGothic-Book-108"/>
     <use x="269.238281" xlink:href="#FranklinGothic-Book-32"/>
     <use x="294.238281" xlink:href="#FranklinGothic-Book-108"/>
     <use x="317.236328" xlink:href="#FranklinGothic-Book-97"/>
     <use x="370.117188" xlink:href="#FranklinGothic-Book-110"/>
     <use x="424.316406" xlink:href="#FranklinGothic-Book-100"/>
     <use x="478.173828" xlink:href="#FranklinGothic-Book-32"/>
     <use x="503.173828" xlink:href="#FranklinGothic-Book-116"/>
     <use x="532.185547" xlink:href="#FranklinGothic-Book-101"/>
     <use x="584.236328" xlink:href="#FranklinGothic-Book-109"/>
     <use x="664.757812" xlink:href="#FranklinGothic-Book-112"/>
     <use x="718.175781" xlink:href="#FranklinGothic-Book-101"/>
     <use x="770.226562" xlink:href="#FranklinGothic-Book-114"/>
     <use x="803.185547" xlink:href="#FranklinGothic-Book-97"/>
     <use x="856.066406" xlink:href="#FranklinGothic-Book-116"/>
     <use x="886.828125" xlink:href="#FranklinGothic-Book-117"/>
     <use x="940.978516" xlink:href="#FranklinGothic-Book-114"/>
     <use x="973.9375" xlink:href="#FranklinGothic-Book-101"/>
    </g>
   </g>
   <g id="legend_1">
    <g id="line2d_16"/>
    <g id="text_20">
     <!-- CRUTEM5 (1857-2023) -->
     <g style="fill:#696969;" transform="translate(185.856 129.7184)scale(0.2 -0.2)">
      <defs>
       <path d="M 56.296875 0 
L 47.5625 0 
L 35.25 28.859375 
L 16.15625 28.859375 
L 16.15625 0 
L 8.34375 0 
L 8.34375 66.65625 
L 34.625 66.65625 
Q 45.3125 66.65625 50.453125 60.8125 
Q 55.609375 54.984375 55.609375 48.046875 
Q 55.609375 42.71875 52.734375 37.828125 
Q 49.859375 32.953125 43.21875 30.859375 
z
M 16.15625 35.640625 
L 33.59375 35.640625 
Q 40.484375 35.640625 43.875 39.28125 
Q 47.265625 42.921875 47.265625 48.1875 
Q 47.265625 53.46875 43.671875 56.390625 
Q 40.09375 59.328125 34.625 59.328125 
L 16.15625 59.328125 
z
" id="FranklinGothic-Book-82"/>
       <path d="M 46.34375 66.65625 
L 53.265625 66.65625 
L 53.265625 23.140625 
Q 53.265625 10.0625 46.84375 4.375 
Q 40.4375 -1.3125 30.03125 -1.3125 
Q 18.453125 -1.3125 12.890625 4.546875 
Q 7.328125 10.40625 7.328125 23.140625 
L 7.328125 66.65625 
L 15.671875 66.65625 
L 15.671875 23.140625 
Q 15.671875 15.375 17.46875 12.203125 
Q 19.28125 9.03125 22.9375 7.515625 
Q 26.609375 6 30.609375 6 
Q 38.328125 6 42.328125 10.046875 
Q 46.34375 14.109375 46.34375 23.140625 
z
" id="FranklinGothic-Book-85"/>
       <path d="M 28.421875 0 
L 20.125 0 
L 20.125 59.328125 
L 1.03125 59.328125 
L 1.03125 66.65625 
L 47.5625 66.65625 
L 47.5625 59.328125 
L 28.421875 59.328125 
z
" id="FranklinGothic-Book-84"/>
       <path d="M 51.46875 7.328125 
L 51.46875 0 
L 8.34375 0 
L 8.34375 66.65625 
L 50.53125 66.65625 
L 50.53125 59.328125 
L 16.703125 59.328125 
L 16.703125 38.140625 
L 43.5625 38.140625 
L 43.5625 31.34375 
L 16.703125 31.34375 
L 16.703125 7.328125 
z
" id="FranklinGothic-Book-69"/>
       <path d="M 72.703125 0 
L 64.59375 0 
L 64.59375 58.203125 
L 42.921875 0 
L 37.25 0 
L 15.4375 58.203125 
L 15.4375 0 
L 8.34375 0 
L 8.34375 66.65625 
L 20.75 66.65625 
L 40.828125 13.328125 
L 60.5 66.65625 
L 72.703125 66.65625 
z
" id="FranklinGothic-Book-77"/>
       <path d="M 24.703125 -16.65625 
L 19.578125 -16.65625 
Q 5.21875 2.203125 5.21875 25.09375 
Q 5.21875 46.96875 19.578125 66.65625 
L 24.703125 66.65625 
Q 12.359375 48.25 12.359375 25 
Q 12.359375 2.828125 24.703125 -16.65625 
z
" id="FranklinGothic-Book-40"/>
       <path d="M 28.078125 0 
L 19.484375 0 
Q 19.484375 16.75 26.3125 32.59375 
Q 33.15625 48.4375 43.0625 59.328125 
L 6.890625 59.328125 
L 7.71875 66.65625 
L 51.765625 66.65625 
L 51.765625 61.671875 
Q 39.84375 47.3125 33.9375 31.78125 
Q 28.03125 16.265625 28.03125 2.296875 
Q 28.03125 1.515625 28.078125 0 
z
" id="FranklinGothic-Book-55"/>
       <path d="M 19.34375 31.34375 
L 19.34375 37.984375 
L 26.953125 37.984375 
Q 35.296875 37.984375 38.890625 41.40625 
Q 42.484375 44.828125 42.484375 49.703125 
Q 42.484375 55.078125 38.46875 58.21875 
Q 34.46875 61.375 28.421875 61.375 
Q 17.1875 61.375 12.890625 50.53125 
L 5.375 52.6875 
Q 11.8125 68.015625 29.203125 68.015625 
Q 38.96875 68.015625 44.96875 62.8125 
Q 50.984375 57.625 50.984375 50.296875 
Q 50.984375 44.625 47.359375 40.40625 
Q 43.75 36.1875 38.09375 35.109375 
Q 44.4375 34.1875 49 29.78125 
Q 53.5625 25.390625 53.5625 18.40625 
Q 53.5625 10.0625 46.765625 4.375 
Q 39.984375 -1.3125 28.171875 -1.3125 
Q 18.796875 -1.3125 12.125 3.125 
Q 5.46875 7.5625 2.9375 14.9375 
L 10.6875 17.53125 
Q 14.203125 5.46875 28.03125 5.46875 
Q 37.015625 5.46875 40.9375 9.296875 
Q 44.875 13.140625 44.875 18.453125 
Q 44.875 24.21875 40.15625 27.78125 
Q 35.453125 31.34375 26.953125 31.34375 
z
" id="FranklinGothic-Book-51"/>
       <path d="M 4.640625 66.65625 
L 9.71875 66.65625 
Q 24.125 47.796875 24.125 24.90625 
Q 24.125 3.03125 9.71875 -16.65625 
L 4.640625 -16.65625 
Q 17 1.765625 17 25 
Q 17 47.171875 4.640625 66.65625 
z
" id="FranklinGothic-Book-41"/>
      </defs>
      <use xlink:href="#FranklinGothic-Book-67"/>
      <use x="57.910156" xlink:href="#FranklinGothic-Book-82"/>
      <use x="118.314453" xlink:href="#FranklinGothic-Book-85"/>
      <use x="178.910156" xlink:href="#FranklinGothic-Book-84"/>
      <use x="227.445312" xlink:href="#FranklinGothic-Book-69"/>
      <use x="282.230469" xlink:href="#FranklinGothic-Book-77"/>
      <use x="363.236328" xlink:href="#FranklinGothic-Book-53"/>
      <use x="421.878906" xlink:href="#FranklinGothic-Book-32"/>
      <use x="446.878906" xlink:href="#FranklinGothic-Book-40"/>
      <use x="476.224609" xlink:href="#FranklinGothic-Book-49"/>
      <use x="534.242188" xlink:href="#FranklinGothic-Book-56"/>
      <use x="592.884766" xlink:href="#FranklinGothic-Book-53"/>
      <use x="647.152344" xlink:href="#FranklinGothic-Book-55"/>
      <use x="705.794922" xlink:href="#FranklinGothic-Book-45"/>
      <use x="730.794922" xlink:href="#FranklinGothic-Book-50"/>
      <use x="789.4375" xlink:href="#FranklinGothic-Book-48"/>
      <use x="848.080078" xlink:href="#FranklinGothic-Book-50"/>
      <use x="906.722656" xlink:href="#FranklinGothic-Book-51"/>
      <use x="965.365234" xlink:href="#FranklinGothic-Book-41"/>
     </g>
    </g>
    <g id="line2d_17"/>
    <g id="text_21">
     <!-- GHCNv4 (1850-2023) -->
     <g style="fill:#e69f00;" transform="translate(185.856 157.04965)scale(0.2 -0.2)">
      <defs>
       <path d="M 55.953125 0 
L 47.609375 0 
L 47.609375 31.734375 
L 16.703125 31.734375 
L 16.703125 0 
L 8.34375 0 
L 8.34375 66.65625 
L 16.703125 66.65625 
L 16.703125 39.0625 
L 47.609375 39.0625 
L 47.609375 66.65625 
L 55.953125 66.65625 
z
" id="FranklinGothic-Book-72"/>
       <path d="M 57.421875 0 
L 49.3125 0 
L 14.84375 58.109375 
L 14.9375 53.71875 
Q 15.09375 51.21875 15.09375 49.515625 
L 15.09375 0 
L 8.34375 0 
L 8.34375 66.65625 
L 18.796875 66.65625 
L 51.03125 12.3125 
L 50.921875 16.9375 
Q 50.828125 19.671875 50.828125 21.78125 
L 50.828125 66.65625 
L 57.421875 66.65625 
z
" id="FranklinGothic-Book-78"/>
      </defs>
      <use xlink:href="#FranklinGothic-Book-71"/>
      <use x="64.697266" xlink:href="#FranklinGothic-Book-72"/>
      <use x="128.955078" xlink:href="#FranklinGothic-Book-67"/>
      <use x="186.865234" xlink:href="#FranklinGothic-Book-78"/>
      <use x="252.587891" xlink:href="#FranklinGothic-Book-118"/>
      <use x="297.607422" xlink:href="#FranklinGothic-Book-52"/>
      <use x="356.25" xlink:href="#FranklinGothic-Book-32"/>
      <use x="381.25" xlink:href="#FranklinGothic-Book-40"/>
      <use x="410.595703" xlink:href="#FranklinGothic-Book-49"/>
      <use x="468.613281" xlink:href="#FranklinGothic-Book-56"/>
      <use x="527.255859" xlink:href="#FranklinGothic-Book-53"/>
      <use x="585.898438" xlink:href="#FranklinGothic-Book-48"/>
      <use x="644.541016" xlink:href="#FranklinGothic-Book-45"/>
      <use x="669.541016" xlink:href="#FranklinGothic-Book-50"/>
      <use x="728.183594" xlink:href="#FranklinGothic-Book-48"/>
      <use x="786.826172" xlink:href="#FranklinGothic-Book-50"/>
      <use x="845.46875" xlink:href="#FranklinGothic-Book-51"/>
      <use x="904.111328" xlink:href="#FranklinGothic-Book-41"/>
     </g>
    </g>
    <g id="line2d_18"/>
    <g id="text_22">
     <!-- Berkeley Earth (1850-2023) -->
     <g style="fill:#009e73;" transform="translate(185.856 184.3809)scale(0.2 -0.2)">
      <defs>
       <path d="M 8.34375 0 
L 8.34375 66.65625 
L 34.71875 66.65625 
Q 44.671875 66.65625 49.484375 61.765625 
Q 54.296875 56.890625 54.296875 50.4375 
Q 54.296875 39.109375 42.484375 35.40625 
Q 49.515625 33.59375 52.921875 28.953125 
Q 56.34375 24.3125 56.34375 18.453125 
Q 56.34375 10.59375 51.046875 5.296875 
Q 45.75 0 34.71875 0 
z
M 16.40625 38.09375 
L 30.90625 38.09375 
Q 39.9375 38.09375 42.96875 41.53125 
Q 46 44.96875 46 49.609375 
Q 46 54.203125 42.75 57.03125 
Q 39.5 59.859375 33.0625 59.859375 
L 16.40625 59.859375 
z
M 16.40625 7.328125 
L 34.28125 7.328125 
Q 40.828125 7.328125 44.390625 10.5 
Q 47.953125 13.671875 47.953125 18.75 
Q 47.953125 22.3125 46.34375 25.359375 
Q 44.734375 28.421875 41.796875 30.078125 
Q 38.875 31.734375 33.0625 31.734375 
L 16.40625 31.734375 
z
" id="FranklinGothic-Book-66"/>
       <path d="M 48.390625 0 
L 40.4375 0 
L 26.03125 27.546875 
L 15.328125 15.234375 
L 15.328125 0 
L 7.671875 0 
L 7.671875 66.65625 
L 15.328125 66.65625 
L 15.328125 23.96875 
L 38.234375 49.3125 
L 46.4375 49.3125 
L 31 31.984375 
z
" id="FranklinGothic-Book-107"/>
       <path d="M 41.5 49.3125 
L 21.734375 -5.765625 
Q 17.4375 -17.671875 8.015625 -17.671875 
Q 5.03125 -17.671875 1.421875 -16.65625 
L 1.421875 -10.640625 
Q 4.390625 -11.328125 6.546875 -11.328125 
Q 10.203125 -11.328125 12.671875 -9.21875 
Q 15.140625 -7.125 17.578125 0.921875 
L 0.53125 49.3125 
L 8.34375 49.3125 
L 21.53125 12.25 
L 35.0625 49.3125 
z
" id="FranklinGothic-Book-121"/>
       <path d="M 46.34375 0 
L 38.671875 0 
L 38.671875 29.9375 
Q 38.671875 35.203125 38.015625 37.84375 
Q 37.359375 40.484375 34.890625 42.40625 
Q 32.421875 44.34375 29.203125 44.34375 
Q 23.296875 44.34375 19.3125 39.5 
Q 15.328125 34.671875 15.328125 26.5625 
L 15.328125 0 
L 7.671875 0 
L 7.671875 66.65625 
L 15.328125 66.65625 
L 15.328125 40.234375 
Q 20.5625 50.6875 30.28125 50.6875 
Q 34.625 50.6875 38.015625 48.96875 
Q 41.40625 47.265625 43.203125 44.484375 
Q 45.015625 41.703125 45.671875 38.984375 
Q 46.34375 36.28125 46.34375 29.9375 
z
" id="FranklinGothic-Book-104"/>
      </defs>
      <use xlink:href="#FranklinGothic-Book-66"/>
      <use x="60.449219" xlink:href="#FranklinGothic-Book-101"/>
      <use x="112.5" xlink:href="#FranklinGothic-Book-114"/>
      <use x="144.958984" xlink:href="#FranklinGothic-Book-107"/>
      <use x="192.806641" xlink:href="#FranklinGothic-Book-101"/>
      <use x="244.857422" xlink:href="#FranklinGothic-Book-108"/>
      <use x="267.855469" xlink:href="#FranklinGothic-Book-101"/>
      <use x="318.28125" xlink:href="#FranklinGothic-Book-121"/>
      <use x="359.785156" xlink:href="#FranklinGothic-Book-32"/>
      <use x="384.785156" xlink:href="#FranklinGothic-Book-69"/>
      <use x="439.570312" xlink:href="#FranklinGothic-Book-97"/>
      <use x="492.451172" xlink:href="#FranklinGothic-Book-114"/>
      <use x="528.785156" xlink:href="#FranklinGothic-Book-116"/>
      <use x="559.546875" xlink:href="#FranklinGothic-Book-104"/>
      <use x="613.550781" xlink:href="#FranklinGothic-Book-32"/>
      <use x="638.550781" xlink:href="#FranklinGothic-Book-40"/>
      <use x="667.896484" xlink:href="#FranklinGothic-Book-49"/>
      <use x="725.914062" xlink:href="#FranklinGothic-Book-56"/>
      <use x="784.556641" xlink:href="#FranklinGothic-Book-53"/>
      <use x="843.199219" xlink:href="#FranklinGothic-Book-48"/>
      <use x="901.841797" xlink:href="#FranklinGothic-Book-45"/>
      <use x="926.841797" xlink:href="#FranklinGothic-Book-50"/>
      <use x="985.484375" xlink:href="#FranklinGothic-Book-48"/>
      <use x="1044.126953" xlink:href="#FranklinGothic-Book-50"/>
      <use x="1102.769531" xlink:href="#FranklinGothic-Book-51"/>
      <use x="1161.412109" xlink:href="#FranklinGothic-Book-41"/>
     </g>
    </g>
   </g>
   <g id="line2d_19">
    <path clip-path="url(#pb0818bd2df)" d="M 184.581818 508.651382 
L 189.273358 463.505846 
L 193.964898 482.034017 
L 198.656437 481.26426 
L 203.347977 450.474005 
L 208.039517 461.534189 
L 212.731056 475.902975 
L 217.422596 517.105198 
L 222.114136 452.580707 
L 226.805675 423.370478 
L 231.497215 487.489834 
L 236.188755 494.336615 
L 240.880294 554.04 
L 245.571834 448.59688 
L 250.263374 481.750422 
L 254.954913 449.069537 
L 259.646453 435.673075 
L 264.337993 412.431834 
L 269.029532 458.374136 
L 273.721072 420.385984 
L 278.412612 463.019684 
L 283.104151 478.117712 
L 287.795691 464.545692 
L 292.487231 437.550201 
L 297.17877 416.820796 
L 301.87031 497.496667 
L 306.56185 462.114882 
L 311.253389 393.079889 
L 315.944929 334.834989 
L 320.636469 449.636726 
L 325.328008 470.676734 
L 330.019548 430.97351 
L 334.711088 456.415984 
L 339.402627 472.918481 
L 344.094167 507.787094 
L 348.785707 481.574864 
L 353.477246 483.357458 
L 358.168786 488.273095 
L 362.860326 454.444328 
L 367.551865 423.235433 
L 372.243405 482.925314 
L 376.934945 473.445156 
L 381.626484 468.151393 
L 386.318024 468.151393 
L 391.009564 445.193746 
L 395.701104 446.746764 
L 400.392643 437.96884 
L 405.084183 424.410324 
L 409.775723 447.286944 
L 414.467262 406.935504 
L 419.158802 388.785458 
L 423.850342 389.501197 
L 428.541881 429.933664 
L 433.233421 442.114721 
L 437.924961 464.59971 
L 442.6165 439.778443 
L 447.30804 413.984852 
L 451.99958 481.399305 
L 456.691119 447.016854 
L 461.382659 448.772438 
L 466.074199 441.088379 
L 470.765738 450.730591 
L 475.457278 453.796112 
L 480.148818 433.147734 
L 484.840357 382.262786 
L 489.531897 387.421504 
L 494.223437 444.748098 
L 498.914976 479.576198 
L 503.606516 460.629388 
L 508.298056 421.560875 
L 512.989595 427.273278 
L 517.681135 392.769285 
L 522.372675 418.832966 
L 527.064214 416.631733 
L 531.755754 405.598558 
L 536.447294 402.235938 
L 541.138833 372.769124 
L 545.830373 408.718097 
L 550.521913 390.89216 
L 555.213452 457.617885 
L 559.904992 395.915833 
L 564.596532 379.764454 
L 569.288071 382.451849 
L 573.979611 439.58938 
L 578.671151 393.7146 
L 583.36269 413.201591 
L 588.05423 406.543873 
L 592.74577 382.667921 
L 597.43731 353.741286 
L 602.128849 368.474693 
L 606.820389 369.487531 
L 611.511929 371.378161 
L 616.203468 376.887996 
L 620.895008 371.513206 
L 625.586548 356.550222 
L 630.278087 399.77812 
L 634.969627 383.667254 
L 639.661167 363.86966 
L 644.352706 373.309304 
L 649.044246 399.183922 
L 653.735786 432.648068 
L 658.427325 389.744278 
L 663.118865 386.44918 
L 667.810405 349.136252 
L 672.501944 399.35948 
L 677.193484 388.191261 
L 681.885024 442.952 
L 686.576563 380.966354 
L 691.268103 366.057388 
L 695.959643 366.881163 
L 700.651182 395.510698 
L 705.342722 359.723779 
L 710.034262 369.392999 
L 714.725801 350.243621 
L 719.417341 424.896486 
L 724.108881 403.397325 
L 728.80042 389.609233 
L 733.49196 372.958187 
L 738.1835 405.301459 
L 742.875039 390.878656 
L 747.566579 370.973026 
L 756.949658 405.612063 
L 761.641198 328.447362 
L 766.332738 408.069882 
L 771.024277 361.614409 
L 775.715817 424.005189 
L 780.407357 340.236788 
L 785.098896 366.881163 
L 789.790436 364.774461 
L 794.481976 321.789644 
L 799.173516 292.741469 
L 803.865055 373.727943 
L 808.556595 311.661271 
L 813.248135 367.988532 
L 817.939674 371.877827 
L 822.631214 340.358329 
L 827.322754 315.010386 
L 832.014293 282.370014 
L 836.705833 327.029389 
L 841.397373 277.170783 
L 846.088912 283.28832 
L 850.780452 342.681102 
L 855.471992 335.780304 
L 860.163531 307.191282 
L 864.855071 258.129441 
L 869.546611 308.217624 
L 874.23815 284.071581 
L 878.92969 229.000239 
L 883.62123 269.7163 
L 888.312769 283.153275 
L 893.004309 249.689129 
L 897.695849 222.085936 
L 902.387388 230.499238 
L 907.078928 262.221304 
L 911.770468 200.897378 
L 916.462007 229.337851 
L 921.153547 196.643461 
L 925.845087 244.422375 
L 930.536626 230.283166 
L 935.228166 202.639459 
L 939.919706 230.755823 
L 944.611245 237.697135 
L 949.302785 218.88537 
L 953.994325 223.422881 
L 958.685864 179.776343 
L 963.377404 147.716665 
L 968.068944 168.56761 
L 972.760483 195.238994 
L 977.452023 162.909226 
L 982.143563 137.277688 
L 986.835102 179.668307 
L 991.526642 179.965406 
L 996.218182 117.020941 
L 996.218182 117.020941 
" style="fill:none;stroke:#009e73;stroke-linecap:round;stroke-width:3;"/>
   </g>
   <g id="line2d_20">
    <path clip-path="url(#pb0818bd2df)" d="M 184.581818 450.389142 
L 189.273358 438.935535 
L 193.964898 453.867553 
L 198.656437 455.319827 
L 203.347977 442.986493 
L 208.039517 455.06967 
L 212.731056 484.760132 
L 217.422596 480.51105 
L 222.114136 466.777664 
L 226.805675 443.811901 
L 231.497215 491.438133 
L 236.188755 475.475749 
L 240.880294 494.727437 
L 245.571834 448.771293 
L 250.263374 482.038881 
L 254.954913 473.699138 
L 259.646453 463.906513 
L 264.337993 473.69009 
L 269.029532 461.59114 
L 273.721072 450.960885 
L 278.412612 474.346111 
L 283.104151 478.640663 
L 287.795691 469.803482 
L 292.487231 464.349488 
L 297.17877 452.687368 
L 301.87031 489.864657 
L 306.56185 476.916233 
L 311.253389 449.592178 
L 315.944929 429.102775 
L 320.636469 463.198337 
L 325.328008 470.731876 
L 330.019548 472.671027 
L 334.711088 468.838261 
L 339.402627 492.869245 
L 344.094167 511.170879 
L 348.785707 499.641022 
L 353.477246 464.947143 
L 358.168786 480.57575 
L 362.860326 475.571118 
L 367.551865 431.820299 
L 372.243405 448.976751 
L 376.934945 456.027327 
L 381.626484 475.532076 
L 386.318024 489.250985 
L 391.009564 436.695625 
L 395.701104 455.552226 
L 400.392643 433.900154 
L 405.084183 426.304589 
L 409.775723 447.99018 
L 414.467262 436.915451 
L 423.850342 417.058762 
L 428.541881 443.407941 
L 433.233421 436.112987 
L 437.924961 460.137786 
L 442.6165 440.102634 
L 447.30804 429.124342 
L 451.99958 469.69446 
L 456.691119 456.47727 
L 461.382659 460.747258 
L 466.074199 449.724454 
L 470.765738 462.726733 
L 475.457278 472.680399 
L 480.148818 451.654179 
L 484.840357 411.464807 
L 489.531897 414.211743 
L 494.223437 459.877608 
L 498.914976 501.758365 
L 503.606516 476.953047 
L 508.298056 443.488158 
L 512.989595 446.72709 
L 517.681135 415.062257 
L 522.372675 434.69912 
L 527.064214 433.092544 
L 531.755754 422.936716 
L 536.447294 421.188937 
L 541.138833 396.522256 
L 545.830373 425.178355 
L 550.521913 404.148367 
L 555.213452 455.929312 
L 559.904992 400.550958 
L 564.596532 387.262113 
L 569.288071 388.914915 
L 573.979611 440.622571 
L 578.671151 386.434531 
L 583.36269 410.035856 
L 588.05423 404.957962 
L 592.74577 373.820938 
L 597.43731 344.762378 
L 602.128849 372.98478 
L 606.820389 366.979114 
L 611.511929 376.762812 
L 616.203468 381.914818 
L 620.895008 367.251715 
L 625.586548 353.927854 
L 630.278087 397.241154 
L 634.969627 394.710452 
L 639.661167 372.756959 
L 644.352706 386.280782 
L 649.044246 395.937484 
L 653.735786 424.132742 
L 658.427325 394.877219 
L 663.118865 389.017766 
L 667.810405 344.061764 
L 672.501944 387.048216 
L 677.193484 413.643245 
L 681.885024 445.189063 
L 686.576563 394.607507 
L 691.268103 388.752537 
L 695.959643 375.487204 
L 700.651182 397.447705 
L 705.342722 384.568844 
L 710.034262 385.963629 
L 714.725801 375.957268 
L 719.417341 438.655763 
L 724.108881 409.892181 
L 728.80042 409.909345 
L 733.49196 382.300669 
L 738.1835 427.293307 
L 747.566579 388.749809 
L 752.258119 396.155811 
L 756.949658 418.834725 
L 761.641198 340.754648 
L 766.332738 411.14502 
L 771.024277 376.061604 
L 775.715817 415.910812 
L 780.407357 354.952548 
L 785.098896 380.228606 
L 789.790436 371.013204 
L 794.481976 340.515497 
L 799.173516 297.174553 
L 803.865055 378.251588 
L 808.556595 323.399572 
L 813.248135 364.36995 
L 817.939674 368.703705 
L 822.631214 359.121589 
L 827.322754 350.197668 
L 832.014293 292.364588 
L 836.705833 335.53836 
L 841.397373 290.056372 
L 846.088912 292.466074 
L 850.780452 358.478802 
L 855.471992 343.539127 
L 860.163531 327.914153 
L 864.855071 263.008281 
L 869.546611 315.65061 
L 874.23815 297.421617 
L 878.92969 248.300195 
L 883.62123 281.706703 
L 888.312769 284.718314 
L 893.004309 262.9193 
L 897.695849 237.546495 
L 902.387388 241.109887 
L 907.078928 280.775095 
L 911.770468 199.104969 
L 916.462007 219.433344 
L 921.153547 193.308029 
L 925.845087 245.019142 
L 930.536626 234.650334 
L 935.228166 200.201022 
L 939.919706 211.781466 
L 944.611245 217.260173 
L 949.302785 219.235328 
L 953.994325 209.077028 
L 958.685864 172.652615 
L 963.377404 123.507046 
L 968.068944 145.433476 
L 972.760483 177.129019 
L 977.452023 145.783999 
L 982.143563 123.064855 
L 986.835102 168.328529 
L 991.526642 158.15736 
L 996.218182 100.44 
L 996.218182 100.44 
" style="fill:none;stroke:#e69f00;stroke-linecap:round;stroke-width:3;"/>
   </g>
   <g id="line2d_21">
    <path clip-path="url(#pb0818bd2df)" d="M 217.422596 447.249674 
L 222.114136 438.759141 
L 226.805675 393.444775 
L 231.497215 467.302892 
L 236.188755 424.543296 
L 240.880294 460.148301 
L 245.571834 396.245686 
L 250.263374 480.421351 
L 254.954913 418.672714 
L 259.646453 417.770049 
L 264.337993 451.517328 
L 269.029532 422.121288 
L 273.721072 416.601297 
L 278.412612 443.748819 
L 283.104151 462.659383 
L 287.795691 412.295542 
L 292.487231 419.548853 
L 297.17877 431.041007 
L 301.87031 486.470838 
L 306.56185 437.242466 
L 311.253389 395.429365 
L 315.944929 361.689769 
L 320.636469 447.616324 
L 325.328008 420.111456 
L 330.019548 427.118084 
L 334.711088 408.606056 
L 339.402627 452.561879 
L 344.094167 473.039988 
L 348.785707 470.083044 
L 353.477246 445.144841 
L 358.168786 454.811347 
L 362.860326 453.966338 
L 367.551865 400.635152 
L 372.243405 429.255607 
L 376.934945 443.509272 
L 381.626484 453.612242 
L 386.318024 465.628567 
L 391.009564 431.686578 
L 395.701104 448.339507 
L 400.392643 418.747657 
L 405.084183 406.779671 
L 409.775723 420.15982 
L 414.467262 410.903518 
L 419.158802 388.845337 
L 423.850342 383.607029 
L 428.541881 421.290946 
L 433.233421 426.527134 
L 437.924961 443.928263 
L 442.6165 421.584288 
L 447.30804 387.815763 
L 451.99958 453.848319 
L 456.691119 429.026886 
L 461.382659 423.685106 
L 466.074199 412.323015 
L 470.765738 425.769438 
L 475.457278 428.386984 
L 480.148818 407.901664 
L 484.840357 367.926299 
L 489.531897 368.191253 
L 494.223437 414.402758 
L 498.914976 463.317993 
L 503.606516 425.355261 
L 508.298056 403.092319 
L 512.989595 398.163597 
L 517.681135 372.843287 
L 522.372675 396.836751 
L 527.064214 398.18346 
L 531.755754 407.73909 
L 536.447294 390.808112 
L 541.138833 366.742665 
L 545.830373 391.741119 
L 550.521913 380.109985 
L 555.213452 433.77281 
L 559.904992 375.588536 
L 564.596532 370.692079 
L 569.288071 370.531422 
L 573.979611 408.903111 
L 578.671151 362.673808 
L 583.36269 385.125716 
L 588.05423 377.612801 
L 592.74577 365.285878 
L 597.43731 333.603506 
L 602.128849 358.825938 
L 606.820389 365.434542 
L 611.511929 362.544954 
L 616.203468 365.330022 
L 620.895008 356.425097 
L 625.586548 341.859272 
L 630.278087 378.677413 
L 634.969627 372.992809 
L 639.661167 360.523323 
L 644.352706 358.779537 
L 649.044246 376.491309 
L 653.735786 407.115675 
L 658.427325 374.936427 
L 663.118865 366.9433 
L 667.810405 336.133539 
L 672.501944 380.550406 
L 677.193484 387.958805 
L 681.885024 426.179984 
L 686.576563 368.766925 
L 691.268103 349.327392 
L 695.959643 353.231035 
L 700.651182 366.802016 
L 705.342722 349.100788 
L 710.034262 351.275581 
L 714.725801 352.288849 
L 719.417341 401.728343 
L 724.108881 393.236042 
L 728.80042 376.54623 
L 733.49196 369.867789 
L 738.1835 388.910857 
L 742.875039 373.934007 
L 747.566579 363.684285 
L 752.258119 388.636308 
L 756.949658 392.782187 
L 761.641198 333.117543 
L 766.332738 400.701756 
L 771.024277 365.892942 
L 775.715817 412.674507 
L 780.407357 341.606668 
L 785.098896 363.069016 
L 794.481976 334.819267 
L 799.173516 306.21966 
L 803.865055 357.753949 
L 808.556595 303.963331 
L 813.248135 362.352457 
L 817.939674 361.024337 
L 822.631214 338.633237 
L 827.322754 313.026036 
L 832.014293 296.470635 
L 836.705833 317.341806 
L 841.397373 276.25591 
L 846.088912 294.808308 
L 850.780452 341.469269 
L 855.471992 327.776479 
L 860.163531 303.182005 
L 864.855071 263.997259 
L 869.546611 318.563144 
L 874.23815 276.704334 
L 878.92969 219.217319 
L 883.62123 265.816159 
L 888.312769 279.657971 
L 893.004309 247.576837 
L 897.695849 231.399083 
L 902.387388 232.477022 
L 907.078928 249.625767 
L 911.770468 215.208659 
L 916.462007 224.73752 
L 921.153547 209.272963 
L 925.845087 245.301219 
L 930.536626 235.974972 
L 935.228166 204.527205 
L 939.919706 238.611224 
L 944.611245 229.961819 
L 949.302785 218.733159 
L 953.994325 213.292045 
L 958.685864 166.240316 
L 963.377404 144.216616 
L 968.068944 167.092501 
L 972.760483 197.768559 
L 977.452023 166.159555 
L 982.143563 142.827209 
L 986.835102 183.14947 
L 991.526642 186.617088 
L 996.218182 117.592393 
L 996.218182 117.592393 
" style="fill:none;stroke:#696969;stroke-linecap:round;stroke-width:3;"/>
   </g>
  </g>
  <g id="text_23">
   <g id="patch_4">
    <path d="M 875.379375 646.18275 
L 1040.76 646.18275 
L 1040.76 628.26525 
L 875.379375 628.26525 
z
" style="fill:#ffffff;stroke:#ffffff;stroke-linejoin:miter;"/>
   </g>
   <!-- Created: 2024-01-18 12:40:51 -->
   <g style="fill:#696969;" transform="translate(879.339375 640.224)scale(0.12 -0.12)">
    <defs>
     <path d="M 17.96875 49.3125 
L 17.96875 38.375 
L 7.078125 38.375 
L 7.078125 49.3125 
z
M 17.96875 10.984375 
L 17.96875 0 
L 7.078125 0 
L 7.078125 10.984375 
z
" id="FranklinGothic-Book-58"/>
    </defs>
    <use xlink:href="#FranklinGothic-Book-67"/>
    <use x="57.910156" xlink:href="#FranklinGothic-Book-114"/>
    <use x="90.869141" xlink:href="#FranklinGothic-Book-101"/>
    <use x="142.919922" xlink:href="#FranklinGothic-Book-97"/>
    <use x="195.800781" xlink:href="#FranklinGothic-Book-116"/>
    <use x="224.8125" xlink:href="#FranklinGothic-Book-101"/>
    <use x="276.863281" xlink:href="#FranklinGothic-Book-100"/>
    <use x="330.720703" xlink:href="#FranklinGothic-Book-58"/>
    <use x="355.720703" xlink:href="#FranklinGothic-Book-32"/>
    <use x="380.720703" xlink:href="#FranklinGothic-Book-50"/>
    <use x="439.363281" xlink:href="#FranklinGothic-Book-48"/>
    <use x="498.005859" xlink:href="#FranklinGothic-Book-50"/>
    <use x="552.273438" xlink:href="#FranklinGothic-Book-52"/>
    <use x="610.916016" xlink:href="#FranklinGothic-Book-45"/>
    <use x="635.916016" xlink:href="#FranklinGothic-Book-48"/>
    <use x="690.808594" xlink:href="#FranklinGothic-Book-49"/>
    <use x="749.451172" xlink:href="#FranklinGothic-Book-45"/>
    <use x="774.451172" xlink:href="#FranklinGothic-Book-49"/>
    <use x="832.46875" xlink:href="#FranklinGothic-Book-56"/>
    <use x="891.111328" xlink:href="#FranklinGothic-Book-32"/>
    <use x="916.111328" xlink:href="#FranklinGothic-Book-49"/>
    <use x="974.753906" xlink:href="#FranklinGothic-Book-50"/>
    <use x="1033.396484" xlink:href="#FranklinGothic-Book-58"/>
    <use x="1058.396484" xlink:href="#FranklinGothic-Book-52"/>
    <use x="1117.039062" xlink:href="#FranklinGothic-Book-48"/>
    <use x="1175.681641" xlink:href="#FranklinGothic-Book-58"/>
    <use x="1200.681641" xlink:href="#FranklinGothic-Book-53"/>
    <use x="1253.574219" xlink:href="#FranklinGothic-Book-49"/>
   </g>
  </g>
 </g>
 <defs>
  <clipPath id="pb0818bd2df">
   <rect height="498.96" width="892.8" x="144" y="77.76"/>
  </clipPath>
 </defs>
</svg>
