<?xml version="1.0" encoding="utf-8" standalone="no"?>
<!DOCTYPE svg PUBLIC "-//W3C//DTD SVG 1.1//EN"
  "http://www.w3.org/Graphics/SVG/1.1/DTD/svg11.dtd">
<!-- Created with matplotlib (https://matplotlib.org/) -->
<svg height="648pt" version="1.1" viewBox="0 0 1152 648" width="1152pt" xmlns="http://www.w3.org/2000/svg" xmlns:xlink="http://www.w3.org/1999/xlink">
 <metadata>
  <rdf:RDF xmlns:cc="http://creativecommons.org/ns#" xmlns:dc="http://purl.org/dc/elements/1.1/" xmlns:rdf="http://www.w3.org/1999/02/22-rdf-syntax-ns#">
   <cc:Work>
    <dc:type rdf:resource="http://purl.org/dc/dcmitype/StillImage"/>
    <dc:date>2023-08-01T17:12:39.441509</dc:date>
    <dc:format>image/svg+xml</dc:format>
    <dc:creator>
     <cc:Agent>
      <dc:title>Matplotlib v3.3.1, https://matplotlib.org/</dc:title>
     </cc:Agent>
    </dc:creator>
   </cc:Work>
  </rdf:RDF>
 </metadata>
 <defs>
  <style type="text/css">*{stroke-linecap:butt;stroke-linejoin:round;}</style>
 </defs>
 <g id="figure_1">
  <g id="patch_1">
   <path d="M 0 648 
L 1152 648 
L 1152 0 
L 0 0 
z
" style="fill:#ffffff;"/>
  </g>
  <g id="axes_1">
   <g id="patch_2">
    <path d="M 144 576.72 
L 1036.8 576.72 
L 1036.8 77.76 
L 144 77.76 
z
" style="fill:none;"/>
   </g>
   <g id="patch_3">
    <path d="M 144 576.72 
L 1036.8 576.72 
" style="fill:none;stroke:#d3d3d3;stroke-linecap:square;stroke-linejoin:miter;stroke-width:1.25;"/>
   </g>
   <g id="matplotlib.axis_1">
    <g id="xtick_1">
     <g id="line2d_1">
      <defs>
       <path d="M 0 0 
L 0 6 
" id="me2a57071f1" style="stroke:#696969;stroke-width:1.25;"/>
      </defs>
      <g>
       <use style="fill:#696969;stroke:#696969;stroke-width:1.25;" x="231.497215" xlink:href="#me2a57071f1" y="576.72"/>
      </g>
     </g>
     <g id="text_1">
      <!-- 1860 -->
      <g style="fill:#696969;" transform="translate(213.951902 596.218438)scale(0.15 -0.15)">
       <defs>
        <path d="M 55.859375 6.203125 
L 55.859375 0 
L 9.1875 0 
L 9.1875 6.203125 
L 29.203125 6.203125 
L 29.203125 57.671875 
Q 20.359375 48.4375 10.84375 43.265625 
L 10.84375 51.65625 
Q 23.96875 58.546875 31.203125 68.015625 
L 37.15625 68.015625 
L 37.15625 6.203125 
z
" id="FranklinGothic-Book-49"/>
        <path d="M 19.484375 34.578125 
Q 6.84375 40.09375 6.84375 50.59375 
Q 6.84375 58.203125 13.140625 63.109375 
Q 19.4375 68.015625 29.828125 68.015625 
Q 40.09375 68.015625 46.140625 63.296875 
Q 52.203125 58.59375 52.203125 50.984375 
Q 52.203125 40.375 39.265625 35.796875 
Q 49.703125 30.953125 52.359375 26.453125 
Q 55.03125 21.96875 55.03125 17.484375 
Q 55.03125 9.46875 48.21875 4.078125 
Q 41.40625 -1.3125 29.734375 -1.3125 
Q 17.28125 -1.3125 10.4375 4.171875 
Q 3.609375 9.671875 3.609375 17.234375 
Q 3.609375 28.515625 19.484375 34.578125 
z
M 29.59375 38.71875 
Q 37.984375 40.96875 41.453125 43.890625 
Q 44.921875 46.828125 44.921875 51.21875 
Q 44.921875 56.34375 40.796875 59 
Q 36.671875 61.671875 29.9375 61.671875 
Q 23.484375 61.671875 19.375 58.859375 
Q 15.28125 56.0625 15.28125 51.3125 
Q 15.28125 46.625 19.84375 43.203125 
Q 24.421875 39.796875 29.59375 38.71875 
z
M 28.65625 31.0625 
Q 11.765625 27.046875 11.765625 16.9375 
Q 11.765625 11.671875 16.375 8.328125 
Q 21 4.984375 29.984375 4.984375 
Q 37.59375 4.984375 42.234375 8.25 
Q 46.875 11.53125 46.875 16.609375 
Q 46.875 26.3125 28.65625 31.0625 
z
" id="FranklinGothic-Book-56"/>
        <path d="M 53.5625 53.03125 
L 46.046875 50.984375 
Q 42.1875 61.140625 31.984375 61.140625 
Q 13.234375 61.140625 12.796875 30.125 
Q 15.765625 37.015625 21.234375 40.328125 
Q 26.703125 43.65625 32.8125 43.65625 
Q 42.09375 43.65625 48.359375 37.1875 
Q 54.640625 30.71875 54.640625 21.6875 
Q 54.640625 12.3125 47.96875 5.5 
Q 41.3125 -1.3125 30.90625 -1.3125 
Q 19.09375 -1.3125 12.078125 7.59375 
Q 5.078125 16.5 5.078125 31.84375 
Q 5.078125 46.828125 11.6875 57.421875 
Q 18.3125 68.015625 32.171875 68.015625 
Q 48.140625 68.015625 53.5625 53.03125 
z
M 30.765625 5.375 
Q 37.84375 5.375 42.359375 10.03125 
Q 46.875 14.703125 46.875 21.234375 
Q 46.875 27.6875 42.453125 32.296875 
Q 38.03125 36.921875 31.5 36.921875 
Q 24.75 36.921875 19.71875 32.078125 
Q 14.703125 27.25 14.703125 20.75 
Q 14.703125 14.75 19.1875 10.0625 
Q 23.6875 5.375 30.765625 5.375 
z
" id="FranklinGothic-Book-54"/>
        <path d="M 29.390625 -1.3125 
Q 17.875 -1.3125 10.984375 8.671875 
Q 4.109375 18.65625 4.109375 33.453125 
Q 4.109375 48 10.640625 58 
Q 17.1875 68.015625 29.15625 68.015625 
Q 41.65625 68.015625 48.125 57.5625 
Q 54.59375 47.125 54.59375 33.0625 
Q 54.59375 19.28125 47.953125 8.984375 
Q 41.3125 -1.3125 29.390625 -1.3125 
z
M 29.4375 5.21875 
Q 37.890625 5.21875 41.9375 12.859375 
Q 46 20.515625 46 32.078125 
Q 46 44.734375 41.84375 53.125 
Q 37.703125 61.53125 29.046875 61.53125 
Q 20.703125 61.53125 16.625 53.859375 
Q 12.546875 46.1875 12.546875 33.6875 
Q 12.546875 20.703125 16.84375 12.953125 
Q 21.140625 5.21875 29.4375 5.21875 
z
" id="FranklinGothic-Book-48"/>
       </defs>
       <use xlink:href="#FranklinGothic-Book-49"/>
       <use x="58.017578" xlink:href="#FranklinGothic-Book-56"/>
       <use x="116.660156" xlink:href="#FranklinGothic-Book-54"/>
       <use x="175.302734" xlink:href="#FranklinGothic-Book-48"/>
      </g>
     </g>
    </g>
    <g id="xtick_2">
     <g id="line2d_2">
      <g>
       <use style="fill:#696969;stroke:#696969;stroke-width:1.25;" x="325.328008" xlink:href="#me2a57071f1" y="576.72"/>
      </g>
     </g>
     <g id="text_2">
      <!-- 1880 -->
      <g style="fill:#696969;" transform="translate(307.782696 596.218438)scale(0.15 -0.15)">
       <use xlink:href="#FranklinGothic-Book-49"/>
       <use x="58.017578" xlink:href="#FranklinGothic-Book-56"/>
       <use x="116.660156" xlink:href="#FranklinGothic-Book-56"/>
       <use x="175.302734" xlink:href="#FranklinGothic-Book-48"/>
      </g>
     </g>
    </g>
    <g id="xtick_3">
     <g id="line2d_3">
      <g>
       <use style="fill:#696969;stroke:#696969;stroke-width:1.25;" x="419.158802" xlink:href="#me2a57071f1" y="576.72"/>
      </g>
     </g>
     <g id="text_3">
      <!-- 1900 -->
      <g style="fill:#696969;" transform="translate(401.669739 596.218438)scale(0.15 -0.15)">
       <defs>
        <path d="M 5.71875 12.15625 
L 12.40625 14.59375 
Q 16.546875 5.375 26.375 5.375 
Q 35.890625 5.375 40.703125 13.375 
Q 45.515625 21.390625 45.65625 35.109375 
Q 39.109375 23.09375 25.984375 23.09375 
Q 16.703125 23.09375 10.40625 29.421875 
Q 4.109375 35.75 4.109375 45.0625 
Q 4.109375 54.546875 10.71875 61.28125 
Q 17.328125 68.015625 27.59375 68.015625 
Q 40.140625 68.015625 46.828125 59.203125 
Q 53.515625 50.390625 53.515625 34.96875 
Q 53.515625 18.75 46.4375 8.71875 
Q 39.359375 -1.3125 26.265625 -1.3125 
Q 10.984375 -1.3125 5.71875 12.15625 
z
M 27.828125 29.78125 
Q 34.71875 29.78125 39.375 34.59375 
Q 44.046875 39.40625 44.046875 45.84375 
Q 44.046875 52.09375 39.625 56.578125 
Q 35.203125 61.078125 27.984375 61.078125 
Q 20.65625 61.078125 16.40625 56.46875 
Q 12.15625 51.859375 12.15625 45.21875 
Q 12.15625 38.09375 16.859375 33.9375 
Q 21.578125 29.78125 27.828125 29.78125 
z
" id="FranklinGothic-Book-57"/>
       </defs>
       <use xlink:href="#FranklinGothic-Book-49"/>
       <use x="57.267578" xlink:href="#FranklinGothic-Book-57"/>
       <use x="115.910156" xlink:href="#FranklinGothic-Book-48"/>
       <use x="174.552734" xlink:href="#FranklinGothic-Book-48"/>
      </g>
     </g>
    </g>
    <g id="xtick_4">
     <g id="line2d_4">
      <g>
       <use style="fill:#696969;stroke:#696969;stroke-width:1.25;" x="512.989595" xlink:href="#me2a57071f1" y="576.72"/>
      </g>
     </g>
     <g id="text_4">
      <!-- 1920 -->
      <g style="fill:#696969;" transform="translate(495.500533 596.218438)scale(0.15 -0.15)">
       <defs>
        <path d="M 52.484375 6.9375 
L 52.484375 0 
L 5.171875 0 
L 5.171875 6.9375 
Q 33.203125 27.9375 38.59375 34.59375 
Q 44 41.265625 44 47.796875 
Q 44 53.90625 39.453125 57.65625 
Q 34.90625 61.421875 29 61.421875 
Q 22.90625 61.421875 18.21875 57.296875 
Q 13.53125 53.171875 12.9375 46.09375 
L 5.171875 48.4375 
Q 10.0625 68.015625 29.109375 68.015625 
Q 39.40625 68.015625 45.84375 62.15625 
Q 52.296875 56.296875 52.296875 47.859375 
Q 52.296875 42.046875 49.234375 36.671875 
Q 46.1875 31.296875 37.6875 23.828125 
Q 29.203125 16.359375 15.71875 6.9375 
z
" id="FranklinGothic-Book-50"/>
       </defs>
       <use xlink:href="#FranklinGothic-Book-49"/>
       <use x="57.267578" xlink:href="#FranklinGothic-Book-57"/>
       <use x="115.910156" xlink:href="#FranklinGothic-Book-50"/>
       <use x="174.552734" xlink:href="#FranklinGothic-Book-48"/>
      </g>
     </g>
    </g>
    <g id="xtick_5">
     <g id="line2d_5">
      <g>
       <use style="fill:#696969;stroke:#696969;stroke-width:1.25;" x="606.820389" xlink:href="#me2a57071f1" y="576.72"/>
      </g>
     </g>
     <g id="text_5">
      <!-- 1940 -->
      <g style="fill:#696969;" transform="translate(589.368826 596.218438)scale(0.15 -0.15)">
       <defs>
        <path d="M 44.09375 0 
L 36.03125 0 
L 36.03125 15.875 
L 3.078125 15.875 
L 3.078125 21.484375 
L 33.640625 68.0625 
L 44.09375 68.0625 
L 44.09375 22.46875 
L 54.890625 22.46875 
L 54.890625 15.875 
L 44.09375 15.875 
z
M 36.03125 22.46875 
L 36.03125 54 
Q 36.03125 57.421875 36.1875 61.375 
Q 34.078125 57.515625 32.5625 55.125 
L 11.765625 22.46875 
z
" id="FranklinGothic-Book-52"/>
       </defs>
       <use xlink:href="#FranklinGothic-Book-49"/>
       <use x="57.267578" xlink:href="#FranklinGothic-Book-57"/>
       <use x="115.410156" xlink:href="#FranklinGothic-Book-52"/>
       <use x="174.052734" xlink:href="#FranklinGothic-Book-48"/>
      </g>
     </g>
    </g>
    <g id="xtick_6">
     <g id="line2d_6">
      <g>
       <use style="fill:#696969;stroke:#696969;stroke-width:1.25;" x="700.651182" xlink:href="#me2a57071f1" y="576.72"/>
      </g>
     </g>
     <g id="text_6">
      <!-- 1960 -->
      <g style="fill:#696969;" transform="translate(683.16212 596.218438)scale(0.15 -0.15)">
       <use xlink:href="#FranklinGothic-Book-49"/>
       <use x="57.267578" xlink:href="#FranklinGothic-Book-57"/>
       <use x="115.910156" xlink:href="#FranklinGothic-Book-54"/>
       <use x="174.552734" xlink:href="#FranklinGothic-Book-48"/>
      </g>
     </g>
    </g>
    <g id="xtick_7">
     <g id="line2d_7">
      <g>
       <use style="fill:#696969;stroke:#696969;stroke-width:1.25;" x="794.481976" xlink:href="#me2a57071f1" y="576.72"/>
      </g>
     </g>
     <g id="text_7">
      <!-- 1980 -->
      <g style="fill:#696969;" transform="translate(776.992913 596.218438)scale(0.15 -0.15)">
       <use xlink:href="#FranklinGothic-Book-49"/>
       <use x="57.267578" xlink:href="#FranklinGothic-Book-57"/>
       <use x="115.910156" xlink:href="#FranklinGothic-Book-56"/>
       <use x="174.552734" xlink:href="#FranklinGothic-Book-48"/>
      </g>
     </g>
    </g>
    <g id="xtick_8">
     <g id="line2d_8">
      <g>
       <use style="fill:#696969;stroke:#696969;stroke-width:1.25;" x="888.312769" xlink:href="#me2a57071f1" y="576.72"/>
      </g>
     </g>
     <g id="text_8">
      <!-- 2000 -->
      <g style="fill:#696969;" transform="translate(870.720582 596.218438)scale(0.15 -0.15)">
       <use xlink:href="#FranklinGothic-Book-50"/>
       <use x="58.642578" xlink:href="#FranklinGothic-Book-48"/>
       <use x="117.285156" xlink:href="#FranklinGothic-Book-48"/>
       <use x="175.927734" xlink:href="#FranklinGothic-Book-48"/>
      </g>
     </g>
    </g>
    <g id="xtick_9">
     <g id="line2d_9">
      <g>
       <use style="fill:#696969;stroke:#696969;stroke-width:1.25;" x="982.143563" xlink:href="#me2a57071f1" y="576.72"/>
      </g>
     </g>
     <g id="text_9">
      <!-- 2020 -->
      <g style="fill:#696969;" transform="translate(964.551375 596.218438)scale(0.15 -0.15)">
       <use xlink:href="#FranklinGothic-Book-50"/>
       <use x="58.642578" xlink:href="#FranklinGothic-Book-48"/>
       <use x="117.285156" xlink:href="#FranklinGothic-Book-50"/>
       <use x="175.927734" xlink:href="#FranklinGothic-Book-48"/>
      </g>
     </g>
    </g>
    <g id="text_10">
     <!-- Year -->
     <g style="fill:#696969;" transform="translate(572.109375 616.048125)scale(0.2 -0.2)">
      <defs>
       <path d="M 52 66.65625 
L 29.6875 28.03125 
L 29.6875 0 
L 21.34375 0 
L 21.34375 28.03125 
L -0.984375 66.65625 
L 8.84375 66.65625 
L 26.5625 35.984375 
L 44.390625 66.65625 
z
" id="FranklinGothic-Book-89"/>
       <path d="M 40.234375 14.703125 
L 47.359375 13.234375 
Q 45.40625 6.9375 39.734375 2.8125 
Q 34.078125 -1.3125 26.421875 -1.3125 
Q 16.3125 -1.3125 10.0625 5.78125 
Q 3.8125 12.890625 3.8125 24.421875 
Q 3.8125 36.1875 10.296875 43.4375 
Q 16.796875 50.6875 26.609375 50.6875 
Q 36.28125 50.6875 42.15625 44 
Q 48.046875 37.3125 48.1875 23.96875 
L 12.359375 23.96875 
Q 12.359375 12.796875 17.046875 8.890625 
Q 21.734375 4.984375 26.953125 4.984375 
Q 36.375 4.984375 40.234375 14.703125 
z
M 39.796875 29.6875 
Q 39.703125 33.84375 38.421875 37.0625 
Q 37.15625 40.28125 34.125 42.546875 
Q 31.109375 44.828125 26.859375 44.828125 
Q 21.140625 44.828125 17.15625 40.71875 
Q 13.1875 36.625 12.703125 29.6875 
z
" id="FranklinGothic-Book-101"/>
       <path d="M 46.296875 0 
L 38.671875 0 
Q 38.234375 2.34375 37.796875 8.890625 
Q 32.71875 -1.3125 20.515625 -1.3125 
Q 12.203125 -1.3125 7.765625 3.078125 
Q 3.328125 7.46875 3.328125 13.625 
Q 3.328125 21.09375 9.671875 25.90625 
Q 16.015625 30.71875 31.25 30.71875 
Q 33.296875 30.71875 37.796875 30.515625 
Q 37.796875 36.375 36.890625 38.984375 
Q 35.984375 41.609375 33.046875 43.171875 
Q 30.125 44.734375 25.34375 44.734375 
Q 13.671875 44.734375 11.765625 35.84375 
L 4.6875 37.0625 
Q 7.28125 50.6875 26.46875 50.6875 
Q 36.671875 50.6875 40.9375 46.171875 
Q 45.21875 41.65625 45.21875 30.515625 
L 45.21875 9.578125 
Q 45.21875 4.34375 46.296875 0 
z
M 37.796875 24.65625 
Q 33.109375 24.953125 30.671875 24.953125 
Q 21.578125 24.953125 16.546875 21.96875 
Q 11.53125 19 11.53125 13.28125 
Q 11.53125 9.671875 14.234375 7.125 
Q 16.9375 4.59375 22.078125 4.59375 
Q 29 4.59375 33.46875 9.625 
Q 37.9375 14.65625 37.9375 21.4375 
Q 37.9375 22.796875 37.796875 24.65625 
z
" id="FranklinGothic-Book-97"/>
       <path d="M 15.328125 0 
L 7.671875 0 
L 7.671875 49.3125 
L 14.40625 49.3125 
L 14.40625 37.796875 
Q 17.96875 45.953125 21.546875 48.359375 
Q 25.140625 50.78125 28.90625 50.78125 
Q 30.078125 50.78125 31.9375 50.59375 
L 31.9375 43.265625 
L 30.375 43.265625 
Q 24.03125 43.265625 19.828125 38.53125 
Q 15.625 33.796875 15.328125 26.078125 
z
" id="FranklinGothic-Book-114"/>
      </defs>
      <use xlink:href="#FranklinGothic-Book-89"/>
      <use x="45.025391" xlink:href="#FranklinGothic-Book-101"/>
      <use x="97.076172" xlink:href="#FranklinGothic-Book-97"/>
      <use x="149.957031" xlink:href="#FranklinGothic-Book-114"/>
     </g>
    </g>
   </g>
   <g id="matplotlib.axis_2">
    <g id="ytick_1">
     <g id="line2d_10">
      <path clip-path="url(#p89ac1a7126)" d="M 144 557.389869 
L 1036.8 557.389869 
" style="fill:none;stroke:#d3d3d3;stroke-linecap:round;stroke-opacity:0.5;"/>
     </g>
     <g id="text_11">
      <!-- −2.0 -->
      <g style="fill:#696969;" transform="translate(104.361719 562.389087)scale(0.15 -0.15)">
       <defs>
        <path d="M 6 36.765625 
L 52.6875 36.765625 
L 52.6875 30.03125 
L 6 30.03125 
z
" id="FranklinGothic-Book-8722"/>
        <path d="M 17.96875 10.9375 
L 17.96875 0 
L 7.078125 0 
L 7.078125 10.9375 
z
" id="FranklinGothic-Book-46"/>
       </defs>
       <use xlink:href="#FranklinGothic-Book-8722"/>
       <use x="58.642578" xlink:href="#FranklinGothic-Book-50"/>
       <use x="117.285156" xlink:href="#FranklinGothic-Book-46"/>
       <use x="142.285156" xlink:href="#FranklinGothic-Book-48"/>
      </g>
     </g>
    </g>
    <g id="ytick_2">
     <g id="line2d_11">
      <path clip-path="url(#p89ac1a7126)" d="M 144 472.451658 
L 1036.8 472.451658 
" style="fill:none;stroke:#d3d3d3;stroke-linecap:round;stroke-opacity:0.5;"/>
     </g>
     <g id="text_12">
      <!-- −1.5 -->
      <g style="fill:#696969;" transform="translate(104.455469 477.450877)scale(0.15 -0.15)">
       <defs>
        <path d="M 48.875 66.65625 
L 48.1875 59.46875 
L 15.4375 59.46875 
L 14.015625 37.84375 
Q 21.4375 45.125 30.328125 45.125 
Q 39.703125 45.125 46.515625 38.625 
Q 53.328125 32.125 53.328125 22.015625 
Q 53.328125 11.765625 45.921875 5.21875 
Q 38.53125 -1.3125 27.828125 -1.3125 
Q 19.4375 -1.3125 12.890625 3.078125 
Q 6.34375 7.46875 4.296875 14.453125 
L 11.421875 16.890625 
Q 15.828125 5.28125 27.9375 5.28125 
Q 35.890625 5.28125 40.578125 9.984375 
Q 45.265625 14.703125 45.265625 22.015625 
Q 45.265625 29.6875 40.625 33.984375 
Q 35.984375 38.28125 29.5 38.28125 
Q 20.015625 38.28125 13.8125 29.203125 
L 7.234375 30.609375 
L 9.375 66.65625 
z
" id="FranklinGothic-Book-53"/>
       </defs>
       <use xlink:href="#FranklinGothic-Book-8722"/>
       <use x="58.642578" xlink:href="#FranklinGothic-Book-49"/>
       <use x="116.660156" xlink:href="#FranklinGothic-Book-46"/>
       <use x="141.660156" xlink:href="#FranklinGothic-Book-53"/>
      </g>
     </g>
    </g>
    <g id="ytick_3">
     <g id="line2d_12">
      <path clip-path="url(#p89ac1a7126)" d="M 144 387.513447 
L 1036.8 387.513447 
" style="fill:none;stroke:#d3d3d3;stroke-linecap:round;stroke-opacity:0.5;"/>
     </g>
     <g id="text_13">
      <!-- −1.0 -->
      <g style="fill:#696969;" transform="translate(104.455469 392.512666)scale(0.15 -0.15)">
       <use xlink:href="#FranklinGothic-Book-8722"/>
       <use x="58.642578" xlink:href="#FranklinGothic-Book-49"/>
       <use x="116.660156" xlink:href="#FranklinGothic-Book-46"/>
       <use x="141.660156" xlink:href="#FranklinGothic-Book-48"/>
      </g>
     </g>
    </g>
    <g id="ytick_4">
     <g id="line2d_13">
      <path clip-path="url(#p89ac1a7126)" d="M 144 302.575236 
L 1036.8 302.575236 
" style="fill:none;stroke:#d3d3d3;stroke-linecap:round;stroke-opacity:0.5;"/>
     </g>
     <g id="text_14">
      <!-- −0.5 -->
      <g style="fill:#696969;" transform="translate(104.361719 307.574455)scale(0.15 -0.15)">
       <use xlink:href="#FranklinGothic-Book-8722"/>
       <use x="58.642578" xlink:href="#FranklinGothic-Book-48"/>
       <use x="117.285156" xlink:href="#FranklinGothic-Book-46"/>
       <use x="142.285156" xlink:href="#FranklinGothic-Book-53"/>
      </g>
     </g>
    </g>
    <g id="ytick_5">
     <g id="line2d_14">
      <path clip-path="url(#p89ac1a7126)" d="M 144 217.637026 
L 1036.8 217.637026 
" style="fill:none;stroke:#d3d3d3;stroke-linecap:round;stroke-opacity:0.5;"/>
     </g>
     <g id="text_15">
      <!-- 0.0 -->
      <g style="fill:#696969;" transform="translate(113.157813 222.636244)scale(0.15 -0.15)">
       <use xlink:href="#FranklinGothic-Book-48"/>
       <use x="58.642578" xlink:href="#FranklinGothic-Book-46"/>
       <use x="83.642578" xlink:href="#FranklinGothic-Book-48"/>
      </g>
     </g>
    </g>
    <g id="ytick_6">
     <g id="line2d_15">
      <path clip-path="url(#p89ac1a7126)" d="M 144 132.698815 
L 1036.8 132.698815 
" style="fill:none;stroke:#d3d3d3;stroke-linecap:round;stroke-opacity:0.5;"/>
     </g>
     <g id="text_16">
      <!-- 0.5 -->
      <g style="fill:#696969;" transform="translate(113.157813 137.698033)scale(0.15 -0.15)">
       <use xlink:href="#FranklinGothic-Book-48"/>
       <use x="58.642578" xlink:href="#FranklinGothic-Book-46"/>
       <use x="83.642578" xlink:href="#FranklinGothic-Book-53"/>
      </g>
     </g>
    </g>
    <g id="text_17">
     <!-- $\!^\circ\!$C -->
     <g style="fill:#696969;" transform="translate(91.030469 337.34)rotate(-90)scale(0.2 -0.2)">
      <defs>
       <path d="M 31.296875 40.671875 
Q 27.390625 40.671875 24.703125 37.953125 
Q 22.015625 35.25 22.015625 31.34375 
Q 22.015625 27.484375 24.703125 24.828125 
Q 27.390625 22.171875 31.296875 22.171875 
Q 35.203125 22.171875 37.890625 24.828125 
Q 40.578125 27.484375 40.578125 31.34375 
Q 40.578125 35.203125 37.859375 37.9375 
Q 35.15625 40.671875 31.296875 40.671875 
z
M 31.296875 46.96875 
Q 34.421875 46.96875 37.296875 45.765625 
Q 40.1875 44.578125 42.28125 42.328125 
Q 44.53125 40.140625 45.65625 37.34375 
Q 46.78125 34.5625 46.78125 31.34375 
Q 46.78125 24.90625 42.265625 20.4375 
Q 37.75 15.96875 31.203125 15.96875 
Q 24.609375 15.96875 20.21875 20.359375 
Q 15.828125 24.75 15.828125 31.34375 
Q 15.828125 37.890625 20.3125 42.421875 
Q 24.8125 46.96875 31.296875 46.96875 
z
" id="DejaVuSans-8728"/>
       <path d="M 48.296875 22.40625 
L 55.90625 20.703125 
Q 50.4375 -1.3125 31.203125 -1.3125 
Q 18.5625 -1.3125 11.359375 8.890625 
Q 4.15625 19.09375 4.15625 33.984375 
Q 4.15625 49.359375 11.671875 58.6875 
Q 19.1875 68.015625 31.84375 68.015625 
Q 50.59375 68.015625 55.90625 46.578125 
L 48.046875 45.015625 
Q 43.75 60.9375 31.78125 60.9375 
Q 22.953125 60.9375 18.09375 53.53125 
Q 13.234375 46.140625 13.234375 32.765625 
Q 13.234375 20.515625 18.203125 13.109375 
Q 23.1875 5.71875 31.390625 5.71875 
Q 44.140625 5.71875 48.296875 22.40625 
z
" id="FranklinGothic-Book-67"/>
      </defs>
      <use transform="translate(-1.64095 39.121875)scale(0.7)" xlink:href="#DejaVuSans-8728"/>
      <use transform="translate(42.313804 0.840625)" xlink:href="#FranklinGothic-Book-67"/>
     </g>
    </g>
   </g>
   <g id="text_18">
    <!-- Compared to 1991-2020 average -->
    <g style="fill:#696969;" transform="translate(144 75.2652)scale(0.3 -0.3)">
     <defs>
      <path d="M 25.34375 -1.3125 
Q 15.1875 -1.3125 9.5 6.203125 
Q 3.8125 13.71875 3.8125 24.859375 
Q 3.8125 36.625 10.203125 43.65625 
Q 16.609375 50.6875 26.125 50.6875 
Q 36.328125 50.6875 42.203125 43.28125 
Q 48.09375 35.890625 48.09375 24.8125 
Q 48.09375 13.28125 41.75 5.984375 
Q 35.40625 -1.3125 25.34375 -1.3125 
z
M 25.921875 4.984375 
Q 31.78125 4.984375 35.734375 9.8125 
Q 39.703125 14.65625 39.703125 24.859375 
Q 39.703125 35.109375 35.546875 39.71875 
Q 31.390625 44.34375 25.828125 44.34375 
Q 20.125 44.34375 16.15625 39.671875 
Q 12.203125 35.015625 12.203125 24.90625 
Q 12.203125 14.203125 16.15625 9.59375 
Q 20.125 4.984375 25.921875 4.984375 
z
" id="FranklinGothic-Book-111"/>
      <path d="M 73.734375 0 
L 66.265625 0 
L 66.265625 30.671875 
Q 66.265625 35.40625 65.59375 37.765625 
Q 64.9375 40.140625 62.390625 42.109375 
Q 59.859375 44.09375 56.6875 44.09375 
Q 52.296875 44.09375 48.21875 40.0625 
Q 44.140625 36.03125 44.140625 27.78125 
L 44.140625 0 
L 36.71875 0 
L 36.71875 32.46875 
Q 36.71875 38.96875 33.609375 41.65625 
Q 30.515625 44.34375 27.09375 44.34375 
Q 22.21875 44.34375 18.59375 40.140625 
Q 14.984375 35.9375 14.984375 29.5 
L 14.984375 0 
L 7.671875 0 
L 7.671875 49.3125 
L 14.265625 49.3125 
L 14.265625 39.84375 
Q 19.78125 50.6875 29.4375 50.6875 
Q 34.765625 50.6875 38.46875 47.21875 
Q 42.1875 43.75 43.265625 38.875 
Q 48.34375 50.6875 58.84375 50.6875 
Q 63.875 50.6875 67.65625 47.796875 
Q 71.4375 44.921875 72.578125 41.1875 
Q 73.734375 37.453125 73.734375 30.671875 
z
" id="FranklinGothic-Book-109"/>
      <path d="M 15.328125 -16.65625 
L 7.671875 -16.65625 
L 7.671875 49.3125 
L 14.546875 49.3125 
L 14.546875 39.75 
Q 19.78125 50.6875 30.125 50.6875 
Q 38.875 50.6875 44.234375 43.375 
Q 49.609375 36.078125 49.609375 24.90625 
Q 49.609375 12.84375 44.09375 5.765625 
Q 38.578125 -1.3125 29.9375 -1.3125 
Q 20.65625 -1.3125 15.328125 7.515625 
z
M 15.328125 31.78125 
L 15.328125 17.921875 
Q 16.0625 12.3125 20.0625 8.640625 
Q 24.078125 4.984375 28.421875 4.984375 
Q 33.453125 4.984375 37.328125 9.375 
Q 41.21875 13.765625 41.21875 24.5625 
Q 41.21875 33.890625 37.703125 38.9375 
Q 34.1875 44 28.375 44 
Q 23.78125 44 20.140625 40.421875 
Q 16.5 36.859375 15.328125 31.78125 
z
" id="FranklinGothic-Book-112"/>
      <path d="M 46.1875 66.65625 
L 46.1875 0 
L 39.203125 0 
L 39.203125 8.453125 
Q 34.03125 -1.3125 23.640625 -1.3125 
Q 14.984375 -1.3125 9.421875 5.9375 
Q 3.859375 13.1875 3.859375 24.265625 
Q 3.859375 35.59375 9.375 43.140625 
Q 14.890625 50.6875 24.03125 50.6875 
Q 32.90625 50.6875 38.53125 42.578125 
L 38.53125 66.65625 
z
M 38.53125 30.28125 
Q 38.53125 36.765625 34.5625 40.671875 
Q 30.609375 44.578125 25.34375 44.578125 
Q 19.625 44.578125 15.9375 39.5 
Q 12.25 34.421875 12.25 25.25 
Q 12.25 15.328125 15.640625 10.15625 
Q 19.046875 4.984375 24.953125 4.984375 
Q 30.328125 4.984375 34.421875 9.46875 
Q 38.53125 13.96875 38.53125 20.015625 
z
" id="FranklinGothic-Book-100"/>
      <path id="FranklinGothic-Book-32"/>
      <path d="M 30.03125 5.28125 
L 30.03125 -0.78125 
Q 25.984375 -1.3125 23 -1.3125 
Q 8.6875 -1.3125 8.6875 13.625 
L 8.6875 43.3125 
L -0.046875 43.3125 
L -0.046875 49.3125 
L 8.6875 49.3125 
L 9.03125 61.71875 
L 16.15625 62.40625 
L 16.15625 49.3125 
L 27.203125 49.3125 
L 27.203125 43.3125 
L 16.15625 43.3125 
L 16.15625 12.359375 
Q 16.15625 4.734375 24.078125 4.734375 
Q 26.703125 4.734375 30.03125 5.28125 
z
" id="FranklinGothic-Book-116"/>
      <path d="M 23.53125 27.984375 
L 23.53125 22.015625 
L 1.46875 22.015625 
L 1.46875 27.984375 
z
" id="FranklinGothic-Book-45"/>
      <path d="M 43.796875 49.3125 
L 26.765625 0 
L 18.796875 0 
L 1.171875 49.3125 
L 9.671875 49.3125 
L 23.390625 9.234375 
L 36.96875 49.3125 
z
" id="FranklinGothic-Book-118"/>
      <path d="M 47.953125 57.03125 
L 47.953125 50.921875 
Q 42.671875 50.921875 40.890625 49.703125 
Q 39.109375 48.484375 38.53125 45.3125 
Q 43.265625 39.84375 43.265625 33.40625 
Q 43.265625 26.65625 38.109375 21.828125 
Q 32.953125 17 24.265625 17 
Q 22.3125 17 20.90625 17.28125 
Q 18.21875 17.828125 17.53125 17.828125 
Q 16.21875 17.828125 14.359375 16.53125 
Q 12.5 15.234375 12.5 13.1875 
Q 12.5 10.25 15.1875 9.375 
Q 17.875 8.5 27.828125 8.25 
Q 36.28125 8.015625 40.3125 7.109375 
Q 44.34375 6.203125 47.125 3.09375 
Q 49.90625 0 49.90625 -4.5 
Q 49.90625 -18.609375 25.09375 -18.609375 
Q 13.328125 -18.609375 7.9375 -15.0625 
Q 2.546875 -11.53125 2.546875 -5.609375 
Q 2.546875 1.5625 10.0625 4.25 
Q 5.21875 7.421875 5.21875 12.203125 
Q 5.21875 17.921875 12.0625 20.953125 
Q 5.671875 26.125 5.671875 33.984375 
Q 5.671875 41.3125 11.140625 46 
Q 16.609375 50.6875 24.46875 50.6875 
Q 30.03125 50.6875 34.578125 48.578125 
Q 35.296875 53.421875 37.953125 55.265625 
Q 40.625 57.125 46.046875 57.125 
Q 46.578125 57.125 47.953125 57.03125 
z
M 24.515625 22.859375 
Q 29.390625 22.859375 32.46875 25.859375 
Q 35.546875 28.859375 35.546875 33.640625 
Q 35.546875 38.53125 32.34375 41.625 
Q 29.15625 44.734375 24.609375 44.734375 
Q 20.265625 44.734375 16.890625 41.828125 
Q 13.53125 38.921875 13.53125 33.546875 
Q 13.53125 28.765625 16.546875 25.8125 
Q 19.578125 22.859375 24.515625 22.859375 
z
M 15.328125 2 
Q 9.96875 -0.34375 9.96875 -4.78125 
Q 9.96875 -8.546875 14.375 -10.625 
Q 18.796875 -12.703125 25.640625 -12.703125 
Q 31.984375 -12.703125 37.25 -10.90625 
Q 42.53125 -9.125 42.53125 -4.890625 
Q 42.53125 -2.59375 40.96875 -1.125 
Q 39.40625 0.34375 36.6875 0.734375 
Q 33.984375 1.125 27.25 1.3125 
Q 19.1875 1.515625 15.328125 2 
z
" id="FranklinGothic-Book-103"/>
     </defs>
     <use xlink:href="#FranklinGothic-Book-67"/>
     <use x="57.910156" xlink:href="#FranklinGothic-Book-111"/>
     <use x="109.863281" xlink:href="#FranklinGothic-Book-109"/>
     <use x="190.384766" xlink:href="#FranklinGothic-Book-112"/>
     <use x="243.802734" xlink:href="#FranklinGothic-Book-97"/>
     <use x="296.683594" xlink:href="#FranklinGothic-Book-114"/>
     <use x="329.642578" xlink:href="#FranklinGothic-Book-101"/>
     <use x="381.693359" xlink:href="#FranklinGothic-Book-100"/>
     <use x="435.550781" xlink:href="#FranklinGothic-Book-32"/>
     <use x="460.550781" xlink:href="#FranklinGothic-Book-116"/>
     <use x="489.8125" xlink:href="#FranklinGothic-Book-111"/>
     <use x="541.765625" xlink:href="#FranklinGothic-Book-32"/>
     <use x="566.765625" xlink:href="#FranklinGothic-Book-49"/>
     <use x="624.033203" xlink:href="#FranklinGothic-Book-57"/>
     <use x="682.675781" xlink:href="#FranklinGothic-Book-57"/>
     <use x="737.193359" xlink:href="#FranklinGothic-Book-49"/>
     <use x="795.835938" xlink:href="#FranklinGothic-Book-45"/>
     <use x="820.835938" xlink:href="#FranklinGothic-Book-50"/>
     <use x="879.478516" xlink:href="#FranklinGothic-Book-48"/>
     <use x="938.121094" xlink:href="#FranklinGothic-Book-50"/>
     <use x="996.763672" xlink:href="#FranklinGothic-Book-48"/>
     <use x="1055.40625" xlink:href="#FranklinGothic-Book-32"/>
     <use x="1080.40625" xlink:href="#FranklinGothic-Book-97"/>
     <use x="1131.037109" xlink:href="#FranklinGothic-Book-118"/>
     <use x="1174.556641" xlink:href="#FranklinGothic-Book-101"/>
     <use x="1226.607422" xlink:href="#FranklinGothic-Book-114"/>
     <use x="1259.566406" xlink:href="#FranklinGothic-Book-97"/>
     <use x="1312.447266" xlink:href="#FranklinGothic-Book-103"/>
     <use x="1361.568359" xlink:href="#FranklinGothic-Book-101"/>
    </g>
   </g>
   <g id="text_19">
    <!-- Global land temperature -->
    <g style="fill:#696969;" transform="translate(144 42.76)scale(0.4 -0.4)">
     <defs>
      <path d="M 57.71875 33.59375 
L 57.71875 -0.875 
L 52.59375 -0.875 
L 50.296875 7.46875 
Q 44.140625 -1.3125 31.984375 -1.3125 
Q 18.796875 -1.3125 11.46875 8.59375 
Q 4.15625 18.5 4.15625 32.671875 
Q 4.15625 47.796875 11.90625 57.90625 
Q 19.671875 68.015625 33.015625 68.015625 
Q 51.421875 68.015625 57.03125 48.6875 
L 49.125 46.78125 
Q 47.40625 54.203125 42.71875 57.5625 
Q 38.03125 60.9375 32.46875 60.9375 
Q 22.609375 60.9375 17.921875 52.96875 
Q 13.234375 45.015625 13.234375 33.015625 
Q 13.234375 20.0625 18.484375 12.765625 
Q 23.734375 5.46875 32.765625 5.46875 
Q 39.796875 5.46875 44.5 10.125 
Q 49.21875 14.796875 49.21875 23 
Q 49.21875 24.515625 49.125 26.609375 
L 32.625 26.609375 
L 32.625 33.59375 
z
" id="FranklinGothic-Book-71"/>
      <path d="M 15.328125 0 
L 7.671875 0 
L 7.671875 66.65625 
L 15.328125 66.65625 
z
" id="FranklinGothic-Book-108"/>
      <path d="M 11.375 0 
L 7.671875 0 
L 7.671875 66.65625 
L 15.328125 66.65625 
L 15.328125 41.109375 
Q 20.609375 50.6875 29.890625 50.6875 
Q 38.375 50.6875 44.109375 44 
Q 49.859375 37.3125 49.859375 24.5625 
Q 49.859375 13.578125 44.21875 6.125 
Q 38.578125 -1.3125 29.546875 -1.3125 
Q 19.484375 -1.3125 14.109375 8.15625 
z
M 15.328125 19.34375 
Q 15.875 11.765625 20 8.34375 
Q 24.125 4.9375 28.71875 4.9375 
Q 34.578125 4.9375 38.15625 10.015625 
Q 41.75 15.09375 41.75 23.921875 
Q 41.75 33.453125 38.28125 38.890625 
Q 34.8125 44.34375 28.65625 44.34375 
Q 23.828125 44.34375 19.9375 40.453125 
Q 16.0625 36.578125 15.328125 30.421875 
z
" id="FranklinGothic-Book-98"/>
      <path d="M 46.53125 0 
L 39.359375 0 
L 39.359375 31.6875 
Q 39.359375 38.53125 36.375 41.3125 
Q 33.40625 44.09375 29.15625 44.09375 
Q 23.296875 44.09375 19.3125 39.40625 
Q 15.328125 34.71875 15.328125 27.046875 
L 15.328125 0 
L 7.671875 0 
L 7.671875 49.3125 
L 14.796875 49.3125 
L 14.796875 40.234375 
Q 20.796875 50.6875 30.375 50.6875 
Q 35.890625 50.6875 39.765625 47.828125 
Q 43.65625 44.96875 45.09375 41.40625 
Q 46.53125 37.84375 46.53125 28.515625 
z
" id="FranklinGothic-Book-110"/>
      <path d="M 46.484375 0 
L 39.59375 0 
L 39.59375 9.421875 
Q 34.328125 -1.3125 23.875 -1.3125 
Q 16.3125 -1.3125 11.984375 3.65625 
Q 7.671875 8.640625 7.671875 17.828125 
L 7.671875 49.3125 
L 15.328125 49.3125 
L 15.328125 17.828125 
Q 15.328125 10.5 18.375 7.734375 
Q 21.4375 4.984375 25.09375 4.984375 
Q 28.8125 4.984375 31.8125 7.078125 
Q 34.8125 9.1875 36.8125 13.0625 
Q 38.8125 16.9375 38.8125 21.53125 
L 38.8125 49.3125 
L 46.484375 49.3125 
z
" id="FranklinGothic-Book-117"/>
     </defs>
     <use xlink:href="#FranklinGothic-Book-71"/>
     <use x="64.697266" xlink:href="#FranklinGothic-Book-108"/>
     <use x="87.695312" xlink:href="#FranklinGothic-Book-111"/>
     <use x="139.648438" xlink:href="#FranklinGothic-Book-98"/>
     <use x="193.359375" xlink:href="#FranklinGothic-Book-97"/>
     <use x="246.240234" xlink:href="#FranklinGothic-Book-108"/>
     <use x="269.238281" xlink:href="#FranklinGothic-Book-32"/>
     <use x="294.238281" xlink:href="#FranklinGothic-Book-108"/>
     <use x="317.236328" xlink:href="#FranklinGothic-Book-97"/>
     <use x="370.117188" xlink:href="#FranklinGothic-Book-110"/>
     <use x="424.316406" xlink:href="#FranklinGothic-Book-100"/>
     <use x="478.173828" xlink:href="#FranklinGothic-Book-32"/>
     <use x="503.173828" xlink:href="#FranklinGothic-Book-116"/>
     <use x="532.185547" xlink:href="#FranklinGothic-Book-101"/>
     <use x="584.236328" xlink:href="#FranklinGothic-Book-109"/>
     <use x="664.757812" xlink:href="#FranklinGothic-Book-112"/>
     <use x="718.175781" xlink:href="#FranklinGothic-Book-101"/>
     <use x="770.226562" xlink:href="#FranklinGothic-Book-114"/>
     <use x="803.185547" xlink:href="#FranklinGothic-Book-97"/>
     <use x="856.066406" xlink:href="#FranklinGothic-Book-116"/>
     <use x="886.828125" xlink:href="#FranklinGothic-Book-117"/>
     <use x="940.978516" xlink:href="#FranklinGothic-Book-114"/>
     <use x="973.9375" xlink:href="#FranklinGothic-Book-101"/>
    </g>
   </g>
   <g id="legend_1">
    <g id="line2d_16"/>
    <g id="text_20">
     <!-- CRUTEM5 (1850-2023) -->
     <g style="fill:#696969;" transform="translate(185.856 129.7184)scale(0.2 -0.2)">
      <defs>
       <path d="M 56.296875 0 
L 47.5625 0 
L 35.25 28.859375 
L 16.15625 28.859375 
L 16.15625 0 
L 8.34375 0 
L 8.34375 66.65625 
L 34.625 66.65625 
Q 45.3125 66.65625 50.453125 60.8125 
Q 55.609375 54.984375 55.609375 48.046875 
Q 55.609375 42.71875 52.734375 37.828125 
Q 49.859375 32.953125 43.21875 30.859375 
z
M 16.15625 35.640625 
L 33.59375 35.640625 
Q 40.484375 35.640625 43.875 39.28125 
Q 47.265625 42.921875 47.265625 48.1875 
Q 47.265625 53.46875 43.671875 56.390625 
Q 40.09375 59.328125 34.625 59.328125 
L 16.15625 59.328125 
z
" id="FranklinGothic-Book-82"/>
       <path d="M 46.34375 66.65625 
L 53.265625 66.65625 
L 53.265625 23.140625 
Q 53.265625 10.0625 46.84375 4.375 
Q 40.4375 -1.3125 30.03125 -1.3125 
Q 18.453125 -1.3125 12.890625 4.546875 
Q 7.328125 10.40625 7.328125 23.140625 
L 7.328125 66.65625 
L 15.671875 66.65625 
L 15.671875 23.140625 
Q 15.671875 15.375 17.46875 12.203125 
Q 19.28125 9.03125 22.9375 7.515625 
Q 26.609375 6 30.609375 6 
Q 38.328125 6 42.328125 10.046875 
Q 46.34375 14.109375 46.34375 23.140625 
z
" id="FranklinGothic-Book-85"/>
       <path d="M 28.421875 0 
L 20.125 0 
L 20.125 59.328125 
L 1.03125 59.328125 
L 1.03125 66.65625 
L 47.5625 66.65625 
L 47.5625 59.328125 
L 28.421875 59.328125 
z
" id="FranklinGothic-Book-84"/>
       <path d="M 51.46875 7.328125 
L 51.46875 0 
L 8.34375 0 
L 8.34375 66.65625 
L 50.53125 66.65625 
L 50.53125 59.328125 
L 16.703125 59.328125 
L 16.703125 38.140625 
L 43.5625 38.140625 
L 43.5625 31.34375 
L 16.703125 31.34375 
L 16.703125 7.328125 
z
" id="FranklinGothic-Book-69"/>
       <path d="M 72.703125 0 
L 64.59375 0 
L 64.59375 58.203125 
L 42.921875 0 
L 37.25 0 
L 15.4375 58.203125 
L 15.4375 0 
L 8.34375 0 
L 8.34375 66.65625 
L 20.75 66.65625 
L 40.828125 13.328125 
L 60.5 66.65625 
L 72.703125 66.65625 
z
" id="FranklinGothic-Book-77"/>
       <path d="M 24.703125 -16.65625 
L 19.578125 -16.65625 
Q 5.21875 2.203125 5.21875 25.09375 
Q 5.21875 46.96875 19.578125 66.65625 
L 24.703125 66.65625 
Q 12.359375 48.25 12.359375 25 
Q 12.359375 2.828125 24.703125 -16.65625 
z
" id="FranklinGothic-Book-40"/>
       <path d="M 19.34375 31.34375 
L 19.34375 37.984375 
L 26.953125 37.984375 
Q 35.296875 37.984375 38.890625 41.40625 
Q 42.484375 44.828125 42.484375 49.703125 
Q 42.484375 55.078125 38.46875 58.21875 
Q 34.46875 61.375 28.421875 61.375 
Q 17.1875 61.375 12.890625 50.53125 
L 5.375 52.6875 
Q 11.8125 68.015625 29.203125 68.015625 
Q 38.96875 68.015625 44.96875 62.8125 
Q 50.984375 57.625 50.984375 50.296875 
Q 50.984375 44.625 47.359375 40.40625 
Q 43.75 36.1875 38.09375 35.109375 
Q 44.4375 34.1875 49 29.78125 
Q 53.5625 25.390625 53.5625 18.40625 
Q 53.5625 10.0625 46.765625 4.375 
Q 39.984375 -1.3125 28.171875 -1.3125 
Q 18.796875 -1.3125 12.125 3.125 
Q 5.46875 7.5625 2.9375 14.9375 
L 10.6875 17.53125 
Q 14.203125 5.46875 28.03125 5.46875 
Q 37.015625 5.46875 40.9375 9.296875 
Q 44.875 13.140625 44.875 18.453125 
Q 44.875 24.21875 40.15625 27.78125 
Q 35.453125 31.34375 26.953125 31.34375 
z
" id="FranklinGothic-Book-51"/>
       <path d="M 4.640625 66.65625 
L 9.71875 66.65625 
Q 24.125 47.796875 24.125 24.90625 
Q 24.125 3.03125 9.71875 -16.65625 
L 4.640625 -16.65625 
Q 17 1.765625 17 25 
Q 17 47.171875 4.640625 66.65625 
z
" id="FranklinGothic-Book-41"/>
      </defs>
      <use xlink:href="#FranklinGothic-Book-67"/>
      <use x="57.910156" xlink:href="#FranklinGothic-Book-82"/>
      <use x="118.314453" xlink:href="#FranklinGothic-Book-85"/>
      <use x="178.910156" xlink:href="#FranklinGothic-Book-84"/>
      <use x="227.445312" xlink:href="#FranklinGothic-Book-69"/>
      <use x="282.230469" xlink:href="#FranklinGothic-Book-77"/>
      <use x="363.236328" xlink:href="#FranklinGothic-Book-53"/>
      <use x="421.878906" xlink:href="#FranklinGothic-Book-32"/>
      <use x="446.878906" xlink:href="#FranklinGothic-Book-40"/>
      <use x="476.224609" xlink:href="#FranklinGothic-Book-49"/>
      <use x="534.242188" xlink:href="#FranklinGothic-Book-56"/>
      <use x="592.884766" xlink:href="#FranklinGothic-Book-53"/>
      <use x="651.527344" xlink:href="#FranklinGothic-Book-48"/>
      <use x="710.169922" xlink:href="#FranklinGothic-Book-45"/>
      <use x="735.169922" xlink:href="#FranklinGothic-Book-50"/>
      <use x="793.8125" xlink:href="#FranklinGothic-Book-48"/>
      <use x="852.455078" xlink:href="#FranklinGothic-Book-50"/>
      <use x="911.097656" xlink:href="#FranklinGothic-Book-51"/>
      <use x="969.740234" xlink:href="#FranklinGothic-Book-41"/>
     </g>
    </g>
    <g id="line2d_17"/>
    <g id="text_21">
     <!-- GHCNv4 (1850-2023) -->
     <g style="fill:#e69f00;" transform="translate(185.856 157.04965)scale(0.2 -0.2)">
      <defs>
       <path d="M 55.953125 0 
L 47.609375 0 
L 47.609375 31.734375 
L 16.703125 31.734375 
L 16.703125 0 
L 8.34375 0 
L 8.34375 66.65625 
L 16.703125 66.65625 
L 16.703125 39.0625 
L 47.609375 39.0625 
L 47.609375 66.65625 
L 55.953125 66.65625 
z
" id="FranklinGothic-Book-72"/>
       <path d="M 57.421875 0 
L 49.3125 0 
L 14.84375 58.109375 
L 14.9375 53.71875 
Q 15.09375 51.21875 15.09375 49.515625 
L 15.09375 0 
L 8.34375 0 
L 8.34375 66.65625 
L 18.796875 66.65625 
L 51.03125 12.3125 
L 50.921875 16.9375 
Q 50.828125 19.671875 50.828125 21.78125 
L 50.828125 66.65625 
L 57.421875 66.65625 
z
" id="FranklinGothic-Book-78"/>
      </defs>
      <use xlink:href="#FranklinGothic-Book-71"/>
      <use x="64.697266" xlink:href="#FranklinGothic-Book-72"/>
      <use x="128.955078" xlink:href="#FranklinGothic-Book-67"/>
      <use x="186.865234" xlink:href="#FranklinGothic-Book-78"/>
      <use x="252.587891" xlink:href="#FranklinGothic-Book-118"/>
      <use x="297.607422" xlink:href="#FranklinGothic-Book-52"/>
      <use x="356.25" xlink:href="#FranklinGothic-Book-32"/>
      <use x="381.25" xlink:href="#FranklinGothic-Book-40"/>
      <use x="410.595703" xlink:href="#FranklinGothic-Book-49"/>
      <use x="468.613281" xlink:href="#FranklinGothic-Book-56"/>
      <use x="527.255859" xlink:href="#FranklinGothic-Book-53"/>
      <use x="585.898438" xlink:href="#FranklinGothic-Book-48"/>
      <use x="644.541016" xlink:href="#FranklinGothic-Book-45"/>
      <use x="669.541016" xlink:href="#FranklinGothic-Book-50"/>
      <use x="728.183594" xlink:href="#FranklinGothic-Book-48"/>
      <use x="786.826172" xlink:href="#FranklinGothic-Book-50"/>
      <use x="845.46875" xlink:href="#FranklinGothic-Book-51"/>
      <use x="904.111328" xlink:href="#FranklinGothic-Book-41"/>
     </g>
    </g>
    <g id="line2d_18"/>
    <g id="text_22">
     <!-- CLSAT (1850-2020) -->
     <g style="fill:#56b4e9;" transform="translate(185.856 184.3809)scale(0.2 -0.2)">
      <defs>
       <path d="M 47.703125 7.328125 
L 47.703125 0 
L 8.34375 0 
L 8.34375 66.65625 
L 16.890625 66.65625 
L 16.890625 7.328125 
z
" id="FranklinGothic-Book-76"/>
       <path d="M 1.03125 17.71875 
L 8.546875 19.4375 
Q 13.09375 5.8125 28.21875 5.8125 
Q 36.140625 5.8125 40.140625 9.15625 
Q 44.140625 12.5 44.140625 18.109375 
Q 44.140625 22.359375 41.078125 24.953125 
Q 38.03125 27.546875 34.03125 28.515625 
L 20.703125 31.84375 
Q 15.53125 33.15625 12.234375 35.03125 
Q 8.9375 36.921875 6.640625 40.828125 
Q 4.34375 44.734375 4.34375 49.75 
Q 4.34375 58.109375 10.640625 63.0625 
Q 16.9375 68.015625 26.8125 68.015625 
Q 44.96875 68.015625 50.6875 51.5625 
L 43.109375 49.3125 
Q 41.796875 55.171875 36.90625 58.171875 
Q 32.03125 61.1875 26.515625 61.1875 
Q 21.046875 61.1875 16.765625 58.296875 
Q 12.5 55.421875 12.5 50.140625 
Q 12.5 42.78125 23.34375 40.1875 
L 35.796875 37.203125 
Q 52.875 33.109375 52.875 18.796875 
Q 52.875 10.15625 46.453125 4.421875 
Q 40.046875 -1.3125 28.375 -1.3125 
Q 7.671875 -1.3125 1.03125 17.71875 
z
" id="FranklinGothic-Book-83"/>
       <path d="M 53.21875 0 
L 44.671875 0 
L 37.9375 19.484375 
L 13.28125 19.484375 
L 7.328125 0 
L 0.34375 0 
L 21.96875 66.65625 
L 31.5 66.65625 
z
M 36.1875 25.734375 
L 25.921875 57.765625 
L 15.578125 25.734375 
z
" id="FranklinGothic-Book-65"/>
      </defs>
      <use xlink:href="#FranklinGothic-Book-67"/>
      <use x="57.910156" xlink:href="#FranklinGothic-Book-76"/>
      <use x="106.884766" xlink:href="#FranklinGothic-Book-83"/>
      <use x="163.818359" xlink:href="#FranklinGothic-Book-65"/>
      <use x="210.632812" xlink:href="#FranklinGothic-Book-84"/>
      <use x="259.167969" xlink:href="#FranklinGothic-Book-32"/>
      <use x="284.167969" xlink:href="#FranklinGothic-Book-40"/>
      <use x="313.513672" xlink:href="#FranklinGothic-Book-49"/>
      <use x="371.53125" xlink:href="#FranklinGothic-Book-56"/>
      <use x="430.173828" xlink:href="#FranklinGothic-Book-53"/>
      <use x="488.816406" xlink:href="#FranklinGothic-Book-48"/>
      <use x="547.458984" xlink:href="#FranklinGothic-Book-45"/>
      <use x="572.458984" xlink:href="#FranklinGothic-Book-50"/>
      <use x="631.101562" xlink:href="#FranklinGothic-Book-48"/>
      <use x="689.744141" xlink:href="#FranklinGothic-Book-50"/>
      <use x="748.386719" xlink:href="#FranklinGothic-Book-48"/>
      <use x="807.029297" xlink:href="#FranklinGothic-Book-41"/>
     </g>
    </g>
    <g id="line2d_19"/>
    <g id="text_23">
     <!-- Berkeley Earth (1850-2023) -->
     <g style="fill:#009e73;" transform="translate(185.856 211.71215)scale(0.2 -0.2)">
      <defs>
       <path d="M 8.34375 0 
L 8.34375 66.65625 
L 34.71875 66.65625 
Q 44.671875 66.65625 49.484375 61.765625 
Q 54.296875 56.890625 54.296875 50.4375 
Q 54.296875 39.109375 42.484375 35.40625 
Q 49.515625 33.59375 52.921875 28.953125 
Q 56.34375 24.3125 56.34375 18.453125 
Q 56.34375 10.59375 51.046875 5.296875 
Q 45.75 0 34.71875 0 
z
M 16.40625 38.09375 
L 30.90625 38.09375 
Q 39.9375 38.09375 42.96875 41.53125 
Q 46 44.96875 46 49.609375 
Q 46 54.203125 42.75 57.03125 
Q 39.5 59.859375 33.0625 59.859375 
L 16.40625 59.859375 
z
M 16.40625 7.328125 
L 34.28125 7.328125 
Q 40.828125 7.328125 44.390625 10.5 
Q 47.953125 13.671875 47.953125 18.75 
Q 47.953125 22.3125 46.34375 25.359375 
Q 44.734375 28.421875 41.796875 30.078125 
Q 38.875 31.734375 33.0625 31.734375 
L 16.40625 31.734375 
z
" id="FranklinGothic-Book-66"/>
       <path d="M 48.390625 0 
L 40.4375 0 
L 26.03125 27.546875 
L 15.328125 15.234375 
L 15.328125 0 
L 7.671875 0 
L 7.671875 66.65625 
L 15.328125 66.65625 
L 15.328125 23.96875 
L 38.234375 49.3125 
L 46.4375 49.3125 
L 31 31.984375 
z
" id="FranklinGothic-Book-107"/>
       <path d="M 41.5 49.3125 
L 21.734375 -5.765625 
Q 17.4375 -17.671875 8.015625 -17.671875 
Q 5.03125 -17.671875 1.421875 -16.65625 
L 1.421875 -10.640625 
Q 4.390625 -11.328125 6.546875 -11.328125 
Q 10.203125 -11.328125 12.671875 -9.21875 
Q 15.140625 -7.125 17.578125 0.921875 
L 0.53125 49.3125 
L 8.34375 49.3125 
L 21.53125 12.25 
L 35.0625 49.3125 
z
" id="FranklinGothic-Book-121"/>
       <path d="M 46.34375 0 
L 38.671875 0 
L 38.671875 29.9375 
Q 38.671875 35.203125 38.015625 37.84375 
Q 37.359375 40.484375 34.890625 42.40625 
Q 32.421875 44.34375 29.203125 44.34375 
Q 23.296875 44.34375 19.3125 39.5 
Q 15.328125 34.671875 15.328125 26.5625 
L 15.328125 0 
L 7.671875 0 
L 7.671875 66.65625 
L 15.328125 66.65625 
L 15.328125 40.234375 
Q 20.5625 50.6875 30.28125 50.6875 
Q 34.625 50.6875 38.015625 48.96875 
Q 41.40625 47.265625 43.203125 44.484375 
Q 45.015625 41.703125 45.671875 38.984375 
Q 46.34375 36.28125 46.34375 29.9375 
z
" id="FranklinGothic-Book-104"/>
      </defs>
      <use xlink:href="#FranklinGothic-Book-66"/>
      <use x="60.449219" xlink:href="#FranklinGothic-Book-101"/>
      <use x="112.5" xlink:href="#FranklinGothic-Book-114"/>
      <use x="144.958984" xlink:href="#FranklinGothic-Book-107"/>
      <use x="192.806641" xlink:href="#FranklinGothic-Book-101"/>
      <use x="244.857422" xlink:href="#FranklinGothic-Book-108"/>
      <use x="267.855469" xlink:href="#FranklinGothic-Book-101"/>
      <use x="318.28125" xlink:href="#FranklinGothic-Book-121"/>
      <use x="359.785156" xlink:href="#FranklinGothic-Book-32"/>
      <use x="384.785156" xlink:href="#FranklinGothic-Book-69"/>
      <use x="439.570312" xlink:href="#FranklinGothic-Book-97"/>
      <use x="492.451172" xlink:href="#FranklinGothic-Book-114"/>
      <use x="528.785156" xlink:href="#FranklinGothic-Book-116"/>
      <use x="559.546875" xlink:href="#FranklinGothic-Book-104"/>
      <use x="613.550781" xlink:href="#FranklinGothic-Book-32"/>
      <use x="638.550781" xlink:href="#FranklinGothic-Book-40"/>
      <use x="667.896484" xlink:href="#FranklinGothic-Book-49"/>
      <use x="725.914062" xlink:href="#FranklinGothic-Book-56"/>
      <use x="784.556641" xlink:href="#FranklinGothic-Book-53"/>
      <use x="843.199219" xlink:href="#FranklinGothic-Book-48"/>
      <use x="901.841797" xlink:href="#FranklinGothic-Book-45"/>
      <use x="926.841797" xlink:href="#FranklinGothic-Book-50"/>
      <use x="985.484375" xlink:href="#FranklinGothic-Book-48"/>
      <use x="1044.126953" xlink:href="#FranklinGothic-Book-50"/>
      <use x="1102.769531" xlink:href="#FranklinGothic-Book-51"/>
      <use x="1161.412109" xlink:href="#FranklinGothic-Book-41"/>
     </g>
    </g>
   </g>
   <g id="line2d_20">
    <path clip-path="url(#p89ac1a7126)" d="M 184.581818 506.800198 
L 189.273358 457.720069 
L 193.964898 476.788697 
L 198.656437 475.52878 
L 203.347977 442.770944 
L 208.039517 454.265915 
L 212.731056 469.016851 
L 217.422596 513.779288 
L 222.114136 445.404028 
L 226.805675 414.713022 
L 231.497215 481.389517 
L 236.188755 491.284819 
L 240.880294 554.04 
L 245.571834 444.498021 
L 250.263374 472.357754 
L 254.954913 436.0042 
L 259.646453 415.123556 
L 264.337993 389.118307 
L 269.029532 436.230702 
L 273.721072 395.262171 
L 278.412612 444.045017 
L 283.104151 468.195782 
L 287.795691 454.52073 
L 292.487231 425.160422 
L 297.17877 403.274676 
L 301.87031 490.746877 
L 306.56185 452.015052 
L 311.253389 382.436501 
L 315.944929 323.078849 
L 320.636469 439.47251 
L 325.328008 465.789199 
L 330.019548 425.854084 
L 339.402627 464.61422 
L 344.094167 500.55724 
L 348.785707 473.81586 
L 353.477246 476.675446 
L 358.168786 481.502768 
L 362.860326 444.144112 
L 367.551865 409.800762 
L 372.243405 474.707711 
L 376.934945 465.053068 
L 381.626484 460.268215 
L 386.318024 461.825416 
L 391.009564 436.7828 
L 395.701104 434.064777 
L 400.392643 426.505277 
L 405.084183 412.405534 
L 409.775723 436.060825 
L 414.467262 393.308592 
L 419.158802 373.815273 
L 423.850342 375.54235 
L 428.541881 418.025612 
L 433.233421 430.398278 
L 437.924961 454.36501 
L 447.30804 401.448504 
L 451.99958 471.140306 
L 456.691119 433.540992 
L 461.382659 436.273171 
L 466.074199 428.71367 
L 470.765738 439.132757 
L 475.457278 441.652591 
L 480.148818 419.04487 
L 484.840357 366.439805 
L 489.531897 373.744491 
L 494.223437 434.503625 
L 498.914976 472.315285 
L 503.606516 449.679252 
L 508.298056 407.238459 
L 512.989595 411.357962 
L 517.681135 376.250168 
L 522.372675 405.851135 
L 527.064214 403.770149 
L 531.755754 392.119458 
L 536.447294 389.203246 
L 541.138833 358.11586 
L 545.830373 396.253117 
L 550.521913 377.722431 
L 555.213452 447.173574 
L 559.904992 381.941029 
L 564.596532 365.576267 
L 569.288071 368.053631 
L 573.979611 428.543794 
L 578.671151 381.417243 
L 583.36269 402.227105 
L 588.05423 395.177233 
L 592.74577 368.648199 
L 597.43731 339.061389 
L 602.128849 354.80327 
L 606.820389 355.992405 
L 611.511929 357.719482 
L 616.203468 363.013964 
L 620.895008 357.252322 
L 625.586548 340.774309 
L 630.278087 385.890655 
L 634.969627 369.087046 
L 639.661167 348.687719 
L 644.352706 358.583021 
L 649.044246 385.621684 
L 653.735786 420.559602 
L 658.427325 376.47667 
L 663.118865 373.249018 
L 667.810405 334.290692 
L 672.501944 385.508433 
L 677.193484 376.136918 
L 681.885024 433.045519 
L 686.576563 367.982849 
L 691.268103 352.552408 
L 695.959643 353.331008 
L 700.651182 382.931974 
L 705.342722 346.167885 
L 710.034262 356.261376 
L 714.725801 336.215958 
L 719.417341 414.01936 
L 724.108881 391.878799 
L 728.80042 377.7649 
L 733.49196 360.451661 
L 738.1835 394.540197 
L 742.875039 379.874199 
L 747.566579 358.46977 
L 756.949658 394.412789 
L 761.641198 313.67902 
L 766.332738 396.90431 
L 771.024277 348.319653 
L 775.715817 414.104298 
L 780.407357 326.235719 
L 785.098896 354.307797 
L 789.790436 352.170186 
L 794.481976 307.16709 
L 799.173516 276.929087 
L 803.865055 362.107956 
L 808.556595 296.464876 
L 813.248135 356.020718 
L 817.939674 360.097752 
L 822.631214 327.028475 
L 827.322754 300.570223 
L 832.014293 266.04284 
L 836.705833 312.85795 
L 841.397373 261.088111 
L 846.088912 267.897324 
L 850.780452 330.426004 
L 855.471992 323.078849 
L 860.163531 293.350475 
L 864.855071 241.83545 
L 869.546611 295.077552 
L 874.23815 269.66687 
L 878.92969 211.866418 
L 883.62123 254.123178 
L 888.312769 268.350328 
L 893.004309 233.001876 
L 897.695849 204.321073 
L 902.387388 213.593495 
L 907.078928 245.855859 
L 911.770468 180.977222 
L 916.462007 210.408312 
L 921.153547 176.81525 
L 925.845087 226.928794 
L 930.536626 211.328476 
L 935.228166 182.095575 
L 939.919706 212.09292 
L 944.611245 219.312668 
L 949.302785 199.73441 
L 953.994325 204.873172 
L 958.685864 159.133945 
L 963.377404 124.479155 
L 968.068944 145.119141 
L 972.760483 172.908092 
L 977.452023 138.720462 
L 982.143563 111.738424 
L 986.835102 155.156006 
L 991.526642 156.897239 
L 996.218182 111.469453 
L 996.218182 111.469453 
" style="fill:none;stroke:#009e73;stroke-linecap:round;stroke-width:3;"/>
   </g>
   <g id="line2d_21">
    <path clip-path="url(#p89ac1a7126)" d="M 184.581818 431.51144 
L 189.273358 414.523798 
L 193.964898 417.921327 
L 198.656437 416.222562 
L 203.347977 416.222562 
L 208.039517 433.210204 
L 212.731056 431.51144 
L 217.422596 431.51144 
L 222.114136 416.222562 
L 226.805675 392.439863 
L 231.497215 411.12627 
L 236.188755 406.029977 
L 240.880294 429.812676 
L 245.571834 411.12627 
L 250.263374 426.415148 
L 254.954913 412.825034 
L 259.646453 411.12627 
L 264.337993 419.620091 
L 269.029532 411.12627 
L 273.721072 404.331213 
L 278.412612 404.331213 
L 283.104151 414.523798 
L 287.795691 394.138628 
L 292.487231 406.029977 
L 297.17877 406.029977 
L 301.87031 436.607733 
L 306.56185 424.716383 
L 311.253389 411.12627 
L 315.944929 385.644806 
L 320.636469 424.716383 
L 325.328008 443.40279 
L 330.019548 433.210204 
L 334.711088 436.607733 
L 339.402627 455.294139 
L 344.094167 465.486725 
L 348.785707 451.896611 
L 353.477246 451.896611 
L 358.168786 445.101554 
L 362.860326 446.800318 
L 367.551865 436.607733 
L 372.243405 440.005261 
L 376.934945 455.294139 
L 381.626484 443.40279 
L 386.318024 441.704026 
L 391.009564 423.017619 
L 395.701104 421.318855 
L 400.392643 414.523798 
L 405.084183 416.222562 
L 409.775723 421.318855 
L 414.467262 392.439863 
L 419.158802 392.439863 
L 423.850342 383.946042 
L 428.541881 423.017619 
L 433.233421 421.318855 
L 437.924961 424.716383 
L 442.6165 412.825034 
L 447.30804 395.837392 
L 451.99958 453.595375 
L 456.691119 426.415148 
L 461.382659 428.113912 
L 466.074199 421.318855 
L 475.457278 445.101554 
L 480.148818 412.825034 
L 484.840357 389.042335 
L 489.531897 382.247278 
L 494.223437 433.210204 
L 498.914976 462.089196 
L 503.606516 429.812676 
L 508.298056 421.318855 
L 512.989595 419.620091 
L 517.681135 383.946042 
L 522.372675 407.728741 
L 527.064214 400.933684 
L 531.755754 412.825034 
L 536.447294 385.644806 
L 541.138833 368.657164 
L 545.830373 397.536156 
L 550.521913 383.946042 
L 555.213452 438.306497 
L 559.904992 375.452221 
L 564.596532 373.753457 
L 569.288071 368.657164 
L 573.979611 417.921327 
L 578.671151 370.355929 
L 583.36269 390.741099 
L 588.05423 383.946042 
L 592.74577 368.657164 
L 597.43731 336.380644 
L 602.128849 351.669522 
L 606.820389 356.765815 
L 611.511929 360.163343 
L 616.203468 366.9584 
L 620.895008 348.271994 
L 625.586548 331.284352 
L 630.278087 380.548514 
L 634.969627 372.054693 
L 639.661167 356.765815 
L 644.352706 351.669522 
L 649.044246 372.054693 
L 653.735786 414.523798 
L 658.427325 378.84975 
L 663.118865 375.452221 
L 667.810405 332.983116 
L 672.501944 385.644806 
L 677.193484 387.343571 
L 681.885024 436.607733 
L 686.576563 380.548514 
L 691.268103 349.970758 
L 695.959643 356.765815 
L 700.651182 366.9584 
L 705.342722 348.271994 
L 710.034262 339.778173 
L 714.725801 336.380644 
L 719.417341 400.933684 
L 724.108881 383.946042 
L 728.80042 377.150985 
L 733.49196 366.9584 
L 738.1835 389.042335 
L 742.875039 382.247278 
L 747.566579 363.560872 
L 752.258119 375.452221 
L 756.949658 404.331213 
L 761.641198 322.79053 
L 766.332738 404.331213 
L 771.024277 346.573229 
L 775.715817 409.427505 
L 780.407357 329.585587 
L 785.098896 363.560872 
L 789.790436 351.669522 
L 794.481976 321.091766 
L 799.173516 280.321425 
L 803.865055 353.368286 
L 808.556595 292.212775 
L 813.248135 365.259636 
L 817.939674 351.669522 
L 822.631214 322.79053 
L 827.322754 302.40536 
L 832.014293 278.622661 
L 836.705833 309.200417 
L 841.397373 261.635019 
L 846.088912 282.020189 
L 850.780452 331.284352 
L 855.471992 315.995474 
L 860.163531 285.417718 
L 864.855071 242.948612 
L 869.546611 314.296709 
L 874.23815 259.936254 
L 878.92969 210.672092 
L 883.62123 239.551084 
L 888.312769 261.635019 
L 893.004309 225.96097 
L 897.695849 210.672092 
L 902.387388 210.672092 
L 907.078928 237.85232 
L 911.770468 191.985686 
L 916.462007 200.479507 
L 921.153547 185.190629 
L 925.845087 220.864678 
L 930.536626 215.768385 
L 935.228166 188.588157 
L 939.919706 222.563442 
L 944.611245 203.877035 
L 949.302785 200.479507 
L 953.994325 203.877035 
L 958.685864 135.926467 
L 963.377404 115.541296 
L 968.068944 132.528938 
L 972.760483 193.68445 
L 977.452023 156.311637 
L 982.143563 132.528938 
L 982.143563 132.528938 
" style="fill:none;stroke:#56b4e9;stroke-linecap:round;stroke-width:3;"/>
   </g>
   <g id="line2d_22">
    <path clip-path="url(#p89ac1a7126)" d="M 184.581818 442.5114 
L 189.273358 429.616818 
L 193.964898 446.654574 
L 198.656437 447.304734 
L 203.347977 435.14699 
L 208.039517 448.656256 
L 212.731056 482.739172 
L 217.422596 473.858896 
L 222.114136 459.376449 
L 226.805675 435.387322 
L 231.497215 485.191267 
L 236.188755 468.217031 
L 240.880294 488.39927 
L 245.571834 440.515212 
L 250.263374 476.118507 
L 254.954913 467.791972 
L 259.646453 458.271899 
L 264.337993 468.389399 
L 269.029532 456.092667 
L 273.721072 444.745786 
L 278.412612 466.007052 
L 283.104151 474.643711 
L 287.795691 465.365117 
L 292.487231 457.797349 
L 297.17877 443.28441 
L 301.87031 477.394137 
L 306.56185 468.245584 
L 311.253389 440.195391 
L 315.944929 416.872902 
L 320.636469 451.771917 
L 325.328008 460.113147 
L 330.019548 463.631358 
L 334.711088 458.891566 
L 339.402627 484.677008 
L 344.094167 503.265991 
L 348.785707 492.441932 
L 353.477246 455.705958 
L 358.168786 472.733068 
L 362.860326 466.804409 
L 367.551865 421.780447 
L 372.243405 440.090478 
L 376.934945 446.677423 
L 381.626484 465.45627 
L 386.318024 482.133874 
L 391.009564 429.243515 
L 395.701104 447.529693 
L 400.392643 421.713969 
L 405.084183 414.153223 
L 409.775723 438.113612 
L 414.467262 428.781833 
L 419.158802 416.061883 
L 423.850342 405.768236 
L 428.541881 434.852424 
L 433.233421 425.640436 
L 437.924961 450.278789 
L 442.6165 429.593177 
L 447.30804 417.020015 
L 451.99958 458.830962 
L 456.691119 445.509904 
L 461.382659 451.195187 
L 466.074199 438.872535 
L 470.765738 453.557446 
L 475.457278 463.42653 
L 480.148818 441.017494 
L 484.840357 400.465968 
L 489.531897 403.066464 
L 494.223437 450.151933 
L 498.914976 493.102667 
L 503.606516 465.920854 
L 508.298056 431.145692 
L 512.989595 435.173901 
L 517.681135 401.554295 
L 522.372675 422.456782 
L 527.064214 420.477736 
L 531.755754 409.066641 
L 536.447294 407.450819 
L 541.138833 383.526174 
L 545.830373 412.103664 
L 550.521913 390.347208 
L 555.213452 445.008174 
L 559.904992 387.184449 
L 564.596532 374.337318 
L 569.288071 377.098716 
L 573.979611 430.12506 
L 578.671151 372.618636 
L 583.36269 396.907085 
L 588.05423 391.178923 
L 592.74577 358.635838 
L 597.43731 328.687531 
L 602.128849 357.306881 
L 606.820389 350.680059 
L 611.511929 361.371939 
L 616.203468 367.29049 
L 620.895008 351.075786 
L 625.586548 336.697644 
L 630.278087 382.922249 
L 634.969627 380.786294 
L 639.661167 358.126577 
L 644.352706 373.423553 
L 649.044246 383.55041 
L 653.735786 412.81093 
L 658.427325 382.691359 
L 663.118865 377.093676 
L 667.810405 330.008703 
L 672.501944 374.74001 
L 677.193484 403.072962 
L 681.885024 436.029752 
L 686.576563 382.90563 
L 691.268103 377.059304 
L 695.959643 363.381662 
L 700.651182 386.664047 
L 705.342722 372.85509 
L 710.034262 374.549564 
L 714.725801 364.137187 
L 719.417341 429.872213 
L 724.108881 400.022562 
L 728.80042 399.904271 
L 733.49196 371.392553 
L 738.1835 418.369923 
L 742.875039 398.460379 
L 747.566579 377.560865 
L 752.258119 385.553479 
L 756.949658 409.382979 
L 761.641198 327.634071 
L 766.332738 401.247385 
L 771.024277 364.46512 
L 775.715817 406.763966 
L 780.407357 342.991423 
L 785.098896 369.187401 
L 789.790436 359.602195 
L 794.481976 327.731991 
L 799.173516 282.440615 
L 803.865055 367.336003 
L 808.556595 309.950403 
L 813.248135 352.555947 
L 817.939674 357.408227 
L 822.631214 347.343785 
L 827.322754 337.808182 
L 832.014293 277.063913 
L 836.705833 315.082157 
L 841.397373 274.686422 
L 846.088912 277.314736 
L 850.780452 346.620154 
L 855.471992 330.174884 
L 860.163531 314.39563 
L 864.855071 245.844633 
L 869.546611 302.66109 
L 874.23815 282.035828 
L 878.92969 231.241405 
L 883.62123 267.595709 
L 888.312769 270.642372 
L 897.695849 221.125037 
L 902.387388 223.827276 
L 907.078928 263.901279 
L 911.770468 178.250508 
L 916.462007 200.610251 
L 921.153547 172.248094 
L 925.845087 225.687012 
L 930.536626 214.345128 
L 935.228166 178.424659 
L 939.919706 191.729834 
L 944.611245 198.3675 
L 949.302785 199.462254 
L 953.994325 188.996833 
L 958.685864 150.985823 
L 963.377404 100.591841 
L 968.068944 124.18534 
L 972.760483 156.813448 
L 977.452023 124.788572 
L 982.143563 100.44 
L 986.835102 148.073462 
L 991.526642 137.059467 
L 996.218182 135.259245 
L 996.218182 135.259245 
" style="fill:none;stroke:#e69f00;stroke-linecap:round;stroke-width:3;"/>
   </g>
   <g id="line2d_23">
    <path clip-path="url(#p89ac1a7126)" d="M 217.422596 439.356525 
L 222.114136 430.456149 
L 226.805675 382.95443 
L 231.497215 460.377724 
L 236.188755 415.554096 
L 240.880294 452.877776 
L 245.571834 385.890543 
L 250.263374 474.12942 
L 254.954913 409.400138 
L 259.646453 408.453901 
L 264.337993 443.830181 
L 269.029532 413.015176 
L 273.721072 407.228732 
L 278.412612 435.686681 
L 283.104151 455.51007 
L 287.795691 402.715135 
L 292.487231 410.318568 
L 297.17877 422.365456 
L 301.87031 480.470919 
L 306.56185 428.866263 
L 311.253389 385.034818 
L 315.944929 349.66659 
L 320.636469 439.740873 
L 325.328008 410.908328 
L 330.019548 418.253171 
L 334.711088 398.847556 
L 339.402627 444.925154 
L 344.094167 466.391754 
L 348.785707 463.292076 
L 353.477246 437.150091 
L 358.168786 447.283204 
L 362.860326 446.397407 
L 367.551865 390.491891 
L 372.243405 420.493873 
L 376.934945 435.435571 
L 381.626484 446.026219 
L 386.318024 458.622579 
L 391.009564 423.042188 
L 395.701104 440.498965 
L 400.392643 409.478698 
L 405.084183 396.93301 
L 409.775723 410.959027 
L 414.467262 401.255918 
L 419.158802 378.132974 
L 423.850342 372.64181 
L 428.541881 412.144753 
L 433.233421 417.633695 
L 437.924961 435.874787 
L 442.6165 412.452255 
L 447.30804 377.053702 
L 451.99958 446.273691 
L 456.691119 420.254112 
L 461.382659 414.654481 
L 466.074199 402.743934 
L 470.765738 416.839425 
L 475.457278 419.583322 
L 480.148818 398.109162 
L 484.840357 356.204161 
L 489.531897 356.481905 
L 494.223437 404.924068 
L 498.914976 456.200472 
L 503.606516 416.405255 
L 508.298056 393.067667 
L 512.989595 387.901033 
L 517.681135 361.358495 
L 522.372675 386.510139 
L 527.064214 387.921854 
L 531.755754 397.938741 
L 536.447294 380.190494 
L 541.138833 354.963392 
L 545.830373 381.168538 
L 550.521913 368.975962 
L 555.213452 425.229124 
L 559.904992 364.23626 
L 564.596532 359.103448 
L 569.288071 358.935036 
L 573.979611 399.15895 
L 578.671151 350.69813 
L 583.36269 374.233805 
L 588.05423 366.358237 
L 592.74577 353.436285 
L 597.43731 320.224586 
L 602.128849 346.66452 
L 606.820389 353.592126 
L 611.511929 350.563056 
L 616.203468 353.482561 
L 620.895008 344.14779 
L 625.586548 328.878863 
L 630.278087 367.474238 
L 634.969627 361.515235 
L 639.661167 348.443839 
L 644.352706 346.615879 
L 649.044246 365.18261 
L 653.735786 397.285233 
L 658.427325 363.552673 
L 663.118865 355.173712 
L 667.810405 322.876746 
L 672.501944 369.437642 
L 677.193484 377.203649 
L 681.885024 417.269788 
L 686.576563 357.085366 
L 691.268103 336.707474 
L 695.959643 340.799548 
L 700.651182 355.025608 
L 705.342722 336.469931 
L 710.034262 338.749703 
L 714.725801 339.811883 
L 719.417341 391.637851 
L 724.108881 382.735622 
L 728.80042 365.240182 
L 733.49196 358.239368 
L 738.1835 378.201657 
L 742.875039 362.501866 
L 747.566579 351.757383 
L 752.258119 377.913855 
L 756.949658 382.259858 
L 761.641198 319.715166 
L 766.332738 390.56171 
L 771.024277 354.072653 
L 775.715817 403.112393 
L 780.407357 328.614066 
L 785.098896 351.112415 
L 794.481976 321.499032 
L 799.173516 291.518905 
L 803.865055 345.540786 
L 808.556595 289.153661 
L 813.248135 350.361267 
L 817.939674 348.969037 
L 822.631214 325.497105 
L 827.322754 298.653829 
L 832.014293 281.299288 
L 836.705833 303.177924 
L 841.397373 260.108786 
L 846.088912 279.55672 
L 850.780452 328.470035 
L 855.471992 314.116285 
L 860.163531 288.334621 
L 864.855071 247.258402 
L 869.546611 304.458217 
L 874.23815 260.578855 
L 878.92969 200.316907 
L 883.62123 249.165102 
L 888.312769 263.675066 
L 893.004309 230.045356 
L 897.695849 213.086693 
L 902.387388 214.216664 
L 907.078928 232.19319 
L 911.770468 196.114746 
L 916.462007 206.103571 
L 921.153547 189.89253 
L 925.845087 227.659893 
L 930.536626 217.883462 
L 935.228166 184.917692 
L 939.919706 220.646968 
L 944.611245 211.580051 
L 949.302785 199.809376 
L 953.994325 194.105616 
L 958.685864 144.782671 
L 963.377404 121.695873 
L 968.068944 145.675991 
L 972.760483 177.832802 
L 977.452023 144.698012 
L 982.143563 120.239399 
L 986.835102 162.50804 
L 991.526642 166.143042 
L 996.218182 129.82324 
L 996.218182 129.82324 
" style="fill:none;stroke:#696969;stroke-linecap:round;stroke-width:3;"/>
   </g>
  </g>
  <g id="text_24">
   <g id="patch_4">
    <path d="M 875.829375 646.18275 
L 1040.76 646.18275 
L 1040.76 628.26525 
L 875.829375 628.26525 
z
" style="fill:#ffffff;stroke:#ffffff;stroke-linejoin:miter;"/>
   </g>
   <!-- Created: 2023-08-01 17:12:39 -->
   <g style="fill:#696969;" transform="translate(879.789375 640.224)scale(0.12 -0.12)">
    <defs>
     <path d="M 17.96875 49.3125 
L 17.96875 38.375 
L 7.078125 38.375 
L 7.078125 49.3125 
z
M 17.96875 10.984375 
L 17.96875 0 
L 7.078125 0 
L 7.078125 10.984375 
z
" id="FranklinGothic-Book-58"/>
     <path d="M 28.078125 0 
L 19.484375 0 
Q 19.484375 16.75 26.3125 32.59375 
Q 33.15625 48.4375 43.0625 59.328125 
L 6.890625 59.328125 
L 7.71875 66.65625 
L 51.765625 66.65625 
L 51.765625 61.671875 
Q 39.84375 47.3125 33.9375 31.78125 
Q 28.03125 16.265625 28.03125 2.296875 
Q 28.03125 1.515625 28.078125 0 
z
" id="FranklinGothic-Book-55"/>
    </defs>
    <use xlink:href="#FranklinGothic-Book-67"/>
    <use x="57.910156" xlink:href="#FranklinGothic-Book-114"/>
    <use x="90.869141" xlink:href="#FranklinGothic-Book-101"/>
    <use x="142.919922" xlink:href="#FranklinGothic-Book-97"/>
    <use x="195.800781" xlink:href="#FranklinGothic-Book-116"/>
    <use x="224.8125" xlink:href="#FranklinGothic-Book-101"/>
    <use x="276.863281" xlink:href="#FranklinGothic-Book-100"/>
    <use x="330.720703" xlink:href="#FranklinGothic-Book-58"/>
    <use x="355.720703" xlink:href="#FranklinGothic-Book-32"/>
    <use x="380.720703" xlink:href="#FranklinGothic-Book-50"/>
    <use x="439.363281" xlink:href="#FranklinGothic-Book-48"/>
    <use x="498.005859" xlink:href="#FranklinGothic-Book-50"/>
    <use x="556.648438" xlink:href="#FranklinGothic-Book-51"/>
    <use x="615.291016" xlink:href="#FranklinGothic-Book-45"/>
    <use x="640.291016" xlink:href="#FranklinGothic-Book-48"/>
    <use x="698.933594" xlink:href="#FranklinGothic-Book-56"/>
    <use x="757.576172" xlink:href="#FranklinGothic-Book-45"/>
    <use x="782.576172" xlink:href="#FranklinGothic-Book-48"/>
    <use x="837.46875" xlink:href="#FranklinGothic-Book-49"/>
    <use x="896.111328" xlink:href="#FranklinGothic-Book-32"/>
    <use x="921.111328" xlink:href="#FranklinGothic-Book-49"/>
    <use x="972.878906" xlink:href="#FranklinGothic-Book-55"/>
    <use x="1023.896484" xlink:href="#FranklinGothic-Book-58"/>
    <use x="1048.896484" xlink:href="#FranklinGothic-Book-49"/>
    <use x="1107.539062" xlink:href="#FranklinGothic-Book-50"/>
    <use x="1166.181641" xlink:href="#FranklinGothic-Book-58"/>
    <use x="1191.181641" xlink:href="#FranklinGothic-Book-51"/>
    <use x="1249.824219" xlink:href="#FranklinGothic-Book-57"/>
   </g>
  </g>
 </g>
 <defs>
  <clipPath id="p89ac1a7126">
   <rect height="498.96" width="892.8" x="144" y="77.76"/>
  </clipPath>
 </defs>
</svg>
