<?xml version="1.0" encoding="utf-8" standalone="no"?>
<!DOCTYPE svg PUBLIC "-//W3C//DTD SVG 1.1//EN"
  "http://www.w3.org/Graphics/SVG/1.1/DTD/svg11.dtd">
<!-- Created with matplotlib (https://matplotlib.org/) -->
<svg height="648pt" version="1.1" viewBox="0 0 1152 648" width="1152pt" xmlns="http://www.w3.org/2000/svg" xmlns:xlink="http://www.w3.org/1999/xlink">
 <metadata>
  <rdf:RDF xmlns:cc="http://creativecommons.org/ns#" xmlns:dc="http://purl.org/dc/elements/1.1/" xmlns:rdf="http://www.w3.org/1999/02/22-rdf-syntax-ns#">
   <cc:Work>
    <dc:type rdf:resource="http://purl.org/dc/dcmitype/StillImage"/>
    <dc:date>2024-02-08T11:46:32.399911</dc:date>
    <dc:format>image/svg+xml</dc:format>
    <dc:creator>
     <cc:Agent>
      <dc:title>Matplotlib v3.3.1, https://matplotlib.org/</dc:title>
     </cc:Agent>
    </dc:creator>
   </cc:Work>
  </rdf:RDF>
 </metadata>
 <defs>
  <style type="text/css">*{stroke-linecap:butt;stroke-linejoin:round;}</style>
 </defs>
 <g id="figure_1">
  <g id="patch_1">
   <path d="M 0 648 
L 1152 648 
L 1152 0 
L 0 0 
z
" style="fill:#ffffff;"/>
  </g>
  <g id="axes_1">
   <g id="patch_2">
    <path d="M 144 576.72 
L 1036.8 576.72 
L 1036.8 77.76 
L 144 77.76 
z
" style="fill:none;"/>
   </g>
   <g id="patch_3">
    <path d="M 144 576.72 
L 1036.8 576.72 
" style="fill:none;stroke:#d3d3d3;stroke-linecap:square;stroke-linejoin:miter;stroke-width:1.25;"/>
   </g>
   <g id="matplotlib.axis_1">
    <g id="xtick_1">
     <g id="line2d_1">
      <defs>
       <path d="M 0 0 
L 0 6 
" id="m226848af2b" style="stroke:#696969;stroke-width:1.25;"/>
      </defs>
      <g>
       <use style="fill:#696969;stroke:#696969;stroke-width:1.25;" x="309.716332" xlink:href="#m226848af2b" y="576.72"/>
      </g>
     </g>
     <g id="text_1">
      <!-- 1990 -->
      <g style="fill:#696969;" transform="translate(282.89977 601.550938)scale(0.23 -0.23)">
       <defs>
        <path d="M 55.859375 6.203125 
L 55.859375 0 
L 9.1875 0 
L 9.1875 6.203125 
L 29.203125 6.203125 
L 29.203125 57.671875 
Q 20.359375 48.4375 10.84375 43.265625 
L 10.84375 51.65625 
Q 23.96875 58.546875 31.203125 68.015625 
L 37.15625 68.015625 
L 37.15625 6.203125 
z
" id="FranklinGothic-Book-49"/>
        <path d="M 5.71875 12.15625 
L 12.40625 14.59375 
Q 16.546875 5.375 26.375 5.375 
Q 35.890625 5.375 40.703125 13.375 
Q 45.515625 21.390625 45.65625 35.109375 
Q 39.109375 23.09375 25.984375 23.09375 
Q 16.703125 23.09375 10.40625 29.421875 
Q 4.109375 35.75 4.109375 45.0625 
Q 4.109375 54.546875 10.71875 61.28125 
Q 17.328125 68.015625 27.59375 68.015625 
Q 40.140625 68.015625 46.828125 59.203125 
Q 53.515625 50.390625 53.515625 34.96875 
Q 53.515625 18.75 46.4375 8.71875 
Q 39.359375 -1.3125 26.265625 -1.3125 
Q 10.984375 -1.3125 5.71875 12.15625 
z
M 27.828125 29.78125 
Q 34.71875 29.78125 39.375 34.59375 
Q 44.046875 39.40625 44.046875 45.84375 
Q 44.046875 52.09375 39.625 56.578125 
Q 35.203125 61.078125 27.984375 61.078125 
Q 20.65625 61.078125 16.40625 56.46875 
Q 12.15625 51.859375 12.15625 45.21875 
Q 12.15625 38.09375 16.859375 33.9375 
Q 21.578125 29.78125 27.828125 29.78125 
z
" id="FranklinGothic-Book-57"/>
        <path d="M 29.390625 -1.3125 
Q 17.875 -1.3125 10.984375 8.671875 
Q 4.109375 18.65625 4.109375 33.453125 
Q 4.109375 48 10.640625 58 
Q 17.1875 68.015625 29.15625 68.015625 
Q 41.65625 68.015625 48.125 57.5625 
Q 54.59375 47.125 54.59375 33.0625 
Q 54.59375 19.28125 47.953125 8.984375 
Q 41.3125 -1.3125 29.390625 -1.3125 
z
M 29.4375 5.21875 
Q 37.890625 5.21875 41.9375 12.859375 
Q 46 20.515625 46 32.078125 
Q 46 44.734375 41.84375 53.125 
Q 37.703125 61.53125 29.046875 61.53125 
Q 20.703125 61.53125 16.625 53.859375 
Q 12.546875 46.1875 12.546875 33.6875 
Q 12.546875 20.703125 16.84375 12.953125 
Q 21.140625 5.21875 29.4375 5.21875 
z
" id="FranklinGothic-Book-48"/>
       </defs>
       <use xlink:href="#FranklinGothic-Book-49"/>
       <use x="57.267578" xlink:href="#FranklinGothic-Book-57"/>
       <use x="115.910156" xlink:href="#FranklinGothic-Book-57"/>
       <use x="174.552734" xlink:href="#FranklinGothic-Book-48"/>
      </g>
     </g>
    </g>
    <g id="xtick_2">
     <g id="line2d_2">
      <g>
       <use style="fill:#696969;stroke:#696969;stroke-width:1.25;" x="518.273856" xlink:href="#m226848af2b" y="576.72"/>
      </g>
     </g>
     <g id="text_2">
      <!-- 2000 -->
      <g style="fill:#696969;" transform="translate(491.299169 601.550938)scale(0.23 -0.23)">
       <defs>
        <path d="M 52.484375 6.9375 
L 52.484375 0 
L 5.171875 0 
L 5.171875 6.9375 
Q 33.203125 27.9375 38.59375 34.59375 
Q 44 41.265625 44 47.796875 
Q 44 53.90625 39.453125 57.65625 
Q 34.90625 61.421875 29 61.421875 
Q 22.90625 61.421875 18.21875 57.296875 
Q 13.53125 53.171875 12.9375 46.09375 
L 5.171875 48.4375 
Q 10.0625 68.015625 29.109375 68.015625 
Q 39.40625 68.015625 45.84375 62.15625 
Q 52.296875 56.296875 52.296875 47.859375 
Q 52.296875 42.046875 49.234375 36.671875 
Q 46.1875 31.296875 37.6875 23.828125 
Q 29.203125 16.359375 15.71875 6.9375 
z
" id="FranklinGothic-Book-50"/>
       </defs>
       <use xlink:href="#FranklinGothic-Book-50"/>
       <use x="58.642578" xlink:href="#FranklinGothic-Book-48"/>
       <use x="117.285156" xlink:href="#FranklinGothic-Book-48"/>
       <use x="175.927734" xlink:href="#FranklinGothic-Book-48"/>
      </g>
     </g>
    </g>
    <g id="xtick_3">
     <g id="line2d_3">
      <g>
       <use style="fill:#696969;stroke:#696969;stroke-width:1.25;" x="726.83138" xlink:href="#m226848af2b" y="576.72"/>
      </g>
     </g>
     <g id="text_3">
      <!-- 2010 -->
      <g style="fill:#696969;" transform="translate(700.661693 601.550938)scale(0.23 -0.23)">
       <use xlink:href="#FranklinGothic-Book-50"/>
       <use x="58.642578" xlink:href="#FranklinGothic-Book-48"/>
       <use x="113.535156" xlink:href="#FranklinGothic-Book-49"/>
       <use x="168.927734" xlink:href="#FranklinGothic-Book-48"/>
      </g>
     </g>
    </g>
    <g id="xtick_4">
     <g id="line2d_4">
      <g>
       <use style="fill:#696969;stroke:#696969;stroke-width:1.25;" x="935.388904" xlink:href="#m226848af2b" y="576.72"/>
      </g>
     </g>
     <g id="text_4">
      <!-- 2020 -->
      <g style="fill:#696969;" transform="translate(908.414217 601.550938)scale(0.23 -0.23)">
       <use xlink:href="#FranklinGothic-Book-50"/>
       <use x="58.642578" xlink:href="#FranklinGothic-Book-48"/>
       <use x="117.285156" xlink:href="#FranklinGothic-Book-50"/>
       <use x="175.927734" xlink:href="#FranklinGothic-Book-48"/>
      </g>
     </g>
    </g>
    <g id="text_5">
     <!-- Year -->
     <g style="fill:#696969;" transform="translate(569.365781 624.712813)scale(0.23 -0.23)">
      <defs>
       <path d="M 52 66.65625 
L 29.6875 28.03125 
L 29.6875 0 
L 21.34375 0 
L 21.34375 28.03125 
L -0.984375 66.65625 
L 8.84375 66.65625 
L 26.5625 35.984375 
L 44.390625 66.65625 
z
" id="FranklinGothic-Book-89"/>
       <path d="M 40.234375 14.703125 
L 47.359375 13.234375 
Q 45.40625 6.9375 39.734375 2.8125 
Q 34.078125 -1.3125 26.421875 -1.3125 
Q 16.3125 -1.3125 10.0625 5.78125 
Q 3.8125 12.890625 3.8125 24.421875 
Q 3.8125 36.1875 10.296875 43.4375 
Q 16.796875 50.6875 26.609375 50.6875 
Q 36.28125 50.6875 42.15625 44 
Q 48.046875 37.3125 48.1875 23.96875 
L 12.359375 23.96875 
Q 12.359375 12.796875 17.046875 8.890625 
Q 21.734375 4.984375 26.953125 4.984375 
Q 36.375 4.984375 40.234375 14.703125 
z
M 39.796875 29.6875 
Q 39.703125 33.84375 38.421875 37.0625 
Q 37.15625 40.28125 34.125 42.546875 
Q 31.109375 44.828125 26.859375 44.828125 
Q 21.140625 44.828125 17.15625 40.71875 
Q 13.1875 36.625 12.703125 29.6875 
z
" id="FranklinGothic-Book-101"/>
       <path d="M 46.296875 0 
L 38.671875 0 
Q 38.234375 2.34375 37.796875 8.890625 
Q 32.71875 -1.3125 20.515625 -1.3125 
Q 12.203125 -1.3125 7.765625 3.078125 
Q 3.328125 7.46875 3.328125 13.625 
Q 3.328125 21.09375 9.671875 25.90625 
Q 16.015625 30.71875 31.25 30.71875 
Q 33.296875 30.71875 37.796875 30.515625 
Q 37.796875 36.375 36.890625 38.984375 
Q 35.984375 41.609375 33.046875 43.171875 
Q 30.125 44.734375 25.34375 44.734375 
Q 13.671875 44.734375 11.765625 35.84375 
L 4.6875 37.0625 
Q 7.28125 50.6875 26.46875 50.6875 
Q 36.671875 50.6875 40.9375 46.171875 
Q 45.21875 41.65625 45.21875 30.515625 
L 45.21875 9.578125 
Q 45.21875 4.34375 46.296875 0 
z
M 37.796875 24.65625 
Q 33.109375 24.953125 30.671875 24.953125 
Q 21.578125 24.953125 16.546875 21.96875 
Q 11.53125 19 11.53125 13.28125 
Q 11.53125 9.671875 14.234375 7.125 
Q 16.9375 4.59375 22.078125 4.59375 
Q 29 4.59375 33.46875 9.625 
Q 37.9375 14.65625 37.9375 21.4375 
Q 37.9375 22.796875 37.796875 24.65625 
z
" id="FranklinGothic-Book-97"/>
       <path d="M 15.328125 0 
L 7.671875 0 
L 7.671875 49.3125 
L 14.40625 49.3125 
L 14.40625 37.796875 
Q 17.96875 45.953125 21.546875 48.359375 
Q 25.140625 50.78125 28.90625 50.78125 
Q 30.078125 50.78125 31.9375 50.59375 
L 31.9375 43.265625 
L 30.375 43.265625 
Q 24.03125 43.265625 19.828125 38.53125 
Q 15.625 33.796875 15.328125 26.078125 
z
" id="FranklinGothic-Book-114"/>
      </defs>
      <use xlink:href="#FranklinGothic-Book-89"/>
      <use x="45.025391" xlink:href="#FranklinGothic-Book-101"/>
      <use x="97.076172" xlink:href="#FranklinGothic-Book-97"/>
      <use x="149.957031" xlink:href="#FranklinGothic-Book-114"/>
     </g>
    </g>
   </g>
   <g id="matplotlib.axis_2">
    <g id="ytick_1">
     <g id="line2d_5">
      <path clip-path="url(#p4587d46434)" d="M 144 548.250693 
L 1036.8 548.250693 
" style="fill:none;stroke:#d3d3d3;stroke-linecap:round;stroke-opacity:0.5;"/>
     </g>
     <g id="text_6">
      <!-- 1650 -->
      <g style="fill:#696969;" transform="translate(81.326875 555.916162)scale(0.23 -0.23)">
       <defs>
        <path d="M 53.5625 53.03125 
L 46.046875 50.984375 
Q 42.1875 61.140625 31.984375 61.140625 
Q 13.234375 61.140625 12.796875 30.125 
Q 15.765625 37.015625 21.234375 40.328125 
Q 26.703125 43.65625 32.8125 43.65625 
Q 42.09375 43.65625 48.359375 37.1875 
Q 54.640625 30.71875 54.640625 21.6875 
Q 54.640625 12.3125 47.96875 5.5 
Q 41.3125 -1.3125 30.90625 -1.3125 
Q 19.09375 -1.3125 12.078125 7.59375 
Q 5.078125 16.5 5.078125 31.84375 
Q 5.078125 46.828125 11.6875 57.421875 
Q 18.3125 68.015625 32.171875 68.015625 
Q 48.140625 68.015625 53.5625 53.03125 
z
M 30.765625 5.375 
Q 37.84375 5.375 42.359375 10.03125 
Q 46.875 14.703125 46.875 21.234375 
Q 46.875 27.6875 42.453125 32.296875 
Q 38.03125 36.921875 31.5 36.921875 
Q 24.75 36.921875 19.71875 32.078125 
Q 14.703125 27.25 14.703125 20.75 
Q 14.703125 14.75 19.1875 10.0625 
Q 23.6875 5.375 30.765625 5.375 
z
" id="FranklinGothic-Book-54"/>
        <path d="M 48.875 66.65625 
L 48.1875 59.46875 
L 15.4375 59.46875 
L 14.015625 37.84375 
Q 21.4375 45.125 30.328125 45.125 
Q 39.703125 45.125 46.515625 38.625 
Q 53.328125 32.125 53.328125 22.015625 
Q 53.328125 11.765625 45.921875 5.21875 
Q 38.53125 -1.3125 27.828125 -1.3125 
Q 19.4375 -1.3125 12.890625 3.078125 
Q 6.34375 7.46875 4.296875 14.453125 
L 11.421875 16.890625 
Q 15.828125 5.28125 27.9375 5.28125 
Q 35.890625 5.28125 40.578125 9.984375 
Q 45.265625 14.703125 45.265625 22.015625 
Q 45.265625 29.6875 40.625 33.984375 
Q 35.984375 38.28125 29.5 38.28125 
Q 20.015625 38.28125 13.8125 29.203125 
L 7.234375 30.609375 
L 9.375 66.65625 
z
" id="FranklinGothic-Book-53"/>
       </defs>
       <use xlink:href="#FranklinGothic-Book-49"/>
       <use x="55.267578" xlink:href="#FranklinGothic-Book-54"/>
       <use x="113.910156" xlink:href="#FranklinGothic-Book-53"/>
       <use x="172.552734" xlink:href="#FranklinGothic-Book-48"/>
      </g>
     </g>
    </g>
    <g id="ytick_2">
     <g id="line2d_6">
      <path clip-path="url(#p4587d46434)" d="M 144 470.01682 
L 1036.8 470.01682 
" style="fill:none;stroke:#d3d3d3;stroke-linecap:round;stroke-opacity:0.5;"/>
     </g>
     <g id="text_7">
      <!-- 1700 -->
      <g style="fill:#696969;" transform="translate(82.131875 477.682288)scale(0.23 -0.23)">
       <defs>
        <path d="M 28.078125 0 
L 19.484375 0 
Q 19.484375 16.75 26.3125 32.59375 
Q 33.15625 48.4375 43.0625 59.328125 
L 6.890625 59.328125 
L 7.71875 66.65625 
L 51.765625 66.65625 
L 51.765625 61.671875 
Q 39.84375 47.3125 33.9375 31.78125 
Q 28.03125 16.265625 28.03125 2.296875 
Q 28.03125 1.515625 28.078125 0 
z
" id="FranklinGothic-Book-55"/>
       </defs>
       <use xlink:href="#FranklinGothic-Book-49"/>
       <use x="51.767578" xlink:href="#FranklinGothic-Book-55"/>
       <use x="110.410156" xlink:href="#FranklinGothic-Book-48"/>
       <use x="169.052734" xlink:href="#FranklinGothic-Book-48"/>
      </g>
     </g>
    </g>
    <g id="ytick_3">
     <g id="line2d_7">
      <path clip-path="url(#p4587d46434)" d="M 144 391.782946 
L 1036.8 391.782946 
" style="fill:none;stroke:#d3d3d3;stroke-linecap:round;stroke-opacity:0.5;"/>
     </g>
     <g id="text_8">
      <!-- 1750 -->
      <g style="fill:#696969;" transform="translate(82.131875 399.448415)scale(0.23 -0.23)">
       <use xlink:href="#FranklinGothic-Book-49"/>
       <use x="51.767578" xlink:href="#FranklinGothic-Book-55"/>
       <use x="110.410156" xlink:href="#FranklinGothic-Book-53"/>
       <use x="169.052734" xlink:href="#FranklinGothic-Book-48"/>
      </g>
     </g>
    </g>
    <g id="ytick_4">
     <g id="line2d_8">
      <path clip-path="url(#p4587d46434)" d="M 144 313.549072 
L 1036.8 313.549072 
" style="fill:none;stroke:#d3d3d3;stroke-linecap:round;stroke-opacity:0.5;"/>
     </g>
     <g id="text_9">
      <!-- 1800 -->
      <g style="fill:#696969;" transform="translate(80.694375 321.214541)scale(0.23 -0.23)">
       <defs>
        <path d="M 19.484375 34.578125 
Q 6.84375 40.09375 6.84375 50.59375 
Q 6.84375 58.203125 13.140625 63.109375 
Q 19.4375 68.015625 29.828125 68.015625 
Q 40.09375 68.015625 46.140625 63.296875 
Q 52.203125 58.59375 52.203125 50.984375 
Q 52.203125 40.375 39.265625 35.796875 
Q 49.703125 30.953125 52.359375 26.453125 
Q 55.03125 21.96875 55.03125 17.484375 
Q 55.03125 9.46875 48.21875 4.078125 
Q 41.40625 -1.3125 29.734375 -1.3125 
Q 17.28125 -1.3125 10.4375 4.171875 
Q 3.609375 9.671875 3.609375 17.234375 
Q 3.609375 28.515625 19.484375 34.578125 
z
M 29.59375 38.71875 
Q 37.984375 40.96875 41.453125 43.890625 
Q 44.921875 46.828125 44.921875 51.21875 
Q 44.921875 56.34375 40.796875 59 
Q 36.671875 61.671875 29.9375 61.671875 
Q 23.484375 61.671875 19.375 58.859375 
Q 15.28125 56.0625 15.28125 51.3125 
Q 15.28125 46.625 19.84375 43.203125 
Q 24.421875 39.796875 29.59375 38.71875 
z
M 28.65625 31.0625 
Q 11.765625 27.046875 11.765625 16.9375 
Q 11.765625 11.671875 16.375 8.328125 
Q 21 4.984375 29.984375 4.984375 
Q 37.59375 4.984375 42.234375 8.25 
Q 46.875 11.53125 46.875 16.609375 
Q 46.875 26.3125 28.65625 31.0625 
z
" id="FranklinGothic-Book-56"/>
       </defs>
       <use xlink:href="#FranklinGothic-Book-49"/>
       <use x="58.017578" xlink:href="#FranklinGothic-Book-56"/>
       <use x="116.660156" xlink:href="#FranklinGothic-Book-48"/>
       <use x="175.302734" xlink:href="#FranklinGothic-Book-48"/>
      </g>
     </g>
    </g>
    <g id="ytick_5">
     <g id="line2d_9">
      <path clip-path="url(#p4587d46434)" d="M 144 235.315198 
L 1036.8 235.315198 
" style="fill:none;stroke:#d3d3d3;stroke-linecap:round;stroke-opacity:0.5;"/>
     </g>
     <g id="text_10">
      <!-- 1850 -->
      <g style="fill:#696969;" transform="translate(80.694375 242.980667)scale(0.23 -0.23)">
       <use xlink:href="#FranklinGothic-Book-49"/>
       <use x="58.017578" xlink:href="#FranklinGothic-Book-56"/>
       <use x="116.660156" xlink:href="#FranklinGothic-Book-53"/>
       <use x="175.302734" xlink:href="#FranklinGothic-Book-48"/>
      </g>
     </g>
    </g>
    <g id="ytick_6">
     <g id="line2d_10">
      <path clip-path="url(#p4587d46434)" d="M 144 157.081325 
L 1036.8 157.081325 
" style="fill:none;stroke:#d3d3d3;stroke-linecap:round;stroke-opacity:0.5;"/>
     </g>
     <g id="text_11">
      <!-- 1900 -->
      <g style="fill:#696969;" transform="translate(80.866875 164.746793)scale(0.23 -0.23)">
       <use xlink:href="#FranklinGothic-Book-49"/>
       <use x="57.267578" xlink:href="#FranklinGothic-Book-57"/>
       <use x="115.910156" xlink:href="#FranklinGothic-Book-48"/>
       <use x="174.552734" xlink:href="#FranklinGothic-Book-48"/>
      </g>
     </g>
    </g>
    <g id="ytick_7">
     <g id="line2d_11">
      <path clip-path="url(#p4587d46434)" d="M 144 78.847451 
L 1036.8 78.847451 
" style="fill:none;stroke:#d3d3d3;stroke-linecap:round;stroke-opacity:0.5;"/>
     </g>
     <g id="text_12">
      <!-- 1950 -->
      <g style="fill:#696969;" transform="translate(80.866875 86.51292)scale(0.23 -0.23)">
       <use xlink:href="#FranklinGothic-Book-49"/>
       <use x="57.267578" xlink:href="#FranklinGothic-Book-57"/>
       <use x="115.910156" xlink:href="#FranklinGothic-Book-53"/>
       <use x="174.552734" xlink:href="#FranklinGothic-Book-48"/>
      </g>
     </g>
    </g>
    <g id="text_13">
     <!-- ppb -->
     <g style="fill:#696969;" transform="translate(66.863438 345.704688)rotate(-90)scale(0.23 -0.23)">
      <defs>
       <path d="M 15.328125 -16.65625 
L 7.671875 -16.65625 
L 7.671875 49.3125 
L 14.546875 49.3125 
L 14.546875 39.75 
Q 19.78125 50.6875 30.125 50.6875 
Q 38.875 50.6875 44.234375 43.375 
Q 49.609375 36.078125 49.609375 24.90625 
Q 49.609375 12.84375 44.09375 5.765625 
Q 38.578125 -1.3125 29.9375 -1.3125 
Q 20.65625 -1.3125 15.328125 7.515625 
z
M 15.328125 31.78125 
L 15.328125 17.921875 
Q 16.0625 12.3125 20.0625 8.640625 
Q 24.078125 4.984375 28.421875 4.984375 
Q 33.453125 4.984375 37.328125 9.375 
Q 41.21875 13.765625 41.21875 24.5625 
Q 41.21875 33.890625 37.703125 38.9375 
Q 34.1875 44 28.375 44 
Q 23.78125 44 20.140625 40.421875 
Q 16.5 36.859375 15.328125 31.78125 
z
" id="FranklinGothic-Book-112"/>
       <path d="M 11.375 0 
L 7.671875 0 
L 7.671875 66.65625 
L 15.328125 66.65625 
L 15.328125 41.109375 
Q 20.609375 50.6875 29.890625 50.6875 
Q 38.375 50.6875 44.109375 44 
Q 49.859375 37.3125 49.859375 24.5625 
Q 49.859375 13.578125 44.21875 6.125 
Q 38.578125 -1.3125 29.546875 -1.3125 
Q 19.484375 -1.3125 14.109375 8.15625 
z
M 15.328125 19.34375 
Q 15.875 11.765625 20 8.34375 
Q 24.125 4.9375 28.71875 4.9375 
Q 34.578125 4.9375 38.15625 10.015625 
Q 41.75 15.09375 41.75 23.921875 
Q 41.75 33.453125 38.28125 38.890625 
Q 34.8125 44.34375 28.65625 44.34375 
Q 23.828125 44.34375 19.9375 40.453125 
Q 16.0625 36.578125 15.328125 30.421875 
z
" id="FranklinGothic-Book-98"/>
      </defs>
      <use xlink:href="#FranklinGothic-Book-112"/>
      <use x="53.417969" xlink:href="#FranklinGothic-Book-112"/>
      <use x="106.835938" xlink:href="#FranklinGothic-Book-98"/>
     </g>
    </g>
   </g>
   <g id="text_14">
    <!-- Atmospheric methane concentration -->
    <g style="fill:#696969;" transform="translate(144 42.76)scale(0.4 -0.4)">
     <defs>
      <path d="M 53.21875 0 
L 44.671875 0 
L 37.9375 19.484375 
L 13.28125 19.484375 
L 7.328125 0 
L 0.34375 0 
L 21.96875 66.65625 
L 31.5 66.65625 
z
M 36.1875 25.734375 
L 25.921875 57.765625 
L 15.578125 25.734375 
z
" id="FranklinGothic-Book-65"/>
      <path d="M 30.03125 5.28125 
L 30.03125 -0.78125 
Q 25.984375 -1.3125 23 -1.3125 
Q 8.6875 -1.3125 8.6875 13.625 
L 8.6875 43.3125 
L -0.046875 43.3125 
L -0.046875 49.3125 
L 8.6875 49.3125 
L 9.03125 61.71875 
L 16.15625 62.40625 
L 16.15625 49.3125 
L 27.203125 49.3125 
L 27.203125 43.3125 
L 16.15625 43.3125 
L 16.15625 12.359375 
Q 16.15625 4.734375 24.078125 4.734375 
Q 26.703125 4.734375 30.03125 5.28125 
z
" id="FranklinGothic-Book-116"/>
      <path d="M 73.734375 0 
L 66.265625 0 
L 66.265625 30.671875 
Q 66.265625 35.40625 65.59375 37.765625 
Q 64.9375 40.140625 62.390625 42.109375 
Q 59.859375 44.09375 56.6875 44.09375 
Q 52.296875 44.09375 48.21875 40.0625 
Q 44.140625 36.03125 44.140625 27.78125 
L 44.140625 0 
L 36.71875 0 
L 36.71875 32.46875 
Q 36.71875 38.96875 33.609375 41.65625 
Q 30.515625 44.34375 27.09375 44.34375 
Q 22.21875 44.34375 18.59375 40.140625 
Q 14.984375 35.9375 14.984375 29.5 
L 14.984375 0 
L 7.671875 0 
L 7.671875 49.3125 
L 14.265625 49.3125 
L 14.265625 39.84375 
Q 19.78125 50.6875 29.4375 50.6875 
Q 34.765625 50.6875 38.46875 47.21875 
Q 42.1875 43.75 43.265625 38.875 
Q 48.34375 50.6875 58.84375 50.6875 
Q 63.875 50.6875 67.65625 47.796875 
Q 71.4375 44.921875 72.578125 41.1875 
Q 73.734375 37.453125 73.734375 30.671875 
z
" id="FranklinGothic-Book-109"/>
      <path d="M 25.34375 -1.3125 
Q 15.1875 -1.3125 9.5 6.203125 
Q 3.8125 13.71875 3.8125 24.859375 
Q 3.8125 36.625 10.203125 43.65625 
Q 16.609375 50.6875 26.125 50.6875 
Q 36.328125 50.6875 42.203125 43.28125 
Q 48.09375 35.890625 48.09375 24.8125 
Q 48.09375 13.28125 41.75 5.984375 
Q 35.40625 -1.3125 25.34375 -1.3125 
z
M 25.921875 4.984375 
Q 31.78125 4.984375 35.734375 9.8125 
Q 39.703125 14.65625 39.703125 24.859375 
Q 39.703125 35.109375 35.546875 39.71875 
Q 31.390625 44.34375 25.828125 44.34375 
Q 20.125 44.34375 16.15625 39.671875 
Q 12.203125 35.015625 12.203125 24.90625 
Q 12.203125 14.203125 16.15625 9.59375 
Q 20.125 4.984375 25.921875 4.984375 
z
" id="FranklinGothic-Book-111"/>
      <path d="M 1.03125 12.796875 
L 8.34375 14.3125 
Q 10.796875 4.984375 23.78125 4.984375 
Q 28.5625 4.984375 31.875 7.125 
Q 35.203125 9.28125 35.203125 13.1875 
Q 35.203125 19 26.765625 20.5625 
L 16.359375 22.515625 
Q 10.25 23.6875 6.640625 27.09375 
Q 3.03125 30.515625 3.03125 36.140625 
Q 3.03125 42.328125 7.953125 46.5 
Q 12.890625 50.6875 21.234375 50.6875 
Q 37.3125 50.6875 41.0625 38.140625 
L 34.03125 36.625 
Q 31 44.34375 21.578125 44.34375 
Q 16.890625 44.34375 13.890625 42.40625 
Q 10.890625 40.484375 10.890625 37.015625 
Q 10.890625 31.546875 18.5625 30.125 
L 28.171875 28.421875 
Q 43.265625 25.6875 43.265625 13.8125 
Q 43.265625 7.03125 37.640625 2.859375 
Q 32.03125 -1.3125 22.703125 -1.3125 
Q 5.171875 -1.3125 1.03125 12.796875 
z
" id="FranklinGothic-Book-115"/>
      <path d="M 46.34375 0 
L 38.671875 0 
L 38.671875 29.9375 
Q 38.671875 35.203125 38.015625 37.84375 
Q 37.359375 40.484375 34.890625 42.40625 
Q 32.421875 44.34375 29.203125 44.34375 
Q 23.296875 44.34375 19.3125 39.5 
Q 15.328125 34.671875 15.328125 26.5625 
L 15.328125 0 
L 7.671875 0 
L 7.671875 66.65625 
L 15.328125 66.65625 
L 15.328125 40.234375 
Q 20.5625 50.6875 30.28125 50.6875 
Q 34.625 50.6875 38.015625 48.96875 
Q 41.40625 47.265625 43.203125 44.484375 
Q 45.015625 41.703125 45.671875 38.984375 
Q 46.34375 36.28125 46.34375 29.9375 
z
" id="FranklinGothic-Book-104"/>
      <path d="M 15.578125 66.65625 
L 15.578125 58.15625 
L 7.328125 58.15625 
L 7.328125 66.65625 
z
M 15.328125 49.3125 
L 15.328125 0 
L 7.671875 0 
L 7.671875 49.3125 
z
" id="FranklinGothic-Book-105"/>
      <path d="M 36.8125 17.28125 
L 43.75 16.0625 
Q 42.28125 7.90625 37.25 3.296875 
Q 32.234375 -1.3125 24.703125 -1.3125 
Q 14.5 -1.3125 9.15625 6.203125 
Q 3.8125 13.71875 3.8125 24.5625 
Q 3.8125 35.796875 9.453125 43.234375 
Q 15.09375 50.6875 24.8125 50.6875 
Q 32.859375 50.6875 37.71875 45.875 
Q 42.578125 41.0625 43.75 33.453125 
L 36.8125 32.125 
Q 34.859375 44.34375 25 44.34375 
Q 18.65625 44.34375 15.234375 38.9375 
Q 11.8125 33.546875 11.8125 24.953125 
Q 11.8125 15.484375 15.203125 10.234375 
Q 18.609375 4.984375 24.75 4.984375 
Q 34.28125 4.984375 36.8125 17.28125 
z
" id="FranklinGothic-Book-99"/>
      <path id="FranklinGothic-Book-32"/>
      <path d="M 46.53125 0 
L 39.359375 0 
L 39.359375 31.6875 
Q 39.359375 38.53125 36.375 41.3125 
Q 33.40625 44.09375 29.15625 44.09375 
Q 23.296875 44.09375 19.3125 39.40625 
Q 15.328125 34.71875 15.328125 27.046875 
L 15.328125 0 
L 7.671875 0 
L 7.671875 49.3125 
L 14.796875 49.3125 
L 14.796875 40.234375 
Q 20.796875 50.6875 30.375 50.6875 
Q 35.890625 50.6875 39.765625 47.828125 
Q 43.65625 44.96875 45.09375 41.40625 
Q 46.53125 37.84375 46.53125 28.515625 
z
" id="FranklinGothic-Book-110"/>
     </defs>
     <use xlink:href="#FranklinGothic-Book-65"/>
     <use x="52.064453" xlink:href="#FranklinGothic-Book-116"/>
     <use x="82.826172" xlink:href="#FranklinGothic-Book-109"/>
     <use x="164.222656" xlink:href="#FranklinGothic-Book-111"/>
     <use x="216.175781" xlink:href="#FranklinGothic-Book-115"/>
     <use x="262.5625" xlink:href="#FranklinGothic-Book-112"/>
     <use x="315.980469" xlink:href="#FranklinGothic-Book-104"/>
     <use x="369.984375" xlink:href="#FranklinGothic-Book-101"/>
     <use x="422.035156" xlink:href="#FranklinGothic-Book-114"/>
     <use x="454.994141" xlink:href="#FranklinGothic-Book-105"/>
     <use x="477.943359" xlink:href="#FranklinGothic-Book-99"/>
     <use x="524.525391" xlink:href="#FranklinGothic-Book-32"/>
     <use x="549.525391" xlink:href="#FranklinGothic-Book-109"/>
     <use x="630.921875" xlink:href="#FranklinGothic-Book-101"/>
     <use x="682.472656" xlink:href="#FranklinGothic-Book-116"/>
     <use x="713.234375" xlink:href="#FranklinGothic-Book-104"/>
     <use x="767.238281" xlink:href="#FranklinGothic-Book-97"/>
     <use x="820.119141" xlink:href="#FranklinGothic-Book-110"/>
     <use x="874.318359" xlink:href="#FranklinGothic-Book-101"/>
     <use x="926.369141" xlink:href="#FranklinGothic-Book-32"/>
     <use x="951.369141" xlink:href="#FranklinGothic-Book-99"/>
     <use x="997.951172" xlink:href="#FranklinGothic-Book-111"/>
     <use x="1049.904297" xlink:href="#FranklinGothic-Book-110"/>
     <use x="1104.103516" xlink:href="#FranklinGothic-Book-99"/>
     <use x="1150.685547" xlink:href="#FranklinGothic-Book-101"/>
     <use x="1202.736328" xlink:href="#FranklinGothic-Book-110"/>
     <use x="1256.935547" xlink:href="#FranklinGothic-Book-116"/>
     <use x="1287.697266" xlink:href="#FranklinGothic-Book-114"/>
     <use x="1320.65625" xlink:href="#FranklinGothic-Book-97"/>
     <use x="1373.537109" xlink:href="#FranklinGothic-Book-116"/>
     <use x="1404.298828" xlink:href="#FranklinGothic-Book-105"/>
     <use x="1427.248047" xlink:href="#FranklinGothic-Book-111"/>
     <use x="1479.201172" xlink:href="#FranklinGothic-Book-110"/>
    </g>
   </g>
   <g id="legend_1">
    <g id="line2d_12"/>
    <g id="text_15">
     <!-- WDCGG (1984.01-2022.12) -->
     <g style="fill:#d55e00;" transform="translate(185.856 129.7184)scale(0.2 -0.2)">
      <defs>
       <path d="M 79.828125 66.65625 
L 63.765625 0 
L 55.421875 0 
L 40.875 51.703125 
L 27.34375 0 
L 18.796875 0 
L 1.90625 66.65625 
L 10.546875 66.65625 
L 23.875 12.640625 
L 38.03125 66.65625 
L 44.78125 66.65625 
L 60.0625 12.640625 
L 72.515625 66.65625 
z
" id="FranklinGothic-Book-87"/>
       <path d="M 8.34375 0 
L 8.34375 66.65625 
L 30.71875 66.65625 
Q 44.828125 66.65625 52.6875 57.03125 
Q 60.546875 47.40625 60.546875 33.5 
Q 60.546875 19.390625 52.875 9.6875 
Q 45.21875 0 33.453125 0 
z
M 16.703125 7.078125 
L 30.21875 7.078125 
Q 40.96875 7.078125 46.53125 14.5 
Q 52.09375 21.921875 52.09375 34.078125 
Q 52.09375 43.953125 46.796875 51.8125 
Q 41.5 59.671875 30.21875 59.671875 
L 16.703125 59.671875 
z
" id="FranklinGothic-Book-68"/>
       <path d="M 48.296875 22.40625 
L 55.90625 20.703125 
Q 50.4375 -1.3125 31.203125 -1.3125 
Q 18.5625 -1.3125 11.359375 8.890625 
Q 4.15625 19.09375 4.15625 33.984375 
Q 4.15625 49.359375 11.671875 58.6875 
Q 19.1875 68.015625 31.84375 68.015625 
Q 50.59375 68.015625 55.90625 46.578125 
L 48.046875 45.015625 
Q 43.75 60.9375 31.78125 60.9375 
Q 22.953125 60.9375 18.09375 53.53125 
Q 13.234375 46.140625 13.234375 32.765625 
Q 13.234375 20.515625 18.203125 13.109375 
Q 23.1875 5.71875 31.390625 5.71875 
Q 44.140625 5.71875 48.296875 22.40625 
z
" id="FranklinGothic-Book-67"/>
       <path d="M 57.71875 33.59375 
L 57.71875 -0.875 
L 52.59375 -0.875 
L 50.296875 7.46875 
Q 44.140625 -1.3125 31.984375 -1.3125 
Q 18.796875 -1.3125 11.46875 8.59375 
Q 4.15625 18.5 4.15625 32.671875 
Q 4.15625 47.796875 11.90625 57.90625 
Q 19.671875 68.015625 33.015625 68.015625 
Q 51.421875 68.015625 57.03125 48.6875 
L 49.125 46.78125 
Q 47.40625 54.203125 42.71875 57.5625 
Q 38.03125 60.9375 32.46875 60.9375 
Q 22.609375 60.9375 17.921875 52.96875 
Q 13.234375 45.015625 13.234375 33.015625 
Q 13.234375 20.0625 18.484375 12.765625 
Q 23.734375 5.46875 32.765625 5.46875 
Q 39.796875 5.46875 44.5 10.125 
Q 49.21875 14.796875 49.21875 23 
Q 49.21875 24.515625 49.125 26.609375 
L 32.625 26.609375 
L 32.625 33.59375 
z
" id="FranklinGothic-Book-71"/>
       <path d="M 24.703125 -16.65625 
L 19.578125 -16.65625 
Q 5.21875 2.203125 5.21875 25.09375 
Q 5.21875 46.96875 19.578125 66.65625 
L 24.703125 66.65625 
Q 12.359375 48.25 12.359375 25 
Q 12.359375 2.828125 24.703125 -16.65625 
z
" id="FranklinGothic-Book-40"/>
       <path d="M 44.09375 0 
L 36.03125 0 
L 36.03125 15.875 
L 3.078125 15.875 
L 3.078125 21.484375 
L 33.640625 68.0625 
L 44.09375 68.0625 
L 44.09375 22.46875 
L 54.890625 22.46875 
L 54.890625 15.875 
L 44.09375 15.875 
z
M 36.03125 22.46875 
L 36.03125 54 
Q 36.03125 57.421875 36.1875 61.375 
Q 34.078125 57.515625 32.5625 55.125 
L 11.765625 22.46875 
z
" id="FranklinGothic-Book-52"/>
       <path d="M 17.96875 10.9375 
L 17.96875 0 
L 7.078125 0 
L 7.078125 10.9375 
z
" id="FranklinGothic-Book-46"/>
       <path d="M 23.53125 27.984375 
L 23.53125 22.015625 
L 1.46875 22.015625 
L 1.46875 27.984375 
z
" id="FranklinGothic-Book-45"/>
       <path d="M 4.640625 66.65625 
L 9.71875 66.65625 
Q 24.125 47.796875 24.125 24.90625 
Q 24.125 3.03125 9.71875 -16.65625 
L 4.640625 -16.65625 
Q 17 1.765625 17 25 
Q 17 47.171875 4.640625 66.65625 
z
" id="FranklinGothic-Book-41"/>
      </defs>
      <use xlink:href="#FranklinGothic-Book-87"/>
      <use x="81.738281" xlink:href="#FranklinGothic-Book-68"/>
      <use x="146.435547" xlink:href="#FranklinGothic-Book-67"/>
      <use x="204.345703" xlink:href="#FranklinGothic-Book-71"/>
      <use x="269.042969" xlink:href="#FranklinGothic-Book-71"/>
      <use x="333.740234" xlink:href="#FranklinGothic-Book-32"/>
      <use x="358.740234" xlink:href="#FranklinGothic-Book-40"/>
      <use x="388.085938" xlink:href="#FranklinGothic-Book-49"/>
      <use x="445.353516" xlink:href="#FranklinGothic-Book-57"/>
      <use x="503.996094" xlink:href="#FranklinGothic-Book-56"/>
      <use x="563.388672" xlink:href="#FranklinGothic-Book-52"/>
      <use x="622.03125" xlink:href="#FranklinGothic-Book-46"/>
      <use x="647.03125" xlink:href="#FranklinGothic-Book-48"/>
      <use x="701.923828" xlink:href="#FranklinGothic-Book-49"/>
      <use x="760.566406" xlink:href="#FranklinGothic-Book-45"/>
      <use x="785.566406" xlink:href="#FranklinGothic-Book-50"/>
      <use x="844.208984" xlink:href="#FranklinGothic-Book-48"/>
      <use x="902.851562" xlink:href="#FranklinGothic-Book-50"/>
      <use x="961.494141" xlink:href="#FranklinGothic-Book-50"/>
      <use x="1020.136719" xlink:href="#FranklinGothic-Book-46"/>
      <use x="1041.261719" xlink:href="#FranklinGothic-Book-49"/>
      <use x="1099.904297" xlink:href="#FranklinGothic-Book-50"/>
      <use x="1158.546875" xlink:href="#FranklinGothic-Book-41"/>
     </g>
    </g>
   </g>
   <g id="line2d_13">
    <path clip-path="url(#p4587d46434)" d="M 184.581818 540.740241 
L 186.319798 542.461387 
L 188.057777 544.808403 
L 189.795756 546.37308 
L 193.271715 554.04 
L 195.009694 553.570597 
L 196.747674 545.747209 
L 198.485653 533.542725 
L 200.223632 523.528789 
L 201.961612 519.617096 
L 203.699591 517.739483 
L 205.437571 519.617096 
L 207.17555 522.277047 
L 210.651509 525.875805 
L 214.127467 534.794467 
L 215.865447 535.107403 
L 217.603426 527.284015 
L 219.341405 515.079531 
L 221.079385 505.222063 
L 222.817364 501.310369 
L 224.555344 501.310369 
L 228.031302 503.813853 
L 229.769282 504.75266 
L 231.507261 506.943208 
L 233.24524 511.63724 
L 234.98322 515.235999 
L 236.721199 513.984257 
L 238.459179 506.943208 
L 240.197158 495.051659 
L 241.935137 485.037723 
L 243.673117 480.500159 
L 245.411096 479.248417 
L 247.149075 480.656626 
L 248.887055 483.473046 
L 250.625034 484.56832 
L 252.363013 486.915336 
L 254.100993 490.670562 
L 255.838972 493.956385 
L 257.576952 495.051659 
L 259.314931 488.480014 
L 261.05291 476.588465 
L 262.79089 467.043932 
L 264.528869 463.601642 
L 266.266848 463.132239 
L 268.004828 463.288706 
L 269.742807 464.383981 
L 271.480786 467.669803 
L 273.218766 471.425029 
L 274.956745 475.649659 
L 276.694725 479.561352 
L 278.432704 478.622546 
L 280.170683 470.01682 
L 281.908663 457.812335 
L 283.646642 447.485464 
L 285.384621 442.009093 
L 287.122601 441.226754 
L 288.86058 444.512577 
L 290.598559 446.703125 
L 294.074518 451.710093 
L 295.812498 454.995916 
L 297.550477 459.689948 
L 299.288456 459.846416 
L 301.026436 452.805367 
L 302.764415 442.165561 
L 304.502394 433.559834 
L 306.240374 428.396399 
L 307.978353 428.239931 
L 309.716332 429.961076 
L 313.192291 432.46456 
L 314.930271 436.532722 
L 316.66825 442.009093 
L 318.406229 445.764319 
L 320.144209 445.607851 
L 321.882188 438.410335 
L 323.620167 426.049383 
L 325.358147 417.130721 
L 327.096126 412.749624 
L 328.834106 411.497882 
L 330.572085 413.219027 
L 332.310064 416.191914 
L 334.048044 418.538931 
L 335.786023 421.981221 
L 337.524002 424.641173 
L 339.261982 429.335205 
L 340.999961 428.865802 
L 342.73794 420.729479 
L 344.47592 407.586188 
L 346.213899 396.633446 
L 347.951879 390.531204 
L 349.689858 390.218268 
L 351.427837 392.252349 
L 353.165817 395.381704 
L 354.903796 398.980462 
L 360.117734 412.280221 
L 361.855713 412.749624 
L 363.593693 408.368527 
L 365.331672 399.293398 
L 367.069652 391.000607 
L 368.807631 387.871252 
L 370.54561 389.279462 
L 372.28359 391.782946 
L 374.021569 394.599365 
L 375.759548 396.476978 
L 377.497528 399.449865 
L 379.235507 404.926237 
L 380.973486 409.620269 
L 382.711466 409.150866 
L 384.449445 402.735688 
L 386.187425 393.347623 
L 387.925404 384.898365 
L 389.663383 379.734929 
L 391.401363 379.421994 
L 394.877321 385.680704 
L 396.615301 388.340655 
L 398.35328 392.408817 
L 400.091259 398.511059 
L 401.829239 401.640414 
L 403.567218 402.109817 
L 405.305198 397.259317 
L 408.781156 372.850348 
L 410.519136 369.25159 
L 412.257115 369.877461 
L 413.995094 370.6598 
L 415.733074 373.945623 
L 417.471053 376.449107 
L 419.209033 380.673736 
L 422.684991 391.313543 
L 424.422971 391.313543 
L 426.16095 384.428962 
L 427.898929 373.945623 
L 429.636909 365.965768 
L 431.374888 360.332929 
L 433.112867 360.332929 
L 434.850847 362.836413 
L 436.588826 364.40109 
L 438.326806 367.530445 
L 440.064785 374.10209 
L 441.802764 381.456075 
L 443.540744 386.61951 
L 445.278723 387.245381 
L 447.016702 381.76901 
L 448.754682 371.285671 
L 450.492661 362.679945 
L 452.23064 358.14238 
L 453.96862 357.829445 
L 455.706599 360.176461 
L 457.444579 364.244622 
L 459.182558 368.782187 
L 460.920537 372.537413 
L 462.658517 374.727961 
L 464.396496 379.109058 
L 466.134475 380.673736 
L 467.872455 374.10209 
L 469.610434 363.775219 
L 471.348413 355.325961 
L 473.086393 350.788396 
L 474.824372 350.006057 
L 476.562352 351.88367 
L 478.300331 354.074219 
L 480.03831 354.70009 
L 481.77629 356.73417 
L 483.514269 361.741138 
L 485.252248 365.496364 
L 486.990228 365.8093 
L 488.728207 359.863525 
L 490.466186 345.468493 
L 492.204166 337.645105 
L 493.942145 331.386395 
L 495.680125 331.229928 
L 497.418104 333.264008 
L 500.894063 338.583912 
L 502.632042 342.026202 
L 506.108001 353.135412 
L 507.84598 354.70009 
L 509.58396 349.067251 
L 511.321939 337.488637 
L 513.059918 329.821718 
L 514.797898 325.753556 
L 518.273856 329.66525 
L 520.011836 333.733412 
L 521.749815 336.236895 
L 523.487794 339.36625 
L 526.963753 351.88367 
L 528.701733 353.29188 
L 530.439712 348.597848 
L 532.177691 337.33217 
L 533.915671 330.291121 
L 535.65365 328.569976 
L 537.391629 328.413508 
L 539.129609 331.699331 
L 540.867588 336.080428 
L 544.343547 342.18267 
L 546.081526 348.597848 
L 547.819506 353.761283 
L 549.557485 354.074219 
L 551.295464 348.597848 
L 553.033444 338.427444 
L 554.771423 329.821718 
L 556.509402 327.161766 
L 558.247382 328.569976 
L 559.985361 331.699331 
L 561.72334 335.767492 
L 563.46132 338.427444 
L 565.199299 342.652073 
L 566.937279 348.128444 
L 568.675258 352.666009 
L 570.413237 352.040138 
L 572.151217 344.842622 
L 573.889196 334.51575 
L 575.627175 326.848831 
L 577.365155 323.40654 
L 579.103134 324.032411 
L 580.841113 326.066492 
L 582.579093 329.821718 
L 584.317072 332.48167 
L 586.055052 336.080428 
L 587.793031 340.305057 
L 589.53101 345.468493 
L 591.26899 345.937896 
L 593.006969 339.835654 
L 594.744948 329.352315 
L 596.482928 320.277185 
L 598.220907 317.460766 
L 599.958887 317.930169 
L 601.696866 323.093605 
L 605.172825 328.569976 
L 606.910804 333.733412 
L 608.648783 340.461525 
L 610.386763 346.720235 
L 612.124742 348.597848 
L 613.862721 342.18267 
L 615.600701 332.951073 
L 617.33868 325.910024 
L 619.07666 322.780669 
L 620.814639 323.719476 
L 622.552618 325.910024 
L 624.290598 329.66525 
L 626.028577 333.107541 
L 627.766556 337.958041 
L 629.504536 344.373218 
L 631.242515 349.067251 
L 632.980494 349.067251 
L 634.718474 342.965009 
L 636.456453 333.420476 
L 638.194433 324.971218 
L 639.932412 319.96425 
L 641.670391 320.590121 
L 643.408371 322.780669 
L 645.14635 326.066492 
L 646.884329 331.855799 
L 652.098267 347.659041 
L 653.836247 350.162525 
L 655.574226 344.686154 
L 657.312206 332.951073 
L 659.050185 325.597089 
L 660.788164 322.937137 
L 662.526144 321.685395 
L 664.264123 324.188879 
L 666.002102 327.005298 
L 667.740082 327.631169 
L 669.478061 330.604057 
L 671.21604 334.202815 
L 672.95402 339.053315 
L 674.691999 339.835654 
L 676.429979 332.168734 
L 678.167958 319.025443 
L 679.905937 310.576185 
L 681.643917 306.820959 
L 683.381896 306.820959 
L 685.119875 309.637378 
L 686.857855 313.236137 
L 688.595834 315.583153 
L 690.333814 318.868976 
L 693.809772 328.100573 
L 695.547752 329.039379 
L 697.285731 322.154798 
L 699.02371 310.576185 
L 700.76169 302.126927 
L 702.499669 295.242346 
L 704.237648 294.460007 
L 705.975628 298.528168 
L 707.713607 300.562249 
L 709.451587 303.848072 
L 714.665525 319.651314 
L 716.403504 320.120717 
L 718.141483 313.236137 
L 719.879463 301.657523 
L 721.617442 295.085878 
L 723.355421 293.5212 
L 725.093401 292.895329 
L 726.83138 291.956523 
L 728.56936 293.990604 
L 730.307339 298.684636 
L 732.045318 301.657523 
L 733.783298 306.03862 
L 735.521277 311.827927 
L 737.259256 314.018475 
L 738.997236 306.195088 
L 740.735215 295.085878 
L 742.473194 286.63662 
L 744.211174 282.41199 
L 745.949153 281.629652 
L 747.687133 286.480152 
L 749.425112 289.296571 
L 751.163091 290.235378 
L 752.901071 295.242346 
L 754.63905 299.623443 
L 756.377029 303.065733 
L 758.115009 302.283394 
L 759.852988 296.650555 
L 763.328947 276.466216 
L 765.066926 271.928651 
L 766.804906 274.1192 
L 768.542885 276.779151 
L 770.280864 278.500297 
L 772.018844 281.942587 
L 773.756823 285.854281 
L 775.494802 290.861249 
L 777.232782 297.589362 
L 778.970761 297.276426 
L 780.708741 290.07891 
L 782.44672 278.500297 
L 784.184699 268.329893 
L 785.922679 263.00999 
L 787.660658 263.479393 
L 791.136617 268.642829 
L 792.874596 272.085119 
L 794.612575 275.996813 
L 796.350555 281.316716 
L 798.088534 285.697813 
L 799.826514 286.793087 
L 801.564493 280.37791 
L 803.302472 269.581635 
L 805.040452 261.60178 
L 806.778431 256.281877 
L 808.51641 256.281877 
L 810.25439 259.098296 
L 811.992369 260.662973 
L 813.730348 262.071183 
L 815.468328 264.418199 
L 817.206307 267.547554 
L 818.944287 271.615716 
L 820.682266 270.520442 
L 822.420245 264.731135 
L 824.158225 252.996054 
L 825.896204 243.920924 
L 827.634183 239.226892 
L 829.372163 236.097537 
L 831.110142 239.852763 
L 832.848121 241.41744 
L 834.586101 245.485602 
L 836.32408 250.023167 
L 838.06206 253.93486 
L 839.800039 258.159489 
L 841.538018 256.594812 
L 843.275998 248.302021 
L 845.013977 236.254005 
L 846.751956 227.961214 
L 850.227915 222.171908 
L 851.965894 224.831859 
L 853.703874 228.900021 
L 855.441853 230.151763 
L 857.179833 234.376392 
L 858.917812 236.879876 
L 860.655791 242.982118 
L 862.393771 243.607989 
L 864.13175 235.471666 
L 865.869729 223.580117 
L 867.607709 216.226133 
L 869.345688 212.470907 
L 871.083668 212.001504 
L 872.821647 212.470907 
L 874.559626 215.443794 
L 876.297606 219.19902 
L 878.035585 224.049521 
L 879.773564 227.961214 
L 881.511544 233.906989 
L 883.249523 233.12465 
L 884.987502 225.770666 
L 886.725482 212.314439 
L 888.463461 203.865181 
L 890.201441 197.919407 
L 891.93942 198.701745 
L 893.677399 202.300504 
L 895.415379 203.23931 
L 897.153358 204.491052 
L 898.891337 207.933343 
L 902.367296 217.321407 
L 904.105275 217.321407 
L 905.843255 209.654488 
L 907.581234 200.266423 
L 909.319214 189.626616 
L 911.057193 185.089051 
L 912.795172 185.245519 
L 914.533152 186.497261 
L 916.271131 189.313681 
L 918.00911 191.504229 
L 919.74709 195.259455 
L 921.485069 200.266423 
L 923.223048 205.742794 
L 924.961028 204.803988 
L 926.699007 196.511197 
L 928.436987 184.619648 
L 930.174966 176.326858 
L 931.912945 173.35397 
L 933.650925 174.292777 
L 935.388904 175.857454 
L 937.126883 179.299745 
L 938.864863 178.517406 
L 940.602842 179.61268 
L 942.340821 186.027858 
L 944.078801 188.374874 
L 945.81678 187.436068 
L 947.55476 178.830341 
L 949.292739 163.65297 
L 951.030718 154.577841 
L 952.768698 149.72734 
L 954.506677 148.945002 
L 956.244656 150.822615 
L 957.982636 153.169631 
L 959.720615 153.482566 
L 961.458595 155.98605 
L 963.196574 159.271873 
L 964.934553 160.993018 
L 966.672533 159.584809 
L 968.410512 151.292018 
L 970.148491 137.679324 
L 971.886471 127.352453 
L 973.62445 119.842001 
L 975.362429 119.685533 
L 977.100409 121.719614 
L 978.838388 123.440759 
L 980.576368 124.536033 
L 982.314347 128.134791 
L 984.052326 132.35942 
L 985.790306 137.522856 
L 987.528285 135.958179 
L 989.266264 127.50892 
L 991.004244 114.991501 
L 992.742223 106.855178 
L 994.480202 102.474081 
L 996.218182 100.44 
L 996.218182 100.44 
" style="fill:none;stroke:#d55e00;stroke-linecap:round;"/>
   </g>
  </g>
  <g id="text_16">
   <g id="patch_4">
    <path d="M 874.374375 646.18275 
L 1040.76 646.18275 
L 1040.76 628.26525 
L 874.374375 628.26525 
z
" style="fill:#ffffff;stroke:#ffffff;stroke-linejoin:miter;"/>
   </g>
   <!-- Created: 2024-02-08 11:46:32 -->
   <g style="fill:#696969;" transform="translate(878.334375 640.224)scale(0.12 -0.12)">
    <defs>
     <path d="M 46.1875 66.65625 
L 46.1875 0 
L 39.203125 0 
L 39.203125 8.453125 
Q 34.03125 -1.3125 23.640625 -1.3125 
Q 14.984375 -1.3125 9.421875 5.9375 
Q 3.859375 13.1875 3.859375 24.265625 
Q 3.859375 35.59375 9.375 43.140625 
Q 14.890625 50.6875 24.03125 50.6875 
Q 32.90625 50.6875 38.53125 42.578125 
L 38.53125 66.65625 
z
M 38.53125 30.28125 
Q 38.53125 36.765625 34.5625 40.671875 
Q 30.609375 44.578125 25.34375 44.578125 
Q 19.625 44.578125 15.9375 39.5 
Q 12.25 34.421875 12.25 25.25 
Q 12.25 15.328125 15.640625 10.15625 
Q 19.046875 4.984375 24.953125 4.984375 
Q 30.328125 4.984375 34.421875 9.46875 
Q 38.53125 13.96875 38.53125 20.015625 
z
" id="FranklinGothic-Book-100"/>
     <path d="M 17.96875 49.3125 
L 17.96875 38.375 
L 7.078125 38.375 
L 7.078125 49.3125 
z
M 17.96875 10.984375 
L 17.96875 0 
L 7.078125 0 
L 7.078125 10.984375 
z
" id="FranklinGothic-Book-58"/>
     <path d="M 19.34375 31.34375 
L 19.34375 37.984375 
L 26.953125 37.984375 
Q 35.296875 37.984375 38.890625 41.40625 
Q 42.484375 44.828125 42.484375 49.703125 
Q 42.484375 55.078125 38.46875 58.21875 
Q 34.46875 61.375 28.421875 61.375 
Q 17.1875 61.375 12.890625 50.53125 
L 5.375 52.6875 
Q 11.8125 68.015625 29.203125 68.015625 
Q 38.96875 68.015625 44.96875 62.8125 
Q 50.984375 57.625 50.984375 50.296875 
Q 50.984375 44.625 47.359375 40.40625 
Q 43.75 36.1875 38.09375 35.109375 
Q 44.4375 34.1875 49 29.78125 
Q 53.5625 25.390625 53.5625 18.40625 
Q 53.5625 10.0625 46.765625 4.375 
Q 39.984375 -1.3125 28.171875 -1.3125 
Q 18.796875 -1.3125 12.125 3.125 
Q 5.46875 7.5625 2.9375 14.9375 
L 10.6875 17.53125 
Q 14.203125 5.46875 28.03125 5.46875 
Q 37.015625 5.46875 40.9375 9.296875 
Q 44.875 13.140625 44.875 18.453125 
Q 44.875 24.21875 40.15625 27.78125 
Q 35.453125 31.34375 26.953125 31.34375 
z
" id="FranklinGothic-Book-51"/>
    </defs>
    <use xlink:href="#FranklinGothic-Book-67"/>
    <use x="57.910156" xlink:href="#FranklinGothic-Book-114"/>
    <use x="90.869141" xlink:href="#FranklinGothic-Book-101"/>
    <use x="142.919922" xlink:href="#FranklinGothic-Book-97"/>
    <use x="195.800781" xlink:href="#FranklinGothic-Book-116"/>
    <use x="224.8125" xlink:href="#FranklinGothic-Book-101"/>
    <use x="276.863281" xlink:href="#FranklinGothic-Book-100"/>
    <use x="330.720703" xlink:href="#FranklinGothic-Book-58"/>
    <use x="355.720703" xlink:href="#FranklinGothic-Book-32"/>
    <use x="380.720703" xlink:href="#FranklinGothic-Book-50"/>
    <use x="439.363281" xlink:href="#FranklinGothic-Book-48"/>
    <use x="498.005859" xlink:href="#FranklinGothic-Book-50"/>
    <use x="552.273438" xlink:href="#FranklinGothic-Book-52"/>
    <use x="610.916016" xlink:href="#FranklinGothic-Book-45"/>
    <use x="635.916016" xlink:href="#FranklinGothic-Book-48"/>
    <use x="694.558594" xlink:href="#FranklinGothic-Book-50"/>
    <use x="753.201172" xlink:href="#FranklinGothic-Book-45"/>
    <use x="778.201172" xlink:href="#FranklinGothic-Book-48"/>
    <use x="836.84375" xlink:href="#FranklinGothic-Book-56"/>
    <use x="895.486328" xlink:href="#FranklinGothic-Book-32"/>
    <use x="920.486328" xlink:href="#FranklinGothic-Book-49"/>
    <use x="977.378906" xlink:href="#FranklinGothic-Book-49"/>
    <use x="1036.021484" xlink:href="#FranklinGothic-Book-58"/>
    <use x="1061.021484" xlink:href="#FranklinGothic-Book-52"/>
    <use x="1119.664062" xlink:href="#FranklinGothic-Book-54"/>
    <use x="1178.306641" xlink:href="#FranklinGothic-Book-58"/>
    <use x="1203.306641" xlink:href="#FranklinGothic-Book-51"/>
    <use x="1261.949219" xlink:href="#FranklinGothic-Book-50"/>
   </g>
  </g>
 </g>
 <defs>
  <clipPath id="p4587d46434">
   <rect height="498.96" width="892.8" x="144" y="77.76"/>
  </clipPath>
 </defs>
</svg>
