<?xml version="1.0" encoding="utf-8" standalone="no"?>
<!DOCTYPE svg PUBLIC "-//W3C//DTD SVG 1.1//EN"
  "http://www.w3.org/Graphics/SVG/1.1/DTD/svg11.dtd">
<!-- Created with matplotlib (https://matplotlib.org/) -->
<svg height="648pt" version="1.1" viewBox="0 0 1152 648" width="1152pt" xmlns="http://www.w3.org/2000/svg" xmlns:xlink="http://www.w3.org/1999/xlink">
 <metadata>
  <rdf:RDF xmlns:cc="http://creativecommons.org/ns#" xmlns:dc="http://purl.org/dc/elements/1.1/" xmlns:rdf="http://www.w3.org/1999/02/22-rdf-syntax-ns#">
   <cc:Work>
    <dc:type rdf:resource="http://purl.org/dc/dcmitype/StillImage"/>
    <dc:date>2024-01-18T12:41:04.277466</dc:date>
    <dc:format>image/svg+xml</dc:format>
    <dc:creator>
     <cc:Agent>
      <dc:title>Matplotlib v3.3.1, https://matplotlib.org/</dc:title>
     </cc:Agent>
    </dc:creator>
   </cc:Work>
  </rdf:RDF>
 </metadata>
 <defs>
  <style type="text/css">*{stroke-linecap:butt;stroke-linejoin:round;}</style>
 </defs>
 <g id="figure_1">
  <g id="patch_1">
   <path d="M 0 648 
L 1152 648 
L 1152 0 
L 0 0 
z
" style="fill:#ffffff;"/>
  </g>
  <g id="axes_1">
   <g id="patch_2">
    <path d="M 144 576.72 
L 1036.8 576.72 
L 1036.8 77.76 
L 144 77.76 
z
" style="fill:none;"/>
   </g>
   <g id="patch_3">
    <path d="M 144 576.72 
L 1036.8 576.72 
" style="fill:none;stroke:#d3d3d3;stroke-linecap:square;stroke-linejoin:miter;stroke-width:1.25;"/>
   </g>
   <g id="matplotlib.axis_1">
    <g id="xtick_1">
     <g id="line2d_1">
      <defs>
       <path d="M 0 0 
L 0 6 
" id="m957de3c1b7" style="stroke:#696969;stroke-width:1.25;"/>
      </defs>
      <g>
       <use style="fill:#696969;stroke:#696969;stroke-width:1.25;" x="294.386061" xlink:href="#m957de3c1b7" y="576.72"/>
      </g>
     </g>
     <g id="text_1">
      <!-- 1960 -->
      <g style="fill:#696969;" transform="translate(267.569499 601.550938)scale(0.23 -0.23)">
       <defs>
        <path d="M 55.859375 6.203125 
L 55.859375 0 
L 9.1875 0 
L 9.1875 6.203125 
L 29.203125 6.203125 
L 29.203125 57.671875 
Q 20.359375 48.4375 10.84375 43.265625 
L 10.84375 51.65625 
Q 23.96875 58.546875 31.203125 68.015625 
L 37.15625 68.015625 
L 37.15625 6.203125 
z
" id="FranklinGothic-Book-49"/>
        <path d="M 5.71875 12.15625 
L 12.40625 14.59375 
Q 16.546875 5.375 26.375 5.375 
Q 35.890625 5.375 40.703125 13.375 
Q 45.515625 21.390625 45.65625 35.109375 
Q 39.109375 23.09375 25.984375 23.09375 
Q 16.703125 23.09375 10.40625 29.421875 
Q 4.109375 35.75 4.109375 45.0625 
Q 4.109375 54.546875 10.71875 61.28125 
Q 17.328125 68.015625 27.59375 68.015625 
Q 40.140625 68.015625 46.828125 59.203125 
Q 53.515625 50.390625 53.515625 34.96875 
Q 53.515625 18.75 46.4375 8.71875 
Q 39.359375 -1.3125 26.265625 -1.3125 
Q 10.984375 -1.3125 5.71875 12.15625 
z
M 27.828125 29.78125 
Q 34.71875 29.78125 39.375 34.59375 
Q 44.046875 39.40625 44.046875 45.84375 
Q 44.046875 52.09375 39.625 56.578125 
Q 35.203125 61.078125 27.984375 61.078125 
Q 20.65625 61.078125 16.40625 56.46875 
Q 12.15625 51.859375 12.15625 45.21875 
Q 12.15625 38.09375 16.859375 33.9375 
Q 21.578125 29.78125 27.828125 29.78125 
z
" id="FranklinGothic-Book-57"/>
        <path d="M 53.5625 53.03125 
L 46.046875 50.984375 
Q 42.1875 61.140625 31.984375 61.140625 
Q 13.234375 61.140625 12.796875 30.125 
Q 15.765625 37.015625 21.234375 40.328125 
Q 26.703125 43.65625 32.8125 43.65625 
Q 42.09375 43.65625 48.359375 37.1875 
Q 54.640625 30.71875 54.640625 21.6875 
Q 54.640625 12.3125 47.96875 5.5 
Q 41.3125 -1.3125 30.90625 -1.3125 
Q 19.09375 -1.3125 12.078125 7.59375 
Q 5.078125 16.5 5.078125 31.84375 
Q 5.078125 46.828125 11.6875 57.421875 
Q 18.3125 68.015625 32.171875 68.015625 
Q 48.140625 68.015625 53.5625 53.03125 
z
M 30.765625 5.375 
Q 37.84375 5.375 42.359375 10.03125 
Q 46.875 14.703125 46.875 21.234375 
Q 46.875 27.6875 42.453125 32.296875 
Q 38.03125 36.921875 31.5 36.921875 
Q 24.75 36.921875 19.71875 32.078125 
Q 14.703125 27.25 14.703125 20.75 
Q 14.703125 14.75 19.1875 10.0625 
Q 23.6875 5.375 30.765625 5.375 
z
" id="FranklinGothic-Book-54"/>
        <path d="M 29.390625 -1.3125 
Q 17.875 -1.3125 10.984375 8.671875 
Q 4.109375 18.65625 4.109375 33.453125 
Q 4.109375 48 10.640625 58 
Q 17.1875 68.015625 29.15625 68.015625 
Q 41.65625 68.015625 48.125 57.5625 
Q 54.59375 47.125 54.59375 33.0625 
Q 54.59375 19.28125 47.953125 8.984375 
Q 41.3125 -1.3125 29.390625 -1.3125 
z
M 29.4375 5.21875 
Q 37.890625 5.21875 41.9375 12.859375 
Q 46 20.515625 46 32.078125 
Q 46 44.734375 41.84375 53.125 
Q 37.703125 61.53125 29.046875 61.53125 
Q 20.703125 61.53125 16.625 53.859375 
Q 12.546875 46.1875 12.546875 33.6875 
Q 12.546875 20.703125 16.84375 12.953125 
Q 21.140625 5.21875 29.4375 5.21875 
z
" id="FranklinGothic-Book-48"/>
       </defs>
       <use xlink:href="#FranklinGothic-Book-49"/>
       <use x="57.267578" xlink:href="#FranklinGothic-Book-57"/>
       <use x="115.910156" xlink:href="#FranklinGothic-Book-54"/>
       <use x="174.552734" xlink:href="#FranklinGothic-Book-48"/>
      </g>
     </g>
    </g>
    <g id="xtick_2">
     <g id="line2d_2">
      <g>
       <use style="fill:#696969;stroke:#696969;stroke-width:1.25;" x="513.994548" xlink:href="#m957de3c1b7" y="576.72"/>
      </g>
     </g>
     <g id="text_2">
      <!-- 1980 -->
      <g style="fill:#696969;" transform="translate(487.177985 601.550938)scale(0.23 -0.23)">
       <defs>
        <path d="M 19.484375 34.578125 
Q 6.84375 40.09375 6.84375 50.59375 
Q 6.84375 58.203125 13.140625 63.109375 
Q 19.4375 68.015625 29.828125 68.015625 
Q 40.09375 68.015625 46.140625 63.296875 
Q 52.203125 58.59375 52.203125 50.984375 
Q 52.203125 40.375 39.265625 35.796875 
Q 49.703125 30.953125 52.359375 26.453125 
Q 55.03125 21.96875 55.03125 17.484375 
Q 55.03125 9.46875 48.21875 4.078125 
Q 41.40625 -1.3125 29.734375 -1.3125 
Q 17.28125 -1.3125 10.4375 4.171875 
Q 3.609375 9.671875 3.609375 17.234375 
Q 3.609375 28.515625 19.484375 34.578125 
z
M 29.59375 38.71875 
Q 37.984375 40.96875 41.453125 43.890625 
Q 44.921875 46.828125 44.921875 51.21875 
Q 44.921875 56.34375 40.796875 59 
Q 36.671875 61.671875 29.9375 61.671875 
Q 23.484375 61.671875 19.375 58.859375 
Q 15.28125 56.0625 15.28125 51.3125 
Q 15.28125 46.625 19.84375 43.203125 
Q 24.421875 39.796875 29.59375 38.71875 
z
M 28.65625 31.0625 
Q 11.765625 27.046875 11.765625 16.9375 
Q 11.765625 11.671875 16.375 8.328125 
Q 21 4.984375 29.984375 4.984375 
Q 37.59375 4.984375 42.234375 8.25 
Q 46.875 11.53125 46.875 16.609375 
Q 46.875 26.3125 28.65625 31.0625 
z
" id="FranklinGothic-Book-56"/>
       </defs>
       <use xlink:href="#FranklinGothic-Book-49"/>
       <use x="57.267578" xlink:href="#FranklinGothic-Book-57"/>
       <use x="115.910156" xlink:href="#FranklinGothic-Book-56"/>
       <use x="174.552734" xlink:href="#FranklinGothic-Book-48"/>
      </g>
     </g>
    </g>
    <g id="xtick_3">
     <g id="line2d_3">
      <g>
       <use style="fill:#696969;stroke:#696969;stroke-width:1.25;" x="733.603034" xlink:href="#m957de3c1b7" y="576.72"/>
      </g>
     </g>
     <g id="text_3">
      <!-- 2000 -->
      <g style="fill:#696969;" transform="translate(706.628346 601.550938)scale(0.23 -0.23)">
       <defs>
        <path d="M 52.484375 6.9375 
L 52.484375 0 
L 5.171875 0 
L 5.171875 6.9375 
Q 33.203125 27.9375 38.59375 34.59375 
Q 44 41.265625 44 47.796875 
Q 44 53.90625 39.453125 57.65625 
Q 34.90625 61.421875 29 61.421875 
Q 22.90625 61.421875 18.21875 57.296875 
Q 13.53125 53.171875 12.9375 46.09375 
L 5.171875 48.4375 
Q 10.0625 68.015625 29.109375 68.015625 
Q 39.40625 68.015625 45.84375 62.15625 
Q 52.296875 56.296875 52.296875 47.859375 
Q 52.296875 42.046875 49.234375 36.671875 
Q 46.1875 31.296875 37.6875 23.828125 
Q 29.203125 16.359375 15.71875 6.9375 
z
" id="FranklinGothic-Book-50"/>
       </defs>
       <use xlink:href="#FranklinGothic-Book-50"/>
       <use x="58.642578" xlink:href="#FranklinGothic-Book-48"/>
       <use x="117.285156" xlink:href="#FranklinGothic-Book-48"/>
       <use x="175.927734" xlink:href="#FranklinGothic-Book-48"/>
      </g>
     </g>
    </g>
    <g id="xtick_4">
     <g id="line2d_4">
      <g>
       <use style="fill:#696969;stroke:#696969;stroke-width:1.25;" x="953.21152" xlink:href="#m957de3c1b7" y="576.72"/>
      </g>
     </g>
     <g id="text_4">
      <!-- 2020 -->
      <g style="fill:#696969;" transform="translate(926.236832 601.550938)scale(0.23 -0.23)">
       <use xlink:href="#FranklinGothic-Book-50"/>
       <use x="58.642578" xlink:href="#FranklinGothic-Book-48"/>
       <use x="117.285156" xlink:href="#FranklinGothic-Book-50"/>
       <use x="175.927734" xlink:href="#FranklinGothic-Book-48"/>
      </g>
     </g>
    </g>
    <g id="text_5">
     <!-- Year -->
     <g style="fill:#696969;" transform="translate(569.365781 624.712813)scale(0.23 -0.23)">
      <defs>
       <path d="M 52 66.65625 
L 29.6875 28.03125 
L 29.6875 0 
L 21.34375 0 
L 21.34375 28.03125 
L -0.984375 66.65625 
L 8.84375 66.65625 
L 26.5625 35.984375 
L 44.390625 66.65625 
z
" id="FranklinGothic-Book-89"/>
       <path d="M 40.234375 14.703125 
L 47.359375 13.234375 
Q 45.40625 6.9375 39.734375 2.8125 
Q 34.078125 -1.3125 26.421875 -1.3125 
Q 16.3125 -1.3125 10.0625 5.78125 
Q 3.8125 12.890625 3.8125 24.421875 
Q 3.8125 36.1875 10.296875 43.4375 
Q 16.796875 50.6875 26.609375 50.6875 
Q 36.28125 50.6875 42.15625 44 
Q 48.046875 37.3125 48.1875 23.96875 
L 12.359375 23.96875 
Q 12.359375 12.796875 17.046875 8.890625 
Q 21.734375 4.984375 26.953125 4.984375 
Q 36.375 4.984375 40.234375 14.703125 
z
M 39.796875 29.6875 
Q 39.703125 33.84375 38.421875 37.0625 
Q 37.15625 40.28125 34.125 42.546875 
Q 31.109375 44.828125 26.859375 44.828125 
Q 21.140625 44.828125 17.15625 40.71875 
Q 13.1875 36.625 12.703125 29.6875 
z
" id="FranklinGothic-Book-101"/>
       <path d="M 46.296875 0 
L 38.671875 0 
Q 38.234375 2.34375 37.796875 8.890625 
Q 32.71875 -1.3125 20.515625 -1.3125 
Q 12.203125 -1.3125 7.765625 3.078125 
Q 3.328125 7.46875 3.328125 13.625 
Q 3.328125 21.09375 9.671875 25.90625 
Q 16.015625 30.71875 31.25 30.71875 
Q 33.296875 30.71875 37.796875 30.515625 
Q 37.796875 36.375 36.890625 38.984375 
Q 35.984375 41.609375 33.046875 43.171875 
Q 30.125 44.734375 25.34375 44.734375 
Q 13.671875 44.734375 11.765625 35.84375 
L 4.6875 37.0625 
Q 7.28125 50.6875 26.46875 50.6875 
Q 36.671875 50.6875 40.9375 46.171875 
Q 45.21875 41.65625 45.21875 30.515625 
L 45.21875 9.578125 
Q 45.21875 4.34375 46.296875 0 
z
M 37.796875 24.65625 
Q 33.109375 24.953125 30.671875 24.953125 
Q 21.578125 24.953125 16.546875 21.96875 
Q 11.53125 19 11.53125 13.28125 
Q 11.53125 9.671875 14.234375 7.125 
Q 16.9375 4.59375 22.078125 4.59375 
Q 29 4.59375 33.46875 9.625 
Q 37.9375 14.65625 37.9375 21.4375 
Q 37.9375 22.796875 37.796875 24.65625 
z
" id="FranklinGothic-Book-97"/>
       <path d="M 15.328125 0 
L 7.671875 0 
L 7.671875 49.3125 
L 14.40625 49.3125 
L 14.40625 37.796875 
Q 17.96875 45.953125 21.546875 48.359375 
Q 25.140625 50.78125 28.90625 50.78125 
Q 30.078125 50.78125 31.9375 50.59375 
L 31.9375 43.265625 
L 30.375 43.265625 
Q 24.03125 43.265625 19.828125 38.53125 
Q 15.625 33.796875 15.328125 26.078125 
z
" id="FranklinGothic-Book-114"/>
      </defs>
      <use xlink:href="#FranklinGothic-Book-89"/>
      <use x="45.025391" xlink:href="#FranklinGothic-Book-101"/>
      <use x="97.076172" xlink:href="#FranklinGothic-Book-97"/>
      <use x="149.957031" xlink:href="#FranklinGothic-Book-114"/>
     </g>
    </g>
   </g>
   <g id="matplotlib.axis_2">
    <g id="ytick_1">
     <g id="line2d_5">
      <path clip-path="url(#p5653a38642)" d="M 144 506.485161 
L 1036.8 506.485161 
" style="fill:none;stroke:#d3d3d3;stroke-linecap:round;stroke-opacity:0.5;"/>
     </g>
     <g id="text_6">
      <!-- −3 -->
      <g style="fill:#696969;" transform="translate(107.525312 514.15063)scale(0.23 -0.23)">
       <defs>
        <path d="M 6 36.765625 
L 52.6875 36.765625 
L 52.6875 30.03125 
L 6 30.03125 
z
" id="FranklinGothic-Book-8722"/>
        <path d="M 19.34375 31.34375 
L 19.34375 37.984375 
L 26.953125 37.984375 
Q 35.296875 37.984375 38.890625 41.40625 
Q 42.484375 44.828125 42.484375 49.703125 
Q 42.484375 55.078125 38.46875 58.21875 
Q 34.46875 61.375 28.421875 61.375 
Q 17.1875 61.375 12.890625 50.53125 
L 5.375 52.6875 
Q 11.8125 68.015625 29.203125 68.015625 
Q 38.96875 68.015625 44.96875 62.8125 
Q 50.984375 57.625 50.984375 50.296875 
Q 50.984375 44.625 47.359375 40.40625 
Q 43.75 36.1875 38.09375 35.109375 
Q 44.4375 34.1875 49 29.78125 
Q 53.5625 25.390625 53.5625 18.40625 
Q 53.5625 10.0625 46.765625 4.375 
Q 39.984375 -1.3125 28.171875 -1.3125 
Q 18.796875 -1.3125 12.125 3.125 
Q 5.46875 7.5625 2.9375 14.9375 
L 10.6875 17.53125 
Q 14.203125 5.46875 28.03125 5.46875 
Q 37.015625 5.46875 40.9375 9.296875 
Q 44.875 13.140625 44.875 18.453125 
Q 44.875 24.21875 40.15625 27.78125 
Q 35.453125 31.34375 26.953125 31.34375 
z
" id="FranklinGothic-Book-51"/>
       </defs>
       <use xlink:href="#FranklinGothic-Book-8722"/>
       <use x="58.642578" xlink:href="#FranklinGothic-Book-51"/>
      </g>
     </g>
    </g>
    <g id="ytick_2">
     <g id="line2d_6">
      <path clip-path="url(#p5653a38642)" d="M 144 433.323871 
L 1036.8 433.323871 
" style="fill:none;stroke:#d3d3d3;stroke-linecap:round;stroke-opacity:0.5;"/>
     </g>
     <g id="text_7">
      <!-- −2 -->
      <g style="fill:#696969;" transform="translate(107.525312 440.98934)scale(0.23 -0.23)">
       <use xlink:href="#FranklinGothic-Book-8722"/>
       <use x="58.642578" xlink:href="#FranklinGothic-Book-50"/>
      </g>
     </g>
    </g>
    <g id="ytick_3">
     <g id="line2d_7">
      <path clip-path="url(#p5653a38642)" d="M 144 360.162581 
L 1036.8 360.162581 
" style="fill:none;stroke:#d3d3d3;stroke-linecap:round;stroke-opacity:0.5;"/>
     </g>
     <g id="text_8">
      <!-- −1 -->
      <g style="fill:#696969;" transform="translate(107.525312 367.828049)scale(0.23 -0.23)">
       <use xlink:href="#FranklinGothic-Book-8722"/>
       <use x="58.642578" xlink:href="#FranklinGothic-Book-49"/>
      </g>
     </g>
    </g>
    <g id="ytick_4">
     <g id="line2d_8">
      <path clip-path="url(#p5653a38642)" d="M 144 287.00129 
L 1036.8 287.00129 
" style="fill:none;stroke:#d3d3d3;stroke-linecap:round;stroke-opacity:0.5;"/>
     </g>
     <g id="text_9">
      <!-- 0 -->
      <g style="fill:#696969;" transform="translate(121.012656 294.666759)scale(0.23 -0.23)">
       <use xlink:href="#FranklinGothic-Book-48"/>
      </g>
     </g>
    </g>
    <g id="ytick_5">
     <g id="line2d_9">
      <path clip-path="url(#p5653a38642)" d="M 144 213.84 
L 1036.8 213.84 
" style="fill:none;stroke:#d3d3d3;stroke-linecap:round;stroke-opacity:0.5;"/>
     </g>
     <g id="text_10">
      <!-- 1 -->
      <g style="fill:#696969;" transform="translate(121.012656 221.505469)scale(0.23 -0.23)">
       <use xlink:href="#FranklinGothic-Book-49"/>
      </g>
     </g>
    </g>
    <g id="ytick_6">
     <g id="line2d_10">
      <path clip-path="url(#p5653a38642)" d="M 144 140.67871 
L 1036.8 140.67871 
" style="fill:none;stroke:#d3d3d3;stroke-linecap:round;stroke-opacity:0.5;"/>
     </g>
     <g id="text_11">
      <!-- 2 -->
      <g style="fill:#696969;" transform="translate(121.012656 148.344178)scale(0.23 -0.23)">
       <use xlink:href="#FranklinGothic-Book-50"/>
      </g>
     </g>
    </g>
    <g id="text_12">
     <!-- $\!^\circ\!$C -->
     <g style="fill:#696969;" transform="translate(93.694375 338.855)rotate(-90)scale(0.23 -0.23)">
      <defs>
       <path d="M 31.296875 40.671875 
Q 27.390625 40.671875 24.703125 37.953125 
Q 22.015625 35.25 22.015625 31.34375 
Q 22.015625 27.484375 24.703125 24.828125 
Q 27.390625 22.171875 31.296875 22.171875 
Q 35.203125 22.171875 37.890625 24.828125 
Q 40.578125 27.484375 40.578125 31.34375 
Q 40.578125 35.203125 37.859375 37.9375 
Q 35.15625 40.671875 31.296875 40.671875 
z
M 31.296875 46.96875 
Q 34.421875 46.96875 37.296875 45.765625 
Q 40.1875 44.578125 42.28125 42.328125 
Q 44.53125 40.140625 45.65625 37.34375 
Q 46.78125 34.5625 46.78125 31.34375 
Q 46.78125 24.90625 42.265625 20.4375 
Q 37.75 15.96875 31.203125 15.96875 
Q 24.609375 15.96875 20.21875 20.359375 
Q 15.828125 24.75 15.828125 31.34375 
Q 15.828125 37.890625 20.3125 42.421875 
Q 24.8125 46.96875 31.296875 46.96875 
z
" id="DejaVuSans-8728"/>
       <path d="M 48.296875 22.40625 
L 55.90625 20.703125 
Q 50.4375 -1.3125 31.203125 -1.3125 
Q 18.5625 -1.3125 11.359375 8.890625 
Q 4.15625 19.09375 4.15625 33.984375 
Q 4.15625 49.359375 11.671875 58.6875 
Q 19.1875 68.015625 31.84375 68.015625 
Q 50.59375 68.015625 55.90625 46.578125 
L 48.046875 45.015625 
Q 43.75 60.9375 31.78125 60.9375 
Q 22.953125 60.9375 18.09375 53.53125 
Q 13.234375 46.140625 13.234375 32.765625 
Q 13.234375 20.515625 18.203125 13.109375 
Q 23.1875 5.71875 31.390625 5.71875 
Q 44.140625 5.71875 48.296875 22.40625 
z
" id="FranklinGothic-Book-67"/>
      </defs>
      <use transform="translate(-1.64095 39.121875)scale(0.7)" xlink:href="#DejaVuSans-8728"/>
      <use transform="translate(42.313804 0.840625)" xlink:href="#FranklinGothic-Book-67"/>
     </g>
    </g>
   </g>
   <g id="text_13">
    <!-- Compared to 1950-2000 average -->
    <g style="fill:#696969;" transform="translate(144 75.2652)scale(0.3 -0.3)">
     <defs>
      <path d="M 25.34375 -1.3125 
Q 15.1875 -1.3125 9.5 6.203125 
Q 3.8125 13.71875 3.8125 24.859375 
Q 3.8125 36.625 10.203125 43.65625 
Q 16.609375 50.6875 26.125 50.6875 
Q 36.328125 50.6875 42.203125 43.28125 
Q 48.09375 35.890625 48.09375 24.8125 
Q 48.09375 13.28125 41.75 5.984375 
Q 35.40625 -1.3125 25.34375 -1.3125 
z
M 25.921875 4.984375 
Q 31.78125 4.984375 35.734375 9.8125 
Q 39.703125 14.65625 39.703125 24.859375 
Q 39.703125 35.109375 35.546875 39.71875 
Q 31.390625 44.34375 25.828125 44.34375 
Q 20.125 44.34375 16.15625 39.671875 
Q 12.203125 35.015625 12.203125 24.90625 
Q 12.203125 14.203125 16.15625 9.59375 
Q 20.125 4.984375 25.921875 4.984375 
z
" id="FranklinGothic-Book-111"/>
      <path d="M 73.734375 0 
L 66.265625 0 
L 66.265625 30.671875 
Q 66.265625 35.40625 65.59375 37.765625 
Q 64.9375 40.140625 62.390625 42.109375 
Q 59.859375 44.09375 56.6875 44.09375 
Q 52.296875 44.09375 48.21875 40.0625 
Q 44.140625 36.03125 44.140625 27.78125 
L 44.140625 0 
L 36.71875 0 
L 36.71875 32.46875 
Q 36.71875 38.96875 33.609375 41.65625 
Q 30.515625 44.34375 27.09375 44.34375 
Q 22.21875 44.34375 18.59375 40.140625 
Q 14.984375 35.9375 14.984375 29.5 
L 14.984375 0 
L 7.671875 0 
L 7.671875 49.3125 
L 14.265625 49.3125 
L 14.265625 39.84375 
Q 19.78125 50.6875 29.4375 50.6875 
Q 34.765625 50.6875 38.46875 47.21875 
Q 42.1875 43.75 43.265625 38.875 
Q 48.34375 50.6875 58.84375 50.6875 
Q 63.875 50.6875 67.65625 47.796875 
Q 71.4375 44.921875 72.578125 41.1875 
Q 73.734375 37.453125 73.734375 30.671875 
z
" id="FranklinGothic-Book-109"/>
      <path d="M 15.328125 -16.65625 
L 7.671875 -16.65625 
L 7.671875 49.3125 
L 14.546875 49.3125 
L 14.546875 39.75 
Q 19.78125 50.6875 30.125 50.6875 
Q 38.875 50.6875 44.234375 43.375 
Q 49.609375 36.078125 49.609375 24.90625 
Q 49.609375 12.84375 44.09375 5.765625 
Q 38.578125 -1.3125 29.9375 -1.3125 
Q 20.65625 -1.3125 15.328125 7.515625 
z
M 15.328125 31.78125 
L 15.328125 17.921875 
Q 16.0625 12.3125 20.0625 8.640625 
Q 24.078125 4.984375 28.421875 4.984375 
Q 33.453125 4.984375 37.328125 9.375 
Q 41.21875 13.765625 41.21875 24.5625 
Q 41.21875 33.890625 37.703125 38.9375 
Q 34.1875 44 28.375 44 
Q 23.78125 44 20.140625 40.421875 
Q 16.5 36.859375 15.328125 31.78125 
z
" id="FranklinGothic-Book-112"/>
      <path d="M 46.1875 66.65625 
L 46.1875 0 
L 39.203125 0 
L 39.203125 8.453125 
Q 34.03125 -1.3125 23.640625 -1.3125 
Q 14.984375 -1.3125 9.421875 5.9375 
Q 3.859375 13.1875 3.859375 24.265625 
Q 3.859375 35.59375 9.375 43.140625 
Q 14.890625 50.6875 24.03125 50.6875 
Q 32.90625 50.6875 38.53125 42.578125 
L 38.53125 66.65625 
z
M 38.53125 30.28125 
Q 38.53125 36.765625 34.5625 40.671875 
Q 30.609375 44.578125 25.34375 44.578125 
Q 19.625 44.578125 15.9375 39.5 
Q 12.25 34.421875 12.25 25.25 
Q 12.25 15.328125 15.640625 10.15625 
Q 19.046875 4.984375 24.953125 4.984375 
Q 30.328125 4.984375 34.421875 9.46875 
Q 38.53125 13.96875 38.53125 20.015625 
z
" id="FranklinGothic-Book-100"/>
      <path id="FranklinGothic-Book-32"/>
      <path d="M 30.03125 5.28125 
L 30.03125 -0.78125 
Q 25.984375 -1.3125 23 -1.3125 
Q 8.6875 -1.3125 8.6875 13.625 
L 8.6875 43.3125 
L -0.046875 43.3125 
L -0.046875 49.3125 
L 8.6875 49.3125 
L 9.03125 61.71875 
L 16.15625 62.40625 
L 16.15625 49.3125 
L 27.203125 49.3125 
L 27.203125 43.3125 
L 16.15625 43.3125 
L 16.15625 12.359375 
Q 16.15625 4.734375 24.078125 4.734375 
Q 26.703125 4.734375 30.03125 5.28125 
z
" id="FranklinGothic-Book-116"/>
      <path d="M 48.875 66.65625 
L 48.1875 59.46875 
L 15.4375 59.46875 
L 14.015625 37.84375 
Q 21.4375 45.125 30.328125 45.125 
Q 39.703125 45.125 46.515625 38.625 
Q 53.328125 32.125 53.328125 22.015625 
Q 53.328125 11.765625 45.921875 5.21875 
Q 38.53125 -1.3125 27.828125 -1.3125 
Q 19.4375 -1.3125 12.890625 3.078125 
Q 6.34375 7.46875 4.296875 14.453125 
L 11.421875 16.890625 
Q 15.828125 5.28125 27.9375 5.28125 
Q 35.890625 5.28125 40.578125 9.984375 
Q 45.265625 14.703125 45.265625 22.015625 
Q 45.265625 29.6875 40.625 33.984375 
Q 35.984375 38.28125 29.5 38.28125 
Q 20.015625 38.28125 13.8125 29.203125 
L 7.234375 30.609375 
L 9.375 66.65625 
z
" id="FranklinGothic-Book-53"/>
      <path d="M 23.53125 27.984375 
L 23.53125 22.015625 
L 1.46875 22.015625 
L 1.46875 27.984375 
z
" id="FranklinGothic-Book-45"/>
      <path d="M 43.796875 49.3125 
L 26.765625 0 
L 18.796875 0 
L 1.171875 49.3125 
L 9.671875 49.3125 
L 23.390625 9.234375 
L 36.96875 49.3125 
z
" id="FranklinGothic-Book-118"/>
      <path d="M 47.953125 57.03125 
L 47.953125 50.921875 
Q 42.671875 50.921875 40.890625 49.703125 
Q 39.109375 48.484375 38.53125 45.3125 
Q 43.265625 39.84375 43.265625 33.40625 
Q 43.265625 26.65625 38.109375 21.828125 
Q 32.953125 17 24.265625 17 
Q 22.3125 17 20.90625 17.28125 
Q 18.21875 17.828125 17.53125 17.828125 
Q 16.21875 17.828125 14.359375 16.53125 
Q 12.5 15.234375 12.5 13.1875 
Q 12.5 10.25 15.1875 9.375 
Q 17.875 8.5 27.828125 8.25 
Q 36.28125 8.015625 40.3125 7.109375 
Q 44.34375 6.203125 47.125 3.09375 
Q 49.90625 0 49.90625 -4.5 
Q 49.90625 -18.609375 25.09375 -18.609375 
Q 13.328125 -18.609375 7.9375 -15.0625 
Q 2.546875 -11.53125 2.546875 -5.609375 
Q 2.546875 1.5625 10.0625 4.25 
Q 5.21875 7.421875 5.21875 12.203125 
Q 5.21875 17.921875 12.0625 20.953125 
Q 5.671875 26.125 5.671875 33.984375 
Q 5.671875 41.3125 11.140625 46 
Q 16.609375 50.6875 24.46875 50.6875 
Q 30.03125 50.6875 34.578125 48.578125 
Q 35.296875 53.421875 37.953125 55.265625 
Q 40.625 57.125 46.046875 57.125 
Q 46.578125 57.125 47.953125 57.03125 
z
M 24.515625 22.859375 
Q 29.390625 22.859375 32.46875 25.859375 
Q 35.546875 28.859375 35.546875 33.640625 
Q 35.546875 38.53125 32.34375 41.625 
Q 29.15625 44.734375 24.609375 44.734375 
Q 20.265625 44.734375 16.890625 41.828125 
Q 13.53125 38.921875 13.53125 33.546875 
Q 13.53125 28.765625 16.546875 25.8125 
Q 19.578125 22.859375 24.515625 22.859375 
z
M 15.328125 2 
Q 9.96875 -0.34375 9.96875 -4.78125 
Q 9.96875 -8.546875 14.375 -10.625 
Q 18.796875 -12.703125 25.640625 -12.703125 
Q 31.984375 -12.703125 37.25 -10.90625 
Q 42.53125 -9.125 42.53125 -4.890625 
Q 42.53125 -2.59375 40.96875 -1.125 
Q 39.40625 0.34375 36.6875 0.734375 
Q 33.984375 1.125 27.25 1.3125 
Q 19.1875 1.515625 15.328125 2 
z
" id="FranklinGothic-Book-103"/>
     </defs>
     <use xlink:href="#FranklinGothic-Book-67"/>
     <use x="57.910156" xlink:href="#FranklinGothic-Book-111"/>
     <use x="109.863281" xlink:href="#FranklinGothic-Book-109"/>
     <use x="190.384766" xlink:href="#FranklinGothic-Book-112"/>
     <use x="243.802734" xlink:href="#FranklinGothic-Book-97"/>
     <use x="296.683594" xlink:href="#FranklinGothic-Book-114"/>
     <use x="329.642578" xlink:href="#FranklinGothic-Book-101"/>
     <use x="381.693359" xlink:href="#FranklinGothic-Book-100"/>
     <use x="435.550781" xlink:href="#FranklinGothic-Book-32"/>
     <use x="460.550781" xlink:href="#FranklinGothic-Book-116"/>
     <use x="489.8125" xlink:href="#FranklinGothic-Book-111"/>
     <use x="541.765625" xlink:href="#FranklinGothic-Book-32"/>
     <use x="566.765625" xlink:href="#FranklinGothic-Book-49"/>
     <use x="624.033203" xlink:href="#FranklinGothic-Book-57"/>
     <use x="682.675781" xlink:href="#FranklinGothic-Book-53"/>
     <use x="741.318359" xlink:href="#FranklinGothic-Book-48"/>
     <use x="799.960938" xlink:href="#FranklinGothic-Book-45"/>
     <use x="824.960938" xlink:href="#FranklinGothic-Book-50"/>
     <use x="883.603516" xlink:href="#FranklinGothic-Book-48"/>
     <use x="942.246094" xlink:href="#FranklinGothic-Book-48"/>
     <use x="1000.888672" xlink:href="#FranklinGothic-Book-48"/>
     <use x="1059.53125" xlink:href="#FranklinGothic-Book-32"/>
     <use x="1084.53125" xlink:href="#FranklinGothic-Book-97"/>
     <use x="1135.162109" xlink:href="#FranklinGothic-Book-118"/>
     <use x="1178.681641" xlink:href="#FranklinGothic-Book-101"/>
     <use x="1230.732422" xlink:href="#FranklinGothic-Book-114"/>
     <use x="1263.691406" xlink:href="#FranklinGothic-Book-97"/>
     <use x="1316.572266" xlink:href="#FranklinGothic-Book-103"/>
     <use x="1365.693359" xlink:href="#FranklinGothic-Book-101"/>
    </g>
   </g>
   <g id="text_14">
    <!-- Pacific Decadal Oscillation -->
    <g style="fill:#696969;" transform="translate(144 42.76)scale(0.4 -0.4)">
     <defs>
      <path d="M 16.703125 0 
L 8.34375 0 
L 8.34375 66.65625 
L 31.984375 66.65625 
Q 43.0625 66.65625 48.328125 60.625 
Q 53.609375 54.59375 53.609375 46.875 
Q 53.609375 38.28125 47.875 32.65625 
Q 42.140625 27.046875 32.859375 27.046875 
L 16.703125 27.046875 
z
M 16.703125 33.984375 
L 32.03125 33.984375 
Q 37.9375 33.984375 41.546875 37.515625 
Q 45.171875 41.0625 45.171875 46.875 
Q 45.171875 51.859375 41.9375 55.765625 
Q 38.71875 59.671875 32.625 59.671875 
L 16.703125 59.671875 
z
" id="FranklinGothic-Book-80"/>
      <path d="M 36.8125 17.28125 
L 43.75 16.0625 
Q 42.28125 7.90625 37.25 3.296875 
Q 32.234375 -1.3125 24.703125 -1.3125 
Q 14.5 -1.3125 9.15625 6.203125 
Q 3.8125 13.71875 3.8125 24.5625 
Q 3.8125 35.796875 9.453125 43.234375 
Q 15.09375 50.6875 24.8125 50.6875 
Q 32.859375 50.6875 37.71875 45.875 
Q 42.578125 41.0625 43.75 33.453125 
L 36.8125 32.125 
Q 34.859375 44.34375 25 44.34375 
Q 18.65625 44.34375 15.234375 38.9375 
Q 11.8125 33.546875 11.8125 24.953125 
Q 11.8125 15.484375 15.203125 10.234375 
Q 18.609375 4.984375 24.75 4.984375 
Q 34.28125 4.984375 36.8125 17.28125 
z
" id="FranklinGothic-Book-99"/>
      <path d="M 15.578125 66.65625 
L 15.578125 58.15625 
L 7.328125 58.15625 
L 7.328125 66.65625 
z
M 15.328125 49.3125 
L 15.328125 0 
L 7.671875 0 
L 7.671875 49.3125 
z
" id="FranklinGothic-Book-105"/>
      <path d="M 28.125 49.3125 
L 28.125 43.3125 
L 16.40625 43.3125 
L 16.40625 0 
L 8.734375 0 
L 8.734375 43.3125 
L 0.34375 43.3125 
L 0.34375 49.3125 
L 8.734375 49.3125 
Q 8.9375 61.1875 13.296875 64.59375 
Q 17.671875 68.015625 23.96875 68.015625 
Q 27.046875 68.015625 31 67.328125 
L 31 61.234375 
Q 28.515625 61.859375 26.265625 61.859375 
Q 21.234375 61.859375 18.8125 59.640625 
Q 16.40625 57.421875 16.40625 51.3125 
L 16.40625 49.3125 
z
" id="FranklinGothic-Book-102"/>
      <path d="M 8.34375 0 
L 8.34375 66.65625 
L 30.71875 66.65625 
Q 44.828125 66.65625 52.6875 57.03125 
Q 60.546875 47.40625 60.546875 33.5 
Q 60.546875 19.390625 52.875 9.6875 
Q 45.21875 0 33.453125 0 
z
M 16.703125 7.078125 
L 30.21875 7.078125 
Q 40.96875 7.078125 46.53125 14.5 
Q 52.09375 21.921875 52.09375 34.078125 
Q 52.09375 43.953125 46.796875 51.8125 
Q 41.5 59.671875 30.21875 59.671875 
L 16.703125 59.671875 
z
" id="FranklinGothic-Book-68"/>
      <path d="M 15.328125 0 
L 7.671875 0 
L 7.671875 66.65625 
L 15.328125 66.65625 
z
" id="FranklinGothic-Book-108"/>
      <path d="M 31.34375 -1.3125 
Q 18.5 -1.3125 11.328125 8.671875 
Q 4.15625 18.65625 4.15625 33.15625 
Q 4.15625 48.296875 11.671875 58.15625 
Q 19.1875 68.015625 31.59375 68.015625 
Q 43.953125 68.015625 51.421875 58.328125 
Q 58.890625 48.640625 58.890625 33.890625 
Q 58.890625 19.734375 51.640625 9.203125 
Q 44.390625 -1.3125 31.34375 -1.3125 
z
M 31.546875 5.46875 
Q 40.28125 5.46875 45.203125 13.421875 
Q 50.140625 21.390625 50.140625 33.9375 
Q 50.140625 46.828125 45.03125 54 
Q 39.9375 61.1875 31.5 61.1875 
Q 22.953125 61.1875 17.921875 53.421875 
Q 12.890625 45.65625 12.890625 33.109375 
Q 12.890625 20.84375 17.96875 13.15625 
Q 23.046875 5.46875 31.546875 5.46875 
z
" id="FranklinGothic-Book-79"/>
      <path d="M 1.03125 12.796875 
L 8.34375 14.3125 
Q 10.796875 4.984375 23.78125 4.984375 
Q 28.5625 4.984375 31.875 7.125 
Q 35.203125 9.28125 35.203125 13.1875 
Q 35.203125 19 26.765625 20.5625 
L 16.359375 22.515625 
Q 10.25 23.6875 6.640625 27.09375 
Q 3.03125 30.515625 3.03125 36.140625 
Q 3.03125 42.328125 7.953125 46.5 
Q 12.890625 50.6875 21.234375 50.6875 
Q 37.3125 50.6875 41.0625 38.140625 
L 34.03125 36.625 
Q 31 44.34375 21.578125 44.34375 
Q 16.890625 44.34375 13.890625 42.40625 
Q 10.890625 40.484375 10.890625 37.015625 
Q 10.890625 31.546875 18.5625 30.125 
L 28.171875 28.421875 
Q 43.265625 25.6875 43.265625 13.8125 
Q 43.265625 7.03125 37.640625 2.859375 
Q 32.03125 -1.3125 22.703125 -1.3125 
Q 5.171875 -1.3125 1.03125 12.796875 
z
" id="FranklinGothic-Book-115"/>
      <path d="M 46.53125 0 
L 39.359375 0 
L 39.359375 31.6875 
Q 39.359375 38.53125 36.375 41.3125 
Q 33.40625 44.09375 29.15625 44.09375 
Q 23.296875 44.09375 19.3125 39.40625 
Q 15.328125 34.71875 15.328125 27.046875 
L 15.328125 0 
L 7.671875 0 
L 7.671875 49.3125 
L 14.796875 49.3125 
L 14.796875 40.234375 
Q 20.796875 50.6875 30.375 50.6875 
Q 35.890625 50.6875 39.765625 47.828125 
Q 43.65625 44.96875 45.09375 41.40625 
Q 46.53125 37.84375 46.53125 28.515625 
z
" id="FranklinGothic-Book-110"/>
     </defs>
     <use xlink:href="#FranklinGothic-Book-80"/>
     <use x="55.408203" xlink:href="#FranklinGothic-Book-97"/>
     <use x="108.289062" xlink:href="#FranklinGothic-Book-99"/>
     <use x="154.871094" xlink:href="#FranklinGothic-Book-105"/>
     <use x="177.820312" xlink:href="#FranklinGothic-Book-102"/>
     <use x="208.425781" xlink:href="#FranklinGothic-Book-105"/>
     <use x="231.375" xlink:href="#FranklinGothic-Book-99"/>
     <use x="277.957031" xlink:href="#FranklinGothic-Book-32"/>
     <use x="302.957031" xlink:href="#FranklinGothic-Book-68"/>
     <use x="367.654297" xlink:href="#FranklinGothic-Book-101"/>
     <use x="419.705078" xlink:href="#FranklinGothic-Book-99"/>
     <use x="466.287109" xlink:href="#FranklinGothic-Book-97"/>
     <use x="519.167969" xlink:href="#FranklinGothic-Book-100"/>
     <use x="573.025391" xlink:href="#FranklinGothic-Book-97"/>
     <use x="625.90625" xlink:href="#FranklinGothic-Book-108"/>
     <use x="648.904297" xlink:href="#FranklinGothic-Book-32"/>
     <use x="673.904297" xlink:href="#FranklinGothic-Book-79"/>
     <use x="736.990234" xlink:href="#FranklinGothic-Book-115"/>
     <use x="783.376953" xlink:href="#FranklinGothic-Book-99"/>
     <use x="829.958984" xlink:href="#FranklinGothic-Book-105"/>
     <use x="852.908203" xlink:href="#FranklinGothic-Book-108"/>
     <use x="875.90625" xlink:href="#FranklinGothic-Book-108"/>
     <use x="898.904297" xlink:href="#FranklinGothic-Book-97"/>
     <use x="951.785156" xlink:href="#FranklinGothic-Book-116"/>
     <use x="982.546875" xlink:href="#FranklinGothic-Book-105"/>
     <use x="1005.496094" xlink:href="#FranklinGothic-Book-111"/>
     <use x="1057.449219" xlink:href="#FranklinGothic-Book-110"/>
    </g>
   </g>
   <g id="legend_1">
    <g id="line2d_11"/>
    <g id="text_15">
     <!-- NOAA CPC (1950.01-2023.12) -->
     <g style="fill:#009e73;" transform="translate(185.856 129.7184)scale(0.2 -0.2)">
      <defs>
       <path d="M 57.421875 0 
L 49.3125 0 
L 14.84375 58.109375 
L 14.9375 53.71875 
Q 15.09375 51.21875 15.09375 49.515625 
L 15.09375 0 
L 8.34375 0 
L 8.34375 66.65625 
L 18.796875 66.65625 
L 51.03125 12.3125 
L 50.921875 16.9375 
Q 50.828125 19.671875 50.828125 21.78125 
L 50.828125 66.65625 
L 57.421875 66.65625 
z
" id="FranklinGothic-Book-78"/>
       <path d="M 53.21875 0 
L 44.671875 0 
L 37.9375 19.484375 
L 13.28125 19.484375 
L 7.328125 0 
L 0.34375 0 
L 21.96875 66.65625 
L 31.5 66.65625 
z
M 36.1875 25.734375 
L 25.921875 57.765625 
L 15.578125 25.734375 
z
" id="FranklinGothic-Book-65"/>
       <path d="M 24.703125 -16.65625 
L 19.578125 -16.65625 
Q 5.21875 2.203125 5.21875 25.09375 
Q 5.21875 46.96875 19.578125 66.65625 
L 24.703125 66.65625 
Q 12.359375 48.25 12.359375 25 
Q 12.359375 2.828125 24.703125 -16.65625 
z
" id="FranklinGothic-Book-40"/>
       <path d="M 17.96875 10.9375 
L 17.96875 0 
L 7.078125 0 
L 7.078125 10.9375 
z
" id="FranklinGothic-Book-46"/>
       <path d="M 4.640625 66.65625 
L 9.71875 66.65625 
Q 24.125 47.796875 24.125 24.90625 
Q 24.125 3.03125 9.71875 -16.65625 
L 4.640625 -16.65625 
Q 17 1.765625 17 25 
Q 17 47.171875 4.640625 66.65625 
z
" id="FranklinGothic-Book-41"/>
      </defs>
      <use xlink:href="#FranklinGothic-Book-78"/>
      <use x="65.722656" xlink:href="#FranklinGothic-Book-79"/>
      <use x="127.058594" xlink:href="#FranklinGothic-Book-65"/>
      <use x="180.623047" xlink:href="#FranklinGothic-Book-65"/>
      <use x="234.1875" xlink:href="#FranklinGothic-Book-32"/>
      <use x="259.1875" xlink:href="#FranklinGothic-Book-67"/>
      <use x="317.097656" xlink:href="#FranklinGothic-Book-80"/>
      <use x="373.005859" xlink:href="#FranklinGothic-Book-67"/>
      <use x="430.916016" xlink:href="#FranklinGothic-Book-32"/>
      <use x="455.916016" xlink:href="#FranklinGothic-Book-40"/>
      <use x="485.261719" xlink:href="#FranklinGothic-Book-49"/>
      <use x="542.529297" xlink:href="#FranklinGothic-Book-57"/>
      <use x="601.171875" xlink:href="#FranklinGothic-Book-53"/>
      <use x="659.814453" xlink:href="#FranklinGothic-Book-48"/>
      <use x="718.457031" xlink:href="#FranklinGothic-Book-46"/>
      <use x="743.457031" xlink:href="#FranklinGothic-Book-48"/>
      <use x="798.349609" xlink:href="#FranklinGothic-Book-49"/>
      <use x="856.992188" xlink:href="#FranklinGothic-Book-45"/>
      <use x="881.992188" xlink:href="#FranklinGothic-Book-50"/>
      <use x="940.634766" xlink:href="#FranklinGothic-Book-48"/>
      <use x="999.277344" xlink:href="#FranklinGothic-Book-50"/>
      <use x="1057.919922" xlink:href="#FranklinGothic-Book-51"/>
      <use x="1116.5625" xlink:href="#FranklinGothic-Book-46"/>
      <use x="1137.6875" xlink:href="#FranklinGothic-Book-49"/>
      <use x="1196.330078" xlink:href="#FranklinGothic-Book-50"/>
      <use x="1254.972656" xlink:href="#FranklinGothic-Book-41"/>
     </g>
    </g>
   </g>
   <g id="line2d_12">
    <path clip-path="url(#p5653a38642)" d="M 184.581818 404.790968 
L 185.496854 445.76129 
L 186.411889 425.276129 
L 187.326924 432.592258 
L 188.24196 520.385806 
L 189.156995 471.367742 
L 190.07203 554.04 
L 190.987066 505.021935 
L 191.902101 462.588387 
L 193.732172 393.085161 
L 194.647207 364.552258 
L 195.562242 374.063226 
L 196.477278 398.206452 
L 197.392313 412.83871 
L 198.307349 385.769032 
L 199.222384 381.379355 
L 200.137419 416.496774 
L 201.052455 303.828387 
L 201.96749 415.765161 
L 202.882525 344.067097 
L 203.797561 293.585806 
L 204.712596 309.68129 
L 205.627631 393.085161 
L 206.542667 447.224516 
L 207.457702 385.769032 
L 208.372738 409.180645 
L 209.287773 427.470968 
L 210.202808 438.445161 
L 211.117844 442.834839 
L 212.032879 436.981935 
L 212.947914 402.596129 
L 213.86295 386.500645 
L 214.777985 353.578065 
L 215.69302 325.776774 
L 216.608056 347.725161 
L 217.523091 298.707097 
L 218.438126 320.655484 
L 219.353162 379.916129 
L 222.098268 301.633548 
L 223.013303 282.611613 
L 223.928339 354.309677 
L 224.843374 368.210323 
L 225.758409 395.28 
L 226.673445 324.313548 
L 227.58848 300.170323 
L 228.503515 369.673548 
L 229.418551 356.504516 
L 230.333586 371.136774 
L 231.248622 378.452903 
L 232.163657 342.603871 
L 233.078692 251.152258 
L 233.993728 292.854194 
L 234.908763 310.412903 
L 235.823798 363.820645 
L 236.738834 285.538065 
L 237.653869 224.814194 
L 238.568904 251.152258 
L 240.398975 360.894194 
L 241.31401 377.72129 
L 242.229046 448.687742 
L 243.144081 425.276129 
L 244.059117 446.492903 
L 244.974152 488.194839 
L 245.889187 481.610323 
L 246.804223 468.44129 
L 247.719258 532.091613 
L 248.634293 479.415484 
L 249.549329 447.956129 
L 250.464364 452.345806 
L 251.379399 453.809032 
L 252.294435 501.363871 
L 253.20947 473.562581 
L 254.124505 405.522581 
L 255.039541 431.860645 
L 256.869612 360.162581 
L 257.784647 307.486452 
L 258.699682 408.449032 
L 259.614718 465.514839 
L 260.529753 379.916129 
L 261.444788 382.842581 
L 262.359824 401.864516 
L 263.274859 347.725161 
L 264.189894 346.261935 
L 265.10493 288.464516 
L 266.019965 175.064516 
L 266.935001 243.836129 
L 267.850036 262.126452 
L 268.765071 152.384516 
L 269.680107 161.163871 
L 270.595142 174.332903 
L 271.510177 253.347097 
L 272.425213 226.277419 
L 273.340248 218.229677 
L 274.255283 241.64129 
L 275.170319 246.030968 
L 276.085354 180.185806 
L 277.000389 153.847742 
L 277.915425 242.372903 
L 278.83046 209.450323 
L 279.745496 230.667097 
L 280.660531 266.516129 
L 281.575566 266.516129 
L 282.490602 203.597419 
L 283.405637 210.913548 
L 284.320672 261.394839 
L 285.235708 297.243871 
L 286.150743 298.707097 
L 287.065778 296.512258 
L 287.980814 270.174194 
L 288.895849 317.729032 
L 289.810884 309.68129 
L 290.72592 325.776774 
L 291.640955 216.766452 
L 292.555991 186.03871 
L 293.471026 212.376774 
L 294.386061 269.442581 
L 295.301097 242.372903 
L 296.216132 270.174194 
L 297.131167 271.637419 
L 298.046203 261.394839 
L 298.961238 199.207742 
L 299.876273 317.729032 
L 300.791309 309.68129 
L 301.706344 357.236129 
L 302.62138 311.876129 
L 303.536415 311.876129 
L 304.45145 287.00129 
L 305.366486 221.887742 
L 306.281521 219.692903 
L 307.196556 240.178065 
L 308.111592 266.516129 
L 309.026627 326.508387 
L 309.941662 338.214194 
L 310.856698 376.989677 
L 311.771733 350.651613 
L 313.601804 417.228387 
L 314.516839 391.621935 
L 315.431875 413.570323 
L 316.34691 360.162581 
L 317.261945 350.651613 
L 318.176981 364.552258 
L 319.092016 356.504516 
L 320.007051 382.110968 
L 320.922087 412.107097 
L 321.837122 420.886452 
L 322.752157 335.287742 
L 323.667193 394.548387 
L 324.582228 415.765161 
L 325.497264 314.802581 
L 326.412299 303.828387 
L 327.327334 278.221935 
L 328.24237 276.027097 
L 329.157405 307.486452 
L 330.07244 306.754839 
L 330.987476 379.184516 
L 331.902511 330.898065 
L 332.817546 368.210323 
L 333.732582 360.894194 
L 334.647617 207.987097 
L 335.562652 262.126452 
L 336.477688 323.581935 
L 337.392723 254.07871 
L 338.307759 262.126452 
L 339.222794 271.637419 
L 340.137829 338.945806 
L 341.052865 379.916129 
L 341.9679 461.856774 
L 342.882935 349.92 
L 343.797971 366.015484 
L 344.713006 404.059355 
L 345.628041 385.769032 
L 346.543077 333.824516 
L 347.458112 336.750968 
L 348.373147 332.36129 
L 349.288183 356.504516 
L 350.203218 331.629677 
L 351.118254 299.43871 
L 352.033289 287.732903 
L 352.948324 335.287742 
L 353.86336 342.603871 
L 354.778395 341.140645 
L 355.69343 263.589677 
L 356.608466 226.277419 
L 357.523501 265.052903 
L 358.438536 252.615484 
L 359.353572 268.710968 
L 360.268607 336.019355 
L 361.183643 318.460645 
L 362.098678 360.162581 
L 363.013713 314.070968 
L 363.928749 342.603871 
L 364.843784 279.685161 
L 365.758819 286.269677 
L 366.673855 308.218065 
L 367.58889 312.607742 
L 368.503925 330.898065 
L 369.418961 338.945806 
L 370.333996 302.365161 
L 371.249031 304.56 
L 372.164067 305.291613 
L 373.079102 345.530323 
L 373.994138 369.673548 
L 374.909173 399.669677 
L 375.824208 374.794839 
L 376.739244 375.526452 
L 377.654279 400.40129 
L 378.569314 330.898065 
L 379.48435 291.390968 
L 380.399385 260.663226 
L 381.31442 336.750968 
L 382.229456 334.556129 
L 383.144491 300.901935 
L 384.059526 281.148387 
L 384.974562 337.482581 
L 385.889597 344.79871 
L 386.804633 276.75871 
L 387.719668 254.810323 
L 388.634703 287.732903 
L 389.549739 267.979355 
L 390.464774 300.170323 
L 391.379809 284.806452 
L 392.294845 308.218065 
L 393.20988 338.945806 
L 394.124915 376.258065 
L 395.039951 375.526452 
L 395.954986 365.283871 
L 396.870022 364.552258 
L 397.785057 225.545806 
L 398.700092 314.070968 
L 399.615128 354.309677 
L 400.530163 365.283871 
L 401.445198 217.498065 
L 402.360234 244.567742 
L 403.275269 204.329032 
L 404.190304 209.450323 
L 405.10534 213.108387 
L 406.020375 199.207742 
L 406.93541 264.32129 
L 407.850446 352.114839 
L 408.765481 295.780645 
L 410.595552 417.96 
L 411.510587 409.912258 
L 412.425623 374.794839 
L 413.340658 354.309677 
L 414.255693 353.578065 
L 415.170729 385.037419 
L 417.000799 400.40129 
L 417.915835 411.375484 
L 418.83087 415.033548 
L 419.745906 423.08129 
L 420.660941 451.614194 
L 421.575976 310.412903 
L 422.491012 299.43871 
L 423.406047 312.607742 
L 424.321082 380.647742 
L 425.236118 416.496774 
L 426.151153 442.103226 
L 427.066188 429.665806 
L 427.981224 398.938065 
L 428.896259 411.375484 
L 429.811294 445.029677 
L 430.72633 421.618065 
L 431.641365 395.28 
L 432.556401 295.049032 
L 433.471436 301.633548 
L 434.386471 303.096774 
L 435.301507 290.659355 
L 436.216542 314.070968 
L 437.131577 297.975484 
L 438.046613 327.24 
L 438.961648 351.383226 
L 439.876683 385.769032 
L 440.791719 403.327742 
L 441.706754 392.353548 
L 442.621789 389.427097 
L 443.536825 401.132903 
L 444.45186 363.820645 
L 445.366896 386.500645 
L 446.281931 390.890323 
L 447.196966 352.114839 
L 448.112002 349.92 
L 449.027037 387.963871 
L 449.942072 375.526452 
L 450.857108 332.36129 
L 451.772143 339.677419 
L 453.602214 285.538065 
L 454.517249 306.754839 
L 455.432285 235.056774 
L 456.34732 273.100645 
L 457.262355 242.372903 
L 458.177391 267.247742 
L 459.092426 334.556129 
L 460.007461 355.04129 
L 460.922497 365.283871 
L 461.837532 417.96 
L 462.752567 439.176774 
L 463.667603 404.790968 
L 464.582638 348.456774 
L 465.497673 401.132903 
L 466.412709 404.059355 
L 467.327744 403.327742 
L 468.24278 413.570323 
L 469.157815 396.011613 
L 470.07285 366.015484 
L 470.987886 360.894194 
L 471.902921 382.842581 
L 472.817956 387.963871 
L 473.732992 376.989677 
L 474.648027 379.184516 
L 475.563062 266.516129 
L 476.478098 216.034839 
L 477.393133 244.567742 
L 478.308168 205.060645 
L 479.223204 189.696774 
L 480.138239 199.207742 
L 481.053275 196.28129 
L 481.96831 176.527742 
L 483.798381 305.291613 
L 484.713416 321.387097 
L 485.628451 284.806452 
L 486.543487 291.390968 
L 487.458522 293.585806 
L 488.373557 333.824516 
L 489.288593 348.456774 
L 491.118664 291.390968 
L 492.033699 244.567742 
L 492.948734 229.935484 
L 493.86377 204.329032 
L 494.778805 211.645161 
L 495.69384 230.667097 
L 496.608876 262.858065 
L 497.523911 405.522581 
L 498.438946 353.578065 
L 499.353982 344.067097 
L 500.269017 281.88 
L 501.184052 287.732903 
L 502.099088 324.313548 
L 503.014123 314.802581 
L 503.929159 381.379355 
L 506.674265 245.299355 
L 507.5893 270.905806 
L 508.504335 265.052903 
L 509.419371 283.343226 
L 510.334406 222.619355 
L 511.249441 206.523871 
L 513.079512 282.611613 
L 513.994548 282.611613 
L 514.909583 244.567742 
L 515.824618 241.64129 
L 516.739654 229.935484 
L 517.654689 240.178065 
L 518.569724 339.677419 
L 519.48476 302.365161 
L 520.399795 281.148387 
L 521.31483 296.512258 
L 522.229866 214.571613 
L 523.144901 235.056774 
L 524.059936 265.052903 
L 524.974972 200.670968 
L 525.890007 196.28129 
L 526.805043 197.744516 
L 527.720078 208.71871 
L 528.635113 192.623226 
L 529.550149 153.847742 
L 530.465184 227.009032 
L 531.380219 290.659355 
L 532.295255 255.541935 
L 533.21029 293.585806 
L 534.125325 247.494194 
L 535.040361 243.836129 
L 535.955396 278.953548 
L 536.870431 300.901935 
L 537.785467 314.070968 
L 538.700502 338.214194 
L 539.615538 375.526452 
L 540.530573 359.430968 
L 541.445608 278.221935 
L 542.360644 292.854194 
L 543.275679 249.689032 
L 544.190714 276.027097 
L 545.10575 330.898065 
L 546.020785 275.295484 
L 546.93582 257.736774 
L 547.850856 216.034839 
L 548.765891 160.432258 
L 549.680927 194.818065 
L 550.595962 213.108387 
L 551.510997 147.994839 
L 552.426033 106.292903 
L 553.341068 200.670968 
L 554.256103 252.615484 
L 555.171139 237.251613 
L 557.001209 161.163871 
L 557.916245 183.112258 
L 558.83128 197.012903 
L 559.746315 172.869677 
L 560.661351 213.84 
L 561.576386 223.350968 
L 562.491422 296.512258 
L 563.406457 312.607742 
L 564.321492 286.269677 
L 565.236528 273.832258 
L 566.151563 255.541935 
L 567.066598 247.494194 
L 567.981634 251.883871 
L 568.896669 223.350968 
L 569.811704 251.883871 
L 570.72674 311.876129 
L 571.641775 325.045161 
L 572.55681 350.651613 
L 573.471846 284.074839 
L 574.386881 248.957419 
L 575.301917 273.100645 
L 576.216952 277.490323 
L 577.131987 276.75871 
L 578.047023 334.556129 
L 578.962058 262.858065 
L 579.877093 210.913548 
L 580.792129 179.454194 
L 581.707164 164.090323 
L 582.622199 198.476129 
L 583.537235 224.814194 
L 584.45227 241.64129 
L 585.367306 210.181935 
L 586.282341 300.901935 
L 587.197376 289.196129 
L 588.112412 213.84 
L 589.027447 164.090323 
L 589.942482 161.895484 
L 590.857518 179.454194 
L 591.772553 180.185806 
L 592.687588 188.233548 
L 593.602624 186.03871 
L 594.517659 227.009032 
L 595.432694 283.343226 
L 596.34773 186.03871 
L 597.262765 159.700645 
L 598.177801 181.649032 
L 599.092836 237.251613 
L 600.007871 218.96129 
L 600.922907 218.229677 
L 601.837942 270.174194 
L 602.752977 252.615484 
L 603.668013 251.152258 
L 604.583048 262.126452 
L 605.498083 259.931613 
L 606.413119 271.637419 
L 607.328154 297.975484 
L 608.24319 351.383226 
L 609.158225 358.699355 
L 610.07326 313.339355 
L 610.988296 291.390968 
L 611.903331 297.243871 
L 612.818366 377.72129 
L 613.733402 393.085161 
L 614.648437 377.72129 
L 615.563472 310.412903 
L 616.478508 293.585806 
L 617.393543 278.953548 
L 618.308578 246.030968 
L 619.223614 319.192258 
L 620.138649 328.703226 
L 621.053685 324.313548 
L 621.96872 342.603871 
L 622.883755 294.317419 
L 623.798791 317.729032 
L 624.713826 380.647742 
L 625.628861 377.72129 
L 626.543897 297.975484 
L 627.458932 310.412903 
L 628.373967 305.291613 
L 629.289003 309.68129 
L 630.204038 318.460645 
L 631.119073 306.023226 
L 632.034109 371.868387 
L 632.949144 424.544516 
L 633.86418 449.419355 
L 634.779215 418.691613 
L 635.69425 366.747097 
L 636.609286 368.210323 
L 637.524321 406.254194 
L 638.439356 407.717419 
L 639.354392 451.614194 
L 640.269427 401.864516 
L 642.099498 259.931613 
L 643.014533 257.005161 
L 643.929569 246.030968 
L 644.844604 302.365161 
L 645.759639 281.148387 
L 646.674675 274.563871 
L 647.58971 278.221935 
L 648.504745 246.762581 
L 649.419781 194.818065 
L 650.334816 197.744516 
L 651.249851 177.259355 
L 652.164887 224.814194 
L 653.079922 254.07871 
L 653.994957 193.354839 
L 654.909993 191.16 
L 655.825028 262.858065 
L 656.740064 307.486452 
L 657.655099 285.538065 
L 658.570134 269.442581 
L 660.400205 156.042581 
L 661.31524 137.020645 
L 662.230276 178.722581 
L 663.145311 143.605161 
L 664.060346 202.865806 
L 664.975382 191.16 
L 665.890417 204.329032 
L 666.805452 237.983226 
L 667.720488 224.814194 
L 668.635523 262.858065 
L 669.550559 267.247742 
L 670.465594 251.152258 
L 671.380629 246.762581 
L 672.295665 279.685161 
L 673.2107 353.578065 
L 674.125735 351.383226 
L 675.040771 397.474839 
L 675.955806 364.552258 
L 676.870841 428.202581 
L 677.785877 449.419355 
L 678.700912 349.92 
L 679.615948 285.538065 
L 680.530983 253.347097 
L 681.446018 251.152258 
L 682.361054 221.887742 
L 683.276089 211.645161 
L 684.191124 213.84 
L 685.10616 295.049032 
L 686.021195 197.744516 
L 687.851266 283.343226 
L 688.766301 254.810323 
L 689.681336 213.108387 
L 690.596372 213.108387 
L 691.511407 224.814194 
L 692.426443 186.770323 
L 693.341478 131.167742 
L 694.256513 206.523871 
L 695.171549 245.299355 
L 696.086584 335.287742 
L 697.001619 281.88 
L 697.916655 257.736774 
L 698.83169 259.2 
L 699.746725 289.196129 
L 700.661761 254.810323 
L 701.576796 265.784516 
L 702.491832 258.468387 
L 703.406867 233.593548 
L 705.236938 100.44 
L 706.151973 177.990968 
L 707.067008 120.925161 
L 707.982044 155.310968 
L 708.897079 156.774194 
L 709.812114 178.722581 
L 710.72715 214.571613 
L 711.642185 210.181935 
L 712.55722 175.796129 
L 713.472256 192.623226 
L 714.387291 284.806452 
L 715.302327 347.725161 
L 716.217362 344.067097 
L 717.132397 371.868387 
L 718.047433 350.651613 
L 718.962468 411.375484 
L 719.877503 450.150968 
L 720.792539 357.967742 
L 721.707574 366.747097 
L 722.622609 344.067097 
L 723.537645 364.552258 
L 724.45268 373.331613 
L 725.367715 422.349677 
L 726.282751 456.735484 
L 727.197786 458.19871 
L 728.112822 423.812903 
L 729.027857 421.618065 
L 729.942892 450.882581 
L 730.857928 472.830968 
L 731.772963 446.492903 
L 732.687998 427.470968 
L 733.603034 447.956129 
L 734.518069 380.647742 
L 735.433104 335.287742 
L 736.34814 333.092903 
L 737.263175 346.261935 
L 738.178211 333.824516 
L 739.093246 397.474839 
L 740.008281 409.912258 
L 740.923317 393.085161 
L 741.838352 404.790968 
L 742.753387 363.089032 
L 743.668423 287.00129 
L 744.583458 251.883871 
L 745.498493 287.732903 
L 746.413529 316.997419 
L 747.328564 373.331613 
L 748.243599 368.941935 
L 749.158635 376.258065 
L 750.07367 448.687742 
L 750.988706 409.912258 
L 751.903741 431.860645 
L 752.818776 426.739355 
L 753.733812 378.452903 
L 754.648847 368.941935 
L 755.563882 317.729032 
L 756.478918 397.474839 
L 757.393953 379.916129 
L 758.308988 376.989677 
L 759.224024 382.110968 
L 760.139059 373.331613 
L 761.054094 338.945806 
L 761.96913 278.953548 
L 762.884165 302.365161 
L 763.799201 301.633548 
L 764.714236 207.987097 
L 765.629271 172.138065 
L 766.544307 180.917419 
L 768.374377 213.108387 
L 769.289413 260.663226 
L 770.204448 271.637419 
L 771.119483 317.729032 
L 772.034519 259.931613 
L 772.949554 240.909677 
L 773.86459 299.43871 
L 774.779625 232.861935 
L 775.69466 303.828387 
L 776.609696 330.898065 
L 777.524731 327.24 
L 778.439766 302.365161 
L 779.354802 297.975484 
L 780.269837 287.00129 
L 781.184872 242.372903 
L 782.099908 295.049032 
L 783.014943 284.074839 
L 783.929978 269.442581 
L 784.845014 285.538065 
L 785.760049 339.677419 
L 786.675085 376.258065 
L 787.59012 333.824516 
L 788.505155 297.975484 
L 789.420191 287.732903 
L 790.335226 235.788387 
L 791.250261 266.516129 
L 792.165297 187.501935 
L 793.080332 224.814194 
L 793.995367 278.953548 
L 795.825438 359.430968 
L 796.740474 433.323871 
L 797.655509 425.276129 
L 798.570544 294.317419 
L 799.48558 247.494194 
L 800.400615 259.2 
L 801.31565 341.140645 
L 802.230686 326.508387 
L 803.145721 314.070968 
L 804.060756 271.637419 
L 804.975792 258.468387 
L 805.890827 349.188387 
L 806.805862 399.669677 
L 807.720898 320.655484 
L 808.635933 346.261935 
L 809.550969 317.729032 
L 810.466004 337.482581 
L 811.381039 338.945806 
L 812.296075 367.47871 
L 813.21111 320.655484 
L 814.126145 308.218065 
L 815.041181 292.122581 
L 815.956216 255.541935 
L 816.871251 280.416774 
L 817.786287 357.967742 
L 818.701322 457.467097 
L 819.616357 393.816774 
L 820.531393 350.651613 
L 821.446428 396.743226 
L 822.361464 393.816774 
L 823.276499 379.184516 
L 824.191534 417.96 
L 825.10657 405.522581 
L 826.021605 422.349677 
L 826.93664 430.397419 
L 827.851676 422.349677 
L 828.766711 423.812903 
L 829.681746 426.007742 
L 831.511817 382.842581 
L 832.426853 419.423226 
L 833.341888 417.228387 
L 834.256923 437.713548 
L 835.171959 450.150968 
L 836.086994 383.574194 
L 837.002029 340.409032 
L 837.917065 338.945806 
L 838.8321 322.850323 
L 839.747135 262.858065 
L 840.662171 296.512258 
L 841.577206 355.772903 
L 842.492241 324.313548 
L 843.407277 283.343226 
L 844.322312 268.710968 
L 845.237348 298.707097 
L 846.152383 289.927742 
L 847.067418 300.170323 
L 847.982454 344.79871 
L 848.897489 432.592258 
L 850.72756 466.246452 
L 851.642595 404.059355 
L 852.55763 401.864516 
L 853.472666 436.250323 
L 854.387701 418.691613 
L 855.302736 393.816774 
L 856.217772 380.647742 
L 857.132807 361.625806 
L 858.047843 335.287742 
L 858.962878 366.015484 
L 859.877913 455.272258 
L 860.792949 460.393548 
L 861.707984 469.904516 
L 862.623019 427.470968 
L 863.538055 502.827097 
L 866.283161 385.769032 
L 867.198196 408.449032 
L 868.113232 360.894194 
L 869.028267 442.103226 
L 869.943302 406.254194 
L 870.858338 462.588387 
L 871.773373 477.220645 
L 872.688408 505.753548 
L 873.603444 376.258065 
L 874.518479 335.287742 
L 875.433514 382.842581 
L 876.34855 367.47871 
L 877.263585 390.890323 
L 878.17862 395.28 
L 879.093656 339.677419 
L 880.008691 316.265806 
L 880.923727 374.063226 
L 881.838762 385.037419 
L 882.753797 401.132903 
L 883.668833 360.162581 
L 884.583868 407.717419 
L 885.498903 366.747097 
L 886.413939 363.089032 
L 887.328974 328.703226 
L 888.244009 317.729032 
L 889.159045 265.052903 
L 890.07408 260.663226 
L 890.989116 194.086452 
L 891.904151 307.486452 
L 892.819186 268.710968 
L 893.734222 262.126452 
L 894.649257 231.39871 
L 895.564292 182.380645 
L 896.479328 188.233548 
L 897.394363 150.92129 
L 898.309398 176.527742 
L 899.224434 175.796129 
L 900.139469 189.696774 
L 901.054504 221.156129 
L 901.96954 263.589677 
L 902.884575 227.009032 
L 903.799611 183.843871 
L 904.714646 215.303226 
L 905.629681 216.034839 
L 906.544717 225.545806 
L 907.459752 274.563871 
L 908.374787 265.784516 
L 909.289823 232.130323 
L 910.204858 192.623226 
L 911.119893 172.869677 
L 912.034929 159.700645 
L 912.949964 169.943226 
L 913.864999 223.350968 
L 914.780035 245.299355 
L 915.69507 333.092903 
L 916.610106 345.530323 
L 917.525141 318.460645 
L 918.440176 216.766452 
L 919.355212 242.372903 
L 920.270247 290.659355 
L 921.185282 287.732903 
L 922.100318 279.685161 
L 923.015353 246.030968 
L 924.845424 261.394839 
L 925.760459 318.460645 
L 926.675495 333.092903 
L 927.59053 301.633548 
L 928.505565 336.750968 
L 929.420601 330.166452 
L 930.335636 289.196129 
L 931.250671 259.2 
L 932.165707 293.585806 
L 933.080742 339.677419 
L 933.995777 346.993548 
L 934.910813 320.655484 
L 935.825848 335.287742 
L 936.740883 287.732903 
L 937.655919 304.56 
L 938.570954 312.607742 
L 939.48599 328.703226 
L 940.401025 338.945806 
L 941.31606 302.365161 
L 942.231096 311.876129 
L 943.146131 339.677419 
L 944.061166 316.265806 
L 944.976202 280.416774 
L 945.891237 267.979355 
L 946.806272 291.390968 
L 947.721308 247.494194 
L 948.636343 286.269677 
L 949.551378 277.490323 
L 950.466414 352.846452 
L 951.381449 323.581935 
L 952.296485 287.00129 
L 953.21152 390.15871 
L 954.126555 395.28 
L 955.041591 415.033548 
L 955.956626 383.574194 
L 956.871661 325.776774 
L 957.786697 341.872258 
L 958.701732 354.309677 
L 959.616767 384.305806 
L 960.531803 363.089032 
L 961.446838 332.36129 
L 962.361874 403.327742 
L 963.276909 359.430968 
L 964.191944 331.629677 
L 965.10698 366.747097 
L 966.022015 409.912258 
L 967.852086 434.055484 
L 968.767121 419.423226 
L 969.682156 430.397419 
L 970.597192 355.772903 
L 971.512227 430.397419 
L 972.427262 515.996129 
L 973.342298 488.194839 
L 974.257333 485.268387 
L 975.172369 462.588387 
L 976.087404 426.739355 
L 977.002439 409.180645 
L 977.917475 440.64 
L 978.83251 451.614194 
L 979.747545 384.305806 
L 980.662581 478.683871 
L 981.577616 461.856774 
L 982.492651 454.540645 
L 983.407687 420.154839 
L 984.322722 463.32 
L 985.237758 448.687742 
L 986.152793 378.452903 
L 987.067828 407.717419 
L 987.982864 466.246452 
L 988.897899 511.606452 
L 989.812934 463.32 
L 990.72797 472.099355 
L 991.643005 472.099355 
L 992.55804 467.709677 
L 993.473076 505.021935 
L 994.388111 451.614194 
L 995.303146 417.96 
L 996.218182 415.033548 
L 996.218182 415.033548 
" style="fill:none;stroke:#009e73;stroke-linecap:round;"/>
   </g>
  </g>
  <g id="text_16">
   <g id="patch_4">
    <path d="M 875.499375 646.18275 
L 1040.76 646.18275 
L 1040.76 628.26525 
L 875.499375 628.26525 
z
" style="fill:#ffffff;stroke:#ffffff;stroke-linejoin:miter;"/>
   </g>
   <!-- Created: 2024-01-18 12:41:04 -->
   <g style="fill:#696969;" transform="translate(879.459375 640.224)scale(0.12 -0.12)">
    <defs>
     <path d="M 17.96875 49.3125 
L 17.96875 38.375 
L 7.078125 38.375 
L 7.078125 49.3125 
z
M 17.96875 10.984375 
L 17.96875 0 
L 7.078125 0 
L 7.078125 10.984375 
z
" id="FranklinGothic-Book-58"/>
     <path d="M 44.09375 0 
L 36.03125 0 
L 36.03125 15.875 
L 3.078125 15.875 
L 3.078125 21.484375 
L 33.640625 68.0625 
L 44.09375 68.0625 
L 44.09375 22.46875 
L 54.890625 22.46875 
L 54.890625 15.875 
L 44.09375 15.875 
z
M 36.03125 22.46875 
L 36.03125 54 
Q 36.03125 57.421875 36.1875 61.375 
Q 34.078125 57.515625 32.5625 55.125 
L 11.765625 22.46875 
z
" id="FranklinGothic-Book-52"/>
    </defs>
    <use xlink:href="#FranklinGothic-Book-67"/>
    <use x="57.910156" xlink:href="#FranklinGothic-Book-114"/>
    <use x="90.869141" xlink:href="#FranklinGothic-Book-101"/>
    <use x="142.919922" xlink:href="#FranklinGothic-Book-97"/>
    <use x="195.800781" xlink:href="#FranklinGothic-Book-116"/>
    <use x="224.8125" xlink:href="#FranklinGothic-Book-101"/>
    <use x="276.863281" xlink:href="#FranklinGothic-Book-100"/>
    <use x="330.720703" xlink:href="#FranklinGothic-Book-58"/>
    <use x="355.720703" xlink:href="#FranklinGothic-Book-32"/>
    <use x="380.720703" xlink:href="#FranklinGothic-Book-50"/>
    <use x="439.363281" xlink:href="#FranklinGothic-Book-48"/>
    <use x="498.005859" xlink:href="#FranklinGothic-Book-50"/>
    <use x="552.273438" xlink:href="#FranklinGothic-Book-52"/>
    <use x="610.916016" xlink:href="#FranklinGothic-Book-45"/>
    <use x="635.916016" xlink:href="#FranklinGothic-Book-48"/>
    <use x="690.808594" xlink:href="#FranklinGothic-Book-49"/>
    <use x="749.451172" xlink:href="#FranklinGothic-Book-45"/>
    <use x="774.451172" xlink:href="#FranklinGothic-Book-49"/>
    <use x="832.46875" xlink:href="#FranklinGothic-Book-56"/>
    <use x="891.111328" xlink:href="#FranklinGothic-Book-32"/>
    <use x="916.111328" xlink:href="#FranklinGothic-Book-49"/>
    <use x="974.753906" xlink:href="#FranklinGothic-Book-50"/>
    <use x="1033.396484" xlink:href="#FranklinGothic-Book-58"/>
    <use x="1058.396484" xlink:href="#FranklinGothic-Book-52"/>
    <use x="1110.289062" xlink:href="#FranklinGothic-Book-49"/>
    <use x="1168.931641" xlink:href="#FranklinGothic-Book-58"/>
    <use x="1193.931641" xlink:href="#FranklinGothic-Book-48"/>
    <use x="1252.574219" xlink:href="#FranklinGothic-Book-52"/>
   </g>
  </g>
 </g>
 <defs>
  <clipPath id="p5653a38642">
   <rect height="498.96" width="892.8" x="144" y="77.76"/>
  </clipPath>
 </defs>
</svg>
