<?xml version="1.0" encoding="utf-8" standalone="no"?>
<!DOCTYPE svg PUBLIC "-//W3C//DTD SVG 1.1//EN"
  "http://www.w3.org/Graphics/SVG/1.1/DTD/svg11.dtd">
<!-- Created with matplotlib (https://matplotlib.org/) -->
<svg height="648pt" version="1.1" viewBox="0 0 1152 648" width="1152pt" xmlns="http://www.w3.org/2000/svg" xmlns:xlink="http://www.w3.org/1999/xlink">
 <metadata>
  <rdf:RDF xmlns:cc="http://creativecommons.org/ns#" xmlns:dc="http://purl.org/dc/elements/1.1/" xmlns:rdf="http://www.w3.org/1999/02/22-rdf-syntax-ns#">
   <cc:Work>
    <dc:type rdf:resource="http://purl.org/dc/dcmitype/StillImage"/>
    <dc:date>2024-02-08T11:46:38.714250</dc:date>
    <dc:format>image/svg+xml</dc:format>
    <dc:creator>
     <cc:Agent>
      <dc:title>Matplotlib v3.3.1, https://matplotlib.org/</dc:title>
     </cc:Agent>
    </dc:creator>
   </cc:Work>
  </rdf:RDF>
 </metadata>
 <defs>
  <style type="text/css">*{stroke-linecap:butt;stroke-linejoin:round;}</style>
 </defs>
 <g id="figure_1">
  <g id="patch_1">
   <path d="M 0 648 
L 1152 648 
L 1152 0 
L 0 0 
z
" style="fill:#ffffff;"/>
  </g>
  <g id="axes_1">
   <g id="patch_2">
    <path d="M 144 576.72 
L 1036.8 576.72 
L 1036.8 77.76 
L 144 77.76 
z
" style="fill:none;"/>
   </g>
   <g id="patch_3">
    <path d="M 144 576.72 
L 1036.8 576.72 
" style="fill:none;stroke:#d3d3d3;stroke-linecap:square;stroke-linejoin:miter;stroke-width:1.25;"/>
   </g>
   <g id="matplotlib.axis_1">
    <g id="xtick_1">
     <g id="line2d_1">
      <defs>
       <path d="M 0 0 
L 0 6 
" id="m1359bfe623" style="stroke:#696969;stroke-width:1.25;"/>
      </defs>
      <g>
       <use style="fill:#696969;stroke:#696969;stroke-width:1.25;" x="298.22985" xlink:href="#m1359bfe623" y="576.72"/>
      </g>
     </g>
     <g id="text_1">
      <!-- 1960 -->
      <g style="fill:#696969;" transform="translate(271.413288 601.550938)scale(0.23 -0.23)">
       <defs>
        <path d="M 55.859375 6.203125 
L 55.859375 0 
L 9.1875 0 
L 9.1875 6.203125 
L 29.203125 6.203125 
L 29.203125 57.671875 
Q 20.359375 48.4375 10.84375 43.265625 
L 10.84375 51.65625 
Q 23.96875 58.546875 31.203125 68.015625 
L 37.15625 68.015625 
L 37.15625 6.203125 
z
" id="FranklinGothic-Book-49"/>
        <path d="M 5.71875 12.15625 
L 12.40625 14.59375 
Q 16.546875 5.375 26.375 5.375 
Q 35.890625 5.375 40.703125 13.375 
Q 45.515625 21.390625 45.65625 35.109375 
Q 39.109375 23.09375 25.984375 23.09375 
Q 16.703125 23.09375 10.40625 29.421875 
Q 4.109375 35.75 4.109375 45.0625 
Q 4.109375 54.546875 10.71875 61.28125 
Q 17.328125 68.015625 27.59375 68.015625 
Q 40.140625 68.015625 46.828125 59.203125 
Q 53.515625 50.390625 53.515625 34.96875 
Q 53.515625 18.75 46.4375 8.71875 
Q 39.359375 -1.3125 26.265625 -1.3125 
Q 10.984375 -1.3125 5.71875 12.15625 
z
M 27.828125 29.78125 
Q 34.71875 29.78125 39.375 34.59375 
Q 44.046875 39.40625 44.046875 45.84375 
Q 44.046875 52.09375 39.625 56.578125 
Q 35.203125 61.078125 27.984375 61.078125 
Q 20.65625 61.078125 16.40625 56.46875 
Q 12.15625 51.859375 12.15625 45.21875 
Q 12.15625 38.09375 16.859375 33.9375 
Q 21.578125 29.78125 27.828125 29.78125 
z
" id="FranklinGothic-Book-57"/>
        <path d="M 53.5625 53.03125 
L 46.046875 50.984375 
Q 42.1875 61.140625 31.984375 61.140625 
Q 13.234375 61.140625 12.796875 30.125 
Q 15.765625 37.015625 21.234375 40.328125 
Q 26.703125 43.65625 32.8125 43.65625 
Q 42.09375 43.65625 48.359375 37.1875 
Q 54.640625 30.71875 54.640625 21.6875 
Q 54.640625 12.3125 47.96875 5.5 
Q 41.3125 -1.3125 30.90625 -1.3125 
Q 19.09375 -1.3125 12.078125 7.59375 
Q 5.078125 16.5 5.078125 31.84375 
Q 5.078125 46.828125 11.6875 57.421875 
Q 18.3125 68.015625 32.171875 68.015625 
Q 48.140625 68.015625 53.5625 53.03125 
z
M 30.765625 5.375 
Q 37.84375 5.375 42.359375 10.03125 
Q 46.875 14.703125 46.875 21.234375 
Q 46.875 27.6875 42.453125 32.296875 
Q 38.03125 36.921875 31.5 36.921875 
Q 24.75 36.921875 19.71875 32.078125 
Q 14.703125 27.25 14.703125 20.75 
Q 14.703125 14.75 19.1875 10.0625 
Q 23.6875 5.375 30.765625 5.375 
z
" id="FranklinGothic-Book-54"/>
        <path d="M 29.390625 -1.3125 
Q 17.875 -1.3125 10.984375 8.671875 
Q 4.109375 18.65625 4.109375 33.453125 
Q 4.109375 48 10.640625 58 
Q 17.1875 68.015625 29.15625 68.015625 
Q 41.65625 68.015625 48.125 57.5625 
Q 54.59375 47.125 54.59375 33.0625 
Q 54.59375 19.28125 47.953125 8.984375 
Q 41.3125 -1.3125 29.390625 -1.3125 
z
M 29.4375 5.21875 
Q 37.890625 5.21875 41.9375 12.859375 
Q 46 20.515625 46 32.078125 
Q 46 44.734375 41.84375 53.125 
Q 37.703125 61.53125 29.046875 61.53125 
Q 20.703125 61.53125 16.625 53.859375 
Q 12.546875 46.1875 12.546875 33.6875 
Q 12.546875 20.703125 16.84375 12.953125 
Q 21.140625 5.21875 29.4375 5.21875 
z
" id="FranklinGothic-Book-48"/>
       </defs>
       <use xlink:href="#FranklinGothic-Book-49"/>
       <use x="57.267578" xlink:href="#FranklinGothic-Book-57"/>
       <use x="115.910156" xlink:href="#FranklinGothic-Book-54"/>
       <use x="174.552734" xlink:href="#FranklinGothic-Book-48"/>
      </g>
     </g>
    </g>
    <g id="xtick_2">
     <g id="line2d_2">
      <g>
       <use style="fill:#696969;stroke:#696969;stroke-width:1.25;" x="525.525915" xlink:href="#m1359bfe623" y="576.72"/>
      </g>
     </g>
     <g id="text_2">
      <!-- 1980 -->
      <g style="fill:#696969;" transform="translate(498.709352 601.550938)scale(0.23 -0.23)">
       <defs>
        <path d="M 19.484375 34.578125 
Q 6.84375 40.09375 6.84375 50.59375 
Q 6.84375 58.203125 13.140625 63.109375 
Q 19.4375 68.015625 29.828125 68.015625 
Q 40.09375 68.015625 46.140625 63.296875 
Q 52.203125 58.59375 52.203125 50.984375 
Q 52.203125 40.375 39.265625 35.796875 
Q 49.703125 30.953125 52.359375 26.453125 
Q 55.03125 21.96875 55.03125 17.484375 
Q 55.03125 9.46875 48.21875 4.078125 
Q 41.40625 -1.3125 29.734375 -1.3125 
Q 17.28125 -1.3125 10.4375 4.171875 
Q 3.609375 9.671875 3.609375 17.234375 
Q 3.609375 28.515625 19.484375 34.578125 
z
M 29.59375 38.71875 
Q 37.984375 40.96875 41.453125 43.890625 
Q 44.921875 46.828125 44.921875 51.21875 
Q 44.921875 56.34375 40.796875 59 
Q 36.671875 61.671875 29.9375 61.671875 
Q 23.484375 61.671875 19.375 58.859375 
Q 15.28125 56.0625 15.28125 51.3125 
Q 15.28125 46.625 19.84375 43.203125 
Q 24.421875 39.796875 29.59375 38.71875 
z
M 28.65625 31.0625 
Q 11.765625 27.046875 11.765625 16.9375 
Q 11.765625 11.671875 16.375 8.328125 
Q 21 4.984375 29.984375 4.984375 
Q 37.59375 4.984375 42.234375 8.25 
Q 46.875 11.53125 46.875 16.609375 
Q 46.875 26.3125 28.65625 31.0625 
z
" id="FranklinGothic-Book-56"/>
       </defs>
       <use xlink:href="#FranklinGothic-Book-49"/>
       <use x="57.267578" xlink:href="#FranklinGothic-Book-57"/>
       <use x="115.910156" xlink:href="#FranklinGothic-Book-56"/>
       <use x="174.552734" xlink:href="#FranklinGothic-Book-48"/>
      </g>
     </g>
    </g>
    <g id="xtick_3">
     <g id="line2d_3">
      <g>
       <use style="fill:#696969;stroke:#696969;stroke-width:1.25;" x="752.821979" xlink:href="#m1359bfe623" y="576.72"/>
      </g>
     </g>
     <g id="text_3">
      <!-- 2000 -->
      <g style="fill:#696969;" transform="translate(725.847292 601.550938)scale(0.23 -0.23)">
       <defs>
        <path d="M 52.484375 6.9375 
L 52.484375 0 
L 5.171875 0 
L 5.171875 6.9375 
Q 33.203125 27.9375 38.59375 34.59375 
Q 44 41.265625 44 47.796875 
Q 44 53.90625 39.453125 57.65625 
Q 34.90625 61.421875 29 61.421875 
Q 22.90625 61.421875 18.21875 57.296875 
Q 13.53125 53.171875 12.9375 46.09375 
L 5.171875 48.4375 
Q 10.0625 68.015625 29.109375 68.015625 
Q 39.40625 68.015625 45.84375 62.15625 
Q 52.296875 56.296875 52.296875 47.859375 
Q 52.296875 42.046875 49.234375 36.671875 
Q 46.1875 31.296875 37.6875 23.828125 
Q 29.203125 16.359375 15.71875 6.9375 
z
" id="FranklinGothic-Book-50"/>
       </defs>
       <use xlink:href="#FranklinGothic-Book-50"/>
       <use x="58.642578" xlink:href="#FranklinGothic-Book-48"/>
       <use x="117.285156" xlink:href="#FranklinGothic-Book-48"/>
       <use x="175.927734" xlink:href="#FranklinGothic-Book-48"/>
      </g>
     </g>
    </g>
    <g id="xtick_4">
     <g id="line2d_4">
      <g>
       <use style="fill:#696969;stroke:#696969;stroke-width:1.25;" x="980.118044" xlink:href="#m1359bfe623" y="576.72"/>
      </g>
     </g>
     <g id="text_4">
      <!-- 2020 -->
      <g style="fill:#696969;" transform="translate(953.143356 601.550938)scale(0.23 -0.23)">
       <use xlink:href="#FranklinGothic-Book-50"/>
       <use x="58.642578" xlink:href="#FranklinGothic-Book-48"/>
       <use x="117.285156" xlink:href="#FranklinGothic-Book-50"/>
       <use x="175.927734" xlink:href="#FranklinGothic-Book-48"/>
      </g>
     </g>
    </g>
    <g id="text_5">
     <!-- Year -->
     <g style="fill:#696969;" transform="translate(569.365781 624.712813)scale(0.23 -0.23)">
      <defs>
       <path d="M 52 66.65625 
L 29.6875 28.03125 
L 29.6875 0 
L 21.34375 0 
L 21.34375 28.03125 
L -0.984375 66.65625 
L 8.84375 66.65625 
L 26.5625 35.984375 
L 44.390625 66.65625 
z
" id="FranklinGothic-Book-89"/>
       <path d="M 40.234375 14.703125 
L 47.359375 13.234375 
Q 45.40625 6.9375 39.734375 2.8125 
Q 34.078125 -1.3125 26.421875 -1.3125 
Q 16.3125 -1.3125 10.0625 5.78125 
Q 3.8125 12.890625 3.8125 24.421875 
Q 3.8125 36.1875 10.296875 43.4375 
Q 16.796875 50.6875 26.609375 50.6875 
Q 36.28125 50.6875 42.15625 44 
Q 48.046875 37.3125 48.1875 23.96875 
L 12.359375 23.96875 
Q 12.359375 12.796875 17.046875 8.890625 
Q 21.734375 4.984375 26.953125 4.984375 
Q 36.375 4.984375 40.234375 14.703125 
z
M 39.796875 29.6875 
Q 39.703125 33.84375 38.421875 37.0625 
Q 37.15625 40.28125 34.125 42.546875 
Q 31.109375 44.828125 26.859375 44.828125 
Q 21.140625 44.828125 17.15625 40.71875 
Q 13.1875 36.625 12.703125 29.6875 
z
" id="FranklinGothic-Book-101"/>
       <path d="M 46.296875 0 
L 38.671875 0 
Q 38.234375 2.34375 37.796875 8.890625 
Q 32.71875 -1.3125 20.515625 -1.3125 
Q 12.203125 -1.3125 7.765625 3.078125 
Q 3.328125 7.46875 3.328125 13.625 
Q 3.328125 21.09375 9.671875 25.90625 
Q 16.015625 30.71875 31.25 30.71875 
Q 33.296875 30.71875 37.796875 30.515625 
Q 37.796875 36.375 36.890625 38.984375 
Q 35.984375 41.609375 33.046875 43.171875 
Q 30.125 44.734375 25.34375 44.734375 
Q 13.671875 44.734375 11.765625 35.84375 
L 4.6875 37.0625 
Q 7.28125 50.6875 26.46875 50.6875 
Q 36.671875 50.6875 40.9375 46.171875 
Q 45.21875 41.65625 45.21875 30.515625 
L 45.21875 9.578125 
Q 45.21875 4.34375 46.296875 0 
z
M 37.796875 24.65625 
Q 33.109375 24.953125 30.671875 24.953125 
Q 21.578125 24.953125 16.546875 21.96875 
Q 11.53125 19 11.53125 13.28125 
Q 11.53125 9.671875 14.234375 7.125 
Q 16.9375 4.59375 22.078125 4.59375 
Q 29 4.59375 33.46875 9.625 
Q 37.9375 14.65625 37.9375 21.4375 
Q 37.9375 22.796875 37.796875 24.65625 
z
" id="FranklinGothic-Book-97"/>
       <path d="M 15.328125 0 
L 7.671875 0 
L 7.671875 49.3125 
L 14.40625 49.3125 
L 14.40625 37.796875 
Q 17.96875 45.953125 21.546875 48.359375 
Q 25.140625 50.78125 28.90625 50.78125 
Q 30.078125 50.78125 31.9375 50.59375 
L 31.9375 43.265625 
L 30.375 43.265625 
Q 24.03125 43.265625 19.828125 38.53125 
Q 15.625 33.796875 15.328125 26.078125 
z
" id="FranklinGothic-Book-114"/>
      </defs>
      <use xlink:href="#FranklinGothic-Book-89"/>
      <use x="45.025391" xlink:href="#FranklinGothic-Book-101"/>
      <use x="97.076172" xlink:href="#FranklinGothic-Book-97"/>
      <use x="149.957031" xlink:href="#FranklinGothic-Book-114"/>
     </g>
    </g>
   </g>
   <g id="matplotlib.axis_2">
    <g id="ytick_1">
     <g id="line2d_5">
      <path clip-path="url(#pccc126f325)" d="M 144 527.187416 
L 1036.8 527.187416 
" style="fill:none;stroke:#d3d3d3;stroke-linecap:round;stroke-opacity:0.5;"/>
     </g>
     <g id="text_6">
      <!-- −1.5 -->
      <g style="fill:#696969;" transform="translate(88.431719 534.852885)scale(0.23 -0.23)">
       <defs>
        <path d="M 6 36.765625 
L 52.6875 36.765625 
L 52.6875 30.03125 
L 6 30.03125 
z
" id="FranklinGothic-Book-8722"/>
        <path d="M 17.96875 10.9375 
L 17.96875 0 
L 7.078125 0 
L 7.078125 10.9375 
z
" id="FranklinGothic-Book-46"/>
        <path d="M 48.875 66.65625 
L 48.1875 59.46875 
L 15.4375 59.46875 
L 14.015625 37.84375 
Q 21.4375 45.125 30.328125 45.125 
Q 39.703125 45.125 46.515625 38.625 
Q 53.328125 32.125 53.328125 22.015625 
Q 53.328125 11.765625 45.921875 5.21875 
Q 38.53125 -1.3125 27.828125 -1.3125 
Q 19.4375 -1.3125 12.890625 3.078125 
Q 6.34375 7.46875 4.296875 14.453125 
L 11.421875 16.890625 
Q 15.828125 5.28125 27.9375 5.28125 
Q 35.890625 5.28125 40.578125 9.984375 
Q 45.265625 14.703125 45.265625 22.015625 
Q 45.265625 29.6875 40.625 33.984375 
Q 35.984375 38.28125 29.5 38.28125 
Q 20.015625 38.28125 13.8125 29.203125 
L 7.234375 30.609375 
L 9.375 66.65625 
z
" id="FranklinGothic-Book-53"/>
       </defs>
       <use xlink:href="#FranklinGothic-Book-8722"/>
       <use x="58.642578" xlink:href="#FranklinGothic-Book-49"/>
       <use x="116.660156" xlink:href="#FranklinGothic-Book-46"/>
       <use x="141.660156" xlink:href="#FranklinGothic-Book-53"/>
      </g>
     </g>
    </g>
    <g id="ytick_2">
     <g id="line2d_6">
      <path clip-path="url(#pccc126f325)" d="M 144 431.234392 
L 1036.8 431.234392 
" style="fill:none;stroke:#d3d3d3;stroke-linecap:round;stroke-opacity:0.5;"/>
     </g>
     <g id="text_7">
      <!-- −1.0 -->
      <g style="fill:#696969;" transform="translate(88.431719 438.899861)scale(0.23 -0.23)">
       <use xlink:href="#FranklinGothic-Book-8722"/>
       <use x="58.642578" xlink:href="#FranklinGothic-Book-49"/>
       <use x="116.660156" xlink:href="#FranklinGothic-Book-46"/>
       <use x="141.660156" xlink:href="#FranklinGothic-Book-48"/>
      </g>
     </g>
    </g>
    <g id="ytick_3">
     <g id="line2d_7">
      <path clip-path="url(#pccc126f325)" d="M 144 335.281368 
L 1036.8 335.281368 
" style="fill:none;stroke:#d3d3d3;stroke-linecap:round;stroke-opacity:0.5;"/>
     </g>
     <g id="text_8">
      <!-- −0.5 -->
      <g style="fill:#696969;" transform="translate(88.287969 342.946836)scale(0.23 -0.23)">
       <use xlink:href="#FranklinGothic-Book-8722"/>
       <use x="58.642578" xlink:href="#FranklinGothic-Book-48"/>
       <use x="117.285156" xlink:href="#FranklinGothic-Book-46"/>
       <use x="142.285156" xlink:href="#FranklinGothic-Book-53"/>
      </g>
     </g>
    </g>
    <g id="ytick_4">
     <g id="line2d_8">
      <path clip-path="url(#pccc126f325)" d="M 144 239.328343 
L 1036.8 239.328343 
" style="fill:none;stroke:#d3d3d3;stroke-linecap:round;stroke-opacity:0.5;"/>
     </g>
     <g id="text_9">
      <!-- 0.0 -->
      <g style="fill:#696969;" transform="translate(101.775312 246.993812)scale(0.23 -0.23)">
       <use xlink:href="#FranklinGothic-Book-48"/>
       <use x="58.642578" xlink:href="#FranklinGothic-Book-46"/>
       <use x="83.642578" xlink:href="#FranklinGothic-Book-48"/>
      </g>
     </g>
    </g>
    <g id="ytick_5">
     <g id="line2d_9">
      <path clip-path="url(#pccc126f325)" d="M 144 143.375319 
L 1036.8 143.375319 
" style="fill:none;stroke:#d3d3d3;stroke-linecap:round;stroke-opacity:0.5;"/>
     </g>
     <g id="text_10">
      <!-- 0.5 -->
      <g style="fill:#696969;" transform="translate(101.775312 151.040788)scale(0.23 -0.23)">
       <use xlink:href="#FranklinGothic-Book-48"/>
       <use x="58.642578" xlink:href="#FranklinGothic-Book-46"/>
       <use x="83.642578" xlink:href="#FranklinGothic-Book-53"/>
      </g>
     </g>
    </g>
    <g id="text_11">
     <!-- $\!^\circ\!$C -->
     <g style="fill:#696969;" transform="translate(74.457031 338.855)rotate(-90)scale(0.23 -0.23)">
      <defs>
       <path d="M 31.296875 40.671875 
Q 27.390625 40.671875 24.703125 37.953125 
Q 22.015625 35.25 22.015625 31.34375 
Q 22.015625 27.484375 24.703125 24.828125 
Q 27.390625 22.171875 31.296875 22.171875 
Q 35.203125 22.171875 37.890625 24.828125 
Q 40.578125 27.484375 40.578125 31.34375 
Q 40.578125 35.203125 37.859375 37.9375 
Q 35.15625 40.671875 31.296875 40.671875 
z
M 31.296875 46.96875 
Q 34.421875 46.96875 37.296875 45.765625 
Q 40.1875 44.578125 42.28125 42.328125 
Q 44.53125 40.140625 45.65625 37.34375 
Q 46.78125 34.5625 46.78125 31.34375 
Q 46.78125 24.90625 42.265625 20.4375 
Q 37.75 15.96875 31.203125 15.96875 
Q 24.609375 15.96875 20.21875 20.359375 
Q 15.828125 24.75 15.828125 31.34375 
Q 15.828125 37.890625 20.3125 42.421875 
Q 24.8125 46.96875 31.296875 46.96875 
z
" id="DejaVuSans-8728"/>
       <path d="M 48.296875 22.40625 
L 55.90625 20.703125 
Q 50.4375 -1.3125 31.203125 -1.3125 
Q 18.5625 -1.3125 11.359375 8.890625 
Q 4.15625 19.09375 4.15625 33.984375 
Q 4.15625 49.359375 11.671875 58.6875 
Q 19.1875 68.015625 31.84375 68.015625 
Q 50.59375 68.015625 55.90625 46.578125 
L 48.046875 45.015625 
Q 43.75 60.9375 31.78125 60.9375 
Q 22.953125 60.9375 18.09375 53.53125 
Q 13.234375 46.140625 13.234375 32.765625 
Q 13.234375 20.515625 18.203125 13.109375 
Q 23.1875 5.71875 31.390625 5.71875 
Q 44.140625 5.71875 48.296875 22.40625 
z
" id="FranklinGothic-Book-67"/>
      </defs>
      <use transform="translate(-1.64095 39.121875)scale(0.7)" xlink:href="#DejaVuSans-8728"/>
      <use transform="translate(42.313804 0.840625)" xlink:href="#FranklinGothic-Book-67"/>
     </g>
    </g>
   </g>
   <g id="text_12">
    <!-- Compared to 1950-2000 average -->
    <g style="fill:#696969;" transform="translate(144 75.2652)scale(0.3 -0.3)">
     <defs>
      <path d="M 25.34375 -1.3125 
Q 15.1875 -1.3125 9.5 6.203125 
Q 3.8125 13.71875 3.8125 24.859375 
Q 3.8125 36.625 10.203125 43.65625 
Q 16.609375 50.6875 26.125 50.6875 
Q 36.328125 50.6875 42.203125 43.28125 
Q 48.09375 35.890625 48.09375 24.8125 
Q 48.09375 13.28125 41.75 5.984375 
Q 35.40625 -1.3125 25.34375 -1.3125 
z
M 25.921875 4.984375 
Q 31.78125 4.984375 35.734375 9.8125 
Q 39.703125 14.65625 39.703125 24.859375 
Q 39.703125 35.109375 35.546875 39.71875 
Q 31.390625 44.34375 25.828125 44.34375 
Q 20.125 44.34375 16.15625 39.671875 
Q 12.203125 35.015625 12.203125 24.90625 
Q 12.203125 14.203125 16.15625 9.59375 
Q 20.125 4.984375 25.921875 4.984375 
z
" id="FranklinGothic-Book-111"/>
      <path d="M 73.734375 0 
L 66.265625 0 
L 66.265625 30.671875 
Q 66.265625 35.40625 65.59375 37.765625 
Q 64.9375 40.140625 62.390625 42.109375 
Q 59.859375 44.09375 56.6875 44.09375 
Q 52.296875 44.09375 48.21875 40.0625 
Q 44.140625 36.03125 44.140625 27.78125 
L 44.140625 0 
L 36.71875 0 
L 36.71875 32.46875 
Q 36.71875 38.96875 33.609375 41.65625 
Q 30.515625 44.34375 27.09375 44.34375 
Q 22.21875 44.34375 18.59375 40.140625 
Q 14.984375 35.9375 14.984375 29.5 
L 14.984375 0 
L 7.671875 0 
L 7.671875 49.3125 
L 14.265625 49.3125 
L 14.265625 39.84375 
Q 19.78125 50.6875 29.4375 50.6875 
Q 34.765625 50.6875 38.46875 47.21875 
Q 42.1875 43.75 43.265625 38.875 
Q 48.34375 50.6875 58.84375 50.6875 
Q 63.875 50.6875 67.65625 47.796875 
Q 71.4375 44.921875 72.578125 41.1875 
Q 73.734375 37.453125 73.734375 30.671875 
z
" id="FranklinGothic-Book-109"/>
      <path d="M 15.328125 -16.65625 
L 7.671875 -16.65625 
L 7.671875 49.3125 
L 14.546875 49.3125 
L 14.546875 39.75 
Q 19.78125 50.6875 30.125 50.6875 
Q 38.875 50.6875 44.234375 43.375 
Q 49.609375 36.078125 49.609375 24.90625 
Q 49.609375 12.84375 44.09375 5.765625 
Q 38.578125 -1.3125 29.9375 -1.3125 
Q 20.65625 -1.3125 15.328125 7.515625 
z
M 15.328125 31.78125 
L 15.328125 17.921875 
Q 16.0625 12.3125 20.0625 8.640625 
Q 24.078125 4.984375 28.421875 4.984375 
Q 33.453125 4.984375 37.328125 9.375 
Q 41.21875 13.765625 41.21875 24.5625 
Q 41.21875 33.890625 37.703125 38.9375 
Q 34.1875 44 28.375 44 
Q 23.78125 44 20.140625 40.421875 
Q 16.5 36.859375 15.328125 31.78125 
z
" id="FranklinGothic-Book-112"/>
      <path d="M 46.1875 66.65625 
L 46.1875 0 
L 39.203125 0 
L 39.203125 8.453125 
Q 34.03125 -1.3125 23.640625 -1.3125 
Q 14.984375 -1.3125 9.421875 5.9375 
Q 3.859375 13.1875 3.859375 24.265625 
Q 3.859375 35.59375 9.375 43.140625 
Q 14.890625 50.6875 24.03125 50.6875 
Q 32.90625 50.6875 38.53125 42.578125 
L 38.53125 66.65625 
z
M 38.53125 30.28125 
Q 38.53125 36.765625 34.5625 40.671875 
Q 30.609375 44.578125 25.34375 44.578125 
Q 19.625 44.578125 15.9375 39.5 
Q 12.25 34.421875 12.25 25.25 
Q 12.25 15.328125 15.640625 10.15625 
Q 19.046875 4.984375 24.953125 4.984375 
Q 30.328125 4.984375 34.421875 9.46875 
Q 38.53125 13.96875 38.53125 20.015625 
z
" id="FranklinGothic-Book-100"/>
      <path id="FranklinGothic-Book-32"/>
      <path d="M 30.03125 5.28125 
L 30.03125 -0.78125 
Q 25.984375 -1.3125 23 -1.3125 
Q 8.6875 -1.3125 8.6875 13.625 
L 8.6875 43.3125 
L -0.046875 43.3125 
L -0.046875 49.3125 
L 8.6875 49.3125 
L 9.03125 61.71875 
L 16.15625 62.40625 
L 16.15625 49.3125 
L 27.203125 49.3125 
L 27.203125 43.3125 
L 16.15625 43.3125 
L 16.15625 12.359375 
Q 16.15625 4.734375 24.078125 4.734375 
Q 26.703125 4.734375 30.03125 5.28125 
z
" id="FranklinGothic-Book-116"/>
      <path d="M 23.53125 27.984375 
L 23.53125 22.015625 
L 1.46875 22.015625 
L 1.46875 27.984375 
z
" id="FranklinGothic-Book-45"/>
      <path d="M 43.796875 49.3125 
L 26.765625 0 
L 18.796875 0 
L 1.171875 49.3125 
L 9.671875 49.3125 
L 23.390625 9.234375 
L 36.96875 49.3125 
z
" id="FranklinGothic-Book-118"/>
      <path d="M 47.953125 57.03125 
L 47.953125 50.921875 
Q 42.671875 50.921875 40.890625 49.703125 
Q 39.109375 48.484375 38.53125 45.3125 
Q 43.265625 39.84375 43.265625 33.40625 
Q 43.265625 26.65625 38.109375 21.828125 
Q 32.953125 17 24.265625 17 
Q 22.3125 17 20.90625 17.28125 
Q 18.21875 17.828125 17.53125 17.828125 
Q 16.21875 17.828125 14.359375 16.53125 
Q 12.5 15.234375 12.5 13.1875 
Q 12.5 10.25 15.1875 9.375 
Q 17.875 8.5 27.828125 8.25 
Q 36.28125 8.015625 40.3125 7.109375 
Q 44.34375 6.203125 47.125 3.09375 
Q 49.90625 0 49.90625 -4.5 
Q 49.90625 -18.609375 25.09375 -18.609375 
Q 13.328125 -18.609375 7.9375 -15.0625 
Q 2.546875 -11.53125 2.546875 -5.609375 
Q 2.546875 1.5625 10.0625 4.25 
Q 5.21875 7.421875 5.21875 12.203125 
Q 5.21875 17.921875 12.0625 20.953125 
Q 5.671875 26.125 5.671875 33.984375 
Q 5.671875 41.3125 11.140625 46 
Q 16.609375 50.6875 24.46875 50.6875 
Q 30.03125 50.6875 34.578125 48.578125 
Q 35.296875 53.421875 37.953125 55.265625 
Q 40.625 57.125 46.046875 57.125 
Q 46.578125 57.125 47.953125 57.03125 
z
M 24.515625 22.859375 
Q 29.390625 22.859375 32.46875 25.859375 
Q 35.546875 28.859375 35.546875 33.640625 
Q 35.546875 38.53125 32.34375 41.625 
Q 29.15625 44.734375 24.609375 44.734375 
Q 20.265625 44.734375 16.890625 41.828125 
Q 13.53125 38.921875 13.53125 33.546875 
Q 13.53125 28.765625 16.546875 25.8125 
Q 19.578125 22.859375 24.515625 22.859375 
z
M 15.328125 2 
Q 9.96875 -0.34375 9.96875 -4.78125 
Q 9.96875 -8.546875 14.375 -10.625 
Q 18.796875 -12.703125 25.640625 -12.703125 
Q 31.984375 -12.703125 37.25 -10.90625 
Q 42.53125 -9.125 42.53125 -4.890625 
Q 42.53125 -2.59375 40.96875 -1.125 
Q 39.40625 0.34375 36.6875 0.734375 
Q 33.984375 1.125 27.25 1.3125 
Q 19.1875 1.515625 15.328125 2 
z
" id="FranklinGothic-Book-103"/>
     </defs>
     <use xlink:href="#FranklinGothic-Book-67"/>
     <use x="57.910156" xlink:href="#FranklinGothic-Book-111"/>
     <use x="109.863281" xlink:href="#FranklinGothic-Book-109"/>
     <use x="190.384766" xlink:href="#FranklinGothic-Book-112"/>
     <use x="243.802734" xlink:href="#FranklinGothic-Book-97"/>
     <use x="296.683594" xlink:href="#FranklinGothic-Book-114"/>
     <use x="329.642578" xlink:href="#FranklinGothic-Book-101"/>
     <use x="381.693359" xlink:href="#FranklinGothic-Book-100"/>
     <use x="435.550781" xlink:href="#FranklinGothic-Book-32"/>
     <use x="460.550781" xlink:href="#FranklinGothic-Book-116"/>
     <use x="489.8125" xlink:href="#FranklinGothic-Book-111"/>
     <use x="541.765625" xlink:href="#FranklinGothic-Book-32"/>
     <use x="566.765625" xlink:href="#FranklinGothic-Book-49"/>
     <use x="624.033203" xlink:href="#FranklinGothic-Book-57"/>
     <use x="682.675781" xlink:href="#FranklinGothic-Book-53"/>
     <use x="741.318359" xlink:href="#FranklinGothic-Book-48"/>
     <use x="799.960938" xlink:href="#FranklinGothic-Book-45"/>
     <use x="824.960938" xlink:href="#FranklinGothic-Book-50"/>
     <use x="883.603516" xlink:href="#FranklinGothic-Book-48"/>
     <use x="942.246094" xlink:href="#FranklinGothic-Book-48"/>
     <use x="1000.888672" xlink:href="#FranklinGothic-Book-48"/>
     <use x="1059.53125" xlink:href="#FranklinGothic-Book-32"/>
     <use x="1084.53125" xlink:href="#FranklinGothic-Book-97"/>
     <use x="1135.162109" xlink:href="#FranklinGothic-Book-118"/>
     <use x="1178.681641" xlink:href="#FranklinGothic-Book-101"/>
     <use x="1230.732422" xlink:href="#FranklinGothic-Book-114"/>
     <use x="1263.691406" xlink:href="#FranklinGothic-Book-97"/>
     <use x="1316.572266" xlink:href="#FranklinGothic-Book-103"/>
     <use x="1365.693359" xlink:href="#FranklinGothic-Book-101"/>
    </g>
   </g>
   <g id="text_13">
    <!-- Pacific Decadal Oscillation -->
    <g style="fill:#696969;" transform="translate(144 42.76)scale(0.4 -0.4)">
     <defs>
      <path d="M 16.703125 0 
L 8.34375 0 
L 8.34375 66.65625 
L 31.984375 66.65625 
Q 43.0625 66.65625 48.328125 60.625 
Q 53.609375 54.59375 53.609375 46.875 
Q 53.609375 38.28125 47.875 32.65625 
Q 42.140625 27.046875 32.859375 27.046875 
L 16.703125 27.046875 
z
M 16.703125 33.984375 
L 32.03125 33.984375 
Q 37.9375 33.984375 41.546875 37.515625 
Q 45.171875 41.0625 45.171875 46.875 
Q 45.171875 51.859375 41.9375 55.765625 
Q 38.71875 59.671875 32.625 59.671875 
L 16.703125 59.671875 
z
" id="FranklinGothic-Book-80"/>
      <path d="M 36.8125 17.28125 
L 43.75 16.0625 
Q 42.28125 7.90625 37.25 3.296875 
Q 32.234375 -1.3125 24.703125 -1.3125 
Q 14.5 -1.3125 9.15625 6.203125 
Q 3.8125 13.71875 3.8125 24.5625 
Q 3.8125 35.796875 9.453125 43.234375 
Q 15.09375 50.6875 24.8125 50.6875 
Q 32.859375 50.6875 37.71875 45.875 
Q 42.578125 41.0625 43.75 33.453125 
L 36.8125 32.125 
Q 34.859375 44.34375 25 44.34375 
Q 18.65625 44.34375 15.234375 38.9375 
Q 11.8125 33.546875 11.8125 24.953125 
Q 11.8125 15.484375 15.203125 10.234375 
Q 18.609375 4.984375 24.75 4.984375 
Q 34.28125 4.984375 36.8125 17.28125 
z
" id="FranklinGothic-Book-99"/>
      <path d="M 15.578125 66.65625 
L 15.578125 58.15625 
L 7.328125 58.15625 
L 7.328125 66.65625 
z
M 15.328125 49.3125 
L 15.328125 0 
L 7.671875 0 
L 7.671875 49.3125 
z
" id="FranklinGothic-Book-105"/>
      <path d="M 28.125 49.3125 
L 28.125 43.3125 
L 16.40625 43.3125 
L 16.40625 0 
L 8.734375 0 
L 8.734375 43.3125 
L 0.34375 43.3125 
L 0.34375 49.3125 
L 8.734375 49.3125 
Q 8.9375 61.1875 13.296875 64.59375 
Q 17.671875 68.015625 23.96875 68.015625 
Q 27.046875 68.015625 31 67.328125 
L 31 61.234375 
Q 28.515625 61.859375 26.265625 61.859375 
Q 21.234375 61.859375 18.8125 59.640625 
Q 16.40625 57.421875 16.40625 51.3125 
L 16.40625 49.3125 
z
" id="FranklinGothic-Book-102"/>
      <path d="M 8.34375 0 
L 8.34375 66.65625 
L 30.71875 66.65625 
Q 44.828125 66.65625 52.6875 57.03125 
Q 60.546875 47.40625 60.546875 33.5 
Q 60.546875 19.390625 52.875 9.6875 
Q 45.21875 0 33.453125 0 
z
M 16.703125 7.078125 
L 30.21875 7.078125 
Q 40.96875 7.078125 46.53125 14.5 
Q 52.09375 21.921875 52.09375 34.078125 
Q 52.09375 43.953125 46.796875 51.8125 
Q 41.5 59.671875 30.21875 59.671875 
L 16.703125 59.671875 
z
" id="FranklinGothic-Book-68"/>
      <path d="M 15.328125 0 
L 7.671875 0 
L 7.671875 66.65625 
L 15.328125 66.65625 
z
" id="FranklinGothic-Book-108"/>
      <path d="M 31.34375 -1.3125 
Q 18.5 -1.3125 11.328125 8.671875 
Q 4.15625 18.65625 4.15625 33.15625 
Q 4.15625 48.296875 11.671875 58.15625 
Q 19.1875 68.015625 31.59375 68.015625 
Q 43.953125 68.015625 51.421875 58.328125 
Q 58.890625 48.640625 58.890625 33.890625 
Q 58.890625 19.734375 51.640625 9.203125 
Q 44.390625 -1.3125 31.34375 -1.3125 
z
M 31.546875 5.46875 
Q 40.28125 5.46875 45.203125 13.421875 
Q 50.140625 21.390625 50.140625 33.9375 
Q 50.140625 46.828125 45.03125 54 
Q 39.9375 61.1875 31.5 61.1875 
Q 22.953125 61.1875 17.921875 53.421875 
Q 12.890625 45.65625 12.890625 33.109375 
Q 12.890625 20.84375 17.96875 13.15625 
Q 23.046875 5.46875 31.546875 5.46875 
z
" id="FranklinGothic-Book-79"/>
      <path d="M 1.03125 12.796875 
L 8.34375 14.3125 
Q 10.796875 4.984375 23.78125 4.984375 
Q 28.5625 4.984375 31.875 7.125 
Q 35.203125 9.28125 35.203125 13.1875 
Q 35.203125 19 26.765625 20.5625 
L 16.359375 22.515625 
Q 10.25 23.6875 6.640625 27.09375 
Q 3.03125 30.515625 3.03125 36.140625 
Q 3.03125 42.328125 7.953125 46.5 
Q 12.890625 50.6875 21.234375 50.6875 
Q 37.3125 50.6875 41.0625 38.140625 
L 34.03125 36.625 
Q 31 44.34375 21.578125 44.34375 
Q 16.890625 44.34375 13.890625 42.40625 
Q 10.890625 40.484375 10.890625 37.015625 
Q 10.890625 31.546875 18.5625 30.125 
L 28.171875 28.421875 
Q 43.265625 25.6875 43.265625 13.8125 
Q 43.265625 7.03125 37.640625 2.859375 
Q 32.03125 -1.3125 22.703125 -1.3125 
Q 5.171875 -1.3125 1.03125 12.796875 
z
" id="FranklinGothic-Book-115"/>
      <path d="M 46.53125 0 
L 39.359375 0 
L 39.359375 31.6875 
Q 39.359375 38.53125 36.375 41.3125 
Q 33.40625 44.09375 29.15625 44.09375 
Q 23.296875 44.09375 19.3125 39.40625 
Q 15.328125 34.71875 15.328125 27.046875 
L 15.328125 0 
L 7.671875 0 
L 7.671875 49.3125 
L 14.796875 49.3125 
L 14.796875 40.234375 
Q 20.796875 50.6875 30.375 50.6875 
Q 35.890625 50.6875 39.765625 47.828125 
Q 43.65625 44.96875 45.09375 41.40625 
Q 46.53125 37.84375 46.53125 28.515625 
z
" id="FranklinGothic-Book-110"/>
     </defs>
     <use xlink:href="#FranklinGothic-Book-80"/>
     <use x="55.408203" xlink:href="#FranklinGothic-Book-97"/>
     <use x="108.289062" xlink:href="#FranklinGothic-Book-99"/>
     <use x="154.871094" xlink:href="#FranklinGothic-Book-105"/>
     <use x="177.820312" xlink:href="#FranklinGothic-Book-102"/>
     <use x="208.425781" xlink:href="#FranklinGothic-Book-105"/>
     <use x="231.375" xlink:href="#FranklinGothic-Book-99"/>
     <use x="277.957031" xlink:href="#FranklinGothic-Book-32"/>
     <use x="302.957031" xlink:href="#FranklinGothic-Book-68"/>
     <use x="367.654297" xlink:href="#FranklinGothic-Book-101"/>
     <use x="419.705078" xlink:href="#FranklinGothic-Book-99"/>
     <use x="466.287109" xlink:href="#FranklinGothic-Book-97"/>
     <use x="519.167969" xlink:href="#FranklinGothic-Book-100"/>
     <use x="573.025391" xlink:href="#FranklinGothic-Book-97"/>
     <use x="625.90625" xlink:href="#FranklinGothic-Book-108"/>
     <use x="648.904297" xlink:href="#FranklinGothic-Book-32"/>
     <use x="673.904297" xlink:href="#FranklinGothic-Book-79"/>
     <use x="736.990234" xlink:href="#FranklinGothic-Book-115"/>
     <use x="783.376953" xlink:href="#FranklinGothic-Book-99"/>
     <use x="829.958984" xlink:href="#FranklinGothic-Book-105"/>
     <use x="852.908203" xlink:href="#FranklinGothic-Book-108"/>
     <use x="875.90625" xlink:href="#FranklinGothic-Book-108"/>
     <use x="898.904297" xlink:href="#FranklinGothic-Book-97"/>
     <use x="951.785156" xlink:href="#FranklinGothic-Book-116"/>
     <use x="982.546875" xlink:href="#FranklinGothic-Book-105"/>
     <use x="1005.496094" xlink:href="#FranklinGothic-Book-111"/>
     <use x="1057.449219" xlink:href="#FranklinGothic-Book-110"/>
    </g>
   </g>
   <g id="legend_1">
    <g id="line2d_10"/>
    <g id="text_14">
     <!-- NOAA CPC (1950.01-2023.12) -->
     <g style="fill:#009e73;" transform="translate(185.856 129.7184)scale(0.2 -0.2)">
      <defs>
       <path d="M 57.421875 0 
L 49.3125 0 
L 14.84375 58.109375 
L 14.9375 53.71875 
Q 15.09375 51.21875 15.09375 49.515625 
L 15.09375 0 
L 8.34375 0 
L 8.34375 66.65625 
L 18.796875 66.65625 
L 51.03125 12.3125 
L 50.921875 16.9375 
Q 50.828125 19.671875 50.828125 21.78125 
L 50.828125 66.65625 
L 57.421875 66.65625 
z
" id="FranklinGothic-Book-78"/>
       <path d="M 53.21875 0 
L 44.671875 0 
L 37.9375 19.484375 
L 13.28125 19.484375 
L 7.328125 0 
L 0.34375 0 
L 21.96875 66.65625 
L 31.5 66.65625 
z
M 36.1875 25.734375 
L 25.921875 57.765625 
L 15.578125 25.734375 
z
" id="FranklinGothic-Book-65"/>
       <path d="M 24.703125 -16.65625 
L 19.578125 -16.65625 
Q 5.21875 2.203125 5.21875 25.09375 
Q 5.21875 46.96875 19.578125 66.65625 
L 24.703125 66.65625 
Q 12.359375 48.25 12.359375 25 
Q 12.359375 2.828125 24.703125 -16.65625 
z
" id="FranklinGothic-Book-40"/>
       <path d="M 19.34375 31.34375 
L 19.34375 37.984375 
L 26.953125 37.984375 
Q 35.296875 37.984375 38.890625 41.40625 
Q 42.484375 44.828125 42.484375 49.703125 
Q 42.484375 55.078125 38.46875 58.21875 
Q 34.46875 61.375 28.421875 61.375 
Q 17.1875 61.375 12.890625 50.53125 
L 5.375 52.6875 
Q 11.8125 68.015625 29.203125 68.015625 
Q 38.96875 68.015625 44.96875 62.8125 
Q 50.984375 57.625 50.984375 50.296875 
Q 50.984375 44.625 47.359375 40.40625 
Q 43.75 36.1875 38.09375 35.109375 
Q 44.4375 34.1875 49 29.78125 
Q 53.5625 25.390625 53.5625 18.40625 
Q 53.5625 10.0625 46.765625 4.375 
Q 39.984375 -1.3125 28.171875 -1.3125 
Q 18.796875 -1.3125 12.125 3.125 
Q 5.46875 7.5625 2.9375 14.9375 
L 10.6875 17.53125 
Q 14.203125 5.46875 28.03125 5.46875 
Q 37.015625 5.46875 40.9375 9.296875 
Q 44.875 13.140625 44.875 18.453125 
Q 44.875 24.21875 40.15625 27.78125 
Q 35.453125 31.34375 26.953125 31.34375 
z
" id="FranklinGothic-Book-51"/>
       <path d="M 4.640625 66.65625 
L 9.71875 66.65625 
Q 24.125 47.796875 24.125 24.90625 
Q 24.125 3.03125 9.71875 -16.65625 
L 4.640625 -16.65625 
Q 17 1.765625 17 25 
Q 17 47.171875 4.640625 66.65625 
z
" id="FranklinGothic-Book-41"/>
      </defs>
      <use xlink:href="#FranklinGothic-Book-78"/>
      <use x="65.722656" xlink:href="#FranklinGothic-Book-79"/>
      <use x="127.058594" xlink:href="#FranklinGothic-Book-65"/>
      <use x="180.623047" xlink:href="#FranklinGothic-Book-65"/>
      <use x="234.1875" xlink:href="#FranklinGothic-Book-32"/>
      <use x="259.1875" xlink:href="#FranklinGothic-Book-67"/>
      <use x="317.097656" xlink:href="#FranklinGothic-Book-80"/>
      <use x="373.005859" xlink:href="#FranklinGothic-Book-67"/>
      <use x="430.916016" xlink:href="#FranklinGothic-Book-32"/>
      <use x="455.916016" xlink:href="#FranklinGothic-Book-40"/>
      <use x="485.261719" xlink:href="#FranklinGothic-Book-49"/>
      <use x="542.529297" xlink:href="#FranklinGothic-Book-57"/>
      <use x="601.171875" xlink:href="#FranklinGothic-Book-53"/>
      <use x="659.814453" xlink:href="#FranklinGothic-Book-48"/>
      <use x="718.457031" xlink:href="#FranklinGothic-Book-46"/>
      <use x="743.457031" xlink:href="#FranklinGothic-Book-48"/>
      <use x="798.349609" xlink:href="#FranklinGothic-Book-49"/>
      <use x="856.992188" xlink:href="#FranklinGothic-Book-45"/>
      <use x="881.992188" xlink:href="#FranklinGothic-Book-50"/>
      <use x="940.634766" xlink:href="#FranklinGothic-Book-48"/>
      <use x="999.277344" xlink:href="#FranklinGothic-Book-50"/>
      <use x="1057.919922" xlink:href="#FranklinGothic-Book-51"/>
      <use x="1116.5625" xlink:href="#FranklinGothic-Book-46"/>
      <use x="1137.6875" xlink:href="#FranklinGothic-Book-49"/>
      <use x="1196.330078" xlink:href="#FranklinGothic-Book-50"/>
      <use x="1254.972656" xlink:href="#FranklinGothic-Book-41"/>
     </g>
    </g>
   </g>
   <g id="line2d_11">
    <path clip-path="url(#pccc126f325)" d="M 184.581818 548.621149 
L 185.528885 550.533109 
L 186.475952 551.927331 
L 187.423019 552.907007 
L 188.370086 553.551866 
L 189.317153 553.920281 
L 190.26422 554.04 
L 191.211287 553.910129 
L 192.158354 553.49398 
L 193.105421 552.735534 
L 194.052488 551.596389 
L 194.999554 550.060879 
L 195.946621 548.142286 
L 196.893688 545.846215 
L 197.840755 543.159659 
L 198.787822 540.07606 
L 200.681956 532.749789 
L 202.57609 523.862621 
L 204.470224 513.348302 
L 207.311425 495.658353 
L 211.099692 472.167998 
L 212.993826 461.608895 
L 214.88796 452.073845 
L 217.729161 439.118723 
L 219.623295 431.267786 
L 221.517429 424.380531 
L 222.464496 421.493481 
L 223.411563 419.097282 
L 224.358629 417.28157 
L 225.305696 416.126625 
L 226.252763 415.698118 
L 227.19983 416.045549 
L 228.146897 417.203682 
L 229.093964 419.188982 
L 230.041031 421.996557 
L 230.988098 425.610833 
L 231.935165 429.972976 
L 233.829299 440.508777 
L 236.6705 458.699488 
L 239.5117 476.779847 
L 241.405834 487.390628 
L 242.352901 491.978832 
L 243.299968 495.99423 
L 244.247035 499.389152 
L 245.194102 502.161455 
L 246.141169 504.324449 
L 247.088236 505.877533 
L 248.035303 506.798782 
L 248.98237 507.036176 
L 249.929437 506.520209 
L 250.876504 505.196844 
L 251.823571 503.032144 
L 252.770638 499.994577 
L 253.717704 496.037846 
L 254.664771 491.095879 
L 255.611838 485.099532 
L 256.558905 478.002229 
L 257.505972 469.808709 
L 259.400106 450.259368 
L 261.29424 426.790033 
L 263.188374 400.227259 
L 266.976642 342.642645 
L 270.764909 286.118041 
L 272.659043 260.198702 
L 274.553177 236.536839 
L 276.447311 215.282748 
L 278.341445 196.48932 
L 280.235579 180.569474 
L 281.182646 173.858038 
L 282.129713 168.054465 
L 283.076779 163.188597 
L 284.023846 159.280398 
L 284.970913 156.341005 
L 285.91798 154.375598 
L 286.865047 153.39195 
L 287.812114 153.407223 
L 288.759181 154.442603 
L 289.706248 156.494424 
L 290.653315 159.51163 
L 291.600382 163.422207 
L 292.547449 168.134905 
L 294.441583 179.552759 
L 296.335717 192.905514 
L 299.176917 215.215635 
L 302.965185 247.651145 
L 306.753453 280.568069 
L 308.647587 295.696046 
L 310.541721 309.473494 
L 312.435854 321.956191 
L 314.329988 333.35264 
L 316.224122 343.820272 
L 318.118256 353.174525 
L 320.01239 361.024644 
L 321.906524 367.3065 
L 322.853591 369.883984 
L 324.747725 374.14564 
L 326.641858 377.621519 
L 328.535992 380.487853 
L 329.483059 381.68099 
L 330.430126 382.670065 
L 331.377193 383.396503 
L 332.32426 383.800586 
L 333.271327 383.822475 
L 334.218394 383.414317 
L 335.165461 382.527478 
L 336.112528 381.13011 
L 337.059595 379.216338 
L 338.006662 376.80737 
L 338.953729 373.956986 
L 340.847863 367.290587 
L 345.583197 349.562728 
L 347.477331 343.474573 
L 349.371465 338.456824 
L 350.318532 336.433375 
L 351.265599 334.75219 
L 352.212666 333.397274 
L 353.159733 332.340209 
L 354.1068 331.544682 
L 355.053867 330.97266 
L 356.000933 330.590406 
L 356.948 330.371365 
L 358.842134 330.296648 
L 360.736268 330.553209 
L 363.577469 331.101868 
L 364.524536 331.154911 
L 365.471603 331.053734 
L 366.41867 330.776631 
L 367.365737 330.309789 
L 368.312804 329.656243 
L 370.206938 327.923671 
L 373.995205 323.95769 
L 374.942272 323.168322 
L 375.889339 322.558946 
L 376.836406 322.174792 
L 377.783473 322.047252 
L 378.73054 322.16533 
L 379.677607 322.501078 
L 380.624674 323.03782 
L 381.571741 323.764475 
L 385.360008 327.270495 
L 386.307075 327.827559 
L 387.254142 328.058107 
L 388.201209 327.873598 
L 389.148276 327.232309 
L 390.095343 326.134735 
L 391.04241 324.638749 
L 392.936544 320.906557 
L 394.830678 317.053568 
L 395.777745 315.344692 
L 396.724812 313.896567 
L 397.671879 312.791172 
L 398.618946 312.1125 
L 399.566013 311.939603 
L 400.513079 312.350543 
L 401.460146 313.409348 
L 402.407213 315.151921 
L 403.35428 317.556579 
L 404.301347 320.553788 
L 405.248414 324.0575 
L 407.142548 332.33923 
L 409.036682 342.058318 
L 411.877883 358.406489 
L 418.507351 398.161703 
L 420.401485 408.055369 
L 422.295619 416.737795 
L 425.13682 428.305901 
L 430.819221 450.501918 
L 432.713355 456.393213 
L 433.660422 458.751862 
L 434.607489 460.684633 
L 435.554556 462.150415 
L 436.501623 463.094875 
L 437.44869 463.479201 
L 438.395757 463.289884 
L 439.342824 462.518663 
L 440.289891 461.154542 
L 441.236958 459.19377 
L 442.184025 456.65612 
L 443.131092 453.591921 
L 445.025225 446.223828 
L 449.76056 425.78166 
L 450.707627 422.255745 
L 451.654694 419.175409 
L 452.601761 416.603865 
L 453.548828 414.569428 
L 454.495895 413.070431 
L 455.442962 412.088733 
L 456.390029 411.59795 
L 457.337096 411.56951 
L 458.284163 411.978591 
L 459.231229 412.782196 
L 461.125363 415.156701 
L 462.07243 416.404388 
L 463.019497 417.436976 
L 463.966564 418.064511 
L 464.913631 418.115726 
L 465.860698 417.444028 
L 466.807765 415.929303 
L 467.754832 413.506121 
L 468.701899 410.18359 
L 469.648966 406.038539 
L 471.5431 395.854204 
L 476.278434 368.127144 
L 478.172568 358.909031 
L 481.013769 346.668057 
L 484.802037 330.267481 
L 486.696171 321.030571 
L 488.590304 310.609892 
L 491.431505 293.105221 
L 496.16684 262.950237 
L 498.060974 252.33055 
L 499.955108 243.304611 
L 501.849242 236.071084 
L 502.796308 233.12991 
L 503.743375 230.649338 
L 504.690442 228.625923 
L 505.637509 227.038676 
L 506.584576 225.849429 
L 507.531643 224.988567 
L 508.47871 224.367516 
L 511.319911 222.862377 
L 512.266978 222.043139 
L 513.214045 220.871334 
L 514.161112 219.282656 
L 515.108179 217.258846 
L 516.055246 214.815461 
L 517.949379 208.868881 
L 520.79058 198.392078 
L 524.578848 184.19722 
L 526.472982 177.851083 
L 528.367116 172.355105 
L 530.26125 167.825443 
L 531.208317 166.024738 
L 532.155383 164.615775 
L 533.10245 163.638901 
L 534.049517 163.092524 
L 534.996584 162.923198 
L 535.943651 163.041763 
L 538.784852 163.90312 
L 539.731919 163.970155 
L 540.678986 163.809277 
L 541.626053 163.38342 
L 542.57312 162.654591 
L 543.520187 161.588134 
L 544.467254 160.157815 
L 545.414321 158.35538 
L 546.361388 156.196143 
L 548.255521 150.987809 
L 551.096722 142.393851 
L 552.990856 137.604824 
L 553.937923 135.729412 
L 554.88499 134.22872 
L 555.832057 133.096296 
L 556.779124 132.30748 
L 557.726191 131.827928 
L 558.673258 131.600417 
L 560.567392 131.550802 
L 562.461525 131.456398 
L 563.408592 131.237187 
L 564.355659 130.867233 
L 566.249793 129.708944 
L 568.143927 128.179963 
L 572.879262 123.949293 
L 573.826329 123.29611 
L 574.773396 122.839665 
L 575.720463 122.644382 
L 576.667529 122.73882 
L 577.614596 123.107817 
L 578.561663 123.706302 
L 580.455797 125.33316 
L 582.349931 127.049526 
L 583.296998 127.791619 
L 584.244065 128.387871 
L 585.191132 128.773913 
L 586.138199 128.872052 
L 587.085266 128.615244 
L 588.032333 127.965036 
L 588.9794 126.917357 
L 589.926467 125.510857 
L 590.873533 123.802924 
L 592.767667 119.70529 
L 595.608868 112.557018 
L 597.503002 107.715107 
L 598.450069 105.518723 
L 599.397136 103.603529 
L 600.344203 102.059677 
L 601.29127 100.977596 
L 602.238337 100.44 
L 603.185404 100.508078 
L 604.132471 101.210869 
L 605.079537 102.543016 
L 606.026604 104.482153 
L 606.973671 107.000238 
L 607.920738 110.083694 
L 608.867805 113.731748 
L 609.814872 117.945812 
L 611.709006 128.025272 
L 613.60314 140.050208 
L 615.497274 153.750725 
L 618.338475 176.701134 
L 623.073809 217.696265 
L 625.91501 244.109828 
L 633.491546 316.62037 
L 635.385679 331.18121 
L 636.332746 337.269637 
L 637.279813 342.439715 
L 638.22688 346.614501 
L 639.173947 349.736559 
L 640.121014 351.788294 
L 641.068081 352.774116 
L 642.015148 352.710698 
L 642.962215 351.632152 
L 643.909282 349.5883 
L 644.856349 346.641516 
L 645.803416 342.884319 
L 647.69755 333.514214 
L 649.591683 322.682927 
L 652.432884 305.095893 
L 655.274085 285.664284 
L 657.168219 271.268513 
L 659.062353 255.34131 
L 661.903554 229.119492 
L 667.585955 175.189512 
L 669.480089 158.843476 
L 671.374223 144.960414 
L 672.32129 139.421745 
L 673.268357 134.989651 
L 674.215424 131.684395 
L 675.162491 129.438754 
L 676.109558 128.1288 
L 677.056625 127.570627 
L 678.003692 127.575283 
L 678.950758 127.987229 
L 679.897825 128.672676 
L 684.63316 132.721827 
L 686.527294 133.689713 
L 688.421428 134.483672 
L 690.315562 135.572437 
L 691.262629 136.300022 
L 692.209696 137.172941 
L 693.156762 138.203662 
L 695.050896 140.793051 
L 699.786231 148.4727 
L 700.733298 149.429094 
L 701.680365 149.858491 
L 702.627432 149.609243 
L 703.574499 148.573948 
L 704.521566 146.69461 
L 705.468633 143.977261 
L 706.4157 140.500452 
L 708.309833 131.932055 
L 710.203967 122.909017 
L 711.151034 118.996902 
L 712.098101 115.892334 
L 713.045168 113.857567 
L 713.992235 113.097266 
L 714.939302 113.73078 
L 715.886369 115.796348 
L 716.833436 119.264658 
L 717.780503 124.054937 
L 718.72757 130.047773 
L 719.674637 137.107778 
L 721.568771 153.91673 
L 723.462904 173.610117 
L 725.357038 195.607644 
L 728.198239 231.582492 
L 733.880641 304.81087 
L 738.615975 361.930536 
L 743.35131 417.885516 
L 745.245444 437.985595 
L 747.139578 455.309311 
L 749.033712 469.280646 
L 749.980779 474.964662 
L 750.927846 479.825914 
L 751.874912 483.905917 
L 752.821979 487.231999 
L 753.769046 489.830239 
L 754.716113 491.702064 
L 755.66318 492.833957 
L 756.610247 493.214917 
L 757.557314 492.845001 
L 758.504381 491.727807 
L 759.451448 489.86994 
L 760.398515 487.273709 
L 761.345582 483.937237 
L 762.292649 479.849361 
L 763.239716 474.992334 
L 764.186783 469.366853 
L 766.080917 455.961735 
L 767.97505 440.117685 
L 774.604519 381.166576 
L 776.498653 367.054084 
L 778.392787 354.330962 
L 781.233987 336.71379 
L 790.704657 279.298192 
L 792.598791 267.147722 
L 794.492925 256.489144 
L 795.439992 252.043297 
L 796.387058 248.29715 
L 797.334125 245.311619 
L 798.281192 243.117132 
L 799.228259 241.701267 
L 800.175326 241.024908 
L 801.122393 241.053294 
L 802.06946 241.762729 
L 803.016527 243.121686 
L 803.963594 245.088385 
L 804.910661 247.597469 
L 806.804795 253.857073 
L 809.645996 264.860337 
L 811.540129 272.102944 
L 813.434263 278.529963 
L 819.116665 295.89309 
L 821.010799 302.963344 
L 822.904933 311.34981 
L 824.799067 321.36481 
L 826.6932 333.030217 
L 828.587334 346.100134 
L 830.481468 360.407337 
L 833.322669 383.833914 
L 836.16387 407.640636 
L 838.058004 421.9257 
L 839.952137 434.072334 
L 841.846271 443.954241 
L 842.793338 448.069685 
L 843.740405 451.633879 
L 844.687472 454.637728 
L 845.634539 457.096466 
L 846.581606 459.058662 
L 847.528673 460.604954 
L 848.47574 461.836403 
L 852.264008 466.04759 
L 854.158142 468.78652 
L 859.840543 477.99664 
L 861.734677 480.442545 
L 863.628811 482.468837 
L 865.522945 484.128624 
L 868.364146 486.493407 
L 869.311212 487.457735 
L 870.258279 488.609766 
L 871.205346 490.012385 
L 872.152413 491.715364 
L 873.09948 493.749873 
L 874.046547 496.131078 
L 875.940681 501.931036 
L 877.834815 508.887121 
L 883.517217 531.258161 
L 884.464283 534.407214 
L 885.41135 537.124163 
L 886.358417 539.276799 
L 887.305484 540.735942 
L 888.252551 541.399173 
L 889.199618 541.18905 
L 890.146685 540.055971 
L 891.093752 537.971227 
L 892.040819 534.922753 
L 892.987886 530.909669 
L 893.934953 525.942055 
L 894.88202 520.043183 
L 895.829087 513.243472 
L 897.723221 497.046738 
L 899.617354 477.523344 
L 901.511488 454.856791 
L 903.405622 429.208583 
L 906.246823 386.279686 
L 911.929225 297.638046 
L 915.717492 243.029783 
L 918.558693 205.980322 
L 920.452827 184.157365 
L 922.346961 165.145491 
L 924.241095 148.912046 
L 926.135229 135.406901 
L 927.082296 129.79557 
L 928.029362 125.047976 
L 928.976429 121.224919 
L 929.923496 118.364054 
L 930.870563 116.478192 
L 931.81763 115.577898 
L 932.764697 115.686367 
L 933.711764 116.816098 
L 934.658831 118.940757 
L 935.605898 122.006372 
L 936.552965 125.932573 
L 937.500032 130.623963 
L 939.394166 141.892487 
L 941.2883 155.038353 
L 944.1295 176.850832 
L 947.917768 206.318192 
L 949.811902 219.717885 
L 951.706036 232.004594 
L 954.547237 248.727551 
L 958.335504 269.103164 
L 963.070839 293.153153 
L 967.806174 316.862104 
L 970.647375 332.164219 
L 974.435642 353.875447 
L 976.329776 365.858274 
L 978.22391 379.166342 
L 980.118044 394.035279 
L 982.012178 410.349498 
L 984.853379 436.991477 
L 988.641646 475.1517 
L 993.376981 522.57669 
L 996.218182 549.400102 
L 996.218182 549.400102 
" style="fill:none;stroke:#009e73;stroke-linecap:round;"/>
   </g>
  </g>
  <g id="text_15">
   <g id="patch_4">
    <path d="M 874.374375 646.18275 
L 1040.76 646.18275 
L 1040.76 628.26525 
L 874.374375 628.26525 
z
" style="fill:#ffffff;stroke:#ffffff;stroke-linejoin:miter;"/>
   </g>
   <!-- Created: 2024-02-08 11:46:38 -->
   <g style="fill:#696969;" transform="translate(878.334375 640.224)scale(0.12 -0.12)">
    <defs>
     <path d="M 17.96875 49.3125 
L 17.96875 38.375 
L 7.078125 38.375 
L 7.078125 49.3125 
z
M 17.96875 10.984375 
L 17.96875 0 
L 7.078125 0 
L 7.078125 10.984375 
z
" id="FranklinGothic-Book-58"/>
     <path d="M 44.09375 0 
L 36.03125 0 
L 36.03125 15.875 
L 3.078125 15.875 
L 3.078125 21.484375 
L 33.640625 68.0625 
L 44.09375 68.0625 
L 44.09375 22.46875 
L 54.890625 22.46875 
L 54.890625 15.875 
L 44.09375 15.875 
z
M 36.03125 22.46875 
L 36.03125 54 
Q 36.03125 57.421875 36.1875 61.375 
Q 34.078125 57.515625 32.5625 55.125 
L 11.765625 22.46875 
z
" id="FranklinGothic-Book-52"/>
    </defs>
    <use xlink:href="#FranklinGothic-Book-67"/>
    <use x="57.910156" xlink:href="#FranklinGothic-Book-114"/>
    <use x="90.869141" xlink:href="#FranklinGothic-Book-101"/>
    <use x="142.919922" xlink:href="#FranklinGothic-Book-97"/>
    <use x="195.800781" xlink:href="#FranklinGothic-Book-116"/>
    <use x="224.8125" xlink:href="#FranklinGothic-Book-101"/>
    <use x="276.863281" xlink:href="#FranklinGothic-Book-100"/>
    <use x="330.720703" xlink:href="#FranklinGothic-Book-58"/>
    <use x="355.720703" xlink:href="#FranklinGothic-Book-32"/>
    <use x="380.720703" xlink:href="#FranklinGothic-Book-50"/>
    <use x="439.363281" xlink:href="#FranklinGothic-Book-48"/>
    <use x="498.005859" xlink:href="#FranklinGothic-Book-50"/>
    <use x="552.273438" xlink:href="#FranklinGothic-Book-52"/>
    <use x="610.916016" xlink:href="#FranklinGothic-Book-45"/>
    <use x="635.916016" xlink:href="#FranklinGothic-Book-48"/>
    <use x="694.558594" xlink:href="#FranklinGothic-Book-50"/>
    <use x="753.201172" xlink:href="#FranklinGothic-Book-45"/>
    <use x="778.201172" xlink:href="#FranklinGothic-Book-48"/>
    <use x="836.84375" xlink:href="#FranklinGothic-Book-56"/>
    <use x="895.486328" xlink:href="#FranklinGothic-Book-32"/>
    <use x="920.486328" xlink:href="#FranklinGothic-Book-49"/>
    <use x="977.378906" xlink:href="#FranklinGothic-Book-49"/>
    <use x="1036.021484" xlink:href="#FranklinGothic-Book-58"/>
    <use x="1061.021484" xlink:href="#FranklinGothic-Book-52"/>
    <use x="1119.664062" xlink:href="#FranklinGothic-Book-54"/>
    <use x="1178.306641" xlink:href="#FranklinGothic-Book-58"/>
    <use x="1203.306641" xlink:href="#FranklinGothic-Book-51"/>
    <use x="1261.949219" xlink:href="#FranklinGothic-Book-56"/>
   </g>
  </g>
 </g>
 <defs>
  <clipPath id="pccc126f325">
   <rect height="498.96" width="892.8" x="144" y="77.76"/>
  </clipPath>
 </defs>
</svg>
