<?xml version="1.0" encoding="utf-8" standalone="no"?>
<!DOCTYPE svg PUBLIC "-//W3C//DTD SVG 1.1//EN"
  "http://www.w3.org/Graphics/SVG/1.1/DTD/svg11.dtd">
<!-- Created with matplotlib (https://matplotlib.org/) -->
<svg height="648pt" version="1.1" viewBox="0 0 1152 648" width="1152pt" xmlns="http://www.w3.org/2000/svg" xmlns:xlink="http://www.w3.org/1999/xlink">
 <metadata>
  <rdf:RDF xmlns:cc="http://creativecommons.org/ns#" xmlns:dc="http://purl.org/dc/elements/1.1/" xmlns:rdf="http://www.w3.org/1999/02/22-rdf-syntax-ns#">
   <cc:Work>
    <dc:type rdf:resource="http://purl.org/dc/dcmitype/StillImage"/>
    <dc:date>2024-02-08T11:46:36.687153</dc:date>
    <dc:format>image/svg+xml</dc:format>
    <dc:creator>
     <cc:Agent>
      <dc:title>Matplotlib v3.3.1, https://matplotlib.org/</dc:title>
     </cc:Agent>
    </dc:creator>
   </cc:Work>
  </rdf:RDF>
 </metadata>
 <defs>
  <style type="text/css">*{stroke-linecap:butt;stroke-linejoin:round;}</style>
 </defs>
 <g id="figure_1">
  <g id="patch_1">
   <path d="M 0 648 
L 1152 648 
L 1152 0 
L 0 0 
z
" style="fill:#ffffff;"/>
  </g>
  <g id="axes_1">
   <g id="patch_2">
    <path d="M 144 576.72 
L 1036.8 576.72 
L 1036.8 77.76 
L 144 77.76 
z
" style="fill:none;"/>
   </g>
   <g id="patch_3">
    <path d="M 144 576.72 
L 1036.8 576.72 
" style="fill:none;stroke:#d3d3d3;stroke-linecap:square;stroke-linejoin:miter;stroke-width:1.25;"/>
   </g>
   <g id="matplotlib.axis_1">
    <g id="xtick_1">
     <g id="line2d_1">
      <defs>
       <path d="M 0 0 
L 0 6 
" id="m7dcffaa3ec" style="stroke:#696969;stroke-width:1.25;"/>
      </defs>
      <g>
       <use style="fill:#696969;stroke:#696969;stroke-width:1.25;" x="367.687642" xlink:href="#m7dcffaa3ec" y="576.72"/>
      </g>
     </g>
     <g id="text_1">
      <!-- 2000 -->
      <g style="fill:#696969;" transform="translate(340.712955 601.550938)scale(0.23 -0.23)">
       <defs>
        <path d="M 52.484375 6.9375 
L 52.484375 0 
L 5.171875 0 
L 5.171875 6.9375 
Q 33.203125 27.9375 38.59375 34.59375 
Q 44 41.265625 44 47.796875 
Q 44 53.90625 39.453125 57.65625 
Q 34.90625 61.421875 29 61.421875 
Q 22.90625 61.421875 18.21875 57.296875 
Q 13.53125 53.171875 12.9375 46.09375 
L 5.171875 48.4375 
Q 10.0625 68.015625 29.109375 68.015625 
Q 39.40625 68.015625 45.84375 62.15625 
Q 52.296875 56.296875 52.296875 47.859375 
Q 52.296875 42.046875 49.234375 36.671875 
Q 46.1875 31.296875 37.6875 23.828125 
Q 29.203125 16.359375 15.71875 6.9375 
z
" id="FranklinGothic-Book-50"/>
        <path d="M 29.390625 -1.3125 
Q 17.875 -1.3125 10.984375 8.671875 
Q 4.109375 18.65625 4.109375 33.453125 
Q 4.109375 48 10.640625 58 
Q 17.1875 68.015625 29.15625 68.015625 
Q 41.65625 68.015625 48.125 57.5625 
Q 54.59375 47.125 54.59375 33.0625 
Q 54.59375 19.28125 47.953125 8.984375 
Q 41.3125 -1.3125 29.390625 -1.3125 
z
M 29.4375 5.21875 
Q 37.890625 5.21875 41.9375 12.859375 
Q 46 20.515625 46 32.078125 
Q 46 44.734375 41.84375 53.125 
Q 37.703125 61.53125 29.046875 61.53125 
Q 20.703125 61.53125 16.625 53.859375 
Q 12.546875 46.1875 12.546875 33.6875 
Q 12.546875 20.703125 16.84375 12.953125 
Q 21.140625 5.21875 29.4375 5.21875 
z
" id="FranklinGothic-Book-48"/>
       </defs>
       <use xlink:href="#FranklinGothic-Book-50"/>
       <use x="58.642578" xlink:href="#FranklinGothic-Book-48"/>
       <use x="117.285156" xlink:href="#FranklinGothic-Book-48"/>
       <use x="175.927734" xlink:href="#FranklinGothic-Book-48"/>
      </g>
     </g>
    </g>
    <g id="xtick_2">
     <g id="line2d_2">
      <g>
       <use style="fill:#696969;stroke:#696969;stroke-width:1.25;" x="629.677551" xlink:href="#m7dcffaa3ec" y="576.72"/>
      </g>
     </g>
     <g id="text_2">
      <!-- 2010 -->
      <g style="fill:#696969;" transform="translate(603.507864 601.550938)scale(0.23 -0.23)">
       <defs>
        <path d="M 55.859375 6.203125 
L 55.859375 0 
L 9.1875 0 
L 9.1875 6.203125 
L 29.203125 6.203125 
L 29.203125 57.671875 
Q 20.359375 48.4375 10.84375 43.265625 
L 10.84375 51.65625 
Q 23.96875 58.546875 31.203125 68.015625 
L 37.15625 68.015625 
L 37.15625 6.203125 
z
" id="FranklinGothic-Book-49"/>
       </defs>
       <use xlink:href="#FranklinGothic-Book-50"/>
       <use x="58.642578" xlink:href="#FranklinGothic-Book-48"/>
       <use x="113.535156" xlink:href="#FranklinGothic-Book-49"/>
       <use x="168.927734" xlink:href="#FranklinGothic-Book-48"/>
      </g>
     </g>
    </g>
    <g id="xtick_3">
     <g id="line2d_3">
      <g>
       <use style="fill:#696969;stroke:#696969;stroke-width:1.25;" x="891.66746" xlink:href="#m7dcffaa3ec" y="576.72"/>
      </g>
     </g>
     <g id="text_3">
      <!-- 2020 -->
      <g style="fill:#696969;" transform="translate(864.692772 601.550938)scale(0.23 -0.23)">
       <use xlink:href="#FranklinGothic-Book-50"/>
       <use x="58.642578" xlink:href="#FranklinGothic-Book-48"/>
       <use x="117.285156" xlink:href="#FranklinGothic-Book-50"/>
       <use x="175.927734" xlink:href="#FranklinGothic-Book-48"/>
      </g>
     </g>
    </g>
    <g id="text_4">
     <!-- Year -->
     <g style="fill:#696969;" transform="translate(569.365781 624.712813)scale(0.23 -0.23)">
      <defs>
       <path d="M 52 66.65625 
L 29.6875 28.03125 
L 29.6875 0 
L 21.34375 0 
L 21.34375 28.03125 
L -0.984375 66.65625 
L 8.84375 66.65625 
L 26.5625 35.984375 
L 44.390625 66.65625 
z
" id="FranklinGothic-Book-89"/>
       <path d="M 40.234375 14.703125 
L 47.359375 13.234375 
Q 45.40625 6.9375 39.734375 2.8125 
Q 34.078125 -1.3125 26.421875 -1.3125 
Q 16.3125 -1.3125 10.0625 5.78125 
Q 3.8125 12.890625 3.8125 24.421875 
Q 3.8125 36.1875 10.296875 43.4375 
Q 16.796875 50.6875 26.609375 50.6875 
Q 36.28125 50.6875 42.15625 44 
Q 48.046875 37.3125 48.1875 23.96875 
L 12.359375 23.96875 
Q 12.359375 12.796875 17.046875 8.890625 
Q 21.734375 4.984375 26.953125 4.984375 
Q 36.375 4.984375 40.234375 14.703125 
z
M 39.796875 29.6875 
Q 39.703125 33.84375 38.421875 37.0625 
Q 37.15625 40.28125 34.125 42.546875 
Q 31.109375 44.828125 26.859375 44.828125 
Q 21.140625 44.828125 17.15625 40.71875 
Q 13.1875 36.625 12.703125 29.6875 
z
" id="FranklinGothic-Book-101"/>
       <path d="M 46.296875 0 
L 38.671875 0 
Q 38.234375 2.34375 37.796875 8.890625 
Q 32.71875 -1.3125 20.515625 -1.3125 
Q 12.203125 -1.3125 7.765625 3.078125 
Q 3.328125 7.46875 3.328125 13.625 
Q 3.328125 21.09375 9.671875 25.90625 
Q 16.015625 30.71875 31.25 30.71875 
Q 33.296875 30.71875 37.796875 30.515625 
Q 37.796875 36.375 36.890625 38.984375 
Q 35.984375 41.609375 33.046875 43.171875 
Q 30.125 44.734375 25.34375 44.734375 
Q 13.671875 44.734375 11.765625 35.84375 
L 4.6875 37.0625 
Q 7.28125 50.6875 26.46875 50.6875 
Q 36.671875 50.6875 40.9375 46.171875 
Q 45.21875 41.65625 45.21875 30.515625 
L 45.21875 9.578125 
Q 45.21875 4.34375 46.296875 0 
z
M 37.796875 24.65625 
Q 33.109375 24.953125 30.671875 24.953125 
Q 21.578125 24.953125 16.546875 21.96875 
Q 11.53125 19 11.53125 13.28125 
Q 11.53125 9.671875 14.234375 7.125 
Q 16.9375 4.59375 22.078125 4.59375 
Q 29 4.59375 33.46875 9.625 
Q 37.9375 14.65625 37.9375 21.4375 
Q 37.9375 22.796875 37.796875 24.65625 
z
" id="FranklinGothic-Book-97"/>
       <path d="M 15.328125 0 
L 7.671875 0 
L 7.671875 49.3125 
L 14.40625 49.3125 
L 14.40625 37.796875 
Q 17.96875 45.953125 21.546875 48.359375 
Q 25.140625 50.78125 28.90625 50.78125 
Q 30.078125 50.78125 31.9375 50.59375 
L 31.9375 43.265625 
L 30.375 43.265625 
Q 24.03125 43.265625 19.828125 38.53125 
Q 15.625 33.796875 15.328125 26.078125 
z
" id="FranklinGothic-Book-114"/>
      </defs>
      <use xlink:href="#FranklinGothic-Book-89"/>
      <use x="45.025391" xlink:href="#FranklinGothic-Book-101"/>
      <use x="97.076172" xlink:href="#FranklinGothic-Book-97"/>
      <use x="149.957031" xlink:href="#FranklinGothic-Book-114"/>
     </g>
    </g>
   </g>
   <g id="matplotlib.axis_2">
    <g id="ytick_1">
     <g id="line2d_4">
      <path clip-path="url(#pcfd17d7230)" d="M 144 555.649019 
L 1036.8 555.649019 
" style="fill:none;stroke:#d3d3d3;stroke-linecap:round;stroke-opacity:0.5;"/>
     </g>
     <g id="text_5">
      <!-- 0 -->
      <g style="fill:#696969;" transform="translate(121.012656 563.314488)scale(0.23 -0.23)">
       <use xlink:href="#FranklinGothic-Book-48"/>
      </g>
     </g>
    </g>
    <g id="ytick_2">
     <g id="line2d_5">
      <path clip-path="url(#pcfd17d7230)" d="M 144 516.363129 
L 1036.8 516.363129 
" style="fill:none;stroke:#d3d3d3;stroke-linecap:round;stroke-opacity:0.5;"/>
     </g>
     <g id="text_6">
      <!-- 10 -->
      <g style="fill:#696969;" transform="translate(108.272813 524.028598)scale(0.23 -0.23)">
       <use xlink:href="#FranklinGothic-Book-49"/>
       <use x="55.392578" xlink:href="#FranklinGothic-Book-48"/>
      </g>
     </g>
    </g>
    <g id="ytick_3">
     <g id="line2d_6">
      <path clip-path="url(#pcfd17d7230)" d="M 144 477.077238 
L 1036.8 477.077238 
" style="fill:none;stroke:#d3d3d3;stroke-linecap:round;stroke-opacity:0.5;"/>
     </g>
     <g id="text_7">
      <!-- 20 -->
      <g style="fill:#696969;" transform="translate(107.525312 484.742707)scale(0.23 -0.23)">
       <use xlink:href="#FranklinGothic-Book-50"/>
       <use x="58.642578" xlink:href="#FranklinGothic-Book-48"/>
      </g>
     </g>
    </g>
    <g id="ytick_4">
     <g id="line2d_7">
      <path clip-path="url(#pcfd17d7230)" d="M 144 437.791348 
L 1036.8 437.791348 
" style="fill:none;stroke:#d3d3d3;stroke-linecap:round;stroke-opacity:0.5;"/>
     </g>
     <g id="text_8">
      <!-- 30 -->
      <g style="fill:#696969;" transform="translate(107.525312 445.456816)scale(0.23 -0.23)">
       <defs>
        <path d="M 19.34375 31.34375 
L 19.34375 37.984375 
L 26.953125 37.984375 
Q 35.296875 37.984375 38.890625 41.40625 
Q 42.484375 44.828125 42.484375 49.703125 
Q 42.484375 55.078125 38.46875 58.21875 
Q 34.46875 61.375 28.421875 61.375 
Q 17.1875 61.375 12.890625 50.53125 
L 5.375 52.6875 
Q 11.8125 68.015625 29.203125 68.015625 
Q 38.96875 68.015625 44.96875 62.8125 
Q 50.984375 57.625 50.984375 50.296875 
Q 50.984375 44.625 47.359375 40.40625 
Q 43.75 36.1875 38.09375 35.109375 
Q 44.4375 34.1875 49 29.78125 
Q 53.5625 25.390625 53.5625 18.40625 
Q 53.5625 10.0625 46.765625 4.375 
Q 39.984375 -1.3125 28.171875 -1.3125 
Q 18.796875 -1.3125 12.125 3.125 
Q 5.46875 7.5625 2.9375 14.9375 
L 10.6875 17.53125 
Q 14.203125 5.46875 28.03125 5.46875 
Q 37.015625 5.46875 40.9375 9.296875 
Q 44.875 13.140625 44.875 18.453125 
Q 44.875 24.21875 40.15625 27.78125 
Q 35.453125 31.34375 26.953125 31.34375 
z
" id="FranklinGothic-Book-51"/>
       </defs>
       <use xlink:href="#FranklinGothic-Book-51"/>
       <use x="58.642578" xlink:href="#FranklinGothic-Book-48"/>
      </g>
     </g>
    </g>
    <g id="ytick_5">
     <g id="line2d_8">
      <path clip-path="url(#pcfd17d7230)" d="M 144 398.505457 
L 1036.8 398.505457 
" style="fill:none;stroke:#d3d3d3;stroke-linecap:round;stroke-opacity:0.5;"/>
     </g>
     <g id="text_9">
      <!-- 40 -->
      <g style="fill:#696969;" transform="translate(107.525312 406.170926)scale(0.23 -0.23)">
       <defs>
        <path d="M 44.09375 0 
L 36.03125 0 
L 36.03125 15.875 
L 3.078125 15.875 
L 3.078125 21.484375 
L 33.640625 68.0625 
L 44.09375 68.0625 
L 44.09375 22.46875 
L 54.890625 22.46875 
L 54.890625 15.875 
L 44.09375 15.875 
z
M 36.03125 22.46875 
L 36.03125 54 
Q 36.03125 57.421875 36.1875 61.375 
Q 34.078125 57.515625 32.5625 55.125 
L 11.765625 22.46875 
z
" id="FranklinGothic-Book-52"/>
       </defs>
       <use xlink:href="#FranklinGothic-Book-52"/>
       <use x="58.642578" xlink:href="#FranklinGothic-Book-48"/>
      </g>
     </g>
    </g>
    <g id="ytick_6">
     <g id="line2d_9">
      <path clip-path="url(#pcfd17d7230)" d="M 144 359.219566 
L 1036.8 359.219566 
" style="fill:none;stroke:#d3d3d3;stroke-linecap:round;stroke-opacity:0.5;"/>
     </g>
     <g id="text_10">
      <!-- 50 -->
      <g style="fill:#696969;" transform="translate(107.525312 366.885035)scale(0.23 -0.23)">
       <defs>
        <path d="M 48.875 66.65625 
L 48.1875 59.46875 
L 15.4375 59.46875 
L 14.015625 37.84375 
Q 21.4375 45.125 30.328125 45.125 
Q 39.703125 45.125 46.515625 38.625 
Q 53.328125 32.125 53.328125 22.015625 
Q 53.328125 11.765625 45.921875 5.21875 
Q 38.53125 -1.3125 27.828125 -1.3125 
Q 19.4375 -1.3125 12.890625 3.078125 
Q 6.34375 7.46875 4.296875 14.453125 
L 11.421875 16.890625 
Q 15.828125 5.28125 27.9375 5.28125 
Q 35.890625 5.28125 40.578125 9.984375 
Q 45.265625 14.703125 45.265625 22.015625 
Q 45.265625 29.6875 40.625 33.984375 
Q 35.984375 38.28125 29.5 38.28125 
Q 20.015625 38.28125 13.8125 29.203125 
L 7.234375 30.609375 
L 9.375 66.65625 
z
" id="FranklinGothic-Book-53"/>
       </defs>
       <use xlink:href="#FranklinGothic-Book-53"/>
       <use x="58.642578" xlink:href="#FranklinGothic-Book-48"/>
      </g>
     </g>
    </g>
    <g id="ytick_7">
     <g id="line2d_10">
      <path clip-path="url(#pcfd17d7230)" d="M 144 319.933676 
L 1036.8 319.933676 
" style="fill:none;stroke:#d3d3d3;stroke-linecap:round;stroke-opacity:0.5;"/>
     </g>
     <g id="text_11">
      <!-- 60 -->
      <g style="fill:#696969;" transform="translate(107.525312 327.599144)scale(0.23 -0.23)">
       <defs>
        <path d="M 53.5625 53.03125 
L 46.046875 50.984375 
Q 42.1875 61.140625 31.984375 61.140625 
Q 13.234375 61.140625 12.796875 30.125 
Q 15.765625 37.015625 21.234375 40.328125 
Q 26.703125 43.65625 32.8125 43.65625 
Q 42.09375 43.65625 48.359375 37.1875 
Q 54.640625 30.71875 54.640625 21.6875 
Q 54.640625 12.3125 47.96875 5.5 
Q 41.3125 -1.3125 30.90625 -1.3125 
Q 19.09375 -1.3125 12.078125 7.59375 
Q 5.078125 16.5 5.078125 31.84375 
Q 5.078125 46.828125 11.6875 57.421875 
Q 18.3125 68.015625 32.171875 68.015625 
Q 48.140625 68.015625 53.5625 53.03125 
z
M 30.765625 5.375 
Q 37.84375 5.375 42.359375 10.03125 
Q 46.875 14.703125 46.875 21.234375 
Q 46.875 27.6875 42.453125 32.296875 
Q 38.03125 36.921875 31.5 36.921875 
Q 24.75 36.921875 19.71875 32.078125 
Q 14.703125 27.25 14.703125 20.75 
Q 14.703125 14.75 19.1875 10.0625 
Q 23.6875 5.375 30.765625 5.375 
z
" id="FranklinGothic-Book-54"/>
       </defs>
       <use xlink:href="#FranklinGothic-Book-54"/>
       <use x="58.642578" xlink:href="#FranklinGothic-Book-48"/>
      </g>
     </g>
    </g>
    <g id="ytick_8">
     <g id="line2d_11">
      <path clip-path="url(#pcfd17d7230)" d="M 144 280.647785 
L 1036.8 280.647785 
" style="fill:none;stroke:#d3d3d3;stroke-linecap:round;stroke-opacity:0.5;"/>
     </g>
     <g id="text_12">
      <!-- 70 -->
      <g style="fill:#696969;" transform="translate(107.525312 288.313254)scale(0.23 -0.23)">
       <defs>
        <path d="M 28.078125 0 
L 19.484375 0 
Q 19.484375 16.75 26.3125 32.59375 
Q 33.15625 48.4375 43.0625 59.328125 
L 6.890625 59.328125 
L 7.71875 66.65625 
L 51.765625 66.65625 
L 51.765625 61.671875 
Q 39.84375 47.3125 33.9375 31.78125 
Q 28.03125 16.265625 28.03125 2.296875 
Q 28.03125 1.515625 28.078125 0 
z
" id="FranklinGothic-Book-55"/>
       </defs>
       <use xlink:href="#FranklinGothic-Book-55"/>
       <use x="58.642578" xlink:href="#FranklinGothic-Book-48"/>
      </g>
     </g>
    </g>
    <g id="ytick_9">
     <g id="line2d_12">
      <path clip-path="url(#pcfd17d7230)" d="M 144 241.361894 
L 1036.8 241.361894 
" style="fill:none;stroke:#d3d3d3;stroke-linecap:round;stroke-opacity:0.5;"/>
     </g>
     <g id="text_13">
      <!-- 80 -->
      <g style="fill:#696969;" transform="translate(107.525312 249.027363)scale(0.23 -0.23)">
       <defs>
        <path d="M 19.484375 34.578125 
Q 6.84375 40.09375 6.84375 50.59375 
Q 6.84375 58.203125 13.140625 63.109375 
Q 19.4375 68.015625 29.828125 68.015625 
Q 40.09375 68.015625 46.140625 63.296875 
Q 52.203125 58.59375 52.203125 50.984375 
Q 52.203125 40.375 39.265625 35.796875 
Q 49.703125 30.953125 52.359375 26.453125 
Q 55.03125 21.96875 55.03125 17.484375 
Q 55.03125 9.46875 48.21875 4.078125 
Q 41.40625 -1.3125 29.734375 -1.3125 
Q 17.28125 -1.3125 10.4375 4.171875 
Q 3.609375 9.671875 3.609375 17.234375 
Q 3.609375 28.515625 19.484375 34.578125 
z
M 29.59375 38.71875 
Q 37.984375 40.96875 41.453125 43.890625 
Q 44.921875 46.828125 44.921875 51.21875 
Q 44.921875 56.34375 40.796875 59 
Q 36.671875 61.671875 29.9375 61.671875 
Q 23.484375 61.671875 19.375 58.859375 
Q 15.28125 56.0625 15.28125 51.3125 
Q 15.28125 46.625 19.84375 43.203125 
Q 24.421875 39.796875 29.59375 38.71875 
z
M 28.65625 31.0625 
Q 11.765625 27.046875 11.765625 16.9375 
Q 11.765625 11.671875 16.375 8.328125 
Q 21 4.984375 29.984375 4.984375 
Q 37.59375 4.984375 42.234375 8.25 
Q 46.875 11.53125 46.875 16.609375 
Q 46.875 26.3125 28.65625 31.0625 
z
" id="FranklinGothic-Book-56"/>
       </defs>
       <use xlink:href="#FranklinGothic-Book-56"/>
       <use x="58.642578" xlink:href="#FranklinGothic-Book-48"/>
      </g>
     </g>
    </g>
    <g id="ytick_10">
     <g id="line2d_13">
      <path clip-path="url(#pcfd17d7230)" d="M 144 202.076004 
L 1036.8 202.076004 
" style="fill:none;stroke:#d3d3d3;stroke-linecap:round;stroke-opacity:0.5;"/>
     </g>
     <g id="text_14">
      <!-- 90 -->
      <g style="fill:#696969;" transform="translate(107.525312 209.741472)scale(0.23 -0.23)">
       <defs>
        <path d="M 5.71875 12.15625 
L 12.40625 14.59375 
Q 16.546875 5.375 26.375 5.375 
Q 35.890625 5.375 40.703125 13.375 
Q 45.515625 21.390625 45.65625 35.109375 
Q 39.109375 23.09375 25.984375 23.09375 
Q 16.703125 23.09375 10.40625 29.421875 
Q 4.109375 35.75 4.109375 45.0625 
Q 4.109375 54.546875 10.71875 61.28125 
Q 17.328125 68.015625 27.59375 68.015625 
Q 40.140625 68.015625 46.828125 59.203125 
Q 53.515625 50.390625 53.515625 34.96875 
Q 53.515625 18.75 46.4375 8.71875 
Q 39.359375 -1.3125 26.265625 -1.3125 
Q 10.984375 -1.3125 5.71875 12.15625 
z
M 27.828125 29.78125 
Q 34.71875 29.78125 39.375 34.59375 
Q 44.046875 39.40625 44.046875 45.84375 
Q 44.046875 52.09375 39.625 56.578125 
Q 35.203125 61.078125 27.984375 61.078125 
Q 20.65625 61.078125 16.40625 56.46875 
Q 12.15625 51.859375 12.15625 45.21875 
Q 12.15625 38.09375 16.859375 33.9375 
Q 21.578125 29.78125 27.828125 29.78125 
z
" id="FranklinGothic-Book-57"/>
       </defs>
       <use xlink:href="#FranklinGothic-Book-57"/>
       <use x="58.642578" xlink:href="#FranklinGothic-Book-48"/>
      </g>
     </g>
    </g>
    <g id="ytick_11">
     <g id="line2d_14">
      <path clip-path="url(#pcfd17d7230)" d="M 144 162.790113 
L 1036.8 162.790113 
" style="fill:none;stroke:#d3d3d3;stroke-linecap:round;stroke-opacity:0.5;"/>
     </g>
     <g id="text_15">
      <!-- 100 -->
      <g style="fill:#696969;" transform="translate(94.785469 170.455582)scale(0.23 -0.23)">
       <use xlink:href="#FranklinGothic-Book-49"/>
       <use x="55.392578" xlink:href="#FranklinGothic-Book-48"/>
       <use x="114.035156" xlink:href="#FranklinGothic-Book-48"/>
      </g>
     </g>
    </g>
    <g id="ytick_12">
     <g id="line2d_15">
      <path clip-path="url(#pcfd17d7230)" d="M 144 123.504222 
L 1036.8 123.504222 
" style="fill:none;stroke:#d3d3d3;stroke-linecap:round;stroke-opacity:0.5;"/>
     </g>
     <g id="text_16">
      <!-- 110 -->
      <g style="fill:#696969;" transform="translate(95.187969 131.169691)scale(0.23 -0.23)">
       <use xlink:href="#FranklinGothic-Book-49"/>
       <use x="56.892578" xlink:href="#FranklinGothic-Book-49"/>
       <use x="112.285156" xlink:href="#FranklinGothic-Book-48"/>
      </g>
     </g>
    </g>
    <g id="ytick_13">
     <g id="line2d_16">
      <path clip-path="url(#pcfd17d7230)" d="M 144 84.218332 
L 1036.8 84.218332 
" style="fill:none;stroke:#d3d3d3;stroke-linecap:round;stroke-opacity:0.5;"/>
     </g>
     <g id="text_17">
      <!-- 120 -->
      <g style="fill:#696969;" transform="translate(94.037969 91.883801)scale(0.23 -0.23)">
       <use xlink:href="#FranklinGothic-Book-49"/>
       <use x="58.642578" xlink:href="#FranklinGothic-Book-50"/>
       <use x="117.285156" xlink:href="#FranklinGothic-Book-48"/>
      </g>
     </g>
    </g>
    <g id="text_18">
     <!-- mm -->
     <g style="fill:#696969;" transform="translate(80.207031 345.959844)rotate(-90)scale(0.23 -0.23)">
      <defs>
       <path d="M 73.734375 0 
L 66.265625 0 
L 66.265625 30.671875 
Q 66.265625 35.40625 65.59375 37.765625 
Q 64.9375 40.140625 62.390625 42.109375 
Q 59.859375 44.09375 56.6875 44.09375 
Q 52.296875 44.09375 48.21875 40.0625 
Q 44.140625 36.03125 44.140625 27.78125 
L 44.140625 0 
L 36.71875 0 
L 36.71875 32.46875 
Q 36.71875 38.96875 33.609375 41.65625 
Q 30.515625 44.34375 27.09375 44.34375 
Q 22.21875 44.34375 18.59375 40.140625 
Q 14.984375 35.9375 14.984375 29.5 
L 14.984375 0 
L 7.671875 0 
L 7.671875 49.3125 
L 14.265625 49.3125 
L 14.265625 39.84375 
Q 19.78125 50.6875 29.4375 50.6875 
Q 34.765625 50.6875 38.46875 47.21875 
Q 42.1875 43.75 43.265625 38.875 
Q 48.34375 50.6875 58.84375 50.6875 
Q 63.875 50.6875 67.65625 47.796875 
Q 71.4375 44.921875 72.578125 41.1875 
Q 73.734375 37.453125 73.734375 30.671875 
z
" id="FranklinGothic-Book-109"/>
      </defs>
      <use xlink:href="#FranklinGothic-Book-109"/>
      <use x="81.396484" xlink:href="#FranklinGothic-Book-109"/>
     </g>
    </g>
   </g>
   <g id="text_19">
    <!-- Global mean sea level change -->
    <g style="fill:#696969;" transform="translate(144 42.76)scale(0.4 -0.4)">
     <defs>
      <path d="M 57.71875 33.59375 
L 57.71875 -0.875 
L 52.59375 -0.875 
L 50.296875 7.46875 
Q 44.140625 -1.3125 31.984375 -1.3125 
Q 18.796875 -1.3125 11.46875 8.59375 
Q 4.15625 18.5 4.15625 32.671875 
Q 4.15625 47.796875 11.90625 57.90625 
Q 19.671875 68.015625 33.015625 68.015625 
Q 51.421875 68.015625 57.03125 48.6875 
L 49.125 46.78125 
Q 47.40625 54.203125 42.71875 57.5625 
Q 38.03125 60.9375 32.46875 60.9375 
Q 22.609375 60.9375 17.921875 52.96875 
Q 13.234375 45.015625 13.234375 33.015625 
Q 13.234375 20.0625 18.484375 12.765625 
Q 23.734375 5.46875 32.765625 5.46875 
Q 39.796875 5.46875 44.5 10.125 
Q 49.21875 14.796875 49.21875 23 
Q 49.21875 24.515625 49.125 26.609375 
L 32.625 26.609375 
L 32.625 33.59375 
z
" id="FranklinGothic-Book-71"/>
      <path d="M 15.328125 0 
L 7.671875 0 
L 7.671875 66.65625 
L 15.328125 66.65625 
z
" id="FranklinGothic-Book-108"/>
      <path d="M 25.34375 -1.3125 
Q 15.1875 -1.3125 9.5 6.203125 
Q 3.8125 13.71875 3.8125 24.859375 
Q 3.8125 36.625 10.203125 43.65625 
Q 16.609375 50.6875 26.125 50.6875 
Q 36.328125 50.6875 42.203125 43.28125 
Q 48.09375 35.890625 48.09375 24.8125 
Q 48.09375 13.28125 41.75 5.984375 
Q 35.40625 -1.3125 25.34375 -1.3125 
z
M 25.921875 4.984375 
Q 31.78125 4.984375 35.734375 9.8125 
Q 39.703125 14.65625 39.703125 24.859375 
Q 39.703125 35.109375 35.546875 39.71875 
Q 31.390625 44.34375 25.828125 44.34375 
Q 20.125 44.34375 16.15625 39.671875 
Q 12.203125 35.015625 12.203125 24.90625 
Q 12.203125 14.203125 16.15625 9.59375 
Q 20.125 4.984375 25.921875 4.984375 
z
" id="FranklinGothic-Book-111"/>
      <path d="M 11.375 0 
L 7.671875 0 
L 7.671875 66.65625 
L 15.328125 66.65625 
L 15.328125 41.109375 
Q 20.609375 50.6875 29.890625 50.6875 
Q 38.375 50.6875 44.109375 44 
Q 49.859375 37.3125 49.859375 24.5625 
Q 49.859375 13.578125 44.21875 6.125 
Q 38.578125 -1.3125 29.546875 -1.3125 
Q 19.484375 -1.3125 14.109375 8.15625 
z
M 15.328125 19.34375 
Q 15.875 11.765625 20 8.34375 
Q 24.125 4.9375 28.71875 4.9375 
Q 34.578125 4.9375 38.15625 10.015625 
Q 41.75 15.09375 41.75 23.921875 
Q 41.75 33.453125 38.28125 38.890625 
Q 34.8125 44.34375 28.65625 44.34375 
Q 23.828125 44.34375 19.9375 40.453125 
Q 16.0625 36.578125 15.328125 30.421875 
z
" id="FranklinGothic-Book-98"/>
      <path id="FranklinGothic-Book-32"/>
      <path d="M 46.53125 0 
L 39.359375 0 
L 39.359375 31.6875 
Q 39.359375 38.53125 36.375 41.3125 
Q 33.40625 44.09375 29.15625 44.09375 
Q 23.296875 44.09375 19.3125 39.40625 
Q 15.328125 34.71875 15.328125 27.046875 
L 15.328125 0 
L 7.671875 0 
L 7.671875 49.3125 
L 14.796875 49.3125 
L 14.796875 40.234375 
Q 20.796875 50.6875 30.375 50.6875 
Q 35.890625 50.6875 39.765625 47.828125 
Q 43.65625 44.96875 45.09375 41.40625 
Q 46.53125 37.84375 46.53125 28.515625 
z
" id="FranklinGothic-Book-110"/>
      <path d="M 1.03125 12.796875 
L 8.34375 14.3125 
Q 10.796875 4.984375 23.78125 4.984375 
Q 28.5625 4.984375 31.875 7.125 
Q 35.203125 9.28125 35.203125 13.1875 
Q 35.203125 19 26.765625 20.5625 
L 16.359375 22.515625 
Q 10.25 23.6875 6.640625 27.09375 
Q 3.03125 30.515625 3.03125 36.140625 
Q 3.03125 42.328125 7.953125 46.5 
Q 12.890625 50.6875 21.234375 50.6875 
Q 37.3125 50.6875 41.0625 38.140625 
L 34.03125 36.625 
Q 31 44.34375 21.578125 44.34375 
Q 16.890625 44.34375 13.890625 42.40625 
Q 10.890625 40.484375 10.890625 37.015625 
Q 10.890625 31.546875 18.5625 30.125 
L 28.171875 28.421875 
Q 43.265625 25.6875 43.265625 13.8125 
Q 43.265625 7.03125 37.640625 2.859375 
Q 32.03125 -1.3125 22.703125 -1.3125 
Q 5.171875 -1.3125 1.03125 12.796875 
z
" id="FranklinGothic-Book-115"/>
      <path d="M 43.796875 49.3125 
L 26.765625 0 
L 18.796875 0 
L 1.171875 49.3125 
L 9.671875 49.3125 
L 23.390625 9.234375 
L 36.96875 49.3125 
z
" id="FranklinGothic-Book-118"/>
      <path d="M 36.8125 17.28125 
L 43.75 16.0625 
Q 42.28125 7.90625 37.25 3.296875 
Q 32.234375 -1.3125 24.703125 -1.3125 
Q 14.5 -1.3125 9.15625 6.203125 
Q 3.8125 13.71875 3.8125 24.5625 
Q 3.8125 35.796875 9.453125 43.234375 
Q 15.09375 50.6875 24.8125 50.6875 
Q 32.859375 50.6875 37.71875 45.875 
Q 42.578125 41.0625 43.75 33.453125 
L 36.8125 32.125 
Q 34.859375 44.34375 25 44.34375 
Q 18.65625 44.34375 15.234375 38.9375 
Q 11.8125 33.546875 11.8125 24.953125 
Q 11.8125 15.484375 15.203125 10.234375 
Q 18.609375 4.984375 24.75 4.984375 
Q 34.28125 4.984375 36.8125 17.28125 
z
" id="FranklinGothic-Book-99"/>
      <path d="M 46.34375 0 
L 38.671875 0 
L 38.671875 29.9375 
Q 38.671875 35.203125 38.015625 37.84375 
Q 37.359375 40.484375 34.890625 42.40625 
Q 32.421875 44.34375 29.203125 44.34375 
Q 23.296875 44.34375 19.3125 39.5 
Q 15.328125 34.671875 15.328125 26.5625 
L 15.328125 0 
L 7.671875 0 
L 7.671875 66.65625 
L 15.328125 66.65625 
L 15.328125 40.234375 
Q 20.5625 50.6875 30.28125 50.6875 
Q 34.625 50.6875 38.015625 48.96875 
Q 41.40625 47.265625 43.203125 44.484375 
Q 45.015625 41.703125 45.671875 38.984375 
Q 46.34375 36.28125 46.34375 29.9375 
z
" id="FranklinGothic-Book-104"/>
      <path d="M 47.953125 57.03125 
L 47.953125 50.921875 
Q 42.671875 50.921875 40.890625 49.703125 
Q 39.109375 48.484375 38.53125 45.3125 
Q 43.265625 39.84375 43.265625 33.40625 
Q 43.265625 26.65625 38.109375 21.828125 
Q 32.953125 17 24.265625 17 
Q 22.3125 17 20.90625 17.28125 
Q 18.21875 17.828125 17.53125 17.828125 
Q 16.21875 17.828125 14.359375 16.53125 
Q 12.5 15.234375 12.5 13.1875 
Q 12.5 10.25 15.1875 9.375 
Q 17.875 8.5 27.828125 8.25 
Q 36.28125 8.015625 40.3125 7.109375 
Q 44.34375 6.203125 47.125 3.09375 
Q 49.90625 0 49.90625 -4.5 
Q 49.90625 -18.609375 25.09375 -18.609375 
Q 13.328125 -18.609375 7.9375 -15.0625 
Q 2.546875 -11.53125 2.546875 -5.609375 
Q 2.546875 1.5625 10.0625 4.25 
Q 5.21875 7.421875 5.21875 12.203125 
Q 5.21875 17.921875 12.0625 20.953125 
Q 5.671875 26.125 5.671875 33.984375 
Q 5.671875 41.3125 11.140625 46 
Q 16.609375 50.6875 24.46875 50.6875 
Q 30.03125 50.6875 34.578125 48.578125 
Q 35.296875 53.421875 37.953125 55.265625 
Q 40.625 57.125 46.046875 57.125 
Q 46.578125 57.125 47.953125 57.03125 
z
M 24.515625 22.859375 
Q 29.390625 22.859375 32.46875 25.859375 
Q 35.546875 28.859375 35.546875 33.640625 
Q 35.546875 38.53125 32.34375 41.625 
Q 29.15625 44.734375 24.609375 44.734375 
Q 20.265625 44.734375 16.890625 41.828125 
Q 13.53125 38.921875 13.53125 33.546875 
Q 13.53125 28.765625 16.546875 25.8125 
Q 19.578125 22.859375 24.515625 22.859375 
z
M 15.328125 2 
Q 9.96875 -0.34375 9.96875 -4.78125 
Q 9.96875 -8.546875 14.375 -10.625 
Q 18.796875 -12.703125 25.640625 -12.703125 
Q 31.984375 -12.703125 37.25 -10.90625 
Q 42.53125 -9.125 42.53125 -4.890625 
Q 42.53125 -2.59375 40.96875 -1.125 
Q 39.40625 0.34375 36.6875 0.734375 
Q 33.984375 1.125 27.25 1.3125 
Q 19.1875 1.515625 15.328125 2 
z
" id="FranklinGothic-Book-103"/>
     </defs>
     <use xlink:href="#FranklinGothic-Book-71"/>
     <use x="64.697266" xlink:href="#FranklinGothic-Book-108"/>
     <use x="87.695312" xlink:href="#FranklinGothic-Book-111"/>
     <use x="139.648438" xlink:href="#FranklinGothic-Book-98"/>
     <use x="193.359375" xlink:href="#FranklinGothic-Book-97"/>
     <use x="246.240234" xlink:href="#FranklinGothic-Book-108"/>
     <use x="269.238281" xlink:href="#FranklinGothic-Book-32"/>
     <use x="294.238281" xlink:href="#FranklinGothic-Book-109"/>
     <use x="375.634766" xlink:href="#FranklinGothic-Book-101"/>
     <use x="427.685547" xlink:href="#FranklinGothic-Book-97"/>
     <use x="480.566406" xlink:href="#FranklinGothic-Book-110"/>
     <use x="534.765625" xlink:href="#FranklinGothic-Book-32"/>
     <use x="559.765625" xlink:href="#FranklinGothic-Book-115"/>
     <use x="606.152344" xlink:href="#FranklinGothic-Book-101"/>
     <use x="658.203125" xlink:href="#FranklinGothic-Book-97"/>
     <use x="711.083984" xlink:href="#FranklinGothic-Book-32"/>
     <use x="736.083984" xlink:href="#FranklinGothic-Book-108"/>
     <use x="759.082031" xlink:href="#FranklinGothic-Book-101"/>
     <use x="809.382812" xlink:href="#FranklinGothic-Book-118"/>
     <use x="852.902344" xlink:href="#FranklinGothic-Book-101"/>
     <use x="904.953125" xlink:href="#FranklinGothic-Book-108"/>
     <use x="927.951172" xlink:href="#FranklinGothic-Book-32"/>
     <use x="952.951172" xlink:href="#FranklinGothic-Book-99"/>
     <use x="999.533203" xlink:href="#FranklinGothic-Book-104"/>
     <use x="1053.537109" xlink:href="#FranklinGothic-Book-97"/>
     <use x="1106.417969" xlink:href="#FranklinGothic-Book-110"/>
     <use x="1160.617188" xlink:href="#FranklinGothic-Book-103"/>
     <use x="1209.738281" xlink:href="#FranklinGothic-Book-101"/>
    </g>
   </g>
   <g id="legend_1">
    <g id="line2d_17"/>
    <g id="text_20">
     <!-- AVISO CNES (1993.01.05-2023.12.28) -->
     <g style="fill:#ff0000;" transform="translate(185.856 129.7184)scale(0.2 -0.2)">
      <defs>
       <path d="M 53.21875 0 
L 44.671875 0 
L 37.9375 19.484375 
L 13.28125 19.484375 
L 7.328125 0 
L 0.34375 0 
L 21.96875 66.65625 
L 31.5 66.65625 
z
M 36.1875 25.734375 
L 25.921875 57.765625 
L 15.578125 25.734375 
z
" id="FranklinGothic-Book-65"/>
       <path d="M 53.328125 66.65625 
L 30.859375 0 
L 22.796875 0 
L 0.34375 66.65625 
L 9.03125 66.65625 
L 27.640625 11.671875 
L 46.046875 66.65625 
z
" id="FranklinGothic-Book-86"/>
       <path d="M 16.703125 0 
L 8.34375 0 
L 8.34375 66.65625 
L 16.703125 66.65625 
z
" id="FranklinGothic-Book-73"/>
       <path d="M 1.03125 17.71875 
L 8.546875 19.4375 
Q 13.09375 5.8125 28.21875 5.8125 
Q 36.140625 5.8125 40.140625 9.15625 
Q 44.140625 12.5 44.140625 18.109375 
Q 44.140625 22.359375 41.078125 24.953125 
Q 38.03125 27.546875 34.03125 28.515625 
L 20.703125 31.84375 
Q 15.53125 33.15625 12.234375 35.03125 
Q 8.9375 36.921875 6.640625 40.828125 
Q 4.34375 44.734375 4.34375 49.75 
Q 4.34375 58.109375 10.640625 63.0625 
Q 16.9375 68.015625 26.8125 68.015625 
Q 44.96875 68.015625 50.6875 51.5625 
L 43.109375 49.3125 
Q 41.796875 55.171875 36.90625 58.171875 
Q 32.03125 61.1875 26.515625 61.1875 
Q 21.046875 61.1875 16.765625 58.296875 
Q 12.5 55.421875 12.5 50.140625 
Q 12.5 42.78125 23.34375 40.1875 
L 35.796875 37.203125 
Q 52.875 33.109375 52.875 18.796875 
Q 52.875 10.15625 46.453125 4.421875 
Q 40.046875 -1.3125 28.375 -1.3125 
Q 7.671875 -1.3125 1.03125 17.71875 
z
" id="FranklinGothic-Book-83"/>
       <path d="M 31.34375 -1.3125 
Q 18.5 -1.3125 11.328125 8.671875 
Q 4.15625 18.65625 4.15625 33.15625 
Q 4.15625 48.296875 11.671875 58.15625 
Q 19.1875 68.015625 31.59375 68.015625 
Q 43.953125 68.015625 51.421875 58.328125 
Q 58.890625 48.640625 58.890625 33.890625 
Q 58.890625 19.734375 51.640625 9.203125 
Q 44.390625 -1.3125 31.34375 -1.3125 
z
M 31.546875 5.46875 
Q 40.28125 5.46875 45.203125 13.421875 
Q 50.140625 21.390625 50.140625 33.9375 
Q 50.140625 46.828125 45.03125 54 
Q 39.9375 61.1875 31.5 61.1875 
Q 22.953125 61.1875 17.921875 53.421875 
Q 12.890625 45.65625 12.890625 33.109375 
Q 12.890625 20.84375 17.96875 13.15625 
Q 23.046875 5.46875 31.546875 5.46875 
z
" id="FranklinGothic-Book-79"/>
       <path d="M 48.296875 22.40625 
L 55.90625 20.703125 
Q 50.4375 -1.3125 31.203125 -1.3125 
Q 18.5625 -1.3125 11.359375 8.890625 
Q 4.15625 19.09375 4.15625 33.984375 
Q 4.15625 49.359375 11.671875 58.6875 
Q 19.1875 68.015625 31.84375 68.015625 
Q 50.59375 68.015625 55.90625 46.578125 
L 48.046875 45.015625 
Q 43.75 60.9375 31.78125 60.9375 
Q 22.953125 60.9375 18.09375 53.53125 
Q 13.234375 46.140625 13.234375 32.765625 
Q 13.234375 20.515625 18.203125 13.109375 
Q 23.1875 5.71875 31.390625 5.71875 
Q 44.140625 5.71875 48.296875 22.40625 
z
" id="FranklinGothic-Book-67"/>
       <path d="M 57.421875 0 
L 49.3125 0 
L 14.84375 58.109375 
L 14.9375 53.71875 
Q 15.09375 51.21875 15.09375 49.515625 
L 15.09375 0 
L 8.34375 0 
L 8.34375 66.65625 
L 18.796875 66.65625 
L 51.03125 12.3125 
L 50.921875 16.9375 
Q 50.828125 19.671875 50.828125 21.78125 
L 50.828125 66.65625 
L 57.421875 66.65625 
z
" id="FranklinGothic-Book-78"/>
       <path d="M 51.46875 7.328125 
L 51.46875 0 
L 8.34375 0 
L 8.34375 66.65625 
L 50.53125 66.65625 
L 50.53125 59.328125 
L 16.703125 59.328125 
L 16.703125 38.140625 
L 43.5625 38.140625 
L 43.5625 31.34375 
L 16.703125 31.34375 
L 16.703125 7.328125 
z
" id="FranklinGothic-Book-69"/>
       <path d="M 24.703125 -16.65625 
L 19.578125 -16.65625 
Q 5.21875 2.203125 5.21875 25.09375 
Q 5.21875 46.96875 19.578125 66.65625 
L 24.703125 66.65625 
Q 12.359375 48.25 12.359375 25 
Q 12.359375 2.828125 24.703125 -16.65625 
z
" id="FranklinGothic-Book-40"/>
       <path d="M 17.96875 10.9375 
L 17.96875 0 
L 7.078125 0 
L 7.078125 10.9375 
z
" id="FranklinGothic-Book-46"/>
       <path d="M 23.53125 27.984375 
L 23.53125 22.015625 
L 1.46875 22.015625 
L 1.46875 27.984375 
z
" id="FranklinGothic-Book-45"/>
       <path d="M 4.640625 66.65625 
L 9.71875 66.65625 
Q 24.125 47.796875 24.125 24.90625 
Q 24.125 3.03125 9.71875 -16.65625 
L 4.640625 -16.65625 
Q 17 1.765625 17 25 
Q 17 47.171875 4.640625 66.65625 
z
" id="FranklinGothic-Book-41"/>
      </defs>
      <use xlink:href="#FranklinGothic-Book-65"/>
      <use x="49.189453" xlink:href="#FranklinGothic-Book-86"/>
      <use x="102.851562" xlink:href="#FranklinGothic-Book-73"/>
      <use x="127.851562" xlink:href="#FranklinGothic-Book-83"/>
      <use x="184.785156" xlink:href="#FranklinGothic-Book-79"/>
      <use x="247.871094" xlink:href="#FranklinGothic-Book-32"/>
      <use x="272.871094" xlink:href="#FranklinGothic-Book-67"/>
      <use x="330.78125" xlink:href="#FranklinGothic-Book-78"/>
      <use x="396.503906" xlink:href="#FranklinGothic-Book-69"/>
      <use x="451.289062" xlink:href="#FranklinGothic-Book-83"/>
      <use x="508.222656" xlink:href="#FranklinGothic-Book-32"/>
      <use x="533.222656" xlink:href="#FranklinGothic-Book-40"/>
      <use x="562.568359" xlink:href="#FranklinGothic-Book-49"/>
      <use x="619.835938" xlink:href="#FranklinGothic-Book-57"/>
      <use x="678.478516" xlink:href="#FranklinGothic-Book-57"/>
      <use x="737.121094" xlink:href="#FranklinGothic-Book-51"/>
      <use x="795.763672" xlink:href="#FranklinGothic-Book-46"/>
      <use x="820.763672" xlink:href="#FranklinGothic-Book-48"/>
      <use x="875.65625" xlink:href="#FranklinGothic-Book-49"/>
      <use x="933.673828" xlink:href="#FranklinGothic-Book-46"/>
      <use x="958.673828" xlink:href="#FranklinGothic-Book-48"/>
      <use x="1017.316406" xlink:href="#FranklinGothic-Book-53"/>
      <use x="1075.958984" xlink:href="#FranklinGothic-Book-45"/>
      <use x="1100.958984" xlink:href="#FranklinGothic-Book-50"/>
      <use x="1159.601562" xlink:href="#FranklinGothic-Book-48"/>
      <use x="1218.244141" xlink:href="#FranklinGothic-Book-50"/>
      <use x="1276.886719" xlink:href="#FranklinGothic-Book-51"/>
      <use x="1335.529297" xlink:href="#FranklinGothic-Book-46"/>
      <use x="1356.654297" xlink:href="#FranklinGothic-Book-49"/>
      <use x="1415.296875" xlink:href="#FranklinGothic-Book-50"/>
      <use x="1473.939453" xlink:href="#FranklinGothic-Book-46"/>
      <use x="1498.939453" xlink:href="#FranklinGothic-Book-50"/>
      <use x="1557.582031" xlink:href="#FranklinGothic-Book-56"/>
      <use x="1616.224609" xlink:href="#FranklinGothic-Book-41"/>
     </g>
    </g>
   </g>
   <g id="line2d_18">
    <path clip-path="url(#pcfd17d7230)" d="M 184.581818 554.04 
L 186.017379 545.171881 
L 187.339292 538.563639 
L 188.057072 536.103875 
L 191.777568 527.950558 
L 195.354508 520.239805 
L 196.000511 519.17214 
L 196.718291 518.486036 
L 197.465979 518.290976 
L 198.18376 518.649954 
L 198.901541 519.573464 
L 199.577451 521.028743 
L 201.013012 525.165618 
L 202.406702 529.689186 
L 203.124483 531.543657 
L 203.770485 532.885505 
L 204.518174 533.565332 
L 205.235954 533.546441 
L 205.953735 532.835931 
L 206.629645 531.4963 
L 207.347425 529.667879 
L 210.924365 518.845758 
L 211.642146 517.359397 
L 212.288148 516.286986 
L 212.964058 515.576206 
L 213.681839 515.21643 
L 214.399619 515.140556 
L 215.290864 515.263182 
L 218.120115 516.17109 
L 219.585584 516.224654 
L 220.949367 516.141205 
L 221.625277 516.185771 
L 222.343058 516.354765 
L 223.060838 516.665501 
L 223.808526 517.128311 
L 225.244088 518.494499 
L 228.031469 522.073607 
L 228.749249 522.765386 
L 229.395252 523.225386 
L 230.14294 523.33468 
L 230.860721 523.051811 
L 231.578501 522.337323 
L 232.296282 521.180594 
L 233.689972 517.688498 
L 235.873222 510.72019 
L 237.912915 504.29975 
L 238.630695 502.769187 
L 239.306605 501.633195 
L 240.024386 500.887179 
L 240.742166 500.491715 
L 241.633411 500.380264 
L 243.068972 500.664293 
L 245.180443 501.29536 
L 248.685605 501.933537 
L 249.403385 502.344162 
L 250.151073 502.947783 
L 250.868854 503.775819 
L 251.586635 504.819778 
L 255.020018 510.979183 
L 255.737799 511.711578 
L 256.485487 512.068296 
L 257.203268 512.058119 
L 257.921048 511.745555 
L 261.497988 509.034463 
L 265.649152 506.499045 
L 267.084713 506.223545 
L 268.62196 506.094068 
L 269.339741 505.869283 
L 270.015651 505.436005 
L 270.733431 504.771887 
L 272.844903 501.813777 
L 273.562683 500.927289 
L 274.238593 500.307838 
L 274.956374 500.064745 
L 275.674154 500.245275 
L 276.421842 500.848348 
L 277.139623 501.825169 
L 277.857404 503.092498 
L 279.897097 507.306836 
L 280.573007 508.41547 
L 281.290787 509.220506 
L 282.008568 509.725717 
L 282.756256 509.92291 
L 283.474037 509.911939 
L 286.303288 509.390294 
L 287.050976 509.496888 
L 287.768757 509.76719 
L 288.414759 510.169181 
L 291.919921 512.974297 
L 292.637702 513.235177 
L 293.528946 513.260884 
L 294.246727 513.010754 
L 294.964507 512.453416 
L 295.640417 511.566311 
L 296.358198 510.338541 
L 297.721981 506.901346 
L 299.18745 502.450424 
L 302.016701 493.007157 
L 303.48217 489.495084 
L 304.804083 487.500912 
L 305.521863 487.174577 
L 306.239644 487.296118 
L 306.915554 487.834613 
L 307.633334 488.736297 
L 309.098803 491.298374 
L 311.210274 495.383762 
L 311.928055 496.36211 
L 312.645835 496.997643 
L 313.321745 497.213294 
L 314.039526 497.036451 
L 314.757306 496.465401 
L 315.433217 495.58889 
L 316.868778 493.204126 
L 318.262468 490.800533 
L 318.980249 489.851003 
L 320.589274 488.692145 
L 321.307054 488.471003 
L 321.911186 488.410629 
L 323.346747 488.64206 
L 325.529997 489.186826 
L 326.923687 489.866198 
L 327.641468 490.464322 
L 328.389156 491.313717 
L 329.106936 492.448542 
L 329.824717 493.872459 
L 331.14663 497.408782 
L 333.258101 502.859827 
L 333.975881 504.151143 
L 334.693662 504.969686 
L 335.44135 505.23847 
L 336.159131 504.932542 
L 336.876911 504.067305 
L 337.552821 502.736939 
L 338.270602 501.054891 
L 339.664292 497.214833 
L 341.099853 493.674385 
L 341.775764 492.261508 
L 342.493544 491.145839 
L 343.211325 490.349619 
L 343.887235 489.863536 
L 344.676793 489.648337 
L 345.322796 489.71272 
L 346.21404 489.948625 
L 348.971514 491.316846 
L 349.689294 491.464249 
L 350.436982 491.479842 
L 351.154763 491.358639 
L 352.548454 490.787829 
L 353.984015 490.099229 
L 354.731703 489.879784 
L 355.449483 489.831568 
L 356.095486 489.990984 
L 356.771396 490.361777 
L 358.206957 491.568831 
L 359.600648 492.666163 
L 360.318428 492.805578 
L 361.036209 492.480852 
L 361.783897 491.592694 
L 362.501678 490.08784 
L 363.219458 487.976768 
L 363.895368 485.339645 
L 366.006839 476.00956 
L 366.72462 473.147082 
L 367.4424 470.7837 
L 368.118311 469.076445 
L 368.836091 468.11794 
L 369.553872 467.95892 
L 370.229782 468.574992 
L 370.947562 469.876387 
L 372.413031 473.874137 
L 373.848592 478.274511 
L 374.524502 480.050986 
L 375.242283 481.320831 
L 375.960063 481.983438 
L 376.707751 482.029006 
L 377.425532 481.536394 
L 378.143313 480.648025 
L 380.254784 477.267087 
L 380.930694 476.40039 
L 381.648474 475.834763 
L 382.366255 475.613465 
L 383.042165 475.720224 
L 383.759945 476.090318 
L 385.153636 477.123998 
L 385.871417 477.469814 
L 386.589197 477.505889 
L 387.336885 477.114674 
L 388.054666 476.232053 
L 388.772446 474.854124 
L 390.094359 470.832281 
L 392.995389 461.319168 
L 393.713169 459.483979 
L 394.389079 458.096222 
L 395.10686 457.204804 
L 395.824641 456.834714 
L 396.500551 456.947917 
L 397.218331 457.483922 
L 400.191139 461.231697 
L 400.867049 461.807147 
L 401.58483 461.98521 
L 402.30261 461.708642 
L 403.050298 460.963221 
L 403.768079 459.801312 
L 405.16177 456.731318 
L 406.525553 453.776422 
L 407.273241 452.721862 
L 407.991021 452.088966 
L 408.708802 451.913123 
L 409.384712 452.171727 
L 410.102492 452.816405 
L 410.820273 453.758535 
L 412.931744 457.119864 
L 413.679432 457.973393 
L 414.397213 458.505706 
L 415.043215 458.652421 
L 415.719125 458.386688 
L 416.436906 457.727481 
L 417.154687 456.730655 
L 418.620155 454.074585 
L 420.055716 451.374564 
L 420.731626 450.308424 
L 421.449407 449.558567 
L 422.167188 449.188318 
L 422.843098 449.227915 
L 423.4891 449.662786 
L 425.098125 451.4464 
L 426.533686 453.440221 
L 427.209596 454.037554 
L 427.927377 454.147324 
L 428.645157 453.67778 
L 429.392845 452.610066 
L 430.110626 450.983338 
L 430.828407 448.905215 
L 432.150319 444.157973 
L 432.8681 441.955306 
L 433.615788 440.159457 
L 434.333568 438.931519 
L 435.051349 438.36808 
L 435.727259 438.489339 
L 436.445039 439.237759 
L 437.16282 440.490605 
L 439.274291 445.217772 
L 439.950201 446.374507 
L 440.667982 447.024055 
L 441.385762 447.070673 
L 442.061672 446.485079 
L 442.779453 445.299136 
L 444.244922 441.584526 
L 446.356393 435.34915 
L 447.074173 433.791822 
L 447.791954 432.683762 
L 448.437957 432.06335 
L 449.113867 431.913816 
L 449.831647 432.16885 
L 450.722891 432.721914 
L 453.552143 435.504558 
L 454.269924 435.801798 
L 455.017612 435.808071 
L 455.735392 435.525152 
L 456.453173 435.001515 
L 459.210647 432.076493 
L 459.958335 431.586571 
L 460.676115 431.334828 
L 461.393896 431.351967 
L 462.069806 431.635055 
L 462.787587 432.149506 
L 464.181277 433.569577 
L 465.54506 434.877079 
L 466.292748 435.234275 
L 467.010529 435.28591 
L 467.728309 434.983305 
L 468.404219 434.314394 
L 469.122 433.299896 
L 470.587469 430.477465 
L 472.69894 425.846437 
L 473.41672 424.706933 
L 474.062723 423.949915 
L 474.738633 423.623812 
L 475.456414 423.725551 
L 476.174194 424.200054 
L 476.99366 424.951477 
L 479.105132 427.502266 
L 479.822912 428.008464 
L 480.540693 428.174045 
L 481.288381 427.965771 
L 482.006161 427.397857 
L 483.369944 425.472635 
L 484.763635 423.252704 
L 485.481416 422.342324 
L 486.229104 421.725532 
L 486.946884 421.479867 
L 487.664665 421.630314 
L 488.340575 422.164261 
L 489.058355 423.034563 
L 489.776136 424.155681 
L 490.380268 425.396183 
L 491.815829 427.625728 
L 492.563517 428.298094 
L 493.281298 428.48775 
L 493.999078 428.114669 
L 494.674988 427.149718 
L 495.392769 425.624522 
L 496.858238 421.297106 
L 499.615711 412.026422 
L 500.333492 410.488927 
L 501.009402 409.445575 
L 501.727183 408.893518 
L 502.444963 408.760107 
L 503.336207 408.917479 
L 504.771768 409.478669 
L 505.447679 409.578279 
L 506.165459 409.411568 
L 506.88324 408.927282 
L 507.55915 408.132457 
L 508.994711 405.929522 
L 509.670621 404.789735 
L 510.388401 403.833838 
L 511.106182 403.194747 
L 511.85387 402.967403 
L 512.571651 403.193988 
L 513.289431 403.865649 
L 514.683122 406.160399 
L 516.046905 408.659508 
L 516.722815 409.54795 
L 517.440596 410.002721 
L 518.158376 409.940653 
L 518.906064 409.342442 
L 519.623845 408.242996 
L 520.341625 406.730187 
L 522.453097 401.197197 
L 523.200785 399.59325 
L 523.918565 398.373059 
L 524.564568 397.640442 
L 525.240478 397.447454 
L 525.958258 397.790223 
L 526.676039 398.606649 
L 528.06973 401.160965 
L 528.78751 402.54947 
L 530.396535 404.589028 
L 531.114315 404.933001 
L 531.790226 404.715731 
L 532.508006 403.931182 
L 533.901697 400.932907 
L 535.337258 396.888594 
L 536.730948 392.946224 
L 537.448729 391.3824 
L 538.196417 390.247323 
L 538.914198 389.610576 
L 539.631978 389.491155 
L 540.307888 389.849623 
L 541.025669 390.58619 
L 543.065362 393.612923 
L 543.783143 394.455776 
L 545.248611 395.60102 
L 546.684172 396.315386 
L 548.077863 396.92367 
L 548.795644 397.093369 
L 549.471554 397.06863 
L 550.189334 396.79805 
L 550.907115 396.275959 
L 552.300805 394.698051 
L 553.694496 393.008079 
L 555.130057 391.762668 
L 558.778775 390.179439 
L 560.962024 389.260329 
L 561.679805 389.070643 
L 562.355715 389.027121 
L 563.073495 389.18184 
L 563.791276 389.56622 
L 564.538964 390.186307 
L 565.974525 392.024769 
L 567.296438 394.273437 
L 568.690128 396.232746 
L 569.407909 396.849486 
L 570.12569 397.111074 
L 570.873378 396.974718 
L 571.591158 396.430052 
L 572.308939 395.498671 
L 573.702629 392.752944 
L 575.814101 388.163185 
L 576.531881 387.014098 
L 577.249662 386.213202 
L 577.925572 385.78886 
L 578.643352 385.719554 
L 579.361133 385.941133 
L 581.472604 387.101439 
L 582.29207 387.123654 
L 583.009851 386.735257 
L 583.655853 385.860784 
L 584.331763 384.481838 
L 585.049544 382.657181 
L 587.950574 373.973949 
L 588.626484 372.390752 
L 589.344264 371.372581 
L 590.062045 371.009592 
L 590.809733 371.310477 
L 591.527514 372.200953 
L 592.849426 375.158604 
L 594.960897 379.945038 
L 595.678678 381.056411 
L 596.396459 381.751737 
L 597.144147 381.963357 
L 597.861927 381.658967 
L 598.579708 380.847098 
L 599.255618 379.584728 
L 599.973398 377.977844 
L 601.367089 374.311687 
L 602.80265 371.080799 
L 603.47856 369.942189 
L 604.196341 369.189577 
L 604.914121 368.798242 
L 605.631902 368.699329 
L 607.025593 369.031068 
L 608.562839 369.454128 
L 609.28062 369.49778 
L 609.9984 369.359974 
L 610.67431 369.014221 
L 611.392091 368.451864 
L 612.85756 366.742755 
L 614.293121 364.514594 
L 616.404592 360.988631 
L 617.798283 359.037036 
L 619.191973 357.650206 
L 620.627534 356.738561 
L 624.204474 354.788253 
L 624.922255 354.233801 
L 626.244167 352.978325 
L 627.709636 351.761758 
L 628.427417 351.296222 
L 629.145197 350.995405 
L 629.821107 350.903019 
L 630.538888 351.050137 
L 631.256668 351.44035 
L 632.650359 352.777362 
L 633.36814 353.558517 
L 634.905386 354.76399 
L 635.623167 354.931227 
L 636.299077 354.671674 
L 637.016857 353.939642 
L 637.734638 352.750806 
L 638.482326 351.188084 
L 640.593797 345.917722 
L 641.311578 344.650161 
L 642.029358 343.939668 
L 642.675361 343.909049 
L 643.423049 344.614609 
L 644.14083 346.041621 
L 644.85861 348.101584 
L 646.970081 356.360981 
L 647.645991 359.055238 
L 648.363772 361.360201 
L 649.081553 363.1361 
L 649.829241 364.297652 
L 650.547021 364.826075 
L 651.193024 364.770978 
L 651.868934 364.241054 
L 653.304495 362.376689 
L 654.769964 360.595956 
L 655.487744 360.134683 
L 656.163654 360.110948 
L 656.881435 360.576579 
L 657.599215 361.520648 
L 658.275125 362.87033 
L 659.638908 366.251552 
L 661.247933 369.379747 
L 661.965714 370.392435 
L 662.641624 370.82544 
L 663.359404 370.581003 
L 664.077185 369.628018 
L 664.824873 368.009515 
L 665.542654 365.834453 
L 666.936344 360.489572 
L 667.582347 357.738215 
L 668.300127 355.220277 
L 669.047815 353.118356 
L 669.765596 351.564382 
L 670.483377 350.636297 
L 671.159287 350.341188 
L 671.877067 350.617924 
L 672.594848 351.343136 
L 674.706319 354.279036 
L 675.4241 354.779861 
L 676.10001 354.725938 
L 676.81779 353.994795 
L 677.535571 352.531194 
L 678.211481 350.357953 
L 678.929261 347.571104 
L 682.506201 331.200646 
L 683.223982 328.943569 
L 683.941762 327.379074 
L 684.545894 326.526234 
L 685.263675 326.313376 
L 685.981455 326.58651 
L 688.236483 328.05978 
L 688.912393 328.009635 
L 689.630173 327.407328 
L 690.347954 326.190284 
L 691.095642 324.385277 
L 692.531203 319.529289 
L 693.135335 316.870093 
L 694.570896 312.160244 
L 695.318584 310.478365 
L 696.036365 309.402894 
L 696.754146 308.960379 
L 697.430056 309.102088 
L 698.147836 309.716574 
L 699.541527 311.685305 
L 700.259307 312.639971 
L 700.977088 313.324777 
L 701.62309 313.59083 
L 702.370779 313.351137 
L 703.088559 312.582365 
L 703.80634 311.306724 
L 705.20003 307.556336 
L 708.10106 298.871019 
L 708.77697 297.216625 
L 709.494751 295.966662 
L 710.140753 295.163822 
L 710.816663 294.823462 
L 711.534444 294.935333 
L 712.252224 295.454175 
L 713.143469 296.304058 
L 714.507252 298.422741 
L 715.326718 299.982045 
L 716.690501 301.912115 
L 718.084192 303.43625 
L 720.195663 305.349236 
L 721.661131 307.081897 
L 723.096693 309.385515 
L 724.490383 311.948958 
L 725.740518 314.021507 
L 726.74541 315.084603 
L 727.247857 315.336215 
L 727.995545 315.402698 
L 728.713326 315.065672 
L 729.431106 314.329683 
L 730.107016 313.228665 
L 730.824797 311.809598 
L 732.290265 308.286368 
L 735.047739 301.056833 
L 735.76552 299.797099 
L 736.4833 298.929854 
L 737.15921 298.491518 
L 737.876991 298.481468 
L 738.594771 298.861169 
L 739.486016 299.541867 
L 741.597487 301.945583 
L 742.315267 302.30708 
L 743.033048 302.217936 
L 743.708958 301.615341 
L 744.426739 300.501156 
L 745.144519 298.947064 
L 747.25599 293.133313 
L 748.003678 291.455998 
L 748.721459 290.199677 
L 749.43924 289.468243 
L 750.11515 289.301459 
L 750.83293 289.670829 
L 751.550711 290.476288 
L 752.872623 292.74398 
L 753.590404 293.812791 
L 754.338092 294.569726 
L 755.055873 294.842272 
L 755.773653 294.505886 
L 756.449563 293.49828 
L 757.167344 291.825098 
L 757.885124 289.552562 
L 758.632812 286.795163 
L 760.068374 280.490564 
L 760.672506 277.328513 
L 762.108067 271.902631 
L 762.825847 269.918364 
L 763.501757 268.517148 
L 764.219538 267.686538 
L 765.110782 267.345192 
L 765.828563 267.363592 
L 767.940034 267.889393 
L 768.657814 267.656863 
L 769.303817 267.005202 
L 770.051505 265.893282 
L 770.769286 264.342963 
L 771.487066 262.423686 
L 774.346225 253.560668 
L 775.064006 251.71756 
L 775.781787 250.231341 
L 776.457697 249.151661 
L 777.103699 248.483196 
L 777.82148 248.196051 
L 778.49739 248.226666 
L 779.21517 248.486573 
L 781.39842 249.53513 
L 782.1162 249.601309 
L 782.79211 249.371924 
L 783.509891 248.798956 
L 784.227671 247.876365 
L 784.975359 246.637564 
L 787.732833 240.478003 
L 788.450614 239.333798 
L 789.126524 238.605973 
L 789.844304 238.352921 
L 790.562085 238.567871 
L 791.381551 239.179876 
L 792.817112 241.0743 
L 794.139025 242.847023 
L 794.856805 243.34936 
L 795.604493 243.500161 
L 796.322274 243.308915 
L 797.757835 242.275734 
L 798.433745 241.731531 
L 799.151526 241.393017 
L 799.869306 241.401218 
L 800.616994 241.841855 
L 801.334775 242.726895 
L 802.052556 243.987593 
L 803.374468 247.054139 
L 804.092249 248.476383 
L 804.768159 249.564552 
L 805.485939 250.167695 
L 806.20372 250.195348 
L 806.951408 249.627879 
L 807.669188 248.528471 
L 808.386969 247.025623 
L 810.49844 241.86864 
L 811.17435 240.514787 
L 811.892131 239.547314 
L 812.609911 239.015539 
L 813.285821 238.916825 
L 814.003602 239.21123 
L 814.721383 239.827378 
L 816.115073 241.662939 
L 816.832854 242.696202 
L 819.159659 245.118917 
L 819.763791 245.442342 
L 820.481572 245.443339 
L 821.199352 245.096262 
L 821.94704 244.393648 
L 822.664821 243.353349 
L 823.382602 242.023894 
L 826.241761 235.665041 
L 826.959541 234.400102 
L 827.677322 233.451316 
L 828.323324 232.845779 
L 828.999234 232.567859 
L 829.717015 232.557919 
L 831.828486 232.930052 
L 832.546267 232.723412 
L 833.293955 232.16503 
L 834.011735 231.205544 
L 834.729516 229.857091 
L 836.051429 226.346595 
L 837.516897 222.770211 
L 838.234678 221.385626 
L 838.952458 220.461145 
L 839.628368 220.08492 
L 840.346149 220.28771 
L 841.06393 221.044236 
L 841.73984 222.27345 
L 845.430428 230.109828 
L 846.106338 230.872784 
L 846.824119 231.113259 
L 847.541899 230.813396 
L 848.289587 230.001183 
L 849.007368 228.753678 
L 849.725149 227.180802 
L 851.83662 221.830621 
L 853.23031 218.955172 
L 853.948091 217.970777 
L 854.624001 217.319713 
L 855.341781 216.979198 
L 856.059562 216.900059 
L 857.453253 217.226499 
L 858.918721 217.586582 
L 859.636502 217.569339 
L 860.354282 217.333277 
L 861.072063 216.82825 
L 862.393976 214.942627 
L 863.859444 212.08114 
L 866.688696 205.820089 
L 867.406477 204.677198 
L 868.082387 203.819127 
L 869.230836 202.995266 
L 872.448885 202.324313 
L 873.166666 201.789929 
L 873.884446 200.911522 
L 874.632134 199.652669 
L 875.349915 198.025175 
L 876.743606 194.009874 
L 878.179167 189.942352 
L 878.855077 188.295946 
L 879.572857 187.093465 
L 880.290638 186.417602 
L 880.966548 186.286787 
L 881.684328 186.669511 
L 882.402109 187.497606 
L 883.7958 190.021543 
L 885.261268 192.673768 
L 885.979049 193.689927 
L 886.696829 194.372811 
L 887.300961 194.680003 
L 888.018742 194.607205 
L 888.736523 194.199381 
L 889.484211 193.549074 
L 891.637552 191.344752 
L 892.313462 190.872951 
L 893.031243 190.636612 
L 893.605468 190.599228 
L 894.424934 190.86324 
L 895.788717 191.587272 
L 896.608183 191.856576 
L 897.325963 191.905062 
L 898.043744 191.635319 
L 898.719654 190.983449 
L 899.437435 189.929888 
L 900.902903 186.779391 
L 903.660377 179.414936 
L 904.378158 178.136243 
L 905.125846 177.29586 
L 905.843626 176.938655 
L 906.561407 177.069282 
L 907.237317 177.640944 
L 907.955097 178.554208 
L 910.066569 181.838806 
L 910.784349 182.573171 
L 911.532037 182.902814 
L 912.17804 182.755485 
L 912.89582 182.19979 
L 913.643508 181.008017 
L 915.75498 176.159129 
L 917.190541 172.924323 
L 917.866451 171.697206 
L 918.584231 170.837125 
L 919.302012 170.369529 
L 920.019793 170.272541 
L 920.623925 170.484742 
L 923.66851 172.315939 
L 924.386291 172.381945 
L 925.062201 172.081854 
L 925.779982 171.367543 
L 926.497762 170.239995 
L 927.24545 168.751323 
L 928.681011 165.085587 
L 929.285143 163.171573 
L 930.720705 159.884406 
L 931.468393 158.725874 
L 932.186173 157.969723 
L 932.903954 157.626021 
L 933.579864 157.671807 
L 934.297644 158.051568 
L 935.015425 158.685468 
L 937.126896 160.960007 
L 937.802806 161.416188 
L 938.520587 161.547467 
L 939.238367 161.304795 
L 939.914277 160.684013 
L 940.632058 159.733735 
L 942.097527 157.200058 
L 943.533088 154.643368 
L 944.208998 153.669294 
L 944.926778 153.027393 
L 945.644559 152.783072 
L 946.248691 152.96612 
L 946.966472 153.552655 
L 948.575496 155.568688 
L 950.011057 157.794869 
L 950.686968 158.60394 
L 951.404748 159.035081 
L 952.122529 159.005024 
L 952.870217 158.480832 
L 953.587997 157.489044 
L 954.95178 154.51124 
L 956.345471 151.15156 
L 957.063252 149.689753 
L 957.81094 148.524892 
L 958.52872 147.707624 
L 959.246501 147.233299 
L 959.922411 147.043279 
L 962.033882 147.036348 
L 962.679885 146.779861 
L 963.397665 146.211076 
L 964.145353 145.269751 
L 964.863134 143.937855 
L 965.580914 142.250905 
L 967.692386 136.176903 
L 968.440074 134.36418 
L 969.157854 132.9489 
L 969.875635 132.066314 
L 970.551545 131.80391 
L 971.197547 132.187398 
L 971.915328 133.184081 
L 972.591238 134.699792 
L 975.635824 142.451639 
L 976.353604 143.685398 
L 977.029515 144.215526 
L 977.747295 143.920321 
L 978.465076 142.761737 
L 979.212764 140.793562 
L 980.576547 134.972422 
L 982.688018 124.589073 
L 984.153487 118.886687 
L 984.871267 116.785375 
L 985.547177 115.23129 
L 986.264958 114.226508 
L 986.982738 113.753363 
L 987.700519 113.761523 
L 988.304651 114.151894 
L 989.740212 115.382666 
L 990.4879 115.787452 
L 991.205681 115.765445 
L 991.923461 115.153812 
L 992.599371 113.863999 
L 993.317152 111.900858 
L 994.782621 106.434695 
L 996.218182 100.44 
L 996.218182 100.44 
" style="fill:none;stroke:#ff0000;stroke-linecap:round;"/>
   </g>
  </g>
  <g id="text_21">
   <g id="patch_4">
    <path d="M 874.374375 646.18275 
L 1040.76 646.18275 
L 1040.76 628.26525 
L 874.374375 628.26525 
z
" style="fill:#ffffff;stroke:#ffffff;stroke-linejoin:miter;"/>
   </g>
   <!-- Created: 2024-02-08 11:46:36 -->
   <g style="fill:#696969;" transform="translate(878.334375 640.224)scale(0.12 -0.12)">
    <defs>
     <path d="M 30.03125 5.28125 
L 30.03125 -0.78125 
Q 25.984375 -1.3125 23 -1.3125 
Q 8.6875 -1.3125 8.6875 13.625 
L 8.6875 43.3125 
L -0.046875 43.3125 
L -0.046875 49.3125 
L 8.6875 49.3125 
L 9.03125 61.71875 
L 16.15625 62.40625 
L 16.15625 49.3125 
L 27.203125 49.3125 
L 27.203125 43.3125 
L 16.15625 43.3125 
L 16.15625 12.359375 
Q 16.15625 4.734375 24.078125 4.734375 
Q 26.703125 4.734375 30.03125 5.28125 
z
" id="FranklinGothic-Book-116"/>
     <path d="M 46.1875 66.65625 
L 46.1875 0 
L 39.203125 0 
L 39.203125 8.453125 
Q 34.03125 -1.3125 23.640625 -1.3125 
Q 14.984375 -1.3125 9.421875 5.9375 
Q 3.859375 13.1875 3.859375 24.265625 
Q 3.859375 35.59375 9.375 43.140625 
Q 14.890625 50.6875 24.03125 50.6875 
Q 32.90625 50.6875 38.53125 42.578125 
L 38.53125 66.65625 
z
M 38.53125 30.28125 
Q 38.53125 36.765625 34.5625 40.671875 
Q 30.609375 44.578125 25.34375 44.578125 
Q 19.625 44.578125 15.9375 39.5 
Q 12.25 34.421875 12.25 25.25 
Q 12.25 15.328125 15.640625 10.15625 
Q 19.046875 4.984375 24.953125 4.984375 
Q 30.328125 4.984375 34.421875 9.46875 
Q 38.53125 13.96875 38.53125 20.015625 
z
" id="FranklinGothic-Book-100"/>
     <path d="M 17.96875 49.3125 
L 17.96875 38.375 
L 7.078125 38.375 
L 7.078125 49.3125 
z
M 17.96875 10.984375 
L 17.96875 0 
L 7.078125 0 
L 7.078125 10.984375 
z
" id="FranklinGothic-Book-58"/>
    </defs>
    <use xlink:href="#FranklinGothic-Book-67"/>
    <use x="57.910156" xlink:href="#FranklinGothic-Book-114"/>
    <use x="90.869141" xlink:href="#FranklinGothic-Book-101"/>
    <use x="142.919922" xlink:href="#FranklinGothic-Book-97"/>
    <use x="195.800781" xlink:href="#FranklinGothic-Book-116"/>
    <use x="224.8125" xlink:href="#FranklinGothic-Book-101"/>
    <use x="276.863281" xlink:href="#FranklinGothic-Book-100"/>
    <use x="330.720703" xlink:href="#FranklinGothic-Book-58"/>
    <use x="355.720703" xlink:href="#FranklinGothic-Book-32"/>
    <use x="380.720703" xlink:href="#FranklinGothic-Book-50"/>
    <use x="439.363281" xlink:href="#FranklinGothic-Book-48"/>
    <use x="498.005859" xlink:href="#FranklinGothic-Book-50"/>
    <use x="552.273438" xlink:href="#FranklinGothic-Book-52"/>
    <use x="610.916016" xlink:href="#FranklinGothic-Book-45"/>
    <use x="635.916016" xlink:href="#FranklinGothic-Book-48"/>
    <use x="694.558594" xlink:href="#FranklinGothic-Book-50"/>
    <use x="753.201172" xlink:href="#FranklinGothic-Book-45"/>
    <use x="778.201172" xlink:href="#FranklinGothic-Book-48"/>
    <use x="836.84375" xlink:href="#FranklinGothic-Book-56"/>
    <use x="895.486328" xlink:href="#FranklinGothic-Book-32"/>
    <use x="920.486328" xlink:href="#FranklinGothic-Book-49"/>
    <use x="977.378906" xlink:href="#FranklinGothic-Book-49"/>
    <use x="1036.021484" xlink:href="#FranklinGothic-Book-58"/>
    <use x="1061.021484" xlink:href="#FranklinGothic-Book-52"/>
    <use x="1119.664062" xlink:href="#FranklinGothic-Book-54"/>
    <use x="1178.306641" xlink:href="#FranklinGothic-Book-58"/>
    <use x="1203.306641" xlink:href="#FranklinGothic-Book-51"/>
    <use x="1261.949219" xlink:href="#FranklinGothic-Book-54"/>
   </g>
  </g>
 </g>
 <defs>
  <clipPath id="pcfd17d7230">
   <rect height="498.96" width="892.8" x="144" y="77.76"/>
  </clipPath>
 </defs>
</svg>
