<?xml version="1.0" encoding="utf-8" standalone="no"?>
<!DOCTYPE svg PUBLIC "-//W3C//DTD SVG 1.1//EN"
  "http://www.w3.org/Graphics/SVG/1.1/DTD/svg11.dtd">
<!-- Created with matplotlib (https://matplotlib.org/) -->
<svg height="648pt" version="1.1" viewBox="0 0 1152 648" width="1152pt" xmlns="http://www.w3.org/2000/svg" xmlns:xlink="http://www.w3.org/1999/xlink">
 <metadata>
  <rdf:RDF xmlns:cc="http://creativecommons.org/ns#" xmlns:dc="http://purl.org/dc/elements/1.1/" xmlns:rdf="http://www.w3.org/1999/02/22-rdf-syntax-ns#">
   <cc:Work>
    <dc:type rdf:resource="http://purl.org/dc/dcmitype/StillImage"/>
    <dc:date>2022-11-23T17:29:03.880675</dc:date>
    <dc:format>image/svg+xml</dc:format>
    <dc:creator>
     <cc:Agent>
      <dc:title>Matplotlib v3.3.1, https://matplotlib.org/</dc:title>
     </cc:Agent>
    </dc:creator>
   </cc:Work>
  </rdf:RDF>
 </metadata>
 <defs>
  <style type="text/css">*{stroke-linecap:butt;stroke-linejoin:round;}</style>
 </defs>
 <g id="figure_1">
  <g id="patch_1">
   <path d="M 0 648 
L 1152 648 
L 1152 0 
L 0 0 
z
" style="fill:#ffffff;"/>
  </g>
  <g id="axes_1">
   <g id="patch_2">
    <path d="M 144 576.72 
L 1036.8 576.72 
L 1036.8 77.76 
L 144 77.76 
z
" style="fill:none;"/>
   </g>
   <g id="PolyCollection_1">
    <defs>
     <path d="M 457.344858 -459.613712 
L 457.344858 -505.076151 
L 459.562444 -498.376223 
L 466.215201 -486.337189 
L 468.432787 -500.778947 
L 470.650373 -499.374922 
L 472.867958 -482.235659 
L 475.085544 -484.536734 
L 477.30313 -484.499887 
L 479.520715 -463.546251 
L 481.738301 -466.899392 
L 483.955887 -483.376667 
L 486.173472 -489.3155 
L 490.608644 -472.153366 
L 492.82623 -473.004675 
L 495.043815 -471.917032 
L 497.261401 -482.50757 
L 499.478987 -475.061793 
L 501.696572 -453.918836 
L 503.914158 -446.728452 
L 506.131744 -426.21953 
L 508.349329 -445.182119 
L 510.566915 -439.299193 
L 512.784501 -468.453348 
L 515.002086 -464.232381 
L 517.219672 -448.027016 
L 519.437258 -466.783766 
L 521.654844 -467.368247 
L 523.872429 -476.722481 
L 526.090015 -459.038125 
L 528.307601 -448.969809 
L 530.525186 -437.83418 
L 532.742772 -430.04915 
L 534.960358 -436.267517 
L 537.177943 -455.795528 
L 539.395529 -458.711579 
L 541.613115 -461.701325 
L 543.8307 -467.363165 
L 546.048286 -461.124468 
L 548.265872 -473.427788 
L 550.483458 -474.131706 
L 552.701043 -480.033691 
L 554.918629 -467.408907 
L 557.136215 -459.210928 
L 559.3538 -447.426017 
L 561.571386 -464.665659 
L 563.788972 -467.675735 
L 566.006557 -477.745322 
L 568.224143 -481.820169 
L 570.441729 -475.455682 
L 572.659314 -486.741243 
L 574.8769 -485.437597 
L 577.094486 -475.853383 
L 579.312072 -476.791094 
L 581.529657 -458.411715 
L 583.747243 -432.528111 
L 585.964829 -433.690719 
L 588.182414 -442.368988 
L 590.4 -445.541702 
L 592.617586 -465.323835 
L 594.835171 -463.966823 
L 597.052757 -454.095451 
L 599.270343 -458.945371 
L 601.487928 -468.190332 
L 603.705514 -456.98736 
L 605.9231 -432.732679 
L 608.140686 -422.176448 
L 610.358271 -395.774435 
L 612.575857 -411.364824 
L 614.793443 -394.470789 
L 617.011028 -417.115607 
L 619.228614 -428.436745 
L 621.4462 -417.769971 
L 623.663785 -405.767786 
L 625.881371 -411.85655 
L 628.098957 -432.23587 
L 630.316542 -420.74447 
L 632.534128 -422.396264 
L 634.751714 -409.072643 
L 636.9693 -398.715898 
L 639.186885 -401.944519 
L 641.404471 -409.925223 
L 643.622057 -414.392689 
L 645.839642 -417.557779 
L 648.057228 -419.248962 
L 650.274814 -432.210458 
L 652.492399 -428.07208 
L 654.709985 -426.304661 
L 656.927571 -419.410329 
L 659.145156 -421.096429 
L 661.362742 -407.140045 
L 663.580328 -385.499009 
L 665.797914 -384.687089 
L 668.015499 -400.024627 
L 670.233085 -390.806348 
L 672.450671 -388.150773 
L 674.668256 -386.786137 
L 676.885842 -361.102019 
L 679.103428 -370.246602 
L 681.321013 -380.450874 
L 683.538599 -376.712738 
L 685.756185 -374.21853 
L 687.97377 -372.710315 
L 692.408942 -361.427295 
L 694.626528 -359.429896 
L 696.844113 -357.839092 
L 699.061699 -366.082812 
L 703.49687 -372.996203 
L 705.714456 -370.745952 
L 707.932042 -382.02516 
L 710.149627 -376.125716 
L 710.149627 -376.750856 
L 716.802385 -342.70231 
L 716.802385 -351.500017 
L 719.01997 -343.540913 
L 721.237556 -346.34388 
L 723.455142 -354.695602 
L 727.890313 -349.652549 
L 730.107899 -353.691819 
L 732.325484 -363.732183 
L 734.54307 -368.364828 
L 738.978241 -353.02729 
L 741.195827 -346.861018 
L 743.413413 -325.101815 
L 745.630999 -311.590145 
L 750.06617 -344.610767 
L 752.283756 -331.182957 
L 754.501341 -330.251599 
L 756.718927 -334.93761 
L 763.371684 -323.326773 
L 765.58927 -317.07537 
L 767.806855 -310.47709 
L 770.024441 -297.130599 
L 774.459613 -282.635476 
L 776.677198 -292.956644 
L 778.894784 -304.83558 
L 781.11237 -299.450733 
L 785.547541 -293.134529 
L 787.765127 -315.074158 
L 789.982712 -303.601817 
L 792.200298 -294.100193 
L 796.635469 -255.852279 
L 798.853055 -248.881711 
L 801.070641 -250.063379 
L 803.288227 -252.919711 
L 803.288227 -262.428959 
L 809.940984 -266.8024 
L 812.158569 -247.448462 
L 814.376155 -253.594405 
L 821.028912 -247.993554 
L 823.246498 -245.129599 
L 825.464083 -235.323028 
L 827.681669 -243.617572 
L 832.116841 -261.209173 
L 834.334426 -263.012169 
L 836.552012 -278.072714 
L 838.769598 -285.230062 
L 845.422355 -279.070143 
L 847.63994 -290.403987 
L 849.857526 -287.851331 
L 856.510283 -247.376038 
L 856.510283 -257.208021 
L 858.727869 -261.385788 
L 860.945455 -261.676757 
L 887.556483 -236.716887 
L 889.774069 -234.361176 
L 896.426826 -201.277023 
L 898.644411 -205.547544 
L 900.861997 -198.837451 
L 903.079583 -187.271085 
L 905.297168 -181.770612 
L 907.514754 -193.950683 
L 909.73234 -216.82167 
L 911.949925 -209.998492 
L 914.167511 -198.312689 
L 916.385097 -210.483865 
L 918.602683 -204.744518 
L 920.820268 -220.691949 
L 923.037854 -197.390226 
L 925.25544 -189.657291 
L 927.473025 -183.944627 
L 929.690611 -144.808557 
L 931.908197 -130.854713 
L 934.125782 -153.97474 
L 936.343368 -165.936266 
L 938.560954 -175.867356 
L 940.778539 -180.153125 
L 942.996125 -188.875865 
L 945.213711 -202.608622 
L 947.431297 -178.834232 
L 949.648882 -166.008691 
L 951.866468 -160.24139 
L 954.084054 -140.79851 
L 956.301639 -100.770472 
L 958.519225 -140.854417 
L 960.736811 -146.809768 
L 962.954396 -173.708589 
L 965.171982 -175.91564 
L 967.389568 -154.921344 
L 969.607154 -149.026983 
L 971.824739 -155.217397 
L 974.042325 -146.800874 
L 976.259911 -165.469952 
L 978.477496 -123.271711 
L 980.695082 -137.582595 
L 982.912668 -142.659954 
L 985.130253 -148.098167 
L 987.347839 -152.419513 
L 989.565425 -195.306425 
L 991.78301 -214.398616 
L 994.000596 -189.620443 
L 996.218182 -183.053929 
L 996.218182 -166.818069 
L 996.218182 -166.818069 
L 994.000596 -175.633564 
L 991.78301 -202.421843 
L 989.565425 -185.220319 
L 987.347839 -143.919129 
L 985.130253 -139.79854 
L 982.912668 -134.650027 
L 980.695082 -129.78613 
L 978.477496 -115.660755 
L 976.259911 -158.1182 
L 974.042325 -139.649878 
L 971.824739 -148.241746 
L 969.607154 -142.236841 
L 967.389568 -148.123579 
L 965.171982 -169.117874 
L 962.954396 -166.920989 
L 960.736811 -140.022167 
L 958.519225 -134.036322 
L 956.301639 -93.96 
L 954.084054 -133.993121 
L 951.866468 -153.418212 
L 949.648882 -159.205843 
L 947.431297 -172.036466 
L 945.213711 -195.803233 
L 942.996125 -182.067935 
L 940.778539 -173.357901 
L 938.560954 -169.06705 
L 936.343368 -159.128335 
L 934.125782 -147.176974 
L 931.908197 -124.003582 
L 929.690611 -137.965049 
L 927.473025 -177.151944 
L 925.25544 -182.862067 
L 923.037854 -190.577213 
L 920.820268 -213.868772 
L 918.602683 -197.936588 
L 916.385097 -203.675935 
L 914.167511 -191.514923 
L 911.949925 -203.190562 
L 909.73234 -209.990869 
L 907.514754 -187.122423 
L 905.297168 -174.881363 
L 903.079583 -180.37167 
L 900.861997 -191.871965 
L 898.644411 -198.381302 
L 896.426826 -193.577124 
L 889.774069 -226.374119 
L 887.556483 -227.987794 
L 860.945455 -246.48534 
L 858.727869 -246.171499 
L 856.510283 -241.640502 
L 856.510283 -231.648422 
L 849.857526 -272.454075 
L 847.63994 -274.85934 
L 845.422355 -263.495001 
L 838.769598 -275.946983 
L 836.552012 -269.36395 
L 834.334426 -254.262746 
L 832.116841 -251.705007 
L 827.681669 -234.70297 
L 825.464083 -226.657465 
L 823.246498 -236.143842 
L 821.028912 -238.626615 
L 814.376155 -244.199512 
L 812.158569 -238.650756 
L 809.940984 -257.3516 
L 803.288227 -253.577887 
L 803.288227 -244.726815 
L 801.070641 -242.249125 
L 798.853055 -234.414541 
L 796.635469 -246.879229 
L 792.200298 -286.0801 
L 789.982712 -295.472452 
L 787.765127 -306.68813 
L 785.547541 -284.618898 
L 781.11237 -290.546296 
L 778.894784 -296.413974 
L 776.677198 -284.522332 
L 774.459613 -274.414626 
L 770.024441 -286.935221 
L 767.806855 -301.468462 
L 765.58927 -307.919351 
L 763.371684 -313.667593 
L 756.718927 -325.334337 
L 754.501341 -320.483147 
L 752.283756 -321.63559 
L 750.06617 -334.100278 
L 745.630999 -301.384602 
L 743.413413 -315.196137 
L 741.195827 -336.815572 
L 738.978241 -342.450729 
L 734.54307 -357.905163 
L 732.325484 -354.15178 
L 730.107899 -343.831883 
L 727.890313 -339.490207 
L 723.455142 -343.687033 
L 721.237556 -336.910868 
L 719.01997 -333.683518 
L 716.802385 -341.937403 
L 716.802385 -332.778843 
L 710.149627 -366.768941 
L 710.149627 -366.220038 
L 707.932042 -371.933973 
L 705.714456 -360.454008 
L 703.49687 -362.132484 
L 699.061699 -355.877269 
L 696.844113 -347.36418 
L 694.626528 -348.853335 
L 692.408942 -350.459387 
L 687.97377 -362.375171 
L 685.756185 -364.157837 
L 683.538599 -366.944286 
L 681.321013 -371.20083 
L 679.103428 -361.448896 
L 676.885842 -352.04765 
L 674.668256 -377.017685 
L 672.450671 -379.858769 
L 670.233085 -382.623618 
L 668.015499 -391.254874 
L 665.797914 -376.36205 
L 663.580328 -377.105357 
L 661.362742 -398.644744 
L 659.145156 -412.593504 
L 656.927571 -410.790508 
L 654.709985 -417.748371 
L 652.492399 -419.251503 
L 650.274814 -422.871472 
L 648.057228 -410.16918 
L 645.839642 -408.417008 
L 643.622057 -405.096903 
L 641.404471 -399.930602 
L 639.186885 -391.85079 
L 636.9693 -388.652664 
L 634.751714 -398.798488 
L 632.534128 -412.005212 
L 630.316542 -410.711731 
L 628.098957 -421.959174 
L 625.881371 -401.653549 
L 623.663785 -395.38944 
L 621.4462 -407.508522 
L 619.228614 -418.081271 
L 617.011028 -406.399279 
L 614.793443 -384.242375 
L 612.575857 -400.831464 
L 610.358271 -385.754402 
L 608.140686 -412.070013 
L 605.9231 -422.359416 
L 603.705514 -446.946997 
L 601.487928 -458.23637 
L 599.270343 -448.920255 
L 597.052757 -444.560791 
L 594.835171 -454.213618 
L 592.617586 -455.776469 
L 590.4 -435.943511 
L 588.182414 -432.798751 
L 585.964829 -424.049328 
L 583.747243 -422.774905 
L 581.529657 -448.775405 
L 579.312072 -467.426695 
L 577.094486 -466.450866 
L 574.8769 -475.791123 
L 572.659314 -477.557272 
L 570.441729 -465.95914 
L 568.224143 -472.188943 
L 566.006557 -468.721447 
L 563.788972 -458.723014 
L 561.571386 -455.723103 
L 559.3538 -438.524121 
L 557.136215 -450.453882 
L 554.918629 -457.637913 
L 552.701043 -471.627333 
L 550.483458 -465.702477 
L 548.265872 -464.810508 
L 546.048286 -452.436034 
L 543.8307 -458.753509 
L 541.613115 -452.766393 
L 539.395529 -449.807141 
L 537.177943 -447.079141 
L 534.960358 -427.380868 
L 532.742772 -421.09897 
L 530.525186 -429.255018 
L 528.307601 -439.991676 
L 526.090015 -449.884648 
L 523.872429 -468.252592 
L 521.654844 -458.169028 
L 519.437258 -457.77768 
L 517.219672 -439.366536 
L 515.002086 -454.710427 
L 512.784501 -458.705226 
L 510.566915 -429.754368 
L 508.349329 -435.533104 
L 506.131744 -415.937751 
L 503.914158 -435.618235 
L 501.696572 -443.799695 
L 499.478987 -464.670741 
L 497.261401 -472.294403 
L 495.043815 -461.851257 
L 492.82623 -462.872828 
L 490.608644 -462.532304 
L 486.173472 -477.056651 
L 483.955887 -472.302027 
L 481.738301 -455.984849 
L 479.520715 -451.322979 
L 477.30313 -468.050565 
L 475.085544 -469.495249 
L 472.867958 -467.323776 
L 470.650373 -483.665096 
L 468.432787 -476.080822 
L 466.215201 -465.222186 
L 459.562444 -472.336334 
L 457.344858 -459.613712 
z
" id="mbbb17ff05f" style="stroke:#56b4e9;stroke-opacity:0.1;"/>
    </defs>
    <g clip-path="url(#p8a597b376b)">
     <use style="fill:#56b4e9;fill-opacity:0.1;stroke:#56b4e9;stroke-opacity:0.1;" x="0" xlink:href="#mbbb17ff05f" y="648"/>
    </g>
   </g>
   <g id="PolyCollection_2">
    <defs>
     <path d="M 184.581818 -535.460003 
L 184.581818 -543.84809 
L 186.799404 -545.906148 
L 189.01699 -547.56 
L 191.234575 -547.112656 
L 193.452161 -546.568886 
L 195.669747 -546.516905 
L 197.887332 -546.436539 
L 200.104918 -546.331879 
L 202.322504 -546.206139 
L 204.540089 -546.061823 
L 206.757675 -545.901028 
L 208.975261 -545.725467 
L 211.192846 -545.286383 
L 213.410432 -544.83449 
L 215.628018 -544.37092 
L 217.845604 -543.896652 
L 220.063189 -543.412512 
L 222.280775 -542.919273 
L 224.498361 -542.417548 
L 226.715946 -541.907944 
L 228.933532 -541.390958 
L 231.151118 -540.86706 
L 233.368703 -540.336656 
L 235.586289 -539.800141 
L 237.803875 -539.152625 
L 240.021461 -538.499964 
L 242.239046 -537.842385 
L 244.456632 -537.180155 
L 246.674218 -536.513453 
L 248.891803 -535.842533 
L 251.109389 -535.167534 
L 253.326975 -534.488672 
L 255.54456 -533.806075 
L 257.762146 -533.119907 
L 259.979732 -532.430334 
L 262.197317 -531.737458 
L 264.414903 -530.955117 
L 266.632489 -530.169664 
L 268.850075 -529.381161 
L 271.06766 -528.589749 
L 273.285246 -527.795516 
L 275.502832 -527.279318 
L 277.720417 -526.760515 
L 279.938003 -526.239171 
L 282.155589 -525.715387 
L 284.373174 -525.189227 
L 286.59076 -524.660768 
L 288.808346 -524.130084 
L 291.025931 -523.633987 
L 293.243517 -523.135743 
L 295.461103 -522.635389 
L 297.678689 -522.133003 
L 299.896274 -521.628634 
L 302.11386 -521.122334 
L 304.331446 -520.938235 
L 306.549031 -520.752332 
L 308.766617 -520.564663 
L 310.984203 -520.375253 
L 313.201788 -520.184166 
L 315.419374 -519.991427 
L 317.63696 -520.107878 
L 319.854545 -520.222818 
L 322.072131 -520.336283 
L 324.289717 -520.448313 
L 326.507303 -520.558958 
L 328.724888 -520.668205 
L 330.942474 -520.776092 
L 333.16006 -520.882697 
L 335.377645 -520.987979 
L 337.595231 -521.092017 
L 339.812817 -521.194809 
L 342.030402 -521.296382 
L 344.247988 -521.341895 
L 346.465574 -521.386214 
L 348.683159 -521.429351 
L 350.900745 -521.47132 
L 353.118331 -521.51217 
L 355.335917 -521.551914 
L 357.553502 -521.590541 
L 359.771088 -521.628113 
L 361.988674 -521.66463 
L 364.206259 -521.700106 
L 366.423845 -521.734565 
L 368.641431 -521.768033 
L 370.859016 -521.721109 
L 373.076602 -521.673181 
L 375.294188 -521.624276 
L 377.511773 -521.574379 
L 379.729359 -521.523516 
L 381.946945 -521.471713 
L 384.164531 -521.419009 
L 386.382116 -521.365363 
L 388.599702 -521.310829 
L 390.817288 -521.255405 
L 393.034873 -521.199129 
L 395.252459 -521.141977 
L 397.470045 -521.041193 
L 399.68763 -520.939658 
L 401.905216 -520.837374 
L 404.122802 -520.734378 
L 406.340387 -520.630633 
L 408.557973 -520.526201 
L 410.775559 -520.421071 
L 412.993145 -520.315242 
L 415.21073 -520.208714 
L 417.428316 -520.101538 
L 419.645902 -519.993701 
L 421.863487 -519.885191 
L 424.081073 -519.700216 
L 426.298659 -519.51458 
L 428.516244 -519.328308 
L 430.73383 -519.141389 
L 432.951416 -518.953859 
L 435.169001 -518.765707 
L 437.386587 -518.576945 
L 439.604173 -518.387574 
L 441.821759 -518.197605 
L 444.039344 -518.007051 
L 446.25693 -517.815926 
L 448.474516 -517.624204 
L 450.692101 -517.482937 
L 452.909687 -517.341124 
L 455.127273 -517.198791 
L 457.344858 -517.055923 
L 459.562444 -516.912547 
L 461.78003 -516.663927 
L 463.997615 -516.414811 
L 466.215201 -516.153714 
L 468.432787 -515.892146 
L 470.650373 -515.63012 
L 472.867958 -515.36765 
L 475.085544 -515.104723 
L 477.30313 -514.595284 
L 479.520715 -514.050879 
L 481.738301 -513.473666 
L 483.955887 -512.909185 
L 486.173472 -512.383889 
L 488.391058 -511.87168 
L 490.608644 -511.357884 
L 492.82623 -510.760354 
L 495.043815 -510.143739 
L 497.261401 -509.439453 
L 499.478987 -508.739054 
L 501.696572 -508.059938 
L 503.914158 -507.421367 
L 506.131744 -506.79657 
L 508.349329 -506.171176 
L 510.566915 -505.569402 
L 512.784501 -504.999521 
L 515.002086 -504.453196 
L 517.219672 -503.918523 
L 519.437258 -503.370878 
L 521.654844 -502.819407 
L 523.872429 -502.26903 
L 526.090015 -501.738601 
L 528.307601 -501.233863 
L 530.525186 -500.739316 
L 532.742772 -500.248467 
L 534.960358 -499.783347 
L 537.177943 -499.341975 
L 539.395529 -498.922801 
L 541.613115 -498.515812 
L 543.8307 -498.114591 
L 546.048286 -497.680055 
L 548.265872 -497.191734 
L 550.483458 -496.677112 
L 552.701043 -496.141092 
L 554.918629 -495.619646 
L 557.136215 -494.960326 
L 559.3538 -494.273142 
L 561.571386 -493.580888 
L 563.788972 -492.898393 
L 566.006557 -492.228451 
L 568.224143 -491.537175 
L 570.441729 -490.809319 
L 572.659314 -490.026076 
L 574.8769 -489.197244 
L 577.094486 -488.324843 
L 579.312072 -487.425111 
L 581.529657 -486.495228 
L 583.747243 -485.459134 
L 585.964829 -484.391338 
L 588.182414 -483.287369 
L 590.4 -482.187732 
L 592.617586 -481.097332 
L 594.835171 -480.022675 
L 597.052757 -478.949695 
L 599.270343 -477.852981 
L 601.487928 -476.735936 
L 603.705514 -475.626452 
L 605.9231 -474.534871 
L 608.140686 -473.457698 
L 610.358271 -472.362152 
L 612.575857 -471.290151 
L 614.793443 -470.249204 
L 617.011028 -469.240212 
L 619.228614 -468.252376 
L 621.4462 -467.279368 
L 623.663785 -466.316309 
L 625.881371 -465.334076 
L 628.098957 -464.334779 
L 630.316542 -463.332229 
L 632.534128 -462.235502 
L 634.751714 -461.148876 
L 636.9693 -460.170811 
L 639.186885 -459.186609 
L 641.404471 -458.204046 
L 643.622057 -457.237073 
L 645.839642 -456.272248 
L 648.057228 -455.303484 
L 650.274814 -454.333856 
L 652.492399 -453.331992 
L 654.709985 -452.301832 
L 656.927571 -451.239475 
L 659.145156 -450.167601 
L 661.362742 -449.081394 
L 663.580328 -447.808535 
L 665.797914 -446.497354 
L 668.015499 -445.17217 
L 670.233085 -443.876364 
L 672.450671 -442.613123 
L 674.668256 -441.360568 
L 676.885842 -440.114277 
L 679.103428 -438.613254 
L 681.321013 -437.102842 
L 683.538599 -435.589837 
L 685.756185 -434.086349 
L 687.97377 -432.586012 
L 690.191356 -430.802863 
L 692.408942 -429.026893 
L 694.626528 -427.277288 
L 696.844113 -425.567669 
L 699.061699 -423.873615 
L 701.279285 -422.204135 
L 703.49687 -420.557449 
L 705.714456 -418.881933 
L 707.932042 -417.189582 
L 710.149627 -415.518627 
L 712.367213 -413.889248 
L 714.584799 -412.27143 
L 716.802385 -410.781652 
L 719.01997 -409.272053 
L 721.237556 -407.756608 
L 723.455142 -406.241533 
L 725.672727 -404.522905 
L 727.890313 -402.787137 
L 730.107899 -401.108419 
L 732.325484 -399.402155 
L 734.54307 -397.686691 
L 736.760656 -395.937327 
L 738.978241 -394.161484 
L 741.195827 -392.371651 
L 743.413413 -390.492368 
L 745.630999 -388.59696 
L 747.848584 -386.697525 
L 750.06617 -384.826208 
L 752.283756 -382.974763 
L 754.501341 -381.137817 
L 756.718927 -379.303259 
L 758.936513 -377.454876 
L 761.154098 -375.585148 
L 763.371684 -373.695699 
L 765.58927 -371.784841 
L 767.806855 -369.873297 
L 770.024441 -367.884105 
L 772.242027 -365.853632 
L 774.459613 -363.816945 
L 776.677198 -361.801935 
L 778.894784 -359.787052 
L 781.11237 -357.775155 
L 783.329955 -355.764757 
L 785.547541 -353.734842 
L 787.765127 -351.676669 
L 789.982712 -349.628623 
L 792.200298 -347.587769 
L 794.417884 -345.559227 
L 796.635469 -344.150692 
L 798.853055 -342.83425 
L 801.070641 -341.552205 
L 803.288227 -340.274377 
L 805.505812 -339.014287 
L 807.723398 -337.781402 
L 809.940984 -336.580942 
L 812.158569 -335.380977 
L 814.376155 -334.180504 
L 816.593741 -332.97162 
L 818.811326 -331.78731 
L 821.028912 -330.629695 
L 823.246498 -329.955966 
L 825.464083 -329.282428 
L 827.681669 -328.628585 
L 829.899255 -328.006863 
L 832.116841 -327.419244 
L 834.334426 -326.879285 
L 836.552012 -326.342986 
L 838.769598 -325.826686 
L 840.987183 -325.316828 
L 843.204769 -324.821938 
L 845.422355 -324.371913 
L 847.63994 -323.925446 
L 849.857526 -323.144516 
L 852.075112 -322.337564 
L 854.292697 -321.523256 
L 856.510283 -320.708032 
L 858.727869 -320.216369 
L 860.945455 -319.695877 
L 863.16304 -319.129794 
L 865.380626 -318.518745 
L 867.598212 -317.865727 
L 869.815797 -317.172101 
L 872.033383 -316.49418 
L 874.250969 -315.780325 
L 876.468554 -314.232354 
L 878.68614 -312.724952 
L 880.903726 -311.26558 
L 883.121311 -309.846295 
L 885.338897 -308.432932 
L 887.556483 -307.006812 
L 889.774069 -305.584935 
L 891.991654 -303.558032 
L 894.20924 -301.50348 
L 896.426826 -299.383975 
L 898.644411 -297.251357 
L 900.861997 -295.091587 
L 903.079583 -292.924561 
L 905.297168 -291.241993 
L 907.514754 -289.719128 
L 909.73234 -288.213811 
L 911.949925 -286.702521 
L 914.167511 -285.185298 
L 916.385097 -283.667465 
L 918.602683 -282.149022 
L 920.820268 -280.62997 
L 923.037854 -279.128349 
L 925.25544 -277.626158 
L 927.473025 -276.119608 
L 929.690611 -274.61246 
L 931.908197 -273.955745 
L 934.125782 -273.297963 
L 936.343368 -272.639164 
L 938.560954 -271.979336 
L 940.778539 -271.318492 
L 942.996125 -270.656656 
L 945.213711 -269.993843 
L 947.431297 -269.330038 
L 949.648882 -268.66528 
L 951.866468 -267.999556 
L 954.084054 -267.332892 
L 954.084054 -132.692308 
L 954.084054 -132.692308 
L 951.866468 -133.860914 
L 949.648882 -135.030485 
L 947.431297 -136.200997 
L 945.213711 -137.372487 
L 942.996125 -138.544943 
L 940.778539 -139.718402 
L 938.560954 -140.892828 
L 936.343368 -142.068295 
L 934.125782 -143.244766 
L 931.908197 -144.422278 
L 929.690611 -145.600833 
L 927.473025 -147.500065 
L 925.25544 -149.39992 
L 923.037854 -151.293434 
L 920.820268 -153.187546 
L 918.602683 -155.098277 
L 916.385097 -157.009618 
L 914.167511 -158.921569 
L 911.949925 -160.83413 
L 909.73234 -162.742765 
L 907.514754 -164.64807 
L 905.297168 -166.573185 
L 903.079583 -168.621409 
L 900.861997 -171.134346 
L 898.644411 -173.582189 
L 896.426826 -176.005218 
L 894.20924 -178.413914 
L 891.991654 -180.779333 
L 889.774069 -183.09746 
L 887.556483 -184.781972 
L 885.338897 -186.464272 
L 883.121311 -188.1297 
L 880.903726 -189.801708 
L 878.68614 -191.505851 
L 876.468554 -193.265189 
L 874.250969 -195.064411 
L 872.033383 -196.025704 
L 869.815797 -196.959908 
L 867.598212 -197.904124 
L 865.380626 -198.818176 
L 863.16304 -199.694655 
L 860.945455 -200.52876 
L 858.727869 -201.316208 
L 856.510283 -202.076758 
L 854.292697 -203.156649 
L 852.075112 -204.237176 
L 849.857526 -205.3044 
L 847.63994 -206.335793 
L 845.422355 -207.021744 
L 843.204769 -207.711 
L 840.987183 -208.440775 
L 838.769598 -209.181248 
L 836.552012 -209.924327 
L 834.334426 -210.684253 
L 832.116841 -211.448373 
L 829.899255 -212.268057 
L 827.681669 -213.127002 
L 825.464083 -214.028259 
L 823.246498 -214.948651 
L 821.028912 -215.874595 
L 818.811326 -217.278861 
L 816.593741 -218.711881 
L 814.376155 -220.164798 
L 812.158569 -221.596014 
L 809.940984 -223.02667 
L 807.723398 -224.450224 
L 805.505812 -225.902189 
L 803.288227 -227.379858 
L 801.070641 -228.875087 
L 798.853055 -230.37428 
L 796.635469 -231.898034 
L 794.417884 -233.502243 
L 792.200298 -235.726078 
L 789.982712 -237.962098 
L 787.765127 -240.204929 
L 785.547541 -242.45814 
L 783.329955 -244.689497 
L 781.11237 -246.902202 
L 778.894784 -249.114042 
L 776.677198 -251.327877 
L 774.459613 -253.542094 
L 772.242027 -255.777911 
L 770.024441 -258.007209 
L 767.806855 -260.211413 
L 765.58927 -262.346712 
L 763.371684 -264.482138 
L 761.154098 -266.596002 
L 758.936513 -268.690095 
L 756.718927 -270.759309 
L 754.501341 -272.809744 
L 752.283756 -274.862466 
L 750.06617 -276.927347 
L 747.848584 -279.008747 
L 745.630999 -281.117071 
L 743.413413 -283.222002 
L 741.195827 -285.312054 
L 738.978241 -287.307396 
L 736.760656 -289.292584 
L 734.54307 -291.25752 
L 732.325484 -293.189165 
L 730.107899 -295.11273 
L 727.890313 -297.001479 
L 725.672727 -298.961942 
L 723.455142 -300.925747 
L 721.237556 -302.700484 
L 719.01997 -304.480597 
L 716.802385 -306.262437 
L 714.584799 -308.037899 
L 712.367213 -309.913803 
L 710.149627 -311.801473 
L 707.932042 -313.714072 
L 705.714456 -315.642147 
L 703.49687 -317.550565 
L 701.279285 -319.444537 
L 699.061699 -321.349639 
L 696.844113 -323.281196 
L 694.626528 -325.228622 
L 692.408942 -327.21418 
L 690.191356 -329.229787 
L 687.97377 -331.250515 
L 685.756185 -332.992268 
L 683.538599 -334.738645 
L 681.321013 -336.498733 
L 679.103428 -338.258084 
L 676.885842 -340.01051 
L 674.668256 -341.550972 
L 672.450671 -343.10118 
L 670.233085 -344.666547 
L 668.015499 -346.275305 
L 665.797914 -347.919259 
L 663.580328 -349.556859 
L 661.362742 -351.159086 
L 659.145156 -352.580937 
L 656.927571 -353.984873 
L 654.709985 -355.386763 
L 652.492399 -356.747587 
L 650.274814 -358.072414 
L 648.057228 -359.359441 
L 645.839642 -360.641766 
L 643.622057 -361.918297 
L 641.404471 -363.199212 
L 639.186885 -364.507382 
L 636.9693 -365.819147 
L 634.751714 -367.114458 
L 632.534128 -368.494697 
L 630.316542 -369.892051 
L 628.098957 -371.208136 
L 625.881371 -372.515556 
L 623.663785 -373.804286 
L 621.4462 -375.072469 
L 619.228614 -376.35238 
L 617.011028 -377.644553 
L 614.793443 -378.956306 
L 612.575857 -380.292416 
L 610.358271 -381.644129 
L 608.140686 -383.004547 
L 605.9231 -384.338586 
L 603.705514 -385.682409 
L 601.487928 -387.036358 
L 599.270343 -388.39337 
L 597.052757 -389.735389 
L 594.835171 -391.058069 
L 592.617586 -392.384815 
L 590.4 -393.727685 
L 588.182414 -395.080326 
L 585.964829 -396.43918 
L 583.747243 -397.763309 
L 581.529657 -399.05139 
L 579.312072 -400.243451 
L 577.094486 -401.411587 
L 574.8769 -402.557474 
L 572.659314 -403.661393 
L 570.441729 -404.722365 
L 568.224143 -405.715424 
L 566.006557 -406.678025 
L 563.788972 -407.624351 
L 561.571386 -408.578604 
L 559.3538 -409.539694 
L 557.136215 -410.497874 
L 554.918629 -411.438634 
L 552.701043 -412.230339 
L 550.483458 -413.03865 
L 548.265872 -413.827064 
L 546.048286 -414.585898 
L 543.8307 -415.288914 
L 541.613115 -415.951906 
L 539.395529 -416.62402 
L 537.177943 -417.312488 
L 534.960358 -418.027549 
L 532.742772 -418.767731 
L 530.525186 -419.53598 
L 528.307601 -420.314483 
L 526.090015 -421.10587 
L 523.872429 -421.925134 
L 521.654844 -422.7692 
L 519.437258 -423.616113 
L 517.219672 -424.46037 
L 515.002086 -425.296508 
L 512.784501 -426.14417 
L 510.566915 -427.012493 
L 508.349329 -427.913724 
L 506.131744 -428.836314 
L 503.914158 -429.759603 
L 501.696572 -430.698114 
L 499.478987 -431.668428 
L 497.261401 -432.667852 
L 495.043815 -433.674697 
L 492.82623 -434.600934 
L 490.608644 -435.508975 
L 488.391058 -436.336613 
L 486.173472 -437.165356 
L 483.955887 -438.010134 
L 481.738301 -438.892801 
L 479.520715 -439.791987 
L 477.30313 -440.663168 
L 475.085544 -441.499789 
L 472.867958 -442.018414 
L 470.650373 -442.537496 
L 468.432787 -443.057049 
L 466.215201 -443.577033 
L 463.997615 -444.097488 
L 461.78003 -444.615135 
L 459.562444 -445.133277 
L 457.344858 -445.548284 
L 455.127273 -445.963799 
L 452.909687 -446.379847 
L 450.692101 -446.796417 
L 448.474516 -447.213533 
L 446.25693 -447.688475 
L 444.039344 -448.163988 
L 441.821759 -448.640098 
L 439.604173 -449.116768 
L 437.386587 -449.59406 
L 435.169001 -450.071936 
L 432.951416 -450.550448 
L 430.73383 -451.029557 
L 428.516244 -451.509302 
L 426.298659 -451.989669 
L 424.081073 -452.470696 
L 421.863487 -452.952385 
L 419.645902 -453.355549 
L 417.428316 -453.759387 
L 415.21073 -454.163886 
L 412.993145 -454.569058 
L 410.775559 -454.974904 
L 408.557973 -455.381449 
L 406.340387 -455.788692 
L 404.122802 -456.196647 
L 401.905216 -456.605326 
L 399.68763 -457.014717 
L 397.470045 -457.424882 
L 395.252459 -457.835772 
L 393.034873 -458.220437 
L 390.817288 -458.605953 
L 388.599702 -458.992345 
L 386.382116 -459.379627 
L 384.164531 -459.767799 
L 381.946945 -460.156885 
L 379.729359 -460.546899 
L 377.511773 -460.937853 
L 375.294188 -461.329773 
L 373.076602 -461.722658 
L 370.859016 -462.116548 
L 368.641431 -462.511441 
L 366.423845 -462.81997 
L 364.206259 -463.129516 
L 361.988674 -463.440053 
L 359.771088 -463.751633 
L 357.553502 -464.064266 
L 355.335917 -464.37798 
L 353.118331 -464.692786 
L 350.900745 -465.008698 
L 348.683159 -465.325754 
L 346.465574 -465.643953 
L 344.247988 -465.963333 
L 342.030402 -466.283908 
L 339.812817 -466.545425 
L 337.595231 -466.808162 
L 335.377645 -467.072119 
L 333.16006 -467.337346 
L 330.942474 -467.603869 
L 328.724888 -467.871701 
L 326.507303 -468.140893 
L 324.289717 -468.411456 
L 322.072131 -468.68343 
L 319.854545 -468.95684 
L 317.63696 -469.231699 
L 315.419374 -469.508095 
L 313.201788 -470.105091 
L 310.984203 -470.703739 
L 308.766617 -471.304064 
L 306.549031 -471.90613 
L 304.331446 -472.509963 
L 302.11386 -473.115624 
L 299.896274 -474.048494 
L 297.678689 -474.983269 
L 295.461103 -475.920052 
L 293.243517 -476.858868 
L 291.025931 -477.799793 
L 288.808346 -478.742865 
L 286.59076 -479.719177 
L 284.373174 -480.697712 
L 282.155589 -481.678547 
L 279.938003 -482.661758 
L 277.720417 -483.647409 
L 275.502832 -484.635601 
L 273.285246 -485.626397 
L 271.06766 -486.90242 
L 268.850075 -488.181264 
L 266.632489 -489.463018 
L 264.414903 -490.747796 
L 262.197317 -492.035712 
L 259.979732 -493.233402 
L 257.762146 -494.43437 
L 255.54456 -495.638769 
L 253.326975 -496.846738 
L 251.109389 -498.058418 
L 248.891803 -499.273985 
L 246.674218 -500.493606 
L 244.456632 -501.71747 
L 242.239046 -502.945782 
L 240.021461 -504.17877 
L 237.803875 -505.416649 
L 235.586289 -506.6597 
L 233.368703 -507.821203 
L 231.151118 -508.988818 
L 228.933532 -510.162938 
L 226.715946 -511.34397 
L 224.498361 -512.532385 
L 222.280775 -513.728677 
L 220.063189 -514.933457 
L 217.845604 -516.147335 
L 215.628018 -517.371085 
L 213.410432 -518.605534 
L 211.192846 -519.85166 
L 208.975261 -521.110593 
L 206.757675 -522.109534 
L 204.540089 -523.123266 
L 202.322504 -524.153476 
L 200.104918 -525.202238 
L 197.887332 -526.272105 
L 195.669747 -527.366266 
L 193.452161 -528.488786 
L 191.234575 -530.711897 
L 189.01699 -533.031409 
L 186.799404 -534.043603 
L 184.581818 -535.460003 
z
" id="mfaaad4a02d" style="stroke:#d55e00;stroke-opacity:0.1;"/>
    </defs>
    <g clip-path="url(#p8a597b376b)">
     <use style="fill:#d55e00;fill-opacity:0.1;stroke:#d55e00;stroke-opacity:0.1;" x="0" xlink:href="#mfaaad4a02d" y="648"/>
    </g>
   </g>
   <g id="patch_3">
    <path d="M 144 576.72 
L 1036.8 576.72 
" style="fill:none;stroke:#d3d3d3;stroke-linecap:square;stroke-linejoin:miter;stroke-width:1.25;"/>
   </g>
   <g id="matplotlib.axis_1">
    <g id="xtick_1">
     <g id="line2d_1">
      <defs>
       <path d="M 0 0 
L 0 6 
" id="mb7753ef2a2" style="stroke:#696969;stroke-width:1.25;"/>
      </defs>
      <g>
       <use style="fill:#696969;stroke:#696969;stroke-width:1.25;" x="397.470045" xlink:href="#mb7753ef2a2" y="576.72"/>
      </g>
     </g>
     <g id="text_1">
      <!-- 2000 -->
      <g style="fill:#696969;" transform="translate(379.877857 596.218438)scale(0.15 -0.15)">
       <defs>
        <path d="M 52.484375 6.9375 
L 52.484375 0 
L 5.171875 0 
L 5.171875 6.9375 
Q 33.203125 27.9375 38.59375 34.59375 
Q 44 41.265625 44 47.796875 
Q 44 53.90625 39.453125 57.65625 
Q 34.90625 61.421875 29 61.421875 
Q 22.90625 61.421875 18.21875 57.296875 
Q 13.53125 53.171875 12.9375 46.09375 
L 5.171875 48.4375 
Q 10.0625 68.015625 29.109375 68.015625 
Q 39.40625 68.015625 45.84375 62.15625 
Q 52.296875 56.296875 52.296875 47.859375 
Q 52.296875 42.046875 49.234375 36.671875 
Q 46.1875 31.296875 37.6875 23.828125 
Q 29.203125 16.359375 15.71875 6.9375 
z
" id="FranklinGothic-Book-50"/>
        <path d="M 29.390625 -1.3125 
Q 17.875 -1.3125 10.984375 8.671875 
Q 4.109375 18.65625 4.109375 33.453125 
Q 4.109375 48 10.640625 58 
Q 17.1875 68.015625 29.15625 68.015625 
Q 41.65625 68.015625 48.125 57.5625 
Q 54.59375 47.125 54.59375 33.0625 
Q 54.59375 19.28125 47.953125 8.984375 
Q 41.3125 -1.3125 29.390625 -1.3125 
z
M 29.4375 5.21875 
Q 37.890625 5.21875 41.9375 12.859375 
Q 46 20.515625 46 32.078125 
Q 46 44.734375 41.84375 53.125 
Q 37.703125 61.53125 29.046875 61.53125 
Q 20.703125 61.53125 16.625 53.859375 
Q 12.546875 46.1875 12.546875 33.6875 
Q 12.546875 20.703125 16.84375 12.953125 
Q 21.140625 5.21875 29.4375 5.21875 
z
" id="FranklinGothic-Book-48"/>
       </defs>
       <use xlink:href="#FranklinGothic-Book-50"/>
       <use x="58.642578" xlink:href="#FranklinGothic-Book-48"/>
       <use x="117.285156" xlink:href="#FranklinGothic-Book-48"/>
       <use x="175.927734" xlink:href="#FranklinGothic-Book-48"/>
      </g>
     </g>
    </g>
    <g id="xtick_2">
     <g id="line2d_2">
      <g>
       <use style="fill:#696969;stroke:#696969;stroke-width:1.25;" x="663.580328" xlink:href="#mb7753ef2a2" y="576.72"/>
      </g>
     </g>
     <g id="text_2">
      <!-- 2010 -->
      <g style="fill:#696969;" transform="translate(646.51314 596.218438)scale(0.15 -0.15)">
       <defs>
        <path d="M 55.859375 6.203125 
L 55.859375 0 
L 9.1875 0 
L 9.1875 6.203125 
L 29.203125 6.203125 
L 29.203125 57.671875 
Q 20.359375 48.4375 10.84375 43.265625 
L 10.84375 51.65625 
Q 23.96875 58.546875 31.203125 68.015625 
L 37.15625 68.015625 
L 37.15625 6.203125 
z
" id="FranklinGothic-Book-49"/>
       </defs>
       <use xlink:href="#FranklinGothic-Book-50"/>
       <use x="58.642578" xlink:href="#FranklinGothic-Book-48"/>
       <use x="113.535156" xlink:href="#FranklinGothic-Book-49"/>
       <use x="168.927734" xlink:href="#FranklinGothic-Book-48"/>
      </g>
     </g>
    </g>
    <g id="xtick_3">
     <g id="line2d_3">
      <g>
       <use style="fill:#696969;stroke:#696969;stroke-width:1.25;" x="929.690611" xlink:href="#mb7753ef2a2" y="576.72"/>
      </g>
     </g>
     <g id="text_3">
      <!-- 2020 -->
      <g style="fill:#696969;" transform="translate(912.098424 596.218438)scale(0.15 -0.15)">
       <use xlink:href="#FranklinGothic-Book-50"/>
       <use x="58.642578" xlink:href="#FranklinGothic-Book-48"/>
       <use x="117.285156" xlink:href="#FranklinGothic-Book-50"/>
       <use x="175.927734" xlink:href="#FranklinGothic-Book-48"/>
      </g>
     </g>
    </g>
    <g id="text_4">
     <!-- Year -->
     <g style="fill:#696969;" transform="translate(572.109375 616.048125)scale(0.2 -0.2)">
      <defs>
       <path d="M 52 66.65625 
L 29.6875 28.03125 
L 29.6875 0 
L 21.34375 0 
L 21.34375 28.03125 
L -0.984375 66.65625 
L 8.84375 66.65625 
L 26.5625 35.984375 
L 44.390625 66.65625 
z
" id="FranklinGothic-Book-89"/>
       <path d="M 40.234375 14.703125 
L 47.359375 13.234375 
Q 45.40625 6.9375 39.734375 2.8125 
Q 34.078125 -1.3125 26.421875 -1.3125 
Q 16.3125 -1.3125 10.0625 5.78125 
Q 3.8125 12.890625 3.8125 24.421875 
Q 3.8125 36.1875 10.296875 43.4375 
Q 16.796875 50.6875 26.609375 50.6875 
Q 36.28125 50.6875 42.15625 44 
Q 48.046875 37.3125 48.1875 23.96875 
L 12.359375 23.96875 
Q 12.359375 12.796875 17.046875 8.890625 
Q 21.734375 4.984375 26.953125 4.984375 
Q 36.375 4.984375 40.234375 14.703125 
z
M 39.796875 29.6875 
Q 39.703125 33.84375 38.421875 37.0625 
Q 37.15625 40.28125 34.125 42.546875 
Q 31.109375 44.828125 26.859375 44.828125 
Q 21.140625 44.828125 17.15625 40.71875 
Q 13.1875 36.625 12.703125 29.6875 
z
" id="FranklinGothic-Book-101"/>
       <path d="M 46.296875 0 
L 38.671875 0 
Q 38.234375 2.34375 37.796875 8.890625 
Q 32.71875 -1.3125 20.515625 -1.3125 
Q 12.203125 -1.3125 7.765625 3.078125 
Q 3.328125 7.46875 3.328125 13.625 
Q 3.328125 21.09375 9.671875 25.90625 
Q 16.015625 30.71875 31.25 30.71875 
Q 33.296875 30.71875 37.796875 30.515625 
Q 37.796875 36.375 36.890625 38.984375 
Q 35.984375 41.609375 33.046875 43.171875 
Q 30.125 44.734375 25.34375 44.734375 
Q 13.671875 44.734375 11.765625 35.84375 
L 4.6875 37.0625 
Q 7.28125 50.6875 26.46875 50.6875 
Q 36.671875 50.6875 40.9375 46.171875 
Q 45.21875 41.65625 45.21875 30.515625 
L 45.21875 9.578125 
Q 45.21875 4.34375 46.296875 0 
z
M 37.796875 24.65625 
Q 33.109375 24.953125 30.671875 24.953125 
Q 21.578125 24.953125 16.546875 21.96875 
Q 11.53125 19 11.53125 13.28125 
Q 11.53125 9.671875 14.234375 7.125 
Q 16.9375 4.59375 22.078125 4.59375 
Q 29 4.59375 33.46875 9.625 
Q 37.9375 14.65625 37.9375 21.4375 
Q 37.9375 22.796875 37.796875 24.65625 
z
" id="FranklinGothic-Book-97"/>
       <path d="M 15.328125 0 
L 7.671875 0 
L 7.671875 49.3125 
L 14.40625 49.3125 
L 14.40625 37.796875 
Q 17.96875 45.953125 21.546875 48.359375 
Q 25.140625 50.78125 28.90625 50.78125 
Q 30.078125 50.78125 31.9375 50.59375 
L 31.9375 43.265625 
L 30.375 43.265625 
Q 24.03125 43.265625 19.828125 38.53125 
Q 15.625 33.796875 15.328125 26.078125 
z
" id="FranklinGothic-Book-114"/>
      </defs>
      <use xlink:href="#FranklinGothic-Book-89"/>
      <use x="45.025391" xlink:href="#FranklinGothic-Book-101"/>
      <use x="97.076172" xlink:href="#FranklinGothic-Book-97"/>
      <use x="149.957031" xlink:href="#FranklinGothic-Book-114"/>
     </g>
    </g>
   </g>
   <g id="matplotlib.axis_2">
    <g id="ytick_1">
     <g id="line2d_4">
      <path clip-path="url(#p8a597b376b)" d="M 144 571.949253 
L 1036.8 571.949253 
" style="fill:none;stroke:#d3d3d3;stroke-linecap:round;stroke-opacity:0.5;"/>
     </g>
     <g id="text_5">
      <!-- −3000 -->
      <g style="fill:#696969;" transform="translate(90.519531 576.948472)scale(0.15 -0.15)">
       <defs>
        <path d="M 6 36.765625 
L 52.6875 36.765625 
L 52.6875 30.03125 
L 6 30.03125 
z
" id="FranklinGothic-Book-8722"/>
        <path d="M 19.34375 31.34375 
L 19.34375 37.984375 
L 26.953125 37.984375 
Q 35.296875 37.984375 38.890625 41.40625 
Q 42.484375 44.828125 42.484375 49.703125 
Q 42.484375 55.078125 38.46875 58.21875 
Q 34.46875 61.375 28.421875 61.375 
Q 17.1875 61.375 12.890625 50.53125 
L 5.375 52.6875 
Q 11.8125 68.015625 29.203125 68.015625 
Q 38.96875 68.015625 44.96875 62.8125 
Q 50.984375 57.625 50.984375 50.296875 
Q 50.984375 44.625 47.359375 40.40625 
Q 43.75 36.1875 38.09375 35.109375 
Q 44.4375 34.1875 49 29.78125 
Q 53.5625 25.390625 53.5625 18.40625 
Q 53.5625 10.0625 46.765625 4.375 
Q 39.984375 -1.3125 28.171875 -1.3125 
Q 18.796875 -1.3125 12.125 3.125 
Q 5.46875 7.5625 2.9375 14.9375 
L 10.6875 17.53125 
Q 14.203125 5.46875 28.03125 5.46875 
Q 37.015625 5.46875 40.9375 9.296875 
Q 44.875 13.140625 44.875 18.453125 
Q 44.875 24.21875 40.15625 27.78125 
Q 35.453125 31.34375 26.953125 31.34375 
z
" id="FranklinGothic-Book-51"/>
       </defs>
       <use xlink:href="#FranklinGothic-Book-8722"/>
       <use x="58.642578" xlink:href="#FranklinGothic-Book-51"/>
       <use x="117.285156" xlink:href="#FranklinGothic-Book-48"/>
       <use x="175.927734" xlink:href="#FranklinGothic-Book-48"/>
       <use x="234.570312" xlink:href="#FranklinGothic-Book-48"/>
      </g>
     </g>
    </g>
    <g id="ytick_2">
     <g id="line2d_5">
      <path clip-path="url(#p8a597b376b)" d="M 144 444.888216 
L 1036.8 444.888216 
" style="fill:none;stroke:#d3d3d3;stroke-linecap:round;stroke-opacity:0.5;"/>
     </g>
     <g id="text_6">
      <!-- −2000 -->
      <g style="fill:#696969;" transform="translate(90.519531 449.887435)scale(0.15 -0.15)">
       <use xlink:href="#FranklinGothic-Book-8722"/>
       <use x="58.642578" xlink:href="#FranklinGothic-Book-50"/>
       <use x="117.285156" xlink:href="#FranklinGothic-Book-48"/>
       <use x="175.927734" xlink:href="#FranklinGothic-Book-48"/>
       <use x="234.570312" xlink:href="#FranklinGothic-Book-48"/>
      </g>
     </g>
    </g>
    <g id="ytick_3">
     <g id="line2d_6">
      <path clip-path="url(#p8a597b376b)" d="M 144 317.827179 
L 1036.8 317.827179 
" style="fill:none;stroke:#d3d3d3;stroke-linecap:round;stroke-opacity:0.5;"/>
     </g>
     <g id="text_7">
      <!-- −1000 -->
      <g style="fill:#696969;" transform="translate(91.007031 322.826397)scale(0.15 -0.15)">
       <use xlink:href="#FranklinGothic-Book-8722"/>
       <use x="58.642578" xlink:href="#FranklinGothic-Book-49"/>
       <use x="114.035156" xlink:href="#FranklinGothic-Book-48"/>
       <use x="172.677734" xlink:href="#FranklinGothic-Book-48"/>
       <use x="231.320312" xlink:href="#FranklinGothic-Book-48"/>
      </g>
     </g>
    </g>
    <g id="ytick_4">
     <g id="line2d_7">
      <path clip-path="url(#p8a597b376b)" d="M 144 190.766141 
L 1036.8 190.766141 
" style="fill:none;stroke:#d3d3d3;stroke-linecap:round;stroke-opacity:0.5;"/>
     </g>
     <g id="text_8">
      <!-- 0 -->
      <g style="fill:#696969;" transform="translate(125.703906 195.76536)scale(0.15 -0.15)">
       <use xlink:href="#FranklinGothic-Book-48"/>
      </g>
     </g>
    </g>
    <g id="text_9">
     <!-- Gt -->
     <g style="fill:#696969;" transform="translate(77.188281 336.786875)rotate(-90)scale(0.2 -0.2)">
      <defs>
       <path d="M 57.71875 33.59375 
L 57.71875 -0.875 
L 52.59375 -0.875 
L 50.296875 7.46875 
Q 44.140625 -1.3125 31.984375 -1.3125 
Q 18.796875 -1.3125 11.46875 8.59375 
Q 4.15625 18.5 4.15625 32.671875 
Q 4.15625 47.796875 11.90625 57.90625 
Q 19.671875 68.015625 33.015625 68.015625 
Q 51.421875 68.015625 57.03125 48.6875 
L 49.125 46.78125 
Q 47.40625 54.203125 42.71875 57.5625 
Q 38.03125 60.9375 32.46875 60.9375 
Q 22.609375 60.9375 17.921875 52.96875 
Q 13.234375 45.015625 13.234375 33.015625 
Q 13.234375 20.0625 18.484375 12.765625 
Q 23.734375 5.46875 32.765625 5.46875 
Q 39.796875 5.46875 44.5 10.125 
Q 49.21875 14.796875 49.21875 23 
Q 49.21875 24.515625 49.125 26.609375 
L 32.625 26.609375 
L 32.625 33.59375 
z
" id="FranklinGothic-Book-71"/>
       <path d="M 30.03125 5.28125 
L 30.03125 -0.78125 
Q 25.984375 -1.3125 23 -1.3125 
Q 8.6875 -1.3125 8.6875 13.625 
L 8.6875 43.3125 
L -0.046875 43.3125 
L -0.046875 49.3125 
L 8.6875 49.3125 
L 9.03125 61.71875 
L 16.15625 62.40625 
L 16.15625 49.3125 
L 27.203125 49.3125 
L 27.203125 43.3125 
L 16.15625 43.3125 
L 16.15625 12.359375 
Q 16.15625 4.734375 24.078125 4.734375 
Q 26.703125 4.734375 30.03125 5.28125 
z
" id="FranklinGothic-Book-116"/>
      </defs>
      <use xlink:href="#FranklinGothic-Book-71"/>
      <use x="64.697266" xlink:href="#FranklinGothic-Book-116"/>
     </g>
    </g>
   </g>
   <g id="text_10">
    <!-- Compared to 2005-2005 average -->
    <g style="fill:#696969;" transform="translate(144 75.2652)scale(0.3 -0.3)">
     <defs>
      <path d="M 48.296875 22.40625 
L 55.90625 20.703125 
Q 50.4375 -1.3125 31.203125 -1.3125 
Q 18.5625 -1.3125 11.359375 8.890625 
Q 4.15625 19.09375 4.15625 33.984375 
Q 4.15625 49.359375 11.671875 58.6875 
Q 19.1875 68.015625 31.84375 68.015625 
Q 50.59375 68.015625 55.90625 46.578125 
L 48.046875 45.015625 
Q 43.75 60.9375 31.78125 60.9375 
Q 22.953125 60.9375 18.09375 53.53125 
Q 13.234375 46.140625 13.234375 32.765625 
Q 13.234375 20.515625 18.203125 13.109375 
Q 23.1875 5.71875 31.390625 5.71875 
Q 44.140625 5.71875 48.296875 22.40625 
z
" id="FranklinGothic-Book-67"/>
      <path d="M 25.34375 -1.3125 
Q 15.1875 -1.3125 9.5 6.203125 
Q 3.8125 13.71875 3.8125 24.859375 
Q 3.8125 36.625 10.203125 43.65625 
Q 16.609375 50.6875 26.125 50.6875 
Q 36.328125 50.6875 42.203125 43.28125 
Q 48.09375 35.890625 48.09375 24.8125 
Q 48.09375 13.28125 41.75 5.984375 
Q 35.40625 -1.3125 25.34375 -1.3125 
z
M 25.921875 4.984375 
Q 31.78125 4.984375 35.734375 9.8125 
Q 39.703125 14.65625 39.703125 24.859375 
Q 39.703125 35.109375 35.546875 39.71875 
Q 31.390625 44.34375 25.828125 44.34375 
Q 20.125 44.34375 16.15625 39.671875 
Q 12.203125 35.015625 12.203125 24.90625 
Q 12.203125 14.203125 16.15625 9.59375 
Q 20.125 4.984375 25.921875 4.984375 
z
" id="FranklinGothic-Book-111"/>
      <path d="M 73.734375 0 
L 66.265625 0 
L 66.265625 30.671875 
Q 66.265625 35.40625 65.59375 37.765625 
Q 64.9375 40.140625 62.390625 42.109375 
Q 59.859375 44.09375 56.6875 44.09375 
Q 52.296875 44.09375 48.21875 40.0625 
Q 44.140625 36.03125 44.140625 27.78125 
L 44.140625 0 
L 36.71875 0 
L 36.71875 32.46875 
Q 36.71875 38.96875 33.609375 41.65625 
Q 30.515625 44.34375 27.09375 44.34375 
Q 22.21875 44.34375 18.59375 40.140625 
Q 14.984375 35.9375 14.984375 29.5 
L 14.984375 0 
L 7.671875 0 
L 7.671875 49.3125 
L 14.265625 49.3125 
L 14.265625 39.84375 
Q 19.78125 50.6875 29.4375 50.6875 
Q 34.765625 50.6875 38.46875 47.21875 
Q 42.1875 43.75 43.265625 38.875 
Q 48.34375 50.6875 58.84375 50.6875 
Q 63.875 50.6875 67.65625 47.796875 
Q 71.4375 44.921875 72.578125 41.1875 
Q 73.734375 37.453125 73.734375 30.671875 
z
" id="FranklinGothic-Book-109"/>
      <path d="M 15.328125 -16.65625 
L 7.671875 -16.65625 
L 7.671875 49.3125 
L 14.546875 49.3125 
L 14.546875 39.75 
Q 19.78125 50.6875 30.125 50.6875 
Q 38.875 50.6875 44.234375 43.375 
Q 49.609375 36.078125 49.609375 24.90625 
Q 49.609375 12.84375 44.09375 5.765625 
Q 38.578125 -1.3125 29.9375 -1.3125 
Q 20.65625 -1.3125 15.328125 7.515625 
z
M 15.328125 31.78125 
L 15.328125 17.921875 
Q 16.0625 12.3125 20.0625 8.640625 
Q 24.078125 4.984375 28.421875 4.984375 
Q 33.453125 4.984375 37.328125 9.375 
Q 41.21875 13.765625 41.21875 24.5625 
Q 41.21875 33.890625 37.703125 38.9375 
Q 34.1875 44 28.375 44 
Q 23.78125 44 20.140625 40.421875 
Q 16.5 36.859375 15.328125 31.78125 
z
" id="FranklinGothic-Book-112"/>
      <path d="M 46.1875 66.65625 
L 46.1875 0 
L 39.203125 0 
L 39.203125 8.453125 
Q 34.03125 -1.3125 23.640625 -1.3125 
Q 14.984375 -1.3125 9.421875 5.9375 
Q 3.859375 13.1875 3.859375 24.265625 
Q 3.859375 35.59375 9.375 43.140625 
Q 14.890625 50.6875 24.03125 50.6875 
Q 32.90625 50.6875 38.53125 42.578125 
L 38.53125 66.65625 
z
M 38.53125 30.28125 
Q 38.53125 36.765625 34.5625 40.671875 
Q 30.609375 44.578125 25.34375 44.578125 
Q 19.625 44.578125 15.9375 39.5 
Q 12.25 34.421875 12.25 25.25 
Q 12.25 15.328125 15.640625 10.15625 
Q 19.046875 4.984375 24.953125 4.984375 
Q 30.328125 4.984375 34.421875 9.46875 
Q 38.53125 13.96875 38.53125 20.015625 
z
" id="FranklinGothic-Book-100"/>
      <path id="FranklinGothic-Book-32"/>
      <path d="M 48.875 66.65625 
L 48.1875 59.46875 
L 15.4375 59.46875 
L 14.015625 37.84375 
Q 21.4375 45.125 30.328125 45.125 
Q 39.703125 45.125 46.515625 38.625 
Q 53.328125 32.125 53.328125 22.015625 
Q 53.328125 11.765625 45.921875 5.21875 
Q 38.53125 -1.3125 27.828125 -1.3125 
Q 19.4375 -1.3125 12.890625 3.078125 
Q 6.34375 7.46875 4.296875 14.453125 
L 11.421875 16.890625 
Q 15.828125 5.28125 27.9375 5.28125 
Q 35.890625 5.28125 40.578125 9.984375 
Q 45.265625 14.703125 45.265625 22.015625 
Q 45.265625 29.6875 40.625 33.984375 
Q 35.984375 38.28125 29.5 38.28125 
Q 20.015625 38.28125 13.8125 29.203125 
L 7.234375 30.609375 
L 9.375 66.65625 
z
" id="FranklinGothic-Book-53"/>
      <path d="M 23.53125 27.984375 
L 23.53125 22.015625 
L 1.46875 22.015625 
L 1.46875 27.984375 
z
" id="FranklinGothic-Book-45"/>
      <path d="M 43.796875 49.3125 
L 26.765625 0 
L 18.796875 0 
L 1.171875 49.3125 
L 9.671875 49.3125 
L 23.390625 9.234375 
L 36.96875 49.3125 
z
" id="FranklinGothic-Book-118"/>
      <path d="M 47.953125 57.03125 
L 47.953125 50.921875 
Q 42.671875 50.921875 40.890625 49.703125 
Q 39.109375 48.484375 38.53125 45.3125 
Q 43.265625 39.84375 43.265625 33.40625 
Q 43.265625 26.65625 38.109375 21.828125 
Q 32.953125 17 24.265625 17 
Q 22.3125 17 20.90625 17.28125 
Q 18.21875 17.828125 17.53125 17.828125 
Q 16.21875 17.828125 14.359375 16.53125 
Q 12.5 15.234375 12.5 13.1875 
Q 12.5 10.25 15.1875 9.375 
Q 17.875 8.5 27.828125 8.25 
Q 36.28125 8.015625 40.3125 7.109375 
Q 44.34375 6.203125 47.125 3.09375 
Q 49.90625 0 49.90625 -4.5 
Q 49.90625 -18.609375 25.09375 -18.609375 
Q 13.328125 -18.609375 7.9375 -15.0625 
Q 2.546875 -11.53125 2.546875 -5.609375 
Q 2.546875 1.5625 10.0625 4.25 
Q 5.21875 7.421875 5.21875 12.203125 
Q 5.21875 17.921875 12.0625 20.953125 
Q 5.671875 26.125 5.671875 33.984375 
Q 5.671875 41.3125 11.140625 46 
Q 16.609375 50.6875 24.46875 50.6875 
Q 30.03125 50.6875 34.578125 48.578125 
Q 35.296875 53.421875 37.953125 55.265625 
Q 40.625 57.125 46.046875 57.125 
Q 46.578125 57.125 47.953125 57.03125 
z
M 24.515625 22.859375 
Q 29.390625 22.859375 32.46875 25.859375 
Q 35.546875 28.859375 35.546875 33.640625 
Q 35.546875 38.53125 32.34375 41.625 
Q 29.15625 44.734375 24.609375 44.734375 
Q 20.265625 44.734375 16.890625 41.828125 
Q 13.53125 38.921875 13.53125 33.546875 
Q 13.53125 28.765625 16.546875 25.8125 
Q 19.578125 22.859375 24.515625 22.859375 
z
M 15.328125 2 
Q 9.96875 -0.34375 9.96875 -4.78125 
Q 9.96875 -8.546875 14.375 -10.625 
Q 18.796875 -12.703125 25.640625 -12.703125 
Q 31.984375 -12.703125 37.25 -10.90625 
Q 42.53125 -9.125 42.53125 -4.890625 
Q 42.53125 -2.59375 40.96875 -1.125 
Q 39.40625 0.34375 36.6875 0.734375 
Q 33.984375 1.125 27.25 1.3125 
Q 19.1875 1.515625 15.328125 2 
z
" id="FranklinGothic-Book-103"/>
     </defs>
     <use xlink:href="#FranklinGothic-Book-67"/>
     <use x="57.910156" xlink:href="#FranklinGothic-Book-111"/>
     <use x="109.863281" xlink:href="#FranklinGothic-Book-109"/>
     <use x="190.384766" xlink:href="#FranklinGothic-Book-112"/>
     <use x="243.802734" xlink:href="#FranklinGothic-Book-97"/>
     <use x="296.683594" xlink:href="#FranklinGothic-Book-114"/>
     <use x="329.642578" xlink:href="#FranklinGothic-Book-101"/>
     <use x="381.693359" xlink:href="#FranklinGothic-Book-100"/>
     <use x="435.550781" xlink:href="#FranklinGothic-Book-32"/>
     <use x="460.550781" xlink:href="#FranklinGothic-Book-116"/>
     <use x="489.8125" xlink:href="#FranklinGothic-Book-111"/>
     <use x="541.765625" xlink:href="#FranklinGothic-Book-32"/>
     <use x="566.765625" xlink:href="#FranklinGothic-Book-50"/>
     <use x="625.408203" xlink:href="#FranklinGothic-Book-48"/>
     <use x="684.050781" xlink:href="#FranklinGothic-Book-48"/>
     <use x="742.693359" xlink:href="#FranklinGothic-Book-53"/>
     <use x="801.335938" xlink:href="#FranklinGothic-Book-45"/>
     <use x="826.335938" xlink:href="#FranklinGothic-Book-50"/>
     <use x="884.978516" xlink:href="#FranklinGothic-Book-48"/>
     <use x="943.621094" xlink:href="#FranklinGothic-Book-48"/>
     <use x="1002.263672" xlink:href="#FranklinGothic-Book-53"/>
     <use x="1060.90625" xlink:href="#FranklinGothic-Book-32"/>
     <use x="1085.90625" xlink:href="#FranklinGothic-Book-97"/>
     <use x="1136.537109" xlink:href="#FranklinGothic-Book-118"/>
     <use x="1180.056641" xlink:href="#FranklinGothic-Book-101"/>
     <use x="1232.107422" xlink:href="#FranklinGothic-Book-114"/>
     <use x="1265.066406" xlink:href="#FranklinGothic-Book-97"/>
     <use x="1317.947266" xlink:href="#FranklinGothic-Book-103"/>
     <use x="1367.068359" xlink:href="#FranklinGothic-Book-101"/>
    </g>
   </g>
   <g id="text_11">
    <!-- Antarctic ice sheet cumulative mass balance -->
    <g style="fill:#696969;" transform="translate(144 42.76)scale(0.4 -0.4)">
     <defs>
      <path d="M 53.21875 0 
L 44.671875 0 
L 37.9375 19.484375 
L 13.28125 19.484375 
L 7.328125 0 
L 0.34375 0 
L 21.96875 66.65625 
L 31.5 66.65625 
z
M 36.1875 25.734375 
L 25.921875 57.765625 
L 15.578125 25.734375 
z
" id="FranklinGothic-Book-65"/>
      <path d="M 46.53125 0 
L 39.359375 0 
L 39.359375 31.6875 
Q 39.359375 38.53125 36.375 41.3125 
Q 33.40625 44.09375 29.15625 44.09375 
Q 23.296875 44.09375 19.3125 39.40625 
Q 15.328125 34.71875 15.328125 27.046875 
L 15.328125 0 
L 7.671875 0 
L 7.671875 49.3125 
L 14.796875 49.3125 
L 14.796875 40.234375 
Q 20.796875 50.6875 30.375 50.6875 
Q 35.890625 50.6875 39.765625 47.828125 
Q 43.65625 44.96875 45.09375 41.40625 
Q 46.53125 37.84375 46.53125 28.515625 
z
" id="FranklinGothic-Book-110"/>
      <path d="M 36.8125 17.28125 
L 43.75 16.0625 
Q 42.28125 7.90625 37.25 3.296875 
Q 32.234375 -1.3125 24.703125 -1.3125 
Q 14.5 -1.3125 9.15625 6.203125 
Q 3.8125 13.71875 3.8125 24.5625 
Q 3.8125 35.796875 9.453125 43.234375 
Q 15.09375 50.6875 24.8125 50.6875 
Q 32.859375 50.6875 37.71875 45.875 
Q 42.578125 41.0625 43.75 33.453125 
L 36.8125 32.125 
Q 34.859375 44.34375 25 44.34375 
Q 18.65625 44.34375 15.234375 38.9375 
Q 11.8125 33.546875 11.8125 24.953125 
Q 11.8125 15.484375 15.203125 10.234375 
Q 18.609375 4.984375 24.75 4.984375 
Q 34.28125 4.984375 36.8125 17.28125 
z
" id="FranklinGothic-Book-99"/>
      <path d="M 15.578125 66.65625 
L 15.578125 58.15625 
L 7.328125 58.15625 
L 7.328125 66.65625 
z
M 15.328125 49.3125 
L 15.328125 0 
L 7.671875 0 
L 7.671875 49.3125 
z
" id="FranklinGothic-Book-105"/>
      <path d="M 1.03125 12.796875 
L 8.34375 14.3125 
Q 10.796875 4.984375 23.78125 4.984375 
Q 28.5625 4.984375 31.875 7.125 
Q 35.203125 9.28125 35.203125 13.1875 
Q 35.203125 19 26.765625 20.5625 
L 16.359375 22.515625 
Q 10.25 23.6875 6.640625 27.09375 
Q 3.03125 30.515625 3.03125 36.140625 
Q 3.03125 42.328125 7.953125 46.5 
Q 12.890625 50.6875 21.234375 50.6875 
Q 37.3125 50.6875 41.0625 38.140625 
L 34.03125 36.625 
Q 31 44.34375 21.578125 44.34375 
Q 16.890625 44.34375 13.890625 42.40625 
Q 10.890625 40.484375 10.890625 37.015625 
Q 10.890625 31.546875 18.5625 30.125 
L 28.171875 28.421875 
Q 43.265625 25.6875 43.265625 13.8125 
Q 43.265625 7.03125 37.640625 2.859375 
Q 32.03125 -1.3125 22.703125 -1.3125 
Q 5.171875 -1.3125 1.03125 12.796875 
z
" id="FranklinGothic-Book-115"/>
      <path d="M 46.34375 0 
L 38.671875 0 
L 38.671875 29.9375 
Q 38.671875 35.203125 38.015625 37.84375 
Q 37.359375 40.484375 34.890625 42.40625 
Q 32.421875 44.34375 29.203125 44.34375 
Q 23.296875 44.34375 19.3125 39.5 
Q 15.328125 34.671875 15.328125 26.5625 
L 15.328125 0 
L 7.671875 0 
L 7.671875 66.65625 
L 15.328125 66.65625 
L 15.328125 40.234375 
Q 20.5625 50.6875 30.28125 50.6875 
Q 34.625 50.6875 38.015625 48.96875 
Q 41.40625 47.265625 43.203125 44.484375 
Q 45.015625 41.703125 45.671875 38.984375 
Q 46.34375 36.28125 46.34375 29.9375 
z
" id="FranklinGothic-Book-104"/>
      <path d="M 46.484375 0 
L 39.59375 0 
L 39.59375 9.421875 
Q 34.328125 -1.3125 23.875 -1.3125 
Q 16.3125 -1.3125 11.984375 3.65625 
Q 7.671875 8.640625 7.671875 17.828125 
L 7.671875 49.3125 
L 15.328125 49.3125 
L 15.328125 17.828125 
Q 15.328125 10.5 18.375 7.734375 
Q 21.4375 4.984375 25.09375 4.984375 
Q 28.8125 4.984375 31.8125 7.078125 
Q 34.8125 9.1875 36.8125 13.0625 
Q 38.8125 16.9375 38.8125 21.53125 
L 38.8125 49.3125 
L 46.484375 49.3125 
z
" id="FranklinGothic-Book-117"/>
      <path d="M 15.328125 0 
L 7.671875 0 
L 7.671875 66.65625 
L 15.328125 66.65625 
z
" id="FranklinGothic-Book-108"/>
      <path d="M 11.375 0 
L 7.671875 0 
L 7.671875 66.65625 
L 15.328125 66.65625 
L 15.328125 41.109375 
Q 20.609375 50.6875 29.890625 50.6875 
Q 38.375 50.6875 44.109375 44 
Q 49.859375 37.3125 49.859375 24.5625 
Q 49.859375 13.578125 44.21875 6.125 
Q 38.578125 -1.3125 29.546875 -1.3125 
Q 19.484375 -1.3125 14.109375 8.15625 
z
M 15.328125 19.34375 
Q 15.875 11.765625 20 8.34375 
Q 24.125 4.9375 28.71875 4.9375 
Q 34.578125 4.9375 38.15625 10.015625 
Q 41.75 15.09375 41.75 23.921875 
Q 41.75 33.453125 38.28125 38.890625 
Q 34.8125 44.34375 28.65625 44.34375 
Q 23.828125 44.34375 19.9375 40.453125 
Q 16.0625 36.578125 15.328125 30.421875 
z
" id="FranklinGothic-Book-98"/>
     </defs>
     <use xlink:href="#FranklinGothic-Book-65"/>
     <use x="53.564453" xlink:href="#FranklinGothic-Book-110"/>
     <use x="107.763672" xlink:href="#FranklinGothic-Book-116"/>
     <use x="138.525391" xlink:href="#FranklinGothic-Book-97"/>
     <use x="191.40625" xlink:href="#FranklinGothic-Book-114"/>
     <use x="222.865234" xlink:href="#FranklinGothic-Book-99"/>
     <use x="269.447266" xlink:href="#FranklinGothic-Book-116"/>
     <use x="300.208984" xlink:href="#FranklinGothic-Book-105"/>
     <use x="323.158203" xlink:href="#FranklinGothic-Book-99"/>
     <use x="369.740234" xlink:href="#FranklinGothic-Book-32"/>
     <use x="394.740234" xlink:href="#FranklinGothic-Book-105"/>
     <use x="417.689453" xlink:href="#FranklinGothic-Book-99"/>
     <use x="464.271484" xlink:href="#FranklinGothic-Book-101"/>
     <use x="516.322266" xlink:href="#FranklinGothic-Book-32"/>
     <use x="541.322266" xlink:href="#FranklinGothic-Book-115"/>
     <use x="587.708984" xlink:href="#FranklinGothic-Book-104"/>
     <use x="641.712891" xlink:href="#FranklinGothic-Book-101"/>
     <use x="693.763672" xlink:href="#FranklinGothic-Book-101"/>
     <use x="745.314453" xlink:href="#FranklinGothic-Book-116"/>
     <use x="776.076172" xlink:href="#FranklinGothic-Book-32"/>
     <use x="801.076172" xlink:href="#FranklinGothic-Book-99"/>
     <use x="847.658203" xlink:href="#FranklinGothic-Book-117"/>
     <use x="901.808594" xlink:href="#FranklinGothic-Book-109"/>
     <use x="983.205078" xlink:href="#FranklinGothic-Book-117"/>
     <use x="1037.355469" xlink:href="#FranklinGothic-Book-108"/>
     <use x="1060.353516" xlink:href="#FranklinGothic-Book-97"/>
     <use x="1113.234375" xlink:href="#FranklinGothic-Book-116"/>
     <use x="1143.996094" xlink:href="#FranklinGothic-Book-105"/>
     <use x="1166.945312" xlink:href="#FranklinGothic-Book-118"/>
     <use x="1210.464844" xlink:href="#FranklinGothic-Book-101"/>
     <use x="1262.515625" xlink:href="#FranklinGothic-Book-32"/>
     <use x="1287.515625" xlink:href="#FranklinGothic-Book-109"/>
     <use x="1368.912109" xlink:href="#FranklinGothic-Book-97"/>
     <use x="1421.792969" xlink:href="#FranklinGothic-Book-115"/>
     <use x="1468.179688" xlink:href="#FranklinGothic-Book-115"/>
     <use x="1514.566406" xlink:href="#FranklinGothic-Book-32"/>
     <use x="1539.566406" xlink:href="#FranklinGothic-Book-98"/>
     <use x="1593.277344" xlink:href="#FranklinGothic-Book-97"/>
     <use x="1646.158203" xlink:href="#FranklinGothic-Book-108"/>
     <use x="1669.15625" xlink:href="#FranklinGothic-Book-97"/>
     <use x="1722.037109" xlink:href="#FranklinGothic-Book-110"/>
     <use x="1776.236328" xlink:href="#FranklinGothic-Book-99"/>
     <use x="1822.818359" xlink:href="#FranklinGothic-Book-101"/>
    </g>
   </g>
   <g id="legend_1">
    <g id="line2d_8"/>
    <g id="text_12">
     <!-- IMBIE 2021 (1992.01-2020.12) -->
     <g style="fill:#d55e00;" transform="translate(702.834875 129.7184)scale(0.2 -0.2)">
      <defs>
       <path d="M 16.703125 0 
L 8.34375 0 
L 8.34375 66.65625 
L 16.703125 66.65625 
z
" id="FranklinGothic-Book-73"/>
       <path d="M 72.703125 0 
L 64.59375 0 
L 64.59375 58.203125 
L 42.921875 0 
L 37.25 0 
L 15.4375 58.203125 
L 15.4375 0 
L 8.34375 0 
L 8.34375 66.65625 
L 20.75 66.65625 
L 40.828125 13.328125 
L 60.5 66.65625 
L 72.703125 66.65625 
z
" id="FranklinGothic-Book-77"/>
       <path d="M 8.34375 0 
L 8.34375 66.65625 
L 34.71875 66.65625 
Q 44.671875 66.65625 49.484375 61.765625 
Q 54.296875 56.890625 54.296875 50.4375 
Q 54.296875 39.109375 42.484375 35.40625 
Q 49.515625 33.59375 52.921875 28.953125 
Q 56.34375 24.3125 56.34375 18.453125 
Q 56.34375 10.59375 51.046875 5.296875 
Q 45.75 0 34.71875 0 
z
M 16.40625 38.09375 
L 30.90625 38.09375 
Q 39.9375 38.09375 42.96875 41.53125 
Q 46 44.96875 46 49.609375 
Q 46 54.203125 42.75 57.03125 
Q 39.5 59.859375 33.0625 59.859375 
L 16.40625 59.859375 
z
M 16.40625 7.328125 
L 34.28125 7.328125 
Q 40.828125 7.328125 44.390625 10.5 
Q 47.953125 13.671875 47.953125 18.75 
Q 47.953125 22.3125 46.34375 25.359375 
Q 44.734375 28.421875 41.796875 30.078125 
Q 38.875 31.734375 33.0625 31.734375 
L 16.40625 31.734375 
z
" id="FranklinGothic-Book-66"/>
       <path d="M 51.46875 7.328125 
L 51.46875 0 
L 8.34375 0 
L 8.34375 66.65625 
L 50.53125 66.65625 
L 50.53125 59.328125 
L 16.703125 59.328125 
L 16.703125 38.140625 
L 43.5625 38.140625 
L 43.5625 31.34375 
L 16.703125 31.34375 
L 16.703125 7.328125 
z
" id="FranklinGothic-Book-69"/>
       <path d="M 24.703125 -16.65625 
L 19.578125 -16.65625 
Q 5.21875 2.203125 5.21875 25.09375 
Q 5.21875 46.96875 19.578125 66.65625 
L 24.703125 66.65625 
Q 12.359375 48.25 12.359375 25 
Q 12.359375 2.828125 24.703125 -16.65625 
z
" id="FranklinGothic-Book-40"/>
       <path d="M 5.71875 12.15625 
L 12.40625 14.59375 
Q 16.546875 5.375 26.375 5.375 
Q 35.890625 5.375 40.703125 13.375 
Q 45.515625 21.390625 45.65625 35.109375 
Q 39.109375 23.09375 25.984375 23.09375 
Q 16.703125 23.09375 10.40625 29.421875 
Q 4.109375 35.75 4.109375 45.0625 
Q 4.109375 54.546875 10.71875 61.28125 
Q 17.328125 68.015625 27.59375 68.015625 
Q 40.140625 68.015625 46.828125 59.203125 
Q 53.515625 50.390625 53.515625 34.96875 
Q 53.515625 18.75 46.4375 8.71875 
Q 39.359375 -1.3125 26.265625 -1.3125 
Q 10.984375 -1.3125 5.71875 12.15625 
z
M 27.828125 29.78125 
Q 34.71875 29.78125 39.375 34.59375 
Q 44.046875 39.40625 44.046875 45.84375 
Q 44.046875 52.09375 39.625 56.578125 
Q 35.203125 61.078125 27.984375 61.078125 
Q 20.65625 61.078125 16.40625 56.46875 
Q 12.15625 51.859375 12.15625 45.21875 
Q 12.15625 38.09375 16.859375 33.9375 
Q 21.578125 29.78125 27.828125 29.78125 
z
" id="FranklinGothic-Book-57"/>
       <path d="M 17.96875 10.9375 
L 17.96875 0 
L 7.078125 0 
L 7.078125 10.9375 
z
" id="FranklinGothic-Book-46"/>
       <path d="M 4.640625 66.65625 
L 9.71875 66.65625 
Q 24.125 47.796875 24.125 24.90625 
Q 24.125 3.03125 9.71875 -16.65625 
L 4.640625 -16.65625 
Q 17 1.765625 17 25 
Q 17 47.171875 4.640625 66.65625 
z
" id="FranklinGothic-Book-41"/>
      </defs>
      <use xlink:href="#FranklinGothic-Book-73"/>
      <use x="25" xlink:href="#FranklinGothic-Book-77"/>
      <use x="106.005859" xlink:href="#FranklinGothic-Book-66"/>
      <use x="166.455078" xlink:href="#FranklinGothic-Book-73"/>
      <use x="191.455078" xlink:href="#FranklinGothic-Book-69"/>
      <use x="246.240234" xlink:href="#FranklinGothic-Book-32"/>
      <use x="271.240234" xlink:href="#FranklinGothic-Book-50"/>
      <use x="329.882812" xlink:href="#FranklinGothic-Book-48"/>
      <use x="388.525391" xlink:href="#FranklinGothic-Book-50"/>
      <use x="443.667969" xlink:href="#FranklinGothic-Book-49"/>
      <use x="502.310547" xlink:href="#FranklinGothic-Book-32"/>
      <use x="527.310547" xlink:href="#FranklinGothic-Book-40"/>
      <use x="556.65625" xlink:href="#FranklinGothic-Book-49"/>
      <use x="613.923828" xlink:href="#FranklinGothic-Book-57"/>
      <use x="672.566406" xlink:href="#FranklinGothic-Book-57"/>
      <use x="731.208984" xlink:href="#FranklinGothic-Book-50"/>
      <use x="789.851562" xlink:href="#FranklinGothic-Book-46"/>
      <use x="814.851562" xlink:href="#FranklinGothic-Book-48"/>
      <use x="869.744141" xlink:href="#FranklinGothic-Book-49"/>
      <use x="928.386719" xlink:href="#FranklinGothic-Book-45"/>
      <use x="953.386719" xlink:href="#FranklinGothic-Book-50"/>
      <use x="1012.029297" xlink:href="#FranklinGothic-Book-48"/>
      <use x="1070.671875" xlink:href="#FranklinGothic-Book-50"/>
      <use x="1129.314453" xlink:href="#FranklinGothic-Book-48"/>
      <use x="1187.957031" xlink:href="#FranklinGothic-Book-46"/>
      <use x="1209.082031" xlink:href="#FranklinGothic-Book-49"/>
      <use x="1267.724609" xlink:href="#FranklinGothic-Book-50"/>
      <use x="1326.367188" xlink:href="#FranklinGothic-Book-41"/>
     </g>
    </g>
    <g id="line2d_9"/>
    <g id="text_13">
     <!-- NASA GRACE (2002.04-2022.07) -->
     <g style="fill:#56b4e9;" transform="translate(702.834875 157.04965)scale(0.2 -0.2)">
      <defs>
       <path d="M 57.421875 0 
L 49.3125 0 
L 14.84375 58.109375 
L 14.9375 53.71875 
Q 15.09375 51.21875 15.09375 49.515625 
L 15.09375 0 
L 8.34375 0 
L 8.34375 66.65625 
L 18.796875 66.65625 
L 51.03125 12.3125 
L 50.921875 16.9375 
Q 50.828125 19.671875 50.828125 21.78125 
L 50.828125 66.65625 
L 57.421875 66.65625 
z
" id="FranklinGothic-Book-78"/>
       <path d="M 1.03125 17.71875 
L 8.546875 19.4375 
Q 13.09375 5.8125 28.21875 5.8125 
Q 36.140625 5.8125 40.140625 9.15625 
Q 44.140625 12.5 44.140625 18.109375 
Q 44.140625 22.359375 41.078125 24.953125 
Q 38.03125 27.546875 34.03125 28.515625 
L 20.703125 31.84375 
Q 15.53125 33.15625 12.234375 35.03125 
Q 8.9375 36.921875 6.640625 40.828125 
Q 4.34375 44.734375 4.34375 49.75 
Q 4.34375 58.109375 10.640625 63.0625 
Q 16.9375 68.015625 26.8125 68.015625 
Q 44.96875 68.015625 50.6875 51.5625 
L 43.109375 49.3125 
Q 41.796875 55.171875 36.90625 58.171875 
Q 32.03125 61.1875 26.515625 61.1875 
Q 21.046875 61.1875 16.765625 58.296875 
Q 12.5 55.421875 12.5 50.140625 
Q 12.5 42.78125 23.34375 40.1875 
L 35.796875 37.203125 
Q 52.875 33.109375 52.875 18.796875 
Q 52.875 10.15625 46.453125 4.421875 
Q 40.046875 -1.3125 28.375 -1.3125 
Q 7.671875 -1.3125 1.03125 17.71875 
z
" id="FranklinGothic-Book-83"/>
       <path d="M 56.296875 0 
L 47.5625 0 
L 35.25 28.859375 
L 16.15625 28.859375 
L 16.15625 0 
L 8.34375 0 
L 8.34375 66.65625 
L 34.625 66.65625 
Q 45.3125 66.65625 50.453125 60.8125 
Q 55.609375 54.984375 55.609375 48.046875 
Q 55.609375 42.71875 52.734375 37.828125 
Q 49.859375 32.953125 43.21875 30.859375 
z
M 16.15625 35.640625 
L 33.59375 35.640625 
Q 40.484375 35.640625 43.875 39.28125 
Q 47.265625 42.921875 47.265625 48.1875 
Q 47.265625 53.46875 43.671875 56.390625 
Q 40.09375 59.328125 34.625 59.328125 
L 16.15625 59.328125 
z
" id="FranklinGothic-Book-82"/>
       <path d="M 44.09375 0 
L 36.03125 0 
L 36.03125 15.875 
L 3.078125 15.875 
L 3.078125 21.484375 
L 33.640625 68.0625 
L 44.09375 68.0625 
L 44.09375 22.46875 
L 54.890625 22.46875 
L 54.890625 15.875 
L 44.09375 15.875 
z
M 36.03125 22.46875 
L 36.03125 54 
Q 36.03125 57.421875 36.1875 61.375 
Q 34.078125 57.515625 32.5625 55.125 
L 11.765625 22.46875 
z
" id="FranklinGothic-Book-52"/>
       <path d="M 28.078125 0 
L 19.484375 0 
Q 19.484375 16.75 26.3125 32.59375 
Q 33.15625 48.4375 43.0625 59.328125 
L 6.890625 59.328125 
L 7.71875 66.65625 
L 51.765625 66.65625 
L 51.765625 61.671875 
Q 39.84375 47.3125 33.9375 31.78125 
Q 28.03125 16.265625 28.03125 2.296875 
Q 28.03125 1.515625 28.078125 0 
z
" id="FranklinGothic-Book-55"/>
      </defs>
      <use xlink:href="#FranklinGothic-Book-78"/>
      <use x="65.722656" xlink:href="#FranklinGothic-Book-65"/>
      <use x="119.287109" xlink:href="#FranklinGothic-Book-83"/>
      <use x="176.220703" xlink:href="#FranklinGothic-Book-65"/>
      <use x="229.785156" xlink:href="#FranklinGothic-Book-32"/>
      <use x="254.785156" xlink:href="#FranklinGothic-Book-71"/>
      <use x="319.482422" xlink:href="#FranklinGothic-Book-82"/>
      <use x="380.761719" xlink:href="#FranklinGothic-Book-65"/>
      <use x="431.826172" xlink:href="#FranklinGothic-Book-67"/>
      <use x="489.736328" xlink:href="#FranklinGothic-Book-69"/>
      <use x="544.521484" xlink:href="#FranklinGothic-Book-32"/>
      <use x="569.521484" xlink:href="#FranklinGothic-Book-40"/>
      <use x="598.867188" xlink:href="#FranklinGothic-Book-50"/>
      <use x="657.509766" xlink:href="#FranklinGothic-Book-48"/>
      <use x="716.152344" xlink:href="#FranklinGothic-Book-48"/>
      <use x="774.794922" xlink:href="#FranklinGothic-Book-50"/>
      <use x="833.4375" xlink:href="#FranklinGothic-Book-46"/>
      <use x="858.4375" xlink:href="#FranklinGothic-Book-48"/>
      <use x="917.080078" xlink:href="#FranklinGothic-Book-52"/>
      <use x="975.722656" xlink:href="#FranklinGothic-Book-45"/>
      <use x="1000.722656" xlink:href="#FranklinGothic-Book-50"/>
      <use x="1059.365234" xlink:href="#FranklinGothic-Book-48"/>
      <use x="1118.007812" xlink:href="#FranklinGothic-Book-50"/>
      <use x="1176.650391" xlink:href="#FranklinGothic-Book-50"/>
      <use x="1235.292969" xlink:href="#FranklinGothic-Book-46"/>
      <use x="1260.292969" xlink:href="#FranklinGothic-Book-48"/>
      <use x="1313.310547" xlink:href="#FranklinGothic-Book-55"/>
      <use x="1371.953125" xlink:href="#FranklinGothic-Book-41"/>
     </g>
    </g>
   </g>
   <g id="line2d_10">
    <path clip-path="url(#p8a597b376b)" d="M 457.344858 165.655068 
L 459.562444 162.643722 
L 466.215201 172.220312 
L 468.432787 159.570115 
L 470.650373 156.479991 
L 472.867958 173.220283 
L 475.085544 170.984008 
L 477.30313 171.724774 
L 479.520715 190.565385 
L 481.738301 186.55788 
L 483.955887 170.160653 
L 486.173472 164.813924 
L 490.608644 180.657165 
L 492.82623 180.061249 
L 495.043815 181.115855 
L 497.261401 170.599013 
L 499.478987 178.133733 
L 501.696572 199.140734 
L 503.914158 206.826656 
L 506.131744 226.921359 
L 508.349329 207.642388 
L 510.566915 213.473219 
L 512.784501 184.420713 
L 515.002086 188.528596 
L 517.219672 204.303224 
L 519.437258 185.719277 
L 521.654844 185.231362 
L 523.872429 175.512464 
L 526.090015 193.538613 
L 528.307601 203.519258 
L 530.525186 214.455401 
L 532.742772 222.42594 
L 534.960358 216.175808 
L 537.177943 196.562666 
L 541.613115 190.766141 
L 543.8307 184.941663 
L 546.048286 191.219749 
L 548.265872 178.880852 
L 550.483458 178.082909 
L 552.701043 172.169488 
L 554.918629 185.47659 
L 557.136215 193.167595 
L 559.3538 205.024931 
L 561.571386 187.805619 
L 563.788972 184.800626 
L 566.006557 174.766615 
L 568.224143 170.995444 
L 570.441729 177.292589 
L 572.659314 165.850742 
L 574.8769 167.38564 
L 577.094486 176.847875 
L 579.312072 175.891106 
L 581.529657 194.40644 
L 583.747243 220.348492 
L 585.964829 219.129977 
L 588.182414 210.416131 
L 590.4 207.257393 
L 592.617586 187.449848 
L 594.835171 188.90978 
L 597.052757 198.671879 
L 599.270343 194.067187 
L 601.487928 184.786649 
L 603.705514 196.032821 
L 605.9231 220.453953 
L 608.140686 230.87677 
L 610.358271 257.235582 
L 612.575857 241.901856 
L 614.793443 258.643418 
L 617.011028 236.242557 
L 619.228614 224.740992 
L 621.4462 235.360754 
L 623.663785 247.421387 
L 625.881371 241.24495 
L 628.098957 220.902478 
L 630.316542 232.2719 
L 632.534128 230.799262 
L 634.751714 244.064435 
L 636.9693 254.315719 
L 639.186885 251.102345 
L 641.404471 243.072088 
L 643.622057 238.255204 
L 645.839642 235.012606 
L 648.057228 233.290929 
L 650.274814 220.459035 
L 652.492399 224.338209 
L 654.709985 225.973484 
L 656.927571 232.899581 
L 659.145156 231.155033 
L 661.362742 245.107606 
L 663.580328 266.697817 
L 665.797914 267.475431 
L 668.015499 252.36025 
L 670.233085 261.285017 
L 672.450671 263.995229 
L 674.668256 266.098089 
L 676.885842 291.425166 
L 679.103428 282.152251 
L 681.321013 272.174148 
L 683.538599 276.171488 
L 685.756185 278.811816 
L 687.97377 280.457257 
L 692.408942 292.056659 
L 694.626528 293.858385 
L 696.844113 295.398364 
L 699.061699 287.019959 
L 703.49687 280.435657 
L 705.714456 282.40002 
L 707.932042 271.020434 
L 710.149627 276.827123 
L 710.149627 276.240101 
L 716.802385 310.259423 
L 716.802385 301.28129 
L 719.01997 309.387784 
L 721.237556 306.372626 
L 723.455142 298.808683 
L 727.890313 303.428622 
L 730.107899 299.238149 
L 732.325484 289.058019 
L 734.54307 284.865004 
L 738.978241 300.26099 
L 741.195827 306.161705 
L 743.413413 327.851024 
L 745.630999 341.512627 
L 750.06617 308.644477 
L 752.283756 321.590727 
L 754.501341 322.632627 
L 756.718927 317.864026 
L 763.371684 329.502817 
L 765.58927 335.502639 
L 767.806855 342.027224 
L 770.024441 355.96709 
L 774.459613 369.474949 
L 776.677198 359.260512 
L 778.894784 347.375223 
L 781.11237 353.001486 
L 785.547541 359.123286 
L 787.765127 337.118856 
L 789.982712 348.462865 
L 792.200298 357.909853 
L 796.635469 396.634246 
L 798.853055 406.351874 
L 801.070641 401.843748 
L 803.288227 399.176737 
L 803.288227 389.996577 
L 809.940984 385.923 
L 812.158569 404.950391 
L 814.376155 399.103042 
L 821.028912 404.689916 
L 823.246498 407.36328 
L 825.464083 417.009754 
L 827.681669 408.839729 
L 832.116841 391.54291 
L 834.334426 389.362543 
L 836.552012 374.281668 
L 838.769598 367.411478 
L 845.422355 376.717428 
L 847.63994 365.368336 
L 849.857526 367.847297 
L 856.510283 408.48777 
L 856.510283 398.575738 
L 858.727869 394.221357 
L 860.945455 393.918951 
L 887.556483 415.647659 
L 889.774069 417.632353 
L 896.426826 450.572927 
L 898.644411 446.035577 
L 900.861997 452.645292 
L 903.079583 464.178623 
L 905.297168 469.674012 
L 907.514754 457.463447 
L 909.73234 434.593731 
L 911.949925 441.405473 
L 914.167511 453.086194 
L 916.385097 440.9201 
L 918.602683 446.659447 
L 920.820268 430.71964 
L 923.037854 454.016281 
L 925.25544 461.740321 
L 927.473025 467.451715 
L 929.690611 506.613197 
L 931.908197 520.570852 
L 934.125782 497.424143 
L 936.343368 485.467699 
L 938.560954 475.532797 
L 940.778539 471.244487 
L 942.996125 462.5281 
L 945.213711 448.794072 
L 947.431297 472.564651 
L 949.648882 485.392733 
L 951.866468 491.170199 
L 954.084054 510.604184 
L 956.301639 550.634764 
L 958.519225 510.554631 
L 960.736811 504.584032 
L 962.954396 477.685211 
L 965.171982 475.483243 
L 967.389568 496.477538 
L 969.607154 502.368088 
L 971.824739 496.270429 
L 974.042325 504.774624 
L 976.259911 486.205924 
L 978.477496 528.533767 
L 980.695082 514.315637 
L 982.912668 509.34501 
L 985.130253 504.051647 
L 987.347839 499.830679 
L 989.565425 457.736628 
L 991.78301 439.589771 
L 994.000596 465.372996 
L 996.218182 473.064001 
L 996.218182 473.064001 
" style="fill:none;stroke:#56b4e9;stroke-linecap:round;"/>
   </g>
   <g id="line2d_11">
    <path clip-path="url(#p8a597b376b)" d="M 184.581818 108.345954 
L 189.01699 107.704296 
L 193.452161 110.471164 
L 208.975261 114.58197 
L 237.803875 125.715363 
L 264.414903 137.148544 
L 273.285246 141.289043 
L 295.461103 148.722279 
L 302.11386 150.881021 
L 315.419374 153.250239 
L 344.247988 154.347386 
L 370.859016 156.081172 
L 401.905216 159.27865 
L 424.081073 161.914544 
L 452.909687 166.139514 
L 461.78003 167.360469 
L 475.085544 169.697744 
L 481.738301 171.816766 
L 488.391058 173.895853 
L 492.82623 175.319356 
L 497.261401 176.946348 
L 503.914158 179.409515 
L 512.784501 182.428155 
L 528.307601 187.225827 
L 537.177943 189.672768 
L 548.265872 192.490601 
L 554.918629 194.47086 
L 568.224143 199.373701 
L 572.659314 201.156265 
L 579.312072 204.165719 
L 583.747243 206.388779 
L 599.270343 214.876824 
L 612.575857 222.208716 
L 619.228614 225.697622 
L 630.316542 231.38786 
L 636.9693 235.005021 
L 656.927571 245.387826 
L 661.362742 247.87976 
L 676.885842 257.937607 
L 687.97377 266.081736 
L 696.844113 273.575568 
L 710.149627 284.33995 
L 716.802385 289.477955 
L 723.455142 294.41636 
L 741.195827 309.158147 
L 770.024441 335.054343 
L 794.417884 358.469265 
L 798.853055 361.395735 
L 807.723398 366.884187 
L 821.028912 374.747855 
L 829.899255 377.86254 
L 836.552012 379.866344 
L 845.422355 382.303171 
L 847.63994 382.869381 
L 856.510283 386.607605 
L 863.16304 388.587775 
L 869.815797 390.933995 
L 874.250969 392.577632 
L 880.903726 397.466356 
L 889.774069 403.658803 
L 896.426826 410.305403 
L 903.079583 417.227015 
L 907.514754 420.816401 
L 929.690611 437.893353 
L 954.084054 447.9874 
L 954.084054 447.9874 
" style="fill:none;stroke:#d55e00;stroke-linecap:round;"/>
   </g>
  </g>
 </g>
 <defs>
  <clipPath id="p8a597b376b">
   <rect height="498.96" width="892.8" x="144" y="77.76"/>
  </clipPath>
 </defs>
</svg>
