<?xml version="1.0" encoding="utf-8" standalone="no"?>
<!DOCTYPE svg PUBLIC "-//W3C//DTD SVG 1.1//EN"
  "http://www.w3.org/Graphics/SVG/1.1/DTD/svg11.dtd">
<!-- Created with matplotlib (https://matplotlib.org/) -->
<svg height="648pt" version="1.1" viewBox="0 0 1152 648" width="1152pt" xmlns="http://www.w3.org/2000/svg" xmlns:xlink="http://www.w3.org/1999/xlink">
 <metadata>
  <rdf:RDF xmlns:cc="http://creativecommons.org/ns#" xmlns:dc="http://purl.org/dc/elements/1.1/" xmlns:rdf="http://www.w3.org/1999/02/22-rdf-syntax-ns#">
   <cc:Work>
    <dc:type rdf:resource="http://purl.org/dc/dcmitype/StillImage"/>
    <dc:date>2022-08-26T19:14:36.920627</dc:date>
    <dc:format>image/svg+xml</dc:format>
    <dc:creator>
     <cc:Agent>
      <dc:title>Matplotlib v3.3.1, https://matplotlib.org/</dc:title>
     </cc:Agent>
    </dc:creator>
   </cc:Work>
  </rdf:RDF>
 </metadata>
 <defs>
  <style type="text/css">*{stroke-linecap:butt;stroke-linejoin:round;}</style>
 </defs>
 <g id="figure_1">
  <g id="patch_1">
   <path d="M 0 648 
L 1152 648 
L 1152 0 
L 0 0 
z
" style="fill:#ffffff;"/>
  </g>
  <g id="axes_1">
   <g id="patch_2">
    <path d="M 144 576.72 
L 1036.8 576.72 
L 1036.8 77.76 
L 144 77.76 
z
" style="fill:none;"/>
   </g>
   <g id="PolyCollection_1">
    <defs>
     <path d="M 458.843556 -450.849087 
L 458.843556 -495.189447 
L 461.073327 -488.584246 
L 467.762637 -476.650269 
L 469.992408 -490.818613 
L 472.222178 -489.211306 
L 474.451948 -472.671038 
L 476.681718 -474.890535 
L 478.911489 -474.925234 
L 481.141259 -454.406974 
L 483.371029 -457.715771 
L 485.600799 -473.739272 
L 487.830569 -479.568703 
L 492.29011 -462.747125 
L 494.51988 -463.617079 
L 496.74965 -462.563716 
L 498.979421 -472.889146 
L 501.209191 -465.658123 
L 503.438961 -445.035766 
L 505.668731 -438.015416 
L 507.898501 -418.010206 
L 510.128272 -436.590279 
L 512.358042 -430.679057 
L 514.587812 -459.25368 
L 516.817582 -455.099714 
L 519.047353 -439.236077 
L 521.277123 -457.443136 
L 523.506893 -458.121006 
L 525.736663 -467.271627 
L 527.966434 -450.010115 
L 530.196204 -440.181625 
L 532.425974 -429.323317 
L 534.655744 -421.771329 
L 536.885514 -427.81639 
L 539.115285 -446.802937 
L 541.345055 -449.601163 
L 543.574825 -452.555534 
L 545.804595 -458.114809 
L 548.034366 -451.981762 
L 550.264136 -463.92937 
L 552.493906 -464.733643 
L 554.723676 -470.483762 
L 556.953447 -458.14703 
L 559.183217 -450.137758 
L 561.412987 -438.675936 
L 563.642757 -455.37111 
L 565.872527 -458.534915 
L 568.102298 -468.210978 
L 570.332068 -472.176577 
L 572.561838 -465.97785 
L 574.791608 -477.048069 
L 577.021379 -475.709679 
L 579.251149 -466.343428 
L 581.480919 -467.287737 
L 583.710689 -449.360748 
L 585.94046 -424.123425 
L 588.17023 -425.218922 
L 590.4 -433.711501 
L 592.62977 -436.787319 
L 594.85954 -456.227432 
L 597.089311 -454.808491 
L 599.319081 -445.14482 
L 601.548851 -449.910975 
L 603.778621 -458.968652 
L 606.008392 -447.997574 
L 608.238162 -424.337815 
L 610.467932 -414.026017 
L 612.697702 -388.28308 
L 614.927473 -403.561791 
L 617.157243 -387.051266 
L 619.387013 -409.251188 
L 621.616783 -420.099581 
L 623.846553 -409.718385 
L 626.076324 -398.055804 
L 628.306094 -403.970744 
L 630.535864 -423.911513 
L 632.765634 -412.594684 
L 634.995405 -414.271389 
L 637.225175 -401.286529 
L 639.454945 -391.112287 
L 641.684715 -394.259982 
L 643.914486 -402.007772 
L 646.144256 -406.469072 
L 648.374026 -409.657661 
L 650.603796 -411.150958 
L 652.833566 -423.849551 
L 655.063337 -419.881473 
L 657.293107 -418.129174 
L 659.522877 -411.24638 
L 661.752647 -413.028421 
L 663.982418 -399.471028 
L 666.212188 -378.292248 
L 668.441958 -377.533827 
L 670.671728 -392.422174 
L 672.901499 -383.55782 
L 675.131269 -380.874844 
L 677.361039 -379.57611 
L 679.590809 -354.451559 
L 681.820579 -363.434881 
L 684.05035 -373.330291 
L 686.28012 -369.629891 
L 688.50989 -367.280273 
L 690.73966 -365.825394 
L 695.199201 -354.753936 
L 697.428971 -352.917368 
L 699.658741 -351.276601 
L 701.888511 -359.360228 
L 706.348052 -366.110422 
L 708.577822 -363.900839 
L 710.807592 -374.855808 
L 713.037363 -369.110645 
L 713.037363 -369.700528 
L 719.726673 -336.538202 
L 719.726673 -345.093983 
L 721.956444 -337.390806 
L 724.186214 -340.042801 
L 726.415984 -348.323468 
L 730.875524 -343.320617 
L 733.105295 -347.318437 
L 735.335065 -357.013088 
L 737.564835 -361.56981 
L 742.024376 -346.498053 
L 744.254146 -340.452993 
L 746.483916 -319.405573 
L 748.713686 -306.202605 
L 753.173227 -338.371053 
L 755.402997 -325.378757 
L 757.632767 -324.386118 
L 759.862537 -328.937883 
L 766.551848 -317.612378 
L 768.781618 -311.603256 
L 771.011389 -305.115783 
L 773.241159 -292.149512 
L 777.700699 -278.012149 
L 779.93047 -287.990589 
L 782.16024 -299.730003 
L 784.39001 -294.373965 
L 788.84955 -288.17028 
L 791.079321 -309.503967 
L 793.309091 -298.451097 
L 795.538861 -289.087325 
L 799.998402 -251.86026 
L 802.228172 -245.00349 
L 804.457942 -246.183256 
L 806.687712 -248.962893 
L 806.687712 -258.25355 
L 813.377023 -262.510373 
L 815.606793 -243.520108 
L 817.836563 -249.680419 
L 824.525874 -244.189303 
L 826.755644 -241.285741 
L 828.985415 -231.825307 
L 831.215185 -239.905216 
L 835.674725 -257.099808 
L 837.904496 -258.879371 
L 840.134266 -273.560764 
L 842.364036 -280.503042 
L 849.053347 -274.786382 
L 851.283117 -285.562899 
L 853.512887 -283.063332 
L 860.202198 -243.56596 
L 860.202198 -253.151558 
L 862.431968 -257.227451 
L 864.661738 -257.570723 
L 891.418981 -233.193439 
L 893.648751 -230.919416 
L 900.338062 -198.634478 
L 902.567832 -202.79464 
L 904.797602 -196.239008 
L 907.027373 -184.965552 
L 909.257143 -179.609515 
L 911.486913 -191.485246 
L 913.716683 -213.7967 
L 915.946454 -207.170431 
L 918.176224 -195.763136 
L 920.405994 -207.63515 
L 922.635764 -202.054808 
L 924.865534 -217.595001 
L 927.095305 -194.865919 
L 929.325075 -187.328802 
L 931.554845 -181.755895 
L 933.784615 -143.564693 
L 936.014386 -129.967644 
L 938.244156 -152.493488 
L 940.473926 -164.180854 
L 942.703696 -173.887898 
L 944.933467 -178.057974 
L 947.163237 -186.585252 
L 949.393007 -199.988978 
L 951.622777 -176.772872 
L 953.852547 -164.27008 
L 956.082318 -158.632732 
L 958.312088 -139.639989 
L 960.541858 -100.602379 
L 962.771628 -139.706908 
L 965.001399 -145.528904 
L 967.231169 -171.755149 
L 969.460939 -173.912683 
L 971.690709 -153.555526 
L 973.92048 -147.920656 
L 976.15025 -153.86286 
L 978.38002 -145.625566 
L 980.60979 -164.095346 
L 982.83956 -122.835761 
L 985.069331 -137.078459 
L 987.299101 -142.351468 
L 989.528871 -148.605962 
L 991.758641 -153.881448 
L 993.988412 -196.044446 
L 996.218182 -215.136329 
L 996.218182 -199.169834 
L 996.218182 -199.169834 
L 993.988412 -182.387913 
L 991.758641 -142.267199 
L 989.528871 -138.731619 
L 987.299101 -134.093107 
L 985.069331 -129.035728 
L 982.83956 -114.981395 
L 980.60979 -156.518572 
L 978.38002 -138.261943 
L 976.15025 -146.682646 
L 973.92048 -140.938723 
L 971.690709 -146.749565 
L 969.460939 -167.282696 
L 967.231169 -165.135076 
L 965.001399 -138.908832 
L 962.771628 -133.057094 
L 960.541858 -93.96 
L 958.312088 -133.002567 
L 956.082318 -151.97796 
L 953.852547 -157.635136 
L 951.622777 -170.142885 
L 949.393007 -193.351556 
L 947.163237 -179.945351 
L 944.933467 -171.430465 
L 942.703696 -167.255433 
L 940.473926 -157.540953 
L 938.244156 -145.863502 
L 936.014386 -123.285609 
L 933.784615 -136.890094 
L 931.554845 -175.130866 
L 929.325075 -180.701294 
L 927.095305 -188.221062 
L 924.865534 -210.940229 
L 922.635764 -195.414907 
L 920.405994 -200.995249 
L 918.176224 -189.13315 
L 915.946454 -200.530531 
L 913.716683 -207.134493 
L 911.486913 -184.825517 
L 909.257143 -172.890302 
L 907.027373 -178.236426 
L 904.797602 -189.445441 
L 902.567832 -195.805271 
L 900.338062 -191.124624 
L 893.648751 -223.129491 
L 891.418981 -224.679793 
L 864.661738 -242.754252 
L 862.431968 -242.388673 
L 860.202198 -237.968269 
L 860.202198 -228.226526 
L 853.512887 -268.046102 
L 851.283117 -270.401916 
L 849.053347 -259.595657 
L 842.364036 -271.449082 
L 840.134266 -265.066945 
L 837.904496 -250.345896 
L 835.674725 -247.830219 
L 831.215185 -231.210639 
L 828.985415 -223.373623 
L 826.755644 -232.521766 
L 824.525874 -235.053553 
L 817.836563 -240.517406 
L 815.606793 -234.939542 
L 813.377023 -253.292832 
L 806.687712 -249.620935 
L 806.687712 -240.97221 
L 804.457942 -238.561869 
L 802.228172 -230.893391 
L 799.998402 -243.108677 
L 795.538861 -281.26518 
L 793.309091 -290.522377 
L 791.079321 -301.324918 
L 788.84955 -279.864828 
L 784.39001 -285.689302 
L 782.16024 -291.516255 
L 779.93047 -279.764449 
L 777.700699 -269.994203 
L 773.241159 -282.205771 
L 771.011389 -296.329501 
L 768.781618 -302.673221 
L 766.551848 -308.191601 
L 759.862537 -319.571632 
L 757.632767 -314.858765 
L 755.402997 -316.067034 
L 753.173227 -328.119978 
L 748.713686 -296.24895 
L 746.483916 -309.744381 
L 744.254146 -330.655483 
L 742.024376 -336.182538 
L 737.564835 -351.368305 
L 735.335065 -347.669144 
L 733.105295 -337.701858 
L 730.875524 -333.409096 
L 726.415984 -337.586608 
L 724.186214 -330.84261 
L 721.956444 -327.776706 
L 719.726673 -335.767389 
L 719.726673 -326.859661 
L 713.037363 -359.964982 
L 713.037363 -359.449454 
L 710.807592 -365.013685 
L 708.577822 -353.862915 
L 706.348052 -355.514835 
L 701.888511 -349.406573 
L 699.658741 -341.060225 
L 697.428971 -342.601852 
L 695.199201 -344.056731 
L 690.73966 -355.745336 
L 688.50989 -357.467893 
L 686.28012 -360.102538 
L 684.05035 -364.308552 
L 681.820579 -354.854315 
L 679.590809 -345.620664 
L 677.361039 -370.048758 
L 675.131269 -372.7875 
L 672.901499 -375.577051 
L 670.671728 -383.868872 
L 668.441958 -369.414262 
L 666.212188 -370.105763 
L 663.982418 -391.185403 
L 661.752647 -404.735361 
L 659.522877 -402.839309 
L 657.293107 -409.784065 
L 655.063337 -411.2786 
L 652.833566 -414.741064 
L 650.603796 -402.295278 
L 648.374026 -400.742498 
L 646.144256 -397.40272 
L 643.914486 -392.259833 
L 641.684715 -384.415381 
L 639.454945 -381.297429 
L 637.225175 -391.265954 
L 634.995405 -404.136803 
L 632.765634 -402.809567 
L 630.535864 -413.88846 
L 628.306094 -394.019568 
L 626.076324 -387.933612 
L 623.846553 -399.710203 
L 621.616783 -409.999694 
L 619.387013 -398.799354 
L 617.157243 -377.075304 
L 614.927473 -393.28841 
L 612.697702 -378.510356 
L 610.467932 -404.169024 
L 608.238162 -414.220579 
L 606.008392 -438.205021 
L 603.778621 -449.260369 
L 601.548851 -440.133294 
L 599.319081 -435.845489 
L 597.089311 -445.296009 
L 594.85954 -446.915708 
L 592.62977 -427.426026 
L 590.4 -424.377471 
L 588.17023 -415.815494 
L 585.94046 -414.610943 
L 583.710689 -439.962277 
L 581.480919 -458.154465 
L 579.251149 -457.172979 
L 577.021379 -466.301294 
L 574.791608 -468.090771 
L 572.561838 -456.715696 
L 570.332068 -462.783064 
L 568.102298 -459.409825 
L 565.872527 -449.803161 
L 563.642757 -446.64927 
L 561.412987 -429.993752 
L 559.183217 -441.596848 
L 556.953447 -448.617198 
L 554.723676 -462.284885 
L 552.493906 -456.512459 
L 550.264136 -455.524777 
L 548.034366 -443.507771 
L 545.804595 -449.717652 
L 543.574825 -443.84113 
L 541.345055 -440.9165 
L 539.115285 -438.301683 
L 536.885514 -419.149076 
L 534.655744 -413.042053 
L 532.425974 -420.955902 
L 530.196204 -431.425085 
L 527.966434 -441.082559 
L 525.736663 -459.010787 
L 523.506893 -449.148837 
L 521.277123 -448.659333 
L 519.047353 -430.78935 
L 516.817582 -445.812776 
L 514.587812 -449.746155 
L 512.358042 -421.369812 
L 510.128272 -427.179415 
L 507.898501 -407.982196 
L 505.668731 -427.179415 
L 503.438961 -435.166381 
L 501.209191 -455.523538 
L 498.979421 -462.928056 
L 496.74965 -452.746379 
L 494.51988 -453.7353 
L 492.29011 -453.363525 
L 487.830569 -467.61242 
L 485.600799 -462.93797 
L 483.371029 -447.070615 
L 481.141259 -442.48539 
L 478.911489 -458.881905 
L 476.681718 -460.220295 
L 474.451948 -458.127202 
L 472.222178 -473.889221 
L 469.992408 -466.730074 
L 467.762637 -456.056415 
L 461.073327 -463.187059 
L 458.843556 -450.849087 
z
" id="m73409c73ca" style="stroke:#56b4e9;stroke-opacity:0.1;"/>
    </defs>
    <g clip-path="url(#p69a4f5964f)">
     <use style="fill:#56b4e9;fill-opacity:0.1;stroke:#56b4e9;stroke-opacity:0.1;" x="0" xlink:href="#m73409c73ca" y="648"/>
    </g>
   </g>
   <g id="PolyCollection_2">
    <defs>
     <path d="M 184.581818 -524.493741 
L 184.581818 -532.674797 
L 186.811588 -534.68206 
L 189.041359 -536.295092 
L 191.271129 -535.85879 
L 193.500899 -535.32844 
L 195.730669 -535.277743 
L 197.96044 -535.19936 
L 200.19021 -535.097283 
L 202.41998 -534.974647 
L 204.64975 -534.833893 
L 206.87952 -534.677066 
L 209.109291 -534.505839 
L 211.339061 -534.077591 
L 213.568831 -533.636852 
L 215.798601 -533.184724 
L 218.028372 -532.722162 
L 220.258142 -532.24997 
L 222.487912 -531.768906 
L 224.717682 -531.279563 
L 226.947453 -530.782537 
L 229.177223 -530.278311 
L 231.406993 -529.767344 
L 233.636763 -529.250031 
L 235.866533 -528.726758 
L 238.096304 -528.095224 
L 240.326074 -527.458671 
L 242.555844 -526.817322 
L 244.785614 -526.171437 
L 247.015385 -525.52119 
L 249.245155 -524.866829 
L 251.474925 -524.20849 
L 253.704695 -523.546384 
L 255.934466 -522.880634 
L 258.164236 -522.211402 
L 260.394006 -521.538849 
L 262.623776 -520.863073 
L 264.853546 -520.100042 
L 267.083317 -519.333975 
L 269.313087 -518.564934 
L 271.542857 -517.793055 
L 273.772627 -517.018425 
L 276.002398 -516.514967 
L 278.232168 -516.008969 
L 280.461938 -515.500492 
L 282.691708 -514.989636 
L 284.921479 -514.476463 
L 287.151249 -513.961046 
L 289.381019 -513.443461 
L 291.610789 -512.959609 
L 293.840559 -512.473662 
L 296.07033 -511.985657 
L 298.3001 -511.49567 
L 300.52987 -511.00375 
L 302.75964 -510.509946 
L 304.989411 -510.330391 
L 307.219181 -510.149077 
L 309.448951 -509.966039 
L 311.678721 -509.781305 
L 313.908492 -509.594934 
L 316.138262 -509.406952 
L 318.368032 -509.520529 
L 320.597802 -509.632632 
L 322.827572 -509.743297 
L 325.057343 -509.852561 
L 327.287113 -509.960475 
L 329.516883 -510.067026 
L 331.746653 -510.172251 
L 333.976424 -510.276224 
L 336.206194 -510.378908 
L 338.435964 -510.480378 
L 340.665734 -510.580633 
L 342.895504 -510.679699 
L 345.125275 -510.724089 
L 347.355045 -510.767314 
L 349.584815 -510.809386 
L 351.814585 -510.850319 
L 354.044356 -510.890161 
L 356.274126 -510.928924 
L 358.503896 -510.966597 
L 360.733666 -511.003242 
L 362.963437 -511.038858 
L 365.193207 -511.073458 
L 367.422977 -511.107066 
L 369.652747 -511.139708 
L 371.882517 -511.093943 
L 374.112288 -511.047198 
L 376.342058 -510.9995 
L 378.571828 -510.950834 
L 380.801598 -510.901227 
L 383.031369 -510.850703 
L 385.261139 -510.799299 
L 387.490909 -510.746978 
L 389.720679 -510.693789 
L 391.95045 -510.639733 
L 394.18022 -510.584847 
L 396.40999 -510.529105 
L 398.63976 -510.430808 
L 400.86953 -510.331779 
L 403.099301 -510.23202 
L 405.329071 -510.131566 
L 407.558841 -510.030381 
L 409.788611 -509.928527 
L 412.018382 -509.825992 
L 414.248152 -509.722775 
L 416.477922 -509.618876 
L 418.707692 -509.514345 
L 420.937463 -509.40917 
L 423.167233 -509.303338 
L 425.397003 -509.122928 
L 427.626773 -508.941874 
L 429.856543 -508.7602 
L 432.086314 -508.577894 
L 434.316084 -508.394993 
L 436.545854 -508.211485 
L 438.775624 -508.027382 
L 441.005395 -507.842684 
L 443.235165 -507.657404 
L 445.464935 -507.471553 
L 447.694705 -507.285145 
L 449.924476 -507.098155 
L 452.154246 -506.960375 
L 454.384016 -506.822063 
L 456.613786 -506.683242 
L 458.843556 -506.543901 
L 461.073327 -506.404064 
L 463.303097 -506.16158 
L 465.532867 -505.918612 
L 467.762637 -505.663959 
L 469.992408 -505.408847 
L 472.222178 -505.153289 
L 474.451948 -504.897297 
L 476.681718 -504.640859 
L 478.911489 -504.143994 
L 481.141259 -503.613025 
L 483.371029 -503.050059 
L 485.600799 -502.49951 
L 487.830569 -501.987179 
L 490.06034 -501.487612 
L 492.29011 -500.986497 
L 494.51988 -500.403715 
L 496.74965 -499.802319 
L 498.979421 -499.115416 
L 501.209191 -498.432304 
L 503.438961 -497.76995 
L 505.668731 -497.14714 
L 507.898501 -496.537764 
L 510.128272 -495.927805 
L 512.358042 -495.340884 
L 514.587812 -494.785068 
L 516.817582 -494.252227 
L 519.047353 -493.730751 
L 521.277123 -493.196622 
L 523.506893 -492.658763 
L 525.736663 -492.121969 
L 527.966434 -491.604632 
L 530.196204 -491.112352 
L 532.425974 -490.630012 
L 534.655744 -490.151277 
L 536.885514 -489.697637 
L 539.115285 -489.267159 
L 541.345055 -488.85833 
L 543.574825 -488.461386 
L 545.804595 -488.070068 
L 548.034366 -487.646257 
L 550.264136 -487.169989 
L 552.493906 -486.668068 
L 554.723676 -486.145278 
L 556.953447 -485.636702 
L 559.183217 -484.993655 
L 561.412987 -484.323432 
L 563.642757 -483.648264 
L 565.872527 -482.982613 
L 568.102298 -482.329206 
L 570.332068 -481.654992 
L 572.561838 -480.9451 
L 574.791608 -480.18119 
L 577.021379 -479.372815 
L 579.251149 -478.521946 
L 581.480919 -477.64442 
L 583.710689 -476.737488 
L 585.94046 -475.726966 
L 588.17023 -474.685526 
L 590.4 -473.608803 
L 592.62977 -472.536307 
L 594.85954 -471.47282 
L 597.089311 -470.424687 
L 599.319081 -469.37819 
L 601.548851 -468.308544 
L 603.778621 -467.21907 
L 606.008392 -466.136969 
L 608.238162 -465.07233 
L 610.467932 -464.021743 
L 612.697702 -462.953237 
L 614.927473 -461.907695 
L 617.157243 -460.892439 
L 619.387013 -459.908351 
L 621.616783 -458.944896 
L 623.846553 -457.995903 
L 626.076324 -457.056614 
L 628.306094 -456.098624 
L 630.535864 -455.123991 
L 632.765634 -454.146186 
L 634.995405 -453.076528 
L 637.225175 -452.016721 
L 639.454945 -451.062796 
L 641.684715 -450.102886 
L 643.914486 -449.144574 
L 646.144256 -448.201467 
L 648.374026 -447.260455 
L 650.603796 -446.315602 
L 652.833566 -445.369905 
L 655.063337 -444.392769 
L 657.293107 -443.388035 
L 659.522877 -442.351898 
L 661.752647 -441.306479 
L 663.982418 -440.247082 
L 666.212188 -439.005639 
L 668.441958 -437.726819 
L 670.671728 -436.434344 
L 672.901499 -435.17052 
L 675.131269 -433.938457 
L 677.361039 -432.716817 
L 679.590809 -431.501287 
L 681.820579 -430.037311 
L 684.05035 -428.564178 
L 686.28012 -427.088516 
L 688.50989 -425.622137 
L 690.73966 -424.15883 
L 692.969431 -422.419692 
L 695.199201 -420.687555 
L 697.428971 -418.981133 
L 699.658741 -417.31371 
L 701.888511 -415.661468 
L 704.118282 -414.033192 
L 706.348052 -412.427149 
L 708.577822 -410.792988 
L 710.807592 -409.142406 
L 713.037363 -407.512693 
L 715.267133 -405.923529 
L 717.496903 -404.345642 
L 719.726673 -402.892634 
L 721.956444 -401.420293 
L 724.186214 -399.942252 
L 726.415984 -398.464571 
L 728.645754 -396.788362 
L 730.875524 -395.095435 
L 733.105295 -393.45815 
L 735.335065 -391.793999 
L 737.564835 -390.120875 
L 739.794605 -388.414688 
L 742.024376 -386.682676 
L 744.254146 -384.937019 
L 746.483916 -383.104119 
L 748.713686 -381.255492 
L 750.943457 -379.402938 
L 753.173227 -377.577808 
L 755.402997 -375.77206 
L 757.632767 -373.980451 
L 759.862537 -372.191173 
L 762.092308 -370.388411 
L 764.322078 -368.56483 
L 766.551848 -366.722016 
L 768.781618 -364.858321 
L 771.011389 -362.993956 
L 773.241159 -361.053861 
L 775.470929 -359.073502 
L 777.700699 -357.087084 
L 779.93047 -355.121807 
L 782.16024 -353.156654 
L 784.39001 -351.194414 
L 786.61978 -349.233635 
L 788.84955 -347.253822 
L 791.079321 -345.246448 
L 793.309091 -343.248951 
L 795.538861 -341.258468 
L 797.768631 -339.279993 
L 799.998402 -337.906223 
L 802.228172 -336.622273 
L 804.457942 -335.37187 
L 806.687712 -334.125581 
L 808.917483 -332.896592 
L 811.147253 -331.694136 
L 813.377023 -330.523305 
L 815.606793 -329.352957 
L 817.836563 -328.182114 
L 820.066334 -327.003067 
L 822.296104 -325.847987 
L 824.525874 -324.718944 
L 826.755644 -324.061844 
L 828.985415 -323.40493 
L 831.215185 -322.767224 
L 833.444955 -322.160847 
L 835.674725 -321.587731 
L 837.904496 -321.061099 
L 840.134266 -320.538037 
L 842.364036 -320.03448 
L 844.593806 -319.537206 
L 846.823576 -319.054531 
L 849.053347 -318.615613 
L 851.283117 -318.180166 
L 853.512887 -317.41851 
L 855.742657 -316.631475 
L 857.972428 -315.837265 
L 860.202198 -315.042162 
L 862.431968 -314.562634 
L 864.661738 -314.054988 
L 866.891508 -313.502877 
L 869.121279 -312.90691 
L 871.351049 -312.27001 
L 873.580819 -311.593503 
L 875.810589 -310.932314 
L 878.04036 -310.236078 
L 880.27013 -308.726313 
L 882.4999 -307.256116 
L 884.72967 -305.832763 
L 886.959441 -304.448509 
L 889.189211 -303.070029 
L 891.418981 -301.679108 
L 893.648751 -300.292325 
L 895.878521 -298.315449 
L 898.108292 -296.311607 
L 900.338062 -294.244414 
L 902.567832 -292.164432 
L 904.797602 -290.057968 
L 907.027373 -287.944427 
L 909.257143 -286.303388 
L 911.486913 -284.81811 
L 913.716683 -283.349945 
L 915.946454 -281.875957 
L 918.176224 -280.396181 
L 920.405994 -278.91581 
L 922.635764 -277.434845 
L 924.865534 -275.953284 
L 927.095305 -274.488727 
L 929.325075 -273.023611 
L 931.554845 -271.554245 
L 933.784615 -270.084296 
L 936.014386 -269.44379 
L 938.244156 -268.802243 
L 940.473926 -268.159704 
L 942.703696 -267.516162 
L 944.933467 -266.871628 
L 947.163237 -266.226127 
L 949.393007 -265.579673 
L 951.622777 -264.932251 
L 953.852547 -264.283901 
L 956.082318 -263.634608 
L 958.312088 -262.984398 
L 958.312088 -131.66694 
L 958.312088 -131.66694 
L 956.082318 -132.806703 
L 953.852547 -133.947408 
L 951.622777 -135.08903 
L 949.393007 -136.231606 
L 947.163237 -137.375124 
L 944.933467 -138.51962 
L 942.703696 -139.665059 
L 940.473926 -140.811514 
L 938.244156 -141.958948 
L 936.014386 -143.107398 
L 933.784615 -144.256864 
L 931.554845 -146.10922 
L 929.325075 -147.962184 
L 927.095305 -149.808963 
L 924.865534 -151.656326 
L 922.635764 -153.519897 
L 920.405994 -155.384064 
L 918.176224 -157.248825 
L 915.946454 -159.114181 
L 913.716683 -160.975708 
L 911.486913 -162.833988 
L 909.257143 -164.711587 
L 907.027373 -166.709258 
L 904.797602 -169.160172 
L 902.567832 -171.547599 
L 900.338062 -173.910824 
L 898.108292 -176.26007 
L 895.878521 -178.567107 
L 893.648751 -180.828019 
L 891.418981 -182.470955 
L 889.189211 -184.111734 
L 886.959441 -185.736056 
L 884.72967 -187.366797 
L 882.4999 -189.028879 
L 880.27013 -190.744794 
L 878.04036 -192.499609 
L 875.810589 -193.437176 
L 873.580819 -194.348322 
L 871.351049 -195.269233 
L 869.121279 -196.160725 
L 866.891508 -197.015572 
L 864.661738 -197.82909 
L 862.431968 -198.597103 
L 860.202198 -199.33888 
L 857.972428 -200.392119 
L 855.742657 -201.445977 
L 853.512887 -202.48686 
L 851.283117 -203.492796 
L 849.053347 -204.161818 
L 846.823576 -204.834061 
L 844.593806 -205.545824 
L 842.364036 -206.268022 
L 840.134266 -206.99276 
L 837.904496 -207.733931 
L 835.674725 -208.479191 
L 833.444955 -209.278643 
L 831.215185 -210.116388 
L 828.985415 -210.995401 
L 826.755644 -211.893076 
L 824.525874 -212.796167 
L 822.296104 -214.165774 
L 820.066334 -215.563424 
L 817.836563 -216.980482 
L 815.606793 -218.376373 
L 813.377023 -219.771719 
L 811.147253 -221.160137 
L 808.917483 -222.576265 
L 806.687712 -224.017463 
L 804.457942 -225.475787 
L 802.228172 -226.937978 
L 799.998402 -228.424124 
L 797.768631 -229.988739 
L 795.538861 -232.157686 
L 793.309091 -234.338518 
L 791.079321 -236.525993 
L 788.84955 -238.723592 
L 786.61978 -240.899875 
L 784.39001 -243.057967 
L 782.16024 -245.215216 
L 779.93047 -247.374411 
L 777.700699 -249.533977 
L 775.470929 -251.714611 
L 773.241159 -253.888887 
L 771.011389 -256.038688 
L 768.781618 -258.121284 
L 766.551848 -260.204005 
L 764.322078 -262.265695 
L 762.092308 -264.308103 
L 759.862537 -266.326246 
L 757.632767 -268.326073 
L 755.402997 -270.328131 
L 753.173227 -272.342048 
L 750.943457 -274.372076 
L 748.713686 -276.428363 
L 746.483916 -278.481342 
L 744.254146 -280.519809 
L 742.024376 -282.465902 
L 739.794605 -284.402093 
L 737.564835 -286.318531 
L 735.335065 -288.202501 
L 733.105295 -290.078589 
L 730.875524 -291.920721 
L 728.645754 -293.832797 
L 726.415984 -295.748132 
L 724.186214 -297.479067 
L 721.956444 -299.215243 
L 719.726673 -300.953105 
L 717.496903 -302.684746 
L 715.267133 -304.51435 
L 713.037363 -306.355429 
L 710.807592 -308.220823 
L 708.577822 -310.10131 
L 706.348052 -311.962626 
L 704.118282 -313.809852 
L 701.888511 -315.667933 
L 699.658741 -317.551816 
L 697.428971 -319.451177 
L 695.199201 -321.387728 
L 692.969431 -323.353588 
L 690.73966 -325.324441 
L 688.50989 -327.023205 
L 686.28012 -328.726479 
L 684.05035 -330.443125 
L 681.820579 -332.159053 
L 679.590809 -333.868226 
L 677.361039 -335.370668 
L 675.131269 -336.882615 
L 672.901499 -338.409346 
L 670.671728 -339.978397 
L 668.441958 -341.581776 
L 666.212188 -343.178958 
L 663.982418 -344.74164 
L 661.752647 -346.128398 
L 659.522877 -347.497682 
L 657.293107 -348.864971 
L 655.063337 -350.192208 
L 652.833566 -351.484336 
L 650.603796 -352.739597 
L 648.374026 -353.990273 
L 646.144256 -355.235298 
L 643.914486 -356.484598 
L 641.684715 -357.76048 
L 639.454945 -359.039869 
L 637.225175 -360.30321 
L 634.995405 -361.649382 
L 632.765634 -363.012247 
L 630.535864 -364.29585 
L 628.306094 -365.571001 
L 626.076324 -366.827922 
L 623.846553 -368.064805 
L 621.616783 -369.313126 
L 619.387013 -370.573406 
L 617.157243 -371.852783 
L 614.927473 -373.155916 
L 612.697702 -374.474268 
L 610.467932 -375.801108 
L 608.238162 -377.102221 
L 606.008392 -378.412876 
L 603.778621 -379.733408 
L 601.548851 -381.056927 
L 599.319081 -382.365823 
L 597.089311 -383.655857 
L 594.85954 -384.949857 
L 592.62977 -386.259583 
L 590.4 -387.578839 
L 588.17023 -388.904155 
L 585.94046 -390.195602 
L 583.710689 -391.451891 
L 581.480919 -392.614531 
L 579.251149 -393.753835 
L 577.021379 -394.87144 
L 574.791608 -395.948113 
L 572.561838 -396.982899 
L 570.332068 -397.951447 
L 568.102298 -398.89029 
L 565.872527 -399.813259 
L 563.642757 -400.74396 
L 561.412987 -401.681329 
L 559.183217 -402.61586 
L 556.953447 -403.5334 
L 554.723676 -404.305564 
L 552.493906 -405.093926 
L 550.264136 -405.86288 
L 548.034366 -406.602985 
L 545.804595 -407.28865 
L 543.574825 -407.935278 
L 541.345055 -408.590804 
L 539.115285 -409.262279 
L 536.885514 -409.959691 
L 534.655744 -410.681604 
L 532.425974 -411.430892 
L 530.196204 -412.19018 
L 527.966434 -412.962034 
L 525.736663 -413.761078 
L 523.506893 -414.584312 
L 521.277123 -415.410321 
L 519.047353 -416.233741 
L 516.817582 -417.049242 
L 514.587812 -417.875982 
L 512.358042 -418.722873 
L 510.128272 -419.601861 
L 507.898501 -420.50168 
L 505.668731 -421.402181 
L 503.438961 -422.317528 
L 501.209191 -423.263894 
L 498.979421 -424.238651 
L 496.74965 -425.220644 
L 494.51988 -426.12402 
L 492.29011 -427.00965 
L 490.06034 -427.816861 
L 487.830569 -428.625149 
L 485.600799 -429.449077 
L 483.371029 -430.309959 
L 481.141259 -431.186951 
L 478.911489 -432.03663 
L 476.681718 -432.852602 
L 474.451948 -433.358427 
L 472.222178 -433.864697 
L 469.992408 -434.371427 
L 467.762637 -434.878577 
L 465.532867 -435.386186 
L 463.303097 -435.891057 
L 461.073327 -436.39641 
L 458.843556 -436.801174 
L 456.613786 -437.206434 
L 454.384016 -437.612214 
L 452.154246 -438.018502 
L 449.924476 -438.425323 
L 447.694705 -438.888542 
L 445.464935 -439.352319 
L 443.235165 -439.816678 
L 441.005395 -440.281583 
L 438.775624 -440.747094 
L 436.545854 -441.213176 
L 434.316084 -441.679878 
L 432.086314 -442.147162 
L 429.856543 -442.615065 
L 427.626773 -443.083576 
L 425.397003 -443.552731 
L 423.167233 -444.022531 
L 420.937463 -444.415745 
L 418.707692 -444.809616 
L 416.477922 -445.204131 
L 414.248152 -445.599303 
L 412.018382 -445.995132 
L 409.788611 -446.391642 
L 407.558841 -446.788834 
L 405.329071 -447.18672 
L 403.099301 -447.585312 
L 400.86953 -447.984599 
L 398.63976 -448.384641 
L 396.40999 -448.785389 
L 394.18022 -449.16056 
L 391.95045 -449.536561 
L 389.720679 -449.913417 
L 387.490909 -450.29114 
L 385.261139 -450.669731 
L 383.031369 -451.049214 
L 380.801598 -451.429602 
L 378.571828 -451.810906 
L 376.342058 -452.193153 
L 374.112288 -452.576341 
L 371.882517 -452.960509 
L 369.652747 -453.345655 
L 367.422977 -453.64657 
L 365.193207 -453.948476 
L 362.963437 -454.251349 
L 360.733666 -454.555238 
L 358.503896 -454.860155 
L 356.274126 -455.166126 
L 354.044356 -455.473162 
L 351.814585 -455.781277 
L 349.584815 -456.090507 
L 347.355045 -456.400852 
L 345.125275 -456.71235 
L 342.895504 -457.025013 
L 340.665734 -457.280075 
L 338.435964 -457.536328 
L 336.206194 -457.793769 
L 333.976424 -458.05245 
L 331.746653 -458.312395 
L 329.516883 -458.573617 
L 327.287113 -458.836164 
L 325.057343 -459.10005 
L 322.827572 -459.365312 
L 320.597802 -459.631973 
L 318.368032 -459.900048 
L 316.138262 -460.169622 
L 313.908492 -460.751883 
L 311.678721 -461.335756 
L 309.448951 -461.921264 
L 307.219181 -462.508471 
L 304.989411 -463.097399 
L 302.75964 -463.688113 
L 300.52987 -464.597957 
L 298.3001 -465.509661 
L 296.07033 -466.423323 
L 293.840559 -467.338967 
L 291.610789 -468.256669 
L 289.381019 -469.176465 
L 287.151249 -470.12868 
L 284.921479 -471.083063 
L 282.691708 -472.03969 
L 280.461938 -472.998634 
L 278.232168 -473.959957 
L 276.002398 -474.923759 
L 273.772627 -475.890101 
L 271.542857 -477.13463 
L 269.313087 -478.38191 
L 267.083317 -479.632029 
L 264.853546 -480.885096 
L 262.623776 -482.141224 
L 260.394006 -483.309354 
L 258.164236 -484.48068 
L 255.934466 -485.655353 
L 253.704695 -486.833508 
L 251.474925 -488.015281 
L 249.245155 -489.200847 
L 247.015385 -490.390365 
L 244.785614 -491.584023 
L 242.555844 -492.782019 
L 240.326074 -493.984574 
L 238.096304 -495.191901 
L 235.866533 -496.404272 
L 233.636763 -497.537107 
L 231.406993 -498.675903 
L 229.177223 -499.821044 
L 226.947453 -500.972927 
L 224.717682 -502.13201 
L 222.487912 -503.298776 
L 220.258142 -504.47382 
L 218.028372 -505.657738 
L 215.798601 -506.851284 
L 213.568831 -508.055265 
L 211.339061 -509.270634 
L 209.109291 -510.498496 
L 206.87952 -511.472781 
L 204.64975 -512.461492 
L 202.41998 -513.466276 
L 200.19021 -514.489153 
L 197.96044 -515.532614 
L 195.730669 -516.599769 
L 193.500899 -517.694584 
L 191.271129 -519.862825 
L 189.041359 -522.125088 
L 186.811588 -523.112299 
L 184.581818 -524.493741 
z
" id="m01a9a7f439" style="stroke:#d55e00;stroke-opacity:0.1;"/>
    </defs>
    <g clip-path="url(#p69a4f5964f)">
     <use style="fill:#d55e00;fill-opacity:0.1;stroke:#d55e00;stroke-opacity:0.1;" x="0" xlink:href="#m01a9a7f439" y="648"/>
    </g>
   </g>
   <g id="PolyCollection_3">
    <defs>
     <path d="M 186.811588 -524.743221 
L 186.811588 -537.143153 
L 189.041359 -538.53233 
L 191.271129 -538.148535 
L 193.500899 -538.750223 
L 195.730669 -539.20447 
L 197.96044 -539.820573 
L 200.19021 -540.639503 
L 202.41998 -541.509523 
L 204.64975 -542.251433 
L 206.87952 -542.679265 
L 209.109291 -543.400752 
L 211.339061 -544.33074 
L 213.568831 -545.386369 
L 215.798601 -546.280104 
L 218.028372 -547.077847 
L 220.258142 -547.56 
L 222.487912 -547.442051 
L 224.717682 -547.116981 
L 226.947453 -546.501379 
L 229.177223 -545.762932 
L 231.406993 -544.723544 
L 233.636763 -543.816174 
L 235.866533 -543.037687 
L 238.096304 -542.173997 
L 240.326074 -541.025573 
L 242.555844 -540.098957 
L 244.785614 -539.117435 
L 247.015385 -538.202317 
L 249.245155 -537.329094 
L 251.474925 -536.397712 
L 253.704695 -535.420667 
L 255.934466 -534.444026 
L 258.164236 -533.246739 
L 260.394006 -532.062204 
L 262.623776 -530.89072 
L 264.853546 -529.85828 
L 267.083317 -529.068405 
L 269.313087 -528.811648 
L 271.542857 -528.646391 
L 273.772627 -528.772873 
L 276.002398 -528.988623 
L 278.232168 -529.144593 
L 280.461938 -529.141162 
L 282.691708 -529.219964 
L 284.921479 -529.271136 
L 287.151249 -529.058271 
L 289.381019 -528.895642 
L 291.610789 -528.716522 
L 293.840559 -528.567759 
L 296.07033 -528.439093 
L 298.3001 -528.570926 
L 300.52987 -528.845188 
L 302.75964 -529.195778 
L 304.989411 -529.497925 
L 307.219181 -529.842012 
L 309.448951 -530.081189 
L 311.678721 -529.742162 
L 313.908492 -529.236058 
L 316.138262 -528.752871 
L 318.368032 -528.171281 
L 320.597802 -527.542434 
L 322.827572 -527.173004 
L 325.057343 -527.175389 
L 327.287113 -527.365136 
L 329.516883 -527.658492 
L 331.746653 -527.727758 
L 333.976424 -527.808678 
L 336.206194 -527.712213 
L 338.435964 -527.388436 
L 340.665734 -527.456636 
L 342.895504 -527.310628 
L 345.125275 -526.951306 
L 347.355045 -527.027052 
L 349.584815 -527.30579 
L 351.814585 -527.493543 
L 354.044356 -528.056443 
L 356.274126 -528.785757 
L 358.503896 -529.397743 
L 360.733666 -529.921781 
L 362.963437 -530.117449 
L 365.193207 -529.846232 
L 367.422977 -529.408104 
L 369.652747 -528.155659 
L 371.882517 -526.576189 
L 374.112288 -525.238673 
L 376.342058 -523.687708 
L 378.571828 -522.760803 
L 380.801598 -522.258657 
L 383.031369 -521.995416 
L 385.261139 -521.667557 
L 387.490909 -521.353494 
L 389.720679 -521.215343 
L 391.95045 -520.667634 
L 394.18022 -520.221666 
L 396.40999 -519.56036 
L 398.63976 -519.057567 
L 400.86953 -518.808728 
L 403.099301 -518.629423 
L 405.329071 -518.768339 
L 407.558841 -518.902125 
L 409.788611 -519.038754 
L 412.018382 -519.016955 
L 414.248152 -518.989672 
L 416.477922 -518.937577 
L 418.707692 -518.487323 
L 420.937463 -518.377523 
L 423.167233 -517.970277 
L 425.397003 -517.640768 
L 427.626773 -517.065867 
L 429.856543 -516.56339 
L 432.086314 -516.149295 
L 434.316084 -515.819354 
L 436.545854 -515.882547 
L 438.775624 -516.117397 
L 441.005395 -516.243988 
L 443.235165 -516.490703 
L 445.464935 -516.667523 
L 447.694705 -516.879147 
L 449.924476 -516.793474 
L 452.154246 -516.803482 
L 454.384016 -516.910334 
L 456.613786 -517.36213 
L 458.843556 -517.940975 
L 461.073327 -518.384123 
L 463.303097 -518.778582 
L 465.532867 -518.553095 
L 467.762637 -518.5391 
L 469.992408 -518.277374 
L 472.222178 -517.782633 
L 474.451948 -517.286394 
L 476.681718 -516.795198 
L 478.911489 -516.28257 
L 481.141259 -515.911866 
L 483.371029 -515.659075 
L 485.600799 -515.461763 
L 487.830569 -515.304338 
L 490.06034 -515.116449 
L 492.29011 -514.767841 
L 494.51988 -514.124072 
L 496.74965 -513.036908 
L 498.979421 -511.562944 
L 501.209191 -509.869065 
L 503.438961 -508.36491 
L 505.668731 -507.306051 
L 507.898501 -506.19639 
L 510.128272 -504.926511 
L 512.358042 -503.649186 
L 514.587812 -502.768888 
L 516.817582 -502.562272 
L 519.047353 -502.837863 
L 521.277123 -503.293576 
L 523.506893 -503.459305 
L 525.736663 -503.114692 
L 527.966434 -502.334867 
L 530.196204 -501.308081 
L 532.425974 -500.403206 
L 534.655744 -499.529132 
L 536.885514 -498.506711 
L 539.115285 -497.495453 
L 541.345055 -497.056237 
L 543.574825 -497.376856 
L 545.804595 -498.053646 
L 548.034366 -498.830509 
L 550.264136 -499.579843 
L 552.493906 -500.082927 
L 554.723676 -500.379391 
L 556.953447 -500.524986 
L 559.183217 -500.615536 
L 561.412987 -500.659212 
L 563.642757 -500.460289 
L 565.872527 -500.167673 
L 568.102298 -499.914693 
L 570.332068 -499.622766 
L 572.561838 -499.285724 
L 574.791608 -498.635975 
L 577.021379 -497.584324 
L 579.251149 -496.069545 
L 581.480919 -494.322088 
L 583.710689 -492.574076 
L 585.94046 -490.83666 
L 588.17023 -488.864198 
L 590.4 -486.831148 
L 592.62977 -485.216359 
L 594.85954 -483.809145 
L 597.089311 -482.318626 
L 599.319081 -480.839709 
L 601.548851 -479.151641 
L 603.778621 -477.092192 
L 606.008392 -474.614334 
L 608.238162 -471.984327 
L 610.467932 -469.37543 
L 612.697702 -466.943421 
L 614.927473 -464.54818 
L 617.157243 -462.200654 
L 619.387013 -460.173272 
L 621.616783 -458.615803 
L 623.846553 -457.509486 
L 626.076324 -456.748137 
L 628.306094 -456.088542 
L 630.535864 -455.552246 
L 632.765634 -455.054743 
L 634.995405 -454.754214 
L 637.225175 -454.621699 
L 639.454945 -454.766638 
L 641.684715 -454.771644 
L 643.914486 -454.384524 
L 646.144256 -453.831761 
L 648.374026 -453.262694 
L 650.603796 -452.828246 
L 652.833566 -452.418163 
L 655.063337 -451.770456 
L 657.293107 -450.864761 
L 659.522877 -449.791519 
L 661.752647 -448.669084 
L 663.982418 -447.133651 
L 666.212188 -445.361659 
L 668.441958 -443.180651 
L 670.671728 -440.632869 
L 672.901499 -438.1182 
L 675.131269 -435.677316 
L 677.361039 -433.549151 
L 679.590809 -431.495418 
L 681.820579 -429.460354 
L 684.05035 -427.350231 
L 686.28012 -425.171312 
L 688.50989 -422.997879 
L 690.73966 -420.972836 
L 692.969431 -419.243703 
L 695.199201 -417.560261 
L 697.428971 -415.702065 
L 699.658741 -413.807037 
L 701.888511 -411.920502 
L 704.118282 -410.323076 
L 706.348052 -409.254405 
L 708.577822 -408.466669 
L 710.807592 -407.753101 
L 713.037363 -406.909178 
L 715.267133 -405.700801 
L 717.496903 -404.345807 
L 719.726673 -402.754493 
L 721.956444 -400.646081 
L 724.186214 -398.059905 
L 726.415984 -395.546332 
L 728.645754 -393.380334 
L 730.875524 -391.647578 
L 733.105295 -390.247624 
L 735.335065 -388.607812 
L 737.564835 -386.875709 
L 739.794605 -385.056727 
L 742.024376 -383.029937 
L 744.254146 -380.979331 
L 746.483916 -378.870539 
L 748.713686 -376.483785 
L 750.943457 -373.830204 
L 753.173227 -371.407938 
L 755.402997 -369.144182 
L 757.632767 -367.102514 
L 759.862537 -365.15563 
L 762.092308 -362.84414 
L 764.322078 -360.060799 
L 766.551848 -356.733362 
L 768.781618 -353.173399 
L 771.011389 -349.974758 
L 773.241159 -346.929529 
L 775.470929 -343.808421 
L 777.700699 -340.866775 
L 779.93047 -338.30379 
L 782.16024 -336.032535 
L 784.39001 -334.015634 
L 786.61978 -332.089904 
L 788.84955 -330.024865 
L 791.079321 -327.689874 
L 793.309091 -324.996523 
L 795.538861 -322.127349 
L 797.768631 -319.321749 
L 799.998402 -316.146168 
L 802.228172 -312.791537 
L 804.457942 -309.203839 
L 806.687712 -305.660171 
L 808.917483 -302.41717 
L 811.147253 -299.882604 
L 813.377023 -297.627594 
L 815.606793 -295.573198 
L 817.836563 -293.658869 
L 820.066334 -291.7659 
L 822.296104 -289.701513 
L 824.525874 -287.32446 
L 826.755644 -286.321974 
L 828.985415 -286.92048 
L 831.215185 -287.518508 
L 833.444955 -288.087024 
L 835.674725 -288.655077 
L 837.904496 -289.22267 
L 840.134266 -289.789805 
L 842.364036 -287.948777 
L 844.593806 -286.1082 
L 846.823576 -284.268072 
L 849.053347 -282.428388 
L 851.283117 -280.589145 
L 853.512887 -278.750338 
L 855.742657 -276.911964 
L 857.972428 -275.074019 
L 860.202198 -273.2365 
L 862.431968 -271.399403 
L 864.661738 -269.562725 
L 864.661738 -130.701031 
L 864.661738 -130.701031 
L 862.431968 -132.398074 
L 860.202198 -134.094697 
L 857.972428 -135.790899 
L 855.742657 -137.486676 
L 853.512887 -139.182023 
L 851.283117 -140.876937 
L 849.053347 -142.571415 
L 846.823576 -144.265452 
L 844.593806 -145.959045 
L 842.364036 -147.652189 
L 840.134266 -149.344881 
L 837.904496 -149.164746 
L 835.674725 -148.985067 
L 833.444955 -148.805849 
L 831.215185 -148.627094 
L 828.985415 -148.424334 
L 826.755644 -148.222052 
L 824.525874 -149.701215 
L 822.296104 -152.37669 
L 820.066334 -154.738503 
L 817.836563 -156.932098 
L 815.606793 -159.151613 
L 813.377023 -161.511531 
L 811.147253 -164.064477 
L 808.917483 -166.888761 
L 806.687712 -170.390085 
L 804.457942 -174.15788 
L 802.228172 -177.965983 
L 799.998402 -181.559153 
L 797.768631 -184.984696 
L 795.538861 -188.050013 
L 793.309091 -191.201837 
L 791.079321 -194.183728 
L 788.84955 -196.804181 
L 786.61978 -199.140365 
L 784.39001 -201.327423 
L 782.16024 -203.614014 
L 779.93047 -206.167609 
L 777.700699 -209.015497 
L 775.470929 -212.236133 
L 773.241159 -215.634975 
L 771.011389 -218.9335 
L 768.781618 -222.371916 
L 766.551848 -226.144125 
L 764.322078 -229.694676 
L 762.092308 -232.735889 
L 759.862537 -235.294237 
L 757.632767 -237.461141 
L 755.402997 -239.727072 
L 753.173227 -242.227183 
L 750.943457 -244.917113 
L 748.713686 -247.84957 
L 746.483916 -250.55191 
L 744.254146 -253.005115 
L 742.024376 -255.400885 
L 739.794605 -257.76945 
L 737.564835 -259.933217 
L 735.335065 -262.003557 
L 733.105295 -263.960017 
L 730.875524 -265.701693 
L 728.645754 -267.803904 
L 726.415984 -270.355887 
L 724.186214 -273.212115 
L 721.956444 -276.104334 
L 719.726673 -278.566937 
L 717.496903 -280.523789 
L 715.267133 -282.238744 
L 713.037363 -283.787862 
L 710.807592 -284.944215 
L 708.577822 -285.950915 
L 706.348052 -287.038578 
L 704.118282 -288.427012 
L 701.888511 -290.33736 
L 699.658741 -292.490716 
L 697.428971 -294.653649 
L 695.199201 -296.784211 
L 692.969431 -298.755935 
L 690.73966 -300.776239 
L 688.50989 -303.13369 
L 686.28012 -305.679203 
L 684.05035 -308.266175 
L 681.820579 -310.82043 
L 679.590809 -313.292389 
L 677.361039 -315.738136 
L 675.131269 -318.220309 
L 672.901499 -321.022815 
L 670.671728 -323.936385 
L 668.441958 -326.905879 
L 666.212188 -329.490493 
L 663.982418 -331.600802 
L 661.752647 -333.427844 
L 659.522877 -334.813413 
L 657.293107 -336.160346 
L 655.063337 -337.349675 
L 652.833566 -338.269889 
L 650.603796 -338.920203 
L 648.374026 -339.590832 
L 646.144256 -340.4086 
L 643.914486 -341.229435 
L 641.684715 -341.89465 
L 639.454945 -342.181129 
L 637.225175 -342.322653 
L 634.995405 -342.777362 
L 632.765634 -343.438635 
L 630.535864 -344.306712 
L 628.306094 -345.20476 
L 626.076324 -346.21351 
L 623.846553 -347.305946 
L 621.616783 -348.720664 
L 619.387013 -350.580538 
L 617.157243 -352.908754 
L 614.927473 -355.554691 
L 612.697702 -358.229187 
L 610.467932 -360.928464 
L 608.238162 -363.796504 
L 606.008392 -366.692235 
L 603.778621 -369.470284 
L 601.548851 -371.866989 
L 599.319081 -373.886781 
L 597.089311 -375.665793 
L 594.85954 -377.453787 
L 592.62977 -379.169729 
L 590.4 -381.118984 
L 588.17023 -383.496856 
L 585.94046 -385.818702 
L 583.710689 -387.895149 
L 581.480919 -389.966596 
L 579.251149 -392.036274 
L 577.021379 -393.894996 
L 574.791608 -395.297134 
L 572.561838 -396.268603 
L 570.332068 -396.911153 
L 568.102298 -397.52046 
L 565.872527 -398.115947 
L 563.642757 -398.768605 
L 561.412987 -399.336828 
L 559.183217 -399.672542 
L 556.953447 -399.9673 
L 554.723676 -400.206532 
L 552.493906 -400.289347 
L 550.264136 -400.168796 
L 548.034366 -399.793778 
L 545.804595 -399.356956 
L 543.574825 -399.019808 
L 541.345055 -399.059123 
L 539.115285 -399.901004 
L 536.885514 -401.307487 
L 534.655744 -402.75232 
L 532.425974 -404.071557 
L 530.196204 -405.423701 
L 527.966434 -406.901034 
L 525.736663 -408.136778 
L 523.506893 -408.949119 
L 521.277123 -409.272039 
L 519.047353 -409.293996 
L 516.817582 -409.50811 
L 514.587812 -410.231589 
L 512.358042 -411.596961 
L 510.128272 -413.337898 
L 507.898501 -415.094479 
L 505.668731 -416.726982 
L 503.438961 -418.321188 
L 501.209191 -420.313937 
L 498.979421 -422.47978 
L 496.74965 -424.457882 
L 494.51988 -426.057766 
L 492.29011 -427.18474 
L 490.06034 -428.004869 
L 487.830569 -428.643672 
L 485.600799 -429.262068 
L 483.371029 -429.936079 
L 481.141259 -430.678394 
L 478.911489 -431.54634 
L 476.681718 -432.554635 
L 474.451948 -433.831343 
L 472.222178 -435.105295 
L 469.992408 -436.390683 
L 467.762637 -437.465208 
L 465.532867 -438.289254 
L 463.303097 -438.83904 
L 461.073327 -438.693545 
L 458.843556 -438.515716 
L 456.613786 -438.212724 
L 454.384016 -438.041841 
L 452.154246 -438.211594 
L 449.924476 -438.474447 
L 447.694705 -438.839987 
L 445.464935 -438.900244 
L 443.235165 -438.996937 
L 441.005395 -439.02668 
L 438.775624 -439.183916 
L 436.545854 -439.226604 
L 434.316084 -439.452206 
L 432.086314 -440.101479 
L 429.856543 -440.843413 
L 427.626773 -441.673361 
L 425.397003 -442.574095 
L 423.167233 -443.230787 
L 420.937463 -443.969683 
L 418.707692 -444.421792 
L 416.477922 -445.224187 
L 414.248152 -445.63154 
L 412.018382 -446.007678 
L 409.788611 -446.351229 
L 407.558841 -446.54386 
L 405.329071 -446.772256 
L 403.099301 -447.002671 
L 400.86953 -447.550398 
L 398.63976 -448.163525 
L 396.40999 -449.019323 
L 394.18022 -450.051303 
L 391.95045 -450.878064 
L 389.720679 -451.808669 
L 387.490909 -452.330292 
L 385.261139 -453.017287 
L 383.031369 -453.694469 
L 380.801598 -454.315199 
L 378.571828 -455.196121 
L 376.342058 -456.509509 
L 374.112288 -458.443883 
L 371.882517 -460.156914 
L 369.652747 -462.091955 
L 367.422977 -463.720101 
L 365.193207 -464.54865 
L 362.963437 -465.225091 
L 360.733666 -465.442728 
L 358.503896 -465.31947 
L 356.274126 -465.076919 
L 354.044356 -464.699571 
L 351.814585 -464.544417 
L 349.584815 -464.8021 
L 347.355045 -464.973721 
L 345.125275 -465.340787 
L 342.895504 -466.122187 
L 340.665734 -466.697867 
L 338.435964 -467.072762 
L 336.206194 -467.865533 
L 333.976424 -468.448804 
L 331.746653 -468.858373 
L 329.516883 -469.24692 
L 327.287113 -469.363887 
L 325.057343 -469.637738 
L 322.827572 -470.125368 
L 320.597802 -471.0014 
L 318.368032 -472.12833 
L 316.138262 -473.181453 
L 313.908492 -474.136836 
L 311.678721 -475.128225 
L 309.448951 -475.981743 
L 307.219181 -476.274927 
L 304.989411 -476.439923 
L 302.75964 -476.615015 
L 300.52987 -476.713018 
L 298.3001 -476.940529 
L 296.07033 -477.354655 
L 293.840559 -478.034275 
L 291.610789 -478.716566 
L 289.381019 -479.43096 
L 287.151249 -480.136574 
L 284.921479 -480.909837 
L 282.691708 -481.446224 
L 280.461938 -481.97287 
L 278.232168 -482.580724 
L 276.002398 -482.975332 
L 273.772627 -483.27816 
L 271.542857 -483.729041 
L 269.313087 -484.517765 
L 267.083317 -485.404114 
L 264.853546 -486.786082 
L 262.623776 -488.404044 
L 260.394006 -490.158 
L 258.164236 -491.931866 
L 255.934466 -493.733414 
L 253.704695 -495.331519 
L 251.474925 -496.939566 
L 249.245155 -498.473153 
L 247.015385 -499.911117 
L 244.785614 -501.425113 
L 242.555844 -503.044656 
L 240.326074 -504.635318 
L 238.096304 -506.453501 
L 235.866533 -507.993888 
L 233.636763 -509.451718 
L 231.406993 -511.057756 
L 229.177223 -512.843003 
L 226.947453 -514.411579 
L 224.717682 -515.914781 
L 222.487912 -517.121836 
L 220.258142 -518.107 
L 218.028372 -518.5051 
L 215.798601 -518.641158 
L 213.568831 -518.745616 
L 211.339061 -518.771348 
L 209.109291 -518.967138 
L 206.87952 -519.369505 
L 204.64975 -520.028024 
L 202.41998 -520.373568 
L 200.19021 -520.647908 
L 197.96044 -521.03949 
L 195.730669 -521.711553 
L 193.500899 -522.636907 
L 191.271129 -523.519685 
L 189.041359 -525.380216 
L 186.811588 -524.743221 
z
" id="m526ccac4e3" style="stroke:#e69f00;stroke-opacity:0.1;"/>
    </defs>
    <g clip-path="url(#p69a4f5964f)">
     <use style="fill:#e69f00;fill-opacity:0.1;stroke:#e69f00;stroke-opacity:0.1;" x="0" xlink:href="#m526ccac4e3" y="648"/>
    </g>
   </g>
   <g id="patch_3">
    <path d="M 144 576.72 
L 1036.8 576.72 
" style="fill:none;stroke:#d3d3d3;stroke-linecap:square;stroke-linejoin:miter;stroke-width:1.25;"/>
   </g>
   <g id="matplotlib.axis_1">
    <g id="xtick_1">
     <g id="line2d_1">
      <defs>
       <path d="M 0 0 
L 0 6 
" id="m663c540dbe" style="stroke:#696969;stroke-width:1.25;"/>
      </defs>
      <g>
       <use style="fill:#696969;stroke:#696969;stroke-width:1.25;" x="398.63976" xlink:href="#m663c540dbe" y="576.72"/>
      </g>
     </g>
     <g id="text_1">
      <!-- 2000 -->
      <g style="fill:#696969;" transform="translate(381.047573 596.218438)scale(0.15 -0.15)">
       <defs>
        <path d="M 52.484375 6.9375 
L 52.484375 0 
L 5.171875 0 
L 5.171875 6.9375 
Q 33.203125 27.9375 38.59375 34.59375 
Q 44 41.265625 44 47.796875 
Q 44 53.90625 39.453125 57.65625 
Q 34.90625 61.421875 29 61.421875 
Q 22.90625 61.421875 18.21875 57.296875 
Q 13.53125 53.171875 12.9375 46.09375 
L 5.171875 48.4375 
Q 10.0625 68.015625 29.109375 68.015625 
Q 39.40625 68.015625 45.84375 62.15625 
Q 52.296875 56.296875 52.296875 47.859375 
Q 52.296875 42.046875 49.234375 36.671875 
Q 46.1875 31.296875 37.6875 23.828125 
Q 29.203125 16.359375 15.71875 6.9375 
z
" id="FranklinGothic-Book-50"/>
        <path d="M 29.390625 -1.3125 
Q 17.875 -1.3125 10.984375 8.671875 
Q 4.109375 18.65625 4.109375 33.453125 
Q 4.109375 48 10.640625 58 
Q 17.1875 68.015625 29.15625 68.015625 
Q 41.65625 68.015625 48.125 57.5625 
Q 54.59375 47.125 54.59375 33.0625 
Q 54.59375 19.28125 47.953125 8.984375 
Q 41.3125 -1.3125 29.390625 -1.3125 
z
M 29.4375 5.21875 
Q 37.890625 5.21875 41.9375 12.859375 
Q 46 20.515625 46 32.078125 
Q 46 44.734375 41.84375 53.125 
Q 37.703125 61.53125 29.046875 61.53125 
Q 20.703125 61.53125 16.625 53.859375 
Q 12.546875 46.1875 12.546875 33.6875 
Q 12.546875 20.703125 16.84375 12.953125 
Q 21.140625 5.21875 29.4375 5.21875 
z
" id="FranklinGothic-Book-48"/>
       </defs>
       <use xlink:href="#FranklinGothic-Book-50"/>
       <use x="58.642578" xlink:href="#FranklinGothic-Book-48"/>
       <use x="117.285156" xlink:href="#FranklinGothic-Book-48"/>
       <use x="175.927734" xlink:href="#FranklinGothic-Book-48"/>
      </g>
     </g>
    </g>
    <g id="xtick_2">
     <g id="line2d_2">
      <g>
       <use style="fill:#696969;stroke:#696969;stroke-width:1.25;" x="666.212188" xlink:href="#m663c540dbe" y="576.72"/>
      </g>
     </g>
     <g id="text_2">
      <!-- 2010 -->
      <g style="fill:#696969;" transform="translate(649.145 596.218438)scale(0.15 -0.15)">
       <defs>
        <path d="M 55.859375 6.203125 
L 55.859375 0 
L 9.1875 0 
L 9.1875 6.203125 
L 29.203125 6.203125 
L 29.203125 57.671875 
Q 20.359375 48.4375 10.84375 43.265625 
L 10.84375 51.65625 
Q 23.96875 58.546875 31.203125 68.015625 
L 37.15625 68.015625 
L 37.15625 6.203125 
z
" id="FranklinGothic-Book-49"/>
       </defs>
       <use xlink:href="#FranklinGothic-Book-50"/>
       <use x="58.642578" xlink:href="#FranklinGothic-Book-48"/>
       <use x="113.535156" xlink:href="#FranklinGothic-Book-49"/>
       <use x="168.927734" xlink:href="#FranklinGothic-Book-48"/>
      </g>
     </g>
    </g>
    <g id="xtick_3">
     <g id="line2d_3">
      <g>
       <use style="fill:#696969;stroke:#696969;stroke-width:1.25;" x="933.784615" xlink:href="#m663c540dbe" y="576.72"/>
      </g>
     </g>
     <g id="text_3">
      <!-- 2020 -->
      <g style="fill:#696969;" transform="translate(916.192428 596.218438)scale(0.15 -0.15)">
       <use xlink:href="#FranklinGothic-Book-50"/>
       <use x="58.642578" xlink:href="#FranklinGothic-Book-48"/>
       <use x="117.285156" xlink:href="#FranklinGothic-Book-50"/>
       <use x="175.927734" xlink:href="#FranklinGothic-Book-48"/>
      </g>
     </g>
    </g>
    <g id="text_4">
     <!-- Year -->
     <g style="fill:#696969;" transform="translate(572.109375 616.048125)scale(0.2 -0.2)">
      <defs>
       <path d="M 52 66.65625 
L 29.6875 28.03125 
L 29.6875 0 
L 21.34375 0 
L 21.34375 28.03125 
L -0.984375 66.65625 
L 8.84375 66.65625 
L 26.5625 35.984375 
L 44.390625 66.65625 
z
" id="FranklinGothic-Book-89"/>
       <path d="M 40.234375 14.703125 
L 47.359375 13.234375 
Q 45.40625 6.9375 39.734375 2.8125 
Q 34.078125 -1.3125 26.421875 -1.3125 
Q 16.3125 -1.3125 10.0625 5.78125 
Q 3.8125 12.890625 3.8125 24.421875 
Q 3.8125 36.1875 10.296875 43.4375 
Q 16.796875 50.6875 26.609375 50.6875 
Q 36.28125 50.6875 42.15625 44 
Q 48.046875 37.3125 48.1875 23.96875 
L 12.359375 23.96875 
Q 12.359375 12.796875 17.046875 8.890625 
Q 21.734375 4.984375 26.953125 4.984375 
Q 36.375 4.984375 40.234375 14.703125 
z
M 39.796875 29.6875 
Q 39.703125 33.84375 38.421875 37.0625 
Q 37.15625 40.28125 34.125 42.546875 
Q 31.109375 44.828125 26.859375 44.828125 
Q 21.140625 44.828125 17.15625 40.71875 
Q 13.1875 36.625 12.703125 29.6875 
z
" id="FranklinGothic-Book-101"/>
       <path d="M 46.296875 0 
L 38.671875 0 
Q 38.234375 2.34375 37.796875 8.890625 
Q 32.71875 -1.3125 20.515625 -1.3125 
Q 12.203125 -1.3125 7.765625 3.078125 
Q 3.328125 7.46875 3.328125 13.625 
Q 3.328125 21.09375 9.671875 25.90625 
Q 16.015625 30.71875 31.25 30.71875 
Q 33.296875 30.71875 37.796875 30.515625 
Q 37.796875 36.375 36.890625 38.984375 
Q 35.984375 41.609375 33.046875 43.171875 
Q 30.125 44.734375 25.34375 44.734375 
Q 13.671875 44.734375 11.765625 35.84375 
L 4.6875 37.0625 
Q 7.28125 50.6875 26.46875 50.6875 
Q 36.671875 50.6875 40.9375 46.171875 
Q 45.21875 41.65625 45.21875 30.515625 
L 45.21875 9.578125 
Q 45.21875 4.34375 46.296875 0 
z
M 37.796875 24.65625 
Q 33.109375 24.953125 30.671875 24.953125 
Q 21.578125 24.953125 16.546875 21.96875 
Q 11.53125 19 11.53125 13.28125 
Q 11.53125 9.671875 14.234375 7.125 
Q 16.9375 4.59375 22.078125 4.59375 
Q 29 4.59375 33.46875 9.625 
Q 37.9375 14.65625 37.9375 21.4375 
Q 37.9375 22.796875 37.796875 24.65625 
z
" id="FranklinGothic-Book-97"/>
       <path d="M 15.328125 0 
L 7.671875 0 
L 7.671875 49.3125 
L 14.40625 49.3125 
L 14.40625 37.796875 
Q 17.96875 45.953125 21.546875 48.359375 
Q 25.140625 50.78125 28.90625 50.78125 
Q 30.078125 50.78125 31.9375 50.59375 
L 31.9375 43.265625 
L 30.375 43.265625 
Q 24.03125 43.265625 19.828125 38.53125 
Q 15.625 33.796875 15.328125 26.078125 
z
" id="FranklinGothic-Book-114"/>
      </defs>
      <use xlink:href="#FranklinGothic-Book-89"/>
      <use x="45.025391" xlink:href="#FranklinGothic-Book-101"/>
      <use x="97.076172" xlink:href="#FranklinGothic-Book-97"/>
      <use x="149.957031" xlink:href="#FranklinGothic-Book-114"/>
     </g>
    </g>
   </g>
   <g id="matplotlib.axis_2">
    <g id="ytick_1">
     <g id="line2d_4">
      <path clip-path="url(#p69a4f5964f)" d="M 144 571.576625 
L 1036.8 571.576625 
" style="fill:none;stroke:#d3d3d3;stroke-linecap:round;stroke-opacity:0.5;"/>
     </g>
     <g id="text_5">
      <!-- 3000 -->
      <g style="fill:#696969;" transform="translate(90.519531 576.575843)scale(0.15 -0.15)">
       <defs>
        <path d="M 6 36.765625 
L 52.6875 36.765625 
L 52.6875 30.03125 
L 6 30.03125 
z
" id="FranklinGothic-Book-8722"/>
        <path d="M 19.34375 31.34375 
L 19.34375 37.984375 
L 26.953125 37.984375 
Q 35.296875 37.984375 38.890625 41.40625 
Q 42.484375 44.828125 42.484375 49.703125 
Q 42.484375 55.078125 38.46875 58.21875 
Q 34.46875 61.375 28.421875 61.375 
Q 17.1875 61.375 12.890625 50.53125 
L 5.375 52.6875 
Q 11.8125 68.015625 29.203125 68.015625 
Q 38.96875 68.015625 44.96875 62.8125 
Q 50.984375 57.625 50.984375 50.296875 
Q 50.984375 44.625 47.359375 40.40625 
Q 43.75 36.1875 38.09375 35.109375 
Q 44.4375 34.1875 49 29.78125 
Q 53.5625 25.390625 53.5625 18.40625 
Q 53.5625 10.0625 46.765625 4.375 
Q 39.984375 -1.3125 28.171875 -1.3125 
Q 18.796875 -1.3125 12.125 3.125 
Q 5.46875 7.5625 2.9375 14.9375 
L 10.6875 17.53125 
Q 14.203125 5.46875 28.03125 5.46875 
Q 37.015625 5.46875 40.9375 9.296875 
Q 44.875 13.140625 44.875 18.453125 
Q 44.875 24.21875 40.15625 27.78125 
Q 35.453125 31.34375 26.953125 31.34375 
z
" id="FranklinGothic-Book-51"/>
       </defs>
       <use xlink:href="#FranklinGothic-Book-8722"/>
       <use x="58.642578" xlink:href="#FranklinGothic-Book-51"/>
       <use x="117.285156" xlink:href="#FranklinGothic-Book-48"/>
       <use x="175.927734" xlink:href="#FranklinGothic-Book-48"/>
       <use x="234.570312" xlink:href="#FranklinGothic-Book-48"/>
      </g>
     </g>
    </g>
    <g id="ytick_2">
     <g id="line2d_5">
      <path clip-path="url(#p69a4f5964f)" d="M 144 447.651639 
L 1036.8 447.651639 
" style="fill:none;stroke:#d3d3d3;stroke-linecap:round;stroke-opacity:0.5;"/>
     </g>
     <g id="text_6">
      <!-- 2000 -->
      <g style="fill:#696969;" transform="translate(90.519531 452.650858)scale(0.15 -0.15)">
       <use xlink:href="#FranklinGothic-Book-8722"/>
       <use x="58.642578" xlink:href="#FranklinGothic-Book-50"/>
       <use x="117.285156" xlink:href="#FranklinGothic-Book-48"/>
       <use x="175.927734" xlink:href="#FranklinGothic-Book-48"/>
       <use x="234.570312" xlink:href="#FranklinGothic-Book-48"/>
      </g>
     </g>
    </g>
    <g id="ytick_3">
     <g id="line2d_6">
      <path clip-path="url(#p69a4f5964f)" d="M 144 323.726654 
L 1036.8 323.726654 
" style="fill:none;stroke:#d3d3d3;stroke-linecap:round;stroke-opacity:0.5;"/>
     </g>
     <g id="text_7">
      <!-- 1000 -->
      <g style="fill:#696969;" transform="translate(91.007031 328.725872)scale(0.15 -0.15)">
       <use xlink:href="#FranklinGothic-Book-8722"/>
       <use x="58.642578" xlink:href="#FranklinGothic-Book-49"/>
       <use x="114.035156" xlink:href="#FranklinGothic-Book-48"/>
       <use x="172.677734" xlink:href="#FranklinGothic-Book-48"/>
       <use x="231.320312" xlink:href="#FranklinGothic-Book-48"/>
      </g>
     </g>
    </g>
    <g id="ytick_4">
     <g id="line2d_7">
      <path clip-path="url(#p69a4f5964f)" d="M 144 199.801668 
L 1036.8 199.801668 
" style="fill:none;stroke:#d3d3d3;stroke-linecap:round;stroke-opacity:0.5;"/>
     </g>
     <g id="text_8">
      <!-- 0 -->
      <g style="fill:#696969;" transform="translate(125.703906 204.800887)scale(0.15 -0.15)">
       <use xlink:href="#FranklinGothic-Book-48"/>
      </g>
     </g>
    </g>
    <g id="text_9">
     <!-- Gt -->
     <g style="fill:#696969;" transform="translate(77.188281 336.786875)rotate(-90)scale(0.2 -0.2)">
      <defs>
       <path d="M 57.71875 33.59375 
L 57.71875 -0.875 
L 52.59375 -0.875 
L 50.296875 7.46875 
Q 44.140625 -1.3125 31.984375 -1.3125 
Q 18.796875 -1.3125 11.46875 8.59375 
Q 4.15625 18.5 4.15625 32.671875 
Q 4.15625 47.796875 11.90625 57.90625 
Q 19.671875 68.015625 33.015625 68.015625 
Q 51.421875 68.015625 57.03125 48.6875 
L 49.125 46.78125 
Q 47.40625 54.203125 42.71875 57.5625 
Q 38.03125 60.9375 32.46875 60.9375 
Q 22.609375 60.9375 17.921875 52.96875 
Q 13.234375 45.015625 13.234375 33.015625 
Q 13.234375 20.0625 18.484375 12.765625 
Q 23.734375 5.46875 32.765625 5.46875 
Q 39.796875 5.46875 44.5 10.125 
Q 49.21875 14.796875 49.21875 23 
Q 49.21875 24.515625 49.125 26.609375 
L 32.625 26.609375 
L 32.625 33.59375 
z
" id="FranklinGothic-Book-71"/>
       <path d="M 30.03125 5.28125 
L 30.03125 -0.78125 
Q 25.984375 -1.3125 23 -1.3125 
Q 8.6875 -1.3125 8.6875 13.625 
L 8.6875 43.3125 
L -0.046875 43.3125 
L -0.046875 49.3125 
L 8.6875 49.3125 
L 9.03125 61.71875 
L 16.15625 62.40625 
L 16.15625 49.3125 
L 27.203125 49.3125 
L 27.203125 43.3125 
L 16.15625 43.3125 
L 16.15625 12.359375 
Q 16.15625 4.734375 24.078125 4.734375 
Q 26.703125 4.734375 30.03125 5.28125 
z
" id="FranklinGothic-Book-116"/>
      </defs>
      <use xlink:href="#FranklinGothic-Book-71"/>
      <use x="64.697266" xlink:href="#FranklinGothic-Book-116"/>
     </g>
    </g>
   </g>
   <g id="text_10">
    <!-- Antarctic ice sheet cumulative mass balance -->
    <g style="fill:#696969;" transform="translate(144 42.76)scale(0.4 -0.4)">
     <defs>
      <path d="M 53.21875 0 
L 44.671875 0 
L 37.9375 19.484375 
L 13.28125 19.484375 
L 7.328125 0 
L 0.34375 0 
L 21.96875 66.65625 
L 31.5 66.65625 
z
M 36.1875 25.734375 
L 25.921875 57.765625 
L 15.578125 25.734375 
z
" id="FranklinGothic-Book-65"/>
      <path d="M 46.53125 0 
L 39.359375 0 
L 39.359375 31.6875 
Q 39.359375 38.53125 36.375 41.3125 
Q 33.40625 44.09375 29.15625 44.09375 
Q 23.296875 44.09375 19.3125 39.40625 
Q 15.328125 34.71875 15.328125 27.046875 
L 15.328125 0 
L 7.671875 0 
L 7.671875 49.3125 
L 14.796875 49.3125 
L 14.796875 40.234375 
Q 20.796875 50.6875 30.375 50.6875 
Q 35.890625 50.6875 39.765625 47.828125 
Q 43.65625 44.96875 45.09375 41.40625 
Q 46.53125 37.84375 46.53125 28.515625 
z
" id="FranklinGothic-Book-110"/>
      <path d="M 36.8125 17.28125 
L 43.75 16.0625 
Q 42.28125 7.90625 37.25 3.296875 
Q 32.234375 -1.3125 24.703125 -1.3125 
Q 14.5 -1.3125 9.15625 6.203125 
Q 3.8125 13.71875 3.8125 24.5625 
Q 3.8125 35.796875 9.453125 43.234375 
Q 15.09375 50.6875 24.8125 50.6875 
Q 32.859375 50.6875 37.71875 45.875 
Q 42.578125 41.0625 43.75 33.453125 
L 36.8125 32.125 
Q 34.859375 44.34375 25 44.34375 
Q 18.65625 44.34375 15.234375 38.9375 
Q 11.8125 33.546875 11.8125 24.953125 
Q 11.8125 15.484375 15.203125 10.234375 
Q 18.609375 4.984375 24.75 4.984375 
Q 34.28125 4.984375 36.8125 17.28125 
z
" id="FranklinGothic-Book-99"/>
      <path d="M 15.578125 66.65625 
L 15.578125 58.15625 
L 7.328125 58.15625 
L 7.328125 66.65625 
z
M 15.328125 49.3125 
L 15.328125 0 
L 7.671875 0 
L 7.671875 49.3125 
z
" id="FranklinGothic-Book-105"/>
      <path id="FranklinGothic-Book-32"/>
      <path d="M 1.03125 12.796875 
L 8.34375 14.3125 
Q 10.796875 4.984375 23.78125 4.984375 
Q 28.5625 4.984375 31.875 7.125 
Q 35.203125 9.28125 35.203125 13.1875 
Q 35.203125 19 26.765625 20.5625 
L 16.359375 22.515625 
Q 10.25 23.6875 6.640625 27.09375 
Q 3.03125 30.515625 3.03125 36.140625 
Q 3.03125 42.328125 7.953125 46.5 
Q 12.890625 50.6875 21.234375 50.6875 
Q 37.3125 50.6875 41.0625 38.140625 
L 34.03125 36.625 
Q 31 44.34375 21.578125 44.34375 
Q 16.890625 44.34375 13.890625 42.40625 
Q 10.890625 40.484375 10.890625 37.015625 
Q 10.890625 31.546875 18.5625 30.125 
L 28.171875 28.421875 
Q 43.265625 25.6875 43.265625 13.8125 
Q 43.265625 7.03125 37.640625 2.859375 
Q 32.03125 -1.3125 22.703125 -1.3125 
Q 5.171875 -1.3125 1.03125 12.796875 
z
" id="FranklinGothic-Book-115"/>
      <path d="M 46.34375 0 
L 38.671875 0 
L 38.671875 29.9375 
Q 38.671875 35.203125 38.015625 37.84375 
Q 37.359375 40.484375 34.890625 42.40625 
Q 32.421875 44.34375 29.203125 44.34375 
Q 23.296875 44.34375 19.3125 39.5 
Q 15.328125 34.671875 15.328125 26.5625 
L 15.328125 0 
L 7.671875 0 
L 7.671875 66.65625 
L 15.328125 66.65625 
L 15.328125 40.234375 
Q 20.5625 50.6875 30.28125 50.6875 
Q 34.625 50.6875 38.015625 48.96875 
Q 41.40625 47.265625 43.203125 44.484375 
Q 45.015625 41.703125 45.671875 38.984375 
Q 46.34375 36.28125 46.34375 29.9375 
z
" id="FranklinGothic-Book-104"/>
      <path d="M 46.484375 0 
L 39.59375 0 
L 39.59375 9.421875 
Q 34.328125 -1.3125 23.875 -1.3125 
Q 16.3125 -1.3125 11.984375 3.65625 
Q 7.671875 8.640625 7.671875 17.828125 
L 7.671875 49.3125 
L 15.328125 49.3125 
L 15.328125 17.828125 
Q 15.328125 10.5 18.375 7.734375 
Q 21.4375 4.984375 25.09375 4.984375 
Q 28.8125 4.984375 31.8125 7.078125 
Q 34.8125 9.1875 36.8125 13.0625 
Q 38.8125 16.9375 38.8125 21.53125 
L 38.8125 49.3125 
L 46.484375 49.3125 
z
" id="FranklinGothic-Book-117"/>
      <path d="M 73.734375 0 
L 66.265625 0 
L 66.265625 30.671875 
Q 66.265625 35.40625 65.59375 37.765625 
Q 64.9375 40.140625 62.390625 42.109375 
Q 59.859375 44.09375 56.6875 44.09375 
Q 52.296875 44.09375 48.21875 40.0625 
Q 44.140625 36.03125 44.140625 27.78125 
L 44.140625 0 
L 36.71875 0 
L 36.71875 32.46875 
Q 36.71875 38.96875 33.609375 41.65625 
Q 30.515625 44.34375 27.09375 44.34375 
Q 22.21875 44.34375 18.59375 40.140625 
Q 14.984375 35.9375 14.984375 29.5 
L 14.984375 0 
L 7.671875 0 
L 7.671875 49.3125 
L 14.265625 49.3125 
L 14.265625 39.84375 
Q 19.78125 50.6875 29.4375 50.6875 
Q 34.765625 50.6875 38.46875 47.21875 
Q 42.1875 43.75 43.265625 38.875 
Q 48.34375 50.6875 58.84375 50.6875 
Q 63.875 50.6875 67.65625 47.796875 
Q 71.4375 44.921875 72.578125 41.1875 
Q 73.734375 37.453125 73.734375 30.671875 
z
" id="FranklinGothic-Book-109"/>
      <path d="M 15.328125 0 
L 7.671875 0 
L 7.671875 66.65625 
L 15.328125 66.65625 
z
" id="FranklinGothic-Book-108"/>
      <path d="M 43.796875 49.3125 
L 26.765625 0 
L 18.796875 0 
L 1.171875 49.3125 
L 9.671875 49.3125 
L 23.390625 9.234375 
L 36.96875 49.3125 
z
" id="FranklinGothic-Book-118"/>
      <path d="M 11.375 0 
L 7.671875 0 
L 7.671875 66.65625 
L 15.328125 66.65625 
L 15.328125 41.109375 
Q 20.609375 50.6875 29.890625 50.6875 
Q 38.375 50.6875 44.109375 44 
Q 49.859375 37.3125 49.859375 24.5625 
Q 49.859375 13.578125 44.21875 6.125 
Q 38.578125 -1.3125 29.546875 -1.3125 
Q 19.484375 -1.3125 14.109375 8.15625 
z
M 15.328125 19.34375 
Q 15.875 11.765625 20 8.34375 
Q 24.125 4.9375 28.71875 4.9375 
Q 34.578125 4.9375 38.15625 10.015625 
Q 41.75 15.09375 41.75 23.921875 
Q 41.75 33.453125 38.28125 38.890625 
Q 34.8125 44.34375 28.65625 44.34375 
Q 23.828125 44.34375 19.9375 40.453125 
Q 16.0625 36.578125 15.328125 30.421875 
z
" id="FranklinGothic-Book-98"/>
     </defs>
     <use xlink:href="#FranklinGothic-Book-65"/>
     <use x="53.564453" xlink:href="#FranklinGothic-Book-110"/>
     <use x="107.763672" xlink:href="#FranklinGothic-Book-116"/>
     <use x="138.525391" xlink:href="#FranklinGothic-Book-97"/>
     <use x="191.40625" xlink:href="#FranklinGothic-Book-114"/>
     <use x="222.865234" xlink:href="#FranklinGothic-Book-99"/>
     <use x="269.447266" xlink:href="#FranklinGothic-Book-116"/>
     <use x="300.208984" xlink:href="#FranklinGothic-Book-105"/>
     <use x="323.158203" xlink:href="#FranklinGothic-Book-99"/>
     <use x="369.740234" xlink:href="#FranklinGothic-Book-32"/>
     <use x="394.740234" xlink:href="#FranklinGothic-Book-105"/>
     <use x="417.689453" xlink:href="#FranklinGothic-Book-99"/>
     <use x="464.271484" xlink:href="#FranklinGothic-Book-101"/>
     <use x="516.322266" xlink:href="#FranklinGothic-Book-32"/>
     <use x="541.322266" xlink:href="#FranklinGothic-Book-115"/>
     <use x="587.708984" xlink:href="#FranklinGothic-Book-104"/>
     <use x="641.712891" xlink:href="#FranklinGothic-Book-101"/>
     <use x="693.763672" xlink:href="#FranklinGothic-Book-101"/>
     <use x="745.314453" xlink:href="#FranklinGothic-Book-116"/>
     <use x="776.076172" xlink:href="#FranklinGothic-Book-32"/>
     <use x="801.076172" xlink:href="#FranklinGothic-Book-99"/>
     <use x="847.658203" xlink:href="#FranklinGothic-Book-117"/>
     <use x="901.808594" xlink:href="#FranklinGothic-Book-109"/>
     <use x="983.205078" xlink:href="#FranklinGothic-Book-117"/>
     <use x="1037.355469" xlink:href="#FranklinGothic-Book-108"/>
     <use x="1060.353516" xlink:href="#FranklinGothic-Book-97"/>
     <use x="1113.234375" xlink:href="#FranklinGothic-Book-116"/>
     <use x="1143.996094" xlink:href="#FranklinGothic-Book-105"/>
     <use x="1166.945312" xlink:href="#FranklinGothic-Book-118"/>
     <use x="1210.464844" xlink:href="#FranklinGothic-Book-101"/>
     <use x="1262.515625" xlink:href="#FranklinGothic-Book-32"/>
     <use x="1287.515625" xlink:href="#FranklinGothic-Book-109"/>
     <use x="1368.912109" xlink:href="#FranklinGothic-Book-97"/>
     <use x="1421.792969" xlink:href="#FranklinGothic-Book-115"/>
     <use x="1468.179688" xlink:href="#FranklinGothic-Book-115"/>
     <use x="1514.566406" xlink:href="#FranklinGothic-Book-32"/>
     <use x="1539.566406" xlink:href="#FranklinGothic-Book-98"/>
     <use x="1593.277344" xlink:href="#FranklinGothic-Book-97"/>
     <use x="1646.158203" xlink:href="#FranklinGothic-Book-108"/>
     <use x="1669.15625" xlink:href="#FranklinGothic-Book-97"/>
     <use x="1722.037109" xlink:href="#FranklinGothic-Book-110"/>
     <use x="1776.236328" xlink:href="#FranklinGothic-Book-99"/>
     <use x="1822.818359" xlink:href="#FranklinGothic-Book-101"/>
    </g>
   </g>
   <g id="legend_1">
    <g id="line2d_8"/>
    <g id="text_11">
     <!-- IMBIE 2018 -->
     <g style="fill:#e69f00;" transform="translate(874.184875 129.7184)scale(0.2 -0.2)">
      <defs>
       <path d="M 16.703125 0 
L 8.34375 0 
L 8.34375 66.65625 
L 16.703125 66.65625 
z
" id="FranklinGothic-Book-73"/>
       <path d="M 72.703125 0 
L 64.59375 0 
L 64.59375 58.203125 
L 42.921875 0 
L 37.25 0 
L 15.4375 58.203125 
L 15.4375 0 
L 8.34375 0 
L 8.34375 66.65625 
L 20.75 66.65625 
L 40.828125 13.328125 
L 60.5 66.65625 
L 72.703125 66.65625 
z
" id="FranklinGothic-Book-77"/>
       <path d="M 8.34375 0 
L 8.34375 66.65625 
L 34.71875 66.65625 
Q 44.671875 66.65625 49.484375 61.765625 
Q 54.296875 56.890625 54.296875 50.4375 
Q 54.296875 39.109375 42.484375 35.40625 
Q 49.515625 33.59375 52.921875 28.953125 
Q 56.34375 24.3125 56.34375 18.453125 
Q 56.34375 10.59375 51.046875 5.296875 
Q 45.75 0 34.71875 0 
z
M 16.40625 38.09375 
L 30.90625 38.09375 
Q 39.9375 38.09375 42.96875 41.53125 
Q 46 44.96875 46 49.609375 
Q 46 54.203125 42.75 57.03125 
Q 39.5 59.859375 33.0625 59.859375 
L 16.40625 59.859375 
z
M 16.40625 7.328125 
L 34.28125 7.328125 
Q 40.828125 7.328125 44.390625 10.5 
Q 47.953125 13.671875 47.953125 18.75 
Q 47.953125 22.3125 46.34375 25.359375 
Q 44.734375 28.421875 41.796875 30.078125 
Q 38.875 31.734375 33.0625 31.734375 
L 16.40625 31.734375 
z
" id="FranklinGothic-Book-66"/>
       <path d="M 51.46875 7.328125 
L 51.46875 0 
L 8.34375 0 
L 8.34375 66.65625 
L 50.53125 66.65625 
L 50.53125 59.328125 
L 16.703125 59.328125 
L 16.703125 38.140625 
L 43.5625 38.140625 
L 43.5625 31.34375 
L 16.703125 31.34375 
L 16.703125 7.328125 
z
" id="FranklinGothic-Book-69"/>
       <path d="M 19.484375 34.578125 
Q 6.84375 40.09375 6.84375 50.59375 
Q 6.84375 58.203125 13.140625 63.109375 
Q 19.4375 68.015625 29.828125 68.015625 
Q 40.09375 68.015625 46.140625 63.296875 
Q 52.203125 58.59375 52.203125 50.984375 
Q 52.203125 40.375 39.265625 35.796875 
Q 49.703125 30.953125 52.359375 26.453125 
Q 55.03125 21.96875 55.03125 17.484375 
Q 55.03125 9.46875 48.21875 4.078125 
Q 41.40625 -1.3125 29.734375 -1.3125 
Q 17.28125 -1.3125 10.4375 4.171875 
Q 3.609375 9.671875 3.609375 17.234375 
Q 3.609375 28.515625 19.484375 34.578125 
z
M 29.59375 38.71875 
Q 37.984375 40.96875 41.453125 43.890625 
Q 44.921875 46.828125 44.921875 51.21875 
Q 44.921875 56.34375 40.796875 59 
Q 36.671875 61.671875 29.9375 61.671875 
Q 23.484375 61.671875 19.375 58.859375 
Q 15.28125 56.0625 15.28125 51.3125 
Q 15.28125 46.625 19.84375 43.203125 
Q 24.421875 39.796875 29.59375 38.71875 
z
M 28.65625 31.0625 
Q 11.765625 27.046875 11.765625 16.9375 
Q 11.765625 11.671875 16.375 8.328125 
Q 21 4.984375 29.984375 4.984375 
Q 37.59375 4.984375 42.234375 8.25 
Q 46.875 11.53125 46.875 16.609375 
Q 46.875 26.3125 28.65625 31.0625 
z
" id="FranklinGothic-Book-56"/>
      </defs>
      <use xlink:href="#FranklinGothic-Book-73"/>
      <use x="25" xlink:href="#FranklinGothic-Book-77"/>
      <use x="106.005859" xlink:href="#FranklinGothic-Book-66"/>
      <use x="166.455078" xlink:href="#FranklinGothic-Book-73"/>
      <use x="191.455078" xlink:href="#FranklinGothic-Book-69"/>
      <use x="246.240234" xlink:href="#FranklinGothic-Book-32"/>
      <use x="271.240234" xlink:href="#FranklinGothic-Book-50"/>
      <use x="329.882812" xlink:href="#FranklinGothic-Book-48"/>
      <use x="384.775391" xlink:href="#FranklinGothic-Book-49"/>
      <use x="442.792969" xlink:href="#FranklinGothic-Book-56"/>
     </g>
    </g>
    <g id="line2d_9"/>
    <g id="text_12">
     <!-- IMBIE 2021 -->
     <g style="fill:#d55e00;" transform="translate(874.184875 157.04965)scale(0.2 -0.2)">
      <use xlink:href="#FranklinGothic-Book-73"/>
      <use x="25" xlink:href="#FranklinGothic-Book-77"/>
      <use x="106.005859" xlink:href="#FranklinGothic-Book-66"/>
      <use x="166.455078" xlink:href="#FranklinGothic-Book-73"/>
      <use x="191.455078" xlink:href="#FranklinGothic-Book-69"/>
      <use x="246.240234" xlink:href="#FranklinGothic-Book-32"/>
      <use x="271.240234" xlink:href="#FranklinGothic-Book-50"/>
      <use x="329.882812" xlink:href="#FranklinGothic-Book-48"/>
      <use x="388.525391" xlink:href="#FranklinGothic-Book-50"/>
      <use x="443.667969" xlink:href="#FranklinGothic-Book-49"/>
     </g>
    </g>
    <g id="line2d_10"/>
    <g id="text_13">
     <!-- NASA GRACE -->
     <g style="fill:#56b4e9;" transform="translate(874.184875 184.3809)scale(0.2 -0.2)">
      <defs>
       <path d="M 57.421875 0 
L 49.3125 0 
L 14.84375 58.109375 
L 14.9375 53.71875 
Q 15.09375 51.21875 15.09375 49.515625 
L 15.09375 0 
L 8.34375 0 
L 8.34375 66.65625 
L 18.796875 66.65625 
L 51.03125 12.3125 
L 50.921875 16.9375 
Q 50.828125 19.671875 50.828125 21.78125 
L 50.828125 66.65625 
L 57.421875 66.65625 
z
" id="FranklinGothic-Book-78"/>
       <path d="M 1.03125 17.71875 
L 8.546875 19.4375 
Q 13.09375 5.8125 28.21875 5.8125 
Q 36.140625 5.8125 40.140625 9.15625 
Q 44.140625 12.5 44.140625 18.109375 
Q 44.140625 22.359375 41.078125 24.953125 
Q 38.03125 27.546875 34.03125 28.515625 
L 20.703125 31.84375 
Q 15.53125 33.15625 12.234375 35.03125 
Q 8.9375 36.921875 6.640625 40.828125 
Q 4.34375 44.734375 4.34375 49.75 
Q 4.34375 58.109375 10.640625 63.0625 
Q 16.9375 68.015625 26.8125 68.015625 
Q 44.96875 68.015625 50.6875 51.5625 
L 43.109375 49.3125 
Q 41.796875 55.171875 36.90625 58.171875 
Q 32.03125 61.1875 26.515625 61.1875 
Q 21.046875 61.1875 16.765625 58.296875 
Q 12.5 55.421875 12.5 50.140625 
Q 12.5 42.78125 23.34375 40.1875 
L 35.796875 37.203125 
Q 52.875 33.109375 52.875 18.796875 
Q 52.875 10.15625 46.453125 4.421875 
Q 40.046875 -1.3125 28.375 -1.3125 
Q 7.671875 -1.3125 1.03125 17.71875 
z
" id="FranklinGothic-Book-83"/>
       <path d="M 56.296875 0 
L 47.5625 0 
L 35.25 28.859375 
L 16.15625 28.859375 
L 16.15625 0 
L 8.34375 0 
L 8.34375 66.65625 
L 34.625 66.65625 
Q 45.3125 66.65625 50.453125 60.8125 
Q 55.609375 54.984375 55.609375 48.046875 
Q 55.609375 42.71875 52.734375 37.828125 
Q 49.859375 32.953125 43.21875 30.859375 
z
M 16.15625 35.640625 
L 33.59375 35.640625 
Q 40.484375 35.640625 43.875 39.28125 
Q 47.265625 42.921875 47.265625 48.1875 
Q 47.265625 53.46875 43.671875 56.390625 
Q 40.09375 59.328125 34.625 59.328125 
L 16.15625 59.328125 
z
" id="FranklinGothic-Book-82"/>
       <path d="M 48.296875 22.40625 
L 55.90625 20.703125 
Q 50.4375 -1.3125 31.203125 -1.3125 
Q 18.5625 -1.3125 11.359375 8.890625 
Q 4.15625 19.09375 4.15625 33.984375 
Q 4.15625 49.359375 11.671875 58.6875 
Q 19.1875 68.015625 31.84375 68.015625 
Q 50.59375 68.015625 55.90625 46.578125 
L 48.046875 45.015625 
Q 43.75 60.9375 31.78125 60.9375 
Q 22.953125 60.9375 18.09375 53.53125 
Q 13.234375 46.140625 13.234375 32.765625 
Q 13.234375 20.515625 18.203125 13.109375 
Q 23.1875 5.71875 31.390625 5.71875 
Q 44.140625 5.71875 48.296875 22.40625 
z
" id="FranklinGothic-Book-67"/>
      </defs>
      <use xlink:href="#FranklinGothic-Book-78"/>
      <use x="65.722656" xlink:href="#FranklinGothic-Book-65"/>
      <use x="119.287109" xlink:href="#FranklinGothic-Book-83"/>
      <use x="176.220703" xlink:href="#FranklinGothic-Book-65"/>
      <use x="229.785156" xlink:href="#FranklinGothic-Book-32"/>
      <use x="254.785156" xlink:href="#FranklinGothic-Book-71"/>
      <use x="319.482422" xlink:href="#FranklinGothic-Book-82"/>
      <use x="380.761719" xlink:href="#FranklinGothic-Book-65"/>
      <use x="431.826172" xlink:href="#FranklinGothic-Book-67"/>
      <use x="489.736328" xlink:href="#FranklinGothic-Book-69"/>
     </g>
    </g>
   </g>
   <g id="line2d_11">
    <path clip-path="url(#p69a4f5964f)" d="M 458.843556 174.980733 
L 461.073327 172.114348 
L 467.762637 181.646658 
L 469.992408 169.225656 
L 472.222178 166.449737 
L 474.451948 182.60088 
L 476.681718 180.444585 
L 478.911489 181.096431 
L 481.141259 199.553818 
L 483.371029 195.606807 
L 485.600799 179.661379 
L 487.830569 174.409438 
L 492.29011 189.944675 
L 494.51988 189.32381 
L 496.74965 190.344952 
L 498.979421 180.091399 
L 501.209191 187.409169 
L 503.438961 207.898927 
L 505.668731 215.402584 
L 507.898501 235.003799 
L 510.128272 216.115153 
L 512.358042 221.975566 
L 514.587812 193.500082 
L 516.817582 197.543755 
L 519.047353 212.987286 
L 521.277123 194.948766 
L 523.506893 194.365079 
L 525.736663 184.858793 
L 527.966434 202.453663 
L 530.196204 212.196645 
L 532.425974 222.86039 
L 534.655744 230.593309 
L 536.885514 224.517267 
L 539.115285 205.44769 
L 541.345055 202.741169 
L 543.574825 199.801668 
L 545.804595 194.083769 
L 548.034366 200.255233 
L 550.264136 188.272927 
L 552.493906 187.376949 
L 554.723676 181.615676 
L 556.953447 194.617886 
L 559.183217 202.132697 
L 561.412987 213.665156 
L 563.642757 196.98981 
L 565.872527 193.830962 
L 568.102298 184.189598 
L 570.332068 180.520179 
L 572.561838 186.653227 
L 574.791608 175.43058 
L 577.021379 176.994514 
L 579.251149 186.241796 
L 581.480919 185.278899 
L 583.710689 203.338487 
L 585.94046 228.632816 
L 588.17023 227.482792 
L 590.4 218.955514 
L 592.62977 215.893327 
L 594.85954 196.42843 
L 597.089311 197.94775 
L 599.319081 207.504845 
L 601.548851 202.977865 
L 603.778621 193.885489 
L 606.008392 204.898703 
L 608.238162 228.720803 
L 610.467932 238.902479 
L 612.697702 264.603282 
L 614.927473 249.574899 
L 617.157243 265.936715 
L 619.387013 243.974729 
L 621.616783 232.950362 
L 623.846553 243.285706 
L 626.076324 255.005292 
L 628.306094 249.004844 
L 630.535864 229.100013 
L 632.765634 240.297875 
L 634.995405 238.795904 
L 637.225175 251.723758 
L 639.454945 261.795142 
L 641.684715 258.662318 
L 643.914486 250.866198 
L 646.144256 246.064104 
L 648.374026 242.79992 
L 650.603796 241.276882 
L 652.833566 228.704692 
L 655.063337 232.419963 
L 657.293107 234.043381 
L 659.522877 240.957156 
L 661.752647 239.118109 
L 663.982418 252.671785 
L 666.212188 273.800995 
L 668.441958 274.525956 
L 670.671728 259.854477 
L 672.901499 268.432564 
L 675.131269 271.168828 
L 677.361039 273.187566 
L 679.590809 297.963888 
L 681.820579 288.855402 
L 684.05035 279.180578 
L 686.28012 283.133785 
L 688.50989 285.625917 
L 690.73966 287.214635 
L 695.199201 298.594666 
L 699.658741 301.831587 
L 701.888511 293.6166 
L 706.348052 287.187372 
L 708.577822 289.118123 
L 710.807592 278.065253 
L 713.037363 283.71995 
L 713.037363 283.167245 
L 719.726673 316.301068 
L 719.726673 307.569314 
L 721.956444 315.416244 
L 724.186214 312.557295 
L 726.415984 305.044962 
L 730.875524 309.635143 
L 733.105295 305.489853 
L 735.335065 295.658884 
L 737.564835 291.530942 
L 742.024376 306.659705 
L 744.254146 312.445762 
L 746.483916 333.425023 
L 748.713686 346.774222 
L 753.173227 314.754485 
L 755.402997 327.277104 
L 757.632767 328.377558 
L 759.862537 323.745242 
L 766.551848 335.09801 
L 768.781618 340.861761 
L 771.011389 347.277358 
L 773.241159 360.822359 
L 777.700699 373.996824 
L 779.93047 364.122481 
L 782.16024 352.376871 
L 784.39001 357.968366 
L 788.84955 363.982446 
L 791.079321 342.585558 
L 793.309091 353.513263 
L 795.538861 362.823747 
L 799.998402 400.515532 
L 802.228172 410.051559 
L 804.457942 405.627437 
L 806.687712 403.032448 
L 806.687712 394.062758 
L 813.377023 390.098397 
L 815.606793 408.770175 
L 817.836563 402.901088 
L 824.525874 408.378572 
L 826.755644 411.096247 
L 828.985415 420.400535 
L 831.215185 412.442072 
L 835.674725 395.534986 
L 837.904496 393.387366 
L 840.134266 378.686145 
L 842.364036 372.023938 
L 849.053347 380.80898 
L 851.283117 370.017593 
L 853.512887 372.445283 
L 860.202198 412.103757 
L 860.202198 402.440087 
L 862.431968 398.191938 
L 864.661738 397.837513 
L 891.418981 419.063384 
L 893.648751 420.975547 
L 900.338062 453.120449 
L 902.567832 448.700045 
L 904.797602 455.157776 
L 907.027373 466.399011 
L 909.257143 471.750092 
L 911.486913 459.844618 
L 913.716683 437.534403 
L 915.946454 444.149519 
L 918.176224 455.551857 
L 920.405994 443.6848 
L 922.635764 449.265142 
L 924.865534 433.732385 
L 927.095305 456.456509 
L 929.325075 463.984952 
L 931.554845 469.55662 
L 933.784615 507.772607 
L 936.014386 521.373374 
L 938.244156 498.821505 
L 940.473926 487.139097 
L 942.703696 477.428335 
L 944.933467 473.25578 
L 947.163237 464.734698 
L 949.393007 451.329733 
L 951.622777 474.542122 
L 953.852547 487.047392 
L 956.082318 492.694654 
L 958.312088 511.678722 
L 960.541858 550.71881 
L 962.771628 511.617999 
L 965.001399 505.781132 
L 967.231169 479.554887 
L 969.460939 477.40231 
L 971.690709 497.847455 
L 973.92048 503.57031 
L 976.15025 497.727247 
L 978.38002 506.056246 
L 980.60979 487.693041 
L 982.83956 529.091422 
L 985.069331 514.942906 
L 987.299101 509.777713 
L 989.528871 504.33121 
L 991.758641 499.925677 
L 993.988412 458.783821 
L 996.218182 440.846918 
L 996.218182 440.846918 
" style="fill:none;stroke:#56b4e9;stroke-linecap:round;"/>
   </g>
   <g id="line2d_12">
    <path clip-path="url(#p69a4f5964f)" d="M 184.581818 119.415731 
L 189.041359 118.78991 
L 193.500899 121.488488 
L 209.109291 125.497833 
L 238.096304 136.356438 
L 264.853546 147.507431 
L 273.772627 151.545737 
L 296.07033 158.79551 
L 302.75964 160.900971 
L 316.138262 163.211713 
L 345.125275 164.281781 
L 371.882517 165.972774 
L 403.099301 169.091334 
L 425.397003 171.66217 
L 454.384016 175.782862 
L 463.303097 176.973682 
L 476.681718 179.25327 
L 483.371029 181.319991 
L 490.06034 183.347763 
L 494.51988 184.736132 
L 498.979421 186.322967 
L 505.668731 188.72534 
L 514.587812 191.669475 
L 530.196204 196.348734 
L 539.115285 198.735281 
L 550.264136 201.483566 
L 556.953447 203.414949 
L 570.332068 208.19678 
L 574.791608 209.935349 
L 581.480919 212.870524 
L 585.94046 215.038716 
L 601.548851 223.317264 
L 614.927473 230.468194 
L 621.616783 233.870989 
L 632.765634 239.420783 
L 639.454945 242.948667 
L 659.522877 253.07521 
L 663.982418 255.505639 
L 679.590809 265.315244 
L 690.73966 273.258364 
L 699.658741 280.567237 
L 713.037363 291.065939 
L 719.726673 296.07713 
L 726.415984 300.893648 
L 744.254146 315.271586 
L 773.241159 340.528626 
L 797.768631 363.365634 
L 802.228172 366.219874 
L 811.147253 371.572864 
L 824.525874 379.242445 
L 833.444955 382.280255 
L 840.134266 384.234602 
L 849.053347 386.611285 
L 851.283117 387.163519 
L 860.202198 390.809479 
L 866.891508 392.740775 
L 873.580819 395.029087 
L 878.04036 396.632156 
L 884.72967 401.40022 
L 893.648751 407.439828 
L 900.338062 413.922381 
L 907.027373 420.673157 
L 911.486913 424.173951 
L 933.784615 440.82942 
L 958.312088 450.674331 
L 958.312088 450.674331 
" style="fill:none;stroke:#d55e00;stroke-linecap:round;"/>
   </g>
   <g id="line2d_13">
    <path clip-path="url(#p69a4f5964f)" d="M 186.811588 117.056813 
L 189.041359 116.043727 
L 191.271129 117.16589 
L 197.96044 117.569968 
L 204.64975 116.860271 
L 206.87952 116.975615 
L 209.109291 116.816055 
L 211.339061 116.448956 
L 213.568831 115.934007 
L 218.028372 115.208526 
L 220.258142 115.1665 
L 222.487912 115.718057 
L 224.717682 116.484119 
L 229.177223 118.697033 
L 231.406993 120.10935 
L 233.636763 121.366054 
L 238.096304 123.686251 
L 240.326074 125.169555 
L 249.245155 130.098876 
L 255.934466 133.91128 
L 262.623776 138.352618 
L 264.853546 139.677819 
L 267.083317 140.76374 
L 271.542857 141.812284 
L 273.772627 141.974483 
L 278.232168 142.137341 
L 282.691708 142.666906 
L 284.921479 142.909513 
L 291.610789 144.283456 
L 296.07033 145.103126 
L 298.3001 145.244272 
L 302.75964 145.094603 
L 309.448951 144.968534 
L 311.678721 145.564806 
L 318.368032 147.850195 
L 320.597802 148.728083 
L 322.827572 149.350814 
L 325.057343 149.593437 
L 327.287113 149.635488 
L 329.516883 149.547294 
L 333.976424 149.871259 
L 336.206194 150.211127 
L 338.435964 150.769401 
L 340.665734 150.922749 
L 342.895504 151.283592 
L 345.125275 151.853954 
L 347.355045 151.999613 
L 351.814585 151.98102 
L 354.044356 151.621993 
L 356.274126 151.068662 
L 360.733666 150.317745 
L 362.963437 150.32873 
L 365.193207 150.802559 
L 367.422977 151.435897 
L 369.652747 152.876193 
L 371.882517 154.633448 
L 374.112288 156.158722 
L 376.342058 157.901391 
L 378.571828 159.021538 
L 380.801598 159.713072 
L 385.261139 160.657578 
L 387.490909 161.158107 
L 389.720679 161.487994 
L 398.63976 164.389454 
L 403.099301 165.183953 
L 409.788611 165.305008 
L 416.477922 165.919118 
L 418.707692 166.545443 
L 420.937463 166.826397 
L 427.626773 168.630386 
L 432.086314 169.874613 
L 434.316084 170.36422 
L 436.545854 170.445425 
L 438.775624 170.349344 
L 441.005395 170.364666 
L 447.694705 170.140433 
L 452.154246 170.492462 
L 454.384016 170.523913 
L 456.613786 170.212573 
L 458.843556 169.771654 
L 463.303097 169.191189 
L 467.762637 169.997846 
L 469.992408 170.665972 
L 476.681718 173.325084 
L 478.911489 174.085545 
L 481.141259 174.70487 
L 485.600799 175.638084 
L 490.06034 176.439341 
L 492.29011 177.02371 
L 494.51988 177.909081 
L 496.74965 179.252605 
L 498.979421 180.978638 
L 501.209191 182.908499 
L 503.438961 184.656951 
L 507.898501 187.354566 
L 512.358042 190.376927 
L 514.587812 191.499761 
L 516.817582 191.964809 
L 519.047353 191.93407 
L 521.277123 191.717192 
L 523.506893 191.795788 
L 525.736663 192.374265 
L 527.966434 193.382049 
L 532.425974 195.762618 
L 534.655744 196.859274 
L 539.115285 199.301772 
L 541.345055 199.94232 
L 543.574825 199.801668 
L 548.034366 198.687857 
L 550.264136 198.12568 
L 552.493906 197.813863 
L 554.723676 197.707039 
L 559.183217 197.855961 
L 561.412987 198.00198 
L 565.872527 198.85819 
L 572.561838 200.222836 
L 574.791608 201.033445 
L 577.021379 202.26034 
L 579.251149 203.947091 
L 585.94046 209.672319 
L 590.4 214.024934 
L 592.62977 215.806956 
L 597.089311 219.00779 
L 599.319081 220.636755 
L 601.548851 222.490685 
L 603.778621 224.718762 
L 608.238162 230.109584 
L 612.697702 235.413696 
L 617.157243 240.445296 
L 619.387013 242.623095 
L 621.616783 244.331766 
L 623.846553 245.592284 
L 628.306094 247.353349 
L 632.765634 248.753311 
L 634.995405 249.234212 
L 637.225175 249.527824 
L 639.454945 249.526117 
L 641.684715 249.666853 
L 643.914486 250.193021 
L 648.374026 251.573237 
L 652.833566 252.655974 
L 655.063337 253.439935 
L 657.293107 254.487446 
L 661.752647 256.951536 
L 663.982418 258.632774 
L 666.212188 260.573924 
L 668.441958 262.956735 
L 672.901499 268.429493 
L 675.131269 271.051187 
L 690.73966 287.125463 
L 697.428971 292.822143 
L 701.888511 296.871069 
L 704.118282 298.624956 
L 706.348052 299.853509 
L 713.037363 302.65148 
L 715.267133 304.030228 
L 717.496903 305.565202 
L 719.726673 307.339285 
L 721.956444 309.624792 
L 726.415984 315.048891 
L 728.645754 317.407881 
L 730.875524 319.325364 
L 733.105295 320.896179 
L 737.564835 324.595537 
L 739.794605 326.586911 
L 746.483916 333.288775 
L 748.713686 335.833322 
L 750.943457 338.626341 
L 753.173227 341.18244 
L 755.402997 343.564373 
L 759.862537 347.775066 
L 762.092308 350.209986 
L 764.322078 353.122263 
L 766.551848 356.561256 
L 768.781618 360.227342 
L 773.241159 366.717748 
L 777.700699 373.058864 
L 779.93047 375.7643 
L 782.16024 378.176725 
L 788.84955 384.585477 
L 791.079321 387.063199 
L 795.538861 392.911319 
L 797.768631 395.846777 
L 802.228172 402.62124 
L 806.687712 409.974872 
L 808.917483 413.347035 
L 811.147253 416.02646 
L 813.377023 418.430437 
L 817.836563 422.704517 
L 820.066334 424.747798 
L 822.296104 426.960899 
L 824.525874 429.487163 
L 826.755644 430.727987 
L 840.134266 428.432657 
L 864.661738 447.868122 
L 864.661738 447.868122 
" style="fill:none;stroke:#e69f00;stroke-linecap:round;"/>
   </g>
  </g>
 </g>
 <defs>
  <clipPath id="p69a4f5964f">
   <rect height="498.96" width="892.8" x="144" y="77.76"/>
  </clipPath>
 </defs>
</svg>
