<?xml version="1.0" encoding="utf-8" standalone="no"?>
<!DOCTYPE svg PUBLIC "-//W3C//DTD SVG 1.1//EN"
  "http://www.w3.org/Graphics/SVG/1.1/DTD/svg11.dtd">
<!-- Created with matplotlib (https://matplotlib.org/) -->
<svg height="648pt" version="1.1" viewBox="0 0 1152 648" width="1152pt" xmlns="http://www.w3.org/2000/svg" xmlns:xlink="http://www.w3.org/1999/xlink">
 <metadata>
  <rdf:RDF xmlns:cc="http://creativecommons.org/ns#" xmlns:dc="http://purl.org/dc/elements/1.1/" xmlns:rdf="http://www.w3.org/1999/02/22-rdf-syntax-ns#">
   <cc:Work>
    <dc:type rdf:resource="http://purl.org/dc/dcmitype/StillImage"/>
    <dc:date>2022-09-02T16:11:46.689666</dc:date>
    <dc:format>image/svg+xml</dc:format>
    <dc:creator>
     <cc:Agent>
      <dc:title>Matplotlib v3.3.1, https://matplotlib.org/</dc:title>
     </cc:Agent>
    </dc:creator>
   </cc:Work>
  </rdf:RDF>
 </metadata>
 <defs>
  <style type="text/css">*{stroke-linecap:butt;stroke-linejoin:round;}</style>
 </defs>
 <g id="figure_1">
  <g id="patch_1">
   <path d="M 0 648 
L 1152 648 
L 1152 0 
L 0 0 
z
" style="fill:#ffffff;"/>
  </g>
  <g id="axes_1">
   <g id="patch_2">
    <path d="M 144 576.72 
L 1036.8 576.72 
L 1036.8 77.76 
L 144 77.76 
z
" style="fill:none;"/>
   </g>
   <g id="line2d_1">
    <path clip-path="url(#pf3a0af6e51)" d="M 184.581818 361.695855 
L 203.457082 422.611251 
L 222.332347 413.09322 
L 241.207611 363.599461 
L 260.082875 375.021098 
L 278.95814 449.261737 
L 297.833404 418.804039 
L 316.708668 352.177824 
L 335.583932 340.756187 
L 354.459197 409.286008 
L 373.334461 392.153553 
L 392.209725 380.731916 
L 411.084989 357.888642 
L 429.960254 418.804039 
L 448.835518 487.333859 
L 467.710782 350.274218 
L 486.586047 281.744397 
L 505.461311 392.153553 
L 524.336575 485.430253 
L 543.211839 390.249947 
L 562.087104 394.057159 
L 580.962368 405.478796 
L 599.837632 264.611942 
L 618.712896 395.960765 
L 637.588161 237.961456 
L 656.463425 277.937185 
L 675.338689 394.057159 
L 694.213953 454.972555 
L 713.089218 407.382402 
L 731.964482 218.925395 
L 750.839746 390.249947 
L 769.715011 367.406673 
L 788.590275 479.719435 
L 807.465539 283.648003 
L 826.340803 228.443426 
L 845.216068 228.443426 
L 864.091332 236.05785 
L 882.966596 428.322069 
L 901.84186 523.502376 
L 920.717125 515.887951 
L 939.592389 454.972555 
L 958.467653 403.57519 
L 977.342918 409.286008 
L 996.218182 548.249256 
" style="fill:none;stroke:#e69f00;stroke-linecap:round;stroke-width:3;"/>
   </g>
   <g id="line2d_2">
    <path clip-path="url(#pf3a0af6e51)" d="M 184.581818 362.574534 
L 203.457082 425.180332 
L 222.332347 410.900812 
L 241.207611 363.352157 
L 260.082875 367.469467 
L 278.95814 445.570238 
L 297.833404 443.021119 
L 316.708668 350.965963 
L 335.583932 345.830986 
L 354.459197 420.127971 
L 373.334461 398.101535 
L 392.209725 402.33782 
L 411.084989 353.851068 
L 429.960254 428.259415 
L 448.835518 471.509347 
L 467.710782 353.532405 
L 486.586047 282.72511 
L 505.461311 373.957337 
L 524.336575 502.022249 
L 543.211839 395.517961 
L 562.087104 376.248327 
L 580.962368 400.250897 
L 599.837632 266.348957 
L 618.712896 378.326113 
L 637.588161 246.386601 
L 656.463425 287.757673 
L 675.338689 414.379842 
L 694.213953 470.506527 
L 713.089218 403.948271 
L 731.964482 190.485113 
L 750.839746 359.944321 
L 769.715011 364.12978 
L 788.590275 488.314572 
L 807.465539 267.006653 
L 826.340803 228.578556 
L 845.216068 227.138097 
L 864.091332 228.119597 
L 882.966596 430.819385 
L 901.84186 554.04 
L 920.717125 532.020988 
L 939.592389 465.301306 
L 958.467653 395.409836 
L 977.342918 377.37431 
L 996.218182 536.032267 
" style="fill:none;stroke:#d55e00;stroke-linecap:round;stroke-width:3;"/>
   </g>
   <g id="line2d_3">
    <path clip-path="url(#pf3a0af6e51)" d="M 184.581818 430.162222 
L 203.457082 312.138642 
L 222.332347 354.017977 
L 241.207611 401.60813 
L 260.082875 355.921583 
L 278.95814 435.87304 
L 297.833404 334.981915 
L 316.708668 529.149741 
L 335.583932 420.644191 
L 354.459197 409.222554 
L 373.334461 445.391071 
L 392.209725 432.065828 
L 411.084989 409.222554 
L 429.960254 439.680253 
L 448.835518 365.439613 
L 467.710782 352.114371 
L 486.586047 397.800918 
L 505.461311 348.307158 
L 524.336575 354.017977 
L 543.211839 296.909793 
L 562.087104 334.981915 
L 580.962368 298.813399 
L 599.837632 435.87304 
L 618.712896 489.174012 
L 637.588161 411.126161 
L 656.463425 293.10258 
L 675.338689 315.945854 
L 694.213953 260.741276 
L 713.089218 304.524217 
L 731.964482 439.680253 
L 750.839746 285.488156 
L 769.715011 315.945854 
L 788.590275 327.367491 
L 807.465539 237.898003 
L 826.340803 203.633092 
L 845.216068 133.199666 
L 864.091332 384.475675 
L 882.966596 439.680253 
L 901.84186 485.3668 
L 920.717125 475.848769 
L 939.592389 405.415342 
L 958.467653 308.33143 
L 977.342918 371.150432 
" style="fill:none;stroke:#56b4e9;stroke-linecap:round;stroke-width:3;"/>
   </g>
   <g id="line2d_4">
    <path clip-path="url(#pf3a0af6e51)" d="M 184.581818 428.621697 
L 203.457082 299.594893 
L 222.332347 354.638996 
L 241.207611 413.761767 
L 260.082875 363.528266 
L 278.95814 459.337143 
L 297.833404 347.117658 
L 316.708668 531.67627 
L 335.583932 395.078634 
L 354.459197 383.060217 
L 373.334461 472.38484 
L 392.209725 433.662256 
L 411.084989 412.659198 
L 429.960254 452.388981 
L 448.835518 372.69946 
L 467.710782 362.60635 
L 486.586047 400.737865 
L 505.461311 354.194695 
L 524.336575 362.729132 
L 543.211839 308.496345 
L 562.087104 328.825146 
L 580.962368 290.56666 
L 599.837632 444.873734 
L 618.712896 490.481091 
L 637.588161 419.175051 
L 656.463425 306.890082 
L 675.338689 301.829726 
L 694.213953 246.418988 
L 713.089218 291.800006 
L 731.964482 422.379582 
L 750.839746 263.023954 
L 769.715011 280.743291 
L 788.590275 308.865074 
L 807.465539 225.681483 
L 826.340803 182.814748 
L 845.216068 100.44 
L 864.091332 387.983704 
L 882.966596 448.00688 
L 901.84186 492.467885 
L 920.717125 480.197621 
L 939.592389 399.909035 
L 958.467653 309.420356 
L 977.342918 375.685647 
" style="fill:none;stroke:#009e73;stroke-linecap:round;stroke-width:3;"/>
   </g>
   <g id="patch_3">
    <path d="M 144 576.72 
L 1036.8 576.72 
" style="fill:none;stroke:#d3d3d3;stroke-linecap:square;stroke-linejoin:miter;stroke-width:1.25;"/>
   </g>
   <g id="matplotlib.axis_1">
    <g id="xtick_1">
     <g id="line2d_5">
      <defs>
       <path d="M 0 0 
L 0 6 
" id="ma6603943fc" style="stroke:#696969;stroke-width:1.25;"/>
      </defs>
      <g>
       <use style="fill:#696969;stroke:#696969;stroke-width:1.25;" x="203.457082" xlink:href="#ma6603943fc" y="576.72"/>
      </g>
     </g>
     <g id="text_1">
      <!-- 1980 -->
      <g style="fill:#696969;" transform="translate(185.96802 596.218438)scale(0.15 -0.15)">
       <defs>
        <path d="M 55.859375 6.203125 
L 55.859375 0 
L 9.1875 0 
L 9.1875 6.203125 
L 29.203125 6.203125 
L 29.203125 57.671875 
Q 20.359375 48.4375 10.84375 43.265625 
L 10.84375 51.65625 
Q 23.96875 58.546875 31.203125 68.015625 
L 37.15625 68.015625 
L 37.15625 6.203125 
z
" id="FranklinGothic-Book-49"/>
        <path d="M 5.71875 12.15625 
L 12.40625 14.59375 
Q 16.546875 5.375 26.375 5.375 
Q 35.890625 5.375 40.703125 13.375 
Q 45.515625 21.390625 45.65625 35.109375 
Q 39.109375 23.09375 25.984375 23.09375 
Q 16.703125 23.09375 10.40625 29.421875 
Q 4.109375 35.75 4.109375 45.0625 
Q 4.109375 54.546875 10.71875 61.28125 
Q 17.328125 68.015625 27.59375 68.015625 
Q 40.140625 68.015625 46.828125 59.203125 
Q 53.515625 50.390625 53.515625 34.96875 
Q 53.515625 18.75 46.4375 8.71875 
Q 39.359375 -1.3125 26.265625 -1.3125 
Q 10.984375 -1.3125 5.71875 12.15625 
z
M 27.828125 29.78125 
Q 34.71875 29.78125 39.375 34.59375 
Q 44.046875 39.40625 44.046875 45.84375 
Q 44.046875 52.09375 39.625 56.578125 
Q 35.203125 61.078125 27.984375 61.078125 
Q 20.65625 61.078125 16.40625 56.46875 
Q 12.15625 51.859375 12.15625 45.21875 
Q 12.15625 38.09375 16.859375 33.9375 
Q 21.578125 29.78125 27.828125 29.78125 
z
" id="FranklinGothic-Book-57"/>
        <path d="M 19.484375 34.578125 
Q 6.84375 40.09375 6.84375 50.59375 
Q 6.84375 58.203125 13.140625 63.109375 
Q 19.4375 68.015625 29.828125 68.015625 
Q 40.09375 68.015625 46.140625 63.296875 
Q 52.203125 58.59375 52.203125 50.984375 
Q 52.203125 40.375 39.265625 35.796875 
Q 49.703125 30.953125 52.359375 26.453125 
Q 55.03125 21.96875 55.03125 17.484375 
Q 55.03125 9.46875 48.21875 4.078125 
Q 41.40625 -1.3125 29.734375 -1.3125 
Q 17.28125 -1.3125 10.4375 4.171875 
Q 3.609375 9.671875 3.609375 17.234375 
Q 3.609375 28.515625 19.484375 34.578125 
z
M 29.59375 38.71875 
Q 37.984375 40.96875 41.453125 43.890625 
Q 44.921875 46.828125 44.921875 51.21875 
Q 44.921875 56.34375 40.796875 59 
Q 36.671875 61.671875 29.9375 61.671875 
Q 23.484375 61.671875 19.375 58.859375 
Q 15.28125 56.0625 15.28125 51.3125 
Q 15.28125 46.625 19.84375 43.203125 
Q 24.421875 39.796875 29.59375 38.71875 
z
M 28.65625 31.0625 
Q 11.765625 27.046875 11.765625 16.9375 
Q 11.765625 11.671875 16.375 8.328125 
Q 21 4.984375 29.984375 4.984375 
Q 37.59375 4.984375 42.234375 8.25 
Q 46.875 11.53125 46.875 16.609375 
Q 46.875 26.3125 28.65625 31.0625 
z
" id="FranklinGothic-Book-56"/>
        <path d="M 29.390625 -1.3125 
Q 17.875 -1.3125 10.984375 8.671875 
Q 4.109375 18.65625 4.109375 33.453125 
Q 4.109375 48 10.640625 58 
Q 17.1875 68.015625 29.15625 68.015625 
Q 41.65625 68.015625 48.125 57.5625 
Q 54.59375 47.125 54.59375 33.0625 
Q 54.59375 19.28125 47.953125 8.984375 
Q 41.3125 -1.3125 29.390625 -1.3125 
z
M 29.4375 5.21875 
Q 37.890625 5.21875 41.9375 12.859375 
Q 46 20.515625 46 32.078125 
Q 46 44.734375 41.84375 53.125 
Q 37.703125 61.53125 29.046875 61.53125 
Q 20.703125 61.53125 16.625 53.859375 
Q 12.546875 46.1875 12.546875 33.6875 
Q 12.546875 20.703125 16.84375 12.953125 
Q 21.140625 5.21875 29.4375 5.21875 
z
" id="FranklinGothic-Book-48"/>
       </defs>
       <use xlink:href="#FranklinGothic-Book-49"/>
       <use x="57.267578" xlink:href="#FranklinGothic-Book-57"/>
       <use x="115.910156" xlink:href="#FranklinGothic-Book-56"/>
       <use x="174.552734" xlink:href="#FranklinGothic-Book-48"/>
      </g>
     </g>
    </g>
    <g id="xtick_2">
     <g id="line2d_6">
      <g>
       <use style="fill:#696969;stroke:#696969;stroke-width:1.25;" x="297.833404" xlink:href="#ma6603943fc" y="576.72"/>
      </g>
     </g>
     <g id="text_2">
      <!-- 1985 -->
      <g style="fill:#696969;" transform="translate(280.344341 596.218438)scale(0.15 -0.15)">
       <defs>
        <path d="M 48.875 66.65625 
L 48.1875 59.46875 
L 15.4375 59.46875 
L 14.015625 37.84375 
Q 21.4375 45.125 30.328125 45.125 
Q 39.703125 45.125 46.515625 38.625 
Q 53.328125 32.125 53.328125 22.015625 
Q 53.328125 11.765625 45.921875 5.21875 
Q 38.53125 -1.3125 27.828125 -1.3125 
Q 19.4375 -1.3125 12.890625 3.078125 
Q 6.34375 7.46875 4.296875 14.453125 
L 11.421875 16.890625 
Q 15.828125 5.28125 27.9375 5.28125 
Q 35.890625 5.28125 40.578125 9.984375 
Q 45.265625 14.703125 45.265625 22.015625 
Q 45.265625 29.6875 40.625 33.984375 
Q 35.984375 38.28125 29.5 38.28125 
Q 20.015625 38.28125 13.8125 29.203125 
L 7.234375 30.609375 
L 9.375 66.65625 
z
" id="FranklinGothic-Book-53"/>
       </defs>
       <use xlink:href="#FranklinGothic-Book-49"/>
       <use x="57.267578" xlink:href="#FranklinGothic-Book-57"/>
       <use x="115.910156" xlink:href="#FranklinGothic-Book-56"/>
       <use x="174.552734" xlink:href="#FranklinGothic-Book-53"/>
      </g>
     </g>
    </g>
    <g id="xtick_3">
     <g id="line2d_7">
      <g>
       <use style="fill:#696969;stroke:#696969;stroke-width:1.25;" x="392.209725" xlink:href="#ma6603943fc" y="576.72"/>
      </g>
     </g>
     <g id="text_3">
      <!-- 1990 -->
      <g style="fill:#696969;" transform="translate(374.720663 596.218438)scale(0.15 -0.15)">
       <use xlink:href="#FranklinGothic-Book-49"/>
       <use x="57.267578" xlink:href="#FranklinGothic-Book-57"/>
       <use x="115.910156" xlink:href="#FranklinGothic-Book-57"/>
       <use x="174.552734" xlink:href="#FranklinGothic-Book-48"/>
      </g>
     </g>
    </g>
    <g id="xtick_4">
     <g id="line2d_8">
      <g>
       <use style="fill:#696969;stroke:#696969;stroke-width:1.25;" x="486.586047" xlink:href="#ma6603943fc" y="576.72"/>
      </g>
     </g>
     <g id="text_4">
      <!-- 1995 -->
      <g style="fill:#696969;" transform="translate(469.096984 596.218438)scale(0.15 -0.15)">
       <use xlink:href="#FranklinGothic-Book-49"/>
       <use x="57.267578" xlink:href="#FranklinGothic-Book-57"/>
       <use x="115.910156" xlink:href="#FranklinGothic-Book-57"/>
       <use x="174.552734" xlink:href="#FranklinGothic-Book-53"/>
      </g>
     </g>
    </g>
    <g id="xtick_5">
     <g id="line2d_9">
      <g>
       <use style="fill:#696969;stroke:#696969;stroke-width:1.25;" x="580.962368" xlink:href="#ma6603943fc" y="576.72"/>
      </g>
     </g>
     <g id="text_5">
      <!-- 2000 -->
      <g style="fill:#696969;" transform="translate(563.37018 596.218438)scale(0.15 -0.15)">
       <defs>
        <path d="M 52.484375 6.9375 
L 52.484375 0 
L 5.171875 0 
L 5.171875 6.9375 
Q 33.203125 27.9375 38.59375 34.59375 
Q 44 41.265625 44 47.796875 
Q 44 53.90625 39.453125 57.65625 
Q 34.90625 61.421875 29 61.421875 
Q 22.90625 61.421875 18.21875 57.296875 
Q 13.53125 53.171875 12.9375 46.09375 
L 5.171875 48.4375 
Q 10.0625 68.015625 29.109375 68.015625 
Q 39.40625 68.015625 45.84375 62.15625 
Q 52.296875 56.296875 52.296875 47.859375 
Q 52.296875 42.046875 49.234375 36.671875 
Q 46.1875 31.296875 37.6875 23.828125 
Q 29.203125 16.359375 15.71875 6.9375 
z
" id="FranklinGothic-Book-50"/>
       </defs>
       <use xlink:href="#FranklinGothic-Book-50"/>
       <use x="58.642578" xlink:href="#FranklinGothic-Book-48"/>
       <use x="117.285156" xlink:href="#FranklinGothic-Book-48"/>
       <use x="175.927734" xlink:href="#FranklinGothic-Book-48"/>
      </g>
     </g>
    </g>
    <g id="xtick_6">
     <g id="line2d_10">
      <g>
       <use style="fill:#696969;stroke:#696969;stroke-width:1.25;" x="675.338689" xlink:href="#ma6603943fc" y="576.72"/>
      </g>
     </g>
     <g id="text_6">
      <!-- 2005 -->
      <g style="fill:#696969;" transform="translate(657.746502 596.218438)scale(0.15 -0.15)">
       <use xlink:href="#FranklinGothic-Book-50"/>
       <use x="58.642578" xlink:href="#FranklinGothic-Book-48"/>
       <use x="117.285156" xlink:href="#FranklinGothic-Book-48"/>
       <use x="175.927734" xlink:href="#FranklinGothic-Book-53"/>
      </g>
     </g>
    </g>
    <g id="xtick_7">
     <g id="line2d_11">
      <g>
       <use style="fill:#696969;stroke:#696969;stroke-width:1.25;" x="769.715011" xlink:href="#ma6603943fc" y="576.72"/>
      </g>
     </g>
     <g id="text_7">
      <!-- 2010 -->
      <g style="fill:#696969;" transform="translate(752.647823 596.218438)scale(0.15 -0.15)">
       <use xlink:href="#FranklinGothic-Book-50"/>
       <use x="58.642578" xlink:href="#FranklinGothic-Book-48"/>
       <use x="113.535156" xlink:href="#FranklinGothic-Book-49"/>
       <use x="168.927734" xlink:href="#FranklinGothic-Book-48"/>
      </g>
     </g>
    </g>
    <g id="xtick_8">
     <g id="line2d_12">
      <g>
       <use style="fill:#696969;stroke:#696969;stroke-width:1.25;" x="864.091332" xlink:href="#ma6603943fc" y="576.72"/>
      </g>
     </g>
     <g id="text_8">
      <!-- 2015 -->
      <g style="fill:#696969;" transform="translate(846.883519 596.218438)scale(0.15 -0.15)">
       <use xlink:href="#FranklinGothic-Book-50"/>
       <use x="58.642578" xlink:href="#FranklinGothic-Book-48"/>
       <use x="113.535156" xlink:href="#FranklinGothic-Book-49"/>
       <use x="170.802734" xlink:href="#FranklinGothic-Book-53"/>
      </g>
     </g>
    </g>
    <g id="xtick_9">
     <g id="line2d_13">
      <g>
       <use style="fill:#696969;stroke:#696969;stroke-width:1.25;" x="958.467653" xlink:href="#ma6603943fc" y="576.72"/>
      </g>
     </g>
     <g id="text_9">
      <!-- 2020 -->
      <g style="fill:#696969;" transform="translate(940.875466 596.218438)scale(0.15 -0.15)">
       <use xlink:href="#FranklinGothic-Book-50"/>
       <use x="58.642578" xlink:href="#FranklinGothic-Book-48"/>
       <use x="117.285156" xlink:href="#FranklinGothic-Book-50"/>
       <use x="175.927734" xlink:href="#FranklinGothic-Book-48"/>
      </g>
     </g>
    </g>
    <g id="text_10">
     <!-- Year -->
     <g style="fill:#696969;" transform="translate(572.109375 616.048125)scale(0.2 -0.2)">
      <defs>
       <path d="M 52 66.65625 
L 29.6875 28.03125 
L 29.6875 0 
L 21.34375 0 
L 21.34375 28.03125 
L -0.984375 66.65625 
L 8.84375 66.65625 
L 26.5625 35.984375 
L 44.390625 66.65625 
z
" id="FranklinGothic-Book-89"/>
       <path d="M 40.234375 14.703125 
L 47.359375 13.234375 
Q 45.40625 6.9375 39.734375 2.8125 
Q 34.078125 -1.3125 26.421875 -1.3125 
Q 16.3125 -1.3125 10.0625 5.78125 
Q 3.8125 12.890625 3.8125 24.421875 
Q 3.8125 36.1875 10.296875 43.4375 
Q 16.796875 50.6875 26.609375 50.6875 
Q 36.28125 50.6875 42.15625 44 
Q 48.046875 37.3125 48.1875 23.96875 
L 12.359375 23.96875 
Q 12.359375 12.796875 17.046875 8.890625 
Q 21.734375 4.984375 26.953125 4.984375 
Q 36.375 4.984375 40.234375 14.703125 
z
M 39.796875 29.6875 
Q 39.703125 33.84375 38.421875 37.0625 
Q 37.15625 40.28125 34.125 42.546875 
Q 31.109375 44.828125 26.859375 44.828125 
Q 21.140625 44.828125 17.15625 40.71875 
Q 13.1875 36.625 12.703125 29.6875 
z
" id="FranklinGothic-Book-101"/>
       <path d="M 46.296875 0 
L 38.671875 0 
Q 38.234375 2.34375 37.796875 8.890625 
Q 32.71875 -1.3125 20.515625 -1.3125 
Q 12.203125 -1.3125 7.765625 3.078125 
Q 3.328125 7.46875 3.328125 13.625 
Q 3.328125 21.09375 9.671875 25.90625 
Q 16.015625 30.71875 31.25 30.71875 
Q 33.296875 30.71875 37.796875 30.515625 
Q 37.796875 36.375 36.890625 38.984375 
Q 35.984375 41.609375 33.046875 43.171875 
Q 30.125 44.734375 25.34375 44.734375 
Q 13.671875 44.734375 11.765625 35.84375 
L 4.6875 37.0625 
Q 7.28125 50.6875 26.46875 50.6875 
Q 36.671875 50.6875 40.9375 46.171875 
Q 45.21875 41.65625 45.21875 30.515625 
L 45.21875 9.578125 
Q 45.21875 4.34375 46.296875 0 
z
M 37.796875 24.65625 
Q 33.109375 24.953125 30.671875 24.953125 
Q 21.578125 24.953125 16.546875 21.96875 
Q 11.53125 19 11.53125 13.28125 
Q 11.53125 9.671875 14.234375 7.125 
Q 16.9375 4.59375 22.078125 4.59375 
Q 29 4.59375 33.46875 9.625 
Q 37.9375 14.65625 37.9375 21.4375 
Q 37.9375 22.796875 37.796875 24.65625 
z
" id="FranklinGothic-Book-97"/>
       <path d="M 15.328125 0 
L 7.671875 0 
L 7.671875 49.3125 
L 14.40625 49.3125 
L 14.40625 37.796875 
Q 17.96875 45.953125 21.546875 48.359375 
Q 25.140625 50.78125 28.90625 50.78125 
Q 30.078125 50.78125 31.9375 50.59375 
L 31.9375 43.265625 
L 30.375 43.265625 
Q 24.03125 43.265625 19.828125 38.53125 
Q 15.625 33.796875 15.328125 26.078125 
z
" id="FranklinGothic-Book-114"/>
      </defs>
      <use xlink:href="#FranklinGothic-Book-89"/>
      <use x="45.025391" xlink:href="#FranklinGothic-Book-101"/>
      <use x="97.076172" xlink:href="#FranklinGothic-Book-97"/>
      <use x="149.957031" xlink:href="#FranklinGothic-Book-114"/>
     </g>
    </g>
   </g>
   <g id="matplotlib.axis_2">
    <g id="ytick_1">
     <g id="line2d_14">
      <path clip-path="url(#pf3a0af6e51)" d="M 144 565.952793 
L 1036.8 565.952793 
" style="fill:none;stroke:#d3d3d3;stroke-linecap:round;stroke-opacity:0.5;"/>
     </g>
     <g id="text_11">
      <!-- −1.0 -->
      <g style="fill:#696969;" transform="translate(104.455469 570.952011)scale(0.15 -0.15)">
       <defs>
        <path d="M 6 36.765625 
L 52.6875 36.765625 
L 52.6875 30.03125 
L 6 30.03125 
z
" id="FranklinGothic-Book-8722"/>
        <path d="M 17.96875 10.9375 
L 17.96875 0 
L 7.078125 0 
L 7.078125 10.9375 
z
" id="FranklinGothic-Book-46"/>
       </defs>
       <use xlink:href="#FranklinGothic-Book-8722"/>
       <use x="58.642578" xlink:href="#FranklinGothic-Book-49"/>
       <use x="116.660156" xlink:href="#FranklinGothic-Book-46"/>
       <use x="141.660156" xlink:href="#FranklinGothic-Book-48"/>
      </g>
     </g>
    </g>
    <g id="ytick_2">
     <g id="line2d_15">
      <path clip-path="url(#pf3a0af6e51)" d="M 144 470.772486 
L 1036.8 470.772486 
" style="fill:none;stroke:#d3d3d3;stroke-linecap:round;stroke-opacity:0.5;"/>
     </g>
     <g id="text_12">
      <!-- −0.5 -->
      <g style="fill:#696969;" transform="translate(104.361719 475.771705)scale(0.15 -0.15)">
       <use xlink:href="#FranklinGothic-Book-8722"/>
       <use x="58.642578" xlink:href="#FranklinGothic-Book-48"/>
       <use x="117.285156" xlink:href="#FranklinGothic-Book-46"/>
       <use x="142.285156" xlink:href="#FranklinGothic-Book-53"/>
      </g>
     </g>
    </g>
    <g id="ytick_3">
     <g id="line2d_16">
      <path clip-path="url(#pf3a0af6e51)" d="M 144 375.592179 
L 1036.8 375.592179 
" style="fill:none;stroke:#d3d3d3;stroke-linecap:round;stroke-opacity:0.5;"/>
     </g>
     <g id="text_13">
      <!-- 0.0 -->
      <g style="fill:#696969;" transform="translate(113.157813 380.591398)scale(0.15 -0.15)">
       <use xlink:href="#FranklinGothic-Book-48"/>
       <use x="58.642578" xlink:href="#FranklinGothic-Book-46"/>
       <use x="83.642578" xlink:href="#FranklinGothic-Book-48"/>
      </g>
     </g>
    </g>
    <g id="ytick_4">
     <g id="line2d_17">
      <path clip-path="url(#pf3a0af6e51)" d="M 144 280.411873 
L 1036.8 280.411873 
" style="fill:none;stroke:#d3d3d3;stroke-linecap:round;stroke-opacity:0.5;"/>
     </g>
     <g id="text_14">
      <!-- 0.5 -->
      <g style="fill:#696969;" transform="translate(113.157813 285.411092)scale(0.15 -0.15)">
       <use xlink:href="#FranklinGothic-Book-48"/>
       <use x="58.642578" xlink:href="#FranklinGothic-Book-46"/>
       <use x="83.642578" xlink:href="#FranklinGothic-Book-53"/>
      </g>
     </g>
    </g>
    <g id="ytick_5">
     <g id="line2d_18">
      <path clip-path="url(#pf3a0af6e51)" d="M 144 185.231566 
L 1036.8 185.231566 
" style="fill:none;stroke:#d3d3d3;stroke-linecap:round;stroke-opacity:0.5;"/>
     </g>
     <g id="text_15">
      <!-- 1.0 -->
      <g style="fill:#696969;" transform="translate(113.251563 190.230785)scale(0.15 -0.15)">
       <use xlink:href="#FranklinGothic-Book-49"/>
       <use x="58.017578" xlink:href="#FranklinGothic-Book-46"/>
       <use x="83.017578" xlink:href="#FranklinGothic-Book-48"/>
      </g>
     </g>
    </g>
    <g id="ytick_6">
     <g id="line2d_19">
      <path clip-path="url(#pf3a0af6e51)" d="M 144 90.05126 
L 1036.8 90.05126 
" style="fill:none;stroke:#d3d3d3;stroke-linecap:round;stroke-opacity:0.5;"/>
     </g>
     <g id="text_16">
      <!-- 1.5 -->
      <g style="fill:#696969;" transform="translate(113.251563 95.050479)scale(0.15 -0.15)">
       <use xlink:href="#FranklinGothic-Book-49"/>
       <use x="58.017578" xlink:href="#FranklinGothic-Book-46"/>
       <use x="83.017578" xlink:href="#FranklinGothic-Book-53"/>
      </g>
     </g>
    </g>
    <g id="text_17">
     <!-- million km$^2$ -->
     <g style="fill:#696969;" transform="translate(91.030469 375.74)rotate(-90)scale(0.2 -0.2)">
      <defs>
       <path d="M 73.734375 0 
L 66.265625 0 
L 66.265625 30.671875 
Q 66.265625 35.40625 65.59375 37.765625 
Q 64.9375 40.140625 62.390625 42.109375 
Q 59.859375 44.09375 56.6875 44.09375 
Q 52.296875 44.09375 48.21875 40.0625 
Q 44.140625 36.03125 44.140625 27.78125 
L 44.140625 0 
L 36.71875 0 
L 36.71875 32.46875 
Q 36.71875 38.96875 33.609375 41.65625 
Q 30.515625 44.34375 27.09375 44.34375 
Q 22.21875 44.34375 18.59375 40.140625 
Q 14.984375 35.9375 14.984375 29.5 
L 14.984375 0 
L 7.671875 0 
L 7.671875 49.3125 
L 14.265625 49.3125 
L 14.265625 39.84375 
Q 19.78125 50.6875 29.4375 50.6875 
Q 34.765625 50.6875 38.46875 47.21875 
Q 42.1875 43.75 43.265625 38.875 
Q 48.34375 50.6875 58.84375 50.6875 
Q 63.875 50.6875 67.65625 47.796875 
Q 71.4375 44.921875 72.578125 41.1875 
Q 73.734375 37.453125 73.734375 30.671875 
z
" id="FranklinGothic-Book-109"/>
       <path d="M 15.578125 66.65625 
L 15.578125 58.15625 
L 7.328125 58.15625 
L 7.328125 66.65625 
z
M 15.328125 49.3125 
L 15.328125 0 
L 7.671875 0 
L 7.671875 49.3125 
z
" id="FranklinGothic-Book-105"/>
       <path d="M 15.328125 0 
L 7.671875 0 
L 7.671875 66.65625 
L 15.328125 66.65625 
z
" id="FranklinGothic-Book-108"/>
       <path d="M 25.34375 -1.3125 
Q 15.1875 -1.3125 9.5 6.203125 
Q 3.8125 13.71875 3.8125 24.859375 
Q 3.8125 36.625 10.203125 43.65625 
Q 16.609375 50.6875 26.125 50.6875 
Q 36.328125 50.6875 42.203125 43.28125 
Q 48.09375 35.890625 48.09375 24.8125 
Q 48.09375 13.28125 41.75 5.984375 
Q 35.40625 -1.3125 25.34375 -1.3125 
z
M 25.921875 4.984375 
Q 31.78125 4.984375 35.734375 9.8125 
Q 39.703125 14.65625 39.703125 24.859375 
Q 39.703125 35.109375 35.546875 39.71875 
Q 31.390625 44.34375 25.828125 44.34375 
Q 20.125 44.34375 16.15625 39.671875 
Q 12.203125 35.015625 12.203125 24.90625 
Q 12.203125 14.203125 16.15625 9.59375 
Q 20.125 4.984375 25.921875 4.984375 
z
" id="FranklinGothic-Book-111"/>
       <path d="M 46.53125 0 
L 39.359375 0 
L 39.359375 31.6875 
Q 39.359375 38.53125 36.375 41.3125 
Q 33.40625 44.09375 29.15625 44.09375 
Q 23.296875 44.09375 19.3125 39.40625 
Q 15.328125 34.71875 15.328125 27.046875 
L 15.328125 0 
L 7.671875 0 
L 7.671875 49.3125 
L 14.796875 49.3125 
L 14.796875 40.234375 
Q 20.796875 50.6875 30.375 50.6875 
Q 35.890625 50.6875 39.765625 47.828125 
Q 43.65625 44.96875 45.09375 41.40625 
Q 46.53125 37.84375 46.53125 28.515625 
z
" id="FranklinGothic-Book-110"/>
       <path id="FranklinGothic-Book-32"/>
       <path d="M 48.390625 0 
L 40.4375 0 
L 26.03125 27.546875 
L 15.328125 15.234375 
L 15.328125 0 
L 7.671875 0 
L 7.671875 66.65625 
L 15.328125 66.65625 
L 15.328125 23.96875 
L 38.234375 49.3125 
L 46.4375 49.3125 
L 31 31.984375 
z
" id="FranklinGothic-Book-107"/>
       <path d="M 19.1875 8.296875 
L 53.609375 8.296875 
L 53.609375 0 
L 7.328125 0 
L 7.328125 8.296875 
Q 12.9375 14.109375 22.625 23.890625 
Q 32.328125 33.6875 34.8125 36.53125 
Q 39.546875 41.84375 41.421875 45.53125 
Q 43.3125 49.21875 43.3125 52.78125 
Q 43.3125 58.59375 39.234375 62.25 
Q 35.15625 65.921875 28.609375 65.921875 
Q 23.96875 65.921875 18.8125 64.3125 
Q 13.671875 62.703125 7.8125 59.421875 
L 7.8125 69.390625 
Q 13.765625 71.78125 18.9375 73 
Q 24.125 74.21875 28.421875 74.21875 
Q 39.75 74.21875 46.484375 68.546875 
Q 53.21875 62.890625 53.21875 53.421875 
Q 53.21875 48.921875 51.53125 44.890625 
Q 49.859375 40.875 45.40625 35.40625 
Q 44.1875 33.984375 37.640625 27.21875 
Q 31.109375 20.453125 19.1875 8.296875 
z
" id="DejaVuSans-50"/>
      </defs>
      <use transform="translate(0 0.765625)" xlink:href="#FranklinGothic-Book-109"/>
      <use transform="translate(81.396484 0.765625)" xlink:href="#FranklinGothic-Book-105"/>
      <use transform="translate(104.345703 0.765625)" xlink:href="#FranklinGothic-Book-108"/>
      <use transform="translate(127.34375 0.765625)" xlink:href="#FranklinGothic-Book-108"/>
      <use transform="translate(150.341797 0.765625)" xlink:href="#FranklinGothic-Book-105"/>
      <use transform="translate(173.291016 0.765625)" xlink:href="#FranklinGothic-Book-111"/>
      <use transform="translate(225.244141 0.765625)" xlink:href="#FranklinGothic-Book-110"/>
      <use transform="translate(279.443359 0.765625)" xlink:href="#FranklinGothic-Book-32"/>
      <use transform="translate(304.443359 0.765625)" xlink:href="#FranklinGothic-Book-107"/>
      <use transform="translate(354.541016 0.765625)" xlink:href="#FranklinGothic-Book-109"/>
      <use transform="translate(436.894531 39.046875)scale(0.7)" xlink:href="#DejaVuSans-50"/>
     </g>
    </g>
   </g>
   <g id="text_18">
    <!-- Difference from 1981-2010 average -->
    <g style="fill:#696969;" transform="translate(144 75.2652)scale(0.3 -0.3)">
     <defs>
      <path d="M 8.34375 0 
L 8.34375 66.65625 
L 30.71875 66.65625 
Q 44.828125 66.65625 52.6875 57.03125 
Q 60.546875 47.40625 60.546875 33.5 
Q 60.546875 19.390625 52.875 9.6875 
Q 45.21875 0 33.453125 0 
z
M 16.703125 7.078125 
L 30.21875 7.078125 
Q 40.96875 7.078125 46.53125 14.5 
Q 52.09375 21.921875 52.09375 34.078125 
Q 52.09375 43.953125 46.796875 51.8125 
Q 41.5 59.671875 30.21875 59.671875 
L 16.703125 59.671875 
z
" id="FranklinGothic-Book-68"/>
      <path d="M 28.125 49.3125 
L 28.125 43.3125 
L 16.40625 43.3125 
L 16.40625 0 
L 8.734375 0 
L 8.734375 43.3125 
L 0.34375 43.3125 
L 0.34375 49.3125 
L 8.734375 49.3125 
Q 8.9375 61.1875 13.296875 64.59375 
Q 17.671875 68.015625 23.96875 68.015625 
Q 27.046875 68.015625 31 67.328125 
L 31 61.234375 
Q 28.515625 61.859375 26.265625 61.859375 
Q 21.234375 61.859375 18.8125 59.640625 
Q 16.40625 57.421875 16.40625 51.3125 
L 16.40625 49.3125 
z
" id="FranklinGothic-Book-102"/>
      <path d="M 36.8125 17.28125 
L 43.75 16.0625 
Q 42.28125 7.90625 37.25 3.296875 
Q 32.234375 -1.3125 24.703125 -1.3125 
Q 14.5 -1.3125 9.15625 6.203125 
Q 3.8125 13.71875 3.8125 24.5625 
Q 3.8125 35.796875 9.453125 43.234375 
Q 15.09375 50.6875 24.8125 50.6875 
Q 32.859375 50.6875 37.71875 45.875 
Q 42.578125 41.0625 43.75 33.453125 
L 36.8125 32.125 
Q 34.859375 44.34375 25 44.34375 
Q 18.65625 44.34375 15.234375 38.9375 
Q 11.8125 33.546875 11.8125 24.953125 
Q 11.8125 15.484375 15.203125 10.234375 
Q 18.609375 4.984375 24.75 4.984375 
Q 34.28125 4.984375 36.8125 17.28125 
z
" id="FranklinGothic-Book-99"/>
      <path d="M 23.53125 27.984375 
L 23.53125 22.015625 
L 1.46875 22.015625 
L 1.46875 27.984375 
z
" id="FranklinGothic-Book-45"/>
      <path d="M 43.796875 49.3125 
L 26.765625 0 
L 18.796875 0 
L 1.171875 49.3125 
L 9.671875 49.3125 
L 23.390625 9.234375 
L 36.96875 49.3125 
z
" id="FranklinGothic-Book-118"/>
      <path d="M 47.953125 57.03125 
L 47.953125 50.921875 
Q 42.671875 50.921875 40.890625 49.703125 
Q 39.109375 48.484375 38.53125 45.3125 
Q 43.265625 39.84375 43.265625 33.40625 
Q 43.265625 26.65625 38.109375 21.828125 
Q 32.953125 17 24.265625 17 
Q 22.3125 17 20.90625 17.28125 
Q 18.21875 17.828125 17.53125 17.828125 
Q 16.21875 17.828125 14.359375 16.53125 
Q 12.5 15.234375 12.5 13.1875 
Q 12.5 10.25 15.1875 9.375 
Q 17.875 8.5 27.828125 8.25 
Q 36.28125 8.015625 40.3125 7.109375 
Q 44.34375 6.203125 47.125 3.09375 
Q 49.90625 0 49.90625 -4.5 
Q 49.90625 -18.609375 25.09375 -18.609375 
Q 13.328125 -18.609375 7.9375 -15.0625 
Q 2.546875 -11.53125 2.546875 -5.609375 
Q 2.546875 1.5625 10.0625 4.25 
Q 5.21875 7.421875 5.21875 12.203125 
Q 5.21875 17.921875 12.0625 20.953125 
Q 5.671875 26.125 5.671875 33.984375 
Q 5.671875 41.3125 11.140625 46 
Q 16.609375 50.6875 24.46875 50.6875 
Q 30.03125 50.6875 34.578125 48.578125 
Q 35.296875 53.421875 37.953125 55.265625 
Q 40.625 57.125 46.046875 57.125 
Q 46.578125 57.125 47.953125 57.03125 
z
M 24.515625 22.859375 
Q 29.390625 22.859375 32.46875 25.859375 
Q 35.546875 28.859375 35.546875 33.640625 
Q 35.546875 38.53125 32.34375 41.625 
Q 29.15625 44.734375 24.609375 44.734375 
Q 20.265625 44.734375 16.890625 41.828125 
Q 13.53125 38.921875 13.53125 33.546875 
Q 13.53125 28.765625 16.546875 25.8125 
Q 19.578125 22.859375 24.515625 22.859375 
z
M 15.328125 2 
Q 9.96875 -0.34375 9.96875 -4.78125 
Q 9.96875 -8.546875 14.375 -10.625 
Q 18.796875 -12.703125 25.640625 -12.703125 
Q 31.984375 -12.703125 37.25 -10.90625 
Q 42.53125 -9.125 42.53125 -4.890625 
Q 42.53125 -2.59375 40.96875 -1.125 
Q 39.40625 0.34375 36.6875 0.734375 
Q 33.984375 1.125 27.25 1.3125 
Q 19.1875 1.515625 15.328125 2 
z
" id="FranklinGothic-Book-103"/>
     </defs>
     <use xlink:href="#FranklinGothic-Book-68"/>
     <use x="64.697266" xlink:href="#FranklinGothic-Book-105"/>
     <use x="87.646484" xlink:href="#FranklinGothic-Book-102"/>
     <use x="120.251953" xlink:href="#FranklinGothic-Book-102"/>
     <use x="147.732422" xlink:href="#FranklinGothic-Book-101"/>
     <use x="199.783203" xlink:href="#FranklinGothic-Book-114"/>
     <use x="232.742188" xlink:href="#FranklinGothic-Book-101"/>
     <use x="284.792969" xlink:href="#FranklinGothic-Book-110"/>
     <use x="338.992188" xlink:href="#FranklinGothic-Book-99"/>
     <use x="385.574219" xlink:href="#FranklinGothic-Book-101"/>
     <use x="437.625" xlink:href="#FranklinGothic-Book-32"/>
     <use x="462.625" xlink:href="#FranklinGothic-Book-102"/>
     <use x="492.605469" xlink:href="#FranklinGothic-Book-114"/>
     <use x="523.814453" xlink:href="#FranklinGothic-Book-111"/>
     <use x="575.767578" xlink:href="#FranklinGothic-Book-109"/>
     <use x="657.164062" xlink:href="#FranklinGothic-Book-32"/>
     <use x="682.164062" xlink:href="#FranklinGothic-Book-49"/>
     <use x="739.431641" xlink:href="#FranklinGothic-Book-57"/>
     <use x="798.074219" xlink:href="#FranklinGothic-Book-56"/>
     <use x="852.841797" xlink:href="#FranklinGothic-Book-49"/>
     <use x="911.484375" xlink:href="#FranklinGothic-Book-45"/>
     <use x="936.484375" xlink:href="#FranklinGothic-Book-50"/>
     <use x="995.126953" xlink:href="#FranklinGothic-Book-48"/>
     <use x="1050.019531" xlink:href="#FranklinGothic-Book-49"/>
     <use x="1105.412109" xlink:href="#FranklinGothic-Book-48"/>
     <use x="1164.054688" xlink:href="#FranklinGothic-Book-32"/>
     <use x="1189.054688" xlink:href="#FranklinGothic-Book-97"/>
     <use x="1239.685547" xlink:href="#FranklinGothic-Book-118"/>
     <use x="1283.205078" xlink:href="#FranklinGothic-Book-101"/>
     <use x="1335.255859" xlink:href="#FranklinGothic-Book-114"/>
     <use x="1368.214844" xlink:href="#FranklinGothic-Book-97"/>
     <use x="1421.095703" xlink:href="#FranklinGothic-Book-103"/>
     <use x="1470.216797" xlink:href="#FranklinGothic-Book-101"/>
    </g>
   </g>
   <g id="text_19">
    <!-- Antarctic sea-ice extent (million km$^2$) -->
    <g style="fill:#696969;" transform="translate(144 42.76)scale(0.4 -0.4)">
     <defs>
      <path d="M 53.21875 0 
L 44.671875 0 
L 37.9375 19.484375 
L 13.28125 19.484375 
L 7.328125 0 
L 0.34375 0 
L 21.96875 66.65625 
L 31.5 66.65625 
z
M 36.1875 25.734375 
L 25.921875 57.765625 
L 15.578125 25.734375 
z
" id="FranklinGothic-Book-65"/>
      <path d="M 30.03125 5.28125 
L 30.03125 -0.78125 
Q 25.984375 -1.3125 23 -1.3125 
Q 8.6875 -1.3125 8.6875 13.625 
L 8.6875 43.3125 
L -0.046875 43.3125 
L -0.046875 49.3125 
L 8.6875 49.3125 
L 9.03125 61.71875 
L 16.15625 62.40625 
L 16.15625 49.3125 
L 27.203125 49.3125 
L 27.203125 43.3125 
L 16.15625 43.3125 
L 16.15625 12.359375 
Q 16.15625 4.734375 24.078125 4.734375 
Q 26.703125 4.734375 30.03125 5.28125 
z
" id="FranklinGothic-Book-116"/>
      <path d="M 1.03125 12.796875 
L 8.34375 14.3125 
Q 10.796875 4.984375 23.78125 4.984375 
Q 28.5625 4.984375 31.875 7.125 
Q 35.203125 9.28125 35.203125 13.1875 
Q 35.203125 19 26.765625 20.5625 
L 16.359375 22.515625 
Q 10.25 23.6875 6.640625 27.09375 
Q 3.03125 30.515625 3.03125 36.140625 
Q 3.03125 42.328125 7.953125 46.5 
Q 12.890625 50.6875 21.234375 50.6875 
Q 37.3125 50.6875 41.0625 38.140625 
L 34.03125 36.625 
Q 31 44.34375 21.578125 44.34375 
Q 16.890625 44.34375 13.890625 42.40625 
Q 10.890625 40.484375 10.890625 37.015625 
Q 10.890625 31.546875 18.5625 30.125 
L 28.171875 28.421875 
Q 43.265625 25.6875 43.265625 13.8125 
Q 43.265625 7.03125 37.640625 2.859375 
Q 32.03125 -1.3125 22.703125 -1.3125 
Q 5.171875 -1.3125 1.03125 12.796875 
z
" id="FranklinGothic-Book-115"/>
      <path d="M 42.046875 0 
L 33.203125 0 
L 20.65625 20.015625 
L 7.8125 0 
L 0.34375 0 
L 16.9375 25.59375 
L 1.953125 49.3125 
L 10.796875 49.3125 
L 21.34375 32.46875 
L 32.078125 49.3125 
L 39.453125 49.3125 
L 25.09375 27.25 
z
" id="FranklinGothic-Book-120"/>
      <path d="M 24.703125 -16.65625 
L 19.578125 -16.65625 
Q 5.21875 2.203125 5.21875 25.09375 
Q 5.21875 46.96875 19.578125 66.65625 
L 24.703125 66.65625 
Q 12.359375 48.25 12.359375 25 
Q 12.359375 2.828125 24.703125 -16.65625 
z
" id="FranklinGothic-Book-40"/>
      <path d="M 4.640625 66.65625 
L 9.71875 66.65625 
Q 24.125 47.796875 24.125 24.90625 
Q 24.125 3.03125 9.71875 -16.65625 
L 4.640625 -16.65625 
Q 17 1.765625 17 25 
Q 17 47.171875 4.640625 66.65625 
z
" id="FranklinGothic-Book-41"/>
     </defs>
     <use transform="translate(0 0.765625)" xlink:href="#FranklinGothic-Book-65"/>
     <use transform="translate(53.564453 0.765625)" xlink:href="#FranklinGothic-Book-110"/>
     <use transform="translate(107.763672 0.765625)" xlink:href="#FranklinGothic-Book-116"/>
     <use transform="translate(138.525391 0.765625)" xlink:href="#FranklinGothic-Book-97"/>
     <use transform="translate(191.40625 0.765625)" xlink:href="#FranklinGothic-Book-114"/>
     <use transform="translate(224.365234 0.765625)" xlink:href="#FranklinGothic-Book-99"/>
     <use transform="translate(270.947266 0.765625)" xlink:href="#FranklinGothic-Book-116"/>
     <use transform="translate(301.708984 0.765625)" xlink:href="#FranklinGothic-Book-105"/>
     <use transform="translate(324.658203 0.765625)" xlink:href="#FranklinGothic-Book-99"/>
     <use transform="translate(371.240234 0.765625)" xlink:href="#FranklinGothic-Book-32"/>
     <use transform="translate(396.240234 0.765625)" xlink:href="#FranklinGothic-Book-115"/>
     <use transform="translate(442.626953 0.765625)" xlink:href="#FranklinGothic-Book-101"/>
     <use transform="translate(494.677734 0.765625)" xlink:href="#FranklinGothic-Book-97"/>
     <use transform="translate(547.558594 0.765625)" xlink:href="#FranklinGothic-Book-45"/>
     <use transform="translate(572.558594 0.765625)" xlink:href="#FranklinGothic-Book-105"/>
     <use transform="translate(595.507812 0.765625)" xlink:href="#FranklinGothic-Book-99"/>
     <use transform="translate(642.089844 0.765625)" xlink:href="#FranklinGothic-Book-101"/>
     <use transform="translate(694.140625 0.765625)" xlink:href="#FranklinGothic-Book-32"/>
     <use transform="translate(719.140625 0.765625)" xlink:href="#FranklinGothic-Book-101"/>
     <use transform="translate(771.191406 0.765625)" xlink:href="#FranklinGothic-Book-120"/>
     <use transform="translate(813.574219 0.765625)" xlink:href="#FranklinGothic-Book-116"/>
     <use transform="translate(844.335938 0.765625)" xlink:href="#FranklinGothic-Book-101"/>
     <use transform="translate(896.386719 0.765625)" xlink:href="#FranklinGothic-Book-110"/>
     <use transform="translate(950.585938 0.765625)" xlink:href="#FranklinGothic-Book-116"/>
     <use transform="translate(981.347656 0.765625)" xlink:href="#FranklinGothic-Book-32"/>
     <use transform="translate(1006.347656 0.765625)" xlink:href="#FranklinGothic-Book-40"/>
     <use transform="translate(1035.693359 0.765625)" xlink:href="#FranklinGothic-Book-109"/>
     <use transform="translate(1117.089844 0.765625)" xlink:href="#FranklinGothic-Book-105"/>
     <use transform="translate(1140.039062 0.765625)" xlink:href="#FranklinGothic-Book-108"/>
     <use transform="translate(1163.037109 0.765625)" xlink:href="#FranklinGothic-Book-108"/>
     <use transform="translate(1186.035156 0.765625)" xlink:href="#FranklinGothic-Book-105"/>
     <use transform="translate(1208.984375 0.765625)" xlink:href="#FranklinGothic-Book-111"/>
     <use transform="translate(1260.9375 0.765625)" xlink:href="#FranklinGothic-Book-110"/>
     <use transform="translate(1315.136719 0.765625)" xlink:href="#FranklinGothic-Book-32"/>
     <use transform="translate(1340.136719 0.765625)" xlink:href="#FranklinGothic-Book-107"/>
     <use transform="translate(1390.234375 0.765625)" xlink:href="#FranklinGothic-Book-109"/>
     <use transform="translate(1472.587891 39.046875)scale(0.7)" xlink:href="#DejaVuSans-50"/>
     <use transform="translate(1519.858398 0.765625)" xlink:href="#FranklinGothic-Book-41"/>
    </g>
   </g>
   <g id="legend_1">
    <g id="line2d_20"/>
    <g id="text_20">
     <!-- NSIDC SH February -->
     <g style="fill:#e69f00;" transform="translate(212.64 129.7184)scale(0.2 -0.2)">
      <defs>
       <path d="M 57.421875 0 
L 49.3125 0 
L 14.84375 58.109375 
L 14.9375 53.71875 
Q 15.09375 51.21875 15.09375 49.515625 
L 15.09375 0 
L 8.34375 0 
L 8.34375 66.65625 
L 18.796875 66.65625 
L 51.03125 12.3125 
L 50.921875 16.9375 
Q 50.828125 19.671875 50.828125 21.78125 
L 50.828125 66.65625 
L 57.421875 66.65625 
z
" id="FranklinGothic-Book-78"/>
       <path d="M 1.03125 17.71875 
L 8.546875 19.4375 
Q 13.09375 5.8125 28.21875 5.8125 
Q 36.140625 5.8125 40.140625 9.15625 
Q 44.140625 12.5 44.140625 18.109375 
Q 44.140625 22.359375 41.078125 24.953125 
Q 38.03125 27.546875 34.03125 28.515625 
L 20.703125 31.84375 
Q 15.53125 33.15625 12.234375 35.03125 
Q 8.9375 36.921875 6.640625 40.828125 
Q 4.34375 44.734375 4.34375 49.75 
Q 4.34375 58.109375 10.640625 63.0625 
Q 16.9375 68.015625 26.8125 68.015625 
Q 44.96875 68.015625 50.6875 51.5625 
L 43.109375 49.3125 
Q 41.796875 55.171875 36.90625 58.171875 
Q 32.03125 61.1875 26.515625 61.1875 
Q 21.046875 61.1875 16.765625 58.296875 
Q 12.5 55.421875 12.5 50.140625 
Q 12.5 42.78125 23.34375 40.1875 
L 35.796875 37.203125 
Q 52.875 33.109375 52.875 18.796875 
Q 52.875 10.15625 46.453125 4.421875 
Q 40.046875 -1.3125 28.375 -1.3125 
Q 7.671875 -1.3125 1.03125 17.71875 
z
" id="FranklinGothic-Book-83"/>
       <path d="M 16.703125 0 
L 8.34375 0 
L 8.34375 66.65625 
L 16.703125 66.65625 
z
" id="FranklinGothic-Book-73"/>
       <path d="M 48.296875 22.40625 
L 55.90625 20.703125 
Q 50.4375 -1.3125 31.203125 -1.3125 
Q 18.5625 -1.3125 11.359375 8.890625 
Q 4.15625 19.09375 4.15625 33.984375 
Q 4.15625 49.359375 11.671875 58.6875 
Q 19.1875 68.015625 31.84375 68.015625 
Q 50.59375 68.015625 55.90625 46.578125 
L 48.046875 45.015625 
Q 43.75 60.9375 31.78125 60.9375 
Q 22.953125 60.9375 18.09375 53.53125 
Q 13.234375 46.140625 13.234375 32.765625 
Q 13.234375 20.515625 18.203125 13.109375 
Q 23.1875 5.71875 31.390625 5.71875 
Q 44.140625 5.71875 48.296875 22.40625 
z
" id="FranklinGothic-Book-67"/>
       <path d="M 55.953125 0 
L 47.609375 0 
L 47.609375 31.734375 
L 16.703125 31.734375 
L 16.703125 0 
L 8.34375 0 
L 8.34375 66.65625 
L 16.703125 66.65625 
L 16.703125 39.0625 
L 47.609375 39.0625 
L 47.609375 66.65625 
L 55.953125 66.65625 
z
" id="FranklinGothic-Book-72"/>
       <path d="M 16.703125 0 
L 8.34375 0 
L 8.34375 66.65625 
L 49.171875 66.65625 
L 49.171875 59.328125 
L 16.703125 59.328125 
L 16.703125 38.28125 
L 43.609375 38.28125 
L 43.609375 31.546875 
L 16.703125 31.546875 
z
" id="FranklinGothic-Book-70"/>
       <path d="M 11.375 0 
L 7.671875 0 
L 7.671875 66.65625 
L 15.328125 66.65625 
L 15.328125 41.109375 
Q 20.609375 50.6875 29.890625 50.6875 
Q 38.375 50.6875 44.109375 44 
Q 49.859375 37.3125 49.859375 24.5625 
Q 49.859375 13.578125 44.21875 6.125 
Q 38.578125 -1.3125 29.546875 -1.3125 
Q 19.484375 -1.3125 14.109375 8.15625 
z
M 15.328125 19.34375 
Q 15.875 11.765625 20 8.34375 
Q 24.125 4.9375 28.71875 4.9375 
Q 34.578125 4.9375 38.15625 10.015625 
Q 41.75 15.09375 41.75 23.921875 
Q 41.75 33.453125 38.28125 38.890625 
Q 34.8125 44.34375 28.65625 44.34375 
Q 23.828125 44.34375 19.9375 40.453125 
Q 16.0625 36.578125 15.328125 30.421875 
z
" id="FranklinGothic-Book-98"/>
       <path d="M 46.484375 0 
L 39.59375 0 
L 39.59375 9.421875 
Q 34.328125 -1.3125 23.875 -1.3125 
Q 16.3125 -1.3125 11.984375 3.65625 
Q 7.671875 8.640625 7.671875 17.828125 
L 7.671875 49.3125 
L 15.328125 49.3125 
L 15.328125 17.828125 
Q 15.328125 10.5 18.375 7.734375 
Q 21.4375 4.984375 25.09375 4.984375 
Q 28.8125 4.984375 31.8125 7.078125 
Q 34.8125 9.1875 36.8125 13.0625 
Q 38.8125 16.9375 38.8125 21.53125 
L 38.8125 49.3125 
L 46.484375 49.3125 
z
" id="FranklinGothic-Book-117"/>
       <path d="M 41.5 49.3125 
L 21.734375 -5.765625 
Q 17.4375 -17.671875 8.015625 -17.671875 
Q 5.03125 -17.671875 1.421875 -16.65625 
L 1.421875 -10.640625 
Q 4.390625 -11.328125 6.546875 -11.328125 
Q 10.203125 -11.328125 12.671875 -9.21875 
Q 15.140625 -7.125 17.578125 0.921875 
L 0.53125 49.3125 
L 8.34375 49.3125 
L 21.53125 12.25 
L 35.0625 49.3125 
z
" id="FranklinGothic-Book-121"/>
      </defs>
      <use xlink:href="#FranklinGothic-Book-78"/>
      <use x="65.722656" xlink:href="#FranklinGothic-Book-83"/>
      <use x="122.65625" xlink:href="#FranklinGothic-Book-73"/>
      <use x="147.65625" xlink:href="#FranklinGothic-Book-68"/>
      <use x="212.353516" xlink:href="#FranklinGothic-Book-67"/>
      <use x="270.263672" xlink:href="#FranklinGothic-Book-32"/>
      <use x="295.263672" xlink:href="#FranklinGothic-Book-83"/>
      <use x="352.197266" xlink:href="#FranklinGothic-Book-72"/>
      <use x="416.455078" xlink:href="#FranklinGothic-Book-32"/>
      <use x="441.455078" xlink:href="#FranklinGothic-Book-70"/>
      <use x="490.236328" xlink:href="#FranklinGothic-Book-101"/>
      <use x="542.287109" xlink:href="#FranklinGothic-Book-98"/>
      <use x="595.998047" xlink:href="#FranklinGothic-Book-114"/>
      <use x="628.957031" xlink:href="#FranklinGothic-Book-117"/>
      <use x="683.107422" xlink:href="#FranklinGothic-Book-97"/>
      <use x="735.988281" xlink:href="#FranklinGothic-Book-114"/>
      <use x="771.947266" xlink:href="#FranklinGothic-Book-121"/>
     </g>
    </g>
    <g id="line2d_21"/>
    <g id="text_21">
     <!-- OSI SAF SH February -->
     <g style="fill:#d55e00;" transform="translate(212.64 157.252775)scale(0.2 -0.2)">
      <defs>
       <path d="M 31.34375 -1.3125 
Q 18.5 -1.3125 11.328125 8.671875 
Q 4.15625 18.65625 4.15625 33.15625 
Q 4.15625 48.296875 11.671875 58.15625 
Q 19.1875 68.015625 31.59375 68.015625 
Q 43.953125 68.015625 51.421875 58.328125 
Q 58.890625 48.640625 58.890625 33.890625 
Q 58.890625 19.734375 51.640625 9.203125 
Q 44.390625 -1.3125 31.34375 -1.3125 
z
M 31.546875 5.46875 
Q 40.28125 5.46875 45.203125 13.421875 
Q 50.140625 21.390625 50.140625 33.9375 
Q 50.140625 46.828125 45.03125 54 
Q 39.9375 61.1875 31.5 61.1875 
Q 22.953125 61.1875 17.921875 53.421875 
Q 12.890625 45.65625 12.890625 33.109375 
Q 12.890625 20.84375 17.96875 13.15625 
Q 23.046875 5.46875 31.546875 5.46875 
z
" id="FranklinGothic-Book-79"/>
      </defs>
      <use xlink:href="#FranklinGothic-Book-79"/>
      <use x="63.085938" xlink:href="#FranklinGothic-Book-83"/>
      <use x="120.019531" xlink:href="#FranklinGothic-Book-73"/>
      <use x="145.019531" xlink:href="#FranklinGothic-Book-32"/>
      <use x="170.019531" xlink:href="#FranklinGothic-Book-83"/>
      <use x="226.953125" xlink:href="#FranklinGothic-Book-65"/>
      <use x="280.517578" xlink:href="#FranklinGothic-Book-70"/>
      <use x="331.298828" xlink:href="#FranklinGothic-Book-32"/>
      <use x="356.298828" xlink:href="#FranklinGothic-Book-83"/>
      <use x="413.232422" xlink:href="#FranklinGothic-Book-72"/>
      <use x="477.490234" xlink:href="#FranklinGothic-Book-32"/>
      <use x="502.490234" xlink:href="#FranklinGothic-Book-70"/>
      <use x="551.271484" xlink:href="#FranklinGothic-Book-101"/>
      <use x="603.322266" xlink:href="#FranklinGothic-Book-98"/>
      <use x="657.033203" xlink:href="#FranklinGothic-Book-114"/>
      <use x="689.992188" xlink:href="#FranklinGothic-Book-117"/>
      <use x="744.142578" xlink:href="#FranklinGothic-Book-97"/>
      <use x="797.023438" xlink:href="#FranklinGothic-Book-114"/>
      <use x="832.982422" xlink:href="#FranklinGothic-Book-121"/>
     </g>
    </g>
    <g id="line2d_22"/>
    <g id="text_22">
     <!-- NSIDC SH September -->
     <g style="fill:#56b4e9;" transform="translate(212.64 184.78715)scale(0.2 -0.2)">
      <defs>
       <path d="M 15.328125 -16.65625 
L 7.671875 -16.65625 
L 7.671875 49.3125 
L 14.546875 49.3125 
L 14.546875 39.75 
Q 19.78125 50.6875 30.125 50.6875 
Q 38.875 50.6875 44.234375 43.375 
Q 49.609375 36.078125 49.609375 24.90625 
Q 49.609375 12.84375 44.09375 5.765625 
Q 38.578125 -1.3125 29.9375 -1.3125 
Q 20.65625 -1.3125 15.328125 7.515625 
z
M 15.328125 31.78125 
L 15.328125 17.921875 
Q 16.0625 12.3125 20.0625 8.640625 
Q 24.078125 4.984375 28.421875 4.984375 
Q 33.453125 4.984375 37.328125 9.375 
Q 41.21875 13.765625 41.21875 24.5625 
Q 41.21875 33.890625 37.703125 38.9375 
Q 34.1875 44 28.375 44 
Q 23.78125 44 20.140625 40.421875 
Q 16.5 36.859375 15.328125 31.78125 
z
" id="FranklinGothic-Book-112"/>
      </defs>
      <use xlink:href="#FranklinGothic-Book-78"/>
      <use x="65.722656" xlink:href="#FranklinGothic-Book-83"/>
      <use x="122.65625" xlink:href="#FranklinGothic-Book-73"/>
      <use x="147.65625" xlink:href="#FranklinGothic-Book-68"/>
      <use x="212.353516" xlink:href="#FranklinGothic-Book-67"/>
      <use x="270.263672" xlink:href="#FranklinGothic-Book-32"/>
      <use x="295.263672" xlink:href="#FranklinGothic-Book-83"/>
      <use x="352.197266" xlink:href="#FranklinGothic-Book-72"/>
      <use x="416.455078" xlink:href="#FranklinGothic-Book-32"/>
      <use x="441.455078" xlink:href="#FranklinGothic-Book-83"/>
      <use x="498.388672" xlink:href="#FranklinGothic-Book-101"/>
      <use x="550.439453" xlink:href="#FranklinGothic-Book-112"/>
      <use x="603.857422" xlink:href="#FranklinGothic-Book-116"/>
      <use x="632.869141" xlink:href="#FranklinGothic-Book-101"/>
      <use x="684.919922" xlink:href="#FranklinGothic-Book-109"/>
      <use x="766.316406" xlink:href="#FranklinGothic-Book-98"/>
      <use x="820.027344" xlink:href="#FranklinGothic-Book-101"/>
      <use x="872.078125" xlink:href="#FranklinGothic-Book-114"/>
     </g>
    </g>
    <g id="line2d_23"/>
    <g id="text_23">
     <!-- OSI SAF SH September -->
     <g style="fill:#009e73;" transform="translate(212.64 212.1184)scale(0.2 -0.2)">
      <use xlink:href="#FranklinGothic-Book-79"/>
      <use x="63.085938" xlink:href="#FranklinGothic-Book-83"/>
      <use x="120.019531" xlink:href="#FranklinGothic-Book-73"/>
      <use x="145.019531" xlink:href="#FranklinGothic-Book-32"/>
      <use x="170.019531" xlink:href="#FranklinGothic-Book-83"/>
      <use x="226.953125" xlink:href="#FranklinGothic-Book-65"/>
      <use x="280.517578" xlink:href="#FranklinGothic-Book-70"/>
      <use x="331.298828" xlink:href="#FranklinGothic-Book-32"/>
      <use x="356.298828" xlink:href="#FranklinGothic-Book-83"/>
      <use x="413.232422" xlink:href="#FranklinGothic-Book-72"/>
      <use x="477.490234" xlink:href="#FranklinGothic-Book-32"/>
      <use x="502.490234" xlink:href="#FranklinGothic-Book-83"/>
      <use x="559.423828" xlink:href="#FranklinGothic-Book-101"/>
      <use x="611.474609" xlink:href="#FranklinGothic-Book-112"/>
      <use x="664.892578" xlink:href="#FranklinGothic-Book-116"/>
      <use x="693.904297" xlink:href="#FranklinGothic-Book-101"/>
      <use x="745.955078" xlink:href="#FranklinGothic-Book-109"/>
      <use x="827.351562" xlink:href="#FranklinGothic-Book-98"/>
      <use x="881.0625" xlink:href="#FranklinGothic-Book-101"/>
      <use x="933.113281" xlink:href="#FranklinGothic-Book-114"/>
     </g>
    </g>
   </g>
  </g>
 </g>
 <defs>
  <clipPath id="pf3a0af6e51">
   <rect height="498.96" width="892.8" x="144" y="77.76"/>
  </clipPath>
 </defs>
</svg>
