<?xml version="1.0" encoding="utf-8" standalone="no"?>
<!DOCTYPE svg PUBLIC "-//W3C//DTD SVG 1.1//EN"
  "http://www.w3.org/Graphics/SVG/1.1/DTD/svg11.dtd">
<!-- Created with matplotlib (https://matplotlib.org/) -->
<svg height="648pt" version="1.1" viewBox="0 0 1152 648" width="1152pt" xmlns="http://www.w3.org/2000/svg" xmlns:xlink="http://www.w3.org/1999/xlink">
 <metadata>
  <rdf:RDF xmlns:cc="http://creativecommons.org/ns#" xmlns:dc="http://purl.org/dc/elements/1.1/" xmlns:rdf="http://www.w3.org/1999/02/22-rdf-syntax-ns#">
   <cc:Work>
    <dc:type rdf:resource="http://purl.org/dc/dcmitype/StillImage"/>
    <dc:date>2022-08-23T14:46:02.988026</dc:date>
    <dc:format>image/svg+xml</dc:format>
    <dc:creator>
     <cc:Agent>
      <dc:title>Matplotlib v3.3.1, https://matplotlib.org/</dc:title>
     </cc:Agent>
    </dc:creator>
   </cc:Work>
  </rdf:RDF>
 </metadata>
 <defs>
  <style type="text/css">*{stroke-linecap:butt;stroke-linejoin:round;}</style>
 </defs>
 <g id="figure_1">
  <g id="patch_1">
   <path d="M 0 648 
L 1152 648 
L 1152 0 
L 0 0 
z
" style="fill:#ffffff;"/>
  </g>
  <g id="axes_1">
   <g id="patch_2">
    <path d="M 144 576.72 
L 1036.8 576.72 
L 1036.8 77.76 
L 144 77.76 
z
" style="fill:none;"/>
   </g>
   <g id="patch_3">
    <path d="M 144 576.72 
L 1036.8 576.72 
" style="fill:none;stroke:#d3d3d3;stroke-linecap:square;stroke-linejoin:miter;stroke-width:1.25;"/>
   </g>
   <g id="matplotlib.axis_1">
    <g id="xtick_1">
     <g id="line2d_1">
      <defs>
       <path d="M 0 0 
L 0 6 
" id="mdebd3dd9bd" style="stroke:#696969;stroke-width:1.25;"/>
      </defs>
      <g>
       <use style="fill:#696969;stroke:#696969;stroke-width:1.25;" x="264.853546" xlink:href="#mdebd3dd9bd" y="576.72"/>
      </g>
     </g>
     <g id="text_1">
      <!-- 1995 -->
      <g style="fill:#696969;" transform="translate(247.364484 596.218438)scale(0.15 -0.15)">
       <defs>
        <path d="M 55.859375 6.203125 
L 55.859375 0 
L 9.1875 0 
L 9.1875 6.203125 
L 29.203125 6.203125 
L 29.203125 57.671875 
Q 20.359375 48.4375 10.84375 43.265625 
L 10.84375 51.65625 
Q 23.96875 58.546875 31.203125 68.015625 
L 37.15625 68.015625 
L 37.15625 6.203125 
z
" id="FranklinGothic-Book-49"/>
        <path d="M 5.71875 12.15625 
L 12.40625 14.59375 
Q 16.546875 5.375 26.375 5.375 
Q 35.890625 5.375 40.703125 13.375 
Q 45.515625 21.390625 45.65625 35.109375 
Q 39.109375 23.09375 25.984375 23.09375 
Q 16.703125 23.09375 10.40625 29.421875 
Q 4.109375 35.75 4.109375 45.0625 
Q 4.109375 54.546875 10.71875 61.28125 
Q 17.328125 68.015625 27.59375 68.015625 
Q 40.140625 68.015625 46.828125 59.203125 
Q 53.515625 50.390625 53.515625 34.96875 
Q 53.515625 18.75 46.4375 8.71875 
Q 39.359375 -1.3125 26.265625 -1.3125 
Q 10.984375 -1.3125 5.71875 12.15625 
z
M 27.828125 29.78125 
Q 34.71875 29.78125 39.375 34.59375 
Q 44.046875 39.40625 44.046875 45.84375 
Q 44.046875 52.09375 39.625 56.578125 
Q 35.203125 61.078125 27.984375 61.078125 
Q 20.65625 61.078125 16.40625 56.46875 
Q 12.15625 51.859375 12.15625 45.21875 
Q 12.15625 38.09375 16.859375 33.9375 
Q 21.578125 29.78125 27.828125 29.78125 
z
" id="FranklinGothic-Book-57"/>
        <path d="M 48.875 66.65625 
L 48.1875 59.46875 
L 15.4375 59.46875 
L 14.015625 37.84375 
Q 21.4375 45.125 30.328125 45.125 
Q 39.703125 45.125 46.515625 38.625 
Q 53.328125 32.125 53.328125 22.015625 
Q 53.328125 11.765625 45.921875 5.21875 
Q 38.53125 -1.3125 27.828125 -1.3125 
Q 19.4375 -1.3125 12.890625 3.078125 
Q 6.34375 7.46875 4.296875 14.453125 
L 11.421875 16.890625 
Q 15.828125 5.28125 27.9375 5.28125 
Q 35.890625 5.28125 40.578125 9.984375 
Q 45.265625 14.703125 45.265625 22.015625 
Q 45.265625 29.6875 40.625 33.984375 
Q 35.984375 38.28125 29.5 38.28125 
Q 20.015625 38.28125 13.8125 29.203125 
L 7.234375 30.609375 
L 9.375 66.65625 
z
" id="FranklinGothic-Book-53"/>
       </defs>
       <use xlink:href="#FranklinGothic-Book-49"/>
       <use x="57.267578" xlink:href="#FranklinGothic-Book-57"/>
       <use x="115.910156" xlink:href="#FranklinGothic-Book-57"/>
       <use x="174.552734" xlink:href="#FranklinGothic-Book-53"/>
      </g>
     </g>
    </g>
    <g id="xtick_2">
     <g id="line2d_2">
      <g>
       <use style="fill:#696969;stroke:#696969;stroke-width:1.25;" x="398.63976" xlink:href="#mdebd3dd9bd" y="576.72"/>
      </g>
     </g>
     <g id="text_2">
      <!-- 2000 -->
      <g style="fill:#696969;" transform="translate(381.047573 596.218438)scale(0.15 -0.15)">
       <defs>
        <path d="M 52.484375 6.9375 
L 52.484375 0 
L 5.171875 0 
L 5.171875 6.9375 
Q 33.203125 27.9375 38.59375 34.59375 
Q 44 41.265625 44 47.796875 
Q 44 53.90625 39.453125 57.65625 
Q 34.90625 61.421875 29 61.421875 
Q 22.90625 61.421875 18.21875 57.296875 
Q 13.53125 53.171875 12.9375 46.09375 
L 5.171875 48.4375 
Q 10.0625 68.015625 29.109375 68.015625 
Q 39.40625 68.015625 45.84375 62.15625 
Q 52.296875 56.296875 52.296875 47.859375 
Q 52.296875 42.046875 49.234375 36.671875 
Q 46.1875 31.296875 37.6875 23.828125 
Q 29.203125 16.359375 15.71875 6.9375 
z
" id="FranklinGothic-Book-50"/>
        <path d="M 29.390625 -1.3125 
Q 17.875 -1.3125 10.984375 8.671875 
Q 4.109375 18.65625 4.109375 33.453125 
Q 4.109375 48 10.640625 58 
Q 17.1875 68.015625 29.15625 68.015625 
Q 41.65625 68.015625 48.125 57.5625 
Q 54.59375 47.125 54.59375 33.0625 
Q 54.59375 19.28125 47.953125 8.984375 
Q 41.3125 -1.3125 29.390625 -1.3125 
z
M 29.4375 5.21875 
Q 37.890625 5.21875 41.9375 12.859375 
Q 46 20.515625 46 32.078125 
Q 46 44.734375 41.84375 53.125 
Q 37.703125 61.53125 29.046875 61.53125 
Q 20.703125 61.53125 16.625 53.859375 
Q 12.546875 46.1875 12.546875 33.6875 
Q 12.546875 20.703125 16.84375 12.953125 
Q 21.140625 5.21875 29.4375 5.21875 
z
" id="FranklinGothic-Book-48"/>
       </defs>
       <use xlink:href="#FranklinGothic-Book-50"/>
       <use x="58.642578" xlink:href="#FranklinGothic-Book-48"/>
       <use x="117.285156" xlink:href="#FranklinGothic-Book-48"/>
       <use x="175.927734" xlink:href="#FranklinGothic-Book-48"/>
      </g>
     </g>
    </g>
    <g id="xtick_3">
     <g id="line2d_3">
      <g>
       <use style="fill:#696969;stroke:#696969;stroke-width:1.25;" x="532.425974" xlink:href="#mdebd3dd9bd" y="576.72"/>
      </g>
     </g>
     <g id="text_3">
      <!-- 2005 -->
      <g style="fill:#696969;" transform="translate(514.833787 596.218438)scale(0.15 -0.15)">
       <use xlink:href="#FranklinGothic-Book-50"/>
       <use x="58.642578" xlink:href="#FranklinGothic-Book-48"/>
       <use x="117.285156" xlink:href="#FranklinGothic-Book-48"/>
       <use x="175.927734" xlink:href="#FranklinGothic-Book-53"/>
      </g>
     </g>
    </g>
    <g id="xtick_4">
     <g id="line2d_4">
      <g>
       <use style="fill:#696969;stroke:#696969;stroke-width:1.25;" x="666.212188" xlink:href="#mdebd3dd9bd" y="576.72"/>
      </g>
     </g>
     <g id="text_4">
      <!-- 2010 -->
      <g style="fill:#696969;" transform="translate(649.145 596.218438)scale(0.15 -0.15)">
       <use xlink:href="#FranklinGothic-Book-50"/>
       <use x="58.642578" xlink:href="#FranklinGothic-Book-48"/>
       <use x="113.535156" xlink:href="#FranklinGothic-Book-49"/>
       <use x="168.927734" xlink:href="#FranklinGothic-Book-48"/>
      </g>
     </g>
    </g>
    <g id="xtick_5">
     <g id="line2d_5">
      <g>
       <use style="fill:#696969;stroke:#696969;stroke-width:1.25;" x="799.998402" xlink:href="#mdebd3dd9bd" y="576.72"/>
      </g>
     </g>
     <g id="text_5">
      <!-- 2015 -->
      <g style="fill:#696969;" transform="translate(782.790589 596.218438)scale(0.15 -0.15)">
       <use xlink:href="#FranklinGothic-Book-50"/>
       <use x="58.642578" xlink:href="#FranklinGothic-Book-48"/>
       <use x="113.535156" xlink:href="#FranklinGothic-Book-49"/>
       <use x="170.802734" xlink:href="#FranklinGothic-Book-53"/>
      </g>
     </g>
    </g>
    <g id="xtick_6">
     <g id="line2d_6">
      <g>
       <use style="fill:#696969;stroke:#696969;stroke-width:1.25;" x="933.784615" xlink:href="#mdebd3dd9bd" y="576.72"/>
      </g>
     </g>
     <g id="text_6">
      <!-- 2020 -->
      <g style="fill:#696969;" transform="translate(916.192428 596.218438)scale(0.15 -0.15)">
       <use xlink:href="#FranklinGothic-Book-50"/>
       <use x="58.642578" xlink:href="#FranklinGothic-Book-48"/>
       <use x="117.285156" xlink:href="#FranklinGothic-Book-50"/>
       <use x="175.927734" xlink:href="#FranklinGothic-Book-48"/>
      </g>
     </g>
    </g>
    <g id="text_7">
     <!-- Year -->
     <g style="fill:#696969;" transform="translate(572.109375 616.048125)scale(0.2 -0.2)">
      <defs>
       <path d="M 52 66.65625 
L 29.6875 28.03125 
L 29.6875 0 
L 21.34375 0 
L 21.34375 28.03125 
L -0.984375 66.65625 
L 8.84375 66.65625 
L 26.5625 35.984375 
L 44.390625 66.65625 
z
" id="FranklinGothic-Book-89"/>
       <path d="M 40.234375 14.703125 
L 47.359375 13.234375 
Q 45.40625 6.9375 39.734375 2.8125 
Q 34.078125 -1.3125 26.421875 -1.3125 
Q 16.3125 -1.3125 10.0625 5.78125 
Q 3.8125 12.890625 3.8125 24.421875 
Q 3.8125 36.1875 10.296875 43.4375 
Q 16.796875 50.6875 26.609375 50.6875 
Q 36.28125 50.6875 42.15625 44 
Q 48.046875 37.3125 48.1875 23.96875 
L 12.359375 23.96875 
Q 12.359375 12.796875 17.046875 8.890625 
Q 21.734375 4.984375 26.953125 4.984375 
Q 36.375 4.984375 40.234375 14.703125 
z
M 39.796875 29.6875 
Q 39.703125 33.84375 38.421875 37.0625 
Q 37.15625 40.28125 34.125 42.546875 
Q 31.109375 44.828125 26.859375 44.828125 
Q 21.140625 44.828125 17.15625 40.71875 
Q 13.1875 36.625 12.703125 29.6875 
z
" id="FranklinGothic-Book-101"/>
       <path d="M 46.296875 0 
L 38.671875 0 
Q 38.234375 2.34375 37.796875 8.890625 
Q 32.71875 -1.3125 20.515625 -1.3125 
Q 12.203125 -1.3125 7.765625 3.078125 
Q 3.328125 7.46875 3.328125 13.625 
Q 3.328125 21.09375 9.671875 25.90625 
Q 16.015625 30.71875 31.25 30.71875 
Q 33.296875 30.71875 37.796875 30.515625 
Q 37.796875 36.375 36.890625 38.984375 
Q 35.984375 41.609375 33.046875 43.171875 
Q 30.125 44.734375 25.34375 44.734375 
Q 13.671875 44.734375 11.765625 35.84375 
L 4.6875 37.0625 
Q 7.28125 50.6875 26.46875 50.6875 
Q 36.671875 50.6875 40.9375 46.171875 
Q 45.21875 41.65625 45.21875 30.515625 
L 45.21875 9.578125 
Q 45.21875 4.34375 46.296875 0 
z
M 37.796875 24.65625 
Q 33.109375 24.953125 30.671875 24.953125 
Q 21.578125 24.953125 16.546875 21.96875 
Q 11.53125 19 11.53125 13.28125 
Q 11.53125 9.671875 14.234375 7.125 
Q 16.9375 4.59375 22.078125 4.59375 
Q 29 4.59375 33.46875 9.625 
Q 37.9375 14.65625 37.9375 21.4375 
Q 37.9375 22.796875 37.796875 24.65625 
z
" id="FranklinGothic-Book-97"/>
       <path d="M 15.328125 0 
L 7.671875 0 
L 7.671875 49.3125 
L 14.40625 49.3125 
L 14.40625 37.796875 
Q 17.96875 45.953125 21.546875 48.359375 
Q 25.140625 50.78125 28.90625 50.78125 
Q 30.078125 50.78125 31.9375 50.59375 
L 31.9375 43.265625 
L 30.375 43.265625 
Q 24.03125 43.265625 19.828125 38.53125 
Q 15.625 33.796875 15.328125 26.078125 
z
" id="FranklinGothic-Book-114"/>
      </defs>
      <use xlink:href="#FranklinGothic-Book-89"/>
      <use x="45.025391" xlink:href="#FranklinGothic-Book-101"/>
      <use x="97.076172" xlink:href="#FranklinGothic-Book-97"/>
      <use x="149.957031" xlink:href="#FranklinGothic-Book-114"/>
     </g>
    </g>
   </g>
   <g id="matplotlib.axis_2">
    <g id="ytick_1">
     <g id="line2d_7">
      <path clip-path="url(#p4d1ec35048)" d="M 144 575.762086 
L 1036.8 575.762086 
" style="fill:none;stroke:#d3d3d3;stroke-linecap:round;stroke-opacity:0.5;"/>
     </g>
     <g id="text_8">
      <!-- −3000 -->
      <g style="fill:#696969;" transform="translate(90.519531 580.761304)scale(0.15 -0.15)">
       <defs>
        <path d="M 6 36.765625 
L 52.6875 36.765625 
L 52.6875 30.03125 
L 6 30.03125 
z
" id="FranklinGothic-Book-8722"/>
        <path d="M 19.34375 31.34375 
L 19.34375 37.984375 
L 26.953125 37.984375 
Q 35.296875 37.984375 38.890625 41.40625 
Q 42.484375 44.828125 42.484375 49.703125 
Q 42.484375 55.078125 38.46875 58.21875 
Q 34.46875 61.375 28.421875 61.375 
Q 17.1875 61.375 12.890625 50.53125 
L 5.375 52.6875 
Q 11.8125 68.015625 29.203125 68.015625 
Q 38.96875 68.015625 44.96875 62.8125 
Q 50.984375 57.625 50.984375 50.296875 
Q 50.984375 44.625 47.359375 40.40625 
Q 43.75 36.1875 38.09375 35.109375 
Q 44.4375 34.1875 49 29.78125 
Q 53.5625 25.390625 53.5625 18.40625 
Q 53.5625 10.0625 46.765625 4.375 
Q 39.984375 -1.3125 28.171875 -1.3125 
Q 18.796875 -1.3125 12.125 3.125 
Q 5.46875 7.5625 2.9375 14.9375 
L 10.6875 17.53125 
Q 14.203125 5.46875 28.03125 5.46875 
Q 37.015625 5.46875 40.9375 9.296875 
Q 44.875 13.140625 44.875 18.453125 
Q 44.875 24.21875 40.15625 27.78125 
Q 35.453125 31.34375 26.953125 31.34375 
z
" id="FranklinGothic-Book-51"/>
       </defs>
       <use xlink:href="#FranklinGothic-Book-8722"/>
       <use x="58.642578" xlink:href="#FranklinGothic-Book-51"/>
       <use x="117.285156" xlink:href="#FranklinGothic-Book-48"/>
       <use x="175.927734" xlink:href="#FranklinGothic-Book-48"/>
       <use x="234.570312" xlink:href="#FranklinGothic-Book-48"/>
      </g>
     </g>
    </g>
    <g id="ytick_2">
     <g id="line2d_8">
      <path clip-path="url(#p4d1ec35048)" d="M 144 511.232095 
L 1036.8 511.232095 
" style="fill:none;stroke:#d3d3d3;stroke-linecap:round;stroke-opacity:0.5;"/>
     </g>
     <g id="text_9">
      <!-- −2500 -->
      <g style="fill:#696969;" transform="translate(90.519531 516.231313)scale(0.15 -0.15)">
       <use xlink:href="#FranklinGothic-Book-8722"/>
       <use x="58.642578" xlink:href="#FranklinGothic-Book-50"/>
       <use x="117.285156" xlink:href="#FranklinGothic-Book-53"/>
       <use x="175.927734" xlink:href="#FranklinGothic-Book-48"/>
       <use x="234.570312" xlink:href="#FranklinGothic-Book-48"/>
      </g>
     </g>
    </g>
    <g id="ytick_3">
     <g id="line2d_9">
      <path clip-path="url(#p4d1ec35048)" d="M 144 446.702103 
L 1036.8 446.702103 
" style="fill:none;stroke:#d3d3d3;stroke-linecap:round;stroke-opacity:0.5;"/>
     </g>
     <g id="text_10">
      <!-- −2000 -->
      <g style="fill:#696969;" transform="translate(90.519531 451.701322)scale(0.15 -0.15)">
       <use xlink:href="#FranklinGothic-Book-8722"/>
       <use x="58.642578" xlink:href="#FranklinGothic-Book-50"/>
       <use x="117.285156" xlink:href="#FranklinGothic-Book-48"/>
       <use x="175.927734" xlink:href="#FranklinGothic-Book-48"/>
       <use x="234.570312" xlink:href="#FranklinGothic-Book-48"/>
      </g>
     </g>
    </g>
    <g id="ytick_4">
     <g id="line2d_10">
      <path clip-path="url(#p4d1ec35048)" d="M 144 382.172112 
L 1036.8 382.172112 
" style="fill:none;stroke:#d3d3d3;stroke-linecap:round;stroke-opacity:0.5;"/>
     </g>
     <g id="text_11">
      <!-- −1500 -->
      <g style="fill:#696969;" transform="translate(90.725781 387.171331)scale(0.15 -0.15)">
       <use xlink:href="#FranklinGothic-Book-8722"/>
       <use x="58.642578" xlink:href="#FranklinGothic-Book-49"/>
       <use x="115.910156" xlink:href="#FranklinGothic-Book-53"/>
       <use x="174.552734" xlink:href="#FranklinGothic-Book-48"/>
       <use x="233.195312" xlink:href="#FranklinGothic-Book-48"/>
      </g>
     </g>
    </g>
    <g id="ytick_5">
     <g id="line2d_11">
      <path clip-path="url(#p4d1ec35048)" d="M 144 317.642121 
L 1036.8 317.642121 
" style="fill:none;stroke:#d3d3d3;stroke-linecap:round;stroke-opacity:0.5;"/>
     </g>
     <g id="text_12">
      <!-- −1000 -->
      <g style="fill:#696969;" transform="translate(91.007031 322.64134)scale(0.15 -0.15)">
       <use xlink:href="#FranklinGothic-Book-8722"/>
       <use x="58.642578" xlink:href="#FranklinGothic-Book-49"/>
       <use x="114.035156" xlink:href="#FranklinGothic-Book-48"/>
       <use x="172.677734" xlink:href="#FranklinGothic-Book-48"/>
       <use x="231.320312" xlink:href="#FranklinGothic-Book-48"/>
      </g>
     </g>
    </g>
    <g id="ytick_6">
     <g id="line2d_12">
      <path clip-path="url(#p4d1ec35048)" d="M 144 253.11213 
L 1036.8 253.11213 
" style="fill:none;stroke:#d3d3d3;stroke-linecap:round;stroke-opacity:0.5;"/>
     </g>
     <g id="text_13">
      <!-- −500 -->
      <g style="fill:#696969;" transform="translate(99.315625 258.111349)scale(0.15 -0.15)">
       <use xlink:href="#FranklinGothic-Book-8722"/>
       <use x="58.642578" xlink:href="#FranklinGothic-Book-53"/>
       <use x="117.285156" xlink:href="#FranklinGothic-Book-48"/>
       <use x="175.927734" xlink:href="#FranklinGothic-Book-48"/>
      </g>
     </g>
    </g>
    <g id="ytick_7">
     <g id="line2d_13">
      <path clip-path="url(#p4d1ec35048)" d="M 144 188.582139 
L 1036.8 188.582139 
" style="fill:none;stroke:#d3d3d3;stroke-linecap:round;stroke-opacity:0.5;"/>
     </g>
     <g id="text_14">
      <!-- 0 -->
      <g style="fill:#696969;" transform="translate(125.703906 193.581358)scale(0.15 -0.15)">
       <use xlink:href="#FranklinGothic-Book-48"/>
      </g>
     </g>
    </g>
    <g id="ytick_8">
     <g id="line2d_14">
      <path clip-path="url(#p4d1ec35048)" d="M 144 124.052148 
L 1036.8 124.052148 
" style="fill:none;stroke:#d3d3d3;stroke-linecap:round;stroke-opacity:0.5;"/>
     </g>
     <g id="text_15">
      <!-- 500 -->
      <g style="fill:#696969;" transform="translate(108.111719 129.051367)scale(0.15 -0.15)">
       <use xlink:href="#FranklinGothic-Book-53"/>
       <use x="58.642578" xlink:href="#FranklinGothic-Book-48"/>
       <use x="117.285156" xlink:href="#FranklinGothic-Book-48"/>
      </g>
     </g>
    </g>
    <g id="text_16">
     <!-- Gt -->
     <g style="fill:#696969;" transform="translate(64.188281 336.786875)rotate(-90)scale(0.2 -0.2)">
      <defs>
       <path d="M 57.71875 33.59375 
L 57.71875 -0.875 
L 52.59375 -0.875 
L 50.296875 7.46875 
Q 44.140625 -1.3125 31.984375 -1.3125 
Q 18.796875 -1.3125 11.46875 8.59375 
Q 4.15625 18.5 4.15625 32.671875 
Q 4.15625 47.796875 11.90625 57.90625 
Q 19.671875 68.015625 33.015625 68.015625 
Q 51.421875 68.015625 57.03125 48.6875 
L 49.125 46.78125 
Q 47.40625 54.203125 42.71875 57.5625 
Q 38.03125 60.9375 32.46875 60.9375 
Q 22.609375 60.9375 17.921875 52.96875 
Q 13.234375 45.015625 13.234375 33.015625 
Q 13.234375 20.0625 18.484375 12.765625 
Q 23.734375 5.46875 32.765625 5.46875 
Q 39.796875 5.46875 44.5 10.125 
Q 49.21875 14.796875 49.21875 23 
Q 49.21875 24.515625 49.125 26.609375 
L 32.625 26.609375 
L 32.625 33.59375 
z
" id="FranklinGothic-Book-71"/>
       <path d="M 30.03125 5.28125 
L 30.03125 -0.78125 
Q 25.984375 -1.3125 23 -1.3125 
Q 8.6875 -1.3125 8.6875 13.625 
L 8.6875 43.3125 
L -0.046875 43.3125 
L -0.046875 49.3125 
L 8.6875 49.3125 
L 9.03125 61.71875 
L 16.15625 62.40625 
L 16.15625 49.3125 
L 27.203125 49.3125 
L 27.203125 43.3125 
L 16.15625 43.3125 
L 16.15625 12.359375 
Q 16.15625 4.734375 24.078125 4.734375 
Q 26.703125 4.734375 30.03125 5.28125 
z
" id="FranklinGothic-Book-116"/>
      </defs>
      <use xlink:href="#FranklinGothic-Book-71"/>
      <use x="64.697266" xlink:href="#FranklinGothic-Book-116"/>
     </g>
    </g>
   </g>
   <g id="text_17">
    <!-- Antarctic ice sheet cumulative mass balance -->
    <g style="fill:#696969;" transform="translate(144 42.76)scale(0.4 -0.4)">
     <defs>
      <path d="M 53.21875 0 
L 44.671875 0 
L 37.9375 19.484375 
L 13.28125 19.484375 
L 7.328125 0 
L 0.34375 0 
L 21.96875 66.65625 
L 31.5 66.65625 
z
M 36.1875 25.734375 
L 25.921875 57.765625 
L 15.578125 25.734375 
z
" id="FranklinGothic-Book-65"/>
      <path d="M 46.53125 0 
L 39.359375 0 
L 39.359375 31.6875 
Q 39.359375 38.53125 36.375 41.3125 
Q 33.40625 44.09375 29.15625 44.09375 
Q 23.296875 44.09375 19.3125 39.40625 
Q 15.328125 34.71875 15.328125 27.046875 
L 15.328125 0 
L 7.671875 0 
L 7.671875 49.3125 
L 14.796875 49.3125 
L 14.796875 40.234375 
Q 20.796875 50.6875 30.375 50.6875 
Q 35.890625 50.6875 39.765625 47.828125 
Q 43.65625 44.96875 45.09375 41.40625 
Q 46.53125 37.84375 46.53125 28.515625 
z
" id="FranklinGothic-Book-110"/>
      <path d="M 36.8125 17.28125 
L 43.75 16.0625 
Q 42.28125 7.90625 37.25 3.296875 
Q 32.234375 -1.3125 24.703125 -1.3125 
Q 14.5 -1.3125 9.15625 6.203125 
Q 3.8125 13.71875 3.8125 24.5625 
Q 3.8125 35.796875 9.453125 43.234375 
Q 15.09375 50.6875 24.8125 50.6875 
Q 32.859375 50.6875 37.71875 45.875 
Q 42.578125 41.0625 43.75 33.453125 
L 36.8125 32.125 
Q 34.859375 44.34375 25 44.34375 
Q 18.65625 44.34375 15.234375 38.9375 
Q 11.8125 33.546875 11.8125 24.953125 
Q 11.8125 15.484375 15.203125 10.234375 
Q 18.609375 4.984375 24.75 4.984375 
Q 34.28125 4.984375 36.8125 17.28125 
z
" id="FranklinGothic-Book-99"/>
      <path d="M 15.578125 66.65625 
L 15.578125 58.15625 
L 7.328125 58.15625 
L 7.328125 66.65625 
z
M 15.328125 49.3125 
L 15.328125 0 
L 7.671875 0 
L 7.671875 49.3125 
z
" id="FranklinGothic-Book-105"/>
      <path id="FranklinGothic-Book-32"/>
      <path d="M 1.03125 12.796875 
L 8.34375 14.3125 
Q 10.796875 4.984375 23.78125 4.984375 
Q 28.5625 4.984375 31.875 7.125 
Q 35.203125 9.28125 35.203125 13.1875 
Q 35.203125 19 26.765625 20.5625 
L 16.359375 22.515625 
Q 10.25 23.6875 6.640625 27.09375 
Q 3.03125 30.515625 3.03125 36.140625 
Q 3.03125 42.328125 7.953125 46.5 
Q 12.890625 50.6875 21.234375 50.6875 
Q 37.3125 50.6875 41.0625 38.140625 
L 34.03125 36.625 
Q 31 44.34375 21.578125 44.34375 
Q 16.890625 44.34375 13.890625 42.40625 
Q 10.890625 40.484375 10.890625 37.015625 
Q 10.890625 31.546875 18.5625 30.125 
L 28.171875 28.421875 
Q 43.265625 25.6875 43.265625 13.8125 
Q 43.265625 7.03125 37.640625 2.859375 
Q 32.03125 -1.3125 22.703125 -1.3125 
Q 5.171875 -1.3125 1.03125 12.796875 
z
" id="FranklinGothic-Book-115"/>
      <path d="M 46.34375 0 
L 38.671875 0 
L 38.671875 29.9375 
Q 38.671875 35.203125 38.015625 37.84375 
Q 37.359375 40.484375 34.890625 42.40625 
Q 32.421875 44.34375 29.203125 44.34375 
Q 23.296875 44.34375 19.3125 39.5 
Q 15.328125 34.671875 15.328125 26.5625 
L 15.328125 0 
L 7.671875 0 
L 7.671875 66.65625 
L 15.328125 66.65625 
L 15.328125 40.234375 
Q 20.5625 50.6875 30.28125 50.6875 
Q 34.625 50.6875 38.015625 48.96875 
Q 41.40625 47.265625 43.203125 44.484375 
Q 45.015625 41.703125 45.671875 38.984375 
Q 46.34375 36.28125 46.34375 29.9375 
z
" id="FranklinGothic-Book-104"/>
      <path d="M 46.484375 0 
L 39.59375 0 
L 39.59375 9.421875 
Q 34.328125 -1.3125 23.875 -1.3125 
Q 16.3125 -1.3125 11.984375 3.65625 
Q 7.671875 8.640625 7.671875 17.828125 
L 7.671875 49.3125 
L 15.328125 49.3125 
L 15.328125 17.828125 
Q 15.328125 10.5 18.375 7.734375 
Q 21.4375 4.984375 25.09375 4.984375 
Q 28.8125 4.984375 31.8125 7.078125 
Q 34.8125 9.1875 36.8125 13.0625 
Q 38.8125 16.9375 38.8125 21.53125 
L 38.8125 49.3125 
L 46.484375 49.3125 
z
" id="FranklinGothic-Book-117"/>
      <path d="M 73.734375 0 
L 66.265625 0 
L 66.265625 30.671875 
Q 66.265625 35.40625 65.59375 37.765625 
Q 64.9375 40.140625 62.390625 42.109375 
Q 59.859375 44.09375 56.6875 44.09375 
Q 52.296875 44.09375 48.21875 40.0625 
Q 44.140625 36.03125 44.140625 27.78125 
L 44.140625 0 
L 36.71875 0 
L 36.71875 32.46875 
Q 36.71875 38.96875 33.609375 41.65625 
Q 30.515625 44.34375 27.09375 44.34375 
Q 22.21875 44.34375 18.59375 40.140625 
Q 14.984375 35.9375 14.984375 29.5 
L 14.984375 0 
L 7.671875 0 
L 7.671875 49.3125 
L 14.265625 49.3125 
L 14.265625 39.84375 
Q 19.78125 50.6875 29.4375 50.6875 
Q 34.765625 50.6875 38.46875 47.21875 
Q 42.1875 43.75 43.265625 38.875 
Q 48.34375 50.6875 58.84375 50.6875 
Q 63.875 50.6875 67.65625 47.796875 
Q 71.4375 44.921875 72.578125 41.1875 
Q 73.734375 37.453125 73.734375 30.671875 
z
" id="FranklinGothic-Book-109"/>
      <path d="M 15.328125 0 
L 7.671875 0 
L 7.671875 66.65625 
L 15.328125 66.65625 
z
" id="FranklinGothic-Book-108"/>
      <path d="M 43.796875 49.3125 
L 26.765625 0 
L 18.796875 0 
L 1.171875 49.3125 
L 9.671875 49.3125 
L 23.390625 9.234375 
L 36.96875 49.3125 
z
" id="FranklinGothic-Book-118"/>
      <path d="M 11.375 0 
L 7.671875 0 
L 7.671875 66.65625 
L 15.328125 66.65625 
L 15.328125 41.109375 
Q 20.609375 50.6875 29.890625 50.6875 
Q 38.375 50.6875 44.109375 44 
Q 49.859375 37.3125 49.859375 24.5625 
Q 49.859375 13.578125 44.21875 6.125 
Q 38.578125 -1.3125 29.546875 -1.3125 
Q 19.484375 -1.3125 14.109375 8.15625 
z
M 15.328125 19.34375 
Q 15.875 11.765625 20 8.34375 
Q 24.125 4.9375 28.71875 4.9375 
Q 34.578125 4.9375 38.15625 10.015625 
Q 41.75 15.09375 41.75 23.921875 
Q 41.75 33.453125 38.28125 38.890625 
Q 34.8125 44.34375 28.65625 44.34375 
Q 23.828125 44.34375 19.9375 40.453125 
Q 16.0625 36.578125 15.328125 30.421875 
z
" id="FranklinGothic-Book-98"/>
     </defs>
     <use xlink:href="#FranklinGothic-Book-65"/>
     <use x="53.564453" xlink:href="#FranklinGothic-Book-110"/>
     <use x="107.763672" xlink:href="#FranklinGothic-Book-116"/>
     <use x="138.525391" xlink:href="#FranklinGothic-Book-97"/>
     <use x="191.40625" xlink:href="#FranklinGothic-Book-114"/>
     <use x="222.865234" xlink:href="#FranklinGothic-Book-99"/>
     <use x="269.447266" xlink:href="#FranklinGothic-Book-116"/>
     <use x="300.208984" xlink:href="#FranklinGothic-Book-105"/>
     <use x="323.158203" xlink:href="#FranklinGothic-Book-99"/>
     <use x="369.740234" xlink:href="#FranklinGothic-Book-32"/>
     <use x="394.740234" xlink:href="#FranklinGothic-Book-105"/>
     <use x="417.689453" xlink:href="#FranklinGothic-Book-99"/>
     <use x="464.271484" xlink:href="#FranklinGothic-Book-101"/>
     <use x="516.322266" xlink:href="#FranklinGothic-Book-32"/>
     <use x="541.322266" xlink:href="#FranklinGothic-Book-115"/>
     <use x="587.708984" xlink:href="#FranklinGothic-Book-104"/>
     <use x="641.712891" xlink:href="#FranklinGothic-Book-101"/>
     <use x="693.763672" xlink:href="#FranklinGothic-Book-101"/>
     <use x="745.314453" xlink:href="#FranklinGothic-Book-116"/>
     <use x="776.076172" xlink:href="#FranklinGothic-Book-32"/>
     <use x="801.076172" xlink:href="#FranklinGothic-Book-99"/>
     <use x="847.658203" xlink:href="#FranklinGothic-Book-117"/>
     <use x="901.808594" xlink:href="#FranklinGothic-Book-109"/>
     <use x="983.205078" xlink:href="#FranklinGothic-Book-117"/>
     <use x="1037.355469" xlink:href="#FranklinGothic-Book-108"/>
     <use x="1060.353516" xlink:href="#FranklinGothic-Book-97"/>
     <use x="1113.234375" xlink:href="#FranklinGothic-Book-116"/>
     <use x="1143.996094" xlink:href="#FranklinGothic-Book-105"/>
     <use x="1166.945312" xlink:href="#FranklinGothic-Book-118"/>
     <use x="1210.464844" xlink:href="#FranklinGothic-Book-101"/>
     <use x="1262.515625" xlink:href="#FranklinGothic-Book-32"/>
     <use x="1287.515625" xlink:href="#FranklinGothic-Book-109"/>
     <use x="1368.912109" xlink:href="#FranklinGothic-Book-97"/>
     <use x="1421.792969" xlink:href="#FranklinGothic-Book-115"/>
     <use x="1468.179688" xlink:href="#FranklinGothic-Book-115"/>
     <use x="1514.566406" xlink:href="#FranklinGothic-Book-32"/>
     <use x="1539.566406" xlink:href="#FranklinGothic-Book-98"/>
     <use x="1593.277344" xlink:href="#FranklinGothic-Book-97"/>
     <use x="1646.158203" xlink:href="#FranklinGothic-Book-108"/>
     <use x="1669.15625" xlink:href="#FranklinGothic-Book-97"/>
     <use x="1722.037109" xlink:href="#FranklinGothic-Book-110"/>
     <use x="1776.236328" xlink:href="#FranklinGothic-Book-99"/>
     <use x="1822.818359" xlink:href="#FranklinGothic-Book-101"/>
    </g>
   </g>
   <g id="legend_1">
    <g id="line2d_15"/>
    <g id="text_18">
     <!-- IMBIE 2018 -->
     <g style="fill:#e69f00;" transform="translate(882.628625 129.7184)scale(0.2 -0.2)">
      <defs>
       <path d="M 16.703125 0 
L 8.34375 0 
L 8.34375 66.65625 
L 16.703125 66.65625 
z
" id="FranklinGothic-Book-73"/>
       <path d="M 72.703125 0 
L 64.59375 0 
L 64.59375 58.203125 
L 42.921875 0 
L 37.25 0 
L 15.4375 58.203125 
L 15.4375 0 
L 8.34375 0 
L 8.34375 66.65625 
L 20.75 66.65625 
L 40.828125 13.328125 
L 60.5 66.65625 
L 72.703125 66.65625 
z
" id="FranklinGothic-Book-77"/>
       <path d="M 8.34375 0 
L 8.34375 66.65625 
L 34.71875 66.65625 
Q 44.671875 66.65625 49.484375 61.765625 
Q 54.296875 56.890625 54.296875 50.4375 
Q 54.296875 39.109375 42.484375 35.40625 
Q 49.515625 33.59375 52.921875 28.953125 
Q 56.34375 24.3125 56.34375 18.453125 
Q 56.34375 10.59375 51.046875 5.296875 
Q 45.75 0 34.71875 0 
z
M 16.40625 38.09375 
L 30.90625 38.09375 
Q 39.9375 38.09375 42.96875 41.53125 
Q 46 44.96875 46 49.609375 
Q 46 54.203125 42.75 57.03125 
Q 39.5 59.859375 33.0625 59.859375 
L 16.40625 59.859375 
z
M 16.40625 7.328125 
L 34.28125 7.328125 
Q 40.828125 7.328125 44.390625 10.5 
Q 47.953125 13.671875 47.953125 18.75 
Q 47.953125 22.3125 46.34375 25.359375 
Q 44.734375 28.421875 41.796875 30.078125 
Q 38.875 31.734375 33.0625 31.734375 
L 16.40625 31.734375 
z
" id="FranklinGothic-Book-66"/>
       <path d="M 51.46875 7.328125 
L 51.46875 0 
L 8.34375 0 
L 8.34375 66.65625 
L 50.53125 66.65625 
L 50.53125 59.328125 
L 16.703125 59.328125 
L 16.703125 38.140625 
L 43.5625 38.140625 
L 43.5625 31.34375 
L 16.703125 31.34375 
L 16.703125 7.328125 
z
" id="FranklinGothic-Book-69"/>
       <path d="M 19.484375 34.578125 
Q 6.84375 40.09375 6.84375 50.59375 
Q 6.84375 58.203125 13.140625 63.109375 
Q 19.4375 68.015625 29.828125 68.015625 
Q 40.09375 68.015625 46.140625 63.296875 
Q 52.203125 58.59375 52.203125 50.984375 
Q 52.203125 40.375 39.265625 35.796875 
Q 49.703125 30.953125 52.359375 26.453125 
Q 55.03125 21.96875 55.03125 17.484375 
Q 55.03125 9.46875 48.21875 4.078125 
Q 41.40625 -1.3125 29.734375 -1.3125 
Q 17.28125 -1.3125 10.4375 4.171875 
Q 3.609375 9.671875 3.609375 17.234375 
Q 3.609375 28.515625 19.484375 34.578125 
z
M 29.59375 38.71875 
Q 37.984375 40.96875 41.453125 43.890625 
Q 44.921875 46.828125 44.921875 51.21875 
Q 44.921875 56.34375 40.796875 59 
Q 36.671875 61.671875 29.9375 61.671875 
Q 23.484375 61.671875 19.375 58.859375 
Q 15.28125 56.0625 15.28125 51.3125 
Q 15.28125 46.625 19.84375 43.203125 
Q 24.421875 39.796875 29.59375 38.71875 
z
M 28.65625 31.0625 
Q 11.765625 27.046875 11.765625 16.9375 
Q 11.765625 11.671875 16.375 8.328125 
Q 21 4.984375 29.984375 4.984375 
Q 37.59375 4.984375 42.234375 8.25 
Q 46.875 11.53125 46.875 16.609375 
Q 46.875 26.3125 28.65625 31.0625 
z
" id="FranklinGothic-Book-56"/>
      </defs>
      <use xlink:href="#FranklinGothic-Book-73"/>
      <use x="25" xlink:href="#FranklinGothic-Book-77"/>
      <use x="106.005859" xlink:href="#FranklinGothic-Book-66"/>
      <use x="166.455078" xlink:href="#FranklinGothic-Book-73"/>
      <use x="191.455078" xlink:href="#FranklinGothic-Book-69"/>
      <use x="246.240234" xlink:href="#FranklinGothic-Book-32"/>
      <use x="271.240234" xlink:href="#FranklinGothic-Book-50"/>
      <use x="329.882812" xlink:href="#FranklinGothic-Book-48"/>
      <use x="384.775391" xlink:href="#FranklinGothic-Book-49"/>
      <use x="442.792969" xlink:href="#FranklinGothic-Book-56"/>
     </g>
    </g>
    <g id="line2d_16"/>
    <g id="text_19">
     <!-- IMBIE 2021 -->
     <g style="fill:#d55e00;" transform="translate(882.628625 157.04965)scale(0.2 -0.2)">
      <use xlink:href="#FranklinGothic-Book-73"/>
      <use x="25" xlink:href="#FranklinGothic-Book-77"/>
      <use x="106.005859" xlink:href="#FranklinGothic-Book-66"/>
      <use x="166.455078" xlink:href="#FranklinGothic-Book-73"/>
      <use x="191.455078" xlink:href="#FranklinGothic-Book-69"/>
      <use x="246.240234" xlink:href="#FranklinGothic-Book-32"/>
      <use x="271.240234" xlink:href="#FranklinGothic-Book-50"/>
      <use x="329.882812" xlink:href="#FranklinGothic-Book-48"/>
      <use x="388.525391" xlink:href="#FranklinGothic-Book-50"/>
      <use x="443.667969" xlink:href="#FranklinGothic-Book-49"/>
     </g>
    </g>
    <g id="line2d_17"/>
    <g id="text_20">
     <!-- GRACE -->
     <g style="fill:#56b4e9;" transform="translate(882.628625 184.3809)scale(0.2 -0.2)">
      <defs>
       <path d="M 56.296875 0 
L 47.5625 0 
L 35.25 28.859375 
L 16.15625 28.859375 
L 16.15625 0 
L 8.34375 0 
L 8.34375 66.65625 
L 34.625 66.65625 
Q 45.3125 66.65625 50.453125 60.8125 
Q 55.609375 54.984375 55.609375 48.046875 
Q 55.609375 42.71875 52.734375 37.828125 
Q 49.859375 32.953125 43.21875 30.859375 
z
M 16.15625 35.640625 
L 33.59375 35.640625 
Q 40.484375 35.640625 43.875 39.28125 
Q 47.265625 42.921875 47.265625 48.1875 
Q 47.265625 53.46875 43.671875 56.390625 
Q 40.09375 59.328125 34.625 59.328125 
L 16.15625 59.328125 
z
" id="FranklinGothic-Book-82"/>
       <path d="M 48.296875 22.40625 
L 55.90625 20.703125 
Q 50.4375 -1.3125 31.203125 -1.3125 
Q 18.5625 -1.3125 11.359375 8.890625 
Q 4.15625 19.09375 4.15625 33.984375 
Q 4.15625 49.359375 11.671875 58.6875 
Q 19.1875 68.015625 31.84375 68.015625 
Q 50.59375 68.015625 55.90625 46.578125 
L 48.046875 45.015625 
Q 43.75 60.9375 31.78125 60.9375 
Q 22.953125 60.9375 18.09375 53.53125 
Q 13.234375 46.140625 13.234375 32.765625 
Q 13.234375 20.515625 18.203125 13.109375 
Q 23.1875 5.71875 31.390625 5.71875 
Q 44.140625 5.71875 48.296875 22.40625 
z
" id="FranklinGothic-Book-67"/>
      </defs>
      <use xlink:href="#FranklinGothic-Book-71"/>
      <use x="64.697266" xlink:href="#FranklinGothic-Book-82"/>
      <use x="125.976562" xlink:href="#FranklinGothic-Book-65"/>
      <use x="177.041016" xlink:href="#FranklinGothic-Book-67"/>
      <use x="234.951172" xlink:href="#FranklinGothic-Book-69"/>
     </g>
    </g>
   </g>
   <g id="line2d_18">
    <path clip-path="url(#p4d1ec35048)" d="M 458.843556 162.732715 
L 461.073327 159.747558 
L 467.762637 169.674852 
L 469.992408 156.73917 
L 472.222178 153.848226 
L 474.451948 170.668613 
L 476.681718 168.42297 
L 478.911489 169.101825 
L 481.141259 188.324019 
L 483.371029 184.213459 
L 485.600799 167.607311 
L 487.830569 162.137749 
L 492.29011 178.316708 
L 494.51988 177.670118 
L 496.74965 178.733572 
L 498.979421 168.055149 
L 501.209191 175.676141 
L 503.438961 197.014918 
L 505.668731 204.8295 
L 507.898501 225.242918 
L 510.128272 205.571595 
L 512.358042 211.674842 
L 514.587812 182.019439 
L 516.817582 186.230666 
L 519.047353 202.314121 
L 521.277123 183.52815 
L 523.506893 182.920278 
L 525.736663 173.020086 
L 527.966434 191.344023 
L 530.196204 201.490718 
L 532.425974 212.59633 
L 534.655744 220.649673 
L 536.885514 214.321862 
L 539.115285 194.462112 
L 541.345055 191.643442 
L 543.574825 188.582139 
L 545.804595 182.627311 
L 548.034366 189.054499 
L 550.264136 176.575689 
L 552.493906 175.642585 
L 554.723676 169.642587 
L 556.953447 183.18356 
L 559.183217 191.009757 
L 561.412987 203.020079 
L 563.642757 185.653768 
L 565.872527 182.364029 
L 568.102298 172.323162 
L 570.332068 168.501696 
L 572.561838 174.888875 
L 574.791608 163.201203 
L 577.021379 164.82994 
L 579.251149 174.460396 
L 581.480919 173.4576 
L 583.710689 192.265511 
L 585.94046 218.607944 
L 588.17023 217.410267 
L 590.4 208.52965 
L 592.62977 205.340578 
L 594.85954 185.069126 
L 597.089311 186.651402 
L 599.319081 196.604508 
L 601.548851 191.889946 
L 603.778621 182.420815 
L 606.008392 193.890376 
L 608.238162 218.699576 
L 610.467932 229.303145 
L 612.697702 256.068894 
L 614.927473 240.41779 
L 617.157243 257.45758 
L 619.387013 234.58557 
L 621.616783 223.104394 
L 623.846553 233.867996 
L 626.076324 246.073199 
L 628.306094 239.824114 
L 630.535864 219.0945 
L 632.765634 230.75636 
L 634.995405 229.192153 
L 637.225175 242.65569 
L 639.454945 253.144395 
L 641.684715 249.881759 
L 643.914486 241.762595 
L 646.144256 236.761521 
L 648.374026 233.362081 
L 650.603796 231.775934 
L 652.833566 218.682799 
L 655.063337 222.552017 
L 657.293107 224.242703 
L 659.522877 231.442959 
L 661.752647 229.527709 
L 663.982418 243.642999 
L 666.212188 265.647726 
L 668.441958 266.402727 
L 670.671728 251.123316 
L 672.901499 260.056848 
L 675.131269 262.906492 
L 677.361039 265.008879 
L 679.590809 290.811842 
L 681.820579 281.325933 
L 684.05035 271.25022 
L 686.28012 275.367233 
L 688.50989 277.96263 
L 690.73966 279.617179 
L 695.199201 291.468757 
L 699.658741 294.839804 
L 701.888511 286.284417 
L 706.348052 279.588785 
L 708.577822 281.59954 
L 710.807592 270.08868 
L 713.037363 275.977687 
L 713.037363 275.40208 
L 719.726673 309.908847 
L 719.726673 300.815281 
L 721.956444 308.987359 
L 724.186214 306.009945 
L 726.415984 298.186329 
L 730.875524 302.966711 
L 733.105295 298.649654 
L 735.335065 288.411326 
L 737.564835 284.112338 
L 742.024376 299.86798 
L 744.254146 305.893791 
L 746.483916 327.742355 
L 748.713686 341.644697 
L 753.173227 308.298179 
L 755.402997 321.33969 
L 757.632767 322.485742 
L 759.862537 317.66148 
L 766.551848 329.484665 
L 768.781618 335.487245 
L 771.011389 342.16868 
L 773.241159 356.274936 
L 777.700699 369.995303 
L 779.93047 359.711804 
L 782.16024 347.479499 
L 784.39001 353.302685 
L 788.84955 359.565966 
L 791.079321 337.282469 
L 793.309091 348.662979 
L 795.538861 358.359255 
L 799.998402 397.612849 
L 802.228172 407.544014 
L 804.457942 402.936573 
L 806.687712 400.234057 
L 806.687712 390.892695 
L 813.377023 386.764066 
L 815.606793 406.209534 
L 817.836563 400.097253 
L 824.525874 405.801704 
L 826.755644 408.63199 
L 828.985415 418.321813 
L 831.215185 410.033581 
L 835.674725 392.425928 
L 837.904496 390.189318 
L 840.134266 374.878933 
L 842.364036 367.940668 
L 849.053347 377.08973 
L 851.283117 365.851187 
L 853.512887 368.379472 
L 860.202198 409.681248 
L 860.202198 399.61715 
L 862.431968 395.192974 
L 864.661738 394.823862 
L 891.418981 416.929256 
L 893.648751 418.920652 
L 900.338062 452.39752 
L 902.567832 447.793951 
L 904.797602 454.519267 
L 907.027373 466.226298 
L 909.257143 471.799108 
L 911.486913 459.400315 
L 913.716683 436.165646 
L 915.946454 443.054868 
L 918.176224 454.929677 
L 920.405994 442.570893 
L 922.635764 448.382464 
L 924.865534 432.206086 
L 927.095305 455.871815 
L 929.325075 463.712209 
L 931.554845 469.514746 
L 933.784615 509.314263 
L 936.014386 523.478596 
L 938.244156 499.992261 
L 940.473926 487.825776 
L 942.703696 477.712636 
L 944.933467 473.367186 
L 947.163237 464.493022 
L 949.393007 450.532604 
L 951.622777 474.706829 
L 953.852547 487.730272 
L 956.082318 493.611535 
L 958.312088 513.382234 
L 960.541858 554.04 
L 962.771628 513.318994 
L 965.001399 507.240269 
L 967.231169 479.927305 
L 969.460939 477.685533 
L 971.690709 498.977849 
L 973.92048 504.937839 
L 976.15025 498.852661 
L 978.38002 507.526782 
L 980.60979 488.402674 
L 982.83956 531.516452 
L 985.069331 516.781674 
L 987.299101 511.402454 
L 989.528871 505.730267 
L 991.758641 501.142185 
L 993.988412 458.295562 
L 996.218182 439.61542 
L 996.218182 439.61542 
" style="fill:none;stroke:#56b4e9;stroke-linecap:round;stroke-width:1.5;"/>
   </g>
   <g id="line2d_19">
    <path clip-path="url(#p4d1ec35048)" d="M 184.581818 104.865304 
L 189.041359 104.213551 
L 193.500899 107.023948 
L 209.109291 111.199426 
L 238.096304 122.507971 
L 264.853546 134.121021 
L 273.772627 138.326659 
L 296.07033 145.876836 
L 302.75964 148.06954 
L 316.138262 150.476031 
L 345.125275 151.590438 
L 371.882517 153.3515 
L 403.099301 156.599282 
L 425.397003 159.276644 
L 454.384016 163.568082 
L 463.303097 164.808245 
L 476.681718 167.18229 
L 483.371029 169.33465 
L 490.06034 171.446445 
L 494.51988 172.892343 
L 498.979421 174.54493 
L 505.668731 177.046848 
L 514.587812 180.112978 
L 530.196204 184.986128 
L 539.115285 187.471565 
L 550.264136 190.333728 
L 556.953447 192.345141 
L 570.332068 197.325114 
L 574.791608 199.135722 
L 581.480919 202.192521 
L 585.94046 204.450554 
L 601.548851 213.072135 
L 614.927473 220.519374 
L 621.616783 224.063167 
L 632.765634 229.842925 
L 639.454945 233.516992 
L 659.522877 244.063141 
L 663.982418 246.594278 
L 679.590809 256.810357 
L 690.73966 265.082611 
L 699.658741 272.694337 
L 713.037363 283.628066 
L 719.726673 288.846903 
L 726.415984 293.863 
L 744.254146 308.836707 
L 773.241159 335.140306 
L 797.768631 358.923596 
L 802.228172 361.896105 
L 811.147253 367.470903 
L 824.525874 375.458283 
L 833.444955 378.621969 
L 840.134266 380.657297 
L 849.053347 383.132461 
L 851.283117 383.707578 
L 860.202198 387.504613 
L 866.891508 389.515935 
L 873.580819 391.899066 
L 878.04036 393.56856 
L 884.72967 398.534195 
L 893.648751 404.824062 
L 900.338062 411.575229 
L 907.027373 418.605732 
L 911.486913 422.251587 
L 933.784615 439.597197 
L 958.312088 449.850044 
L 958.312088 449.850044 
" style="fill:none;stroke:#d55e00;stroke-linecap:round;stroke-width:1.5;"/>
   </g>
   <g id="line2d_20">
    <path clip-path="url(#p4d1ec35048)" d="M 186.811588 102.408641 
L 189.041359 101.353576 
L 191.271129 102.522238 
L 197.96044 102.94306 
L 204.64975 102.203955 
L 206.87952 102.324078 
L 209.109291 102.157907 
L 211.339061 101.775597 
L 213.568831 101.23931 
L 218.028372 100.483768 
L 220.258142 100.44 
L 222.487912 101.014412 
L 224.717682 101.812217 
L 229.177223 104.116825 
L 231.406993 105.587664 
L 233.636763 106.896441 
L 238.096304 109.312778 
L 240.326074 110.857545 
L 249.245155 115.99112 
L 255.934466 119.961495 
L 262.623776 124.586866 
L 264.853546 125.966978 
L 267.083317 127.097896 
L 271.542857 128.189887 
L 273.772627 128.358808 
L 278.232168 128.528414 
L 282.691708 129.079923 
L 284.921479 129.332582 
L 291.610789 130.763456 
L 296.07033 131.61709 
L 298.3001 131.764085 
L 302.75964 131.608215 
L 309.448951 131.476921 
L 311.678721 132.097901 
L 318.368032 134.477987 
L 320.597802 135.392252 
L 322.827572 136.040787 
L 325.057343 136.293463 
L 327.287113 136.337257 
L 329.516883 136.245408 
L 333.976424 136.582797 
L 336.206194 136.936748 
L 338.435964 137.518155 
L 340.665734 137.677857 
L 342.895504 138.053652 
L 345.125275 138.647647 
L 347.355045 138.799343 
L 351.814585 138.779979 
L 354.044356 138.406075 
L 356.274126 137.829816 
L 360.733666 137.047784 
L 362.963437 137.059224 
L 365.193207 137.552687 
L 367.422977 138.212268 
L 369.652747 139.712244 
L 371.882517 141.542314 
L 374.112288 143.13079 
L 376.342058 144.945669 
L 378.571828 146.11223 
L 380.801598 146.832419 
L 385.261139 147.816061 
L 387.490909 148.337331 
L 389.720679 148.680887 
L 398.63976 151.702573 
L 403.099301 152.529993 
L 409.788611 152.656064 
L 416.477922 153.295621 
L 418.707692 153.947898 
L 420.937463 154.240494 
L 427.626773 156.119234 
L 432.086314 157.415017 
L 434.316084 157.924911 
L 436.545854 158.009481 
L 438.775624 157.909419 
L 441.005395 157.925376 
L 447.694705 157.691851 
L 452.154246 158.058467 
L 454.384016 158.091221 
L 456.613786 157.76698 
L 458.843556 157.307792 
L 463.303097 156.703274 
L 467.762637 157.543356 
L 469.992408 158.239166 
L 476.681718 161.008462 
L 478.911489 161.800434 
L 481.141259 162.445422 
L 485.600799 163.417305 
L 490.06034 164.251763 
L 492.29011 164.860346 
L 494.51988 165.782403 
L 496.74965 167.181598 
L 498.979421 168.979151 
L 501.209191 170.988979 
L 503.438961 172.80988 
L 507.898501 175.619274 
L 512.358042 178.766871 
L 514.587812 179.936232 
L 516.817582 180.420549 
L 519.047353 180.388537 
L 521.277123 180.162673 
L 523.506893 180.244525 
L 525.736663 180.846972 
L 527.966434 181.896515 
L 532.425974 184.375726 
L 534.655744 185.517823 
L 539.115285 188.061529 
L 541.345055 188.728619 
L 543.574825 188.582139 
L 548.034366 187.422175 
L 550.264136 186.836705 
L 552.493906 186.511967 
L 554.723676 186.400716 
L 559.183217 186.555809 
L 561.412987 186.707879 
L 565.872527 187.599567 
L 572.561838 189.020759 
L 574.791608 189.864957 
L 577.021379 191.142689 
L 579.251149 192.899333 
L 585.94046 198.861793 
L 590.4 203.394765 
L 592.62977 205.250627 
L 597.089311 208.584093 
L 599.319081 210.280556 
L 601.548851 212.211305 
L 603.778621 214.531706 
L 608.238162 220.145904 
L 612.697702 225.669799 
L 617.157243 230.90989 
L 619.387013 233.177929 
L 621.616783 234.957401 
L 623.846553 236.270151 
L 628.306094 238.104187 
L 632.765634 239.562158 
L 634.995405 240.062986 
L 637.225175 240.368765 
L 639.454945 240.366986 
L 641.684715 240.513554 
L 643.914486 241.061525 
L 648.374026 242.498932 
L 652.833566 243.626533 
L 655.063337 244.442979 
L 657.293107 245.533895 
L 661.752647 248.100088 
L 663.982418 249.85099 
L 666.212188 251.872574 
L 668.441958 254.35412 
L 672.901499 260.053649 
L 675.131269 262.783977 
L 690.73966 279.524311 
L 697.428971 285.457041 
L 701.888511 289.67374 
L 704.118282 291.500301 
L 706.348052 292.779761 
L 713.037363 295.69367 
L 715.267133 297.129548 
L 717.496903 298.728126 
L 719.726673 300.57572 
L 721.956444 302.955931 
L 726.415984 308.604784 
L 728.645754 311.061522 
L 730.875524 313.058459 
L 733.105295 314.694363 
L 737.564835 318.547008 
L 739.794605 320.620898 
L 746.483916 327.600462 
L 748.713686 330.250446 
L 750.943457 333.159197 
L 753.173227 335.821211 
L 755.402997 338.301843 
L 759.862537 342.687012 
L 762.092308 345.222825 
L 764.322078 348.255777 
L 766.551848 351.837269 
L 768.781618 355.655265 
L 773.241159 362.414609 
L 777.700699 369.018478 
L 779.93047 371.836017 
L 782.16024 374.348404 
L 788.84955 381.022711 
L 791.079321 383.603101 
L 795.538861 389.693545 
L 797.768631 392.750638 
L 802.228172 399.80581 
L 806.687712 407.464149 
L 808.917483 410.976042 
L 811.147253 413.766492 
L 813.377023 416.270082 
L 817.836563 420.721264 
L 820.066334 422.849212 
L 822.296104 425.154015 
L 824.525874 427.784958 
L 826.755644 429.077198 
L 840.134266 426.686757 
L 864.661738 446.927557 
L 864.661738 446.927557 
" style="fill:none;stroke:#e69f00;stroke-linecap:round;stroke-width:1.5;"/>
   </g>
  </g>
 </g>
 <defs>
  <clipPath id="p4d1ec35048">
   <rect height="498.96" width="892.8" x="144" y="77.76"/>
  </clipPath>
 </defs>
</svg>
