<?xml version="1.0" encoding="utf-8" standalone="no"?>
<!DOCTYPE svg PUBLIC "-//W3C//DTD SVG 1.1//EN"
  "http://www.w3.org/Graphics/SVG/1.1/DTD/svg11.dtd">
<!-- Created with matplotlib (https://matplotlib.org/) -->
<svg height="648pt" version="1.1" viewBox="0 0 1152 648" width="1152pt" xmlns="http://www.w3.org/2000/svg" xmlns:xlink="http://www.w3.org/1999/xlink">
 <metadata>
  <rdf:RDF xmlns:cc="http://creativecommons.org/ns#" xmlns:dc="http://purl.org/dc/elements/1.1/" xmlns:rdf="http://www.w3.org/1999/02/22-rdf-syntax-ns#">
   <cc:Work>
    <dc:type rdf:resource="http://purl.org/dc/dcmitype/StillImage"/>
    <dc:date>2023-01-30T16:52:58.496807</dc:date>
    <dc:format>image/svg+xml</dc:format>
    <dc:creator>
     <cc:Agent>
      <dc:title>Matplotlib v3.3.1, https://matplotlib.org/</dc:title>
     </cc:Agent>
    </dc:creator>
   </cc:Work>
  </rdf:RDF>
 </metadata>
 <defs>
  <style type="text/css">*{stroke-linecap:butt;stroke-linejoin:round;}</style>
 </defs>
 <g id="figure_1">
  <g id="patch_1">
   <path d="M 0 648 
L 1152 648 
L 1152 0 
L 0 0 
z
" style="fill:#ffffff;"/>
  </g>
  <g id="axes_1">
   <g id="patch_2">
    <path d="M 144 576.72 
L 1036.8 576.72 
L 1036.8 77.76 
L 144 77.76 
z
" style="fill:none;"/>
   </g>
   <g id="patch_3">
    <path d="M 144 576.72 
L 1036.8 576.72 
" style="fill:none;stroke:#d3d3d3;stroke-linecap:square;stroke-linejoin:miter;stroke-width:1.25;"/>
   </g>
   <g id="matplotlib.axis_1">
    <g id="xtick_1">
     <g id="line2d_1">
      <defs>
       <path d="M 0 0 
L 0 6 
" id="mbb3b1c8409" style="stroke:#696969;stroke-width:1.25;"/>
      </defs>
      <g>
       <use style="fill:#696969;stroke:#696969;stroke-width:1.25;" x="313.016583" xlink:href="#mbb3b1c8409" y="576.72"/>
      </g>
     </g>
     <g id="text_1">
      <!-- 1990 -->
      <g style="fill:#696969;" transform="translate(295.527521 596.218438)scale(0.15 -0.15)">
       <defs>
        <path d="M 55.859375 6.203125 
L 55.859375 0 
L 9.1875 0 
L 9.1875 6.203125 
L 29.203125 6.203125 
L 29.203125 57.671875 
Q 20.359375 48.4375 10.84375 43.265625 
L 10.84375 51.65625 
Q 23.96875 58.546875 31.203125 68.015625 
L 37.15625 68.015625 
L 37.15625 6.203125 
z
" id="FranklinGothic-Book-49"/>
        <path d="M 5.71875 12.15625 
L 12.40625 14.59375 
Q 16.546875 5.375 26.375 5.375 
Q 35.890625 5.375 40.703125 13.375 
Q 45.515625 21.390625 45.65625 35.109375 
Q 39.109375 23.09375 25.984375 23.09375 
Q 16.703125 23.09375 10.40625 29.421875 
Q 4.109375 35.75 4.109375 45.0625 
Q 4.109375 54.546875 10.71875 61.28125 
Q 17.328125 68.015625 27.59375 68.015625 
Q 40.140625 68.015625 46.828125 59.203125 
Q 53.515625 50.390625 53.515625 34.96875 
Q 53.515625 18.75 46.4375 8.71875 
Q 39.359375 -1.3125 26.265625 -1.3125 
Q 10.984375 -1.3125 5.71875 12.15625 
z
M 27.828125 29.78125 
Q 34.71875 29.78125 39.375 34.59375 
Q 44.046875 39.40625 44.046875 45.84375 
Q 44.046875 52.09375 39.625 56.578125 
Q 35.203125 61.078125 27.984375 61.078125 
Q 20.65625 61.078125 16.40625 56.46875 
Q 12.15625 51.859375 12.15625 45.21875 
Q 12.15625 38.09375 16.859375 33.9375 
Q 21.578125 29.78125 27.828125 29.78125 
z
" id="FranklinGothic-Book-57"/>
        <path d="M 29.390625 -1.3125 
Q 17.875 -1.3125 10.984375 8.671875 
Q 4.109375 18.65625 4.109375 33.453125 
Q 4.109375 48 10.640625 58 
Q 17.1875 68.015625 29.15625 68.015625 
Q 41.65625 68.015625 48.125 57.5625 
Q 54.59375 47.125 54.59375 33.0625 
Q 54.59375 19.28125 47.953125 8.984375 
Q 41.3125 -1.3125 29.390625 -1.3125 
z
M 29.4375 5.21875 
Q 37.890625 5.21875 41.9375 12.859375 
Q 46 20.515625 46 32.078125 
Q 46 44.734375 41.84375 53.125 
Q 37.703125 61.53125 29.046875 61.53125 
Q 20.703125 61.53125 16.625 53.859375 
Q 12.546875 46.1875 12.546875 33.6875 
Q 12.546875 20.703125 16.84375 12.953125 
Q 21.140625 5.21875 29.4375 5.21875 
z
" id="FranklinGothic-Book-48"/>
       </defs>
       <use xlink:href="#FranklinGothic-Book-49"/>
       <use x="57.267578" xlink:href="#FranklinGothic-Book-57"/>
       <use x="115.910156" xlink:href="#FranklinGothic-Book-57"/>
       <use x="174.552734" xlink:href="#FranklinGothic-Book-48"/>
      </g>
     </g>
    </g>
    <g id="xtick_2">
     <g id="line2d_2">
      <g>
       <use style="fill:#696969;stroke:#696969;stroke-width:1.25;" x="527.074525" xlink:href="#mbb3b1c8409" y="576.72"/>
      </g>
     </g>
     <g id="text_2">
      <!-- 2000 -->
      <g style="fill:#696969;" transform="translate(509.482338 596.218438)scale(0.15 -0.15)">
       <defs>
        <path d="M 52.484375 6.9375 
L 52.484375 0 
L 5.171875 0 
L 5.171875 6.9375 
Q 33.203125 27.9375 38.59375 34.59375 
Q 44 41.265625 44 47.796875 
Q 44 53.90625 39.453125 57.65625 
Q 34.90625 61.421875 29 61.421875 
Q 22.90625 61.421875 18.21875 57.296875 
Q 13.53125 53.171875 12.9375 46.09375 
L 5.171875 48.4375 
Q 10.0625 68.015625 29.109375 68.015625 
Q 39.40625 68.015625 45.84375 62.15625 
Q 52.296875 56.296875 52.296875 47.859375 
Q 52.296875 42.046875 49.234375 36.671875 
Q 46.1875 31.296875 37.6875 23.828125 
Q 29.203125 16.359375 15.71875 6.9375 
z
" id="FranklinGothic-Book-50"/>
       </defs>
       <use xlink:href="#FranklinGothic-Book-50"/>
       <use x="58.642578" xlink:href="#FranklinGothic-Book-48"/>
       <use x="117.285156" xlink:href="#FranklinGothic-Book-48"/>
       <use x="175.927734" xlink:href="#FranklinGothic-Book-48"/>
      </g>
     </g>
    </g>
    <g id="xtick_3">
     <g id="line2d_3">
      <g>
       <use style="fill:#696969;stroke:#696969;stroke-width:1.25;" x="741.132468" xlink:href="#mbb3b1c8409" y="576.72"/>
      </g>
     </g>
     <g id="text_3">
      <!-- 2010 -->
      <g style="fill:#696969;" transform="translate(724.06528 596.218438)scale(0.15 -0.15)">
       <use xlink:href="#FranklinGothic-Book-50"/>
       <use x="58.642578" xlink:href="#FranklinGothic-Book-48"/>
       <use x="113.535156" xlink:href="#FranklinGothic-Book-49"/>
       <use x="168.927734" xlink:href="#FranklinGothic-Book-48"/>
      </g>
     </g>
    </g>
    <g id="xtick_4">
     <g id="line2d_4">
      <g>
       <use style="fill:#696969;stroke:#696969;stroke-width:1.25;" x="955.19041" xlink:href="#mbb3b1c8409" y="576.72"/>
      </g>
     </g>
     <g id="text_4">
      <!-- 2020 -->
      <g style="fill:#696969;" transform="translate(937.598222 596.218438)scale(0.15 -0.15)">
       <use xlink:href="#FranklinGothic-Book-50"/>
       <use x="58.642578" xlink:href="#FranklinGothic-Book-48"/>
       <use x="117.285156" xlink:href="#FranklinGothic-Book-50"/>
       <use x="175.927734" xlink:href="#FranklinGothic-Book-48"/>
      </g>
     </g>
    </g>
    <g id="text_5">
     <!-- Year -->
     <g style="fill:#696969;" transform="translate(572.109375 616.048125)scale(0.2 -0.2)">
      <defs>
       <path d="M 52 66.65625 
L 29.6875 28.03125 
L 29.6875 0 
L 21.34375 0 
L 21.34375 28.03125 
L -0.984375 66.65625 
L 8.84375 66.65625 
L 26.5625 35.984375 
L 44.390625 66.65625 
z
" id="FranklinGothic-Book-89"/>
       <path d="M 40.234375 14.703125 
L 47.359375 13.234375 
Q 45.40625 6.9375 39.734375 2.8125 
Q 34.078125 -1.3125 26.421875 -1.3125 
Q 16.3125 -1.3125 10.0625 5.78125 
Q 3.8125 12.890625 3.8125 24.421875 
Q 3.8125 36.1875 10.296875 43.4375 
Q 16.796875 50.6875 26.609375 50.6875 
Q 36.28125 50.6875 42.15625 44 
Q 48.046875 37.3125 48.1875 23.96875 
L 12.359375 23.96875 
Q 12.359375 12.796875 17.046875 8.890625 
Q 21.734375 4.984375 26.953125 4.984375 
Q 36.375 4.984375 40.234375 14.703125 
z
M 39.796875 29.6875 
Q 39.703125 33.84375 38.421875 37.0625 
Q 37.15625 40.28125 34.125 42.546875 
Q 31.109375 44.828125 26.859375 44.828125 
Q 21.140625 44.828125 17.15625 40.71875 
Q 13.1875 36.625 12.703125 29.6875 
z
" id="FranklinGothic-Book-101"/>
       <path d="M 46.296875 0 
L 38.671875 0 
Q 38.234375 2.34375 37.796875 8.890625 
Q 32.71875 -1.3125 20.515625 -1.3125 
Q 12.203125 -1.3125 7.765625 3.078125 
Q 3.328125 7.46875 3.328125 13.625 
Q 3.328125 21.09375 9.671875 25.90625 
Q 16.015625 30.71875 31.25 30.71875 
Q 33.296875 30.71875 37.796875 30.515625 
Q 37.796875 36.375 36.890625 38.984375 
Q 35.984375 41.609375 33.046875 43.171875 
Q 30.125 44.734375 25.34375 44.734375 
Q 13.671875 44.734375 11.765625 35.84375 
L 4.6875 37.0625 
Q 7.28125 50.6875 26.46875 50.6875 
Q 36.671875 50.6875 40.9375 46.171875 
Q 45.21875 41.65625 45.21875 30.515625 
L 45.21875 9.578125 
Q 45.21875 4.34375 46.296875 0 
z
M 37.796875 24.65625 
Q 33.109375 24.953125 30.671875 24.953125 
Q 21.578125 24.953125 16.546875 21.96875 
Q 11.53125 19 11.53125 13.28125 
Q 11.53125 9.671875 14.234375 7.125 
Q 16.9375 4.59375 22.078125 4.59375 
Q 29 4.59375 33.46875 9.625 
Q 37.9375 14.65625 37.9375 21.4375 
Q 37.9375 22.796875 37.796875 24.65625 
z
" id="FranklinGothic-Book-97"/>
       <path d="M 15.328125 0 
L 7.671875 0 
L 7.671875 49.3125 
L 14.40625 49.3125 
L 14.40625 37.796875 
Q 17.96875 45.953125 21.546875 48.359375 
Q 25.140625 50.78125 28.90625 50.78125 
Q 30.078125 50.78125 31.9375 50.59375 
L 31.9375 43.265625 
L 30.375 43.265625 
Q 24.03125 43.265625 19.828125 38.53125 
Q 15.625 33.796875 15.328125 26.078125 
z
" id="FranklinGothic-Book-114"/>
      </defs>
      <use xlink:href="#FranklinGothic-Book-89"/>
      <use x="45.025391" xlink:href="#FranklinGothic-Book-101"/>
      <use x="97.076172" xlink:href="#FranklinGothic-Book-97"/>
      <use x="149.957031" xlink:href="#FranklinGothic-Book-114"/>
     </g>
    </g>
   </g>
   <g id="matplotlib.axis_2">
    <g id="ytick_1">
     <g id="line2d_5">
      <path clip-path="url(#pb6fc14af54)" d="M 144 563.731545 
L 1036.8 563.731545 
" style="fill:none;stroke:#d3d3d3;stroke-linecap:round;stroke-opacity:0.5;"/>
     </g>
     <g id="text_6">
      <!-- 340 -->
      <g style="fill:#696969;" transform="translate(108.111719 568.730764)scale(0.15 -0.15)">
       <defs>
        <path d="M 19.34375 31.34375 
L 19.34375 37.984375 
L 26.953125 37.984375 
Q 35.296875 37.984375 38.890625 41.40625 
Q 42.484375 44.828125 42.484375 49.703125 
Q 42.484375 55.078125 38.46875 58.21875 
Q 34.46875 61.375 28.421875 61.375 
Q 17.1875 61.375 12.890625 50.53125 
L 5.375 52.6875 
Q 11.8125 68.015625 29.203125 68.015625 
Q 38.96875 68.015625 44.96875 62.8125 
Q 50.984375 57.625 50.984375 50.296875 
Q 50.984375 44.625 47.359375 40.40625 
Q 43.75 36.1875 38.09375 35.109375 
Q 44.4375 34.1875 49 29.78125 
Q 53.5625 25.390625 53.5625 18.40625 
Q 53.5625 10.0625 46.765625 4.375 
Q 39.984375 -1.3125 28.171875 -1.3125 
Q 18.796875 -1.3125 12.125 3.125 
Q 5.46875 7.5625 2.9375 14.9375 
L 10.6875 17.53125 
Q 14.203125 5.46875 28.03125 5.46875 
Q 37.015625 5.46875 40.9375 9.296875 
Q 44.875 13.140625 44.875 18.453125 
Q 44.875 24.21875 40.15625 27.78125 
Q 35.453125 31.34375 26.953125 31.34375 
z
" id="FranklinGothic-Book-51"/>
        <path d="M 44.09375 0 
L 36.03125 0 
L 36.03125 15.875 
L 3.078125 15.875 
L 3.078125 21.484375 
L 33.640625 68.0625 
L 44.09375 68.0625 
L 44.09375 22.46875 
L 54.890625 22.46875 
L 54.890625 15.875 
L 44.09375 15.875 
z
M 36.03125 22.46875 
L 36.03125 54 
Q 36.03125 57.421875 36.1875 61.375 
Q 34.078125 57.515625 32.5625 55.125 
L 11.765625 22.46875 
z
" id="FranklinGothic-Book-52"/>
       </defs>
       <use xlink:href="#FranklinGothic-Book-51"/>
       <use x="58.642578" xlink:href="#FranklinGothic-Book-52"/>
       <use x="117.285156" xlink:href="#FranklinGothic-Book-48"/>
      </g>
     </g>
    </g>
    <g id="ytick_2">
     <g id="line2d_6">
      <path clip-path="url(#pb6fc14af54)" d="M 144 504.274212 
L 1036.8 504.274212 
" style="fill:none;stroke:#d3d3d3;stroke-linecap:round;stroke-opacity:0.5;"/>
     </g>
     <g id="text_7">
      <!-- 350 -->
      <g style="fill:#696969;" transform="translate(108.111719 509.27343)scale(0.15 -0.15)">
       <defs>
        <path d="M 48.875 66.65625 
L 48.1875 59.46875 
L 15.4375 59.46875 
L 14.015625 37.84375 
Q 21.4375 45.125 30.328125 45.125 
Q 39.703125 45.125 46.515625 38.625 
Q 53.328125 32.125 53.328125 22.015625 
Q 53.328125 11.765625 45.921875 5.21875 
Q 38.53125 -1.3125 27.828125 -1.3125 
Q 19.4375 -1.3125 12.890625 3.078125 
Q 6.34375 7.46875 4.296875 14.453125 
L 11.421875 16.890625 
Q 15.828125 5.28125 27.9375 5.28125 
Q 35.890625 5.28125 40.578125 9.984375 
Q 45.265625 14.703125 45.265625 22.015625 
Q 45.265625 29.6875 40.625 33.984375 
Q 35.984375 38.28125 29.5 38.28125 
Q 20.015625 38.28125 13.8125 29.203125 
L 7.234375 30.609375 
L 9.375 66.65625 
z
" id="FranklinGothic-Book-53"/>
       </defs>
       <use xlink:href="#FranklinGothic-Book-51"/>
       <use x="58.642578" xlink:href="#FranklinGothic-Book-53"/>
       <use x="117.285156" xlink:href="#FranklinGothic-Book-48"/>
      </g>
     </g>
    </g>
    <g id="ytick_3">
     <g id="line2d_7">
      <path clip-path="url(#pb6fc14af54)" d="M 144 444.816878 
L 1036.8 444.816878 
" style="fill:none;stroke:#d3d3d3;stroke-linecap:round;stroke-opacity:0.5;"/>
     </g>
     <g id="text_8">
      <!-- 360 -->
      <g style="fill:#696969;" transform="translate(108.111719 449.816096)scale(0.15 -0.15)">
       <defs>
        <path d="M 53.5625 53.03125 
L 46.046875 50.984375 
Q 42.1875 61.140625 31.984375 61.140625 
Q 13.234375 61.140625 12.796875 30.125 
Q 15.765625 37.015625 21.234375 40.328125 
Q 26.703125 43.65625 32.8125 43.65625 
Q 42.09375 43.65625 48.359375 37.1875 
Q 54.640625 30.71875 54.640625 21.6875 
Q 54.640625 12.3125 47.96875 5.5 
Q 41.3125 -1.3125 30.90625 -1.3125 
Q 19.09375 -1.3125 12.078125 7.59375 
Q 5.078125 16.5 5.078125 31.84375 
Q 5.078125 46.828125 11.6875 57.421875 
Q 18.3125 68.015625 32.171875 68.015625 
Q 48.140625 68.015625 53.5625 53.03125 
z
M 30.765625 5.375 
Q 37.84375 5.375 42.359375 10.03125 
Q 46.875 14.703125 46.875 21.234375 
Q 46.875 27.6875 42.453125 32.296875 
Q 38.03125 36.921875 31.5 36.921875 
Q 24.75 36.921875 19.71875 32.078125 
Q 14.703125 27.25 14.703125 20.75 
Q 14.703125 14.75 19.1875 10.0625 
Q 23.6875 5.375 30.765625 5.375 
z
" id="FranklinGothic-Book-54"/>
       </defs>
       <use xlink:href="#FranklinGothic-Book-51"/>
       <use x="58.642578" xlink:href="#FranklinGothic-Book-54"/>
       <use x="117.285156" xlink:href="#FranklinGothic-Book-48"/>
      </g>
     </g>
    </g>
    <g id="ytick_4">
     <g id="line2d_8">
      <path clip-path="url(#pb6fc14af54)" d="M 144 385.359544 
L 1036.8 385.359544 
" style="fill:none;stroke:#d3d3d3;stroke-linecap:round;stroke-opacity:0.5;"/>
     </g>
     <g id="text_9">
      <!-- 370 -->
      <g style="fill:#696969;" transform="translate(108.861719 390.358763)scale(0.15 -0.15)">
       <defs>
        <path d="M 28.078125 0 
L 19.484375 0 
Q 19.484375 16.75 26.3125 32.59375 
Q 33.15625 48.4375 43.0625 59.328125 
L 6.890625 59.328125 
L 7.71875 66.65625 
L 51.765625 66.65625 
L 51.765625 61.671875 
Q 39.84375 47.3125 33.9375 31.78125 
Q 28.03125 16.265625 28.03125 2.296875 
Q 28.03125 1.515625 28.078125 0 
z
" id="FranklinGothic-Book-55"/>
       </defs>
       <use xlink:href="#FranklinGothic-Book-51"/>
       <use x="53.642578" xlink:href="#FranklinGothic-Book-55"/>
       <use x="112.285156" xlink:href="#FranklinGothic-Book-48"/>
      </g>
     </g>
    </g>
    <g id="ytick_5">
     <g id="line2d_9">
      <path clip-path="url(#pb6fc14af54)" d="M 144 325.90221 
L 1036.8 325.90221 
" style="fill:none;stroke:#d3d3d3;stroke-linecap:round;stroke-opacity:0.5;"/>
     </g>
     <g id="text_10">
      <!-- 380 -->
      <g style="fill:#696969;" transform="translate(108.111719 330.901429)scale(0.15 -0.15)">
       <defs>
        <path d="M 19.484375 34.578125 
Q 6.84375 40.09375 6.84375 50.59375 
Q 6.84375 58.203125 13.140625 63.109375 
Q 19.4375 68.015625 29.828125 68.015625 
Q 40.09375 68.015625 46.140625 63.296875 
Q 52.203125 58.59375 52.203125 50.984375 
Q 52.203125 40.375 39.265625 35.796875 
Q 49.703125 30.953125 52.359375 26.453125 
Q 55.03125 21.96875 55.03125 17.484375 
Q 55.03125 9.46875 48.21875 4.078125 
Q 41.40625 -1.3125 29.734375 -1.3125 
Q 17.28125 -1.3125 10.4375 4.171875 
Q 3.609375 9.671875 3.609375 17.234375 
Q 3.609375 28.515625 19.484375 34.578125 
z
M 29.59375 38.71875 
Q 37.984375 40.96875 41.453125 43.890625 
Q 44.921875 46.828125 44.921875 51.21875 
Q 44.921875 56.34375 40.796875 59 
Q 36.671875 61.671875 29.9375 61.671875 
Q 23.484375 61.671875 19.375 58.859375 
Q 15.28125 56.0625 15.28125 51.3125 
Q 15.28125 46.625 19.84375 43.203125 
Q 24.421875 39.796875 29.59375 38.71875 
z
M 28.65625 31.0625 
Q 11.765625 27.046875 11.765625 16.9375 
Q 11.765625 11.671875 16.375 8.328125 
Q 21 4.984375 29.984375 4.984375 
Q 37.59375 4.984375 42.234375 8.25 
Q 46.875 11.53125 46.875 16.609375 
Q 46.875 26.3125 28.65625 31.0625 
z
" id="FranklinGothic-Book-56"/>
       </defs>
       <use xlink:href="#FranklinGothic-Book-51"/>
       <use x="58.642578" xlink:href="#FranklinGothic-Book-56"/>
       <use x="117.285156" xlink:href="#FranklinGothic-Book-48"/>
      </g>
     </g>
    </g>
    <g id="ytick_6">
     <g id="line2d_10">
      <path clip-path="url(#pb6fc14af54)" d="M 144 266.444876 
L 1036.8 266.444876 
" style="fill:none;stroke:#d3d3d3;stroke-linecap:round;stroke-opacity:0.5;"/>
     </g>
     <g id="text_11">
      <!-- 390 -->
      <g style="fill:#696969;" transform="translate(108.111719 271.444095)scale(0.15 -0.15)">
       <use xlink:href="#FranklinGothic-Book-51"/>
       <use x="58.642578" xlink:href="#FranklinGothic-Book-57"/>
       <use x="117.285156" xlink:href="#FranklinGothic-Book-48"/>
      </g>
     </g>
    </g>
    <g id="ytick_7">
     <g id="line2d_11">
      <path clip-path="url(#pb6fc14af54)" d="M 144 206.987542 
L 1036.8 206.987542 
" style="fill:none;stroke:#d3d3d3;stroke-linecap:round;stroke-opacity:0.5;"/>
     </g>
     <g id="text_12">
      <!-- 400 -->
      <g style="fill:#696969;" transform="translate(108.111719 211.986761)scale(0.15 -0.15)">
       <use xlink:href="#FranklinGothic-Book-52"/>
       <use x="58.642578" xlink:href="#FranklinGothic-Book-48"/>
       <use x="117.285156" xlink:href="#FranklinGothic-Book-48"/>
      </g>
     </g>
    </g>
    <g id="ytick_8">
     <g id="line2d_12">
      <path clip-path="url(#pb6fc14af54)" d="M 144 147.530208 
L 1036.8 147.530208 
" style="fill:none;stroke:#d3d3d3;stroke-linecap:round;stroke-opacity:0.5;"/>
     </g>
     <g id="text_13">
      <!-- 410 -->
      <g style="fill:#696969;" transform="translate(109.611719 152.529427)scale(0.15 -0.15)">
       <use xlink:href="#FranklinGothic-Book-52"/>
       <use x="51.892578" xlink:href="#FranklinGothic-Book-49"/>
       <use x="107.285156" xlink:href="#FranklinGothic-Book-48"/>
      </g>
     </g>
    </g>
    <g id="ytick_9">
     <g id="line2d_13">
      <path clip-path="url(#pb6fc14af54)" d="M 144 88.072875 
L 1036.8 88.072875 
" style="fill:none;stroke:#d3d3d3;stroke-linecap:round;stroke-opacity:0.5;"/>
     </g>
     <g id="text_14">
      <!-- 420 -->
      <g style="fill:#696969;" transform="translate(108.111719 93.072093)scale(0.15 -0.15)">
       <use xlink:href="#FranklinGothic-Book-52"/>
       <use x="58.642578" xlink:href="#FranklinGothic-Book-50"/>
       <use x="117.285156" xlink:href="#FranklinGothic-Book-48"/>
      </g>
     </g>
    </g>
    <g id="text_15">
     <!-- ppm -->
     <g style="fill:#696969;" transform="translate(94.780469 346.063438)rotate(-90)scale(0.2 -0.2)">
      <defs>
       <path d="M 15.328125 -16.65625 
L 7.671875 -16.65625 
L 7.671875 49.3125 
L 14.546875 49.3125 
L 14.546875 39.75 
Q 19.78125 50.6875 30.125 50.6875 
Q 38.875 50.6875 44.234375 43.375 
Q 49.609375 36.078125 49.609375 24.90625 
Q 49.609375 12.84375 44.09375 5.765625 
Q 38.578125 -1.3125 29.9375 -1.3125 
Q 20.65625 -1.3125 15.328125 7.515625 
z
M 15.328125 31.78125 
L 15.328125 17.921875 
Q 16.0625 12.3125 20.0625 8.640625 
Q 24.078125 4.984375 28.421875 4.984375 
Q 33.453125 4.984375 37.328125 9.375 
Q 41.21875 13.765625 41.21875 24.5625 
Q 41.21875 33.890625 37.703125 38.9375 
Q 34.1875 44 28.375 44 
Q 23.78125 44 20.140625 40.421875 
Q 16.5 36.859375 15.328125 31.78125 
z
" id="FranklinGothic-Book-112"/>
       <path d="M 73.734375 0 
L 66.265625 0 
L 66.265625 30.671875 
Q 66.265625 35.40625 65.59375 37.765625 
Q 64.9375 40.140625 62.390625 42.109375 
Q 59.859375 44.09375 56.6875 44.09375 
Q 52.296875 44.09375 48.21875 40.0625 
Q 44.140625 36.03125 44.140625 27.78125 
L 44.140625 0 
L 36.71875 0 
L 36.71875 32.46875 
Q 36.71875 38.96875 33.609375 41.65625 
Q 30.515625 44.34375 27.09375 44.34375 
Q 22.21875 44.34375 18.59375 40.140625 
Q 14.984375 35.9375 14.984375 29.5 
L 14.984375 0 
L 7.671875 0 
L 7.671875 49.3125 
L 14.265625 49.3125 
L 14.265625 39.84375 
Q 19.78125 50.6875 29.4375 50.6875 
Q 34.765625 50.6875 38.46875 47.21875 
Q 42.1875 43.75 43.265625 38.875 
Q 48.34375 50.6875 58.84375 50.6875 
Q 63.875 50.6875 67.65625 47.796875 
Q 71.4375 44.921875 72.578125 41.1875 
Q 73.734375 37.453125 73.734375 30.671875 
z
" id="FranklinGothic-Book-109"/>
      </defs>
      <use xlink:href="#FranklinGothic-Book-112"/>
      <use x="53.417969" xlink:href="#FranklinGothic-Book-112"/>
      <use x="106.835938" xlink:href="#FranklinGothic-Book-109"/>
     </g>
    </g>
   </g>
   <g id="text_16">
    <!-- Atmospheric carbon dioxide concentration -->
    <g style="fill:#696969;" transform="translate(144 42.76)scale(0.4 -0.4)">
     <defs>
      <path d="M 53.21875 0 
L 44.671875 0 
L 37.9375 19.484375 
L 13.28125 19.484375 
L 7.328125 0 
L 0.34375 0 
L 21.96875 66.65625 
L 31.5 66.65625 
z
M 36.1875 25.734375 
L 25.921875 57.765625 
L 15.578125 25.734375 
z
" id="FranklinGothic-Book-65"/>
      <path d="M 30.03125 5.28125 
L 30.03125 -0.78125 
Q 25.984375 -1.3125 23 -1.3125 
Q 8.6875 -1.3125 8.6875 13.625 
L 8.6875 43.3125 
L -0.046875 43.3125 
L -0.046875 49.3125 
L 8.6875 49.3125 
L 9.03125 61.71875 
L 16.15625 62.40625 
L 16.15625 49.3125 
L 27.203125 49.3125 
L 27.203125 43.3125 
L 16.15625 43.3125 
L 16.15625 12.359375 
Q 16.15625 4.734375 24.078125 4.734375 
Q 26.703125 4.734375 30.03125 5.28125 
z
" id="FranklinGothic-Book-116"/>
      <path d="M 25.34375 -1.3125 
Q 15.1875 -1.3125 9.5 6.203125 
Q 3.8125 13.71875 3.8125 24.859375 
Q 3.8125 36.625 10.203125 43.65625 
Q 16.609375 50.6875 26.125 50.6875 
Q 36.328125 50.6875 42.203125 43.28125 
Q 48.09375 35.890625 48.09375 24.8125 
Q 48.09375 13.28125 41.75 5.984375 
Q 35.40625 -1.3125 25.34375 -1.3125 
z
M 25.921875 4.984375 
Q 31.78125 4.984375 35.734375 9.8125 
Q 39.703125 14.65625 39.703125 24.859375 
Q 39.703125 35.109375 35.546875 39.71875 
Q 31.390625 44.34375 25.828125 44.34375 
Q 20.125 44.34375 16.15625 39.671875 
Q 12.203125 35.015625 12.203125 24.90625 
Q 12.203125 14.203125 16.15625 9.59375 
Q 20.125 4.984375 25.921875 4.984375 
z
" id="FranklinGothic-Book-111"/>
      <path d="M 1.03125 12.796875 
L 8.34375 14.3125 
Q 10.796875 4.984375 23.78125 4.984375 
Q 28.5625 4.984375 31.875 7.125 
Q 35.203125 9.28125 35.203125 13.1875 
Q 35.203125 19 26.765625 20.5625 
L 16.359375 22.515625 
Q 10.25 23.6875 6.640625 27.09375 
Q 3.03125 30.515625 3.03125 36.140625 
Q 3.03125 42.328125 7.953125 46.5 
Q 12.890625 50.6875 21.234375 50.6875 
Q 37.3125 50.6875 41.0625 38.140625 
L 34.03125 36.625 
Q 31 44.34375 21.578125 44.34375 
Q 16.890625 44.34375 13.890625 42.40625 
Q 10.890625 40.484375 10.890625 37.015625 
Q 10.890625 31.546875 18.5625 30.125 
L 28.171875 28.421875 
Q 43.265625 25.6875 43.265625 13.8125 
Q 43.265625 7.03125 37.640625 2.859375 
Q 32.03125 -1.3125 22.703125 -1.3125 
Q 5.171875 -1.3125 1.03125 12.796875 
z
" id="FranklinGothic-Book-115"/>
      <path d="M 46.34375 0 
L 38.671875 0 
L 38.671875 29.9375 
Q 38.671875 35.203125 38.015625 37.84375 
Q 37.359375 40.484375 34.890625 42.40625 
Q 32.421875 44.34375 29.203125 44.34375 
Q 23.296875 44.34375 19.3125 39.5 
Q 15.328125 34.671875 15.328125 26.5625 
L 15.328125 0 
L 7.671875 0 
L 7.671875 66.65625 
L 15.328125 66.65625 
L 15.328125 40.234375 
Q 20.5625 50.6875 30.28125 50.6875 
Q 34.625 50.6875 38.015625 48.96875 
Q 41.40625 47.265625 43.203125 44.484375 
Q 45.015625 41.703125 45.671875 38.984375 
Q 46.34375 36.28125 46.34375 29.9375 
z
" id="FranklinGothic-Book-104"/>
      <path d="M 15.578125 66.65625 
L 15.578125 58.15625 
L 7.328125 58.15625 
L 7.328125 66.65625 
z
M 15.328125 49.3125 
L 15.328125 0 
L 7.671875 0 
L 7.671875 49.3125 
z
" id="FranklinGothic-Book-105"/>
      <path d="M 36.8125 17.28125 
L 43.75 16.0625 
Q 42.28125 7.90625 37.25 3.296875 
Q 32.234375 -1.3125 24.703125 -1.3125 
Q 14.5 -1.3125 9.15625 6.203125 
Q 3.8125 13.71875 3.8125 24.5625 
Q 3.8125 35.796875 9.453125 43.234375 
Q 15.09375 50.6875 24.8125 50.6875 
Q 32.859375 50.6875 37.71875 45.875 
Q 42.578125 41.0625 43.75 33.453125 
L 36.8125 32.125 
Q 34.859375 44.34375 25 44.34375 
Q 18.65625 44.34375 15.234375 38.9375 
Q 11.8125 33.546875 11.8125 24.953125 
Q 11.8125 15.484375 15.203125 10.234375 
Q 18.609375 4.984375 24.75 4.984375 
Q 34.28125 4.984375 36.8125 17.28125 
z
" id="FranklinGothic-Book-99"/>
      <path id="FranklinGothic-Book-32"/>
      <path d="M 11.375 0 
L 7.671875 0 
L 7.671875 66.65625 
L 15.328125 66.65625 
L 15.328125 41.109375 
Q 20.609375 50.6875 29.890625 50.6875 
Q 38.375 50.6875 44.109375 44 
Q 49.859375 37.3125 49.859375 24.5625 
Q 49.859375 13.578125 44.21875 6.125 
Q 38.578125 -1.3125 29.546875 -1.3125 
Q 19.484375 -1.3125 14.109375 8.15625 
z
M 15.328125 19.34375 
Q 15.875 11.765625 20 8.34375 
Q 24.125 4.9375 28.71875 4.9375 
Q 34.578125 4.9375 38.15625 10.015625 
Q 41.75 15.09375 41.75 23.921875 
Q 41.75 33.453125 38.28125 38.890625 
Q 34.8125 44.34375 28.65625 44.34375 
Q 23.828125 44.34375 19.9375 40.453125 
Q 16.0625 36.578125 15.328125 30.421875 
z
" id="FranklinGothic-Book-98"/>
      <path d="M 46.53125 0 
L 39.359375 0 
L 39.359375 31.6875 
Q 39.359375 38.53125 36.375 41.3125 
Q 33.40625 44.09375 29.15625 44.09375 
Q 23.296875 44.09375 19.3125 39.40625 
Q 15.328125 34.71875 15.328125 27.046875 
L 15.328125 0 
L 7.671875 0 
L 7.671875 49.3125 
L 14.796875 49.3125 
L 14.796875 40.234375 
Q 20.796875 50.6875 30.375 50.6875 
Q 35.890625 50.6875 39.765625 47.828125 
Q 43.65625 44.96875 45.09375 41.40625 
Q 46.53125 37.84375 46.53125 28.515625 
z
" id="FranklinGothic-Book-110"/>
      <path d="M 46.1875 66.65625 
L 46.1875 0 
L 39.203125 0 
L 39.203125 8.453125 
Q 34.03125 -1.3125 23.640625 -1.3125 
Q 14.984375 -1.3125 9.421875 5.9375 
Q 3.859375 13.1875 3.859375 24.265625 
Q 3.859375 35.59375 9.375 43.140625 
Q 14.890625 50.6875 24.03125 50.6875 
Q 32.90625 50.6875 38.53125 42.578125 
L 38.53125 66.65625 
z
M 38.53125 30.28125 
Q 38.53125 36.765625 34.5625 40.671875 
Q 30.609375 44.578125 25.34375 44.578125 
Q 19.625 44.578125 15.9375 39.5 
Q 12.25 34.421875 12.25 25.25 
Q 12.25 15.328125 15.640625 10.15625 
Q 19.046875 4.984375 24.953125 4.984375 
Q 30.328125 4.984375 34.421875 9.46875 
Q 38.53125 13.96875 38.53125 20.015625 
z
" id="FranklinGothic-Book-100"/>
      <path d="M 42.046875 0 
L 33.203125 0 
L 20.65625 20.015625 
L 7.8125 0 
L 0.34375 0 
L 16.9375 25.59375 
L 1.953125 49.3125 
L 10.796875 49.3125 
L 21.34375 32.46875 
L 32.078125 49.3125 
L 39.453125 49.3125 
L 25.09375 27.25 
z
" id="FranklinGothic-Book-120"/>
     </defs>
     <use xlink:href="#FranklinGothic-Book-65"/>
     <use x="52.064453" xlink:href="#FranklinGothic-Book-116"/>
     <use x="82.826172" xlink:href="#FranklinGothic-Book-109"/>
     <use x="164.222656" xlink:href="#FranklinGothic-Book-111"/>
     <use x="216.175781" xlink:href="#FranklinGothic-Book-115"/>
     <use x="262.5625" xlink:href="#FranklinGothic-Book-112"/>
     <use x="315.980469" xlink:href="#FranklinGothic-Book-104"/>
     <use x="369.984375" xlink:href="#FranklinGothic-Book-101"/>
     <use x="422.035156" xlink:href="#FranklinGothic-Book-114"/>
     <use x="454.994141" xlink:href="#FranklinGothic-Book-105"/>
     <use x="477.943359" xlink:href="#FranklinGothic-Book-99"/>
     <use x="524.525391" xlink:href="#FranklinGothic-Book-32"/>
     <use x="549.525391" xlink:href="#FranklinGothic-Book-99"/>
     <use x="596.107422" xlink:href="#FranklinGothic-Book-97"/>
     <use x="648.988281" xlink:href="#FranklinGothic-Book-114"/>
     <use x="681.947266" xlink:href="#FranklinGothic-Book-98"/>
     <use x="735.658203" xlink:href="#FranklinGothic-Book-111"/>
     <use x="787.611328" xlink:href="#FranklinGothic-Book-110"/>
     <use x="841.810547" xlink:href="#FranklinGothic-Book-32"/>
     <use x="866.810547" xlink:href="#FranklinGothic-Book-100"/>
     <use x="920.667969" xlink:href="#FranklinGothic-Book-105"/>
     <use x="943.617188" xlink:href="#FranklinGothic-Book-111"/>
     <use x="994.195312" xlink:href="#FranklinGothic-Book-120"/>
     <use x="1036.578125" xlink:href="#FranklinGothic-Book-105"/>
     <use x="1059.527344" xlink:href="#FranklinGothic-Book-100"/>
     <use x="1113.384766" xlink:href="#FranklinGothic-Book-101"/>
     <use x="1165.435547" xlink:href="#FranklinGothic-Book-32"/>
     <use x="1190.435547" xlink:href="#FranklinGothic-Book-99"/>
     <use x="1237.017578" xlink:href="#FranklinGothic-Book-111"/>
     <use x="1288.970703" xlink:href="#FranklinGothic-Book-110"/>
     <use x="1343.169922" xlink:href="#FranklinGothic-Book-99"/>
     <use x="1389.751953" xlink:href="#FranklinGothic-Book-101"/>
     <use x="1441.802734" xlink:href="#FranklinGothic-Book-110"/>
     <use x="1496.001953" xlink:href="#FranklinGothic-Book-116"/>
     <use x="1526.763672" xlink:href="#FranklinGothic-Book-114"/>
     <use x="1559.722656" xlink:href="#FranklinGothic-Book-97"/>
     <use x="1612.603516" xlink:href="#FranklinGothic-Book-116"/>
     <use x="1643.365234" xlink:href="#FranklinGothic-Book-105"/>
     <use x="1666.314453" xlink:href="#FranklinGothic-Book-111"/>
     <use x="1718.267578" xlink:href="#FranklinGothic-Book-110"/>
    </g>
   </g>
   <g id="legend_1">
    <g id="line2d_14"/>
    <g id="text_17">
     <!-- WDCGG (1984.01-2021.12) -->
     <g style="fill:#d55e00;" transform="translate(185.856 129.7184)scale(0.2 -0.2)">
      <defs>
       <path d="M 79.828125 66.65625 
L 63.765625 0 
L 55.421875 0 
L 40.875 51.703125 
L 27.34375 0 
L 18.796875 0 
L 1.90625 66.65625 
L 10.546875 66.65625 
L 23.875 12.640625 
L 38.03125 66.65625 
L 44.78125 66.65625 
L 60.0625 12.640625 
L 72.515625 66.65625 
z
" id="FranklinGothic-Book-87"/>
       <path d="M 8.34375 0 
L 8.34375 66.65625 
L 30.71875 66.65625 
Q 44.828125 66.65625 52.6875 57.03125 
Q 60.546875 47.40625 60.546875 33.5 
Q 60.546875 19.390625 52.875 9.6875 
Q 45.21875 0 33.453125 0 
z
M 16.703125 7.078125 
L 30.21875 7.078125 
Q 40.96875 7.078125 46.53125 14.5 
Q 52.09375 21.921875 52.09375 34.078125 
Q 52.09375 43.953125 46.796875 51.8125 
Q 41.5 59.671875 30.21875 59.671875 
L 16.703125 59.671875 
z
" id="FranklinGothic-Book-68"/>
       <path d="M 48.296875 22.40625 
L 55.90625 20.703125 
Q 50.4375 -1.3125 31.203125 -1.3125 
Q 18.5625 -1.3125 11.359375 8.890625 
Q 4.15625 19.09375 4.15625 33.984375 
Q 4.15625 49.359375 11.671875 58.6875 
Q 19.1875 68.015625 31.84375 68.015625 
Q 50.59375 68.015625 55.90625 46.578125 
L 48.046875 45.015625 
Q 43.75 60.9375 31.78125 60.9375 
Q 22.953125 60.9375 18.09375 53.53125 
Q 13.234375 46.140625 13.234375 32.765625 
Q 13.234375 20.515625 18.203125 13.109375 
Q 23.1875 5.71875 31.390625 5.71875 
Q 44.140625 5.71875 48.296875 22.40625 
z
" id="FranklinGothic-Book-67"/>
       <path d="M 57.71875 33.59375 
L 57.71875 -0.875 
L 52.59375 -0.875 
L 50.296875 7.46875 
Q 44.140625 -1.3125 31.984375 -1.3125 
Q 18.796875 -1.3125 11.46875 8.59375 
Q 4.15625 18.5 4.15625 32.671875 
Q 4.15625 47.796875 11.90625 57.90625 
Q 19.671875 68.015625 33.015625 68.015625 
Q 51.421875 68.015625 57.03125 48.6875 
L 49.125 46.78125 
Q 47.40625 54.203125 42.71875 57.5625 
Q 38.03125 60.9375 32.46875 60.9375 
Q 22.609375 60.9375 17.921875 52.96875 
Q 13.234375 45.015625 13.234375 33.015625 
Q 13.234375 20.0625 18.484375 12.765625 
Q 23.734375 5.46875 32.765625 5.46875 
Q 39.796875 5.46875 44.5 10.125 
Q 49.21875 14.796875 49.21875 23 
Q 49.21875 24.515625 49.125 26.609375 
L 32.625 26.609375 
L 32.625 33.59375 
z
" id="FranklinGothic-Book-71"/>
       <path d="M 24.703125 -16.65625 
L 19.578125 -16.65625 
Q 5.21875 2.203125 5.21875 25.09375 
Q 5.21875 46.96875 19.578125 66.65625 
L 24.703125 66.65625 
Q 12.359375 48.25 12.359375 25 
Q 12.359375 2.828125 24.703125 -16.65625 
z
" id="FranklinGothic-Book-40"/>
       <path d="M 17.96875 10.9375 
L 17.96875 0 
L 7.078125 0 
L 7.078125 10.9375 
z
" id="FranklinGothic-Book-46"/>
       <path d="M 23.53125 27.984375 
L 23.53125 22.015625 
L 1.46875 22.015625 
L 1.46875 27.984375 
z
" id="FranklinGothic-Book-45"/>
       <path d="M 4.640625 66.65625 
L 9.71875 66.65625 
Q 24.125 47.796875 24.125 24.90625 
Q 24.125 3.03125 9.71875 -16.65625 
L 4.640625 -16.65625 
Q 17 1.765625 17 25 
Q 17 47.171875 4.640625 66.65625 
z
" id="FranklinGothic-Book-41"/>
      </defs>
      <use xlink:href="#FranklinGothic-Book-87"/>
      <use x="81.738281" xlink:href="#FranklinGothic-Book-68"/>
      <use x="146.435547" xlink:href="#FranklinGothic-Book-67"/>
      <use x="204.345703" xlink:href="#FranklinGothic-Book-71"/>
      <use x="269.042969" xlink:href="#FranklinGothic-Book-71"/>
      <use x="333.740234" xlink:href="#FranklinGothic-Book-32"/>
      <use x="358.740234" xlink:href="#FranklinGothic-Book-40"/>
      <use x="388.085938" xlink:href="#FranklinGothic-Book-49"/>
      <use x="445.353516" xlink:href="#FranklinGothic-Book-57"/>
      <use x="503.996094" xlink:href="#FranklinGothic-Book-56"/>
      <use x="563.388672" xlink:href="#FranklinGothic-Book-52"/>
      <use x="622.03125" xlink:href="#FranklinGothic-Book-46"/>
      <use x="647.03125" xlink:href="#FranklinGothic-Book-48"/>
      <use x="701.923828" xlink:href="#FranklinGothic-Book-49"/>
      <use x="760.566406" xlink:href="#FranklinGothic-Book-45"/>
      <use x="785.566406" xlink:href="#FranklinGothic-Book-50"/>
      <use x="844.208984" xlink:href="#FranklinGothic-Book-48"/>
      <use x="902.851562" xlink:href="#FranklinGothic-Book-50"/>
      <use x="957.994141" xlink:href="#FranklinGothic-Book-49"/>
      <use x="1016.011719" xlink:href="#FranklinGothic-Book-46"/>
      <use x="1037.136719" xlink:href="#FranklinGothic-Book-49"/>
      <use x="1095.779297" xlink:href="#FranklinGothic-Book-50"/>
      <use x="1154.421875" xlink:href="#FranklinGothic-Book-41"/>
     </g>
    </g>
   </g>
   <g id="line2d_15">
    <path clip-path="url(#pb6fc14af54)" d="M 184.581818 532.39753 
L 186.365634 529.900322 
L 188.149451 528.711176 
L 189.933267 528.354432 
L 191.717083 531.208384 
L 193.500899 538.462179 
L 195.284715 548.332096 
L 197.068531 554.04 
L 198.852348 551.126591 
L 202.41998 533.28939 
L 204.203796 527.462572 
L 205.987612 523.954589 
L 207.771429 521.873582 
L 209.555245 520.387149 
L 211.339061 520.327692 
L 213.122877 522.884357 
L 214.906693 530.078694 
L 216.690509 539.889155 
L 218.474326 545.834888 
L 220.258142 543.099851 
L 223.825774 524.965364 
L 225.60959 519.25746 
L 227.393407 515.69002 
L 229.177223 513.311726 
L 230.961039 512.12258 
L 232.744855 511.944208 
L 234.528671 514.441416 
L 236.312488 521.397924 
L 238.096304 531.327298 
L 239.88012 537.09466 
L 241.663936 534.240708 
L 245.231568 516.284593 
L 247.015385 511.052348 
L 248.799201 507.42545 
L 250.583017 504.9877 
L 252.366833 503.382352 
L 254.150649 502.371577 
L 255.934466 504.155297 
L 257.718282 510.279402 
L 259.502098 519.733118 
L 261.285914 525.203193 
L 263.06973 522.170869 
L 266.637363 503.85801 
L 268.421179 497.377161 
L 270.204995 493.393519 
L 271.988811 490.836854 
L 273.772627 489.290963 
L 275.556444 488.280189 
L 277.34026 490.539567 
L 279.124076 497.198789 
L 280.907892 506.414676 
L 282.691708 511.646921 
L 284.475524 508.436225 
L 286.259341 499.101424 
L 288.043157 490.717939 
L 289.826973 484.891121 
L 291.610789 480.907479 
L 293.394605 478.707558 
L 295.178422 477.637326 
L 296.962238 477.458954 
L 298.746054 480.253449 
L 300.52987 487.447786 
L 302.313686 496.901502 
L 304.097502 502.549949 
L 305.881319 499.63654 
L 309.448951 482.274998 
L 311.232767 476.864381 
L 313.016583 473.653685 
L 314.8004 471.691593 
L 316.584216 470.502446 
L 318.368032 470.502446 
L 320.151848 473.178026 
L 321.935664 480.491278 
L 323.719481 490.242281 
L 325.503297 495.890727 
L 327.287113 492.798946 
L 330.854745 474.842831 
L 332.638561 469.194385 
L 334.422378 465.745859 
L 336.206194 463.129737 
L 337.99001 461.881133 
L 339.773826 462.059505 
L 341.557642 464.497255 
L 343.341459 471.75105 
L 345.125275 482.156083 
L 346.909091 488.458561 
L 348.692907 485.901895 
L 352.260539 468.599811 
L 354.044356 463.664853 
L 355.828172 460.513614 
L 357.611988 458.789351 
L 359.395804 457.659662 
L 361.17962 457.24346 
L 362.963437 459.800126 
L 364.747253 467.707951 
L 366.531069 477.637326 
L 368.314885 483.820889 
L 370.098701 481.918254 
L 371.882517 472.880739 
L 373.666334 465.151286 
L 375.45015 459.859583 
L 377.233966 456.470515 
L 380.801598 453.02199 
L 382.585415 452.78416 
L 384.369231 455.875942 
L 386.153047 463.248651 
L 387.936863 473.178026 
L 389.720679 478.707558 
L 391.504496 476.21035 
L 393.288312 467.113378 
L 395.072128 458.610979 
L 396.855944 452.903075 
L 398.63976 448.503232 
L 400.423576 445.768195 
L 402.207393 444.638506 
L 403.991209 444.400676 
L 405.775025 447.195171 
L 407.558841 454.330051 
L 409.342657 463.783767 
L 411.126474 469.313299 
L 412.91029 466.994463 
L 414.694106 457.302918 
L 416.477922 448.265403 
L 418.261738 442.379127 
L 420.045554 438.5144 
L 421.829371 435.957735 
L 423.613187 434.471302 
L 425.397003 433.817271 
L 427.180819 436.195564 
L 428.964635 443.389902 
L 430.748452 452.724703 
L 432.532268 458.551522 
L 434.316084 454.984082 
L 437.883716 435.83882 
L 439.667532 430.012002 
L 441.451349 425.968903 
L 443.235165 423.531152 
L 445.018981 422.877122 
L 446.802797 422.758207 
L 448.586613 425.077043 
L 450.37043 432.152466 
L 452.154246 441.368352 
L 453.938062 447.551915 
L 455.721878 445.708738 
L 457.505694 436.790138 
L 459.28951 428.763398 
L 461.073327 423.412238 
L 462.857143 419.488053 
L 464.640959 417.763791 
L 468.208591 415.980071 
L 469.992408 418.061077 
L 471.776224 425.849988 
L 473.56004 435.719906 
L 475.343856 441.606182 
L 477.127672 438.75223 
L 480.695305 419.131309 
L 482.479121 412.828832 
L 484.262937 408.310075 
L 486.046753 405.634495 
L 487.830569 403.612945 
L 489.614386 402.304884 
L 491.398202 403.791317 
L 493.182018 409.439764 
L 494.965834 418.061077 
L 496.74965 423.114951 
L 498.533467 419.844797 
L 500.317283 409.915423 
L 502.101099 400.758993 
L 503.884915 395.288919 
L 505.668731 391.364735 
L 507.452547 388.926984 
L 509.236364 387.67838 
L 511.02018 387.618923 
L 512.803996 390.413417 
L 514.587812 397.845584 
L 516.371628 407.774959 
L 518.155445 413.423405 
L 519.939261 410.331624 
L 523.506893 392.256595 
L 525.290709 386.667605 
L 527.074525 382.683964 
L 528.858342 380.840786 
L 530.642158 380.008384 
L 532.425974 379.592182 
L 534.20979 382.446134 
L 535.993606 389.283728 
L 537.777423 398.499615 
L 539.561239 404.385891 
L 541.345055 401.531939 
L 543.128871 391.899851 
L 544.912687 383.040708 
L 546.696503 376.97606 
L 548.48032 373.40862 
L 550.264136 371.981644 
L 552.047952 370.792497 
L 553.831768 370.554668 
L 555.615584 373.349162 
L 557.399401 380.30567 
L 559.183217 389.818844 
L 560.967033 395.407833 
L 562.750849 392.375509 
L 564.534665 382.624506 
L 566.318482 374.06265 
L 568.102298 368.05746 
L 569.886114 364.073818 
L 571.66993 361.695525 
L 573.453746 360.565836 
L 575.237562 359.79289 
L 577.021379 362.111726 
L 578.805195 369.008777 
L 580.589011 377.86792 
L 582.372827 382.802878 
L 584.156643 379.948926 
L 585.94046 369.781722 
L 587.724276 361.041494 
L 589.508092 355.036304 
L 591.291908 350.814833 
L 593.075724 347.901424 
L 594.85954 346.236618 
L 596.643357 344.988014 
L 598.427173 347.128478 
L 600.210989 353.847157 
L 601.994805 363.003586 
L 603.778621 367.641258 
L 605.562438 365.560252 
L 609.13007 347.663594 
L 610.913886 341.836775 
L 612.697702 337.912591 
L 614.481518 335.058639 
L 616.265335 333.869493 
L 618.049151 333.869493 
L 619.832967 336.485615 
L 621.616783 343.442123 
L 623.400599 353.133669 
L 625.184416 359.198317 
L 626.968232 356.760566 
L 630.535864 337.853134 
L 632.31968 331.847943 
L 634.103497 327.507558 
L 635.887313 324.594149 
L 637.671129 323.048258 
L 639.454945 322.33477 
L 641.238761 324.237405 
L 643.022577 330.539882 
L 644.806394 340.409799 
L 646.59021 345.820417 
L 648.374026 342.371891 
L 651.941658 323.405002 
L 653.725475 316.745781 
L 655.509291 312.762139 
L 657.293107 310.264931 
L 659.076923 308.897413 
L 660.860739 308.719041 
L 662.644555 311.394621 
L 664.428372 318.529501 
L 666.212188 327.804845 
L 667.996004 333.92895 
L 669.77982 331.074998 
L 673.347453 313.118883 
L 675.131269 307.529894 
L 676.915085 303.486795 
L 678.698901 300.335556 
L 680.482717 298.968038 
L 682.266533 298.670751 
L 684.05035 300.395014 
L 685.834166 307.17315 
L 687.617982 316.626866 
L 689.401798 322.453685 
L 691.185614 319.064617 
L 692.969431 309.254157 
L 694.753247 300.93013 
L 696.537063 294.211451 
L 698.320879 289.33595 
L 700.104695 286.838742 
L 701.888511 285.471223 
L 703.672328 285.055022 
L 705.456144 287.968431 
L 707.23996 294.806024 
L 709.023776 304.973228 
L 710.807592 311.037877 
L 712.591409 308.183924 
L 716.159041 289.930523 
L 717.942857 282.914558 
L 719.726673 278.871459 
L 721.51049 276.790452 
L 723.294306 275.72022 
L 725.078122 275.839135 
L 726.861938 278.514715 
L 728.645754 286.006339 
L 730.42957 296.173543 
L 732.213387 302.297648 
L 733.997203 299.562611 
L 735.781019 289.33595 
L 737.564835 280.120063 
L 739.348651 273.758128 
L 741.132468 269.120456 
L 742.916284 266.207047 
L 744.7001 265.196272 
L 746.483916 264.601699 
L 748.267732 266.80162 
L 750.051548 273.639214 
L 751.835365 282.974015 
L 753.619181 287.611687 
L 755.402997 284.103704 
L 758.970629 265.196272 
L 760.754446 258.655965 
L 762.538262 255.147983 
L 764.322078 252.829147 
L 766.105894 251.758915 
L 767.88971 252.234573 
L 769.673526 254.731781 
L 771.457343 261.807204 
L 773.241159 271.617664 
L 775.024975 276.909367 
L 776.808791 273.877043 
L 778.592607 263.531467 
L 780.376424 254.196665 
L 782.16024 248.726591 
L 783.944056 244.267291 
L 785.727872 241.591711 
L 787.511688 240.283649 
L 789.295504 239.807991 
L 791.079321 242.424113 
L 792.863137 249.440079 
L 794.646953 258.953252 
L 796.430769 263.353095 
L 798.214585 259.547825 
L 799.998402 248.845505 
L 801.782218 239.15396 
L 803.566034 232.494738 
L 805.34985 228.45164 
L 807.133666 225.716602 
L 808.917483 224.111254 
L 810.701299 222.743736 
L 812.485115 224.943657 
L 814.268931 231.662336 
L 816.052747 241.770083 
L 817.836563 246.28884 
L 819.62038 244.326748 
L 821.404196 234.278459 
L 823.188012 225.597688 
L 824.971828 219.235753 
L 826.755644 215.311569 
L 828.539461 212.933276 
L 830.323277 211.327928 
L 832.107093 211.446842 
L 833.890909 213.29002 
L 835.674725 220.365442 
L 837.458541 230.473189 
L 839.242358 236.002721 
L 841.026174 232.494738 
L 842.80999 223.338309 
L 844.593806 213.468392 
L 846.377622 207.047 
L 848.161439 202.825529 
L 849.945255 199.852662 
L 851.729071 198.663516 
L 853.512887 198.425686 
L 855.296703 200.625608 
L 857.080519 207.582116 
L 858.864336 216.322344 
L 860.648152 221.554589 
L 862.431968 218.284436 
L 864.215784 207.284829 
L 865.9996 197.474369 
L 867.783417 190.577318 
L 869.567233 185.345073 
L 871.351049 182.788407 
L 873.134865 179.756083 
L 874.918681 178.983138 
L 876.702498 180.588486 
L 878.486314 187.426079 
L 880.27013 196.99871 
L 882.053946 201.755297 
L 883.837762 197.058168 
L 885.621578 187.544994 
L 887.405395 178.864223 
L 889.189211 173.096862 
L 890.973027 168.815934 
L 892.756843 166.021439 
L 894.540659 164.772835 
L 896.324476 164.594463 
L 898.108292 166.437641 
L 899.892108 173.691435 
L 901.675924 183.264066 
L 903.45974 189.626001 
L 905.243556 186.950421 
L 908.811189 166.794385 
L 910.595005 160.729737 
L 912.378821 156.270436 
L 914.162637 152.940826 
L 915.946454 151.573307 
L 917.73027 150.978734 
L 919.514086 154.427259 
L 921.297902 160.551365 
L 923.081718 170.540197 
L 924.865534 175.534613 
L 926.649351 173.096862 
L 930.216983 152.286795 
L 932.000799 146.222147 
L 933.784615 142.060134 
L 935.568432 139.444011 
L 937.352248 137.719748 
L 939.136064 136.35223 
L 940.91988 138.13595 
L 942.703696 144.319512 
L 944.487512 154.546174 
L 946.271329 159.718962 
L 948.055145 155.794778 
L 951.622777 136.708974 
L 953.406593 130.882155 
L 955.19041 126.30394 
L 956.974226 124.52022 
L 958.758042 122.201384 
L 960.541858 121.131152 
L 962.325674 123.568903 
L 964.109491 130.584868 
L 965.893307 140.216956 
L 967.677123 145.092458 
L 969.460939 141.049359 
L 973.028571 121.19061 
L 974.812388 114.888132 
L 976.596204 111.499064 
L 978.38002 108.645112 
L 980.163836 106.742477 
L 981.947652 106.266819 
L 983.731469 107.991081 
L 985.515285 114.947589 
L 987.299101 124.75805 
L 989.082917 130.941612 
L 990.866733 126.839056 
L 994.434366 106.920849 
L 996.218182 100.44 
L 996.218182 100.44 
" style="fill:none;stroke:#d55e00;stroke-linecap:round;"/>
   </g>
  </g>
  <g id="text_18">
   <g id="patch_4">
    <path d="M 874.494375 646.18275 
L 1040.76 646.18275 
L 1040.76 628.26525 
L 874.494375 628.26525 
z
" style="fill:#ffffff;stroke:#ffffff;stroke-linejoin:miter;"/>
   </g>
   <!-- Created: 2023-01-30 16:52:58 -->
   <g style="fill:#696969;" transform="translate(878.454375 640.224)scale(0.12 -0.12)">
    <defs>
     <path d="M 17.96875 49.3125 
L 17.96875 38.375 
L 7.078125 38.375 
L 7.078125 49.3125 
z
M 17.96875 10.984375 
L 17.96875 0 
L 7.078125 0 
L 7.078125 10.984375 
z
" id="FranklinGothic-Book-58"/>
    </defs>
    <use xlink:href="#FranklinGothic-Book-67"/>
    <use x="57.910156" xlink:href="#FranklinGothic-Book-114"/>
    <use x="90.869141" xlink:href="#FranklinGothic-Book-101"/>
    <use x="142.919922" xlink:href="#FranklinGothic-Book-97"/>
    <use x="195.800781" xlink:href="#FranklinGothic-Book-116"/>
    <use x="224.8125" xlink:href="#FranklinGothic-Book-101"/>
    <use x="276.863281" xlink:href="#FranklinGothic-Book-100"/>
    <use x="330.720703" xlink:href="#FranklinGothic-Book-58"/>
    <use x="355.720703" xlink:href="#FranklinGothic-Book-32"/>
    <use x="380.720703" xlink:href="#FranklinGothic-Book-50"/>
    <use x="439.363281" xlink:href="#FranklinGothic-Book-48"/>
    <use x="498.005859" xlink:href="#FranklinGothic-Book-50"/>
    <use x="556.648438" xlink:href="#FranklinGothic-Book-51"/>
    <use x="615.291016" xlink:href="#FranklinGothic-Book-45"/>
    <use x="640.291016" xlink:href="#FranklinGothic-Book-48"/>
    <use x="695.183594" xlink:href="#FranklinGothic-Book-49"/>
    <use x="753.826172" xlink:href="#FranklinGothic-Book-45"/>
    <use x="778.826172" xlink:href="#FranklinGothic-Book-51"/>
    <use x="837.46875" xlink:href="#FranklinGothic-Book-48"/>
    <use x="896.111328" xlink:href="#FranklinGothic-Book-32"/>
    <use x="921.111328" xlink:href="#FranklinGothic-Book-49"/>
    <use x="976.378906" xlink:href="#FranklinGothic-Book-54"/>
    <use x="1035.021484" xlink:href="#FranklinGothic-Book-58"/>
    <use x="1060.021484" xlink:href="#FranklinGothic-Book-53"/>
    <use x="1118.664062" xlink:href="#FranklinGothic-Book-50"/>
    <use x="1177.306641" xlink:href="#FranklinGothic-Book-58"/>
    <use x="1202.306641" xlink:href="#FranklinGothic-Book-53"/>
    <use x="1260.949219" xlink:href="#FranklinGothic-Book-56"/>
   </g>
  </g>
 </g>
 <defs>
  <clipPath id="pb6fc14af54">
   <rect height="498.96" width="892.8" x="144" y="77.76"/>
  </clipPath>
 </defs>
</svg>
