<?xml version="1.0" encoding="utf-8" standalone="no"?>
<!DOCTYPE svg PUBLIC "-//W3C//DTD SVG 1.1//EN"
  "http://www.w3.org/Graphics/SVG/1.1/DTD/svg11.dtd">
<!-- Created with matplotlib (https://matplotlib.org/) -->
<svg height="648pt" version="1.1" viewBox="0 0 1152 648" width="1152pt" xmlns="http://www.w3.org/2000/svg" xmlns:xlink="http://www.w3.org/1999/xlink">
 <metadata>
  <rdf:RDF xmlns:cc="http://creativecommons.org/ns#" xmlns:dc="http://purl.org/dc/elements/1.1/" xmlns:rdf="http://www.w3.org/1999/02/22-rdf-syntax-ns#">
   <cc:Work>
    <dc:type rdf:resource="http://purl.org/dc/dcmitype/StillImage"/>
    <dc:date>2022-09-12T16:37:26.626743</dc:date>
    <dc:format>image/svg+xml</dc:format>
    <dc:creator>
     <cc:Agent>
      <dc:title>Matplotlib v3.3.1, https://matplotlib.org/</dc:title>
     </cc:Agent>
    </dc:creator>
   </cc:Work>
  </rdf:RDF>
 </metadata>
 <defs>
  <style type="text/css">*{stroke-linecap:butt;stroke-linejoin:round;}</style>
 </defs>
 <g id="figure_1">
  <g id="patch_1">
   <path d="M 0 648 
L 1152 648 
L 1152 0 
L 0 0 
z
" style="fill:#ffffff;"/>
  </g>
  <g id="axes_1">
   <g id="patch_2">
    <path d="M 144 576.72 
L 1036.8 576.72 
L 1036.8 77.76 
L 144 77.76 
z
" style="fill:none;"/>
   </g>
   <g id="PolyCollection_1">
    <defs>
     <path d="M 544.284298 -451.21044 
L 544.284298 -470.096893 
L 546.128926 -470.382412 
L 551.66281 -449.023336 
L 553.507438 -448.181547 
L 555.352066 -448.847524 
L 557.196694 -448.426278 
L 559.041322 -449.569057 
L 560.88595 -453.187273 
L 562.730579 -451.749129 
L 564.575207 -456.053012 
L 566.419835 -459.286551 
L 568.264463 -459.867434 
L 571.953719 -447.059865 
L 573.798347 -437.529436 
L 575.642975 -434.595482 
L 577.487603 -434.85709 
L 579.332231 -434.63627 
L 581.17686 -437.491461 
L 583.021488 -436.096215 
L 584.866116 -435.257239 
L 586.710744 -436.674286 
L 588.555372 -441.073107 
L 590.4 -439.848751 
L 592.244628 -438.52594 
L 594.089256 -431.559556 
L 595.933884 -422.932802 
L 597.778512 -420.048778 
L 599.62314 -418.588834 
L 601.467769 -421.690161 
L 603.312397 -423.426483 
L 605.157025 -422.354731 
L 607.001653 -423.876562 
L 608.846281 -427.158625 
L 610.690909 -427.586903 
L 612.535537 -430.310586 
L 614.380165 -426.943431 
L 616.224793 -417.806118 
L 618.069421 -404.459157 
L 619.91405 -399.883116 
L 621.758678 -400.434463 
L 623.603306 -400.609572 
L 625.447934 -404.502758 
L 627.292562 -402.599767 
L 629.13719 -405.934573 
L 630.981818 -407.362168 
L 632.826446 -405.651164 
L 634.671074 -406.344567 
L 636.515702 -405.671558 
L 638.360331 -399.601113 
L 640.204959 -390.548894 
L 642.049587 -386.428558 
L 643.894215 -387.386383 
L 645.738843 -385.353994 
L 647.583471 -384.781549 
L 649.428099 -387.084689 
L 651.272727 -389.925112 
L 653.117355 -389.265464 
L 654.961983 -390.263374 
L 656.806612 -391.074924 
L 658.65124 -389.705698 
L 660.495868 -380.5283 
L 662.340496 -366.854328 
L 664.185124 -362.335251 
L 666.029752 -360.541966 
L 667.87438 -362.28954 
L 669.719008 -366.359241 
L 671.563636 -369.09066 
L 673.408264 -367.944364 
L 675.252893 -371.627279 
L 677.097521 -370.475357 
L 678.942149 -369.351565 
L 680.786777 -369.015412 
L 682.631405 -358.698751 
L 684.476033 -347.424968 
L 686.320661 -342.834862 
L 688.165289 -343.74135 
L 690.009917 -348.953128 
L 691.854545 -354.008081 
L 693.699174 -355.381526 
L 695.543802 -352.10087 
L 697.38843 -352.120561 
L 699.233058 -353.361795 
L 701.077686 -354.585448 
L 702.922314 -354.024256 
L 704.766942 -346.389785 
L 706.61157 -331.547717 
L 708.456198 -327.738921 
L 710.300826 -329.728413 
L 712.145455 -330.840249 
L 713.990083 -332.467567 
L 715.834711 -332.288239 
L 717.679339 -333.615972 
L 719.523967 -334.544964 
L 721.368595 -332.715814 
L 723.213223 -335.10475 
L 725.057851 -327.897152 
L 726.902479 -315.270318 
L 728.747107 -301.497189 
L 730.591736 -294.703101 
L 732.436364 -297.369118 
L 734.280992 -296.18133 
L 736.12562 -297.475308 
L 739.814876 -299.221475 
L 741.659504 -300.071 
L 743.504132 -300.466929 
L 745.34876 -298.965493 
L 749.038017 -285.653694 
L 750.882645 -271.986755 
L 752.727273 -267.913538 
L 754.571901 -266.168777 
L 754.571901 -266.270748 
L 760.105785 -270.441717 
L 760.105785 -269.668847 
L 761.950413 -271.08308 
L 763.795041 -274.171046 
L 765.639669 -275.107071 
L 769.328926 -273.013499 
L 771.173554 -256.697421 
L 773.018182 -234.894595 
L 774.86281 -227.984472 
L 778.552066 -232.715227 
L 780.396694 -233.587959 
L 782.241322 -233.675865 
L 784.08595 -234.389663 
L 787.775207 -234.573914 
L 789.619835 -236.981838 
L 791.464463 -238.292694 
L 793.309091 -230.355827 
L 798.842975 -225.933095 
L 800.687603 -225.866286 
L 802.532231 -226.69612 
L 804.37686 -227.986582 
L 808.066116 -231.22223 
L 809.910744 -232.197636 
L 811.755372 -232.173022 
L 813.6 -229.531619 
L 817.289256 -209.515749 
L 819.133884 -206.877159 
L 820.978512 -207.95524 
L 822.82314 -208.259747 
L 826.512397 -214.405439 
L 828.357025 -215.109391 
L 830.201653 -216.882281 
L 832.046281 -217.539819 
L 832.046281 -217.857688 
L 837.580165 -204.856725 
L 839.424793 -195.355129 
L 841.269421 -192.950018 
L 846.803306 -197.028159 
L 848.647934 -200.70615 
L 850.492562 -199.037341 
L 852.33719 -199.054219 
L 856.026446 -201.374237 
L 857.871074 -201.528248 
L 859.715702 -189.376107 
L 861.560331 -172.005156 
L 867.094215 -182.428711 
L 868.938843 -177.584733 
L 870.783471 -181.1924 
L 876.317355 -181.771877 
L 876.317355 -183.994847 
L 878.161983 -184.276146 
L 880.006612 -182.278919 
L 902.142149 -177.304137 
L 903.986777 -175.5861 
L 909.520661 -165.704749 
L 911.365289 -167.969914 
L 913.209917 -167.14219 
L 915.054545 -166.775094 
L 916.899174 -164.95157 
L 918.743802 -163.474044 
L 920.58843 -164.545092 
L 922.433058 -165.837663 
L 924.277686 -161.917051 
L 926.122314 -147.720565 
L 927.966942 -131.592958 
L 929.81157 -125.116739 
L 931.656198 -126.175129 
L 933.500826 -129.135807 
L 935.345455 -128.825674 
L 937.190083 -126.1906 
L 939.034711 -129.43961 
L 940.879339 -126.950109 
L 942.723967 -127.587956 
L 944.568595 -129.497277 
L 946.413223 -126.864313 
L 948.257851 -116.081397 
L 950.102479 -110.307021 
L 951.947107 -109.960319 
L 953.791736 -114.641144 
L 955.636364 -114.996284 
L 957.480992 -116.528664 
L 959.32562 -120.768551 
L 961.170248 -116.409815 
L 963.014876 -116.737529 
L 964.859504 -118.210835 
L 966.704132 -115.006833 
L 968.54876 -115.475197 
L 970.393388 -112.86544 
L 972.238017 -103.159199 
L 974.082645 -99.747738 
L 975.927273 -96.788467 
L 977.771901 -99.555048 
L 979.616529 -101.623303 
L 981.461157 -102.278731 
L 983.305785 -103.656396 
L 985.150413 -105.164161 
L 986.995041 -106.629732 
L 988.839669 -105.318876 
L 988.839669 -98.104949 
L 988.839669 -98.104949 
L 986.995041 -100.477711 
L 985.150413 -100.100769 
L 983.305785 -99.557861 
L 981.461157 -99.03816 
L 979.616529 -98.509317 
L 977.771901 -96.583118 
L 975.927273 -93.96 
L 974.082645 -97.043043 
L 972.238017 -100.606405 
L 970.393388 -110.412508 
L 968.54876 -113.123532 
L 966.704132 -112.804257 
L 964.859504 -115.99982 
L 963.014876 -114.513856 
L 961.170248 -114.188955 
L 959.32562 -118.542065 
L 957.480992 -114.290926 
L 955.636364 -112.765579 
L 953.791736 -112.424503 
L 951.947107 -107.728207 
L 950.102479 -108.09038 
L 948.257851 -113.86335 
L 946.413223 -124.632201 
L 944.568595 -127.286262 
L 942.723967 -125.372722 
L 940.879339 -124.712371 
L 939.034711 -127.173742 
L 937.190083 -123.94161 
L 935.345455 -126.597781 
L 933.500826 -126.920573 
L 931.656198 -123.959895 
L 929.81157 -122.862123 
L 927.966942 -129.366472 
L 926.122314 -145.508144 
L 924.277686 -159.689158 
L 922.433058 -163.612584 
L 920.58843 -162.320012 
L 918.743802 -161.233493 
L 916.899174 -162.677263 
L 915.054545 -164.534543 
L 913.209917 -164.866477 
L 911.365289 -165.609811 
L 909.520661 -163.111167 
L 903.986777 -172.946103 
L 902.142149 -174.530523 
L 880.006612 -176.787952 
L 878.161983 -178.724699 
L 876.317355 -178.328067 
L 876.317355 -176.010862 
L 870.783471 -175.407474 
L 868.938843 -171.798401 
L 867.094215 -176.619875 
L 861.560331 -169.019161 
L 859.715702 -186.779712 
L 857.871074 -199.033121 
L 856.026446 -198.742679 
L 852.33719 -196.59566 
L 850.492562 -196.598473 
L 848.647934 -198.113975 
L 846.803306 -194.213756 
L 841.269421 -190.241103 
L 839.424793 -192.897978 
L 837.580165 -202.322216 
L 832.046281 -215.473674 
L 832.046281 -215.311927 
L 830.201653 -214.765502 
L 828.357025 -210.393404 
L 826.512397 -211.655736 
L 822.82314 -205.909489 
L 820.978512 -205.612015 
L 819.133884 -204.420008 
L 817.289256 -206.972801 
L 813.6 -226.821298 
L 811.755372 -229.675082 
L 809.910744 -229.741891 
L 808.066116 -228.821338 
L 804.37686 -224.761482 
L 802.532231 -223.999863 
L 800.687603 -223.123615 
L 798.842975 -223.101815 
L 793.309091 -227.511888 
L 791.464463 -235.372805 
L 789.619835 -234.1379 
L 787.775207 -231.368505 
L 784.08595 -231.284116 
L 782.241322 -230.808016 
L 780.396694 -230.652598 
L 778.552066 -229.491534 
L 774.86281 -224.838136 
L 773.018182 -232.078787 
L 771.173554 -253.87036 
L 769.328926 -270.041569 
L 765.639669 -271.860874 
L 763.795041 -271.470571 
L 761.950413 -268.1435 
L 760.105785 -266.930396 
L 760.105785 -267.568242 
L 754.571901 -263.28616 
L 754.571901 -263.246075 
L 752.727273 -264.871283 
L 750.882645 -268.788379 
L 749.038017 -282.240124 
L 745.34876 -295.743206 
L 743.504132 -297.139155 
L 741.659504 -296.62508 
L 739.814876 -295.498476 
L 736.12562 -294.172852 
L 734.280992 -292.959044 
L 732.436364 -294.305766 
L 730.591736 -291.857756 
L 728.747107 -298.757331 
L 726.902479 -312.412315 
L 725.057851 -324.603135 
L 723.213223 -332.377551 
L 721.368595 -330.032216 
L 719.523967 -331.598351 
L 717.679339 -330.83392 
L 715.834711 -329.482275 
L 713.990083 -329.623629 
L 712.145455 -327.961148 
L 710.300826 -326.835247 
L 708.456198 -324.931552 
L 706.61157 -328.61517 
L 704.766942 -343.310962 
L 702.922314 -351.147968 
L 701.077686 -351.661339 
L 699.233058 -350.410963 
L 697.38843 -348.895461 
L 695.543802 -348.804039 
L 693.699174 -352.15502 
L 691.854545 -350.761884 
L 690.009917 -345.619728 
L 688.165289 -340.621738 
L 686.320661 -339.692746 
L 684.476033 -344.260348 
L 682.631405 -355.455367 
L 680.786777 -365.888768 
L 678.942149 -366.081458 
L 677.097521 -367.049128 
L 675.252893 -368.464065 
L 673.408264 -364.554705 
L 671.563636 -365.927446 
L 669.719008 -363.208686 
L 667.87438 -358.965986 
L 666.029752 -357.335151 
L 664.185124 -359.228297 
L 662.340496 -363.686895 
L 660.495868 -377.571842 
L 658.65124 -386.719703 
L 656.806612 -388.125498 
L 654.961983 -387.263315 
L 653.117355 -386.338542 
L 651.272727 -386.902548 
L 649.428099 -383.979142 
L 647.583471 -381.770238 
L 645.738843 -382.42004 
L 643.894215 -384.376478 
L 642.049587 -383.366613 
L 640.204959 -387.661354 
L 638.360331 -396.499786 
L 636.515702 -402.551946 
L 634.671074 -403.473905 
L 632.826446 -402.746746 
L 630.981818 -404.512604 
L 629.13719 -403.047033 
L 627.292562 -399.730511 
L 625.447934 -401.196082 
L 623.603306 -397.938633 
L 621.758678 -397.691793 
L 619.91405 -397.109503 
L 618.069421 -401.665852 
L 616.224793 -414.98187 
L 614.380165 -424.00385 
L 612.535537 -427.420233 
L 610.690909 -424.727493 
L 608.846281 -424.273898 
L 607.001653 -420.998868 
L 605.157025 -419.605028 
L 603.312397 -420.53613 
L 601.467769 -418.802621 
L 599.62314 -415.946024 
L 597.778512 -417.119043 
L 595.933884 -420.139497 
L 594.089256 -428.874552 
L 592.244628 -435.542758 
L 590.4 -436.847285 
L 588.555372 -438.106804 
L 586.710744 -433.713608 
L 584.866116 -432.091212 
L 583.021488 -432.450573 
L 581.17686 -434.353564 
L 579.332231 -431.474463 
L 577.487603 -431.658714 
L 575.642975 -431.457585 
L 573.798347 -434.435141 
L 571.953719 -444.072464 
L 568.264463 -455.90111 
L 566.419835 -455.663412 
L 564.575207 -452.40737 
L 562.730579 -447.567611 
L 560.88595 -447.364372 
L 559.041322 -444.405804 
L 557.196694 -443.392422 
L 555.352066 -443.35515 
L 553.507438 -439.046344 
L 551.66281 -441.518264 
L 546.128926 -460.453944 
L 544.284298 -451.21044 
z
" id="m2ab37d4879" style="stroke:#56b4e9;stroke-opacity:0.1;"/>
    </defs>
    <g clip-path="url(#pfb4721d0f1)">
     <use style="fill:#56b4e9;fill-opacity:0.1;stroke:#56b4e9;stroke-opacity:0.1;" x="0" xlink:href="#m2ab37d4879" y="648"/>
    </g>
   </g>
   <g id="PolyCollection_2">
    <defs>
     <path d="M 317.395041 -485.555576 
L 317.395041 -487.845538 
L 319.239669 -488.274287 
L 321.084298 -488.592683 
L 322.928926 -488.853968 
L 324.773554 -489.078741 
L 326.618182 -489.277591 
L 328.46281 -489.456786 
L 330.307438 -489.620432 
L 332.152066 -489.771364 
L 333.996694 -489.911655 
L 335.841322 -490.042867 
L 337.68595 -490.166203 
L 339.530579 -490.185556 
L 341.375207 -490.198763 
L 343.219835 -490.206499 
L 345.064463 -490.209277 
L 346.909091 -490.207582 
L 348.753719 -490.20178 
L 350.598347 -490.192223 
L 352.442975 -490.179206 
L 354.287603 -490.162975 
L 356.132231 -490.143769 
L 357.97686 -490.121771 
L 359.821488 -490.097186 
L 361.666116 -489.590052 
L 363.510744 -489.080633 
L 365.355372 -488.569047 
L 367.2 -488.055422 
L 369.044628 -487.539877 
L 370.889256 -487.02249 
L 372.733884 -486.503373 
L 374.578512 -485.982582 
L 376.42314 -485.460223 
L 378.267769 -484.936352 
L 380.112397 -484.411039 
L 381.957025 -483.884333 
L 383.801653 -483.797616 
L 385.646281 -483.706517 
L 387.490909 -483.611346 
L 389.335537 -483.512378 
L 391.180165 -483.409865 
L 393.024793 -483.304019 
L 394.869421 -483.19503 
L 396.71405 -483.083094 
L 398.558678 -482.968366 
L 400.403306 -482.850994 
L 402.247934 -482.731097 
L 404.092562 -482.608823 
L 405.93719 -482.799178 
L 407.781818 -482.987255 
L 409.626446 -483.173159 
L 411.471074 -483.356981 
L 413.315702 -483.53882 
L 415.160331 -483.718753 
L 417.004959 -483.896858 
L 418.849587 -484.073219 
L 420.694215 -484.247899 
L 422.538843 -484.420955 
L 424.383471 -484.592449 
L 426.228099 -484.762445 
L 428.072727 -484.86199 
L 429.917355 -484.960016 
L 431.761983 -485.056572 
L 433.606612 -485.151715 
L 435.45124 -485.245493 
L 437.295868 -485.337942 
L 439.140496 -485.429118 
L 440.985124 -485.51905 
L 442.829752 -485.607778 
L 444.67438 -485.695347 
L 446.519008 -485.781776 
L 448.363636 -485.867109 
L 450.208264 -485.65972 
L 452.052893 -485.451306 
L 453.897521 -485.241864 
L 455.742149 -485.031452 
L 457.586777 -484.820083 
L 459.431405 -484.60778 
L 461.276033 -484.394569 
L 463.120661 -484.180465 
L 464.965289 -483.965509 
L 466.809917 -483.749711 
L 468.654545 -483.533075 
L 470.499174 -483.315651 
L 472.343802 -482.979688 
L 474.18843 -482.642966 
L 476.033058 -482.305519 
L 477.877686 -481.967347 
L 479.722314 -481.62848 
L 481.566942 -481.288923 
L 483.41157 -480.948691 
L 485.256198 -480.607798 
L 487.100826 -480.266259 
L 488.945455 -479.924079 
L 490.790083 -479.581287 
L 492.634711 -479.237884 
L 494.479339 -479.154738 
L 496.323967 -479.071038 
L 498.168595 -478.986782 
L 500.013223 -478.902005 
L 501.857851 -478.816694 
L 503.702479 -478.730862 
L 505.547107 -478.644531 
L 507.391736 -478.557694 
L 509.236364 -478.470372 
L 511.080992 -478.382557 
L 512.92562 -478.294271 
L 514.770248 -478.205528 
L 516.614876 -477.842666 
L 518.459504 -477.479311 
L 520.304132 -477.115464 
L 522.14876 -476.751139 
L 523.993388 -476.386343 
L 525.838017 -476.021082 
L 527.682645 -475.655372 
L 529.527273 -475.289211 
L 531.371901 -474.922608 
L 533.216529 -474.555568 
L 535.061157 -474.188106 
L 536.905785 -473.820223 
L 538.750413 -473.179211 
L 540.595041 -472.537124 
L 542.439669 -471.893996 
L 544.284298 -471.249848 
L 546.128926 -470.604695 
L 547.973554 -469.958571 
L 549.818182 -469.31149 
L 551.66281 -468.663474 
L 553.507438 -468.014559 
L 555.352066 -467.364736 
L 557.196694 -466.71404 
L 559.041322 -466.062494 
L 560.88595 -465.314273 
L 562.730579 -464.553857 
L 564.575207 -463.766717 
L 566.419835 -462.963044 
L 568.264463 -462.148774 
L 570.109091 -461.326352 
L 571.953719 -460.500555 
L 573.798347 -459.672683 
L 575.642975 -458.846886 
L 577.487603 -457.900932 
L 579.332231 -456.970281 
L 581.17686 -456.061669 
L 583.021488 -455.137706 
L 584.866116 -454.209937 
L 586.710744 -453.258941 
L 588.555372 -452.279111 
L 590.4 -451.276124 
L 592.244628 -450.256631 
L 594.089256 -449.230218 
L 595.933884 -448.200493 
L 597.778512 -447.169368 
L 599.62314 -446.150234 
L 601.467769 -445.145052 
L 603.312397 -444.158218 
L 605.157025 -443.113535 
L 607.001653 -442.071207 
L 608.846281 -441.012115 
L 610.690909 -439.932192 
L 612.535537 -438.835728 
L 614.380165 -437.724897 
L 616.224793 -436.602435 
L 618.069421 -435.473397 
L 619.91405 -434.34675 
L 621.758678 -433.226228 
L 623.603306 -432.12186 
L 625.447934 -431.035397 
L 627.292562 -429.892772 
L 629.13719 -428.747018 
L 630.981818 -427.581488 
L 632.826446 -426.388237 
L 634.671074 -425.055383 
L 636.515702 -423.704927 
L 638.360331 -422.346222 
L 640.204959 -420.982798 
L 642.049587 -419.625725 
L 643.894215 -418.28624 
L 645.738843 -416.968035 
L 647.583471 -415.668262 
L 649.428099 -414.35126 
L 651.272727 -413.035361 
L 653.117355 -411.700356 
L 654.961983 -410.336377 
L 656.806612 -408.949324 
L 658.65124 -407.545259 
L 660.495868 -406.140168 
L 662.340496 -404.746307 
L 664.185124 -403.360295 
L 666.029752 -401.98524 
L 667.87438 -400.6219 
L 669.719008 -399.276184 
L 671.563636 -397.947796 
L 673.408264 -396.628881 
L 675.252893 -395.296527 
L 677.097521 -393.9456 
L 678.942149 -392.580924 
L 680.786777 -391.209308 
L 682.631405 -389.83428 
L 684.476033 -388.461728 
L 686.320661 -387.097081 
L 688.165289 -385.745176 
L 690.009917 -384.408202 
L 691.854545 -383.090447 
L 693.699174 -381.760568 
L 695.543802 -380.423474 
L 697.38843 -379.057349 
L 699.233058 -377.662111 
L 701.077686 -376.193319 
L 702.922314 -374.703655 
L 704.766942 -373.19866 
L 706.61157 -371.687828 
L 708.456198 -370.174198 
L 710.300826 -368.665546 
L 712.145455 -367.057708 
L 713.990083 -365.457571 
L 715.834711 -363.719653 
L 717.679339 -361.974892 
L 719.523967 -360.210715 
L 721.368595 -358.423612 
L 723.213223 -356.611628 
L 725.057851 -354.783982 
L 726.902479 -352.947455 
L 728.747107 -351.106933 
L 730.591736 -349.264674 
L 732.436364 -347.429138 
L 734.280992 -345.604594 
L 736.12562 -343.786084 
L 737.970248 -341.948508 
L 739.814876 -340.11395 
L 741.659504 -338.261621 
L 743.504132 -336.386794 
L 745.34876 -334.495737 
L 747.193388 -332.58771 
L 749.038017 -330.671919 
L 750.882645 -328.757254 
L 752.727273 -326.848236 
L 754.571901 -324.94812 
L 756.416529 -323.065397 
L 758.261157 -321.204923 
L 760.105785 -319.407208 
L 761.950413 -317.588185 
L 763.795041 -315.763043 
L 765.639669 -313.922268 
L 767.484298 -312.05337 
L 769.328926 -310.189085 
L 771.173554 -308.415548 
L 773.018182 -306.657503 
L 774.86281 -304.923685 
L 776.707438 -303.240951 
L 778.552066 -301.615546 
L 780.396694 -300.052476 
L 782.241322 -298.876778 
L 784.08595 -297.706347 
L 785.930579 -296.512111 
L 787.775207 -295.313831 
L 789.619835 -294.115354 
L 791.464463 -292.918931 
L 793.309091 -291.729709 
L 795.153719 -290.550009 
L 796.998347 -289.385864 
L 798.842975 -288.242642 
L 800.687603 -287.131185 
L 802.532231 -286.022541 
L 804.37686 -285.052881 
L 806.221488 -284.09718 
L 808.066116 -283.11813 
L 809.910744 -282.107843 
L 811.755372 -281.095938 
L 813.6 -280.071776 
L 815.444628 -279.03563 
L 817.289256 -277.994365 
L 819.133884 -276.9476 
L 820.978512 -275.90421 
L 822.82314 -274.85855 
L 824.667769 -273.822565 
L 826.512397 -272.649989 
L 828.357025 -271.653887 
L 830.201653 -270.643184 
L 832.046281 -269.630759 
L 833.890909 -268.60922 
L 835.735537 -267.574853 
L 837.580165 -266.528602 
L 839.424793 -265.481415 
L 841.269421 -264.434769 
L 843.11405 -263.396134 
L 844.958678 -262.373976 
L 846.803306 -261.373836 
L 848.647934 -260.452679 
L 850.492562 -259.529081 
L 852.33719 -258.594674 
L 854.181818 -257.644845 
L 856.026446 -256.681366 
L 857.871074 -255.705946 
L 859.715702 -254.73011 
L 861.560331 -253.752686 
L 863.404959 -252.786119 
L 865.249587 -251.833203 
L 867.094215 -250.923902 
L 868.938843 -250.01714 
L 870.783471 -249.549691 
L 872.628099 -249.099239 
L 874.472727 -248.644884 
L 876.317355 -248.176808 
L 878.161983 -247.699147 
L 880.006612 -247.217112 
L 881.85124 -246.736175 
L 883.695868 -246.261039 
L 885.540496 -245.789524 
L 887.385124 -245.323249 
L 889.229752 -244.859703 
L 891.07438 -244.409089 
L 892.919008 -243.782719 
L 894.763636 -243.075321 
L 896.608264 -242.322479 
L 898.452893 -241.564644 
L 900.297521 -240.802442 
L 902.142149 -240.02737 
L 903.986777 -239.227417 
L 905.831405 -237.883656 
L 907.676033 -236.52889 
L 909.520661 -235.134769 
L 911.365289 -233.681597 
L 913.209917 -232.14139 
L 915.054545 -229.583948 
L 916.899174 -227.047674 
L 918.743802 -224.499705 
L 920.58843 -221.949021 
L 922.433058 -219.401424 
L 924.277686 -216.859187 
L 926.122314 -214.316851 
L 927.966942 -211.774402 
L 929.81157 -209.231848 
L 931.656198 -206.685208 
L 933.500826 -204.138462 
L 935.345455 -201.585725 
L 937.190083 -199.032875 
L 939.034711 -196.83198 
L 940.879339 -194.630748 
L 942.723967 -192.429199 
L 944.568595 -190.22732 
L 946.413223 -188.02511 
L 948.257851 -185.822591 
L 950.102479 -183.619748 
L 951.947107 -181.416596 
L 953.791736 -179.213134 
L 955.636364 -177.009363 
L 957.480992 -174.805282 
L 957.480992 -110.573144 
L 957.480992 -110.573144 
L 955.636364 -112.974486 
L 953.791736 -115.376123 
L 951.947107 -117.77807 
L 950.102479 -120.18034 
L 948.257851 -122.582905 
L 946.413223 -124.985794 
L 944.568595 -127.389007 
L 942.723967 -129.792536 
L 940.879339 -132.196395 
L 939.034711 -134.600585 
L 937.190083 -137.005099 
L 935.345455 -139.672522 
L 933.500826 -142.340043 
L 931.656198 -145.00094 
L 929.81157 -147.661942 
L 927.966942 -150.318043 
L 926.122314 -152.974249 
L 924.277686 -155.630554 
L 922.433058 -158.286971 
L 920.58843 -160.948072 
L 918.743802 -163.612668 
L 916.899174 -166.275858 
L 915.054545 -168.928492 
L 913.209917 -171.62882 
L 911.365289 -173.332447 
L 909.520661 -174.959617 
L 907.676033 -176.535373 
L 905.831405 -178.075094 
L 903.986777 -179.607664 
L 902.142149 -180.540136 
L 900.297521 -181.453987 
L 898.452893 -182.346291 
L 896.608264 -183.214873 
L 894.763636 -184.047928 
L 892.919008 -184.830841 
L 891.07438 -185.55371 
L 889.229752 -186.069178 
L 887.385124 -186.605975 
L 885.540496 -187.147765 
L 883.695868 -187.696721 
L 881.85124 -188.250185 
L 880.006612 -188.810547 
L 878.161983 -189.372134 
L 876.317355 -189.931976 
L 874.472727 -190.485328 
L 872.628099 -191.024874 
L 870.783471 -191.558844 
L 868.938843 -192.110557 
L 867.094215 -193.113481 
L 865.249587 -194.119409 
L 863.404959 -195.170541 
L 861.560331 -196.234043 
L 859.715702 -197.30732 
L 857.871074 -198.377025 
L 856.026446 -199.446259 
L 854.181818 -200.50289 
L 852.33719 -201.546209 
L 850.492562 -202.575583 
L 848.647934 -203.594232 
L 846.803306 -204.611988 
L 844.958678 -205.712129 
L 843.11405 -206.838059 
L 841.269421 -207.980901 
L 839.424793 -209.13129 
L 837.580165 -210.282305 
L 835.735537 -211.43192 
L 833.890909 -212.568567 
L 832.046281 -213.692949 
L 830.201653 -214.808007 
L 828.357025 -215.921186 
L 826.512397 -217.011426 
L 824.667769 -218.28662 
L 822.82314 -219.424575 
L 820.978512 -220.569268 
L 819.133884 -221.710113 
L 817.289256 -222.854883 
L 815.444628 -223.994927 
L 813.6 -225.130048 
L 811.755372 -226.254212 
L 809.910744 -227.367301 
L 808.066116 -228.478574 
L 806.221488 -229.559327 
L 804.37686 -230.612175 
L 802.532231 -231.686479 
L 800.687603 -232.923255 
L 798.842975 -234.165193 
L 796.998347 -235.457532 
L 795.153719 -236.778712 
L 793.309091 -238.115743 
L 791.464463 -239.460762 
L 789.619835 -240.811155 
L 787.775207 -242.165261 
L 785.930579 -243.517721 
L 784.08595 -244.864689 
L 782.241322 -246.186923 
L 780.396694 -247.513328 
L 778.552066 -249.235472 
L 776.707438 -251.026464 
L 774.86281 -252.878076 
L 773.018182 -254.776933 
L 771.173554 -256.697048 
L 769.328926 -258.629998 
L 767.484298 -260.652795 
L 765.639669 -262.678307 
L 763.795041 -264.673206 
L 761.950413 -266.65551 
L 760.105785 -268.631063 
L 758.261157 -270.573549 
L 756.416529 -272.574629 
L 754.571901 -274.601814 
L 752.727273 -276.646518 
L 750.882645 -278.69883 
L 749.038017 -280.756128 
L 747.193388 -282.814524 
L 745.34876 -284.86621 
L 743.504132 -286.902643 
L 741.659504 -288.923999 
L 739.814876 -290.915445 
L 737.970248 -292.882059 
L 736.12562 -294.852535 
L 734.280992 -296.788614 
L 732.436364 -298.729658 
L 730.591736 -300.676701 
L 728.747107 -302.627697 
L 726.902479 -304.57718 
L 725.057851 -306.524146 
L 723.213223 -308.464986 
L 721.368595 -310.395327 
L 719.523967 -312.30848 
L 717.679339 -314.201971 
L 715.834711 -316.075496 
L 713.990083 -317.941307 
L 712.145455 -319.686117 
L 710.300826 -321.43926 
L 708.456198 -323.09333 
L 706.61157 -324.752856 
L 704.766942 -326.410597 
L 702.922314 -328.062261 
L 701.077686 -329.700128 
L 699.233058 -331.317868 
L 697.38843 -332.858088 
L 695.543802 -334.355917 
L 693.699174 -335.811888 
L 691.854545 -337.258549 
L 690.009917 -338.699667 
L 688.165289 -340.163958 
L 686.320661 -341.645387 
L 684.476033 -343.138898 
L 682.631405 -344.640637 
L 680.786777 -346.144907 
L 678.942149 -347.646597 
L 677.097521 -349.140783 
L 675.252893 -350.621445 
L 673.408264 -352.080103 
L 671.563636 -353.522044 
L 669.719008 -354.974668 
L 667.87438 -356.44635 
L 666.029752 -357.933701 
L 664.185124 -359.432022 
L 662.340496 -360.940385 
L 660.495868 -362.455218 
L 658.65124 -363.977893 
L 656.806612 -365.500792 
L 654.961983 -367.012081 
L 653.117355 -368.502786 
L 651.272727 -369.964531 
L 649.428099 -371.401683 
L 647.583471 -372.840939 
L 645.738843 -374.280939 
L 643.894215 -375.743437 
L 642.049587 -377.228649 
L 640.204959 -378.730634 
L 638.360331 -380.238365 
L 636.515702 -381.743331 
L 634.671074 -383.241624 
L 632.826446 -384.723454 
L 630.981818 -386.064655 
L 629.13719 -387.372958 
L 627.292562 -388.656001 
L 625.447934 -389.935942 
L 623.603306 -391.159089 
L 621.758678 -392.400478 
L 619.91405 -393.657612 
L 618.069421 -394.920422 
L 616.224793 -396.185553 
L 614.380165 -397.445712 
L 612.535537 -398.695617 
L 610.690909 -399.933856 
L 608.846281 -401.156327 
L 607.001653 -402.357687 
L 605.157025 -403.541607 
L 603.312397 -404.728656 
L 601.467769 -405.861541 
L 599.62314 -407.019144 
L 597.778512 -408.193908 
L 595.933884 -409.381252 
L 594.089256 -410.568744 
L 592.244628 -411.754274 
L 590.4 -412.935388 
L 588.555372 -414.099447 
L 586.710744 -415.238042 
L 584.866116 -416.34246 
L 583.021488 -417.421033 
L 581.17686 -418.498304 
L 579.332231 -419.563895 
L 577.487603 -420.652285 
L 575.642975 -421.754839 
L 573.798347 -422.712805 
L 571.953719 -423.675222 
L 570.109091 -424.638673 
L 568.264463 -425.602194 
L 566.419835 -426.558535 
L 564.575207 -427.503786 
L 562.730579 -428.49671 
L 560.88595 -429.463558 
L 559.041322 -430.425328 
L 557.196694 -431.322196 
L 555.352066 -432.219928 
L 553.507438 -433.118533 
L 551.66281 -434.01803 
L 549.818182 -434.918442 
L 547.973554 -435.819775 
L 546.128926 -436.722078 
L 544.284298 -437.625352 
L 542.439669 -438.529618 
L 540.595041 -439.434917 
L 538.750413 -440.341257 
L 536.905785 -441.248659 
L 535.061157 -441.78137 
L 533.216529 -442.314503 
L 531.371901 -442.848058 
L 529.527273 -443.382049 
L 527.682645 -443.916483 
L 525.838017 -444.451367 
L 523.993388 -444.986702 
L 522.14876 -445.522514 
L 520.304132 -446.058783 
L 518.459504 -446.595531 
L 516.614876 -447.132771 
L 514.770248 -447.670503 
L 512.92562 -447.927084 
L 511.080992 -448.184135 
L 509.236364 -448.441658 
L 507.391736 -448.699659 
L 505.547107 -448.958159 
L 503.702479 -449.217152 
L 501.857851 -449.476657 
L 500.013223 -449.736684 
L 498.168595 -449.99723 
L 496.323967 -450.258312 
L 494.479339 -450.519948 
L 492.634711 -450.782127 
L 490.790083 -451.310414 
L 488.945455 -451.839314 
L 487.100826 -452.368839 
L 485.256198 -452.89899 
L 483.41157 -453.429788 
L 481.566942 -453.961248 
L 479.722314 -454.493382 
L 477.877686 -455.026205 
L 476.033058 -455.559725 
L 474.18843 -456.093969 
L 472.343802 -456.628952 
L 470.499174 -457.16468 
L 468.654545 -457.585469 
L 466.809917 -458.00706 
L 464.965289 -458.429473 
L 463.120661 -458.85273 
L 461.276033 -459.276853 
L 459.431405 -459.701854 
L 457.586777 -460.127777 
L 455.742149 -460.554621 
L 453.897521 -460.982421 
L 452.052893 -461.411206 
L 450.208264 -461.841004 
L 448.363636 -462.271842 
L 446.519008 -462.412028 
L 444.67438 -462.553311 
L 442.829752 -462.695732 
L 440.985124 -462.839315 
L 439.140496 -462.9841 
L 437.295868 -463.130129 
L 435.45124 -463.277432 
L 433.606612 -463.426063 
L 431.761983 -463.576059 
L 429.917355 -463.727469 
L 428.072727 -463.880348 
L 426.228099 -464.034747 
L 424.383471 -464.11138 
L 422.538843 -464.18951 
L 420.694215 -464.269203 
L 418.849587 -464.350519 
L 417.004959 -464.433517 
L 415.160331 -464.518272 
L 413.315702 -464.604842 
L 411.471074 -464.693318 
L 409.626446 -464.783777 
L 407.781818 -464.876317 
L 405.93719 -464.971031 
L 404.092562 -465.068023 
L 402.247934 -465.47486 
L 400.403306 -465.884087 
L 398.558678 -466.295825 
L 396.71405 -466.710208 
L 394.869421 -467.127382 
L 393.024793 -467.547517 
L 391.180165 -467.970781 
L 389.335537 -468.397379 
L 387.490909 -468.827521 
L 385.646281 -469.261475 
L 383.801653 -469.699487 
L 381.957025 -470.141879 
L 380.112397 -470.860712 
L 378.267769 -471.580924 
L 376.42314 -472.302591 
L 374.578512 -473.025756 
L 372.733884 -473.750503 
L 370.889256 -474.47691 
L 369.044628 -475.205061 
L 367.2 -475.93504 
L 365.355372 -476.666953 
L 363.510744 -477.400906 
L 361.666116 -478.137011 
L 359.821488 -478.875415 
L 357.97686 -479.136419 
L 356.132231 -479.400025 
L 354.287603 -479.666408 
L 352.442975 -479.935781 
L 350.598347 -480.208353 
L 348.753719 -480.484399 
L 346.909091 -480.764201 
L 345.064463 -481.048095 
L 343.219835 -481.336477 
L 341.375207 -481.629802 
L 339.530579 -481.928612 
L 337.68595 -482.233555 
L 335.841322 -482.447934 
L 333.996694 -482.670174 
L 332.152066 -482.901494 
L 330.307438 -483.143454 
L 328.46281 -483.398128 
L 326.618182 -483.668366 
L 324.773554 -483.958245 
L 322.928926 -484.274046 
L 321.084298 -484.626359 
L 319.239669 -485.035798 
L 317.395041 -485.555576 
z
" id="m1e7163cb33" style="stroke:#d55e00;stroke-opacity:0.1;"/>
    </defs>
    <g clip-path="url(#pfb4721d0f1)">
     <use style="fill:#d55e00;fill-opacity:0.1;stroke:#d55e00;stroke-opacity:0.1;" x="0" xlink:href="#m1e7163cb33" y="648"/>
    </g>
   </g>
   <g id="patch_3">
    <path d="M 144 576.72 
L 1036.8 576.72 
" style="fill:none;stroke:#d3d3d3;stroke-linecap:square;stroke-linejoin:miter;stroke-width:1.25;"/>
   </g>
   <g id="matplotlib.axis_1">
    <g id="xtick_1">
     <g id="line2d_1">
      <defs>
       <path d="M 0 0 
L 0 6 
" id="m1db281cc5b" style="stroke:#696969;stroke-width:1.25;"/>
      </defs>
      <g>
       <use style="fill:#696969;stroke:#696969;stroke-width:1.25;" x="273.123967" xlink:href="#m1db281cc5b" y="576.72"/>
      </g>
     </g>
     <g id="text_1">
      <!-- 1990 -->
      <g style="fill:#696969;" transform="translate(255.634904 596.218438)scale(0.15 -0.15)">
       <defs>
        <path d="M 55.859375 6.203125 
L 55.859375 0 
L 9.1875 0 
L 9.1875 6.203125 
L 29.203125 6.203125 
L 29.203125 57.671875 
Q 20.359375 48.4375 10.84375 43.265625 
L 10.84375 51.65625 
Q 23.96875 58.546875 31.203125 68.015625 
L 37.15625 68.015625 
L 37.15625 6.203125 
z
" id="FranklinGothic-Book-49"/>
        <path d="M 5.71875 12.15625 
L 12.40625 14.59375 
Q 16.546875 5.375 26.375 5.375 
Q 35.890625 5.375 40.703125 13.375 
Q 45.515625 21.390625 45.65625 35.109375 
Q 39.109375 23.09375 25.984375 23.09375 
Q 16.703125 23.09375 10.40625 29.421875 
Q 4.109375 35.75 4.109375 45.0625 
Q 4.109375 54.546875 10.71875 61.28125 
Q 17.328125 68.015625 27.59375 68.015625 
Q 40.140625 68.015625 46.828125 59.203125 
Q 53.515625 50.390625 53.515625 34.96875 
Q 53.515625 18.75 46.4375 8.71875 
Q 39.359375 -1.3125 26.265625 -1.3125 
Q 10.984375 -1.3125 5.71875 12.15625 
z
M 27.828125 29.78125 
Q 34.71875 29.78125 39.375 34.59375 
Q 44.046875 39.40625 44.046875 45.84375 
Q 44.046875 52.09375 39.625 56.578125 
Q 35.203125 61.078125 27.984375 61.078125 
Q 20.65625 61.078125 16.40625 56.46875 
Q 12.15625 51.859375 12.15625 45.21875 
Q 12.15625 38.09375 16.859375 33.9375 
Q 21.578125 29.78125 27.828125 29.78125 
z
" id="FranklinGothic-Book-57"/>
        <path d="M 29.390625 -1.3125 
Q 17.875 -1.3125 10.984375 8.671875 
Q 4.109375 18.65625 4.109375 33.453125 
Q 4.109375 48 10.640625 58 
Q 17.1875 68.015625 29.15625 68.015625 
Q 41.65625 68.015625 48.125 57.5625 
Q 54.59375 47.125 54.59375 33.0625 
Q 54.59375 19.28125 47.953125 8.984375 
Q 41.3125 -1.3125 29.390625 -1.3125 
z
M 29.4375 5.21875 
Q 37.890625 5.21875 41.9375 12.859375 
Q 46 20.515625 46 32.078125 
Q 46 44.734375 41.84375 53.125 
Q 37.703125 61.53125 29.046875 61.53125 
Q 20.703125 61.53125 16.625 53.859375 
Q 12.546875 46.1875 12.546875 33.6875 
Q 12.546875 20.703125 16.84375 12.953125 
Q 21.140625 5.21875 29.4375 5.21875 
z
" id="FranklinGothic-Book-48"/>
       </defs>
       <use xlink:href="#FranklinGothic-Book-49"/>
       <use x="57.267578" xlink:href="#FranklinGothic-Book-57"/>
       <use x="115.910156" xlink:href="#FranklinGothic-Book-57"/>
       <use x="174.552734" xlink:href="#FranklinGothic-Book-48"/>
      </g>
     </g>
    </g>
    <g id="xtick_2">
     <g id="line2d_2">
      <g>
       <use style="fill:#696969;stroke:#696969;stroke-width:1.25;" x="494.479339" xlink:href="#m1db281cc5b" y="576.72"/>
      </g>
     </g>
     <g id="text_2">
      <!-- 2000 -->
      <g style="fill:#696969;" transform="translate(476.887151 596.218438)scale(0.15 -0.15)">
       <defs>
        <path d="M 52.484375 6.9375 
L 52.484375 0 
L 5.171875 0 
L 5.171875 6.9375 
Q 33.203125 27.9375 38.59375 34.59375 
Q 44 41.265625 44 47.796875 
Q 44 53.90625 39.453125 57.65625 
Q 34.90625 61.421875 29 61.421875 
Q 22.90625 61.421875 18.21875 57.296875 
Q 13.53125 53.171875 12.9375 46.09375 
L 5.171875 48.4375 
Q 10.0625 68.015625 29.109375 68.015625 
Q 39.40625 68.015625 45.84375 62.15625 
Q 52.296875 56.296875 52.296875 47.859375 
Q 52.296875 42.046875 49.234375 36.671875 
Q 46.1875 31.296875 37.6875 23.828125 
Q 29.203125 16.359375 15.71875 6.9375 
z
" id="FranklinGothic-Book-50"/>
       </defs>
       <use xlink:href="#FranklinGothic-Book-50"/>
       <use x="58.642578" xlink:href="#FranklinGothic-Book-48"/>
       <use x="117.285156" xlink:href="#FranklinGothic-Book-48"/>
       <use x="175.927734" xlink:href="#FranklinGothic-Book-48"/>
      </g>
     </g>
    </g>
    <g id="xtick_3">
     <g id="line2d_3">
      <g>
       <use style="fill:#696969;stroke:#696969;stroke-width:1.25;" x="715.834711" xlink:href="#m1db281cc5b" y="576.72"/>
      </g>
     </g>
     <g id="text_3">
      <!-- 2010 -->
      <g style="fill:#696969;" transform="translate(698.767523 596.218438)scale(0.15 -0.15)">
       <use xlink:href="#FranklinGothic-Book-50"/>
       <use x="58.642578" xlink:href="#FranklinGothic-Book-48"/>
       <use x="113.535156" xlink:href="#FranklinGothic-Book-49"/>
       <use x="168.927734" xlink:href="#FranklinGothic-Book-48"/>
      </g>
     </g>
    </g>
    <g id="xtick_4">
     <g id="line2d_4">
      <g>
       <use style="fill:#696969;stroke:#696969;stroke-width:1.25;" x="937.190083" xlink:href="#m1db281cc5b" y="576.72"/>
      </g>
     </g>
     <g id="text_4">
      <!-- 2020 -->
      <g style="fill:#696969;" transform="translate(919.597895 596.218438)scale(0.15 -0.15)">
       <use xlink:href="#FranklinGothic-Book-50"/>
       <use x="58.642578" xlink:href="#FranklinGothic-Book-48"/>
       <use x="117.285156" xlink:href="#FranklinGothic-Book-50"/>
       <use x="175.927734" xlink:href="#FranklinGothic-Book-48"/>
      </g>
     </g>
    </g>
    <g id="text_5">
     <!-- Year -->
     <g style="fill:#696969;" transform="translate(572.109375 616.048125)scale(0.2 -0.2)">
      <defs>
       <path d="M 52 66.65625 
L 29.6875 28.03125 
L 29.6875 0 
L 21.34375 0 
L 21.34375 28.03125 
L -0.984375 66.65625 
L 8.84375 66.65625 
L 26.5625 35.984375 
L 44.390625 66.65625 
z
" id="FranklinGothic-Book-89"/>
       <path d="M 40.234375 14.703125 
L 47.359375 13.234375 
Q 45.40625 6.9375 39.734375 2.8125 
Q 34.078125 -1.3125 26.421875 -1.3125 
Q 16.3125 -1.3125 10.0625 5.78125 
Q 3.8125 12.890625 3.8125 24.421875 
Q 3.8125 36.1875 10.296875 43.4375 
Q 16.796875 50.6875 26.609375 50.6875 
Q 36.28125 50.6875 42.15625 44 
Q 48.046875 37.3125 48.1875 23.96875 
L 12.359375 23.96875 
Q 12.359375 12.796875 17.046875 8.890625 
Q 21.734375 4.984375 26.953125 4.984375 
Q 36.375 4.984375 40.234375 14.703125 
z
M 39.796875 29.6875 
Q 39.703125 33.84375 38.421875 37.0625 
Q 37.15625 40.28125 34.125 42.546875 
Q 31.109375 44.828125 26.859375 44.828125 
Q 21.140625 44.828125 17.15625 40.71875 
Q 13.1875 36.625 12.703125 29.6875 
z
" id="FranklinGothic-Book-101"/>
       <path d="M 46.296875 0 
L 38.671875 0 
Q 38.234375 2.34375 37.796875 8.890625 
Q 32.71875 -1.3125 20.515625 -1.3125 
Q 12.203125 -1.3125 7.765625 3.078125 
Q 3.328125 7.46875 3.328125 13.625 
Q 3.328125 21.09375 9.671875 25.90625 
Q 16.015625 30.71875 31.25 30.71875 
Q 33.296875 30.71875 37.796875 30.515625 
Q 37.796875 36.375 36.890625 38.984375 
Q 35.984375 41.609375 33.046875 43.171875 
Q 30.125 44.734375 25.34375 44.734375 
Q 13.671875 44.734375 11.765625 35.84375 
L 4.6875 37.0625 
Q 7.28125 50.6875 26.46875 50.6875 
Q 36.671875 50.6875 40.9375 46.171875 
Q 45.21875 41.65625 45.21875 30.515625 
L 45.21875 9.578125 
Q 45.21875 4.34375 46.296875 0 
z
M 37.796875 24.65625 
Q 33.109375 24.953125 30.671875 24.953125 
Q 21.578125 24.953125 16.546875 21.96875 
Q 11.53125 19 11.53125 13.28125 
Q 11.53125 9.671875 14.234375 7.125 
Q 16.9375 4.59375 22.078125 4.59375 
Q 29 4.59375 33.46875 9.625 
Q 37.9375 14.65625 37.9375 21.4375 
Q 37.9375 22.796875 37.796875 24.65625 
z
" id="FranklinGothic-Book-97"/>
       <path d="M 15.328125 0 
L 7.671875 0 
L 7.671875 49.3125 
L 14.40625 49.3125 
L 14.40625 37.796875 
Q 17.96875 45.953125 21.546875 48.359375 
Q 25.140625 50.78125 28.90625 50.78125 
Q 30.078125 50.78125 31.9375 50.59375 
L 31.9375 43.265625 
L 30.375 43.265625 
Q 24.03125 43.265625 19.828125 38.53125 
Q 15.625 33.796875 15.328125 26.078125 
z
" id="FranklinGothic-Book-114"/>
      </defs>
      <use xlink:href="#FranklinGothic-Book-89"/>
      <use x="45.025391" xlink:href="#FranklinGothic-Book-101"/>
      <use x="97.076172" xlink:href="#FranklinGothic-Book-97"/>
      <use x="149.957031" xlink:href="#FranklinGothic-Book-114"/>
     </g>
    </g>
   </g>
   <g id="matplotlib.axis_2">
    <g id="ytick_1">
     <g id="line2d_5">
      <path clip-path="url(#pfb4721d0f1)" d="M 144 512.905565 
L 1036.8 512.905565 
" style="fill:none;stroke:#d3d3d3;stroke-linecap:round;stroke-opacity:0.5;"/>
     </g>
     <g id="text_6">
      <!-- −4000 -->
      <g style="fill:#696969;" transform="translate(90.519531 517.904784)scale(0.15 -0.15)">
       <defs>
        <path d="M 6 36.765625 
L 52.6875 36.765625 
L 52.6875 30.03125 
L 6 30.03125 
z
" id="FranklinGothic-Book-8722"/>
        <path d="M 44.09375 0 
L 36.03125 0 
L 36.03125 15.875 
L 3.078125 15.875 
L 3.078125 21.484375 
L 33.640625 68.0625 
L 44.09375 68.0625 
L 44.09375 22.46875 
L 54.890625 22.46875 
L 54.890625 15.875 
L 44.09375 15.875 
z
M 36.03125 22.46875 
L 36.03125 54 
Q 36.03125 57.421875 36.1875 61.375 
Q 34.078125 57.515625 32.5625 55.125 
L 11.765625 22.46875 
z
" id="FranklinGothic-Book-52"/>
       </defs>
       <use xlink:href="#FranklinGothic-Book-8722"/>
       <use x="58.642578" xlink:href="#FranklinGothic-Book-52"/>
       <use x="117.285156" xlink:href="#FranklinGothic-Book-48"/>
       <use x="175.927734" xlink:href="#FranklinGothic-Book-48"/>
       <use x="234.570312" xlink:href="#FranklinGothic-Book-48"/>
      </g>
     </g>
    </g>
    <g id="ytick_2">
     <g id="line2d_6">
      <path clip-path="url(#pfb4721d0f1)" d="M 144 442.580676 
L 1036.8 442.580676 
" style="fill:none;stroke:#d3d3d3;stroke-linecap:round;stroke-opacity:0.5;"/>
     </g>
     <g id="text_7">
      <!-- −3000 -->
      <g style="fill:#696969;" transform="translate(90.519531 447.579894)scale(0.15 -0.15)">
       <defs>
        <path d="M 19.34375 31.34375 
L 19.34375 37.984375 
L 26.953125 37.984375 
Q 35.296875 37.984375 38.890625 41.40625 
Q 42.484375 44.828125 42.484375 49.703125 
Q 42.484375 55.078125 38.46875 58.21875 
Q 34.46875 61.375 28.421875 61.375 
Q 17.1875 61.375 12.890625 50.53125 
L 5.375 52.6875 
Q 11.8125 68.015625 29.203125 68.015625 
Q 38.96875 68.015625 44.96875 62.8125 
Q 50.984375 57.625 50.984375 50.296875 
Q 50.984375 44.625 47.359375 40.40625 
Q 43.75 36.1875 38.09375 35.109375 
Q 44.4375 34.1875 49 29.78125 
Q 53.5625 25.390625 53.5625 18.40625 
Q 53.5625 10.0625 46.765625 4.375 
Q 39.984375 -1.3125 28.171875 -1.3125 
Q 18.796875 -1.3125 12.125 3.125 
Q 5.46875 7.5625 2.9375 14.9375 
L 10.6875 17.53125 
Q 14.203125 5.46875 28.03125 5.46875 
Q 37.015625 5.46875 40.9375 9.296875 
Q 44.875 13.140625 44.875 18.453125 
Q 44.875 24.21875 40.15625 27.78125 
Q 35.453125 31.34375 26.953125 31.34375 
z
" id="FranklinGothic-Book-51"/>
       </defs>
       <use xlink:href="#FranklinGothic-Book-8722"/>
       <use x="58.642578" xlink:href="#FranklinGothic-Book-51"/>
       <use x="117.285156" xlink:href="#FranklinGothic-Book-48"/>
       <use x="175.927734" xlink:href="#FranklinGothic-Book-48"/>
       <use x="234.570312" xlink:href="#FranklinGothic-Book-48"/>
      </g>
     </g>
    </g>
    <g id="ytick_3">
     <g id="line2d_7">
      <path clip-path="url(#pfb4721d0f1)" d="M 144 372.255786 
L 1036.8 372.255786 
" style="fill:none;stroke:#d3d3d3;stroke-linecap:round;stroke-opacity:0.5;"/>
     </g>
     <g id="text_8">
      <!-- −2000 -->
      <g style="fill:#696969;" transform="translate(90.519531 377.255005)scale(0.15 -0.15)">
       <use xlink:href="#FranklinGothic-Book-8722"/>
       <use x="58.642578" xlink:href="#FranklinGothic-Book-50"/>
       <use x="117.285156" xlink:href="#FranklinGothic-Book-48"/>
       <use x="175.927734" xlink:href="#FranklinGothic-Book-48"/>
       <use x="234.570312" xlink:href="#FranklinGothic-Book-48"/>
      </g>
     </g>
    </g>
    <g id="ytick_4">
     <g id="line2d_8">
      <path clip-path="url(#pfb4721d0f1)" d="M 144 301.930896 
L 1036.8 301.930896 
" style="fill:none;stroke:#d3d3d3;stroke-linecap:round;stroke-opacity:0.5;"/>
     </g>
     <g id="text_9">
      <!-- −1000 -->
      <g style="fill:#696969;" transform="translate(91.007031 306.930115)scale(0.15 -0.15)">
       <use xlink:href="#FranklinGothic-Book-8722"/>
       <use x="58.642578" xlink:href="#FranklinGothic-Book-49"/>
       <use x="114.035156" xlink:href="#FranklinGothic-Book-48"/>
       <use x="172.677734" xlink:href="#FranklinGothic-Book-48"/>
       <use x="231.320312" xlink:href="#FranklinGothic-Book-48"/>
      </g>
     </g>
    </g>
    <g id="ytick_5">
     <g id="line2d_9">
      <path clip-path="url(#pfb4721d0f1)" d="M 144 231.606006 
L 1036.8 231.606006 
" style="fill:none;stroke:#d3d3d3;stroke-linecap:round;stroke-opacity:0.5;"/>
     </g>
     <g id="text_10">
      <!-- 0 -->
      <g style="fill:#696969;" transform="translate(125.703906 236.605225)scale(0.15 -0.15)">
       <use xlink:href="#FranklinGothic-Book-48"/>
      </g>
     </g>
    </g>
    <g id="ytick_6">
     <g id="line2d_10">
      <path clip-path="url(#pfb4721d0f1)" d="M 144 161.281116 
L 1036.8 161.281116 
" style="fill:none;stroke:#d3d3d3;stroke-linecap:round;stroke-opacity:0.5;"/>
     </g>
     <g id="text_11">
      <!-- 1000 -->
      <g style="fill:#696969;" transform="translate(99.803125 166.280335)scale(0.15 -0.15)">
       <use xlink:href="#FranklinGothic-Book-49"/>
       <use x="55.392578" xlink:href="#FranklinGothic-Book-48"/>
       <use x="114.035156" xlink:href="#FranklinGothic-Book-48"/>
       <use x="172.677734" xlink:href="#FranklinGothic-Book-48"/>
      </g>
     </g>
    </g>
    <g id="ytick_7">
     <g id="line2d_11">
      <path clip-path="url(#pfb4721d0f1)" d="M 144 90.956227 
L 1036.8 90.956227 
" style="fill:none;stroke:#d3d3d3;stroke-linecap:round;stroke-opacity:0.5;"/>
     </g>
     <g id="text_12">
      <!-- 2000 -->
      <g style="fill:#696969;" transform="translate(99.315625 95.955445)scale(0.15 -0.15)">
       <use xlink:href="#FranklinGothic-Book-50"/>
       <use x="58.642578" xlink:href="#FranklinGothic-Book-48"/>
       <use x="117.285156" xlink:href="#FranklinGothic-Book-48"/>
       <use x="175.927734" xlink:href="#FranklinGothic-Book-48"/>
      </g>
     </g>
    </g>
    <g id="text_13">
     <!-- Gt -->
     <g style="fill:#696969;" transform="translate(77.188281 336.786875)rotate(-90)scale(0.2 -0.2)">
      <defs>
       <path d="M 57.71875 33.59375 
L 57.71875 -0.875 
L 52.59375 -0.875 
L 50.296875 7.46875 
Q 44.140625 -1.3125 31.984375 -1.3125 
Q 18.796875 -1.3125 11.46875 8.59375 
Q 4.15625 18.5 4.15625 32.671875 
Q 4.15625 47.796875 11.90625 57.90625 
Q 19.671875 68.015625 33.015625 68.015625 
Q 51.421875 68.015625 57.03125 48.6875 
L 49.125 46.78125 
Q 47.40625 54.203125 42.71875 57.5625 
Q 38.03125 60.9375 32.46875 60.9375 
Q 22.609375 60.9375 17.921875 52.96875 
Q 13.234375 45.015625 13.234375 33.015625 
Q 13.234375 20.0625 18.484375 12.765625 
Q 23.734375 5.46875 32.765625 5.46875 
Q 39.796875 5.46875 44.5 10.125 
Q 49.21875 14.796875 49.21875 23 
Q 49.21875 24.515625 49.125 26.609375 
L 32.625 26.609375 
L 32.625 33.59375 
z
" id="FranklinGothic-Book-71"/>
       <path d="M 30.03125 5.28125 
L 30.03125 -0.78125 
Q 25.984375 -1.3125 23 -1.3125 
Q 8.6875 -1.3125 8.6875 13.625 
L 8.6875 43.3125 
L -0.046875 43.3125 
L -0.046875 49.3125 
L 8.6875 49.3125 
L 9.03125 61.71875 
L 16.15625 62.40625 
L 16.15625 49.3125 
L 27.203125 49.3125 
L 27.203125 43.3125 
L 16.15625 43.3125 
L 16.15625 12.359375 
Q 16.15625 4.734375 24.078125 4.734375 
Q 26.703125 4.734375 30.03125 5.28125 
z
" id="FranklinGothic-Book-116"/>
      </defs>
      <use xlink:href="#FranklinGothic-Book-71"/>
      <use x="64.697266" xlink:href="#FranklinGothic-Book-116"/>
     </g>
    </g>
   </g>
   <g id="text_14">
    <!-- Greenland ice sheet cumulative mass balance -->
    <g style="fill:#696969;" transform="translate(144 42.76)scale(0.4 -0.4)">
     <defs>
      <path d="M 46.53125 0 
L 39.359375 0 
L 39.359375 31.6875 
Q 39.359375 38.53125 36.375 41.3125 
Q 33.40625 44.09375 29.15625 44.09375 
Q 23.296875 44.09375 19.3125 39.40625 
Q 15.328125 34.71875 15.328125 27.046875 
L 15.328125 0 
L 7.671875 0 
L 7.671875 49.3125 
L 14.796875 49.3125 
L 14.796875 40.234375 
Q 20.796875 50.6875 30.375 50.6875 
Q 35.890625 50.6875 39.765625 47.828125 
Q 43.65625 44.96875 45.09375 41.40625 
Q 46.53125 37.84375 46.53125 28.515625 
z
" id="FranklinGothic-Book-110"/>
      <path d="M 15.328125 0 
L 7.671875 0 
L 7.671875 66.65625 
L 15.328125 66.65625 
z
" id="FranklinGothic-Book-108"/>
      <path d="M 46.1875 66.65625 
L 46.1875 0 
L 39.203125 0 
L 39.203125 8.453125 
Q 34.03125 -1.3125 23.640625 -1.3125 
Q 14.984375 -1.3125 9.421875 5.9375 
Q 3.859375 13.1875 3.859375 24.265625 
Q 3.859375 35.59375 9.375 43.140625 
Q 14.890625 50.6875 24.03125 50.6875 
Q 32.90625 50.6875 38.53125 42.578125 
L 38.53125 66.65625 
z
M 38.53125 30.28125 
Q 38.53125 36.765625 34.5625 40.671875 
Q 30.609375 44.578125 25.34375 44.578125 
Q 19.625 44.578125 15.9375 39.5 
Q 12.25 34.421875 12.25 25.25 
Q 12.25 15.328125 15.640625 10.15625 
Q 19.046875 4.984375 24.953125 4.984375 
Q 30.328125 4.984375 34.421875 9.46875 
Q 38.53125 13.96875 38.53125 20.015625 
z
" id="FranklinGothic-Book-100"/>
      <path id="FranklinGothic-Book-32"/>
      <path d="M 15.578125 66.65625 
L 15.578125 58.15625 
L 7.328125 58.15625 
L 7.328125 66.65625 
z
M 15.328125 49.3125 
L 15.328125 0 
L 7.671875 0 
L 7.671875 49.3125 
z
" id="FranklinGothic-Book-105"/>
      <path d="M 36.8125 17.28125 
L 43.75 16.0625 
Q 42.28125 7.90625 37.25 3.296875 
Q 32.234375 -1.3125 24.703125 -1.3125 
Q 14.5 -1.3125 9.15625 6.203125 
Q 3.8125 13.71875 3.8125 24.5625 
Q 3.8125 35.796875 9.453125 43.234375 
Q 15.09375 50.6875 24.8125 50.6875 
Q 32.859375 50.6875 37.71875 45.875 
Q 42.578125 41.0625 43.75 33.453125 
L 36.8125 32.125 
Q 34.859375 44.34375 25 44.34375 
Q 18.65625 44.34375 15.234375 38.9375 
Q 11.8125 33.546875 11.8125 24.953125 
Q 11.8125 15.484375 15.203125 10.234375 
Q 18.609375 4.984375 24.75 4.984375 
Q 34.28125 4.984375 36.8125 17.28125 
z
" id="FranklinGothic-Book-99"/>
      <path d="M 1.03125 12.796875 
L 8.34375 14.3125 
Q 10.796875 4.984375 23.78125 4.984375 
Q 28.5625 4.984375 31.875 7.125 
Q 35.203125 9.28125 35.203125 13.1875 
Q 35.203125 19 26.765625 20.5625 
L 16.359375 22.515625 
Q 10.25 23.6875 6.640625 27.09375 
Q 3.03125 30.515625 3.03125 36.140625 
Q 3.03125 42.328125 7.953125 46.5 
Q 12.890625 50.6875 21.234375 50.6875 
Q 37.3125 50.6875 41.0625 38.140625 
L 34.03125 36.625 
Q 31 44.34375 21.578125 44.34375 
Q 16.890625 44.34375 13.890625 42.40625 
Q 10.890625 40.484375 10.890625 37.015625 
Q 10.890625 31.546875 18.5625 30.125 
L 28.171875 28.421875 
Q 43.265625 25.6875 43.265625 13.8125 
Q 43.265625 7.03125 37.640625 2.859375 
Q 32.03125 -1.3125 22.703125 -1.3125 
Q 5.171875 -1.3125 1.03125 12.796875 
z
" id="FranklinGothic-Book-115"/>
      <path d="M 46.34375 0 
L 38.671875 0 
L 38.671875 29.9375 
Q 38.671875 35.203125 38.015625 37.84375 
Q 37.359375 40.484375 34.890625 42.40625 
Q 32.421875 44.34375 29.203125 44.34375 
Q 23.296875 44.34375 19.3125 39.5 
Q 15.328125 34.671875 15.328125 26.5625 
L 15.328125 0 
L 7.671875 0 
L 7.671875 66.65625 
L 15.328125 66.65625 
L 15.328125 40.234375 
Q 20.5625 50.6875 30.28125 50.6875 
Q 34.625 50.6875 38.015625 48.96875 
Q 41.40625 47.265625 43.203125 44.484375 
Q 45.015625 41.703125 45.671875 38.984375 
Q 46.34375 36.28125 46.34375 29.9375 
z
" id="FranklinGothic-Book-104"/>
      <path d="M 46.484375 0 
L 39.59375 0 
L 39.59375 9.421875 
Q 34.328125 -1.3125 23.875 -1.3125 
Q 16.3125 -1.3125 11.984375 3.65625 
Q 7.671875 8.640625 7.671875 17.828125 
L 7.671875 49.3125 
L 15.328125 49.3125 
L 15.328125 17.828125 
Q 15.328125 10.5 18.375 7.734375 
Q 21.4375 4.984375 25.09375 4.984375 
Q 28.8125 4.984375 31.8125 7.078125 
Q 34.8125 9.1875 36.8125 13.0625 
Q 38.8125 16.9375 38.8125 21.53125 
L 38.8125 49.3125 
L 46.484375 49.3125 
z
" id="FranklinGothic-Book-117"/>
      <path d="M 73.734375 0 
L 66.265625 0 
L 66.265625 30.671875 
Q 66.265625 35.40625 65.59375 37.765625 
Q 64.9375 40.140625 62.390625 42.109375 
Q 59.859375 44.09375 56.6875 44.09375 
Q 52.296875 44.09375 48.21875 40.0625 
Q 44.140625 36.03125 44.140625 27.78125 
L 44.140625 0 
L 36.71875 0 
L 36.71875 32.46875 
Q 36.71875 38.96875 33.609375 41.65625 
Q 30.515625 44.34375 27.09375 44.34375 
Q 22.21875 44.34375 18.59375 40.140625 
Q 14.984375 35.9375 14.984375 29.5 
L 14.984375 0 
L 7.671875 0 
L 7.671875 49.3125 
L 14.265625 49.3125 
L 14.265625 39.84375 
Q 19.78125 50.6875 29.4375 50.6875 
Q 34.765625 50.6875 38.46875 47.21875 
Q 42.1875 43.75 43.265625 38.875 
Q 48.34375 50.6875 58.84375 50.6875 
Q 63.875 50.6875 67.65625 47.796875 
Q 71.4375 44.921875 72.578125 41.1875 
Q 73.734375 37.453125 73.734375 30.671875 
z
" id="FranklinGothic-Book-109"/>
      <path d="M 43.796875 49.3125 
L 26.765625 0 
L 18.796875 0 
L 1.171875 49.3125 
L 9.671875 49.3125 
L 23.390625 9.234375 
L 36.96875 49.3125 
z
" id="FranklinGothic-Book-118"/>
      <path d="M 11.375 0 
L 7.671875 0 
L 7.671875 66.65625 
L 15.328125 66.65625 
L 15.328125 41.109375 
Q 20.609375 50.6875 29.890625 50.6875 
Q 38.375 50.6875 44.109375 44 
Q 49.859375 37.3125 49.859375 24.5625 
Q 49.859375 13.578125 44.21875 6.125 
Q 38.578125 -1.3125 29.546875 -1.3125 
Q 19.484375 -1.3125 14.109375 8.15625 
z
M 15.328125 19.34375 
Q 15.875 11.765625 20 8.34375 
Q 24.125 4.9375 28.71875 4.9375 
Q 34.578125 4.9375 38.15625 10.015625 
Q 41.75 15.09375 41.75 23.921875 
Q 41.75 33.453125 38.28125 38.890625 
Q 34.8125 44.34375 28.65625 44.34375 
Q 23.828125 44.34375 19.9375 40.453125 
Q 16.0625 36.578125 15.328125 30.421875 
z
" id="FranklinGothic-Book-98"/>
     </defs>
     <use xlink:href="#FranklinGothic-Book-71"/>
     <use x="64.697266" xlink:href="#FranklinGothic-Book-114"/>
     <use x="97.65625" xlink:href="#FranklinGothic-Book-101"/>
     <use x="149.707031" xlink:href="#FranklinGothic-Book-101"/>
     <use x="201.757812" xlink:href="#FranklinGothic-Book-110"/>
     <use x="255.957031" xlink:href="#FranklinGothic-Book-108"/>
     <use x="278.955078" xlink:href="#FranklinGothic-Book-97"/>
     <use x="331.835938" xlink:href="#FranklinGothic-Book-110"/>
     <use x="386.035156" xlink:href="#FranklinGothic-Book-100"/>
     <use x="439.892578" xlink:href="#FranklinGothic-Book-32"/>
     <use x="464.892578" xlink:href="#FranklinGothic-Book-105"/>
     <use x="487.841797" xlink:href="#FranklinGothic-Book-99"/>
     <use x="534.423828" xlink:href="#FranklinGothic-Book-101"/>
     <use x="586.474609" xlink:href="#FranklinGothic-Book-32"/>
     <use x="611.474609" xlink:href="#FranklinGothic-Book-115"/>
     <use x="657.861328" xlink:href="#FranklinGothic-Book-104"/>
     <use x="711.865234" xlink:href="#FranklinGothic-Book-101"/>
     <use x="763.916016" xlink:href="#FranklinGothic-Book-101"/>
     <use x="815.466797" xlink:href="#FranklinGothic-Book-116"/>
     <use x="846.228516" xlink:href="#FranklinGothic-Book-32"/>
     <use x="871.228516" xlink:href="#FranklinGothic-Book-99"/>
     <use x="917.810547" xlink:href="#FranklinGothic-Book-117"/>
     <use x="971.960938" xlink:href="#FranklinGothic-Book-109"/>
     <use x="1053.357422" xlink:href="#FranklinGothic-Book-117"/>
     <use x="1107.507812" xlink:href="#FranklinGothic-Book-108"/>
     <use x="1130.505859" xlink:href="#FranklinGothic-Book-97"/>
     <use x="1183.386719" xlink:href="#FranklinGothic-Book-116"/>
     <use x="1214.148438" xlink:href="#FranklinGothic-Book-105"/>
     <use x="1237.097656" xlink:href="#FranklinGothic-Book-118"/>
     <use x="1280.617188" xlink:href="#FranklinGothic-Book-101"/>
     <use x="1332.667969" xlink:href="#FranklinGothic-Book-32"/>
     <use x="1357.667969" xlink:href="#FranklinGothic-Book-109"/>
     <use x="1439.064453" xlink:href="#FranklinGothic-Book-97"/>
     <use x="1491.945312" xlink:href="#FranklinGothic-Book-115"/>
     <use x="1538.332031" xlink:href="#FranklinGothic-Book-115"/>
     <use x="1584.71875" xlink:href="#FranklinGothic-Book-32"/>
     <use x="1609.71875" xlink:href="#FranklinGothic-Book-98"/>
     <use x="1663.429688" xlink:href="#FranklinGothic-Book-97"/>
     <use x="1716.310547" xlink:href="#FranklinGothic-Book-108"/>
     <use x="1739.308594" xlink:href="#FranklinGothic-Book-97"/>
     <use x="1792.189453" xlink:href="#FranklinGothic-Book-110"/>
     <use x="1846.388672" xlink:href="#FranklinGothic-Book-99"/>
     <use x="1892.970703" xlink:href="#FranklinGothic-Book-101"/>
    </g>
   </g>
   <g id="legend_1">
    <g id="line2d_12"/>
    <g id="text_15">
     <!-- Mankoff et al. 2021 (1986.01-2022.09) -->
     <g style="fill:#009e73;" transform="translate(643.66925 129.7184)scale(0.2 -0.2)">
      <defs>
       <path d="M 72.703125 0 
L 64.59375 0 
L 64.59375 58.203125 
L 42.921875 0 
L 37.25 0 
L 15.4375 58.203125 
L 15.4375 0 
L 8.34375 0 
L 8.34375 66.65625 
L 20.75 66.65625 
L 40.828125 13.328125 
L 60.5 66.65625 
L 72.703125 66.65625 
z
" id="FranklinGothic-Book-77"/>
       <path d="M 48.390625 0 
L 40.4375 0 
L 26.03125 27.546875 
L 15.328125 15.234375 
L 15.328125 0 
L 7.671875 0 
L 7.671875 66.65625 
L 15.328125 66.65625 
L 15.328125 23.96875 
L 38.234375 49.3125 
L 46.4375 49.3125 
L 31 31.984375 
z
" id="FranklinGothic-Book-107"/>
       <path d="M 25.34375 -1.3125 
Q 15.1875 -1.3125 9.5 6.203125 
Q 3.8125 13.71875 3.8125 24.859375 
Q 3.8125 36.625 10.203125 43.65625 
Q 16.609375 50.6875 26.125 50.6875 
Q 36.328125 50.6875 42.203125 43.28125 
Q 48.09375 35.890625 48.09375 24.8125 
Q 48.09375 13.28125 41.75 5.984375 
Q 35.40625 -1.3125 25.34375 -1.3125 
z
M 25.921875 4.984375 
Q 31.78125 4.984375 35.734375 9.8125 
Q 39.703125 14.65625 39.703125 24.859375 
Q 39.703125 35.109375 35.546875 39.71875 
Q 31.390625 44.34375 25.828125 44.34375 
Q 20.125 44.34375 16.15625 39.671875 
Q 12.203125 35.015625 12.203125 24.90625 
Q 12.203125 14.203125 16.15625 9.59375 
Q 20.125 4.984375 25.921875 4.984375 
z
" id="FranklinGothic-Book-111"/>
       <path d="M 28.125 49.3125 
L 28.125 43.3125 
L 16.40625 43.3125 
L 16.40625 0 
L 8.734375 0 
L 8.734375 43.3125 
L 0.34375 43.3125 
L 0.34375 49.3125 
L 8.734375 49.3125 
Q 8.9375 61.1875 13.296875 64.59375 
Q 17.671875 68.015625 23.96875 68.015625 
Q 27.046875 68.015625 31 67.328125 
L 31 61.234375 
Q 28.515625 61.859375 26.265625 61.859375 
Q 21.234375 61.859375 18.8125 59.640625 
Q 16.40625 57.421875 16.40625 51.3125 
L 16.40625 49.3125 
z
" id="FranklinGothic-Book-102"/>
       <path d="M 17.96875 10.9375 
L 17.96875 0 
L 7.078125 0 
L 7.078125 10.9375 
z
" id="FranklinGothic-Book-46"/>
       <path d="M 24.703125 -16.65625 
L 19.578125 -16.65625 
Q 5.21875 2.203125 5.21875 25.09375 
Q 5.21875 46.96875 19.578125 66.65625 
L 24.703125 66.65625 
Q 12.359375 48.25 12.359375 25 
Q 12.359375 2.828125 24.703125 -16.65625 
z
" id="FranklinGothic-Book-40"/>
       <path d="M 19.484375 34.578125 
Q 6.84375 40.09375 6.84375 50.59375 
Q 6.84375 58.203125 13.140625 63.109375 
Q 19.4375 68.015625 29.828125 68.015625 
Q 40.09375 68.015625 46.140625 63.296875 
Q 52.203125 58.59375 52.203125 50.984375 
Q 52.203125 40.375 39.265625 35.796875 
Q 49.703125 30.953125 52.359375 26.453125 
Q 55.03125 21.96875 55.03125 17.484375 
Q 55.03125 9.46875 48.21875 4.078125 
Q 41.40625 -1.3125 29.734375 -1.3125 
Q 17.28125 -1.3125 10.4375 4.171875 
Q 3.609375 9.671875 3.609375 17.234375 
Q 3.609375 28.515625 19.484375 34.578125 
z
M 29.59375 38.71875 
Q 37.984375 40.96875 41.453125 43.890625 
Q 44.921875 46.828125 44.921875 51.21875 
Q 44.921875 56.34375 40.796875 59 
Q 36.671875 61.671875 29.9375 61.671875 
Q 23.484375 61.671875 19.375 58.859375 
Q 15.28125 56.0625 15.28125 51.3125 
Q 15.28125 46.625 19.84375 43.203125 
Q 24.421875 39.796875 29.59375 38.71875 
z
M 28.65625 31.0625 
Q 11.765625 27.046875 11.765625 16.9375 
Q 11.765625 11.671875 16.375 8.328125 
Q 21 4.984375 29.984375 4.984375 
Q 37.59375 4.984375 42.234375 8.25 
Q 46.875 11.53125 46.875 16.609375 
Q 46.875 26.3125 28.65625 31.0625 
z
" id="FranklinGothic-Book-56"/>
       <path d="M 53.5625 53.03125 
L 46.046875 50.984375 
Q 42.1875 61.140625 31.984375 61.140625 
Q 13.234375 61.140625 12.796875 30.125 
Q 15.765625 37.015625 21.234375 40.328125 
Q 26.703125 43.65625 32.8125 43.65625 
Q 42.09375 43.65625 48.359375 37.1875 
Q 54.640625 30.71875 54.640625 21.6875 
Q 54.640625 12.3125 47.96875 5.5 
Q 41.3125 -1.3125 30.90625 -1.3125 
Q 19.09375 -1.3125 12.078125 7.59375 
Q 5.078125 16.5 5.078125 31.84375 
Q 5.078125 46.828125 11.6875 57.421875 
Q 18.3125 68.015625 32.171875 68.015625 
Q 48.140625 68.015625 53.5625 53.03125 
z
M 30.765625 5.375 
Q 37.84375 5.375 42.359375 10.03125 
Q 46.875 14.703125 46.875 21.234375 
Q 46.875 27.6875 42.453125 32.296875 
Q 38.03125 36.921875 31.5 36.921875 
Q 24.75 36.921875 19.71875 32.078125 
Q 14.703125 27.25 14.703125 20.75 
Q 14.703125 14.75 19.1875 10.0625 
Q 23.6875 5.375 30.765625 5.375 
z
" id="FranklinGothic-Book-54"/>
       <path d="M 23.53125 27.984375 
L 23.53125 22.015625 
L 1.46875 22.015625 
L 1.46875 27.984375 
z
" id="FranklinGothic-Book-45"/>
       <path d="M 4.640625 66.65625 
L 9.71875 66.65625 
Q 24.125 47.796875 24.125 24.90625 
Q 24.125 3.03125 9.71875 -16.65625 
L 4.640625 -16.65625 
Q 17 1.765625 17 25 
Q 17 47.171875 4.640625 66.65625 
z
" id="FranklinGothic-Book-41"/>
      </defs>
      <use xlink:href="#FranklinGothic-Book-77"/>
      <use x="81.005859" xlink:href="#FranklinGothic-Book-97"/>
      <use x="133.886719" xlink:href="#FranklinGothic-Book-110"/>
      <use x="188.085938" xlink:href="#FranklinGothic-Book-107"/>
      <use x="236.058594" xlink:href="#FranklinGothic-Book-111"/>
      <use x="288.011719" xlink:href="#FranklinGothic-Book-102"/>
      <use x="320.617188" xlink:href="#FranklinGothic-Book-102"/>
      <use x="350.597656" xlink:href="#FranklinGothic-Book-32"/>
      <use x="375.597656" xlink:href="#FranklinGothic-Book-101"/>
      <use x="427.148438" xlink:href="#FranklinGothic-Book-116"/>
      <use x="457.910156" xlink:href="#FranklinGothic-Book-32"/>
      <use x="482.910156" xlink:href="#FranklinGothic-Book-97"/>
      <use x="535.791016" xlink:href="#FranklinGothic-Book-108"/>
      <use x="558.789062" xlink:href="#FranklinGothic-Book-46"/>
      <use x="583.789062" xlink:href="#FranklinGothic-Book-32"/>
      <use x="608.789062" xlink:href="#FranklinGothic-Book-50"/>
      <use x="667.431641" xlink:href="#FranklinGothic-Book-48"/>
      <use x="726.074219" xlink:href="#FranklinGothic-Book-50"/>
      <use x="781.216797" xlink:href="#FranklinGothic-Book-49"/>
      <use x="839.859375" xlink:href="#FranklinGothic-Book-32"/>
      <use x="864.859375" xlink:href="#FranklinGothic-Book-40"/>
      <use x="894.205078" xlink:href="#FranklinGothic-Book-49"/>
      <use x="951.472656" xlink:href="#FranklinGothic-Book-57"/>
      <use x="1010.115234" xlink:href="#FranklinGothic-Book-56"/>
      <use x="1068.757812" xlink:href="#FranklinGothic-Book-54"/>
      <use x="1127.400391" xlink:href="#FranklinGothic-Book-46"/>
      <use x="1152.400391" xlink:href="#FranklinGothic-Book-48"/>
      <use x="1207.292969" xlink:href="#FranklinGothic-Book-49"/>
      <use x="1265.935547" xlink:href="#FranklinGothic-Book-45"/>
      <use x="1290.935547" xlink:href="#FranklinGothic-Book-50"/>
      <use x="1349.578125" xlink:href="#FranklinGothic-Book-48"/>
      <use x="1408.220703" xlink:href="#FranklinGothic-Book-50"/>
      <use x="1466.863281" xlink:href="#FranklinGothic-Book-50"/>
      <use x="1525.505859" xlink:href="#FranklinGothic-Book-46"/>
      <use x="1550.505859" xlink:href="#FranklinGothic-Book-48"/>
      <use x="1609.148438" xlink:href="#FranklinGothic-Book-57"/>
      <use x="1667.791016" xlink:href="#FranklinGothic-Book-41"/>
     </g>
    </g>
    <g id="line2d_13"/>
    <g id="text_16">
     <!-- IMBIE 2021 (1992.01-2020.12) -->
     <g style="fill:#d55e00;" transform="translate(643.66925 157.04965)scale(0.2 -0.2)">
      <defs>
       <path d="M 16.703125 0 
L 8.34375 0 
L 8.34375 66.65625 
L 16.703125 66.65625 
z
" id="FranklinGothic-Book-73"/>
       <path d="M 8.34375 0 
L 8.34375 66.65625 
L 34.71875 66.65625 
Q 44.671875 66.65625 49.484375 61.765625 
Q 54.296875 56.890625 54.296875 50.4375 
Q 54.296875 39.109375 42.484375 35.40625 
Q 49.515625 33.59375 52.921875 28.953125 
Q 56.34375 24.3125 56.34375 18.453125 
Q 56.34375 10.59375 51.046875 5.296875 
Q 45.75 0 34.71875 0 
z
M 16.40625 38.09375 
L 30.90625 38.09375 
Q 39.9375 38.09375 42.96875 41.53125 
Q 46 44.96875 46 49.609375 
Q 46 54.203125 42.75 57.03125 
Q 39.5 59.859375 33.0625 59.859375 
L 16.40625 59.859375 
z
M 16.40625 7.328125 
L 34.28125 7.328125 
Q 40.828125 7.328125 44.390625 10.5 
Q 47.953125 13.671875 47.953125 18.75 
Q 47.953125 22.3125 46.34375 25.359375 
Q 44.734375 28.421875 41.796875 30.078125 
Q 38.875 31.734375 33.0625 31.734375 
L 16.40625 31.734375 
z
" id="FranklinGothic-Book-66"/>
       <path d="M 51.46875 7.328125 
L 51.46875 0 
L 8.34375 0 
L 8.34375 66.65625 
L 50.53125 66.65625 
L 50.53125 59.328125 
L 16.703125 59.328125 
L 16.703125 38.140625 
L 43.5625 38.140625 
L 43.5625 31.34375 
L 16.703125 31.34375 
L 16.703125 7.328125 
z
" id="FranklinGothic-Book-69"/>
      </defs>
      <use xlink:href="#FranklinGothic-Book-73"/>
      <use x="25" xlink:href="#FranklinGothic-Book-77"/>
      <use x="106.005859" xlink:href="#FranklinGothic-Book-66"/>
      <use x="166.455078" xlink:href="#FranklinGothic-Book-73"/>
      <use x="191.455078" xlink:href="#FranklinGothic-Book-69"/>
      <use x="246.240234" xlink:href="#FranklinGothic-Book-32"/>
      <use x="271.240234" xlink:href="#FranklinGothic-Book-50"/>
      <use x="329.882812" xlink:href="#FranklinGothic-Book-48"/>
      <use x="388.525391" xlink:href="#FranklinGothic-Book-50"/>
      <use x="443.667969" xlink:href="#FranklinGothic-Book-49"/>
      <use x="502.310547" xlink:href="#FranklinGothic-Book-32"/>
      <use x="527.310547" xlink:href="#FranklinGothic-Book-40"/>
      <use x="556.65625" xlink:href="#FranklinGothic-Book-49"/>
      <use x="613.923828" xlink:href="#FranklinGothic-Book-57"/>
      <use x="672.566406" xlink:href="#FranklinGothic-Book-57"/>
      <use x="731.208984" xlink:href="#FranklinGothic-Book-50"/>
      <use x="789.851562" xlink:href="#FranklinGothic-Book-46"/>
      <use x="814.851562" xlink:href="#FranklinGothic-Book-48"/>
      <use x="869.744141" xlink:href="#FranklinGothic-Book-49"/>
      <use x="928.386719" xlink:href="#FranklinGothic-Book-45"/>
      <use x="953.386719" xlink:href="#FranklinGothic-Book-50"/>
      <use x="1012.029297" xlink:href="#FranklinGothic-Book-48"/>
      <use x="1070.671875" xlink:href="#FranklinGothic-Book-50"/>
      <use x="1129.314453" xlink:href="#FranklinGothic-Book-48"/>
      <use x="1187.957031" xlink:href="#FranklinGothic-Book-46"/>
      <use x="1209.082031" xlink:href="#FranklinGothic-Book-49"/>
      <use x="1267.724609" xlink:href="#FranklinGothic-Book-50"/>
      <use x="1326.367188" xlink:href="#FranklinGothic-Book-41"/>
     </g>
    </g>
    <g id="line2d_14"/>
    <g id="text_17">
     <!-- NASA GRACE (2002.04-2022.05) -->
     <g style="fill:#56b4e9;" transform="translate(643.66925 184.3809)scale(0.2 -0.2)">
      <defs>
       <path d="M 57.421875 0 
L 49.3125 0 
L 14.84375 58.109375 
L 14.9375 53.71875 
Q 15.09375 51.21875 15.09375 49.515625 
L 15.09375 0 
L 8.34375 0 
L 8.34375 66.65625 
L 18.796875 66.65625 
L 51.03125 12.3125 
L 50.921875 16.9375 
Q 50.828125 19.671875 50.828125 21.78125 
L 50.828125 66.65625 
L 57.421875 66.65625 
z
" id="FranklinGothic-Book-78"/>
       <path d="M 53.21875 0 
L 44.671875 0 
L 37.9375 19.484375 
L 13.28125 19.484375 
L 7.328125 0 
L 0.34375 0 
L 21.96875 66.65625 
L 31.5 66.65625 
z
M 36.1875 25.734375 
L 25.921875 57.765625 
L 15.578125 25.734375 
z
" id="FranklinGothic-Book-65"/>
       <path d="M 1.03125 17.71875 
L 8.546875 19.4375 
Q 13.09375 5.8125 28.21875 5.8125 
Q 36.140625 5.8125 40.140625 9.15625 
Q 44.140625 12.5 44.140625 18.109375 
Q 44.140625 22.359375 41.078125 24.953125 
Q 38.03125 27.546875 34.03125 28.515625 
L 20.703125 31.84375 
Q 15.53125 33.15625 12.234375 35.03125 
Q 8.9375 36.921875 6.640625 40.828125 
Q 4.34375 44.734375 4.34375 49.75 
Q 4.34375 58.109375 10.640625 63.0625 
Q 16.9375 68.015625 26.8125 68.015625 
Q 44.96875 68.015625 50.6875 51.5625 
L 43.109375 49.3125 
Q 41.796875 55.171875 36.90625 58.171875 
Q 32.03125 61.1875 26.515625 61.1875 
Q 21.046875 61.1875 16.765625 58.296875 
Q 12.5 55.421875 12.5 50.140625 
Q 12.5 42.78125 23.34375 40.1875 
L 35.796875 37.203125 
Q 52.875 33.109375 52.875 18.796875 
Q 52.875 10.15625 46.453125 4.421875 
Q 40.046875 -1.3125 28.375 -1.3125 
Q 7.671875 -1.3125 1.03125 17.71875 
z
" id="FranklinGothic-Book-83"/>
       <path d="M 56.296875 0 
L 47.5625 0 
L 35.25 28.859375 
L 16.15625 28.859375 
L 16.15625 0 
L 8.34375 0 
L 8.34375 66.65625 
L 34.625 66.65625 
Q 45.3125 66.65625 50.453125 60.8125 
Q 55.609375 54.984375 55.609375 48.046875 
Q 55.609375 42.71875 52.734375 37.828125 
Q 49.859375 32.953125 43.21875 30.859375 
z
M 16.15625 35.640625 
L 33.59375 35.640625 
Q 40.484375 35.640625 43.875 39.28125 
Q 47.265625 42.921875 47.265625 48.1875 
Q 47.265625 53.46875 43.671875 56.390625 
Q 40.09375 59.328125 34.625 59.328125 
L 16.15625 59.328125 
z
" id="FranklinGothic-Book-82"/>
       <path d="M 48.296875 22.40625 
L 55.90625 20.703125 
Q 50.4375 -1.3125 31.203125 -1.3125 
Q 18.5625 -1.3125 11.359375 8.890625 
Q 4.15625 19.09375 4.15625 33.984375 
Q 4.15625 49.359375 11.671875 58.6875 
Q 19.1875 68.015625 31.84375 68.015625 
Q 50.59375 68.015625 55.90625 46.578125 
L 48.046875 45.015625 
Q 43.75 60.9375 31.78125 60.9375 
Q 22.953125 60.9375 18.09375 53.53125 
Q 13.234375 46.140625 13.234375 32.765625 
Q 13.234375 20.515625 18.203125 13.109375 
Q 23.1875 5.71875 31.390625 5.71875 
Q 44.140625 5.71875 48.296875 22.40625 
z
" id="FranklinGothic-Book-67"/>
       <path d="M 48.875 66.65625 
L 48.1875 59.46875 
L 15.4375 59.46875 
L 14.015625 37.84375 
Q 21.4375 45.125 30.328125 45.125 
Q 39.703125 45.125 46.515625 38.625 
Q 53.328125 32.125 53.328125 22.015625 
Q 53.328125 11.765625 45.921875 5.21875 
Q 38.53125 -1.3125 27.828125 -1.3125 
Q 19.4375 -1.3125 12.890625 3.078125 
Q 6.34375 7.46875 4.296875 14.453125 
L 11.421875 16.890625 
Q 15.828125 5.28125 27.9375 5.28125 
Q 35.890625 5.28125 40.578125 9.984375 
Q 45.265625 14.703125 45.265625 22.015625 
Q 45.265625 29.6875 40.625 33.984375 
Q 35.984375 38.28125 29.5 38.28125 
Q 20.015625 38.28125 13.8125 29.203125 
L 7.234375 30.609375 
L 9.375 66.65625 
z
" id="FranklinGothic-Book-53"/>
      </defs>
      <use xlink:href="#FranklinGothic-Book-78"/>
      <use x="65.722656" xlink:href="#FranklinGothic-Book-65"/>
      <use x="119.287109" xlink:href="#FranklinGothic-Book-83"/>
      <use x="176.220703" xlink:href="#FranklinGothic-Book-65"/>
      <use x="229.785156" xlink:href="#FranklinGothic-Book-32"/>
      <use x="254.785156" xlink:href="#FranklinGothic-Book-71"/>
      <use x="319.482422" xlink:href="#FranklinGothic-Book-82"/>
      <use x="380.761719" xlink:href="#FranklinGothic-Book-65"/>
      <use x="431.826172" xlink:href="#FranklinGothic-Book-67"/>
      <use x="489.736328" xlink:href="#FranklinGothic-Book-69"/>
      <use x="544.521484" xlink:href="#FranklinGothic-Book-32"/>
      <use x="569.521484" xlink:href="#FranklinGothic-Book-40"/>
      <use x="598.867188" xlink:href="#FranklinGothic-Book-50"/>
      <use x="657.509766" xlink:href="#FranklinGothic-Book-48"/>
      <use x="716.152344" xlink:href="#FranklinGothic-Book-48"/>
      <use x="774.794922" xlink:href="#FranklinGothic-Book-50"/>
      <use x="833.4375" xlink:href="#FranklinGothic-Book-46"/>
      <use x="858.4375" xlink:href="#FranklinGothic-Book-48"/>
      <use x="917.080078" xlink:href="#FranklinGothic-Book-52"/>
      <use x="975.722656" xlink:href="#FranklinGothic-Book-45"/>
      <use x="1000.722656" xlink:href="#FranklinGothic-Book-50"/>
      <use x="1059.365234" xlink:href="#FranklinGothic-Book-48"/>
      <use x="1118.007812" xlink:href="#FranklinGothic-Book-50"/>
      <use x="1176.650391" xlink:href="#FranklinGothic-Book-50"/>
      <use x="1235.292969" xlink:href="#FranklinGothic-Book-46"/>
      <use x="1260.292969" xlink:href="#FranklinGothic-Book-48"/>
      <use x="1318.935547" xlink:href="#FranklinGothic-Book-53"/>
      <use x="1377.578125" xlink:href="#FranklinGothic-Book-41"/>
     </g>
    </g>
   </g>
   <g id="line2d_15">
    <path clip-path="url(#pfb4721d0f1)" d="M 544.284298 187.346334 
L 546.128926 182.581822 
L 551.66281 202.7292 
L 553.507438 204.386054 
L 555.352066 201.898663 
L 557.196694 202.09065 
L 559.041322 201.012569 
L 560.88595 197.724178 
L 562.730579 198.34163 
L 564.575207 193.769809 
L 566.419835 190.525019 
L 568.264463 190.115728 
L 571.953719 202.433835 
L 573.798347 212.017711 
L 575.642975 214.973467 
L 577.487603 214.742098 
L 579.332231 214.944633 
L 581.17686 212.077488 
L 583.021488 213.726606 
L 584.866116 214.325774 
L 586.710744 212.806053 
L 588.555372 208.410045 
L 592.244628 210.965651 
L 594.089256 217.782946 
L 595.933884 226.46385 
L 597.778512 229.416089 
L 599.62314 230.732571 
L 601.467769 227.753609 
L 603.312397 226.018694 
L 605.157025 227.02012 
L 607.001653 225.562285 
L 608.846281 222.283739 
L 610.690909 221.842802 
L 612.535537 219.13459 
L 614.380165 222.52636 
L 616.224793 231.606006 
L 618.069421 244.937496 
L 619.91405 249.503691 
L 621.758678 248.936872 
L 623.603306 248.725897 
L 625.447934 245.15058 
L 627.292562 246.834861 
L 629.13719 243.509197 
L 630.981818 242.062614 
L 632.826446 243.801045 
L 634.671074 243.090764 
L 636.515702 243.888248 
L 638.360331 249.94955 
L 640.204959 258.894876 
L 642.049587 263.102415 
L 643.894215 262.118569 
L 645.738843 264.112983 
L 647.583471 264.724107 
L 649.428099 262.468084 
L 651.272727 259.58617 
L 653.117355 260.197997 
L 656.806612 258.399789 
L 658.65124 259.787299 
L 660.495868 268.949929 
L 662.340496 282.729388 
L 664.185124 287.218226 
L 666.029752 289.061441 
L 667.87438 287.372237 
L 669.719008 283.216036 
L 671.563636 280.490947 
L 673.408264 281.750466 
L 675.252893 277.954328 
L 677.097521 279.237757 
L 678.942149 280.283488 
L 680.786777 280.54791 
L 682.631405 290.922941 
L 684.476033 302.157342 
L 686.320661 306.736196 
L 688.165289 305.818456 
L 691.854545 295.615018 
L 693.699174 294.231727 
L 695.543802 297.547546 
L 697.38843 297.491989 
L 699.233058 296.113621 
L 701.077686 294.876606 
L 702.922314 295.413888 
L 704.766942 303.149626 
L 706.61157 317.918556 
L 708.456198 321.664763 
L 710.300826 319.71817 
L 712.145455 318.599301 
L 713.990083 316.954402 
L 715.834711 317.114743 
L 717.679339 315.775054 
L 719.523967 314.928342 
L 721.368595 316.625985 
L 723.213223 314.258849 
L 725.057851 321.749856 
L 726.902479 334.158683 
L 728.747107 347.87274 
L 730.591736 354.719571 
L 732.436364 352.162558 
L 734.280992 353.429813 
L 736.12562 352.17592 
L 739.814876 350.640024 
L 741.659504 349.65196 
L 743.504132 349.196958 
L 745.34876 350.64565 
L 749.038017 364.053091 
L 750.882645 377.612433 
L 752.727273 381.60759 
L 754.571901 383.292574 
L 754.571901 383.221546 
L 760.105785 378.99502 
L 760.105785 379.700379 
L 761.950413 378.38671 
L 763.795041 375.179191 
L 765.639669 374.516028 
L 769.328926 376.472466 
L 771.173554 392.716109 
L 773.018182 414.513309 
L 774.86281 421.588696 
L 778.552066 416.896619 
L 780.396694 415.879721 
L 782.241322 415.758059 
L 784.08595 415.163111 
L 787.775207 415.02879 
L 789.619835 412.440131 
L 791.464463 411.167251 
L 793.309091 419.066142 
L 798.842975 423.482545 
L 800.687603 423.505049 
L 802.532231 422.652008 
L 804.37686 421.625968 
L 808.066116 417.978216 
L 809.910744 417.030237 
L 811.755372 417.075948 
L 813.6 419.823541 
L 817.289256 439.755725 
L 819.133884 442.351416 
L 820.978512 441.216373 
L 822.82314 440.915382 
L 826.512397 434.969413 
L 828.357025 435.248603 
L 830.201653 432.176108 
L 832.046281 431.574127 
L 832.046281 431.334319 
L 837.580165 444.410529 
L 839.424793 453.873446 
L 841.269421 456.404439 
L 846.803306 452.379043 
L 848.647934 448.589937 
L 850.492562 450.182093 
L 852.33719 450.17506 
L 856.026446 447.941542 
L 857.871074 447.719315 
L 859.715702 459.92209 
L 861.560331 477.487841 
L 867.094215 468.475707 
L 868.938843 473.308433 
L 870.783471 469.700063 
L 876.317355 469.108631 
L 876.317355 466.838543 
L 878.161983 466.499577 
L 880.006612 468.466564 
L 902.142149 472.08267 
L 903.986777 473.733899 
L 909.520661 483.592042 
L 911.365289 481.210138 
L 913.209917 481.995667 
L 915.054545 482.345181 
L 916.899174 484.185584 
L 918.743802 485.646232 
L 920.58843 484.567448 
L 922.433058 483.274876 
L 924.277686 487.196895 
L 926.122314 501.385645 
L 927.966942 517.520285 
L 929.81157 524.010569 
L 931.656198 522.932488 
L 933.500826 519.97181 
L 935.345455 520.288272 
L 937.190083 522.933895 
L 939.034711 519.693324 
L 940.879339 522.16876 
L 942.723967 521.519661 
L 944.568595 519.608231 
L 946.413223 522.251743 
L 948.257851 533.027626 
L 950.102479 538.8013 
L 951.947107 539.155737 
L 953.791736 534.467177 
L 955.636364 534.119068 
L 957.480992 532.590205 
L 959.32562 528.344692 
L 961.170248 532.700615 
L 963.014876 532.374308 
L 964.859504 530.894672 
L 966.704132 534.094455 
L 968.54876 533.700635 
L 970.393388 536.361026 
L 972.238017 546.117198 
L 974.082645 549.604609 
L 975.927273 552.625766 
L 977.771901 549.930917 
L 979.616529 547.93369 
L 981.461157 547.341554 
L 986.995041 544.446279 
L 988.839669 546.288087 
L 988.839669 546.288087 
" style="fill:none;stroke:#56b4e9;stroke-linecap:round;"/>
   </g>
   <g id="line2d_16">
    <path clip-path="url(#pfb4721d0f1)" d="M 317.395041 161.299443 
L 339.530579 161.942916 
L 359.821488 163.5137 
L 381.957025 170.986894 
L 404.092562 174.161577 
L 428.072727 173.628831 
L 448.363636 173.930525 
L 470.499174 177.759834 
L 492.634711 182.989995 
L 514.770248 185.061984 
L 536.905785 190.465559 
L 560.88595 200.611085 
L 571.953719 205.912111 
L 575.642975 207.699137 
L 592.244628 216.994548 
L 612.535537 229.234327 
L 629.13719 239.940012 
L 632.826446 242.444155 
L 658.65124 262.238424 
L 667.87438 269.465875 
L 699.233058 293.510011 
L 708.456198 301.366236 
L 712.145455 304.628088 
L 715.834711 308.102425 
L 723.213223 315.461693 
L 741.659504 334.40719 
L 752.727273 346.252623 
L 760.105785 353.980865 
L 774.86281 369.09912 
L 778.552066 372.574491 
L 780.396694 374.217098 
L 802.532231 389.14549 
L 813.6 395.399088 
L 824.667769 401.945407 
L 826.512397 403.169292 
L 835.735537 408.496614 
L 846.803306 415.007088 
L 856.026446 419.936188 
L 867.094215 425.981308 
L 868.938843 426.936151 
L 891.07438 433.0186 
L 894.763636 434.438376 
L 902.142149 437.716247 
L 903.986777 438.58246 
L 909.520661 442.952807 
L 913.209917 446.114895 
L 927.966942 466.953777 
L 937.190083 479.981013 
L 957.480992 505.310787 
L 957.480992 505.310787 
" style="fill:none;stroke:#d55e00;stroke-linecap:round;"/>
   </g>
   <g id="line2d_17">
    <path clip-path="url(#pfb4721d0f1)" d="M 184.581818 114.346796 
L 186.426446 111.922767 
L 188.271074 110.707002 
L 190.115702 108.218207 
L 191.960331 108.504539 
L 193.804959 110.092624 
L 195.649587 116.453631 
L 197.494215 118.343389 
L 199.338843 116.43009 
L 201.183471 115.467002 
L 203.028099 115.844812 
L 204.872727 113.191373 
L 206.717355 107.721281 
L 208.561983 106.576833 
L 210.406612 105.011532 
L 214.095868 100.44 
L 215.940496 105.38001 
L 217.785124 114.406203 
L 219.629752 122.433701 
L 221.47438 121.512783 
L 223.319008 120.354753 
L 225.163636 117.630355 
L 227.008264 116.47993 
L 228.852893 116.027707 
L 230.697521 114.399207 
L 232.542149 113.70645 
L 234.386777 113.917056 
L 236.231405 112.544632 
L 238.076033 112.884209 
L 239.920661 124.188533 
L 241.765289 129.597526 
L 243.609917 129.153618 
L 245.454545 127.432879 
L 247.299174 125.039857 
L 249.143802 123.734953 
L 250.98843 123.741033 
L 252.833058 124.351343 
L 254.677686 124.367246 
L 256.522314 125.097779 
L 258.366942 125.002065 
L 260.21157 128.612823 
L 262.056198 138.610464 
L 263.900826 143.285198 
L 265.745455 141.382097 
L 267.590083 140.105001 
L 269.434711 137.322459 
L 271.279339 134.949725 
L 273.123967 134.609256 
L 276.813223 135.445737 
L 278.657851 135.092479 
L 280.502479 133.658577 
L 282.347107 139.17033 
L 284.191736 150.020286 
L 286.036364 154.905864 
L 289.72562 150.821719 
L 293.414876 144.360234 
L 295.259504 142.167271 
L 297.104132 139.548503 
L 298.94876 138.917027 
L 300.793388 139.657583 
L 302.638017 137.517852 
L 304.482645 142.496959 
L 306.327273 154.453283 
L 308.171901 157.332033 
L 310.016529 156.678507 
L 311.861157 153.084737 
L 313.705785 152.600373 
L 317.395041 146.456821 
L 319.239669 145.233249 
L 321.084298 144.810293 
L 322.928926 144.768072 
L 324.773554 143.940194 
L 326.618182 142.740568 
L 328.46281 147.998582 
L 330.307438 150.395614 
L 332.152066 148.885964 
L 333.996694 145.275245 
L 335.841322 143.957664 
L 337.68595 143.320317 
L 339.530579 143.361015 
L 341.375207 140.369197 
L 343.219835 139.022538 
L 345.064463 138.027662 
L 346.909091 138.556168 
L 348.753719 142.956259 
L 350.598347 155.01115 
L 352.442975 158.212246 
L 354.287603 157.203164 
L 356.132231 154.194318 
L 357.97686 150.016425 
L 359.821488 149.564912 
L 361.666116 149.54738 
L 363.510744 146.959306 
L 365.355372 147.204454 
L 367.2 146.187063 
L 369.044628 146.037796 
L 370.889256 147.683784 
L 372.733884 157.182378 
L 374.578512 160.512017 
L 376.42314 159.054027 
L 378.267769 159.114592 
L 380.112397 158.086484 
L 381.957025 157.441325 
L 383.801653 158.220924 
L 385.646281 158.755407 
L 387.490909 158.732608 
L 389.335537 159.140009 
L 391.180165 159.947144 
L 393.024793 164.503931 
L 394.869421 176.512017 
L 396.71405 181.037397 
L 398.558678 179.12218 
L 400.403306 179.001154 
L 402.247934 174.877544 
L 404.092562 172.185728 
L 407.781818 165.485959 
L 409.626446 161.443989 
L 411.471074 160.56191 
L 413.315702 160.78322 
L 415.160331 163.429288 
L 417.004959 170.410433 
L 418.849587 171.689841 
L 420.694215 168.739524 
L 422.538843 167.766035 
L 424.383471 165.567461 
L 428.072727 159.736924 
L 429.917355 159.292279 
L 431.761983 159.619931 
L 433.606612 157.620564 
L 435.45124 158.167873 
L 437.295868 163.09428 
L 439.140496 170.427637 
L 440.985124 172.496558 
L 444.67438 166.708069 
L 446.519008 165.238501 
L 448.363636 162.059193 
L 450.208264 160.808239 
L 452.052893 160.270055 
L 453.897521 158.591785 
L 455.742149 157.486847 
L 457.586777 155.916549 
L 459.431405 163.353748 
L 461.276033 176.800195 
L 463.120661 181.105216 
L 464.965289 182.803502 
L 466.809917 182.04962 
L 468.654545 179.805433 
L 470.499174 179.018494 
L 472.343802 178.06279 
L 474.18843 175.985242 
L 476.033058 176.137109 
L 477.877686 175.63635 
L 479.722314 173.327652 
L 481.566942 173.767943 
L 483.41157 185.703748 
L 485.256198 189.64335 
L 487.100826 188.160537 
L 488.945455 186.206832 
L 490.790083 182.914606 
L 492.634711 182.251506 
L 494.479339 179.358964 
L 496.323967 179.116584 
L 498.168595 178.532602 
L 500.013223 176.524086 
L 501.857851 175.557418 
L 503.702479 180.75209 
L 505.547107 187.973332 
L 507.391736 192.611263 
L 509.236364 189.935814 
L 511.080992 189.254304 
L 512.92562 187.249502 
L 514.770248 187.576944 
L 516.614876 185.052441 
L 518.459504 183.448626 
L 520.304132 183.941059 
L 522.14876 183.711852 
L 523.993388 182.22692 
L 525.838017 185.353453 
L 527.682645 194.34331 
L 529.527273 201.38997 
L 531.371901 199.461098 
L 533.216529 198.13381 
L 536.905785 189.312215 
L 538.750413 187.494367 
L 540.595041 188.047998 
L 544.284298 188.275996 
L 546.128926 188.631711 
L 547.973554 194.636993 
L 549.818182 206.351298 
L 551.66281 210.012233 
L 553.507438 208.183806 
L 557.196694 202.760483 
L 559.041322 199.185174 
L 560.88595 197.003986 
L 564.575207 193.197389 
L 566.419835 189.81504 
L 568.264463 189.51274 
L 570.109091 197.833259 
L 571.953719 211.809538 
L 573.798347 217.453624 
L 575.642975 215.898062 
L 577.487603 212.923995 
L 579.332231 211.673848 
L 581.17686 210.785542 
L 583.021488 211.34845 
L 584.866116 209.270884 
L 586.710744 205.875356 
L 588.555372 204.71492 
L 590.4 205.493104 
L 592.244628 210.78013 
L 594.089256 220.405806 
L 595.933884 226.041333 
L 597.778512 225.167373 
L 599.62314 223.381602 
L 601.467769 222.150182 
L 603.312397 222.291698 
L 605.157025 219.497347 
L 607.001653 216.286727 
L 608.846281 213.777039 
L 610.690909 212.296082 
L 612.535537 212.447504 
L 614.380165 218.20087 
L 616.224793 231.606006 
L 618.069421 238.604418 
L 619.91405 239.18103 
L 621.758678 239.09597 
L 623.603306 236.107636 
L 625.447934 233.976087 
L 627.292562 232.333001 
L 629.13719 231.818822 
L 630.981818 233.09977 
L 632.826446 231.788929 
L 634.671074 232.278572 
L 636.515702 233.951901 
L 638.360331 244.543005 
L 640.204959 251.762131 
L 642.049587 251.988542 
L 643.894215 252.53678 
L 645.738843 252.725577 
L 649.428099 248.739433 
L 651.272727 248.096229 
L 653.117355 247.259639 
L 654.961983 246.106639 
L 656.806612 246.752976 
L 658.65124 252.27243 
L 660.495868 268.284166 
L 662.340496 276.461291 
L 664.185124 274.305127 
L 666.029752 273.302827 
L 667.87438 270.196247 
L 669.719008 268.568524 
L 671.563636 268.015621 
L 673.408264 266.503874 
L 675.252893 266.288933 
L 677.097521 265.879053 
L 678.942149 265.8034 
L 680.786777 273.388759 
L 682.631405 287.868985 
L 684.476033 293.836458 
L 688.165289 288.410015 
L 690.009917 285.213825 
L 691.854545 282.468035 
L 693.699174 281.745403 
L 695.543802 281.673962 
L 697.38843 282.047289 
L 699.233058 280.883452 
L 701.077686 280.591362 
L 702.922314 283.482805 
L 704.766942 296.773687 
L 706.61157 304.305021 
L 708.456198 302.452402 
L 710.300826 301.502899 
L 712.145455 301.454484 
L 713.990083 299.20441 
L 715.834711 295.854146 
L 717.679339 295.319499 
L 719.523967 295.695998 
L 721.368595 296.429658 
L 723.213223 297.360247 
L 725.057851 304.975585 
L 726.902479 321.618709 
L 728.747107 330.042145 
L 730.591736 329.036165 
L 734.280992 327.737986 
L 736.12562 325.344602 
L 737.970248 324.561212 
L 739.814876 322.160671 
L 741.659504 322.302248 
L 743.504132 320.71115 
L 745.34876 321.294833 
L 747.193388 328.099604 
L 749.038017 344.335584 
L 750.882645 352.160556 
L 752.727273 351.172681 
L 754.571901 350.606284 
L 756.416529 348.3449 
L 758.261157 348.439988 
L 761.950413 345.389547 
L 763.795041 342.874796 
L 765.639669 341.660771 
L 767.484298 342.167059 
L 769.328926 353.070799 
L 771.173554 374.431683 
L 773.018182 384.565506 
L 774.86281 383.634726 
L 776.707438 380.304091 
L 778.552066 378.939787 
L 780.396694 378.284858 
L 782.241322 375.296235 
L 784.08595 373.737182 
L 785.930579 374.148375 
L 787.775207 374.422271 
L 789.619835 373.117983 
L 791.464463 377.137551 
L 793.309091 388.677194 
L 795.153719 391.888165 
L 796.998347 388.299428 
L 798.842975 387.138843 
L 800.687603 385.470772 
L 802.532231 385.286548 
L 804.37686 383.566582 
L 806.221488 383.245485 
L 808.066116 382.65269 
L 809.910744 380.941553 
L 811.755372 381.054248 
L 813.6 385.804928 
L 815.444628 399.864637 
L 817.289256 406.342918 
L 819.133884 403.476031 
L 820.978512 403.197593 
L 822.82314 399.982948 
L 824.667769 398.059153 
L 826.512397 397.05522 
L 828.357025 396.301575 
L 830.201653 395.669841 
L 832.046281 395.165957 
L 833.890909 394.29935 
L 835.735537 399.46019 
L 837.580165 416.559879 
L 839.424793 421.415601 
L 841.269421 418.301678 
L 843.11405 414.740495 
L 844.958678 413.783247 
L 846.803306 413.007466 
L 848.647934 411.61035 
L 850.492562 411.679377 
L 852.33719 410.382104 
L 854.181818 408.598685 
L 856.026446 408.512161 
L 857.871074 414.992287 
L 859.715702 433.931432 
L 861.560331 441.402812 
L 863.404959 441.377577 
L 865.249587 435.806557 
L 867.094215 432.583722 
L 868.938843 431.14025 
L 870.783471 429.352986 
L 872.628099 426.80583 
L 874.472727 427.209056 
L 876.317355 426.277006 
L 878.161983 425.577619 
L 880.006612 431.038608 
L 881.85124 441.917024 
L 883.695868 445.555741 
L 887.385124 439.353666 
L 889.229752 438.20018 
L 891.07438 438.206505 
L 892.919008 437.664511 
L 894.763636 433.747027 
L 896.608264 433.851963 
L 898.452893 433.660893 
L 900.297521 432.352357 
L 902.142149 434.149047 
L 903.986777 441.146726 
L 905.831405 447.012353 
L 907.676033 445.944332 
L 909.520661 445.09574 
L 911.365289 443.783343 
L 913.209917 443.283592 
L 915.054545 441.91318 
L 916.899174 441.67853 
L 918.743802 441.708299 
L 920.58843 437.597405 
L 922.433058 440.109079 
L 924.277686 447.83758 
L 926.122314 466.197753 
L 927.966942 476.367534 
L 929.81157 475.653488 
L 931.656198 474.657725 
L 933.500826 471.966465 
L 935.345455 472.133595 
L 937.190083 471.211091 
L 939.034711 471.296629 
L 940.879339 470.800972 
L 942.723967 469.211385 
L 944.568595 470.184499 
L 946.413223 472.880719 
L 948.257851 486.277921 
L 950.102479 490.295838 
L 951.947107 489.798165 
L 953.791736 487.1413 
L 955.636364 485.290039 
L 957.480992 484.206619 
L 959.32562 483.978812 
L 961.170248 482.502542 
L 963.014876 481.518031 
L 964.859504 480.342458 
L 966.704132 480.474952 
L 968.54876 484.658242 
L 970.393388 494.012409 
L 972.238017 502.386957 
L 974.082645 501.554316 
L 975.927273 501.22903 
L 977.771901 498.898984 
L 979.616529 497.970853 
L 981.461157 495.569186 
L 983.305785 494.89257 
L 985.150413 493.058548 
L 986.995041 492.311936 
L 988.839669 492.482841 
L 990.684298 493.670649 
L 992.528926 504.847182 
L 994.373554 508.269566 
L 996.218182 509.197559 
L 996.218182 509.197559 
" style="fill:none;stroke:#009e73;stroke-linecap:round;"/>
   </g>
  </g>
 </g>
 <defs>
  <clipPath id="pfb4721d0f1">
   <rect height="498.96" width="892.8" x="144" y="77.76"/>
  </clipPath>
 </defs>
</svg>
