<?xml version="1.0" encoding="utf-8" standalone="no"?>
<!DOCTYPE svg PUBLIC "-//W3C//DTD SVG 1.1//EN"
  "http://www.w3.org/Graphics/SVG/1.1/DTD/svg11.dtd">
<!-- Created with matplotlib (https://matplotlib.org/) -->
<svg height="648pt" version="1.1" viewBox="0 0 1152 648" width="1152pt" xmlns="http://www.w3.org/2000/svg" xmlns:xlink="http://www.w3.org/1999/xlink">
 <metadata>
  <rdf:RDF xmlns:cc="http://creativecommons.org/ns#" xmlns:dc="http://purl.org/dc/elements/1.1/" xmlns:rdf="http://www.w3.org/1999/02/22-rdf-syntax-ns#">
   <cc:Work>
    <dc:type rdf:resource="http://purl.org/dc/dcmitype/StillImage"/>
    <dc:date>2022-08-25T11:10:36.400676</dc:date>
    <dc:format>image/svg+xml</dc:format>
    <dc:creator>
     <cc:Agent>
      <dc:title>Matplotlib v3.3.1, https://matplotlib.org/</dc:title>
     </cc:Agent>
    </dc:creator>
   </cc:Work>
  </rdf:RDF>
 </metadata>
 <defs>
  <style type="text/css">*{stroke-linecap:butt;stroke-linejoin:round;}</style>
 </defs>
 <g id="figure_1">
  <g id="patch_1">
   <path d="M 0 648 
L 1152 648 
L 1152 0 
L 0 0 
z
" style="fill:#ffffff;"/>
  </g>
  <g id="axes_1">
   <g id="patch_2">
    <path d="M 144 576.72 
L 1036.8 576.72 
L 1036.8 77.76 
L 144 77.76 
z
" style="fill:none;"/>
   </g>
   <g id="line2d_1">
    <path clip-path="url(#pef32eb6199)" d="M 796.8689 334.941936 
L 801.615311 299.503967 
L 806.361722 290.475658 
L 811.108134 344.307878 
L 815.854545 291.670879 
L 820.600957 349.104519 
L 825.347368 360.014569 
L 830.09378 336.033616 
L 834.840191 294.065823 
L 839.586603 285.384151 
L 844.333014 317.355754 
L 849.079426 254.83736 
L 853.825837 269.634693 
L 858.572249 332.315151 
L 863.31866 319.944274 
L 868.065072 310.132657 
L 872.811483 262.11673 
L 877.557895 297.221567 
L 882.304306 264.207804 
L 887.050718 213.25672 
L 891.797129 285.881597 
L 896.543541 287.245635 
L 901.289952 244.0286 
L 906.036364 217.916057 
L 910.782775 221.416186 
L 915.529187 237.989469 
L 920.275598 194.164694 
L 925.02201 207.156816 
L 929.768421 209.162356 
L 934.514833 244.944711 
L 939.261244 209.65305 
L 944.007656 183.806111 
L 948.754067 222.116212 
L 953.500478 208.30927 
L 958.24689 200.955621 
L 962.993301 190.380953 
L 967.739713 150.033799 
L 972.486124 100.44 
L 977.232536 126.253175 
L 981.978947 147.791915 
L 986.725359 111.24651 
L 991.47177 102.339749 
L 996.218182 145.144872 
" style="fill:none;stroke:#0072b2;stroke-linecap:round;stroke-width:3;"/>
   </g>
   <g id="line2d_2">
    <path clip-path="url(#pef32eb6199)" d="M 697.194258 345.855067 
L 701.94067 363.82573 
L 706.687081 368.671698 
L 711.433493 362.18067 
L 716.179904 365.963976 
L 720.926316 365.427629 
L 725.672727 418.561924 
L 730.419139 399.308801 
L 735.16555 390.456354 
L 739.911962 391.347539 
L 744.658373 398.95865 
L 749.404785 358.715352 
L 754.151196 369.842716 
L 758.897608 403.823489 
L 763.644019 374.040874 
L 768.390431 347.366406 
L 773.136842 420.091002 
L 777.883254 403.550546 
L 782.629665 432.615237 
L 787.376077 358.105485 
L 792.122488 374.738937 
L 796.8689 343.198118 
L 801.615311 309.315334 
L 806.361722 298.77037 
L 811.108134 349.128679 
L 815.854545 299.843828 
L 820.600957 350.504608 
L 825.347368 358.943387 
L 830.09378 332.258585 
L 834.840191 294.608181 
L 839.586603 287.606758 
L 844.333014 316.853498 
L 849.079426 266.101827 
L 853.825837 278.249422 
L 858.572249 330.106999 
L 863.31866 320.281906 
L 868.065072 301.398194 
L 872.811483 254.52479 
L 877.557895 289.905311 
L 882.304306 259.335045 
L 887.050718 206.183536 
L 891.797129 273.001778 
L 896.543541 272.777719 
L 901.289952 237.659517 
L 906.036364 209.403357 
L 910.782775 221.748258 
L 915.529187 245.970885 
L 920.275598 198.032013 
L 925.02201 211.132617 
L 929.768421 212.725872 
L 934.514833 251.495114 
L 939.261244 214.043465 
L 944.007656 192.849567 
L 948.754067 224.420982 
L 953.500478 213.034013 
L 958.24689 202.656966 
L 962.993301 191.519733 
L 967.739713 155.834863 
L 972.486124 106.01416 
L 977.232536 142.483971 
L 981.978947 165.113554 
L 986.725359 122.737104 
L 991.47177 124.055214 
L 996.218182 165.479546 
" style="fill:none;stroke:#d55e00;stroke-linecap:round;stroke-width:3;"/>
   </g>
   <g id="patch_3">
    <path d="M 144 576.72 
L 1036.8 576.72 
" style="fill:none;stroke:#d3d3d3;stroke-linecap:square;stroke-linejoin:miter;stroke-width:1.25;"/>
   </g>
   <g id="matplotlib.axis_1">
    <g id="xtick_1">
     <g id="line2d_3">
      <defs>
       <path d="M 0 0 
L 0 6 
" id="mb752bb43c3" style="stroke:#696969;stroke-width:1.25;"/>
      </defs>
      <g>
       <use style="fill:#696969;stroke:#696969;stroke-width:1.25;" x="232.045933" xlink:href="#mb752bb43c3" y="576.72"/>
      </g>
     </g>
     <g id="text_1">
      <!-- 1860 -->
      <g style="fill:#696969;" transform="translate(214.500621 596.218438)scale(0.15 -0.15)">
       <defs>
        <path d="M 55.859375 6.203125 
L 55.859375 0 
L 9.1875 0 
L 9.1875 6.203125 
L 29.203125 6.203125 
L 29.203125 57.671875 
Q 20.359375 48.4375 10.84375 43.265625 
L 10.84375 51.65625 
Q 23.96875 58.546875 31.203125 68.015625 
L 37.15625 68.015625 
L 37.15625 6.203125 
z
" id="FranklinGothic-Book-49"/>
        <path d="M 19.484375 34.578125 
Q 6.84375 40.09375 6.84375 50.59375 
Q 6.84375 58.203125 13.140625 63.109375 
Q 19.4375 68.015625 29.828125 68.015625 
Q 40.09375 68.015625 46.140625 63.296875 
Q 52.203125 58.59375 52.203125 50.984375 
Q 52.203125 40.375 39.265625 35.796875 
Q 49.703125 30.953125 52.359375 26.453125 
Q 55.03125 21.96875 55.03125 17.484375 
Q 55.03125 9.46875 48.21875 4.078125 
Q 41.40625 -1.3125 29.734375 -1.3125 
Q 17.28125 -1.3125 10.4375 4.171875 
Q 3.609375 9.671875 3.609375 17.234375 
Q 3.609375 28.515625 19.484375 34.578125 
z
M 29.59375 38.71875 
Q 37.984375 40.96875 41.453125 43.890625 
Q 44.921875 46.828125 44.921875 51.21875 
Q 44.921875 56.34375 40.796875 59 
Q 36.671875 61.671875 29.9375 61.671875 
Q 23.484375 61.671875 19.375 58.859375 
Q 15.28125 56.0625 15.28125 51.3125 
Q 15.28125 46.625 19.84375 43.203125 
Q 24.421875 39.796875 29.59375 38.71875 
z
M 28.65625 31.0625 
Q 11.765625 27.046875 11.765625 16.9375 
Q 11.765625 11.671875 16.375 8.328125 
Q 21 4.984375 29.984375 4.984375 
Q 37.59375 4.984375 42.234375 8.25 
Q 46.875 11.53125 46.875 16.609375 
Q 46.875 26.3125 28.65625 31.0625 
z
" id="FranklinGothic-Book-56"/>
        <path d="M 53.5625 53.03125 
L 46.046875 50.984375 
Q 42.1875 61.140625 31.984375 61.140625 
Q 13.234375 61.140625 12.796875 30.125 
Q 15.765625 37.015625 21.234375 40.328125 
Q 26.703125 43.65625 32.8125 43.65625 
Q 42.09375 43.65625 48.359375 37.1875 
Q 54.640625 30.71875 54.640625 21.6875 
Q 54.640625 12.3125 47.96875 5.5 
Q 41.3125 -1.3125 30.90625 -1.3125 
Q 19.09375 -1.3125 12.078125 7.59375 
Q 5.078125 16.5 5.078125 31.84375 
Q 5.078125 46.828125 11.6875 57.421875 
Q 18.3125 68.015625 32.171875 68.015625 
Q 48.140625 68.015625 53.5625 53.03125 
z
M 30.765625 5.375 
Q 37.84375 5.375 42.359375 10.03125 
Q 46.875 14.703125 46.875 21.234375 
Q 46.875 27.6875 42.453125 32.296875 
Q 38.03125 36.921875 31.5 36.921875 
Q 24.75 36.921875 19.71875 32.078125 
Q 14.703125 27.25 14.703125 20.75 
Q 14.703125 14.75 19.1875 10.0625 
Q 23.6875 5.375 30.765625 5.375 
z
" id="FranklinGothic-Book-54"/>
        <path d="M 29.390625 -1.3125 
Q 17.875 -1.3125 10.984375 8.671875 
Q 4.109375 18.65625 4.109375 33.453125 
Q 4.109375 48 10.640625 58 
Q 17.1875 68.015625 29.15625 68.015625 
Q 41.65625 68.015625 48.125 57.5625 
Q 54.59375 47.125 54.59375 33.0625 
Q 54.59375 19.28125 47.953125 8.984375 
Q 41.3125 -1.3125 29.390625 -1.3125 
z
M 29.4375 5.21875 
Q 37.890625 5.21875 41.9375 12.859375 
Q 46 20.515625 46 32.078125 
Q 46 44.734375 41.84375 53.125 
Q 37.703125 61.53125 29.046875 61.53125 
Q 20.703125 61.53125 16.625 53.859375 
Q 12.546875 46.1875 12.546875 33.6875 
Q 12.546875 20.703125 16.84375 12.953125 
Q 21.140625 5.21875 29.4375 5.21875 
z
" id="FranklinGothic-Book-48"/>
       </defs>
       <use xlink:href="#FranklinGothic-Book-49"/>
       <use x="58.017578" xlink:href="#FranklinGothic-Book-56"/>
       <use x="116.660156" xlink:href="#FranklinGothic-Book-54"/>
       <use x="175.302734" xlink:href="#FranklinGothic-Book-48"/>
      </g>
     </g>
    </g>
    <g id="xtick_2">
     <g id="line2d_4">
      <g>
       <use style="fill:#696969;stroke:#696969;stroke-width:1.25;" x="326.974163" xlink:href="#mb752bb43c3" y="576.72"/>
      </g>
     </g>
     <g id="text_2">
      <!-- 1880 -->
      <g style="fill:#696969;" transform="translate(309.42885 596.218438)scale(0.15 -0.15)">
       <use xlink:href="#FranklinGothic-Book-49"/>
       <use x="58.017578" xlink:href="#FranklinGothic-Book-56"/>
       <use x="116.660156" xlink:href="#FranklinGothic-Book-56"/>
       <use x="175.302734" xlink:href="#FranklinGothic-Book-48"/>
      </g>
     </g>
    </g>
    <g id="xtick_3">
     <g id="line2d_5">
      <g>
       <use style="fill:#696969;stroke:#696969;stroke-width:1.25;" x="421.902392" xlink:href="#mb752bb43c3" y="576.72"/>
      </g>
     </g>
     <g id="text_3">
      <!-- 1900 -->
      <g style="fill:#696969;" transform="translate(404.41333 596.218438)scale(0.15 -0.15)">
       <defs>
        <path d="M 5.71875 12.15625 
L 12.40625 14.59375 
Q 16.546875 5.375 26.375 5.375 
Q 35.890625 5.375 40.703125 13.375 
Q 45.515625 21.390625 45.65625 35.109375 
Q 39.109375 23.09375 25.984375 23.09375 
Q 16.703125 23.09375 10.40625 29.421875 
Q 4.109375 35.75 4.109375 45.0625 
Q 4.109375 54.546875 10.71875 61.28125 
Q 17.328125 68.015625 27.59375 68.015625 
Q 40.140625 68.015625 46.828125 59.203125 
Q 53.515625 50.390625 53.515625 34.96875 
Q 53.515625 18.75 46.4375 8.71875 
Q 39.359375 -1.3125 26.265625 -1.3125 
Q 10.984375 -1.3125 5.71875 12.15625 
z
M 27.828125 29.78125 
Q 34.71875 29.78125 39.375 34.59375 
Q 44.046875 39.40625 44.046875 45.84375 
Q 44.046875 52.09375 39.625 56.578125 
Q 35.203125 61.078125 27.984375 61.078125 
Q 20.65625 61.078125 16.40625 56.46875 
Q 12.15625 51.859375 12.15625 45.21875 
Q 12.15625 38.09375 16.859375 33.9375 
Q 21.578125 29.78125 27.828125 29.78125 
z
" id="FranklinGothic-Book-57"/>
       </defs>
       <use xlink:href="#FranklinGothic-Book-49"/>
       <use x="57.267578" xlink:href="#FranklinGothic-Book-57"/>
       <use x="115.910156" xlink:href="#FranklinGothic-Book-48"/>
       <use x="174.552734" xlink:href="#FranklinGothic-Book-48"/>
      </g>
     </g>
    </g>
    <g id="xtick_4">
     <g id="line2d_6">
      <g>
       <use style="fill:#696969;stroke:#696969;stroke-width:1.25;" x="516.830622" xlink:href="#mb752bb43c3" y="576.72"/>
      </g>
     </g>
     <g id="text_4">
      <!-- 1920 -->
      <g style="fill:#696969;" transform="translate(499.34156 596.218438)scale(0.15 -0.15)">
       <defs>
        <path d="M 52.484375 6.9375 
L 52.484375 0 
L 5.171875 0 
L 5.171875 6.9375 
Q 33.203125 27.9375 38.59375 34.59375 
Q 44 41.265625 44 47.796875 
Q 44 53.90625 39.453125 57.65625 
Q 34.90625 61.421875 29 61.421875 
Q 22.90625 61.421875 18.21875 57.296875 
Q 13.53125 53.171875 12.9375 46.09375 
L 5.171875 48.4375 
Q 10.0625 68.015625 29.109375 68.015625 
Q 39.40625 68.015625 45.84375 62.15625 
Q 52.296875 56.296875 52.296875 47.859375 
Q 52.296875 42.046875 49.234375 36.671875 
Q 46.1875 31.296875 37.6875 23.828125 
Q 29.203125 16.359375 15.71875 6.9375 
z
" id="FranklinGothic-Book-50"/>
       </defs>
       <use xlink:href="#FranklinGothic-Book-49"/>
       <use x="57.267578" xlink:href="#FranklinGothic-Book-57"/>
       <use x="115.910156" xlink:href="#FranklinGothic-Book-50"/>
       <use x="174.552734" xlink:href="#FranklinGothic-Book-48"/>
      </g>
     </g>
    </g>
    <g id="xtick_5">
     <g id="line2d_7">
      <g>
       <use style="fill:#696969;stroke:#696969;stroke-width:1.25;" x="611.758852" xlink:href="#mb752bb43c3" y="576.72"/>
      </g>
     </g>
     <g id="text_5">
      <!-- 1940 -->
      <g style="fill:#696969;" transform="translate(594.307289 596.218438)scale(0.15 -0.15)">
       <defs>
        <path d="M 44.09375 0 
L 36.03125 0 
L 36.03125 15.875 
L 3.078125 15.875 
L 3.078125 21.484375 
L 33.640625 68.0625 
L 44.09375 68.0625 
L 44.09375 22.46875 
L 54.890625 22.46875 
L 54.890625 15.875 
L 44.09375 15.875 
z
M 36.03125 22.46875 
L 36.03125 54 
Q 36.03125 57.421875 36.1875 61.375 
Q 34.078125 57.515625 32.5625 55.125 
L 11.765625 22.46875 
z
" id="FranklinGothic-Book-52"/>
       </defs>
       <use xlink:href="#FranklinGothic-Book-49"/>
       <use x="57.267578" xlink:href="#FranklinGothic-Book-57"/>
       <use x="115.410156" xlink:href="#FranklinGothic-Book-52"/>
       <use x="174.052734" xlink:href="#FranklinGothic-Book-48"/>
      </g>
     </g>
    </g>
    <g id="xtick_6">
     <g id="line2d_8">
      <g>
       <use style="fill:#696969;stroke:#696969;stroke-width:1.25;" x="706.687081" xlink:href="#mb752bb43c3" y="576.72"/>
      </g>
     </g>
     <g id="text_6">
      <!-- 1960 -->
      <g style="fill:#696969;" transform="translate(689.198019 596.218438)scale(0.15 -0.15)">
       <use xlink:href="#FranklinGothic-Book-49"/>
       <use x="57.267578" xlink:href="#FranklinGothic-Book-57"/>
       <use x="115.910156" xlink:href="#FranklinGothic-Book-54"/>
       <use x="174.552734" xlink:href="#FranklinGothic-Book-48"/>
      </g>
     </g>
    </g>
    <g id="xtick_7">
     <g id="line2d_9">
      <g>
       <use style="fill:#696969;stroke:#696969;stroke-width:1.25;" x="801.615311" xlink:href="#mb752bb43c3" y="576.72"/>
      </g>
     </g>
     <g id="text_7">
      <!-- 1980 -->
      <g style="fill:#696969;" transform="translate(784.126249 596.218438)scale(0.15 -0.15)">
       <use xlink:href="#FranklinGothic-Book-49"/>
       <use x="57.267578" xlink:href="#FranklinGothic-Book-57"/>
       <use x="115.910156" xlink:href="#FranklinGothic-Book-56"/>
       <use x="174.552734" xlink:href="#FranklinGothic-Book-48"/>
      </g>
     </g>
    </g>
    <g id="xtick_8">
     <g id="line2d_10">
      <g>
       <use style="fill:#696969;stroke:#696969;stroke-width:1.25;" x="896.543541" xlink:href="#mb752bb43c3" y="576.72"/>
      </g>
     </g>
     <g id="text_8">
      <!-- 2000 -->
      <g style="fill:#696969;" transform="translate(878.951353 596.218438)scale(0.15 -0.15)">
       <use xlink:href="#FranklinGothic-Book-50"/>
       <use x="58.642578" xlink:href="#FranklinGothic-Book-48"/>
       <use x="117.285156" xlink:href="#FranklinGothic-Book-48"/>
       <use x="175.927734" xlink:href="#FranklinGothic-Book-48"/>
      </g>
     </g>
    </g>
    <g id="xtick_9">
     <g id="line2d_11">
      <g>
       <use style="fill:#696969;stroke:#696969;stroke-width:1.25;" x="991.47177" xlink:href="#mb752bb43c3" y="576.72"/>
      </g>
     </g>
     <g id="text_9">
      <!-- 2020 -->
      <g style="fill:#696969;" transform="translate(973.879583 596.218438)scale(0.15 -0.15)">
       <use xlink:href="#FranklinGothic-Book-50"/>
       <use x="58.642578" xlink:href="#FranklinGothic-Book-48"/>
       <use x="117.285156" xlink:href="#FranklinGothic-Book-50"/>
       <use x="175.927734" xlink:href="#FranklinGothic-Book-48"/>
      </g>
     </g>
    </g>
    <g id="text_10">
     <!-- Year -->
     <g style="fill:#696969;" transform="translate(572.109375 616.048125)scale(0.2 -0.2)">
      <defs>
       <path d="M 52 66.65625 
L 29.6875 28.03125 
L 29.6875 0 
L 21.34375 0 
L 21.34375 28.03125 
L -0.984375 66.65625 
L 8.84375 66.65625 
L 26.5625 35.984375 
L 44.390625 66.65625 
z
" id="FranklinGothic-Book-89"/>
       <path d="M 40.234375 14.703125 
L 47.359375 13.234375 
Q 45.40625 6.9375 39.734375 2.8125 
Q 34.078125 -1.3125 26.421875 -1.3125 
Q 16.3125 -1.3125 10.0625 5.78125 
Q 3.8125 12.890625 3.8125 24.421875 
Q 3.8125 36.1875 10.296875 43.4375 
Q 16.796875 50.6875 26.609375 50.6875 
Q 36.28125 50.6875 42.15625 44 
Q 48.046875 37.3125 48.1875 23.96875 
L 12.359375 23.96875 
Q 12.359375 12.796875 17.046875 8.890625 
Q 21.734375 4.984375 26.953125 4.984375 
Q 36.375 4.984375 40.234375 14.703125 
z
M 39.796875 29.6875 
Q 39.703125 33.84375 38.421875 37.0625 
Q 37.15625 40.28125 34.125 42.546875 
Q 31.109375 44.828125 26.859375 44.828125 
Q 21.140625 44.828125 17.15625 40.71875 
Q 13.1875 36.625 12.703125 29.6875 
z
" id="FranklinGothic-Book-101"/>
       <path d="M 46.296875 0 
L 38.671875 0 
Q 38.234375 2.34375 37.796875 8.890625 
Q 32.71875 -1.3125 20.515625 -1.3125 
Q 12.203125 -1.3125 7.765625 3.078125 
Q 3.328125 7.46875 3.328125 13.625 
Q 3.328125 21.09375 9.671875 25.90625 
Q 16.015625 30.71875 31.25 30.71875 
Q 33.296875 30.71875 37.796875 30.515625 
Q 37.796875 36.375 36.890625 38.984375 
Q 35.984375 41.609375 33.046875 43.171875 
Q 30.125 44.734375 25.34375 44.734375 
Q 13.671875 44.734375 11.765625 35.84375 
L 4.6875 37.0625 
Q 7.28125 50.6875 26.46875 50.6875 
Q 36.671875 50.6875 40.9375 46.171875 
Q 45.21875 41.65625 45.21875 30.515625 
L 45.21875 9.578125 
Q 45.21875 4.34375 46.296875 0 
z
M 37.796875 24.65625 
Q 33.109375 24.953125 30.671875 24.953125 
Q 21.578125 24.953125 16.546875 21.96875 
Q 11.53125 19 11.53125 13.28125 
Q 11.53125 9.671875 14.234375 7.125 
Q 16.9375 4.59375 22.078125 4.59375 
Q 29 4.59375 33.46875 9.625 
Q 37.9375 14.65625 37.9375 21.4375 
Q 37.9375 22.796875 37.796875 24.65625 
z
" id="FranklinGothic-Book-97"/>
       <path d="M 15.328125 0 
L 7.671875 0 
L 7.671875 49.3125 
L 14.40625 49.3125 
L 14.40625 37.796875 
Q 17.96875 45.953125 21.546875 48.359375 
Q 25.140625 50.78125 28.90625 50.78125 
Q 30.078125 50.78125 31.9375 50.59375 
L 31.9375 43.265625 
L 30.375 43.265625 
Q 24.03125 43.265625 19.828125 38.53125 
Q 15.625 33.796875 15.328125 26.078125 
z
" id="FranklinGothic-Book-114"/>
      </defs>
      <use xlink:href="#FranklinGothic-Book-89"/>
      <use x="45.025391" xlink:href="#FranklinGothic-Book-101"/>
      <use x="97.076172" xlink:href="#FranklinGothic-Book-97"/>
      <use x="149.957031" xlink:href="#FranklinGothic-Book-114"/>
     </g>
    </g>
   </g>
   <g id="matplotlib.axis_2">
    <g id="ytick_1">
     <g id="line2d_12">
      <path clip-path="url(#pef32eb6199)" d="M 144 565.597556 
L 1036.8 565.597556 
" style="fill:none;stroke:#d3d3d3;stroke-linecap:round;stroke-opacity:0.5;"/>
     </g>
     <g id="text_11">
      <!-- −0.4 -->
      <g style="fill:#696969;" transform="translate(104.361719 570.596775)scale(0.15 -0.15)">
       <defs>
        <path d="M 6 36.765625 
L 52.6875 36.765625 
L 52.6875 30.03125 
L 6 30.03125 
z
" id="FranklinGothic-Book-8722"/>
        <path d="M 17.96875 10.9375 
L 17.96875 0 
L 7.078125 0 
L 7.078125 10.9375 
z
" id="FranklinGothic-Book-46"/>
       </defs>
       <use xlink:href="#FranklinGothic-Book-8722"/>
       <use x="58.642578" xlink:href="#FranklinGothic-Book-48"/>
       <use x="117.285156" xlink:href="#FranklinGothic-Book-46"/>
       <use x="142.285156" xlink:href="#FranklinGothic-Book-52"/>
      </g>
     </g>
    </g>
    <g id="ytick_2">
     <g id="line2d_13">
      <path clip-path="url(#pef32eb6199)" d="M 144 511.576262 
L 1036.8 511.576262 
" style="fill:none;stroke:#d3d3d3;stroke-linecap:round;stroke-opacity:0.5;"/>
     </g>
     <g id="text_12">
      <!-- −0.2 -->
      <g style="fill:#696969;" transform="translate(104.361719 516.57548)scale(0.15 -0.15)">
       <use xlink:href="#FranklinGothic-Book-8722"/>
       <use x="58.642578" xlink:href="#FranklinGothic-Book-48"/>
       <use x="117.285156" xlink:href="#FranklinGothic-Book-46"/>
       <use x="142.285156" xlink:href="#FranklinGothic-Book-50"/>
      </g>
     </g>
    </g>
    <g id="ytick_3">
     <g id="line2d_14">
      <path clip-path="url(#pef32eb6199)" d="M 144 457.554968 
L 1036.8 457.554968 
" style="fill:none;stroke:#d3d3d3;stroke-linecap:round;stroke-opacity:0.5;"/>
     </g>
     <g id="text_13">
      <!-- 0.0 -->
      <g style="fill:#696969;" transform="translate(113.157813 462.554186)scale(0.15 -0.15)">
       <use xlink:href="#FranklinGothic-Book-48"/>
       <use x="58.642578" xlink:href="#FranklinGothic-Book-46"/>
       <use x="83.642578" xlink:href="#FranklinGothic-Book-48"/>
      </g>
     </g>
    </g>
    <g id="ytick_4">
     <g id="line2d_15">
      <path clip-path="url(#pef32eb6199)" d="M 144 403.533673 
L 1036.8 403.533673 
" style="fill:none;stroke:#d3d3d3;stroke-linecap:round;stroke-opacity:0.5;"/>
     </g>
     <g id="text_14">
      <!-- 0.2 -->
      <g style="fill:#696969;" transform="translate(113.157813 408.532892)scale(0.15 -0.15)">
       <use xlink:href="#FranklinGothic-Book-48"/>
       <use x="58.642578" xlink:href="#FranklinGothic-Book-46"/>
       <use x="83.642578" xlink:href="#FranklinGothic-Book-50"/>
      </g>
     </g>
    </g>
    <g id="ytick_5">
     <g id="line2d_16">
      <path clip-path="url(#pef32eb6199)" d="M 144 349.512379 
L 1036.8 349.512379 
" style="fill:none;stroke:#d3d3d3;stroke-linecap:round;stroke-opacity:0.5;"/>
     </g>
     <g id="text_15">
      <!-- 0.4 -->
      <g style="fill:#696969;" transform="translate(113.157813 354.511598)scale(0.15 -0.15)">
       <use xlink:href="#FranklinGothic-Book-48"/>
       <use x="58.642578" xlink:href="#FranklinGothic-Book-46"/>
       <use x="83.642578" xlink:href="#FranklinGothic-Book-52"/>
      </g>
     </g>
    </g>
    <g id="ytick_6">
     <g id="line2d_17">
      <path clip-path="url(#pef32eb6199)" d="M 144 295.491085 
L 1036.8 295.491085 
" style="fill:none;stroke:#d3d3d3;stroke-linecap:round;stroke-opacity:0.5;"/>
     </g>
     <g id="text_16">
      <!-- 0.6 -->
      <g style="fill:#696969;" transform="translate(113.157813 300.490304)scale(0.15 -0.15)">
       <use xlink:href="#FranklinGothic-Book-48"/>
       <use x="58.642578" xlink:href="#FranklinGothic-Book-46"/>
       <use x="83.642578" xlink:href="#FranklinGothic-Book-54"/>
      </g>
     </g>
    </g>
    <g id="ytick_7">
     <g id="line2d_18">
      <path clip-path="url(#pef32eb6199)" d="M 144 241.469791 
L 1036.8 241.469791 
" style="fill:none;stroke:#d3d3d3;stroke-linecap:round;stroke-opacity:0.5;"/>
     </g>
     <g id="text_17">
      <!-- 0.8 -->
      <g style="fill:#696969;" transform="translate(113.157813 246.46901)scale(0.15 -0.15)">
       <use xlink:href="#FranklinGothic-Book-48"/>
       <use x="58.642578" xlink:href="#FranklinGothic-Book-46"/>
       <use x="83.642578" xlink:href="#FranklinGothic-Book-56"/>
      </g>
     </g>
    </g>
    <g id="ytick_8">
     <g id="line2d_19">
      <path clip-path="url(#pef32eb6199)" d="M 144 187.448497 
L 1036.8 187.448497 
" style="fill:none;stroke:#d3d3d3;stroke-linecap:round;stroke-opacity:0.5;"/>
     </g>
     <g id="text_18">
      <!-- 1.0 -->
      <g style="fill:#696969;" transform="translate(113.251563 192.447716)scale(0.15 -0.15)">
       <use xlink:href="#FranklinGothic-Book-49"/>
       <use x="58.017578" xlink:href="#FranklinGothic-Book-46"/>
       <use x="83.017578" xlink:href="#FranklinGothic-Book-48"/>
      </g>
     </g>
    </g>
    <g id="ytick_9">
     <g id="line2d_20">
      <path clip-path="url(#pef32eb6199)" d="M 144 133.427203 
L 1036.8 133.427203 
" style="fill:none;stroke:#d3d3d3;stroke-linecap:round;stroke-opacity:0.5;"/>
     </g>
     <g id="text_19">
      <!-- 1.2 -->
      <g style="fill:#696969;" transform="translate(113.251563 138.426422)scale(0.15 -0.15)">
       <use xlink:href="#FranklinGothic-Book-49"/>
       <use x="58.017578" xlink:href="#FranklinGothic-Book-46"/>
       <use x="83.017578" xlink:href="#FranklinGothic-Book-50"/>
      </g>
     </g>
    </g>
    <g id="ytick_10">
     <g id="line2d_21">
      <path clip-path="url(#pef32eb6199)" d="M 144 79.405909 
L 1036.8 79.405909 
" style="fill:none;stroke:#d3d3d3;stroke-linecap:round;stroke-opacity:0.5;"/>
     </g>
     <g id="text_20">
      <!-- 1.4 -->
      <g style="fill:#696969;" transform="translate(113.251563 84.405128)scale(0.15 -0.15)">
       <use xlink:href="#FranklinGothic-Book-49"/>
       <use x="58.017578" xlink:href="#FranklinGothic-Book-46"/>
       <use x="83.017578" xlink:href="#FranklinGothic-Book-52"/>
      </g>
     </g>
    </g>
    <g id="text_21">
     <!-- $\!^\circ\!$C -->
     <g style="fill:#696969;" transform="translate(91.030469 337.34)rotate(-90)scale(0.2 -0.2)">
      <defs>
       <path d="M 31.296875 40.671875 
Q 27.390625 40.671875 24.703125 37.953125 
Q 22.015625 35.25 22.015625 31.34375 
Q 22.015625 27.484375 24.703125 24.828125 
Q 27.390625 22.171875 31.296875 22.171875 
Q 35.203125 22.171875 37.890625 24.828125 
Q 40.578125 27.484375 40.578125 31.34375 
Q 40.578125 35.203125 37.859375 37.9375 
Q 35.15625 40.671875 31.296875 40.671875 
z
M 31.296875 46.96875 
Q 34.421875 46.96875 37.296875 45.765625 
Q 40.1875 44.578125 42.28125 42.328125 
Q 44.53125 40.140625 45.65625 37.34375 
Q 46.78125 34.5625 46.78125 31.34375 
Q 46.78125 24.90625 42.265625 20.4375 
Q 37.75 15.96875 31.203125 15.96875 
Q 24.609375 15.96875 20.21875 20.359375 
Q 15.828125 24.75 15.828125 31.34375 
Q 15.828125 37.890625 20.3125 42.421875 
Q 24.8125 46.96875 31.296875 46.96875 
z
" id="DejaVuSans-8728"/>
       <path d="M 48.296875 22.40625 
L 55.90625 20.703125 
Q 50.4375 -1.3125 31.203125 -1.3125 
Q 18.5625 -1.3125 11.359375 8.890625 
Q 4.15625 19.09375 4.15625 33.984375 
Q 4.15625 49.359375 11.671875 58.6875 
Q 19.1875 68.015625 31.84375 68.015625 
Q 50.59375 68.015625 55.90625 46.578125 
L 48.046875 45.015625 
Q 43.75 60.9375 31.78125 60.9375 
Q 22.953125 60.9375 18.09375 53.53125 
Q 13.234375 46.140625 13.234375 32.765625 
Q 13.234375 20.515625 18.203125 13.109375 
Q 23.1875 5.71875 31.390625 5.71875 
Q 44.140625 5.71875 48.296875 22.40625 
z
" id="FranklinGothic-Book-67"/>
      </defs>
      <use transform="translate(-1.64095 39.121875)scale(0.7)" xlink:href="#DejaVuSans-8728"/>
      <use transform="translate(42.313804 0.840625)" xlink:href="#FranklinGothic-Book-67"/>
     </g>
    </g>
   </g>
   <g id="text_22">
    <!-- Compared to 1850-1900 average -->
    <g style="fill:#696969;" transform="translate(144 75.2652)scale(0.3 -0.3)">
     <defs>
      <path d="M 25.34375 -1.3125 
Q 15.1875 -1.3125 9.5 6.203125 
Q 3.8125 13.71875 3.8125 24.859375 
Q 3.8125 36.625 10.203125 43.65625 
Q 16.609375 50.6875 26.125 50.6875 
Q 36.328125 50.6875 42.203125 43.28125 
Q 48.09375 35.890625 48.09375 24.8125 
Q 48.09375 13.28125 41.75 5.984375 
Q 35.40625 -1.3125 25.34375 -1.3125 
z
M 25.921875 4.984375 
Q 31.78125 4.984375 35.734375 9.8125 
Q 39.703125 14.65625 39.703125 24.859375 
Q 39.703125 35.109375 35.546875 39.71875 
Q 31.390625 44.34375 25.828125 44.34375 
Q 20.125 44.34375 16.15625 39.671875 
Q 12.203125 35.015625 12.203125 24.90625 
Q 12.203125 14.203125 16.15625 9.59375 
Q 20.125 4.984375 25.921875 4.984375 
z
" id="FranklinGothic-Book-111"/>
      <path d="M 73.734375 0 
L 66.265625 0 
L 66.265625 30.671875 
Q 66.265625 35.40625 65.59375 37.765625 
Q 64.9375 40.140625 62.390625 42.109375 
Q 59.859375 44.09375 56.6875 44.09375 
Q 52.296875 44.09375 48.21875 40.0625 
Q 44.140625 36.03125 44.140625 27.78125 
L 44.140625 0 
L 36.71875 0 
L 36.71875 32.46875 
Q 36.71875 38.96875 33.609375 41.65625 
Q 30.515625 44.34375 27.09375 44.34375 
Q 22.21875 44.34375 18.59375 40.140625 
Q 14.984375 35.9375 14.984375 29.5 
L 14.984375 0 
L 7.671875 0 
L 7.671875 49.3125 
L 14.265625 49.3125 
L 14.265625 39.84375 
Q 19.78125 50.6875 29.4375 50.6875 
Q 34.765625 50.6875 38.46875 47.21875 
Q 42.1875 43.75 43.265625 38.875 
Q 48.34375 50.6875 58.84375 50.6875 
Q 63.875 50.6875 67.65625 47.796875 
Q 71.4375 44.921875 72.578125 41.1875 
Q 73.734375 37.453125 73.734375 30.671875 
z
" id="FranklinGothic-Book-109"/>
      <path d="M 15.328125 -16.65625 
L 7.671875 -16.65625 
L 7.671875 49.3125 
L 14.546875 49.3125 
L 14.546875 39.75 
Q 19.78125 50.6875 30.125 50.6875 
Q 38.875 50.6875 44.234375 43.375 
Q 49.609375 36.078125 49.609375 24.90625 
Q 49.609375 12.84375 44.09375 5.765625 
Q 38.578125 -1.3125 29.9375 -1.3125 
Q 20.65625 -1.3125 15.328125 7.515625 
z
M 15.328125 31.78125 
L 15.328125 17.921875 
Q 16.0625 12.3125 20.0625 8.640625 
Q 24.078125 4.984375 28.421875 4.984375 
Q 33.453125 4.984375 37.328125 9.375 
Q 41.21875 13.765625 41.21875 24.5625 
Q 41.21875 33.890625 37.703125 38.9375 
Q 34.1875 44 28.375 44 
Q 23.78125 44 20.140625 40.421875 
Q 16.5 36.859375 15.328125 31.78125 
z
" id="FranklinGothic-Book-112"/>
      <path d="M 46.1875 66.65625 
L 46.1875 0 
L 39.203125 0 
L 39.203125 8.453125 
Q 34.03125 -1.3125 23.640625 -1.3125 
Q 14.984375 -1.3125 9.421875 5.9375 
Q 3.859375 13.1875 3.859375 24.265625 
Q 3.859375 35.59375 9.375 43.140625 
Q 14.890625 50.6875 24.03125 50.6875 
Q 32.90625 50.6875 38.53125 42.578125 
L 38.53125 66.65625 
z
M 38.53125 30.28125 
Q 38.53125 36.765625 34.5625 40.671875 
Q 30.609375 44.578125 25.34375 44.578125 
Q 19.625 44.578125 15.9375 39.5 
Q 12.25 34.421875 12.25 25.25 
Q 12.25 15.328125 15.640625 10.15625 
Q 19.046875 4.984375 24.953125 4.984375 
Q 30.328125 4.984375 34.421875 9.46875 
Q 38.53125 13.96875 38.53125 20.015625 
z
" id="FranklinGothic-Book-100"/>
      <path id="FranklinGothic-Book-32"/>
      <path d="M 30.03125 5.28125 
L 30.03125 -0.78125 
Q 25.984375 -1.3125 23 -1.3125 
Q 8.6875 -1.3125 8.6875 13.625 
L 8.6875 43.3125 
L -0.046875 43.3125 
L -0.046875 49.3125 
L 8.6875 49.3125 
L 9.03125 61.71875 
L 16.15625 62.40625 
L 16.15625 49.3125 
L 27.203125 49.3125 
L 27.203125 43.3125 
L 16.15625 43.3125 
L 16.15625 12.359375 
Q 16.15625 4.734375 24.078125 4.734375 
Q 26.703125 4.734375 30.03125 5.28125 
z
" id="FranklinGothic-Book-116"/>
      <path d="M 48.875 66.65625 
L 48.1875 59.46875 
L 15.4375 59.46875 
L 14.015625 37.84375 
Q 21.4375 45.125 30.328125 45.125 
Q 39.703125 45.125 46.515625 38.625 
Q 53.328125 32.125 53.328125 22.015625 
Q 53.328125 11.765625 45.921875 5.21875 
Q 38.53125 -1.3125 27.828125 -1.3125 
Q 19.4375 -1.3125 12.890625 3.078125 
Q 6.34375 7.46875 4.296875 14.453125 
L 11.421875 16.890625 
Q 15.828125 5.28125 27.9375 5.28125 
Q 35.890625 5.28125 40.578125 9.984375 
Q 45.265625 14.703125 45.265625 22.015625 
Q 45.265625 29.6875 40.625 33.984375 
Q 35.984375 38.28125 29.5 38.28125 
Q 20.015625 38.28125 13.8125 29.203125 
L 7.234375 30.609375 
L 9.375 66.65625 
z
" id="FranklinGothic-Book-53"/>
      <path d="M 23.53125 27.984375 
L 23.53125 22.015625 
L 1.46875 22.015625 
L 1.46875 27.984375 
z
" id="FranklinGothic-Book-45"/>
      <path d="M 43.796875 49.3125 
L 26.765625 0 
L 18.796875 0 
L 1.171875 49.3125 
L 9.671875 49.3125 
L 23.390625 9.234375 
L 36.96875 49.3125 
z
" id="FranklinGothic-Book-118"/>
      <path d="M 47.953125 57.03125 
L 47.953125 50.921875 
Q 42.671875 50.921875 40.890625 49.703125 
Q 39.109375 48.484375 38.53125 45.3125 
Q 43.265625 39.84375 43.265625 33.40625 
Q 43.265625 26.65625 38.109375 21.828125 
Q 32.953125 17 24.265625 17 
Q 22.3125 17 20.90625 17.28125 
Q 18.21875 17.828125 17.53125 17.828125 
Q 16.21875 17.828125 14.359375 16.53125 
Q 12.5 15.234375 12.5 13.1875 
Q 12.5 10.25 15.1875 9.375 
Q 17.875 8.5 27.828125 8.25 
Q 36.28125 8.015625 40.3125 7.109375 
Q 44.34375 6.203125 47.125 3.09375 
Q 49.90625 0 49.90625 -4.5 
Q 49.90625 -18.609375 25.09375 -18.609375 
Q 13.328125 -18.609375 7.9375 -15.0625 
Q 2.546875 -11.53125 2.546875 -5.609375 
Q 2.546875 1.5625 10.0625 4.25 
Q 5.21875 7.421875 5.21875 12.203125 
Q 5.21875 17.921875 12.0625 20.953125 
Q 5.671875 26.125 5.671875 33.984375 
Q 5.671875 41.3125 11.140625 46 
Q 16.609375 50.6875 24.46875 50.6875 
Q 30.03125 50.6875 34.578125 48.578125 
Q 35.296875 53.421875 37.953125 55.265625 
Q 40.625 57.125 46.046875 57.125 
Q 46.578125 57.125 47.953125 57.03125 
z
M 24.515625 22.859375 
Q 29.390625 22.859375 32.46875 25.859375 
Q 35.546875 28.859375 35.546875 33.640625 
Q 35.546875 38.53125 32.34375 41.625 
Q 29.15625 44.734375 24.609375 44.734375 
Q 20.265625 44.734375 16.890625 41.828125 
Q 13.53125 38.921875 13.53125 33.546875 
Q 13.53125 28.765625 16.546875 25.8125 
Q 19.578125 22.859375 24.515625 22.859375 
z
M 15.328125 2 
Q 9.96875 -0.34375 9.96875 -4.78125 
Q 9.96875 -8.546875 14.375 -10.625 
Q 18.796875 -12.703125 25.640625 -12.703125 
Q 31.984375 -12.703125 37.25 -10.90625 
Q 42.53125 -9.125 42.53125 -4.890625 
Q 42.53125 -2.59375 40.96875 -1.125 
Q 39.40625 0.34375 36.6875 0.734375 
Q 33.984375 1.125 27.25 1.3125 
Q 19.1875 1.515625 15.328125 2 
z
" id="FranklinGothic-Book-103"/>
     </defs>
     <use xlink:href="#FranklinGothic-Book-67"/>
     <use x="57.910156" xlink:href="#FranklinGothic-Book-111"/>
     <use x="109.863281" xlink:href="#FranklinGothic-Book-109"/>
     <use x="190.384766" xlink:href="#FranklinGothic-Book-112"/>
     <use x="243.802734" xlink:href="#FranklinGothic-Book-97"/>
     <use x="296.683594" xlink:href="#FranklinGothic-Book-114"/>
     <use x="329.642578" xlink:href="#FranklinGothic-Book-101"/>
     <use x="381.693359" xlink:href="#FranklinGothic-Book-100"/>
     <use x="435.550781" xlink:href="#FranklinGothic-Book-32"/>
     <use x="460.550781" xlink:href="#FranklinGothic-Book-116"/>
     <use x="489.8125" xlink:href="#FranklinGothic-Book-111"/>
     <use x="541.765625" xlink:href="#FranklinGothic-Book-32"/>
     <use x="566.765625" xlink:href="#FranklinGothic-Book-49"/>
     <use x="624.783203" xlink:href="#FranklinGothic-Book-56"/>
     <use x="683.425781" xlink:href="#FranklinGothic-Book-53"/>
     <use x="742.068359" xlink:href="#FranklinGothic-Book-48"/>
     <use x="800.710938" xlink:href="#FranklinGothic-Book-45"/>
     <use x="825.710938" xlink:href="#FranklinGothic-Book-49"/>
     <use x="882.978516" xlink:href="#FranklinGothic-Book-57"/>
     <use x="941.621094" xlink:href="#FranklinGothic-Book-48"/>
     <use x="1000.263672" xlink:href="#FranklinGothic-Book-48"/>
     <use x="1058.90625" xlink:href="#FranklinGothic-Book-32"/>
     <use x="1083.90625" xlink:href="#FranklinGothic-Book-97"/>
     <use x="1134.537109" xlink:href="#FranklinGothic-Book-118"/>
     <use x="1178.056641" xlink:href="#FranklinGothic-Book-101"/>
     <use x="1230.107422" xlink:href="#FranklinGothic-Book-114"/>
     <use x="1263.066406" xlink:href="#FranklinGothic-Book-97"/>
     <use x="1315.947266" xlink:href="#FranklinGothic-Book-103"/>
     <use x="1365.068359" xlink:href="#FranklinGothic-Book-101"/>
    </g>
   </g>
   <g id="text_23">
    <!-- Global mean temperature -->
    <g style="fill:#696969;" transform="translate(144 42.76)scale(0.4 -0.4)">
     <defs>
      <path d="M 57.71875 33.59375 
L 57.71875 -0.875 
L 52.59375 -0.875 
L 50.296875 7.46875 
Q 44.140625 -1.3125 31.984375 -1.3125 
Q 18.796875 -1.3125 11.46875 8.59375 
Q 4.15625 18.5 4.15625 32.671875 
Q 4.15625 47.796875 11.90625 57.90625 
Q 19.671875 68.015625 33.015625 68.015625 
Q 51.421875 68.015625 57.03125 48.6875 
L 49.125 46.78125 
Q 47.40625 54.203125 42.71875 57.5625 
Q 38.03125 60.9375 32.46875 60.9375 
Q 22.609375 60.9375 17.921875 52.96875 
Q 13.234375 45.015625 13.234375 33.015625 
Q 13.234375 20.0625 18.484375 12.765625 
Q 23.734375 5.46875 32.765625 5.46875 
Q 39.796875 5.46875 44.5 10.125 
Q 49.21875 14.796875 49.21875 23 
Q 49.21875 24.515625 49.125 26.609375 
L 32.625 26.609375 
L 32.625 33.59375 
z
" id="FranklinGothic-Book-71"/>
      <path d="M 15.328125 0 
L 7.671875 0 
L 7.671875 66.65625 
L 15.328125 66.65625 
z
" id="FranklinGothic-Book-108"/>
      <path d="M 11.375 0 
L 7.671875 0 
L 7.671875 66.65625 
L 15.328125 66.65625 
L 15.328125 41.109375 
Q 20.609375 50.6875 29.890625 50.6875 
Q 38.375 50.6875 44.109375 44 
Q 49.859375 37.3125 49.859375 24.5625 
Q 49.859375 13.578125 44.21875 6.125 
Q 38.578125 -1.3125 29.546875 -1.3125 
Q 19.484375 -1.3125 14.109375 8.15625 
z
M 15.328125 19.34375 
Q 15.875 11.765625 20 8.34375 
Q 24.125 4.9375 28.71875 4.9375 
Q 34.578125 4.9375 38.15625 10.015625 
Q 41.75 15.09375 41.75 23.921875 
Q 41.75 33.453125 38.28125 38.890625 
Q 34.8125 44.34375 28.65625 44.34375 
Q 23.828125 44.34375 19.9375 40.453125 
Q 16.0625 36.578125 15.328125 30.421875 
z
" id="FranklinGothic-Book-98"/>
      <path d="M 46.53125 0 
L 39.359375 0 
L 39.359375 31.6875 
Q 39.359375 38.53125 36.375 41.3125 
Q 33.40625 44.09375 29.15625 44.09375 
Q 23.296875 44.09375 19.3125 39.40625 
Q 15.328125 34.71875 15.328125 27.046875 
L 15.328125 0 
L 7.671875 0 
L 7.671875 49.3125 
L 14.796875 49.3125 
L 14.796875 40.234375 
Q 20.796875 50.6875 30.375 50.6875 
Q 35.890625 50.6875 39.765625 47.828125 
Q 43.65625 44.96875 45.09375 41.40625 
Q 46.53125 37.84375 46.53125 28.515625 
z
" id="FranklinGothic-Book-110"/>
      <path d="M 46.484375 0 
L 39.59375 0 
L 39.59375 9.421875 
Q 34.328125 -1.3125 23.875 -1.3125 
Q 16.3125 -1.3125 11.984375 3.65625 
Q 7.671875 8.640625 7.671875 17.828125 
L 7.671875 49.3125 
L 15.328125 49.3125 
L 15.328125 17.828125 
Q 15.328125 10.5 18.375 7.734375 
Q 21.4375 4.984375 25.09375 4.984375 
Q 28.8125 4.984375 31.8125 7.078125 
Q 34.8125 9.1875 36.8125 13.0625 
Q 38.8125 16.9375 38.8125 21.53125 
L 38.8125 49.3125 
L 46.484375 49.3125 
z
" id="FranklinGothic-Book-117"/>
     </defs>
     <use xlink:href="#FranklinGothic-Book-71"/>
     <use x="64.697266" xlink:href="#FranklinGothic-Book-108"/>
     <use x="87.695312" xlink:href="#FranklinGothic-Book-111"/>
     <use x="139.648438" xlink:href="#FranklinGothic-Book-98"/>
     <use x="193.359375" xlink:href="#FranklinGothic-Book-97"/>
     <use x="246.240234" xlink:href="#FranklinGothic-Book-108"/>
     <use x="269.238281" xlink:href="#FranklinGothic-Book-32"/>
     <use x="294.238281" xlink:href="#FranklinGothic-Book-109"/>
     <use x="375.634766" xlink:href="#FranklinGothic-Book-101"/>
     <use x="427.685547" xlink:href="#FranklinGothic-Book-97"/>
     <use x="480.566406" xlink:href="#FranklinGothic-Book-110"/>
     <use x="534.765625" xlink:href="#FranklinGothic-Book-32"/>
     <use x="559.765625" xlink:href="#FranklinGothic-Book-116"/>
     <use x="588.777344" xlink:href="#FranklinGothic-Book-101"/>
     <use x="640.828125" xlink:href="#FranklinGothic-Book-109"/>
     <use x="721.349609" xlink:href="#FranklinGothic-Book-112"/>
     <use x="774.767578" xlink:href="#FranklinGothic-Book-101"/>
     <use x="826.818359" xlink:href="#FranklinGothic-Book-114"/>
     <use x="859.777344" xlink:href="#FranklinGothic-Book-97"/>
     <use x="912.658203" xlink:href="#FranklinGothic-Book-116"/>
     <use x="943.419922" xlink:href="#FranklinGothic-Book-117"/>
     <use x="997.570312" xlink:href="#FranklinGothic-Book-114"/>
     <use x="1030.529297" xlink:href="#FranklinGothic-Book-101"/>
    </g>
   </g>
   <g id="legend_1">
    <g id="line2d_22"/>
    <g id="text_24">
     <!-- HadCRUT5 -->
     <g style="fill:#696969;" transform="translate(185.856 129.7184)scale(0.2 -0.2)">
      <defs>
       <path d="M 55.953125 0 
L 47.609375 0 
L 47.609375 31.734375 
L 16.703125 31.734375 
L 16.703125 0 
L 8.34375 0 
L 8.34375 66.65625 
L 16.703125 66.65625 
L 16.703125 39.0625 
L 47.609375 39.0625 
L 47.609375 66.65625 
L 55.953125 66.65625 
z
" id="FranklinGothic-Book-72"/>
       <path d="M 56.296875 0 
L 47.5625 0 
L 35.25 28.859375 
L 16.15625 28.859375 
L 16.15625 0 
L 8.34375 0 
L 8.34375 66.65625 
L 34.625 66.65625 
Q 45.3125 66.65625 50.453125 60.8125 
Q 55.609375 54.984375 55.609375 48.046875 
Q 55.609375 42.71875 52.734375 37.828125 
Q 49.859375 32.953125 43.21875 30.859375 
z
M 16.15625 35.640625 
L 33.59375 35.640625 
Q 40.484375 35.640625 43.875 39.28125 
Q 47.265625 42.921875 47.265625 48.1875 
Q 47.265625 53.46875 43.671875 56.390625 
Q 40.09375 59.328125 34.625 59.328125 
L 16.15625 59.328125 
z
" id="FranklinGothic-Book-82"/>
       <path d="M 46.34375 66.65625 
L 53.265625 66.65625 
L 53.265625 23.140625 
Q 53.265625 10.0625 46.84375 4.375 
Q 40.4375 -1.3125 30.03125 -1.3125 
Q 18.453125 -1.3125 12.890625 4.546875 
Q 7.328125 10.40625 7.328125 23.140625 
L 7.328125 66.65625 
L 15.671875 66.65625 
L 15.671875 23.140625 
Q 15.671875 15.375 17.46875 12.203125 
Q 19.28125 9.03125 22.9375 7.515625 
Q 26.609375 6 30.609375 6 
Q 38.328125 6 42.328125 10.046875 
Q 46.34375 14.109375 46.34375 23.140625 
z
" id="FranklinGothic-Book-85"/>
       <path d="M 28.421875 0 
L 20.125 0 
L 20.125 59.328125 
L 1.03125 59.328125 
L 1.03125 66.65625 
L 47.5625 66.65625 
L 47.5625 59.328125 
L 28.421875 59.328125 
z
" id="FranklinGothic-Book-84"/>
      </defs>
      <use xlink:href="#FranklinGothic-Book-72"/>
      <use x="64.257812" xlink:href="#FranklinGothic-Book-97"/>
      <use x="117.138672" xlink:href="#FranklinGothic-Book-100"/>
      <use x="170.996094" xlink:href="#FranklinGothic-Book-67"/>
      <use x="228.90625" xlink:href="#FranklinGothic-Book-82"/>
      <use x="289.310547" xlink:href="#FranklinGothic-Book-85"/>
      <use x="349.90625" xlink:href="#FranklinGothic-Book-84"/>
      <use x="398.441406" xlink:href="#FranklinGothic-Book-53"/>
     </g>
    </g>
    <g id="line2d_23"/>
    <g id="text_25">
     <!-- NOAAGlobalTemp -->
     <g style="fill:#e69f00;" transform="translate(185.856 157.04965)scale(0.2 -0.2)">
      <defs>
       <path d="M 57.421875 0 
L 49.3125 0 
L 14.84375 58.109375 
L 14.9375 53.71875 
Q 15.09375 51.21875 15.09375 49.515625 
L 15.09375 0 
L 8.34375 0 
L 8.34375 66.65625 
L 18.796875 66.65625 
L 51.03125 12.3125 
L 50.921875 16.9375 
Q 50.828125 19.671875 50.828125 21.78125 
L 50.828125 66.65625 
L 57.421875 66.65625 
z
" id="FranklinGothic-Book-78"/>
       <path d="M 31.34375 -1.3125 
Q 18.5 -1.3125 11.328125 8.671875 
Q 4.15625 18.65625 4.15625 33.15625 
Q 4.15625 48.296875 11.671875 58.15625 
Q 19.1875 68.015625 31.59375 68.015625 
Q 43.953125 68.015625 51.421875 58.328125 
Q 58.890625 48.640625 58.890625 33.890625 
Q 58.890625 19.734375 51.640625 9.203125 
Q 44.390625 -1.3125 31.34375 -1.3125 
z
M 31.546875 5.46875 
Q 40.28125 5.46875 45.203125 13.421875 
Q 50.140625 21.390625 50.140625 33.9375 
Q 50.140625 46.828125 45.03125 54 
Q 39.9375 61.1875 31.5 61.1875 
Q 22.953125 61.1875 17.921875 53.421875 
Q 12.890625 45.65625 12.890625 33.109375 
Q 12.890625 20.84375 17.96875 13.15625 
Q 23.046875 5.46875 31.546875 5.46875 
z
" id="FranklinGothic-Book-79"/>
       <path d="M 53.21875 0 
L 44.671875 0 
L 37.9375 19.484375 
L 13.28125 19.484375 
L 7.328125 0 
L 0.34375 0 
L 21.96875 66.65625 
L 31.5 66.65625 
z
M 36.1875 25.734375 
L 25.921875 57.765625 
L 15.578125 25.734375 
z
" id="FranklinGothic-Book-65"/>
      </defs>
      <use xlink:href="#FranklinGothic-Book-78"/>
      <use x="65.722656" xlink:href="#FranklinGothic-Book-79"/>
      <use x="127.058594" xlink:href="#FranklinGothic-Book-65"/>
      <use x="180.623047" xlink:href="#FranklinGothic-Book-65"/>
      <use x="231.5625" xlink:href="#FranklinGothic-Book-71"/>
      <use x="296.259766" xlink:href="#FranklinGothic-Book-108"/>
      <use x="319.257812" xlink:href="#FranklinGothic-Book-111"/>
      <use x="371.210938" xlink:href="#FranklinGothic-Book-98"/>
      <use x="424.921875" xlink:href="#FranklinGothic-Book-97"/>
      <use x="477.802734" xlink:href="#FranklinGothic-Book-108"/>
      <use x="500.800781" xlink:href="#FranklinGothic-Book-84"/>
      <use x="542.835938" xlink:href="#FranklinGothic-Book-101"/>
      <use x="594.886719" xlink:href="#FranklinGothic-Book-109"/>
      <use x="675.408203" xlink:href="#FranklinGothic-Book-112"/>
     </g>
    </g>
    <g id="line2d_24"/>
    <g id="text_26">
     <!-- GISTEMP -->
     <g style="fill:#56b4e9;" transform="translate(185.856 184.3809)scale(0.2 -0.2)">
      <defs>
       <path d="M 16.703125 0 
L 8.34375 0 
L 8.34375 66.65625 
L 16.703125 66.65625 
z
" id="FranklinGothic-Book-73"/>
       <path d="M 1.03125 17.71875 
L 8.546875 19.4375 
Q 13.09375 5.8125 28.21875 5.8125 
Q 36.140625 5.8125 40.140625 9.15625 
Q 44.140625 12.5 44.140625 18.109375 
Q 44.140625 22.359375 41.078125 24.953125 
Q 38.03125 27.546875 34.03125 28.515625 
L 20.703125 31.84375 
Q 15.53125 33.15625 12.234375 35.03125 
Q 8.9375 36.921875 6.640625 40.828125 
Q 4.34375 44.734375 4.34375 49.75 
Q 4.34375 58.109375 10.640625 63.0625 
Q 16.9375 68.015625 26.8125 68.015625 
Q 44.96875 68.015625 50.6875 51.5625 
L 43.109375 49.3125 
Q 41.796875 55.171875 36.90625 58.171875 
Q 32.03125 61.1875 26.515625 61.1875 
Q 21.046875 61.1875 16.765625 58.296875 
Q 12.5 55.421875 12.5 50.140625 
Q 12.5 42.78125 23.34375 40.1875 
L 35.796875 37.203125 
Q 52.875 33.109375 52.875 18.796875 
Q 52.875 10.15625 46.453125 4.421875 
Q 40.046875 -1.3125 28.375 -1.3125 
Q 7.671875 -1.3125 1.03125 17.71875 
z
" id="FranklinGothic-Book-83"/>
       <path d="M 51.46875 7.328125 
L 51.46875 0 
L 8.34375 0 
L 8.34375 66.65625 
L 50.53125 66.65625 
L 50.53125 59.328125 
L 16.703125 59.328125 
L 16.703125 38.140625 
L 43.5625 38.140625 
L 43.5625 31.34375 
L 16.703125 31.34375 
L 16.703125 7.328125 
z
" id="FranklinGothic-Book-69"/>
       <path d="M 72.703125 0 
L 64.59375 0 
L 64.59375 58.203125 
L 42.921875 0 
L 37.25 0 
L 15.4375 58.203125 
L 15.4375 0 
L 8.34375 0 
L 8.34375 66.65625 
L 20.75 66.65625 
L 40.828125 13.328125 
L 60.5 66.65625 
L 72.703125 66.65625 
z
" id="FranklinGothic-Book-77"/>
       <path d="M 16.703125 0 
L 8.34375 0 
L 8.34375 66.65625 
L 31.984375 66.65625 
Q 43.0625 66.65625 48.328125 60.625 
Q 53.609375 54.59375 53.609375 46.875 
Q 53.609375 38.28125 47.875 32.65625 
Q 42.140625 27.046875 32.859375 27.046875 
L 16.703125 27.046875 
z
M 16.703125 33.984375 
L 32.03125 33.984375 
Q 37.9375 33.984375 41.546875 37.515625 
Q 45.171875 41.0625 45.171875 46.875 
Q 45.171875 51.859375 41.9375 55.765625 
Q 38.71875 59.671875 32.625 59.671875 
L 16.703125 59.671875 
z
" id="FranklinGothic-Book-80"/>
      </defs>
      <use xlink:href="#FranklinGothic-Book-71"/>
      <use x="64.697266" xlink:href="#FranklinGothic-Book-73"/>
      <use x="89.697266" xlink:href="#FranklinGothic-Book-83"/>
      <use x="144.630859" xlink:href="#FranklinGothic-Book-84"/>
      <use x="193.166016" xlink:href="#FranklinGothic-Book-69"/>
      <use x="247.951172" xlink:href="#FranklinGothic-Book-77"/>
      <use x="328.957031" xlink:href="#FranklinGothic-Book-80"/>
     </g>
    </g>
    <g id="line2d_25"/>
    <g id="text_27">
     <!-- Berkeley Earth -->
     <g style="fill:#009e73;" transform="translate(185.856 211.71215)scale(0.2 -0.2)">
      <defs>
       <path d="M 8.34375 0 
L 8.34375 66.65625 
L 34.71875 66.65625 
Q 44.671875 66.65625 49.484375 61.765625 
Q 54.296875 56.890625 54.296875 50.4375 
Q 54.296875 39.109375 42.484375 35.40625 
Q 49.515625 33.59375 52.921875 28.953125 
Q 56.34375 24.3125 56.34375 18.453125 
Q 56.34375 10.59375 51.046875 5.296875 
Q 45.75 0 34.71875 0 
z
M 16.40625 38.09375 
L 30.90625 38.09375 
Q 39.9375 38.09375 42.96875 41.53125 
Q 46 44.96875 46 49.609375 
Q 46 54.203125 42.75 57.03125 
Q 39.5 59.859375 33.0625 59.859375 
L 16.40625 59.859375 
z
M 16.40625 7.328125 
L 34.28125 7.328125 
Q 40.828125 7.328125 44.390625 10.5 
Q 47.953125 13.671875 47.953125 18.75 
Q 47.953125 22.3125 46.34375 25.359375 
Q 44.734375 28.421875 41.796875 30.078125 
Q 38.875 31.734375 33.0625 31.734375 
L 16.40625 31.734375 
z
" id="FranklinGothic-Book-66"/>
       <path d="M 48.390625 0 
L 40.4375 0 
L 26.03125 27.546875 
L 15.328125 15.234375 
L 15.328125 0 
L 7.671875 0 
L 7.671875 66.65625 
L 15.328125 66.65625 
L 15.328125 23.96875 
L 38.234375 49.3125 
L 46.4375 49.3125 
L 31 31.984375 
z
" id="FranklinGothic-Book-107"/>
       <path d="M 41.5 49.3125 
L 21.734375 -5.765625 
Q 17.4375 -17.671875 8.015625 -17.671875 
Q 5.03125 -17.671875 1.421875 -16.65625 
L 1.421875 -10.640625 
Q 4.390625 -11.328125 6.546875 -11.328125 
Q 10.203125 -11.328125 12.671875 -9.21875 
Q 15.140625 -7.125 17.578125 0.921875 
L 0.53125 49.3125 
L 8.34375 49.3125 
L 21.53125 12.25 
L 35.0625 49.3125 
z
" id="FranklinGothic-Book-121"/>
       <path d="M 46.34375 0 
L 38.671875 0 
L 38.671875 29.9375 
Q 38.671875 35.203125 38.015625 37.84375 
Q 37.359375 40.484375 34.890625 42.40625 
Q 32.421875 44.34375 29.203125 44.34375 
Q 23.296875 44.34375 19.3125 39.5 
Q 15.328125 34.671875 15.328125 26.5625 
L 15.328125 0 
L 7.671875 0 
L 7.671875 66.65625 
L 15.328125 66.65625 
L 15.328125 40.234375 
Q 20.5625 50.6875 30.28125 50.6875 
Q 34.625 50.6875 38.015625 48.96875 
Q 41.40625 47.265625 43.203125 44.484375 
Q 45.015625 41.703125 45.671875 38.984375 
Q 46.34375 36.28125 46.34375 29.9375 
z
" id="FranklinGothic-Book-104"/>
      </defs>
      <use xlink:href="#FranklinGothic-Book-66"/>
      <use x="60.449219" xlink:href="#FranklinGothic-Book-101"/>
      <use x="112.5" xlink:href="#FranklinGothic-Book-114"/>
      <use x="144.958984" xlink:href="#FranklinGothic-Book-107"/>
      <use x="192.806641" xlink:href="#FranklinGothic-Book-101"/>
      <use x="244.857422" xlink:href="#FranklinGothic-Book-108"/>
      <use x="267.855469" xlink:href="#FranklinGothic-Book-101"/>
      <use x="318.28125" xlink:href="#FranklinGothic-Book-121"/>
      <use x="359.785156" xlink:href="#FranklinGothic-Book-32"/>
      <use x="384.785156" xlink:href="#FranklinGothic-Book-69"/>
      <use x="439.570312" xlink:href="#FranklinGothic-Book-97"/>
      <use x="492.451172" xlink:href="#FranklinGothic-Book-114"/>
      <use x="528.785156" xlink:href="#FranklinGothic-Book-116"/>
      <use x="559.546875" xlink:href="#FranklinGothic-Book-104"/>
     </g>
    </g>
    <g id="line2d_26"/>
    <g id="text_28">
     <!-- JRA-55 -->
     <g style="fill:#d55e00;" transform="translate(185.856 239.246525)scale(0.2 -0.2)">
      <defs>
       <path d="M 29.6875 66.65625 
L 29.6875 20.359375 
Q 29.6875 8.25 24.21875 3.46875 
Q 18.75 -1.3125 9.71875 -1.3125 
Q 4.890625 -1.3125 0 0 
L 0 6.84375 
Q 4.78125 5.859375 8.6875 5.859375 
Q 14.265625 5.859375 16.890625 7.515625 
Q 19.53125 9.1875 20.4375 11.8125 
Q 21.34375 14.453125 21.34375 20.359375 
L 21.34375 66.65625 
z
" id="FranklinGothic-Book-74"/>
      </defs>
      <use xlink:href="#FranklinGothic-Book-74"/>
      <use x="37.353516" xlink:href="#FranklinGothic-Book-82"/>
      <use x="98.632812" xlink:href="#FranklinGothic-Book-65"/>
      <use x="153.947266" xlink:href="#FranklinGothic-Book-45"/>
      <use x="178.947266" xlink:href="#FranklinGothic-Book-53"/>
      <use x="237.589844" xlink:href="#FranklinGothic-Book-53"/>
     </g>
    </g>
    <g id="line2d_27"/>
    <g id="text_29">
     <!-- ERA5 -->
     <g style="fill:#0072b2;" transform="translate(185.856 266.577775)scale(0.2 -0.2)">
      <use xlink:href="#FranklinGothic-Book-69"/>
      <use x="54.785156" xlink:href="#FranklinGothic-Book-82"/>
      <use x="116.064453" xlink:href="#FranklinGothic-Book-65"/>
      <use x="169.628906" xlink:href="#FranklinGothic-Book-53"/>
     </g>
    </g>
   </g>
   <g id="line2d_28">
    <path clip-path="url(#pef32eb6199)" d="M 184.581818 519.038703 
L 189.32823 488.291583 
L 194.074641 480.57104 
L 198.821053 482.664365 
L 203.567464 478.950401 
L 208.313876 478.432697 
L 213.060287 509.877592 
L 217.806699 548.390273 
L 222.55311 492.54576 
L 227.299522 462.046238 
L 232.045933 503.665143 
L 236.792344 524.598395 
L 241.538756 554.04 
L 246.285167 494.976718 
L 251.031579 498.127961 
L 255.77799 470.126923 
L 260.524402 454.640819 
L 265.270813 443.161294 
L 270.017225 454.123115 
L 274.763636 455.946333 
L 279.510048 477.104674 
L 284.256459 488.336601 
L 289.002871 479.850756 
L 293.749282 469.901834 
L 298.495694 482.124152 
L 303.242105 492.725831 
L 307.988517 493.35608 
L 312.734928 391.32336 
L 317.48134 367.441447 
L 322.227751 459.277647 
L 326.974163 479.288034 
L 331.720574 447.460488 
L 341.213397 476.316863 
L 345.959809 521.942348 
L 350.70622 512.286041 
L 355.452632 519.69146 
L 360.199043 529.212714 
L 364.945455 473.998449 
L 369.691866 440.23514 
L 374.438278 518.160857 
L 379.184689 486.670944 
L 383.9311 503.867723 
L 388.677512 498.375558 
L 393.423923 495.967109 
L 398.170335 475.439017 
L 402.916746 453.22276 
L 407.663158 446.672678 
L 412.409569 504.340409 
L 417.155981 457.386901 
L 421.902392 428.530527 
L 426.648804 449.081127 
L 431.395215 492.455725 
L 436.141627 519.218774 
L 440.888038 534.389754 
L 445.63445 485.36543 
L 450.380861 463.036628 
L 455.127273 508.887202 
L 459.873684 514.131769 
L 464.620096 531.396074 
L 469.366507 520.771886 
L 474.112919 523.225353 
L 478.85933 504.565498 
L 483.605742 496.34976 
L 488.352153 446.402571 
L 493.098565 432.086929 
L 497.844976 496.777428 
L 502.591388 537.563505 
L 507.337799 492.275654 
L 512.084211 474.606189 
L 521.577033 444.376773 
L 526.323445 468.168651 
L 531.069856 458.557363 
L 535.816268 460.830759 
L 540.562679 449.171163 
L 545.309091 412.009014 
L 550.055502 443.521436 
L 554.801914 440.662809 
L 559.548325 490.497453 
L 564.294737 428.733107 
L 569.041148 411.783926 
L 573.78756 422.970835 
L 578.533971 475.416508 
L 583.280383 435.418242 
L 588.026794 451.984772 
L 592.773206 433.099828 
L 597.519617 390.242934 
L 602.266029 388.599787 
L 607.01244 394.812236 
L 611.758852 372.686014 
L 616.505263 385.155929 
L 621.251675 382.432356 
L 625.998086 367.869115 
L 630.744498 340.250729 
L 635.490909 374.171599 
L 640.237321 413.922268 
L 644.983732 395.262413 
L 649.730144 420.742457 
L 654.476555 423.015853 
L 659.222967 440.527756 
L 663.969378 392.426295 
L 673.462201 353.305875 
L 678.208612 405.278861 
L 682.955024 420.629912 
L 687.701435 442.913696 
L 692.447847 381.239385 
L 697.194258 379.821327 
L 701.94067 384.255574 
L 706.687081 399.876732 
L 711.433493 379.506202 
L 716.179904 395.442484 
L 720.926316 383.805397 
L 725.672727 454.573292 
L 730.419139 422.363096 
L 735.16555 405.481441 
L 739.911962 397.243194 
L 744.658373 417.996374 
L 749.404785 378.335741 
L 754.151196 391.255834 
L 758.897608 422.205534 
L 763.644019 392.448804 
L 768.390431 356.457117 
L 773.136842 411.761417 
L 777.883254 394.136969 
L 782.629665 420.47235 
L 787.376077 331.404742 
L 792.122488 365.505684 
L 796.8689 344.887556 
L 801.615311 311.979585 
L 806.361722 298.271681 
L 811.108134 356.434608 
L 815.854545 307.837952 
L 820.600957 353.215839 
L 825.347368 353.958632 
L 830.09378 339.282847 
L 834.840191 302.008154 
L 839.586603 290.033434 
L 844.333014 320.645501 
L 849.079426 270.090573 
L 853.825837 273.511921 
L 858.572249 330.121736 
L 863.31866 314.635632 
L 868.065072 301.28787 
L 872.811483 258.656066 
L 877.557895 288.570357 
L 882.304306 250.710434 
L 887.050718 210.532096 
L 891.797129 276.010406 
L 896.543541 275.470193 
L 901.289952 239.365962 
L 906.036364 214.020971 
L 910.782775 218.792852 
L 915.529187 242.022009 
L 920.275598 197.161826 
L 925.02201 210.982274 
L 929.768421 207.538416 
L 934.514833 242.20208 
L 939.261244 205.490109 
L 944.007656 186.582656 
L 948.754067 216.361894 
L 953.500478 210.734676 
L 958.24689 205.557635 
L 962.993301 185.929898 
L 967.739713 147.034567 
L 972.486124 109.849909 
L 977.232536 135.39748 
L 981.978947 155.610447 
L 986.725359 118.830949 
L 991.47177 111.560584 
L 996.218182 152.796838 
L 996.218182 152.796838 
" style="fill:none;stroke:#009e73;stroke-linecap:round;stroke-width:3;"/>
   </g>
   <g id="line2d_29">
    <path clip-path="url(#pef32eb6199)" d="M 326.974163 430.356747 
L 331.720574 407.622785 
L 336.466986 414.375447 
L 341.213397 432.832723 
L 345.959809 462.319346 
L 350.70622 475.374492 
L 355.452632 470.647628 
L 360.199043 484.152952 
L 364.945455 432.382545 
L 369.691866 414.375447 
L 374.438278 480.776621 
L 379.184689 447.013312 
L 383.9311 460.068458 
L 388.677512 470.42254 
L 393.423923 470.872717 
L 398.170335 449.039111 
L 402.916746 415.500891 
L 407.663158 415.275802 
L 412.409569 459.84337 
L 417.155981 434.858521 
L 421.902392 408.52314 
L 426.648804 429.231303 
L 431.395215 460.743724 
L 436.141627 485.278396 
L 440.888038 513.639575 
L 445.63445 457.817571 
L 450.380861 446.788224 
L 455.127273 491.355791 
L 459.873684 502.385139 
L 464.620096 517.691172 
L 469.366507 503.285494 
L 474.112919 506.886913 
L 478.85933 485.728573 
L 483.605742 481.226798 
L 488.352153 429.68148 
L 493.098565 425.179706 
L 497.844976 483.927863 
L 502.591388 511.163599 
L 507.337799 467.271298 
L 512.084211 460.068458 
L 516.830622 458.492837 
L 521.577033 434.858521 
L 526.323445 462.769523 
L 531.069856 457.817571 
L 535.816268 459.393192 
L 540.562679 445.66278 
L 545.309091 413.700181 
L 550.055502 444.312248 
L 554.801914 439.135207 
L 559.548325 482.577331 
L 564.294737 427.880771 
L 569.041148 410.32385 
L 573.78756 426.755327 
L 578.533971 461.418991 
L 583.280383 418.201955 
L 588.026794 438.009763 
L 592.773206 424.50444 
L 597.519617 391.191308 
L 602.266029 385.113913 
L 607.01244 389.615687 
L 611.758852 350.900426 
L 616.505263 335.144216 
L 621.251675 367.331903 
L 625.998086 361.254508 
L 630.744498 329.967175 
L 635.490909 360.579242 
L 640.237321 405.146809 
L 644.983732 392.316752 
L 649.730144 414.375447 
L 654.476555 415.275802 
L 659.222967 432.157456 
L 663.969378 404.021366 
L 668.715789 382.637937 
L 673.462201 363.955573 
L 678.208612 421.353198 
L 682.955024 423.378996 
L 687.701435 436.88432 
L 692.447847 372.283855 
L 697.194258 369.132613 
L 701.94067 377.010719 
L 706.687081 392.091663 
L 711.433493 369.807879 
L 716.179904 377.010719 
L 720.926316 370.483146 
L 725.672727 439.135207 
L 730.419139 414.150358 
L 735.16555 400.645035 
L 739.911962 391.641486 
L 744.658373 407.622785 
L 749.404785 371.158412 
L 754.151196 378.58634 
L 758.897608 408.072963 
L 763.644019 383.088114 
L 768.390431 341.896877 
L 773.136842 404.471543 
L 777.883254 388.715332 
L 782.629665 411.674382 
L 787.376077 337.395103 
L 792.122488 366.881726 
L 796.8689 340.771434 
L 801.615311 316.461851 
L 806.361722 298.229665 
L 811.108134 347.073918 
L 815.854545 300.480552 
L 820.600957 342.797232 
L 825.347368 353.151314 
L 830.09378 336.719837 
L 834.840191 298.679842 
L 839.586603 280.222567 
L 844.333014 311.5099 
L 849.079426 264.241267 
L 853.825837 275.720792 
L 858.572249 325.690489 
L 863.31866 322.314158 
L 868.065072 300.255463 
L 872.811483 264.466356 
L 877.557895 296.428955 
L 882.304306 260.18967 
L 887.050718 220.799143 
L 891.797129 282.023276 
L 896.543541 279.097123 
L 901.289952 240.381862 
L 906.036364 215.847191 
L 910.782775 218.323167 
L 915.529187 241.282217 
L 920.275598 203.017134 
L 925.02201 213.596304 
L 929.768421 205.943287 
L 934.514833 238.806241 
L 939.261244 207.969086 
L 944.007656 190.187076 
L 948.754067 220.574054 
L 953.500478 210.670151 
L 958.24689 202.566956 
L 962.993301 183.884592 
L 967.739713 142.918444 
L 972.486124 111.631111 
L 977.232536 136.390871 
L 981.978947 156.873945 
L 986.725359 121.760104 
L 991.47177 111.180934 
L 996.218182 157.999389 
L 996.218182 157.999389 
" style="fill:none;stroke:#56b4e9;stroke-linecap:round;stroke-width:3;"/>
   </g>
   <g id="line2d_30">
    <path clip-path="url(#pef32eb6199)" d="M 326.974163 422.524005 
L 331.720574 412.637118 
L 336.466986 416.723176 
L 345.959809 462.925158 
L 350.70622 458.997967 
L 355.452632 456.592646 
L 360.199043 468.263047 
L 364.945455 426.369376 
L 369.691866 413.360823 
L 374.438278 482.819827 
L 379.184689 460.365449 
L 383.9311 473.385796 
L 388.677512 480.036875 
L 393.423923 477.284018 
L 398.170335 457.926477 
L 402.916746 417.313764 
L 407.663158 417.783321 
L 412.409569 465.679681 
L 417.155981 433.723519 
L 421.902392 411.45745 
L 426.648804 433.039947 
L 431.395215 462.017532 
L 436.141627 493.072258 
L 440.888038 514.378212 
L 445.63445 466.722607 
L 450.380861 447.776596 
L 455.127273 495.20763 
L 459.873684 507.705592 
L 464.620096 511.252877 
L 469.366507 500.328736 
L 474.112919 512.074541 
L 478.85933 483.097587 
L 483.605742 478.097151 
L 488.352153 430.16176 
L 493.098565 417.699048 
L 497.844976 478.974411 
L 502.591388 498.698801 
L 507.337799 473.783933 
L 512.084211 458.179747 
L 516.830622 453.185478 
L 521.577033 433.883873 
L 526.323445 457.187083 
L 531.069856 458.670148 
L 535.816268 455.984299 
L 540.562679 438.962054 
L 545.309091 411.05184 
L 550.055502 437.492585 
L 554.801914 439.455089 
L 559.548325 478.877556 
L 564.294737 420.329502 
L 569.041148 407.256237 
L 573.78756 425.413694 
L 578.533971 460.415801 
L 583.280383 420.363963 
L 588.026794 432.817762 
L 592.773206 422.479752 
L 597.519617 393.420618 
L 602.266029 396.117924 
L 607.01244 387.981011 
L 611.758852 347.999154 
L 616.505263 317.726273 
L 621.251675 361.555347 
L 625.998086 362.426553 
L 630.744498 315.959597 
L 635.490909 342.88462 
L 640.237321 393.233074 
L 644.983732 399.751193 
L 649.730144 404.594292 
L 654.476555 410.316183 
L 659.222967 431.647526 
L 663.969378 390.418092 
L 668.715789 378.841779 
L 673.462201 355.622774 
L 678.208612 417.523591 
L 682.955024 425.47404 
L 687.701435 440.022425 
L 692.447847 371.500105 
L 697.194258 357.032144 
L 701.94067 369.090192 
L 706.687081 377.267868 
L 711.433493 364.86118 
L 716.179904 362.103191 
L 720.926316 358.569973 
L 725.672727 429.034404 
L 730.419139 409.716569 
L 735.16555 393.497306 
L 739.911962 391.214343 
L 744.658373 398.080225 
L 749.404785 362.308111 
L 754.151196 375.317992 
L 758.897608 408.759267 
L 763.644019 380.855737 
L 768.390431 338.574464 
L 773.136842 407.587815 
L 777.883254 387.117706 
L 782.629665 409.1039 
L 787.376077 333.608466 
L 792.122488 359.331178 
L 796.8689 329.520405 
L 801.615311 315.20008 
L 806.361722 303.369979 
L 811.108134 338.591435 
L 815.854545 293.652764 
L 820.600957 345.365953 
L 825.347368 348.224422 
L 830.09378 326.871763 
L 834.840191 287.045734 
L 839.586603 284.524921 
L 844.333014 311.20516 
L 849.079426 269.691754 
L 853.825837 285.458071 
L 858.572249 326.625336 
L 863.31866 314.479931 
L 868.065072 297.591772 
L 872.811483 264.06251 
L 877.557895 303.420534 
L 882.304306 251.645693 
L 887.050718 214.652136 
L 891.797129 271.841284 
L 896.543541 276.027709 
L 901.289952 236.964258 
L 906.036364 222.99084 
L 910.782775 218.094665 
L 915.529187 233.455643 
L 920.275598 210.477708 
L 925.02201 219.149296 
L 929.768421 223.599053 
L 934.514833 244.075441 
L 939.261244 216.772629 
L 944.007656 195.516691 
L 948.754067 235.610575 
L 953.500478 219.053026 
L 958.24689 208.926892 
L 962.993301 191.055747 
L 967.739713 140.398809 
L 972.486124 122.497683 
L 981.978947 169.051884 
L 986.725359 135.705619 
L 991.47177 127.133835 
L 996.218182 164.510133 
L 996.218182 164.510133 
" style="fill:none;stroke:#e69f00;stroke-linecap:round;stroke-width:3;"/>
   </g>
   <g id="line2d_31">
    <path clip-path="url(#pef32eb6199)" d="M 184.581818 478.499461 
L 189.32823 428.716416 
L 194.074641 427.649296 
L 198.821053 438.711608 
L 203.567464 444.458283 
L 208.313876 445.895567 
L 213.060287 452.216734 
L 217.806699 491.888981 
L 222.55311 470.69525 
L 227.299522 441.639834 
L 232.045933 471.073263 
L 236.792344 481.63765 
L 241.538756 510.571624 
L 246.285167 458.69645 
L 251.031579 491.404592 
L 255.77799 455.521254 
L 260.524402 457.863833 
L 265.270813 462.105232 
L 270.017225 460.753988 
L 274.763636 451.194847 
L 279.510048 454.252566 
L 284.256459 465.243159 
L 289.002871 454.293383 
L 293.749282 457.883198 
L 298.495694 466.504685 
L 303.242105 467.146123 
L 307.988517 480.241959 
L 312.734928 392.997273 
L 317.48134 368.743431 
L 322.227751 447.700718 
L 326.974163 450.995411 
L 331.720574 428.418141 
L 336.466986 445.511714 
L 341.213397 459.272103 
L 345.959809 498.665964 
L 350.70622 492.940651 
L 355.452632 479.375911 
L 360.199043 500.412389 
L 364.945455 468.159816 
L 369.691866 433.18553 
L 374.438278 502.592795 
L 379.184689 474.084886 
L 383.9311 502.78197 
L 388.677512 499.286981 
L 393.423923 496.354891 
L 398.170335 486.897836 
L 402.916746 442.39933 
L 407.663158 435.860829 
L 412.409569 496.90272 
L 417.155981 461.692052 
L 421.902392 429.021428 
L 426.648804 444.944076 
L 431.395215 484.25962 
L 436.141627 509.742035 
L 440.888038 527.092332 
L 445.63445 475.823398 
L 450.380861 451.888717 
L 455.127273 501.863382 
L 459.873684 504.486933 
L 464.620096 510.400683 
L 469.366507 509.1202 
L 474.112919 511.329912 
L 478.85933 494.169486 
L 483.605742 491.868045 
L 488.352153 436.615035 
L 493.098565 417.505407 
L 497.844976 479.188557 
L 502.591388 512.360211 
L 507.337799 480.3701 
L 512.084211 453.611703 
L 516.830622 446.335727 
L 521.577033 430.695549 
L 526.323445 457.314834 
L 531.069856 451.562225 
L 535.816268 449.977148 
L 540.562679 441.972017 
L 545.309091 398.865779 
L 550.055502 427.650919 
L 554.801914 421.534758 
L 559.548325 471.773231 
L 564.294737 413.443406 
L 569.041148 393.615507 
L 573.78756 404.977263 
L 578.533971 452.754434 
L 583.280383 412.776635 
L 588.026794 421.345054 
L 592.773206 411.475825 
L 597.519617 370.872879 
L 602.266029 368.98262 
L 607.01244 376.706702 
L 611.758852 345.176361 
L 616.505263 355.388143 
L 621.251675 365.307329 
L 625.998086 363.954641 
L 630.744498 326.763395 
L 635.490909 354.048678 
L 640.237321 397.779229 
L 644.983732 390.322333 
L 649.730144 399.35894 
L 654.476555 404.52904 
L 659.222967 426.899137 
L 663.969378 382.205208 
L 668.715789 361.539757 
L 673.462201 344.718557 
L 678.208612 397.222112 
L 682.955024 418.981811 
L 687.701435 436.769855 
L 692.447847 375.231316 
L 697.194258 370.44979 
L 701.94067 378.653538 
L 706.687081 396.880917 
L 711.433493 371.088548 
L 716.179904 382.988643 
L 720.926316 375.628633 
L 725.672727 448.303711 
L 730.419139 420.893617 
L 735.16555 405.901814 
L 739.911962 397.429039 
L 744.658373 411.235798 
L 749.404785 374.159476 
L 754.151196 388.674958 
L 758.897608 421.31089 
L 763.644019 391.03043 
L 768.390431 352.199801 
L 773.136842 412.290574 
L 777.883254 395.602561 
L 782.629665 423.992758 
L 787.376077 337.842247 
L 792.122488 364.267506 
L 796.8689 341.145755 
L 801.615311 312.726789 
L 806.361722 298.157256 
L 811.108134 356.432378 
L 815.854545 305.226866 
L 820.600957 352.720741 
L 825.347368 352.254788 
L 830.09378 339.841453 
L 834.840191 300.044121 
L 839.586603 289.476116 
L 844.333014 317.270469 
L 849.079426 268.296869 
L 853.825837 274.148978 
L 858.572249 331.951692 
L 863.31866 320.941701 
L 868.065072 302.60382 
L 872.811483 263.893137 
L 877.557895 290.951523 
L 882.304306 251.618862 
L 887.050718 209.750207 
L 891.797129 278.041636 
L 896.543541 276.25898 
L 901.289952 233.529333 
L 906.036364 218.893308 
L 910.782775 218.703237 
L 915.529187 239.447267 
L 920.275598 201.769619 
L 925.02201 211.036937 
L 929.768421 205.864767 
L 934.514833 239.912088 
L 939.261244 204.49254 
L 944.007656 181.914397 
L 948.754067 220.451489 
L 953.500478 209.671716 
L 958.24689 197.255385 
L 962.993301 183.940137 
L 967.739713 142.818388 
L 972.486124 113.697468 
L 977.232536 137.400087 
L 981.978947 159.689336 
L 986.725359 125.002646 
L 991.47177 116.434551 
L 996.218182 159.904913 
L 996.218182 159.904913 
" style="fill:none;stroke:#696969;stroke-linecap:round;stroke-width:3;"/>
   </g>
  </g>
 </g>
 <defs>
  <clipPath id="pef32eb6199">
   <rect height="498.96" width="892.8" x="144" y="77.76"/>
  </clipPath>
 </defs>
</svg>
