<?xml version="1.0" encoding="utf-8" standalone="no"?>
<!DOCTYPE svg PUBLIC "-//W3C//DTD SVG 1.1//EN"
  "http://www.w3.org/Graphics/SVG/1.1/DTD/svg11.dtd">
<!-- Created with matplotlib (https://matplotlib.org/) -->
<svg height="648pt" version="1.1" viewBox="0 0 1152 648" width="1152pt" xmlns="http://www.w3.org/2000/svg" xmlns:xlink="http://www.w3.org/1999/xlink">
 <metadata>
  <rdf:RDF xmlns:cc="http://creativecommons.org/ns#" xmlns:dc="http://purl.org/dc/elements/1.1/" xmlns:rdf="http://www.w3.org/1999/02/22-rdf-syntax-ns#">
   <cc:Work>
    <dc:type rdf:resource="http://purl.org/dc/dcmitype/StillImage"/>
    <dc:date>2023-03-03T12:33:26.129162</dc:date>
    <dc:format>image/svg+xml</dc:format>
    <dc:creator>
     <cc:Agent>
      <dc:title>Matplotlib v3.3.1, https://matplotlib.org/</dc:title>
     </cc:Agent>
    </dc:creator>
   </cc:Work>
  </rdf:RDF>
 </metadata>
 <defs>
  <style type="text/css">*{stroke-linecap:butt;stroke-linejoin:round;}</style>
 </defs>
 <g id="figure_1">
  <g id="patch_1">
   <path d="M 0 648 
L 1152 648 
L 1152 0 
L 0 0 
z
" style="fill:#ffffff;"/>
  </g>
  <g id="axes_1">
   <g id="patch_2">
    <path d="M 144 576.72 
L 1036.8 576.72 
L 1036.8 77.76 
L 144 77.76 
z
" style="fill:none;"/>
   </g>
   <g id="line2d_1">
    <path clip-path="url(#pb38123de91)" d="M 694.213953 366.003728 
L 698.93277 375.611144 
L 703.651586 387.938155 
L 708.370402 367.267862 
L 713.089218 383.82004 
L 717.808034 373.706971 
L 722.52685 431.640735 
L 727.245666 414.708178 
L 731.964482 393.345458 
L 736.683298 389.764885 
L 741.402114 406.797662 
L 746.12093 370.919044 
L 750.839746 377.802309 
L 755.558562 420.133702 
L 760.277378 383.143558 
L 764.996195 354.88163 
L 769.715011 430.305992 
L 774.433827 423.493337 
L 779.152643 442.277679 
L 783.871459 364.129166 
L 788.590275 380.241745 
L 793.309091 337.744077 
L 798.027907 301.87457 
L 802.746723 292.747753 
L 807.465539 347.217108 
L 812.184355 293.959499 
L 816.903171 352.075481 
L 821.621987 363.111026 
L 826.340803 338.844215 
L 831.059619 296.373881 
L 835.778436 287.586443 
L 840.497252 319.930043 
L 845.216068 256.677807 
L 849.934884 271.646971 
L 854.6537 335.081425 
L 859.372516 322.556252 
L 864.091332 312.632234 
L 868.810148 264.04167 
L 873.528964 299.562686 
L 878.24778 266.162225 
L 882.966596 214.603795 
L 887.685412 288.094375 
L 892.404228 289.481505 
L 897.123044 245.742481 
L 901.84186 219.316394 
L 906.560677 222.865079 
L 911.279493 239.629085 
L 915.998309 195.284189 
L 920.717125 208.433456 
L 925.435941 210.458348 
L 930.154757 246.667235 
L 934.873573 210.950335 
L 939.592389 184.802129 
L 944.311205 223.568894 
L 949.030021 209.599648 
L 953.748837 202.153787 
L 958.467653 191.453066 
L 963.186469 150.629522 
L 967.905285 100.44 
L 972.624101 126.556318 
L 977.342918 148.349526 
L 982.061734 111.368492 
L 986.78055 102.357839 
L 991.499366 145.677762 
L 996.218182 138.252401 
" style="fill:none;stroke:#0072b2;stroke-linecap:round;stroke-width:3;"/>
   </g>
   <g id="line2d_2">
    <path clip-path="url(#pb38123de91)" d="M 694.213953 348.781525 
L 698.93277 366.966401 
L 703.651586 371.870134 
L 708.370402 365.301732 
L 713.089218 369.130136 
L 717.808034 368.587395 
L 722.52685 422.355061 
L 727.245666 402.872437 
L 731.964482 393.914468 
L 736.683298 394.816276 
L 741.402114 402.518113 
L 746.12093 361.795107 
L 750.839746 373.055111 
L 755.558562 407.440942 
L 760.277378 377.303312 
L 764.996195 350.310879 
L 769.715011 423.902367 
L 774.433827 407.164745 
L 779.152643 436.575893 
L 783.871459 361.17797 
L 788.590275 378.009697 
L 793.309091 346.092904 
L 798.027907 311.806232 
L 802.746723 301.135569 
L 807.465539 352.094159 
L 812.184355 302.221823 
L 816.903171 353.48649 
L 821.621987 362.02586 
L 826.340803 335.02297 
L 831.059619 296.923766 
L 835.778436 289.838885 
L 840.497252 319.434251 
L 845.216068 268.077611 
L 849.934884 280.370007 
L 854.6537 332.845736 
L 859.372516 322.903527 
L 864.091332 303.794717 
L 868.810148 256.362574 
L 873.528964 292.164837 
L 878.24778 261.230168 
L 882.966596 207.445082 
L 887.685412 275.059811 
L 892.404228 274.833081 
L 897.123044 239.296263 
L 901.84186 210.703285 
L 906.560677 223.195339 
L 911.279493 247.706704 
L 915.998309 199.196392 
L 920.717125 212.453157 
L 925.435941 214.065404 
L 930.154757 253.296783 
L 934.873573 215.398703 
L 939.592389 193.95217 
L 944.311205 225.899922 
L 949.030021 214.377218 
L 953.748837 203.876475 
L 958.467653 192.606484 
L 963.186469 156.496244 
L 967.905285 106.081668 
L 972.624101 142.986206 
L 977.342918 165.885538 
L 982.061734 123.003953 
L 986.78055 124.337775 
L 991.499366 166.255893 
L 996.218182 153.075962 
" style="fill:none;stroke:#d55e00;stroke-linecap:round;stroke-width:3;"/>
   </g>
   <g id="patch_3">
    <path d="M 144 576.72 
L 1036.8 576.72 
" style="fill:none;stroke:#d3d3d3;stroke-linecap:square;stroke-linejoin:miter;stroke-width:1.25;"/>
   </g>
   <g id="matplotlib.axis_1">
    <g id="xtick_1">
     <g id="line2d_3">
      <defs>
       <path d="M 0 0 
L 0 6 
" id="m10aa91a242" style="stroke:#696969;stroke-width:1.25;"/>
      </defs>
      <g>
       <use style="fill:#696969;stroke:#696969;stroke-width:1.25;" x="231.769979" xlink:href="#m10aa91a242" y="576.72"/>
      </g>
     </g>
     <g id="text_1">
      <!-- 1860 -->
      <g style="fill:#696969;" transform="translate(214.224666 596.218438)scale(0.15 -0.15)">
       <defs>
        <path d="M 55.859375 6.203125 
L 55.859375 0 
L 9.1875 0 
L 9.1875 6.203125 
L 29.203125 6.203125 
L 29.203125 57.671875 
Q 20.359375 48.4375 10.84375 43.265625 
L 10.84375 51.65625 
Q 23.96875 58.546875 31.203125 68.015625 
L 37.15625 68.015625 
L 37.15625 6.203125 
z
" id="FranklinGothic-Book-49"/>
        <path d="M 19.484375 34.578125 
Q 6.84375 40.09375 6.84375 50.59375 
Q 6.84375 58.203125 13.140625 63.109375 
Q 19.4375 68.015625 29.828125 68.015625 
Q 40.09375 68.015625 46.140625 63.296875 
Q 52.203125 58.59375 52.203125 50.984375 
Q 52.203125 40.375 39.265625 35.796875 
Q 49.703125 30.953125 52.359375 26.453125 
Q 55.03125 21.96875 55.03125 17.484375 
Q 55.03125 9.46875 48.21875 4.078125 
Q 41.40625 -1.3125 29.734375 -1.3125 
Q 17.28125 -1.3125 10.4375 4.171875 
Q 3.609375 9.671875 3.609375 17.234375 
Q 3.609375 28.515625 19.484375 34.578125 
z
M 29.59375 38.71875 
Q 37.984375 40.96875 41.453125 43.890625 
Q 44.921875 46.828125 44.921875 51.21875 
Q 44.921875 56.34375 40.796875 59 
Q 36.671875 61.671875 29.9375 61.671875 
Q 23.484375 61.671875 19.375 58.859375 
Q 15.28125 56.0625 15.28125 51.3125 
Q 15.28125 46.625 19.84375 43.203125 
Q 24.421875 39.796875 29.59375 38.71875 
z
M 28.65625 31.0625 
Q 11.765625 27.046875 11.765625 16.9375 
Q 11.765625 11.671875 16.375 8.328125 
Q 21 4.984375 29.984375 4.984375 
Q 37.59375 4.984375 42.234375 8.25 
Q 46.875 11.53125 46.875 16.609375 
Q 46.875 26.3125 28.65625 31.0625 
z
" id="FranklinGothic-Book-56"/>
        <path d="M 53.5625 53.03125 
L 46.046875 50.984375 
Q 42.1875 61.140625 31.984375 61.140625 
Q 13.234375 61.140625 12.796875 30.125 
Q 15.765625 37.015625 21.234375 40.328125 
Q 26.703125 43.65625 32.8125 43.65625 
Q 42.09375 43.65625 48.359375 37.1875 
Q 54.640625 30.71875 54.640625 21.6875 
Q 54.640625 12.3125 47.96875 5.5 
Q 41.3125 -1.3125 30.90625 -1.3125 
Q 19.09375 -1.3125 12.078125 7.59375 
Q 5.078125 16.5 5.078125 31.84375 
Q 5.078125 46.828125 11.6875 57.421875 
Q 18.3125 68.015625 32.171875 68.015625 
Q 48.140625 68.015625 53.5625 53.03125 
z
M 30.765625 5.375 
Q 37.84375 5.375 42.359375 10.03125 
Q 46.875 14.703125 46.875 21.234375 
Q 46.875 27.6875 42.453125 32.296875 
Q 38.03125 36.921875 31.5 36.921875 
Q 24.75 36.921875 19.71875 32.078125 
Q 14.703125 27.25 14.703125 20.75 
Q 14.703125 14.75 19.1875 10.0625 
Q 23.6875 5.375 30.765625 5.375 
z
" id="FranklinGothic-Book-54"/>
        <path d="M 29.390625 -1.3125 
Q 17.875 -1.3125 10.984375 8.671875 
Q 4.109375 18.65625 4.109375 33.453125 
Q 4.109375 48 10.640625 58 
Q 17.1875 68.015625 29.15625 68.015625 
Q 41.65625 68.015625 48.125 57.5625 
Q 54.59375 47.125 54.59375 33.0625 
Q 54.59375 19.28125 47.953125 8.984375 
Q 41.3125 -1.3125 29.390625 -1.3125 
z
M 29.4375 5.21875 
Q 37.890625 5.21875 41.9375 12.859375 
Q 46 20.515625 46 32.078125 
Q 46 44.734375 41.84375 53.125 
Q 37.703125 61.53125 29.046875 61.53125 
Q 20.703125 61.53125 16.625 53.859375 
Q 12.546875 46.1875 12.546875 33.6875 
Q 12.546875 20.703125 16.84375 12.953125 
Q 21.140625 5.21875 29.4375 5.21875 
z
" id="FranklinGothic-Book-48"/>
       </defs>
       <use xlink:href="#FranklinGothic-Book-49"/>
       <use x="58.017578" xlink:href="#FranklinGothic-Book-56"/>
       <use x="116.660156" xlink:href="#FranklinGothic-Book-54"/>
       <use x="175.302734" xlink:href="#FranklinGothic-Book-48"/>
      </g>
     </g>
    </g>
    <g id="xtick_2">
     <g id="line2d_4">
      <g>
       <use style="fill:#696969;stroke:#696969;stroke-width:1.25;" x="326.1463" xlink:href="#m10aa91a242" y="576.72"/>
      </g>
     </g>
     <g id="text_2">
      <!-- 1880 -->
      <g style="fill:#696969;" transform="translate(308.600988 596.218438)scale(0.15 -0.15)">
       <use xlink:href="#FranklinGothic-Book-49"/>
       <use x="58.017578" xlink:href="#FranklinGothic-Book-56"/>
       <use x="116.660156" xlink:href="#FranklinGothic-Book-56"/>
       <use x="175.302734" xlink:href="#FranklinGothic-Book-48"/>
      </g>
     </g>
    </g>
    <g id="xtick_3">
     <g id="line2d_5">
      <g>
       <use style="fill:#696969;stroke:#696969;stroke-width:1.25;" x="420.522622" xlink:href="#m10aa91a242" y="576.72"/>
      </g>
     </g>
     <g id="text_3">
      <!-- 1900 -->
      <g style="fill:#696969;" transform="translate(403.033559 596.218438)scale(0.15 -0.15)">
       <defs>
        <path d="M 5.71875 12.15625 
L 12.40625 14.59375 
Q 16.546875 5.375 26.375 5.375 
Q 35.890625 5.375 40.703125 13.375 
Q 45.515625 21.390625 45.65625 35.109375 
Q 39.109375 23.09375 25.984375 23.09375 
Q 16.703125 23.09375 10.40625 29.421875 
Q 4.109375 35.75 4.109375 45.0625 
Q 4.109375 54.546875 10.71875 61.28125 
Q 17.328125 68.015625 27.59375 68.015625 
Q 40.140625 68.015625 46.828125 59.203125 
Q 53.515625 50.390625 53.515625 34.96875 
Q 53.515625 18.75 46.4375 8.71875 
Q 39.359375 -1.3125 26.265625 -1.3125 
Q 10.984375 -1.3125 5.71875 12.15625 
z
M 27.828125 29.78125 
Q 34.71875 29.78125 39.375 34.59375 
Q 44.046875 39.40625 44.046875 45.84375 
Q 44.046875 52.09375 39.625 56.578125 
Q 35.203125 61.078125 27.984375 61.078125 
Q 20.65625 61.078125 16.40625 56.46875 
Q 12.15625 51.859375 12.15625 45.21875 
Q 12.15625 38.09375 16.859375 33.9375 
Q 21.578125 29.78125 27.828125 29.78125 
z
" id="FranklinGothic-Book-57"/>
       </defs>
       <use xlink:href="#FranklinGothic-Book-49"/>
       <use x="57.267578" xlink:href="#FranklinGothic-Book-57"/>
       <use x="115.910156" xlink:href="#FranklinGothic-Book-48"/>
       <use x="174.552734" xlink:href="#FranklinGothic-Book-48"/>
      </g>
     </g>
    </g>
    <g id="xtick_4">
     <g id="line2d_6">
      <g>
       <use style="fill:#696969;stroke:#696969;stroke-width:1.25;" x="514.898943" xlink:href="#m10aa91a242" y="576.72"/>
      </g>
     </g>
     <g id="text_4">
      <!-- 1920 -->
      <g style="fill:#696969;" transform="translate(497.40988 596.218438)scale(0.15 -0.15)">
       <defs>
        <path d="M 52.484375 6.9375 
L 52.484375 0 
L 5.171875 0 
L 5.171875 6.9375 
Q 33.203125 27.9375 38.59375 34.59375 
Q 44 41.265625 44 47.796875 
Q 44 53.90625 39.453125 57.65625 
Q 34.90625 61.421875 29 61.421875 
Q 22.90625 61.421875 18.21875 57.296875 
Q 13.53125 53.171875 12.9375 46.09375 
L 5.171875 48.4375 
Q 10.0625 68.015625 29.109375 68.015625 
Q 39.40625 68.015625 45.84375 62.15625 
Q 52.296875 56.296875 52.296875 47.859375 
Q 52.296875 42.046875 49.234375 36.671875 
Q 46.1875 31.296875 37.6875 23.828125 
Q 29.203125 16.359375 15.71875 6.9375 
z
" id="FranklinGothic-Book-50"/>
       </defs>
       <use xlink:href="#FranklinGothic-Book-49"/>
       <use x="57.267578" xlink:href="#FranklinGothic-Book-57"/>
       <use x="115.910156" xlink:href="#FranklinGothic-Book-50"/>
       <use x="174.552734" xlink:href="#FranklinGothic-Book-48"/>
      </g>
     </g>
    </g>
    <g id="xtick_5">
     <g id="line2d_7">
      <g>
       <use style="fill:#696969;stroke:#696969;stroke-width:1.25;" x="609.275264" xlink:href="#m10aa91a242" y="576.72"/>
      </g>
     </g>
     <g id="text_5">
      <!-- 1940 -->
      <g style="fill:#696969;" transform="translate(591.823702 596.218438)scale(0.15 -0.15)">
       <defs>
        <path d="M 44.09375 0 
L 36.03125 0 
L 36.03125 15.875 
L 3.078125 15.875 
L 3.078125 21.484375 
L 33.640625 68.0625 
L 44.09375 68.0625 
L 44.09375 22.46875 
L 54.890625 22.46875 
L 54.890625 15.875 
L 44.09375 15.875 
z
M 36.03125 22.46875 
L 36.03125 54 
Q 36.03125 57.421875 36.1875 61.375 
Q 34.078125 57.515625 32.5625 55.125 
L 11.765625 22.46875 
z
" id="FranklinGothic-Book-52"/>
       </defs>
       <use xlink:href="#FranklinGothic-Book-49"/>
       <use x="57.267578" xlink:href="#FranklinGothic-Book-57"/>
       <use x="115.410156" xlink:href="#FranklinGothic-Book-52"/>
       <use x="174.052734" xlink:href="#FranklinGothic-Book-48"/>
      </g>
     </g>
    </g>
    <g id="xtick_6">
     <g id="line2d_8">
      <g>
       <use style="fill:#696969;stroke:#696969;stroke-width:1.25;" x="703.651586" xlink:href="#m10aa91a242" y="576.72"/>
      </g>
     </g>
     <g id="text_6">
      <!-- 1960 -->
      <g style="fill:#696969;" transform="translate(686.162523 596.218438)scale(0.15 -0.15)">
       <use xlink:href="#FranklinGothic-Book-49"/>
       <use x="57.267578" xlink:href="#FranklinGothic-Book-57"/>
       <use x="115.910156" xlink:href="#FranklinGothic-Book-54"/>
       <use x="174.552734" xlink:href="#FranklinGothic-Book-48"/>
      </g>
     </g>
    </g>
    <g id="xtick_7">
     <g id="line2d_9">
      <g>
       <use style="fill:#696969;stroke:#696969;stroke-width:1.25;" x="798.027907" xlink:href="#m10aa91a242" y="576.72"/>
      </g>
     </g>
     <g id="text_7">
      <!-- 1980 -->
      <g style="fill:#696969;" transform="translate(780.538844 596.218438)scale(0.15 -0.15)">
       <use xlink:href="#FranklinGothic-Book-49"/>
       <use x="57.267578" xlink:href="#FranklinGothic-Book-57"/>
       <use x="115.910156" xlink:href="#FranklinGothic-Book-56"/>
       <use x="174.552734" xlink:href="#FranklinGothic-Book-48"/>
      </g>
     </g>
    </g>
    <g id="xtick_8">
     <g id="line2d_10">
      <g>
       <use style="fill:#696969;stroke:#696969;stroke-width:1.25;" x="892.404228" xlink:href="#m10aa91a242" y="576.72"/>
      </g>
     </g>
     <g id="text_8">
      <!-- 2000 -->
      <g style="fill:#696969;" transform="translate(874.812041 596.218438)scale(0.15 -0.15)">
       <use xlink:href="#FranklinGothic-Book-50"/>
       <use x="58.642578" xlink:href="#FranklinGothic-Book-48"/>
       <use x="117.285156" xlink:href="#FranklinGothic-Book-48"/>
       <use x="175.927734" xlink:href="#FranklinGothic-Book-48"/>
      </g>
     </g>
    </g>
    <g id="xtick_9">
     <g id="line2d_11">
      <g>
       <use style="fill:#696969;stroke:#696969;stroke-width:1.25;" x="986.78055" xlink:href="#m10aa91a242" y="576.72"/>
      </g>
     </g>
     <g id="text_9">
      <!-- 2020 -->
      <g style="fill:#696969;" transform="translate(969.188362 596.218438)scale(0.15 -0.15)">
       <use xlink:href="#FranklinGothic-Book-50"/>
       <use x="58.642578" xlink:href="#FranklinGothic-Book-48"/>
       <use x="117.285156" xlink:href="#FranklinGothic-Book-50"/>
       <use x="175.927734" xlink:href="#FranklinGothic-Book-48"/>
      </g>
     </g>
    </g>
    <g id="text_10">
     <!-- Year -->
     <g style="fill:#696969;" transform="translate(572.109375 616.048125)scale(0.2 -0.2)">
      <defs>
       <path d="M 52 66.65625 
L 29.6875 28.03125 
L 29.6875 0 
L 21.34375 0 
L 21.34375 28.03125 
L -0.984375 66.65625 
L 8.84375 66.65625 
L 26.5625 35.984375 
L 44.390625 66.65625 
z
" id="FranklinGothic-Book-89"/>
       <path d="M 40.234375 14.703125 
L 47.359375 13.234375 
Q 45.40625 6.9375 39.734375 2.8125 
Q 34.078125 -1.3125 26.421875 -1.3125 
Q 16.3125 -1.3125 10.0625 5.78125 
Q 3.8125 12.890625 3.8125 24.421875 
Q 3.8125 36.1875 10.296875 43.4375 
Q 16.796875 50.6875 26.609375 50.6875 
Q 36.28125 50.6875 42.15625 44 
Q 48.046875 37.3125 48.1875 23.96875 
L 12.359375 23.96875 
Q 12.359375 12.796875 17.046875 8.890625 
Q 21.734375 4.984375 26.953125 4.984375 
Q 36.375 4.984375 40.234375 14.703125 
z
M 39.796875 29.6875 
Q 39.703125 33.84375 38.421875 37.0625 
Q 37.15625 40.28125 34.125 42.546875 
Q 31.109375 44.828125 26.859375 44.828125 
Q 21.140625 44.828125 17.15625 40.71875 
Q 13.1875 36.625 12.703125 29.6875 
z
" id="FranklinGothic-Book-101"/>
       <path d="M 46.296875 0 
L 38.671875 0 
Q 38.234375 2.34375 37.796875 8.890625 
Q 32.71875 -1.3125 20.515625 -1.3125 
Q 12.203125 -1.3125 7.765625 3.078125 
Q 3.328125 7.46875 3.328125 13.625 
Q 3.328125 21.09375 9.671875 25.90625 
Q 16.015625 30.71875 31.25 30.71875 
Q 33.296875 30.71875 37.796875 30.515625 
Q 37.796875 36.375 36.890625 38.984375 
Q 35.984375 41.609375 33.046875 43.171875 
Q 30.125 44.734375 25.34375 44.734375 
Q 13.671875 44.734375 11.765625 35.84375 
L 4.6875 37.0625 
Q 7.28125 50.6875 26.46875 50.6875 
Q 36.671875 50.6875 40.9375 46.171875 
Q 45.21875 41.65625 45.21875 30.515625 
L 45.21875 9.578125 
Q 45.21875 4.34375 46.296875 0 
z
M 37.796875 24.65625 
Q 33.109375 24.953125 30.671875 24.953125 
Q 21.578125 24.953125 16.546875 21.96875 
Q 11.53125 19 11.53125 13.28125 
Q 11.53125 9.671875 14.234375 7.125 
Q 16.9375 4.59375 22.078125 4.59375 
Q 29 4.59375 33.46875 9.625 
Q 37.9375 14.65625 37.9375 21.4375 
Q 37.9375 22.796875 37.796875 24.65625 
z
" id="FranklinGothic-Book-97"/>
       <path d="M 15.328125 0 
L 7.671875 0 
L 7.671875 49.3125 
L 14.40625 49.3125 
L 14.40625 37.796875 
Q 17.96875 45.953125 21.546875 48.359375 
Q 25.140625 50.78125 28.90625 50.78125 
Q 30.078125 50.78125 31.9375 50.59375 
L 31.9375 43.265625 
L 30.375 43.265625 
Q 24.03125 43.265625 19.828125 38.53125 
Q 15.625 33.796875 15.328125 26.078125 
z
" id="FranklinGothic-Book-114"/>
      </defs>
      <use xlink:href="#FranklinGothic-Book-89"/>
      <use x="45.025391" xlink:href="#FranklinGothic-Book-101"/>
      <use x="97.076172" xlink:href="#FranklinGothic-Book-97"/>
      <use x="149.957031" xlink:href="#FranklinGothic-Book-114"/>
     </g>
    </g>
   </g>
   <g id="matplotlib.axis_2">
    <g id="ytick_1">
     <g id="line2d_12">
      <path clip-path="url(#pb38123de91)" d="M 144 571.143386 
L 1036.8 571.143386 
" style="fill:none;stroke:#d3d3d3;stroke-linecap:round;stroke-opacity:0.5;"/>
     </g>
     <g id="text_11">
      <!-- −0.4 -->
      <g style="fill:#696969;" transform="translate(104.361719 576.142605)scale(0.15 -0.15)">
       <defs>
        <path d="M 6 36.765625 
L 52.6875 36.765625 
L 52.6875 30.03125 
L 6 30.03125 
z
" id="FranklinGothic-Book-8722"/>
        <path d="M 17.96875 10.9375 
L 17.96875 0 
L 7.078125 0 
L 7.078125 10.9375 
z
" id="FranklinGothic-Book-46"/>
       </defs>
       <use xlink:href="#FranklinGothic-Book-8722"/>
       <use x="58.642578" xlink:href="#FranklinGothic-Book-48"/>
       <use x="117.285156" xlink:href="#FranklinGothic-Book-46"/>
       <use x="142.285156" xlink:href="#FranklinGothic-Book-52"/>
      </g>
     </g>
    </g>
    <g id="ytick_2">
     <g id="line2d_13">
      <path clip-path="url(#pb38123de91)" d="M 144 516.478148 
L 1036.8 516.478148 
" style="fill:none;stroke:#d3d3d3;stroke-linecap:round;stroke-opacity:0.5;"/>
     </g>
     <g id="text_12">
      <!-- −0.2 -->
      <g style="fill:#696969;" transform="translate(104.361719 521.477367)scale(0.15 -0.15)">
       <use xlink:href="#FranklinGothic-Book-8722"/>
       <use x="58.642578" xlink:href="#FranklinGothic-Book-48"/>
       <use x="117.285156" xlink:href="#FranklinGothic-Book-46"/>
       <use x="142.285156" xlink:href="#FranklinGothic-Book-50"/>
      </g>
     </g>
    </g>
    <g id="ytick_3">
     <g id="line2d_14">
      <path clip-path="url(#pb38123de91)" d="M 144 461.81291 
L 1036.8 461.81291 
" style="fill:none;stroke:#d3d3d3;stroke-linecap:round;stroke-opacity:0.5;"/>
     </g>
     <g id="text_13">
      <!-- 0.0 -->
      <g style="fill:#696969;" transform="translate(113.157813 466.812128)scale(0.15 -0.15)">
       <use xlink:href="#FranklinGothic-Book-48"/>
       <use x="58.642578" xlink:href="#FranklinGothic-Book-46"/>
       <use x="83.642578" xlink:href="#FranklinGothic-Book-48"/>
      </g>
     </g>
    </g>
    <g id="ytick_4">
     <g id="line2d_15">
      <path clip-path="url(#pb38123de91)" d="M 144 407.147671 
L 1036.8 407.147671 
" style="fill:none;stroke:#d3d3d3;stroke-linecap:round;stroke-opacity:0.5;"/>
     </g>
     <g id="text_14">
      <!-- 0.2 -->
      <g style="fill:#696969;" transform="translate(113.157813 412.14689)scale(0.15 -0.15)">
       <use xlink:href="#FranklinGothic-Book-48"/>
       <use x="58.642578" xlink:href="#FranklinGothic-Book-46"/>
       <use x="83.642578" xlink:href="#FranklinGothic-Book-50"/>
      </g>
     </g>
    </g>
    <g id="ytick_5">
     <g id="line2d_16">
      <path clip-path="url(#pb38123de91)" d="M 144 352.482433 
L 1036.8 352.482433 
" style="fill:none;stroke:#d3d3d3;stroke-linecap:round;stroke-opacity:0.5;"/>
     </g>
     <g id="text_15">
      <!-- 0.4 -->
      <g style="fill:#696969;" transform="translate(113.157813 357.481652)scale(0.15 -0.15)">
       <use xlink:href="#FranklinGothic-Book-48"/>
       <use x="58.642578" xlink:href="#FranklinGothic-Book-46"/>
       <use x="83.642578" xlink:href="#FranklinGothic-Book-52"/>
      </g>
     </g>
    </g>
    <g id="ytick_6">
     <g id="line2d_17">
      <path clip-path="url(#pb38123de91)" d="M 144 297.817195 
L 1036.8 297.817195 
" style="fill:none;stroke:#d3d3d3;stroke-linecap:round;stroke-opacity:0.5;"/>
     </g>
     <g id="text_16">
      <!-- 0.6 -->
      <g style="fill:#696969;" transform="translate(113.157813 302.816413)scale(0.15 -0.15)">
       <use xlink:href="#FranklinGothic-Book-48"/>
       <use x="58.642578" xlink:href="#FranklinGothic-Book-46"/>
       <use x="83.642578" xlink:href="#FranklinGothic-Book-54"/>
      </g>
     </g>
    </g>
    <g id="ytick_7">
     <g id="line2d_18">
      <path clip-path="url(#pb38123de91)" d="M 144 243.151956 
L 1036.8 243.151956 
" style="fill:none;stroke:#d3d3d3;stroke-linecap:round;stroke-opacity:0.5;"/>
     </g>
     <g id="text_17">
      <!-- 0.8 -->
      <g style="fill:#696969;" transform="translate(113.157813 248.151175)scale(0.15 -0.15)">
       <use xlink:href="#FranklinGothic-Book-48"/>
       <use x="58.642578" xlink:href="#FranklinGothic-Book-46"/>
       <use x="83.642578" xlink:href="#FranklinGothic-Book-56"/>
      </g>
     </g>
    </g>
    <g id="ytick_8">
     <g id="line2d_19">
      <path clip-path="url(#pb38123de91)" d="M 144 188.486718 
L 1036.8 188.486718 
" style="fill:none;stroke:#d3d3d3;stroke-linecap:round;stroke-opacity:0.5;"/>
     </g>
     <g id="text_18">
      <!-- 1.0 -->
      <g style="fill:#696969;" transform="translate(113.251563 193.485937)scale(0.15 -0.15)">
       <use xlink:href="#FranklinGothic-Book-49"/>
       <use x="58.017578" xlink:href="#FranklinGothic-Book-46"/>
       <use x="83.017578" xlink:href="#FranklinGothic-Book-48"/>
      </g>
     </g>
    </g>
    <g id="ytick_9">
     <g id="line2d_20">
      <path clip-path="url(#pb38123de91)" d="M 144 133.82148 
L 1036.8 133.82148 
" style="fill:none;stroke:#d3d3d3;stroke-linecap:round;stroke-opacity:0.5;"/>
     </g>
     <g id="text_19">
      <!-- 1.2 -->
      <g style="fill:#696969;" transform="translate(113.251563 138.820698)scale(0.15 -0.15)">
       <use xlink:href="#FranklinGothic-Book-49"/>
       <use x="58.017578" xlink:href="#FranklinGothic-Book-46"/>
       <use x="83.017578" xlink:href="#FranklinGothic-Book-50"/>
      </g>
     </g>
    </g>
    <g id="ytick_10">
     <g id="line2d_21">
      <path clip-path="url(#pb38123de91)" d="M 144 79.156241 
L 1036.8 79.156241 
" style="fill:none;stroke:#d3d3d3;stroke-linecap:round;stroke-opacity:0.5;"/>
     </g>
     <g id="text_20">
      <!-- 1.4 -->
      <g style="fill:#696969;" transform="translate(113.251563 84.15546)scale(0.15 -0.15)">
       <use xlink:href="#FranklinGothic-Book-49"/>
       <use x="58.017578" xlink:href="#FranklinGothic-Book-46"/>
       <use x="83.017578" xlink:href="#FranklinGothic-Book-52"/>
      </g>
     </g>
    </g>
    <g id="text_21">
     <!-- $\!^\circ\!$C -->
     <g style="fill:#696969;" transform="translate(91.030469 337.34)rotate(-90)scale(0.2 -0.2)">
      <defs>
       <path d="M 31.296875 40.671875 
Q 27.390625 40.671875 24.703125 37.953125 
Q 22.015625 35.25 22.015625 31.34375 
Q 22.015625 27.484375 24.703125 24.828125 
Q 27.390625 22.171875 31.296875 22.171875 
Q 35.203125 22.171875 37.890625 24.828125 
Q 40.578125 27.484375 40.578125 31.34375 
Q 40.578125 35.203125 37.859375 37.9375 
Q 35.15625 40.671875 31.296875 40.671875 
z
M 31.296875 46.96875 
Q 34.421875 46.96875 37.296875 45.765625 
Q 40.1875 44.578125 42.28125 42.328125 
Q 44.53125 40.140625 45.65625 37.34375 
Q 46.78125 34.5625 46.78125 31.34375 
Q 46.78125 24.90625 42.265625 20.4375 
Q 37.75 15.96875 31.203125 15.96875 
Q 24.609375 15.96875 20.21875 20.359375 
Q 15.828125 24.75 15.828125 31.34375 
Q 15.828125 37.890625 20.3125 42.421875 
Q 24.8125 46.96875 31.296875 46.96875 
z
" id="DejaVuSans-8728"/>
       <path d="M 48.296875 22.40625 
L 55.90625 20.703125 
Q 50.4375 -1.3125 31.203125 -1.3125 
Q 18.5625 -1.3125 11.359375 8.890625 
Q 4.15625 19.09375 4.15625 33.984375 
Q 4.15625 49.359375 11.671875 58.6875 
Q 19.1875 68.015625 31.84375 68.015625 
Q 50.59375 68.015625 55.90625 46.578125 
L 48.046875 45.015625 
Q 43.75 60.9375 31.78125 60.9375 
Q 22.953125 60.9375 18.09375 53.53125 
Q 13.234375 46.140625 13.234375 32.765625 
Q 13.234375 20.515625 18.203125 13.109375 
Q 23.1875 5.71875 31.390625 5.71875 
Q 44.140625 5.71875 48.296875 22.40625 
z
" id="FranklinGothic-Book-67"/>
      </defs>
      <use transform="translate(-1.64095 39.121875)scale(0.7)" xlink:href="#DejaVuSans-8728"/>
      <use transform="translate(42.313804 0.840625)" xlink:href="#FranklinGothic-Book-67"/>
     </g>
    </g>
   </g>
   <g id="text_22">
    <!-- Compared to 1850-1900 average -->
    <g style="fill:#696969;" transform="translate(144 75.2652)scale(0.3 -0.3)">
     <defs>
      <path d="M 25.34375 -1.3125 
Q 15.1875 -1.3125 9.5 6.203125 
Q 3.8125 13.71875 3.8125 24.859375 
Q 3.8125 36.625 10.203125 43.65625 
Q 16.609375 50.6875 26.125 50.6875 
Q 36.328125 50.6875 42.203125 43.28125 
Q 48.09375 35.890625 48.09375 24.8125 
Q 48.09375 13.28125 41.75 5.984375 
Q 35.40625 -1.3125 25.34375 -1.3125 
z
M 25.921875 4.984375 
Q 31.78125 4.984375 35.734375 9.8125 
Q 39.703125 14.65625 39.703125 24.859375 
Q 39.703125 35.109375 35.546875 39.71875 
Q 31.390625 44.34375 25.828125 44.34375 
Q 20.125 44.34375 16.15625 39.671875 
Q 12.203125 35.015625 12.203125 24.90625 
Q 12.203125 14.203125 16.15625 9.59375 
Q 20.125 4.984375 25.921875 4.984375 
z
" id="FranklinGothic-Book-111"/>
      <path d="M 73.734375 0 
L 66.265625 0 
L 66.265625 30.671875 
Q 66.265625 35.40625 65.59375 37.765625 
Q 64.9375 40.140625 62.390625 42.109375 
Q 59.859375 44.09375 56.6875 44.09375 
Q 52.296875 44.09375 48.21875 40.0625 
Q 44.140625 36.03125 44.140625 27.78125 
L 44.140625 0 
L 36.71875 0 
L 36.71875 32.46875 
Q 36.71875 38.96875 33.609375 41.65625 
Q 30.515625 44.34375 27.09375 44.34375 
Q 22.21875 44.34375 18.59375 40.140625 
Q 14.984375 35.9375 14.984375 29.5 
L 14.984375 0 
L 7.671875 0 
L 7.671875 49.3125 
L 14.265625 49.3125 
L 14.265625 39.84375 
Q 19.78125 50.6875 29.4375 50.6875 
Q 34.765625 50.6875 38.46875 47.21875 
Q 42.1875 43.75 43.265625 38.875 
Q 48.34375 50.6875 58.84375 50.6875 
Q 63.875 50.6875 67.65625 47.796875 
Q 71.4375 44.921875 72.578125 41.1875 
Q 73.734375 37.453125 73.734375 30.671875 
z
" id="FranklinGothic-Book-109"/>
      <path d="M 15.328125 -16.65625 
L 7.671875 -16.65625 
L 7.671875 49.3125 
L 14.546875 49.3125 
L 14.546875 39.75 
Q 19.78125 50.6875 30.125 50.6875 
Q 38.875 50.6875 44.234375 43.375 
Q 49.609375 36.078125 49.609375 24.90625 
Q 49.609375 12.84375 44.09375 5.765625 
Q 38.578125 -1.3125 29.9375 -1.3125 
Q 20.65625 -1.3125 15.328125 7.515625 
z
M 15.328125 31.78125 
L 15.328125 17.921875 
Q 16.0625 12.3125 20.0625 8.640625 
Q 24.078125 4.984375 28.421875 4.984375 
Q 33.453125 4.984375 37.328125 9.375 
Q 41.21875 13.765625 41.21875 24.5625 
Q 41.21875 33.890625 37.703125 38.9375 
Q 34.1875 44 28.375 44 
Q 23.78125 44 20.140625 40.421875 
Q 16.5 36.859375 15.328125 31.78125 
z
" id="FranklinGothic-Book-112"/>
      <path d="M 46.1875 66.65625 
L 46.1875 0 
L 39.203125 0 
L 39.203125 8.453125 
Q 34.03125 -1.3125 23.640625 -1.3125 
Q 14.984375 -1.3125 9.421875 5.9375 
Q 3.859375 13.1875 3.859375 24.265625 
Q 3.859375 35.59375 9.375 43.140625 
Q 14.890625 50.6875 24.03125 50.6875 
Q 32.90625 50.6875 38.53125 42.578125 
L 38.53125 66.65625 
z
M 38.53125 30.28125 
Q 38.53125 36.765625 34.5625 40.671875 
Q 30.609375 44.578125 25.34375 44.578125 
Q 19.625 44.578125 15.9375 39.5 
Q 12.25 34.421875 12.25 25.25 
Q 12.25 15.328125 15.640625 10.15625 
Q 19.046875 4.984375 24.953125 4.984375 
Q 30.328125 4.984375 34.421875 9.46875 
Q 38.53125 13.96875 38.53125 20.015625 
z
" id="FranklinGothic-Book-100"/>
      <path id="FranklinGothic-Book-32"/>
      <path d="M 30.03125 5.28125 
L 30.03125 -0.78125 
Q 25.984375 -1.3125 23 -1.3125 
Q 8.6875 -1.3125 8.6875 13.625 
L 8.6875 43.3125 
L -0.046875 43.3125 
L -0.046875 49.3125 
L 8.6875 49.3125 
L 9.03125 61.71875 
L 16.15625 62.40625 
L 16.15625 49.3125 
L 27.203125 49.3125 
L 27.203125 43.3125 
L 16.15625 43.3125 
L 16.15625 12.359375 
Q 16.15625 4.734375 24.078125 4.734375 
Q 26.703125 4.734375 30.03125 5.28125 
z
" id="FranklinGothic-Book-116"/>
      <path d="M 48.875 66.65625 
L 48.1875 59.46875 
L 15.4375 59.46875 
L 14.015625 37.84375 
Q 21.4375 45.125 30.328125 45.125 
Q 39.703125 45.125 46.515625 38.625 
Q 53.328125 32.125 53.328125 22.015625 
Q 53.328125 11.765625 45.921875 5.21875 
Q 38.53125 -1.3125 27.828125 -1.3125 
Q 19.4375 -1.3125 12.890625 3.078125 
Q 6.34375 7.46875 4.296875 14.453125 
L 11.421875 16.890625 
Q 15.828125 5.28125 27.9375 5.28125 
Q 35.890625 5.28125 40.578125 9.984375 
Q 45.265625 14.703125 45.265625 22.015625 
Q 45.265625 29.6875 40.625 33.984375 
Q 35.984375 38.28125 29.5 38.28125 
Q 20.015625 38.28125 13.8125 29.203125 
L 7.234375 30.609375 
L 9.375 66.65625 
z
" id="FranklinGothic-Book-53"/>
      <path d="M 23.53125 27.984375 
L 23.53125 22.015625 
L 1.46875 22.015625 
L 1.46875 27.984375 
z
" id="FranklinGothic-Book-45"/>
      <path d="M 43.796875 49.3125 
L 26.765625 0 
L 18.796875 0 
L 1.171875 49.3125 
L 9.671875 49.3125 
L 23.390625 9.234375 
L 36.96875 49.3125 
z
" id="FranklinGothic-Book-118"/>
      <path d="M 47.953125 57.03125 
L 47.953125 50.921875 
Q 42.671875 50.921875 40.890625 49.703125 
Q 39.109375 48.484375 38.53125 45.3125 
Q 43.265625 39.84375 43.265625 33.40625 
Q 43.265625 26.65625 38.109375 21.828125 
Q 32.953125 17 24.265625 17 
Q 22.3125 17 20.90625 17.28125 
Q 18.21875 17.828125 17.53125 17.828125 
Q 16.21875 17.828125 14.359375 16.53125 
Q 12.5 15.234375 12.5 13.1875 
Q 12.5 10.25 15.1875 9.375 
Q 17.875 8.5 27.828125 8.25 
Q 36.28125 8.015625 40.3125 7.109375 
Q 44.34375 6.203125 47.125 3.09375 
Q 49.90625 0 49.90625 -4.5 
Q 49.90625 -18.609375 25.09375 -18.609375 
Q 13.328125 -18.609375 7.9375 -15.0625 
Q 2.546875 -11.53125 2.546875 -5.609375 
Q 2.546875 1.5625 10.0625 4.25 
Q 5.21875 7.421875 5.21875 12.203125 
Q 5.21875 17.921875 12.0625 20.953125 
Q 5.671875 26.125 5.671875 33.984375 
Q 5.671875 41.3125 11.140625 46 
Q 16.609375 50.6875 24.46875 50.6875 
Q 30.03125 50.6875 34.578125 48.578125 
Q 35.296875 53.421875 37.953125 55.265625 
Q 40.625 57.125 46.046875 57.125 
Q 46.578125 57.125 47.953125 57.03125 
z
M 24.515625 22.859375 
Q 29.390625 22.859375 32.46875 25.859375 
Q 35.546875 28.859375 35.546875 33.640625 
Q 35.546875 38.53125 32.34375 41.625 
Q 29.15625 44.734375 24.609375 44.734375 
Q 20.265625 44.734375 16.890625 41.828125 
Q 13.53125 38.921875 13.53125 33.546875 
Q 13.53125 28.765625 16.546875 25.8125 
Q 19.578125 22.859375 24.515625 22.859375 
z
M 15.328125 2 
Q 9.96875 -0.34375 9.96875 -4.78125 
Q 9.96875 -8.546875 14.375 -10.625 
Q 18.796875 -12.703125 25.640625 -12.703125 
Q 31.984375 -12.703125 37.25 -10.90625 
Q 42.53125 -9.125 42.53125 -4.890625 
Q 42.53125 -2.59375 40.96875 -1.125 
Q 39.40625 0.34375 36.6875 0.734375 
Q 33.984375 1.125 27.25 1.3125 
Q 19.1875 1.515625 15.328125 2 
z
" id="FranklinGothic-Book-103"/>
     </defs>
     <use xlink:href="#FranklinGothic-Book-67"/>
     <use x="57.910156" xlink:href="#FranklinGothic-Book-111"/>
     <use x="109.863281" xlink:href="#FranklinGothic-Book-109"/>
     <use x="190.384766" xlink:href="#FranklinGothic-Book-112"/>
     <use x="243.802734" xlink:href="#FranklinGothic-Book-97"/>
     <use x="296.683594" xlink:href="#FranklinGothic-Book-114"/>
     <use x="329.642578" xlink:href="#FranklinGothic-Book-101"/>
     <use x="381.693359" xlink:href="#FranklinGothic-Book-100"/>
     <use x="435.550781" xlink:href="#FranklinGothic-Book-32"/>
     <use x="460.550781" xlink:href="#FranklinGothic-Book-116"/>
     <use x="489.8125" xlink:href="#FranklinGothic-Book-111"/>
     <use x="541.765625" xlink:href="#FranklinGothic-Book-32"/>
     <use x="566.765625" xlink:href="#FranklinGothic-Book-49"/>
     <use x="624.783203" xlink:href="#FranklinGothic-Book-56"/>
     <use x="683.425781" xlink:href="#FranklinGothic-Book-53"/>
     <use x="742.068359" xlink:href="#FranklinGothic-Book-48"/>
     <use x="800.710938" xlink:href="#FranklinGothic-Book-45"/>
     <use x="825.710938" xlink:href="#FranklinGothic-Book-49"/>
     <use x="882.978516" xlink:href="#FranklinGothic-Book-57"/>
     <use x="941.621094" xlink:href="#FranklinGothic-Book-48"/>
     <use x="1000.263672" xlink:href="#FranklinGothic-Book-48"/>
     <use x="1058.90625" xlink:href="#FranklinGothic-Book-32"/>
     <use x="1083.90625" xlink:href="#FranklinGothic-Book-97"/>
     <use x="1134.537109" xlink:href="#FranklinGothic-Book-118"/>
     <use x="1178.056641" xlink:href="#FranklinGothic-Book-101"/>
     <use x="1230.107422" xlink:href="#FranklinGothic-Book-114"/>
     <use x="1263.066406" xlink:href="#FranklinGothic-Book-97"/>
     <use x="1315.947266" xlink:href="#FranklinGothic-Book-103"/>
     <use x="1365.068359" xlink:href="#FranklinGothic-Book-101"/>
    </g>
   </g>
   <g id="text_23">
    <!-- Global mean temperature -->
    <g style="fill:#696969;" transform="translate(144 42.76)scale(0.4 -0.4)">
     <defs>
      <path d="M 57.71875 33.59375 
L 57.71875 -0.875 
L 52.59375 -0.875 
L 50.296875 7.46875 
Q 44.140625 -1.3125 31.984375 -1.3125 
Q 18.796875 -1.3125 11.46875 8.59375 
Q 4.15625 18.5 4.15625 32.671875 
Q 4.15625 47.796875 11.90625 57.90625 
Q 19.671875 68.015625 33.015625 68.015625 
Q 51.421875 68.015625 57.03125 48.6875 
L 49.125 46.78125 
Q 47.40625 54.203125 42.71875 57.5625 
Q 38.03125 60.9375 32.46875 60.9375 
Q 22.609375 60.9375 17.921875 52.96875 
Q 13.234375 45.015625 13.234375 33.015625 
Q 13.234375 20.0625 18.484375 12.765625 
Q 23.734375 5.46875 32.765625 5.46875 
Q 39.796875 5.46875 44.5 10.125 
Q 49.21875 14.796875 49.21875 23 
Q 49.21875 24.515625 49.125 26.609375 
L 32.625 26.609375 
L 32.625 33.59375 
z
" id="FranklinGothic-Book-71"/>
      <path d="M 15.328125 0 
L 7.671875 0 
L 7.671875 66.65625 
L 15.328125 66.65625 
z
" id="FranklinGothic-Book-108"/>
      <path d="M 11.375 0 
L 7.671875 0 
L 7.671875 66.65625 
L 15.328125 66.65625 
L 15.328125 41.109375 
Q 20.609375 50.6875 29.890625 50.6875 
Q 38.375 50.6875 44.109375 44 
Q 49.859375 37.3125 49.859375 24.5625 
Q 49.859375 13.578125 44.21875 6.125 
Q 38.578125 -1.3125 29.546875 -1.3125 
Q 19.484375 -1.3125 14.109375 8.15625 
z
M 15.328125 19.34375 
Q 15.875 11.765625 20 8.34375 
Q 24.125 4.9375 28.71875 4.9375 
Q 34.578125 4.9375 38.15625 10.015625 
Q 41.75 15.09375 41.75 23.921875 
Q 41.75 33.453125 38.28125 38.890625 
Q 34.8125 44.34375 28.65625 44.34375 
Q 23.828125 44.34375 19.9375 40.453125 
Q 16.0625 36.578125 15.328125 30.421875 
z
" id="FranklinGothic-Book-98"/>
      <path d="M 46.53125 0 
L 39.359375 0 
L 39.359375 31.6875 
Q 39.359375 38.53125 36.375 41.3125 
Q 33.40625 44.09375 29.15625 44.09375 
Q 23.296875 44.09375 19.3125 39.40625 
Q 15.328125 34.71875 15.328125 27.046875 
L 15.328125 0 
L 7.671875 0 
L 7.671875 49.3125 
L 14.796875 49.3125 
L 14.796875 40.234375 
Q 20.796875 50.6875 30.375 50.6875 
Q 35.890625 50.6875 39.765625 47.828125 
Q 43.65625 44.96875 45.09375 41.40625 
Q 46.53125 37.84375 46.53125 28.515625 
z
" id="FranklinGothic-Book-110"/>
      <path d="M 46.484375 0 
L 39.59375 0 
L 39.59375 9.421875 
Q 34.328125 -1.3125 23.875 -1.3125 
Q 16.3125 -1.3125 11.984375 3.65625 
Q 7.671875 8.640625 7.671875 17.828125 
L 7.671875 49.3125 
L 15.328125 49.3125 
L 15.328125 17.828125 
Q 15.328125 10.5 18.375 7.734375 
Q 21.4375 4.984375 25.09375 4.984375 
Q 28.8125 4.984375 31.8125 7.078125 
Q 34.8125 9.1875 36.8125 13.0625 
Q 38.8125 16.9375 38.8125 21.53125 
L 38.8125 49.3125 
L 46.484375 49.3125 
z
" id="FranklinGothic-Book-117"/>
     </defs>
     <use xlink:href="#FranklinGothic-Book-71"/>
     <use x="64.697266" xlink:href="#FranklinGothic-Book-108"/>
     <use x="87.695312" xlink:href="#FranklinGothic-Book-111"/>
     <use x="139.648438" xlink:href="#FranklinGothic-Book-98"/>
     <use x="193.359375" xlink:href="#FranklinGothic-Book-97"/>
     <use x="246.240234" xlink:href="#FranklinGothic-Book-108"/>
     <use x="269.238281" xlink:href="#FranklinGothic-Book-32"/>
     <use x="294.238281" xlink:href="#FranklinGothic-Book-109"/>
     <use x="375.634766" xlink:href="#FranklinGothic-Book-101"/>
     <use x="427.685547" xlink:href="#FranklinGothic-Book-97"/>
     <use x="480.566406" xlink:href="#FranklinGothic-Book-110"/>
     <use x="534.765625" xlink:href="#FranklinGothic-Book-32"/>
     <use x="559.765625" xlink:href="#FranklinGothic-Book-116"/>
     <use x="588.777344" xlink:href="#FranklinGothic-Book-101"/>
     <use x="640.828125" xlink:href="#FranklinGothic-Book-109"/>
     <use x="721.349609" xlink:href="#FranklinGothic-Book-112"/>
     <use x="774.767578" xlink:href="#FranklinGothic-Book-101"/>
     <use x="826.818359" xlink:href="#FranklinGothic-Book-114"/>
     <use x="859.777344" xlink:href="#FranklinGothic-Book-97"/>
     <use x="912.658203" xlink:href="#FranklinGothic-Book-116"/>
     <use x="943.419922" xlink:href="#FranklinGothic-Book-117"/>
     <use x="997.570312" xlink:href="#FranklinGothic-Book-114"/>
     <use x="1030.529297" xlink:href="#FranklinGothic-Book-101"/>
    </g>
   </g>
   <g id="legend_1">
    <g id="line2d_22"/>
    <g id="text_24">
     <!-- HadCRUT5 (1850-2022) -->
     <g style="fill:#696969;" transform="translate(185.856 129.7184)scale(0.2 -0.2)">
      <defs>
       <path d="M 55.953125 0 
L 47.609375 0 
L 47.609375 31.734375 
L 16.703125 31.734375 
L 16.703125 0 
L 8.34375 0 
L 8.34375 66.65625 
L 16.703125 66.65625 
L 16.703125 39.0625 
L 47.609375 39.0625 
L 47.609375 66.65625 
L 55.953125 66.65625 
z
" id="FranklinGothic-Book-72"/>
       <path d="M 56.296875 0 
L 47.5625 0 
L 35.25 28.859375 
L 16.15625 28.859375 
L 16.15625 0 
L 8.34375 0 
L 8.34375 66.65625 
L 34.625 66.65625 
Q 45.3125 66.65625 50.453125 60.8125 
Q 55.609375 54.984375 55.609375 48.046875 
Q 55.609375 42.71875 52.734375 37.828125 
Q 49.859375 32.953125 43.21875 30.859375 
z
M 16.15625 35.640625 
L 33.59375 35.640625 
Q 40.484375 35.640625 43.875 39.28125 
Q 47.265625 42.921875 47.265625 48.1875 
Q 47.265625 53.46875 43.671875 56.390625 
Q 40.09375 59.328125 34.625 59.328125 
L 16.15625 59.328125 
z
" id="FranklinGothic-Book-82"/>
       <path d="M 46.34375 66.65625 
L 53.265625 66.65625 
L 53.265625 23.140625 
Q 53.265625 10.0625 46.84375 4.375 
Q 40.4375 -1.3125 30.03125 -1.3125 
Q 18.453125 -1.3125 12.890625 4.546875 
Q 7.328125 10.40625 7.328125 23.140625 
L 7.328125 66.65625 
L 15.671875 66.65625 
L 15.671875 23.140625 
Q 15.671875 15.375 17.46875 12.203125 
Q 19.28125 9.03125 22.9375 7.515625 
Q 26.609375 6 30.609375 6 
Q 38.328125 6 42.328125 10.046875 
Q 46.34375 14.109375 46.34375 23.140625 
z
" id="FranklinGothic-Book-85"/>
       <path d="M 28.421875 0 
L 20.125 0 
L 20.125 59.328125 
L 1.03125 59.328125 
L 1.03125 66.65625 
L 47.5625 66.65625 
L 47.5625 59.328125 
L 28.421875 59.328125 
z
" id="FranklinGothic-Book-84"/>
       <path d="M 24.703125 -16.65625 
L 19.578125 -16.65625 
Q 5.21875 2.203125 5.21875 25.09375 
Q 5.21875 46.96875 19.578125 66.65625 
L 24.703125 66.65625 
Q 12.359375 48.25 12.359375 25 
Q 12.359375 2.828125 24.703125 -16.65625 
z
" id="FranklinGothic-Book-40"/>
       <path d="M 4.640625 66.65625 
L 9.71875 66.65625 
Q 24.125 47.796875 24.125 24.90625 
Q 24.125 3.03125 9.71875 -16.65625 
L 4.640625 -16.65625 
Q 17 1.765625 17 25 
Q 17 47.171875 4.640625 66.65625 
z
" id="FranklinGothic-Book-41"/>
      </defs>
      <use xlink:href="#FranklinGothic-Book-72"/>
      <use x="64.257812" xlink:href="#FranklinGothic-Book-97"/>
      <use x="117.138672" xlink:href="#FranklinGothic-Book-100"/>
      <use x="170.996094" xlink:href="#FranklinGothic-Book-67"/>
      <use x="228.90625" xlink:href="#FranklinGothic-Book-82"/>
      <use x="289.310547" xlink:href="#FranklinGothic-Book-85"/>
      <use x="349.90625" xlink:href="#FranklinGothic-Book-84"/>
      <use x="398.441406" xlink:href="#FranklinGothic-Book-53"/>
      <use x="457.083984" xlink:href="#FranklinGothic-Book-32"/>
      <use x="482.083984" xlink:href="#FranklinGothic-Book-40"/>
      <use x="511.429688" xlink:href="#FranklinGothic-Book-49"/>
      <use x="569.447266" xlink:href="#FranklinGothic-Book-56"/>
      <use x="628.089844" xlink:href="#FranklinGothic-Book-53"/>
      <use x="686.732422" xlink:href="#FranklinGothic-Book-48"/>
      <use x="745.375" xlink:href="#FranklinGothic-Book-45"/>
      <use x="770.375" xlink:href="#FranklinGothic-Book-50"/>
      <use x="829.017578" xlink:href="#FranklinGothic-Book-48"/>
      <use x="887.660156" xlink:href="#FranklinGothic-Book-50"/>
      <use x="946.302734" xlink:href="#FranklinGothic-Book-50"/>
      <use x="1004.945312" xlink:href="#FranklinGothic-Book-41"/>
     </g>
    </g>
    <g id="line2d_23"/>
    <g id="text_25">
     <!-- NOAAGlobalTemp (1880-2022) -->
     <g style="fill:#e69f00;" transform="translate(185.856 157.04965)scale(0.2 -0.2)">
      <defs>
       <path d="M 57.421875 0 
L 49.3125 0 
L 14.84375 58.109375 
L 14.9375 53.71875 
Q 15.09375 51.21875 15.09375 49.515625 
L 15.09375 0 
L 8.34375 0 
L 8.34375 66.65625 
L 18.796875 66.65625 
L 51.03125 12.3125 
L 50.921875 16.9375 
Q 50.828125 19.671875 50.828125 21.78125 
L 50.828125 66.65625 
L 57.421875 66.65625 
z
" id="FranklinGothic-Book-78"/>
       <path d="M 31.34375 -1.3125 
Q 18.5 -1.3125 11.328125 8.671875 
Q 4.15625 18.65625 4.15625 33.15625 
Q 4.15625 48.296875 11.671875 58.15625 
Q 19.1875 68.015625 31.59375 68.015625 
Q 43.953125 68.015625 51.421875 58.328125 
Q 58.890625 48.640625 58.890625 33.890625 
Q 58.890625 19.734375 51.640625 9.203125 
Q 44.390625 -1.3125 31.34375 -1.3125 
z
M 31.546875 5.46875 
Q 40.28125 5.46875 45.203125 13.421875 
Q 50.140625 21.390625 50.140625 33.9375 
Q 50.140625 46.828125 45.03125 54 
Q 39.9375 61.1875 31.5 61.1875 
Q 22.953125 61.1875 17.921875 53.421875 
Q 12.890625 45.65625 12.890625 33.109375 
Q 12.890625 20.84375 17.96875 13.15625 
Q 23.046875 5.46875 31.546875 5.46875 
z
" id="FranklinGothic-Book-79"/>
       <path d="M 53.21875 0 
L 44.671875 0 
L 37.9375 19.484375 
L 13.28125 19.484375 
L 7.328125 0 
L 0.34375 0 
L 21.96875 66.65625 
L 31.5 66.65625 
z
M 36.1875 25.734375 
L 25.921875 57.765625 
L 15.578125 25.734375 
z
" id="FranklinGothic-Book-65"/>
      </defs>
      <use xlink:href="#FranklinGothic-Book-78"/>
      <use x="65.722656" xlink:href="#FranklinGothic-Book-79"/>
      <use x="127.058594" xlink:href="#FranklinGothic-Book-65"/>
      <use x="180.623047" xlink:href="#FranklinGothic-Book-65"/>
      <use x="231.5625" xlink:href="#FranklinGothic-Book-71"/>
      <use x="296.259766" xlink:href="#FranklinGothic-Book-108"/>
      <use x="319.257812" xlink:href="#FranklinGothic-Book-111"/>
      <use x="371.210938" xlink:href="#FranklinGothic-Book-98"/>
      <use x="424.921875" xlink:href="#FranklinGothic-Book-97"/>
      <use x="477.802734" xlink:href="#FranklinGothic-Book-108"/>
      <use x="500.800781" xlink:href="#FranklinGothic-Book-84"/>
      <use x="542.835938" xlink:href="#FranklinGothic-Book-101"/>
      <use x="594.886719" xlink:href="#FranklinGothic-Book-109"/>
      <use x="675.408203" xlink:href="#FranklinGothic-Book-112"/>
      <use x="728.826172" xlink:href="#FranklinGothic-Book-32"/>
      <use x="753.826172" xlink:href="#FranklinGothic-Book-40"/>
      <use x="783.171875" xlink:href="#FranklinGothic-Book-49"/>
      <use x="841.189453" xlink:href="#FranklinGothic-Book-56"/>
      <use x="899.832031" xlink:href="#FranklinGothic-Book-56"/>
      <use x="958.474609" xlink:href="#FranklinGothic-Book-48"/>
      <use x="1017.117188" xlink:href="#FranklinGothic-Book-45"/>
      <use x="1042.117188" xlink:href="#FranklinGothic-Book-50"/>
      <use x="1100.759766" xlink:href="#FranklinGothic-Book-48"/>
      <use x="1159.402344" xlink:href="#FranklinGothic-Book-50"/>
      <use x="1218.044922" xlink:href="#FranklinGothic-Book-50"/>
      <use x="1276.6875" xlink:href="#FranklinGothic-Book-41"/>
     </g>
    </g>
    <g id="line2d_24"/>
    <g id="text_26">
     <!-- GISTEMP (1880-2022) -->
     <g style="fill:#56b4e9;" transform="translate(185.856 184.3809)scale(0.2 -0.2)">
      <defs>
       <path d="M 16.703125 0 
L 8.34375 0 
L 8.34375 66.65625 
L 16.703125 66.65625 
z
" id="FranklinGothic-Book-73"/>
       <path d="M 1.03125 17.71875 
L 8.546875 19.4375 
Q 13.09375 5.8125 28.21875 5.8125 
Q 36.140625 5.8125 40.140625 9.15625 
Q 44.140625 12.5 44.140625 18.109375 
Q 44.140625 22.359375 41.078125 24.953125 
Q 38.03125 27.546875 34.03125 28.515625 
L 20.703125 31.84375 
Q 15.53125 33.15625 12.234375 35.03125 
Q 8.9375 36.921875 6.640625 40.828125 
Q 4.34375 44.734375 4.34375 49.75 
Q 4.34375 58.109375 10.640625 63.0625 
Q 16.9375 68.015625 26.8125 68.015625 
Q 44.96875 68.015625 50.6875 51.5625 
L 43.109375 49.3125 
Q 41.796875 55.171875 36.90625 58.171875 
Q 32.03125 61.1875 26.515625 61.1875 
Q 21.046875 61.1875 16.765625 58.296875 
Q 12.5 55.421875 12.5 50.140625 
Q 12.5 42.78125 23.34375 40.1875 
L 35.796875 37.203125 
Q 52.875 33.109375 52.875 18.796875 
Q 52.875 10.15625 46.453125 4.421875 
Q 40.046875 -1.3125 28.375 -1.3125 
Q 7.671875 -1.3125 1.03125 17.71875 
z
" id="FranklinGothic-Book-83"/>
       <path d="M 51.46875 7.328125 
L 51.46875 0 
L 8.34375 0 
L 8.34375 66.65625 
L 50.53125 66.65625 
L 50.53125 59.328125 
L 16.703125 59.328125 
L 16.703125 38.140625 
L 43.5625 38.140625 
L 43.5625 31.34375 
L 16.703125 31.34375 
L 16.703125 7.328125 
z
" id="FranklinGothic-Book-69"/>
       <path d="M 72.703125 0 
L 64.59375 0 
L 64.59375 58.203125 
L 42.921875 0 
L 37.25 0 
L 15.4375 58.203125 
L 15.4375 0 
L 8.34375 0 
L 8.34375 66.65625 
L 20.75 66.65625 
L 40.828125 13.328125 
L 60.5 66.65625 
L 72.703125 66.65625 
z
" id="FranklinGothic-Book-77"/>
       <path d="M 16.703125 0 
L 8.34375 0 
L 8.34375 66.65625 
L 31.984375 66.65625 
Q 43.0625 66.65625 48.328125 60.625 
Q 53.609375 54.59375 53.609375 46.875 
Q 53.609375 38.28125 47.875 32.65625 
Q 42.140625 27.046875 32.859375 27.046875 
L 16.703125 27.046875 
z
M 16.703125 33.984375 
L 32.03125 33.984375 
Q 37.9375 33.984375 41.546875 37.515625 
Q 45.171875 41.0625 45.171875 46.875 
Q 45.171875 51.859375 41.9375 55.765625 
Q 38.71875 59.671875 32.625 59.671875 
L 16.703125 59.671875 
z
" id="FranklinGothic-Book-80"/>
      </defs>
      <use xlink:href="#FranklinGothic-Book-71"/>
      <use x="64.697266" xlink:href="#FranklinGothic-Book-73"/>
      <use x="89.697266" xlink:href="#FranklinGothic-Book-83"/>
      <use x="144.630859" xlink:href="#FranklinGothic-Book-84"/>
      <use x="193.166016" xlink:href="#FranklinGothic-Book-69"/>
      <use x="247.951172" xlink:href="#FranklinGothic-Book-77"/>
      <use x="328.957031" xlink:href="#FranklinGothic-Book-80"/>
      <use x="384.865234" xlink:href="#FranklinGothic-Book-32"/>
      <use x="409.865234" xlink:href="#FranklinGothic-Book-40"/>
      <use x="439.210938" xlink:href="#FranklinGothic-Book-49"/>
      <use x="497.228516" xlink:href="#FranklinGothic-Book-56"/>
      <use x="555.871094" xlink:href="#FranklinGothic-Book-56"/>
      <use x="614.513672" xlink:href="#FranklinGothic-Book-48"/>
      <use x="673.15625" xlink:href="#FranklinGothic-Book-45"/>
      <use x="698.15625" xlink:href="#FranklinGothic-Book-50"/>
      <use x="756.798828" xlink:href="#FranklinGothic-Book-48"/>
      <use x="815.441406" xlink:href="#FranklinGothic-Book-50"/>
      <use x="874.083984" xlink:href="#FranklinGothic-Book-50"/>
      <use x="932.726562" xlink:href="#FranklinGothic-Book-41"/>
     </g>
    </g>
    <g id="line2d_25"/>
    <g id="text_27">
     <!-- Berkeley Earth (1850-2022) -->
     <g style="fill:#009e73;" transform="translate(185.856 211.71215)scale(0.2 -0.2)">
      <defs>
       <path d="M 8.34375 0 
L 8.34375 66.65625 
L 34.71875 66.65625 
Q 44.671875 66.65625 49.484375 61.765625 
Q 54.296875 56.890625 54.296875 50.4375 
Q 54.296875 39.109375 42.484375 35.40625 
Q 49.515625 33.59375 52.921875 28.953125 
Q 56.34375 24.3125 56.34375 18.453125 
Q 56.34375 10.59375 51.046875 5.296875 
Q 45.75 0 34.71875 0 
z
M 16.40625 38.09375 
L 30.90625 38.09375 
Q 39.9375 38.09375 42.96875 41.53125 
Q 46 44.96875 46 49.609375 
Q 46 54.203125 42.75 57.03125 
Q 39.5 59.859375 33.0625 59.859375 
L 16.40625 59.859375 
z
M 16.40625 7.328125 
L 34.28125 7.328125 
Q 40.828125 7.328125 44.390625 10.5 
Q 47.953125 13.671875 47.953125 18.75 
Q 47.953125 22.3125 46.34375 25.359375 
Q 44.734375 28.421875 41.796875 30.078125 
Q 38.875 31.734375 33.0625 31.734375 
L 16.40625 31.734375 
z
" id="FranklinGothic-Book-66"/>
       <path d="M 48.390625 0 
L 40.4375 0 
L 26.03125 27.546875 
L 15.328125 15.234375 
L 15.328125 0 
L 7.671875 0 
L 7.671875 66.65625 
L 15.328125 66.65625 
L 15.328125 23.96875 
L 38.234375 49.3125 
L 46.4375 49.3125 
L 31 31.984375 
z
" id="FranklinGothic-Book-107"/>
       <path d="M 41.5 49.3125 
L 21.734375 -5.765625 
Q 17.4375 -17.671875 8.015625 -17.671875 
Q 5.03125 -17.671875 1.421875 -16.65625 
L 1.421875 -10.640625 
Q 4.390625 -11.328125 6.546875 -11.328125 
Q 10.203125 -11.328125 12.671875 -9.21875 
Q 15.140625 -7.125 17.578125 0.921875 
L 0.53125 49.3125 
L 8.34375 49.3125 
L 21.53125 12.25 
L 35.0625 49.3125 
z
" id="FranklinGothic-Book-121"/>
       <path d="M 46.34375 0 
L 38.671875 0 
L 38.671875 29.9375 
Q 38.671875 35.203125 38.015625 37.84375 
Q 37.359375 40.484375 34.890625 42.40625 
Q 32.421875 44.34375 29.203125 44.34375 
Q 23.296875 44.34375 19.3125 39.5 
Q 15.328125 34.671875 15.328125 26.5625 
L 15.328125 0 
L 7.671875 0 
L 7.671875 66.65625 
L 15.328125 66.65625 
L 15.328125 40.234375 
Q 20.5625 50.6875 30.28125 50.6875 
Q 34.625 50.6875 38.015625 48.96875 
Q 41.40625 47.265625 43.203125 44.484375 
Q 45.015625 41.703125 45.671875 38.984375 
Q 46.34375 36.28125 46.34375 29.9375 
z
" id="FranklinGothic-Book-104"/>
      </defs>
      <use xlink:href="#FranklinGothic-Book-66"/>
      <use x="60.449219" xlink:href="#FranklinGothic-Book-101"/>
      <use x="112.5" xlink:href="#FranklinGothic-Book-114"/>
      <use x="144.958984" xlink:href="#FranklinGothic-Book-107"/>
      <use x="192.806641" xlink:href="#FranklinGothic-Book-101"/>
      <use x="244.857422" xlink:href="#FranklinGothic-Book-108"/>
      <use x="267.855469" xlink:href="#FranklinGothic-Book-101"/>
      <use x="318.28125" xlink:href="#FranklinGothic-Book-121"/>
      <use x="359.785156" xlink:href="#FranklinGothic-Book-32"/>
      <use x="384.785156" xlink:href="#FranklinGothic-Book-69"/>
      <use x="439.570312" xlink:href="#FranklinGothic-Book-97"/>
      <use x="492.451172" xlink:href="#FranklinGothic-Book-114"/>
      <use x="528.785156" xlink:href="#FranklinGothic-Book-116"/>
      <use x="559.546875" xlink:href="#FranklinGothic-Book-104"/>
      <use x="613.550781" xlink:href="#FranklinGothic-Book-32"/>
      <use x="638.550781" xlink:href="#FranklinGothic-Book-40"/>
      <use x="667.896484" xlink:href="#FranklinGothic-Book-49"/>
      <use x="725.914062" xlink:href="#FranklinGothic-Book-56"/>
      <use x="784.556641" xlink:href="#FranklinGothic-Book-53"/>
      <use x="843.199219" xlink:href="#FranklinGothic-Book-48"/>
      <use x="901.841797" xlink:href="#FranklinGothic-Book-45"/>
      <use x="926.841797" xlink:href="#FranklinGothic-Book-50"/>
      <use x="985.484375" xlink:href="#FranklinGothic-Book-48"/>
      <use x="1044.126953" xlink:href="#FranklinGothic-Book-50"/>
      <use x="1102.769531" xlink:href="#FranklinGothic-Book-50"/>
      <use x="1161.412109" xlink:href="#FranklinGothic-Book-41"/>
     </g>
    </g>
    <g id="line2d_26"/>
    <g id="text_28">
     <!-- JRA-55 (1958-2022) -->
     <g style="fill:#d55e00;" transform="translate(185.856 239.246525)scale(0.2 -0.2)">
      <defs>
       <path d="M 29.6875 66.65625 
L 29.6875 20.359375 
Q 29.6875 8.25 24.21875 3.46875 
Q 18.75 -1.3125 9.71875 -1.3125 
Q 4.890625 -1.3125 0 0 
L 0 6.84375 
Q 4.78125 5.859375 8.6875 5.859375 
Q 14.265625 5.859375 16.890625 7.515625 
Q 19.53125 9.1875 20.4375 11.8125 
Q 21.34375 14.453125 21.34375 20.359375 
L 21.34375 66.65625 
z
" id="FranklinGothic-Book-74"/>
      </defs>
      <use xlink:href="#FranklinGothic-Book-74"/>
      <use x="37.353516" xlink:href="#FranklinGothic-Book-82"/>
      <use x="98.632812" xlink:href="#FranklinGothic-Book-65"/>
      <use x="153.947266" xlink:href="#FranklinGothic-Book-45"/>
      <use x="178.947266" xlink:href="#FranklinGothic-Book-53"/>
      <use x="237.589844" xlink:href="#FranklinGothic-Book-53"/>
      <use x="296.232422" xlink:href="#FranklinGothic-Book-32"/>
      <use x="321.232422" xlink:href="#FranklinGothic-Book-40"/>
      <use x="350.578125" xlink:href="#FranklinGothic-Book-49"/>
      <use x="407.845703" xlink:href="#FranklinGothic-Book-57"/>
      <use x="466.488281" xlink:href="#FranklinGothic-Book-53"/>
      <use x="525.130859" xlink:href="#FranklinGothic-Book-56"/>
      <use x="583.773438" xlink:href="#FranklinGothic-Book-45"/>
      <use x="608.773438" xlink:href="#FranklinGothic-Book-50"/>
      <use x="667.416016" xlink:href="#FranklinGothic-Book-48"/>
      <use x="726.058594" xlink:href="#FranklinGothic-Book-50"/>
      <use x="784.701172" xlink:href="#FranklinGothic-Book-50"/>
      <use x="843.34375" xlink:href="#FranklinGothic-Book-41"/>
     </g>
    </g>
    <g id="line2d_27"/>
    <g id="text_29">
     <!-- ERA5 (1958-2022) -->
     <g style="fill:#0072b2;" transform="translate(185.856 266.577775)scale(0.2 -0.2)">
      <use xlink:href="#FranklinGothic-Book-69"/>
      <use x="54.785156" xlink:href="#FranklinGothic-Book-82"/>
      <use x="116.064453" xlink:href="#FranklinGothic-Book-65"/>
      <use x="169.628906" xlink:href="#FranklinGothic-Book-53"/>
      <use x="228.271484" xlink:href="#FranklinGothic-Book-32"/>
      <use x="253.271484" xlink:href="#FranklinGothic-Book-40"/>
      <use x="282.617188" xlink:href="#FranklinGothic-Book-49"/>
      <use x="339.884766" xlink:href="#FranklinGothic-Book-57"/>
      <use x="398.527344" xlink:href="#FranklinGothic-Book-53"/>
      <use x="457.169922" xlink:href="#FranklinGothic-Book-56"/>
      <use x="515.8125" xlink:href="#FranklinGothic-Book-45"/>
      <use x="540.8125" xlink:href="#FranklinGothic-Book-50"/>
      <use x="599.455078" xlink:href="#FranklinGothic-Book-48"/>
      <use x="658.097656" xlink:href="#FranklinGothic-Book-50"/>
      <use x="716.740234" xlink:href="#FranklinGothic-Book-50"/>
      <use x="775.382812" xlink:href="#FranklinGothic-Book-41"/>
     </g>
    </g>
   </g>
   <g id="line2d_28">
    <path clip-path="url(#pb38123de91)" d="M 184.581818 521.605292 
L 189.300634 489.808345 
L 194.01945 482.97519 
L 198.738266 484.501261 
L 203.457082 481.403565 
L 208.175899 479.58139 
L 212.894715 512.061652 
L 217.613531 551.170075 
L 222.332347 494.705439 
L 227.051163 464.252346 
L 231.769979 506.185139 
L 236.488795 526.593495 
L 241.207611 554.04 
L 245.926427 491.288862 
L 250.645243 497.097043 
L 255.364059 468.967223 
L 260.082875 458.512496 
L 264.801691 446.782247 
L 269.520507 459.765241 
L 274.239323 461.245758 
L 278.95814 479.74083 
L 283.676956 488.373382 
L 288.395772 478.670303 
L 293.114588 470.174413 
L 297.833404 483.225739 
L 302.55222 495.365978 
L 307.271036 497.165375 
L 311.989852 392.640884 
L 316.708668 370.11425 
L 321.427484 463.614585 
L 326.1463 484.319044 
L 330.865116 452.795423 
L 335.583932 466.894499 
L 340.302748 482.200766 
L 345.021564 528.643441 
L 349.740381 519.532568 
L 354.459197 527.664022 
L 359.178013 537.002667 
L 363.896829 479.854716 
L 368.615645 445.073958 
L 373.334461 524.794097 
L 378.053277 493.224922 
L 382.772093 510.05726 
L 387.490909 504.454073 
L 392.209725 501.561371 
L 396.928541 481.221347 
L 401.647357 457.123088 
L 406.366173 452.49932 
L 411.084989 509.647271 
L 415.803805 462.339063 
L 420.522622 432.705948 
L 425.241438 453.250967 
L 429.960254 497.598141 
L 434.67907 524.862429 
L 439.397886 540.601462 
L 444.116702 490.924427 
L 448.835518 468.010581 
L 453.554334 514.658251 
L 458.27315 520.193107 
L 462.991966 537.70876 
L 467.710782 526.684604 
L 472.429598 530.260621 
L 477.148414 510.94557 
L 481.86723 502.996334 
L 486.586047 452.453765 
L 491.304863 438.149695 
L 496.023679 501.903029 
L 500.742495 543.175284 
L 505.461311 497.279261 
L 510.180127 479.672499 
L 514.898943 464.206792 
L 519.617759 449.401623 
L 524.336575 473.522659 
L 529.055391 464.366232 
L 533.774207 466.757836 
L 538.493023 455.16425 
L 543.211839 417.695785 
L 547.930655 449.834389 
L 552.649471 446.805024 
L 557.368288 496.983157 
L 562.087104 434.300351 
L 566.80592 416.898583 
L 571.524736 428.264397 
L 576.243552 480.879689 
L 580.962368 440.700739 
L 585.681184 457.738072 
L 590.4 438.969673 
L 595.118816 395.055265 
L 599.837632 393.734189 
L 604.556448 399.70181 
L 609.275264 377.175177 
L 613.99408 389.247084 
L 618.712896 386.673262 
L 623.431712 371.89087 
L 628.150529 343.328283 
L 632.869345 377.904047 
L 637.588161 417.969111 
L 642.306977 399.064049 
L 647.025793 424.825043 
L 651.744609 427.421642 
L 656.463425 444.891741 
L 661.182241 396.216901 
L 670.619873 356.356832 
L 675.338689 408.949347 
L 680.057505 424.437831 
L 684.776321 446.645584 
L 689.495137 383.848891 
L 694.213953 382.550592 
L 698.93277 387.356577 
L 703.651586 402.822284 
L 708.370402 382.254488 
L 713.089218 398.175739 
L 717.808034 386.513822 
L 722.52685 458.96804 
L 727.245666 426.373891 
L 731.964482 409.336559 
L 736.683298 401.022887 
L 741.402114 422.114558 
L 746.12093 381.27507 
L 750.839746 393.848074 
L 755.558562 426.556109 
L 760.277378 396.421896 
L 764.996195 359.226757 
L 769.715011 415.372512 
L 774.433827 397.515201 
L 779.152643 424.255613 
L 783.871459 334.285742 
L 788.590275 368.542625 
L 793.309091 347.88372 
L 798.027907 314.401261 
L 802.746723 300.826061 
L 807.465539 359.613969 
L 812.184355 310.3697 
L 816.903171 356.197392 
L 821.621987 357.290696 
L 826.340803 342.485528 
L 831.059619 304.515964 
L 835.778436 292.079622 
L 840.497252 323.238808 
L 845.216068 272.263473 
L 849.934884 275.634497 
L 854.6537 332.554676 
L 859.372516 317.111746 
L 864.091332 303.764317 
L 868.810148 260.601556 
L 873.528964 291.168535 
L 878.24778 252.56121 
L 882.966596 211.516727 
L 887.685412 277.775552 
L 892.404228 277.616111 
L 897.123044 241.104288 
L 901.84186 215.753283 
L 906.560677 220.377051 
L 911.279493 244.019767 
L 915.998309 198.602065 
L 920.717125 212.154488 
L 925.435941 208.464585 
L 930.154757 243.495892 
L 934.873573 206.004649 
L 939.592389 187.372914 
L 944.311205 217.416018 
L 949.030021 212.017825 
L 953.748837 206.824628 
L 958.467653 187.07681 
L 963.186469 147.717839 
L 967.905285 110.431591 
L 972.624101 136.71646 
L 977.342918 157.17037 
L 982.061734 119.633573 
L 986.78055 112.435983 
L 991.499366 154.687657 
L 996.218182 144.483479 
L 996.218182 144.483479 
" style="fill:none;stroke:#009e73;stroke-linecap:round;stroke-width:3;"/>
   </g>
   <g id="line2d_29">
    <path clip-path="url(#pb38123de91)" d="M 326.1463 434.821948 
L 330.865116 411.816994 
L 335.583932 419.105692 
L 340.302748 436.416351 
L 345.021564 466.026689 
L 349.740381 479.009683 
L 354.459197 474.454246 
L 359.178013 488.348328 
L 363.896829 435.505264 
L 368.615645 416.600202 
L 373.334461 484.248435 
L 378.053277 450.082661 
L 382.772093 463.293427 
L 387.490909 473.315387 
L 392.209725 469.89881 
L 396.928541 449.627117 
L 401.647357 418.194605 
L 406.366173 417.283518 
L 411.084989 463.065655 
L 420.522622 409.539276 
L 425.241438 429.810968 
L 429.960254 463.293427 
L 434.67907 489.487187 
L 439.397886 516.364262 
L 444.116702 460.104621 
L 448.835518 449.171573 
L 453.554334 494.042623 
L 458.27315 504.975671 
L 462.991966 520.464155 
L 467.710782 506.342302 
L 472.429598 508.847792 
L 477.148414 486.981697 
L 481.86723 482.654032 
L 486.586047 429.583196 
L 491.304863 427.305478 
L 496.023679 486.298381 
L 500.742495 513.858772 
L 505.461311 468.75995 
L 510.180127 463.976742 
L 514.898943 462.837883 
L 519.617759 439.605157 
L 524.336575 465.798917 
L 529.055391 460.104621 
L 533.774207 462.837883 
L 538.493023 449.171573 
L 543.211839 417.739061 
L 547.930655 447.804942 
L 552.649471 442.56619 
L 557.368288 486.753925 
L 562.087104 431.177599 
L 566.80592 413.183625 
L 571.524736 430.266512 
L 576.243552 465.798917 
L 580.962368 422.294498 
L 585.681184 441.427331 
L 590.4 427.53325 
L 595.118816 394.961879 
L 599.837632 388.128724 
L 604.556448 392.228617 
L 609.275264 352.824091 
L 613.99408 337.335607 
L 618.712896 369.223662 
L 623.431712 363.301595 
L 628.150529 331.869083 
L 632.869345 363.073823 
L 637.588161 407.944873 
L 642.306977 395.189651 
L 647.025793 416.827974 
L 651.744609 418.194605 
L 656.463425 435.505264 
L 661.182241 407.261557 
L 665.901057 385.851006 
L 670.619873 366.718172 
L 675.338689 424.572216 
L 680.057505 427.077706 
L 684.776321 440.516244 
L 689.495137 375.373502 
L 694.213953 371.956924 
L 698.93277 380.384482 
L 703.651586 395.417422 
L 708.370402 372.868012 
L 713.089218 380.15671 
L 717.808034 373.551327 
L 722.52685 443.021734 
L 727.245666 417.739061 
L 731.964482 404.300524 
L 736.683298 394.961879 
L 741.402114 411.36145 
L 746.12093 374.462414 
L 750.839746 381.751113 
L 755.558562 411.36145 
L 760.277378 386.306549 
L 764.996195 344.396533 
L 769.715011 407.944873 
L 774.433827 392.000845 
L 779.152643 415.689115 
L 783.871459 340.29664 
L 788.590275 369.906978 
L 793.309091 343.257674 
L 798.027907 317.74723 
L 802.746723 300.436571 
L 807.465539 349.863057 
L 812.184355 302.714289 
L 816.903171 345.763164 
L 821.621987 356.46844 
L 826.340803 339.385553 
L 831.059619 300.892114 
L 835.778436 282.214825 
L 840.497252 313.647337 
L 845.216068 266.72634 
L 849.934884 278.114932 
L 854.6537 328.224734 
L 859.372516 325.491472 
L 864.091332 302.714289 
L 868.810148 266.72634 
L 873.528964 299.525483 
L 878.24778 261.943132 
L 882.966596 222.538606 
L 887.685412 284.492543 
L 892.404228 280.848194 
L 897.123044 242.582527 
L 901.84186 216.84431 
L 906.560677 220.033116 
L 911.279493 243.265842 
L 915.998309 203.861316 
L 920.717125 214.111048 
L 925.435941 206.82235 
L 930.154757 240.304809 
L 934.873573 209.555612 
L 939.592389 190.422779 
L 944.311205 221.399747 
L 949.030021 211.83333 
L 953.748837 203.633544 
L 958.467653 184.272939 
L 963.186469 142.818467 
L 967.905285 110.474867 
L 972.624101 136.440856 
L 977.342918 156.257005 
L 982.061734 121.180143 
L 986.78055 109.336008 
L 991.499366 155.573689 
L 996.218182 142.818467 
L 996.218182 142.818467 
" style="fill:none;stroke:#56b4e9;stroke-linecap:round;stroke-width:3;"/>
   </g>
   <g id="line2d_30">
    <path clip-path="url(#pb38123de91)" d="M 326.1463 425.711073 
L 330.865116 415.280217 
L 335.583932 419.149354 
L 340.302748 441.910911 
L 345.021564 465.519325 
L 349.740381 461.750293 
L 354.459197 458.507209 
L 359.178013 470.623509 
L 363.896829 427.891624 
L 368.615645 415.071942 
L 373.334461 485.038823 
L 378.053277 461.144602 
L 382.772093 474.1875 
L 387.490909 481.476358 
L 392.209725 477.04401 
L 396.928541 458.597817 
L 401.647357 417.812242 
L 406.366173 419.386647 
L 411.084989 467.010979 
L 415.803805 435.340241 
L 420.522622 412.79723 
L 425.241438 434.760402 
L 429.960254 463.638749 
L 434.67907 494.605058 
L 439.397886 515.489981 
L 444.116702 467.312504 
L 448.835518 448.532193 
L 453.554334 495.889122 
L 458.27315 509.481975 
L 462.991966 513.181035 
L 467.710782 502.653626 
L 472.429598 514.129932 
L 477.148414 485.563154 
L 481.86723 480.503636 
L 486.586047 431.554149 
L 491.304863 419.333052 
L 496.023679 482.315265 
L 500.742495 502.184667 
L 505.461311 476.821408 
L 510.180127 462.074458 
L 514.898943 456.952872 
L 519.617759 437.491819 
L 524.336575 461.088251 
L 529.055391 462.356257 
L 533.774207 459.728226 
L 538.493023 442.619008 
L 543.211839 413.895523 
L 547.930655 440.778043 
L 552.649471 442.974583 
L 557.368288 483.077913 
L 562.087104 423.541706 
L 566.80592 410.398702 
L 571.524736 428.902065 
L 576.243552 464.443945 
L 580.962368 423.748226 
L 585.681184 436.579228 
L 590.4 426.091179 
L 595.118816 396.606366 
L 599.837632 399.241322 
L 604.556448 390.923527 
L 609.275264 350.435696 
L 613.99408 319.356321 
L 618.712896 363.967256 
L 623.431712 364.805729 
L 628.150529 317.627078 
L 632.869345 344.803195 
L 637.588161 396.006962 
L 642.306977 402.832691 
L 647.025793 407.863055 
L 651.744609 413.249608 
L 656.463425 434.956195 
L 661.182241 393.364581 
L 665.901057 381.705579 
L 670.619873 358.279702 
L 675.338689 420.743278 
L 680.057505 428.713721 
L 684.776321 443.562325 
L 689.495137 374.376975 
L 694.213953 359.897133 
L 698.93277 371.954918 
L 703.651586 380.356327 
L 708.370402 367.816235 
L 713.089218 364.879641 
L 717.808034 361.335307 
L 722.52685 432.589896 
L 727.245666 413.078301 
L 731.964482 396.768836 
L 736.683298 394.624273 
L 741.402114 401.506763 
L 746.12093 365.195333 
L 750.839746 378.32171 
L 755.558562 412.183636 
L 760.277378 383.948881 
L 764.996195 341.068511 
L 769.715011 410.921529 
L 774.433827 390.371614 
L 779.152643 412.672662 
L 783.871459 336.190481 
L 788.590275 362.225462 
L 793.309091 332.007224 
L 798.027907 317.473924 
L 802.746723 305.62143 
L 807.465539 341.423699 
L 812.184355 295.967731 
L 816.903171 348.208384 
L 821.621987 351.131402 
L 826.340803 329.39049 
L 831.059619 289.17619 
L 835.778436 286.62863 
L 840.497252 313.589754 
L 845.216068 271.557766 
L 849.934884 287.552336 
L 854.6537 329.546992 
L 859.372516 317.195291 
L 864.091332 299.948385 
L 868.810148 265.826389 
L 873.528964 305.655368 
L 878.24778 253.556617 
L 882.966596 216.021551 
L 887.685412 273.938391 
L 892.404228 278.044092 
L 897.123044 238.35098 
L 901.84186 224.655401 
L 906.560677 219.748285 
L 911.279493 235.105595 
L 915.998309 211.883962 
L 920.717125 220.651378 
L 925.435941 225.135521 
L 930.154757 245.936784 
L 934.873573 218.356394 
L 939.592389 196.729938 
L 944.311205 237.468751 
L 949.030021 220.717682 
L 953.748837 210.495077 
L 958.467653 192.310481 
L 963.186469 140.686247 
L 967.905285 122.414687 
L 972.624101 146.239666 
L 977.342918 169.447246 
L 982.061734 135.570036 
L 986.78055 126.300201 
L 991.499366 163.289116 
L 996.218182 159.598324 
L 996.218182 159.598324 
" style="fill:none;stroke:#e69f00;stroke-linecap:round;stroke-width:3;"/>
   </g>
   <g id="line2d_31">
    <path clip-path="url(#pb38123de91)" d="M 184.581818 483.007065 
L 189.300634 432.630597 
L 194.01945 431.550757 
L 198.738266 442.744933 
L 203.457082 448.560111 
L 208.175899 450.014527 
L 212.894715 456.411044 
L 217.613531 496.556192 
L 222.332347 475.109827 
L 227.051163 445.708065 
L 231.769979 475.492346 
L 236.488795 486.182662 
L 241.207611 515.461535 
L 245.926427 462.967999 
L 250.645243 496.066028 
L 255.364059 459.754954 
L 260.082875 462.125457 
L 264.801691 466.417414 
L 269.520507 465.050064 
L 274.239323 455.376976 
L 278.95814 458.471143 
L 283.676956 469.592746 
L 288.395772 458.512446 
L 293.114588 462.145053 
L 297.833404 470.869309 
L 302.55222 471.518394 
L 307.271036 484.770334 
L 311.989852 396.485675 
L 316.708668 371.942722 
L 321.427484 451.841196 
L 326.1463 455.175162 
L 330.865116 432.328767 
L 335.583932 449.626099 
L 340.302748 463.550514 
L 345.021564 503.413957 
L 349.740381 497.620397 
L 354.459197 483.893963 
L 359.178013 505.1812 
L 363.896829 472.54417 
L 368.615645 437.152984 
L 373.334461 507.387597 
L 378.053277 478.539868 
L 382.772093 507.579027 
L 387.490909 504.042377 
L 392.209725 501.075335 
L 396.928541 491.505551 
L 401.647357 446.476614 
L 406.366173 439.860173 
L 411.084989 501.629695 
L 415.803805 465.999309 
L 420.522622 432.939245 
L 425.241438 449.051694 
L 429.960254 488.835887 
L 434.67907 514.622057 
L 439.397886 532.179173 
L 444.116702 480.299104 
L 448.835518 456.079117 
L 453.554334 506.649489 
L 458.27315 509.304313 
L 462.991966 515.288557 
L 467.710782 513.99281 
L 472.429598 516.228862 
L 477.148414 498.86388 
L 481.86723 496.535005 
L 486.586047 440.623369 
L 491.304863 421.285951 
L 496.023679 483.704375 
L 500.742495 517.271443 
L 505.461311 484.900003 
L 510.180127 457.822641 
L 514.898943 450.459933 
L 519.617759 434.633322 
L 524.336575 461.569913 
L 529.055391 455.748732 
L 533.774207 454.144761 
L 538.493023 446.044207 
L 543.211839 402.424135 
L 547.930655 431.552399 
L 552.649471 425.363333 
L 557.368288 476.200658 
L 562.087104 417.17553 
L 566.80592 397.111278 
L 571.524736 408.608469 
L 576.243552 456.955153 
L 580.962368 416.500811 
L 585.681184 425.171367 
L 590.4 415.184495 
L 595.118816 374.097554 
L 599.837632 372.184763 
L 604.556448 380.000917 
L 609.275264 348.094729 
L 613.99408 358.428237 
L 618.712896 368.465662 
L 623.431712 367.096849 
L 628.150529 329.462277 
L 632.869345 357.072806 
L 637.588161 401.324633 
L 642.306977 393.778849 
L 647.025793 402.923174 
L 651.744609 408.154903 
L 656.463425 430.791656 
L 661.182241 385.564966 
L 665.901057 364.653179 
L 670.619873 347.631468 
L 675.338689 400.760874 
L 680.057505 422.779954 
L 684.776321 440.780035 
L 689.495137 378.507944 
L 694.213953 373.669422 
L 698.93277 381.97096 
L 703.651586 400.415613 
L 708.370402 374.315794 
L 713.089218 386.35774 
L 717.808034 378.909998 
L 722.52685 452.451377 
L 727.245666 424.714549 
L 731.964482 409.544041 
L 736.683298 400.970269 
L 741.402114 414.941607 
L 746.12093 377.423328 
L 750.839746 392.111837 
L 755.558562 425.136796 
L 760.277378 394.495387 
L 764.996195 355.20189 
L 769.715011 416.008956 
L 774.433827 399.122018 
L 779.152643 427.850632 
L 783.871459 340.67319 
L 788.590275 367.413443 
L 793.309091 344.016077 
L 798.027907 315.258352 
L 802.746723 300.515147 
L 807.465539 359.48492 
L 812.184355 307.669027 
L 816.903171 355.729039 
L 821.621987 355.257532 
L 826.340803 342.696227 
L 831.059619 302.424504 
L 835.778436 291.730526 
L 840.497252 319.856193 
L 845.216068 270.298818 
L 849.934884 276.220686 
L 854.6537 334.712419 
L 859.372516 323.571187 
L 864.091332 305.014714 
L 868.810148 265.842593 
L 873.528964 293.22352 
L 878.24778 253.422006 
L 882.966596 211.054269 
L 887.685412 280.159745 
L 892.404228 278.355839 
L 897.123044 235.116847 
L 901.84186 220.306357 
L 906.560677 220.114021 
L 911.279493 241.105324 
L 915.998309 202.97855 
L 920.717125 212.356337 
L 925.435941 207.122514 
L 930.154757 241.575685 
L 934.873573 205.733929 
L 939.592389 182.886651 
L 944.311205 221.883112 
L 949.030021 210.974842 
L 953.748837 198.410506 
L 958.467653 184.936538 
L 963.186469 143.32461 
L 967.905285 113.856563 
L 972.624101 137.841721 
L 977.342918 160.396662 
L 982.061734 125.296501 
L 986.78055 116.626272 
L 991.499366 160.61481 
L 996.218182 149.849497 
L 996.218182 149.849497 
" style="fill:none;stroke:#696969;stroke-linecap:round;stroke-width:3;"/>
   </g>
  </g>
  <g id="text_30">
   <g id="patch_4">
    <path d="M 874.164375 646.18275 
L 1040.76 646.18275 
L 1040.76 628.26525 
L 874.164375 628.26525 
z
" style="fill:#ffffff;stroke:#ffffff;stroke-linejoin:miter;"/>
   </g>
   <!-- Created: 2023-03-03 12:33:24 -->
   <g style="fill:#696969;" transform="translate(878.124375 640.224)scale(0.12 -0.12)">
    <defs>
     <path d="M 17.96875 49.3125 
L 17.96875 38.375 
L 7.078125 38.375 
L 7.078125 49.3125 
z
M 17.96875 10.984375 
L 17.96875 0 
L 7.078125 0 
L 7.078125 10.984375 
z
" id="FranklinGothic-Book-58"/>
     <path d="M 19.34375 31.34375 
L 19.34375 37.984375 
L 26.953125 37.984375 
Q 35.296875 37.984375 38.890625 41.40625 
Q 42.484375 44.828125 42.484375 49.703125 
Q 42.484375 55.078125 38.46875 58.21875 
Q 34.46875 61.375 28.421875 61.375 
Q 17.1875 61.375 12.890625 50.53125 
L 5.375 52.6875 
Q 11.8125 68.015625 29.203125 68.015625 
Q 38.96875 68.015625 44.96875 62.8125 
Q 50.984375 57.625 50.984375 50.296875 
Q 50.984375 44.625 47.359375 40.40625 
Q 43.75 36.1875 38.09375 35.109375 
Q 44.4375 34.1875 49 29.78125 
Q 53.5625 25.390625 53.5625 18.40625 
Q 53.5625 10.0625 46.765625 4.375 
Q 39.984375 -1.3125 28.171875 -1.3125 
Q 18.796875 -1.3125 12.125 3.125 
Q 5.46875 7.5625 2.9375 14.9375 
L 10.6875 17.53125 
Q 14.203125 5.46875 28.03125 5.46875 
Q 37.015625 5.46875 40.9375 9.296875 
Q 44.875 13.140625 44.875 18.453125 
Q 44.875 24.21875 40.15625 27.78125 
Q 35.453125 31.34375 26.953125 31.34375 
z
" id="FranklinGothic-Book-51"/>
    </defs>
    <use xlink:href="#FranklinGothic-Book-67"/>
    <use x="57.910156" xlink:href="#FranklinGothic-Book-114"/>
    <use x="90.869141" xlink:href="#FranklinGothic-Book-101"/>
    <use x="142.919922" xlink:href="#FranklinGothic-Book-97"/>
    <use x="195.800781" xlink:href="#FranklinGothic-Book-116"/>
    <use x="224.8125" xlink:href="#FranklinGothic-Book-101"/>
    <use x="276.863281" xlink:href="#FranklinGothic-Book-100"/>
    <use x="330.720703" xlink:href="#FranklinGothic-Book-58"/>
    <use x="355.720703" xlink:href="#FranklinGothic-Book-32"/>
    <use x="380.720703" xlink:href="#FranklinGothic-Book-50"/>
    <use x="439.363281" xlink:href="#FranklinGothic-Book-48"/>
    <use x="498.005859" xlink:href="#FranklinGothic-Book-50"/>
    <use x="556.648438" xlink:href="#FranklinGothic-Book-51"/>
    <use x="615.291016" xlink:href="#FranklinGothic-Book-45"/>
    <use x="640.291016" xlink:href="#FranklinGothic-Book-48"/>
    <use x="698.933594" xlink:href="#FranklinGothic-Book-51"/>
    <use x="757.576172" xlink:href="#FranklinGothic-Book-45"/>
    <use x="782.576172" xlink:href="#FranklinGothic-Book-48"/>
    <use x="841.21875" xlink:href="#FranklinGothic-Book-51"/>
    <use x="899.861328" xlink:href="#FranklinGothic-Book-32"/>
    <use x="924.861328" xlink:href="#FranklinGothic-Book-49"/>
    <use x="983.503906" xlink:href="#FranklinGothic-Book-50"/>
    <use x="1042.146484" xlink:href="#FranklinGothic-Book-58"/>
    <use x="1067.146484" xlink:href="#FranklinGothic-Book-51"/>
    <use x="1125.789062" xlink:href="#FranklinGothic-Book-51"/>
    <use x="1184.431641" xlink:href="#FranklinGothic-Book-58"/>
    <use x="1209.431641" xlink:href="#FranklinGothic-Book-50"/>
    <use x="1263.699219" xlink:href="#FranklinGothic-Book-52"/>
   </g>
  </g>
 </g>
 <defs>
  <clipPath id="pb38123de91">
   <rect height="498.96" width="892.8" x="144" y="77.76"/>
  </clipPath>
 </defs>
</svg>
