<?xml version="1.0" encoding="utf-8" standalone="no"?>
<!DOCTYPE svg PUBLIC "-//W3C//DTD SVG 1.1//EN"
  "http://www.w3.org/Graphics/SVG/1.1/DTD/svg11.dtd">
<!-- Created with matplotlib (https://matplotlib.org/) -->
<svg height="648pt" version="1.1" viewBox="0 0 1152 648" width="1152pt" xmlns="http://www.w3.org/2000/svg" xmlns:xlink="http://www.w3.org/1999/xlink">
 <metadata>
  <rdf:RDF xmlns:cc="http://creativecommons.org/ns#" xmlns:dc="http://purl.org/dc/elements/1.1/" xmlns:rdf="http://www.w3.org/1999/02/22-rdf-syntax-ns#">
   <cc:Work>
    <dc:type rdf:resource="http://purl.org/dc/dcmitype/StillImage"/>
    <dc:date>2022-12-16T18:02:09.437347</dc:date>
    <dc:format>image/svg+xml</dc:format>
    <dc:creator>
     <cc:Agent>
      <dc:title>Matplotlib v3.3.1, https://matplotlib.org/</dc:title>
     </cc:Agent>
    </dc:creator>
   </cc:Work>
  </rdf:RDF>
 </metadata>
 <defs>
  <style type="text/css">*{stroke-linecap:butt;stroke-linejoin:round;}</style>
 </defs>
 <g id="figure_1">
  <g id="patch_1">
   <path d="M 0 648 
L 1152 648 
L 1152 0 
L 0 0 
z
" style="fill:#ffffff;"/>
  </g>
  <g id="axes_1">
   <g id="patch_2">
    <path d="M 144 576.72 
L 1036.8 576.72 
L 1036.8 77.76 
L 144 77.76 
z
" style="fill:none;"/>
   </g>
   <g id="line2d_1">
    <path clip-path="url(#pcb2228ee32)" d="M 793.309091 337.888133 
L 798.027907 302.003051 
L 802.746723 292.876829 
L 807.465539 347.362998 
L 812.184355 294.079986 
L 816.903171 352.223481 
L 821.621987 363.263817 
L 826.340803 338.988749 
L 831.059619 296.499973 
L 835.778436 287.715557 
L 840.497252 320.068642 
L 845.216068 256.793499 
L 849.934884 271.764606 
L 854.6537 335.224324 
L 859.372516 322.698271 
L 864.091332 312.763107 
L 868.810148 264.151445 
L 873.528964 299.692442 
L 878.24778 266.272921 
L 882.966596 214.69894 
L 887.685412 288.214594 
L 892.404228 289.602326 
L 897.123044 245.846589 
L 901.84186 219.411306 
L 906.560677 222.954696 
L 911.279493 239.732818 
L 915.998309 195.370945 
L 920.717125 208.521364 
L 925.435941 210.544856 
L 930.154757 246.769466 
L 934.873573 211.043893 
L 939.592389 184.879776 
L 944.311205 223.674768 
L 949.030021 209.685784 
L 953.748837 202.241247 
L 958.467653 191.490306 
L 963.186469 150.651315 
L 967.905285 100.44 
L 972.624101 126.569936 
L 977.342918 148.374886 
L 982.061734 111.373237 
L 986.78055 102.358672 
L 991.499366 145.697405 
L 996.218182 137.666888 
" style="fill:none;stroke:#0072b2;stroke-linecap:round;stroke-width:3;"/>
   </g>
   <g id="line2d_2">
    <path clip-path="url(#pcb2228ee32)" d="M 694.213953 348.930905 
L 698.93277 367.123678 
L 703.651586 372.02954 
L 708.370402 365.458285 
L 713.089218 369.288352 
L 717.808034 368.745375 
L 722.52685 422.536388 
L 727.245666 403.045304 
L 731.964482 394.083445 
L 736.683298 394.985645 
L 741.402114 402.690826 
L 746.12093 361.950138 
L 750.839746 373.215031 
L 755.558562 407.615792 
L 760.277378 377.465077 
L 764.996195 350.460923 
L 769.715011 424.084365 
L 774.433827 407.339475 
L 779.152643 436.763394 
L 783.871459 361.332733 
L 788.590275 378.171768 
L 793.309091 346.241117 
L 798.027907 311.939557 
L 802.746723 301.264261 
L 807.465539 352.244977 
L 812.184355 302.350987 
L 816.903171 353.637913 
L 821.621987 362.180991 
L 826.340803 335.166376 
L 831.059619 297.050629 
L 835.778436 289.962672 
L 840.497252 319.570888 
L 845.216068 268.191949 
L 849.934884 280.489682 
L 854.6537 332.988197 
L 859.372516 323.041671 
L 864.091332 303.924564 
L 868.810148 256.471825 
L 873.528964 292.289633 
L 878.24778 261.341532 
L 882.966596 207.533093 
L 887.685412 275.177181 
L 892.404228 274.950352 
L 897.123044 239.398103 
L 901.84186 210.79271 
L 906.560677 223.290188 
L 911.279493 247.812197 
L 915.998309 199.280821 
L 920.717125 212.543342 
L 925.435941 214.156289 
L 930.154757 253.404703 
L 934.873573 215.490167 
L 939.592389 194.034322 
L 944.311205 225.995946 
L 949.030021 214.468239 
L 953.748837 203.962936 
L 958.467653 192.688052 
L 963.186469 156.562132 
L 967.905285 106.125666 
L 972.624101 143.046229 
L 977.342918 165.955503 
L 982.061734 123.055299 
L 986.78055 124.3897 
L 991.499366 166.326019 
L 996.218182 151.541161 
" style="fill:none;stroke:#d55e00;stroke-linecap:round;stroke-width:3;"/>
   </g>
   <g id="patch_3">
    <path d="M 144 576.72 
L 1036.8 576.72 
" style="fill:none;stroke:#d3d3d3;stroke-linecap:square;stroke-linejoin:miter;stroke-width:1.25;"/>
   </g>
   <g id="matplotlib.axis_1">
    <g id="xtick_1">
     <g id="line2d_3">
      <defs>
       <path d="M 0 0 
L 0 6 
" id="ma537319cf2" style="stroke:#696969;stroke-width:1.25;"/>
      </defs>
      <g>
       <use style="fill:#696969;stroke:#696969;stroke-width:1.25;" x="231.769979" xlink:href="#ma537319cf2" y="576.72"/>
      </g>
     </g>
     <g id="text_1">
      <!-- 1860 -->
      <g style="fill:#696969;" transform="translate(214.224666 596.218438)scale(0.15 -0.15)">
       <defs>
        <path d="M 55.859375 6.203125 
L 55.859375 0 
L 9.1875 0 
L 9.1875 6.203125 
L 29.203125 6.203125 
L 29.203125 57.671875 
Q 20.359375 48.4375 10.84375 43.265625 
L 10.84375 51.65625 
Q 23.96875 58.546875 31.203125 68.015625 
L 37.15625 68.015625 
L 37.15625 6.203125 
z
" id="FranklinGothic-Book-49"/>
        <path d="M 19.484375 34.578125 
Q 6.84375 40.09375 6.84375 50.59375 
Q 6.84375 58.203125 13.140625 63.109375 
Q 19.4375 68.015625 29.828125 68.015625 
Q 40.09375 68.015625 46.140625 63.296875 
Q 52.203125 58.59375 52.203125 50.984375 
Q 52.203125 40.375 39.265625 35.796875 
Q 49.703125 30.953125 52.359375 26.453125 
Q 55.03125 21.96875 55.03125 17.484375 
Q 55.03125 9.46875 48.21875 4.078125 
Q 41.40625 -1.3125 29.734375 -1.3125 
Q 17.28125 -1.3125 10.4375 4.171875 
Q 3.609375 9.671875 3.609375 17.234375 
Q 3.609375 28.515625 19.484375 34.578125 
z
M 29.59375 38.71875 
Q 37.984375 40.96875 41.453125 43.890625 
Q 44.921875 46.828125 44.921875 51.21875 
Q 44.921875 56.34375 40.796875 59 
Q 36.671875 61.671875 29.9375 61.671875 
Q 23.484375 61.671875 19.375 58.859375 
Q 15.28125 56.0625 15.28125 51.3125 
Q 15.28125 46.625 19.84375 43.203125 
Q 24.421875 39.796875 29.59375 38.71875 
z
M 28.65625 31.0625 
Q 11.765625 27.046875 11.765625 16.9375 
Q 11.765625 11.671875 16.375 8.328125 
Q 21 4.984375 29.984375 4.984375 
Q 37.59375 4.984375 42.234375 8.25 
Q 46.875 11.53125 46.875 16.609375 
Q 46.875 26.3125 28.65625 31.0625 
z
" id="FranklinGothic-Book-56"/>
        <path d="M 53.5625 53.03125 
L 46.046875 50.984375 
Q 42.1875 61.140625 31.984375 61.140625 
Q 13.234375 61.140625 12.796875 30.125 
Q 15.765625 37.015625 21.234375 40.328125 
Q 26.703125 43.65625 32.8125 43.65625 
Q 42.09375 43.65625 48.359375 37.1875 
Q 54.640625 30.71875 54.640625 21.6875 
Q 54.640625 12.3125 47.96875 5.5 
Q 41.3125 -1.3125 30.90625 -1.3125 
Q 19.09375 -1.3125 12.078125 7.59375 
Q 5.078125 16.5 5.078125 31.84375 
Q 5.078125 46.828125 11.6875 57.421875 
Q 18.3125 68.015625 32.171875 68.015625 
Q 48.140625 68.015625 53.5625 53.03125 
z
M 30.765625 5.375 
Q 37.84375 5.375 42.359375 10.03125 
Q 46.875 14.703125 46.875 21.234375 
Q 46.875 27.6875 42.453125 32.296875 
Q 38.03125 36.921875 31.5 36.921875 
Q 24.75 36.921875 19.71875 32.078125 
Q 14.703125 27.25 14.703125 20.75 
Q 14.703125 14.75 19.1875 10.0625 
Q 23.6875 5.375 30.765625 5.375 
z
" id="FranklinGothic-Book-54"/>
        <path d="M 29.390625 -1.3125 
Q 17.875 -1.3125 10.984375 8.671875 
Q 4.109375 18.65625 4.109375 33.453125 
Q 4.109375 48 10.640625 58 
Q 17.1875 68.015625 29.15625 68.015625 
Q 41.65625 68.015625 48.125 57.5625 
Q 54.59375 47.125 54.59375 33.0625 
Q 54.59375 19.28125 47.953125 8.984375 
Q 41.3125 -1.3125 29.390625 -1.3125 
z
M 29.4375 5.21875 
Q 37.890625 5.21875 41.9375 12.859375 
Q 46 20.515625 46 32.078125 
Q 46 44.734375 41.84375 53.125 
Q 37.703125 61.53125 29.046875 61.53125 
Q 20.703125 61.53125 16.625 53.859375 
Q 12.546875 46.1875 12.546875 33.6875 
Q 12.546875 20.703125 16.84375 12.953125 
Q 21.140625 5.21875 29.4375 5.21875 
z
" id="FranklinGothic-Book-48"/>
       </defs>
       <use xlink:href="#FranklinGothic-Book-49"/>
       <use x="58.017578" xlink:href="#FranklinGothic-Book-56"/>
       <use x="116.660156" xlink:href="#FranklinGothic-Book-54"/>
       <use x="175.302734" xlink:href="#FranklinGothic-Book-48"/>
      </g>
     </g>
    </g>
    <g id="xtick_2">
     <g id="line2d_4">
      <g>
       <use style="fill:#696969;stroke:#696969;stroke-width:1.25;" x="326.1463" xlink:href="#ma537319cf2" y="576.72"/>
      </g>
     </g>
     <g id="text_2">
      <!-- 1880 -->
      <g style="fill:#696969;" transform="translate(308.600988 596.218438)scale(0.15 -0.15)">
       <use xlink:href="#FranklinGothic-Book-49"/>
       <use x="58.017578" xlink:href="#FranklinGothic-Book-56"/>
       <use x="116.660156" xlink:href="#FranklinGothic-Book-56"/>
       <use x="175.302734" xlink:href="#FranklinGothic-Book-48"/>
      </g>
     </g>
    </g>
    <g id="xtick_3">
     <g id="line2d_5">
      <g>
       <use style="fill:#696969;stroke:#696969;stroke-width:1.25;" x="420.522622" xlink:href="#ma537319cf2" y="576.72"/>
      </g>
     </g>
     <g id="text_3">
      <!-- 1900 -->
      <g style="fill:#696969;" transform="translate(403.033559 596.218438)scale(0.15 -0.15)">
       <defs>
        <path d="M 5.71875 12.15625 
L 12.40625 14.59375 
Q 16.546875 5.375 26.375 5.375 
Q 35.890625 5.375 40.703125 13.375 
Q 45.515625 21.390625 45.65625 35.109375 
Q 39.109375 23.09375 25.984375 23.09375 
Q 16.703125 23.09375 10.40625 29.421875 
Q 4.109375 35.75 4.109375 45.0625 
Q 4.109375 54.546875 10.71875 61.28125 
Q 17.328125 68.015625 27.59375 68.015625 
Q 40.140625 68.015625 46.828125 59.203125 
Q 53.515625 50.390625 53.515625 34.96875 
Q 53.515625 18.75 46.4375 8.71875 
Q 39.359375 -1.3125 26.265625 -1.3125 
Q 10.984375 -1.3125 5.71875 12.15625 
z
M 27.828125 29.78125 
Q 34.71875 29.78125 39.375 34.59375 
Q 44.046875 39.40625 44.046875 45.84375 
Q 44.046875 52.09375 39.625 56.578125 
Q 35.203125 61.078125 27.984375 61.078125 
Q 20.65625 61.078125 16.40625 56.46875 
Q 12.15625 51.859375 12.15625 45.21875 
Q 12.15625 38.09375 16.859375 33.9375 
Q 21.578125 29.78125 27.828125 29.78125 
z
" id="FranklinGothic-Book-57"/>
       </defs>
       <use xlink:href="#FranklinGothic-Book-49"/>
       <use x="57.267578" xlink:href="#FranklinGothic-Book-57"/>
       <use x="115.910156" xlink:href="#FranklinGothic-Book-48"/>
       <use x="174.552734" xlink:href="#FranklinGothic-Book-48"/>
      </g>
     </g>
    </g>
    <g id="xtick_4">
     <g id="line2d_6">
      <g>
       <use style="fill:#696969;stroke:#696969;stroke-width:1.25;" x="514.898943" xlink:href="#ma537319cf2" y="576.72"/>
      </g>
     </g>
     <g id="text_4">
      <!-- 1920 -->
      <g style="fill:#696969;" transform="translate(497.40988 596.218438)scale(0.15 -0.15)">
       <defs>
        <path d="M 52.484375 6.9375 
L 52.484375 0 
L 5.171875 0 
L 5.171875 6.9375 
Q 33.203125 27.9375 38.59375 34.59375 
Q 44 41.265625 44 47.796875 
Q 44 53.90625 39.453125 57.65625 
Q 34.90625 61.421875 29 61.421875 
Q 22.90625 61.421875 18.21875 57.296875 
Q 13.53125 53.171875 12.9375 46.09375 
L 5.171875 48.4375 
Q 10.0625 68.015625 29.109375 68.015625 
Q 39.40625 68.015625 45.84375 62.15625 
Q 52.296875 56.296875 52.296875 47.859375 
Q 52.296875 42.046875 49.234375 36.671875 
Q 46.1875 31.296875 37.6875 23.828125 
Q 29.203125 16.359375 15.71875 6.9375 
z
" id="FranklinGothic-Book-50"/>
       </defs>
       <use xlink:href="#FranklinGothic-Book-49"/>
       <use x="57.267578" xlink:href="#FranklinGothic-Book-57"/>
       <use x="115.910156" xlink:href="#FranklinGothic-Book-50"/>
       <use x="174.552734" xlink:href="#FranklinGothic-Book-48"/>
      </g>
     </g>
    </g>
    <g id="xtick_5">
     <g id="line2d_7">
      <g>
       <use style="fill:#696969;stroke:#696969;stroke-width:1.25;" x="609.275264" xlink:href="#ma537319cf2" y="576.72"/>
      </g>
     </g>
     <g id="text_5">
      <!-- 1940 -->
      <g style="fill:#696969;" transform="translate(591.823702 596.218438)scale(0.15 -0.15)">
       <defs>
        <path d="M 44.09375 0 
L 36.03125 0 
L 36.03125 15.875 
L 3.078125 15.875 
L 3.078125 21.484375 
L 33.640625 68.0625 
L 44.09375 68.0625 
L 44.09375 22.46875 
L 54.890625 22.46875 
L 54.890625 15.875 
L 44.09375 15.875 
z
M 36.03125 22.46875 
L 36.03125 54 
Q 36.03125 57.421875 36.1875 61.375 
Q 34.078125 57.515625 32.5625 55.125 
L 11.765625 22.46875 
z
" id="FranklinGothic-Book-52"/>
       </defs>
       <use xlink:href="#FranklinGothic-Book-49"/>
       <use x="57.267578" xlink:href="#FranklinGothic-Book-57"/>
       <use x="115.410156" xlink:href="#FranklinGothic-Book-52"/>
       <use x="174.052734" xlink:href="#FranklinGothic-Book-48"/>
      </g>
     </g>
    </g>
    <g id="xtick_6">
     <g id="line2d_8">
      <g>
       <use style="fill:#696969;stroke:#696969;stroke-width:1.25;" x="703.651586" xlink:href="#ma537319cf2" y="576.72"/>
      </g>
     </g>
     <g id="text_6">
      <!-- 1960 -->
      <g style="fill:#696969;" transform="translate(686.162523 596.218438)scale(0.15 -0.15)">
       <use xlink:href="#FranklinGothic-Book-49"/>
       <use x="57.267578" xlink:href="#FranklinGothic-Book-57"/>
       <use x="115.910156" xlink:href="#FranklinGothic-Book-54"/>
       <use x="174.552734" xlink:href="#FranklinGothic-Book-48"/>
      </g>
     </g>
    </g>
    <g id="xtick_7">
     <g id="line2d_9">
      <g>
       <use style="fill:#696969;stroke:#696969;stroke-width:1.25;" x="798.027907" xlink:href="#ma537319cf2" y="576.72"/>
      </g>
     </g>
     <g id="text_7">
      <!-- 1980 -->
      <g style="fill:#696969;" transform="translate(780.538844 596.218438)scale(0.15 -0.15)">
       <use xlink:href="#FranklinGothic-Book-49"/>
       <use x="57.267578" xlink:href="#FranklinGothic-Book-57"/>
       <use x="115.910156" xlink:href="#FranklinGothic-Book-56"/>
       <use x="174.552734" xlink:href="#FranklinGothic-Book-48"/>
      </g>
     </g>
    </g>
    <g id="xtick_8">
     <g id="line2d_10">
      <g>
       <use style="fill:#696969;stroke:#696969;stroke-width:1.25;" x="892.404228" xlink:href="#ma537319cf2" y="576.72"/>
      </g>
     </g>
     <g id="text_8">
      <!-- 2000 -->
      <g style="fill:#696969;" transform="translate(874.812041 596.218438)scale(0.15 -0.15)">
       <use xlink:href="#FranklinGothic-Book-50"/>
       <use x="58.642578" xlink:href="#FranklinGothic-Book-48"/>
       <use x="117.285156" xlink:href="#FranklinGothic-Book-48"/>
       <use x="175.927734" xlink:href="#FranklinGothic-Book-48"/>
      </g>
     </g>
    </g>
    <g id="xtick_9">
     <g id="line2d_11">
      <g>
       <use style="fill:#696969;stroke:#696969;stroke-width:1.25;" x="986.78055" xlink:href="#ma537319cf2" y="576.72"/>
      </g>
     </g>
     <g id="text_9">
      <!-- 2020 -->
      <g style="fill:#696969;" transform="translate(969.188362 596.218438)scale(0.15 -0.15)">
       <use xlink:href="#FranklinGothic-Book-50"/>
       <use x="58.642578" xlink:href="#FranklinGothic-Book-48"/>
       <use x="117.285156" xlink:href="#FranklinGothic-Book-50"/>
       <use x="175.927734" xlink:href="#FranklinGothic-Book-48"/>
      </g>
     </g>
    </g>
    <g id="text_10">
     <!-- Year -->
     <g style="fill:#696969;" transform="translate(572.109375 616.048125)scale(0.2 -0.2)">
      <defs>
       <path d="M 52 66.65625 
L 29.6875 28.03125 
L 29.6875 0 
L 21.34375 0 
L 21.34375 28.03125 
L -0.984375 66.65625 
L 8.84375 66.65625 
L 26.5625 35.984375 
L 44.390625 66.65625 
z
" id="FranklinGothic-Book-89"/>
       <path d="M 40.234375 14.703125 
L 47.359375 13.234375 
Q 45.40625 6.9375 39.734375 2.8125 
Q 34.078125 -1.3125 26.421875 -1.3125 
Q 16.3125 -1.3125 10.0625 5.78125 
Q 3.8125 12.890625 3.8125 24.421875 
Q 3.8125 36.1875 10.296875 43.4375 
Q 16.796875 50.6875 26.609375 50.6875 
Q 36.28125 50.6875 42.15625 44 
Q 48.046875 37.3125 48.1875 23.96875 
L 12.359375 23.96875 
Q 12.359375 12.796875 17.046875 8.890625 
Q 21.734375 4.984375 26.953125 4.984375 
Q 36.375 4.984375 40.234375 14.703125 
z
M 39.796875 29.6875 
Q 39.703125 33.84375 38.421875 37.0625 
Q 37.15625 40.28125 34.125 42.546875 
Q 31.109375 44.828125 26.859375 44.828125 
Q 21.140625 44.828125 17.15625 40.71875 
Q 13.1875 36.625 12.703125 29.6875 
z
" id="FranklinGothic-Book-101"/>
       <path d="M 46.296875 0 
L 38.671875 0 
Q 38.234375 2.34375 37.796875 8.890625 
Q 32.71875 -1.3125 20.515625 -1.3125 
Q 12.203125 -1.3125 7.765625 3.078125 
Q 3.328125 7.46875 3.328125 13.625 
Q 3.328125 21.09375 9.671875 25.90625 
Q 16.015625 30.71875 31.25 30.71875 
Q 33.296875 30.71875 37.796875 30.515625 
Q 37.796875 36.375 36.890625 38.984375 
Q 35.984375 41.609375 33.046875 43.171875 
Q 30.125 44.734375 25.34375 44.734375 
Q 13.671875 44.734375 11.765625 35.84375 
L 4.6875 37.0625 
Q 7.28125 50.6875 26.46875 50.6875 
Q 36.671875 50.6875 40.9375 46.171875 
Q 45.21875 41.65625 45.21875 30.515625 
L 45.21875 9.578125 
Q 45.21875 4.34375 46.296875 0 
z
M 37.796875 24.65625 
Q 33.109375 24.953125 30.671875 24.953125 
Q 21.578125 24.953125 16.546875 21.96875 
Q 11.53125 19 11.53125 13.28125 
Q 11.53125 9.671875 14.234375 7.125 
Q 16.9375 4.59375 22.078125 4.59375 
Q 29 4.59375 33.46875 9.625 
Q 37.9375 14.65625 37.9375 21.4375 
Q 37.9375 22.796875 37.796875 24.65625 
z
" id="FranklinGothic-Book-97"/>
       <path d="M 15.328125 0 
L 7.671875 0 
L 7.671875 49.3125 
L 14.40625 49.3125 
L 14.40625 37.796875 
Q 17.96875 45.953125 21.546875 48.359375 
Q 25.140625 50.78125 28.90625 50.78125 
Q 30.078125 50.78125 31.9375 50.59375 
L 31.9375 43.265625 
L 30.375 43.265625 
Q 24.03125 43.265625 19.828125 38.53125 
Q 15.625 33.796875 15.328125 26.078125 
z
" id="FranklinGothic-Book-114"/>
      </defs>
      <use xlink:href="#FranklinGothic-Book-89"/>
      <use x="45.025391" xlink:href="#FranklinGothic-Book-101"/>
      <use x="97.076172" xlink:href="#FranklinGothic-Book-97"/>
      <use x="149.957031" xlink:href="#FranklinGothic-Book-114"/>
     </g>
    </g>
   </g>
   <g id="matplotlib.axis_2">
    <g id="ytick_1">
     <g id="line2d_12">
      <path clip-path="url(#pcb2228ee32)" d="M 144 571.389318 
L 1036.8 571.389318 
" style="fill:none;stroke:#d3d3d3;stroke-linecap:round;stroke-opacity:0.5;"/>
     </g>
     <g id="text_11">
      <!-- −0.4 -->
      <g style="fill:#696969;" transform="translate(104.361719 576.388536)scale(0.15 -0.15)">
       <defs>
        <path d="M 6 36.765625 
L 52.6875 36.765625 
L 52.6875 30.03125 
L 6 30.03125 
z
" id="FranklinGothic-Book-8722"/>
        <path d="M 17.96875 10.9375 
L 17.96875 0 
L 7.078125 0 
L 7.078125 10.9375 
z
" id="FranklinGothic-Book-46"/>
       </defs>
       <use xlink:href="#FranklinGothic-Book-8722"/>
       <use x="58.642578" xlink:href="#FranklinGothic-Book-48"/>
       <use x="117.285156" xlink:href="#FranklinGothic-Book-46"/>
       <use x="142.285156" xlink:href="#FranklinGothic-Book-52"/>
      </g>
     </g>
    </g>
    <g id="ytick_2">
     <g id="line2d_13">
      <path clip-path="url(#pcb2228ee32)" d="M 144 516.700343 
L 1036.8 516.700343 
" style="fill:none;stroke:#d3d3d3;stroke-linecap:round;stroke-opacity:0.5;"/>
     </g>
     <g id="text_12">
      <!-- −0.2 -->
      <g style="fill:#696969;" transform="translate(104.361719 521.699562)scale(0.15 -0.15)">
       <use xlink:href="#FranklinGothic-Book-8722"/>
       <use x="58.642578" xlink:href="#FranklinGothic-Book-48"/>
       <use x="117.285156" xlink:href="#FranklinGothic-Book-46"/>
       <use x="142.285156" xlink:href="#FranklinGothic-Book-50"/>
      </g>
     </g>
    </g>
    <g id="ytick_3">
     <g id="line2d_14">
      <path clip-path="url(#pcb2228ee32)" d="M 144 462.011369 
L 1036.8 462.011369 
" style="fill:none;stroke:#d3d3d3;stroke-linecap:round;stroke-opacity:0.5;"/>
     </g>
     <g id="text_13">
      <!-- 0.0 -->
      <g style="fill:#696969;" transform="translate(113.157813 467.010588)scale(0.15 -0.15)">
       <use xlink:href="#FranklinGothic-Book-48"/>
       <use x="58.642578" xlink:href="#FranklinGothic-Book-46"/>
       <use x="83.642578" xlink:href="#FranklinGothic-Book-48"/>
      </g>
     </g>
    </g>
    <g id="ytick_4">
     <g id="line2d_15">
      <path clip-path="url(#pcb2228ee32)" d="M 144 407.322394 
L 1036.8 407.322394 
" style="fill:none;stroke:#d3d3d3;stroke-linecap:round;stroke-opacity:0.5;"/>
     </g>
     <g id="text_14">
      <!-- 0.2 -->
      <g style="fill:#696969;" transform="translate(113.157813 412.321613)scale(0.15 -0.15)">
       <use xlink:href="#FranklinGothic-Book-48"/>
       <use x="58.642578" xlink:href="#FranklinGothic-Book-46"/>
       <use x="83.642578" xlink:href="#FranklinGothic-Book-50"/>
      </g>
     </g>
    </g>
    <g id="ytick_5">
     <g id="line2d_16">
      <path clip-path="url(#pcb2228ee32)" d="M 144 352.63342 
L 1036.8 352.63342 
" style="fill:none;stroke:#d3d3d3;stroke-linecap:round;stroke-opacity:0.5;"/>
     </g>
     <g id="text_15">
      <!-- 0.4 -->
      <g style="fill:#696969;" transform="translate(113.157813 357.632639)scale(0.15 -0.15)">
       <use xlink:href="#FranklinGothic-Book-48"/>
       <use x="58.642578" xlink:href="#FranklinGothic-Book-46"/>
       <use x="83.642578" xlink:href="#FranklinGothic-Book-52"/>
      </g>
     </g>
    </g>
    <g id="ytick_6">
     <g id="line2d_17">
      <path clip-path="url(#pcb2228ee32)" d="M 144 297.944446 
L 1036.8 297.944446 
" style="fill:none;stroke:#d3d3d3;stroke-linecap:round;stroke-opacity:0.5;"/>
     </g>
     <g id="text_16">
      <!-- 0.6 -->
      <g style="fill:#696969;" transform="translate(113.157813 302.943664)scale(0.15 -0.15)">
       <use xlink:href="#FranklinGothic-Book-48"/>
       <use x="58.642578" xlink:href="#FranklinGothic-Book-46"/>
       <use x="83.642578" xlink:href="#FranklinGothic-Book-54"/>
      </g>
     </g>
    </g>
    <g id="ytick_7">
     <g id="line2d_18">
      <path clip-path="url(#pcb2228ee32)" d="M 144 243.255471 
L 1036.8 243.255471 
" style="fill:none;stroke:#d3d3d3;stroke-linecap:round;stroke-opacity:0.5;"/>
     </g>
     <g id="text_17">
      <!-- 0.8 -->
      <g style="fill:#696969;" transform="translate(113.157813 248.25469)scale(0.15 -0.15)">
       <use xlink:href="#FranklinGothic-Book-48"/>
       <use x="58.642578" xlink:href="#FranklinGothic-Book-46"/>
       <use x="83.642578" xlink:href="#FranklinGothic-Book-56"/>
      </g>
     </g>
    </g>
    <g id="ytick_8">
     <g id="line2d_19">
      <path clip-path="url(#pcb2228ee32)" d="M 144 188.566497 
L 1036.8 188.566497 
" style="fill:none;stroke:#d3d3d3;stroke-linecap:round;stroke-opacity:0.5;"/>
     </g>
     <g id="text_18">
      <!-- 1.0 -->
      <g style="fill:#696969;" transform="translate(113.251563 193.565716)scale(0.15 -0.15)">
       <use xlink:href="#FranklinGothic-Book-49"/>
       <use x="58.017578" xlink:href="#FranklinGothic-Book-46"/>
       <use x="83.017578" xlink:href="#FranklinGothic-Book-48"/>
      </g>
     </g>
    </g>
    <g id="ytick_9">
     <g id="line2d_20">
      <path clip-path="url(#pcb2228ee32)" d="M 144 133.877523 
L 1036.8 133.877523 
" style="fill:none;stroke:#d3d3d3;stroke-linecap:round;stroke-opacity:0.5;"/>
     </g>
     <g id="text_19">
      <!-- 1.2 -->
      <g style="fill:#696969;" transform="translate(113.251563 138.876741)scale(0.15 -0.15)">
       <use xlink:href="#FranklinGothic-Book-49"/>
       <use x="58.017578" xlink:href="#FranklinGothic-Book-46"/>
       <use x="83.017578" xlink:href="#FranklinGothic-Book-50"/>
      </g>
     </g>
    </g>
    <g id="ytick_10">
     <g id="line2d_21">
      <path clip-path="url(#pcb2228ee32)" d="M 144 79.188548 
L 1036.8 79.188548 
" style="fill:none;stroke:#d3d3d3;stroke-linecap:round;stroke-opacity:0.5;"/>
     </g>
     <g id="text_20">
      <!-- 1.4 -->
      <g style="fill:#696969;" transform="translate(113.251563 84.187767)scale(0.15 -0.15)">
       <use xlink:href="#FranklinGothic-Book-49"/>
       <use x="58.017578" xlink:href="#FranklinGothic-Book-46"/>
       <use x="83.017578" xlink:href="#FranklinGothic-Book-52"/>
      </g>
     </g>
    </g>
    <g id="text_21">
     <!-- $\!^\circ\!$C -->
     <g style="fill:#696969;" transform="translate(91.030469 337.34)rotate(-90)scale(0.2 -0.2)">
      <defs>
       <path d="M 31.296875 40.671875 
Q 27.390625 40.671875 24.703125 37.953125 
Q 22.015625 35.25 22.015625 31.34375 
Q 22.015625 27.484375 24.703125 24.828125 
Q 27.390625 22.171875 31.296875 22.171875 
Q 35.203125 22.171875 37.890625 24.828125 
Q 40.578125 27.484375 40.578125 31.34375 
Q 40.578125 35.203125 37.859375 37.9375 
Q 35.15625 40.671875 31.296875 40.671875 
z
M 31.296875 46.96875 
Q 34.421875 46.96875 37.296875 45.765625 
Q 40.1875 44.578125 42.28125 42.328125 
Q 44.53125 40.140625 45.65625 37.34375 
Q 46.78125 34.5625 46.78125 31.34375 
Q 46.78125 24.90625 42.265625 20.4375 
Q 37.75 15.96875 31.203125 15.96875 
Q 24.609375 15.96875 20.21875 20.359375 
Q 15.828125 24.75 15.828125 31.34375 
Q 15.828125 37.890625 20.3125 42.421875 
Q 24.8125 46.96875 31.296875 46.96875 
z
" id="DejaVuSans-8728"/>
       <path d="M 48.296875 22.40625 
L 55.90625 20.703125 
Q 50.4375 -1.3125 31.203125 -1.3125 
Q 18.5625 -1.3125 11.359375 8.890625 
Q 4.15625 19.09375 4.15625 33.984375 
Q 4.15625 49.359375 11.671875 58.6875 
Q 19.1875 68.015625 31.84375 68.015625 
Q 50.59375 68.015625 55.90625 46.578125 
L 48.046875 45.015625 
Q 43.75 60.9375 31.78125 60.9375 
Q 22.953125 60.9375 18.09375 53.53125 
Q 13.234375 46.140625 13.234375 32.765625 
Q 13.234375 20.515625 18.203125 13.109375 
Q 23.1875 5.71875 31.390625 5.71875 
Q 44.140625 5.71875 48.296875 22.40625 
z
" id="FranklinGothic-Book-67"/>
      </defs>
      <use transform="translate(-1.64095 39.121875)scale(0.7)" xlink:href="#DejaVuSans-8728"/>
      <use transform="translate(42.313804 0.840625)" xlink:href="#FranklinGothic-Book-67"/>
     </g>
    </g>
   </g>
   <g id="text_22">
    <!-- Compared to 1850-1900 average -->
    <g style="fill:#696969;" transform="translate(144 75.2652)scale(0.3 -0.3)">
     <defs>
      <path d="M 25.34375 -1.3125 
Q 15.1875 -1.3125 9.5 6.203125 
Q 3.8125 13.71875 3.8125 24.859375 
Q 3.8125 36.625 10.203125 43.65625 
Q 16.609375 50.6875 26.125 50.6875 
Q 36.328125 50.6875 42.203125 43.28125 
Q 48.09375 35.890625 48.09375 24.8125 
Q 48.09375 13.28125 41.75 5.984375 
Q 35.40625 -1.3125 25.34375 -1.3125 
z
M 25.921875 4.984375 
Q 31.78125 4.984375 35.734375 9.8125 
Q 39.703125 14.65625 39.703125 24.859375 
Q 39.703125 35.109375 35.546875 39.71875 
Q 31.390625 44.34375 25.828125 44.34375 
Q 20.125 44.34375 16.15625 39.671875 
Q 12.203125 35.015625 12.203125 24.90625 
Q 12.203125 14.203125 16.15625 9.59375 
Q 20.125 4.984375 25.921875 4.984375 
z
" id="FranklinGothic-Book-111"/>
      <path d="M 73.734375 0 
L 66.265625 0 
L 66.265625 30.671875 
Q 66.265625 35.40625 65.59375 37.765625 
Q 64.9375 40.140625 62.390625 42.109375 
Q 59.859375 44.09375 56.6875 44.09375 
Q 52.296875 44.09375 48.21875 40.0625 
Q 44.140625 36.03125 44.140625 27.78125 
L 44.140625 0 
L 36.71875 0 
L 36.71875 32.46875 
Q 36.71875 38.96875 33.609375 41.65625 
Q 30.515625 44.34375 27.09375 44.34375 
Q 22.21875 44.34375 18.59375 40.140625 
Q 14.984375 35.9375 14.984375 29.5 
L 14.984375 0 
L 7.671875 0 
L 7.671875 49.3125 
L 14.265625 49.3125 
L 14.265625 39.84375 
Q 19.78125 50.6875 29.4375 50.6875 
Q 34.765625 50.6875 38.46875 47.21875 
Q 42.1875 43.75 43.265625 38.875 
Q 48.34375 50.6875 58.84375 50.6875 
Q 63.875 50.6875 67.65625 47.796875 
Q 71.4375 44.921875 72.578125 41.1875 
Q 73.734375 37.453125 73.734375 30.671875 
z
" id="FranklinGothic-Book-109"/>
      <path d="M 15.328125 -16.65625 
L 7.671875 -16.65625 
L 7.671875 49.3125 
L 14.546875 49.3125 
L 14.546875 39.75 
Q 19.78125 50.6875 30.125 50.6875 
Q 38.875 50.6875 44.234375 43.375 
Q 49.609375 36.078125 49.609375 24.90625 
Q 49.609375 12.84375 44.09375 5.765625 
Q 38.578125 -1.3125 29.9375 -1.3125 
Q 20.65625 -1.3125 15.328125 7.515625 
z
M 15.328125 31.78125 
L 15.328125 17.921875 
Q 16.0625 12.3125 20.0625 8.640625 
Q 24.078125 4.984375 28.421875 4.984375 
Q 33.453125 4.984375 37.328125 9.375 
Q 41.21875 13.765625 41.21875 24.5625 
Q 41.21875 33.890625 37.703125 38.9375 
Q 34.1875 44 28.375 44 
Q 23.78125 44 20.140625 40.421875 
Q 16.5 36.859375 15.328125 31.78125 
z
" id="FranklinGothic-Book-112"/>
      <path d="M 46.1875 66.65625 
L 46.1875 0 
L 39.203125 0 
L 39.203125 8.453125 
Q 34.03125 -1.3125 23.640625 -1.3125 
Q 14.984375 -1.3125 9.421875 5.9375 
Q 3.859375 13.1875 3.859375 24.265625 
Q 3.859375 35.59375 9.375 43.140625 
Q 14.890625 50.6875 24.03125 50.6875 
Q 32.90625 50.6875 38.53125 42.578125 
L 38.53125 66.65625 
z
M 38.53125 30.28125 
Q 38.53125 36.765625 34.5625 40.671875 
Q 30.609375 44.578125 25.34375 44.578125 
Q 19.625 44.578125 15.9375 39.5 
Q 12.25 34.421875 12.25 25.25 
Q 12.25 15.328125 15.640625 10.15625 
Q 19.046875 4.984375 24.953125 4.984375 
Q 30.328125 4.984375 34.421875 9.46875 
Q 38.53125 13.96875 38.53125 20.015625 
z
" id="FranklinGothic-Book-100"/>
      <path id="FranklinGothic-Book-32"/>
      <path d="M 30.03125 5.28125 
L 30.03125 -0.78125 
Q 25.984375 -1.3125 23 -1.3125 
Q 8.6875 -1.3125 8.6875 13.625 
L 8.6875 43.3125 
L -0.046875 43.3125 
L -0.046875 49.3125 
L 8.6875 49.3125 
L 9.03125 61.71875 
L 16.15625 62.40625 
L 16.15625 49.3125 
L 27.203125 49.3125 
L 27.203125 43.3125 
L 16.15625 43.3125 
L 16.15625 12.359375 
Q 16.15625 4.734375 24.078125 4.734375 
Q 26.703125 4.734375 30.03125 5.28125 
z
" id="FranklinGothic-Book-116"/>
      <path d="M 48.875 66.65625 
L 48.1875 59.46875 
L 15.4375 59.46875 
L 14.015625 37.84375 
Q 21.4375 45.125 30.328125 45.125 
Q 39.703125 45.125 46.515625 38.625 
Q 53.328125 32.125 53.328125 22.015625 
Q 53.328125 11.765625 45.921875 5.21875 
Q 38.53125 -1.3125 27.828125 -1.3125 
Q 19.4375 -1.3125 12.890625 3.078125 
Q 6.34375 7.46875 4.296875 14.453125 
L 11.421875 16.890625 
Q 15.828125 5.28125 27.9375 5.28125 
Q 35.890625 5.28125 40.578125 9.984375 
Q 45.265625 14.703125 45.265625 22.015625 
Q 45.265625 29.6875 40.625 33.984375 
Q 35.984375 38.28125 29.5 38.28125 
Q 20.015625 38.28125 13.8125 29.203125 
L 7.234375 30.609375 
L 9.375 66.65625 
z
" id="FranklinGothic-Book-53"/>
      <path d="M 23.53125 27.984375 
L 23.53125 22.015625 
L 1.46875 22.015625 
L 1.46875 27.984375 
z
" id="FranklinGothic-Book-45"/>
      <path d="M 43.796875 49.3125 
L 26.765625 0 
L 18.796875 0 
L 1.171875 49.3125 
L 9.671875 49.3125 
L 23.390625 9.234375 
L 36.96875 49.3125 
z
" id="FranklinGothic-Book-118"/>
      <path d="M 47.953125 57.03125 
L 47.953125 50.921875 
Q 42.671875 50.921875 40.890625 49.703125 
Q 39.109375 48.484375 38.53125 45.3125 
Q 43.265625 39.84375 43.265625 33.40625 
Q 43.265625 26.65625 38.109375 21.828125 
Q 32.953125 17 24.265625 17 
Q 22.3125 17 20.90625 17.28125 
Q 18.21875 17.828125 17.53125 17.828125 
Q 16.21875 17.828125 14.359375 16.53125 
Q 12.5 15.234375 12.5 13.1875 
Q 12.5 10.25 15.1875 9.375 
Q 17.875 8.5 27.828125 8.25 
Q 36.28125 8.015625 40.3125 7.109375 
Q 44.34375 6.203125 47.125 3.09375 
Q 49.90625 0 49.90625 -4.5 
Q 49.90625 -18.609375 25.09375 -18.609375 
Q 13.328125 -18.609375 7.9375 -15.0625 
Q 2.546875 -11.53125 2.546875 -5.609375 
Q 2.546875 1.5625 10.0625 4.25 
Q 5.21875 7.421875 5.21875 12.203125 
Q 5.21875 17.921875 12.0625 20.953125 
Q 5.671875 26.125 5.671875 33.984375 
Q 5.671875 41.3125 11.140625 46 
Q 16.609375 50.6875 24.46875 50.6875 
Q 30.03125 50.6875 34.578125 48.578125 
Q 35.296875 53.421875 37.953125 55.265625 
Q 40.625 57.125 46.046875 57.125 
Q 46.578125 57.125 47.953125 57.03125 
z
M 24.515625 22.859375 
Q 29.390625 22.859375 32.46875 25.859375 
Q 35.546875 28.859375 35.546875 33.640625 
Q 35.546875 38.53125 32.34375 41.625 
Q 29.15625 44.734375 24.609375 44.734375 
Q 20.265625 44.734375 16.890625 41.828125 
Q 13.53125 38.921875 13.53125 33.546875 
Q 13.53125 28.765625 16.546875 25.8125 
Q 19.578125 22.859375 24.515625 22.859375 
z
M 15.328125 2 
Q 9.96875 -0.34375 9.96875 -4.78125 
Q 9.96875 -8.546875 14.375 -10.625 
Q 18.796875 -12.703125 25.640625 -12.703125 
Q 31.984375 -12.703125 37.25 -10.90625 
Q 42.53125 -9.125 42.53125 -4.890625 
Q 42.53125 -2.59375 40.96875 -1.125 
Q 39.40625 0.34375 36.6875 0.734375 
Q 33.984375 1.125 27.25 1.3125 
Q 19.1875 1.515625 15.328125 2 
z
" id="FranklinGothic-Book-103"/>
     </defs>
     <use xlink:href="#FranklinGothic-Book-67"/>
     <use x="57.910156" xlink:href="#FranklinGothic-Book-111"/>
     <use x="109.863281" xlink:href="#FranklinGothic-Book-109"/>
     <use x="190.384766" xlink:href="#FranklinGothic-Book-112"/>
     <use x="243.802734" xlink:href="#FranklinGothic-Book-97"/>
     <use x="296.683594" xlink:href="#FranklinGothic-Book-114"/>
     <use x="329.642578" xlink:href="#FranklinGothic-Book-101"/>
     <use x="381.693359" xlink:href="#FranklinGothic-Book-100"/>
     <use x="435.550781" xlink:href="#FranklinGothic-Book-32"/>
     <use x="460.550781" xlink:href="#FranklinGothic-Book-116"/>
     <use x="489.8125" xlink:href="#FranklinGothic-Book-111"/>
     <use x="541.765625" xlink:href="#FranklinGothic-Book-32"/>
     <use x="566.765625" xlink:href="#FranklinGothic-Book-49"/>
     <use x="624.783203" xlink:href="#FranklinGothic-Book-56"/>
     <use x="683.425781" xlink:href="#FranklinGothic-Book-53"/>
     <use x="742.068359" xlink:href="#FranklinGothic-Book-48"/>
     <use x="800.710938" xlink:href="#FranklinGothic-Book-45"/>
     <use x="825.710938" xlink:href="#FranklinGothic-Book-49"/>
     <use x="882.978516" xlink:href="#FranklinGothic-Book-57"/>
     <use x="941.621094" xlink:href="#FranklinGothic-Book-48"/>
     <use x="1000.263672" xlink:href="#FranklinGothic-Book-48"/>
     <use x="1058.90625" xlink:href="#FranklinGothic-Book-32"/>
     <use x="1083.90625" xlink:href="#FranklinGothic-Book-97"/>
     <use x="1134.537109" xlink:href="#FranklinGothic-Book-118"/>
     <use x="1178.056641" xlink:href="#FranklinGothic-Book-101"/>
     <use x="1230.107422" xlink:href="#FranklinGothic-Book-114"/>
     <use x="1263.066406" xlink:href="#FranklinGothic-Book-97"/>
     <use x="1315.947266" xlink:href="#FranklinGothic-Book-103"/>
     <use x="1365.068359" xlink:href="#FranklinGothic-Book-101"/>
    </g>
   </g>
   <g id="text_23">
    <!-- Global mean temperature -->
    <g style="fill:#696969;" transform="translate(144 42.76)scale(0.4 -0.4)">
     <defs>
      <path d="M 57.71875 33.59375 
L 57.71875 -0.875 
L 52.59375 -0.875 
L 50.296875 7.46875 
Q 44.140625 -1.3125 31.984375 -1.3125 
Q 18.796875 -1.3125 11.46875 8.59375 
Q 4.15625 18.5 4.15625 32.671875 
Q 4.15625 47.796875 11.90625 57.90625 
Q 19.671875 68.015625 33.015625 68.015625 
Q 51.421875 68.015625 57.03125 48.6875 
L 49.125 46.78125 
Q 47.40625 54.203125 42.71875 57.5625 
Q 38.03125 60.9375 32.46875 60.9375 
Q 22.609375 60.9375 17.921875 52.96875 
Q 13.234375 45.015625 13.234375 33.015625 
Q 13.234375 20.0625 18.484375 12.765625 
Q 23.734375 5.46875 32.765625 5.46875 
Q 39.796875 5.46875 44.5 10.125 
Q 49.21875 14.796875 49.21875 23 
Q 49.21875 24.515625 49.125 26.609375 
L 32.625 26.609375 
L 32.625 33.59375 
z
" id="FranklinGothic-Book-71"/>
      <path d="M 15.328125 0 
L 7.671875 0 
L 7.671875 66.65625 
L 15.328125 66.65625 
z
" id="FranklinGothic-Book-108"/>
      <path d="M 11.375 0 
L 7.671875 0 
L 7.671875 66.65625 
L 15.328125 66.65625 
L 15.328125 41.109375 
Q 20.609375 50.6875 29.890625 50.6875 
Q 38.375 50.6875 44.109375 44 
Q 49.859375 37.3125 49.859375 24.5625 
Q 49.859375 13.578125 44.21875 6.125 
Q 38.578125 -1.3125 29.546875 -1.3125 
Q 19.484375 -1.3125 14.109375 8.15625 
z
M 15.328125 19.34375 
Q 15.875 11.765625 20 8.34375 
Q 24.125 4.9375 28.71875 4.9375 
Q 34.578125 4.9375 38.15625 10.015625 
Q 41.75 15.09375 41.75 23.921875 
Q 41.75 33.453125 38.28125 38.890625 
Q 34.8125 44.34375 28.65625 44.34375 
Q 23.828125 44.34375 19.9375 40.453125 
Q 16.0625 36.578125 15.328125 30.421875 
z
" id="FranklinGothic-Book-98"/>
      <path d="M 46.53125 0 
L 39.359375 0 
L 39.359375 31.6875 
Q 39.359375 38.53125 36.375 41.3125 
Q 33.40625 44.09375 29.15625 44.09375 
Q 23.296875 44.09375 19.3125 39.40625 
Q 15.328125 34.71875 15.328125 27.046875 
L 15.328125 0 
L 7.671875 0 
L 7.671875 49.3125 
L 14.796875 49.3125 
L 14.796875 40.234375 
Q 20.796875 50.6875 30.375 50.6875 
Q 35.890625 50.6875 39.765625 47.828125 
Q 43.65625 44.96875 45.09375 41.40625 
Q 46.53125 37.84375 46.53125 28.515625 
z
" id="FranklinGothic-Book-110"/>
      <path d="M 46.484375 0 
L 39.59375 0 
L 39.59375 9.421875 
Q 34.328125 -1.3125 23.875 -1.3125 
Q 16.3125 -1.3125 11.984375 3.65625 
Q 7.671875 8.640625 7.671875 17.828125 
L 7.671875 49.3125 
L 15.328125 49.3125 
L 15.328125 17.828125 
Q 15.328125 10.5 18.375 7.734375 
Q 21.4375 4.984375 25.09375 4.984375 
Q 28.8125 4.984375 31.8125 7.078125 
Q 34.8125 9.1875 36.8125 13.0625 
Q 38.8125 16.9375 38.8125 21.53125 
L 38.8125 49.3125 
L 46.484375 49.3125 
z
" id="FranklinGothic-Book-117"/>
     </defs>
     <use xlink:href="#FranklinGothic-Book-71"/>
     <use x="64.697266" xlink:href="#FranklinGothic-Book-108"/>
     <use x="87.695312" xlink:href="#FranklinGothic-Book-111"/>
     <use x="139.648438" xlink:href="#FranklinGothic-Book-98"/>
     <use x="193.359375" xlink:href="#FranklinGothic-Book-97"/>
     <use x="246.240234" xlink:href="#FranklinGothic-Book-108"/>
     <use x="269.238281" xlink:href="#FranklinGothic-Book-32"/>
     <use x="294.238281" xlink:href="#FranklinGothic-Book-109"/>
     <use x="375.634766" xlink:href="#FranklinGothic-Book-101"/>
     <use x="427.685547" xlink:href="#FranklinGothic-Book-97"/>
     <use x="480.566406" xlink:href="#FranklinGothic-Book-110"/>
     <use x="534.765625" xlink:href="#FranklinGothic-Book-32"/>
     <use x="559.765625" xlink:href="#FranklinGothic-Book-116"/>
     <use x="588.777344" xlink:href="#FranklinGothic-Book-101"/>
     <use x="640.828125" xlink:href="#FranklinGothic-Book-109"/>
     <use x="721.349609" xlink:href="#FranklinGothic-Book-112"/>
     <use x="774.767578" xlink:href="#FranklinGothic-Book-101"/>
     <use x="826.818359" xlink:href="#FranklinGothic-Book-114"/>
     <use x="859.777344" xlink:href="#FranklinGothic-Book-97"/>
     <use x="912.658203" xlink:href="#FranklinGothic-Book-116"/>
     <use x="943.419922" xlink:href="#FranklinGothic-Book-117"/>
     <use x="997.570312" xlink:href="#FranklinGothic-Book-114"/>
     <use x="1030.529297" xlink:href="#FranklinGothic-Book-101"/>
    </g>
   </g>
   <g id="legend_1">
    <g id="line2d_22"/>
    <g id="text_24">
     <!-- HadCRUT5 (1850-2022) -->
     <g style="fill:#696969;" transform="translate(185.856 129.7184)scale(0.2 -0.2)">
      <defs>
       <path d="M 55.953125 0 
L 47.609375 0 
L 47.609375 31.734375 
L 16.703125 31.734375 
L 16.703125 0 
L 8.34375 0 
L 8.34375 66.65625 
L 16.703125 66.65625 
L 16.703125 39.0625 
L 47.609375 39.0625 
L 47.609375 66.65625 
L 55.953125 66.65625 
z
" id="FranklinGothic-Book-72"/>
       <path d="M 56.296875 0 
L 47.5625 0 
L 35.25 28.859375 
L 16.15625 28.859375 
L 16.15625 0 
L 8.34375 0 
L 8.34375 66.65625 
L 34.625 66.65625 
Q 45.3125 66.65625 50.453125 60.8125 
Q 55.609375 54.984375 55.609375 48.046875 
Q 55.609375 42.71875 52.734375 37.828125 
Q 49.859375 32.953125 43.21875 30.859375 
z
M 16.15625 35.640625 
L 33.59375 35.640625 
Q 40.484375 35.640625 43.875 39.28125 
Q 47.265625 42.921875 47.265625 48.1875 
Q 47.265625 53.46875 43.671875 56.390625 
Q 40.09375 59.328125 34.625 59.328125 
L 16.15625 59.328125 
z
" id="FranklinGothic-Book-82"/>
       <path d="M 46.34375 66.65625 
L 53.265625 66.65625 
L 53.265625 23.140625 
Q 53.265625 10.0625 46.84375 4.375 
Q 40.4375 -1.3125 30.03125 -1.3125 
Q 18.453125 -1.3125 12.890625 4.546875 
Q 7.328125 10.40625 7.328125 23.140625 
L 7.328125 66.65625 
L 15.671875 66.65625 
L 15.671875 23.140625 
Q 15.671875 15.375 17.46875 12.203125 
Q 19.28125 9.03125 22.9375 7.515625 
Q 26.609375 6 30.609375 6 
Q 38.328125 6 42.328125 10.046875 
Q 46.34375 14.109375 46.34375 23.140625 
z
" id="FranklinGothic-Book-85"/>
       <path d="M 28.421875 0 
L 20.125 0 
L 20.125 59.328125 
L 1.03125 59.328125 
L 1.03125 66.65625 
L 47.5625 66.65625 
L 47.5625 59.328125 
L 28.421875 59.328125 
z
" id="FranklinGothic-Book-84"/>
       <path d="M 24.703125 -16.65625 
L 19.578125 -16.65625 
Q 5.21875 2.203125 5.21875 25.09375 
Q 5.21875 46.96875 19.578125 66.65625 
L 24.703125 66.65625 
Q 12.359375 48.25 12.359375 25 
Q 12.359375 2.828125 24.703125 -16.65625 
z
" id="FranklinGothic-Book-40"/>
       <path d="M 4.640625 66.65625 
L 9.71875 66.65625 
Q 24.125 47.796875 24.125 24.90625 
Q 24.125 3.03125 9.71875 -16.65625 
L 4.640625 -16.65625 
Q 17 1.765625 17 25 
Q 17 47.171875 4.640625 66.65625 
z
" id="FranklinGothic-Book-41"/>
      </defs>
      <use xlink:href="#FranklinGothic-Book-72"/>
      <use x="64.257812" xlink:href="#FranklinGothic-Book-97"/>
      <use x="117.138672" xlink:href="#FranklinGothic-Book-100"/>
      <use x="170.996094" xlink:href="#FranklinGothic-Book-67"/>
      <use x="228.90625" xlink:href="#FranklinGothic-Book-82"/>
      <use x="289.310547" xlink:href="#FranklinGothic-Book-85"/>
      <use x="349.90625" xlink:href="#FranklinGothic-Book-84"/>
      <use x="398.441406" xlink:href="#FranklinGothic-Book-53"/>
      <use x="457.083984" xlink:href="#FranklinGothic-Book-32"/>
      <use x="482.083984" xlink:href="#FranklinGothic-Book-40"/>
      <use x="511.429688" xlink:href="#FranklinGothic-Book-49"/>
      <use x="569.447266" xlink:href="#FranklinGothic-Book-56"/>
      <use x="628.089844" xlink:href="#FranklinGothic-Book-53"/>
      <use x="686.732422" xlink:href="#FranklinGothic-Book-48"/>
      <use x="745.375" xlink:href="#FranklinGothic-Book-45"/>
      <use x="770.375" xlink:href="#FranklinGothic-Book-50"/>
      <use x="829.017578" xlink:href="#FranklinGothic-Book-48"/>
      <use x="887.660156" xlink:href="#FranklinGothic-Book-50"/>
      <use x="946.302734" xlink:href="#FranklinGothic-Book-50"/>
      <use x="1004.945312" xlink:href="#FranklinGothic-Book-41"/>
     </g>
    </g>
    <g id="line2d_23"/>
    <g id="text_25">
     <!-- NOAAGlobalTemp (1880-2022) -->
     <g style="fill:#e69f00;" transform="translate(185.856 157.04965)scale(0.2 -0.2)">
      <defs>
       <path d="M 57.421875 0 
L 49.3125 0 
L 14.84375 58.109375 
L 14.9375 53.71875 
Q 15.09375 51.21875 15.09375 49.515625 
L 15.09375 0 
L 8.34375 0 
L 8.34375 66.65625 
L 18.796875 66.65625 
L 51.03125 12.3125 
L 50.921875 16.9375 
Q 50.828125 19.671875 50.828125 21.78125 
L 50.828125 66.65625 
L 57.421875 66.65625 
z
" id="FranklinGothic-Book-78"/>
       <path d="M 31.34375 -1.3125 
Q 18.5 -1.3125 11.328125 8.671875 
Q 4.15625 18.65625 4.15625 33.15625 
Q 4.15625 48.296875 11.671875 58.15625 
Q 19.1875 68.015625 31.59375 68.015625 
Q 43.953125 68.015625 51.421875 58.328125 
Q 58.890625 48.640625 58.890625 33.890625 
Q 58.890625 19.734375 51.640625 9.203125 
Q 44.390625 -1.3125 31.34375 -1.3125 
z
M 31.546875 5.46875 
Q 40.28125 5.46875 45.203125 13.421875 
Q 50.140625 21.390625 50.140625 33.9375 
Q 50.140625 46.828125 45.03125 54 
Q 39.9375 61.1875 31.5 61.1875 
Q 22.953125 61.1875 17.921875 53.421875 
Q 12.890625 45.65625 12.890625 33.109375 
Q 12.890625 20.84375 17.96875 13.15625 
Q 23.046875 5.46875 31.546875 5.46875 
z
" id="FranklinGothic-Book-79"/>
       <path d="M 53.21875 0 
L 44.671875 0 
L 37.9375 19.484375 
L 13.28125 19.484375 
L 7.328125 0 
L 0.34375 0 
L 21.96875 66.65625 
L 31.5 66.65625 
z
M 36.1875 25.734375 
L 25.921875 57.765625 
L 15.578125 25.734375 
z
" id="FranklinGothic-Book-65"/>
      </defs>
      <use xlink:href="#FranklinGothic-Book-78"/>
      <use x="65.722656" xlink:href="#FranklinGothic-Book-79"/>
      <use x="127.058594" xlink:href="#FranklinGothic-Book-65"/>
      <use x="180.623047" xlink:href="#FranklinGothic-Book-65"/>
      <use x="231.5625" xlink:href="#FranklinGothic-Book-71"/>
      <use x="296.259766" xlink:href="#FranklinGothic-Book-108"/>
      <use x="319.257812" xlink:href="#FranklinGothic-Book-111"/>
      <use x="371.210938" xlink:href="#FranklinGothic-Book-98"/>
      <use x="424.921875" xlink:href="#FranklinGothic-Book-97"/>
      <use x="477.802734" xlink:href="#FranklinGothic-Book-108"/>
      <use x="500.800781" xlink:href="#FranklinGothic-Book-84"/>
      <use x="542.835938" xlink:href="#FranklinGothic-Book-101"/>
      <use x="594.886719" xlink:href="#FranklinGothic-Book-109"/>
      <use x="675.408203" xlink:href="#FranklinGothic-Book-112"/>
      <use x="728.826172" xlink:href="#FranklinGothic-Book-32"/>
      <use x="753.826172" xlink:href="#FranklinGothic-Book-40"/>
      <use x="783.171875" xlink:href="#FranklinGothic-Book-49"/>
      <use x="841.189453" xlink:href="#FranklinGothic-Book-56"/>
      <use x="899.832031" xlink:href="#FranklinGothic-Book-56"/>
      <use x="958.474609" xlink:href="#FranklinGothic-Book-48"/>
      <use x="1017.117188" xlink:href="#FranklinGothic-Book-45"/>
      <use x="1042.117188" xlink:href="#FranklinGothic-Book-50"/>
      <use x="1100.759766" xlink:href="#FranklinGothic-Book-48"/>
      <use x="1159.402344" xlink:href="#FranklinGothic-Book-50"/>
      <use x="1218.044922" xlink:href="#FranklinGothic-Book-50"/>
      <use x="1276.6875" xlink:href="#FranklinGothic-Book-41"/>
     </g>
    </g>
    <g id="line2d_24"/>
    <g id="text_26">
     <!-- GISTEMP (1880-2022) -->
     <g style="fill:#56b4e9;" transform="translate(185.856 184.3809)scale(0.2 -0.2)">
      <defs>
       <path d="M 16.703125 0 
L 8.34375 0 
L 8.34375 66.65625 
L 16.703125 66.65625 
z
" id="FranklinGothic-Book-73"/>
       <path d="M 1.03125 17.71875 
L 8.546875 19.4375 
Q 13.09375 5.8125 28.21875 5.8125 
Q 36.140625 5.8125 40.140625 9.15625 
Q 44.140625 12.5 44.140625 18.109375 
Q 44.140625 22.359375 41.078125 24.953125 
Q 38.03125 27.546875 34.03125 28.515625 
L 20.703125 31.84375 
Q 15.53125 33.15625 12.234375 35.03125 
Q 8.9375 36.921875 6.640625 40.828125 
Q 4.34375 44.734375 4.34375 49.75 
Q 4.34375 58.109375 10.640625 63.0625 
Q 16.9375 68.015625 26.8125 68.015625 
Q 44.96875 68.015625 50.6875 51.5625 
L 43.109375 49.3125 
Q 41.796875 55.171875 36.90625 58.171875 
Q 32.03125 61.1875 26.515625 61.1875 
Q 21.046875 61.1875 16.765625 58.296875 
Q 12.5 55.421875 12.5 50.140625 
Q 12.5 42.78125 23.34375 40.1875 
L 35.796875 37.203125 
Q 52.875 33.109375 52.875 18.796875 
Q 52.875 10.15625 46.453125 4.421875 
Q 40.046875 -1.3125 28.375 -1.3125 
Q 7.671875 -1.3125 1.03125 17.71875 
z
" id="FranklinGothic-Book-83"/>
       <path d="M 51.46875 7.328125 
L 51.46875 0 
L 8.34375 0 
L 8.34375 66.65625 
L 50.53125 66.65625 
L 50.53125 59.328125 
L 16.703125 59.328125 
L 16.703125 38.140625 
L 43.5625 38.140625 
L 43.5625 31.34375 
L 16.703125 31.34375 
L 16.703125 7.328125 
z
" id="FranklinGothic-Book-69"/>
       <path d="M 72.703125 0 
L 64.59375 0 
L 64.59375 58.203125 
L 42.921875 0 
L 37.25 0 
L 15.4375 58.203125 
L 15.4375 0 
L 8.34375 0 
L 8.34375 66.65625 
L 20.75 66.65625 
L 40.828125 13.328125 
L 60.5 66.65625 
L 72.703125 66.65625 
z
" id="FranklinGothic-Book-77"/>
       <path d="M 16.703125 0 
L 8.34375 0 
L 8.34375 66.65625 
L 31.984375 66.65625 
Q 43.0625 66.65625 48.328125 60.625 
Q 53.609375 54.59375 53.609375 46.875 
Q 53.609375 38.28125 47.875 32.65625 
Q 42.140625 27.046875 32.859375 27.046875 
L 16.703125 27.046875 
z
M 16.703125 33.984375 
L 32.03125 33.984375 
Q 37.9375 33.984375 41.546875 37.515625 
Q 45.171875 41.0625 45.171875 46.875 
Q 45.171875 51.859375 41.9375 55.765625 
Q 38.71875 59.671875 32.625 59.671875 
L 16.703125 59.671875 
z
" id="FranklinGothic-Book-80"/>
      </defs>
      <use xlink:href="#FranklinGothic-Book-71"/>
      <use x="64.697266" xlink:href="#FranklinGothic-Book-73"/>
      <use x="89.697266" xlink:href="#FranklinGothic-Book-83"/>
      <use x="144.630859" xlink:href="#FranklinGothic-Book-84"/>
      <use x="193.166016" xlink:href="#FranklinGothic-Book-69"/>
      <use x="247.951172" xlink:href="#FranklinGothic-Book-77"/>
      <use x="328.957031" xlink:href="#FranklinGothic-Book-80"/>
      <use x="384.865234" xlink:href="#FranklinGothic-Book-32"/>
      <use x="409.865234" xlink:href="#FranklinGothic-Book-40"/>
      <use x="439.210938" xlink:href="#FranklinGothic-Book-49"/>
      <use x="497.228516" xlink:href="#FranklinGothic-Book-56"/>
      <use x="555.871094" xlink:href="#FranklinGothic-Book-56"/>
      <use x="614.513672" xlink:href="#FranklinGothic-Book-48"/>
      <use x="673.15625" xlink:href="#FranklinGothic-Book-45"/>
      <use x="698.15625" xlink:href="#FranklinGothic-Book-50"/>
      <use x="756.798828" xlink:href="#FranklinGothic-Book-48"/>
      <use x="815.441406" xlink:href="#FranklinGothic-Book-50"/>
      <use x="874.083984" xlink:href="#FranklinGothic-Book-50"/>
      <use x="932.726562" xlink:href="#FranklinGothic-Book-41"/>
     </g>
    </g>
    <g id="line2d_25"/>
    <g id="text_27">
     <!-- Berkeley Earth (1850-2022) -->
     <g style="fill:#009e73;" transform="translate(185.856 211.71215)scale(0.2 -0.2)">
      <defs>
       <path d="M 8.34375 0 
L 8.34375 66.65625 
L 34.71875 66.65625 
Q 44.671875 66.65625 49.484375 61.765625 
Q 54.296875 56.890625 54.296875 50.4375 
Q 54.296875 39.109375 42.484375 35.40625 
Q 49.515625 33.59375 52.921875 28.953125 
Q 56.34375 24.3125 56.34375 18.453125 
Q 56.34375 10.59375 51.046875 5.296875 
Q 45.75 0 34.71875 0 
z
M 16.40625 38.09375 
L 30.90625 38.09375 
Q 39.9375 38.09375 42.96875 41.53125 
Q 46 44.96875 46 49.609375 
Q 46 54.203125 42.75 57.03125 
Q 39.5 59.859375 33.0625 59.859375 
L 16.40625 59.859375 
z
M 16.40625 7.328125 
L 34.28125 7.328125 
Q 40.828125 7.328125 44.390625 10.5 
Q 47.953125 13.671875 47.953125 18.75 
Q 47.953125 22.3125 46.34375 25.359375 
Q 44.734375 28.421875 41.796875 30.078125 
Q 38.875 31.734375 33.0625 31.734375 
L 16.40625 31.734375 
z
" id="FranklinGothic-Book-66"/>
       <path d="M 48.390625 0 
L 40.4375 0 
L 26.03125 27.546875 
L 15.328125 15.234375 
L 15.328125 0 
L 7.671875 0 
L 7.671875 66.65625 
L 15.328125 66.65625 
L 15.328125 23.96875 
L 38.234375 49.3125 
L 46.4375 49.3125 
L 31 31.984375 
z
" id="FranklinGothic-Book-107"/>
       <path d="M 41.5 49.3125 
L 21.734375 -5.765625 
Q 17.4375 -17.671875 8.015625 -17.671875 
Q 5.03125 -17.671875 1.421875 -16.65625 
L 1.421875 -10.640625 
Q 4.390625 -11.328125 6.546875 -11.328125 
Q 10.203125 -11.328125 12.671875 -9.21875 
Q 15.140625 -7.125 17.578125 0.921875 
L 0.53125 49.3125 
L 8.34375 49.3125 
L 21.53125 12.25 
L 35.0625 49.3125 
z
" id="FranklinGothic-Book-121"/>
       <path d="M 46.34375 0 
L 38.671875 0 
L 38.671875 29.9375 
Q 38.671875 35.203125 38.015625 37.84375 
Q 37.359375 40.484375 34.890625 42.40625 
Q 32.421875 44.34375 29.203125 44.34375 
Q 23.296875 44.34375 19.3125 39.5 
Q 15.328125 34.671875 15.328125 26.5625 
L 15.328125 0 
L 7.671875 0 
L 7.671875 66.65625 
L 15.328125 66.65625 
L 15.328125 40.234375 
Q 20.5625 50.6875 30.28125 50.6875 
Q 34.625 50.6875 38.015625 48.96875 
Q 41.40625 47.265625 43.203125 44.484375 
Q 45.015625 41.703125 45.671875 38.984375 
Q 46.34375 36.28125 46.34375 29.9375 
z
" id="FranklinGothic-Book-104"/>
      </defs>
      <use xlink:href="#FranklinGothic-Book-66"/>
      <use x="60.449219" xlink:href="#FranklinGothic-Book-101"/>
      <use x="112.5" xlink:href="#FranklinGothic-Book-114"/>
      <use x="144.958984" xlink:href="#FranklinGothic-Book-107"/>
      <use x="192.806641" xlink:href="#FranklinGothic-Book-101"/>
      <use x="244.857422" xlink:href="#FranklinGothic-Book-108"/>
      <use x="267.855469" xlink:href="#FranklinGothic-Book-101"/>
      <use x="318.28125" xlink:href="#FranklinGothic-Book-121"/>
      <use x="359.785156" xlink:href="#FranklinGothic-Book-32"/>
      <use x="384.785156" xlink:href="#FranklinGothic-Book-69"/>
      <use x="439.570312" xlink:href="#FranklinGothic-Book-97"/>
      <use x="492.451172" xlink:href="#FranklinGothic-Book-114"/>
      <use x="528.785156" xlink:href="#FranklinGothic-Book-116"/>
      <use x="559.546875" xlink:href="#FranklinGothic-Book-104"/>
      <use x="613.550781" xlink:href="#FranklinGothic-Book-32"/>
      <use x="638.550781" xlink:href="#FranklinGothic-Book-40"/>
      <use x="667.896484" xlink:href="#FranklinGothic-Book-49"/>
      <use x="725.914062" xlink:href="#FranklinGothic-Book-56"/>
      <use x="784.556641" xlink:href="#FranklinGothic-Book-53"/>
      <use x="843.199219" xlink:href="#FranklinGothic-Book-48"/>
      <use x="901.841797" xlink:href="#FranklinGothic-Book-45"/>
      <use x="926.841797" xlink:href="#FranklinGothic-Book-50"/>
      <use x="985.484375" xlink:href="#FranklinGothic-Book-48"/>
      <use x="1044.126953" xlink:href="#FranklinGothic-Book-50"/>
      <use x="1102.769531" xlink:href="#FranklinGothic-Book-50"/>
      <use x="1161.412109" xlink:href="#FranklinGothic-Book-41"/>
     </g>
    </g>
    <g id="line2d_26"/>
    <g id="text_28">
     <!-- JRA-55 (1958-2022) -->
     <g style="fill:#d55e00;" transform="translate(185.856 239.246525)scale(0.2 -0.2)">
      <defs>
       <path d="M 29.6875 66.65625 
L 29.6875 20.359375 
Q 29.6875 8.25 24.21875 3.46875 
Q 18.75 -1.3125 9.71875 -1.3125 
Q 4.890625 -1.3125 0 0 
L 0 6.84375 
Q 4.78125 5.859375 8.6875 5.859375 
Q 14.265625 5.859375 16.890625 7.515625 
Q 19.53125 9.1875 20.4375 11.8125 
Q 21.34375 14.453125 21.34375 20.359375 
L 21.34375 66.65625 
z
" id="FranklinGothic-Book-74"/>
      </defs>
      <use xlink:href="#FranklinGothic-Book-74"/>
      <use x="37.353516" xlink:href="#FranklinGothic-Book-82"/>
      <use x="98.632812" xlink:href="#FranklinGothic-Book-65"/>
      <use x="153.947266" xlink:href="#FranklinGothic-Book-45"/>
      <use x="178.947266" xlink:href="#FranklinGothic-Book-53"/>
      <use x="237.589844" xlink:href="#FranklinGothic-Book-53"/>
      <use x="296.232422" xlink:href="#FranklinGothic-Book-32"/>
      <use x="321.232422" xlink:href="#FranklinGothic-Book-40"/>
      <use x="350.578125" xlink:href="#FranklinGothic-Book-49"/>
      <use x="407.845703" xlink:href="#FranklinGothic-Book-57"/>
      <use x="466.488281" xlink:href="#FranklinGothic-Book-53"/>
      <use x="525.130859" xlink:href="#FranklinGothic-Book-56"/>
      <use x="583.773438" xlink:href="#FranklinGothic-Book-45"/>
      <use x="608.773438" xlink:href="#FranklinGothic-Book-50"/>
      <use x="667.416016" xlink:href="#FranklinGothic-Book-48"/>
      <use x="726.058594" xlink:href="#FranklinGothic-Book-50"/>
      <use x="784.701172" xlink:href="#FranklinGothic-Book-50"/>
      <use x="843.34375" xlink:href="#FranklinGothic-Book-41"/>
     </g>
    </g>
    <g id="line2d_27"/>
    <g id="text_29">
     <!-- ERA5 (1979-2022) -->
     <g style="fill:#0072b2;" transform="translate(185.856 266.577775)scale(0.2 -0.2)">
      <defs>
       <path d="M 28.078125 0 
L 19.484375 0 
Q 19.484375 16.75 26.3125 32.59375 
Q 33.15625 48.4375 43.0625 59.328125 
L 6.890625 59.328125 
L 7.71875 66.65625 
L 51.765625 66.65625 
L 51.765625 61.671875 
Q 39.84375 47.3125 33.9375 31.78125 
Q 28.03125 16.265625 28.03125 2.296875 
Q 28.03125 1.515625 28.078125 0 
z
" id="FranklinGothic-Book-55"/>
      </defs>
      <use xlink:href="#FranklinGothic-Book-69"/>
      <use x="54.785156" xlink:href="#FranklinGothic-Book-82"/>
      <use x="116.064453" xlink:href="#FranklinGothic-Book-65"/>
      <use x="169.628906" xlink:href="#FranklinGothic-Book-53"/>
      <use x="228.271484" xlink:href="#FranklinGothic-Book-32"/>
      <use x="253.271484" xlink:href="#FranklinGothic-Book-40"/>
      <use x="282.617188" xlink:href="#FranklinGothic-Book-49"/>
      <use x="339.884766" xlink:href="#FranklinGothic-Book-57"/>
      <use x="392.777344" xlink:href="#FranklinGothic-Book-55"/>
      <use x="451.419922" xlink:href="#FranklinGothic-Book-57"/>
      <use x="510.0625" xlink:href="#FranklinGothic-Book-45"/>
      <use x="535.0625" xlink:href="#FranklinGothic-Book-50"/>
      <use x="593.705078" xlink:href="#FranklinGothic-Book-48"/>
      <use x="652.347656" xlink:href="#FranklinGothic-Book-50"/>
      <use x="710.990234" xlink:href="#FranklinGothic-Book-50"/>
      <use x="769.632812" xlink:href="#FranklinGothic-Book-41"/>
     </g>
    </g>
   </g>
   <g id="line2d_28">
    <path clip-path="url(#pcb2228ee32)" d="M 184.581818 519.152992 
L 189.300634 487.752406 
L 194.01945 480.506117 
L 198.738266 481.987276 
L 203.457082 478.751512 
L 208.175899 476.58674 
L 212.894715 509.058319 
L 217.613531 548.115361 
L 222.332347 491.124892 
L 227.051163 460.225622 
L 231.769979 502.017113 
L 236.488795 523.710406 
L 241.207611 554.04 
L 245.926427 491.37555 
L 250.645243 496.20641 
L 255.364059 468.7252 
L 260.082875 452.295721 
L 264.801691 440.08185 
L 269.520507 451.179154 
L 274.239323 453.024907 
L 278.95814 473.715569 
L 283.676956 488.276508 
L 288.395772 479.161679 
L 293.114588 469.727831 
L 297.833404 482.784824 
L 302.55222 494.360657 
L 307.271036 494.611315 
L 311.989852 390.200948 
L 316.708668 368.416506 
L 321.427484 462.891709 
L 326.1463 483.445649 
L 330.865116 452.06785 
L 340.302748 481.577109 
L 345.021564 528.222247 
L 349.740381 518.742824 
L 354.459197 526.809448 
L 359.178013 536.949696 
L 363.896829 479.708569 
L 368.615645 445.072219 
L 373.334461 524.872547 
L 378.053277 493.358026 
L 382.772093 510.266033 
L 387.490909 504.84271 
L 392.209725 502.153836 
L 396.928541 482.169573 
L 401.647357 457.969702 
L 406.366173 453.503435 
L 411.084989 510.744562 
L 415.803805 463.598109 
L 420.522622 433.952127 
L 425.241438 454.027538 
L 429.960254 498.46233 
L 434.67907 525.419437 
L 439.397886 540.869072 
L 444.116702 491.238828 
L 448.835518 468.087162 
L 453.554334 514.709513 
L 458.27315 520.246771 
L 462.991966 538.134623 
L 467.710782 527.10568 
L 472.429598 530.500954 
L 477.148414 511.359813 
L 481.86723 503.110893 
L 486.586047 452.865397 
L 491.304863 438.555116 
L 496.023679 502.632364 
L 500.742495 544.423855 
L 505.461311 497.778718 
L 510.180127 480.597265 
L 514.898943 464.760249 
L 519.617759 449.629633 
L 524.336575 473.852291 
L 529.055391 464.464017 
L 533.774207 466.833873 
L 538.493023 455.212466 
L 543.211839 417.727731 
L 547.930655 449.903078 
L 552.649471 446.872397 
L 557.368288 496.867235 
L 562.087104 434.08885 
L 566.80592 417.066906 
L 571.524736 428.392081 
L 576.243552 481.440387 
L 580.962368 441.175629 
L 585.681184 458.06085 
L 590.4 439.238728 
L 595.118816 395.487548 
L 599.837632 393.778518 
L 604.556448 399.771518 
L 609.275264 377.03002 
L 613.99408 389.038807 
L 618.712896 386.532229 
L 623.431712 371.766206 
L 628.150529 343.487449 
L 632.869345 378.078225 
L 637.588161 418.160686 
L 642.306977 399.156267 
L 647.025793 424.837298 
L 651.744609 427.321089 
L 656.463425 444.798774 
L 661.182241 396.171161 
L 670.619873 356.179848 
L 675.338689 408.86356 
L 680.057505 424.609427 
L 684.776321 446.826823 
L 689.495137 384.094012 
L 694.213953 382.635639 
L 698.93277 387.238628 
L 703.651586 402.802199 
L 708.370402 382.202685 
L 713.089218 398.039701 
L 717.808034 386.441081 
L 722.52685 458.858398 
L 727.245666 426.386819 
L 731.964482 409.342089 
L 736.683298 401.00202 
L 741.402114 422.148423 
L 746.12093 381.359563 
L 750.839746 394.279834 
L 755.558562 427.00207 
L 760.277378 396.786412 
L 764.996195 359.324464 
L 769.715011 415.471811 
L 774.433827 397.606746 
L 779.152643 424.335982 
L 783.871459 334.349833 
L 788.590275 368.689951 
L 793.309091 348.044863 
L 798.027907 314.684589 
L 802.746723 301.080706 
L 807.465539 359.894141 
L 812.184355 310.491767 
L 816.903171 356.430506 
L 821.621987 357.41035 
L 826.340803 342.530392 
L 831.059619 304.612703 
L 835.778436 292.353258 
L 840.497252 323.685483 
L 845.216068 272.437356 
L 849.934884 275.787056 
L 854.6537 332.754737 
L 859.372516 317.236741 
L 864.091332 303.929091 
L 868.810148 260.793162 
L 873.528964 291.236691 
L 878.24778 252.794899 
L 882.966596 211.68702 
L 887.685412 277.815105 
L 892.404228 277.610022 
L 897.123044 240.945622 
L 901.84186 215.560823 
L 906.560677 220.551192 
L 911.279493 244.204173 
L 915.998309 198.630028 
L 920.717125 212.279484 
L 925.435941 208.542404 
L 930.154757 243.361051 
L 934.873573 206.035826 
L 939.592389 187.350427 
L 944.311205 217.406576 
L 953.748837 206.947309 
L 958.467653 187.646659 
L 963.186469 147.655346 
L 967.905285 110.466844 
L 972.624101 136.671977 
L 977.342918 157.499362 
L 982.061734 120.37922 
L 986.78055 113.110144 
L 991.499366 155.106719 
L 996.218182 142.539925 
L 996.218182 142.539925 
" style="fill:none;stroke:#009e73;stroke-linecap:round;stroke-width:3;"/>
   </g>
   <g id="line2d_29">
    <path clip-path="url(#pcb2228ee32)" d="M 326.1463 436.064489 
L 330.865116 411.910192 
L 335.583932 418.290572 
L 340.302748 436.064489 
L 345.021564 465.687683 
L 349.740381 479.132056 
L 354.459197 473.435288 
L 359.178013 486.65179 
L 363.896829 434.925135 
L 368.615645 416.695477 
L 373.334461 483.4616 
L 378.053277 448.825249 
L 382.772093 462.725364 
L 387.490909 472.979546 
L 392.209725 469.333615 
L 396.928541 449.280991 
L 401.647357 417.834831 
L 406.366173 416.695477 
L 411.084989 462.041752 
L 420.522622 408.947872 
L 425.241438 429.228367 
L 429.960254 462.041752 
L 434.67907 487.335402 
L 439.397886 514.679889 
L 444.116702 458.39582 
L 448.835518 447.913767 
L 453.554334 492.8043 
L 458.27315 503.514224 
L 462.991966 519.693045 
L 467.710782 505.109319 
L 472.429598 507.615897 
L 477.148414 485.740307 
L 481.86723 481.638634 
L 486.586047 429.000496 
L 491.304863 426.266047 
L 496.023679 485.740307 
L 500.742495 513.540536 
L 505.461311 468.422132 
L 510.180127 463.636847 
L 514.898943 462.041752 
L 519.617759 439.026808 
L 524.336575 464.7762 
L 529.055391 460.218786 
L 533.774207 462.497493 
L 538.493023 448.369508 
L 543.211839 417.379089 
L 547.930655 447.458025 
L 552.649471 441.989128 
L 557.368288 486.196049 
L 562.087104 430.13985 
L 566.80592 413.505287 
L 571.524736 430.823462 
L 576.243552 466.143425 
L 580.962368 422.164374 
L 585.681184 442.900611 
L 590.4 428.544755 
L 595.118816 395.503499 
L 599.837632 388.439507 
L 604.556448 392.54118 
L 609.275264 353.575286 
L 613.99408 337.168593 
L 618.712896 369.298366 
L 623.431712 363.145856 
L 628.150529 332.155437 
L 632.869345 363.373727 
L 637.588161 407.580648 
L 642.306977 394.819887 
L 647.025793 416.467606 
L 651.744609 418.062701 
L 656.463425 435.380877 
L 661.182241 406.897036 
L 665.901057 385.477187 
L 670.619873 366.336046 
L 675.338689 424.215211 
L 680.057505 426.721789 
L 684.776321 439.938291 
L 689.495137 374.995134 
L 694.213953 371.349202 
L 698.93277 379.780419 
L 703.651586 395.047758 
L 708.370402 372.260685 
L 713.089218 379.780419 
L 717.808034 372.944297 
L 722.52685 442.67274 
L 727.245666 417.379089 
L 731.964482 403.706846 
L 736.683298 394.364146 
L 741.402114 410.770838 
L 746.12093 374.083651 
L 750.839746 381.375514 
L 755.558562 411.22658 
L 760.277378 386.1608 
L 764.996195 344.004715 
L 769.715011 407.580648 
L 774.433827 391.629697 
L 779.152643 415.328253 
L 783.871459 339.903042 
L 788.590275 369.754107 
L 793.309091 343.321103 
L 798.027907 318.255323 
L 802.746723 300.253536 
L 807.465539 349.473613 
L 812.184355 302.076502 
L 816.903171 345.144069 
L 821.621987 355.853993 
L 826.340803 338.991559 
L 831.059619 300.709277 
L 835.778436 282.023878 
L 840.497252 313.925779 
L 845.216068 266.300797 
L 849.934884 278.150075 
L 854.6537 328.509506 
L 859.372516 325.547186 
L 864.091332 302.760114 
L 868.810148 266.98441 
L 873.528964 299.569924 
L 878.24778 262.882737 
L 882.966596 222.777489 
L 887.685412 284.302585 
L 892.404228 282.023878 
L 897.123044 242.830113 
L 901.84186 217.764333 
L 906.560677 220.04304 
L 911.279493 243.285854 
L 915.998309 203.864218 
L 920.717125 215.029884 
L 925.435941 207.054409 
L 930.154757 240.779276 
L 934.873573 210.016728 
L 939.592389 191.103458 
L 944.311205 222.321747 
L 949.030021 211.611823 
L 953.748837 204.092089 
L 958.467653 184.950948 
L 963.186469 143.250605 
L 967.905285 111.348703 
L 972.624101 137.325966 
L 977.342918 157.150719 
L 982.061734 121.602886 
L 986.78055 109.753608 
L 991.499366 157.37859 
L 996.218182 141.998007 
L 996.218182 141.998007 
" style="fill:none;stroke:#56b4e9;stroke-linecap:round;stroke-width:3;"/>
   </g>
   <g id="line2d_30">
    <path clip-path="url(#pcb2228ee32)" d="M 326.1463 426.068208 
L 330.865116 415.96818 
L 335.583932 419.514577 
L 340.302748 442.144966 
L 345.021564 465.707779 
L 349.740381 461.350549 
L 354.459197 458.816421 
L 359.178013 470.643527 
L 363.896829 427.883084 
L 368.615645 415.706288 
L 373.334461 485.181634 
L 378.053277 461.520677 
L 382.772093 474.198675 
L 387.490909 480.95486 
L 392.209725 477.276502 
L 396.928541 458.496354 
L 401.647357 418.0058 
L 406.366173 418.655755 
L 411.084989 466.661213 
L 415.803805 434.868985 
L 420.522622 412.557274 
L 425.241438 434.627488 
L 429.960254 463.9179 
L 434.67907 494.797961 
L 439.397886 515.987614 
L 444.116702 468.105936 
L 448.835518 449.593058 
L 453.554334 496.499381 
L 458.27315 510.073458 
L 462.991966 513.571296 
L 467.710782 503.055108 
L 472.429598 514.26637 
L 477.148414 486.000032 
L 481.86723 480.949004 
L 486.586047 432.462739 
L 491.304863 419.639542 
L 496.023679 482.359227 
L 500.742495 502.56571 
L 505.461311 477.451165 
L 510.180127 462.590553 
L 514.898943 457.48258 
L 519.617759 438.361378 
L 524.336575 461.312654 
L 529.055391 462.890636 
L 533.774207 460.455085 
L 538.493023 443.251073 
L 543.211839 414.797152 
L 547.930655 441.401834 
L 552.649471 443.24328 
L 557.368288 483.068384 
L 562.087104 423.533397 
L 566.80592 410.733944 
L 571.524736 429.09064 
L 576.243552 464.612746 
L 580.962368 424.022407 
L 585.681184 436.611422 
L 590.4 426.144499 
L 595.118816 396.501047 
L 599.837632 398.998761 
L 604.556448 390.768617 
L 609.275264 350.377346 
L 613.99408 319.229696 
L 618.712896 363.816045 
L 623.431712 364.600216 
L 628.150529 317.451849 
L 632.869345 344.479687 
L 637.588161 395.752514 
L 642.306977 402.47028 
L 647.025793 407.532565 
L 651.744609 413.095072 
L 656.463425 434.903371 
L 661.182241 393.581772 
L 665.901057 381.782307 
L 670.619873 358.289883 
L 675.338689 420.742163 
L 680.057505 428.665023 
L 684.776321 443.563256 
L 689.495137 374.036115 
L 694.213953 359.581067 
L 698.93277 371.623146 
L 703.651586 380.011227 
L 708.370402 367.557431 
L 713.089218 364.646132 
L 717.808034 361.191612 
L 722.52685 432.590301 
L 727.245666 413.041112 
L 731.964482 396.737691 
L 736.683298 394.542384 
L 741.402114 401.421551 
L 746.12093 365.157155 
L 750.839746 378.287271 
L 755.558562 412.028978 
L 760.277378 383.751862 
L 764.996195 340.906081 
L 769.715011 410.843618 
L 774.433827 390.305128 
L 779.152643 412.589632 
L 783.871459 336.140666 
L 788.590275 362.254743 
L 793.309091 331.945543 
L 798.027907 317.463311 
L 802.746723 305.469791 
L 807.465539 341.11472 
L 812.184355 295.736019 
L 816.903171 347.998649 
L 821.621987 350.831469 
L 826.340803 329.155585 
L 831.059619 289.002371 
L 835.778436 286.542529 
L 840.497252 313.480107 
L 845.216068 271.619252 
L 849.934884 287.733723 
L 854.6537 329.690489 
L 859.372516 317.309521 
L 864.091332 300.159423 
L 868.810148 266.074497 
L 873.528964 305.851337 
L 878.24778 253.879721 
L 882.966596 216.255165 
L 887.685412 274.191093 
L 892.404228 278.552379 
L 897.123044 238.780574 
L 901.84186 224.90965 
L 906.560677 219.863088 
L 911.279493 235.331523 
L 915.998309 212.068291 
L 920.717125 220.75821 
L 925.435941 225.494116 
L 930.154757 246.401756 
L 934.873573 218.668863 
L 939.592389 197.108305 
L 944.311205 237.650335 
L 949.030021 220.72747 
L 953.748837 210.580569 
L 958.467653 192.257051 
L 963.186469 140.73548 
L 967.905285 122.709242 
L 972.624101 146.486208 
L 977.342918 169.545016 
L 982.061734 135.625251 
L 986.78055 126.49324 
L 991.499366 164.16549 
L 996.218182 159.079125 
L 996.218182 159.079125 
" style="fill:none;stroke:#e69f00;stroke-linecap:round;stroke-width:3;"/>
   </g>
   <g id="line2d_31">
    <path clip-path="url(#pcb2228ee32)" d="M 184.581818 483.214727 
L 189.300634 432.816385 
L 194.01945 431.736076 
L 198.738266 442.935113 
L 203.457082 448.752815 
L 208.175899 450.207863 
L 212.894715 456.607157 
L 217.613531 496.769737 
L 222.332347 475.31406 
L 227.051163 445.899531 
L 231.769979 475.696744 
L 236.488795 486.391703 
L 241.207611 515.683288 
L 245.926427 463.16696 
L 250.645243 496.27936 
L 255.364059 459.952519 
L 260.082875 462.324051 
L 264.801691 466.617872 
L 269.520507 465.249928 
L 274.239323 455.57264 
L 278.95814 458.668151 
L 283.676956 469.794583 
L 288.395772 458.709472 
L 293.114588 462.343656 
L 297.833404 471.071701 
L 302.55222 471.721067 
L 307.271036 484.978762 
L 311.989852 396.655769 
L 316.708668 372.102159 
L 321.427484 452.035325 
L 326.1463 455.370739 
L 330.865116 432.514423 
L 335.583932 449.819266 
L 340.302748 463.749727 
L 345.021564 503.630479 
L 349.740381 497.834404 
L 354.459197 484.10201 
L 359.178013 505.39849 
L 363.896829 472.747289 
L 368.615645 437.340736 
L 373.334461 507.605845 
L 378.053277 478.74559 
L 382.772093 507.797358 
L 387.490909 504.259172 
L 392.209725 501.290842 
L 396.928541 491.716903 
L 401.647357 446.668414 
L 406.366173 440.0491 
L 411.084989 501.845443 
L 415.803805 466.199586 
L 420.522622 433.125167 
L 425.241438 449.244612 
L 429.960254 489.046079 
L 434.67907 514.843446 
L 439.397886 532.408185 
L 444.116702 480.505589 
L 448.835518 456.275086 
L 453.554334 506.867416 
L 458.27315 509.523393 
L 462.991966 515.510235 
L 467.710782 514.213926 
L 472.429598 516.450949 
L 477.148414 499.078427 
L 481.86723 496.748541 
L 486.586047 440.812628 
L 491.304863 421.466813 
L 496.023679 483.91234 
L 500.742495 517.493982 
L 505.461311 485.108486 
L 510.180127 458.019367 
L 514.898943 450.653463 
L 519.617759 434.819979 
L 524.336575 461.768267 
L 529.055391 455.944558 
L 533.774207 454.33989 
L 538.493023 446.23582 
L 543.211839 402.596807 
L 547.930655 431.737719 
L 552.649471 425.545965 
L 557.368288 476.405364 
L 562.087104 417.354607 
L 566.80592 397.281644 
L 571.524736 408.783826 
L 576.243552 457.151502 
L 580.962368 416.679595 
L 585.681184 425.353916 
L 590.4 415.362707 
L 595.118816 374.257926 
L 599.837632 372.344305 
L 604.556448 380.163853 
L 609.275264 348.243811 
L 613.99408 358.581806 
L 618.712896 368.623589 
L 623.431712 367.254182 
L 628.150529 329.603268 
L 632.869345 357.225786 
L 637.588161 401.496828 
L 642.306977 393.947767 
L 647.025793 403.096063 
L 651.744609 408.330063 
L 656.463425 430.976645 
L 661.182241 385.730318 
L 665.901057 364.809451 
L 670.619873 347.780349 
L 675.338689 400.932824 
L 680.057505 422.961465 
L 684.776321 440.969361 
L 689.495137 378.670232 
L 694.213953 373.829609 
L 698.93277 382.134751 
L 703.651586 400.587413 
L 708.370402 374.476261 
L 713.089218 386.523436 
L 717.808034 379.07246 
L 722.52685 452.645771 
L 727.245666 424.8969 
L 731.964482 409.719805 
L 736.683298 401.14231 
L 741.402114 415.119714 
L 746.12093 377.585144 
L 750.839746 392.280032 
L 755.558562 425.31933 
L 760.277378 394.664617 
L 764.996195 355.354058 
L 769.715011 416.187527 
L 774.433827 399.293257 
L 779.152643 428.034345 
L 783.871459 340.819049 
L 788.590275 367.570913 
L 793.309091 344.163388 
L 798.027907 315.393176 
L 802.746723 300.643569 
L 807.465539 359.638947 
L 812.184355 307.800556 
L 816.903171 355.881436 
L 821.621987 355.409724 
L 826.340803 342.842965 
L 831.059619 302.553755 
L 835.778436 291.855134 
L 840.497252 319.993013 
L 845.216068 270.414121 
L 849.934884 276.338559 
L 854.6537 334.85569 
L 859.372516 323.70962 
L 864.091332 305.145091 
L 868.810148 265.95596 
L 873.528964 293.348776 
L 878.24778 253.52998 
L 882.966596 211.143846 
L 887.685412 280.279329 
L 892.404228 278.47464 
L 897.123044 235.216873 
L 901.84186 220.399952 
L 906.560677 220.207532 
L 911.279493 241.20795 
L 915.998309 203.064622 
L 920.717125 212.44648 
L 925.435941 207.210384 
L 930.154757 241.678516 
L 934.873573 205.821197 
L 939.592389 182.963998 
L 944.311205 221.977392 
L 949.030021 211.064385 
L 953.748837 198.494594 
L 958.467653 185.014775 
L 963.186469 143.384779 
L 967.905285 113.903937 
L 972.624101 137.89951 
L 977.342918 160.464244 
L 982.061734 125.348842 
L 986.78055 116.674849 
L 991.499366 160.682486 
L 996.218182 146.487624 
L 996.218182 146.487624 
" style="fill:none;stroke:#696969;stroke-linecap:round;stroke-width:3;"/>
   </g>
  </g>
 </g>
 <defs>
  <clipPath id="pcb2228ee32">
   <rect height="498.96" width="892.8" x="144" y="77.76"/>
  </clipPath>
 </defs>
</svg>
