<?xml version="1.0" encoding="utf-8" standalone="no"?>
<!DOCTYPE svg PUBLIC "-//W3C//DTD SVG 1.1//EN"
  "http://www.w3.org/Graphics/SVG/1.1/DTD/svg11.dtd">
<!-- Created with matplotlib (https://matplotlib.org/) -->
<svg height="648pt" version="1.1" viewBox="0 0 1152 648" width="1152pt" xmlns="http://www.w3.org/2000/svg" xmlns:xlink="http://www.w3.org/1999/xlink">
 <metadata>
  <rdf:RDF xmlns:cc="http://creativecommons.org/ns#" xmlns:dc="http://purl.org/dc/elements/1.1/" xmlns:rdf="http://www.w3.org/1999/02/22-rdf-syntax-ns#">
   <cc:Work>
    <dc:type rdf:resource="http://purl.org/dc/dcmitype/StillImage"/>
    <dc:date>2022-08-23T14:46:02.566277</dc:date>
    <dc:format>image/svg+xml</dc:format>
    <dc:creator>
     <cc:Agent>
      <dc:title>Matplotlib v3.3.1, https://matplotlib.org/</dc:title>
     </cc:Agent>
    </dc:creator>
   </cc:Work>
  </rdf:RDF>
 </metadata>
 <defs>
  <style type="text/css">*{stroke-linecap:butt;stroke-linejoin:round;}</style>
 </defs>
 <g id="figure_1">
  <g id="patch_1">
   <path d="M 0 648 
L 1152 648 
L 1152 0 
L 0 0 
z
" style="fill:#ffffff;"/>
  </g>
  <g id="axes_1">
   <g id="patch_2">
    <path d="M 144 576.72 
L 1036.8 576.72 
L 1036.8 77.76 
L 144 77.76 
z
" style="fill:none;"/>
   </g>
   <g id="patch_3">
    <path d="M 144 576.72 
L 1036.8 576.72 
" style="fill:none;stroke:#d3d3d3;stroke-linecap:square;stroke-linejoin:miter;stroke-width:1.25;"/>
   </g>
   <g id="matplotlib.axis_1">
    <g id="xtick_1">
     <g id="line2d_1">
      <defs>
       <path d="M 0 0 
L 0 6 
" id="m8481137de9" style="stroke:#696969;stroke-width:1.25;"/>
      </defs>
      <g>
       <use style="fill:#696969;stroke:#696969;stroke-width:1.25;" x="162.395858" xlink:href="#m8481137de9" y="576.72"/>
      </g>
     </g>
     <g id="text_1">
      <!-- 1985 -->
      <g style="fill:#696969;" transform="translate(144.906796 596.218438)scale(0.15 -0.15)">
       <defs>
        <path d="M 55.859375 6.203125 
L 55.859375 0 
L 9.1875 0 
L 9.1875 6.203125 
L 29.203125 6.203125 
L 29.203125 57.671875 
Q 20.359375 48.4375 10.84375 43.265625 
L 10.84375 51.65625 
Q 23.96875 58.546875 31.203125 68.015625 
L 37.15625 68.015625 
L 37.15625 6.203125 
z
" id="FranklinGothic-Book-49"/>
        <path d="M 5.71875 12.15625 
L 12.40625 14.59375 
Q 16.546875 5.375 26.375 5.375 
Q 35.890625 5.375 40.703125 13.375 
Q 45.515625 21.390625 45.65625 35.109375 
Q 39.109375 23.09375 25.984375 23.09375 
Q 16.703125 23.09375 10.40625 29.421875 
Q 4.109375 35.75 4.109375 45.0625 
Q 4.109375 54.546875 10.71875 61.28125 
Q 17.328125 68.015625 27.59375 68.015625 
Q 40.140625 68.015625 46.828125 59.203125 
Q 53.515625 50.390625 53.515625 34.96875 
Q 53.515625 18.75 46.4375 8.71875 
Q 39.359375 -1.3125 26.265625 -1.3125 
Q 10.984375 -1.3125 5.71875 12.15625 
z
M 27.828125 29.78125 
Q 34.71875 29.78125 39.375 34.59375 
Q 44.046875 39.40625 44.046875 45.84375 
Q 44.046875 52.09375 39.625 56.578125 
Q 35.203125 61.078125 27.984375 61.078125 
Q 20.65625 61.078125 16.40625 56.46875 
Q 12.15625 51.859375 12.15625 45.21875 
Q 12.15625 38.09375 16.859375 33.9375 
Q 21.578125 29.78125 27.828125 29.78125 
z
" id="FranklinGothic-Book-57"/>
        <path d="M 19.484375 34.578125 
Q 6.84375 40.09375 6.84375 50.59375 
Q 6.84375 58.203125 13.140625 63.109375 
Q 19.4375 68.015625 29.828125 68.015625 
Q 40.09375 68.015625 46.140625 63.296875 
Q 52.203125 58.59375 52.203125 50.984375 
Q 52.203125 40.375 39.265625 35.796875 
Q 49.703125 30.953125 52.359375 26.453125 
Q 55.03125 21.96875 55.03125 17.484375 
Q 55.03125 9.46875 48.21875 4.078125 
Q 41.40625 -1.3125 29.734375 -1.3125 
Q 17.28125 -1.3125 10.4375 4.171875 
Q 3.609375 9.671875 3.609375 17.234375 
Q 3.609375 28.515625 19.484375 34.578125 
z
M 29.59375 38.71875 
Q 37.984375 40.96875 41.453125 43.890625 
Q 44.921875 46.828125 44.921875 51.21875 
Q 44.921875 56.34375 40.796875 59 
Q 36.671875 61.671875 29.9375 61.671875 
Q 23.484375 61.671875 19.375 58.859375 
Q 15.28125 56.0625 15.28125 51.3125 
Q 15.28125 46.625 19.84375 43.203125 
Q 24.421875 39.796875 29.59375 38.71875 
z
M 28.65625 31.0625 
Q 11.765625 27.046875 11.765625 16.9375 
Q 11.765625 11.671875 16.375 8.328125 
Q 21 4.984375 29.984375 4.984375 
Q 37.59375 4.984375 42.234375 8.25 
Q 46.875 11.53125 46.875 16.609375 
Q 46.875 26.3125 28.65625 31.0625 
z
" id="FranklinGothic-Book-56"/>
        <path d="M 48.875 66.65625 
L 48.1875 59.46875 
L 15.4375 59.46875 
L 14.015625 37.84375 
Q 21.4375 45.125 30.328125 45.125 
Q 39.703125 45.125 46.515625 38.625 
Q 53.328125 32.125 53.328125 22.015625 
Q 53.328125 11.765625 45.921875 5.21875 
Q 38.53125 -1.3125 27.828125 -1.3125 
Q 19.4375 -1.3125 12.890625 3.078125 
Q 6.34375 7.46875 4.296875 14.453125 
L 11.421875 16.890625 
Q 15.828125 5.28125 27.9375 5.28125 
Q 35.890625 5.28125 40.578125 9.984375 
Q 45.265625 14.703125 45.265625 22.015625 
Q 45.265625 29.6875 40.625 33.984375 
Q 35.984375 38.28125 29.5 38.28125 
Q 20.015625 38.28125 13.8125 29.203125 
L 7.234375 30.609375 
L 9.375 66.65625 
z
" id="FranklinGothic-Book-53"/>
       </defs>
       <use xlink:href="#FranklinGothic-Book-49"/>
       <use x="57.267578" xlink:href="#FranklinGothic-Book-57"/>
       <use x="115.910156" xlink:href="#FranklinGothic-Book-56"/>
       <use x="174.552734" xlink:href="#FranklinGothic-Book-53"/>
      </g>
     </g>
    </g>
    <g id="xtick_2">
     <g id="line2d_2">
      <g>
       <use style="fill:#696969;stroke:#696969;stroke-width:1.25;" x="273.325657" xlink:href="#m8481137de9" y="576.72"/>
      </g>
     </g>
     <g id="text_2">
      <!-- 1990 -->
      <g style="fill:#696969;" transform="translate(255.836595 596.218438)scale(0.15 -0.15)">
       <defs>
        <path d="M 29.390625 -1.3125 
Q 17.875 -1.3125 10.984375 8.671875 
Q 4.109375 18.65625 4.109375 33.453125 
Q 4.109375 48 10.640625 58 
Q 17.1875 68.015625 29.15625 68.015625 
Q 41.65625 68.015625 48.125 57.5625 
Q 54.59375 47.125 54.59375 33.0625 
Q 54.59375 19.28125 47.953125 8.984375 
Q 41.3125 -1.3125 29.390625 -1.3125 
z
M 29.4375 5.21875 
Q 37.890625 5.21875 41.9375 12.859375 
Q 46 20.515625 46 32.078125 
Q 46 44.734375 41.84375 53.125 
Q 37.703125 61.53125 29.046875 61.53125 
Q 20.703125 61.53125 16.625 53.859375 
Q 12.546875 46.1875 12.546875 33.6875 
Q 12.546875 20.703125 16.84375 12.953125 
Q 21.140625 5.21875 29.4375 5.21875 
z
" id="FranklinGothic-Book-48"/>
       </defs>
       <use xlink:href="#FranklinGothic-Book-49"/>
       <use x="57.267578" xlink:href="#FranklinGothic-Book-57"/>
       <use x="115.910156" xlink:href="#FranklinGothic-Book-57"/>
       <use x="174.552734" xlink:href="#FranklinGothic-Book-48"/>
      </g>
     </g>
    </g>
    <g id="xtick_3">
     <g id="line2d_3">
      <g>
       <use style="fill:#696969;stroke:#696969;stroke-width:1.25;" x="384.255457" xlink:href="#m8481137de9" y="576.72"/>
      </g>
     </g>
     <g id="text_3">
      <!-- 1995 -->
      <g style="fill:#696969;" transform="translate(366.766394 596.218438)scale(0.15 -0.15)">
       <use xlink:href="#FranklinGothic-Book-49"/>
       <use x="57.267578" xlink:href="#FranklinGothic-Book-57"/>
       <use x="115.910156" xlink:href="#FranklinGothic-Book-57"/>
       <use x="174.552734" xlink:href="#FranklinGothic-Book-53"/>
      </g>
     </g>
    </g>
    <g id="xtick_4">
     <g id="line2d_4">
      <g>
       <use style="fill:#696969;stroke:#696969;stroke-width:1.25;" x="495.185256" xlink:href="#m8481137de9" y="576.72"/>
      </g>
     </g>
     <g id="text_4">
      <!-- 2000 -->
      <g style="fill:#696969;" transform="translate(477.593068 596.218438)scale(0.15 -0.15)">
       <defs>
        <path d="M 52.484375 6.9375 
L 52.484375 0 
L 5.171875 0 
L 5.171875 6.9375 
Q 33.203125 27.9375 38.59375 34.59375 
Q 44 41.265625 44 47.796875 
Q 44 53.90625 39.453125 57.65625 
Q 34.90625 61.421875 29 61.421875 
Q 22.90625 61.421875 18.21875 57.296875 
Q 13.53125 53.171875 12.9375 46.09375 
L 5.171875 48.4375 
Q 10.0625 68.015625 29.109375 68.015625 
Q 39.40625 68.015625 45.84375 62.15625 
Q 52.296875 56.296875 52.296875 47.859375 
Q 52.296875 42.046875 49.234375 36.671875 
Q 46.1875 31.296875 37.6875 23.828125 
Q 29.203125 16.359375 15.71875 6.9375 
z
" id="FranklinGothic-Book-50"/>
       </defs>
       <use xlink:href="#FranklinGothic-Book-50"/>
       <use x="58.642578" xlink:href="#FranklinGothic-Book-48"/>
       <use x="117.285156" xlink:href="#FranklinGothic-Book-48"/>
       <use x="175.927734" xlink:href="#FranklinGothic-Book-48"/>
      </g>
     </g>
    </g>
    <g id="xtick_5">
     <g id="line2d_5">
      <g>
       <use style="fill:#696969;stroke:#696969;stroke-width:1.25;" x="606.115055" xlink:href="#m8481137de9" y="576.72"/>
      </g>
     </g>
     <g id="text_5">
      <!-- 2005 -->
      <g style="fill:#696969;" transform="translate(588.522867 596.218438)scale(0.15 -0.15)">
       <use xlink:href="#FranklinGothic-Book-50"/>
       <use x="58.642578" xlink:href="#FranklinGothic-Book-48"/>
       <use x="117.285156" xlink:href="#FranklinGothic-Book-48"/>
       <use x="175.927734" xlink:href="#FranklinGothic-Book-53"/>
      </g>
     </g>
    </g>
    <g id="xtick_6">
     <g id="line2d_6">
      <g>
       <use style="fill:#696969;stroke:#696969;stroke-width:1.25;" x="717.044854" xlink:href="#m8481137de9" y="576.72"/>
      </g>
     </g>
     <g id="text_6">
      <!-- 2010 -->
      <g style="fill:#696969;" transform="translate(699.977667 596.218438)scale(0.15 -0.15)">
       <use xlink:href="#FranklinGothic-Book-50"/>
       <use x="58.642578" xlink:href="#FranklinGothic-Book-48"/>
       <use x="113.535156" xlink:href="#FranklinGothic-Book-49"/>
       <use x="168.927734" xlink:href="#FranklinGothic-Book-48"/>
      </g>
     </g>
    </g>
    <g id="xtick_7">
     <g id="line2d_7">
      <g>
       <use style="fill:#696969;stroke:#696969;stroke-width:1.25;" x="827.974653" xlink:href="#m8481137de9" y="576.72"/>
      </g>
     </g>
     <g id="text_7">
      <!-- 2015 -->
      <g style="fill:#696969;" transform="translate(810.766841 596.218438)scale(0.15 -0.15)">
       <use xlink:href="#FranklinGothic-Book-50"/>
       <use x="58.642578" xlink:href="#FranklinGothic-Book-48"/>
       <use x="113.535156" xlink:href="#FranklinGothic-Book-49"/>
       <use x="170.802734" xlink:href="#FranklinGothic-Book-53"/>
      </g>
     </g>
    </g>
    <g id="xtick_8">
     <g id="line2d_8">
      <g>
       <use style="fill:#696969;stroke:#696969;stroke-width:1.25;" x="938.904452" xlink:href="#m8481137de9" y="576.72"/>
      </g>
     </g>
     <g id="text_8">
      <!-- 2020 -->
      <g style="fill:#696969;" transform="translate(921.312265 596.218438)scale(0.15 -0.15)">
       <use xlink:href="#FranklinGothic-Book-50"/>
       <use x="58.642578" xlink:href="#FranklinGothic-Book-48"/>
       <use x="117.285156" xlink:href="#FranklinGothic-Book-50"/>
       <use x="175.927734" xlink:href="#FranklinGothic-Book-48"/>
      </g>
     </g>
    </g>
    <g id="text_9">
     <!-- Year -->
     <g style="fill:#696969;" transform="translate(572.109375 616.048125)scale(0.2 -0.2)">
      <defs>
       <path d="M 52 66.65625 
L 29.6875 28.03125 
L 29.6875 0 
L 21.34375 0 
L 21.34375 28.03125 
L -0.984375 66.65625 
L 8.84375 66.65625 
L 26.5625 35.984375 
L 44.390625 66.65625 
z
" id="FranklinGothic-Book-89"/>
       <path d="M 40.234375 14.703125 
L 47.359375 13.234375 
Q 45.40625 6.9375 39.734375 2.8125 
Q 34.078125 -1.3125 26.421875 -1.3125 
Q 16.3125 -1.3125 10.0625 5.78125 
Q 3.8125 12.890625 3.8125 24.421875 
Q 3.8125 36.1875 10.296875 43.4375 
Q 16.796875 50.6875 26.609375 50.6875 
Q 36.28125 50.6875 42.15625 44 
Q 48.046875 37.3125 48.1875 23.96875 
L 12.359375 23.96875 
Q 12.359375 12.796875 17.046875 8.890625 
Q 21.734375 4.984375 26.953125 4.984375 
Q 36.375 4.984375 40.234375 14.703125 
z
M 39.796875 29.6875 
Q 39.703125 33.84375 38.421875 37.0625 
Q 37.15625 40.28125 34.125 42.546875 
Q 31.109375 44.828125 26.859375 44.828125 
Q 21.140625 44.828125 17.15625 40.71875 
Q 13.1875 36.625 12.703125 29.6875 
z
" id="FranklinGothic-Book-101"/>
       <path d="M 46.296875 0 
L 38.671875 0 
Q 38.234375 2.34375 37.796875 8.890625 
Q 32.71875 -1.3125 20.515625 -1.3125 
Q 12.203125 -1.3125 7.765625 3.078125 
Q 3.328125 7.46875 3.328125 13.625 
Q 3.328125 21.09375 9.671875 25.90625 
Q 16.015625 30.71875 31.25 30.71875 
Q 33.296875 30.71875 37.796875 30.515625 
Q 37.796875 36.375 36.890625 38.984375 
Q 35.984375 41.609375 33.046875 43.171875 
Q 30.125 44.734375 25.34375 44.734375 
Q 13.671875 44.734375 11.765625 35.84375 
L 4.6875 37.0625 
Q 7.28125 50.6875 26.46875 50.6875 
Q 36.671875 50.6875 40.9375 46.171875 
Q 45.21875 41.65625 45.21875 30.515625 
L 45.21875 9.578125 
Q 45.21875 4.34375 46.296875 0 
z
M 37.796875 24.65625 
Q 33.109375 24.953125 30.671875 24.953125 
Q 21.578125 24.953125 16.546875 21.96875 
Q 11.53125 19 11.53125 13.28125 
Q 11.53125 9.671875 14.234375 7.125 
Q 16.9375 4.59375 22.078125 4.59375 
Q 29 4.59375 33.46875 9.625 
Q 37.9375 14.65625 37.9375 21.4375 
Q 37.9375 22.796875 37.796875 24.65625 
z
" id="FranklinGothic-Book-97"/>
       <path d="M 15.328125 0 
L 7.671875 0 
L 7.671875 49.3125 
L 14.40625 49.3125 
L 14.40625 37.796875 
Q 17.96875 45.953125 21.546875 48.359375 
Q 25.140625 50.78125 28.90625 50.78125 
Q 30.078125 50.78125 31.9375 50.59375 
L 31.9375 43.265625 
L 30.375 43.265625 
Q 24.03125 43.265625 19.828125 38.53125 
Q 15.625 33.796875 15.328125 26.078125 
z
" id="FranklinGothic-Book-114"/>
      </defs>
      <use xlink:href="#FranklinGothic-Book-89"/>
      <use x="45.025391" xlink:href="#FranklinGothic-Book-101"/>
      <use x="97.076172" xlink:href="#FranklinGothic-Book-97"/>
      <use x="149.957031" xlink:href="#FranklinGothic-Book-114"/>
     </g>
    </g>
   </g>
   <g id="matplotlib.axis_2">
    <g id="ytick_1">
     <g id="line2d_9">
      <path clip-path="url(#p06bd780577)" d="M 144 514.195572 
L 1036.8 514.195572 
" style="fill:none;stroke:#d3d3d3;stroke-linecap:round;stroke-opacity:0.5;"/>
     </g>
     <g id="text_10">
      <!-- −4000 -->
      <g style="fill:#696969;" transform="translate(90.519531 519.194791)scale(0.15 -0.15)">
       <defs>
        <path d="M 6 36.765625 
L 52.6875 36.765625 
L 52.6875 30.03125 
L 6 30.03125 
z
" id="FranklinGothic-Book-8722"/>
        <path d="M 44.09375 0 
L 36.03125 0 
L 36.03125 15.875 
L 3.078125 15.875 
L 3.078125 21.484375 
L 33.640625 68.0625 
L 44.09375 68.0625 
L 44.09375 22.46875 
L 54.890625 22.46875 
L 54.890625 15.875 
L 44.09375 15.875 
z
M 36.03125 22.46875 
L 36.03125 54 
Q 36.03125 57.421875 36.1875 61.375 
Q 34.078125 57.515625 32.5625 55.125 
L 11.765625 22.46875 
z
" id="FranklinGothic-Book-52"/>
       </defs>
       <use xlink:href="#FranklinGothic-Book-8722"/>
       <use x="58.642578" xlink:href="#FranklinGothic-Book-52"/>
       <use x="117.285156" xlink:href="#FranklinGothic-Book-48"/>
       <use x="175.927734" xlink:href="#FranklinGothic-Book-48"/>
       <use x="234.570312" xlink:href="#FranklinGothic-Book-48"/>
      </g>
     </g>
    </g>
    <g id="ytick_2">
     <g id="line2d_10">
      <path clip-path="url(#p06bd780577)" d="M 144 443.650738 
L 1036.8 443.650738 
" style="fill:none;stroke:#d3d3d3;stroke-linecap:round;stroke-opacity:0.5;"/>
     </g>
     <g id="text_11">
      <!-- −3000 -->
      <g style="fill:#696969;" transform="translate(90.519531 448.649956)scale(0.15 -0.15)">
       <defs>
        <path d="M 19.34375 31.34375 
L 19.34375 37.984375 
L 26.953125 37.984375 
Q 35.296875 37.984375 38.890625 41.40625 
Q 42.484375 44.828125 42.484375 49.703125 
Q 42.484375 55.078125 38.46875 58.21875 
Q 34.46875 61.375 28.421875 61.375 
Q 17.1875 61.375 12.890625 50.53125 
L 5.375 52.6875 
Q 11.8125 68.015625 29.203125 68.015625 
Q 38.96875 68.015625 44.96875 62.8125 
Q 50.984375 57.625 50.984375 50.296875 
Q 50.984375 44.625 47.359375 40.40625 
Q 43.75 36.1875 38.09375 35.109375 
Q 44.4375 34.1875 49 29.78125 
Q 53.5625 25.390625 53.5625 18.40625 
Q 53.5625 10.0625 46.765625 4.375 
Q 39.984375 -1.3125 28.171875 -1.3125 
Q 18.796875 -1.3125 12.125 3.125 
Q 5.46875 7.5625 2.9375 14.9375 
L 10.6875 17.53125 
Q 14.203125 5.46875 28.03125 5.46875 
Q 37.015625 5.46875 40.9375 9.296875 
Q 44.875 13.140625 44.875 18.453125 
Q 44.875 24.21875 40.15625 27.78125 
Q 35.453125 31.34375 26.953125 31.34375 
z
" id="FranklinGothic-Book-51"/>
       </defs>
       <use xlink:href="#FranklinGothic-Book-8722"/>
       <use x="58.642578" xlink:href="#FranklinGothic-Book-51"/>
       <use x="117.285156" xlink:href="#FranklinGothic-Book-48"/>
       <use x="175.927734" xlink:href="#FranklinGothic-Book-48"/>
       <use x="234.570312" xlink:href="#FranklinGothic-Book-48"/>
      </g>
     </g>
    </g>
    <g id="ytick_3">
     <g id="line2d_11">
      <path clip-path="url(#p06bd780577)" d="M 144 373.105903 
L 1036.8 373.105903 
" style="fill:none;stroke:#d3d3d3;stroke-linecap:round;stroke-opacity:0.5;"/>
     </g>
     <g id="text_12">
      <!-- −2000 -->
      <g style="fill:#696969;" transform="translate(90.519531 378.105122)scale(0.15 -0.15)">
       <use xlink:href="#FranklinGothic-Book-8722"/>
       <use x="58.642578" xlink:href="#FranklinGothic-Book-50"/>
       <use x="117.285156" xlink:href="#FranklinGothic-Book-48"/>
       <use x="175.927734" xlink:href="#FranklinGothic-Book-48"/>
       <use x="234.570312" xlink:href="#FranklinGothic-Book-48"/>
      </g>
     </g>
    </g>
    <g id="ytick_4">
     <g id="line2d_12">
      <path clip-path="url(#p06bd780577)" d="M 144 302.561069 
L 1036.8 302.561069 
" style="fill:none;stroke:#d3d3d3;stroke-linecap:round;stroke-opacity:0.5;"/>
     </g>
     <g id="text_13">
      <!-- −1000 -->
      <g style="fill:#696969;" transform="translate(91.007031 307.560288)scale(0.15 -0.15)">
       <use xlink:href="#FranklinGothic-Book-8722"/>
       <use x="58.642578" xlink:href="#FranklinGothic-Book-49"/>
       <use x="114.035156" xlink:href="#FranklinGothic-Book-48"/>
       <use x="172.677734" xlink:href="#FranklinGothic-Book-48"/>
       <use x="231.320312" xlink:href="#FranklinGothic-Book-48"/>
      </g>
     </g>
    </g>
    <g id="ytick_5">
     <g id="line2d_13">
      <path clip-path="url(#p06bd780577)" d="M 144 232.016234 
L 1036.8 232.016234 
" style="fill:none;stroke:#d3d3d3;stroke-linecap:round;stroke-opacity:0.5;"/>
     </g>
     <g id="text_14">
      <!-- 0 -->
      <g style="fill:#696969;" transform="translate(125.703906 237.015453)scale(0.15 -0.15)">
       <use xlink:href="#FranklinGothic-Book-48"/>
      </g>
     </g>
    </g>
    <g id="ytick_6">
     <g id="line2d_14">
      <path clip-path="url(#p06bd780577)" d="M 144 161.4714 
L 1036.8 161.4714 
" style="fill:none;stroke:#d3d3d3;stroke-linecap:round;stroke-opacity:0.5;"/>
     </g>
     <g id="text_15">
      <!-- 1000 -->
      <g style="fill:#696969;" transform="translate(99.803125 166.470619)scale(0.15 -0.15)">
       <use xlink:href="#FranklinGothic-Book-49"/>
       <use x="55.392578" xlink:href="#FranklinGothic-Book-48"/>
       <use x="114.035156" xlink:href="#FranklinGothic-Book-48"/>
       <use x="172.677734" xlink:href="#FranklinGothic-Book-48"/>
      </g>
     </g>
    </g>
    <g id="ytick_7">
     <g id="line2d_15">
      <path clip-path="url(#p06bd780577)" d="M 144 90.926566 
L 1036.8 90.926566 
" style="fill:none;stroke:#d3d3d3;stroke-linecap:round;stroke-opacity:0.5;"/>
     </g>
     <g id="text_16">
      <!-- 2000 -->
      <g style="fill:#696969;" transform="translate(99.315625 95.925784)scale(0.15 -0.15)">
       <use xlink:href="#FranklinGothic-Book-50"/>
       <use x="58.642578" xlink:href="#FranklinGothic-Book-48"/>
       <use x="117.285156" xlink:href="#FranklinGothic-Book-48"/>
       <use x="175.927734" xlink:href="#FranklinGothic-Book-48"/>
      </g>
     </g>
    </g>
    <g id="text_17">
     <!-- Gt -->
     <g style="fill:#696969;" transform="translate(64.188281 336.786875)rotate(-90)scale(0.2 -0.2)">
      <defs>
       <path d="M 57.71875 33.59375 
L 57.71875 -0.875 
L 52.59375 -0.875 
L 50.296875 7.46875 
Q 44.140625 -1.3125 31.984375 -1.3125 
Q 18.796875 -1.3125 11.46875 8.59375 
Q 4.15625 18.5 4.15625 32.671875 
Q 4.15625 47.796875 11.90625 57.90625 
Q 19.671875 68.015625 33.015625 68.015625 
Q 51.421875 68.015625 57.03125 48.6875 
L 49.125 46.78125 
Q 47.40625 54.203125 42.71875 57.5625 
Q 38.03125 60.9375 32.46875 60.9375 
Q 22.609375 60.9375 17.921875 52.96875 
Q 13.234375 45.015625 13.234375 33.015625 
Q 13.234375 20.0625 18.484375 12.765625 
Q 23.734375 5.46875 32.765625 5.46875 
Q 39.796875 5.46875 44.5 10.125 
Q 49.21875 14.796875 49.21875 23 
Q 49.21875 24.515625 49.125 26.609375 
L 32.625 26.609375 
L 32.625 33.59375 
z
" id="FranklinGothic-Book-71"/>
       <path d="M 30.03125 5.28125 
L 30.03125 -0.78125 
Q 25.984375 -1.3125 23 -1.3125 
Q 8.6875 -1.3125 8.6875 13.625 
L 8.6875 43.3125 
L -0.046875 43.3125 
L -0.046875 49.3125 
L 8.6875 49.3125 
L 9.03125 61.71875 
L 16.15625 62.40625 
L 16.15625 49.3125 
L 27.203125 49.3125 
L 27.203125 43.3125 
L 16.15625 43.3125 
L 16.15625 12.359375 
Q 16.15625 4.734375 24.078125 4.734375 
Q 26.703125 4.734375 30.03125 5.28125 
z
" id="FranklinGothic-Book-116"/>
      </defs>
      <use xlink:href="#FranklinGothic-Book-71"/>
      <use x="64.697266" xlink:href="#FranklinGothic-Book-116"/>
     </g>
    </g>
   </g>
   <g id="text_18">
    <!-- Greenland ice sheet cumulative mass balance -->
    <g style="fill:#696969;" transform="translate(144 42.76)scale(0.4 -0.4)">
     <defs>
      <path d="M 46.53125 0 
L 39.359375 0 
L 39.359375 31.6875 
Q 39.359375 38.53125 36.375 41.3125 
Q 33.40625 44.09375 29.15625 44.09375 
Q 23.296875 44.09375 19.3125 39.40625 
Q 15.328125 34.71875 15.328125 27.046875 
L 15.328125 0 
L 7.671875 0 
L 7.671875 49.3125 
L 14.796875 49.3125 
L 14.796875 40.234375 
Q 20.796875 50.6875 30.375 50.6875 
Q 35.890625 50.6875 39.765625 47.828125 
Q 43.65625 44.96875 45.09375 41.40625 
Q 46.53125 37.84375 46.53125 28.515625 
z
" id="FranklinGothic-Book-110"/>
      <path d="M 15.328125 0 
L 7.671875 0 
L 7.671875 66.65625 
L 15.328125 66.65625 
z
" id="FranklinGothic-Book-108"/>
      <path d="M 46.1875 66.65625 
L 46.1875 0 
L 39.203125 0 
L 39.203125 8.453125 
Q 34.03125 -1.3125 23.640625 -1.3125 
Q 14.984375 -1.3125 9.421875 5.9375 
Q 3.859375 13.1875 3.859375 24.265625 
Q 3.859375 35.59375 9.375 43.140625 
Q 14.890625 50.6875 24.03125 50.6875 
Q 32.90625 50.6875 38.53125 42.578125 
L 38.53125 66.65625 
z
M 38.53125 30.28125 
Q 38.53125 36.765625 34.5625 40.671875 
Q 30.609375 44.578125 25.34375 44.578125 
Q 19.625 44.578125 15.9375 39.5 
Q 12.25 34.421875 12.25 25.25 
Q 12.25 15.328125 15.640625 10.15625 
Q 19.046875 4.984375 24.953125 4.984375 
Q 30.328125 4.984375 34.421875 9.46875 
Q 38.53125 13.96875 38.53125 20.015625 
z
" id="FranklinGothic-Book-100"/>
      <path id="FranklinGothic-Book-32"/>
      <path d="M 15.578125 66.65625 
L 15.578125 58.15625 
L 7.328125 58.15625 
L 7.328125 66.65625 
z
M 15.328125 49.3125 
L 15.328125 0 
L 7.671875 0 
L 7.671875 49.3125 
z
" id="FranklinGothic-Book-105"/>
      <path d="M 36.8125 17.28125 
L 43.75 16.0625 
Q 42.28125 7.90625 37.25 3.296875 
Q 32.234375 -1.3125 24.703125 -1.3125 
Q 14.5 -1.3125 9.15625 6.203125 
Q 3.8125 13.71875 3.8125 24.5625 
Q 3.8125 35.796875 9.453125 43.234375 
Q 15.09375 50.6875 24.8125 50.6875 
Q 32.859375 50.6875 37.71875 45.875 
Q 42.578125 41.0625 43.75 33.453125 
L 36.8125 32.125 
Q 34.859375 44.34375 25 44.34375 
Q 18.65625 44.34375 15.234375 38.9375 
Q 11.8125 33.546875 11.8125 24.953125 
Q 11.8125 15.484375 15.203125 10.234375 
Q 18.609375 4.984375 24.75 4.984375 
Q 34.28125 4.984375 36.8125 17.28125 
z
" id="FranklinGothic-Book-99"/>
      <path d="M 1.03125 12.796875 
L 8.34375 14.3125 
Q 10.796875 4.984375 23.78125 4.984375 
Q 28.5625 4.984375 31.875 7.125 
Q 35.203125 9.28125 35.203125 13.1875 
Q 35.203125 19 26.765625 20.5625 
L 16.359375 22.515625 
Q 10.25 23.6875 6.640625 27.09375 
Q 3.03125 30.515625 3.03125 36.140625 
Q 3.03125 42.328125 7.953125 46.5 
Q 12.890625 50.6875 21.234375 50.6875 
Q 37.3125 50.6875 41.0625 38.140625 
L 34.03125 36.625 
Q 31 44.34375 21.578125 44.34375 
Q 16.890625 44.34375 13.890625 42.40625 
Q 10.890625 40.484375 10.890625 37.015625 
Q 10.890625 31.546875 18.5625 30.125 
L 28.171875 28.421875 
Q 43.265625 25.6875 43.265625 13.8125 
Q 43.265625 7.03125 37.640625 2.859375 
Q 32.03125 -1.3125 22.703125 -1.3125 
Q 5.171875 -1.3125 1.03125 12.796875 
z
" id="FranklinGothic-Book-115"/>
      <path d="M 46.34375 0 
L 38.671875 0 
L 38.671875 29.9375 
Q 38.671875 35.203125 38.015625 37.84375 
Q 37.359375 40.484375 34.890625 42.40625 
Q 32.421875 44.34375 29.203125 44.34375 
Q 23.296875 44.34375 19.3125 39.5 
Q 15.328125 34.671875 15.328125 26.5625 
L 15.328125 0 
L 7.671875 0 
L 7.671875 66.65625 
L 15.328125 66.65625 
L 15.328125 40.234375 
Q 20.5625 50.6875 30.28125 50.6875 
Q 34.625 50.6875 38.015625 48.96875 
Q 41.40625 47.265625 43.203125 44.484375 
Q 45.015625 41.703125 45.671875 38.984375 
Q 46.34375 36.28125 46.34375 29.9375 
z
" id="FranklinGothic-Book-104"/>
      <path d="M 46.484375 0 
L 39.59375 0 
L 39.59375 9.421875 
Q 34.328125 -1.3125 23.875 -1.3125 
Q 16.3125 -1.3125 11.984375 3.65625 
Q 7.671875 8.640625 7.671875 17.828125 
L 7.671875 49.3125 
L 15.328125 49.3125 
L 15.328125 17.828125 
Q 15.328125 10.5 18.375 7.734375 
Q 21.4375 4.984375 25.09375 4.984375 
Q 28.8125 4.984375 31.8125 7.078125 
Q 34.8125 9.1875 36.8125 13.0625 
Q 38.8125 16.9375 38.8125 21.53125 
L 38.8125 49.3125 
L 46.484375 49.3125 
z
" id="FranklinGothic-Book-117"/>
      <path d="M 73.734375 0 
L 66.265625 0 
L 66.265625 30.671875 
Q 66.265625 35.40625 65.59375 37.765625 
Q 64.9375 40.140625 62.390625 42.109375 
Q 59.859375 44.09375 56.6875 44.09375 
Q 52.296875 44.09375 48.21875 40.0625 
Q 44.140625 36.03125 44.140625 27.78125 
L 44.140625 0 
L 36.71875 0 
L 36.71875 32.46875 
Q 36.71875 38.96875 33.609375 41.65625 
Q 30.515625 44.34375 27.09375 44.34375 
Q 22.21875 44.34375 18.59375 40.140625 
Q 14.984375 35.9375 14.984375 29.5 
L 14.984375 0 
L 7.671875 0 
L 7.671875 49.3125 
L 14.265625 49.3125 
L 14.265625 39.84375 
Q 19.78125 50.6875 29.4375 50.6875 
Q 34.765625 50.6875 38.46875 47.21875 
Q 42.1875 43.75 43.265625 38.875 
Q 48.34375 50.6875 58.84375 50.6875 
Q 63.875 50.6875 67.65625 47.796875 
Q 71.4375 44.921875 72.578125 41.1875 
Q 73.734375 37.453125 73.734375 30.671875 
z
" id="FranklinGothic-Book-109"/>
      <path d="M 43.796875 49.3125 
L 26.765625 0 
L 18.796875 0 
L 1.171875 49.3125 
L 9.671875 49.3125 
L 23.390625 9.234375 
L 36.96875 49.3125 
z
" id="FranklinGothic-Book-118"/>
      <path d="M 11.375 0 
L 7.671875 0 
L 7.671875 66.65625 
L 15.328125 66.65625 
L 15.328125 41.109375 
Q 20.609375 50.6875 29.890625 50.6875 
Q 38.375 50.6875 44.109375 44 
Q 49.859375 37.3125 49.859375 24.5625 
Q 49.859375 13.578125 44.21875 6.125 
Q 38.578125 -1.3125 29.546875 -1.3125 
Q 19.484375 -1.3125 14.109375 8.15625 
z
M 15.328125 19.34375 
Q 15.875 11.765625 20 8.34375 
Q 24.125 4.9375 28.71875 4.9375 
Q 34.578125 4.9375 38.15625 10.015625 
Q 41.75 15.09375 41.75 23.921875 
Q 41.75 33.453125 38.28125 38.890625 
Q 34.8125 44.34375 28.65625 44.34375 
Q 23.828125 44.34375 19.9375 40.453125 
Q 16.0625 36.578125 15.328125 30.421875 
z
" id="FranklinGothic-Book-98"/>
     </defs>
     <use xlink:href="#FranklinGothic-Book-71"/>
     <use x="64.697266" xlink:href="#FranklinGothic-Book-114"/>
     <use x="97.65625" xlink:href="#FranklinGothic-Book-101"/>
     <use x="149.707031" xlink:href="#FranklinGothic-Book-101"/>
     <use x="201.757812" xlink:href="#FranklinGothic-Book-110"/>
     <use x="255.957031" xlink:href="#FranklinGothic-Book-108"/>
     <use x="278.955078" xlink:href="#FranklinGothic-Book-97"/>
     <use x="331.835938" xlink:href="#FranklinGothic-Book-110"/>
     <use x="386.035156" xlink:href="#FranklinGothic-Book-100"/>
     <use x="439.892578" xlink:href="#FranklinGothic-Book-32"/>
     <use x="464.892578" xlink:href="#FranklinGothic-Book-105"/>
     <use x="487.841797" xlink:href="#FranklinGothic-Book-99"/>
     <use x="534.423828" xlink:href="#FranklinGothic-Book-101"/>
     <use x="586.474609" xlink:href="#FranklinGothic-Book-32"/>
     <use x="611.474609" xlink:href="#FranklinGothic-Book-115"/>
     <use x="657.861328" xlink:href="#FranklinGothic-Book-104"/>
     <use x="711.865234" xlink:href="#FranklinGothic-Book-101"/>
     <use x="763.916016" xlink:href="#FranklinGothic-Book-101"/>
     <use x="815.466797" xlink:href="#FranklinGothic-Book-116"/>
     <use x="846.228516" xlink:href="#FranklinGothic-Book-32"/>
     <use x="871.228516" xlink:href="#FranklinGothic-Book-99"/>
     <use x="917.810547" xlink:href="#FranklinGothic-Book-117"/>
     <use x="971.960938" xlink:href="#FranklinGothic-Book-109"/>
     <use x="1053.357422" xlink:href="#FranklinGothic-Book-117"/>
     <use x="1107.507812" xlink:href="#FranklinGothic-Book-108"/>
     <use x="1130.505859" xlink:href="#FranklinGothic-Book-97"/>
     <use x="1183.386719" xlink:href="#FranklinGothic-Book-116"/>
     <use x="1214.148438" xlink:href="#FranklinGothic-Book-105"/>
     <use x="1237.097656" xlink:href="#FranklinGothic-Book-118"/>
     <use x="1280.617188" xlink:href="#FranklinGothic-Book-101"/>
     <use x="1332.667969" xlink:href="#FranklinGothic-Book-32"/>
     <use x="1357.667969" xlink:href="#FranklinGothic-Book-109"/>
     <use x="1439.064453" xlink:href="#FranklinGothic-Book-97"/>
     <use x="1491.945312" xlink:href="#FranklinGothic-Book-115"/>
     <use x="1538.332031" xlink:href="#FranklinGothic-Book-115"/>
     <use x="1584.71875" xlink:href="#FranklinGothic-Book-32"/>
     <use x="1609.71875" xlink:href="#FranklinGothic-Book-98"/>
     <use x="1663.429688" xlink:href="#FranklinGothic-Book-97"/>
     <use x="1716.310547" xlink:href="#FranklinGothic-Book-108"/>
     <use x="1739.308594" xlink:href="#FranklinGothic-Book-97"/>
     <use x="1792.189453" xlink:href="#FranklinGothic-Book-110"/>
     <use x="1846.388672" xlink:href="#FranklinGothic-Book-99"/>
     <use x="1892.970703" xlink:href="#FranklinGothic-Book-101"/>
    </g>
   </g>
   <g id="legend_1">
    <g id="line2d_16"/>
    <g id="text_19">
     <!-- PROMICE -->
     <g style="fill:#009e73;" transform="translate(882.628625 129.7184)scale(0.2 -0.2)">
      <defs>
       <path d="M 16.703125 0 
L 8.34375 0 
L 8.34375 66.65625 
L 31.984375 66.65625 
Q 43.0625 66.65625 48.328125 60.625 
Q 53.609375 54.59375 53.609375 46.875 
Q 53.609375 38.28125 47.875 32.65625 
Q 42.140625 27.046875 32.859375 27.046875 
L 16.703125 27.046875 
z
M 16.703125 33.984375 
L 32.03125 33.984375 
Q 37.9375 33.984375 41.546875 37.515625 
Q 45.171875 41.0625 45.171875 46.875 
Q 45.171875 51.859375 41.9375 55.765625 
Q 38.71875 59.671875 32.625 59.671875 
L 16.703125 59.671875 
z
" id="FranklinGothic-Book-80"/>
       <path d="M 56.296875 0 
L 47.5625 0 
L 35.25 28.859375 
L 16.15625 28.859375 
L 16.15625 0 
L 8.34375 0 
L 8.34375 66.65625 
L 34.625 66.65625 
Q 45.3125 66.65625 50.453125 60.8125 
Q 55.609375 54.984375 55.609375 48.046875 
Q 55.609375 42.71875 52.734375 37.828125 
Q 49.859375 32.953125 43.21875 30.859375 
z
M 16.15625 35.640625 
L 33.59375 35.640625 
Q 40.484375 35.640625 43.875 39.28125 
Q 47.265625 42.921875 47.265625 48.1875 
Q 47.265625 53.46875 43.671875 56.390625 
Q 40.09375 59.328125 34.625 59.328125 
L 16.15625 59.328125 
z
" id="FranklinGothic-Book-82"/>
       <path d="M 31.34375 -1.3125 
Q 18.5 -1.3125 11.328125 8.671875 
Q 4.15625 18.65625 4.15625 33.15625 
Q 4.15625 48.296875 11.671875 58.15625 
Q 19.1875 68.015625 31.59375 68.015625 
Q 43.953125 68.015625 51.421875 58.328125 
Q 58.890625 48.640625 58.890625 33.890625 
Q 58.890625 19.734375 51.640625 9.203125 
Q 44.390625 -1.3125 31.34375 -1.3125 
z
M 31.546875 5.46875 
Q 40.28125 5.46875 45.203125 13.421875 
Q 50.140625 21.390625 50.140625 33.9375 
Q 50.140625 46.828125 45.03125 54 
Q 39.9375 61.1875 31.5 61.1875 
Q 22.953125 61.1875 17.921875 53.421875 
Q 12.890625 45.65625 12.890625 33.109375 
Q 12.890625 20.84375 17.96875 13.15625 
Q 23.046875 5.46875 31.546875 5.46875 
z
" id="FranklinGothic-Book-79"/>
       <path d="M 72.703125 0 
L 64.59375 0 
L 64.59375 58.203125 
L 42.921875 0 
L 37.25 0 
L 15.4375 58.203125 
L 15.4375 0 
L 8.34375 0 
L 8.34375 66.65625 
L 20.75 66.65625 
L 40.828125 13.328125 
L 60.5 66.65625 
L 72.703125 66.65625 
z
" id="FranklinGothic-Book-77"/>
       <path d="M 16.703125 0 
L 8.34375 0 
L 8.34375 66.65625 
L 16.703125 66.65625 
z
" id="FranklinGothic-Book-73"/>
       <path d="M 48.296875 22.40625 
L 55.90625 20.703125 
Q 50.4375 -1.3125 31.203125 -1.3125 
Q 18.5625 -1.3125 11.359375 8.890625 
Q 4.15625 19.09375 4.15625 33.984375 
Q 4.15625 49.359375 11.671875 58.6875 
Q 19.1875 68.015625 31.84375 68.015625 
Q 50.59375 68.015625 55.90625 46.578125 
L 48.046875 45.015625 
Q 43.75 60.9375 31.78125 60.9375 
Q 22.953125 60.9375 18.09375 53.53125 
Q 13.234375 46.140625 13.234375 32.765625 
Q 13.234375 20.515625 18.203125 13.109375 
Q 23.1875 5.71875 31.390625 5.71875 
Q 44.140625 5.71875 48.296875 22.40625 
z
" id="FranklinGothic-Book-67"/>
       <path d="M 51.46875 7.328125 
L 51.46875 0 
L 8.34375 0 
L 8.34375 66.65625 
L 50.53125 66.65625 
L 50.53125 59.328125 
L 16.703125 59.328125 
L 16.703125 38.140625 
L 43.5625 38.140625 
L 43.5625 31.34375 
L 16.703125 31.34375 
L 16.703125 7.328125 
z
" id="FranklinGothic-Book-69"/>
      </defs>
      <use xlink:href="#FranklinGothic-Book-80"/>
      <use x="55.908203" xlink:href="#FranklinGothic-Book-82"/>
      <use x="115.8125" xlink:href="#FranklinGothic-Book-79"/>
      <use x="178.898438" xlink:href="#FranklinGothic-Book-77"/>
      <use x="259.904297" xlink:href="#FranklinGothic-Book-73"/>
      <use x="284.904297" xlink:href="#FranklinGothic-Book-67"/>
      <use x="342.814453" xlink:href="#FranklinGothic-Book-69"/>
     </g>
    </g>
    <g id="line2d_17"/>
    <g id="text_20">
     <!-- IMBIE 2018 -->
     <g style="fill:#e69f00;" transform="translate(882.628625 157.04965)scale(0.2 -0.2)">
      <defs>
       <path d="M 8.34375 0 
L 8.34375 66.65625 
L 34.71875 66.65625 
Q 44.671875 66.65625 49.484375 61.765625 
Q 54.296875 56.890625 54.296875 50.4375 
Q 54.296875 39.109375 42.484375 35.40625 
Q 49.515625 33.59375 52.921875 28.953125 
Q 56.34375 24.3125 56.34375 18.453125 
Q 56.34375 10.59375 51.046875 5.296875 
Q 45.75 0 34.71875 0 
z
M 16.40625 38.09375 
L 30.90625 38.09375 
Q 39.9375 38.09375 42.96875 41.53125 
Q 46 44.96875 46 49.609375 
Q 46 54.203125 42.75 57.03125 
Q 39.5 59.859375 33.0625 59.859375 
L 16.40625 59.859375 
z
M 16.40625 7.328125 
L 34.28125 7.328125 
Q 40.828125 7.328125 44.390625 10.5 
Q 47.953125 13.671875 47.953125 18.75 
Q 47.953125 22.3125 46.34375 25.359375 
Q 44.734375 28.421875 41.796875 30.078125 
Q 38.875 31.734375 33.0625 31.734375 
L 16.40625 31.734375 
z
" id="FranklinGothic-Book-66"/>
      </defs>
      <use xlink:href="#FranklinGothic-Book-73"/>
      <use x="25" xlink:href="#FranklinGothic-Book-77"/>
      <use x="106.005859" xlink:href="#FranklinGothic-Book-66"/>
      <use x="166.455078" xlink:href="#FranklinGothic-Book-73"/>
      <use x="191.455078" xlink:href="#FranklinGothic-Book-69"/>
      <use x="246.240234" xlink:href="#FranklinGothic-Book-32"/>
      <use x="271.240234" xlink:href="#FranklinGothic-Book-50"/>
      <use x="329.882812" xlink:href="#FranklinGothic-Book-48"/>
      <use x="384.775391" xlink:href="#FranklinGothic-Book-49"/>
      <use x="442.792969" xlink:href="#FranklinGothic-Book-56"/>
     </g>
    </g>
    <g id="line2d_18"/>
    <g id="text_21">
     <!-- IMBIE 2021 -->
     <g style="fill:#d55e00;" transform="translate(882.628625 184.3809)scale(0.2 -0.2)">
      <use xlink:href="#FranklinGothic-Book-73"/>
      <use x="25" xlink:href="#FranklinGothic-Book-77"/>
      <use x="106.005859" xlink:href="#FranklinGothic-Book-66"/>
      <use x="166.455078" xlink:href="#FranklinGothic-Book-73"/>
      <use x="191.455078" xlink:href="#FranklinGothic-Book-69"/>
      <use x="246.240234" xlink:href="#FranklinGothic-Book-32"/>
      <use x="271.240234" xlink:href="#FranklinGothic-Book-50"/>
      <use x="329.882812" xlink:href="#FranklinGothic-Book-48"/>
      <use x="388.525391" xlink:href="#FranklinGothic-Book-50"/>
      <use x="443.667969" xlink:href="#FranklinGothic-Book-49"/>
     </g>
    </g>
    <g id="line2d_19"/>
    <g id="text_22">
     <!-- GRACE -->
     <g style="fill:#56b4e9;" transform="translate(882.628625 211.71215)scale(0.2 -0.2)">
      <defs>
       <path d="M 53.21875 0 
L 44.671875 0 
L 37.9375 19.484375 
L 13.28125 19.484375 
L 7.328125 0 
L 0.34375 0 
L 21.96875 66.65625 
L 31.5 66.65625 
z
M 36.1875 25.734375 
L 25.921875 57.765625 
L 15.578125 25.734375 
z
" id="FranklinGothic-Book-65"/>
      </defs>
      <use xlink:href="#FranklinGothic-Book-71"/>
      <use x="64.697266" xlink:href="#FranklinGothic-Book-82"/>
      <use x="125.976562" xlink:href="#FranklinGothic-Book-65"/>
      <use x="177.041016" xlink:href="#FranklinGothic-Book-67"/>
      <use x="234.951172" xlink:href="#FranklinGothic-Book-69"/>
     </g>
    </g>
   </g>
   <g id="line2d_20">
    <path clip-path="url(#p06bd780577)" d="M 545.103665 187.618137 
L 546.952495 182.838725 
L 552.498985 203.049115 
L 554.347815 204.711151 
L 556.196645 202.21598 
L 558.045475 202.408567 
L 559.894305 201.327115 
L 561.743135 198.028439 
L 563.591965 198.647822 
L 565.440795 194.061703 
L 567.289625 190.806764 
L 569.138455 190.396193 
L 572.836115 202.752826 
L 574.684945 212.366676 
L 576.533775 215.331676 
L 578.382605 215.099583 
L 580.231435 215.302752 
L 582.080265 212.426639 
L 583.929095 214.080916 
L 585.777925 214.681958 
L 587.626755 213.157484 
L 589.475585 208.747726 
L 593.173245 211.311326 
L 595.022075 218.149942 
L 596.870905 226.857996 
L 598.719735 229.819468 
L 600.568565 231.140068 
L 602.417395 228.151788 
L 604.266225 226.411447 
L 606.115055 227.416006 
L 607.963885 225.953611 
L 609.812715 222.664811 
L 611.661545 222.222495 
L 613.510375 219.505813 
L 615.359205 222.908191 
L 617.208035 232.016234 
L 619.056865 245.389419 
L 620.905695 249.969895 
L 622.754525 249.401303 
L 624.603355 249.189669 
L 626.452185 245.60317 
L 628.301015 247.292718 
L 630.149845 243.956653 
L 631.998675 242.505546 
L 633.847505 244.249414 
L 635.696335 243.536911 
L 637.545165 244.33689 
L 639.393995 250.417149 
L 641.242825 259.390452 
L 643.091655 263.611149 
L 644.940485 262.624227 
L 646.789315 264.624879 
L 648.638145 265.237913 
L 650.486975 262.974835 
L 652.335805 260.083908 
L 654.184634 260.697648 
L 657.882294 258.893816 
L 659.731124 260.285666 
L 661.579954 269.476952 
L 663.428784 283.299507 
L 665.277614 287.802384 
L 667.126444 289.651364 
L 668.975274 287.956877 
L 670.824104 283.787678 
L 672.672934 281.054065 
L 674.521764 282.317523 
L 676.370594 278.509513 
L 678.219424 279.796956 
L 680.068254 280.845958 
L 681.917084 281.111206 
L 683.765914 291.518686 
L 685.614744 302.788223 
L 687.463574 307.381397 
L 689.312404 306.460787 
L 693.010064 296.225437 
L 694.858894 294.83782 
L 696.707724 298.164009 
L 698.556554 298.108279 
L 700.405384 296.7256 
L 702.254214 295.484716 
L 704.103044 296.023679 
L 705.951874 303.783611 
L 707.800704 318.598731 
L 709.649534 322.356655 
L 711.498364 320.403974 
L 713.347194 319.281605 
L 715.196024 317.631562 
L 717.044854 317.792404 
L 718.893684 316.448525 
L 720.742514 315.599165 
L 722.591344 317.302117 
L 724.440174 314.927578 
L 726.289004 322.442014 
L 728.137834 334.88965 
L 729.986664 348.646598 
L 731.835494 355.514843 
L 733.684324 352.949833 
L 735.533154 354.221051 
L 737.381984 352.963237 
L 741.079644 351.422537 
L 742.928474 350.431383 
L 744.777304 349.974957 
L 746.626134 351.428181 
L 750.323794 364.877554 
L 752.172624 378.479303 
L 754.021454 382.486955 
L 755.870284 384.17721 
L 755.870284 384.105959 
L 761.416774 379.866215 
L 761.416774 380.573779 
L 763.265604 379.256002 
L 765.114434 376.038452 
L 766.963264 375.373214 
L 770.660924 377.335772 
L 772.509754 393.630217 
L 774.358584 415.495589 
L 776.207414 422.593105 
L 779.905074 417.886353 
L 781.753903 416.866275 
L 783.602733 416.744232 
L 785.451563 416.147423 
L 789.149223 416.012682 
L 790.998053 413.415927 
L 792.846883 412.139066 
L 794.695713 420.062661 
L 800.242203 424.492877 
L 802.091033 424.515451 
L 803.939863 423.659742 
L 805.788693 422.630493 
L 809.486353 418.971333 
L 811.335183 418.020388 
L 813.184013 418.066243 
L 815.032843 420.822429 
L 818.730503 440.816952 
L 820.579333 443.420762 
L 822.428163 442.282168 
L 824.276993 441.980236 
L 827.974653 436.01567 
L 829.823483 436.295733 
L 831.672313 433.213629 
L 833.521143 432.609766 
L 833.521143 432.369208 
L 839.067633 445.486314 
L 840.916463 454.978827 
L 842.765293 457.517736 
L 848.311783 453.479749 
L 850.160613 449.678794 
L 852.009443 451.275929 
L 853.858273 451.268874 
L 857.555933 449.02837 
L 859.404763 448.805449 
L 861.253593 461.046388 
L 863.102423 478.667077 
L 868.648913 469.626757 
L 870.497743 474.474598 
L 872.346573 470.854942 
L 877.893063 470.26166 
L 877.893063 467.984473 
L 879.741893 467.644447 
L 881.590723 469.617586 
L 903.776683 473.245001 
L 905.625513 474.901394 
L 911.172002 484.790369 
L 913.020832 482.401015 
L 914.869662 483.189001 
L 916.718492 483.539609 
L 918.567322 485.385767 
L 920.416152 486.850983 
L 922.264982 485.768826 
L 924.113812 484.472212 
L 925.962642 488.406497 
L 927.811472 502.639623 
L 929.660302 518.824724 
L 931.509132 525.335307 
L 933.357962 524.253855 
L 935.206792 521.283917 
L 937.055622 521.601369 
L 938.904452 524.255265 
L 940.753282 521.004559 
L 942.602112 523.487738 
L 944.450942 522.836609 
L 946.299772 520.9192 
L 948.148602 523.570981 
L 949.997432 534.380566 
L 951.846262 540.172296 
L 953.695092 540.527842 
L 955.543922 535.824618 
L 957.392752 535.475421 
L 959.241582 533.941777 
L 961.090412 529.682985 
L 962.939242 534.052532 
L 964.788072 533.725204 
L 966.636902 532.240941 
L 968.485732 535.450731 
L 970.334562 535.05568 
L 972.183392 537.724391 
L 974.032222 547.511076 
L 975.881052 551.009394 
L 977.729882 554.04 
L 979.578712 551.336722 
L 981.427542 549.333249 
L 983.276372 548.739261 
L 988.822862 545.83493 
L 990.671692 547.6825 
L 990.671692 547.6825 
" style="fill:none;stroke:#56b4e9;stroke-linecap:round;stroke-width:1.5;"/>
   </g>
   <g id="line2d_21">
    <path clip-path="url(#p06bd780577)" d="M 317.697577 161.489784 
L 339.883537 162.135269 
L 360.220667 163.710966 
L 382.406627 171.207532 
L 404.592586 174.392145 
L 428.627376 173.857733 
L 448.964506 174.16037 
L 471.150466 178.001656 
L 493.336426 183.248174 
L 515.522386 185.326644 
L 537.708345 190.747118 
L 561.743135 200.924375 
L 572.836115 206.241981 
L 576.533775 208.034596 
L 593.173245 217.359078 
L 613.510375 229.637138 
L 630.149845 240.376305 
L 633.847505 242.88828 
L 659.731124 262.744457 
L 668.975274 269.994512 
L 700.405384 294.113847 
L 709.649534 301.994643 
L 713.347194 305.266696 
L 717.044854 308.7519 
L 724.440174 316.134184 
L 742.928474 335.138934 
L 754.021454 347.021415 
L 761.416774 354.773826 
L 776.207414 369.939364 
L 779.905074 373.425605 
L 781.753903 375.073349 
L 803.939863 390.04843 
L 815.032843 396.321587 
L 826.125823 402.88838 
L 827.974653 404.116093 
L 837.218803 409.460076 
L 848.311783 415.990912 
L 857.555933 420.935428 
L 868.648913 426.999455 
L 870.497743 427.957284 
L 892.683703 434.058757 
L 896.381363 435.482972 
L 903.776683 438.771095 
L 905.625513 439.640017 
L 911.172002 444.024033 
L 914.869662 447.196011 
L 929.660302 468.100068 
L 938.904452 481.168047 
L 959.241582 506.57704 
L 959.241582 506.57704 
" style="fill:none;stroke:#d55e00;stroke-linecap:round;stroke-width:1.5;"/>
   </g>
   <g id="line2d_22">
    <path clip-path="url(#p06bd780577)" d="M 317.697577 166.126013 
L 338.034707 161.004458 
L 382.406627 171.748436 
L 402.743756 182.515342 
L 404.592586 183.271113 
L 415.685566 180.916981 
L 426.778546 175.810091 
L 437.871526 173.779978 
L 448.964506 173.428093 
L 460.057486 177.954238 
L 471.150466 183.910033 
L 482.243446 185.702096 
L 495.185256 185.997579 
L 504.429406 186.516507 
L 530.313025 190.574198 
L 537.708345 191.339453 
L 548.801325 195.355787 
L 550.650155 196.222833 
L 559.894305 199.764243 
L 572.836115 206.172285 
L 574.684945 207.10372 
L 604.266225 224.444734 
L 626.452185 237.460406 
L 639.393995 246.234026 
L 650.486975 254.250863 
L 674.521764 272.358276 
L 691.161234 284.302475 
L 694.858894 287.032603 
L 715.196024 302.707738 
L 717.044854 304.319786 
L 733.684324 321.609647 
L 739.230814 327.529967 
L 759.567944 349.809718 
L 781.753903 373.321287 
L 792.846883 381.510962 
L 809.486353 392.60974 
L 833.521143 409.131018 
L 848.311783 418.430574 
L 861.253593 427.950416 
L 870.497743 435.869175 
L 894.532533 442.279585 
L 914.869662 451.57857 
L 914.869662 451.57857 
" style="fill:none;stroke:#e69f00;stroke-linecap:round;stroke-width:1.5;"/>
   </g>
   <g id="line2d_23">
    <path clip-path="url(#p06bd780577)" d="M 184.581818 114.390291 
L 186.430648 111.95868 
L 188.279478 110.739113 
L 190.128308 108.242534 
L 191.977138 108.529761 
L 193.825968 110.122813 
L 195.674798 116.503714 
L 197.523628 118.399382 
L 199.372458 116.480099 
L 201.221288 115.513999 
L 203.070118 115.892991 
L 204.918948 113.231253 
L 206.767778 107.744054 
L 208.616608 106.596027 
L 210.465438 105.02583 
L 214.163098 100.44 
L 216.011928 105.395461 
L 217.860758 114.449883 
L 219.709588 122.502488 
L 221.558418 121.578689 
L 223.407248 120.417037 
L 225.256078 117.684119 
L 227.104908 116.530096 
L 228.953738 116.076458 
L 230.802568 114.442865 
L 232.651398 113.747942 
L 234.500228 113.959207 
L 236.349058 112.58249 
L 238.197888 112.923129 
L 240.046718 124.262808 
L 241.895548 129.688717 
L 243.744378 129.243422 
L 245.593208 127.517301 
L 247.442038 125.116794 
L 249.290868 123.807809 
L 251.139698 123.813909 
L 252.988528 124.426127 
L 254.837358 124.442079 
L 256.686188 125.174897 
L 258.535018 125.078884 
L 260.383848 128.700934 
L 262.232678 138.729844 
L 264.081508 143.419198 
L 265.930338 141.510145 
L 267.779168 140.229056 
L 269.627998 137.437811 
L 271.476828 135.057655 
L 273.325657 134.716122 
L 277.023317 135.555219 
L 278.872147 135.200856 
L 280.720977 133.76247 
L 282.569807 139.291461 
L 284.418637 150.175351 
L 286.267467 155.076208 
L 289.965127 150.97929 
L 293.662787 144.497597 
L 295.511617 142.297775 
L 297.360447 139.670817 
L 299.209277 139.037366 
L 301.058107 139.780238 
L 302.906937 137.633815 
L 304.755767 142.628495 
L 306.604597 154.622212 
L 308.453427 157.509965 
L 310.302257 156.854396 
L 312.151087 153.249386 
L 313.999917 152.763507 
L 317.697577 146.600741 
L 319.546407 145.373342 
L 321.395237 144.949063 
L 323.244067 144.90671 
L 325.092897 144.076243 
L 326.941727 142.872866 
L 328.790557 148.147324 
L 330.639387 150.551853 
L 332.488217 149.037481 
L 334.337047 145.415469 
L 336.185877 144.093768 
L 338.034707 143.454427 
L 339.883537 143.495253 
L 341.732367 140.494078 
L 343.581197 139.143207 
L 345.430027 138.145219 
L 347.278857 138.675378 
L 349.127687 143.08923 
L 350.976517 155.181824 
L 352.825347 158.392932 
L 354.674177 157.380694 
L 356.523007 154.362438 
L 358.371837 150.171478 
L 360.220667 149.718553 
L 362.069497 149.700966 
L 363.918327 147.104797 
L 365.767157 147.350712 
L 367.615987 146.330139 
L 369.464817 146.180405 
L 371.313647 147.831541 
L 373.162477 157.359843 
L 375.011307 160.699895 
L 376.860137 159.237346 
L 378.708967 159.298099 
L 380.557797 158.266776 
L 382.406627 157.619599 
L 384.255457 158.401637 
L 386.104287 158.937792 
L 387.953117 158.914921 
L 389.801947 159.323596 
L 391.650777 160.133255 
L 393.499607 164.704295 
L 395.348437 176.749936 
L 397.197267 181.289469 
L 399.046097 179.368262 
L 400.894926 179.246858 
L 402.743756 175.110351 
L 404.592586 172.410116 
L 408.290246 165.689394 
L 410.139076 161.634782 
L 411.987906 160.749944 
L 413.836736 160.971947 
L 415.685566 163.62629 
L 417.534396 170.629269 
L 419.383226 171.912678 
L 421.232056 168.953134 
L 423.080886 167.9766 
L 424.929716 165.77115 
L 428.627376 159.922378 
L 430.476206 159.476343 
L 432.325036 159.805019 
L 434.173866 157.799399 
L 436.022696 158.34842 
L 437.871526 163.290235 
L 439.720356 170.646527 
L 441.569186 172.721919 
L 445.266846 166.915326 
L 447.115676 165.441162 
L 448.964506 162.25191 
L 450.813336 160.997043 
L 452.662166 160.457176 
L 454.510996 158.773657 
L 456.359826 157.665264 
L 458.208656 156.090055 
L 460.057486 163.550514 
L 461.906316 177.039015 
L 463.755146 181.357501 
L 465.603976 183.061098 
L 467.452806 182.304858 
L 469.301636 180.053652 
L 471.150466 179.264253 
L 472.999296 178.305559 
L 474.848126 176.221513 
L 476.696956 176.373856 
L 478.545786 175.871531 
L 480.394616 173.555612 
L 482.243446 173.99728 
L 484.092276 185.970415 
L 485.941106 189.922338 
L 487.789936 188.434887 
L 489.638766 186.475072 
L 491.487596 183.172549 
L 493.336426 182.507375 
L 495.185256 179.605787 
L 497.034086 179.362649 
L 498.882916 178.776841 
L 500.731746 176.762043 
L 502.580576 175.792351 
L 504.429406 181.00327 
L 506.278236 188.247097 
L 508.127066 192.899533 
L 509.975896 190.215717 
L 511.824726 189.532076 
L 513.673556 187.521003 
L 515.522386 187.849469 
L 517.371216 185.317071 
L 519.220046 183.70824 
L 521.068876 184.202213 
L 522.917706 183.972289 
L 524.766536 182.482712 
L 526.615366 185.619024 
L 528.464195 194.636998 
L 530.313025 201.705697 
L 532.161855 199.770791 
L 534.010685 198.439352 
L 537.708345 189.590167 
L 539.557175 187.766634 
L 541.406005 188.321996 
L 545.103665 188.550708 
L 546.952495 188.907535 
L 548.801325 194.931599 
L 550.650155 206.68254 
L 552.498985 210.354926 
L 554.347815 208.52078 
L 558.045475 203.080496 
L 559.894305 199.494004 
L 561.743135 197.305995 
L 565.440795 193.487492 
L 567.289625 190.094565 
L 569.138455 189.791319 
L 570.987285 198.137861 
L 572.836115 212.157852 
L 574.684945 217.81959 
L 576.533775 216.259163 
L 578.382605 213.275794 
L 580.231435 212.021737 
L 582.080265 211.130654 
L 583.929095 211.695322 
L 585.777925 209.611258 
L 587.626755 206.20511 
L 589.475585 205.041045 
L 591.324415 205.821663 
L 593.173245 211.125224 
L 595.022075 220.781005 
L 596.870905 226.434157 
L 598.719735 225.557464 
L 600.568565 223.766108 
L 602.417395 222.530836 
L 604.266225 222.672795 
L 606.115055 219.869705 
L 607.963885 216.649043 
L 609.812715 214.131506 
L 611.661545 212.645917 
L 613.510375 212.797813 
L 615.359205 218.569173 
L 617.208035 232.016234 
L 619.056865 239.036534 
L 620.905695 239.61495 
L 622.754525 239.529624 
L 624.603355 236.531943 
L 626.452185 234.393727 
L 628.301015 232.745503 
L 630.149845 232.229715 
L 631.998675 233.51467 
L 633.847505 232.199729 
L 635.696335 232.690903 
L 637.545165 234.369466 
L 639.393995 244.993695 
L 641.242825 252.235398 
L 643.091655 252.462518 
L 644.940485 253.01247 
L 646.789315 253.201857 
L 650.486975 249.203247 
L 652.335805 248.558031 
L 654.184634 247.718824 
L 656.033464 246.562219 
L 657.882294 247.210577 
L 659.731124 252.747293 
L 661.579954 268.809107 
L 663.428784 277.011806 
L 665.277614 274.848899 
L 667.126444 273.843465 
L 668.975274 270.727168 
L 670.824104 269.094354 
L 672.672934 268.539722 
L 674.521764 267.023247 
L 676.370594 266.807634 
L 678.219424 266.396472 
L 680.068254 266.320583 
L 681.917084 273.929665 
L 683.765914 288.455179 
L 685.614744 294.441315 
L 689.312404 288.997901 
L 691.161234 285.791714 
L 693.010064 283.037337 
L 694.858894 282.312445 
L 696.707724 282.24078 
L 698.556554 282.615275 
L 700.405384 281.447798 
L 702.254214 281.154794 
L 704.103044 284.055281 
L 705.951874 297.38773 
L 707.800704 304.942619 
L 709.649534 303.084206 
L 711.498364 302.131733 
L 713.347194 302.083167 
L 715.196024 299.826056 
L 717.044854 296.465314 
L 718.893684 295.928995 
L 720.742514 296.30667 
L 722.591344 297.042625 
L 724.440174 297.976125 
L 726.289004 305.61528 
L 728.137834 322.310456 
L 729.986664 330.760237 
L 731.835494 329.751111 
L 735.533154 328.448872 
L 737.381984 326.048003 
L 739.230814 325.262162 
L 741.079644 322.854114 
L 742.928474 322.996133 
L 744.777304 321.400059 
L 746.626134 321.985567 
L 748.474964 328.811621 
L 750.323794 345.09838 
L 752.172624 352.947825 
L 754.021454 351.95686 
L 755.870284 351.388692 
L 757.719114 349.120235 
L 759.567944 349.21562 
L 763.265604 346.155639 
L 765.114434 343.633023 
L 766.963264 342.415201 
L 768.812094 342.923072 
L 770.660924 353.860915 
L 772.509754 375.288606 
L 774.358584 385.454123 
L 776.207414 384.520432 
L 778.056244 381.17938 
L 779.905074 379.810809 
L 781.753903 379.153832 
L 783.602733 376.155862 
L 785.451563 374.591932 
L 787.300393 375.004411 
L 789.149223 375.279164 
L 790.998053 373.970797 
L 792.846883 378.002936 
L 794.695713 389.57867 
L 796.544543 392.799684 
L 798.393373 389.199722 
L 800.242203 388.035508 
L 802.091033 386.36222 
L 803.939863 386.17742 
L 805.788693 384.452074 
L 807.637523 384.129973 
L 809.486353 383.535324 
L 811.335183 381.818835 
L 813.184013 381.931884 
L 815.032843 386.697421 
L 816.881673 400.801103 
L 818.730503 407.299645 
L 820.579333 404.423791 
L 822.428163 404.144482 
L 824.276993 400.919784 
L 826.125823 398.989972 
L 827.974653 397.982899 
L 829.823483 397.226896 
L 831.672313 396.593187 
L 833.521143 396.087728 
L 835.369973 395.21841 
L 837.218803 400.395391 
L 839.067633 417.54856 
L 840.916463 422.419468 
L 842.765293 419.295806 
L 844.614123 415.723485 
L 846.462953 414.763243 
L 848.311783 413.985036 
L 850.160613 412.583551 
L 852.009443 412.652794 
L 853.858273 411.351463 
L 855.707103 409.562466 
L 857.555933 409.475672 
L 859.404763 415.976065 
L 861.253593 434.974443 
L 863.102423 442.46919 
L 864.951253 442.443877 
L 866.800083 436.855433 
L 868.648913 433.622518 
L 870.497743 432.174531 
L 872.346573 430.381678 
L 874.195403 427.826555 
L 876.044233 428.231043 
L 877.893063 427.296078 
L 879.741893 426.594503 
L 881.590723 432.072572 
L 883.439553 442.98501 
L 885.288383 446.635108 
L 888.986043 440.413636 
L 890.834873 439.256541 
L 892.683703 439.262886 
L 894.532533 438.719198 
L 896.381363 434.789462 
L 898.230193 434.894725 
L 900.079023 434.703058 
L 901.927853 433.39043 
L 903.776683 435.192739 
L 905.625513 442.212303 
L 907.474343 448.096276 
L 909.323172 447.024914 
L 911.172002 446.173668 
L 913.020832 444.857167 
L 914.869662 444.355852 
L 916.718492 442.981154 
L 918.567322 442.74577 
L 920.416152 442.775633 
L 922.264982 438.651882 
L 924.113812 441.171411 
L 925.962642 448.924083 
L 927.811472 467.341679 
L 929.660302 477.543266 
L 931.509132 476.826987 
L 933.357962 475.82811 
L 935.206792 473.128433 
L 937.055622 473.296086 
L 938.904452 472.370696 
L 940.753282 472.456502 
L 942.602112 471.959294 
L 944.450942 470.364736 
L 946.299772 471.340893 
L 948.148602 474.045546 
L 949.997432 487.484648 
L 951.846262 491.515131 
L 953.695092 491.015908 
L 955.543922 488.350715 
L 957.392752 486.493673 
L 959.241582 485.406869 
L 961.090412 485.178263 
L 962.939242 483.697356 
L 964.788072 482.709709 
L 966.636902 481.530454 
L 968.485732 481.663254 
L 970.334562 485.859733 
L 972.183392 495.242695 
L 974.032222 503.643235 
L 975.881052 502.807592 
L 977.729882 502.480413 
L 979.578712 500.143718 
L 981.427542 499.215351 
L 983.276372 496.810834 
L 985.125202 496.137526 
L 986.974032 494.304236 
L 988.822862 493.560646 
L 990.671692 493.746905 
L 992.520522 494.959092 
L 994.369352 506.174524 
L 996.218182 510.708888 
L 996.218182 510.708888 
" style="fill:none;stroke:#009e73;stroke-linecap:round;stroke-width:1.5;"/>
   </g>
  </g>
 </g>
 <defs>
  <clipPath id="p06bd780577">
   <rect height="498.96" width="892.8" x="144" y="77.76"/>
  </clipPath>
 </defs>
</svg>
