<?xml version="1.0" encoding="utf-8" standalone="no"?>
<!DOCTYPE svg PUBLIC "-//W3C//DTD SVG 1.1//EN"
  "http://www.w3.org/Graphics/SVG/1.1/DTD/svg11.dtd">
<!-- Created with matplotlib (https://matplotlib.org/) -->
<svg height="648pt" version="1.1" viewBox="0 0 1152 648" width="1152pt" xmlns="http://www.w3.org/2000/svg" xmlns:xlink="http://www.w3.org/1999/xlink">
 <metadata>
  <rdf:RDF xmlns:cc="http://creativecommons.org/ns#" xmlns:dc="http://purl.org/dc/elements/1.1/" xmlns:rdf="http://www.w3.org/1999/02/22-rdf-syntax-ns#">
   <cc:Work>
    <dc:type rdf:resource="http://purl.org/dc/dcmitype/StillImage"/>
    <dc:date>2022-12-16T18:02:26.471890</dc:date>
    <dc:format>image/svg+xml</dc:format>
    <dc:creator>
     <cc:Agent>
      <dc:title>Matplotlib v3.3.1, https://matplotlib.org/</dc:title>
     </cc:Agent>
    </dc:creator>
   </cc:Work>
  </rdf:RDF>
 </metadata>
 <defs>
  <style type="text/css">*{stroke-linecap:butt;stroke-linejoin:round;}</style>
 </defs>
 <g id="figure_1">
  <g id="patch_1">
   <path d="M 0 648 
L 1152 648 
L 1152 0 
L 0 0 
z
" style="fill:#ffffff;"/>
  </g>
  <g id="axes_1">
   <g id="patch_2">
    <path d="M 144 576.72 
L 1036.8 576.72 
L 1036.8 77.76 
L 144 77.76 
z
" style="fill:none;"/>
   </g>
   <g id="PolyCollection_1">
    <defs>
     <path d="M 541.848389 -448.954193 
L 541.848389 -467.699853 
L 543.680525 -467.847132 
L 549.176934 -446.369475 
L 551.00907 -445.714745 
L 552.841207 -446.081897 
L 554.673343 -445.841782 
L 556.505479 -446.902054 
L 558.337615 -450.577756 
L 560.169752 -449.064478 
L 562.001888 -453.26159 
L 563.834024 -456.494756 
L 565.66616 -457.166936 
L 569.330433 -444.342465 
L 571.162569 -434.95009 
L 572.994706 -432.108506 
L 574.826842 -432.326284 
L 576.658978 -432.084076 
L 578.491114 -434.86633 
L 580.323251 -433.503821 
L 582.155387 -432.745088 
L 583.987523 -434.159249 
L 585.819659 -438.440122 
L 587.651796 -437.32052 
L 589.483932 -435.962898 
L 591.316068 -429.024714 
L 593.148204 -420.333138 
L 594.980341 -417.612309 
L 596.812477 -416.16604 
L 598.644613 -419.237268 
L 600.476749 -420.946686 
L 602.308886 -419.875944 
L 604.141022 -421.489037 
L 605.973158 -424.660778 
L 607.805294 -425.079582 
L 609.637431 -427.729214 
L 611.469567 -424.459752 
L 613.301703 -415.396837 
L 615.13384 -402.078875 
L 616.965976 -397.512517 
L 618.798112 -398.223087 
L 620.630248 -398.289398 
L 622.462385 -402.141695 
L 624.294521 -400.289186 
L 626.126657 -403.656369 
L 627.958793 -404.963735 
L 629.79093 -403.387637 
L 631.623066 -403.948136 
L 633.455202 -403.364602 
L 635.287338 -397.310793 
L 637.119475 -388.318376 
L 638.951611 -384.223871 
L 640.783747 -385.148729 
L 642.615883 -383.149639 
L 644.44802 -382.625436 
L 646.280156 -384.957475 
L 648.112292 -387.704131 
L 649.944428 -386.957264 
L 651.776565 -388.002179 
L 653.608701 -388.814659 
L 655.440837 -387.459828 
L 657.272974 -378.388537 
L 659.10511 -364.796258 
L 660.937246 -360.397422 
L 662.769382 -358.521879 
L 664.601519 -360.178248 
L 666.433655 -364.336272 
L 668.265791 -367.041745 
L 670.097927 -365.958439 
L 671.930064 -369.630651 
L 673.7622 -368.44055 
L 675.594336 -367.228113 
L 677.426472 -366.971944 
L 679.258609 -356.760809 
L 681.090745 -345.488005 
L 682.922881 -341.00471 
L 684.755017 -341.706904 
L 686.587154 -347.022223 
L 688.41929 -352.096032 
L 690.251426 -353.38176 
L 692.083562 -350.179306 
L 693.915699 -350.111599 
L 695.747835 -351.370803 
L 697.579971 -352.697713 
L 699.412108 -352.073695 
L 701.244244 -344.565939 
L 703.07638 -329.931536 
L 704.908516 -326.054809 
L 706.740653 -327.808201 
L 708.572789 -329.070894 
L 710.404925 -330.796366 
L 712.237061 -330.591152 
L 714.069198 -331.895028 
L 715.901334 -332.722864 
L 717.73347 -331.083945 
L 719.565606 -333.289645 
L 721.397743 -326.15253 
L 723.229879 -313.654027 
L 725.062015 -300.055466 
L 726.894151 -293.261072 
L 728.726288 -295.847185 
L 730.558424 -294.797384 
L 732.39056 -296.010519 
L 736.054833 -297.65921 
L 737.886969 -298.593841 
L 739.719105 -298.860479 
L 741.551242 -297.453298 
L 745.215514 -284.294481 
L 747.04765 -270.6331 
L 748.879787 -266.525332 
L 750.711923 -264.873151 
L 750.711923 -264.969476 
L 756.208332 -269.111446 
L 756.208332 -268.331075 
L 758.040468 -269.784324 
L 759.872604 -272.745965 
L 761.70474 -273.884414 
L 765.369013 -271.679411 
L 767.201149 -255.526147 
L 769.033285 -233.779758 
L 770.865422 -226.941389 
L 774.529694 -231.62571 
L 776.36183 -232.329998 
L 778.193967 -232.638517 
L 780.026103 -233.350484 
L 783.690376 -233.472635 
L 785.522512 -235.928919 
L 787.354648 -237.153921 
L 789.186784 -229.334853 
L 794.683193 -224.953467 
L 796.515329 -224.890646 
L 798.347466 -225.610989 
L 800.179602 -226.988155 
L 803.843874 -230.175252 
L 805.676011 -230.982148 
L 807.508147 -231.165724 
L 809.340283 -228.448385 
L 813.004556 -208.637567 
L 814.836692 -205.879045 
L 816.668828 -207.046112 
L 818.500964 -207.305073 
L 822.165237 -213.471261 
L 823.997373 -214.054096 
L 825.82951 -215.868913 
L 827.661646 -216.556449 
L 827.661646 -216.807732 
L 833.158055 -203.888331 
L 834.990191 -194.405216 
L 836.822327 -192.19463 
L 842.318736 -196.002953 
L 844.150872 -199.782657 
L 845.983008 -198.195391 
L 847.815145 -198.173055 
L 851.479417 -200.482758 
L 853.311553 -200.687274 
L 855.14369 -188.649455 
L 856.975826 -171.255834 
L 862.472235 -181.248493 
L 864.304371 -176.829415 
L 866.136507 -180.491156 
L 871.632916 -181.076086 
L 871.632916 -183.382299 
L 873.465052 -183.72502 
L 875.297189 -181.781072 
L 897.282824 -176.651423 
L 899.11496 -174.919669 
L 904.611369 -165.119659 
L 906.443505 -167.368636 
L 908.275641 -166.543592 
L 910.107778 -166.174347 
L 911.939914 -164.367208 
L 913.77205 -162.896509 
L 915.604186 -163.953291 
L 917.436323 -165.240414 
L 919.268459 -161.344841 
L 921.100595 -147.256279 
L 922.932731 -131.2482 
L 924.764868 -124.813977 
L 926.597004 -125.877739 
L 928.42914 -128.809366 
L 930.261276 -128.502243 
L 932.093413 -125.884021 
L 933.925549 -129.119979 
L 935.757685 -126.642754 
L 937.589821 -127.266772 
L 939.421958 -129.162557 
L 941.254094 -126.543637 
L 943.08623 -115.834125 
L 944.918367 -110.106982 
L 946.750503 -109.765657 
L 948.582639 -114.408098 
L 950.414775 -114.757101 
L 952.246912 -116.278057 
L 954.079048 -120.477961 
L 955.911184 -116.159396 
L 957.74332 -116.475593 
L 959.575457 -117.938614 
L 961.407593 -114.758497 
L 963.239729 -115.127742 
L 965.071865 -112.546515 
L 966.904002 -102.927986 
L 968.736138 -99.512641 
L 970.568274 -96.517495 
L 972.40041 -99.278809 
L 974.232547 -101.471247 
L 976.064683 -102.194382 
L 977.896819 -103.185551 
L 979.728955 -104.337261 
L 981.561092 -105.717918 
L 983.393228 -104.350523 
L 985.225364 -106.206522 
L 987.057501 -101.292557 
L 987.057501 -94.096111 
L 987.057501 -94.096111 
L 985.225364 -100.172955 
L 983.393228 -99.338837 
L 981.561092 -101.608056 
L 979.728955 -101.108284 
L 977.896819 -100.09757 
L 976.064683 -99.240418 
L 974.232547 -98.640133 
L 972.40041 -96.584504 
L 970.568274 -93.96 
L 968.736138 -97.073807 
L 966.904002 -100.630149 
L 965.071865 -110.346398 
L 963.239729 -112.91227 
L 961.407593 -112.572341 
L 959.575457 -115.744082 
L 957.74332 -114.268496 
L 955.911184 -113.955092 
L 954.079048 -118.268073 
L 952.246912 -114.057 
L 950.414775 -112.543025 
L 948.582639 -112.207982 
L 946.750503 -107.550185 
L 944.918367 -107.906866 
L 943.08623 -113.632613 
L 941.254094 -124.328165 
L 939.421958 -126.968025 
L 937.589821 -125.068052 
L 935.757685 -124.421698 
L 933.925549 -126.871002 
L 932.093413 -123.651797 
L 930.261276 -126.290959 
L 928.42914 -126.610646 
L 926.597004 -123.679019 
L 924.764868 -122.576169 
L 922.932731 -129.038312 
L 921.100595 -145.060351 
L 919.268459 -159.133556 
L 917.436323 -163.031922 
L 915.604186 -161.744798 
L 913.77205 -160.67266 
L 911.939914 -162.109856 
L 910.107778 -163.950499 
L 908.275641 -164.284844 
L 906.443505 -165.026126 
L 904.611369 -162.545412 
L 899.11496 -172.299353 
L 897.282824 -173.898486 
L 875.297189 -176.331038 
L 873.465052 -178.214957 
L 871.632916 -177.757763 
L 871.632916 -175.358017 
L 866.136507 -174.749356 
L 864.304371 -171.086218 
L 862.472235 -175.48296 
L 856.975826 -168.292098 
L 855.14369 -186.072416 
L 853.311553 -198.210747 
L 851.479417 -197.870818 
L 847.815145 -195.732824 
L 845.983008 -195.774705 
L 844.150872 -197.209806 
L 842.318736 -193.209531 
L 836.822327 -189.505909 
L 834.990191 -191.966382 
L 833.158055 -201.372716 
L 827.661646 -214.44149 
L 827.661646 -214.345165 
L 825.82951 -213.767914 
L 823.997373 -209.373266 
L 822.165237 -210.742056 
L 818.500964 -204.972335 
L 816.668828 -204.720355 
L 814.836692 -203.440211 
L 813.004556 -206.113576 
L 809.340283 -225.758268 
L 807.508147 -228.686405 
L 805.676011 -228.544709 
L 803.843874 -227.792259 
L 800.179602 -223.787098 
L 798.347466 -222.934832 
L 796.515329 -222.168421 
L 794.683193 -222.143293 
L 789.186784 -226.512115 
L 787.354648 -234.255798 
L 785.522512 -233.106181 
L 783.690376 -230.291122 
L 780.026103 -230.268087 
L 778.193967 -229.792047 
L 776.36183 -229.416519 
L 774.529694 -228.426048 
L 770.865422 -223.818508 
L 769.033285 -230.98494 
L 767.201149 -252.720161 
L 765.369013 -268.729636 
L 761.70474 -270.662416 
L 759.872604 -270.065621 
L 758.040468 -266.866657 
L 756.208332 -265.613038 
L 756.208332 -266.259392 
L 750.711923 -262.007137 
L 750.711923 -261.972236 
L 748.879787 -263.505756 
L 747.04765 -267.458567 
L 745.215514 -280.906358 
L 741.551242 -294.255033 
L 739.719105 -295.557513 
L 737.886969 -295.173609 
L 736.054833 -293.963964 
L 732.39056 -292.732681 
L 730.558424 -291.599118 
L 728.726288 -292.806669 
L 726.894151 -290.436938 
L 725.062015 -297.336033 
L 723.229879 -310.817329 
L 721.397743 -322.883068 
L 719.565606 -330.582776 
L 717.73347 -328.420352 
L 715.901334 -329.798217 
L 714.069198 -329.133715 
L 712.237061 -327.806107 
L 710.404925 -327.973628 
L 708.572789 -326.213256 
L 706.740653 -324.936602 
L 704.908516 -323.268367 
L 703.07638 -327.02085 
L 701.244244 -341.510067 
L 699.412108 -349.218849 
L 697.579971 -349.795403 
L 695.747835 -348.441968 
L 693.915699 -346.910542 
L 692.083562 -346.907052 
L 690.251426 -350.179306 
L 688.41929 -348.874034 
L 686.587154 -343.712277 
L 684.755017 -338.610548 
L 682.922881 -337.887413 
L 681.090745 -342.346976 
L 679.258609 -353.541603 
L 677.426472 -363.868608 
L 675.594336 -363.982383 
L 673.7622 -365.039863 
L 671.930064 -366.491018 
L 670.097927 -362.594048 
L 668.265791 -363.902112 
L 666.433655 -361.209203 
L 664.601519 -356.87947 
L 662.769382 -355.338969 
L 660.937246 -357.31363 
L 659.10511 -361.652437 
L 657.272974 -375.454118 
L 655.440837 -384.496093 
L 653.608701 -385.88722 
L 651.776565 -385.024484 
L 649.944428 -384.052161 
L 648.112292 -384.704099 
L 646.280156 -381.875079 
L 644.44802 -379.636573 
L 642.615883 -380.237556 
L 640.783747 -382.161262 
L 638.951611 -381.184751 
L 637.119475 -385.452362 
L 635.287338 -394.232585 
L 633.455202 -400.268246 
L 631.623066 -401.098874 
L 629.79093 -400.50487 
L 627.958793 -402.135413 
L 626.126657 -400.790355 
L 624.294521 -397.44132 
L 622.462385 -398.859669 
L 620.630248 -395.638369 
L 618.798112 -395.500862 
L 616.965976 -394.759579 
L 615.13384 -399.306393 
L 613.301703 -412.593643 
L 611.469567 -421.542085 
L 609.637431 -424.860408 
L 607.805294 -422.241488 
L 605.973158 -421.797556 
L 604.141022 -418.632795 
L 602.308886 -417.146739 
L 600.476749 -418.077879 
L 598.644613 -416.371254 
L 596.812477 -413.542932 
L 594.980341 -414.704414 
L 593.148204 -417.560657 
L 591.316068 -426.359725 
L 589.483932 -433.001954 
L 587.651796 -434.341429 
L 585.819659 -435.495931 
L 583.987523 -431.220642 
L 582.155387 -429.602663 
L 580.323251 -429.885356 
L 578.491114 -431.751825 
L 576.658978 -428.945839 
L 574.826842 -429.151751 
L 572.994706 -428.994002 
L 571.162569 -431.878862 
L 569.330433 -441.377333 
L 565.66616 -453.23018 
L 563.834024 -452.898627 
L 562.001888 -449.643125 
L 560.169752 -444.914132 
L 558.337615 -444.798263 
L 556.505479 -441.777291 
L 554.673343 -440.845452 
L 552.841207 -440.630466 
L 551.00907 -436.647642 
L 549.176934 -438.920351 
L 543.680525 -457.992678 
L 541.848389 -448.954193 
z
" id="me9f113281a" style="stroke:#56b4e9;stroke-opacity:0.1;"/>
    </defs>
    <g clip-path="url(#pde7145d742)">
     <use style="fill:#56b4e9;fill-opacity:0.1;stroke:#56b4e9;stroke-opacity:0.1;" x="0" xlink:href="#me9f113281a" y="648"/>
    </g>
   </g>
   <g id="PolyCollection_2">
    <defs>
     <path d="M 316.495629 -482.641245 
L 316.495629 -484.914136 
L 318.327765 -485.339689 
L 320.159901 -485.655712 
L 321.992038 -485.915049 
L 323.824174 -486.138146 
L 325.65631 -486.335514 
L 327.488447 -486.513373 
L 329.320583 -486.675799 
L 331.152719 -486.825605 
L 332.984855 -486.964851 
L 334.816992 -487.095085 
L 336.649128 -487.217501 
L 338.481264 -487.23671 
L 340.3134 -487.249819 
L 342.145537 -487.257497 
L 343.977673 -487.260254 
L 345.809809 -487.258572 
L 347.641945 -487.252813 
L 349.474082 -487.243327 
L 351.306218 -487.230407 
L 353.138354 -487.214297 
L 354.97049 -487.195235 
L 356.802627 -487.173401 
L 358.634763 -487.148999 
L 360.466899 -486.645645 
L 362.299036 -486.140024 
L 364.131172 -485.632252 
L 365.963308 -485.122456 
L 367.795444 -484.610754 
L 369.627581 -484.097224 
L 371.459717 -483.581977 
L 373.291853 -483.065068 
L 375.123989 -482.546603 
L 376.956126 -482.026637 
L 378.788262 -481.50524 
L 380.620398 -480.982461 
L 382.452534 -480.89639 
L 384.284671 -480.80597 
L 386.116807 -480.711509 
L 387.948943 -480.613279 
L 389.781079 -480.51153 
L 391.613216 -480.406473 
L 393.445352 -480.298296 
L 395.277488 -480.187195 
L 397.109624 -480.073322 
L 398.941761 -479.956825 
L 400.773897 -479.837821 
L 402.606033 -479.716459 
L 404.43817 -479.905395 
L 406.270306 -480.09207 
L 408.102442 -480.276588 
L 409.934578 -480.45904 
L 411.766715 -480.639524 
L 413.598851 -480.818116 
L 415.430987 -480.994893 
L 417.263123 -481.169939 
L 419.09526 -481.343317 
L 420.927396 -481.515082 
L 422.759532 -481.685298 
L 424.591668 -481.854027 
L 426.423805 -481.95283 
L 428.255941 -482.050125 
L 430.088077 -482.145961 
L 431.920213 -482.240394 
L 433.75235 -482.333474 
L 435.584486 -482.425233 
L 437.416622 -482.51573 
L 439.248758 -482.604991 
L 441.080895 -482.693059 
L 442.913031 -482.779974 
L 444.745167 -482.865759 
L 446.577304 -482.950455 
L 448.40944 -482.744613 
L 450.241576 -482.537752 
L 452.073712 -482.329872 
L 453.905849 -482.121028 
L 455.737985 -481.911235 
L 457.570121 -481.700514 
L 459.402257 -481.488893 
L 461.234394 -481.276385 
L 463.06653 -481.063032 
L 464.898666 -480.848842 
L 466.730802 -480.633821 
L 468.562939 -480.418018 
L 470.395075 -480.08456 
L 472.227211 -479.750347 
L 474.059347 -479.415416 
L 475.891484 -479.079766 
L 477.72362 -478.743424 
L 479.555756 -478.406399 
L 481.387892 -478.068703 
L 483.220029 -477.730352 
L 485.052165 -477.391358 
L 486.884301 -477.051729 
L 488.716438 -476.711493 
L 490.548574 -476.370649 
L 492.38071 -476.288124 
L 494.212846 -476.205047 
L 496.044983 -476.121419 
L 497.877119 -476.037274 
L 499.709255 -475.952599 
L 501.541391 -475.867407 
L 503.373528 -475.78172 
L 505.205664 -475.69553 
L 507.0378 -475.608859 
L 508.869936 -475.521699 
L 510.702073 -475.434071 
L 512.534209 -475.34599 
L 514.366345 -474.985832 
L 516.198481 -474.625186 
L 518.030618 -474.264052 
L 519.862754 -473.902443 
L 521.69489 -473.540366 
L 523.527026 -473.177828 
L 525.359163 -472.814844 
L 527.191299 -472.451413 
L 529.023435 -472.087542 
L 530.855572 -471.723239 
L 532.687708 -471.358516 
L 534.519844 -470.993375 
L 536.35198 -470.357142 
L 538.184117 -469.719842 
L 540.016253 -469.081508 
L 541.848389 -468.442162 
L 543.680525 -467.801818 
L 545.512662 -467.16051 
L 547.344798 -466.518254 
L 549.176934 -465.875069 
L 551.00907 -465.23099 
L 552.841207 -464.586011 
L 554.673343 -463.940167 
L 556.505479 -463.293478 
L 558.337615 -462.550834 
L 560.169752 -461.796087 
L 562.001888 -461.014815 
L 563.834024 -460.217134 
L 565.66616 -459.408933 
L 567.498297 -458.592642 
L 569.330433 -457.773001 
L 571.162569 -456.951301 
L 572.994706 -456.13166 
L 574.826842 -455.192758 
L 576.658978 -454.269044 
L 578.491114 -453.367206 
L 580.323251 -452.45013 
L 582.155387 -451.529278 
L 583.987523 -450.585371 
L 585.819659 -449.612846 
L 587.651796 -448.617335 
L 589.483932 -447.605442 
L 591.316068 -446.586681 
L 593.148204 -445.564632 
L 594.980341 -444.541194 
L 596.812477 -443.529657 
L 598.644613 -442.531969 
L 600.476749 -441.552491 
L 602.308886 -440.515596 
L 604.141022 -439.481038 
L 605.973158 -438.429841 
L 607.805294 -437.357968 
L 609.637431 -436.269678 
L 611.469567 -435.167128 
L 613.301703 -434.053033 
L 615.13384 -432.932412 
L 616.965976 -431.814164 
L 618.798112 -430.701995 
L 620.630248 -429.60586 
L 622.462385 -428.527496 
L 624.294521 -427.393389 
L 626.126657 -426.256176 
L 627.958793 -425.099335 
L 629.79093 -423.914979 
L 631.623066 -422.592061 
L 633.455202 -421.251673 
L 635.287338 -419.903096 
L 637.119475 -418.549836 
L 638.951611 -417.20288 
L 640.783747 -415.87338 
L 642.615883 -414.565002 
L 644.44802 -413.274918 
L 646.280156 -411.967734 
L 648.112292 -410.661645 
L 649.944428 -409.336592 
L 651.776565 -407.98278 
L 653.608701 -406.606067 
L 655.440837 -405.21247 
L 657.272974 -403.817853 
L 659.10511 -402.434383 
L 660.937246 -401.058703 
L 662.769382 -399.693898 
L 664.601519 -398.340722 
L 666.433655 -397.005038 
L 668.265791 -395.686553 
L 670.097927 -394.37747 
L 671.930064 -393.055048 
L 673.7622 -391.714191 
L 675.594336 -390.359689 
L 677.426472 -388.998297 
L 679.258609 -387.63352 
L 681.090745 -386.2712 
L 682.922881 -384.916726 
L 684.755017 -383.574899 
L 686.587154 -382.247891 
L 688.41929 -380.93996 
L 690.251426 -379.619995 
L 692.083562 -378.292868 
L 693.915699 -376.936928 
L 695.747835 -375.55209 
L 697.579971 -374.094248 
L 699.412108 -372.615689 
L 701.244244 -371.121913 
L 703.07638 -369.622344 
L 704.908516 -368.119997 
L 706.740653 -366.622592 
L 708.572789 -365.02674 
L 710.404925 -363.438531 
L 712.237061 -361.713569 
L 714.069198 -359.981815 
L 715.901334 -358.230789 
L 717.73347 -356.457008 
L 719.565606 -354.658532 
L 721.397743 -352.844511 
L 723.229879 -351.021674 
L 725.062015 -349.194873 
L 726.894151 -347.366347 
L 728.726288 -345.544495 
L 730.558424 -343.733552 
L 732.39056 -341.928598 
L 734.222696 -340.104721 
L 736.054833 -338.283839 
L 737.886969 -336.445318 
L 739.719105 -334.584468 
L 741.551242 -332.707508 
L 743.383378 -330.813705 
L 745.215514 -328.912196 
L 747.04765 -327.011803 
L 748.879787 -325.117016 
L 750.711923 -323.231066 
L 752.544059 -321.362377 
L 754.376195 -319.515773 
L 756.208332 -317.731459 
L 758.040468 -315.925996 
L 759.872604 -314.11446 
L 761.70474 -312.287407 
L 763.536877 -310.432441 
L 765.369013 -308.582054 
L 767.201149 -306.821738 
L 769.033285 -305.076798 
L 770.865422 -303.355906 
L 772.697558 -301.685716 
L 774.529694 -300.072428 
L 776.36183 -298.521011 
L 778.193967 -297.354076 
L 780.026103 -296.19237 
L 781.858239 -295.007037 
L 783.690376 -293.81769 
L 785.522512 -292.628147 
L 787.354648 -291.440643 
L 789.186784 -290.260286 
L 791.018921 -289.08938 
L 792.851057 -287.933915 
L 794.683193 -286.799214 
L 796.515329 -285.696043 
L 798.347466 -284.595664 
L 800.179602 -283.633232 
L 802.011738 -282.684655 
L 803.843874 -281.712905 
L 805.676011 -280.710149 
L 807.508147 -279.705787 
L 809.340283 -278.689259 
L 811.172419 -277.660838 
L 813.004556 -276.627335 
L 814.836692 -275.588373 
L 816.668828 -274.552762 
L 818.500964 -273.514896 
L 820.333101 -272.486635 
L 822.165237 -271.3228 
L 823.997373 -270.334123 
L 825.82951 -269.330955 
L 827.661646 -268.326077 
L 829.493782 -267.312153 
L 831.325918 -266.285497 
L 833.158055 -265.247045 
L 834.990191 -264.207665 
L 836.822327 -263.168822 
L 838.654463 -262.137929 
L 840.4866 -261.123391 
L 842.318736 -260.130707 
L 844.150872 -259.216416 
L 845.983008 -258.299704 
L 847.815145 -257.372262 
L 849.647281 -256.429514 
L 851.479417 -255.473217 
L 853.311553 -254.505069 
L 855.14369 -253.536508 
L 856.975826 -252.56637 
L 858.807962 -251.607009 
L 860.640099 -250.661196 
L 862.472235 -249.758674 
L 864.304371 -248.858671 
L 866.136507 -248.394706 
L 867.968644 -247.947612 
L 869.80078 -247.496644 
L 871.632916 -247.032058 
L 873.465052 -246.557958 
L 875.297189 -246.079517 
L 877.129325 -245.602164 
L 878.961461 -245.13057 
L 880.793597 -244.662571 
L 882.625734 -244.199772 
L 884.45787 -243.739681 
L 886.290006 -243.292426 
L 888.122142 -242.670726 
L 889.954279 -241.968601 
L 891.786415 -241.221371 
L 893.618551 -240.469186 
L 895.450687 -239.712665 
L 897.282824 -238.943372 
L 899.11496 -238.149382 
L 900.947096 -236.815639 
L 902.779233 -235.470971 
L 904.611369 -234.087243 
L 906.443505 -232.644904 
L 908.275641 -231.116179 
L 910.107778 -228.577802 
L 911.939914 -226.060435 
L 913.77205 -223.53146 
L 915.604186 -220.999791 
L 917.436323 -218.471186 
L 919.268459 -215.9479 
L 921.100595 -213.424516 
L 922.932731 -210.90102 
L 924.764868 -208.37742 
L 926.597004 -205.849764 
L 928.42914 -203.322004 
L 930.261276 -200.788296 
L 932.093413 -198.254477 
L 933.925549 -196.069989 
L 935.757685 -193.885166 
L 937.589821 -191.700029 
L 939.421958 -189.514564 
L 941.254094 -187.328771 
L 943.08623 -185.142671 
L 944.918367 -182.95625 
L 946.750503 -180.769521 
L 948.582639 -178.582486 
L 950.414775 -176.395143 
L 952.246912 -174.207493 
L 952.246912 -110.454185 
L 952.246912 -110.454185 
L 950.414775 -112.837625 
L 948.582639 -115.221359 
L 946.750503 -117.6054 
L 944.918367 -119.989762 
L 943.08623 -122.374417 
L 941.254094 -124.759393 
L 939.421958 -127.14469 
L 937.589821 -129.530302 
L 935.757685 -131.916241 
L 933.925549 -134.302509 
L 932.093413 -136.689097 
L 930.261276 -139.336636 
L 928.42914 -141.984272 
L 926.597004 -144.625333 
L 924.764868 -147.266498 
L 922.932731 -149.902798 
L 921.100595 -152.539204 
L 919.268459 -155.175706 
L 917.436323 -157.812321 
L 915.604186 -160.453584 
L 913.77205 -163.098316 
L 911.939914 -165.741653 
L 910.107778 -168.374512 
L 908.275641 -171.05471 
L 906.443505 -172.745638 
L 904.611369 -174.360678 
L 902.779233 -175.924687 
L 900.947096 -177.45293 
L 899.11496 -178.974074 
L 897.282824 -179.899596 
L 895.450687 -180.806634 
L 893.618551 -181.692286 
L 891.786415 -182.554394 
L 889.954279 -183.381238 
L 888.122142 -184.158315 
L 886.290006 -184.875795 
L 884.45787 -185.38742 
L 882.625734 -185.920215 
L 880.793597 -186.457966 
L 878.961461 -187.00283 
L 877.129325 -187.552168 
L 875.297189 -188.108354 
L 873.465052 -188.665754 
L 871.632916 -189.221423 
L 869.80078 -189.770649 
L 867.968644 -190.306173 
L 866.136507 -190.836163 
L 864.304371 -191.383763 
L 862.472235 -192.379211 
L 860.640099 -193.377639 
L 858.807962 -194.420935 
L 856.975826 -195.476509 
L 855.14369 -196.541786 
L 853.311553 -197.603516 
L 851.479417 -198.664779 
L 849.647281 -199.713534 
L 847.815145 -200.749075 
L 845.983008 -201.770775 
L 844.150872 -202.78183 
L 842.318736 -203.791999 
L 840.4866 -204.88394 
L 838.654463 -206.001476 
L 836.822327 -207.135799 
L 834.990191 -208.277612 
L 833.158055 -209.420046 
L 831.325918 -210.561091 
L 829.493782 -211.689265 
L 827.661646 -212.805265 
L 825.82951 -213.91201 
L 823.997373 -215.016892 
L 822.165237 -216.099004 
L 820.333101 -217.364692 
L 818.500964 -218.494164 
L 816.668828 -219.630323 
L 814.836692 -220.762664 
L 813.004556 -221.8989 
L 811.172419 -223.030445 
L 809.340283 -224.157104 
L 807.508147 -225.272888 
L 805.676011 -226.377679 
L 803.843874 -227.480669 
L 802.011738 -228.553365 
L 800.179602 -229.598364 
L 798.347466 -230.66466 
L 796.515329 -231.892216 
L 794.683193 -233.124895 
L 792.851057 -234.4076 
L 791.018921 -235.718931 
L 789.186784 -237.045995 
L 787.354648 -238.380988 
L 785.522512 -239.721314 
L 783.690376 -241.065325 
L 781.858239 -242.407703 
L 780.026103 -243.74463 
L 778.193967 -245.057007 
L 776.36183 -246.373524 
L 774.529694 -248.08283 
L 772.697558 -249.860471 
L 770.865422 -251.69828 
L 769.033285 -253.582981 
L 767.201149 -255.488783 
L 765.369013 -257.407323 
L 763.536877 -259.415041 
L 761.70474 -261.425453 
L 759.872604 -263.405481 
L 758.040468 -265.373007 
L 756.208332 -267.333833 
L 754.376195 -269.261838 
L 752.544059 -271.248002 
L 750.711923 -273.260075 
L 748.879787 -275.289536 
L 747.04765 -277.326549 
L 745.215514 -279.36851 
L 743.383378 -281.411561 
L 741.551242 -283.447953 
L 739.719105 -285.469205 
L 737.886969 -287.475492 
L 736.054833 -289.452093 
L 734.222696 -291.404046 
L 732.39056 -293.359833 
L 730.558424 -295.281479 
L 728.726288 -297.208054 
L 726.894151 -299.140582 
L 725.062015 -301.077033 
L 723.229879 -303.011984 
L 721.397743 -304.944435 
L 719.565606 -306.870808 
L 717.73347 -308.786758 
L 715.901334 -310.68565 
L 714.069198 -312.565025 
L 712.237061 -314.424584 
L 710.404925 -316.276486 
L 708.572789 -318.008288 
L 706.740653 -319.748363 
L 704.908516 -321.390102 
L 703.07638 -323.037257 
L 701.244244 -324.68264 
L 699.412108 -326.321992 
L 697.579971 -327.947648 
L 695.747835 -329.553328 
L 693.915699 -331.082067 
L 692.083562 -332.56873 
L 690.251426 -334.013848 
L 688.41929 -335.449724 
L 686.587154 -336.880099 
L 684.755017 -338.333474 
L 682.922881 -339.80386 
L 681.090745 -341.286237 
L 679.258609 -342.776781 
L 677.426472 -344.269837 
L 675.594336 -345.760332 
L 673.7622 -347.243379 
L 671.930064 -348.713004 
L 670.097927 -350.160788 
L 668.265791 -351.59198 
L 666.433655 -353.033775 
L 664.601519 -354.494486 
L 662.769382 -355.970749 
L 660.937246 -357.457901 
L 659.10511 -358.95502 
L 657.272974 -360.45856 
L 655.440837 -361.969884 
L 653.608701 -363.481431 
L 651.776565 -364.981453 
L 649.944428 -366.461045 
L 648.112292 -367.911894 
L 646.280156 -369.338333 
L 644.44802 -370.766859 
L 642.615883 -372.196124 
L 640.783747 -373.647719 
L 638.951611 -375.12186 
L 637.119475 -376.612648 
L 635.287338 -378.109139 
L 633.455202 -379.602887 
L 631.623066 -381.09001 
L 629.79093 -382.560794 
L 627.958793 -383.891997 
L 626.126657 -385.190547 
L 624.294521 -386.464024 
L 622.462385 -387.734424 
L 620.630248 -388.948453 
L 618.798112 -390.180588 
L 616.965976 -391.428351 
L 615.13384 -392.681747 
L 613.301703 -393.937446 
L 611.469567 -395.188211 
L 609.637431 -396.428799 
L 607.805294 -397.657807 
L 605.973158 -398.871165 
L 604.141022 -400.06357 
L 602.308886 -401.238663 
L 600.476749 -402.416863 
L 598.644613 -403.541303 
L 596.812477 -404.690277 
L 594.980341 -405.856283 
L 593.148204 -407.034776 
L 591.316068 -408.213416 
L 589.483932 -409.390108 
L 587.651796 -410.562417 
L 585.819659 -411.717799 
L 583.987523 -412.847906 
L 582.155387 -413.94409 
L 580.323251 -415.014622 
L 578.491114 -416.083864 
L 576.658978 -417.141511 
L 574.826842 -418.221787 
L 572.994706 -419.316122 
L 571.162569 -420.266946 
L 569.330433 -421.222189 
L 567.498297 -422.178458 
L 565.66616 -423.134796 
L 563.834024 -424.084008 
L 562.001888 -425.022213 
L 560.169752 -426.007735 
L 558.337615 -426.967375 
L 556.505479 -427.921975 
L 554.673343 -428.812157 
L 552.841207 -429.703197 
L 551.00907 -430.595103 
L 549.176934 -431.487895 
L 547.344798 -432.381594 
L 545.512662 -433.276208 
L 543.680525 -434.171785 
L 541.848389 -435.068326 
L 540.016253 -435.96585 
L 538.184117 -436.864401 
L 536.35198 -437.763984 
L 534.519844 -438.664622 
L 532.687708 -439.193362 
L 530.855572 -439.722521 
L 529.023435 -440.252098 
L 527.191299 -440.782108 
L 525.359163 -441.312558 
L 523.527026 -441.843455 
L 521.69489 -442.374798 
L 519.862754 -442.906616 
L 518.030618 -443.438888 
L 516.198481 -443.971635 
L 514.366345 -444.50487 
L 512.534209 -445.038593 
L 510.702073 -445.293261 
L 508.869936 -445.548396 
L 507.0378 -445.803999 
L 505.205664 -446.060077 
L 503.373528 -446.31665 
L 501.541391 -446.573712 
L 499.709255 -446.831283 
L 497.877119 -447.089371 
L 496.044983 -447.347975 
L 494.212846 -447.60711 
L 492.38071 -447.866797 
L 490.548574 -448.12702 
L 488.716438 -448.65137 
L 486.884301 -449.176326 
L 485.052165 -449.701904 
L 483.220029 -450.228103 
L 481.387892 -450.754945 
L 479.555756 -451.282442 
L 477.72362 -451.81061 
L 475.891484 -452.339461 
L 474.059347 -452.869004 
L 472.227211 -453.399265 
L 470.395075 -453.93026 
L 468.562939 -454.461994 
L 466.730802 -454.879646 
L 464.898666 -455.298094 
L 463.06653 -455.717358 
L 461.234394 -456.137461 
L 459.402257 -456.558421 
L 457.570121 -456.980254 
L 455.737985 -457.403002 
L 453.905849 -457.826664 
L 452.073712 -458.251275 
L 450.241576 -458.676864 
L 448.40944 -459.103457 
L 446.577304 -459.531084 
L 444.745167 -459.670225 
L 442.913031 -459.810454 
L 441.080895 -459.951814 
L 439.248758 -460.094326 
L 437.416622 -460.238032 
L 435.584486 -460.382973 
L 433.75235 -460.529177 
L 431.920213 -460.676701 
L 430.088077 -460.825579 
L 428.255941 -460.97586 
L 426.423805 -461.127599 
L 424.591668 -461.280846 
L 422.759532 -461.356908 
L 420.927396 -461.434457 
L 419.09526 -461.513555 
L 417.263123 -461.594265 
L 415.430987 -461.676644 
L 413.598851 -461.760768 
L 411.766715 -461.846692 
L 409.934578 -461.934508 
L 408.102442 -462.024293 
L 406.270306 -462.116144 
L 404.43817 -462.210151 
L 402.606033 -462.30642 
L 400.773897 -462.710224 
L 398.941761 -463.116401 
L 397.109624 -463.52507 
L 395.277488 -463.936363 
L 393.445352 -464.350427 
L 391.613216 -464.76743 
L 389.781079 -465.187539 
L 387.948943 -465.610957 
L 386.116807 -466.037893 
L 384.284671 -466.468612 
L 382.452534 -466.903358 
L 380.620398 -467.342453 
L 378.788262 -468.055927 
L 376.956126 -468.770769 
L 375.123989 -469.487056 
L 373.291853 -470.20483 
L 371.459717 -470.924175 
L 369.627581 -471.645167 
L 367.795444 -472.367889 
L 365.963308 -473.092427 
L 364.131172 -473.818884 
L 362.299036 -474.547366 
L 360.466899 -475.277983 
L 358.634763 -476.010883 
L 356.802627 -476.269941 
L 354.97049 -476.531581 
L 353.138354 -476.795979 
L 351.306218 -477.063344 
L 349.474082 -477.333884 
L 347.641945 -477.607872 
L 345.809809 -477.885588 
L 343.977673 -478.167366 
L 342.145537 -478.453598 
L 340.3134 -478.744736 
L 338.481264 -479.041319 
L 336.649128 -479.343989 
L 334.816992 -479.556769 
L 332.984855 -479.777353 
L 331.152719 -480.006948 
L 329.320583 -480.247104 
L 327.488447 -480.49988 
L 325.65631 -480.768103 
L 323.824174 -481.055822 
L 321.992038 -481.369268 
L 320.159901 -481.718956 
L 318.327765 -482.125342 
L 316.495629 -482.641245 
z
" id="m7e3ece2b27" style="stroke:#d55e00;stroke-opacity:0.1;"/>
    </defs>
    <g clip-path="url(#pde7145d742)">
     <use style="fill:#d55e00;fill-opacity:0.1;stroke:#d55e00;stroke-opacity:0.1;" x="0" xlink:href="#m7e3ece2b27" y="648"/>
    </g>
   </g>
   <g id="patch_3">
    <path d="M 144 576.72 
L 1036.8 576.72 
" style="fill:none;stroke:#d3d3d3;stroke-linecap:square;stroke-linejoin:miter;stroke-width:1.25;"/>
   </g>
   <g id="matplotlib.axis_1">
    <g id="xtick_1">
     <g id="line2d_1">
      <defs>
       <path d="M 0 0 
L 0 6 
" id="m77f60ff501" style="stroke:#696969;stroke-width:1.25;"/>
      </defs>
      <g>
       <use style="fill:#696969;stroke:#696969;stroke-width:1.25;" x="272.524359" xlink:href="#m77f60ff501" y="576.72"/>
      </g>
     </g>
     <g id="text_1">
      <!-- 1990 -->
      <g style="fill:#696969;" transform="translate(255.035296 596.218438)scale(0.15 -0.15)">
       <defs>
        <path d="M 55.859375 6.203125 
L 55.859375 0 
L 9.1875 0 
L 9.1875 6.203125 
L 29.203125 6.203125 
L 29.203125 57.671875 
Q 20.359375 48.4375 10.84375 43.265625 
L 10.84375 51.65625 
Q 23.96875 58.546875 31.203125 68.015625 
L 37.15625 68.015625 
L 37.15625 6.203125 
z
" id="FranklinGothic-Book-49"/>
        <path d="M 5.71875 12.15625 
L 12.40625 14.59375 
Q 16.546875 5.375 26.375 5.375 
Q 35.890625 5.375 40.703125 13.375 
Q 45.515625 21.390625 45.65625 35.109375 
Q 39.109375 23.09375 25.984375 23.09375 
Q 16.703125 23.09375 10.40625 29.421875 
Q 4.109375 35.75 4.109375 45.0625 
Q 4.109375 54.546875 10.71875 61.28125 
Q 17.328125 68.015625 27.59375 68.015625 
Q 40.140625 68.015625 46.828125 59.203125 
Q 53.515625 50.390625 53.515625 34.96875 
Q 53.515625 18.75 46.4375 8.71875 
Q 39.359375 -1.3125 26.265625 -1.3125 
Q 10.984375 -1.3125 5.71875 12.15625 
z
M 27.828125 29.78125 
Q 34.71875 29.78125 39.375 34.59375 
Q 44.046875 39.40625 44.046875 45.84375 
Q 44.046875 52.09375 39.625 56.578125 
Q 35.203125 61.078125 27.984375 61.078125 
Q 20.65625 61.078125 16.40625 56.46875 
Q 12.15625 51.859375 12.15625 45.21875 
Q 12.15625 38.09375 16.859375 33.9375 
Q 21.578125 29.78125 27.828125 29.78125 
z
" id="FranklinGothic-Book-57"/>
        <path d="M 29.390625 -1.3125 
Q 17.875 -1.3125 10.984375 8.671875 
Q 4.109375 18.65625 4.109375 33.453125 
Q 4.109375 48 10.640625 58 
Q 17.1875 68.015625 29.15625 68.015625 
Q 41.65625 68.015625 48.125 57.5625 
Q 54.59375 47.125 54.59375 33.0625 
Q 54.59375 19.28125 47.953125 8.984375 
Q 41.3125 -1.3125 29.390625 -1.3125 
z
M 29.4375 5.21875 
Q 37.890625 5.21875 41.9375 12.859375 
Q 46 20.515625 46 32.078125 
Q 46 44.734375 41.84375 53.125 
Q 37.703125 61.53125 29.046875 61.53125 
Q 20.703125 61.53125 16.625 53.859375 
Q 12.546875 46.1875 12.546875 33.6875 
Q 12.546875 20.703125 16.84375 12.953125 
Q 21.140625 5.21875 29.4375 5.21875 
z
" id="FranklinGothic-Book-48"/>
       </defs>
       <use xlink:href="#FranklinGothic-Book-49"/>
       <use x="57.267578" xlink:href="#FranklinGothic-Book-57"/>
       <use x="115.910156" xlink:href="#FranklinGothic-Book-57"/>
       <use x="174.552734" xlink:href="#FranklinGothic-Book-48"/>
      </g>
     </g>
    </g>
    <g id="xtick_2">
     <g id="line2d_2">
      <g>
       <use style="fill:#696969;stroke:#696969;stroke-width:1.25;" x="492.38071" xlink:href="#m77f60ff501" y="576.72"/>
      </g>
     </g>
     <g id="text_2">
      <!-- 2000 -->
      <g style="fill:#696969;" transform="translate(474.788523 596.218438)scale(0.15 -0.15)">
       <defs>
        <path d="M 52.484375 6.9375 
L 52.484375 0 
L 5.171875 0 
L 5.171875 6.9375 
Q 33.203125 27.9375 38.59375 34.59375 
Q 44 41.265625 44 47.796875 
Q 44 53.90625 39.453125 57.65625 
Q 34.90625 61.421875 29 61.421875 
Q 22.90625 61.421875 18.21875 57.296875 
Q 13.53125 53.171875 12.9375 46.09375 
L 5.171875 48.4375 
Q 10.0625 68.015625 29.109375 68.015625 
Q 39.40625 68.015625 45.84375 62.15625 
Q 52.296875 56.296875 52.296875 47.859375 
Q 52.296875 42.046875 49.234375 36.671875 
Q 46.1875 31.296875 37.6875 23.828125 
Q 29.203125 16.359375 15.71875 6.9375 
z
" id="FranklinGothic-Book-50"/>
       </defs>
       <use xlink:href="#FranklinGothic-Book-50"/>
       <use x="58.642578" xlink:href="#FranklinGothic-Book-48"/>
       <use x="117.285156" xlink:href="#FranklinGothic-Book-48"/>
       <use x="175.927734" xlink:href="#FranklinGothic-Book-48"/>
      </g>
     </g>
    </g>
    <g id="xtick_3">
     <g id="line2d_3">
      <g>
       <use style="fill:#696969;stroke:#696969;stroke-width:1.25;" x="712.237061" xlink:href="#m77f60ff501" y="576.72"/>
      </g>
     </g>
     <g id="text_3">
      <!-- 2010 -->
      <g style="fill:#696969;" transform="translate(695.169874 596.218438)scale(0.15 -0.15)">
       <use xlink:href="#FranklinGothic-Book-50"/>
       <use x="58.642578" xlink:href="#FranklinGothic-Book-48"/>
       <use x="113.535156" xlink:href="#FranklinGothic-Book-49"/>
       <use x="168.927734" xlink:href="#FranklinGothic-Book-48"/>
      </g>
     </g>
    </g>
    <g id="xtick_4">
     <g id="line2d_4">
      <g>
       <use style="fill:#696969;stroke:#696969;stroke-width:1.25;" x="932.093413" xlink:href="#m77f60ff501" y="576.72"/>
      </g>
     </g>
     <g id="text_4">
      <!-- 2020 -->
      <g style="fill:#696969;" transform="translate(914.501225 596.218438)scale(0.15 -0.15)">
       <use xlink:href="#FranklinGothic-Book-50"/>
       <use x="58.642578" xlink:href="#FranklinGothic-Book-48"/>
       <use x="117.285156" xlink:href="#FranklinGothic-Book-50"/>
       <use x="175.927734" xlink:href="#FranklinGothic-Book-48"/>
      </g>
     </g>
    </g>
    <g id="text_5">
     <!-- Year -->
     <g style="fill:#696969;" transform="translate(572.109375 616.048125)scale(0.2 -0.2)">
      <defs>
       <path d="M 52 66.65625 
L 29.6875 28.03125 
L 29.6875 0 
L 21.34375 0 
L 21.34375 28.03125 
L -0.984375 66.65625 
L 8.84375 66.65625 
L 26.5625 35.984375 
L 44.390625 66.65625 
z
" id="FranklinGothic-Book-89"/>
       <path d="M 40.234375 14.703125 
L 47.359375 13.234375 
Q 45.40625 6.9375 39.734375 2.8125 
Q 34.078125 -1.3125 26.421875 -1.3125 
Q 16.3125 -1.3125 10.0625 5.78125 
Q 3.8125 12.890625 3.8125 24.421875 
Q 3.8125 36.1875 10.296875 43.4375 
Q 16.796875 50.6875 26.609375 50.6875 
Q 36.28125 50.6875 42.15625 44 
Q 48.046875 37.3125 48.1875 23.96875 
L 12.359375 23.96875 
Q 12.359375 12.796875 17.046875 8.890625 
Q 21.734375 4.984375 26.953125 4.984375 
Q 36.375 4.984375 40.234375 14.703125 
z
M 39.796875 29.6875 
Q 39.703125 33.84375 38.421875 37.0625 
Q 37.15625 40.28125 34.125 42.546875 
Q 31.109375 44.828125 26.859375 44.828125 
Q 21.140625 44.828125 17.15625 40.71875 
Q 13.1875 36.625 12.703125 29.6875 
z
" id="FranklinGothic-Book-101"/>
       <path d="M 46.296875 0 
L 38.671875 0 
Q 38.234375 2.34375 37.796875 8.890625 
Q 32.71875 -1.3125 20.515625 -1.3125 
Q 12.203125 -1.3125 7.765625 3.078125 
Q 3.328125 7.46875 3.328125 13.625 
Q 3.328125 21.09375 9.671875 25.90625 
Q 16.015625 30.71875 31.25 30.71875 
Q 33.296875 30.71875 37.796875 30.515625 
Q 37.796875 36.375 36.890625 38.984375 
Q 35.984375 41.609375 33.046875 43.171875 
Q 30.125 44.734375 25.34375 44.734375 
Q 13.671875 44.734375 11.765625 35.84375 
L 4.6875 37.0625 
Q 7.28125 50.6875 26.46875 50.6875 
Q 36.671875 50.6875 40.9375 46.171875 
Q 45.21875 41.65625 45.21875 30.515625 
L 45.21875 9.578125 
Q 45.21875 4.34375 46.296875 0 
z
M 37.796875 24.65625 
Q 33.109375 24.953125 30.671875 24.953125 
Q 21.578125 24.953125 16.546875 21.96875 
Q 11.53125 19 11.53125 13.28125 
Q 11.53125 9.671875 14.234375 7.125 
Q 16.9375 4.59375 22.078125 4.59375 
Q 29 4.59375 33.46875 9.625 
Q 37.9375 14.65625 37.9375 21.4375 
Q 37.9375 22.796875 37.796875 24.65625 
z
" id="FranklinGothic-Book-97"/>
       <path d="M 15.328125 0 
L 7.671875 0 
L 7.671875 49.3125 
L 14.40625 49.3125 
L 14.40625 37.796875 
Q 17.96875 45.953125 21.546875 48.359375 
Q 25.140625 50.78125 28.90625 50.78125 
Q 30.078125 50.78125 31.9375 50.59375 
L 31.9375 43.265625 
L 30.375 43.265625 
Q 24.03125 43.265625 19.828125 38.53125 
Q 15.625 33.796875 15.328125 26.078125 
z
" id="FranklinGothic-Book-114"/>
      </defs>
      <use xlink:href="#FranklinGothic-Book-89"/>
      <use x="45.025391" xlink:href="#FranklinGothic-Book-101"/>
      <use x="97.076172" xlink:href="#FranklinGothic-Book-97"/>
      <use x="149.957031" xlink:href="#FranklinGothic-Book-114"/>
     </g>
    </g>
   </g>
   <g id="matplotlib.axis_2">
    <g id="ytick_1">
     <g id="line2d_5">
      <path clip-path="url(#pde7145d742)" d="M 144 513.207323 
L 1036.8 513.207323 
" style="fill:none;stroke:#d3d3d3;stroke-linecap:round;stroke-opacity:0.5;"/>
     </g>
     <g id="text_6">
      <!-- −4000 -->
      <g style="fill:#696969;" transform="translate(90.519531 518.206542)scale(0.15 -0.15)">
       <defs>
        <path d="M 6 36.765625 
L 52.6875 36.765625 
L 52.6875 30.03125 
L 6 30.03125 
z
" id="FranklinGothic-Book-8722"/>
        <path d="M 44.09375 0 
L 36.03125 0 
L 36.03125 15.875 
L 3.078125 15.875 
L 3.078125 21.484375 
L 33.640625 68.0625 
L 44.09375 68.0625 
L 44.09375 22.46875 
L 54.890625 22.46875 
L 54.890625 15.875 
L 44.09375 15.875 
z
M 36.03125 22.46875 
L 36.03125 54 
Q 36.03125 57.421875 36.1875 61.375 
Q 34.078125 57.515625 32.5625 55.125 
L 11.765625 22.46875 
z
" id="FranklinGothic-Book-52"/>
       </defs>
       <use xlink:href="#FranklinGothic-Book-8722"/>
       <use x="58.642578" xlink:href="#FranklinGothic-Book-52"/>
       <use x="117.285156" xlink:href="#FranklinGothic-Book-48"/>
       <use x="175.927734" xlink:href="#FranklinGothic-Book-48"/>
       <use x="234.570312" xlink:href="#FranklinGothic-Book-48"/>
      </g>
     </g>
    </g>
    <g id="ytick_2">
     <g id="line2d_6">
      <path clip-path="url(#pde7145d742)" d="M 144 443.406682 
L 1036.8 443.406682 
" style="fill:none;stroke:#d3d3d3;stroke-linecap:round;stroke-opacity:0.5;"/>
     </g>
     <g id="text_7">
      <!-- −3000 -->
      <g style="fill:#696969;" transform="translate(90.519531 448.405901)scale(0.15 -0.15)">
       <defs>
        <path d="M 19.34375 31.34375 
L 19.34375 37.984375 
L 26.953125 37.984375 
Q 35.296875 37.984375 38.890625 41.40625 
Q 42.484375 44.828125 42.484375 49.703125 
Q 42.484375 55.078125 38.46875 58.21875 
Q 34.46875 61.375 28.421875 61.375 
Q 17.1875 61.375 12.890625 50.53125 
L 5.375 52.6875 
Q 11.8125 68.015625 29.203125 68.015625 
Q 38.96875 68.015625 44.96875 62.8125 
Q 50.984375 57.625 50.984375 50.296875 
Q 50.984375 44.625 47.359375 40.40625 
Q 43.75 36.1875 38.09375 35.109375 
Q 44.4375 34.1875 49 29.78125 
Q 53.5625 25.390625 53.5625 18.40625 
Q 53.5625 10.0625 46.765625 4.375 
Q 39.984375 -1.3125 28.171875 -1.3125 
Q 18.796875 -1.3125 12.125 3.125 
Q 5.46875 7.5625 2.9375 14.9375 
L 10.6875 17.53125 
Q 14.203125 5.46875 28.03125 5.46875 
Q 37.015625 5.46875 40.9375 9.296875 
Q 44.875 13.140625 44.875 18.453125 
Q 44.875 24.21875 40.15625 27.78125 
Q 35.453125 31.34375 26.953125 31.34375 
z
" id="FranklinGothic-Book-51"/>
       </defs>
       <use xlink:href="#FranklinGothic-Book-8722"/>
       <use x="58.642578" xlink:href="#FranklinGothic-Book-51"/>
       <use x="117.285156" xlink:href="#FranklinGothic-Book-48"/>
       <use x="175.927734" xlink:href="#FranklinGothic-Book-48"/>
       <use x="234.570312" xlink:href="#FranklinGothic-Book-48"/>
      </g>
     </g>
    </g>
    <g id="ytick_3">
     <g id="line2d_7">
      <path clip-path="url(#pde7145d742)" d="M 144 373.606042 
L 1036.8 373.606042 
" style="fill:none;stroke:#d3d3d3;stroke-linecap:round;stroke-opacity:0.5;"/>
     </g>
     <g id="text_8">
      <!-- −2000 -->
      <g style="fill:#696969;" transform="translate(90.519531 378.60526)scale(0.15 -0.15)">
       <use xlink:href="#FranklinGothic-Book-8722"/>
       <use x="58.642578" xlink:href="#FranklinGothic-Book-50"/>
       <use x="117.285156" xlink:href="#FranklinGothic-Book-48"/>
       <use x="175.927734" xlink:href="#FranklinGothic-Book-48"/>
       <use x="234.570312" xlink:href="#FranklinGothic-Book-48"/>
      </g>
     </g>
    </g>
    <g id="ytick_4">
     <g id="line2d_8">
      <path clip-path="url(#pde7145d742)" d="M 144 303.805401 
L 1036.8 303.805401 
" style="fill:none;stroke:#d3d3d3;stroke-linecap:round;stroke-opacity:0.5;"/>
     </g>
     <g id="text_9">
      <!-- −1000 -->
      <g style="fill:#696969;" transform="translate(91.007031 308.80462)scale(0.15 -0.15)">
       <use xlink:href="#FranklinGothic-Book-8722"/>
       <use x="58.642578" xlink:href="#FranklinGothic-Book-49"/>
       <use x="114.035156" xlink:href="#FranklinGothic-Book-48"/>
       <use x="172.677734" xlink:href="#FranklinGothic-Book-48"/>
       <use x="231.320312" xlink:href="#FranklinGothic-Book-48"/>
      </g>
     </g>
    </g>
    <g id="ytick_5">
     <g id="line2d_9">
      <path clip-path="url(#pde7145d742)" d="M 144 234.00476 
L 1036.8 234.00476 
" style="fill:none;stroke:#d3d3d3;stroke-linecap:round;stroke-opacity:0.5;"/>
     </g>
     <g id="text_10">
      <!-- 0 -->
      <g style="fill:#696969;" transform="translate(125.703906 239.003979)scale(0.15 -0.15)">
       <use xlink:href="#FranklinGothic-Book-48"/>
      </g>
     </g>
    </g>
    <g id="ytick_6">
     <g id="line2d_10">
      <path clip-path="url(#pde7145d742)" d="M 144 164.204119 
L 1036.8 164.204119 
" style="fill:none;stroke:#d3d3d3;stroke-linecap:round;stroke-opacity:0.5;"/>
     </g>
     <g id="text_11">
      <!-- 1000 -->
      <g style="fill:#696969;" transform="translate(99.803125 169.203338)scale(0.15 -0.15)">
       <use xlink:href="#FranklinGothic-Book-49"/>
       <use x="55.392578" xlink:href="#FranklinGothic-Book-48"/>
       <use x="114.035156" xlink:href="#FranklinGothic-Book-48"/>
       <use x="172.677734" xlink:href="#FranklinGothic-Book-48"/>
      </g>
     </g>
    </g>
    <g id="ytick_7">
     <g id="line2d_11">
      <path clip-path="url(#pde7145d742)" d="M 144 94.403479 
L 1036.8 94.403479 
" style="fill:none;stroke:#d3d3d3;stroke-linecap:round;stroke-opacity:0.5;"/>
     </g>
     <g id="text_12">
      <!-- 2000 -->
      <g style="fill:#696969;" transform="translate(99.315625 99.402697)scale(0.15 -0.15)">
       <use xlink:href="#FranklinGothic-Book-50"/>
       <use x="58.642578" xlink:href="#FranklinGothic-Book-48"/>
       <use x="117.285156" xlink:href="#FranklinGothic-Book-48"/>
       <use x="175.927734" xlink:href="#FranklinGothic-Book-48"/>
      </g>
     </g>
    </g>
    <g id="text_13">
     <!-- Gt -->
     <g style="fill:#696969;" transform="translate(77.188281 336.786875)rotate(-90)scale(0.2 -0.2)">
      <defs>
       <path d="M 57.71875 33.59375 
L 57.71875 -0.875 
L 52.59375 -0.875 
L 50.296875 7.46875 
Q 44.140625 -1.3125 31.984375 -1.3125 
Q 18.796875 -1.3125 11.46875 8.59375 
Q 4.15625 18.5 4.15625 32.671875 
Q 4.15625 47.796875 11.90625 57.90625 
Q 19.671875 68.015625 33.015625 68.015625 
Q 51.421875 68.015625 57.03125 48.6875 
L 49.125 46.78125 
Q 47.40625 54.203125 42.71875 57.5625 
Q 38.03125 60.9375 32.46875 60.9375 
Q 22.609375 60.9375 17.921875 52.96875 
Q 13.234375 45.015625 13.234375 33.015625 
Q 13.234375 20.0625 18.484375 12.765625 
Q 23.734375 5.46875 32.765625 5.46875 
Q 39.796875 5.46875 44.5 10.125 
Q 49.21875 14.796875 49.21875 23 
Q 49.21875 24.515625 49.125 26.609375 
L 32.625 26.609375 
L 32.625 33.59375 
z
" id="FranklinGothic-Book-71"/>
       <path d="M 30.03125 5.28125 
L 30.03125 -0.78125 
Q 25.984375 -1.3125 23 -1.3125 
Q 8.6875 -1.3125 8.6875 13.625 
L 8.6875 43.3125 
L -0.046875 43.3125 
L -0.046875 49.3125 
L 8.6875 49.3125 
L 9.03125 61.71875 
L 16.15625 62.40625 
L 16.15625 49.3125 
L 27.203125 49.3125 
L 27.203125 43.3125 
L 16.15625 43.3125 
L 16.15625 12.359375 
Q 16.15625 4.734375 24.078125 4.734375 
Q 26.703125 4.734375 30.03125 5.28125 
z
" id="FranklinGothic-Book-116"/>
      </defs>
      <use xlink:href="#FranklinGothic-Book-71"/>
      <use x="64.697266" xlink:href="#FranklinGothic-Book-116"/>
     </g>
    </g>
   </g>
   <g id="text_14">
    <!-- Compared to 2005-2005 average -->
    <g style="fill:#696969;" transform="translate(144 75.2652)scale(0.3 -0.3)">
     <defs>
      <path d="M 48.296875 22.40625 
L 55.90625 20.703125 
Q 50.4375 -1.3125 31.203125 -1.3125 
Q 18.5625 -1.3125 11.359375 8.890625 
Q 4.15625 19.09375 4.15625 33.984375 
Q 4.15625 49.359375 11.671875 58.6875 
Q 19.1875 68.015625 31.84375 68.015625 
Q 50.59375 68.015625 55.90625 46.578125 
L 48.046875 45.015625 
Q 43.75 60.9375 31.78125 60.9375 
Q 22.953125 60.9375 18.09375 53.53125 
Q 13.234375 46.140625 13.234375 32.765625 
Q 13.234375 20.515625 18.203125 13.109375 
Q 23.1875 5.71875 31.390625 5.71875 
Q 44.140625 5.71875 48.296875 22.40625 
z
" id="FranklinGothic-Book-67"/>
      <path d="M 25.34375 -1.3125 
Q 15.1875 -1.3125 9.5 6.203125 
Q 3.8125 13.71875 3.8125 24.859375 
Q 3.8125 36.625 10.203125 43.65625 
Q 16.609375 50.6875 26.125 50.6875 
Q 36.328125 50.6875 42.203125 43.28125 
Q 48.09375 35.890625 48.09375 24.8125 
Q 48.09375 13.28125 41.75 5.984375 
Q 35.40625 -1.3125 25.34375 -1.3125 
z
M 25.921875 4.984375 
Q 31.78125 4.984375 35.734375 9.8125 
Q 39.703125 14.65625 39.703125 24.859375 
Q 39.703125 35.109375 35.546875 39.71875 
Q 31.390625 44.34375 25.828125 44.34375 
Q 20.125 44.34375 16.15625 39.671875 
Q 12.203125 35.015625 12.203125 24.90625 
Q 12.203125 14.203125 16.15625 9.59375 
Q 20.125 4.984375 25.921875 4.984375 
z
" id="FranklinGothic-Book-111"/>
      <path d="M 73.734375 0 
L 66.265625 0 
L 66.265625 30.671875 
Q 66.265625 35.40625 65.59375 37.765625 
Q 64.9375 40.140625 62.390625 42.109375 
Q 59.859375 44.09375 56.6875 44.09375 
Q 52.296875 44.09375 48.21875 40.0625 
Q 44.140625 36.03125 44.140625 27.78125 
L 44.140625 0 
L 36.71875 0 
L 36.71875 32.46875 
Q 36.71875 38.96875 33.609375 41.65625 
Q 30.515625 44.34375 27.09375 44.34375 
Q 22.21875 44.34375 18.59375 40.140625 
Q 14.984375 35.9375 14.984375 29.5 
L 14.984375 0 
L 7.671875 0 
L 7.671875 49.3125 
L 14.265625 49.3125 
L 14.265625 39.84375 
Q 19.78125 50.6875 29.4375 50.6875 
Q 34.765625 50.6875 38.46875 47.21875 
Q 42.1875 43.75 43.265625 38.875 
Q 48.34375 50.6875 58.84375 50.6875 
Q 63.875 50.6875 67.65625 47.796875 
Q 71.4375 44.921875 72.578125 41.1875 
Q 73.734375 37.453125 73.734375 30.671875 
z
" id="FranklinGothic-Book-109"/>
      <path d="M 15.328125 -16.65625 
L 7.671875 -16.65625 
L 7.671875 49.3125 
L 14.546875 49.3125 
L 14.546875 39.75 
Q 19.78125 50.6875 30.125 50.6875 
Q 38.875 50.6875 44.234375 43.375 
Q 49.609375 36.078125 49.609375 24.90625 
Q 49.609375 12.84375 44.09375 5.765625 
Q 38.578125 -1.3125 29.9375 -1.3125 
Q 20.65625 -1.3125 15.328125 7.515625 
z
M 15.328125 31.78125 
L 15.328125 17.921875 
Q 16.0625 12.3125 20.0625 8.640625 
Q 24.078125 4.984375 28.421875 4.984375 
Q 33.453125 4.984375 37.328125 9.375 
Q 41.21875 13.765625 41.21875 24.5625 
Q 41.21875 33.890625 37.703125 38.9375 
Q 34.1875 44 28.375 44 
Q 23.78125 44 20.140625 40.421875 
Q 16.5 36.859375 15.328125 31.78125 
z
" id="FranklinGothic-Book-112"/>
      <path d="M 46.1875 66.65625 
L 46.1875 0 
L 39.203125 0 
L 39.203125 8.453125 
Q 34.03125 -1.3125 23.640625 -1.3125 
Q 14.984375 -1.3125 9.421875 5.9375 
Q 3.859375 13.1875 3.859375 24.265625 
Q 3.859375 35.59375 9.375 43.140625 
Q 14.890625 50.6875 24.03125 50.6875 
Q 32.90625 50.6875 38.53125 42.578125 
L 38.53125 66.65625 
z
M 38.53125 30.28125 
Q 38.53125 36.765625 34.5625 40.671875 
Q 30.609375 44.578125 25.34375 44.578125 
Q 19.625 44.578125 15.9375 39.5 
Q 12.25 34.421875 12.25 25.25 
Q 12.25 15.328125 15.640625 10.15625 
Q 19.046875 4.984375 24.953125 4.984375 
Q 30.328125 4.984375 34.421875 9.46875 
Q 38.53125 13.96875 38.53125 20.015625 
z
" id="FranklinGothic-Book-100"/>
      <path id="FranklinGothic-Book-32"/>
      <path d="M 48.875 66.65625 
L 48.1875 59.46875 
L 15.4375 59.46875 
L 14.015625 37.84375 
Q 21.4375 45.125 30.328125 45.125 
Q 39.703125 45.125 46.515625 38.625 
Q 53.328125 32.125 53.328125 22.015625 
Q 53.328125 11.765625 45.921875 5.21875 
Q 38.53125 -1.3125 27.828125 -1.3125 
Q 19.4375 -1.3125 12.890625 3.078125 
Q 6.34375 7.46875 4.296875 14.453125 
L 11.421875 16.890625 
Q 15.828125 5.28125 27.9375 5.28125 
Q 35.890625 5.28125 40.578125 9.984375 
Q 45.265625 14.703125 45.265625 22.015625 
Q 45.265625 29.6875 40.625 33.984375 
Q 35.984375 38.28125 29.5 38.28125 
Q 20.015625 38.28125 13.8125 29.203125 
L 7.234375 30.609375 
L 9.375 66.65625 
z
" id="FranklinGothic-Book-53"/>
      <path d="M 23.53125 27.984375 
L 23.53125 22.015625 
L 1.46875 22.015625 
L 1.46875 27.984375 
z
" id="FranklinGothic-Book-45"/>
      <path d="M 43.796875 49.3125 
L 26.765625 0 
L 18.796875 0 
L 1.171875 49.3125 
L 9.671875 49.3125 
L 23.390625 9.234375 
L 36.96875 49.3125 
z
" id="FranklinGothic-Book-118"/>
      <path d="M 47.953125 57.03125 
L 47.953125 50.921875 
Q 42.671875 50.921875 40.890625 49.703125 
Q 39.109375 48.484375 38.53125 45.3125 
Q 43.265625 39.84375 43.265625 33.40625 
Q 43.265625 26.65625 38.109375 21.828125 
Q 32.953125 17 24.265625 17 
Q 22.3125 17 20.90625 17.28125 
Q 18.21875 17.828125 17.53125 17.828125 
Q 16.21875 17.828125 14.359375 16.53125 
Q 12.5 15.234375 12.5 13.1875 
Q 12.5 10.25 15.1875 9.375 
Q 17.875 8.5 27.828125 8.25 
Q 36.28125 8.015625 40.3125 7.109375 
Q 44.34375 6.203125 47.125 3.09375 
Q 49.90625 0 49.90625 -4.5 
Q 49.90625 -18.609375 25.09375 -18.609375 
Q 13.328125 -18.609375 7.9375 -15.0625 
Q 2.546875 -11.53125 2.546875 -5.609375 
Q 2.546875 1.5625 10.0625 4.25 
Q 5.21875 7.421875 5.21875 12.203125 
Q 5.21875 17.921875 12.0625 20.953125 
Q 5.671875 26.125 5.671875 33.984375 
Q 5.671875 41.3125 11.140625 46 
Q 16.609375 50.6875 24.46875 50.6875 
Q 30.03125 50.6875 34.578125 48.578125 
Q 35.296875 53.421875 37.953125 55.265625 
Q 40.625 57.125 46.046875 57.125 
Q 46.578125 57.125 47.953125 57.03125 
z
M 24.515625 22.859375 
Q 29.390625 22.859375 32.46875 25.859375 
Q 35.546875 28.859375 35.546875 33.640625 
Q 35.546875 38.53125 32.34375 41.625 
Q 29.15625 44.734375 24.609375 44.734375 
Q 20.265625 44.734375 16.890625 41.828125 
Q 13.53125 38.921875 13.53125 33.546875 
Q 13.53125 28.765625 16.546875 25.8125 
Q 19.578125 22.859375 24.515625 22.859375 
z
M 15.328125 2 
Q 9.96875 -0.34375 9.96875 -4.78125 
Q 9.96875 -8.546875 14.375 -10.625 
Q 18.796875 -12.703125 25.640625 -12.703125 
Q 31.984375 -12.703125 37.25 -10.90625 
Q 42.53125 -9.125 42.53125 -4.890625 
Q 42.53125 -2.59375 40.96875 -1.125 
Q 39.40625 0.34375 36.6875 0.734375 
Q 33.984375 1.125 27.25 1.3125 
Q 19.1875 1.515625 15.328125 2 
z
" id="FranklinGothic-Book-103"/>
     </defs>
     <use xlink:href="#FranklinGothic-Book-67"/>
     <use x="57.910156" xlink:href="#FranklinGothic-Book-111"/>
     <use x="109.863281" xlink:href="#FranklinGothic-Book-109"/>
     <use x="190.384766" xlink:href="#FranklinGothic-Book-112"/>
     <use x="243.802734" xlink:href="#FranklinGothic-Book-97"/>
     <use x="296.683594" xlink:href="#FranklinGothic-Book-114"/>
     <use x="329.642578" xlink:href="#FranklinGothic-Book-101"/>
     <use x="381.693359" xlink:href="#FranklinGothic-Book-100"/>
     <use x="435.550781" xlink:href="#FranklinGothic-Book-32"/>
     <use x="460.550781" xlink:href="#FranklinGothic-Book-116"/>
     <use x="489.8125" xlink:href="#FranklinGothic-Book-111"/>
     <use x="541.765625" xlink:href="#FranklinGothic-Book-32"/>
     <use x="566.765625" xlink:href="#FranklinGothic-Book-50"/>
     <use x="625.408203" xlink:href="#FranklinGothic-Book-48"/>
     <use x="684.050781" xlink:href="#FranklinGothic-Book-48"/>
     <use x="742.693359" xlink:href="#FranklinGothic-Book-53"/>
     <use x="801.335938" xlink:href="#FranklinGothic-Book-45"/>
     <use x="826.335938" xlink:href="#FranklinGothic-Book-50"/>
     <use x="884.978516" xlink:href="#FranklinGothic-Book-48"/>
     <use x="943.621094" xlink:href="#FranklinGothic-Book-48"/>
     <use x="1002.263672" xlink:href="#FranklinGothic-Book-53"/>
     <use x="1060.90625" xlink:href="#FranklinGothic-Book-32"/>
     <use x="1085.90625" xlink:href="#FranklinGothic-Book-97"/>
     <use x="1136.537109" xlink:href="#FranklinGothic-Book-118"/>
     <use x="1180.056641" xlink:href="#FranklinGothic-Book-101"/>
     <use x="1232.107422" xlink:href="#FranklinGothic-Book-114"/>
     <use x="1265.066406" xlink:href="#FranklinGothic-Book-97"/>
     <use x="1317.947266" xlink:href="#FranklinGothic-Book-103"/>
     <use x="1367.068359" xlink:href="#FranklinGothic-Book-101"/>
    </g>
   </g>
   <g id="text_15">
    <!-- Greenland ice sheet cumulative mass balance -->
    <g style="fill:#696969;" transform="translate(144 42.76)scale(0.4 -0.4)">
     <defs>
      <path d="M 46.53125 0 
L 39.359375 0 
L 39.359375 31.6875 
Q 39.359375 38.53125 36.375 41.3125 
Q 33.40625 44.09375 29.15625 44.09375 
Q 23.296875 44.09375 19.3125 39.40625 
Q 15.328125 34.71875 15.328125 27.046875 
L 15.328125 0 
L 7.671875 0 
L 7.671875 49.3125 
L 14.796875 49.3125 
L 14.796875 40.234375 
Q 20.796875 50.6875 30.375 50.6875 
Q 35.890625 50.6875 39.765625 47.828125 
Q 43.65625 44.96875 45.09375 41.40625 
Q 46.53125 37.84375 46.53125 28.515625 
z
" id="FranklinGothic-Book-110"/>
      <path d="M 15.328125 0 
L 7.671875 0 
L 7.671875 66.65625 
L 15.328125 66.65625 
z
" id="FranklinGothic-Book-108"/>
      <path d="M 15.578125 66.65625 
L 15.578125 58.15625 
L 7.328125 58.15625 
L 7.328125 66.65625 
z
M 15.328125 49.3125 
L 15.328125 0 
L 7.671875 0 
L 7.671875 49.3125 
z
" id="FranklinGothic-Book-105"/>
      <path d="M 36.8125 17.28125 
L 43.75 16.0625 
Q 42.28125 7.90625 37.25 3.296875 
Q 32.234375 -1.3125 24.703125 -1.3125 
Q 14.5 -1.3125 9.15625 6.203125 
Q 3.8125 13.71875 3.8125 24.5625 
Q 3.8125 35.796875 9.453125 43.234375 
Q 15.09375 50.6875 24.8125 50.6875 
Q 32.859375 50.6875 37.71875 45.875 
Q 42.578125 41.0625 43.75 33.453125 
L 36.8125 32.125 
Q 34.859375 44.34375 25 44.34375 
Q 18.65625 44.34375 15.234375 38.9375 
Q 11.8125 33.546875 11.8125 24.953125 
Q 11.8125 15.484375 15.203125 10.234375 
Q 18.609375 4.984375 24.75 4.984375 
Q 34.28125 4.984375 36.8125 17.28125 
z
" id="FranklinGothic-Book-99"/>
      <path d="M 1.03125 12.796875 
L 8.34375 14.3125 
Q 10.796875 4.984375 23.78125 4.984375 
Q 28.5625 4.984375 31.875 7.125 
Q 35.203125 9.28125 35.203125 13.1875 
Q 35.203125 19 26.765625 20.5625 
L 16.359375 22.515625 
Q 10.25 23.6875 6.640625 27.09375 
Q 3.03125 30.515625 3.03125 36.140625 
Q 3.03125 42.328125 7.953125 46.5 
Q 12.890625 50.6875 21.234375 50.6875 
Q 37.3125 50.6875 41.0625 38.140625 
L 34.03125 36.625 
Q 31 44.34375 21.578125 44.34375 
Q 16.890625 44.34375 13.890625 42.40625 
Q 10.890625 40.484375 10.890625 37.015625 
Q 10.890625 31.546875 18.5625 30.125 
L 28.171875 28.421875 
Q 43.265625 25.6875 43.265625 13.8125 
Q 43.265625 7.03125 37.640625 2.859375 
Q 32.03125 -1.3125 22.703125 -1.3125 
Q 5.171875 -1.3125 1.03125 12.796875 
z
" id="FranklinGothic-Book-115"/>
      <path d="M 46.34375 0 
L 38.671875 0 
L 38.671875 29.9375 
Q 38.671875 35.203125 38.015625 37.84375 
Q 37.359375 40.484375 34.890625 42.40625 
Q 32.421875 44.34375 29.203125 44.34375 
Q 23.296875 44.34375 19.3125 39.5 
Q 15.328125 34.671875 15.328125 26.5625 
L 15.328125 0 
L 7.671875 0 
L 7.671875 66.65625 
L 15.328125 66.65625 
L 15.328125 40.234375 
Q 20.5625 50.6875 30.28125 50.6875 
Q 34.625 50.6875 38.015625 48.96875 
Q 41.40625 47.265625 43.203125 44.484375 
Q 45.015625 41.703125 45.671875 38.984375 
Q 46.34375 36.28125 46.34375 29.9375 
z
" id="FranklinGothic-Book-104"/>
      <path d="M 46.484375 0 
L 39.59375 0 
L 39.59375 9.421875 
Q 34.328125 -1.3125 23.875 -1.3125 
Q 16.3125 -1.3125 11.984375 3.65625 
Q 7.671875 8.640625 7.671875 17.828125 
L 7.671875 49.3125 
L 15.328125 49.3125 
L 15.328125 17.828125 
Q 15.328125 10.5 18.375 7.734375 
Q 21.4375 4.984375 25.09375 4.984375 
Q 28.8125 4.984375 31.8125 7.078125 
Q 34.8125 9.1875 36.8125 13.0625 
Q 38.8125 16.9375 38.8125 21.53125 
L 38.8125 49.3125 
L 46.484375 49.3125 
z
" id="FranklinGothic-Book-117"/>
      <path d="M 11.375 0 
L 7.671875 0 
L 7.671875 66.65625 
L 15.328125 66.65625 
L 15.328125 41.109375 
Q 20.609375 50.6875 29.890625 50.6875 
Q 38.375 50.6875 44.109375 44 
Q 49.859375 37.3125 49.859375 24.5625 
Q 49.859375 13.578125 44.21875 6.125 
Q 38.578125 -1.3125 29.546875 -1.3125 
Q 19.484375 -1.3125 14.109375 8.15625 
z
M 15.328125 19.34375 
Q 15.875 11.765625 20 8.34375 
Q 24.125 4.9375 28.71875 4.9375 
Q 34.578125 4.9375 38.15625 10.015625 
Q 41.75 15.09375 41.75 23.921875 
Q 41.75 33.453125 38.28125 38.890625 
Q 34.8125 44.34375 28.65625 44.34375 
Q 23.828125 44.34375 19.9375 40.453125 
Q 16.0625 36.578125 15.328125 30.421875 
z
" id="FranklinGothic-Book-98"/>
     </defs>
     <use xlink:href="#FranklinGothic-Book-71"/>
     <use x="64.697266" xlink:href="#FranklinGothic-Book-114"/>
     <use x="97.65625" xlink:href="#FranklinGothic-Book-101"/>
     <use x="149.707031" xlink:href="#FranklinGothic-Book-101"/>
     <use x="201.757812" xlink:href="#FranklinGothic-Book-110"/>
     <use x="255.957031" xlink:href="#FranklinGothic-Book-108"/>
     <use x="278.955078" xlink:href="#FranklinGothic-Book-97"/>
     <use x="331.835938" xlink:href="#FranklinGothic-Book-110"/>
     <use x="386.035156" xlink:href="#FranklinGothic-Book-100"/>
     <use x="439.892578" xlink:href="#FranklinGothic-Book-32"/>
     <use x="464.892578" xlink:href="#FranklinGothic-Book-105"/>
     <use x="487.841797" xlink:href="#FranklinGothic-Book-99"/>
     <use x="534.423828" xlink:href="#FranklinGothic-Book-101"/>
     <use x="586.474609" xlink:href="#FranklinGothic-Book-32"/>
     <use x="611.474609" xlink:href="#FranklinGothic-Book-115"/>
     <use x="657.861328" xlink:href="#FranklinGothic-Book-104"/>
     <use x="711.865234" xlink:href="#FranklinGothic-Book-101"/>
     <use x="763.916016" xlink:href="#FranklinGothic-Book-101"/>
     <use x="815.466797" xlink:href="#FranklinGothic-Book-116"/>
     <use x="846.228516" xlink:href="#FranklinGothic-Book-32"/>
     <use x="871.228516" xlink:href="#FranklinGothic-Book-99"/>
     <use x="917.810547" xlink:href="#FranklinGothic-Book-117"/>
     <use x="971.960938" xlink:href="#FranklinGothic-Book-109"/>
     <use x="1053.357422" xlink:href="#FranklinGothic-Book-117"/>
     <use x="1107.507812" xlink:href="#FranklinGothic-Book-108"/>
     <use x="1130.505859" xlink:href="#FranklinGothic-Book-97"/>
     <use x="1183.386719" xlink:href="#FranklinGothic-Book-116"/>
     <use x="1214.148438" xlink:href="#FranklinGothic-Book-105"/>
     <use x="1237.097656" xlink:href="#FranklinGothic-Book-118"/>
     <use x="1280.617188" xlink:href="#FranklinGothic-Book-101"/>
     <use x="1332.667969" xlink:href="#FranklinGothic-Book-32"/>
     <use x="1357.667969" xlink:href="#FranklinGothic-Book-109"/>
     <use x="1439.064453" xlink:href="#FranklinGothic-Book-97"/>
     <use x="1491.945312" xlink:href="#FranklinGothic-Book-115"/>
     <use x="1538.332031" xlink:href="#FranklinGothic-Book-115"/>
     <use x="1584.71875" xlink:href="#FranklinGothic-Book-32"/>
     <use x="1609.71875" xlink:href="#FranklinGothic-Book-98"/>
     <use x="1663.429688" xlink:href="#FranklinGothic-Book-97"/>
     <use x="1716.310547" xlink:href="#FranklinGothic-Book-108"/>
     <use x="1739.308594" xlink:href="#FranklinGothic-Book-97"/>
     <use x="1792.189453" xlink:href="#FranklinGothic-Book-110"/>
     <use x="1846.388672" xlink:href="#FranklinGothic-Book-99"/>
     <use x="1892.970703" xlink:href="#FranklinGothic-Book-101"/>
    </g>
   </g>
   <g id="legend_1">
    <g id="line2d_12"/>
    <g id="text_16">
     <!-- Mankoff et al. 2021 (1986.01-2022.12) -->
     <g style="fill:#009e73;" transform="translate(644.44425 129.7184)scale(0.2 -0.2)">
      <defs>
       <path d="M 72.703125 0 
L 64.59375 0 
L 64.59375 58.203125 
L 42.921875 0 
L 37.25 0 
L 15.4375 58.203125 
L 15.4375 0 
L 8.34375 0 
L 8.34375 66.65625 
L 20.75 66.65625 
L 40.828125 13.328125 
L 60.5 66.65625 
L 72.703125 66.65625 
z
" id="FranklinGothic-Book-77"/>
       <path d="M 48.390625 0 
L 40.4375 0 
L 26.03125 27.546875 
L 15.328125 15.234375 
L 15.328125 0 
L 7.671875 0 
L 7.671875 66.65625 
L 15.328125 66.65625 
L 15.328125 23.96875 
L 38.234375 49.3125 
L 46.4375 49.3125 
L 31 31.984375 
z
" id="FranklinGothic-Book-107"/>
       <path d="M 28.125 49.3125 
L 28.125 43.3125 
L 16.40625 43.3125 
L 16.40625 0 
L 8.734375 0 
L 8.734375 43.3125 
L 0.34375 43.3125 
L 0.34375 49.3125 
L 8.734375 49.3125 
Q 8.9375 61.1875 13.296875 64.59375 
Q 17.671875 68.015625 23.96875 68.015625 
Q 27.046875 68.015625 31 67.328125 
L 31 61.234375 
Q 28.515625 61.859375 26.265625 61.859375 
Q 21.234375 61.859375 18.8125 59.640625 
Q 16.40625 57.421875 16.40625 51.3125 
L 16.40625 49.3125 
z
" id="FranklinGothic-Book-102"/>
       <path d="M 17.96875 10.9375 
L 17.96875 0 
L 7.078125 0 
L 7.078125 10.9375 
z
" id="FranklinGothic-Book-46"/>
       <path d="M 24.703125 -16.65625 
L 19.578125 -16.65625 
Q 5.21875 2.203125 5.21875 25.09375 
Q 5.21875 46.96875 19.578125 66.65625 
L 24.703125 66.65625 
Q 12.359375 48.25 12.359375 25 
Q 12.359375 2.828125 24.703125 -16.65625 
z
" id="FranklinGothic-Book-40"/>
       <path d="M 19.484375 34.578125 
Q 6.84375 40.09375 6.84375 50.59375 
Q 6.84375 58.203125 13.140625 63.109375 
Q 19.4375 68.015625 29.828125 68.015625 
Q 40.09375 68.015625 46.140625 63.296875 
Q 52.203125 58.59375 52.203125 50.984375 
Q 52.203125 40.375 39.265625 35.796875 
Q 49.703125 30.953125 52.359375 26.453125 
Q 55.03125 21.96875 55.03125 17.484375 
Q 55.03125 9.46875 48.21875 4.078125 
Q 41.40625 -1.3125 29.734375 -1.3125 
Q 17.28125 -1.3125 10.4375 4.171875 
Q 3.609375 9.671875 3.609375 17.234375 
Q 3.609375 28.515625 19.484375 34.578125 
z
M 29.59375 38.71875 
Q 37.984375 40.96875 41.453125 43.890625 
Q 44.921875 46.828125 44.921875 51.21875 
Q 44.921875 56.34375 40.796875 59 
Q 36.671875 61.671875 29.9375 61.671875 
Q 23.484375 61.671875 19.375 58.859375 
Q 15.28125 56.0625 15.28125 51.3125 
Q 15.28125 46.625 19.84375 43.203125 
Q 24.421875 39.796875 29.59375 38.71875 
z
M 28.65625 31.0625 
Q 11.765625 27.046875 11.765625 16.9375 
Q 11.765625 11.671875 16.375 8.328125 
Q 21 4.984375 29.984375 4.984375 
Q 37.59375 4.984375 42.234375 8.25 
Q 46.875 11.53125 46.875 16.609375 
Q 46.875 26.3125 28.65625 31.0625 
z
" id="FranklinGothic-Book-56"/>
       <path d="M 53.5625 53.03125 
L 46.046875 50.984375 
Q 42.1875 61.140625 31.984375 61.140625 
Q 13.234375 61.140625 12.796875 30.125 
Q 15.765625 37.015625 21.234375 40.328125 
Q 26.703125 43.65625 32.8125 43.65625 
Q 42.09375 43.65625 48.359375 37.1875 
Q 54.640625 30.71875 54.640625 21.6875 
Q 54.640625 12.3125 47.96875 5.5 
Q 41.3125 -1.3125 30.90625 -1.3125 
Q 19.09375 -1.3125 12.078125 7.59375 
Q 5.078125 16.5 5.078125 31.84375 
Q 5.078125 46.828125 11.6875 57.421875 
Q 18.3125 68.015625 32.171875 68.015625 
Q 48.140625 68.015625 53.5625 53.03125 
z
M 30.765625 5.375 
Q 37.84375 5.375 42.359375 10.03125 
Q 46.875 14.703125 46.875 21.234375 
Q 46.875 27.6875 42.453125 32.296875 
Q 38.03125 36.921875 31.5 36.921875 
Q 24.75 36.921875 19.71875 32.078125 
Q 14.703125 27.25 14.703125 20.75 
Q 14.703125 14.75 19.1875 10.0625 
Q 23.6875 5.375 30.765625 5.375 
z
" id="FranklinGothic-Book-54"/>
       <path d="M 4.640625 66.65625 
L 9.71875 66.65625 
Q 24.125 47.796875 24.125 24.90625 
Q 24.125 3.03125 9.71875 -16.65625 
L 4.640625 -16.65625 
Q 17 1.765625 17 25 
Q 17 47.171875 4.640625 66.65625 
z
" id="FranklinGothic-Book-41"/>
      </defs>
      <use xlink:href="#FranklinGothic-Book-77"/>
      <use x="81.005859" xlink:href="#FranklinGothic-Book-97"/>
      <use x="133.886719" xlink:href="#FranklinGothic-Book-110"/>
      <use x="188.085938" xlink:href="#FranklinGothic-Book-107"/>
      <use x="236.058594" xlink:href="#FranklinGothic-Book-111"/>
      <use x="288.011719" xlink:href="#FranklinGothic-Book-102"/>
      <use x="320.617188" xlink:href="#FranklinGothic-Book-102"/>
      <use x="350.597656" xlink:href="#FranklinGothic-Book-32"/>
      <use x="375.597656" xlink:href="#FranklinGothic-Book-101"/>
      <use x="427.148438" xlink:href="#FranklinGothic-Book-116"/>
      <use x="457.910156" xlink:href="#FranklinGothic-Book-32"/>
      <use x="482.910156" xlink:href="#FranklinGothic-Book-97"/>
      <use x="535.791016" xlink:href="#FranklinGothic-Book-108"/>
      <use x="558.789062" xlink:href="#FranklinGothic-Book-46"/>
      <use x="583.789062" xlink:href="#FranklinGothic-Book-32"/>
      <use x="608.789062" xlink:href="#FranklinGothic-Book-50"/>
      <use x="667.431641" xlink:href="#FranklinGothic-Book-48"/>
      <use x="726.074219" xlink:href="#FranklinGothic-Book-50"/>
      <use x="781.216797" xlink:href="#FranklinGothic-Book-49"/>
      <use x="839.859375" xlink:href="#FranklinGothic-Book-32"/>
      <use x="864.859375" xlink:href="#FranklinGothic-Book-40"/>
      <use x="894.205078" xlink:href="#FranklinGothic-Book-49"/>
      <use x="951.472656" xlink:href="#FranklinGothic-Book-57"/>
      <use x="1010.115234" xlink:href="#FranklinGothic-Book-56"/>
      <use x="1068.757812" xlink:href="#FranklinGothic-Book-54"/>
      <use x="1127.400391" xlink:href="#FranklinGothic-Book-46"/>
      <use x="1152.400391" xlink:href="#FranklinGothic-Book-48"/>
      <use x="1207.292969" xlink:href="#FranklinGothic-Book-49"/>
      <use x="1265.935547" xlink:href="#FranklinGothic-Book-45"/>
      <use x="1290.935547" xlink:href="#FranklinGothic-Book-50"/>
      <use x="1349.578125" xlink:href="#FranklinGothic-Book-48"/>
      <use x="1408.220703" xlink:href="#FranklinGothic-Book-50"/>
      <use x="1466.863281" xlink:href="#FranklinGothic-Book-50"/>
      <use x="1525.505859" xlink:href="#FranklinGothic-Book-46"/>
      <use x="1546.630859" xlink:href="#FranklinGothic-Book-49"/>
      <use x="1605.273438" xlink:href="#FranklinGothic-Book-50"/>
      <use x="1663.916016" xlink:href="#FranklinGothic-Book-41"/>
     </g>
    </g>
    <g id="line2d_13"/>
    <g id="text_17">
     <!-- IMBIE 2021 (1992.01-2020.12) -->
     <g style="fill:#d55e00;" transform="translate(644.44425 157.04965)scale(0.2 -0.2)">
      <defs>
       <path d="M 16.703125 0 
L 8.34375 0 
L 8.34375 66.65625 
L 16.703125 66.65625 
z
" id="FranklinGothic-Book-73"/>
       <path d="M 8.34375 0 
L 8.34375 66.65625 
L 34.71875 66.65625 
Q 44.671875 66.65625 49.484375 61.765625 
Q 54.296875 56.890625 54.296875 50.4375 
Q 54.296875 39.109375 42.484375 35.40625 
Q 49.515625 33.59375 52.921875 28.953125 
Q 56.34375 24.3125 56.34375 18.453125 
Q 56.34375 10.59375 51.046875 5.296875 
Q 45.75 0 34.71875 0 
z
M 16.40625 38.09375 
L 30.90625 38.09375 
Q 39.9375 38.09375 42.96875 41.53125 
Q 46 44.96875 46 49.609375 
Q 46 54.203125 42.75 57.03125 
Q 39.5 59.859375 33.0625 59.859375 
L 16.40625 59.859375 
z
M 16.40625 7.328125 
L 34.28125 7.328125 
Q 40.828125 7.328125 44.390625 10.5 
Q 47.953125 13.671875 47.953125 18.75 
Q 47.953125 22.3125 46.34375 25.359375 
Q 44.734375 28.421875 41.796875 30.078125 
Q 38.875 31.734375 33.0625 31.734375 
L 16.40625 31.734375 
z
" id="FranklinGothic-Book-66"/>
       <path d="M 51.46875 7.328125 
L 51.46875 0 
L 8.34375 0 
L 8.34375 66.65625 
L 50.53125 66.65625 
L 50.53125 59.328125 
L 16.703125 59.328125 
L 16.703125 38.140625 
L 43.5625 38.140625 
L 43.5625 31.34375 
L 16.703125 31.34375 
L 16.703125 7.328125 
z
" id="FranklinGothic-Book-69"/>
      </defs>
      <use xlink:href="#FranklinGothic-Book-73"/>
      <use x="25" xlink:href="#FranklinGothic-Book-77"/>
      <use x="106.005859" xlink:href="#FranklinGothic-Book-66"/>
      <use x="166.455078" xlink:href="#FranklinGothic-Book-73"/>
      <use x="191.455078" xlink:href="#FranklinGothic-Book-69"/>
      <use x="246.240234" xlink:href="#FranklinGothic-Book-32"/>
      <use x="271.240234" xlink:href="#FranklinGothic-Book-50"/>
      <use x="329.882812" xlink:href="#FranklinGothic-Book-48"/>
      <use x="388.525391" xlink:href="#FranklinGothic-Book-50"/>
      <use x="443.667969" xlink:href="#FranklinGothic-Book-49"/>
      <use x="502.310547" xlink:href="#FranklinGothic-Book-32"/>
      <use x="527.310547" xlink:href="#FranklinGothic-Book-40"/>
      <use x="556.65625" xlink:href="#FranklinGothic-Book-49"/>
      <use x="613.923828" xlink:href="#FranklinGothic-Book-57"/>
      <use x="672.566406" xlink:href="#FranklinGothic-Book-57"/>
      <use x="731.208984" xlink:href="#FranklinGothic-Book-50"/>
      <use x="789.851562" xlink:href="#FranklinGothic-Book-46"/>
      <use x="814.851562" xlink:href="#FranklinGothic-Book-48"/>
      <use x="869.744141" xlink:href="#FranklinGothic-Book-49"/>
      <use x="928.386719" xlink:href="#FranklinGothic-Book-45"/>
      <use x="953.386719" xlink:href="#FranklinGothic-Book-50"/>
      <use x="1012.029297" xlink:href="#FranklinGothic-Book-48"/>
      <use x="1070.671875" xlink:href="#FranklinGothic-Book-50"/>
      <use x="1129.314453" xlink:href="#FranklinGothic-Book-48"/>
      <use x="1187.957031" xlink:href="#FranklinGothic-Book-46"/>
      <use x="1209.082031" xlink:href="#FranklinGothic-Book-49"/>
      <use x="1267.724609" xlink:href="#FranklinGothic-Book-50"/>
      <use x="1326.367188" xlink:href="#FranklinGothic-Book-41"/>
     </g>
    </g>
    <g id="line2d_14"/>
    <g id="text_18">
     <!-- NASA GRACE (2002.04-2022.07) -->
     <g style="fill:#56b4e9;" transform="translate(644.44425 184.3809)scale(0.2 -0.2)">
      <defs>
       <path d="M 57.421875 0 
L 49.3125 0 
L 14.84375 58.109375 
L 14.9375 53.71875 
Q 15.09375 51.21875 15.09375 49.515625 
L 15.09375 0 
L 8.34375 0 
L 8.34375 66.65625 
L 18.796875 66.65625 
L 51.03125 12.3125 
L 50.921875 16.9375 
Q 50.828125 19.671875 50.828125 21.78125 
L 50.828125 66.65625 
L 57.421875 66.65625 
z
" id="FranklinGothic-Book-78"/>
       <path d="M 53.21875 0 
L 44.671875 0 
L 37.9375 19.484375 
L 13.28125 19.484375 
L 7.328125 0 
L 0.34375 0 
L 21.96875 66.65625 
L 31.5 66.65625 
z
M 36.1875 25.734375 
L 25.921875 57.765625 
L 15.578125 25.734375 
z
" id="FranklinGothic-Book-65"/>
       <path d="M 1.03125 17.71875 
L 8.546875 19.4375 
Q 13.09375 5.8125 28.21875 5.8125 
Q 36.140625 5.8125 40.140625 9.15625 
Q 44.140625 12.5 44.140625 18.109375 
Q 44.140625 22.359375 41.078125 24.953125 
Q 38.03125 27.546875 34.03125 28.515625 
L 20.703125 31.84375 
Q 15.53125 33.15625 12.234375 35.03125 
Q 8.9375 36.921875 6.640625 40.828125 
Q 4.34375 44.734375 4.34375 49.75 
Q 4.34375 58.109375 10.640625 63.0625 
Q 16.9375 68.015625 26.8125 68.015625 
Q 44.96875 68.015625 50.6875 51.5625 
L 43.109375 49.3125 
Q 41.796875 55.171875 36.90625 58.171875 
Q 32.03125 61.1875 26.515625 61.1875 
Q 21.046875 61.1875 16.765625 58.296875 
Q 12.5 55.421875 12.5 50.140625 
Q 12.5 42.78125 23.34375 40.1875 
L 35.796875 37.203125 
Q 52.875 33.109375 52.875 18.796875 
Q 52.875 10.15625 46.453125 4.421875 
Q 40.046875 -1.3125 28.375 -1.3125 
Q 7.671875 -1.3125 1.03125 17.71875 
z
" id="FranklinGothic-Book-83"/>
       <path d="M 56.296875 0 
L 47.5625 0 
L 35.25 28.859375 
L 16.15625 28.859375 
L 16.15625 0 
L 8.34375 0 
L 8.34375 66.65625 
L 34.625 66.65625 
Q 45.3125 66.65625 50.453125 60.8125 
Q 55.609375 54.984375 55.609375 48.046875 
Q 55.609375 42.71875 52.734375 37.828125 
Q 49.859375 32.953125 43.21875 30.859375 
z
M 16.15625 35.640625 
L 33.59375 35.640625 
Q 40.484375 35.640625 43.875 39.28125 
Q 47.265625 42.921875 47.265625 48.1875 
Q 47.265625 53.46875 43.671875 56.390625 
Q 40.09375 59.328125 34.625 59.328125 
L 16.15625 59.328125 
z
" id="FranklinGothic-Book-82"/>
       <path d="M 28.078125 0 
L 19.484375 0 
Q 19.484375 16.75 26.3125 32.59375 
Q 33.15625 48.4375 43.0625 59.328125 
L 6.890625 59.328125 
L 7.71875 66.65625 
L 51.765625 66.65625 
L 51.765625 61.671875 
Q 39.84375 47.3125 33.9375 31.78125 
Q 28.03125 16.265625 28.03125 2.296875 
Q 28.03125 1.515625 28.078125 0 
z
" id="FranklinGothic-Book-55"/>
      </defs>
      <use xlink:href="#FranklinGothic-Book-78"/>
      <use x="65.722656" xlink:href="#FranklinGothic-Book-65"/>
      <use x="119.287109" xlink:href="#FranklinGothic-Book-83"/>
      <use x="176.220703" xlink:href="#FranklinGothic-Book-65"/>
      <use x="229.785156" xlink:href="#FranklinGothic-Book-32"/>
      <use x="254.785156" xlink:href="#FranklinGothic-Book-71"/>
      <use x="319.482422" xlink:href="#FranklinGothic-Book-82"/>
      <use x="380.761719" xlink:href="#FranklinGothic-Book-65"/>
      <use x="431.826172" xlink:href="#FranklinGothic-Book-67"/>
      <use x="489.736328" xlink:href="#FranklinGothic-Book-69"/>
      <use x="544.521484" xlink:href="#FranklinGothic-Book-32"/>
      <use x="569.521484" xlink:href="#FranklinGothic-Book-40"/>
      <use x="598.867188" xlink:href="#FranklinGothic-Book-50"/>
      <use x="657.509766" xlink:href="#FranklinGothic-Book-48"/>
      <use x="716.152344" xlink:href="#FranklinGothic-Book-48"/>
      <use x="774.794922" xlink:href="#FranklinGothic-Book-50"/>
      <use x="833.4375" xlink:href="#FranklinGothic-Book-46"/>
      <use x="858.4375" xlink:href="#FranklinGothic-Book-48"/>
      <use x="917.080078" xlink:href="#FranklinGothic-Book-52"/>
      <use x="975.722656" xlink:href="#FranklinGothic-Book-45"/>
      <use x="1000.722656" xlink:href="#FranklinGothic-Book-50"/>
      <use x="1059.365234" xlink:href="#FranklinGothic-Book-48"/>
      <use x="1118.007812" xlink:href="#FranklinGothic-Book-50"/>
      <use x="1176.650391" xlink:href="#FranklinGothic-Book-50"/>
      <use x="1235.292969" xlink:href="#FranklinGothic-Book-46"/>
      <use x="1260.292969" xlink:href="#FranklinGothic-Book-48"/>
      <use x="1313.310547" xlink:href="#FranklinGothic-Book-55"/>
      <use x="1371.953125" xlink:href="#FranklinGothic-Book-41"/>
     </g>
    </g>
   </g>
   <g id="line2d_15">
    <path clip-path="url(#pde7145d742)" d="M 541.848389 189.672977 
L 543.680525 185.080095 
L 549.176934 205.355087 
L 551.00907 206.818806 
L 552.841207 204.643819 
L 554.673343 204.656383 
L 556.505479 203.660327 
L 558.337615 200.311991 
L 560.169752 201.010695 
L 562.001888 196.547642 
L 563.834024 193.303308 
L 565.66616 192.801442 
L 569.330433 205.140101 
L 571.162569 214.585524 
L 572.994706 217.448746 
L 574.826842 217.260982 
L 576.658978 217.485042 
L 578.491114 214.690923 
L 580.323251 216.305412 
L 582.155387 216.826124 
L 583.987523 215.310054 
L 585.819659 211.031973 
L 587.651796 212.169026 
L 589.483932 213.517574 
L 591.316068 220.30778 
L 593.148204 229.053103 
L 594.980341 231.841638 
L 596.812477 233.145514 
L 598.644613 230.195739 
L 600.476749 228.487717 
L 602.308886 229.488659 
L 604.141022 227.939084 
L 605.973158 224.770833 
L 607.805294 224.339465 
L 609.637431 221.705189 
L 611.469567 224.999081 
L 613.301703 234.00476 
L 615.13384 247.307366 
L 616.965976 251.863952 
L 618.798112 251.138025 
L 620.630248 251.036116 
L 622.462385 247.499318 
L 624.294521 249.134747 
L 626.126657 245.776638 
L 627.958793 244.450426 
L 629.79093 246.053747 
L 631.623066 245.476495 
L 633.455202 246.183576 
L 635.287338 252.228311 
L 637.119475 261.114631 
L 638.951611 265.295689 
L 640.783747 264.345005 
L 642.615883 266.306403 
L 644.44802 266.868996 
L 646.280156 264.583723 
L 648.112292 261.795885 
L 649.944428 262.495288 
L 651.776565 261.486668 
L 653.608701 260.649061 
L 655.440837 262.022039 
L 657.272974 271.078672 
L 659.10511 284.775652 
L 660.937246 289.144474 
L 662.769382 291.069576 
L 664.601519 289.471141 
L 666.433655 285.227262 
L 668.265791 282.528072 
L 670.097927 283.723756 
L 671.930064 279.939166 
L 673.7622 281.259794 
L 675.594336 282.394752 
L 677.426472 282.579724 
L 679.258609 292.848794 
L 681.090745 304.082509 
L 682.922881 308.553938 
L 684.755017 307.841274 
L 688.41929 297.514967 
L 690.251426 296.219467 
L 692.083562 299.456821 
L 693.915699 299.488929 
L 697.579971 296.753442 
L 699.412108 297.353728 
L 701.244244 304.961997 
L 703.07638 319.523807 
L 704.908516 323.338412 
L 706.740653 321.627598 
L 708.572789 320.357925 
L 710.404925 318.615003 
L 712.237061 318.80137 
L 714.069198 317.485628 
L 715.901334 316.73946 
L 717.73347 318.247851 
L 719.565606 316.063789 
L 721.397743 323.482201 
L 723.229879 335.764322 
L 725.062015 349.304251 
L 726.894151 356.150995 
L 728.726288 353.673073 
L 730.558424 354.801749 
L 732.39056 353.6284 
L 736.054833 352.188413 
L 737.886969 351.116275 
L 739.719105 350.791004 
L 741.551242 352.145835 
L 745.215514 365.39958 
L 747.04765 378.954167 
L 748.879787 382.984456 
L 750.711923 384.577306 
L 750.711923 384.511694 
L 756.208332 380.314581 
L 756.208332 381.027944 
L 758.040468 379.674509 
L 759.872604 376.594207 
L 761.70474 375.726585 
L 765.369013 377.795476 
L 767.201149 393.876846 
L 769.033285 415.617651 
L 770.865422 422.620052 
L 774.529694 417.974121 
L 776.36183 417.126741 
L 778.193967 416.784718 
L 780.026103 416.190715 
L 783.690376 416.118122 
L 785.522512 413.48245 
L 787.354648 412.295141 
L 789.186784 420.076516 
L 794.683193 424.45162 
L 796.515329 424.470467 
L 798.347466 423.72709 
L 800.179602 422.612373 
L 803.843874 419.016244 
L 805.676011 418.236571 
L 807.508147 418.073936 
L 809.340283 420.896674 
L 813.004556 440.624429 
L 814.836692 443.340372 
L 816.668828 442.116767 
L 818.500964 441.861296 
L 822.165237 435.893341 
L 823.997373 436.286319 
L 825.82951 433.181587 
L 827.661646 432.549193 
L 827.661646 432.375389 
L 833.158055 445.369476 
L 834.990191 454.814201 
L 836.822327 457.149731 
L 842.318736 453.393758 
L 844.150872 449.503768 
L 845.983008 451.014952 
L 847.815145 451.047061 
L 851.479417 448.823212 
L 853.311553 448.55099 
L 855.14369 460.639065 
L 856.975826 478.226034 
L 862.472235 469.634273 
L 864.304371 474.042184 
L 866.136507 470.379744 
L 871.632916 469.782949 
L 871.632916 467.429969 
L 873.465052 467.030011 
L 875.297189 468.943945 
L 897.282824 472.725046 
L 899.11496 474.390489 
L 904.611369 484.167465 
L 906.443505 481.802619 
L 908.275641 482.585782 
L 910.107778 482.937577 
L 911.939914 484.761468 
L 913.77205 486.215415 
L 915.604186 485.150956 
L 917.436323 483.863832 
L 919.268459 487.760802 
L 921.100595 501.841685 
L 922.932731 517.856744 
L 924.764868 524.304927 
L 926.597004 523.221621 
L 928.42914 520.289994 
L 930.261276 520.603399 
L 932.093413 523.232091 
L 933.925549 520.00451 
L 935.757685 522.467774 
L 937.589821 521.832588 
L 939.421958 519.934709 
L 941.254094 522.564099 
L 943.08623 533.266631 
L 944.918367 538.993076 
L 946.750503 539.342079 
L 948.582639 534.69196 
L 950.414775 534.349937 
L 952.246912 532.832471 
L 954.079048 528.626983 
L 955.911184 532.942756 
L 957.74332 532.627955 
L 959.575457 531.158652 
L 961.407593 534.334581 
L 963.239729 533.979994 
L 965.071865 536.553543 
L 966.904002 546.220932 
L 968.736138 549.706776 
L 970.568274 552.761252 
L 972.40041 550.068344 
L 974.232547 547.94431 
L 976.064683 547.2826 
L 977.896819 546.358439 
L 979.728955 545.277228 
L 981.561092 544.337013 
L 983.393228 546.15532 
L 985.225364 544.810261 
L 987.057501 550.305666 
L 987.057501 550.305666 
" style="fill:none;stroke:#56b4e9;stroke-linecap:round;"/>
   </g>
   <g id="line2d_16">
    <path clip-path="url(#pde7145d742)" d="M 316.495629 164.222309 
L 338.481264 164.860985 
L 358.634763 166.420059 
L 380.620398 173.837543 
L 402.606033 176.98856 
L 426.423805 176.459786 
L 446.577304 176.75923 
L 468.562939 180.559994 
L 490.548574 185.751165 
L 512.534209 187.807709 
L 534.519844 193.171001 
L 558.337615 203.240895 
L 569.330433 208.502405 
L 572.994706 210.276109 
L 589.483932 219.502225 
L 609.637431 231.650761 
L 626.126657 242.276639 
L 629.79093 244.762114 
L 655.440837 264.408823 
L 664.601519 271.582396 
L 695.747835 295.447291 
L 704.908516 303.244951 
L 708.572789 306.482486 
L 712.237061 309.930924 
L 719.565606 317.23533 
L 737.886969 336.039595 
L 748.879787 347.796724 
L 756.208332 355.467354 
L 770.865422 370.472907 
L 774.529694 373.922371 
L 776.36183 375.552733 
L 798.347466 390.369838 
L 809.340283 396.576818 
L 820.333101 403.074337 
L 822.165237 404.289098 
L 831.325918 409.576706 
L 842.318736 416.038647 
L 851.479417 420.931002 
L 862.472235 426.931058 
L 864.304371 427.878783 
L 886.290006 433.915889 
L 889.954279 435.32508 
L 897.282824 438.578516 
L 899.11496 439.438272 
L 904.611369 443.776039 
L 908.275641 446.914555 
L 922.932731 467.598091 
L 932.093413 480.528213 
L 952.246912 505.669161 
L 952.246912 505.669161 
" style="fill:none;stroke:#d55e00;stroke-linecap:round;"/>
   </g>
   <g id="line2d_17">
    <path clip-path="url(#pde7145d742)" d="M 184.581818 114.055088 
L 186.413954 111.661107 
L 188.246091 110.467668 
L 190.078227 108.010162 
L 191.910363 108.306901 
L 193.742499 109.894905 
L 195.574636 116.220634 
L 197.406772 118.106341 
L 199.238908 116.215999 
L 201.071045 115.269639 
L 202.903181 115.65469 
L 204.735317 113.03234 
L 206.567453 107.615188 
L 208.39959 106.490787 
L 210.231726 104.950204 
L 213.895998 100.44 
L 215.728135 105.357108 
L 217.560271 114.328238 
L 219.392407 122.311503 
L 221.224543 121.416779 
L 223.05668 120.29584 
L 224.888816 117.620204 
L 226.720952 116.508463 
L 228.553088 116.090652 
L 230.385225 114.504182 
L 232.217361 113.849281 
L 234.049497 114.088899 
L 235.881633 112.745296 
L 237.71377 113.104038 
L 239.545906 124.336183 
L 241.378042 129.712683 
L 243.210179 129.281562 
L 245.042315 127.610064 
L 246.874451 125.277386 
L 248.706587 124.027932 
L 250.538724 124.078878 
L 252.37086 124.723762 
L 254.202996 124.778632 
L 256.035132 125.517543 
L 257.867269 125.434194 
L 259.699405 129.035667 
L 261.531541 139.020886 
L 263.363677 143.730468 
L 265.195814 141.889559 
L 267.02795 140.63426 
L 268.860086 137.880657 
L 270.692222 135.533694 
L 272.524359 135.203389 
L 276.188631 136.048048 
L 278.020767 135.709528 
L 279.852904 134.30081 
L 281.68504 139.81797 
L 283.517176 150.671437 
L 285.349313 155.581415 
L 289.013585 151.575812 
L 292.677858 145.217175 
L 294.509994 143.064574 
L 296.34213 140.486677 
L 298.174266 139.88294 
L 300.006403 140.639613 
L 301.838539 138.537658 
L 303.670675 143.500541 
L 305.502811 155.389042 
L 307.334948 158.266969 
L 309.167084 157.637433 
L 310.99922 154.089282 
L 312.831356 153.625982 
L 316.495629 147.563223 
L 318.327765 146.365012 
L 320.159901 145.962413 
L 321.992038 145.936938 
L 323.824174 145.13193 
L 325.65631 143.957097 
L 327.488447 149.192076 
L 329.320583 151.587219 
L 331.152719 150.104092 
L 332.984855 146.53588 
L 334.816992 145.24303 
L 336.649128 144.625584 
L 338.481264 144.681021 
L 340.3134 141.724924 
L 342.145537 140.402918 
L 343.977673 139.429395 
L 345.809809 139.968166 
L 347.641945 144.349018 
L 349.474082 156.327871 
L 351.306218 159.518747 
L 353.138354 158.530222 
L 354.97049 155.557303 
L 356.802627 151.423703 
L 358.634763 150.989234 
L 360.466899 150.985553 
L 362.299036 148.429111 
L 364.131172 148.685909 
L 365.963308 147.688821 
L 367.795444 147.553042 
L 369.627581 149.196921 
L 371.459717 158.638425 
L 373.291853 161.953563 
L 375.123989 160.513821 
L 376.956126 160.581029 
L 378.788262 159.566949 
L 380.620398 158.93348 
L 382.452534 159.715722 
L 384.284671 160.254982 
L 386.116807 160.243047 
L 387.948943 160.659032 
L 389.781079 161.473459 
L 391.613216 166.0104 
L 393.445352 177.944859 
L 395.277488 182.453703 
L 397.109624 180.570645 
L 398.941761 180.470338 
L 400.773897 176.398269 
L 402.606033 173.749281 
L 406.270306 167.143555 
L 408.102442 163.153605 
L 409.934578 162.298406 
L 411.766715 162.538186 
L 413.598851 165.183215 
L 415.430987 172.130871 
L 417.263123 173.418456 
L 419.09526 170.506467 
L 420.927396 169.55628 
L 422.759532 167.388639 
L 426.423805 161.629598 
L 428.255941 161.200203 
L 430.088077 161.537862 
L 431.920213 159.564818 
L 433.75235 160.119204 
L 435.584486 165.019059 
L 437.416622 172.307616 
L 439.248758 174.37033 
L 442.913031 168.641212 
L 444.745167 167.189613 
L 446.577304 164.040727 
L 448.40944 162.805593 
L 450.241576 162.276906 
L 452.073712 160.616822 
L 453.905849 159.52451 
L 455.737985 157.968785 
L 457.570121 165.355343 
L 459.402257 178.709518 
L 461.234394 182.986907 
L 463.06653 184.677652 
L 464.898666 183.934587 
L 466.730802 181.711611 
L 468.562939 180.934859 
L 470.395075 179.990439 
L 472.227211 177.932397 
L 474.059347 178.088254 
L 475.891484 177.597045 
L 477.72362 175.312452 
L 479.555756 175.756782 
L 481.387892 187.611205 
L 483.220029 191.527798 
L 485.052165 190.065265 
L 486.884301 188.134365 
L 488.716438 184.873657 
L 490.548574 184.2218 
L 492.38071 181.354634 
L 494.212846 181.115737 
L 496.044983 180.542927 
L 497.877119 178.559891 
L 499.709255 177.614289 
L 501.541391 182.788464 
L 503.373528 189.967383 
L 505.205664 194.572925 
L 507.0378 191.927663 
L 508.869936 191.261291 
L 510.702073 189.279874 
L 512.534209 189.611904 
L 514.366345 187.111317 
L 516.198481 185.522928 
L 518.030618 186.016128 
L 519.862754 185.79789 
L 521.69489 184.334878 
L 523.527026 187.447635 
L 525.359163 196.382688 
L 527.191299 203.38753 
L 529.023435 201.477052 
L 530.855572 200.168033 
L 534.519844 191.42893 
L 536.35198 189.632762 
L 538.184117 190.189355 
L 541.848389 190.437781 
L 543.680525 190.802795 
L 545.512662 196.777885 
L 547.344798 208.421245 
L 549.176934 212.063544 
L 551.00907 210.260628 
L 554.673343 204.902759 
L 556.505479 201.366925 
L 558.337615 199.214877 
L 562.001888 195.460624 
L 563.834024 192.112581 
L 565.66616 191.828974 
L 567.498297 200.10249 
L 569.330433 213.990614 
L 571.162569 219.60402 
L 572.994706 218.074187 
L 574.826842 215.137038 
L 576.658978 213.910089 
L 578.491114 213.042334 
L 580.323251 213.614577 
L 582.155387 211.564893 
L 583.987523 208.207779 
L 585.819659 207.068463 
L 587.651796 207.855076 
L 589.483932 213.118091 
L 591.316068 222.688018 
L 593.148204 228.29755 
L 594.980341 227.446615 
L 596.812477 225.691297 
L 598.644613 224.485573 
L 600.476749 224.643052 
L 602.308886 221.886495 
L 604.141022 218.715073 
L 605.973158 216.240916 
L 607.805294 214.787198 
L 609.637431 214.954196 
L 611.469567 220.681319 
L 613.301703 234.00476 
L 615.13384 240.96195 
L 616.965976 241.540019 
L 618.798112 241.462439 
L 620.630248 238.504515 
L 622.462385 236.398045 
L 624.294521 234.777334 
L 626.126657 234.277806 
L 627.958793 235.563603 
L 629.79093 234.279296 
L 631.623066 234.785065 
L 633.455202 236.465178 
L 635.287338 246.996845 
L 637.119475 254.172227 
L 638.951611 254.417825 
L 640.783747 254.976472 
L 642.615883 255.178593 
L 646.280156 251.256341 
L 648.112292 250.634073 
L 649.944428 249.821917 
L 651.776565 248.695398 
L 653.608701 249.355398 
L 655.440837 254.848795 
L 657.272974 270.754704 
L 659.10511 278.88141 
L 660.937246 276.752192 
L 662.769382 275.769842 
L 664.601519 272.699559 
L 666.433655 271.098499 
L 668.265791 270.565275 
L 670.097927 269.0805 
L 671.930064 268.885582 
L 673.7622 268.497686 
L 675.594336 268.434844 
L 677.426472 275.976949 
L 679.258609 290.357531 
L 681.090745 296.288174 
L 684.755017 290.918827 
L 686.587154 287.756762 
L 688.41929 285.04356 
L 690.251426 284.339929 
L 692.083562 284.282627 
L 693.915699 284.670002 
L 695.747835 283.534305 
L 697.579971 283.257848 
L 699.412108 286.144228 
L 701.244244 299.353745 
L 703.07638 306.847206 
L 704.908516 305.03109 
L 706.740653 304.112007 
L 708.572789 304.085774 
L 710.404925 301.874149 
L 712.237061 298.569718 
L 714.069198 298.057385 
L 715.901334 298.450477 
L 717.73347 299.19226 
L 719.565606 300.133905 
L 721.397743 307.706051 
L 723.229879 324.237827 
L 725.062015 332.60991 
L 726.894151 331.621014 
L 730.558424 330.353023 
L 732.39056 327.988436 
L 734.222696 327.222173 
L 736.054833 324.850146 
L 737.886969 325.003584 
L 739.719105 323.438916 
L 741.551242 324.02941 
L 743.383378 330.794045 
L 745.215514 346.917505 
L 747.04765 354.690226 
L 748.879787 353.71811 
L 750.711923 353.16535 
L 752.544059 350.930594 
L 754.376195 351.03565 
L 758.040468 348.03087 
L 759.872604 345.546929 
L 761.70474 344.349819 
L 763.536877 344.858164 
L 765.369013 355.688818 
L 767.201149 376.893501 
L 769.033285 386.954868 
L 770.865422 386.032019 
L 772.697558 382.727711 
L 774.529694 381.375775 
L 776.36183 380.729084 
L 778.193967 377.767363 
L 780.026103 376.225216 
L 781.858239 376.639638 
L 783.690376 376.913926 
L 785.522512 375.625067 
L 787.354648 379.618133 
L 789.186784 391.076904 
L 791.018921 394.269531 
L 792.851057 390.714023 
L 794.683193 389.562903 
L 796.515329 387.90389 
L 798.347466 387.719681 
L 800.179602 386.013932 
L 802.011738 385.699106 
L 803.843874 385.119029 
L 805.676011 383.421836 
L 807.508147 383.537147 
L 809.340283 388.256484 
L 811.172419 402.215389 
L 813.004556 408.645749 
L 814.836692 405.80294 
L 816.668828 405.530105 
L 818.500964 402.343116 
L 820.333101 400.437076 
L 822.165237 399.443621 
L 823.997373 398.699197 
L 825.82951 398.075962 
L 827.661646 397.579582 
L 829.493782 396.725039 
L 831.325918 401.854585 
L 833.158055 418.831624 
L 834.990191 423.655761 
L 836.822327 420.566105 
L 838.654463 417.032907 
L 840.4866 416.085792 
L 842.318736 415.31699 
L 844.150872 413.930752 
L 845.983008 413.995591 
L 847.815145 412.704229 
L 849.647281 410.933243 
L 851.479417 410.828598 
L 853.311553 417.237449 
L 855.14369 436.001111 
L 856.975826 443.373365 
L 858.807962 443.319941 
L 860.640099 437.784103 
L 862.472235 434.583528 
L 864.304371 433.148925 
L 866.136507 431.374037 
L 867.968644 428.845492 
L 869.80078 429.2486 
L 871.632916 428.327888 
L 873.465052 427.640539 
L 875.297189 433.066892 
L 877.129325 443.873299 
L 878.961461 447.484267 
L 882.625734 441.335441 
L 884.45787 440.203511 
L 886.290006 440.2261 
L 888.122142 439.704832 
L 889.954279 435.823855 
L 891.786415 435.931243 
L 893.618551 435.742533 
L 895.450687 434.444225 
L 897.282824 436.231392 
L 899.11496 443.179306 
L 900.947096 449.003826 
L 902.779233 447.94763 
L 904.611369 447.108352 
L 906.443505 445.808214 
L 908.275641 445.319763 
L 910.107778 443.964784 
L 911.939914 443.74258 
L 913.77205 443.777036 
L 915.604186 439.715134 
L 917.436323 442.225542 
L 919.268459 449.906953 
L 921.100595 468.137772 
L 922.932731 478.240691 
L 924.764868 477.541431 
L 926.597004 476.561622 
L 928.42914 473.897435 
L 930.261276 474.072774 
L 932.093413 473.171306 
L 933.925549 473.270859 
L 935.757685 472.79342 
L 937.589821 471.227883 
L 939.421958 472.207221 
L 941.254094 474.900801 
L 943.08623 488.209109 
L 944.918367 492.211522 
L 946.750503 491.732076 
L 948.582639 489.104271 
L 950.414775 487.275657 
L 952.246912 486.213192 
L 954.079048 485.987772 
L 955.911184 484.523935 
L 957.74332 483.550966 
L 959.575457 482.395186 
L 961.407593 482.531731 
L 963.239729 486.699717 
L 965.071865 495.994812 
L 966.904002 504.31596 
L 968.736138 503.497386 
L 970.568274 503.186877 
L 972.40041 500.888693 
L 974.232547 499.986617 
L 976.064683 497.623974 
L 977.896819 496.976315 
L 979.728955 495.187164 
L 981.561092 494.478717 
L 983.393228 494.694407 
L 985.225364 495.911401 
L 987.057501 507.049131 
L 988.889637 510.473169 
L 990.721773 509.196385 
L 992.553909 505.972202 
L 994.386046 503.335343 
L 996.218182 502.515966 
L 996.218182 502.515966 
" style="fill:none;stroke:#009e73;stroke-linecap:round;"/>
   </g>
  </g>
 </g>
 <defs>
  <clipPath id="pde7145d742">
   <rect height="498.96" width="892.8" x="144" y="77.76"/>
  </clipPath>
 </defs>
</svg>
