<?xml version="1.0" encoding="utf-8" standalone="no"?>
<!DOCTYPE svg PUBLIC "-//W3C//DTD SVG 1.1//EN"
  "http://www.w3.org/Graphics/SVG/1.1/DTD/svg11.dtd">
<!-- Created with matplotlib (https://matplotlib.org/) -->
<svg height="648pt" version="1.1" viewBox="0 0 1152 648" width="1152pt" xmlns="http://www.w3.org/2000/svg" xmlns:xlink="http://www.w3.org/1999/xlink">
 <metadata>
  <rdf:RDF xmlns:cc="http://creativecommons.org/ns#" xmlns:dc="http://purl.org/dc/elements/1.1/" xmlns:rdf="http://www.w3.org/1999/02/22-rdf-syntax-ns#">
   <cc:Work>
    <dc:type rdf:resource="http://purl.org/dc/dcmitype/StillImage"/>
    <dc:date>2022-08-17T12:05:28.539109</dc:date>
    <dc:format>image/svg+xml</dc:format>
    <dc:creator>
     <cc:Agent>
      <dc:title>Matplotlib v3.3.1, https://matplotlib.org/</dc:title>
     </cc:Agent>
    </dc:creator>
   </cc:Work>
  </rdf:RDF>
 </metadata>
 <defs>
  <style type="text/css">*{stroke-linecap:butt;stroke-linejoin:round;}</style>
 </defs>
 <g id="figure_1">
  <g id="patch_1">
   <path d="M 0 648 
L 1152 648 
L 1152 0 
L 0 0 
z
" style="fill:#ffffff;"/>
  </g>
  <g id="axes_1">
   <g id="patch_2">
    <path d="M 144 576.72 
L 1036.8 576.72 
L 1036.8 77.76 
L 144 77.76 
z
" style="fill:none;"/>
   </g>
   <g id="patch_3">
    <path d="M 144 576.72 
L 1036.8 576.72 
" style="fill:none;stroke:#d3d3d3;stroke-linecap:square;stroke-linejoin:miter;stroke-width:1.25;"/>
   </g>
   <g id="matplotlib.axis_1">
    <g id="xtick_1">
     <g id="line2d_1">
      <defs>
       <path d="M 0 0 
L 0 6 
" id="md62f78f00b" style="stroke:#696969;stroke-width:1.25;"/>
      </defs>
      <g>
       <use style="fill:#696969;stroke:#696969;stroke-width:1.25;" x="144" xlink:href="#md62f78f00b" y="576.72"/>
      </g>
     </g>
     <g id="text_1">
      <!-- 1950 -->
      <g style="fill:#696969;" transform="translate(126.510937 596.218438)scale(0.15 -0.15)">
       <defs>
        <path d="M 55.859375 6.203125 
L 55.859375 0 
L 9.1875 0 
L 9.1875 6.203125 
L 29.203125 6.203125 
L 29.203125 57.671875 
Q 20.359375 48.4375 10.84375 43.265625 
L 10.84375 51.65625 
Q 23.96875 58.546875 31.203125 68.015625 
L 37.15625 68.015625 
L 37.15625 6.203125 
z
" id="FranklinGothic-Book-49"/>
        <path d="M 5.71875 12.15625 
L 12.40625 14.59375 
Q 16.546875 5.375 26.375 5.375 
Q 35.890625 5.375 40.703125 13.375 
Q 45.515625 21.390625 45.65625 35.109375 
Q 39.109375 23.09375 25.984375 23.09375 
Q 16.703125 23.09375 10.40625 29.421875 
Q 4.109375 35.75 4.109375 45.0625 
Q 4.109375 54.546875 10.71875 61.28125 
Q 17.328125 68.015625 27.59375 68.015625 
Q 40.140625 68.015625 46.828125 59.203125 
Q 53.515625 50.390625 53.515625 34.96875 
Q 53.515625 18.75 46.4375 8.71875 
Q 39.359375 -1.3125 26.265625 -1.3125 
Q 10.984375 -1.3125 5.71875 12.15625 
z
M 27.828125 29.78125 
Q 34.71875 29.78125 39.375 34.59375 
Q 44.046875 39.40625 44.046875 45.84375 
Q 44.046875 52.09375 39.625 56.578125 
Q 35.203125 61.078125 27.984375 61.078125 
Q 20.65625 61.078125 16.40625 56.46875 
Q 12.15625 51.859375 12.15625 45.21875 
Q 12.15625 38.09375 16.859375 33.9375 
Q 21.578125 29.78125 27.828125 29.78125 
z
" id="FranklinGothic-Book-57"/>
        <path d="M 48.875 66.65625 
L 48.1875 59.46875 
L 15.4375 59.46875 
L 14.015625 37.84375 
Q 21.4375 45.125 30.328125 45.125 
Q 39.703125 45.125 46.515625 38.625 
Q 53.328125 32.125 53.328125 22.015625 
Q 53.328125 11.765625 45.921875 5.21875 
Q 38.53125 -1.3125 27.828125 -1.3125 
Q 19.4375 -1.3125 12.890625 3.078125 
Q 6.34375 7.46875 4.296875 14.453125 
L 11.421875 16.890625 
Q 15.828125 5.28125 27.9375 5.28125 
Q 35.890625 5.28125 40.578125 9.984375 
Q 45.265625 14.703125 45.265625 22.015625 
Q 45.265625 29.6875 40.625 33.984375 
Q 35.984375 38.28125 29.5 38.28125 
Q 20.015625 38.28125 13.8125 29.203125 
L 7.234375 30.609375 
L 9.375 66.65625 
z
" id="FranklinGothic-Book-53"/>
        <path d="M 29.390625 -1.3125 
Q 17.875 -1.3125 10.984375 8.671875 
Q 4.109375 18.65625 4.109375 33.453125 
Q 4.109375 48 10.640625 58 
Q 17.1875 68.015625 29.15625 68.015625 
Q 41.65625 68.015625 48.125 57.5625 
Q 54.59375 47.125 54.59375 33.0625 
Q 54.59375 19.28125 47.953125 8.984375 
Q 41.3125 -1.3125 29.390625 -1.3125 
z
M 29.4375 5.21875 
Q 37.890625 5.21875 41.9375 12.859375 
Q 46 20.515625 46 32.078125 
Q 46 44.734375 41.84375 53.125 
Q 37.703125 61.53125 29.046875 61.53125 
Q 20.703125 61.53125 16.625 53.859375 
Q 12.546875 46.1875 12.546875 33.6875 
Q 12.546875 20.703125 16.84375 12.953125 
Q 21.140625 5.21875 29.4375 5.21875 
z
" id="FranklinGothic-Book-48"/>
       </defs>
       <use xlink:href="#FranklinGothic-Book-49"/>
       <use x="57.267578" xlink:href="#FranklinGothic-Book-57"/>
       <use x="115.910156" xlink:href="#FranklinGothic-Book-53"/>
       <use x="174.552734" xlink:href="#FranklinGothic-Book-48"/>
      </g>
     </g>
    </g>
    <g id="xtick_2">
     <g id="line2d_2">
      <g>
       <use style="fill:#696969;stroke:#696969;stroke-width:1.25;" x="261.913273" xlink:href="#md62f78f00b" y="576.72"/>
      </g>
     </g>
     <g id="text_2">
      <!-- 1960 -->
      <g style="fill:#696969;" transform="translate(244.424211 596.218438)scale(0.15 -0.15)">
       <defs>
        <path d="M 53.5625 53.03125 
L 46.046875 50.984375 
Q 42.1875 61.140625 31.984375 61.140625 
Q 13.234375 61.140625 12.796875 30.125 
Q 15.765625 37.015625 21.234375 40.328125 
Q 26.703125 43.65625 32.8125 43.65625 
Q 42.09375 43.65625 48.359375 37.1875 
Q 54.640625 30.71875 54.640625 21.6875 
Q 54.640625 12.3125 47.96875 5.5 
Q 41.3125 -1.3125 30.90625 -1.3125 
Q 19.09375 -1.3125 12.078125 7.59375 
Q 5.078125 16.5 5.078125 31.84375 
Q 5.078125 46.828125 11.6875 57.421875 
Q 18.3125 68.015625 32.171875 68.015625 
Q 48.140625 68.015625 53.5625 53.03125 
z
M 30.765625 5.375 
Q 37.84375 5.375 42.359375 10.03125 
Q 46.875 14.703125 46.875 21.234375 
Q 46.875 27.6875 42.453125 32.296875 
Q 38.03125 36.921875 31.5 36.921875 
Q 24.75 36.921875 19.71875 32.078125 
Q 14.703125 27.25 14.703125 20.75 
Q 14.703125 14.75 19.1875 10.0625 
Q 23.6875 5.375 30.765625 5.375 
z
" id="FranklinGothic-Book-54"/>
       </defs>
       <use xlink:href="#FranklinGothic-Book-49"/>
       <use x="57.267578" xlink:href="#FranklinGothic-Book-57"/>
       <use x="115.910156" xlink:href="#FranklinGothic-Book-54"/>
       <use x="174.552734" xlink:href="#FranklinGothic-Book-48"/>
      </g>
     </g>
    </g>
    <g id="xtick_3">
     <g id="line2d_3">
      <g>
       <use style="fill:#696969;stroke:#696969;stroke-width:1.25;" x="379.826546" xlink:href="#md62f78f00b" y="576.72"/>
      </g>
     </g>
     <g id="text_3">
      <!-- 1970 -->
      <g style="fill:#696969;" transform="translate(362.768734 596.218438)scale(0.15 -0.15)">
       <defs>
        <path d="M 28.078125 0 
L 19.484375 0 
Q 19.484375 16.75 26.3125 32.59375 
Q 33.15625 48.4375 43.0625 59.328125 
L 6.890625 59.328125 
L 7.71875 66.65625 
L 51.765625 66.65625 
L 51.765625 61.671875 
Q 39.84375 47.3125 33.9375 31.78125 
Q 28.03125 16.265625 28.03125 2.296875 
Q 28.03125 1.515625 28.078125 0 
z
" id="FranklinGothic-Book-55"/>
       </defs>
       <use xlink:href="#FranklinGothic-Book-49"/>
       <use x="57.267578" xlink:href="#FranklinGothic-Book-57"/>
       <use x="110.160156" xlink:href="#FranklinGothic-Book-55"/>
       <use x="168.802734" xlink:href="#FranklinGothic-Book-48"/>
      </g>
     </g>
    </g>
    <g id="xtick_4">
     <g id="line2d_4">
      <g>
       <use style="fill:#696969;stroke:#696969;stroke-width:1.25;" x="497.73982" xlink:href="#md62f78f00b" y="576.72"/>
      </g>
     </g>
     <g id="text_4">
      <!-- 1980 -->
      <g style="fill:#696969;" transform="translate(480.250757 596.218438)scale(0.15 -0.15)">
       <defs>
        <path d="M 19.484375 34.578125 
Q 6.84375 40.09375 6.84375 50.59375 
Q 6.84375 58.203125 13.140625 63.109375 
Q 19.4375 68.015625 29.828125 68.015625 
Q 40.09375 68.015625 46.140625 63.296875 
Q 52.203125 58.59375 52.203125 50.984375 
Q 52.203125 40.375 39.265625 35.796875 
Q 49.703125 30.953125 52.359375 26.453125 
Q 55.03125 21.96875 55.03125 17.484375 
Q 55.03125 9.46875 48.21875 4.078125 
Q 41.40625 -1.3125 29.734375 -1.3125 
Q 17.28125 -1.3125 10.4375 4.171875 
Q 3.609375 9.671875 3.609375 17.234375 
Q 3.609375 28.515625 19.484375 34.578125 
z
M 29.59375 38.71875 
Q 37.984375 40.96875 41.453125 43.890625 
Q 44.921875 46.828125 44.921875 51.21875 
Q 44.921875 56.34375 40.796875 59 
Q 36.671875 61.671875 29.9375 61.671875 
Q 23.484375 61.671875 19.375 58.859375 
Q 15.28125 56.0625 15.28125 51.3125 
Q 15.28125 46.625 19.84375 43.203125 
Q 24.421875 39.796875 29.59375 38.71875 
z
M 28.65625 31.0625 
Q 11.765625 27.046875 11.765625 16.9375 
Q 11.765625 11.671875 16.375 8.328125 
Q 21 4.984375 29.984375 4.984375 
Q 37.59375 4.984375 42.234375 8.25 
Q 46.875 11.53125 46.875 16.609375 
Q 46.875 26.3125 28.65625 31.0625 
z
" id="FranklinGothic-Book-56"/>
       </defs>
       <use xlink:href="#FranklinGothic-Book-49"/>
       <use x="57.267578" xlink:href="#FranklinGothic-Book-57"/>
       <use x="115.910156" xlink:href="#FranklinGothic-Book-56"/>
       <use x="174.552734" xlink:href="#FranklinGothic-Book-48"/>
      </g>
     </g>
    </g>
    <g id="xtick_5">
     <g id="line2d_5">
      <g>
       <use style="fill:#696969;stroke:#696969;stroke-width:1.25;" x="615.653093" xlink:href="#md62f78f00b" y="576.72"/>
      </g>
     </g>
     <g id="text_5">
      <!-- 1990 -->
      <g style="fill:#696969;" transform="translate(598.16403 596.218438)scale(0.15 -0.15)">
       <use xlink:href="#FranklinGothic-Book-49"/>
       <use x="57.267578" xlink:href="#FranklinGothic-Book-57"/>
       <use x="115.910156" xlink:href="#FranklinGothic-Book-57"/>
       <use x="174.552734" xlink:href="#FranklinGothic-Book-48"/>
      </g>
     </g>
    </g>
    <g id="xtick_6">
     <g id="line2d_6">
      <g>
       <use style="fill:#696969;stroke:#696969;stroke-width:1.25;" x="733.566366" xlink:href="#md62f78f00b" y="576.72"/>
      </g>
     </g>
     <g id="text_6">
      <!-- 2000 -->
      <g style="fill:#696969;" transform="translate(715.974178 596.218438)scale(0.15 -0.15)">
       <defs>
        <path d="M 52.484375 6.9375 
L 52.484375 0 
L 5.171875 0 
L 5.171875 6.9375 
Q 33.203125 27.9375 38.59375 34.59375 
Q 44 41.265625 44 47.796875 
Q 44 53.90625 39.453125 57.65625 
Q 34.90625 61.421875 29 61.421875 
Q 22.90625 61.421875 18.21875 57.296875 
Q 13.53125 53.171875 12.9375 46.09375 
L 5.171875 48.4375 
Q 10.0625 68.015625 29.109375 68.015625 
Q 39.40625 68.015625 45.84375 62.15625 
Q 52.296875 56.296875 52.296875 47.859375 
Q 52.296875 42.046875 49.234375 36.671875 
Q 46.1875 31.296875 37.6875 23.828125 
Q 29.203125 16.359375 15.71875 6.9375 
z
" id="FranklinGothic-Book-50"/>
       </defs>
       <use xlink:href="#FranklinGothic-Book-50"/>
       <use x="58.642578" xlink:href="#FranklinGothic-Book-48"/>
       <use x="117.285156" xlink:href="#FranklinGothic-Book-48"/>
       <use x="175.927734" xlink:href="#FranklinGothic-Book-48"/>
      </g>
     </g>
    </g>
    <g id="xtick_7">
     <g id="line2d_7">
      <g>
       <use style="fill:#696969;stroke:#696969;stroke-width:1.25;" x="851.479639" xlink:href="#md62f78f00b" y="576.72"/>
      </g>
     </g>
     <g id="text_7">
      <!-- 2010 -->
      <g style="fill:#696969;" transform="translate(834.412452 596.218438)scale(0.15 -0.15)">
       <use xlink:href="#FranklinGothic-Book-50"/>
       <use x="58.642578" xlink:href="#FranklinGothic-Book-48"/>
       <use x="113.535156" xlink:href="#FranklinGothic-Book-49"/>
       <use x="168.927734" xlink:href="#FranklinGothic-Book-48"/>
      </g>
     </g>
    </g>
    <g id="xtick_8">
     <g id="line2d_8">
      <g>
       <use style="fill:#696969;stroke:#696969;stroke-width:1.25;" x="969.392912" xlink:href="#md62f78f00b" y="576.72"/>
      </g>
     </g>
     <g id="text_8">
      <!-- 2020 -->
      <g style="fill:#696969;" transform="translate(951.800725 596.218438)scale(0.15 -0.15)">
       <use xlink:href="#FranklinGothic-Book-50"/>
       <use x="58.642578" xlink:href="#FranklinGothic-Book-48"/>
       <use x="117.285156" xlink:href="#FranklinGothic-Book-50"/>
       <use x="175.927734" xlink:href="#FranklinGothic-Book-48"/>
      </g>
     </g>
    </g>
    <g id="text_9">
     <!-- Year -->
     <g style="fill:#696969;" transform="translate(572.109375 616.048125)scale(0.2 -0.2)">
      <defs>
       <path d="M 52 66.65625 
L 29.6875 28.03125 
L 29.6875 0 
L 21.34375 0 
L 21.34375 28.03125 
L -0.984375 66.65625 
L 8.84375 66.65625 
L 26.5625 35.984375 
L 44.390625 66.65625 
z
" id="FranklinGothic-Book-89"/>
       <path d="M 40.234375 14.703125 
L 47.359375 13.234375 
Q 45.40625 6.9375 39.734375 2.8125 
Q 34.078125 -1.3125 26.421875 -1.3125 
Q 16.3125 -1.3125 10.0625 5.78125 
Q 3.8125 12.890625 3.8125 24.421875 
Q 3.8125 36.1875 10.296875 43.4375 
Q 16.796875 50.6875 26.609375 50.6875 
Q 36.28125 50.6875 42.15625 44 
Q 48.046875 37.3125 48.1875 23.96875 
L 12.359375 23.96875 
Q 12.359375 12.796875 17.046875 8.890625 
Q 21.734375 4.984375 26.953125 4.984375 
Q 36.375 4.984375 40.234375 14.703125 
z
M 39.796875 29.6875 
Q 39.703125 33.84375 38.421875 37.0625 
Q 37.15625 40.28125 34.125 42.546875 
Q 31.109375 44.828125 26.859375 44.828125 
Q 21.140625 44.828125 17.15625 40.71875 
Q 13.1875 36.625 12.703125 29.6875 
z
" id="FranklinGothic-Book-101"/>
       <path d="M 46.296875 0 
L 38.671875 0 
Q 38.234375 2.34375 37.796875 8.890625 
Q 32.71875 -1.3125 20.515625 -1.3125 
Q 12.203125 -1.3125 7.765625 3.078125 
Q 3.328125 7.46875 3.328125 13.625 
Q 3.328125 21.09375 9.671875 25.90625 
Q 16.015625 30.71875 31.25 30.71875 
Q 33.296875 30.71875 37.796875 30.515625 
Q 37.796875 36.375 36.890625 38.984375 
Q 35.984375 41.609375 33.046875 43.171875 
Q 30.125 44.734375 25.34375 44.734375 
Q 13.671875 44.734375 11.765625 35.84375 
L 4.6875 37.0625 
Q 7.28125 50.6875 26.46875 50.6875 
Q 36.671875 50.6875 40.9375 46.171875 
Q 45.21875 41.65625 45.21875 30.515625 
L 45.21875 9.578125 
Q 45.21875 4.34375 46.296875 0 
z
M 37.796875 24.65625 
Q 33.109375 24.953125 30.671875 24.953125 
Q 21.578125 24.953125 16.546875 21.96875 
Q 11.53125 19 11.53125 13.28125 
Q 11.53125 9.671875 14.234375 7.125 
Q 16.9375 4.59375 22.078125 4.59375 
Q 29 4.59375 33.46875 9.625 
Q 37.9375 14.65625 37.9375 21.4375 
Q 37.9375 22.796875 37.796875 24.65625 
z
" id="FranklinGothic-Book-97"/>
       <path d="M 15.328125 0 
L 7.671875 0 
L 7.671875 49.3125 
L 14.40625 49.3125 
L 14.40625 37.796875 
Q 17.96875 45.953125 21.546875 48.359375 
Q 25.140625 50.78125 28.90625 50.78125 
Q 30.078125 50.78125 31.9375 50.59375 
L 31.9375 43.265625 
L 30.375 43.265625 
Q 24.03125 43.265625 19.828125 38.53125 
Q 15.625 33.796875 15.328125 26.078125 
z
" id="FranklinGothic-Book-114"/>
      </defs>
      <use xlink:href="#FranklinGothic-Book-89"/>
      <use x="45.025391" xlink:href="#FranklinGothic-Book-101"/>
      <use x="97.076172" xlink:href="#FranklinGothic-Book-97"/>
      <use x="149.957031" xlink:href="#FranklinGothic-Book-114"/>
     </g>
    </g>
   </g>
   <g id="matplotlib.axis_2">
    <g id="ytick_1">
     <g id="line2d_9">
      <path clip-path="url(#p88fd825f78)" d="M 144 564.193353 
L 1036.8 564.193353 
" style="fill:none;stroke:#d3d3d3;stroke-linecap:round;stroke-opacity:0.5;"/>
     </g>
     <g id="text_10">
      <!-- 310 -->
      <g style="fill:#696969;" transform="translate(109.311719 569.192572)scale(0.15 -0.15)">
       <defs>
        <path d="M 19.34375 31.34375 
L 19.34375 37.984375 
L 26.953125 37.984375 
Q 35.296875 37.984375 38.890625 41.40625 
Q 42.484375 44.828125 42.484375 49.703125 
Q 42.484375 55.078125 38.46875 58.21875 
Q 34.46875 61.375 28.421875 61.375 
Q 17.1875 61.375 12.890625 50.53125 
L 5.375 52.6875 
Q 11.8125 68.015625 29.203125 68.015625 
Q 38.96875 68.015625 44.96875 62.8125 
Q 50.984375 57.625 50.984375 50.296875 
Q 50.984375 44.625 47.359375 40.40625 
Q 43.75 36.1875 38.09375 35.109375 
Q 44.4375 34.1875 49 29.78125 
Q 53.5625 25.390625 53.5625 18.40625 
Q 53.5625 10.0625 46.765625 4.375 
Q 39.984375 -1.3125 28.171875 -1.3125 
Q 18.796875 -1.3125 12.125 3.125 
Q 5.46875 7.5625 2.9375 14.9375 
L 10.6875 17.53125 
Q 14.203125 5.46875 28.03125 5.46875 
Q 37.015625 5.46875 40.9375 9.296875 
Q 44.875 13.140625 44.875 18.453125 
Q 44.875 24.21875 40.15625 27.78125 
Q 35.453125 31.34375 26.953125 31.34375 
z
" id="FranklinGothic-Book-51"/>
       </defs>
       <use xlink:href="#FranklinGothic-Book-51"/>
       <use x="53.892578" xlink:href="#FranklinGothic-Book-49"/>
       <use x="109.285156" xlink:href="#FranklinGothic-Book-48"/>
      </g>
     </g>
    </g>
    <g id="ytick_2">
     <g id="line2d_10">
      <path clip-path="url(#p88fd825f78)" d="M 144 522.410007 
L 1036.8 522.410007 
" style="fill:none;stroke:#d3d3d3;stroke-linecap:round;stroke-opacity:0.5;"/>
     </g>
     <g id="text_11">
      <!-- 320 -->
      <g style="fill:#696969;" transform="translate(108.111719 527.409226)scale(0.15 -0.15)">
       <use xlink:href="#FranklinGothic-Book-51"/>
       <use x="58.642578" xlink:href="#FranklinGothic-Book-50"/>
       <use x="117.285156" xlink:href="#FranklinGothic-Book-48"/>
      </g>
     </g>
    </g>
    <g id="ytick_3">
     <g id="line2d_11">
      <path clip-path="url(#p88fd825f78)" d="M 144 480.626662 
L 1036.8 480.626662 
" style="fill:none;stroke:#d3d3d3;stroke-linecap:round;stroke-opacity:0.5;"/>
     </g>
     <g id="text_12">
      <!-- 330 -->
      <g style="fill:#696969;" transform="translate(108.111719 485.625881)scale(0.15 -0.15)">
       <use xlink:href="#FranklinGothic-Book-51"/>
       <use x="58.642578" xlink:href="#FranklinGothic-Book-51"/>
       <use x="117.285156" xlink:href="#FranklinGothic-Book-48"/>
      </g>
     </g>
    </g>
    <g id="ytick_4">
     <g id="line2d_12">
      <path clip-path="url(#p88fd825f78)" d="M 144 438.843316 
L 1036.8 438.843316 
" style="fill:none;stroke:#d3d3d3;stroke-linecap:round;stroke-opacity:0.5;"/>
     </g>
     <g id="text_13">
      <!-- 340 -->
      <g style="fill:#696969;" transform="translate(108.111719 443.842535)scale(0.15 -0.15)">
       <defs>
        <path d="M 44.09375 0 
L 36.03125 0 
L 36.03125 15.875 
L 3.078125 15.875 
L 3.078125 21.484375 
L 33.640625 68.0625 
L 44.09375 68.0625 
L 44.09375 22.46875 
L 54.890625 22.46875 
L 54.890625 15.875 
L 44.09375 15.875 
z
M 36.03125 22.46875 
L 36.03125 54 
Q 36.03125 57.421875 36.1875 61.375 
Q 34.078125 57.515625 32.5625 55.125 
L 11.765625 22.46875 
z
" id="FranklinGothic-Book-52"/>
       </defs>
       <use xlink:href="#FranklinGothic-Book-51"/>
       <use x="58.642578" xlink:href="#FranklinGothic-Book-52"/>
       <use x="117.285156" xlink:href="#FranklinGothic-Book-48"/>
      </g>
     </g>
    </g>
    <g id="ytick_5">
     <g id="line2d_13">
      <path clip-path="url(#p88fd825f78)" d="M 144 397.059971 
L 1036.8 397.059971 
" style="fill:none;stroke:#d3d3d3;stroke-linecap:round;stroke-opacity:0.5;"/>
     </g>
     <g id="text_14">
      <!-- 350 -->
      <g style="fill:#696969;" transform="translate(108.111719 402.059189)scale(0.15 -0.15)">
       <use xlink:href="#FranklinGothic-Book-51"/>
       <use x="58.642578" xlink:href="#FranklinGothic-Book-53"/>
       <use x="117.285156" xlink:href="#FranklinGothic-Book-48"/>
      </g>
     </g>
    </g>
    <g id="ytick_6">
     <g id="line2d_14">
      <path clip-path="url(#p88fd825f78)" d="M 144 355.276625 
L 1036.8 355.276625 
" style="fill:none;stroke:#d3d3d3;stroke-linecap:round;stroke-opacity:0.5;"/>
     </g>
     <g id="text_15">
      <!-- 360 -->
      <g style="fill:#696969;" transform="translate(108.111719 360.275844)scale(0.15 -0.15)">
       <use xlink:href="#FranklinGothic-Book-51"/>
       <use x="58.642578" xlink:href="#FranklinGothic-Book-54"/>
       <use x="117.285156" xlink:href="#FranklinGothic-Book-48"/>
      </g>
     </g>
    </g>
    <g id="ytick_7">
     <g id="line2d_15">
      <path clip-path="url(#p88fd825f78)" d="M 144 313.493279 
L 1036.8 313.493279 
" style="fill:none;stroke:#d3d3d3;stroke-linecap:round;stroke-opacity:0.5;"/>
     </g>
     <g id="text_16">
      <!-- 370 -->
      <g style="fill:#696969;" transform="translate(108.861719 318.492498)scale(0.15 -0.15)">
       <use xlink:href="#FranklinGothic-Book-51"/>
       <use x="53.642578" xlink:href="#FranklinGothic-Book-55"/>
       <use x="112.285156" xlink:href="#FranklinGothic-Book-48"/>
      </g>
     </g>
    </g>
    <g id="ytick_8">
     <g id="line2d_16">
      <path clip-path="url(#p88fd825f78)" d="M 144 271.709934 
L 1036.8 271.709934 
" style="fill:none;stroke:#d3d3d3;stroke-linecap:round;stroke-opacity:0.5;"/>
     </g>
     <g id="text_17">
      <!-- 380 -->
      <g style="fill:#696969;" transform="translate(108.111719 276.709152)scale(0.15 -0.15)">
       <use xlink:href="#FranklinGothic-Book-51"/>
       <use x="58.642578" xlink:href="#FranklinGothic-Book-56"/>
       <use x="117.285156" xlink:href="#FranklinGothic-Book-48"/>
      </g>
     </g>
    </g>
    <g id="ytick_9">
     <g id="line2d_17">
      <path clip-path="url(#p88fd825f78)" d="M 144 229.926588 
L 1036.8 229.926588 
" style="fill:none;stroke:#d3d3d3;stroke-linecap:round;stroke-opacity:0.5;"/>
     </g>
     <g id="text_18">
      <!-- 390 -->
      <g style="fill:#696969;" transform="translate(108.111719 234.925807)scale(0.15 -0.15)">
       <use xlink:href="#FranklinGothic-Book-51"/>
       <use x="58.642578" xlink:href="#FranklinGothic-Book-57"/>
       <use x="117.285156" xlink:href="#FranklinGothic-Book-48"/>
      </g>
     </g>
    </g>
    <g id="ytick_10">
     <g id="line2d_18">
      <path clip-path="url(#p88fd825f78)" d="M 144 188.143242 
L 1036.8 188.143242 
" style="fill:none;stroke:#d3d3d3;stroke-linecap:round;stroke-opacity:0.5;"/>
     </g>
     <g id="text_19">
      <!-- 400 -->
      <g style="fill:#696969;" transform="translate(108.111719 193.142461)scale(0.15 -0.15)">
       <use xlink:href="#FranklinGothic-Book-52"/>
       <use x="58.642578" xlink:href="#FranklinGothic-Book-48"/>
       <use x="117.285156" xlink:href="#FranklinGothic-Book-48"/>
      </g>
     </g>
    </g>
    <g id="ytick_11">
     <g id="line2d_19">
      <path clip-path="url(#p88fd825f78)" d="M 144 146.359897 
L 1036.8 146.359897 
" style="fill:none;stroke:#d3d3d3;stroke-linecap:round;stroke-opacity:0.5;"/>
     </g>
     <g id="text_20">
      <!-- 410 -->
      <g style="fill:#696969;" transform="translate(109.611719 151.359116)scale(0.15 -0.15)">
       <use xlink:href="#FranklinGothic-Book-52"/>
       <use x="51.892578" xlink:href="#FranklinGothic-Book-49"/>
       <use x="107.285156" xlink:href="#FranklinGothic-Book-48"/>
      </g>
     </g>
    </g>
    <g id="ytick_12">
     <g id="line2d_20">
      <path clip-path="url(#p88fd825f78)" d="M 144 104.576551 
L 1036.8 104.576551 
" style="fill:none;stroke:#d3d3d3;stroke-linecap:round;stroke-opacity:0.5;"/>
     </g>
     <g id="text_21">
      <!-- 420 -->
      <g style="fill:#696969;" transform="translate(108.111719 109.57577)scale(0.15 -0.15)">
       <use xlink:href="#FranklinGothic-Book-52"/>
       <use x="58.642578" xlink:href="#FranklinGothic-Book-50"/>
       <use x="117.285156" xlink:href="#FranklinGothic-Book-48"/>
      </g>
     </g>
    </g>
    <g id="text_22">
     <!-- ppm -->
     <g style="fill:#696969;" transform="translate(81.780469 346.063438)rotate(-90)scale(0.2 -0.2)">
      <defs>
       <path d="M 15.328125 -16.65625 
L 7.671875 -16.65625 
L 7.671875 49.3125 
L 14.546875 49.3125 
L 14.546875 39.75 
Q 19.78125 50.6875 30.125 50.6875 
Q 38.875 50.6875 44.234375 43.375 
Q 49.609375 36.078125 49.609375 24.90625 
Q 49.609375 12.84375 44.09375 5.765625 
Q 38.578125 -1.3125 29.9375 -1.3125 
Q 20.65625 -1.3125 15.328125 7.515625 
z
M 15.328125 31.78125 
L 15.328125 17.921875 
Q 16.0625 12.3125 20.0625 8.640625 
Q 24.078125 4.984375 28.421875 4.984375 
Q 33.453125 4.984375 37.328125 9.375 
Q 41.21875 13.765625 41.21875 24.5625 
Q 41.21875 33.890625 37.703125 38.9375 
Q 34.1875 44 28.375 44 
Q 23.78125 44 20.140625 40.421875 
Q 16.5 36.859375 15.328125 31.78125 
z
" id="FranklinGothic-Book-112"/>
       <path d="M 73.734375 0 
L 66.265625 0 
L 66.265625 30.671875 
Q 66.265625 35.40625 65.59375 37.765625 
Q 64.9375 40.140625 62.390625 42.109375 
Q 59.859375 44.09375 56.6875 44.09375 
Q 52.296875 44.09375 48.21875 40.0625 
Q 44.140625 36.03125 44.140625 27.78125 
L 44.140625 0 
L 36.71875 0 
L 36.71875 32.46875 
Q 36.71875 38.96875 33.609375 41.65625 
Q 30.515625 44.34375 27.09375 44.34375 
Q 22.21875 44.34375 18.59375 40.140625 
Q 14.984375 35.9375 14.984375 29.5 
L 14.984375 0 
L 7.671875 0 
L 7.671875 49.3125 
L 14.265625 49.3125 
L 14.265625 39.84375 
Q 19.78125 50.6875 29.4375 50.6875 
Q 34.765625 50.6875 38.46875 47.21875 
Q 42.1875 43.75 43.265625 38.875 
Q 48.34375 50.6875 58.84375 50.6875 
Q 63.875 50.6875 67.65625 47.796875 
Q 71.4375 44.921875 72.578125 41.1875 
Q 73.734375 37.453125 73.734375 30.671875 
z
" id="FranklinGothic-Book-109"/>
      </defs>
      <use xlink:href="#FranklinGothic-Book-112"/>
      <use x="53.417969" xlink:href="#FranklinGothic-Book-112"/>
      <use x="106.835938" xlink:href="#FranklinGothic-Book-109"/>
     </g>
    </g>
   </g>
   <g id="text_23">
    <!-- Atmospheric carbon dioxide concentration -->
    <g style="fill:#696969;" transform="translate(144 42.76)scale(0.4 -0.4)">
     <defs>
      <path d="M 53.21875 0 
L 44.671875 0 
L 37.9375 19.484375 
L 13.28125 19.484375 
L 7.328125 0 
L 0.34375 0 
L 21.96875 66.65625 
L 31.5 66.65625 
z
M 36.1875 25.734375 
L 25.921875 57.765625 
L 15.578125 25.734375 
z
" id="FranklinGothic-Book-65"/>
      <path d="M 30.03125 5.28125 
L 30.03125 -0.78125 
Q 25.984375 -1.3125 23 -1.3125 
Q 8.6875 -1.3125 8.6875 13.625 
L 8.6875 43.3125 
L -0.046875 43.3125 
L -0.046875 49.3125 
L 8.6875 49.3125 
L 9.03125 61.71875 
L 16.15625 62.40625 
L 16.15625 49.3125 
L 27.203125 49.3125 
L 27.203125 43.3125 
L 16.15625 43.3125 
L 16.15625 12.359375 
Q 16.15625 4.734375 24.078125 4.734375 
Q 26.703125 4.734375 30.03125 5.28125 
z
" id="FranklinGothic-Book-116"/>
      <path d="M 25.34375 -1.3125 
Q 15.1875 -1.3125 9.5 6.203125 
Q 3.8125 13.71875 3.8125 24.859375 
Q 3.8125 36.625 10.203125 43.65625 
Q 16.609375 50.6875 26.125 50.6875 
Q 36.328125 50.6875 42.203125 43.28125 
Q 48.09375 35.890625 48.09375 24.8125 
Q 48.09375 13.28125 41.75 5.984375 
Q 35.40625 -1.3125 25.34375 -1.3125 
z
M 25.921875 4.984375 
Q 31.78125 4.984375 35.734375 9.8125 
Q 39.703125 14.65625 39.703125 24.859375 
Q 39.703125 35.109375 35.546875 39.71875 
Q 31.390625 44.34375 25.828125 44.34375 
Q 20.125 44.34375 16.15625 39.671875 
Q 12.203125 35.015625 12.203125 24.90625 
Q 12.203125 14.203125 16.15625 9.59375 
Q 20.125 4.984375 25.921875 4.984375 
z
" id="FranklinGothic-Book-111"/>
      <path d="M 1.03125 12.796875 
L 8.34375 14.3125 
Q 10.796875 4.984375 23.78125 4.984375 
Q 28.5625 4.984375 31.875 7.125 
Q 35.203125 9.28125 35.203125 13.1875 
Q 35.203125 19 26.765625 20.5625 
L 16.359375 22.515625 
Q 10.25 23.6875 6.640625 27.09375 
Q 3.03125 30.515625 3.03125 36.140625 
Q 3.03125 42.328125 7.953125 46.5 
Q 12.890625 50.6875 21.234375 50.6875 
Q 37.3125 50.6875 41.0625 38.140625 
L 34.03125 36.625 
Q 31 44.34375 21.578125 44.34375 
Q 16.890625 44.34375 13.890625 42.40625 
Q 10.890625 40.484375 10.890625 37.015625 
Q 10.890625 31.546875 18.5625 30.125 
L 28.171875 28.421875 
Q 43.265625 25.6875 43.265625 13.8125 
Q 43.265625 7.03125 37.640625 2.859375 
Q 32.03125 -1.3125 22.703125 -1.3125 
Q 5.171875 -1.3125 1.03125 12.796875 
z
" id="FranklinGothic-Book-115"/>
      <path d="M 46.34375 0 
L 38.671875 0 
L 38.671875 29.9375 
Q 38.671875 35.203125 38.015625 37.84375 
Q 37.359375 40.484375 34.890625 42.40625 
Q 32.421875 44.34375 29.203125 44.34375 
Q 23.296875 44.34375 19.3125 39.5 
Q 15.328125 34.671875 15.328125 26.5625 
L 15.328125 0 
L 7.671875 0 
L 7.671875 66.65625 
L 15.328125 66.65625 
L 15.328125 40.234375 
Q 20.5625 50.6875 30.28125 50.6875 
Q 34.625 50.6875 38.015625 48.96875 
Q 41.40625 47.265625 43.203125 44.484375 
Q 45.015625 41.703125 45.671875 38.984375 
Q 46.34375 36.28125 46.34375 29.9375 
z
" id="FranklinGothic-Book-104"/>
      <path d="M 15.578125 66.65625 
L 15.578125 58.15625 
L 7.328125 58.15625 
L 7.328125 66.65625 
z
M 15.328125 49.3125 
L 15.328125 0 
L 7.671875 0 
L 7.671875 49.3125 
z
" id="FranklinGothic-Book-105"/>
      <path d="M 36.8125 17.28125 
L 43.75 16.0625 
Q 42.28125 7.90625 37.25 3.296875 
Q 32.234375 -1.3125 24.703125 -1.3125 
Q 14.5 -1.3125 9.15625 6.203125 
Q 3.8125 13.71875 3.8125 24.5625 
Q 3.8125 35.796875 9.453125 43.234375 
Q 15.09375 50.6875 24.8125 50.6875 
Q 32.859375 50.6875 37.71875 45.875 
Q 42.578125 41.0625 43.75 33.453125 
L 36.8125 32.125 
Q 34.859375 44.34375 25 44.34375 
Q 18.65625 44.34375 15.234375 38.9375 
Q 11.8125 33.546875 11.8125 24.953125 
Q 11.8125 15.484375 15.203125 10.234375 
Q 18.609375 4.984375 24.75 4.984375 
Q 34.28125 4.984375 36.8125 17.28125 
z
" id="FranklinGothic-Book-99"/>
      <path id="FranklinGothic-Book-32"/>
      <path d="M 11.375 0 
L 7.671875 0 
L 7.671875 66.65625 
L 15.328125 66.65625 
L 15.328125 41.109375 
Q 20.609375 50.6875 29.890625 50.6875 
Q 38.375 50.6875 44.109375 44 
Q 49.859375 37.3125 49.859375 24.5625 
Q 49.859375 13.578125 44.21875 6.125 
Q 38.578125 -1.3125 29.546875 -1.3125 
Q 19.484375 -1.3125 14.109375 8.15625 
z
M 15.328125 19.34375 
Q 15.875 11.765625 20 8.34375 
Q 24.125 4.9375 28.71875 4.9375 
Q 34.578125 4.9375 38.15625 10.015625 
Q 41.75 15.09375 41.75 23.921875 
Q 41.75 33.453125 38.28125 38.890625 
Q 34.8125 44.34375 28.65625 44.34375 
Q 23.828125 44.34375 19.9375 40.453125 
Q 16.0625 36.578125 15.328125 30.421875 
z
" id="FranklinGothic-Book-98"/>
      <path d="M 46.53125 0 
L 39.359375 0 
L 39.359375 31.6875 
Q 39.359375 38.53125 36.375 41.3125 
Q 33.40625 44.09375 29.15625 44.09375 
Q 23.296875 44.09375 19.3125 39.40625 
Q 15.328125 34.71875 15.328125 27.046875 
L 15.328125 0 
L 7.671875 0 
L 7.671875 49.3125 
L 14.796875 49.3125 
L 14.796875 40.234375 
Q 20.796875 50.6875 30.375 50.6875 
Q 35.890625 50.6875 39.765625 47.828125 
Q 43.65625 44.96875 45.09375 41.40625 
Q 46.53125 37.84375 46.53125 28.515625 
z
" id="FranklinGothic-Book-110"/>
      <path d="M 46.1875 66.65625 
L 46.1875 0 
L 39.203125 0 
L 39.203125 8.453125 
Q 34.03125 -1.3125 23.640625 -1.3125 
Q 14.984375 -1.3125 9.421875 5.9375 
Q 3.859375 13.1875 3.859375 24.265625 
Q 3.859375 35.59375 9.375 43.140625 
Q 14.890625 50.6875 24.03125 50.6875 
Q 32.90625 50.6875 38.53125 42.578125 
L 38.53125 66.65625 
z
M 38.53125 30.28125 
Q 38.53125 36.765625 34.5625 40.671875 
Q 30.609375 44.578125 25.34375 44.578125 
Q 19.625 44.578125 15.9375 39.5 
Q 12.25 34.421875 12.25 25.25 
Q 12.25 15.328125 15.640625 10.15625 
Q 19.046875 4.984375 24.953125 4.984375 
Q 30.328125 4.984375 34.421875 9.46875 
Q 38.53125 13.96875 38.53125 20.015625 
z
" id="FranklinGothic-Book-100"/>
      <path d="M 42.046875 0 
L 33.203125 0 
L 20.65625 20.015625 
L 7.8125 0 
L 0.34375 0 
L 16.9375 25.59375 
L 1.953125 49.3125 
L 10.796875 49.3125 
L 21.34375 32.46875 
L 32.078125 49.3125 
L 39.453125 49.3125 
L 25.09375 27.25 
z
" id="FranklinGothic-Book-120"/>
     </defs>
     <use xlink:href="#FranklinGothic-Book-65"/>
     <use x="52.064453" xlink:href="#FranklinGothic-Book-116"/>
     <use x="82.826172" xlink:href="#FranklinGothic-Book-109"/>
     <use x="164.222656" xlink:href="#FranklinGothic-Book-111"/>
     <use x="216.175781" xlink:href="#FranklinGothic-Book-115"/>
     <use x="262.5625" xlink:href="#FranklinGothic-Book-112"/>
     <use x="315.980469" xlink:href="#FranklinGothic-Book-104"/>
     <use x="369.984375" xlink:href="#FranklinGothic-Book-101"/>
     <use x="422.035156" xlink:href="#FranklinGothic-Book-114"/>
     <use x="454.994141" xlink:href="#FranklinGothic-Book-105"/>
     <use x="477.943359" xlink:href="#FranklinGothic-Book-99"/>
     <use x="524.525391" xlink:href="#FranklinGothic-Book-32"/>
     <use x="549.525391" xlink:href="#FranklinGothic-Book-99"/>
     <use x="596.107422" xlink:href="#FranklinGothic-Book-97"/>
     <use x="648.988281" xlink:href="#FranklinGothic-Book-114"/>
     <use x="681.947266" xlink:href="#FranklinGothic-Book-98"/>
     <use x="735.658203" xlink:href="#FranklinGothic-Book-111"/>
     <use x="787.611328" xlink:href="#FranklinGothic-Book-110"/>
     <use x="841.810547" xlink:href="#FranklinGothic-Book-32"/>
     <use x="866.810547" xlink:href="#FranklinGothic-Book-100"/>
     <use x="920.667969" xlink:href="#FranklinGothic-Book-105"/>
     <use x="943.617188" xlink:href="#FranklinGothic-Book-111"/>
     <use x="994.195312" xlink:href="#FranklinGothic-Book-120"/>
     <use x="1036.578125" xlink:href="#FranklinGothic-Book-105"/>
     <use x="1059.527344" xlink:href="#FranklinGothic-Book-100"/>
     <use x="1113.384766" xlink:href="#FranklinGothic-Book-101"/>
     <use x="1165.435547" xlink:href="#FranklinGothic-Book-32"/>
     <use x="1190.435547" xlink:href="#FranklinGothic-Book-99"/>
     <use x="1237.017578" xlink:href="#FranklinGothic-Book-111"/>
     <use x="1288.970703" xlink:href="#FranklinGothic-Book-110"/>
     <use x="1343.169922" xlink:href="#FranklinGothic-Book-99"/>
     <use x="1389.751953" xlink:href="#FranklinGothic-Book-101"/>
     <use x="1441.802734" xlink:href="#FranklinGothic-Book-110"/>
     <use x="1496.001953" xlink:href="#FranklinGothic-Book-116"/>
     <use x="1526.763672" xlink:href="#FranklinGothic-Book-114"/>
     <use x="1559.722656" xlink:href="#FranklinGothic-Book-97"/>
     <use x="1612.603516" xlink:href="#FranklinGothic-Book-116"/>
     <use x="1643.365234" xlink:href="#FranklinGothic-Book-105"/>
     <use x="1666.314453" xlink:href="#FranklinGothic-Book-111"/>
     <use x="1718.267578" xlink:href="#FranklinGothic-Book-110"/>
    </g>
   </g>
   <g id="legend_1">
    <g id="line2d_21"/>
    <g id="text_24">
     <!-- WDCGG -->
     <g style="fill:#d55e00;" transform="translate(185.856 129.7184)scale(0.2 -0.2)">
      <defs>
       <path d="M 79.828125 66.65625 
L 63.765625 0 
L 55.421875 0 
L 40.875 51.703125 
L 27.34375 0 
L 18.796875 0 
L 1.90625 66.65625 
L 10.546875 66.65625 
L 23.875 12.640625 
L 38.03125 66.65625 
L 44.78125 66.65625 
L 60.0625 12.640625 
L 72.515625 66.65625 
z
" id="FranklinGothic-Book-87"/>
       <path d="M 8.34375 0 
L 8.34375 66.65625 
L 30.71875 66.65625 
Q 44.828125 66.65625 52.6875 57.03125 
Q 60.546875 47.40625 60.546875 33.5 
Q 60.546875 19.390625 52.875 9.6875 
Q 45.21875 0 33.453125 0 
z
M 16.703125 7.078125 
L 30.21875 7.078125 
Q 40.96875 7.078125 46.53125 14.5 
Q 52.09375 21.921875 52.09375 34.078125 
Q 52.09375 43.953125 46.796875 51.8125 
Q 41.5 59.671875 30.21875 59.671875 
L 16.703125 59.671875 
z
" id="FranklinGothic-Book-68"/>
       <path d="M 48.296875 22.40625 
L 55.90625 20.703125 
Q 50.4375 -1.3125 31.203125 -1.3125 
Q 18.5625 -1.3125 11.359375 8.890625 
Q 4.15625 19.09375 4.15625 33.984375 
Q 4.15625 49.359375 11.671875 58.6875 
Q 19.1875 68.015625 31.84375 68.015625 
Q 50.59375 68.015625 55.90625 46.578125 
L 48.046875 45.015625 
Q 43.75 60.9375 31.78125 60.9375 
Q 22.953125 60.9375 18.09375 53.53125 
Q 13.234375 46.140625 13.234375 32.765625 
Q 13.234375 20.515625 18.203125 13.109375 
Q 23.1875 5.71875 31.390625 5.71875 
Q 44.140625 5.71875 48.296875 22.40625 
z
" id="FranklinGothic-Book-67"/>
       <path d="M 57.71875 33.59375 
L 57.71875 -0.875 
L 52.59375 -0.875 
L 50.296875 7.46875 
Q 44.140625 -1.3125 31.984375 -1.3125 
Q 18.796875 -1.3125 11.46875 8.59375 
Q 4.15625 18.5 4.15625 32.671875 
Q 4.15625 47.796875 11.90625 57.90625 
Q 19.671875 68.015625 33.015625 68.015625 
Q 51.421875 68.015625 57.03125 48.6875 
L 49.125 46.78125 
Q 47.40625 54.203125 42.71875 57.5625 
Q 38.03125 60.9375 32.46875 60.9375 
Q 22.609375 60.9375 17.921875 52.96875 
Q 13.234375 45.015625 13.234375 33.015625 
Q 13.234375 20.0625 18.484375 12.765625 
Q 23.734375 5.46875 32.765625 5.46875 
Q 39.796875 5.46875 44.5 10.125 
Q 49.21875 14.796875 49.21875 23 
Q 49.21875 24.515625 49.125 26.609375 
L 32.625 26.609375 
L 32.625 33.59375 
z
" id="FranklinGothic-Book-71"/>
      </defs>
      <use xlink:href="#FranklinGothic-Book-87"/>
      <use x="81.738281" xlink:href="#FranklinGothic-Book-68"/>
      <use x="146.435547" xlink:href="#FranklinGothic-Book-67"/>
      <use x="204.345703" xlink:href="#FranklinGothic-Book-71"/>
      <use x="269.042969" xlink:href="#FranklinGothic-Book-71"/>
     </g>
    </g>
    <g id="line2d_22"/>
    <g id="text_25">
     <!-- Manua Loa -->
     <g style="fill:#009e73;" transform="translate(185.856 157.04965)scale(0.2 -0.2)">
      <defs>
       <path d="M 72.703125 0 
L 64.59375 0 
L 64.59375 58.203125 
L 42.921875 0 
L 37.25 0 
L 15.4375 58.203125 
L 15.4375 0 
L 8.34375 0 
L 8.34375 66.65625 
L 20.75 66.65625 
L 40.828125 13.328125 
L 60.5 66.65625 
L 72.703125 66.65625 
z
" id="FranklinGothic-Book-77"/>
       <path d="M 46.484375 0 
L 39.59375 0 
L 39.59375 9.421875 
Q 34.328125 -1.3125 23.875 -1.3125 
Q 16.3125 -1.3125 11.984375 3.65625 
Q 7.671875 8.640625 7.671875 17.828125 
L 7.671875 49.3125 
L 15.328125 49.3125 
L 15.328125 17.828125 
Q 15.328125 10.5 18.375 7.734375 
Q 21.4375 4.984375 25.09375 4.984375 
Q 28.8125 4.984375 31.8125 7.078125 
Q 34.8125 9.1875 36.8125 13.0625 
Q 38.8125 16.9375 38.8125 21.53125 
L 38.8125 49.3125 
L 46.484375 49.3125 
z
" id="FranklinGothic-Book-117"/>
       <path d="M 47.703125 7.328125 
L 47.703125 0 
L 8.34375 0 
L 8.34375 66.65625 
L 16.890625 66.65625 
L 16.890625 7.328125 
z
" id="FranklinGothic-Book-76"/>
      </defs>
      <use xlink:href="#FranklinGothic-Book-77"/>
      <use x="81.005859" xlink:href="#FranklinGothic-Book-97"/>
      <use x="133.886719" xlink:href="#FranklinGothic-Book-110"/>
      <use x="188.085938" xlink:href="#FranklinGothic-Book-117"/>
      <use x="242.236328" xlink:href="#FranklinGothic-Book-97"/>
      <use x="295.117188" xlink:href="#FranklinGothic-Book-32"/>
      <use x="320.117188" xlink:href="#FranklinGothic-Book-76"/>
      <use x="369.091797" xlink:href="#FranklinGothic-Book-111"/>
      <use x="421.044922" xlink:href="#FranklinGothic-Book-97"/>
     </g>
    </g>
    <g id="line2d_23"/>
    <g id="text_26">
     <!-- Kennaook/Cape Grim -->
     <g style="fill:#56b4e9;" transform="translate(185.856 184.3809)scale(0.2 -0.2)">
      <defs>
       <path d="M 61.03125 0 
L 51.90625 0 
L 31.984375 36.765625 
L 16.703125 17.78125 
L 16.703125 0 
L 8.34375 0 
L 8.34375 66.65625 
L 16.703125 66.65625 
L 16.703125 27.984375 
L 46.828125 66.65625 
L 55.859375 66.65625 
L 37.796875 43.3125 
z
" id="FranklinGothic-Book-75"/>
       <path d="M 48.390625 0 
L 40.4375 0 
L 26.03125 27.546875 
L 15.328125 15.234375 
L 15.328125 0 
L 7.671875 0 
L 7.671875 66.65625 
L 15.328125 66.65625 
L 15.328125 23.96875 
L 38.234375 49.3125 
L 46.4375 49.3125 
L 31 31.984375 
z
" id="FranklinGothic-Book-107"/>
       <path d="M 1.859375 -16.65625 
L -4.6875 -16.65625 
L 35.546875 66.65625 
L 42.09375 66.65625 
z
" id="FranklinGothic-Book-47"/>
      </defs>
      <use xlink:href="#FranklinGothic-Book-75"/>
      <use x="60.216797" xlink:href="#FranklinGothic-Book-101"/>
      <use x="112.267578" xlink:href="#FranklinGothic-Book-110"/>
      <use x="166.466797" xlink:href="#FranklinGothic-Book-110"/>
      <use x="220.666016" xlink:href="#FranklinGothic-Book-97"/>
      <use x="273.546875" xlink:href="#FranklinGothic-Book-111"/>
      <use x="325.5" xlink:href="#FranklinGothic-Book-111"/>
      <use x="377.453125" xlink:href="#FranklinGothic-Book-107"/>
      <use x="427.550781" xlink:href="#FranklinGothic-Book-47"/>
      <use x="472.960938" xlink:href="#FranklinGothic-Book-67"/>
      <use x="530.871094" xlink:href="#FranklinGothic-Book-97"/>
      <use x="583.751953" xlink:href="#FranklinGothic-Book-112"/>
      <use x="637.169922" xlink:href="#FranklinGothic-Book-101"/>
      <use x="689.220703" xlink:href="#FranklinGothic-Book-32"/>
      <use x="714.220703" xlink:href="#FranklinGothic-Book-71"/>
      <use x="778.917969" xlink:href="#FranklinGothic-Book-114"/>
      <use x="811.876953" xlink:href="#FranklinGothic-Book-105"/>
      <use x="834.826172" xlink:href="#FranklinGothic-Book-109"/>
     </g>
    </g>
   </g>
   <g id="line2d_24">
    <path clip-path="url(#p88fd825f78)" d="M 454.504953 485.385785 
L 455.487563 484.855136 
L 456.470174 482.076544 
L 457.452785 478.328578 
L 458.435395 476.983154 
L 459.418006 476.870339 
L 460.400616 476.937192 
L 461.383227 477.797929 
L 462.365838 478.416323 
L 463.348448 478.357826 
L 464.331059 477.601548 
L 465.313669 477.263102 
L 466.29628 476.419079 
L 467.278891 474.35916 
L 468.261501 473.10566 
L 469.244112 470.903677 
L 470.226722 468.342358 
L 471.209333 467.949595 
L 472.191944 469.019248 
L 473.174554 470.694761 
L 474.157165 471.877229 
L 475.139775 471.538784 
L 476.122386 470.607015 
L 477.104997 470.289462 
L 478.087607 469.570789 
L 479.070218 468.028983 
L 480.052829 466.767126 
L 481.035439 464.22252 
L 482.01805 459.831091 
L 483.00066 458.343604 
L 483.983271 460.462019 
L 484.965882 461.694628 
L 485.948492 461.832513 
L 486.931103 461.468998 
L 487.913713 460.725254 
L 489.878935 461.297686 
L 490.861545 460.198784 
L 491.844156 457.846382 
L 492.826766 455.824068 
L 493.809377 455.636043 
L 495.774598 455.677826 
L 496.757209 456.67227 
L 497.73982 456.902078 
L 499.705041 455.982845 
L 501.670262 454.783662 
L 502.652873 453.33378 
L 503.635483 451.670803 
L 504.618094 450.9772 
L 505.600704 450.584436 
L 506.583315 450.893633 
L 507.565926 451.637377 
L 508.548536 451.7293 
L 510.513757 450.417303 
L 511.496368 450.434016 
L 512.478979 450.65129 
L 513.461589 449.932616 
L 516.409421 446.8114 
L 517.392032 446.51056 
L 519.357253 447.199985 
L 520.339864 448.169359 
L 521.322474 450.099749 
L 522.305085 450.847671 
L 523.287695 450.233456 
L 524.270306 448.461842 
L 525.252917 447.066279 
L 526.235527 446.422815 
L 528.200748 443.447841 
L 529.183359 443.765394 
L 530.16597 444.550921 
L 531.14858 444.872653 
L 532.131191 445.829492 
L 533.113801 445.917237 
L 535.079023 445.03143 
L 536.061633 442.541142 
L 537.044244 440.798777 
L 538.026855 440.510472 
L 539.009465 437.431039 
L 539.992076 433.812601 
L 540.974686 433.185851 
L 541.957297 433.59115 
L 542.939908 433.428195 
L 543.922518 433.382233 
L 544.905129 433.524296 
L 545.887739 433.532653 
L 547.852961 433.695608 
L 548.835571 433.035431 
L 549.818182 432.074414 
L 550.800792 430.758239 
L 551.783403 428.986625 
L 552.766014 428.364053 
L 554.731235 428.706676 
L 555.713845 429.057657 
L 556.696456 429.111975 
L 557.679067 429.279108 
L 558.661677 429.153758 
L 559.644288 428.44762 
L 560.626899 427.277686 
L 561.609509 425.643957 
L 562.59212 423.567325 
L 563.57473 421.841673 
L 564.557341 421.306846 
L 565.539952 421.315203 
L 567.505173 423.341695 
L 569.470394 423.212167 
L 571.435615 423.032498 
L 572.418226 422.47678 
L 573.400836 421.143891 
L 574.383447 419.267819 
L 575.366058 417.713478 
L 576.348668 416.961378 
L 577.331279 416.668895 
L 578.31389 417.095085 
L 580.279111 419.134112 
L 581.261721 419.196787 
L 582.244332 418.544967 
L 583.226943 417.730192 
L 584.209553 416.104819 
L 585.192164 413.752417 
L 587.157385 409.741216 
L 588.139996 408.521142 
L 589.122606 408.328939 
L 590.105217 407.89857 
L 591.087827 407.902749 
L 592.070438 408.103309 
L 593.053049 408.057347 
L 594.035659 407.806647 
L 596.00088 406.202167 
L 596.983491 404.363699 
L 597.966102 401.605999 
L 598.948712 400.586485 
L 600.913934 401.455578 
L 601.896544 401.773132 
L 602.879155 401.940265 
L 603.861765 402.420774 
L 604.844376 402.257819 
L 605.826987 401.338585 
L 606.809597 401.004318 
L 607.792208 400.966713 
L 608.774818 399.99734 
L 610.74004 396.863589 
L 611.72265 396.13238 
L 613.687871 396.75913 
L 615.653093 397.690899 
L 616.635703 397.502874 
L 617.618314 396.830162 
L 619.583535 394.50283 
L 620.566146 393.332896 
L 621.548756 391.318939 
L 622.531367 389.806382 
L 624.496588 389.605822 
L 625.479199 389.505542 
L 627.44442 390.984672 
L 628.427031 390.579374 
L 630.392252 389.20888 
L 632.357473 385.970671 
L 633.340084 385.109934 
L 634.322694 383.726905 
L 635.305305 383.154473 
L 636.287915 380.639116 
L 637.270526 381.666986 
L 638.253137 382.164208 
L 639.235747 383.03748 
L 640.218358 383.530523 
L 641.200969 383.818828 
L 642.183579 383.03748 
L 643.16619 381.458069 
L 644.1488 379.627959 
L 645.131411 377.46776 
L 646.114022 376.657163 
L 647.096632 376.122336 
L 648.079243 375.879993 
L 649.061853 376.807583 
L 650.044464 377.89395 
L 651.027075 379.251909 
L 652.009685 379.561105 
L 652.992296 378.654407 
L 653.974906 378.92182 
L 654.957517 379.051349 
L 657.905349 373.494164 
L 658.887959 372.558217 
L 659.87057 372.37437 
L 660.853181 372.788025 
L 662.818402 375.620936 
L 663.801013 375.671076 
L 665.766234 373.139005 
L 666.748844 372.207237 
L 667.731455 371.108335 
L 668.714066 369.073486 
L 669.696676 366.708548 
L 670.679287 365.371481 
L 671.661897 365.292093 
L 672.644508 365.755888 
L 673.627119 365.881238 
L 675.59234 365.058106 
L 676.57495 364.978718 
L 677.557561 365.087354 
L 678.540172 363.946669 
L 679.522782 362.266979 
L 680.505393 361.063618 
L 681.488004 359.672233 
L 682.470614 358.498121 
L 683.453225 358.034326 
L 684.435835 357.746021 
L 685.418446 356.672189 
L 686.401057 357.110914 
L 687.383667 358.556618 
L 688.366278 358.598401 
L 689.348888 358.397841 
L 690.331499 357.616492 
L 691.31411 355.594178 
L 692.29672 353.830921 
L 693.279331 352.418644 
L 694.261941 351.858747 
L 697.209773 353.563508 
L 698.192384 353.492476 
L 699.174994 352.999433 
L 701.140216 352.560707 
L 702.122826 351.871282 
L 703.105437 351.010545 
L 704.088048 349.351746 
L 705.070658 347.421356 
L 706.053269 346.339167 
L 707.035879 345.775092 
L 708.01849 345.892085 
L 709.001101 346.138607 
L 709.983711 346.230531 
L 710.966322 345.645564 
L 712.931543 343.238843 
L 713.914154 341.713751 
L 714.896764 339.942137 
L 715.879375 337.77776 
L 716.861985 335.187192 
L 717.844596 333.632852 
L 718.827207 333.545107 
L 719.809817 334.08829 
L 720.792428 334.435092 
L 721.775039 333.845947 
L 722.757649 333.624495 
L 723.74026 334.405844 
L 724.72287 334.155144 
L 725.705481 333.164878 
L 726.688092 332.529772 
L 727.670702 331.313876 
L 728.653313 329.487944 
L 729.635923 327.979565 
L 730.618534 327.331923 
L 731.601145 327.586802 
L 732.583755 327.557553 
L 733.566366 327.344458 
L 734.548976 328.159234 
L 735.531587 329.124429 
L 736.514198 329.387664 
L 737.496808 328.46843 
L 739.462029 324.891776 
L 741.427251 322.94885 
L 742.409861 322.42238 
L 746.340304 323.567244 
L 747.322914 323.613206 
L 748.305525 322.911245 
L 750.270746 320.926536 
L 751.253357 319.200884 
L 753.218578 314.813633 
L 754.201189 314.374908 
L 755.183799 315.3986 
L 756.16641 316.042063 
L 758.131631 315.457097 
L 759.114242 315.227288 
L 760.096852 314.533685 
L 761.079463 313.489101 
L 762.062074 311.550354 
L 763.044684 309.147811 
L 764.027295 307.096249 
L 765.009905 305.675615 
L 765.992516 305.107362 
L 766.975127 305.579514 
L 767.957737 306.381754 
L 768.940348 306.502926 
L 769.922958 306.168659 
L 770.905569 305.33717 
L 772.87079 302.938806 
L 773.853401 301.501459 
L 774.836011 299.56689 
L 775.818622 297.327303 
L 776.801233 296.094694 
L 777.783843 296.399713 
L 779.749064 298.071046 
L 780.731675 298.192218 
L 781.714286 297.640678 
L 782.696896 297.281341 
L 783.679507 296.700553 
L 784.662118 295.079359 
L 785.644728 293.077937 
L 786.627339 291.389889 
L 787.609949 289.969256 
L 788.59256 289.325792 
L 789.575171 289.217155 
L 790.557781 289.246404 
L 792.523002 290.641968 
L 794.488224 290.341127 
L 795.470834 289.764517 
L 796.453445 287.24916 
L 797.436055 284.086161 
L 798.418666 282.535999 
L 800.383887 280.20031 
L 801.366498 279.878578 
L 802.349109 280.112564 
L 803.331719 280.593073 
L 804.31433 280.221201 
L 805.29694 279.669661 
L 806.279551 279.611164 
L 807.262162 279.343751 
L 808.244772 278.833994 
L 809.227383 277.86462 
L 810.209993 276.218357 
L 811.192604 274.329749 
L 812.175215 273.406338 
L 814.140436 273.870133 
L 815.123046 273.569293 
L 816.105657 273.865954 
L 817.088268 273.999661 
L 818.070878 273.560936 
L 819.053489 272.725269 
L 821.01871 269.553913 
L 822.001321 267.435497 
L 822.983931 265.684775 
L 823.966542 264.81986 
L 824.949153 264.280855 
L 826.914374 264.581695 
L 828.879595 263.975836 
L 829.862206 263.959123 
L 830.844816 263.558003 
L 831.827427 262.429853 
L 832.810037 260.35322 
L 834.775259 257.394959 
L 835.757869 255.711091 
L 836.74048 255.882402 
L 837.72309 256.517509 
L 838.705701 256.204134 
L 839.688312 255.18462 
L 840.670922 255.339219 
L 841.653533 256.722248 
L 842.636144 257.119189 
L 843.618754 256.170707 
L 844.601365 254.967347 
L 845.583975 253.287657 
L 846.566586 251.344731 
L 847.549197 250.412962 
L 848.531807 249.894849 
L 849.514418 249.990951 
L 850.497028 250.350287 
L 851.479639 250.483994 
L 852.46225 251.557826 
L 853.44486 251.97566 
L 854.427471 250.730516 
L 855.410081 249.126035 
L 856.392692 247.028511 
L 858.357913 241.559071 
L 859.340524 240.117546 
L 860.323134 240.125903 
L 861.305745 240.752653 
L 862.288356 241.772167 
L 863.270966 242.378025 
L 865.236188 241.859912 
L 866.218798 241.81395 
L 867.201409 240.773545 
L 868.184019 238.989396 
L 869.16663 237.455947 
L 871.131851 233.582631 
L 872.114462 233.018556 
L 873.097072 233.816618 
L 875.062294 234.877915 
L 876.044904 234.994908 
L 877.027515 234.861201 
L 878.010125 234.129993 
L 878.992736 232.926632 
L 879.975347 231.159197 
L 881.940568 225.572763 
L 882.923179 223.780258 
L 883.905789 223.613125 
L 884.8884 224.457148 
L 885.87101 224.808128 
L 886.853621 224.574141 
L 887.836232 223.742653 
L 890.784063 219.626993 
L 891.766674 218.202181 
L 892.749285 215.837244 
L 893.731895 213.794038 
L 894.714506 212.941658 
L 895.697116 212.68678 
L 896.679727 212.858091 
L 898.644948 214.078165 
L 899.627559 213.944458 
L 901.59278 212.498755 
L 902.575391 211.700693 
L 903.558001 210.037716 
L 904.540612 207.798128 
L 905.523223 205.838489 
L 906.505833 204.839867 
L 907.488444 204.835689 
L 908.471054 205.011179 
L 909.453665 205.307841 
L 910.436276 205.161599 
L 912.401497 204.066875 
L 913.384107 202.77577 
L 914.366718 200.954016 
L 915.349329 199.621127 
L 916.331939 197.586279 
L 917.31455 195.112704 
L 918.29716 194.293751 
L 919.279771 194.101548 
L 920.262382 193.579256 
L 921.244992 193.437192 
L 922.227603 192.952506 
L 925.175435 189.254679 
L 928.123267 182.686338 
L 929.105877 181.428659 
L 930.088488 180.785195 
L 931.071098 180.634775 
L 932.053709 181.742034 
L 933.03632 182.573522 
L 935.001541 182.690516 
L 935.984151 182.255969 
L 938.931983 178.921658 
L 940.897204 173.945262 
L 941.879815 173.055276 
L 943.845036 172.073368 
L 944.827647 172.027406 
L 946.792868 171.584503 
L 947.775479 171.200096 
L 950.723311 167.95353 
L 952.688532 163.892189 
L 953.671142 162.993847 
L 954.653753 162.818357 
L 956.618974 163.428394 
L 957.601585 163.478534 
L 958.584195 163.750125 
L 959.566806 163.181872 
L 960.549417 161.48129 
L 962.514638 157.144178 
L 963.497249 154.674783 
L 964.479859 152.568902 
L 965.46247 151.541032 
L 966.44508 150.922638 
L 967.427691 150.784753 
L 968.410302 151.762483 
L 969.392912 152.915704 
L 970.375523 152.619042 
L 973.323355 149.497826 
L 974.305965 147.701142 
L 975.288576 145.503338 
L 976.271186 143.610553 
L 977.253797 142.390479 
L 978.236408 141.997716 
L 979.219018 142.327804 
L 980.201629 142.833382 
L 981.184239 143.063191 
L 982.16685 142.958732 
L 983.149461 142.306912 
L 984.132071 141.813869 
L 985.114682 141.120265 
L 986.097293 139.507428 
L 988.062514 135.228814 
L 989.045124 133.724613 
L 990.027735 133.08115 
L 991.010346 132.918195 
L 991.992956 133.093685 
L 992.975567 133.60762 
L 993.958177 133.210678 
L 994.940788 132.124311 
L 995.923399 131.543522 
L 996.906009 130.649359 
L 997.88862 129.136802 
L 998.87123 127.18552 
L 998.87123 127.18552 
" style="fill:none;stroke:#56b4e9;stroke-linecap:round;stroke-width:1.5;"/>
   </g>
   <g id="line2d_25">
    <path clip-path="url(#p88fd825f78)" d="M 240.29584 540.376846 
L 241.27845 533.064761 
L 242.261061 532.81406 
L 243.243672 533.942211 
L 244.226282 539.708312 
L 245.208893 543.594164 
L 246.191503 550.822682 
L 247.174114 554.04 
L 248.156725 550.279499 
L 249.139335 544.680531 
L 251.104556 537.117745 
L 252.087167 536.407428 
L 253.069778 531.93661 
L 254.052388 529.554959 
L 255.034999 530.139926 
L 257.00022 544.137347 
L 257.982831 548.148548 
L 258.965441 550.279499 
L 259.948052 544.095564 
L 261.913273 537.326662 
L 263.878494 532.521577 
L 264.861105 526.462992 
L 265.843716 522.242874 
L 266.826326 524.123125 
L 267.808937 530.014576 
L 268.791547 539.541179 
L 269.774158 546.769698 
L 270.756769 548.190332 
L 272.72199 538.329462 
L 273.7046 535.404628 
L 275.669822 528.510376 
L 276.652432 524.582741 
L 277.635043 519.986573 
L 278.617654 523.371024 
L 279.600264 528.385026 
L 281.565485 543.343464 
L 282.548096 542.006396 
L 283.530707 538.705512 
L 285.495928 531.017377 
L 286.478538 528.468592 
L 287.461149 523.747074 
L 288.44376 520.028357 
L 289.42637 518.148106 
L 290.408981 519.81944 
L 291.391591 524.039558 
L 292.374202 533.273677 
L 293.356813 538.078762 
L 294.339423 541.54678 
L 295.322034 536.240295 
L 297.287255 527.674709 
L 298.269866 526.295859 
L 299.252476 522.994974 
L 300.235087 516.643906 
L 301.217698 513.008755 
L 302.200308 516.226072 
L 303.182919 523.496374 
L 304.165529 531.727693 
L 305.14814 538.245895 
L 306.130751 539.165129 
L 307.113361 534.652528 
L 309.078582 524.206691 
L 310.061193 522.368224 
L 311.043804 519.31804 
L 312.026414 514.721872 
L 313.009025 512.966971 
L 313.991635 514.512955 
L 314.974246 520.57154 
L 315.956857 527.883626 
L 316.939467 536.198511 
L 317.922078 535.488195 
L 318.904689 532.103744 
L 319.887299 527.800059 
L 320.86991 524.749875 
L 321.85252 520.57154 
L 322.835131 518.69129 
L 323.817742 513.468371 
L 324.800352 513.343021 
L 325.782963 514.596522 
L 326.765573 517.354223 
L 327.748184 527.131525 
L 328.730795 531.56056 
L 329.713405 533.691511 
L 330.696016 527.131525 
L 331.678626 524.833441 
L 332.661237 519.81944 
L 333.643848 515.724672 
L 334.626458 512.423788 
L 335.609069 506.950169 
L 336.59168 505.362402 
L 337.57429 506.741253 
L 338.556901 512.465571 
L 339.539511 520.905807 
L 340.522122 528.092542 
L 341.504733 530.348843 
L 342.487343 523.329241 
L 344.452564 512.674488 
L 345.435175 511.964171 
L 346.417786 509.70787 
L 347.400396 503.941769 
L 348.383007 501.518335 
L 349.365617 505.320619 
L 351.330839 518.56594 
L 352.313449 525.543758 
L 353.29606 524.958791 
L 355.261281 514.220472 
L 357.226502 509.248254 
L 358.209113 506.156286 
L 359.191724 501.434768 
L 360.174334 499.136684 
L 361.156945 500.014134 
L 362.139555 505.111702 
L 363.122166 513.593721 
L 364.104777 521.031157 
L 365.087387 521.365424 
L 366.069998 516.894606 
L 367.052608 510.33462 
L 368.035219 505.696669 
L 369.01783 503.941769 
L 370.00044 498.885984 
L 370.983051 494.582299 
L 371.965661 491.573898 
L 372.948272 494.373382 
L 373.930883 497.8414 
L 374.913493 507.117303 
L 375.896104 512.465571 
L 376.878715 514.972572 
L 377.861325 510.459971 
L 378.843936 505.195269 
L 381.791768 493.454149 
L 382.774378 488.440147 
L 383.756989 488.649064 
L 384.739599 490.362181 
L 385.72221 495.919366 
L 387.687431 509.45717 
L 388.670042 509.624304 
L 389.652652 505.654886 
L 391.617874 496.629683 
L 393.583095 492.451349 
L 394.565705 489.860781 
L 395.548316 485.09748 
L 396.530927 486.60168 
L 397.513537 491.657465 
L 399.478759 508.370803 
L 400.461369 507.535136 
L 402.42659 497.298217 
L 403.409201 494.122682 
L 404.391812 490.529315 
L 405.374422 490.027915 
L 406.357033 481.796595 
L 407.339643 480.334178 
L 409.304865 488.816197 
L 410.287475 496.002933 
L 411.270086 502.186868 
L 412.252696 500.682668 
L 413.235307 495.250833 
L 416.183139 482.465129 
L 417.16575 479.373161 
L 418.14836 474.35916 
L 419.130971 470.264392 
L 420.113581 471.977509 
L 421.096192 476.991511 
L 422.078803 483.509713 
L 423.061413 491.030715 
L 424.044024 492.409565 
L 425.026634 488.314797 
L 426.009245 486.309197 
L 426.991856 483.342579 
L 427.974466 477.660044 
L 428.957077 474.442727 
L 429.939687 469.554075 
L 430.922298 467.297775 
L 431.904909 471.434326 
L 432.887519 476.155844 
L 434.85274 491.782815 
L 435.835351 491.991732 
L 436.817962 487.688047 
L 438.783183 477.576478 
L 439.765794 474.526293 
L 440.748404 472.520693 
L 441.731015 467.632041 
L 442.713625 464.12224 
L 443.696236 466.336758 
L 444.678847 472.395343 
L 445.661457 480.835578 
L 446.644068 486.894164 
L 447.626678 487.47913 
L 448.609289 483.217229 
L 449.5919 478.036094 
L 450.57451 474.10846 
L 451.557121 469.178025 
L 452.539731 466.587458 
L 453.522342 460.821356 
L 454.504953 460.904923 
L 455.487563 463.99689 
L 456.470174 467.757391 
L 457.452785 477.785394 
L 458.435395 484.97213 
L 459.418006 485.97493 
L 461.383227 473.85776 
L 462.365838 469.428725 
L 463.348448 467.381341 
L 464.331059 459.902122 
L 465.313669 454.971688 
L 466.29628 451.670803 
L 467.278891 454.846338 
L 468.261501 460.194606 
L 469.244112 469.930125 
L 470.226722 475.23661 
L 471.209333 475.278394 
L 474.157165 459.985689 
L 475.139775 458.648622 
L 476.122386 452.798954 
L 477.104997 448.495269 
L 478.087607 447.116419 
L 479.070218 447.158202 
L 480.052829 453.467487 
L 482.01805 470.765792 
L 483.00066 470.389742 
L 483.983271 464.916124 
L 485.948492 454.971688 
L 486.931103 452.673604 
L 487.913713 446.071835 
L 488.896324 443.773751 
L 489.878935 442.01885 
L 490.861545 441.935284 
L 493.809377 464.038674 
L 494.791988 462.910523 
L 495.774598 458.397922 
L 496.757209 452.13042 
L 497.73982 447.617819 
L 498.72243 445.779352 
L 499.705041 438.550833 
L 500.687651 434.957465 
L 501.670262 432.784731 
L 502.652873 433.160781 
L 504.618094 448.578836 
L 505.600704 454.512071 
L 506.583315 454.971688 
L 507.565926 450.124819 
L 509.531147 441.809934 
L 510.513757 436.545232 
L 512.478979 427.979646 
L 513.461589 426.141179 
L 514.4442 428.230346 
L 515.42681 435.417082 
L 516.409421 445.194385 
L 517.392032 451.587237 
L 518.374642 451.169403 
L 519.357253 444.818335 
L 520.339864 439.219366 
L 521.322474 434.957465 
L 522.305085 431.489447 
L 523.287695 427.269329 
L 524.270306 422.297111 
L 525.252917 418.91266 
L 526.235527 422.631378 
L 527.218138 428.731746 
L 528.200748 437.840516 
L 529.183359 445.612218 
L 530.16597 445.486868 
L 531.14858 441.183183 
L 532.131191 435.584215 
L 533.113801 432.283331 
L 534.096412 427.185763 
L 535.079023 424.762329 
L 536.061633 416.28031 
L 537.044244 413.188342 
L 538.026855 414.776109 
L 539.009465 420.792911 
L 539.992076 428.355696 
L 540.974686 436.921282 
L 541.957297 436.628799 
L 542.939908 431.364097 
L 543.922518 425.472646 
L 544.905129 421.252528 
L 546.87035 415.110376 
L 547.852961 409.010007 
L 548.835571 406.335873 
L 549.818182 408.926441 
L 550.800792 414.650759 
L 552.766014 432.199764 
L 553.748624 431.071614 
L 554.731235 425.013029 
L 555.713845 417.951643 
L 556.696456 415.946043 
L 557.679067 412.060192 
L 558.661677 405.79269 
L 559.644288 402.658939 
L 560.626899 400.068371 
L 561.609509 402.700722 
L 564.557341 424.344495 
L 565.539952 424.845895 
L 567.505173 413.271909 
L 569.470394 407.589374 
L 570.453005 404.372056 
L 571.435615 397.644937 
L 572.418226 394.887237 
L 573.400836 397.143537 
L 574.383447 404.372056 
L 575.366058 413.062992 
L 577.331279 418.703744 
L 579.2965 407.54759 
L 580.279111 402.366455 
L 581.261721 401.572572 
L 582.244332 397.853854 
L 583.226943 391.210302 
L 584.209553 388.076551 
L 585.192164 390.416419 
L 586.174774 396.18252 
L 587.157385 404.580973 
L 588.139996 411.015608 
L 589.122606 410.764908 
L 590.105217 405.082373 
L 593.053049 389.956802 
L 594.035659 386.614134 
L 595.01827 381.725483 
L 596.00088 378.884215 
L 596.983491 380.848032 
L 597.966102 385.360634 
L 598.948712 395.012587 
L 599.931323 401.363655 
L 600.913934 399.692321 
L 601.896544 395.263287 
L 602.879155 390.291069 
L 603.861765 384.232483 
L 604.844376 382.728283 
L 605.826987 380.012366 
L 606.809597 373.159897 
L 607.792208 372.19888 
L 608.774818 374.329831 
L 609.757429 380.137716 
L 610.74004 389.371835 
L 611.72265 396.68392 
L 612.705261 395.68112 
L 616.635703 375.750464 
L 618.600924 370.402196 
L 619.583535 366.223861 
L 620.566146 370.360413 
L 621.548756 376.627915 
L 623.513978 391.293869 
L 624.496588 389.998585 
L 625.479199 383.94 
L 626.461809 378.633515 
L 627.44442 376.460781 
L 628.427031 372.742063 
L 630.392252 360.415976 
L 631.374862 358.493943 
L 632.357473 362.672277 
L 633.340084 370.736463 
L 634.322694 380.471982 
L 635.305305 387.282668 
L 636.287915 386.906618 
L 638.253137 375.290847 
L 639.235747 370.569329 
L 640.218358 366.934178 
L 641.200969 363.758644 
L 642.183579 358.535726 
L 643.16619 356.488342 
L 644.1488 357.658276 
L 646.114022 376.210081 
L 647.096632 384.483183 
L 648.079243 382.81185 
L 649.061853 378.591732 
L 650.044464 373.32703 
L 651.027075 367.393795 
L 652.009685 366.056728 
L 652.992296 361.168077 
L 653.974906 357.825409 
L 654.957517 354.023125 
L 655.940128 356.780825 
L 656.922738 365.931378 
L 658.887959 379.761665 
L 659.87057 379.385615 
L 660.853181 373.95378 
L 662.818402 362.129094 
L 663.801013 359.287826 
L 664.783623 354.817008 
L 665.766234 349.59409 
L 666.748844 347.839189 
L 667.731455 351.34899 
L 668.714066 357.324009 
L 670.679287 372.57493 
L 671.661897 371.112513 
L 673.627119 359.037126 
L 676.57495 347.003522 
L 677.557561 340.903154 
L 678.540172 339.273604 
L 679.522782 341.362771 
L 680.505393 347.839189 
L 681.488004 358.076109 
L 682.470614 362.296227 
L 683.453225 363.048327 
L 684.435835 356.906175 
L 685.418446 351.850391 
L 686.401057 346.084289 
L 687.383667 341.237421 
L 688.366278 337.393353 
L 689.348888 335.680236 
L 690.331499 333.340368 
L 691.31411 334.134252 
L 692.29672 339.85857 
L 693.279331 348.800206 
L 694.261941 356.571909 
L 695.244552 356.446559 
L 697.209773 345.290405 
L 698.192384 341.738821 
L 699.174994 337.685836 
L 700.157605 335.847369 
L 701.140216 328.159234 
L 702.122826 326.9893 
L 703.105437 331.334768 
L 704.088048 336.641253 
L 706.053269 353.438158 
L 707.035879 351.181857 
L 709.001101 336.432336 
L 709.983711 332.755402 
L 710.966322 329.788784 
L 711.948932 324.524083 
L 712.931543 318.549064 
L 713.914154 315.331746 
L 714.896764 317.12843 
L 715.879375 321.933515 
L 717.844596 337.894753 
L 718.827207 336.306986 
L 719.809817 331.585468 
L 720.792428 324.774783 
L 722.757649 316.50168 
L 723.74026 314.161813 
L 724.72287 308.688195 
L 725.705481 308.813545 
L 726.688092 311.571245 
L 727.670702 315.12283 
L 728.653313 325.777583 
L 729.635923 334.593869 
L 730.618534 332.212218 
L 733.566366 315.791363 
L 734.548976 314.704996 
L 735.531587 310.359528 
L 736.514198 305.220177 
L 737.496808 306.181194 
L 738.479419 305.679794 
L 740.44464 320.721798 
L 741.427251 325.401533 
L 742.409861 325.276183 
L 744.375083 314.203596 
L 748.305525 298.660192 
L 749.288136 296.654591 
L 750.270746 299.286942 
L 753.218578 320.429315 
L 754.201189 319.301164 
L 757.14902 302.211776 
L 758.131631 299.412292 
L 760.096852 291.807723 
L 761.079463 288.715755 
L 762.062074 289.718556 
L 763.044684 296.111408 
L 764.027295 305.01126 
L 765.009905 309.649211 
L 765.992516 310.443095 
L 767.957737 296.863508 
L 768.940348 292.309123 
L 770.905569 285.749138 
L 771.88818 280.40087 
L 772.87079 276.807502 
L 773.853401 278.144569 
L 774.836011 284.746338 
L 775.818622 294.39829 
L 776.801233 299.537642 
L 777.783843 299.662992 
L 778.766454 293.27014 
L 779.749064 287.712955 
L 780.731675 283.53462 
L 781.714286 279.857686 
L 782.696896 275.637568 
L 783.679507 269.453633 
L 784.662118 268.367266 
L 785.644728 272.253117 
L 786.627339 281.52902 
L 787.609949 287.712955 
L 788.59256 294.983257 
L 789.575171 294.14759 
L 790.557781 287.044422 
L 791.540392 281.40367 
L 792.523002 277.434252 
L 793.505613 272.085984 
L 794.488224 267.740516 
L 795.470834 261.347664 
L 796.453445 260.67913 
L 797.436055 261.681931 
L 798.418666 267.824083 
L 800.383887 284.704554 
L 801.366498 283.451054 
L 802.349109 277.810302 
L 803.331719 270.41465 
L 804.31433 265.108165 
L 805.29694 261.681931 
L 806.279551 259.759897 
L 807.262162 251.653928 
L 808.244772 249.899027 
L 809.227383 253.993795 
L 810.209993 260.637347 
L 811.192604 269.202933 
L 812.175215 275.721135 
L 813.157825 274.509418 
L 814.140436 270.247517 
L 815.123046 263.269698 
L 817.088268 254.495195 
L 818.070878 251.612144 
L 819.053489 243.589742 
L 820.036099 243.380825 
L 821.01871 245.261076 
L 822.001321 251.946411 
L 822.983931 262.350464 
L 823.966542 266.695932 
L 824.949153 265.985615 
L 825.931763 260.42843 
L 827.896984 247.55916 
L 828.879595 246.389226 
L 829.862206 245.469993 
L 830.844816 241.082741 
L 831.827427 235.024156 
L 832.810037 238.325041 
L 833.792648 244.091142 
L 834.775259 253.659528 
L 835.757869 257.461813 
L 836.74048 258.29748 
L 837.72309 253.283478 
L 839.688312 241.751275 
L 840.670922 239.536758 
L 841.653533 233.937789 
L 842.636144 230.929388 
L 843.618754 228.422388 
L 844.601365 231.180088 
L 845.583975 237.238674 
L 846.566586 245.428209 
L 847.549197 251.027178 
L 848.531807 252.322461 
L 849.514418 245.678909 
L 852.46225 228.213471 
L 853.44486 224.20227 
L 854.427471 218.770435 
L 855.410081 216.514134 
L 856.392692 219.982152 
L 858.357913 236.026957 
L 859.340524 242.336242 
L 860.323134 240.664908 
L 861.305745 234.648106 
L 862.288356 229.968371 
L 863.270966 223.659086 
L 864.253577 221.361002 
L 865.236188 218.227251 
L 866.218798 215.553117 
L 867.201409 211.500133 
L 868.184019 213.422167 
L 869.16663 218.561518 
L 870.149241 228.547738 
L 871.131851 232.934989 
L 872.114462 233.311039 
L 873.097072 227.920987 
L 874.079683 221.319219 
L 875.062294 216.096301 
L 876.044904 213.046116 
L 877.027515 210.748032 
L 878.010125 203.268814 
L 878.992736 200.97073 
L 879.975347 205.232631 
L 880.957957 210.873382 
L 881.940568 219.104702 
L 882.923179 224.411186 
L 883.905789 224.620103 
L 884.8884 216.555917 
L 885.87101 210.831599 
L 887.836232 200.552896 
L 888.818842 197.920545 
L 889.801453 193.825777 
L 890.784063 188.059676 
L 892.749285 198.547296 
L 893.731895 207.405365 
L 894.714506 214.383183 
L 895.697116 213.631083 
L 896.679727 207.530715 
L 897.662338 200.552896 
L 898.644948 196.332778 
L 899.627559 195.371761 
L 901.59278 181.833957 
L 902.575391 179.953707 
L 903.558001 182.168224 
L 905.523223 199.926146 
L 906.505833 206.778615 
L 907.488444 204.188047 
L 908.471054 199.006912 
L 909.453665 191.98731 
L 910.436276 187.391142 
L 911.418886 185.845158 
L 912.401497 180.87294 
L 913.384107 174.145822 
L 914.366718 170.803154 
L 915.349329 175.733589 
L 916.331939 182.042874 
L 917.31455 191.86196 
L 918.29716 197.252012 
L 919.279771 194.452528 
L 921.244992 179.535873 
L 922.227603 176.736389 
L 923.210214 170.385321 
L 924.192824 167.00087 
L 925.175435 156.3879 
L 926.158045 155.134399 
L 927.140656 158.936684 
L 929.105877 177.906323 
L 930.088488 183.003891 
L 931.071098 180.664024 
L 932.053709 172.599838 
L 933.03632 168.75577 
L 934.01893 161.569035 
L 935.001541 160.315534 
L 935.984151 156.6386 
L 936.966762 149.618998 
L 937.949373 146.819514 
L 938.931983 150.203965 
L 939.914594 157.51605 
L 940.897204 165.914503 
L 941.879815 173.226588 
L 942.862426 172.182004 
L 943.845036 165.956286 
L 944.827647 158.894901 
L 945.810258 154.089816 
L 946.792868 152.543832 
L 947.775479 148.073014 
L 948.758089 144.479646 
L 949.7407 140.343095 
L 950.723311 142.223346 
L 951.705921 150.956065 
L 952.688532 158.226367 
L 953.671142 164.284952 
L 954.653753 162.279352 
L 955.636364 153.839116 
L 956.618974 149.410081 
L 957.601585 142.056212 
L 958.584195 138.170361 
L 959.566806 137.251127 
L 961.532027 126.053191 
L 962.514638 128.978025 
L 963.497249 138.128578 
L 964.479859 145.607797 
L 965.46247 151.541032 
L 966.44508 151.582815 
L 967.427691 144.354296 
L 969.392912 131.276109 
L 970.375523 128.225925 
L 971.358133 126.554591 
L 972.340744 119.409639 
L 973.323355 115.816271 
L 974.305965 118.782889 
L 976.271186 134.744127 
L 977.253797 140.008828 
L 978.236408 140.050612 
L 979.219018 133.323493 
L 981.184239 123.29549 
L 982.16685 118.156139 
L 983.149461 114.437421 
L 984.132071 108.545969 
L 985.114682 108.211702 
L 986.097293 109.005586 
L 987.079903 117.278688 
L 988.062514 127.682741 
L 989.045124 132.571393 
L 990.027735 129.939042 
L 991.010346 125.426441 
L 991.992956 118.323272 
L 992.975567 112.139337 
L 993.958177 107.584952 
L 994.940788 109.548769 
L 995.923399 103.615534 
L 996.906009 100.44 
L 997.88862 100.44 
L 998.87123 109.172719 
L 998.87123 109.172719 
" style="fill:none;stroke:#009e73;stroke-linecap:round;stroke-width:1.5;"/>
   </g>
   <g id="line2d_26">
    <path clip-path="url(#p88fd825f78)" d="M 544.905129 416.990626 
L 545.887739 415.110376 
L 546.87035 414.149359 
L 547.852961 413.982225 
L 548.835571 415.987826 
L 549.818182 420.834694 
L 550.800792 427.520029 
L 551.783403 431.573014 
L 552.766014 429.77633 
L 554.731235 417.53381 
L 555.713845 413.522609 
L 556.696456 411.099175 
L 557.679067 409.469624 
L 558.661677 408.341474 
L 559.644288 408.341474 
L 560.626899 410.138158 
L 561.609509 414.901459 
L 562.59212 421.586794 
L 563.57473 425.848696 
L 564.557341 424.135578 
L 566.522562 411.684141 
L 567.505173 407.79829 
L 568.487783 405.29129 
L 569.470394 403.452822 
L 570.453005 402.450022 
L 571.435615 402.450022 
L 572.418226 404.204923 
L 573.400836 408.801091 
L 574.383447 415.569993 
L 575.366058 419.706544 
L 576.348668 417.90986 
L 578.31389 405.583773 
L 579.2965 402.032189 
L 580.279111 399.483405 
L 581.261721 397.644937 
L 582.244332 396.391437 
L 583.226943 395.764687 
L 584.209553 396.976404 
L 585.192164 400.945822 
L 586.174774 407.380457 
L 587.157385 411.349875 
L 588.139996 409.469624 
L 590.105217 396.851054 
L 591.087827 392.422019 
L 592.070438 389.580752 
L 593.053049 387.616934 
L 594.035659 386.488784 
L 595.01827 385.820251 
L 596.00088 387.366234 
L 596.983491 391.837052 
L 597.966102 398.020987 
L 598.948712 401.781489 
L 599.931323 399.775888 
L 601.896544 387.575151 
L 602.879155 383.605733 
L 603.861765 380.806249 
L 604.844376 379.134915 
L 605.826987 378.257465 
L 606.809597 378.215682 
L 607.792208 380.221282 
L 608.774818 384.9428 
L 609.757429 391.377436 
L 610.74004 395.388637 
L 611.72265 393.591953 
L 613.687871 381.641916 
L 614.670482 378.006765 
L 615.653093 375.750464 
L 616.635703 374.20448 
L 617.618314 373.243464 
L 618.600924 373.32703 
L 619.583535 375.207281 
L 620.566146 380.095932 
L 621.548756 386.697701 
L 622.531367 390.750685 
L 623.513978 388.786868 
L 625.479199 376.460781 
L 626.461809 372.616713 
L 627.44442 370.151496 
L 628.427031 368.145895 
L 629.409641 367.143095 
L 630.392252 367.393795 
L 631.374862 369.065129 
L 632.357473 373.911997 
L 633.340084 380.973382 
L 634.322694 385.527767 
L 635.305305 383.898217 
L 637.270526 372.031746 
L 638.253137 368.730862 
L 639.235747 366.516345 
L 640.218358 365.179278 
L 641.200969 364.218261 
L 642.183579 363.967561 
L 643.16619 365.806028 
L 644.1488 371.07073 
L 645.131411 377.839632 
L 646.114022 382.268666 
L 647.096632 381.182299 
L 648.079243 374.956581 
L 649.061853 369.650096 
L 650.044464 366.056728 
L 651.027075 363.675077 
L 652.992296 360.95916 
L 653.974906 360.875593 
L 654.957517 363.048327 
L 655.940128 367.978762 
L 656.922738 374.747664 
L 657.905349 378.675298 
L 658.887959 377.129315 
L 660.853181 365.012144 
L 661.835791 361.126293 
L 662.818402 358.076109 
L 663.801013 355.986942 
L 664.783623 355.067708 
L 665.766234 355.025925 
L 666.748844 356.947959 
L 667.731455 361.669477 
L 668.714066 368.104112 
L 669.696676 372.07353 
L 670.679287 370.694679 
L 672.644508 357.741842 
L 673.627119 353.730641 
L 674.609729 351.056507 
L 675.59234 349.09269 
L 676.57495 347.922756 
L 677.557561 347.546706 
L 678.540172 349.21804 
L 679.522782 354.064908 
L 680.505393 360.33241 
L 681.488004 364.510744 
L 682.470614 362.170877 
L 684.435835 349.009123 
L 685.418446 345.039705 
L 686.401057 342.240221 
L 687.383667 340.359971 
L 688.366278 339.816787 
L 689.348888 339.775004 
L 690.331499 341.362771 
L 691.31411 346.042506 
L 692.29672 352.268224 
L 693.279331 356.739042 
L 694.261941 355.694458 
L 696.227163 344.078688 
L 697.209773 340.485321 
L 698.192384 337.685836 
L 699.174994 336.348769 
L 700.157605 335.596669 
L 701.140216 335.011702 
L 702.122826 336.432336 
L 703.105437 341.655254 
L 704.088048 348.382373 
L 705.070658 352.644274 
L 706.053269 350.84759 
L 708.01849 337.268003 
L 709.001101 332.964318 
L 709.983711 329.788784 
L 710.966322 327.783183 
L 711.948932 326.2372 
L 712.931543 325.401533 
L 713.914154 326.404333 
L 714.896764 330.123051 
L 715.879375 335.930936 
L 716.861985 339.60787 
L 717.844596 337.518703 
L 719.809817 324.356949 
L 720.792428 320.596448 
L 721.775039 317.880531 
L 722.757649 316.00028 
L 723.74026 315.039263 
L 724.72287 315.081046 
L 725.705481 317.00308 
L 726.688092 322.017082 
L 727.670702 328.7442 
L 728.653313 332.838968 
L 729.635923 330.833368 
L 731.601145 318.381931 
L 732.583755 314.62143 
L 733.566366 311.821945 
L 734.548976 310.359528 
L 735.531587 309.732778 
L 736.514198 309.482078 
L 737.496808 311.445895 
L 738.479419 316.00028 
L 739.462029 322.225999 
L 740.44464 326.446116 
L 741.427251 324.649433 
L 743.392472 311.863729 
L 744.375083 307.768961 
L 745.357693 305.26196 
L 747.322914 303.172793 
L 748.305525 303.089226 
L 749.288136 305.053043 
L 750.270746 309.690995 
L 751.253357 316.12563 
L 752.235967 320.136831 
L 753.218578 318.214797 
L 755.183799 305.596227 
L 756.16641 301.501459 
L 757.14902 298.701975 
L 758.131631 296.863508 
L 759.114242 296.027841 
L 760.096852 295.526441 
L 761.079463 297.114208 
L 762.062074 301.752159 
L 763.044684 307.685394 
L 764.027295 311.278762 
L 765.009905 309.482078 
L 765.992516 302.504259 
L 766.975127 296.445674 
L 767.957737 292.350906 
L 768.940348 289.426072 
L 769.922958 287.211555 
L 770.905569 285.916271 
L 771.88818 285.080604 
L 772.87079 286.584805 
L 773.853401 291.055623 
L 774.836011 297.281341 
L 775.818622 300.582225 
L 776.801233 299.328725 
L 778.766454 287.002638 
L 779.749064 283.075004 
L 780.731675 280.317303 
L 781.714286 278.186352 
L 782.696896 277.225335 
L 783.679507 277.308902 
L 784.662118 279.105586 
L 785.644728 283.701754 
L 786.627339 290.303522 
L 787.609949 294.690774 
L 788.59256 293.228357 
L 790.557781 280.150169 
L 791.540392 276.097185 
L 792.523002 273.005217 
L 793.505613 270.832483 
L 794.488224 269.66255 
L 795.470834 269.202933 
L 796.453445 270.498217 
L 797.436055 274.676551 
L 798.418666 281.40367 
L 799.401277 285.331304 
L 800.383887 283.075004 
L 802.349109 269.955033 
L 803.331719 265.442432 
L 804.31433 262.642948 
L 805.29694 260.762697 
L 806.279551 259.67633 
L 807.262162 259.634547 
L 808.244772 261.473014 
L 809.227383 266.194532 
L 810.209993 272.462034 
L 811.192604 276.932852 
L 812.175215 275.136168 
L 814.140436 262.768298 
L 815.123046 258.966013 
L 816.105657 256.124746 
L 817.088268 253.784878 
L 818.070878 252.740295 
L 819.053489 252.656728 
L 820.036099 253.784878 
L 821.01871 258.29748 
L 822.001321 264.690332 
L 822.983931 268.91045 
L 823.966542 266.737716 
L 824.949153 259.968814 
L 825.931763 254.202712 
L 826.914374 249.606544 
L 827.896984 246.18031 
L 828.879595 244.300059 
L 829.862206 243.171909 
L 830.844816 242.921209 
L 831.827427 245.010376 
L 832.810037 249.564761 
L 833.792648 256.500796 
L 834.775259 260.846264 
L 835.757869 259.17493 
L 837.72309 246.472793 
L 838.705701 241.667708 
L 839.688312 238.826441 
L 840.670922 237.19689 
L 841.653533 236.361223 
L 842.636144 236.528357 
L 843.618754 238.408607 
L 844.601365 243.380825 
L 845.583975 250.358644 
L 846.566586 254.787679 
L 847.549197 253.074562 
L 849.514418 239.494974 
L 850.497028 235.233073 
L 851.479639 232.015755 
L 852.46225 229.843021 
L 853.44486 229.007354 
L 854.427471 228.589521 
L 855.410081 230.177288 
L 856.392692 234.773456 
L 857.375303 240.999175 
L 858.357913 244.383626 
L 859.340524 242.085542 
L 861.305745 229.049138 
L 862.288356 224.661887 
L 863.270966 222.196669 
L 864.253577 220.316419 
L 865.236188 219.564318 
L 866.218798 219.940368 
L 867.201409 221.611702 
L 868.184019 226.416787 
L 869.16663 233.060339 
L 870.149241 236.82084 
L 871.131851 234.898806 
L 873.097072 221.277436 
L 874.079683 217.600501 
L 875.062294 214.46675 
L 876.044904 212.46115 
L 877.027515 211.500133 
L 878.010125 211.165866 
L 878.992736 213.004333 
L 879.975347 217.684068 
L 880.957957 224.035136 
L 881.940568 227.377804 
L 882.923179 224.870803 
L 884.8884 210.873382 
L 885.87101 206.318998 
L 886.853621 203.435947 
L 887.836232 201.34678 
L 888.818842 200.135063 
L 889.801453 199.132262 
L 890.784063 200.678246 
L 891.766674 205.149064 
L 892.749285 211.792616 
L 893.731895 215.385984 
L 894.714506 214.21605 
L 895.697116 207.238231 
L 896.679727 201.263213 
L 897.662338 196.875962 
L 898.644948 194.034694 
L 899.627559 192.36336 
L 900.610169 191.10986 
L 901.59278 191.23521 
L 902.575391 192.530494 
L 903.558001 197.377362 
L 904.540612 204.188047 
L 905.523223 208.282815 
L 906.505833 205.984731 
L 908.471054 192.781194 
L 909.453665 188.310376 
L 910.436276 185.510892 
L 911.418886 183.338158 
L 912.401497 182.210007 
L 913.384107 182.084657 
L 914.366718 183.630641 
L 915.349329 188.393943 
L 916.331939 194.327178 
L 917.31455 198.004112 
L 918.29716 195.873161 
L 919.279771 188.185026 
L 920.262382 181.583257 
L 921.244992 176.861739 
L 922.227603 173.143021 
L 924.192824 168.88112 
L 925.175435 168.337937 
L 926.158045 169.50787 
L 927.140656 173.978688 
L 928.123267 180.413324 
L 929.105877 184.090258 
L 930.088488 180.956507 
L 932.053709 168.50507 
L 933.03632 164.410302 
L 934.01893 161.318335 
L 935.001541 159.438084 
L 935.984151 158.435284 
L 936.966762 158.26815 
L 937.949373 159.563434 
L 938.931983 164.493869 
L 939.914594 170.970287 
L 940.897204 175.650022 
L 941.879815 173.811555 
L 943.845036 159.939484 
L 944.827647 155.802933 
L 945.810258 152.752749 
L 946.792868 150.162181 
L 947.775479 149.075814 
L 948.758089 148.699764 
L 949.7407 151.081415 
L 950.723311 155.217966 
L 951.705921 161.819735 
L 952.688532 165.622019 
L 953.671142 163.992469 
L 955.636364 149.744348 
L 956.618974 145.482447 
L 957.601585 142.557612 
L 958.584195 140.677362 
L 959.566806 139.507428 
L 960.549417 138.546411 
L 961.532027 139.716345 
L 962.514638 143.894679 
L 963.497249 150.663581 
L 964.479859 154.549433 
L 965.46247 152.000648 
L 967.427691 138.713545 
L 968.410302 134.827693 
L 969.392912 131.610376 
L 970.375523 130.231525 
L 971.358133 128.434842 
L 972.340744 127.849875 
L 973.323355 129.604775 
L 974.305965 134.28451 
L 975.288576 140.552012 
L 976.271186 144.39608 
L 977.253797 141.680162 
L 979.219018 127.724525 
L 980.201629 123.128357 
L 980.201629 123.128357 
" style="fill:none;stroke:#d55e00;stroke-linecap:round;stroke-width:1.5;"/>
   </g>
  </g>
 </g>
 <defs>
  <clipPath id="p88fd825f78">
   <rect height="498.96" width="892.8" x="144" y="77.76"/>
  </clipPath>
 </defs>
</svg>
