<?xml version="1.0" encoding="utf-8" standalone="no"?>
<!DOCTYPE svg PUBLIC "-//W3C//DTD SVG 1.1//EN"
  "http://www.w3.org/Graphics/SVG/1.1/DTD/svg11.dtd">
<!-- Created with matplotlib (https://matplotlib.org/) -->
<svg height="648pt" version="1.1" viewBox="0 0 1152 648" width="1152pt" xmlns="http://www.w3.org/2000/svg" xmlns:xlink="http://www.w3.org/1999/xlink">
 <metadata>
  <rdf:RDF xmlns:cc="http://creativecommons.org/ns#" xmlns:dc="http://purl.org/dc/elements/1.1/" xmlns:rdf="http://www.w3.org/1999/02/22-rdf-syntax-ns#">
   <cc:Work>
    <dc:type rdf:resource="http://purl.org/dc/dcmitype/StillImage"/>
    <dc:date>2022-11-18T13:02:17.014572</dc:date>
    <dc:format>image/svg+xml</dc:format>
    <dc:creator>
     <cc:Agent>
      <dc:title>Matplotlib v3.3.1, https://matplotlib.org/</dc:title>
     </cc:Agent>
    </dc:creator>
   </cc:Work>
  </rdf:RDF>
 </metadata>
 <defs>
  <style type="text/css">*{stroke-linecap:butt;stroke-linejoin:round;}</style>
 </defs>
 <g id="figure_1">
  <g id="patch_1">
   <path d="M 0 648 
L 1152 648 
L 1152 0 
L 0 0 
z
" style="fill:#ffffff;"/>
  </g>
  <g id="axes_1">
   <g id="patch_2">
    <path d="M 144 576.72 
L 1036.8 576.72 
L 1036.8 77.76 
L 144 77.76 
z
" style="fill:none;"/>
   </g>
   <g id="PolyCollection_1">
    <defs>
     <path d="M 542.656684 -448.954193 
L 542.656684 -467.699853 
L 544.492966 -467.847132 
L 550.00181 -446.369475 
L 551.838091 -445.714745 
L 553.674373 -446.081897 
L 555.510654 -445.841782 
L 557.346935 -446.902054 
L 559.183217 -450.577756 
L 561.019498 -449.064478 
L 562.85578 -453.26159 
L 564.692061 -456.494756 
L 566.528342 -457.166936 
L 570.200905 -444.342465 
L 572.037186 -434.95009 
L 573.873468 -432.108506 
L 575.709749 -432.326284 
L 577.54603 -432.084076 
L 579.382312 -434.86633 
L 581.218593 -433.503821 
L 583.054875 -432.745088 
L 584.891156 -434.159249 
L 586.727437 -438.440122 
L 588.563719 -437.32052 
L 590.4 -435.962898 
L 592.236281 -429.024714 
L 594.072563 -420.333138 
L 595.908844 -417.612309 
L 597.745125 -416.16604 
L 599.581407 -419.237268 
L 601.417688 -420.946686 
L 603.25397 -419.875944 
L 605.090251 -421.489037 
L 606.926532 -424.660778 
L 608.762814 -425.079582 
L 610.599095 -427.729214 
L 612.435376 -424.459752 
L 614.271658 -415.396837 
L 616.107939 -402.078875 
L 617.94422 -397.512517 
L 619.780502 -398.223087 
L 621.616783 -398.289398 
L 623.453065 -402.141695 
L 625.289346 -400.289186 
L 627.125627 -403.656369 
L 628.961909 -404.963735 
L 630.79819 -403.387637 
L 632.634471 -403.948136 
L 634.470753 -403.364602 
L 636.307034 -397.310793 
L 638.143316 -388.318376 
L 639.979597 -384.223871 
L 641.815878 -385.148729 
L 643.65216 -383.149639 
L 645.488441 -382.625436 
L 647.324722 -384.957475 
L 649.161004 -387.704131 
L 650.997285 -386.957264 
L 652.833566 -388.002179 
L 654.669848 -388.814659 
L 656.506129 -387.459828 
L 658.342411 -378.388537 
L 660.178692 -364.796258 
L 662.014973 -360.397422 
L 663.851255 -358.521879 
L 665.687536 -360.178248 
L 667.523817 -364.336272 
L 669.360099 -367.041745 
L 671.19638 -365.958439 
L 673.032661 -369.630651 
L 674.868943 -368.44055 
L 676.705224 -367.228113 
L 678.541506 -366.971944 
L 680.377787 -356.760809 
L 682.214068 -345.488005 
L 684.05035 -341.00471 
L 685.886631 -341.706904 
L 687.722912 -347.022223 
L 689.559194 -352.096032 
L 691.395475 -353.38176 
L 693.231756 -350.179306 
L 695.068038 -350.111599 
L 696.904319 -351.370803 
L 698.740601 -352.697713 
L 700.576882 -352.073695 
L 702.413163 -344.565939 
L 704.249445 -329.931536 
L 706.085726 -326.054809 
L 707.922007 -327.808201 
L 709.758289 -329.070894 
L 711.59457 -330.796366 
L 713.430852 -330.591152 
L 715.267133 -331.895028 
L 717.103414 -332.722864 
L 718.939696 -331.083945 
L 720.775977 -333.289645 
L 722.612258 -326.15253 
L 724.44854 -313.654027 
L 726.284821 -300.055466 
L 728.121102 -293.261072 
L 729.957384 -295.847185 
L 731.793665 -294.797384 
L 733.629947 -296.010519 
L 737.302509 -297.65921 
L 739.138791 -298.593841 
L 740.975072 -298.860479 
L 742.811353 -297.453298 
L 746.483916 -284.294481 
L 748.320197 -270.6331 
L 750.156479 -266.525332 
L 751.99276 -264.873151 
L 751.99276 -264.969476 
L 757.501604 -269.111446 
L 757.501604 -268.331075 
L 759.337886 -269.784324 
L 761.174167 -272.745965 
L 763.010448 -273.884414 
L 766.683011 -271.679411 
L 768.519292 -255.526147 
L 770.355574 -233.779758 
L 772.191855 -226.941389 
L 775.864418 -231.62571 
L 777.700699 -232.329998 
L 779.536981 -232.638517 
L 781.373262 -233.350484 
L 785.045825 -233.472635 
L 786.882106 -235.928919 
L 788.718387 -237.153921 
L 790.554669 -229.334853 
L 796.063513 -224.953467 
L 797.899794 -224.890646 
L 799.736076 -225.610989 
L 801.572357 -226.988155 
L 805.24492 -230.175252 
L 807.081201 -230.982148 
L 808.917483 -231.165724 
L 810.753764 -228.448385 
L 814.426327 -208.637567 
L 816.262608 -205.879045 
L 818.098889 -207.046112 
L 819.935171 -207.305073 
L 823.607733 -213.471261 
L 825.444015 -214.054096 
L 827.280296 -215.868913 
L 829.116578 -216.556449 
L 829.116578 -216.807732 
L 834.625422 -203.888331 
L 836.461703 -194.405216 
L 838.297984 -192.19463 
L 843.806828 -196.002953 
L 845.64311 -199.782657 
L 847.479391 -198.195391 
L 849.315673 -198.173055 
L 852.988235 -200.482758 
L 854.824517 -200.687274 
L 856.660798 -188.649455 
L 858.497079 -171.255834 
L 864.005923 -181.248493 
L 865.842205 -176.829415 
L 867.678486 -180.491156 
L 873.18733 -181.076086 
L 873.18733 -183.382299 
L 875.023612 -183.72502 
L 876.859893 -181.781072 
L 898.895269 -176.651423 
L 900.731551 -174.919669 
L 906.240395 -165.119659 
L 908.076676 -167.368636 
L 909.912958 -166.543592 
L 911.749239 -166.174347 
L 913.58552 -164.367208 
L 915.421802 -162.896509 
L 917.258083 -163.953291 
L 919.094364 -165.240414 
L 920.930646 -161.344841 
L 922.766927 -147.256279 
L 924.603209 -131.2482 
L 926.43949 -124.813977 
L 928.275771 -125.877739 
L 930.112053 -128.809366 
L 931.948334 -128.502243 
L 933.784615 -125.884021 
L 935.620897 -129.119979 
L 937.457178 -126.642754 
L 939.293459 -127.266772 
L 941.129741 -129.162557 
L 942.966022 -126.543637 
L 944.802304 -115.834125 
L 946.638585 -110.106982 
L 948.474866 -109.765657 
L 950.311148 -114.408098 
L 952.147429 -114.757101 
L 953.98371 -116.278057 
L 955.819992 -120.477961 
L 957.656273 -116.159396 
L 959.492555 -116.475593 
L 961.328836 -117.938614 
L 963.165117 -114.758497 
L 965.001399 -115.127742 
L 966.83768 -112.546515 
L 968.673961 -102.927986 
L 970.510243 -99.512641 
L 972.346524 -96.517495 
L 974.182805 -99.278809 
L 976.019087 -101.471247 
L 977.855368 -102.194382 
L 979.69165 -103.185551 
L 981.527931 -104.337261 
L 983.364212 -105.717918 
L 985.200494 -104.350523 
L 987.036775 -106.206522 
L 988.873056 -101.292557 
L 988.873056 -94.096111 
L 988.873056 -94.096111 
L 987.036775 -100.172955 
L 985.200494 -99.338837 
L 983.364212 -101.608056 
L 981.527931 -101.108284 
L 979.69165 -100.09757 
L 977.855368 -99.240418 
L 976.019087 -98.640133 
L 974.182805 -96.584504 
L 972.346524 -93.96 
L 970.510243 -97.073807 
L 968.673961 -100.630149 
L 966.83768 -110.346398 
L 965.001399 -112.91227 
L 963.165117 -112.572341 
L 961.328836 -115.744082 
L 959.492555 -114.268496 
L 957.656273 -113.955092 
L 955.819992 -118.268073 
L 953.98371 -114.057 
L 952.147429 -112.543025 
L 950.311148 -112.207982 
L 948.474866 -107.550185 
L 946.638585 -107.906866 
L 944.802304 -113.632613 
L 942.966022 -124.328165 
L 941.129741 -126.968025 
L 939.293459 -125.068052 
L 937.457178 -124.421698 
L 935.620897 -126.871002 
L 933.784615 -123.651797 
L 931.948334 -126.290959 
L 930.112053 -126.610646 
L 928.275771 -123.679019 
L 926.43949 -122.576169 
L 924.603209 -129.038312 
L 922.766927 -145.060351 
L 920.930646 -159.133556 
L 919.094364 -163.031922 
L 917.258083 -161.744798 
L 915.421802 -160.67266 
L 913.58552 -162.109856 
L 911.749239 -163.950499 
L 909.912958 -164.284844 
L 908.076676 -165.026126 
L 906.240395 -162.545412 
L 900.731551 -172.299353 
L 898.895269 -173.898486 
L 876.859893 -176.331038 
L 875.023612 -178.214957 
L 873.18733 -177.757763 
L 873.18733 -175.358017 
L 867.678486 -174.749356 
L 865.842205 -171.086218 
L 864.005923 -175.48296 
L 858.497079 -168.292098 
L 856.660798 -186.072416 
L 854.824517 -198.210747 
L 852.988235 -197.870818 
L 849.315673 -195.732824 
L 847.479391 -195.774705 
L 845.64311 -197.209806 
L 843.806828 -193.209531 
L 838.297984 -189.505909 
L 836.461703 -191.966382 
L 834.625422 -201.372716 
L 829.116578 -214.44149 
L 829.116578 -214.345165 
L 827.280296 -213.767914 
L 825.444015 -209.373266 
L 823.607733 -210.742056 
L 819.935171 -204.972335 
L 818.098889 -204.720355 
L 816.262608 -203.440211 
L 814.426327 -206.113576 
L 810.753764 -225.758268 
L 808.917483 -228.686405 
L 807.081201 -228.544709 
L 805.24492 -227.792259 
L 801.572357 -223.787098 
L 799.736076 -222.934832 
L 797.899794 -222.168421 
L 796.063513 -222.143293 
L 790.554669 -226.512115 
L 788.718387 -234.255798 
L 786.882106 -233.106181 
L 785.045825 -230.291122 
L 781.373262 -230.268087 
L 779.536981 -229.792047 
L 777.700699 -229.416519 
L 775.864418 -228.426048 
L 772.191855 -223.818508 
L 770.355574 -230.98494 
L 768.519292 -252.720161 
L 766.683011 -268.729636 
L 763.010448 -270.662416 
L 761.174167 -270.065621 
L 759.337886 -266.866657 
L 757.501604 -265.613038 
L 757.501604 -266.259392 
L 751.99276 -262.007137 
L 751.99276 -261.972236 
L 750.156479 -263.505756 
L 748.320197 -267.458567 
L 746.483916 -280.906358 
L 742.811353 -294.255033 
L 740.975072 -295.557513 
L 739.138791 -295.173609 
L 737.302509 -293.963964 
L 733.629947 -292.732681 
L 731.793665 -291.599118 
L 729.957384 -292.806669 
L 728.121102 -290.436938 
L 726.284821 -297.336033 
L 724.44854 -310.817329 
L 722.612258 -322.883068 
L 720.775977 -330.582776 
L 718.939696 -328.420352 
L 717.103414 -329.798217 
L 715.267133 -329.133715 
L 713.430852 -327.806107 
L 711.59457 -327.973628 
L 709.758289 -326.213256 
L 707.922007 -324.936602 
L 706.085726 -323.268367 
L 704.249445 -327.02085 
L 702.413163 -341.510067 
L 700.576882 -349.218849 
L 698.740601 -349.795403 
L 696.904319 -348.441968 
L 695.068038 -346.910542 
L 693.231756 -346.907052 
L 691.395475 -350.179306 
L 689.559194 -348.874034 
L 687.722912 -343.712277 
L 685.886631 -338.610548 
L 684.05035 -337.887413 
L 682.214068 -342.346976 
L 680.377787 -353.541603 
L 678.541506 -363.868608 
L 676.705224 -363.982383 
L 674.868943 -365.039863 
L 673.032661 -366.491018 
L 671.19638 -362.594048 
L 669.360099 -363.902112 
L 667.523817 -361.209203 
L 665.687536 -356.87947 
L 663.851255 -355.338969 
L 662.014973 -357.31363 
L 660.178692 -361.652437 
L 658.342411 -375.454118 
L 656.506129 -384.496093 
L 654.669848 -385.88722 
L 652.833566 -385.024484 
L 650.997285 -384.052161 
L 649.161004 -384.704099 
L 647.324722 -381.875079 
L 645.488441 -379.636573 
L 643.65216 -380.237556 
L 641.815878 -382.161262 
L 639.979597 -381.184751 
L 638.143316 -385.452362 
L 636.307034 -394.232585 
L 634.470753 -400.268246 
L 632.634471 -401.098874 
L 630.79819 -400.50487 
L 628.961909 -402.135413 
L 627.125627 -400.790355 
L 625.289346 -397.44132 
L 623.453065 -398.859669 
L 621.616783 -395.638369 
L 619.780502 -395.500862 
L 617.94422 -394.759579 
L 616.107939 -399.306393 
L 614.271658 -412.593643 
L 612.435376 -421.542085 
L 610.599095 -424.860408 
L 608.762814 -422.241488 
L 606.926532 -421.797556 
L 605.090251 -418.632795 
L 603.25397 -417.146739 
L 601.417688 -418.077879 
L 599.581407 -416.371254 
L 597.745125 -413.542932 
L 595.908844 -414.704414 
L 594.072563 -417.560657 
L 592.236281 -426.359725 
L 590.4 -433.001954 
L 588.563719 -434.341429 
L 586.727437 -435.495931 
L 584.891156 -431.220642 
L 583.054875 -429.602663 
L 581.218593 -429.885356 
L 579.382312 -431.751825 
L 577.54603 -428.945839 
L 575.709749 -429.151751 
L 573.873468 -428.994002 
L 572.037186 -431.878862 
L 570.200905 -441.377333 
L 566.528342 -453.23018 
L 564.692061 -452.898627 
L 562.85578 -449.643125 
L 561.019498 -444.914132 
L 559.183217 -444.798263 
L 557.346935 -441.777291 
L 555.510654 -440.845452 
L 553.674373 -440.630466 
L 551.838091 -436.647642 
L 550.00181 -438.920351 
L 544.492966 -457.992678 
L 542.656684 -448.954193 
z
" id="ma44833e498" style="stroke:#56b4e9;stroke-opacity:0.1;"/>
    </defs>
    <g clip-path="url(#p632ca88193)">
     <use style="fill:#56b4e9;fill-opacity:0.1;stroke:#56b4e9;stroke-opacity:0.1;" x="0" xlink:href="#ma44833e498" y="648"/>
    </g>
   </g>
   <g id="PolyCollection_2">
    <defs>
     <path d="M 316.794077 -482.641245 
L 316.794077 -484.914136 
L 318.630358 -485.339689 
L 320.466639 -485.655712 
L 322.302921 -485.915049 
L 324.139202 -486.138146 
L 325.975483 -486.335514 
L 327.811765 -486.513373 
L 329.648046 -486.675799 
L 331.484327 -486.825605 
L 333.320609 -486.964851 
L 335.15689 -487.095085 
L 336.993172 -487.217501 
L 338.829453 -487.23671 
L 340.665734 -487.249819 
L 342.502016 -487.257497 
L 344.338297 -487.260254 
L 346.174578 -487.258572 
L 348.01086 -487.252813 
L 349.847141 -487.243327 
L 351.683422 -487.230407 
L 353.519704 -487.214297 
L 355.355985 -487.195235 
L 357.192267 -487.173401 
L 359.028548 -487.148999 
L 360.864829 -486.645645 
L 362.701111 -486.140024 
L 364.537392 -485.632252 
L 366.373673 -485.122456 
L 368.209955 -484.610754 
L 370.046236 -484.097224 
L 371.882517 -483.581977 
L 373.718799 -483.065068 
L 375.55508 -482.546603 
L 377.391362 -482.026637 
L 379.227643 -481.50524 
L 381.063924 -480.982461 
L 382.900206 -480.89639 
L 384.736487 -480.80597 
L 386.572768 -480.711509 
L 388.40905 -480.613279 
L 390.245331 -480.51153 
L 392.081613 -480.406473 
L 393.917894 -480.298296 
L 395.754175 -480.187195 
L 397.590457 -480.073322 
L 399.426738 -479.956825 
L 401.263019 -479.837821 
L 403.099301 -479.716459 
L 404.935582 -479.905395 
L 406.771863 -480.09207 
L 408.608145 -480.276588 
L 410.444426 -480.45904 
L 412.280708 -480.639524 
L 414.116989 -480.818116 
L 415.95327 -480.994893 
L 417.789552 -481.169939 
L 419.625833 -481.343317 
L 421.462114 -481.515082 
L 423.298396 -481.685298 
L 425.134677 -481.854027 
L 426.970958 -481.95283 
L 428.80724 -482.050125 
L 430.643521 -482.145961 
L 432.479803 -482.240394 
L 434.316084 -482.333474 
L 436.152365 -482.425233 
L 437.988647 -482.51573 
L 439.824928 -482.604991 
L 441.661209 -482.693059 
L 443.497491 -482.779974 
L 445.333772 -482.865759 
L 447.170053 -482.950455 
L 449.006335 -482.744613 
L 450.842616 -482.537752 
L 452.678898 -482.329872 
L 454.515179 -482.121028 
L 456.35146 -481.911235 
L 458.187742 -481.700514 
L 460.024023 -481.488893 
L 461.860304 -481.276385 
L 463.696586 -481.063032 
L 465.532867 -480.848842 
L 467.369148 -480.633821 
L 469.20543 -480.418018 
L 471.041711 -480.08456 
L 472.877993 -479.750347 
L 474.714274 -479.415416 
L 476.550555 -479.079766 
L 478.386837 -478.743424 
L 480.223118 -478.406399 
L 482.059399 -478.068703 
L 483.895681 -477.730352 
L 485.731962 -477.391358 
L 487.568244 -477.051729 
L 489.404525 -476.711493 
L 491.240806 -476.370649 
L 493.077088 -476.288124 
L 494.913369 -476.205047 
L 496.74965 -476.121419 
L 498.585932 -476.037274 
L 500.422213 -475.952599 
L 502.258494 -475.867407 
L 504.094776 -475.78172 
L 505.931057 -475.69553 
L 507.767339 -475.608859 
L 509.60362 -475.521699 
L 511.439901 -475.434071 
L 513.276183 -475.34599 
L 515.112464 -474.985832 
L 516.948745 -474.625186 
L 518.785027 -474.264052 
L 520.621308 -473.902443 
L 522.457589 -473.540366 
L 524.293871 -473.177828 
L 526.130152 -472.814844 
L 527.966434 -472.451413 
L 529.802715 -472.087542 
L 531.638996 -471.723239 
L 533.475278 -471.358516 
L 535.311559 -470.993375 
L 537.14784 -470.357142 
L 538.984122 -469.719842 
L 540.820403 -469.081508 
L 542.656684 -468.442162 
L 544.492966 -467.801818 
L 546.329247 -467.16051 
L 548.165529 -466.518254 
L 550.00181 -465.875069 
L 551.838091 -465.23099 
L 553.674373 -464.586011 
L 555.510654 -463.940167 
L 557.346935 -463.293478 
L 559.183217 -462.550834 
L 561.019498 -461.796087 
L 562.85578 -461.014815 
L 564.692061 -460.217134 
L 566.528342 -459.408933 
L 568.364624 -458.592642 
L 570.200905 -457.773001 
L 572.037186 -456.951301 
L 573.873468 -456.13166 
L 575.709749 -455.192758 
L 577.54603 -454.269044 
L 579.382312 -453.367206 
L 581.218593 -452.45013 
L 583.054875 -451.529278 
L 584.891156 -450.585371 
L 586.727437 -449.612846 
L 588.563719 -448.617335 
L 590.4 -447.605442 
L 592.236281 -446.586681 
L 594.072563 -445.564632 
L 595.908844 -444.541194 
L 597.745125 -443.529657 
L 599.581407 -442.531969 
L 601.417688 -441.552491 
L 603.25397 -440.515596 
L 605.090251 -439.481038 
L 606.926532 -438.429841 
L 608.762814 -437.357968 
L 610.599095 -436.269678 
L 612.435376 -435.167128 
L 614.271658 -434.053033 
L 616.107939 -432.932412 
L 617.94422 -431.814164 
L 619.780502 -430.701995 
L 621.616783 -429.60586 
L 623.453065 -428.527496 
L 625.289346 -427.393389 
L 627.125627 -426.256176 
L 628.961909 -425.099335 
L 630.79819 -423.914979 
L 632.634471 -422.592061 
L 634.470753 -421.251673 
L 636.307034 -419.903096 
L 638.143316 -418.549836 
L 639.979597 -417.20288 
L 641.815878 -415.87338 
L 643.65216 -414.565002 
L 645.488441 -413.274918 
L 647.324722 -411.967734 
L 649.161004 -410.661645 
L 650.997285 -409.336592 
L 652.833566 -407.98278 
L 654.669848 -406.606067 
L 656.506129 -405.21247 
L 658.342411 -403.817853 
L 660.178692 -402.434383 
L 662.014973 -401.058703 
L 663.851255 -399.693898 
L 665.687536 -398.340722 
L 667.523817 -397.005038 
L 669.360099 -395.686553 
L 671.19638 -394.37747 
L 673.032661 -393.055048 
L 674.868943 -391.714191 
L 676.705224 -390.359689 
L 678.541506 -388.998297 
L 680.377787 -387.63352 
L 682.214068 -386.2712 
L 684.05035 -384.916726 
L 685.886631 -383.574899 
L 687.722912 -382.247891 
L 689.559194 -380.93996 
L 691.395475 -379.619995 
L 693.231756 -378.292868 
L 695.068038 -376.936928 
L 696.904319 -375.55209 
L 698.740601 -374.094248 
L 700.576882 -372.615689 
L 702.413163 -371.121913 
L 704.249445 -369.622344 
L 706.085726 -368.119997 
L 707.922007 -366.622592 
L 709.758289 -365.02674 
L 711.59457 -363.438531 
L 713.430852 -361.713569 
L 715.267133 -359.981815 
L 717.103414 -358.230789 
L 718.939696 -356.457008 
L 720.775977 -354.658532 
L 722.612258 -352.844511 
L 724.44854 -351.021674 
L 726.284821 -349.194873 
L 728.121102 -347.366347 
L 729.957384 -345.544495 
L 731.793665 -343.733552 
L 733.629947 -341.928598 
L 735.466228 -340.104721 
L 737.302509 -338.283839 
L 739.138791 -336.445318 
L 740.975072 -334.584468 
L 742.811353 -332.707508 
L 744.647635 -330.813705 
L 746.483916 -328.912196 
L 748.320197 -327.011803 
L 750.156479 -325.117016 
L 751.99276 -323.231066 
L 753.829042 -321.362377 
L 755.665323 -319.515773 
L 757.501604 -317.731459 
L 759.337886 -315.925996 
L 761.174167 -314.11446 
L 763.010448 -312.287407 
L 764.84673 -310.432441 
L 766.683011 -308.582054 
L 768.519292 -306.821738 
L 770.355574 -305.076798 
L 772.191855 -303.355906 
L 774.028137 -301.685716 
L 775.864418 -300.072428 
L 777.700699 -298.521011 
L 779.536981 -297.354076 
L 781.373262 -296.19237 
L 783.209543 -295.007037 
L 785.045825 -293.81769 
L 786.882106 -292.628147 
L 788.718387 -291.440643 
L 790.554669 -290.260286 
L 792.39095 -289.08938 
L 794.227232 -287.933915 
L 796.063513 -286.799214 
L 797.899794 -285.696043 
L 799.736076 -284.595664 
L 801.572357 -283.633232 
L 803.408638 -282.684655 
L 805.24492 -281.712905 
L 807.081201 -280.710149 
L 808.917483 -279.705787 
L 810.753764 -278.689259 
L 812.590045 -277.660838 
L 814.426327 -276.627335 
L 816.262608 -275.588373 
L 818.098889 -274.552762 
L 819.935171 -273.514896 
L 821.771452 -272.486635 
L 823.607733 -271.3228 
L 825.444015 -270.334123 
L 827.280296 -269.330955 
L 829.116578 -268.326077 
L 830.952859 -267.312153 
L 832.78914 -266.285497 
L 834.625422 -265.247045 
L 836.461703 -264.207665 
L 838.297984 -263.168822 
L 840.134266 -262.137929 
L 841.970547 -261.123391 
L 843.806828 -260.130707 
L 845.64311 -259.216416 
L 847.479391 -258.299704 
L 849.315673 -257.372262 
L 851.151954 -256.429514 
L 852.988235 -255.473217 
L 854.824517 -254.505069 
L 856.660798 -253.536508 
L 858.497079 -252.56637 
L 860.333361 -251.607009 
L 862.169642 -250.661196 
L 864.005923 -249.758674 
L 865.842205 -248.858671 
L 867.678486 -248.394706 
L 869.514768 -247.947612 
L 871.351049 -247.496644 
L 873.18733 -247.032058 
L 875.023612 -246.557958 
L 876.859893 -246.079517 
L 878.696174 -245.602164 
L 880.532456 -245.13057 
L 882.368737 -244.662571 
L 884.205019 -244.199772 
L 886.0413 -243.739681 
L 887.877581 -243.292426 
L 889.713863 -242.670726 
L 891.550144 -241.968601 
L 893.386425 -241.221371 
L 895.222707 -240.469186 
L 897.058988 -239.712665 
L 898.895269 -238.943372 
L 900.731551 -238.149382 
L 902.567832 -236.815639 
L 904.404114 -235.470971 
L 906.240395 -234.087243 
L 908.076676 -232.644904 
L 909.912958 -231.116179 
L 911.749239 -228.577802 
L 913.58552 -226.060435 
L 915.421802 -223.53146 
L 917.258083 -220.999791 
L 919.094364 -218.471186 
L 920.930646 -215.9479 
L 922.766927 -213.424516 
L 924.603209 -210.90102 
L 926.43949 -208.37742 
L 928.275771 -205.849764 
L 930.112053 -203.322004 
L 931.948334 -200.788296 
L 933.784615 -198.254477 
L 935.620897 -196.069989 
L 937.457178 -193.885166 
L 939.293459 -191.700029 
L 941.129741 -189.514564 
L 942.966022 -187.328771 
L 944.802304 -185.142671 
L 946.638585 -182.95625 
L 948.474866 -180.769521 
L 950.311148 -178.582486 
L 952.147429 -176.395143 
L 953.98371 -174.207493 
L 953.98371 -110.454185 
L 953.98371 -110.454185 
L 952.147429 -112.837625 
L 950.311148 -115.221359 
L 948.474866 -117.6054 
L 946.638585 -119.989762 
L 944.802304 -122.374417 
L 942.966022 -124.759393 
L 941.129741 -127.14469 
L 939.293459 -129.530302 
L 937.457178 -131.916241 
L 935.620897 -134.302509 
L 933.784615 -136.689097 
L 931.948334 -139.336636 
L 930.112053 -141.984272 
L 928.275771 -144.625333 
L 926.43949 -147.266498 
L 924.603209 -149.902798 
L 922.766927 -152.539204 
L 920.930646 -155.175706 
L 919.094364 -157.812321 
L 917.258083 -160.453584 
L 915.421802 -163.098316 
L 913.58552 -165.741653 
L 911.749239 -168.374512 
L 909.912958 -171.05471 
L 908.076676 -172.745638 
L 906.240395 -174.360678 
L 904.404114 -175.924687 
L 902.567832 -177.45293 
L 900.731551 -178.974074 
L 898.895269 -179.899596 
L 897.058988 -180.806634 
L 895.222707 -181.692286 
L 893.386425 -182.554394 
L 891.550144 -183.381238 
L 889.713863 -184.158315 
L 887.877581 -184.875795 
L 886.0413 -185.38742 
L 884.205019 -185.920215 
L 882.368737 -186.457966 
L 880.532456 -187.00283 
L 878.696174 -187.552168 
L 876.859893 -188.108354 
L 875.023612 -188.665754 
L 873.18733 -189.221423 
L 871.351049 -189.770649 
L 869.514768 -190.306173 
L 867.678486 -190.836163 
L 865.842205 -191.383763 
L 864.005923 -192.379211 
L 862.169642 -193.377639 
L 860.333361 -194.420935 
L 858.497079 -195.476509 
L 856.660798 -196.541786 
L 854.824517 -197.603516 
L 852.988235 -198.664779 
L 851.151954 -199.713534 
L 849.315673 -200.749075 
L 847.479391 -201.770775 
L 845.64311 -202.78183 
L 843.806828 -203.791999 
L 841.970547 -204.88394 
L 840.134266 -206.001476 
L 838.297984 -207.135799 
L 836.461703 -208.277612 
L 834.625422 -209.420046 
L 832.78914 -210.561091 
L 830.952859 -211.689265 
L 829.116578 -212.805265 
L 827.280296 -213.91201 
L 825.444015 -215.016892 
L 823.607733 -216.099004 
L 821.771452 -217.364692 
L 819.935171 -218.494164 
L 818.098889 -219.630323 
L 816.262608 -220.762664 
L 814.426327 -221.8989 
L 812.590045 -223.030445 
L 810.753764 -224.157104 
L 808.917483 -225.272888 
L 807.081201 -226.377679 
L 805.24492 -227.480669 
L 803.408638 -228.553365 
L 801.572357 -229.598364 
L 799.736076 -230.66466 
L 797.899794 -231.892216 
L 796.063513 -233.124895 
L 794.227232 -234.4076 
L 792.39095 -235.718931 
L 790.554669 -237.045995 
L 788.718387 -238.380988 
L 786.882106 -239.721314 
L 785.045825 -241.065325 
L 783.209543 -242.407703 
L 781.373262 -243.74463 
L 779.536981 -245.057007 
L 777.700699 -246.373524 
L 775.864418 -248.08283 
L 774.028137 -249.860471 
L 772.191855 -251.69828 
L 770.355574 -253.582981 
L 768.519292 -255.488783 
L 766.683011 -257.407323 
L 764.84673 -259.415041 
L 763.010448 -261.425453 
L 761.174167 -263.405481 
L 759.337886 -265.373007 
L 757.501604 -267.333833 
L 755.665323 -269.261838 
L 753.829042 -271.248002 
L 751.99276 -273.260075 
L 750.156479 -275.289536 
L 748.320197 -277.326549 
L 746.483916 -279.36851 
L 744.647635 -281.411561 
L 742.811353 -283.447953 
L 740.975072 -285.469205 
L 739.138791 -287.475492 
L 737.302509 -289.452093 
L 735.466228 -291.404046 
L 733.629947 -293.359833 
L 731.793665 -295.281479 
L 729.957384 -297.208054 
L 728.121102 -299.140582 
L 726.284821 -301.077033 
L 724.44854 -303.011984 
L 722.612258 -304.944435 
L 720.775977 -306.870808 
L 718.939696 -308.786758 
L 717.103414 -310.68565 
L 715.267133 -312.565025 
L 713.430852 -314.424584 
L 711.59457 -316.276486 
L 709.758289 -318.008288 
L 707.922007 -319.748363 
L 706.085726 -321.390102 
L 704.249445 -323.037257 
L 702.413163 -324.68264 
L 700.576882 -326.321992 
L 698.740601 -327.947648 
L 696.904319 -329.553328 
L 695.068038 -331.082067 
L 693.231756 -332.56873 
L 691.395475 -334.013848 
L 689.559194 -335.449724 
L 687.722912 -336.880099 
L 685.886631 -338.333474 
L 684.05035 -339.80386 
L 682.214068 -341.286237 
L 680.377787 -342.776781 
L 678.541506 -344.269837 
L 676.705224 -345.760332 
L 674.868943 -347.243379 
L 673.032661 -348.713004 
L 671.19638 -350.160788 
L 669.360099 -351.59198 
L 667.523817 -353.033775 
L 665.687536 -354.494486 
L 663.851255 -355.970749 
L 662.014973 -357.457901 
L 660.178692 -358.95502 
L 658.342411 -360.45856 
L 656.506129 -361.969884 
L 654.669848 -363.481431 
L 652.833566 -364.981453 
L 650.997285 -366.461045 
L 649.161004 -367.911894 
L 647.324722 -369.338333 
L 645.488441 -370.766859 
L 643.65216 -372.196124 
L 641.815878 -373.647719 
L 639.979597 -375.12186 
L 638.143316 -376.612648 
L 636.307034 -378.109139 
L 634.470753 -379.602887 
L 632.634471 -381.09001 
L 630.79819 -382.560794 
L 628.961909 -383.891997 
L 627.125627 -385.190547 
L 625.289346 -386.464024 
L 623.453065 -387.734424 
L 621.616783 -388.948453 
L 619.780502 -390.180588 
L 617.94422 -391.428351 
L 616.107939 -392.681747 
L 614.271658 -393.937446 
L 612.435376 -395.188211 
L 610.599095 -396.428799 
L 608.762814 -397.657807 
L 606.926532 -398.871165 
L 605.090251 -400.06357 
L 603.25397 -401.238663 
L 601.417688 -402.416863 
L 599.581407 -403.541303 
L 597.745125 -404.690277 
L 595.908844 -405.856283 
L 594.072563 -407.034776 
L 592.236281 -408.213416 
L 590.4 -409.390108 
L 588.563719 -410.562417 
L 586.727437 -411.717799 
L 584.891156 -412.847906 
L 583.054875 -413.94409 
L 581.218593 -415.014622 
L 579.382312 -416.083864 
L 577.54603 -417.141511 
L 575.709749 -418.221787 
L 573.873468 -419.316122 
L 572.037186 -420.266946 
L 570.200905 -421.222189 
L 568.364624 -422.178458 
L 566.528342 -423.134796 
L 564.692061 -424.084008 
L 562.85578 -425.022213 
L 561.019498 -426.007735 
L 559.183217 -426.967375 
L 557.346935 -427.921975 
L 555.510654 -428.812157 
L 553.674373 -429.703197 
L 551.838091 -430.595103 
L 550.00181 -431.487895 
L 548.165529 -432.381594 
L 546.329247 -433.276208 
L 544.492966 -434.171785 
L 542.656684 -435.068326 
L 540.820403 -435.96585 
L 538.984122 -436.864401 
L 537.14784 -437.763984 
L 535.311559 -438.664622 
L 533.475278 -439.193362 
L 531.638996 -439.722521 
L 529.802715 -440.252098 
L 527.966434 -440.782108 
L 526.130152 -441.312558 
L 524.293871 -441.843455 
L 522.457589 -442.374798 
L 520.621308 -442.906616 
L 518.785027 -443.438888 
L 516.948745 -443.971635 
L 515.112464 -444.50487 
L 513.276183 -445.038593 
L 511.439901 -445.293261 
L 509.60362 -445.548396 
L 507.767339 -445.803999 
L 505.931057 -446.060077 
L 504.094776 -446.31665 
L 502.258494 -446.573712 
L 500.422213 -446.831283 
L 498.585932 -447.089371 
L 496.74965 -447.347975 
L 494.913369 -447.60711 
L 493.077088 -447.866797 
L 491.240806 -448.12702 
L 489.404525 -448.65137 
L 487.568244 -449.176326 
L 485.731962 -449.701904 
L 483.895681 -450.228103 
L 482.059399 -450.754945 
L 480.223118 -451.282442 
L 478.386837 -451.81061 
L 476.550555 -452.339461 
L 474.714274 -452.869004 
L 472.877993 -453.399265 
L 471.041711 -453.93026 
L 469.20543 -454.461994 
L 467.369148 -454.879646 
L 465.532867 -455.298094 
L 463.696586 -455.717358 
L 461.860304 -456.137461 
L 460.024023 -456.558421 
L 458.187742 -456.980254 
L 456.35146 -457.403002 
L 454.515179 -457.826664 
L 452.678898 -458.251275 
L 450.842616 -458.676864 
L 449.006335 -459.103457 
L 447.170053 -459.531084 
L 445.333772 -459.670225 
L 443.497491 -459.810454 
L 441.661209 -459.951814 
L 439.824928 -460.094326 
L 437.988647 -460.238032 
L 436.152365 -460.382973 
L 434.316084 -460.529177 
L 432.479803 -460.676701 
L 430.643521 -460.825579 
L 428.80724 -460.97586 
L 426.970958 -461.127599 
L 425.134677 -461.280846 
L 423.298396 -461.356908 
L 421.462114 -461.434457 
L 419.625833 -461.513555 
L 417.789552 -461.594265 
L 415.95327 -461.676644 
L 414.116989 -461.760768 
L 412.280708 -461.846692 
L 410.444426 -461.934508 
L 408.608145 -462.024293 
L 406.771863 -462.116144 
L 404.935582 -462.210151 
L 403.099301 -462.30642 
L 401.263019 -462.710224 
L 399.426738 -463.116401 
L 397.590457 -463.52507 
L 395.754175 -463.936363 
L 393.917894 -464.350427 
L 392.081613 -464.76743 
L 390.245331 -465.187539 
L 388.40905 -465.610957 
L 386.572768 -466.037893 
L 384.736487 -466.468612 
L 382.900206 -466.903358 
L 381.063924 -467.342453 
L 379.227643 -468.055927 
L 377.391362 -468.770769 
L 375.55508 -469.487056 
L 373.718799 -470.20483 
L 371.882517 -470.924175 
L 370.046236 -471.645167 
L 368.209955 -472.367889 
L 366.373673 -473.092427 
L 364.537392 -473.818884 
L 362.701111 -474.547366 
L 360.864829 -475.277983 
L 359.028548 -476.010883 
L 357.192267 -476.269941 
L 355.355985 -476.531581 
L 353.519704 -476.795979 
L 351.683422 -477.063344 
L 349.847141 -477.333884 
L 348.01086 -477.607872 
L 346.174578 -477.885588 
L 344.338297 -478.167366 
L 342.502016 -478.453598 
L 340.665734 -478.744736 
L 338.829453 -479.041319 
L 336.993172 -479.343989 
L 335.15689 -479.556769 
L 333.320609 -479.777353 
L 331.484327 -480.006948 
L 329.648046 -480.247104 
L 327.811765 -480.49988 
L 325.975483 -480.768103 
L 324.139202 -481.055822 
L 322.302921 -481.369268 
L 320.466639 -481.718956 
L 318.630358 -482.125342 
L 316.794077 -482.641245 
z
" id="mc91296a9da" style="stroke:#d55e00;stroke-opacity:0.1;"/>
    </defs>
    <g clip-path="url(#p632ca88193)">
     <use style="fill:#d55e00;fill-opacity:0.1;stroke:#d55e00;stroke-opacity:0.1;" x="0" xlink:href="#mc91296a9da" y="648"/>
    </g>
   </g>
   <g id="patch_3">
    <path d="M 144 576.72 
L 1036.8 576.72 
" style="fill:none;stroke:#d3d3d3;stroke-linecap:square;stroke-linejoin:miter;stroke-width:1.25;"/>
   </g>
   <g id="matplotlib.axis_1">
    <g id="xtick_1">
     <g id="line2d_1">
      <defs>
       <path d="M 0 0 
L 0 6 
" id="mc7b7599039" style="stroke:#696969;stroke-width:1.25;"/>
      </defs>
      <g>
       <use style="fill:#696969;stroke:#696969;stroke-width:1.25;" x="272.723324" xlink:href="#mc7b7599039" y="576.72"/>
      </g>
     </g>
     <g id="text_1">
      <!-- 1990 -->
      <g style="fill:#696969;" transform="translate(255.234261 596.218438)scale(0.15 -0.15)">
       <defs>
        <path d="M 55.859375 6.203125 
L 55.859375 0 
L 9.1875 0 
L 9.1875 6.203125 
L 29.203125 6.203125 
L 29.203125 57.671875 
Q 20.359375 48.4375 10.84375 43.265625 
L 10.84375 51.65625 
Q 23.96875 58.546875 31.203125 68.015625 
L 37.15625 68.015625 
L 37.15625 6.203125 
z
" id="FranklinGothic-Book-49"/>
        <path d="M 5.71875 12.15625 
L 12.40625 14.59375 
Q 16.546875 5.375 26.375 5.375 
Q 35.890625 5.375 40.703125 13.375 
Q 45.515625 21.390625 45.65625 35.109375 
Q 39.109375 23.09375 25.984375 23.09375 
Q 16.703125 23.09375 10.40625 29.421875 
Q 4.109375 35.75 4.109375 45.0625 
Q 4.109375 54.546875 10.71875 61.28125 
Q 17.328125 68.015625 27.59375 68.015625 
Q 40.140625 68.015625 46.828125 59.203125 
Q 53.515625 50.390625 53.515625 34.96875 
Q 53.515625 18.75 46.4375 8.71875 
Q 39.359375 -1.3125 26.265625 -1.3125 
Q 10.984375 -1.3125 5.71875 12.15625 
z
M 27.828125 29.78125 
Q 34.71875 29.78125 39.375 34.59375 
Q 44.046875 39.40625 44.046875 45.84375 
Q 44.046875 52.09375 39.625 56.578125 
Q 35.203125 61.078125 27.984375 61.078125 
Q 20.65625 61.078125 16.40625 56.46875 
Q 12.15625 51.859375 12.15625 45.21875 
Q 12.15625 38.09375 16.859375 33.9375 
Q 21.578125 29.78125 27.828125 29.78125 
z
" id="FranklinGothic-Book-57"/>
        <path d="M 29.390625 -1.3125 
Q 17.875 -1.3125 10.984375 8.671875 
Q 4.109375 18.65625 4.109375 33.453125 
Q 4.109375 48 10.640625 58 
Q 17.1875 68.015625 29.15625 68.015625 
Q 41.65625 68.015625 48.125 57.5625 
Q 54.59375 47.125 54.59375 33.0625 
Q 54.59375 19.28125 47.953125 8.984375 
Q 41.3125 -1.3125 29.390625 -1.3125 
z
M 29.4375 5.21875 
Q 37.890625 5.21875 41.9375 12.859375 
Q 46 20.515625 46 32.078125 
Q 46 44.734375 41.84375 53.125 
Q 37.703125 61.53125 29.046875 61.53125 
Q 20.703125 61.53125 16.625 53.859375 
Q 12.546875 46.1875 12.546875 33.6875 
Q 12.546875 20.703125 16.84375 12.953125 
Q 21.140625 5.21875 29.4375 5.21875 
z
" id="FranklinGothic-Book-48"/>
       </defs>
       <use xlink:href="#FranklinGothic-Book-49"/>
       <use x="57.267578" xlink:href="#FranklinGothic-Book-57"/>
       <use x="115.910156" xlink:href="#FranklinGothic-Book-57"/>
       <use x="174.552734" xlink:href="#FranklinGothic-Book-48"/>
      </g>
     </g>
    </g>
    <g id="xtick_2">
     <g id="line2d_2">
      <g>
       <use style="fill:#696969;stroke:#696969;stroke-width:1.25;" x="493.077088" xlink:href="#mc7b7599039" y="576.72"/>
      </g>
     </g>
     <g id="text_2">
      <!-- 2000 -->
      <g style="fill:#696969;" transform="translate(475.4849 596.218438)scale(0.15 -0.15)">
       <defs>
        <path d="M 52.484375 6.9375 
L 52.484375 0 
L 5.171875 0 
L 5.171875 6.9375 
Q 33.203125 27.9375 38.59375 34.59375 
Q 44 41.265625 44 47.796875 
Q 44 53.90625 39.453125 57.65625 
Q 34.90625 61.421875 29 61.421875 
Q 22.90625 61.421875 18.21875 57.296875 
Q 13.53125 53.171875 12.9375 46.09375 
L 5.171875 48.4375 
Q 10.0625 68.015625 29.109375 68.015625 
Q 39.40625 68.015625 45.84375 62.15625 
Q 52.296875 56.296875 52.296875 47.859375 
Q 52.296875 42.046875 49.234375 36.671875 
Q 46.1875 31.296875 37.6875 23.828125 
Q 29.203125 16.359375 15.71875 6.9375 
z
" id="FranklinGothic-Book-50"/>
       </defs>
       <use xlink:href="#FranklinGothic-Book-50"/>
       <use x="58.642578" xlink:href="#FranklinGothic-Book-48"/>
       <use x="117.285156" xlink:href="#FranklinGothic-Book-48"/>
       <use x="175.927734" xlink:href="#FranklinGothic-Book-48"/>
      </g>
     </g>
    </g>
    <g id="xtick_3">
     <g id="line2d_3">
      <g>
       <use style="fill:#696969;stroke:#696969;stroke-width:1.25;" x="713.430852" xlink:href="#mc7b7599039" y="576.72"/>
      </g>
     </g>
     <g id="text_3">
      <!-- 2010 -->
      <g style="fill:#696969;" transform="translate(696.363664 596.218438)scale(0.15 -0.15)">
       <use xlink:href="#FranklinGothic-Book-50"/>
       <use x="58.642578" xlink:href="#FranklinGothic-Book-48"/>
       <use x="113.535156" xlink:href="#FranklinGothic-Book-49"/>
       <use x="168.927734" xlink:href="#FranklinGothic-Book-48"/>
      </g>
     </g>
    </g>
    <g id="xtick_4">
     <g id="line2d_4">
      <g>
       <use style="fill:#696969;stroke:#696969;stroke-width:1.25;" x="933.784615" xlink:href="#mc7b7599039" y="576.72"/>
      </g>
     </g>
     <g id="text_4">
      <!-- 2020 -->
      <g style="fill:#696969;" transform="translate(916.192428 596.218438)scale(0.15 -0.15)">
       <use xlink:href="#FranklinGothic-Book-50"/>
       <use x="58.642578" xlink:href="#FranklinGothic-Book-48"/>
       <use x="117.285156" xlink:href="#FranklinGothic-Book-50"/>
       <use x="175.927734" xlink:href="#FranklinGothic-Book-48"/>
      </g>
     </g>
    </g>
    <g id="text_5">
     <!-- Year -->
     <g style="fill:#696969;" transform="translate(572.109375 616.048125)scale(0.2 -0.2)">
      <defs>
       <path d="M 52 66.65625 
L 29.6875 28.03125 
L 29.6875 0 
L 21.34375 0 
L 21.34375 28.03125 
L -0.984375 66.65625 
L 8.84375 66.65625 
L 26.5625 35.984375 
L 44.390625 66.65625 
z
" id="FranklinGothic-Book-89"/>
       <path d="M 40.234375 14.703125 
L 47.359375 13.234375 
Q 45.40625 6.9375 39.734375 2.8125 
Q 34.078125 -1.3125 26.421875 -1.3125 
Q 16.3125 -1.3125 10.0625 5.78125 
Q 3.8125 12.890625 3.8125 24.421875 
Q 3.8125 36.1875 10.296875 43.4375 
Q 16.796875 50.6875 26.609375 50.6875 
Q 36.28125 50.6875 42.15625 44 
Q 48.046875 37.3125 48.1875 23.96875 
L 12.359375 23.96875 
Q 12.359375 12.796875 17.046875 8.890625 
Q 21.734375 4.984375 26.953125 4.984375 
Q 36.375 4.984375 40.234375 14.703125 
z
M 39.796875 29.6875 
Q 39.703125 33.84375 38.421875 37.0625 
Q 37.15625 40.28125 34.125 42.546875 
Q 31.109375 44.828125 26.859375 44.828125 
Q 21.140625 44.828125 17.15625 40.71875 
Q 13.1875 36.625 12.703125 29.6875 
z
" id="FranklinGothic-Book-101"/>
       <path d="M 46.296875 0 
L 38.671875 0 
Q 38.234375 2.34375 37.796875 8.890625 
Q 32.71875 -1.3125 20.515625 -1.3125 
Q 12.203125 -1.3125 7.765625 3.078125 
Q 3.328125 7.46875 3.328125 13.625 
Q 3.328125 21.09375 9.671875 25.90625 
Q 16.015625 30.71875 31.25 30.71875 
Q 33.296875 30.71875 37.796875 30.515625 
Q 37.796875 36.375 36.890625 38.984375 
Q 35.984375 41.609375 33.046875 43.171875 
Q 30.125 44.734375 25.34375 44.734375 
Q 13.671875 44.734375 11.765625 35.84375 
L 4.6875 37.0625 
Q 7.28125 50.6875 26.46875 50.6875 
Q 36.671875 50.6875 40.9375 46.171875 
Q 45.21875 41.65625 45.21875 30.515625 
L 45.21875 9.578125 
Q 45.21875 4.34375 46.296875 0 
z
M 37.796875 24.65625 
Q 33.109375 24.953125 30.671875 24.953125 
Q 21.578125 24.953125 16.546875 21.96875 
Q 11.53125 19 11.53125 13.28125 
Q 11.53125 9.671875 14.234375 7.125 
Q 16.9375 4.59375 22.078125 4.59375 
Q 29 4.59375 33.46875 9.625 
Q 37.9375 14.65625 37.9375 21.4375 
Q 37.9375 22.796875 37.796875 24.65625 
z
" id="FranklinGothic-Book-97"/>
       <path d="M 15.328125 0 
L 7.671875 0 
L 7.671875 49.3125 
L 14.40625 49.3125 
L 14.40625 37.796875 
Q 17.96875 45.953125 21.546875 48.359375 
Q 25.140625 50.78125 28.90625 50.78125 
Q 30.078125 50.78125 31.9375 50.59375 
L 31.9375 43.265625 
L 30.375 43.265625 
Q 24.03125 43.265625 19.828125 38.53125 
Q 15.625 33.796875 15.328125 26.078125 
z
" id="FranklinGothic-Book-114"/>
      </defs>
      <use xlink:href="#FranklinGothic-Book-89"/>
      <use x="45.025391" xlink:href="#FranklinGothic-Book-101"/>
      <use x="97.076172" xlink:href="#FranklinGothic-Book-97"/>
      <use x="149.957031" xlink:href="#FranklinGothic-Book-114"/>
     </g>
    </g>
   </g>
   <g id="matplotlib.axis_2">
    <g id="ytick_1">
     <g id="line2d_5">
      <path clip-path="url(#p632ca88193)" d="M 144 513.207323 
L 1036.8 513.207323 
" style="fill:none;stroke:#d3d3d3;stroke-linecap:round;stroke-opacity:0.5;"/>
     </g>
     <g id="text_6">
      <!-- −4000 -->
      <g style="fill:#696969;" transform="translate(90.519531 518.206542)scale(0.15 -0.15)">
       <defs>
        <path d="M 6 36.765625 
L 52.6875 36.765625 
L 52.6875 30.03125 
L 6 30.03125 
z
" id="FranklinGothic-Book-8722"/>
        <path d="M 44.09375 0 
L 36.03125 0 
L 36.03125 15.875 
L 3.078125 15.875 
L 3.078125 21.484375 
L 33.640625 68.0625 
L 44.09375 68.0625 
L 44.09375 22.46875 
L 54.890625 22.46875 
L 54.890625 15.875 
L 44.09375 15.875 
z
M 36.03125 22.46875 
L 36.03125 54 
Q 36.03125 57.421875 36.1875 61.375 
Q 34.078125 57.515625 32.5625 55.125 
L 11.765625 22.46875 
z
" id="FranklinGothic-Book-52"/>
       </defs>
       <use xlink:href="#FranklinGothic-Book-8722"/>
       <use x="58.642578" xlink:href="#FranklinGothic-Book-52"/>
       <use x="117.285156" xlink:href="#FranklinGothic-Book-48"/>
       <use x="175.927734" xlink:href="#FranklinGothic-Book-48"/>
       <use x="234.570312" xlink:href="#FranklinGothic-Book-48"/>
      </g>
     </g>
    </g>
    <g id="ytick_2">
     <g id="line2d_6">
      <path clip-path="url(#p632ca88193)" d="M 144 443.406682 
L 1036.8 443.406682 
" style="fill:none;stroke:#d3d3d3;stroke-linecap:round;stroke-opacity:0.5;"/>
     </g>
     <g id="text_7">
      <!-- −3000 -->
      <g style="fill:#696969;" transform="translate(90.519531 448.405901)scale(0.15 -0.15)">
       <defs>
        <path d="M 19.34375 31.34375 
L 19.34375 37.984375 
L 26.953125 37.984375 
Q 35.296875 37.984375 38.890625 41.40625 
Q 42.484375 44.828125 42.484375 49.703125 
Q 42.484375 55.078125 38.46875 58.21875 
Q 34.46875 61.375 28.421875 61.375 
Q 17.1875 61.375 12.890625 50.53125 
L 5.375 52.6875 
Q 11.8125 68.015625 29.203125 68.015625 
Q 38.96875 68.015625 44.96875 62.8125 
Q 50.984375 57.625 50.984375 50.296875 
Q 50.984375 44.625 47.359375 40.40625 
Q 43.75 36.1875 38.09375 35.109375 
Q 44.4375 34.1875 49 29.78125 
Q 53.5625 25.390625 53.5625 18.40625 
Q 53.5625 10.0625 46.765625 4.375 
Q 39.984375 -1.3125 28.171875 -1.3125 
Q 18.796875 -1.3125 12.125 3.125 
Q 5.46875 7.5625 2.9375 14.9375 
L 10.6875 17.53125 
Q 14.203125 5.46875 28.03125 5.46875 
Q 37.015625 5.46875 40.9375 9.296875 
Q 44.875 13.140625 44.875 18.453125 
Q 44.875 24.21875 40.15625 27.78125 
Q 35.453125 31.34375 26.953125 31.34375 
z
" id="FranklinGothic-Book-51"/>
       </defs>
       <use xlink:href="#FranklinGothic-Book-8722"/>
       <use x="58.642578" xlink:href="#FranklinGothic-Book-51"/>
       <use x="117.285156" xlink:href="#FranklinGothic-Book-48"/>
       <use x="175.927734" xlink:href="#FranklinGothic-Book-48"/>
       <use x="234.570312" xlink:href="#FranklinGothic-Book-48"/>
      </g>
     </g>
    </g>
    <g id="ytick_3">
     <g id="line2d_7">
      <path clip-path="url(#p632ca88193)" d="M 144 373.606042 
L 1036.8 373.606042 
" style="fill:none;stroke:#d3d3d3;stroke-linecap:round;stroke-opacity:0.5;"/>
     </g>
     <g id="text_8">
      <!-- −2000 -->
      <g style="fill:#696969;" transform="translate(90.519531 378.60526)scale(0.15 -0.15)">
       <use xlink:href="#FranklinGothic-Book-8722"/>
       <use x="58.642578" xlink:href="#FranklinGothic-Book-50"/>
       <use x="117.285156" xlink:href="#FranklinGothic-Book-48"/>
       <use x="175.927734" xlink:href="#FranklinGothic-Book-48"/>
       <use x="234.570312" xlink:href="#FranklinGothic-Book-48"/>
      </g>
     </g>
    </g>
    <g id="ytick_4">
     <g id="line2d_8">
      <path clip-path="url(#p632ca88193)" d="M 144 303.805401 
L 1036.8 303.805401 
" style="fill:none;stroke:#d3d3d3;stroke-linecap:round;stroke-opacity:0.5;"/>
     </g>
     <g id="text_9">
      <!-- −1000 -->
      <g style="fill:#696969;" transform="translate(91.007031 308.80462)scale(0.15 -0.15)">
       <use xlink:href="#FranklinGothic-Book-8722"/>
       <use x="58.642578" xlink:href="#FranklinGothic-Book-49"/>
       <use x="114.035156" xlink:href="#FranklinGothic-Book-48"/>
       <use x="172.677734" xlink:href="#FranklinGothic-Book-48"/>
       <use x="231.320312" xlink:href="#FranklinGothic-Book-48"/>
      </g>
     </g>
    </g>
    <g id="ytick_5">
     <g id="line2d_9">
      <path clip-path="url(#p632ca88193)" d="M 144 234.00476 
L 1036.8 234.00476 
" style="fill:none;stroke:#d3d3d3;stroke-linecap:round;stroke-opacity:0.5;"/>
     </g>
     <g id="text_10">
      <!-- 0 -->
      <g style="fill:#696969;" transform="translate(125.703906 239.003979)scale(0.15 -0.15)">
       <use xlink:href="#FranklinGothic-Book-48"/>
      </g>
     </g>
    </g>
    <g id="ytick_6">
     <g id="line2d_10">
      <path clip-path="url(#p632ca88193)" d="M 144 164.204119 
L 1036.8 164.204119 
" style="fill:none;stroke:#d3d3d3;stroke-linecap:round;stroke-opacity:0.5;"/>
     </g>
     <g id="text_11">
      <!-- 1000 -->
      <g style="fill:#696969;" transform="translate(99.803125 169.203338)scale(0.15 -0.15)">
       <use xlink:href="#FranklinGothic-Book-49"/>
       <use x="55.392578" xlink:href="#FranklinGothic-Book-48"/>
       <use x="114.035156" xlink:href="#FranklinGothic-Book-48"/>
       <use x="172.677734" xlink:href="#FranklinGothic-Book-48"/>
      </g>
     </g>
    </g>
    <g id="ytick_7">
     <g id="line2d_11">
      <path clip-path="url(#p632ca88193)" d="M 144 94.403479 
L 1036.8 94.403479 
" style="fill:none;stroke:#d3d3d3;stroke-linecap:round;stroke-opacity:0.5;"/>
     </g>
     <g id="text_12">
      <!-- 2000 -->
      <g style="fill:#696969;" transform="translate(99.315625 99.402697)scale(0.15 -0.15)">
       <use xlink:href="#FranklinGothic-Book-50"/>
       <use x="58.642578" xlink:href="#FranklinGothic-Book-48"/>
       <use x="117.285156" xlink:href="#FranklinGothic-Book-48"/>
       <use x="175.927734" xlink:href="#FranklinGothic-Book-48"/>
      </g>
     </g>
    </g>
    <g id="text_13">
     <!-- Gt -->
     <g style="fill:#696969;" transform="translate(77.188281 336.786875)rotate(-90)scale(0.2 -0.2)">
      <defs>
       <path d="M 57.71875 33.59375 
L 57.71875 -0.875 
L 52.59375 -0.875 
L 50.296875 7.46875 
Q 44.140625 -1.3125 31.984375 -1.3125 
Q 18.796875 -1.3125 11.46875 8.59375 
Q 4.15625 18.5 4.15625 32.671875 
Q 4.15625 47.796875 11.90625 57.90625 
Q 19.671875 68.015625 33.015625 68.015625 
Q 51.421875 68.015625 57.03125 48.6875 
L 49.125 46.78125 
Q 47.40625 54.203125 42.71875 57.5625 
Q 38.03125 60.9375 32.46875 60.9375 
Q 22.609375 60.9375 17.921875 52.96875 
Q 13.234375 45.015625 13.234375 33.015625 
Q 13.234375 20.0625 18.484375 12.765625 
Q 23.734375 5.46875 32.765625 5.46875 
Q 39.796875 5.46875 44.5 10.125 
Q 49.21875 14.796875 49.21875 23 
Q 49.21875 24.515625 49.125 26.609375 
L 32.625 26.609375 
L 32.625 33.59375 
z
" id="FranklinGothic-Book-71"/>
       <path d="M 30.03125 5.28125 
L 30.03125 -0.78125 
Q 25.984375 -1.3125 23 -1.3125 
Q 8.6875 -1.3125 8.6875 13.625 
L 8.6875 43.3125 
L -0.046875 43.3125 
L -0.046875 49.3125 
L 8.6875 49.3125 
L 9.03125 61.71875 
L 16.15625 62.40625 
L 16.15625 49.3125 
L 27.203125 49.3125 
L 27.203125 43.3125 
L 16.15625 43.3125 
L 16.15625 12.359375 
Q 16.15625 4.734375 24.078125 4.734375 
Q 26.703125 4.734375 30.03125 5.28125 
z
" id="FranklinGothic-Book-116"/>
      </defs>
      <use xlink:href="#FranklinGothic-Book-71"/>
      <use x="64.697266" xlink:href="#FranklinGothic-Book-116"/>
     </g>
    </g>
   </g>
   <g id="text_14">
    <!-- Greenland ice sheet cumulative mass balance -->
    <g style="fill:#696969;" transform="translate(144 42.76)scale(0.4 -0.4)">
     <defs>
      <path d="M 46.53125 0 
L 39.359375 0 
L 39.359375 31.6875 
Q 39.359375 38.53125 36.375 41.3125 
Q 33.40625 44.09375 29.15625 44.09375 
Q 23.296875 44.09375 19.3125 39.40625 
Q 15.328125 34.71875 15.328125 27.046875 
L 15.328125 0 
L 7.671875 0 
L 7.671875 49.3125 
L 14.796875 49.3125 
L 14.796875 40.234375 
Q 20.796875 50.6875 30.375 50.6875 
Q 35.890625 50.6875 39.765625 47.828125 
Q 43.65625 44.96875 45.09375 41.40625 
Q 46.53125 37.84375 46.53125 28.515625 
z
" id="FranklinGothic-Book-110"/>
      <path d="M 15.328125 0 
L 7.671875 0 
L 7.671875 66.65625 
L 15.328125 66.65625 
z
" id="FranklinGothic-Book-108"/>
      <path d="M 46.1875 66.65625 
L 46.1875 0 
L 39.203125 0 
L 39.203125 8.453125 
Q 34.03125 -1.3125 23.640625 -1.3125 
Q 14.984375 -1.3125 9.421875 5.9375 
Q 3.859375 13.1875 3.859375 24.265625 
Q 3.859375 35.59375 9.375 43.140625 
Q 14.890625 50.6875 24.03125 50.6875 
Q 32.90625 50.6875 38.53125 42.578125 
L 38.53125 66.65625 
z
M 38.53125 30.28125 
Q 38.53125 36.765625 34.5625 40.671875 
Q 30.609375 44.578125 25.34375 44.578125 
Q 19.625 44.578125 15.9375 39.5 
Q 12.25 34.421875 12.25 25.25 
Q 12.25 15.328125 15.640625 10.15625 
Q 19.046875 4.984375 24.953125 4.984375 
Q 30.328125 4.984375 34.421875 9.46875 
Q 38.53125 13.96875 38.53125 20.015625 
z
" id="FranklinGothic-Book-100"/>
      <path id="FranklinGothic-Book-32"/>
      <path d="M 15.578125 66.65625 
L 15.578125 58.15625 
L 7.328125 58.15625 
L 7.328125 66.65625 
z
M 15.328125 49.3125 
L 15.328125 0 
L 7.671875 0 
L 7.671875 49.3125 
z
" id="FranklinGothic-Book-105"/>
      <path d="M 36.8125 17.28125 
L 43.75 16.0625 
Q 42.28125 7.90625 37.25 3.296875 
Q 32.234375 -1.3125 24.703125 -1.3125 
Q 14.5 -1.3125 9.15625 6.203125 
Q 3.8125 13.71875 3.8125 24.5625 
Q 3.8125 35.796875 9.453125 43.234375 
Q 15.09375 50.6875 24.8125 50.6875 
Q 32.859375 50.6875 37.71875 45.875 
Q 42.578125 41.0625 43.75 33.453125 
L 36.8125 32.125 
Q 34.859375 44.34375 25 44.34375 
Q 18.65625 44.34375 15.234375 38.9375 
Q 11.8125 33.546875 11.8125 24.953125 
Q 11.8125 15.484375 15.203125 10.234375 
Q 18.609375 4.984375 24.75 4.984375 
Q 34.28125 4.984375 36.8125 17.28125 
z
" id="FranklinGothic-Book-99"/>
      <path d="M 1.03125 12.796875 
L 8.34375 14.3125 
Q 10.796875 4.984375 23.78125 4.984375 
Q 28.5625 4.984375 31.875 7.125 
Q 35.203125 9.28125 35.203125 13.1875 
Q 35.203125 19 26.765625 20.5625 
L 16.359375 22.515625 
Q 10.25 23.6875 6.640625 27.09375 
Q 3.03125 30.515625 3.03125 36.140625 
Q 3.03125 42.328125 7.953125 46.5 
Q 12.890625 50.6875 21.234375 50.6875 
Q 37.3125 50.6875 41.0625 38.140625 
L 34.03125 36.625 
Q 31 44.34375 21.578125 44.34375 
Q 16.890625 44.34375 13.890625 42.40625 
Q 10.890625 40.484375 10.890625 37.015625 
Q 10.890625 31.546875 18.5625 30.125 
L 28.171875 28.421875 
Q 43.265625 25.6875 43.265625 13.8125 
Q 43.265625 7.03125 37.640625 2.859375 
Q 32.03125 -1.3125 22.703125 -1.3125 
Q 5.171875 -1.3125 1.03125 12.796875 
z
" id="FranklinGothic-Book-115"/>
      <path d="M 46.34375 0 
L 38.671875 0 
L 38.671875 29.9375 
Q 38.671875 35.203125 38.015625 37.84375 
Q 37.359375 40.484375 34.890625 42.40625 
Q 32.421875 44.34375 29.203125 44.34375 
Q 23.296875 44.34375 19.3125 39.5 
Q 15.328125 34.671875 15.328125 26.5625 
L 15.328125 0 
L 7.671875 0 
L 7.671875 66.65625 
L 15.328125 66.65625 
L 15.328125 40.234375 
Q 20.5625 50.6875 30.28125 50.6875 
Q 34.625 50.6875 38.015625 48.96875 
Q 41.40625 47.265625 43.203125 44.484375 
Q 45.015625 41.703125 45.671875 38.984375 
Q 46.34375 36.28125 46.34375 29.9375 
z
" id="FranklinGothic-Book-104"/>
      <path d="M 46.484375 0 
L 39.59375 0 
L 39.59375 9.421875 
Q 34.328125 -1.3125 23.875 -1.3125 
Q 16.3125 -1.3125 11.984375 3.65625 
Q 7.671875 8.640625 7.671875 17.828125 
L 7.671875 49.3125 
L 15.328125 49.3125 
L 15.328125 17.828125 
Q 15.328125 10.5 18.375 7.734375 
Q 21.4375 4.984375 25.09375 4.984375 
Q 28.8125 4.984375 31.8125 7.078125 
Q 34.8125 9.1875 36.8125 13.0625 
Q 38.8125 16.9375 38.8125 21.53125 
L 38.8125 49.3125 
L 46.484375 49.3125 
z
" id="FranklinGothic-Book-117"/>
      <path d="M 73.734375 0 
L 66.265625 0 
L 66.265625 30.671875 
Q 66.265625 35.40625 65.59375 37.765625 
Q 64.9375 40.140625 62.390625 42.109375 
Q 59.859375 44.09375 56.6875 44.09375 
Q 52.296875 44.09375 48.21875 40.0625 
Q 44.140625 36.03125 44.140625 27.78125 
L 44.140625 0 
L 36.71875 0 
L 36.71875 32.46875 
Q 36.71875 38.96875 33.609375 41.65625 
Q 30.515625 44.34375 27.09375 44.34375 
Q 22.21875 44.34375 18.59375 40.140625 
Q 14.984375 35.9375 14.984375 29.5 
L 14.984375 0 
L 7.671875 0 
L 7.671875 49.3125 
L 14.265625 49.3125 
L 14.265625 39.84375 
Q 19.78125 50.6875 29.4375 50.6875 
Q 34.765625 50.6875 38.46875 47.21875 
Q 42.1875 43.75 43.265625 38.875 
Q 48.34375 50.6875 58.84375 50.6875 
Q 63.875 50.6875 67.65625 47.796875 
Q 71.4375 44.921875 72.578125 41.1875 
Q 73.734375 37.453125 73.734375 30.671875 
z
" id="FranklinGothic-Book-109"/>
      <path d="M 43.796875 49.3125 
L 26.765625 0 
L 18.796875 0 
L 1.171875 49.3125 
L 9.671875 49.3125 
L 23.390625 9.234375 
L 36.96875 49.3125 
z
" id="FranklinGothic-Book-118"/>
      <path d="M 11.375 0 
L 7.671875 0 
L 7.671875 66.65625 
L 15.328125 66.65625 
L 15.328125 41.109375 
Q 20.609375 50.6875 29.890625 50.6875 
Q 38.375 50.6875 44.109375 44 
Q 49.859375 37.3125 49.859375 24.5625 
Q 49.859375 13.578125 44.21875 6.125 
Q 38.578125 -1.3125 29.546875 -1.3125 
Q 19.484375 -1.3125 14.109375 8.15625 
z
M 15.328125 19.34375 
Q 15.875 11.765625 20 8.34375 
Q 24.125 4.9375 28.71875 4.9375 
Q 34.578125 4.9375 38.15625 10.015625 
Q 41.75 15.09375 41.75 23.921875 
Q 41.75 33.453125 38.28125 38.890625 
Q 34.8125 44.34375 28.65625 44.34375 
Q 23.828125 44.34375 19.9375 40.453125 
Q 16.0625 36.578125 15.328125 30.421875 
z
" id="FranklinGothic-Book-98"/>
     </defs>
     <use xlink:href="#FranklinGothic-Book-71"/>
     <use x="64.697266" xlink:href="#FranklinGothic-Book-114"/>
     <use x="97.65625" xlink:href="#FranklinGothic-Book-101"/>
     <use x="149.707031" xlink:href="#FranklinGothic-Book-101"/>
     <use x="201.757812" xlink:href="#FranklinGothic-Book-110"/>
     <use x="255.957031" xlink:href="#FranklinGothic-Book-108"/>
     <use x="278.955078" xlink:href="#FranklinGothic-Book-97"/>
     <use x="331.835938" xlink:href="#FranklinGothic-Book-110"/>
     <use x="386.035156" xlink:href="#FranklinGothic-Book-100"/>
     <use x="439.892578" xlink:href="#FranklinGothic-Book-32"/>
     <use x="464.892578" xlink:href="#FranklinGothic-Book-105"/>
     <use x="487.841797" xlink:href="#FranklinGothic-Book-99"/>
     <use x="534.423828" xlink:href="#FranklinGothic-Book-101"/>
     <use x="586.474609" xlink:href="#FranklinGothic-Book-32"/>
     <use x="611.474609" xlink:href="#FranklinGothic-Book-115"/>
     <use x="657.861328" xlink:href="#FranklinGothic-Book-104"/>
     <use x="711.865234" xlink:href="#FranklinGothic-Book-101"/>
     <use x="763.916016" xlink:href="#FranklinGothic-Book-101"/>
     <use x="815.466797" xlink:href="#FranklinGothic-Book-116"/>
     <use x="846.228516" xlink:href="#FranklinGothic-Book-32"/>
     <use x="871.228516" xlink:href="#FranklinGothic-Book-99"/>
     <use x="917.810547" xlink:href="#FranklinGothic-Book-117"/>
     <use x="971.960938" xlink:href="#FranklinGothic-Book-109"/>
     <use x="1053.357422" xlink:href="#FranklinGothic-Book-117"/>
     <use x="1107.507812" xlink:href="#FranklinGothic-Book-108"/>
     <use x="1130.505859" xlink:href="#FranklinGothic-Book-97"/>
     <use x="1183.386719" xlink:href="#FranklinGothic-Book-116"/>
     <use x="1214.148438" xlink:href="#FranklinGothic-Book-105"/>
     <use x="1237.097656" xlink:href="#FranklinGothic-Book-118"/>
     <use x="1280.617188" xlink:href="#FranklinGothic-Book-101"/>
     <use x="1332.667969" xlink:href="#FranklinGothic-Book-32"/>
     <use x="1357.667969" xlink:href="#FranklinGothic-Book-109"/>
     <use x="1439.064453" xlink:href="#FranklinGothic-Book-97"/>
     <use x="1491.945312" xlink:href="#FranklinGothic-Book-115"/>
     <use x="1538.332031" xlink:href="#FranklinGothic-Book-115"/>
     <use x="1584.71875" xlink:href="#FranklinGothic-Book-32"/>
     <use x="1609.71875" xlink:href="#FranklinGothic-Book-98"/>
     <use x="1663.429688" xlink:href="#FranklinGothic-Book-97"/>
     <use x="1716.310547" xlink:href="#FranklinGothic-Book-108"/>
     <use x="1739.308594" xlink:href="#FranklinGothic-Book-97"/>
     <use x="1792.189453" xlink:href="#FranklinGothic-Book-110"/>
     <use x="1846.388672" xlink:href="#FranklinGothic-Book-99"/>
     <use x="1892.970703" xlink:href="#FranklinGothic-Book-101"/>
    </g>
   </g>
   <g id="legend_1">
    <g id="line2d_12"/>
    <g id="text_15">
     <!-- Mankoff et al. 2021 (1986.01-2022.11) -->
     <g style="fill:#009e73;" transform="translate(644.79425 129.7184)scale(0.2 -0.2)">
      <defs>
       <path d="M 72.703125 0 
L 64.59375 0 
L 64.59375 58.203125 
L 42.921875 0 
L 37.25 0 
L 15.4375 58.203125 
L 15.4375 0 
L 8.34375 0 
L 8.34375 66.65625 
L 20.75 66.65625 
L 40.828125 13.328125 
L 60.5 66.65625 
L 72.703125 66.65625 
z
" id="FranklinGothic-Book-77"/>
       <path d="M 48.390625 0 
L 40.4375 0 
L 26.03125 27.546875 
L 15.328125 15.234375 
L 15.328125 0 
L 7.671875 0 
L 7.671875 66.65625 
L 15.328125 66.65625 
L 15.328125 23.96875 
L 38.234375 49.3125 
L 46.4375 49.3125 
L 31 31.984375 
z
" id="FranklinGothic-Book-107"/>
       <path d="M 25.34375 -1.3125 
Q 15.1875 -1.3125 9.5 6.203125 
Q 3.8125 13.71875 3.8125 24.859375 
Q 3.8125 36.625 10.203125 43.65625 
Q 16.609375 50.6875 26.125 50.6875 
Q 36.328125 50.6875 42.203125 43.28125 
Q 48.09375 35.890625 48.09375 24.8125 
Q 48.09375 13.28125 41.75 5.984375 
Q 35.40625 -1.3125 25.34375 -1.3125 
z
M 25.921875 4.984375 
Q 31.78125 4.984375 35.734375 9.8125 
Q 39.703125 14.65625 39.703125 24.859375 
Q 39.703125 35.109375 35.546875 39.71875 
Q 31.390625 44.34375 25.828125 44.34375 
Q 20.125 44.34375 16.15625 39.671875 
Q 12.203125 35.015625 12.203125 24.90625 
Q 12.203125 14.203125 16.15625 9.59375 
Q 20.125 4.984375 25.921875 4.984375 
z
" id="FranklinGothic-Book-111"/>
       <path d="M 28.125 49.3125 
L 28.125 43.3125 
L 16.40625 43.3125 
L 16.40625 0 
L 8.734375 0 
L 8.734375 43.3125 
L 0.34375 43.3125 
L 0.34375 49.3125 
L 8.734375 49.3125 
Q 8.9375 61.1875 13.296875 64.59375 
Q 17.671875 68.015625 23.96875 68.015625 
Q 27.046875 68.015625 31 67.328125 
L 31 61.234375 
Q 28.515625 61.859375 26.265625 61.859375 
Q 21.234375 61.859375 18.8125 59.640625 
Q 16.40625 57.421875 16.40625 51.3125 
L 16.40625 49.3125 
z
" id="FranklinGothic-Book-102"/>
       <path d="M 17.96875 10.9375 
L 17.96875 0 
L 7.078125 0 
L 7.078125 10.9375 
z
" id="FranklinGothic-Book-46"/>
       <path d="M 24.703125 -16.65625 
L 19.578125 -16.65625 
Q 5.21875 2.203125 5.21875 25.09375 
Q 5.21875 46.96875 19.578125 66.65625 
L 24.703125 66.65625 
Q 12.359375 48.25 12.359375 25 
Q 12.359375 2.828125 24.703125 -16.65625 
z
" id="FranklinGothic-Book-40"/>
       <path d="M 19.484375 34.578125 
Q 6.84375 40.09375 6.84375 50.59375 
Q 6.84375 58.203125 13.140625 63.109375 
Q 19.4375 68.015625 29.828125 68.015625 
Q 40.09375 68.015625 46.140625 63.296875 
Q 52.203125 58.59375 52.203125 50.984375 
Q 52.203125 40.375 39.265625 35.796875 
Q 49.703125 30.953125 52.359375 26.453125 
Q 55.03125 21.96875 55.03125 17.484375 
Q 55.03125 9.46875 48.21875 4.078125 
Q 41.40625 -1.3125 29.734375 -1.3125 
Q 17.28125 -1.3125 10.4375 4.171875 
Q 3.609375 9.671875 3.609375 17.234375 
Q 3.609375 28.515625 19.484375 34.578125 
z
M 29.59375 38.71875 
Q 37.984375 40.96875 41.453125 43.890625 
Q 44.921875 46.828125 44.921875 51.21875 
Q 44.921875 56.34375 40.796875 59 
Q 36.671875 61.671875 29.9375 61.671875 
Q 23.484375 61.671875 19.375 58.859375 
Q 15.28125 56.0625 15.28125 51.3125 
Q 15.28125 46.625 19.84375 43.203125 
Q 24.421875 39.796875 29.59375 38.71875 
z
M 28.65625 31.0625 
Q 11.765625 27.046875 11.765625 16.9375 
Q 11.765625 11.671875 16.375 8.328125 
Q 21 4.984375 29.984375 4.984375 
Q 37.59375 4.984375 42.234375 8.25 
Q 46.875 11.53125 46.875 16.609375 
Q 46.875 26.3125 28.65625 31.0625 
z
" id="FranklinGothic-Book-56"/>
       <path d="M 53.5625 53.03125 
L 46.046875 50.984375 
Q 42.1875 61.140625 31.984375 61.140625 
Q 13.234375 61.140625 12.796875 30.125 
Q 15.765625 37.015625 21.234375 40.328125 
Q 26.703125 43.65625 32.8125 43.65625 
Q 42.09375 43.65625 48.359375 37.1875 
Q 54.640625 30.71875 54.640625 21.6875 
Q 54.640625 12.3125 47.96875 5.5 
Q 41.3125 -1.3125 30.90625 -1.3125 
Q 19.09375 -1.3125 12.078125 7.59375 
Q 5.078125 16.5 5.078125 31.84375 
Q 5.078125 46.828125 11.6875 57.421875 
Q 18.3125 68.015625 32.171875 68.015625 
Q 48.140625 68.015625 53.5625 53.03125 
z
M 30.765625 5.375 
Q 37.84375 5.375 42.359375 10.03125 
Q 46.875 14.703125 46.875 21.234375 
Q 46.875 27.6875 42.453125 32.296875 
Q 38.03125 36.921875 31.5 36.921875 
Q 24.75 36.921875 19.71875 32.078125 
Q 14.703125 27.25 14.703125 20.75 
Q 14.703125 14.75 19.1875 10.0625 
Q 23.6875 5.375 30.765625 5.375 
z
" id="FranklinGothic-Book-54"/>
       <path d="M 23.53125 27.984375 
L 23.53125 22.015625 
L 1.46875 22.015625 
L 1.46875 27.984375 
z
" id="FranklinGothic-Book-45"/>
       <path d="M 4.640625 66.65625 
L 9.71875 66.65625 
Q 24.125 47.796875 24.125 24.90625 
Q 24.125 3.03125 9.71875 -16.65625 
L 4.640625 -16.65625 
Q 17 1.765625 17 25 
Q 17 47.171875 4.640625 66.65625 
z
" id="FranklinGothic-Book-41"/>
      </defs>
      <use xlink:href="#FranklinGothic-Book-77"/>
      <use x="81.005859" xlink:href="#FranklinGothic-Book-97"/>
      <use x="133.886719" xlink:href="#FranklinGothic-Book-110"/>
      <use x="188.085938" xlink:href="#FranklinGothic-Book-107"/>
      <use x="236.058594" xlink:href="#FranklinGothic-Book-111"/>
      <use x="288.011719" xlink:href="#FranklinGothic-Book-102"/>
      <use x="320.617188" xlink:href="#FranklinGothic-Book-102"/>
      <use x="350.597656" xlink:href="#FranklinGothic-Book-32"/>
      <use x="375.597656" xlink:href="#FranklinGothic-Book-101"/>
      <use x="427.148438" xlink:href="#FranklinGothic-Book-116"/>
      <use x="457.910156" xlink:href="#FranklinGothic-Book-32"/>
      <use x="482.910156" xlink:href="#FranklinGothic-Book-97"/>
      <use x="535.791016" xlink:href="#FranklinGothic-Book-108"/>
      <use x="558.789062" xlink:href="#FranklinGothic-Book-46"/>
      <use x="583.789062" xlink:href="#FranklinGothic-Book-32"/>
      <use x="608.789062" xlink:href="#FranklinGothic-Book-50"/>
      <use x="667.431641" xlink:href="#FranklinGothic-Book-48"/>
      <use x="726.074219" xlink:href="#FranklinGothic-Book-50"/>
      <use x="781.216797" xlink:href="#FranklinGothic-Book-49"/>
      <use x="839.859375" xlink:href="#FranklinGothic-Book-32"/>
      <use x="864.859375" xlink:href="#FranklinGothic-Book-40"/>
      <use x="894.205078" xlink:href="#FranklinGothic-Book-49"/>
      <use x="951.472656" xlink:href="#FranklinGothic-Book-57"/>
      <use x="1010.115234" xlink:href="#FranklinGothic-Book-56"/>
      <use x="1068.757812" xlink:href="#FranklinGothic-Book-54"/>
      <use x="1127.400391" xlink:href="#FranklinGothic-Book-46"/>
      <use x="1152.400391" xlink:href="#FranklinGothic-Book-48"/>
      <use x="1207.292969" xlink:href="#FranklinGothic-Book-49"/>
      <use x="1265.935547" xlink:href="#FranklinGothic-Book-45"/>
      <use x="1290.935547" xlink:href="#FranklinGothic-Book-50"/>
      <use x="1349.578125" xlink:href="#FranklinGothic-Book-48"/>
      <use x="1408.220703" xlink:href="#FranklinGothic-Book-50"/>
      <use x="1466.863281" xlink:href="#FranklinGothic-Book-50"/>
      <use x="1525.505859" xlink:href="#FranklinGothic-Book-46"/>
      <use x="1546.630859" xlink:href="#FranklinGothic-Book-49"/>
      <use x="1603.523438" xlink:href="#FranklinGothic-Book-49"/>
      <use x="1662.166016" xlink:href="#FranklinGothic-Book-41"/>
     </g>
    </g>
    <g id="line2d_13"/>
    <g id="text_16">
     <!-- IMBIE 2021 (1992.01-2020.12) -->
     <g style="fill:#d55e00;" transform="translate(644.79425 157.04965)scale(0.2 -0.2)">
      <defs>
       <path d="M 16.703125 0 
L 8.34375 0 
L 8.34375 66.65625 
L 16.703125 66.65625 
z
" id="FranklinGothic-Book-73"/>
       <path d="M 8.34375 0 
L 8.34375 66.65625 
L 34.71875 66.65625 
Q 44.671875 66.65625 49.484375 61.765625 
Q 54.296875 56.890625 54.296875 50.4375 
Q 54.296875 39.109375 42.484375 35.40625 
Q 49.515625 33.59375 52.921875 28.953125 
Q 56.34375 24.3125 56.34375 18.453125 
Q 56.34375 10.59375 51.046875 5.296875 
Q 45.75 0 34.71875 0 
z
M 16.40625 38.09375 
L 30.90625 38.09375 
Q 39.9375 38.09375 42.96875 41.53125 
Q 46 44.96875 46 49.609375 
Q 46 54.203125 42.75 57.03125 
Q 39.5 59.859375 33.0625 59.859375 
L 16.40625 59.859375 
z
M 16.40625 7.328125 
L 34.28125 7.328125 
Q 40.828125 7.328125 44.390625 10.5 
Q 47.953125 13.671875 47.953125 18.75 
Q 47.953125 22.3125 46.34375 25.359375 
Q 44.734375 28.421875 41.796875 30.078125 
Q 38.875 31.734375 33.0625 31.734375 
L 16.40625 31.734375 
z
" id="FranklinGothic-Book-66"/>
       <path d="M 51.46875 7.328125 
L 51.46875 0 
L 8.34375 0 
L 8.34375 66.65625 
L 50.53125 66.65625 
L 50.53125 59.328125 
L 16.703125 59.328125 
L 16.703125 38.140625 
L 43.5625 38.140625 
L 43.5625 31.34375 
L 16.703125 31.34375 
L 16.703125 7.328125 
z
" id="FranklinGothic-Book-69"/>
      </defs>
      <use xlink:href="#FranklinGothic-Book-73"/>
      <use x="25" xlink:href="#FranklinGothic-Book-77"/>
      <use x="106.005859" xlink:href="#FranklinGothic-Book-66"/>
      <use x="166.455078" xlink:href="#FranklinGothic-Book-73"/>
      <use x="191.455078" xlink:href="#FranklinGothic-Book-69"/>
      <use x="246.240234" xlink:href="#FranklinGothic-Book-32"/>
      <use x="271.240234" xlink:href="#FranklinGothic-Book-50"/>
      <use x="329.882812" xlink:href="#FranklinGothic-Book-48"/>
      <use x="388.525391" xlink:href="#FranklinGothic-Book-50"/>
      <use x="443.667969" xlink:href="#FranklinGothic-Book-49"/>
      <use x="502.310547" xlink:href="#FranklinGothic-Book-32"/>
      <use x="527.310547" xlink:href="#FranklinGothic-Book-40"/>
      <use x="556.65625" xlink:href="#FranklinGothic-Book-49"/>
      <use x="613.923828" xlink:href="#FranklinGothic-Book-57"/>
      <use x="672.566406" xlink:href="#FranklinGothic-Book-57"/>
      <use x="731.208984" xlink:href="#FranklinGothic-Book-50"/>
      <use x="789.851562" xlink:href="#FranklinGothic-Book-46"/>
      <use x="814.851562" xlink:href="#FranklinGothic-Book-48"/>
      <use x="869.744141" xlink:href="#FranklinGothic-Book-49"/>
      <use x="928.386719" xlink:href="#FranklinGothic-Book-45"/>
      <use x="953.386719" xlink:href="#FranklinGothic-Book-50"/>
      <use x="1012.029297" xlink:href="#FranklinGothic-Book-48"/>
      <use x="1070.671875" xlink:href="#FranklinGothic-Book-50"/>
      <use x="1129.314453" xlink:href="#FranklinGothic-Book-48"/>
      <use x="1187.957031" xlink:href="#FranklinGothic-Book-46"/>
      <use x="1209.082031" xlink:href="#FranklinGothic-Book-49"/>
      <use x="1267.724609" xlink:href="#FranklinGothic-Book-50"/>
      <use x="1326.367188" xlink:href="#FranklinGothic-Book-41"/>
     </g>
    </g>
    <g id="line2d_14"/>
    <g id="text_17">
     <!-- NASA GRACE (2002.04-2022.07) -->
     <g style="fill:#56b4e9;" transform="translate(644.79425 184.3809)scale(0.2 -0.2)">
      <defs>
       <path d="M 57.421875 0 
L 49.3125 0 
L 14.84375 58.109375 
L 14.9375 53.71875 
Q 15.09375 51.21875 15.09375 49.515625 
L 15.09375 0 
L 8.34375 0 
L 8.34375 66.65625 
L 18.796875 66.65625 
L 51.03125 12.3125 
L 50.921875 16.9375 
Q 50.828125 19.671875 50.828125 21.78125 
L 50.828125 66.65625 
L 57.421875 66.65625 
z
" id="FranklinGothic-Book-78"/>
       <path d="M 53.21875 0 
L 44.671875 0 
L 37.9375 19.484375 
L 13.28125 19.484375 
L 7.328125 0 
L 0.34375 0 
L 21.96875 66.65625 
L 31.5 66.65625 
z
M 36.1875 25.734375 
L 25.921875 57.765625 
L 15.578125 25.734375 
z
" id="FranklinGothic-Book-65"/>
       <path d="M 1.03125 17.71875 
L 8.546875 19.4375 
Q 13.09375 5.8125 28.21875 5.8125 
Q 36.140625 5.8125 40.140625 9.15625 
Q 44.140625 12.5 44.140625 18.109375 
Q 44.140625 22.359375 41.078125 24.953125 
Q 38.03125 27.546875 34.03125 28.515625 
L 20.703125 31.84375 
Q 15.53125 33.15625 12.234375 35.03125 
Q 8.9375 36.921875 6.640625 40.828125 
Q 4.34375 44.734375 4.34375 49.75 
Q 4.34375 58.109375 10.640625 63.0625 
Q 16.9375 68.015625 26.8125 68.015625 
Q 44.96875 68.015625 50.6875 51.5625 
L 43.109375 49.3125 
Q 41.796875 55.171875 36.90625 58.171875 
Q 32.03125 61.1875 26.515625 61.1875 
Q 21.046875 61.1875 16.765625 58.296875 
Q 12.5 55.421875 12.5 50.140625 
Q 12.5 42.78125 23.34375 40.1875 
L 35.796875 37.203125 
Q 52.875 33.109375 52.875 18.796875 
Q 52.875 10.15625 46.453125 4.421875 
Q 40.046875 -1.3125 28.375 -1.3125 
Q 7.671875 -1.3125 1.03125 17.71875 
z
" id="FranklinGothic-Book-83"/>
       <path d="M 56.296875 0 
L 47.5625 0 
L 35.25 28.859375 
L 16.15625 28.859375 
L 16.15625 0 
L 8.34375 0 
L 8.34375 66.65625 
L 34.625 66.65625 
Q 45.3125 66.65625 50.453125 60.8125 
Q 55.609375 54.984375 55.609375 48.046875 
Q 55.609375 42.71875 52.734375 37.828125 
Q 49.859375 32.953125 43.21875 30.859375 
z
M 16.15625 35.640625 
L 33.59375 35.640625 
Q 40.484375 35.640625 43.875 39.28125 
Q 47.265625 42.921875 47.265625 48.1875 
Q 47.265625 53.46875 43.671875 56.390625 
Q 40.09375 59.328125 34.625 59.328125 
L 16.15625 59.328125 
z
" id="FranklinGothic-Book-82"/>
       <path d="M 48.296875 22.40625 
L 55.90625 20.703125 
Q 50.4375 -1.3125 31.203125 -1.3125 
Q 18.5625 -1.3125 11.359375 8.890625 
Q 4.15625 19.09375 4.15625 33.984375 
Q 4.15625 49.359375 11.671875 58.6875 
Q 19.1875 68.015625 31.84375 68.015625 
Q 50.59375 68.015625 55.90625 46.578125 
L 48.046875 45.015625 
Q 43.75 60.9375 31.78125 60.9375 
Q 22.953125 60.9375 18.09375 53.53125 
Q 13.234375 46.140625 13.234375 32.765625 
Q 13.234375 20.515625 18.203125 13.109375 
Q 23.1875 5.71875 31.390625 5.71875 
Q 44.140625 5.71875 48.296875 22.40625 
z
" id="FranklinGothic-Book-67"/>
       <path d="M 28.078125 0 
L 19.484375 0 
Q 19.484375 16.75 26.3125 32.59375 
Q 33.15625 48.4375 43.0625 59.328125 
L 6.890625 59.328125 
L 7.71875 66.65625 
L 51.765625 66.65625 
L 51.765625 61.671875 
Q 39.84375 47.3125 33.9375 31.78125 
Q 28.03125 16.265625 28.03125 2.296875 
Q 28.03125 1.515625 28.078125 0 
z
" id="FranklinGothic-Book-55"/>
      </defs>
      <use xlink:href="#FranklinGothic-Book-78"/>
      <use x="65.722656" xlink:href="#FranklinGothic-Book-65"/>
      <use x="119.287109" xlink:href="#FranklinGothic-Book-83"/>
      <use x="176.220703" xlink:href="#FranklinGothic-Book-65"/>
      <use x="229.785156" xlink:href="#FranklinGothic-Book-32"/>
      <use x="254.785156" xlink:href="#FranklinGothic-Book-71"/>
      <use x="319.482422" xlink:href="#FranklinGothic-Book-82"/>
      <use x="380.761719" xlink:href="#FranklinGothic-Book-65"/>
      <use x="431.826172" xlink:href="#FranklinGothic-Book-67"/>
      <use x="489.736328" xlink:href="#FranklinGothic-Book-69"/>
      <use x="544.521484" xlink:href="#FranklinGothic-Book-32"/>
      <use x="569.521484" xlink:href="#FranklinGothic-Book-40"/>
      <use x="598.867188" xlink:href="#FranklinGothic-Book-50"/>
      <use x="657.509766" xlink:href="#FranklinGothic-Book-48"/>
      <use x="716.152344" xlink:href="#FranklinGothic-Book-48"/>
      <use x="774.794922" xlink:href="#FranklinGothic-Book-50"/>
      <use x="833.4375" xlink:href="#FranklinGothic-Book-46"/>
      <use x="858.4375" xlink:href="#FranklinGothic-Book-48"/>
      <use x="917.080078" xlink:href="#FranklinGothic-Book-52"/>
      <use x="975.722656" xlink:href="#FranklinGothic-Book-45"/>
      <use x="1000.722656" xlink:href="#FranklinGothic-Book-50"/>
      <use x="1059.365234" xlink:href="#FranklinGothic-Book-48"/>
      <use x="1118.007812" xlink:href="#FranklinGothic-Book-50"/>
      <use x="1176.650391" xlink:href="#FranklinGothic-Book-50"/>
      <use x="1235.292969" xlink:href="#FranklinGothic-Book-46"/>
      <use x="1260.292969" xlink:href="#FranklinGothic-Book-48"/>
      <use x="1313.310547" xlink:href="#FranklinGothic-Book-55"/>
      <use x="1371.953125" xlink:href="#FranklinGothic-Book-41"/>
     </g>
    </g>
   </g>
   <g id="line2d_15">
    <path clip-path="url(#p632ca88193)" d="M 542.656684 189.672977 
L 544.492966 185.080095 
L 550.00181 205.355087 
L 551.838091 206.818806 
L 553.674373 204.643819 
L 555.510654 204.656383 
L 557.346935 203.660327 
L 559.183217 200.311991 
L 561.019498 201.010695 
L 562.85578 196.547642 
L 564.692061 193.303308 
L 566.528342 192.801442 
L 570.200905 205.140101 
L 572.037186 214.585524 
L 573.873468 217.448746 
L 575.709749 217.260982 
L 577.54603 217.485042 
L 579.382312 214.690923 
L 581.218593 216.305412 
L 583.054875 216.826124 
L 584.891156 215.310054 
L 586.727437 211.031973 
L 588.563719 212.169026 
L 590.4 213.517574 
L 592.236281 220.30778 
L 594.072563 229.053103 
L 595.908844 231.841638 
L 597.745125 233.145514 
L 599.581407 230.195739 
L 601.417688 228.487717 
L 603.25397 229.488659 
L 605.090251 227.939084 
L 606.926532 224.770833 
L 608.762814 224.339465 
L 610.599095 221.705189 
L 612.435376 224.999081 
L 614.271658 234.00476 
L 616.107939 247.307366 
L 617.94422 251.863952 
L 619.780502 251.138025 
L 621.616783 251.036116 
L 623.453065 247.499318 
L 625.289346 249.134747 
L 627.125627 245.776638 
L 628.961909 244.450426 
L 630.79819 246.053747 
L 632.634471 245.476495 
L 634.470753 246.183576 
L 636.307034 252.228311 
L 638.143316 261.114631 
L 639.979597 265.295689 
L 641.815878 264.345005 
L 643.65216 266.306403 
L 645.488441 266.868996 
L 647.324722 264.583723 
L 649.161004 261.795885 
L 650.997285 262.495288 
L 652.833566 261.486668 
L 654.669848 260.649061 
L 656.506129 262.022039 
L 658.342411 271.078672 
L 660.178692 284.775652 
L 662.014973 289.144474 
L 663.851255 291.069576 
L 665.687536 289.471141 
L 667.523817 285.227262 
L 669.360099 282.528072 
L 671.19638 283.723756 
L 673.032661 279.939166 
L 674.868943 281.259794 
L 676.705224 282.394752 
L 678.541506 282.579724 
L 680.377787 292.848794 
L 682.214068 304.082509 
L 684.05035 308.553938 
L 685.886631 307.841274 
L 689.559194 297.514967 
L 691.395475 296.219467 
L 693.231756 299.456821 
L 695.068038 299.488929 
L 698.740601 296.753442 
L 700.576882 297.353728 
L 702.413163 304.961997 
L 704.249445 319.523807 
L 706.085726 323.338412 
L 707.922007 321.627598 
L 709.758289 320.357925 
L 711.59457 318.615003 
L 713.430852 318.80137 
L 715.267133 317.485628 
L 717.103414 316.73946 
L 718.939696 318.247851 
L 720.775977 316.063789 
L 722.612258 323.482201 
L 724.44854 335.764322 
L 726.284821 349.304251 
L 728.121102 356.150995 
L 729.957384 353.673073 
L 731.793665 354.801749 
L 733.629947 353.6284 
L 737.302509 352.188413 
L 739.138791 351.116275 
L 740.975072 350.791004 
L 742.811353 352.145835 
L 746.483916 365.39958 
L 748.320197 378.954167 
L 750.156479 382.984456 
L 751.99276 384.577306 
L 751.99276 384.511694 
L 757.501604 380.314581 
L 757.501604 381.027944 
L 759.337886 379.674509 
L 761.174167 376.594207 
L 763.010448 375.726585 
L 766.683011 377.795476 
L 768.519292 393.876846 
L 770.355574 415.617651 
L 772.191855 422.620052 
L 775.864418 417.974121 
L 777.700699 417.126741 
L 779.536981 416.784718 
L 781.373262 416.190715 
L 785.045825 416.118122 
L 786.882106 413.48245 
L 788.718387 412.295141 
L 790.554669 420.076516 
L 796.063513 424.45162 
L 797.899794 424.470467 
L 799.736076 423.72709 
L 801.572357 422.612373 
L 805.24492 419.016244 
L 807.081201 418.236571 
L 808.917483 418.073936 
L 810.753764 420.896674 
L 814.426327 440.624429 
L 816.262608 443.340372 
L 818.098889 442.116767 
L 819.935171 441.861296 
L 823.607733 435.893341 
L 825.444015 436.286319 
L 827.280296 433.181587 
L 829.116578 432.549193 
L 829.116578 432.375389 
L 834.625422 445.369476 
L 836.461703 454.814201 
L 838.297984 457.149731 
L 843.806828 453.393758 
L 845.64311 449.503768 
L 847.479391 451.014952 
L 849.315673 451.047061 
L 852.988235 448.823212 
L 854.824517 448.55099 
L 856.660798 460.639065 
L 858.497079 478.226034 
L 864.005923 469.634273 
L 865.842205 474.042184 
L 867.678486 470.379744 
L 873.18733 469.782949 
L 873.18733 467.429969 
L 875.023612 467.030011 
L 876.859893 468.943945 
L 898.895269 472.725046 
L 900.731551 474.390489 
L 906.240395 484.167465 
L 908.076676 481.802619 
L 909.912958 482.585782 
L 911.749239 482.937577 
L 913.58552 484.761468 
L 915.421802 486.215415 
L 917.258083 485.150956 
L 919.094364 483.863832 
L 920.930646 487.760802 
L 922.766927 501.841685 
L 924.603209 517.856744 
L 926.43949 524.304927 
L 928.275771 523.221621 
L 930.112053 520.289994 
L 931.948334 520.603399 
L 933.784615 523.232091 
L 935.620897 520.00451 
L 937.457178 522.467774 
L 939.293459 521.832588 
L 941.129741 519.934709 
L 942.966022 522.564099 
L 944.802304 533.266631 
L 946.638585 538.993076 
L 948.474866 539.342079 
L 950.311148 534.69196 
L 952.147429 534.349937 
L 953.98371 532.832471 
L 955.819992 528.626983 
L 957.656273 532.942756 
L 959.492555 532.627955 
L 961.328836 531.158652 
L 963.165117 534.334581 
L 965.001399 533.979994 
L 966.83768 536.553543 
L 968.673961 546.220932 
L 970.510243 549.706776 
L 972.346524 552.761252 
L 974.182805 550.068344 
L 976.019087 547.94431 
L 977.855368 547.2826 
L 979.69165 546.358439 
L 981.527931 545.277228 
L 983.364212 544.337013 
L 985.200494 546.15532 
L 987.036775 544.810261 
L 988.873056 550.305666 
L 988.873056 550.305666 
" style="fill:none;stroke:#56b4e9;stroke-linecap:round;"/>
   </g>
   <g id="line2d_16">
    <path clip-path="url(#p632ca88193)" d="M 316.794077 164.222309 
L 338.829453 164.860985 
L 359.028548 166.420059 
L 381.063924 173.837543 
L 403.099301 176.98856 
L 426.970958 176.459786 
L 447.170053 176.75923 
L 469.20543 180.559994 
L 491.240806 185.751165 
L 513.276183 187.807709 
L 535.311559 193.171001 
L 559.183217 203.240895 
L 570.200905 208.502405 
L 573.873468 210.276109 
L 590.4 219.502225 
L 610.599095 231.650761 
L 627.125627 242.276639 
L 630.79819 244.762114 
L 656.506129 264.408823 
L 665.687536 271.582396 
L 696.904319 295.447291 
L 706.085726 303.244951 
L 709.758289 306.482486 
L 713.430852 309.930924 
L 720.775977 317.23533 
L 739.138791 336.039595 
L 750.156479 347.796724 
L 757.501604 355.467354 
L 772.191855 370.472907 
L 775.864418 373.922371 
L 777.700699 375.552733 
L 799.736076 390.369838 
L 810.753764 396.576818 
L 821.771452 403.074337 
L 823.607733 404.289098 
L 832.78914 409.576706 
L 843.806828 416.038647 
L 852.988235 420.931002 
L 864.005923 426.931058 
L 865.842205 427.878783 
L 887.877581 433.915889 
L 891.550144 435.32508 
L 898.895269 438.578516 
L 900.731551 439.438272 
L 906.240395 443.776039 
L 909.912958 446.914555 
L 924.603209 467.598091 
L 933.784615 480.528213 
L 953.98371 505.669161 
L 953.98371 505.669161 
" style="fill:none;stroke:#d55e00;stroke-linecap:round;"/>
   </g>
   <g id="line2d_17">
    <path clip-path="url(#p632ca88193)" d="M 184.581818 114.055088 
L 186.4181 111.661107 
L 188.254381 110.467668 
L 190.090662 108.010162 
L 191.926944 108.306901 
L 193.763225 109.894905 
L 195.599506 116.220634 
L 197.435788 118.106341 
L 199.272069 116.215999 
L 201.10835 115.269639 
L 202.944632 115.65469 
L 204.780913 113.03234 
L 206.617195 107.615188 
L 208.453476 106.490787 
L 210.289757 104.950204 
L 213.96232 100.44 
L 215.798601 105.357108 
L 217.634883 114.328238 
L 219.471164 122.311503 
L 221.307445 121.416779 
L 223.143727 120.29584 
L 224.980008 117.620204 
L 226.81629 116.508463 
L 228.652571 116.090652 
L 230.488852 114.504182 
L 232.325134 113.849281 
L 234.161415 114.088899 
L 235.997696 112.745296 
L 237.833978 113.104038 
L 239.670259 124.336183 
L 241.506541 129.712683 
L 243.342822 129.281562 
L 245.179103 127.610064 
L 247.015385 125.277386 
L 248.851666 124.027932 
L 250.687947 124.078878 
L 252.524229 124.723762 
L 254.36051 124.778632 
L 256.196791 125.517543 
L 258.033073 125.434194 
L 259.869354 129.035667 
L 261.705636 139.020886 
L 263.541917 143.730468 
L 265.378198 141.889559 
L 267.21448 140.63426 
L 269.050761 137.880657 
L 270.887042 135.533694 
L 272.723324 135.203389 
L 276.395886 136.048048 
L 278.232168 135.709528 
L 280.068449 134.30081 
L 281.904731 139.81797 
L 283.741012 150.671437 
L 285.577293 155.581415 
L 289.249856 151.575812 
L 292.922419 145.217175 
L 294.7587 143.064574 
L 296.594981 140.486677 
L 298.431263 139.88294 
L 300.267544 140.639613 
L 302.103826 138.537658 
L 303.940107 143.500541 
L 305.776388 155.389042 
L 307.61267 158.266969 
L 309.448951 157.637433 
L 311.285232 154.089282 
L 313.121514 153.625982 
L 316.794077 147.563223 
L 318.630358 146.365012 
L 320.466639 145.962413 
L 322.302921 145.936938 
L 324.139202 145.13193 
L 325.975483 143.957097 
L 327.811765 149.192076 
L 329.648046 151.587219 
L 331.484327 150.104092 
L 333.320609 146.53588 
L 335.15689 145.24303 
L 336.993172 144.625584 
L 338.829453 144.681021 
L 340.665734 141.724924 
L 342.502016 140.402918 
L 344.338297 139.429395 
L 346.174578 139.968166 
L 348.01086 144.349018 
L 349.847141 156.327871 
L 351.683422 159.518747 
L 353.519704 158.530222 
L 355.355985 155.557303 
L 357.192267 151.423703 
L 359.028548 150.989234 
L 360.864829 150.985553 
L 362.701111 148.429111 
L 364.537392 148.685909 
L 366.373673 147.688821 
L 368.209955 147.553042 
L 370.046236 149.196921 
L 371.882517 158.638425 
L 373.718799 161.953563 
L 375.55508 160.513821 
L 377.391362 160.581029 
L 379.227643 159.566949 
L 381.063924 158.93348 
L 382.900206 159.715722 
L 384.736487 160.254982 
L 386.572768 160.243047 
L 388.40905 160.659032 
L 390.245331 161.473459 
L 392.081613 166.0104 
L 393.917894 177.944859 
L 395.754175 182.453703 
L 397.590457 180.570645 
L 399.426738 180.470338 
L 401.263019 176.398269 
L 403.099301 173.749281 
L 406.771863 167.143555 
L 408.608145 163.153605 
L 410.444426 162.298406 
L 412.280708 162.538186 
L 414.116989 165.183215 
L 415.95327 172.130871 
L 417.789552 173.418456 
L 419.625833 170.506467 
L 421.462114 169.55628 
L 423.298396 167.388639 
L 426.970958 161.629598 
L 428.80724 161.200203 
L 430.643521 161.537862 
L 432.479803 159.564818 
L 434.316084 160.119204 
L 436.152365 165.019059 
L 437.988647 172.307616 
L 439.824928 174.37033 
L 443.497491 168.641212 
L 445.333772 167.189613 
L 447.170053 164.040727 
L 449.006335 162.805593 
L 450.842616 162.276906 
L 452.678898 160.616822 
L 454.515179 159.52451 
L 456.35146 157.968785 
L 458.187742 165.355343 
L 460.024023 178.709518 
L 461.860304 182.986907 
L 463.696586 184.677652 
L 465.532867 183.934587 
L 467.369148 181.711611 
L 469.20543 180.934859 
L 471.041711 179.990439 
L 472.877993 177.932397 
L 474.714274 178.088254 
L 476.550555 177.597045 
L 478.386837 175.312452 
L 480.223118 175.756782 
L 482.059399 187.611205 
L 483.895681 191.527798 
L 485.731962 190.065265 
L 487.568244 188.134365 
L 489.404525 184.873657 
L 491.240806 184.2218 
L 493.077088 181.354634 
L 494.913369 181.115737 
L 496.74965 180.542927 
L 498.585932 178.559891 
L 500.422213 177.614289 
L 502.258494 182.788464 
L 504.094776 189.967383 
L 505.931057 194.572925 
L 507.767339 191.927663 
L 509.60362 191.261291 
L 511.439901 189.279874 
L 513.276183 189.611904 
L 515.112464 187.111317 
L 516.948745 185.522928 
L 518.785027 186.016128 
L 520.621308 185.79789 
L 522.457589 184.334878 
L 524.293871 187.447635 
L 526.130152 196.382688 
L 527.966434 203.38753 
L 529.802715 201.477052 
L 531.638996 200.168033 
L 535.311559 191.42893 
L 537.14784 189.632762 
L 538.984122 190.189355 
L 542.656684 190.437781 
L 544.492966 190.802795 
L 546.329247 196.777885 
L 548.165529 208.421245 
L 550.00181 212.063544 
L 551.838091 210.260628 
L 555.510654 204.902759 
L 557.346935 201.366925 
L 559.183217 199.214877 
L 562.85578 195.460624 
L 564.692061 192.112581 
L 566.528342 191.828974 
L 568.364624 200.10249 
L 570.200905 213.990614 
L 572.037186 219.60402 
L 573.873468 218.074187 
L 575.709749 215.137038 
L 577.54603 213.910089 
L 579.382312 213.042334 
L 581.218593 213.614577 
L 583.054875 211.564893 
L 584.891156 208.207779 
L 586.727437 207.068463 
L 588.563719 207.855076 
L 590.4 213.118091 
L 592.236281 222.688018 
L 594.072563 228.29755 
L 595.908844 227.446615 
L 597.745125 225.691297 
L 599.581407 224.485573 
L 601.417688 224.643052 
L 603.25397 221.886495 
L 605.090251 218.715073 
L 606.926532 216.240916 
L 608.762814 214.787198 
L 610.599095 214.954196 
L 612.435376 220.681319 
L 614.271658 234.00476 
L 616.107939 240.96195 
L 617.94422 241.540019 
L 619.780502 241.462439 
L 621.616783 238.504515 
L 623.453065 236.398045 
L 625.289346 234.777334 
L 627.125627 234.277806 
L 628.961909 235.563603 
L 630.79819 234.279296 
L 632.634471 234.785065 
L 634.470753 236.465178 
L 636.307034 246.996845 
L 638.143316 254.172227 
L 639.979597 254.417825 
L 641.815878 254.976472 
L 643.65216 255.178593 
L 647.324722 251.256341 
L 649.161004 250.634073 
L 650.997285 249.821917 
L 652.833566 248.695398 
L 654.669848 249.355398 
L 656.506129 254.848795 
L 658.342411 270.754704 
L 660.178692 278.88141 
L 662.014973 276.752192 
L 663.851255 275.769842 
L 665.687536 272.699559 
L 667.523817 271.098499 
L 669.360099 270.565275 
L 671.19638 269.0805 
L 673.032661 268.885582 
L 674.868943 268.497686 
L 676.705224 268.434844 
L 678.541506 275.976949 
L 680.377787 290.357531 
L 682.214068 296.288174 
L 685.886631 290.918827 
L 687.722912 287.756762 
L 689.559194 285.04356 
L 691.395475 284.339929 
L 693.231756 284.282627 
L 695.068038 284.670002 
L 696.904319 283.534305 
L 698.740601 283.257848 
L 700.576882 286.144228 
L 702.413163 299.353745 
L 704.249445 306.847206 
L 706.085726 305.03109 
L 707.922007 304.112007 
L 709.758289 304.085774 
L 711.59457 301.874149 
L 713.430852 298.569718 
L 715.267133 298.057385 
L 717.103414 298.450477 
L 718.939696 299.19226 
L 720.775977 300.133905 
L 722.612258 307.706051 
L 724.44854 324.237827 
L 726.284821 332.60991 
L 728.121102 331.621014 
L 731.793665 330.353023 
L 733.629947 327.988436 
L 735.466228 327.222173 
L 737.302509 324.850146 
L 739.138791 325.003584 
L 740.975072 323.438916 
L 742.811353 324.02941 
L 744.647635 330.794045 
L 746.483916 346.917505 
L 748.320197 354.690226 
L 750.156479 353.71811 
L 751.99276 353.16535 
L 753.829042 350.930594 
L 755.665323 351.03565 
L 759.337886 348.03087 
L 761.174167 345.546929 
L 763.010448 344.349819 
L 764.84673 344.858164 
L 766.683011 355.688818 
L 768.519292 376.8935 
L 770.355574 386.954862 
L 772.191855 386.032009 
L 774.028137 382.727696 
L 775.864418 381.375757 
L 777.700699 380.729062 
L 779.536981 377.767339 
L 781.373262 376.225191 
L 783.209543 376.639612 
L 785.045825 376.913901 
L 786.882106 375.625037 
L 788.718387 379.618067 
L 790.554669 391.076818 
L 792.39095 394.269493 
L 794.227232 390.714057 
L 796.063513 389.56302 
L 797.899794 387.904069 
L 799.736076 387.719907 
L 801.572357 386.014187 
L 803.408638 385.699373 
L 805.24492 385.119308 
L 807.081201 383.422141 
L 808.917483 383.537463 
L 810.753764 388.256808 
L 812.590045 402.21564 
L 814.426327 408.645903 
L 816.262608 405.803046 
L 818.098889 405.530244 
L 819.935171 402.343326 
L 821.771452 400.437134 
L 823.607733 399.44322 
L 825.444015 398.698206 
L 827.280296 398.074042 
L 829.116578 397.576891 
L 830.952859 396.72079 
L 832.78914 401.848535 
L 834.625422 418.823467 
L 836.461703 423.643739 
L 838.297984 420.554156 
L 840.134266 417.020808 
L 841.970547 416.071894 
L 843.806828 415.304016 
L 845.64311 413.919789 
L 847.479391 413.990882 
L 849.315673 412.708606 
L 851.151954 410.941283 
L 852.988235 410.857763 
L 854.824517 417.290764 
L 856.660798 436.087071 
L 858.497079 443.500772 
L 860.333361 443.475881 
L 862.169642 437.948009 
L 864.005923 434.749085 
L 865.842205 433.316402 
L 867.678486 431.541926 
L 869.514768 429.012811 
L 871.351049 429.412014 
L 873.18733 428.486153 
L 875.023612 427.793309 
L 876.859893 433.215022 
L 878.696174 444.012698 
L 880.532456 447.6241 
L 884.205019 441.471445 
L 886.0413 440.328329 
L 887.877581 440.339121 
L 889.713863 439.807213 
L 891.550144 435.923648 
L 893.386425 436.029928 
L 895.222707 435.840256 
L 897.058988 434.541254 
L 898.895269 436.328167 
L 900.731551 443.275993 
L 902.567832 449.100471 
L 904.404114 448.044253 
L 906.240395 447.204933 
L 908.076676 445.904759 
L 909.912958 445.4164 
L 911.749239 444.061516 
L 913.58552 443.839392 
L 915.421802 443.873934 
L 917.258083 439.812111 
L 919.094364 442.322597 
L 920.930646 450.004078 
L 922.766927 468.234966 
L 924.603209 478.337912 
L 926.43949 477.63871 
L 928.275771 476.658956 
L 930.112053 473.994817 
L 931.948334 474.170253 
L 933.784615 473.268823 
L 935.620897 473.368368 
L 937.457178 472.890878 
L 939.293459 471.325351 
L 941.129741 472.304782 
L 942.966022 474.998539 
L 944.802304 488.306719 
L 946.638585 492.307986 
L 948.474866 491.827602 
L 950.311148 489.199271 
L 952.147429 487.369735 
L 953.98371 486.306848 
L 955.819992 486.093928 
L 957.656273 484.634952 
L 959.492555 483.667768 
L 961.328836 482.510832 
L 963.165117 482.647811 
L 965.001399 486.814071 
L 966.83768 496.109494 
L 968.673961 504.431592 
L 970.510243 503.614364 
L 972.346524 503.30123 
L 974.182805 501.000702 
L 976.019087 500.097201 
L 977.855368 497.733923 
L 979.69165 497.08598 
L 981.527931 495.297554 
L 983.364212 494.589968 
L 985.200494 494.806074 
L 987.036775 496.019871 
L 988.873056 507.153604 
L 990.709338 510.572437 
L 992.545619 509.264046 
L 994.3819 506.032462 
L 996.218182 504.296483 
L 996.218182 504.296483 
" style="fill:none;stroke:#009e73;stroke-linecap:round;"/>
   </g>
  </g>
 </g>
 <defs>
  <clipPath id="p632ca88193">
   <rect height="498.96" width="892.8" x="144" y="77.76"/>
  </clipPath>
 </defs>
</svg>
