<?xml version="1.0" encoding="utf-8" standalone="no"?>
<!DOCTYPE svg PUBLIC "-//W3C//DTD SVG 1.1//EN"
  "http://www.w3.org/Graphics/SVG/1.1/DTD/svg11.dtd">
<!-- Created with matplotlib (https://matplotlib.org/) -->
<svg height="648pt" version="1.1" viewBox="0 0 1152 648" width="1152pt" xmlns="http://www.w3.org/2000/svg" xmlns:xlink="http://www.w3.org/1999/xlink">
 <metadata>
  <rdf:RDF xmlns:cc="http://creativecommons.org/ns#" xmlns:dc="http://purl.org/dc/elements/1.1/" xmlns:rdf="http://www.w3.org/1999/02/22-rdf-syntax-ns#">
   <cc:Work>
    <dc:type rdf:resource="http://purl.org/dc/dcmitype/StillImage"/>
    <dc:date>2022-08-17T12:05:33.165209</dc:date>
    <dc:format>image/svg+xml</dc:format>
    <dc:creator>
     <cc:Agent>
      <dc:title>Matplotlib v3.3.1, https://matplotlib.org/</dc:title>
     </cc:Agent>
    </dc:creator>
   </cc:Work>
  </rdf:RDF>
 </metadata>
 <defs>
  <style type="text/css">*{stroke-linecap:butt;stroke-linejoin:round;}</style>
 </defs>
 <g id="figure_1">
  <g id="patch_1">
   <path d="M 0 648 
L 1152 648 
L 1152 0 
L 0 0 
z
" style="fill:#ffffff;"/>
  </g>
  <g id="axes_1">
   <g id="patch_2">
    <path d="M 144 576.72 
L 1036.8 576.72 
L 1036.8 77.76 
L 144 77.76 
z
" style="fill:none;"/>
   </g>
   <g id="patch_3">
    <path d="M 144 576.72 
L 1036.8 576.72 
" style="fill:none;stroke:#d3d3d3;stroke-linecap:square;stroke-linejoin:miter;stroke-width:1.25;"/>
   </g>
   <g id="matplotlib.axis_1">
    <g id="xtick_1">
     <g id="line2d_1">
      <defs>
       <path d="M 0 0 
L 0 6 
" id="m0aee73e444" style="stroke:#696969;stroke-width:1.25;"/>
      </defs>
      <g>
       <use style="fill:#696969;stroke:#696969;stroke-width:1.25;" x="216.680431" xlink:href="#m0aee73e444" y="576.72"/>
      </g>
     </g>
     <g id="text_1">
      <!-- 1980 -->
      <g style="fill:#696969;" transform="translate(199.191369 596.218438)scale(0.15 -0.15)">
       <defs>
        <path d="M 55.859375 6.203125 
L 55.859375 0 
L 9.1875 0 
L 9.1875 6.203125 
L 29.203125 6.203125 
L 29.203125 57.671875 
Q 20.359375 48.4375 10.84375 43.265625 
L 10.84375 51.65625 
Q 23.96875 58.546875 31.203125 68.015625 
L 37.15625 68.015625 
L 37.15625 6.203125 
z
" id="FranklinGothic-Book-49"/>
        <path d="M 5.71875 12.15625 
L 12.40625 14.59375 
Q 16.546875 5.375 26.375 5.375 
Q 35.890625 5.375 40.703125 13.375 
Q 45.515625 21.390625 45.65625 35.109375 
Q 39.109375 23.09375 25.984375 23.09375 
Q 16.703125 23.09375 10.40625 29.421875 
Q 4.109375 35.75 4.109375 45.0625 
Q 4.109375 54.546875 10.71875 61.28125 
Q 17.328125 68.015625 27.59375 68.015625 
Q 40.140625 68.015625 46.828125 59.203125 
Q 53.515625 50.390625 53.515625 34.96875 
Q 53.515625 18.75 46.4375 8.71875 
Q 39.359375 -1.3125 26.265625 -1.3125 
Q 10.984375 -1.3125 5.71875 12.15625 
z
M 27.828125 29.78125 
Q 34.71875 29.78125 39.375 34.59375 
Q 44.046875 39.40625 44.046875 45.84375 
Q 44.046875 52.09375 39.625 56.578125 
Q 35.203125 61.078125 27.984375 61.078125 
Q 20.65625 61.078125 16.40625 56.46875 
Q 12.15625 51.859375 12.15625 45.21875 
Q 12.15625 38.09375 16.859375 33.9375 
Q 21.578125 29.78125 27.828125 29.78125 
z
" id="FranklinGothic-Book-57"/>
        <path d="M 19.484375 34.578125 
Q 6.84375 40.09375 6.84375 50.59375 
Q 6.84375 58.203125 13.140625 63.109375 
Q 19.4375 68.015625 29.828125 68.015625 
Q 40.09375 68.015625 46.140625 63.296875 
Q 52.203125 58.59375 52.203125 50.984375 
Q 52.203125 40.375 39.265625 35.796875 
Q 49.703125 30.953125 52.359375 26.453125 
Q 55.03125 21.96875 55.03125 17.484375 
Q 55.03125 9.46875 48.21875 4.078125 
Q 41.40625 -1.3125 29.734375 -1.3125 
Q 17.28125 -1.3125 10.4375 4.171875 
Q 3.609375 9.671875 3.609375 17.234375 
Q 3.609375 28.515625 19.484375 34.578125 
z
M 29.59375 38.71875 
Q 37.984375 40.96875 41.453125 43.890625 
Q 44.921875 46.828125 44.921875 51.21875 
Q 44.921875 56.34375 40.796875 59 
Q 36.671875 61.671875 29.9375 61.671875 
Q 23.484375 61.671875 19.375 58.859375 
Q 15.28125 56.0625 15.28125 51.3125 
Q 15.28125 46.625 19.84375 43.203125 
Q 24.421875 39.796875 29.59375 38.71875 
z
M 28.65625 31.0625 
Q 11.765625 27.046875 11.765625 16.9375 
Q 11.765625 11.671875 16.375 8.328125 
Q 21 4.984375 29.984375 4.984375 
Q 37.59375 4.984375 42.234375 8.25 
Q 46.875 11.53125 46.875 16.609375 
Q 46.875 26.3125 28.65625 31.0625 
z
" id="FranklinGothic-Book-56"/>
        <path d="M 29.390625 -1.3125 
Q 17.875 -1.3125 10.984375 8.671875 
Q 4.109375 18.65625 4.109375 33.453125 
Q 4.109375 48 10.640625 58 
Q 17.1875 68.015625 29.15625 68.015625 
Q 41.65625 68.015625 48.125 57.5625 
Q 54.59375 47.125 54.59375 33.0625 
Q 54.59375 19.28125 47.953125 8.984375 
Q 41.3125 -1.3125 29.390625 -1.3125 
z
M 29.4375 5.21875 
Q 37.890625 5.21875 41.9375 12.859375 
Q 46 20.515625 46 32.078125 
Q 46 44.734375 41.84375 53.125 
Q 37.703125 61.53125 29.046875 61.53125 
Q 20.703125 61.53125 16.625 53.859375 
Q 12.546875 46.1875 12.546875 33.6875 
Q 12.546875 20.703125 16.84375 12.953125 
Q 21.140625 5.21875 29.4375 5.21875 
z
" id="FranklinGothic-Book-48"/>
       </defs>
       <use xlink:href="#FranklinGothic-Book-49"/>
       <use x="57.267578" xlink:href="#FranklinGothic-Book-57"/>
       <use x="115.910156" xlink:href="#FranklinGothic-Book-56"/>
       <use x="174.552734" xlink:href="#FranklinGothic-Book-48"/>
      </g>
     </g>
    </g>
    <g id="xtick_2">
     <g id="line2d_2">
      <g>
       <use style="fill:#696969;stroke:#696969;stroke-width:1.25;" x="400.101079" xlink:href="#m0aee73e444" y="576.72"/>
      </g>
     </g>
     <g id="text_2">
      <!-- 1990 -->
      <g style="fill:#696969;" transform="translate(382.612016 596.218438)scale(0.15 -0.15)">
       <use xlink:href="#FranklinGothic-Book-49"/>
       <use x="57.267578" xlink:href="#FranklinGothic-Book-57"/>
       <use x="115.910156" xlink:href="#FranklinGothic-Book-57"/>
       <use x="174.552734" xlink:href="#FranklinGothic-Book-48"/>
      </g>
     </g>
    </g>
    <g id="xtick_3">
     <g id="line2d_3">
      <g>
       <use style="fill:#696969;stroke:#696969;stroke-width:1.25;" x="583.521726" xlink:href="#m0aee73e444" y="576.72"/>
      </g>
     </g>
     <g id="text_3">
      <!-- 2000 -->
      <g style="fill:#696969;" transform="translate(565.929538 596.218438)scale(0.15 -0.15)">
       <defs>
        <path d="M 52.484375 6.9375 
L 52.484375 0 
L 5.171875 0 
L 5.171875 6.9375 
Q 33.203125 27.9375 38.59375 34.59375 
Q 44 41.265625 44 47.796875 
Q 44 53.90625 39.453125 57.65625 
Q 34.90625 61.421875 29 61.421875 
Q 22.90625 61.421875 18.21875 57.296875 
Q 13.53125 53.171875 12.9375 46.09375 
L 5.171875 48.4375 
Q 10.0625 68.015625 29.109375 68.015625 
Q 39.40625 68.015625 45.84375 62.15625 
Q 52.296875 56.296875 52.296875 47.859375 
Q 52.296875 42.046875 49.234375 36.671875 
Q 46.1875 31.296875 37.6875 23.828125 
Q 29.203125 16.359375 15.71875 6.9375 
z
" id="FranklinGothic-Book-50"/>
       </defs>
       <use xlink:href="#FranklinGothic-Book-50"/>
       <use x="58.642578" xlink:href="#FranklinGothic-Book-48"/>
       <use x="117.285156" xlink:href="#FranklinGothic-Book-48"/>
       <use x="175.927734" xlink:href="#FranklinGothic-Book-48"/>
      </g>
     </g>
    </g>
    <g id="xtick_4">
     <g id="line2d_4">
      <g>
       <use style="fill:#696969;stroke:#696969;stroke-width:1.25;" x="766.942373" xlink:href="#m0aee73e444" y="576.72"/>
      </g>
     </g>
     <g id="text_4">
      <!-- 2010 -->
      <g style="fill:#696969;" transform="translate(749.875185 596.218438)scale(0.15 -0.15)">
       <use xlink:href="#FranklinGothic-Book-50"/>
       <use x="58.642578" xlink:href="#FranklinGothic-Book-48"/>
       <use x="113.535156" xlink:href="#FranklinGothic-Book-49"/>
       <use x="168.927734" xlink:href="#FranklinGothic-Book-48"/>
      </g>
     </g>
    </g>
    <g id="xtick_5">
     <g id="line2d_5">
      <g>
       <use style="fill:#696969;stroke:#696969;stroke-width:1.25;" x="950.36302" xlink:href="#m0aee73e444" y="576.72"/>
      </g>
     </g>
     <g id="text_5">
      <!-- 2020 -->
      <g style="fill:#696969;" transform="translate(932.770833 596.218438)scale(0.15 -0.15)">
       <use xlink:href="#FranklinGothic-Book-50"/>
       <use x="58.642578" xlink:href="#FranklinGothic-Book-48"/>
       <use x="117.285156" xlink:href="#FranklinGothic-Book-50"/>
       <use x="175.927734" xlink:href="#FranklinGothic-Book-48"/>
      </g>
     </g>
    </g>
    <g id="text_6">
     <!-- Year -->
     <g style="fill:#696969;" transform="translate(572.109375 616.048125)scale(0.2 -0.2)">
      <defs>
       <path d="M 52 66.65625 
L 29.6875 28.03125 
L 29.6875 0 
L 21.34375 0 
L 21.34375 28.03125 
L -0.984375 66.65625 
L 8.84375 66.65625 
L 26.5625 35.984375 
L 44.390625 66.65625 
z
" id="FranklinGothic-Book-89"/>
       <path d="M 40.234375 14.703125 
L 47.359375 13.234375 
Q 45.40625 6.9375 39.734375 2.8125 
Q 34.078125 -1.3125 26.421875 -1.3125 
Q 16.3125 -1.3125 10.0625 5.78125 
Q 3.8125 12.890625 3.8125 24.421875 
Q 3.8125 36.1875 10.296875 43.4375 
Q 16.796875 50.6875 26.609375 50.6875 
Q 36.28125 50.6875 42.15625 44 
Q 48.046875 37.3125 48.1875 23.96875 
L 12.359375 23.96875 
Q 12.359375 12.796875 17.046875 8.890625 
Q 21.734375 4.984375 26.953125 4.984375 
Q 36.375 4.984375 40.234375 14.703125 
z
M 39.796875 29.6875 
Q 39.703125 33.84375 38.421875 37.0625 
Q 37.15625 40.28125 34.125 42.546875 
Q 31.109375 44.828125 26.859375 44.828125 
Q 21.140625 44.828125 17.15625 40.71875 
Q 13.1875 36.625 12.703125 29.6875 
z
" id="FranklinGothic-Book-101"/>
       <path d="M 46.296875 0 
L 38.671875 0 
Q 38.234375 2.34375 37.796875 8.890625 
Q 32.71875 -1.3125 20.515625 -1.3125 
Q 12.203125 -1.3125 7.765625 3.078125 
Q 3.328125 7.46875 3.328125 13.625 
Q 3.328125 21.09375 9.671875 25.90625 
Q 16.015625 30.71875 31.25 30.71875 
Q 33.296875 30.71875 37.796875 30.515625 
Q 37.796875 36.375 36.890625 38.984375 
Q 35.984375 41.609375 33.046875 43.171875 
Q 30.125 44.734375 25.34375 44.734375 
Q 13.671875 44.734375 11.765625 35.84375 
L 4.6875 37.0625 
Q 7.28125 50.6875 26.46875 50.6875 
Q 36.671875 50.6875 40.9375 46.171875 
Q 45.21875 41.65625 45.21875 30.515625 
L 45.21875 9.578125 
Q 45.21875 4.34375 46.296875 0 
z
M 37.796875 24.65625 
Q 33.109375 24.953125 30.671875 24.953125 
Q 21.578125 24.953125 16.546875 21.96875 
Q 11.53125 19 11.53125 13.28125 
Q 11.53125 9.671875 14.234375 7.125 
Q 16.9375 4.59375 22.078125 4.59375 
Q 29 4.59375 33.46875 9.625 
Q 37.9375 14.65625 37.9375 21.4375 
Q 37.9375 22.796875 37.796875 24.65625 
z
" id="FranklinGothic-Book-97"/>
       <path d="M 15.328125 0 
L 7.671875 0 
L 7.671875 49.3125 
L 14.40625 49.3125 
L 14.40625 37.796875 
Q 17.96875 45.953125 21.546875 48.359375 
Q 25.140625 50.78125 28.90625 50.78125 
Q 30.078125 50.78125 31.9375 50.59375 
L 31.9375 43.265625 
L 30.375 43.265625 
Q 24.03125 43.265625 19.828125 38.53125 
Q 15.625 33.796875 15.328125 26.078125 
z
" id="FranklinGothic-Book-114"/>
      </defs>
      <use xlink:href="#FranklinGothic-Book-89"/>
      <use x="45.025391" xlink:href="#FranklinGothic-Book-101"/>
      <use x="97.076172" xlink:href="#FranklinGothic-Book-97"/>
      <use x="149.957031" xlink:href="#FranklinGothic-Book-114"/>
     </g>
    </g>
   </g>
   <g id="matplotlib.axis_2">
    <g id="ytick_1">
     <g id="line2d_6">
      <path clip-path="url(#p642f22691a)" d="M 144 531.933711 
L 1036.8 531.933711 
" style="fill:none;stroke:#d3d3d3;stroke-linecap:round;stroke-opacity:0.5;"/>
     </g>
     <g id="text_7">
      <!-- 1500 -->
      <g style="fill:#696969;" transform="translate(99.521875 536.93293)scale(0.15 -0.15)">
       <defs>
        <path d="M 48.875 66.65625 
L 48.1875 59.46875 
L 15.4375 59.46875 
L 14.015625 37.84375 
Q 21.4375 45.125 30.328125 45.125 
Q 39.703125 45.125 46.515625 38.625 
Q 53.328125 32.125 53.328125 22.015625 
Q 53.328125 11.765625 45.921875 5.21875 
Q 38.53125 -1.3125 27.828125 -1.3125 
Q 19.4375 -1.3125 12.890625 3.078125 
Q 6.34375 7.46875 4.296875 14.453125 
L 11.421875 16.890625 
Q 15.828125 5.28125 27.9375 5.28125 
Q 35.890625 5.28125 40.578125 9.984375 
Q 45.265625 14.703125 45.265625 22.015625 
Q 45.265625 29.6875 40.625 33.984375 
Q 35.984375 38.28125 29.5 38.28125 
Q 20.015625 38.28125 13.8125 29.203125 
L 7.234375 30.609375 
L 9.375 66.65625 
z
" id="FranklinGothic-Book-53"/>
       </defs>
       <use xlink:href="#FranklinGothic-Book-49"/>
       <use x="57.267578" xlink:href="#FranklinGothic-Book-53"/>
       <use x="115.910156" xlink:href="#FranklinGothic-Book-48"/>
       <use x="174.552734" xlink:href="#FranklinGothic-Book-48"/>
      </g>
     </g>
    </g>
    <g id="ytick_2">
     <g id="line2d_7">
      <path clip-path="url(#p642f22691a)" d="M 144 426.665667 
L 1036.8 426.665667 
" style="fill:none;stroke:#d3d3d3;stroke-linecap:round;stroke-opacity:0.5;"/>
     </g>
     <g id="text_8">
      <!-- 1600 -->
      <g style="fill:#696969;" transform="translate(99.821875 431.664886)scale(0.15 -0.15)">
       <defs>
        <path d="M 53.5625 53.03125 
L 46.046875 50.984375 
Q 42.1875 61.140625 31.984375 61.140625 
Q 13.234375 61.140625 12.796875 30.125 
Q 15.765625 37.015625 21.234375 40.328125 
Q 26.703125 43.65625 32.8125 43.65625 
Q 42.09375 43.65625 48.359375 37.1875 
Q 54.640625 30.71875 54.640625 21.6875 
Q 54.640625 12.3125 47.96875 5.5 
Q 41.3125 -1.3125 30.90625 -1.3125 
Q 19.09375 -1.3125 12.078125 7.59375 
Q 5.078125 16.5 5.078125 31.84375 
Q 5.078125 46.828125 11.6875 57.421875 
Q 18.3125 68.015625 32.171875 68.015625 
Q 48.140625 68.015625 53.5625 53.03125 
z
M 30.765625 5.375 
Q 37.84375 5.375 42.359375 10.03125 
Q 46.875 14.703125 46.875 21.234375 
Q 46.875 27.6875 42.453125 32.296875 
Q 38.03125 36.921875 31.5 36.921875 
Q 24.75 36.921875 19.71875 32.078125 
Q 14.703125 27.25 14.703125 20.75 
Q 14.703125 14.75 19.1875 10.0625 
Q 23.6875 5.375 30.765625 5.375 
z
" id="FranklinGothic-Book-54"/>
       </defs>
       <use xlink:href="#FranklinGothic-Book-49"/>
       <use x="55.267578" xlink:href="#FranklinGothic-Book-54"/>
       <use x="113.910156" xlink:href="#FranklinGothic-Book-48"/>
       <use x="172.552734" xlink:href="#FranklinGothic-Book-48"/>
      </g>
     </g>
    </g>
    <g id="ytick_3">
     <g id="line2d_8">
      <path clip-path="url(#p642f22691a)" d="M 144 321.397624 
L 1036.8 321.397624 
" style="fill:none;stroke:#d3d3d3;stroke-linecap:round;stroke-opacity:0.5;"/>
     </g>
     <g id="text_9">
      <!-- 1700 -->
      <g style="fill:#696969;" transform="translate(100.346875 326.396842)scale(0.15 -0.15)">
       <defs>
        <path d="M 28.078125 0 
L 19.484375 0 
Q 19.484375 16.75 26.3125 32.59375 
Q 33.15625 48.4375 43.0625 59.328125 
L 6.890625 59.328125 
L 7.71875 66.65625 
L 51.765625 66.65625 
L 51.765625 61.671875 
Q 39.84375 47.3125 33.9375 31.78125 
Q 28.03125 16.265625 28.03125 2.296875 
Q 28.03125 1.515625 28.078125 0 
z
" id="FranklinGothic-Book-55"/>
       </defs>
       <use xlink:href="#FranklinGothic-Book-49"/>
       <use x="51.767578" xlink:href="#FranklinGothic-Book-55"/>
       <use x="110.410156" xlink:href="#FranklinGothic-Book-48"/>
       <use x="169.052734" xlink:href="#FranklinGothic-Book-48"/>
      </g>
     </g>
    </g>
    <g id="ytick_4">
     <g id="line2d_9">
      <path clip-path="url(#p642f22691a)" d="M 144 216.12958 
L 1036.8 216.12958 
" style="fill:none;stroke:#d3d3d3;stroke-linecap:round;stroke-opacity:0.5;"/>
     </g>
     <g id="text_10">
      <!-- 1800 -->
      <g style="fill:#696969;" transform="translate(99.409375 221.128799)scale(0.15 -0.15)">
       <use xlink:href="#FranklinGothic-Book-49"/>
       <use x="58.017578" xlink:href="#FranklinGothic-Book-56"/>
       <use x="116.660156" xlink:href="#FranklinGothic-Book-48"/>
       <use x="175.302734" xlink:href="#FranklinGothic-Book-48"/>
      </g>
     </g>
    </g>
    <g id="ytick_5">
     <g id="line2d_10">
      <path clip-path="url(#p642f22691a)" d="M 144 110.861536 
L 1036.8 110.861536 
" style="fill:none;stroke:#d3d3d3;stroke-linecap:round;stroke-opacity:0.5;"/>
     </g>
     <g id="text_11">
      <!-- 1900 -->
      <g style="fill:#696969;" transform="translate(99.521875 115.860755)scale(0.15 -0.15)">
       <use xlink:href="#FranklinGothic-Book-49"/>
       <use x="57.267578" xlink:href="#FranklinGothic-Book-57"/>
       <use x="115.910156" xlink:href="#FranklinGothic-Book-48"/>
       <use x="174.552734" xlink:href="#FranklinGothic-Book-48"/>
      </g>
     </g>
    </g>
    <g id="text_12">
     <!-- ppb -->
     <g style="fill:#696969;" transform="translate(73.078125 343.29625)rotate(-90)scale(0.2 -0.2)">
      <defs>
       <path d="M 15.328125 -16.65625 
L 7.671875 -16.65625 
L 7.671875 49.3125 
L 14.546875 49.3125 
L 14.546875 39.75 
Q 19.78125 50.6875 30.125 50.6875 
Q 38.875 50.6875 44.234375 43.375 
Q 49.609375 36.078125 49.609375 24.90625 
Q 49.609375 12.84375 44.09375 5.765625 
Q 38.578125 -1.3125 29.9375 -1.3125 
Q 20.65625 -1.3125 15.328125 7.515625 
z
M 15.328125 31.78125 
L 15.328125 17.921875 
Q 16.0625 12.3125 20.0625 8.640625 
Q 24.078125 4.984375 28.421875 4.984375 
Q 33.453125 4.984375 37.328125 9.375 
Q 41.21875 13.765625 41.21875 24.5625 
Q 41.21875 33.890625 37.703125 38.9375 
Q 34.1875 44 28.375 44 
Q 23.78125 44 20.140625 40.421875 
Q 16.5 36.859375 15.328125 31.78125 
z
" id="FranklinGothic-Book-112"/>
       <path d="M 11.375 0 
L 7.671875 0 
L 7.671875 66.65625 
L 15.328125 66.65625 
L 15.328125 41.109375 
Q 20.609375 50.6875 29.890625 50.6875 
Q 38.375 50.6875 44.109375 44 
Q 49.859375 37.3125 49.859375 24.5625 
Q 49.859375 13.578125 44.21875 6.125 
Q 38.578125 -1.3125 29.546875 -1.3125 
Q 19.484375 -1.3125 14.109375 8.15625 
z
M 15.328125 19.34375 
Q 15.875 11.765625 20 8.34375 
Q 24.125 4.9375 28.71875 4.9375 
Q 34.578125 4.9375 38.15625 10.015625 
Q 41.75 15.09375 41.75 23.921875 
Q 41.75 33.453125 38.28125 38.890625 
Q 34.8125 44.34375 28.65625 44.34375 
Q 23.828125 44.34375 19.9375 40.453125 
Q 16.0625 36.578125 15.328125 30.421875 
z
" id="FranklinGothic-Book-98"/>
      </defs>
      <use xlink:href="#FranklinGothic-Book-112"/>
      <use x="53.417969" xlink:href="#FranklinGothic-Book-112"/>
      <use x="106.835938" xlink:href="#FranklinGothic-Book-98"/>
     </g>
    </g>
   </g>
   <g id="text_13">
    <!-- Atmospheric methane concentration -->
    <g style="fill:#696969;" transform="translate(144 42.76)scale(0.4 -0.4)">
     <defs>
      <path d="M 53.21875 0 
L 44.671875 0 
L 37.9375 19.484375 
L 13.28125 19.484375 
L 7.328125 0 
L 0.34375 0 
L 21.96875 66.65625 
L 31.5 66.65625 
z
M 36.1875 25.734375 
L 25.921875 57.765625 
L 15.578125 25.734375 
z
" id="FranklinGothic-Book-65"/>
      <path d="M 30.03125 5.28125 
L 30.03125 -0.78125 
Q 25.984375 -1.3125 23 -1.3125 
Q 8.6875 -1.3125 8.6875 13.625 
L 8.6875 43.3125 
L -0.046875 43.3125 
L -0.046875 49.3125 
L 8.6875 49.3125 
L 9.03125 61.71875 
L 16.15625 62.40625 
L 16.15625 49.3125 
L 27.203125 49.3125 
L 27.203125 43.3125 
L 16.15625 43.3125 
L 16.15625 12.359375 
Q 16.15625 4.734375 24.078125 4.734375 
Q 26.703125 4.734375 30.03125 5.28125 
z
" id="FranklinGothic-Book-116"/>
      <path d="M 73.734375 0 
L 66.265625 0 
L 66.265625 30.671875 
Q 66.265625 35.40625 65.59375 37.765625 
Q 64.9375 40.140625 62.390625 42.109375 
Q 59.859375 44.09375 56.6875 44.09375 
Q 52.296875 44.09375 48.21875 40.0625 
Q 44.140625 36.03125 44.140625 27.78125 
L 44.140625 0 
L 36.71875 0 
L 36.71875 32.46875 
Q 36.71875 38.96875 33.609375 41.65625 
Q 30.515625 44.34375 27.09375 44.34375 
Q 22.21875 44.34375 18.59375 40.140625 
Q 14.984375 35.9375 14.984375 29.5 
L 14.984375 0 
L 7.671875 0 
L 7.671875 49.3125 
L 14.265625 49.3125 
L 14.265625 39.84375 
Q 19.78125 50.6875 29.4375 50.6875 
Q 34.765625 50.6875 38.46875 47.21875 
Q 42.1875 43.75 43.265625 38.875 
Q 48.34375 50.6875 58.84375 50.6875 
Q 63.875 50.6875 67.65625 47.796875 
Q 71.4375 44.921875 72.578125 41.1875 
Q 73.734375 37.453125 73.734375 30.671875 
z
" id="FranklinGothic-Book-109"/>
      <path d="M 25.34375 -1.3125 
Q 15.1875 -1.3125 9.5 6.203125 
Q 3.8125 13.71875 3.8125 24.859375 
Q 3.8125 36.625 10.203125 43.65625 
Q 16.609375 50.6875 26.125 50.6875 
Q 36.328125 50.6875 42.203125 43.28125 
Q 48.09375 35.890625 48.09375 24.8125 
Q 48.09375 13.28125 41.75 5.984375 
Q 35.40625 -1.3125 25.34375 -1.3125 
z
M 25.921875 4.984375 
Q 31.78125 4.984375 35.734375 9.8125 
Q 39.703125 14.65625 39.703125 24.859375 
Q 39.703125 35.109375 35.546875 39.71875 
Q 31.390625 44.34375 25.828125 44.34375 
Q 20.125 44.34375 16.15625 39.671875 
Q 12.203125 35.015625 12.203125 24.90625 
Q 12.203125 14.203125 16.15625 9.59375 
Q 20.125 4.984375 25.921875 4.984375 
z
" id="FranklinGothic-Book-111"/>
      <path d="M 1.03125 12.796875 
L 8.34375 14.3125 
Q 10.796875 4.984375 23.78125 4.984375 
Q 28.5625 4.984375 31.875 7.125 
Q 35.203125 9.28125 35.203125 13.1875 
Q 35.203125 19 26.765625 20.5625 
L 16.359375 22.515625 
Q 10.25 23.6875 6.640625 27.09375 
Q 3.03125 30.515625 3.03125 36.140625 
Q 3.03125 42.328125 7.953125 46.5 
Q 12.890625 50.6875 21.234375 50.6875 
Q 37.3125 50.6875 41.0625 38.140625 
L 34.03125 36.625 
Q 31 44.34375 21.578125 44.34375 
Q 16.890625 44.34375 13.890625 42.40625 
Q 10.890625 40.484375 10.890625 37.015625 
Q 10.890625 31.546875 18.5625 30.125 
L 28.171875 28.421875 
Q 43.265625 25.6875 43.265625 13.8125 
Q 43.265625 7.03125 37.640625 2.859375 
Q 32.03125 -1.3125 22.703125 -1.3125 
Q 5.171875 -1.3125 1.03125 12.796875 
z
" id="FranklinGothic-Book-115"/>
      <path d="M 46.34375 0 
L 38.671875 0 
L 38.671875 29.9375 
Q 38.671875 35.203125 38.015625 37.84375 
Q 37.359375 40.484375 34.890625 42.40625 
Q 32.421875 44.34375 29.203125 44.34375 
Q 23.296875 44.34375 19.3125 39.5 
Q 15.328125 34.671875 15.328125 26.5625 
L 15.328125 0 
L 7.671875 0 
L 7.671875 66.65625 
L 15.328125 66.65625 
L 15.328125 40.234375 
Q 20.5625 50.6875 30.28125 50.6875 
Q 34.625 50.6875 38.015625 48.96875 
Q 41.40625 47.265625 43.203125 44.484375 
Q 45.015625 41.703125 45.671875 38.984375 
Q 46.34375 36.28125 46.34375 29.9375 
z
" id="FranklinGothic-Book-104"/>
      <path d="M 15.578125 66.65625 
L 15.578125 58.15625 
L 7.328125 58.15625 
L 7.328125 66.65625 
z
M 15.328125 49.3125 
L 15.328125 0 
L 7.671875 0 
L 7.671875 49.3125 
z
" id="FranklinGothic-Book-105"/>
      <path d="M 36.8125 17.28125 
L 43.75 16.0625 
Q 42.28125 7.90625 37.25 3.296875 
Q 32.234375 -1.3125 24.703125 -1.3125 
Q 14.5 -1.3125 9.15625 6.203125 
Q 3.8125 13.71875 3.8125 24.5625 
Q 3.8125 35.796875 9.453125 43.234375 
Q 15.09375 50.6875 24.8125 50.6875 
Q 32.859375 50.6875 37.71875 45.875 
Q 42.578125 41.0625 43.75 33.453125 
L 36.8125 32.125 
Q 34.859375 44.34375 25 44.34375 
Q 18.65625 44.34375 15.234375 38.9375 
Q 11.8125 33.546875 11.8125 24.953125 
Q 11.8125 15.484375 15.203125 10.234375 
Q 18.609375 4.984375 24.75 4.984375 
Q 34.28125 4.984375 36.8125 17.28125 
z
" id="FranklinGothic-Book-99"/>
      <path id="FranklinGothic-Book-32"/>
      <path d="M 46.53125 0 
L 39.359375 0 
L 39.359375 31.6875 
Q 39.359375 38.53125 36.375 41.3125 
Q 33.40625 44.09375 29.15625 44.09375 
Q 23.296875 44.09375 19.3125 39.40625 
Q 15.328125 34.71875 15.328125 27.046875 
L 15.328125 0 
L 7.671875 0 
L 7.671875 49.3125 
L 14.796875 49.3125 
L 14.796875 40.234375 
Q 20.796875 50.6875 30.375 50.6875 
Q 35.890625 50.6875 39.765625 47.828125 
Q 43.65625 44.96875 45.09375 41.40625 
Q 46.53125 37.84375 46.53125 28.515625 
z
" id="FranklinGothic-Book-110"/>
     </defs>
     <use xlink:href="#FranklinGothic-Book-65"/>
     <use x="52.064453" xlink:href="#FranklinGothic-Book-116"/>
     <use x="82.826172" xlink:href="#FranklinGothic-Book-109"/>
     <use x="164.222656" xlink:href="#FranklinGothic-Book-111"/>
     <use x="216.175781" xlink:href="#FranklinGothic-Book-115"/>
     <use x="262.5625" xlink:href="#FranklinGothic-Book-112"/>
     <use x="315.980469" xlink:href="#FranklinGothic-Book-104"/>
     <use x="369.984375" xlink:href="#FranklinGothic-Book-101"/>
     <use x="422.035156" xlink:href="#FranklinGothic-Book-114"/>
     <use x="454.994141" xlink:href="#FranklinGothic-Book-105"/>
     <use x="477.943359" xlink:href="#FranklinGothic-Book-99"/>
     <use x="524.525391" xlink:href="#FranklinGothic-Book-32"/>
     <use x="549.525391" xlink:href="#FranklinGothic-Book-109"/>
     <use x="630.921875" xlink:href="#FranklinGothic-Book-101"/>
     <use x="682.472656" xlink:href="#FranklinGothic-Book-116"/>
     <use x="713.234375" xlink:href="#FranklinGothic-Book-104"/>
     <use x="767.238281" xlink:href="#FranklinGothic-Book-97"/>
     <use x="820.119141" xlink:href="#FranklinGothic-Book-110"/>
     <use x="874.318359" xlink:href="#FranklinGothic-Book-101"/>
     <use x="926.369141" xlink:href="#FranklinGothic-Book-32"/>
     <use x="951.369141" xlink:href="#FranklinGothic-Book-99"/>
     <use x="997.951172" xlink:href="#FranklinGothic-Book-111"/>
     <use x="1049.904297" xlink:href="#FranklinGothic-Book-110"/>
     <use x="1104.103516" xlink:href="#FranklinGothic-Book-99"/>
     <use x="1150.685547" xlink:href="#FranklinGothic-Book-101"/>
     <use x="1202.736328" xlink:href="#FranklinGothic-Book-110"/>
     <use x="1256.935547" xlink:href="#FranklinGothic-Book-116"/>
     <use x="1287.697266" xlink:href="#FranklinGothic-Book-114"/>
     <use x="1320.65625" xlink:href="#FranklinGothic-Book-97"/>
     <use x="1373.537109" xlink:href="#FranklinGothic-Book-116"/>
     <use x="1404.298828" xlink:href="#FranklinGothic-Book-105"/>
     <use x="1427.248047" xlink:href="#FranklinGothic-Book-111"/>
     <use x="1479.201172" xlink:href="#FranklinGothic-Book-110"/>
    </g>
   </g>
   <g id="legend_1">
    <g id="line2d_11"/>
    <g id="text_14">
     <!-- WDCGG -->
     <g style="fill:#d55e00;" transform="translate(185.856 129.7184)scale(0.2 -0.2)">
      <defs>
       <path d="M 79.828125 66.65625 
L 63.765625 0 
L 55.421875 0 
L 40.875 51.703125 
L 27.34375 0 
L 18.796875 0 
L 1.90625 66.65625 
L 10.546875 66.65625 
L 23.875 12.640625 
L 38.03125 66.65625 
L 44.78125 66.65625 
L 60.0625 12.640625 
L 72.515625 66.65625 
z
" id="FranklinGothic-Book-87"/>
       <path d="M 8.34375 0 
L 8.34375 66.65625 
L 30.71875 66.65625 
Q 44.828125 66.65625 52.6875 57.03125 
Q 60.546875 47.40625 60.546875 33.5 
Q 60.546875 19.390625 52.875 9.6875 
Q 45.21875 0 33.453125 0 
z
M 16.703125 7.078125 
L 30.21875 7.078125 
Q 40.96875 7.078125 46.53125 14.5 
Q 52.09375 21.921875 52.09375 34.078125 
Q 52.09375 43.953125 46.796875 51.8125 
Q 41.5 59.671875 30.21875 59.671875 
L 16.703125 59.671875 
z
" id="FranklinGothic-Book-68"/>
       <path d="M 48.296875 22.40625 
L 55.90625 20.703125 
Q 50.4375 -1.3125 31.203125 -1.3125 
Q 18.5625 -1.3125 11.359375 8.890625 
Q 4.15625 19.09375 4.15625 33.984375 
Q 4.15625 49.359375 11.671875 58.6875 
Q 19.1875 68.015625 31.84375 68.015625 
Q 50.59375 68.015625 55.90625 46.578125 
L 48.046875 45.015625 
Q 43.75 60.9375 31.78125 60.9375 
Q 22.953125 60.9375 18.09375 53.53125 
Q 13.234375 46.140625 13.234375 32.765625 
Q 13.234375 20.515625 18.203125 13.109375 
Q 23.1875 5.71875 31.390625 5.71875 
Q 44.140625 5.71875 48.296875 22.40625 
z
" id="FranklinGothic-Book-67"/>
       <path d="M 57.71875 33.59375 
L 57.71875 -0.875 
L 52.59375 -0.875 
L 50.296875 7.46875 
Q 44.140625 -1.3125 31.984375 -1.3125 
Q 18.796875 -1.3125 11.46875 8.59375 
Q 4.15625 18.5 4.15625 32.671875 
Q 4.15625 47.796875 11.90625 57.90625 
Q 19.671875 68.015625 33.015625 68.015625 
Q 51.421875 68.015625 57.03125 48.6875 
L 49.125 46.78125 
Q 47.40625 54.203125 42.71875 57.5625 
Q 38.03125 60.9375 32.46875 60.9375 
Q 22.609375 60.9375 17.921875 52.96875 
Q 13.234375 45.015625 13.234375 33.015625 
Q 13.234375 20.0625 18.484375 12.765625 
Q 23.734375 5.46875 32.765625 5.46875 
Q 39.796875 5.46875 44.5 10.125 
Q 49.21875 14.796875 49.21875 23 
Q 49.21875 24.515625 49.125 26.609375 
L 32.625 26.609375 
L 32.625 33.59375 
z
" id="FranklinGothic-Book-71"/>
      </defs>
      <use xlink:href="#FranklinGothic-Book-87"/>
      <use x="81.738281" xlink:href="#FranklinGothic-Book-68"/>
      <use x="146.435547" xlink:href="#FranklinGothic-Book-67"/>
      <use x="204.345703" xlink:href="#FranklinGothic-Book-71"/>
      <use x="269.042969" xlink:href="#FranklinGothic-Book-71"/>
     </g>
    </g>
    <g id="line2d_12"/>
    <g id="text_15">
     <!-- NOAA -->
     <g style="fill:#009e73;" transform="translate(185.856 157.04965)scale(0.2 -0.2)">
      <defs>
       <path d="M 57.421875 0 
L 49.3125 0 
L 14.84375 58.109375 
L 14.9375 53.71875 
Q 15.09375 51.21875 15.09375 49.515625 
L 15.09375 0 
L 8.34375 0 
L 8.34375 66.65625 
L 18.796875 66.65625 
L 51.03125 12.3125 
L 50.921875 16.9375 
Q 50.828125 19.671875 50.828125 21.78125 
L 50.828125 66.65625 
L 57.421875 66.65625 
z
" id="FranklinGothic-Book-78"/>
       <path d="M 31.34375 -1.3125 
Q 18.5 -1.3125 11.328125 8.671875 
Q 4.15625 18.65625 4.15625 33.15625 
Q 4.15625 48.296875 11.671875 58.15625 
Q 19.1875 68.015625 31.59375 68.015625 
Q 43.953125 68.015625 51.421875 58.328125 
Q 58.890625 48.640625 58.890625 33.890625 
Q 58.890625 19.734375 51.640625 9.203125 
Q 44.390625 -1.3125 31.34375 -1.3125 
z
M 31.546875 5.46875 
Q 40.28125 5.46875 45.203125 13.421875 
Q 50.140625 21.390625 50.140625 33.9375 
Q 50.140625 46.828125 45.03125 54 
Q 39.9375 61.1875 31.5 61.1875 
Q 22.953125 61.1875 17.921875 53.421875 
Q 12.890625 45.65625 12.890625 33.109375 
Q 12.890625 20.84375 17.96875 13.15625 
Q 23.046875 5.46875 31.546875 5.46875 
z
" id="FranklinGothic-Book-79"/>
      </defs>
      <use xlink:href="#FranklinGothic-Book-78"/>
      <use x="65.722656" xlink:href="#FranklinGothic-Book-79"/>
      <use x="127.058594" xlink:href="#FranklinGothic-Book-65"/>
      <use x="180.623047" xlink:href="#FranklinGothic-Book-65"/>
     </g>
    </g>
    <g id="line2d_13"/>
    <g id="text_16">
     <!-- Kennaook/Cape Grim -->
     <g style="fill:#56b4e9;" transform="translate(185.856 184.3809)scale(0.2 -0.2)">
      <defs>
       <path d="M 61.03125 0 
L 51.90625 0 
L 31.984375 36.765625 
L 16.703125 17.78125 
L 16.703125 0 
L 8.34375 0 
L 8.34375 66.65625 
L 16.703125 66.65625 
L 16.703125 27.984375 
L 46.828125 66.65625 
L 55.859375 66.65625 
L 37.796875 43.3125 
z
" id="FranklinGothic-Book-75"/>
       <path d="M 48.390625 0 
L 40.4375 0 
L 26.03125 27.546875 
L 15.328125 15.234375 
L 15.328125 0 
L 7.671875 0 
L 7.671875 66.65625 
L 15.328125 66.65625 
L 15.328125 23.96875 
L 38.234375 49.3125 
L 46.4375 49.3125 
L 31 31.984375 
z
" id="FranklinGothic-Book-107"/>
       <path d="M 1.859375 -16.65625 
L -4.6875 -16.65625 
L 35.546875 66.65625 
L 42.09375 66.65625 
z
" id="FranklinGothic-Book-47"/>
      </defs>
      <use xlink:href="#FranklinGothic-Book-75"/>
      <use x="60.216797" xlink:href="#FranklinGothic-Book-101"/>
      <use x="112.267578" xlink:href="#FranklinGothic-Book-110"/>
      <use x="166.466797" xlink:href="#FranklinGothic-Book-110"/>
      <use x="220.666016" xlink:href="#FranklinGothic-Book-97"/>
      <use x="273.546875" xlink:href="#FranklinGothic-Book-111"/>
      <use x="325.5" xlink:href="#FranklinGothic-Book-111"/>
      <use x="377.453125" xlink:href="#FranklinGothic-Book-107"/>
      <use x="427.550781" xlink:href="#FranklinGothic-Book-47"/>
      <use x="472.960938" xlink:href="#FranklinGothic-Book-67"/>
      <use x="530.871094" xlink:href="#FranklinGothic-Book-97"/>
      <use x="583.751953" xlink:href="#FranklinGothic-Book-112"/>
      <use x="637.169922" xlink:href="#FranklinGothic-Book-101"/>
      <use x="689.220703" xlink:href="#FranklinGothic-Book-32"/>
      <use x="714.220703" xlink:href="#FranklinGothic-Book-71"/>
      <use x="778.917969" xlink:href="#FranklinGothic-Book-114"/>
      <use x="811.876953" xlink:href="#FranklinGothic-Book-105"/>
      <use x="834.826172" xlink:href="#FranklinGothic-Book-109"/>
     </g>
    </g>
   </g>
   <g id="line2d_14">
    <path clip-path="url(#p642f22691a)" d="M 184.581818 554.04 
L 189.167334 534.986484 
L 199.866872 537.091845 
L 228.908475 489.721225 
L 296.162712 436.245059 
L 300.748228 415.19145 
L 302.276733 417.854732 
L 303.805239 421.202256 
L 305.333744 424.265556 
L 306.86225 432.171186 
L 308.390755 440.750531 
L 309.91926 445.645495 
L 311.447766 444.9402 
L 314.504777 428.728921 
L 316.033282 423.907644 
L 319.090293 407.685839 
L 320.618798 406.064711 
L 322.147304 406.00155 
L 323.675809 410.454388 
L 325.204314 420.170629 
L 326.73282 426.486712 
L 328.261325 427.697294 
L 329.789831 426.834096 
L 331.318336 421.012773 
L 332.846841 413.159777 
L 334.375347 407.043704 
L 335.903852 399.180181 
L 337.432357 393.011474 
L 338.960863 391.432453 
L 340.489368 392.158803 
L 342.017874 395.52738 
L 343.546379 402.432964 
L 345.074884 410.633344 
L 346.60339 414.623003 
L 348.131895 413.391367 
L 349.660401 405.412049 
L 351.188906 396.085301 
L 352.717411 391.621935 
L 355.774422 378.895029 
L 357.302928 377.631812 
L 358.831433 377.67392 
L 360.359938 380.495103 
L 361.888444 387.200678 
L 364.945455 403.054045 
L 366.47396 402.885616 
L 368.002465 394.916825 
L 369.530971 387.716491 
L 371.059476 381.442516 
L 372.587982 374.000065 
L 374.116487 368.673502 
L 375.644992 365.599675 
L 377.173498 365.515461 
L 378.702003 371.884177 
L 380.230508 380.589845 
L 381.759014 382.916268 
L 383.287519 381.75832 
L 384.816025 384.053163 
L 386.34453 382.368874 
L 389.401541 366.24181 
L 390.930046 359.367807 
L 392.458552 354.567584 
L 393.987057 353.672806 
L 395.515562 354.704433 
L 397.044068 358.662511 
L 398.572573 366.70499 
L 400.101079 375.43171 
L 401.629584 380.063504 
L 403.158089 378.916083 
L 404.686595 373.021072 
L 406.2151 364.273298 
L 407.743606 356.978222 
L 409.272111 351.809561 
L 410.800616 347.967278 
L 412.329122 346.219828 
L 413.857627 346.146141 
L 415.386133 348.946271 
L 416.914638 357.483509 
L 418.443143 367.999786 
L 419.971649 371.368364 
L 421.500154 369.399851 
L 423.028659 363.389046 
L 424.557165 353.609645 
L 426.08567 346.956705 
L 427.614176 341.251177 
L 429.142681 336.69307 
L 430.671186 333.503449 
L 432.199692 328.218993 
L 433.728197 331.387561 
L 435.256703 341.630142 
L 436.785208 347.872537 
L 438.313713 350.377916 
L 439.842219 349.893683 
L 441.370724 345.977712 
L 442.89923 339.661629 
L 445.95624 325.713613 
L 447.484746 320.65022 
L 449.013251 319.197521 
L 450.541757 323.176654 
L 453.598767 335.514068 
L 455.127273 345.798756 
L 456.655778 351.577972 
L 458.184284 349.293655 
L 459.712789 343.240743 
L 461.241294 335.987774 
L 462.7698 330.155925 
L 465.82681 320.250202 
L 467.355316 318.702762 
L 468.883821 320.260729 
L 470.412327 324.881996 
L 471.940832 332.11391 
L 473.469337 340.661676 
L 474.997843 346.57774 
L 476.526348 346.630374 
L 478.054854 340.914319 
L 479.583359 331.998116 
L 481.111864 324.250388 
L 482.64037 318.018519 
L 484.168875 314.281504 
L 485.697381 313.944646 
L 487.225886 313.018287 
L 488.754391 316.250016 
L 490.282897 324.650406 
L 491.811402 332.08233 
L 493.339908 336.66149 
L 494.868413 337.872072 
L 496.396918 333.966628 
L 497.925424 326.576811 
L 499.453929 320.250202 
L 500.982435 315.081541 
L 502.51094 309.228638 
L 504.039445 305.965328 
L 505.567951 307.175911 
L 507.096456 310.765551 
L 508.624961 318.365904 
L 510.153467 328.429529 
L 511.681972 335.398273 
L 513.210478 337.503634 
L 514.738983 332.040223 
L 516.267488 323.260868 
L 520.853005 306.09165 
L 522.38151 303.975762 
L 523.910015 305.807426 
L 525.438521 310.997141 
L 528.495532 327.155786 
L 530.024037 330.555943 
L 531.552542 326.608392 
L 533.081048 321.439731 
L 534.609553 315.681569 
L 536.138059 308.375967 
L 537.666564 302.828341 
L 539.195069 297.95443 
L 540.723575 296.943857 
L 542.25208 299.954523 
L 543.780586 304.617897 
L 545.309091 309.776032 
L 546.837596 316.53424 
L 548.366102 322.42925 
L 549.894607 323.94511 
L 551.423112 320.397577 
L 554.480123 301.786187 
L 557.537134 290.711989 
L 559.065639 286.838125 
L 560.594145 287.069715 
L 562.12265 291.733089 
L 565.179661 306.565356 
L 566.708166 311.060302 
L 568.236672 311.491901 
L 569.765177 306.217972 
L 572.822188 289.764576 
L 574.350693 283.62745 
L 575.879199 280.237819 
L 577.407704 278.269306 
L 578.93621 277.921922 
L 580.464715 283.732718 
L 583.521726 302.586224 
L 585.050231 308.839146 
L 586.578737 308.965468 
L 588.107242 302.523063 
L 591.164253 287.617108 
L 592.692758 281.490508 
L 594.221263 279.448308 
L 595.749769 278.669325 
L 597.278274 279.07987 
L 598.80678 284.006414 
L 600.335285 293.248949 
L 601.86379 303.649431 
L 603.392296 310.386586 
L 604.920801 310.291845 
L 606.449307 305.30214 
L 609.506317 288.543467 
L 611.034823 282.395813 
L 612.563328 279.121977 
L 614.091834 277.911395 
L 615.620339 280.511515 
L 617.148844 287.501314 
L 620.205855 305.028443 
L 621.734361 309.565495 
L 623.262866 308.344386 
L 624.791371 303.144145 
L 627.848382 286.932866 
L 629.376888 280.711525 
L 630.905393 277.321894 
L 632.433898 276.24816 
L 633.962404 277.427162 
L 635.490909 282.195804 
L 637.019414 291.217275 
L 638.54792 301.365115 
L 640.076425 307.807519 
L 641.604931 308.312806 
L 643.133436 302.028304 
L 644.661941 293.322636 
L 646.190447 287.21709 
L 649.247458 277.406108 
L 650.775963 274.553344 
L 652.304468 276.974509 
L 655.361479 290.57514 
L 656.889985 299.396602 
L 658.41849 307.544349 
L 659.946995 309.891826 
L 661.475501 304.059977 
L 663.004006 294.796389 
L 666.061017 280.943114 
L 667.589522 275.921829 
L 669.118028 275.742873 
L 670.646533 278.100877 
L 672.175039 284.585389 
L 675.232049 302.954662 
L 676.760555 309.207584 
L 678.28906 309.039155 
L 679.817565 303.25994 
L 681.346071 294.554272 
L 682.874576 288.596101 
L 684.403082 284.374853 
L 685.931587 278.795646 
L 687.460092 277.195572 
L 688.988598 278.985129 
L 690.517103 283.374806 
L 692.045609 291.712035 
L 693.574114 301.870401 
L 695.102619 308.723351 
L 696.631125 308.681244 
L 698.15963 303.217832 
L 701.216641 290.185649 
L 702.745146 284.71171 
L 704.273652 281.416821 
L 705.802157 278.900914 
L 707.330663 279.227245 
L 708.859168 283.701137 
L 710.387673 292.027839 
L 711.916179 302.302 
L 713.444684 308.039109 
L 714.97319 306.660097 
L 716.501695 300.2598 
L 719.558706 283.237958 
L 721.087211 276.753446 
L 722.615716 273.353288 
L 724.144222 270.332096 
L 725.672727 270.132086 
L 727.201233 274.99547 
L 730.258243 290.596194 
L 731.786749 295.606953 
L 733.315254 294.048986 
L 734.84376 286.901286 
L 736.372265 281.290499 
L 737.90077 276.732393 
L 739.429276 268.395164 
L 740.957781 262.468573 
L 742.486287 262.573841 
L 744.014792 264.047593 
L 745.543297 269.616273 
L 747.071803 280.522042 
L 748.600308 289.480353 
L 750.128814 293.954245 
L 751.657319 293.34369 
L 753.185824 287.553948 
L 756.242835 273.048011 
L 757.771341 265.80557 
L 759.299846 260.110569 
L 760.828351 257.984154 
L 762.356857 259.310531 
L 763.885362 264.942372 
L 765.413867 275.732346 
L 766.942373 284.216951 
L 768.470878 287.690796 
L 769.999384 287.406572 
L 771.527889 282.922154 
L 773.056394 276.869241 
L 774.5849 266.963518 
L 776.113405 256.089329 
L 777.641911 252.015456 
L 779.170416 251.899661 
L 780.698921 252.615484 
L 782.227427 256.352499 
L 783.755932 264.121281 
L 785.284438 273.911209 
L 786.812943 279.521996 
L 788.341448 276.690285 
L 789.869954 268.942557 
L 791.398459 264.858157 
L 792.926965 260.173729 
L 794.45547 252.657591 
L 795.983975 247.299448 
L 797.512481 244.583532 
L 799.040986 245.236194 
L 800.569492 250.920668 
L 803.626502 269.532058 
L 805.155008 275.069158 
L 806.683513 275.321801 
L 808.212018 268.774129 
L 809.740524 260.921133 
L 812.797535 247.352082 
L 814.32604 241.867617 
L 815.854545 239.341184 
L 817.383051 240.878097 
L 818.911556 245.562525 
L 820.440062 254.362933 
L 821.968567 266.405598 
L 823.497072 271.563732 
L 825.025578 270.300515 
L 826.554083 265.27923 
L 829.611094 247.446823 
L 831.139599 242.236055 
L 832.668105 237.77269 
L 834.19661 235.288364 
L 835.725116 237.583207 
L 837.253621 243.625593 
L 838.782126 252.489162 
L 840.310632 262.342251 
L 841.839137 266.742455 
L 843.367643 263.76337 
L 844.896148 257.163063 
L 846.424653 248.21528 
L 847.953159 237.614788 
L 849.481664 229.593363 
L 851.010169 225.340534 
L 852.538675 223.972049 
L 854.06718 225.456329 
L 855.595686 230.288132 
L 857.124191 238.488512 
L 858.652696 247.815261 
L 860.181202 252.636537 
L 861.709707 250.510123 
L 863.238213 243.962451 
L 866.295223 227.551163 
L 867.823729 220.487677 
L 869.352234 215.645347 
L 870.88074 213.676835 
L 872.409245 215.14006 
L 873.93775 220.1824 
L 875.466256 228.624897 
L 876.994761 238.320084 
L 878.523267 243.351896 
L 880.051772 241.688661 
L 881.580277 236.709482 
L 883.108783 229.045969 
L 884.637288 219.961337 
L 886.165794 213.918951 
L 887.694299 210.52932 
L 889.222804 208.634495 
L 890.75131 210.424052 
L 892.279815 217.161207 
L 895.336826 236.898965 
L 896.865331 241.025472 
L 898.393837 239.488559 
L 899.922342 233.783031 
L 902.979353 213.108387 
L 904.507858 205.634356 
L 906.036364 200.31832 
L 907.564869 198.139271 
L 909.093374 199.907774 
L 910.62188 205.002748 
L 912.150385 213.582093 
L 913.678891 223.129905 
L 915.207396 227.519582 
L 916.735901 225.2879 
L 918.264407 217.961244 
L 919.792912 208.602915 
L 921.321418 200.339373 
L 922.849923 193.518004 
L 924.378428 188.06512 
L 925.906934 185.707115 
L 927.435439 187.675628 
L 928.963945 194.507524 
L 932.020955 214.171594 
L 933.549461 218.319155 
L 935.077966 217.298055 
L 936.606471 212.224136 
L 941.191988 188.507245 
L 942.720493 183.117521 
L 944.248998 181.001634 
L 945.777504 182.770137 
L 947.306009 188.507245 
L 950.36302 207.950253 
L 951.891525 212.697842 
L 953.420031 211.097767 
L 954.948536 205.71857 
L 956.477042 197.78136 
L 958.005547 188.275656 
L 959.534052 180.001587 
L 961.062558 174.053943 
L 962.591063 171.211706 
L 964.119569 171.980162 
L 965.648074 176.317206 
L 967.176579 184.875498 
L 968.705085 194.675953 
L 970.23359 198.423495 
L 971.762096 194.560158 
L 973.290601 187.275609 
L 977.876117 162.821843 
L 979.404622 156.484706 
L 980.933128 152.989807 
L 982.461633 153.47404 
L 983.990139 157.990039 
L 987.047149 175.590856 
L 988.575655 179.138389 
L 990.10416 176.927761 
L 991.632666 170.559044 
L 994.689676 151.473948 
L 996.218182 145.178919 
L 996.218182 145.178919 
" style="fill:none;stroke:#56b4e9;stroke-linecap:round;stroke-width:1.5;"/>
   </g>
   <g id="line2d_15">
    <path clip-path="url(#p642f22691a)" d="M 280.877658 399.08544 
L 282.406163 397.190615 
L 283.934669 386.242738 
L 285.463174 379.505584 
L 286.99168 381.821481 
L 288.520185 385.08479 
L 290.04869 385.926934 
L 291.577196 385.821666 
L 293.105701 383.716305 
L 294.634206 380.663532 
L 296.162712 381.505676 
L 297.691217 384.979522 
L 299.219723 386.874347 
L 300.748228 383.084697 
L 302.276733 373.610573 
L 303.805239 369.294583 
L 305.333744 370.136728 
L 306.86225 367.610295 
L 308.390755 368.136635 
L 309.91926 371.715748 
L 311.447766 369.189315 
L 312.976271 365.399666 
L 314.504777 367.820831 
L 316.033282 374.031645 
L 317.561787 377.400223 
L 319.090293 371.715748 
L 320.618798 360.87314 
L 322.147304 355.50447 
L 325.204314 357.188758 
L 326.73282 356.872954 
L 328.261325 356.346614 
L 329.789831 353.820181 
L 331.318336 352.135892 
L 332.846841 354.662325 
L 334.375347 358.451975 
L 335.903852 361.083676 
L 337.432357 358.978315 
L 338.960863 350.241068 
L 340.489368 343.819717 
L 342.017874 343.503913 
L 345.074884 343.188109 
L 346.60339 343.503913 
L 348.131895 342.345964 
L 349.660401 340.97748 
L 351.188906 340.556408 
L 352.717411 342.451232 
L 354.245917 346.661954 
L 355.774422 345.504006 
L 357.302928 336.556222 
L 358.831433 330.240139 
L 360.359938 330.661211 
L 361.888444 331.398088 
L 363.416949 329.924335 
L 364.945455 329.292727 
L 368.002465 331.924428 
L 369.530971 332.977108 
L 371.059476 334.977201 
L 372.587982 336.240418 
L 374.116487 332.661304 
L 375.644992 325.292541 
L 377.173498 320.029139 
L 378.702003 318.34485 
L 380.230508 319.292263 
L 381.759014 320.766015 
L 383.287519 320.239675 
L 384.816025 318.765922 
L 386.34453 317.502706 
L 387.873035 317.81851 
L 389.401541 321.187087 
L 390.930046 323.18718 
L 392.458552 319.292263 
L 393.987057 313.818324 
L 395.515562 310.344479 
L 397.044068 307.60751 
L 398.572573 307.502242 
L 400.101079 308.765458 
L 401.629584 307.396974 
L 403.158089 306.344293 
L 404.686595 308.028582 
L 406.2151 310.133943 
L 407.743606 312.660376 
L 409.272111 314.660469 
L 410.800616 310.765551 
L 412.329122 302.975716 
L 413.857627 298.133386 
L 415.386133 296.659633 
L 416.914638 296.870169 
L 418.443143 298.659726 
L 419.971649 299.080798 
L 421.500154 298.133386 
L 423.028659 297.607046 
L 424.557165 298.028118 
L 426.08567 301.396695 
L 427.614176 304.449469 
L 429.142681 301.186159 
L 432.199692 286.869705 
L 433.728197 281.922107 
L 435.256703 279.711478 
L 436.785208 280.448355 
L 438.313713 282.132643 
L 439.842219 282.553715 
L 441.370724 282.764252 
L 442.89923 284.659076 
L 444.427735 288.132922 
L 445.95624 290.975159 
L 447.484746 289.396138 
L 449.013251 284.869612 
L 450.541757 281.606303 
L 452.070262 280.027282 
L 453.598767 280.764159 
L 455.127273 283.711664 
L 456.655778 285.185417 
L 459.712789 282.764252 
L 461.241294 284.553808 
L 462.7698 288.975066 
L 464.298305 291.817303 
L 465.82681 288.553994 
L 467.355316 280.869427 
L 468.883821 275.711293 
L 470.412327 273.816468 
L 471.940832 274.76388 
L 473.469337 277.816654 
L 474.997843 278.342994 
L 476.526348 277.290313 
L 478.054854 277.290313 
L 479.583359 278.658798 
L 481.111864 282.553715 
L 482.64037 287.290777 
L 484.168875 285.501221 
L 485.697381 276.237633 
L 487.225886 268.86887 
L 488.754391 267.500385 
L 490.282897 267.184581 
L 491.811402 267.710921 
L 493.339908 269.39521 
L 494.868413 269.92155 
L 496.396918 269.289942 
L 497.925424 271.184767 
L 499.453929 276.342901 
L 500.982435 279.185138 
L 502.51094 275.606025 
L 504.039445 269.079406 
L 505.567951 264.237076 
L 507.096456 263.184395 
L 508.624961 264.868684 
L 510.153467 266.237169 
L 511.681972 265.710828 
L 513.210478 266.237169 
L 514.738983 268.86887 
L 516.267488 270.237354 
L 517.795994 272.763787 
L 519.324499 276.869241 
L 520.853005 274.342808 
L 522.38151 265.60556 
L 523.910015 259.289478 
L 525.438521 258.342065 
L 526.967026 261.605375 
L 528.495532 265.184488 
L 530.024037 264.763416 
L 531.552542 262.868591 
L 533.081048 262.868591 
L 534.609553 264.658148 
L 536.138059 268.553066 
L 537.666564 272.763787 
L 539.195069 270.974231 
L 540.723575 263.394932 
L 542.25208 257.920993 
L 543.780586 256.447241 
L 545.309091 256.236705 
L 546.837596 256.657777 
L 548.366102 256.657777 
L 549.894607 255.078756 
L 551.423112 253.289199 
L 552.951618 253.81554 
L 556.008629 262.236983 
L 557.537134 258.131529 
L 559.065639 247.183653 
L 560.594145 241.183374 
L 562.12265 241.814983 
L 563.651156 243.288735 
L 565.179661 243.499271 
L 566.708166 243.394003 
L 568.236672 242.762395 
L 569.765177 242.446591 
L 571.293683 244.973024 
L 572.822188 250.446962 
L 574.350693 255.078756 
L 575.879199 253.289199 
L 577.407704 246.552045 
L 578.93621 240.657034 
L 580.464715 238.656941 
L 581.99322 240.025426 
L 583.521726 241.709715 
L 585.050231 241.604447 
L 586.578737 240.551766 
L 588.107242 239.920158 
L 589.635747 242.867663 
L 591.164253 249.604818 
L 592.692758 254.447148 
L 594.221263 252.341787 
L 595.749769 245.394096 
L 597.278274 240.130694 
L 598.80678 239.604354 
L 601.86379 244.65722 
L 603.392296 245.078292 
L 604.920801 243.815075 
L 606.449307 243.604539 
L 607.977812 246.867849 
L 609.506317 252.025983 
L 611.034823 255.289292 
L 612.563328 253.710272 
L 614.091834 247.288921 
L 615.620339 241.920251 
L 617.148844 240.762302 
L 618.67735 241.499178 
L 620.205855 243.394003 
L 621.734361 244.762488 
L 623.262866 244.13088 
L 624.791371 244.867756 
L 626.319877 247.499457 
L 627.848382 250.973302 
L 629.376888 253.710272 
L 630.905393 250.868034 
L 632.433898 243.815075 
L 633.962404 238.972745 
L 635.490909 237.604261 
L 637.019414 237.498993 
L 638.54792 239.709622 
L 640.076425 242.657127 
L 641.604931 242.657127 
L 643.133436 241.709715 
L 644.661941 243.078199 
L 646.190447 245.920436 
L 647.718952 246.973117 
L 649.247458 243.288735 
L 650.775963 236.656848 
L 652.304468 232.235591 
L 653.832974 231.603982 
L 655.361479 233.393539 
L 656.889985 236.235776 
L 658.41849 237.288457 
L 659.946995 236.130508 
L 661.475501 236.446312 
L 663.004006 239.709622 
L 664.532512 245.288828 
L 666.061017 249.815354 
L 667.589522 248.025797 
L 669.118028 242.025519 
L 670.646533 237.498993 
L 672.175039 236.656848 
L 675.232049 241.39391 
L 676.760555 241.814983 
L 678.28906 241.920251 
L 679.817565 242.867663 
L 681.346071 245.288828 
L 682.874576 249.078478 
L 684.403082 251.604911 
L 685.931587 249.815354 
L 688.988598 238.656941 
L 690.517103 236.02524 
L 692.045609 237.077921 
L 693.574114 237.814797 
L 695.102619 237.814797 
L 696.631125 240.025426 
L 699.688136 242.551859 
L 701.216641 248.446869 
L 702.745146 253.81554 
L 704.273652 250.657498 
L 705.802157 242.867663 
L 707.330663 239.078013 
L 710.387673 237.288457 
L 713.444684 238.656941 
L 714.97319 236.867385 
L 716.501695 236.02524 
L 718.0302 237.814797 
L 719.558706 241.814983 
L 721.087211 244.973024 
L 722.615716 240.130694 
L 724.144222 230.972374 
L 725.672727 226.761652 
L 727.201233 227.182725 
L 730.258243 230.024962 
L 731.786749 231.077642 
L 733.315254 230.761838 
L 734.84376 230.024962 
L 736.372265 231.814518 
L 737.90077 236.762117 
L 739.429276 239.709622 
L 740.957781 236.130508 
L 742.486287 229.077549 
L 744.014792 222.656199 
L 745.543297 218.866549 
L 747.071803 219.603425 
L 748.600308 221.287714 
L 751.657319 220.235034 
L 753.185824 220.761374 
L 754.71433 224.235219 
L 756.242835 229.919694 
L 757.771341 231.919786 
L 759.299846 227.919601 
L 760.828351 221.603518 
L 762.356857 218.234941 
L 763.885362 218.340209 
L 765.413867 219.603425 
L 766.942373 219.182353 
L 768.470878 217.498065 
L 769.999384 216.761188 
L 771.527889 216.550652 
L 773.056394 218.550745 
L 774.5849 224.024683 
L 776.113405 227.287993 
L 777.641911 222.445663 
L 779.170416 214.234755 
L 780.698921 209.287157 
L 782.227427 208.760817 
L 783.755932 212.33993 
L 785.284438 215.60324 
L 786.812943 215.919044 
L 788.341448 215.0769 
L 789.869954 213.076807 
L 791.398459 212.655735 
L 792.926965 216.971724 
L 794.45547 220.129766 
L 795.983975 217.287528 
L 797.512481 211.918858 
L 799.040986 206.129116 
L 800.569492 203.181611 
L 802.097997 205.602776 
L 803.626502 208.445013 
L 805.155008 207.392332 
L 806.683513 205.602776 
L 808.212018 207.287064 
L 811.269029 215.182168 
L 812.797535 216.866456 
L 814.32604 212.761003 
L 815.854545 205.497508 
L 817.383051 200.655178 
L 818.911556 199.391961 
L 820.440062 200.760446 
L 821.968567 201.181518 
L 823.497072 201.181518 
L 825.025578 202.12893 
L 826.554083 202.65527 
L 828.082589 203.602683 
L 829.611094 207.287064 
L 831.139599 210.129301 
L 832.668105 207.287064 
L 834.19661 201.07625 
L 835.725116 196.549724 
L 837.253621 194.654899 
L 838.782126 195.707579 
L 840.310632 198.339281 
L 841.839137 198.865621 
L 843.367643 197.076064 
L 844.896148 194.128559 
L 846.424653 193.075878 
L 847.953159 196.76026 
L 849.481664 199.707765 
L 851.010169 195.286507 
L 852.538675 187.812476 
L 854.06718 183.180682 
L 855.595686 181.285858 
L 857.124191 180.864785 
L 858.652696 181.496394 
L 860.181202 181.70693 
L 863.238213 181.180589 
L 864.766718 182.654342 
L 866.295223 187.391404 
L 867.823729 190.023105 
L 869.352234 185.391311 
L 870.88074 178.022548 
L 872.409245 172.443342 
L 873.93775 169.074764 
L 875.466256 168.864228 
L 876.994761 171.495929 
L 878.523267 172.338074 
L 880.051772 170.864321 
L 881.580277 170.022177 
L 883.108783 171.811734 
L 884.637288 176.338259 
L 886.165794 180.127909 
L 887.694299 177.496208 
L 889.222804 169.601105 
L 890.75131 163.600826 
L 892.279815 162.021806 
L 893.80832 162.33761 
L 896.865331 165.074579 
L 898.393837 165.285115 
L 899.922342 164.969311 
L 901.450847 166.443063 
L 902.979353 170.864321 
L 904.507858 173.60129 
L 906.036364 169.180032 
L 907.564869 160.548053 
L 909.093374 154.968847 
L 910.62188 154.337238 
L 912.150385 156.442599 
L 913.678891 158.758496 
L 915.207396 158.337424 
L 916.735901 156.337331 
L 918.264407 156.442599 
L 919.792912 158.442692 
L 922.849923 164.442971 
L 924.378428 161.495465 
L 925.906934 152.547682 
L 927.435439 146.863207 
L 928.963945 146.442135 
L 930.49245 146.652671 
L 932.020955 147.705352 
L 933.549461 147.705352 
L 935.077966 146.442135 
L 936.606471 147.389547 
L 938.134977 150.968661 
L 939.663482 154.23197 
L 941.191988 154.547774 
L 942.720493 149.810712 
L 944.248998 141.705073 
L 945.777504 136.757475 
L 947.306009 136.546939 
L 948.834515 137.494351 
L 950.36302 139.073372 
L 951.891525 139.599712 
L 953.420031 137.389083 
L 954.948536 136.231135 
L 956.477042 137.915424 
L 958.005547 140.441857 
L 959.534052 140.862929 
L 961.062558 135.599527 
L 962.591063 126.967547 
L 964.119569 121.283073 
L 965.648074 119.388248 
L 967.176579 119.493516 
L 968.705085 121.914681 
L 970.23359 123.914774 
L 971.762096 122.756825 
L 973.290601 120.125124 
L 974.819106 119.704052 
L 976.347612 122.967361 
L 977.876117 125.17799 
L 979.404622 118.651372 
L 980.933128 108.124567 
L 982.461633 102.440093 
L 983.990139 100.861072 
L 985.518644 101.071608 
L 987.047149 102.124289 
L 988.575655 102.334825 
L 990.10416 101.071608 
L 991.632666 100.44 
L 991.632666 100.44 
" style="fill:none;stroke:#009e73;stroke-linecap:round;stroke-width:1.5;"/>
   </g>
   <g id="line2d_16">
    <path clip-path="url(#p642f22691a)" d="M 290.04869 370.768336 
L 291.577196 371.715748 
L 293.105701 373.189501 
L 294.634206 373.926377 
L 296.162712 376.031738 
L 297.691217 378.558171 
L 299.219723 378.768707 
L 300.748228 373.926377 
L 302.276733 365.610202 
L 303.805239 358.873047 
L 305.333744 356.662418 
L 306.86225 355.50447 
L 308.390755 356.451882 
L 309.91926 358.136171 
L 311.447766 359.399387 
L 312.976271 360.136264 
L 314.504777 362.452161 
L 316.033282 365.504934 
L 317.561787 366.347078 
L 319.090293 361.504748 
L 320.618798 353.188573 
L 322.147304 346.556686 
L 323.675809 344.451325 
L 325.204314 344.451325 
L 329.789831 346.240882 
L 331.318336 347.39883 
L 332.846841 350.030531 
L 334.375347 352.346428 
L 335.903852 352.135892 
L 337.432357 347.819903 
L 338.960863 339.714263 
L 340.489368 332.977108 
L 342.017874 330.450675 
L 343.546379 329.713799 
L 345.074884 330.240139 
L 346.60339 331.924428 
L 348.131895 332.766572 
L 349.660401 334.029789 
L 351.188906 335.924614 
L 352.717411 338.135243 
L 354.245917 339.398459 
L 355.774422 335.398273 
L 357.302928 327.397902 
L 358.831433 320.871283 
L 360.359938 319.081727 
L 363.416949 318.555386 
L 364.945455 319.081727 
L 366.47396 321.397624 
L 368.002465 323.502984 
L 369.530971 325.818881 
L 371.059476 328.450583 
L 372.587982 328.345314 
L 374.116487 322.976644 
L 375.644992 314.660469 
L 377.173498 307.712778 
L 378.702003 304.449469 
L 380.230508 304.028396 
L 381.759014 306.028489 
L 383.287519 307.186438 
L 384.816025 308.975994 
L 386.34453 310.344479 
L 387.873035 312.028768 
L 389.401541 315.081541 
L 390.930046 315.713149 
L 392.458552 311.291891 
L 393.987057 304.133664 
L 395.515562 298.44919 
L 397.044068 295.291149 
L 398.572573 295.396417 
L 400.101079 296.238561 
L 403.158089 297.607046 
L 404.686595 300.133479 
L 406.2151 303.29152 
L 407.743606 305.712685 
L 409.272111 306.133757 
L 410.800616 301.712499 
L 412.329122 293.396324 
L 413.857627 287.396045 
L 415.386133 284.764344 
L 416.914638 284.027468 
L 418.443143 284.97488 
L 419.971649 286.764437 
L 421.500154 288.343458 
L 423.028659 290.343551 
L 424.557165 291.606767 
L 426.08567 294.65954 
L 427.614176 294.975345 
L 429.142681 289.81721 
L 430.671186 280.974695 
L 432.199692 273.500664 
L 433.728197 269.816282 
L 435.256703 269.711014 
L 436.785208 270.868963 
L 438.313713 272.763787 
L 441.370724 277.711385 
L 444.427735 282.974788 
L 445.95624 283.9222 
L 447.484746 281.395767 
L 449.013251 275.29022 
L 450.541757 269.711014 
L 452.070262 268.131994 
L 453.598767 269.184674 
L 455.127273 270.553159 
L 456.655778 272.237447 
L 458.184284 273.395396 
L 459.712789 275.079684 
L 462.7698 281.185231 
L 464.298305 281.501035 
L 465.82681 277.606117 
L 467.355316 271.184767 
L 468.883821 265.710828 
L 470.412327 262.552787 
L 471.940832 262.447519 
L 474.997843 266.237169 
L 476.526348 267.921457 
L 478.054854 270.44789 
L 479.583359 274.027004 
L 481.111864 275.921829 
L 482.64037 276.869241 
L 484.168875 274.027004 
L 487.225886 257.499921 
L 488.754391 255.39456 
L 490.282897 255.9209 
L 491.811402 255.9209 
L 493.339908 257.710457 
L 494.868413 259.815818 
L 497.925424 265.289756 
L 499.453929 269.079406 
L 500.982435 269.605746 
L 502.51094 265.184488 
L 504.039445 258.236797 
L 505.567951 253.078663 
L 507.096456 249.604818 
L 508.624961 249.815354 
L 510.153467 251.289107 
L 511.681972 252.236519 
L 513.210478 254.236612 
L 514.738983 258.236797 
L 516.267488 262.552787 
L 517.795994 265.921365 
L 519.324499 266.974045 
L 520.853005 263.605468 
L 522.38151 256.657777 
L 523.910015 250.868034 
L 525.438521 248.131065 
L 526.967026 248.131065 
L 528.495532 249.49955 
L 530.024037 251.815447 
L 531.552542 254.973488 
L 533.081048 257.184117 
L 534.609553 258.026261 
L 536.138059 260.973767 
L 537.666564 262.552787 
L 539.195069 258.447333 
L 540.723575 251.499643 
L 542.25208 246.025704 
L 543.780586 243.288735 
L 545.309091 242.762395 
L 546.837596 243.709807 
L 548.366102 244.973024 
L 549.894607 245.394096 
L 551.423112 246.657313 
L 552.951618 249.49955 
L 554.480123 251.815447 
L 556.008629 252.657591 
L 557.537134 248.762673 
L 559.065639 238.972745 
L 560.594145 233.814611 
L 562.12265 229.919694 
L 563.651156 230.13023 
L 565.179661 231.18291 
L 566.708166 232.656663 
L 569.765177 236.55158 
L 571.293683 239.709622 
L 572.822188 243.499271 
L 574.350693 245.18356 
L 575.879199 241.709715 
L 577.407704 233.709343 
L 578.93621 228.656477 
L 580.464715 226.235312 
L 581.99322 227.709065 
L 583.521726 228.656477 
L 585.050231 231.18291 
L 588.107242 234.551488 
L 591.164253 242.341323 
L 592.692758 243.920343 
L 594.221263 241.288642 
L 595.749769 233.604075 
L 597.278274 228.972281 
L 598.80678 228.130137 
L 600.335285 228.024869 
L 601.86379 230.024962 
L 603.392296 232.656663 
L 604.920801 234.656756 
L 606.449307 236.446312 
L 609.506317 243.394003 
L 611.034823 244.341416 
L 612.563328 240.972838 
L 614.091834 234.025147 
L 615.620339 228.551209 
L 617.148844 227.077456 
L 618.67735 228.024869 
L 620.205855 230.024962 
L 621.734361 232.551395 
L 623.262866 234.340951 
L 624.791371 236.867385 
L 627.848382 242.867663 
L 629.376888 243.183467 
L 630.905393 238.551673 
L 632.433898 231.603982 
L 633.962404 226.445848 
L 635.490909 224.445755 
L 637.019414 224.866828 
L 638.54792 226.235312 
L 640.076425 228.551209 
L 641.604931 230.340766 
L 643.133436 232.340859 
L 644.661941 234.762024 
L 646.190447 238.025333 
L 647.718952 238.972745 
L 649.247458 235.288364 
L 650.775963 228.130137 
L 652.304468 221.919322 
L 653.832974 220.44557 
L 655.361479 221.077178 
L 656.889985 224.340487 
L 659.946995 227.603797 
L 661.475501 230.761838 
L 664.532512 238.867477 
L 666.061017 240.657034 
L 667.589522 236.656848 
L 669.118028 230.65657 
L 670.646533 225.81424 
L 672.175039 224.129951 
L 673.703544 224.972096 
L 675.232049 226.130044 
L 676.760555 228.340673 
L 679.817565 233.604075 
L 681.346071 237.498993 
L 682.874576 240.446498 
L 684.403082 241.078106 
L 685.931587 237.393725 
L 687.460092 230.867106 
L 688.988598 225.2879 
L 690.517103 222.445663 
L 692.045609 223.077271 
L 693.574114 224.445755 
L 695.102619 226.445848 
L 696.631125 230.235498 
L 701.216641 239.81489 
L 702.745146 242.130787 
L 704.273652 238.656941 
L 705.802157 230.972374 
L 707.330663 225.919508 
L 708.859168 224.340487 
L 710.387673 223.603611 
L 713.444684 226.551116 
L 714.97319 227.182725 
L 718.0302 230.761838 
L 719.558706 234.025147 
L 721.087211 234.97256 
L 722.615716 230.13023 
L 724.144222 221.182446 
L 725.672727 215.60324 
L 727.201233 213.603147 
L 728.729738 213.392611 
L 730.258243 214.655827 
L 731.786749 216.971724 
L 734.84376 220.866642 
L 737.90077 226.34058 
L 739.429276 227.498529 
L 740.957781 223.287807 
L 742.486287 215.708508 
L 744.014792 210.339838 
L 745.543297 205.91858 
L 747.071803 205.602776 
L 748.600308 208.129209 
L 750.128814 209.181889 
L 751.657319 211.392518 
L 753.185824 214.655827 
L 754.71433 217.498065 
L 756.242835 221.077178 
L 757.771341 222.02459 
L 759.299846 217.813869 
L 760.828351 209.813497 
L 762.356857 205.392239 
L 763.885362 204.444827 
L 766.942373 203.497415 
L 768.470878 204.655363 
L 769.999384 207.4976 
L 771.527889 209.181889 
L 773.056394 211.708322 
L 774.5849 215.60324 
L 776.113405 217.708601 
L 777.641911 212.761003 
L 779.170416 205.181703 
L 780.698921 199.391961 
L 782.227427 196.970796 
L 783.755932 197.076064 
L 785.284438 199.918301 
L 786.812943 201.392054 
L 788.341448 202.339466 
L 789.869954 205.286971 
L 792.926965 209.497693 
L 794.45547 209.392425 
L 795.983975 205.91858 
L 797.512481 199.391961 
L 799.040986 192.339002 
L 800.569492 189.391497 
L 803.626502 192.97061 
L 805.155008 194.023291 
L 808.212018 198.655085 
L 809.740524 201.707858 
L 811.269029 206.023848 
L 812.797535 206.44492 
L 814.32604 201.813126 
L 815.854545 194.023291 
L 817.383051 187.286136 
L 818.911556 184.338631 
L 820.440062 184.864971 
L 821.968567 186.128188 
L 823.497072 187.60194 
L 825.025578 190.233641 
L 826.554083 192.233734 
L 829.611094 198.023476 
L 831.139599 199.391961 
L 832.668105 195.181239 
L 834.19661 187.917744 
L 835.725116 182.654342 
L 837.253621 179.812105 
L 838.782126 180.022641 
L 840.310632 180.970053 
L 841.839137 182.338538 
L 843.367643 183.391218 
L 844.896148 184.654435 
L 846.424653 186.338724 
L 847.953159 188.865157 
L 849.481664 188.759889 
L 851.010169 185.075507 
L 852.538675 176.8646 
L 854.06718 170.969589 
L 855.595686 167.70628 
L 857.124191 166.653599 
L 858.652696 168.337888 
L 860.181202 169.706373 
L 861.709707 171.601197 
L 863.238213 174.338167 
L 864.766718 176.127723 
L 866.295223 179.285765 
L 867.823729 179.496301 
L 869.352234 174.022362 
L 870.88074 165.811455 
L 872.409245 160.126981 
L 873.93775 158.126888 
L 875.466256 157.074207 
L 876.994761 158.126888 
L 878.523267 160.653321 
L 880.051772 161.495465 
L 881.580277 163.706094 
L 883.108783 165.285115 
L 884.637288 168.864228 
L 886.165794 170.232713 
L 887.694299 165.600919 
L 889.222804 157.284744 
L 890.75131 152.021341 
L 892.279815 149.810712 
L 895.336826 149.705444 
L 896.865331 151.810805 
L 898.393837 154.337238 
L 899.922342 157.179476 
L 901.450847 159.600641 
L 902.979353 163.074486 
L 904.507858 163.179754 
L 906.036364 158.337424 
L 907.564869 149.38964 
L 909.093374 143.599898 
L 910.62188 140.23132 
L 912.150385 140.968197 
L 913.678891 142.863022 
L 915.207396 143.284094 
L 916.735901 144.336774 
L 918.264407 146.126331 
L 919.792912 148.547496 
L 921.321418 152.021341 
L 922.849923 152.231877 
L 924.378428 147.81062 
L 927.435439 134.020506 
L 928.963945 131.178269 
L 930.49245 131.494073 
L 933.549461 133.915238 
L 935.077966 135.810063 
L 936.606471 137.494351 
L 938.134977 141.178733 
L 939.663482 144.02097 
L 941.191988 143.810434 
L 942.720493 138.6523 
L 944.248998 130.967733 
L 945.777504 125.599062 
L 947.306009 123.388434 
L 948.834515 123.914774 
L 950.36302 125.17799 
L 951.891525 127.178083 
L 953.420031 126.967547 
L 954.948536 127.704423 
L 956.477042 130.441392 
L 958.005547 132.441485 
L 959.534052 132.336217 
L 961.062558 126.546475 
L 962.591063 116.967083 
L 964.119569 110.651 
L 965.648074 106.966619 
L 967.176579 106.650815 
L 967.176579 106.650815 
" style="fill:none;stroke:#d55e00;stroke-linecap:round;stroke-width:1.5;"/>
   </g>
  </g>
 </g>
 <defs>
  <clipPath id="p642f22691a">
   <rect height="498.96" width="892.8" x="144" y="77.76"/>
  </clipPath>
 </defs>
</svg>
