<?xml version="1.0" encoding="utf-8" standalone="no"?>
<!DOCTYPE svg PUBLIC "-//W3C//DTD SVG 1.1//EN"
  "http://www.w3.org/Graphics/SVG/1.1/DTD/svg11.dtd">
<!-- Created with matplotlib (https://matplotlib.org/) -->
<svg height="648pt" version="1.1" viewBox="0 0 1152 648" width="1152pt" xmlns="http://www.w3.org/2000/svg" xmlns:xlink="http://www.w3.org/1999/xlink">
 <metadata>
  <rdf:RDF xmlns:cc="http://creativecommons.org/ns#" xmlns:dc="http://purl.org/dc/elements/1.1/" xmlns:rdf="http://www.w3.org/1999/02/22-rdf-syntax-ns#">
   <cc:Work>
    <dc:type rdf:resource="http://purl.org/dc/dcmitype/StillImage"/>
    <dc:date>2022-11-18T13:02:13.993707</dc:date>
    <dc:format>image/svg+xml</dc:format>
    <dc:creator>
     <cc:Agent>
      <dc:title>Matplotlib v3.3.1, https://matplotlib.org/</dc:title>
     </cc:Agent>
    </dc:creator>
   </cc:Work>
  </rdf:RDF>
 </metadata>
 <defs>
  <style type="text/css">*{stroke-linecap:butt;stroke-linejoin:round;}</style>
 </defs>
 <g id="figure_1">
  <g id="patch_1">
   <path d="M 0 648 
L 1152 648 
L 1152 0 
L 0 0 
z
" style="fill:#ffffff;"/>
  </g>
  <g id="axes_1">
   <g id="patch_2">
    <path d="M 144 576.72 
L 1036.8 576.72 
L 1036.8 77.76 
L 144 77.76 
z
" style="fill:none;"/>
   </g>
   <g id="patch_3">
    <path d="M 144 576.72 
L 1036.8 576.72 
" style="fill:none;stroke:#d3d3d3;stroke-linecap:square;stroke-linejoin:miter;stroke-width:1.25;"/>
   </g>
   <g id="matplotlib.axis_1">
    <g id="xtick_1">
     <g id="line2d_1">
      <defs>
       <path d="M 0 0 
L 0 6 
" id="mebc437df3a" style="stroke:#696969;stroke-width:1.25;"/>
      </defs>
      <g>
       <use style="fill:#696969;stroke:#696969;stroke-width:1.25;" x="378.57" xlink:href="#mebc437df3a" y="576.72"/>
      </g>
     </g>
     <g id="text_1">
      <!-- 2000 -->
      <g style="fill:#696969;" transform="translate(360.977813 596.218438)scale(0.15 -0.15)">
       <defs>
        <path d="M 52.484375 6.9375 
L 52.484375 0 
L 5.171875 0 
L 5.171875 6.9375 
Q 33.203125 27.9375 38.59375 34.59375 
Q 44 41.265625 44 47.796875 
Q 44 53.90625 39.453125 57.65625 
Q 34.90625 61.421875 29 61.421875 
Q 22.90625 61.421875 18.21875 57.296875 
Q 13.53125 53.171875 12.9375 46.09375 
L 5.171875 48.4375 
Q 10.0625 68.015625 29.109375 68.015625 
Q 39.40625 68.015625 45.84375 62.15625 
Q 52.296875 56.296875 52.296875 47.859375 
Q 52.296875 42.046875 49.234375 36.671875 
Q 46.1875 31.296875 37.6875 23.828125 
Q 29.203125 16.359375 15.71875 6.9375 
z
" id="FranklinGothic-Book-50"/>
        <path d="M 29.390625 -1.3125 
Q 17.875 -1.3125 10.984375 8.671875 
Q 4.109375 18.65625 4.109375 33.453125 
Q 4.109375 48 10.640625 58 
Q 17.1875 68.015625 29.15625 68.015625 
Q 41.65625 68.015625 48.125 57.5625 
Q 54.59375 47.125 54.59375 33.0625 
Q 54.59375 19.28125 47.953125 8.984375 
Q 41.3125 -1.3125 29.390625 -1.3125 
z
M 29.4375 5.21875 
Q 37.890625 5.21875 41.9375 12.859375 
Q 46 20.515625 46 32.078125 
Q 46 44.734375 41.84375 53.125 
Q 37.703125 61.53125 29.046875 61.53125 
Q 20.703125 61.53125 16.625 53.859375 
Q 12.546875 46.1875 12.546875 33.6875 
Q 12.546875 20.703125 16.84375 12.953125 
Q 21.140625 5.21875 29.4375 5.21875 
z
" id="FranklinGothic-Book-48"/>
       </defs>
       <use xlink:href="#FranklinGothic-Book-50"/>
       <use x="58.642578" xlink:href="#FranklinGothic-Book-48"/>
       <use x="117.285156" xlink:href="#FranklinGothic-Book-48"/>
       <use x="175.927734" xlink:href="#FranklinGothic-Book-48"/>
      </g>
     </g>
    </g>
    <g id="xtick_2">
     <g id="line2d_2">
      <g>
       <use style="fill:#696969;stroke:#696969;stroke-width:1.25;" x="656.130511" xlink:href="#mebc437df3a" y="576.72"/>
      </g>
     </g>
     <g id="text_2">
      <!-- 2010 -->
      <g style="fill:#696969;" transform="translate(639.063324 596.218438)scale(0.15 -0.15)">
       <defs>
        <path d="M 55.859375 6.203125 
L 55.859375 0 
L 9.1875 0 
L 9.1875 6.203125 
L 29.203125 6.203125 
L 29.203125 57.671875 
Q 20.359375 48.4375 10.84375 43.265625 
L 10.84375 51.65625 
Q 23.96875 58.546875 31.203125 68.015625 
L 37.15625 68.015625 
L 37.15625 6.203125 
z
" id="FranklinGothic-Book-49"/>
       </defs>
       <use xlink:href="#FranklinGothic-Book-50"/>
       <use x="58.642578" xlink:href="#FranklinGothic-Book-48"/>
       <use x="113.535156" xlink:href="#FranklinGothic-Book-49"/>
       <use x="168.927734" xlink:href="#FranklinGothic-Book-48"/>
      </g>
     </g>
    </g>
    <g id="xtick_3">
     <g id="line2d_3">
      <g>
       <use style="fill:#696969;stroke:#696969;stroke-width:1.25;" x="933.691023" xlink:href="#mebc437df3a" y="576.72"/>
      </g>
     </g>
     <g id="text_3">
      <!-- 2020 -->
      <g style="fill:#696969;" transform="translate(916.098835 596.218438)scale(0.15 -0.15)">
       <use xlink:href="#FranklinGothic-Book-50"/>
       <use x="58.642578" xlink:href="#FranklinGothic-Book-48"/>
       <use x="117.285156" xlink:href="#FranklinGothic-Book-50"/>
       <use x="175.927734" xlink:href="#FranklinGothic-Book-48"/>
      </g>
     </g>
    </g>
    <g id="text_4">
     <!-- Year -->
     <g style="fill:#696969;" transform="translate(572.109375 616.048125)scale(0.2 -0.2)">
      <defs>
       <path d="M 52 66.65625 
L 29.6875 28.03125 
L 29.6875 0 
L 21.34375 0 
L 21.34375 28.03125 
L -0.984375 66.65625 
L 8.84375 66.65625 
L 26.5625 35.984375 
L 44.390625 66.65625 
z
" id="FranklinGothic-Book-89"/>
       <path d="M 40.234375 14.703125 
L 47.359375 13.234375 
Q 45.40625 6.9375 39.734375 2.8125 
Q 34.078125 -1.3125 26.421875 -1.3125 
Q 16.3125 -1.3125 10.0625 5.78125 
Q 3.8125 12.890625 3.8125 24.421875 
Q 3.8125 36.1875 10.296875 43.4375 
Q 16.796875 50.6875 26.609375 50.6875 
Q 36.28125 50.6875 42.15625 44 
Q 48.046875 37.3125 48.1875 23.96875 
L 12.359375 23.96875 
Q 12.359375 12.796875 17.046875 8.890625 
Q 21.734375 4.984375 26.953125 4.984375 
Q 36.375 4.984375 40.234375 14.703125 
z
M 39.796875 29.6875 
Q 39.703125 33.84375 38.421875 37.0625 
Q 37.15625 40.28125 34.125 42.546875 
Q 31.109375 44.828125 26.859375 44.828125 
Q 21.140625 44.828125 17.15625 40.71875 
Q 13.1875 36.625 12.703125 29.6875 
z
" id="FranklinGothic-Book-101"/>
       <path d="M 46.296875 0 
L 38.671875 0 
Q 38.234375 2.34375 37.796875 8.890625 
Q 32.71875 -1.3125 20.515625 -1.3125 
Q 12.203125 -1.3125 7.765625 3.078125 
Q 3.328125 7.46875 3.328125 13.625 
Q 3.328125 21.09375 9.671875 25.90625 
Q 16.015625 30.71875 31.25 30.71875 
Q 33.296875 30.71875 37.796875 30.515625 
Q 37.796875 36.375 36.890625 38.984375 
Q 35.984375 41.609375 33.046875 43.171875 
Q 30.125 44.734375 25.34375 44.734375 
Q 13.671875 44.734375 11.765625 35.84375 
L 4.6875 37.0625 
Q 7.28125 50.6875 26.46875 50.6875 
Q 36.671875 50.6875 40.9375 46.171875 
Q 45.21875 41.65625 45.21875 30.515625 
L 45.21875 9.578125 
Q 45.21875 4.34375 46.296875 0 
z
M 37.796875 24.65625 
Q 33.109375 24.953125 30.671875 24.953125 
Q 21.578125 24.953125 16.546875 21.96875 
Q 11.53125 19 11.53125 13.28125 
Q 11.53125 9.671875 14.234375 7.125 
Q 16.9375 4.59375 22.078125 4.59375 
Q 29 4.59375 33.46875 9.625 
Q 37.9375 14.65625 37.9375 21.4375 
Q 37.9375 22.796875 37.796875 24.65625 
z
" id="FranklinGothic-Book-97"/>
       <path d="M 15.328125 0 
L 7.671875 0 
L 7.671875 49.3125 
L 14.40625 49.3125 
L 14.40625 37.796875 
Q 17.96875 45.953125 21.546875 48.359375 
Q 25.140625 50.78125 28.90625 50.78125 
Q 30.078125 50.78125 31.9375 50.59375 
L 31.9375 43.265625 
L 30.375 43.265625 
Q 24.03125 43.265625 19.828125 38.53125 
Q 15.625 33.796875 15.328125 26.078125 
z
" id="FranklinGothic-Book-114"/>
      </defs>
      <use xlink:href="#FranklinGothic-Book-89"/>
      <use x="45.025391" xlink:href="#FranklinGothic-Book-101"/>
      <use x="97.076172" xlink:href="#FranklinGothic-Book-97"/>
      <use x="149.957031" xlink:href="#FranklinGothic-Book-114"/>
     </g>
    </g>
   </g>
   <g id="matplotlib.axis_2">
    <g id="ytick_1">
     <g id="line2d_4">
      <path clip-path="url(#p55ee424b76)" d="M 144 555.424992 
L 1036.8 555.424992 
" style="fill:none;stroke:#d3d3d3;stroke-linecap:round;stroke-opacity:0.5;"/>
     </g>
     <g id="text_5">
      <!-- 0 -->
      <g style="fill:#696969;" transform="translate(125.703906 560.424211)scale(0.15 -0.15)">
       <use xlink:href="#FranklinGothic-Book-48"/>
      </g>
     </g>
    </g>
    <g id="ytick_2">
     <g id="line2d_5">
      <path clip-path="url(#p55ee424b76)" d="M 144 510.788668 
L 1036.8 510.788668 
" style="fill:none;stroke:#d3d3d3;stroke-linecap:round;stroke-opacity:0.5;"/>
     </g>
     <g id="text_6">
      <!-- 10 -->
      <g style="fill:#696969;" transform="translate(117.395313 515.787886)scale(0.15 -0.15)">
       <use xlink:href="#FranklinGothic-Book-49"/>
       <use x="55.392578" xlink:href="#FranklinGothic-Book-48"/>
      </g>
     </g>
    </g>
    <g id="ytick_3">
     <g id="line2d_6">
      <path clip-path="url(#p55ee424b76)" d="M 144 466.152343 
L 1036.8 466.152343 
" style="fill:none;stroke:#d3d3d3;stroke-linecap:round;stroke-opacity:0.5;"/>
     </g>
     <g id="text_7">
      <!-- 20 -->
      <g style="fill:#696969;" transform="translate(116.907813 471.151562)scale(0.15 -0.15)">
       <use xlink:href="#FranklinGothic-Book-50"/>
       <use x="58.642578" xlink:href="#FranklinGothic-Book-48"/>
      </g>
     </g>
    </g>
    <g id="ytick_4">
     <g id="line2d_7">
      <path clip-path="url(#p55ee424b76)" d="M 144 421.516019 
L 1036.8 421.516019 
" style="fill:none;stroke:#d3d3d3;stroke-linecap:round;stroke-opacity:0.5;"/>
     </g>
     <g id="text_8">
      <!-- 30 -->
      <g style="fill:#696969;" transform="translate(116.907813 426.515238)scale(0.15 -0.15)">
       <defs>
        <path d="M 19.34375 31.34375 
L 19.34375 37.984375 
L 26.953125 37.984375 
Q 35.296875 37.984375 38.890625 41.40625 
Q 42.484375 44.828125 42.484375 49.703125 
Q 42.484375 55.078125 38.46875 58.21875 
Q 34.46875 61.375 28.421875 61.375 
Q 17.1875 61.375 12.890625 50.53125 
L 5.375 52.6875 
Q 11.8125 68.015625 29.203125 68.015625 
Q 38.96875 68.015625 44.96875 62.8125 
Q 50.984375 57.625 50.984375 50.296875 
Q 50.984375 44.625 47.359375 40.40625 
Q 43.75 36.1875 38.09375 35.109375 
Q 44.4375 34.1875 49 29.78125 
Q 53.5625 25.390625 53.5625 18.40625 
Q 53.5625 10.0625 46.765625 4.375 
Q 39.984375 -1.3125 28.171875 -1.3125 
Q 18.796875 -1.3125 12.125 3.125 
Q 5.46875 7.5625 2.9375 14.9375 
L 10.6875 17.53125 
Q 14.203125 5.46875 28.03125 5.46875 
Q 37.015625 5.46875 40.9375 9.296875 
Q 44.875 13.140625 44.875 18.453125 
Q 44.875 24.21875 40.15625 27.78125 
Q 35.453125 31.34375 26.953125 31.34375 
z
" id="FranklinGothic-Book-51"/>
       </defs>
       <use xlink:href="#FranklinGothic-Book-51"/>
       <use x="58.642578" xlink:href="#FranklinGothic-Book-48"/>
      </g>
     </g>
    </g>
    <g id="ytick_5">
     <g id="line2d_8">
      <path clip-path="url(#p55ee424b76)" d="M 144 376.879694 
L 1036.8 376.879694 
" style="fill:none;stroke:#d3d3d3;stroke-linecap:round;stroke-opacity:0.5;"/>
     </g>
     <g id="text_9">
      <!-- 40 -->
      <g style="fill:#696969;" transform="translate(116.907813 381.878913)scale(0.15 -0.15)">
       <defs>
        <path d="M 44.09375 0 
L 36.03125 0 
L 36.03125 15.875 
L 3.078125 15.875 
L 3.078125 21.484375 
L 33.640625 68.0625 
L 44.09375 68.0625 
L 44.09375 22.46875 
L 54.890625 22.46875 
L 54.890625 15.875 
L 44.09375 15.875 
z
M 36.03125 22.46875 
L 36.03125 54 
Q 36.03125 57.421875 36.1875 61.375 
Q 34.078125 57.515625 32.5625 55.125 
L 11.765625 22.46875 
z
" id="FranklinGothic-Book-52"/>
       </defs>
       <use xlink:href="#FranklinGothic-Book-52"/>
       <use x="58.642578" xlink:href="#FranklinGothic-Book-48"/>
      </g>
     </g>
    </g>
    <g id="ytick_6">
     <g id="line2d_9">
      <path clip-path="url(#p55ee424b76)" d="M 144 332.24337 
L 1036.8 332.24337 
" style="fill:none;stroke:#d3d3d3;stroke-linecap:round;stroke-opacity:0.5;"/>
     </g>
     <g id="text_10">
      <!-- 50 -->
      <g style="fill:#696969;" transform="translate(116.907813 337.242589)scale(0.15 -0.15)">
       <defs>
        <path d="M 48.875 66.65625 
L 48.1875 59.46875 
L 15.4375 59.46875 
L 14.015625 37.84375 
Q 21.4375 45.125 30.328125 45.125 
Q 39.703125 45.125 46.515625 38.625 
Q 53.328125 32.125 53.328125 22.015625 
Q 53.328125 11.765625 45.921875 5.21875 
Q 38.53125 -1.3125 27.828125 -1.3125 
Q 19.4375 -1.3125 12.890625 3.078125 
Q 6.34375 7.46875 4.296875 14.453125 
L 11.421875 16.890625 
Q 15.828125 5.28125 27.9375 5.28125 
Q 35.890625 5.28125 40.578125 9.984375 
Q 45.265625 14.703125 45.265625 22.015625 
Q 45.265625 29.6875 40.625 33.984375 
Q 35.984375 38.28125 29.5 38.28125 
Q 20.015625 38.28125 13.8125 29.203125 
L 7.234375 30.609375 
L 9.375 66.65625 
z
" id="FranklinGothic-Book-53"/>
       </defs>
       <use xlink:href="#FranklinGothic-Book-53"/>
       <use x="58.642578" xlink:href="#FranklinGothic-Book-48"/>
      </g>
     </g>
    </g>
    <g id="ytick_7">
     <g id="line2d_10">
      <path clip-path="url(#p55ee424b76)" d="M 144 287.607046 
L 1036.8 287.607046 
" style="fill:none;stroke:#d3d3d3;stroke-linecap:round;stroke-opacity:0.5;"/>
     </g>
     <g id="text_11">
      <!-- 60 -->
      <g style="fill:#696969;" transform="translate(116.907813 292.606264)scale(0.15 -0.15)">
       <defs>
        <path d="M 53.5625 53.03125 
L 46.046875 50.984375 
Q 42.1875 61.140625 31.984375 61.140625 
Q 13.234375 61.140625 12.796875 30.125 
Q 15.765625 37.015625 21.234375 40.328125 
Q 26.703125 43.65625 32.8125 43.65625 
Q 42.09375 43.65625 48.359375 37.1875 
Q 54.640625 30.71875 54.640625 21.6875 
Q 54.640625 12.3125 47.96875 5.5 
Q 41.3125 -1.3125 30.90625 -1.3125 
Q 19.09375 -1.3125 12.078125 7.59375 
Q 5.078125 16.5 5.078125 31.84375 
Q 5.078125 46.828125 11.6875 57.421875 
Q 18.3125 68.015625 32.171875 68.015625 
Q 48.140625 68.015625 53.5625 53.03125 
z
M 30.765625 5.375 
Q 37.84375 5.375 42.359375 10.03125 
Q 46.875 14.703125 46.875 21.234375 
Q 46.875 27.6875 42.453125 32.296875 
Q 38.03125 36.921875 31.5 36.921875 
Q 24.75 36.921875 19.71875 32.078125 
Q 14.703125 27.25 14.703125 20.75 
Q 14.703125 14.75 19.1875 10.0625 
Q 23.6875 5.375 30.765625 5.375 
z
" id="FranklinGothic-Book-54"/>
       </defs>
       <use xlink:href="#FranklinGothic-Book-54"/>
       <use x="58.642578" xlink:href="#FranklinGothic-Book-48"/>
      </g>
     </g>
    </g>
    <g id="ytick_8">
     <g id="line2d_11">
      <path clip-path="url(#p55ee424b76)" d="M 144 242.970721 
L 1036.8 242.970721 
" style="fill:none;stroke:#d3d3d3;stroke-linecap:round;stroke-opacity:0.5;"/>
     </g>
     <g id="text_12">
      <!-- 70 -->
      <g style="fill:#696969;" transform="translate(116.907813 247.96994)scale(0.15 -0.15)">
       <defs>
        <path d="M 28.078125 0 
L 19.484375 0 
Q 19.484375 16.75 26.3125 32.59375 
Q 33.15625 48.4375 43.0625 59.328125 
L 6.890625 59.328125 
L 7.71875 66.65625 
L 51.765625 66.65625 
L 51.765625 61.671875 
Q 39.84375 47.3125 33.9375 31.78125 
Q 28.03125 16.265625 28.03125 2.296875 
Q 28.03125 1.515625 28.078125 0 
z
" id="FranklinGothic-Book-55"/>
       </defs>
       <use xlink:href="#FranklinGothic-Book-55"/>
       <use x="58.642578" xlink:href="#FranklinGothic-Book-48"/>
      </g>
     </g>
    </g>
    <g id="ytick_9">
     <g id="line2d_12">
      <path clip-path="url(#p55ee424b76)" d="M 144 198.334397 
L 1036.8 198.334397 
" style="fill:none;stroke:#d3d3d3;stroke-linecap:round;stroke-opacity:0.5;"/>
     </g>
     <g id="text_13">
      <!-- 80 -->
      <g style="fill:#696969;" transform="translate(116.907813 203.333616)scale(0.15 -0.15)">
       <defs>
        <path d="M 19.484375 34.578125 
Q 6.84375 40.09375 6.84375 50.59375 
Q 6.84375 58.203125 13.140625 63.109375 
Q 19.4375 68.015625 29.828125 68.015625 
Q 40.09375 68.015625 46.140625 63.296875 
Q 52.203125 58.59375 52.203125 50.984375 
Q 52.203125 40.375 39.265625 35.796875 
Q 49.703125 30.953125 52.359375 26.453125 
Q 55.03125 21.96875 55.03125 17.484375 
Q 55.03125 9.46875 48.21875 4.078125 
Q 41.40625 -1.3125 29.734375 -1.3125 
Q 17.28125 -1.3125 10.4375 4.171875 
Q 3.609375 9.671875 3.609375 17.234375 
Q 3.609375 28.515625 19.484375 34.578125 
z
M 29.59375 38.71875 
Q 37.984375 40.96875 41.453125 43.890625 
Q 44.921875 46.828125 44.921875 51.21875 
Q 44.921875 56.34375 40.796875 59 
Q 36.671875 61.671875 29.9375 61.671875 
Q 23.484375 61.671875 19.375 58.859375 
Q 15.28125 56.0625 15.28125 51.3125 
Q 15.28125 46.625 19.84375 43.203125 
Q 24.421875 39.796875 29.59375 38.71875 
z
M 28.65625 31.0625 
Q 11.765625 27.046875 11.765625 16.9375 
Q 11.765625 11.671875 16.375 8.328125 
Q 21 4.984375 29.984375 4.984375 
Q 37.59375 4.984375 42.234375 8.25 
Q 46.875 11.53125 46.875 16.609375 
Q 46.875 26.3125 28.65625 31.0625 
z
" id="FranklinGothic-Book-56"/>
       </defs>
       <use xlink:href="#FranklinGothic-Book-56"/>
       <use x="58.642578" xlink:href="#FranklinGothic-Book-48"/>
      </g>
     </g>
    </g>
    <g id="ytick_10">
     <g id="line2d_13">
      <path clip-path="url(#p55ee424b76)" d="M 144 153.698073 
L 1036.8 153.698073 
" style="fill:none;stroke:#d3d3d3;stroke-linecap:round;stroke-opacity:0.5;"/>
     </g>
     <g id="text_14">
      <!-- 90 -->
      <g style="fill:#696969;" transform="translate(116.907813 158.697291)scale(0.15 -0.15)">
       <defs>
        <path d="M 5.71875 12.15625 
L 12.40625 14.59375 
Q 16.546875 5.375 26.375 5.375 
Q 35.890625 5.375 40.703125 13.375 
Q 45.515625 21.390625 45.65625 35.109375 
Q 39.109375 23.09375 25.984375 23.09375 
Q 16.703125 23.09375 10.40625 29.421875 
Q 4.109375 35.75 4.109375 45.0625 
Q 4.109375 54.546875 10.71875 61.28125 
Q 17.328125 68.015625 27.59375 68.015625 
Q 40.140625 68.015625 46.828125 59.203125 
Q 53.515625 50.390625 53.515625 34.96875 
Q 53.515625 18.75 46.4375 8.71875 
Q 39.359375 -1.3125 26.265625 -1.3125 
Q 10.984375 -1.3125 5.71875 12.15625 
z
M 27.828125 29.78125 
Q 34.71875 29.78125 39.375 34.59375 
Q 44.046875 39.40625 44.046875 45.84375 
Q 44.046875 52.09375 39.625 56.578125 
Q 35.203125 61.078125 27.984375 61.078125 
Q 20.65625 61.078125 16.40625 56.46875 
Q 12.15625 51.859375 12.15625 45.21875 
Q 12.15625 38.09375 16.859375 33.9375 
Q 21.578125 29.78125 27.828125 29.78125 
z
" id="FranklinGothic-Book-57"/>
       </defs>
       <use xlink:href="#FranklinGothic-Book-57"/>
       <use x="58.642578" xlink:href="#FranklinGothic-Book-48"/>
      </g>
     </g>
    </g>
    <g id="ytick_11">
     <g id="line2d_14">
      <path clip-path="url(#p55ee424b76)" d="M 144 109.061748 
L 1036.8 109.061748 
" style="fill:none;stroke:#d3d3d3;stroke-linecap:round;stroke-opacity:0.5;"/>
     </g>
     <g id="text_15">
      <!-- 100 -->
      <g style="fill:#696969;" transform="translate(108.599219 114.060967)scale(0.15 -0.15)">
       <use xlink:href="#FranklinGothic-Book-49"/>
       <use x="55.392578" xlink:href="#FranklinGothic-Book-48"/>
       <use x="114.035156" xlink:href="#FranklinGothic-Book-48"/>
      </g>
     </g>
    </g>
    <g id="text_16">
     <!-- mm -->
     <g style="fill:#696969;" transform="translate(95.267969 343.518125)rotate(-90)scale(0.2 -0.2)">
      <defs>
       <path d="M 73.734375 0 
L 66.265625 0 
L 66.265625 30.671875 
Q 66.265625 35.40625 65.59375 37.765625 
Q 64.9375 40.140625 62.390625 42.109375 
Q 59.859375 44.09375 56.6875 44.09375 
Q 52.296875 44.09375 48.21875 40.0625 
Q 44.140625 36.03125 44.140625 27.78125 
L 44.140625 0 
L 36.71875 0 
L 36.71875 32.46875 
Q 36.71875 38.96875 33.609375 41.65625 
Q 30.515625 44.34375 27.09375 44.34375 
Q 22.21875 44.34375 18.59375 40.140625 
Q 14.984375 35.9375 14.984375 29.5 
L 14.984375 0 
L 7.671875 0 
L 7.671875 49.3125 
L 14.265625 49.3125 
L 14.265625 39.84375 
Q 19.78125 50.6875 29.4375 50.6875 
Q 34.765625 50.6875 38.46875 47.21875 
Q 42.1875 43.75 43.265625 38.875 
Q 48.34375 50.6875 58.84375 50.6875 
Q 63.875 50.6875 67.65625 47.796875 
Q 71.4375 44.921875 72.578125 41.1875 
Q 73.734375 37.453125 73.734375 30.671875 
z
" id="FranklinGothic-Book-109"/>
      </defs>
      <use xlink:href="#FranklinGothic-Book-109"/>
      <use x="81.396484" xlink:href="#FranklinGothic-Book-109"/>
     </g>
    </g>
   </g>
   <g id="text_17">
    <!-- Global mean sea level change -->
    <g style="fill:#696969;" transform="translate(144 42.76)scale(0.4 -0.4)">
     <defs>
      <path d="M 57.71875 33.59375 
L 57.71875 -0.875 
L 52.59375 -0.875 
L 50.296875 7.46875 
Q 44.140625 -1.3125 31.984375 -1.3125 
Q 18.796875 -1.3125 11.46875 8.59375 
Q 4.15625 18.5 4.15625 32.671875 
Q 4.15625 47.796875 11.90625 57.90625 
Q 19.671875 68.015625 33.015625 68.015625 
Q 51.421875 68.015625 57.03125 48.6875 
L 49.125 46.78125 
Q 47.40625 54.203125 42.71875 57.5625 
Q 38.03125 60.9375 32.46875 60.9375 
Q 22.609375 60.9375 17.921875 52.96875 
Q 13.234375 45.015625 13.234375 33.015625 
Q 13.234375 20.0625 18.484375 12.765625 
Q 23.734375 5.46875 32.765625 5.46875 
Q 39.796875 5.46875 44.5 10.125 
Q 49.21875 14.796875 49.21875 23 
Q 49.21875 24.515625 49.125 26.609375 
L 32.625 26.609375 
L 32.625 33.59375 
z
" id="FranklinGothic-Book-71"/>
      <path d="M 15.328125 0 
L 7.671875 0 
L 7.671875 66.65625 
L 15.328125 66.65625 
z
" id="FranklinGothic-Book-108"/>
      <path d="M 25.34375 -1.3125 
Q 15.1875 -1.3125 9.5 6.203125 
Q 3.8125 13.71875 3.8125 24.859375 
Q 3.8125 36.625 10.203125 43.65625 
Q 16.609375 50.6875 26.125 50.6875 
Q 36.328125 50.6875 42.203125 43.28125 
Q 48.09375 35.890625 48.09375 24.8125 
Q 48.09375 13.28125 41.75 5.984375 
Q 35.40625 -1.3125 25.34375 -1.3125 
z
M 25.921875 4.984375 
Q 31.78125 4.984375 35.734375 9.8125 
Q 39.703125 14.65625 39.703125 24.859375 
Q 39.703125 35.109375 35.546875 39.71875 
Q 31.390625 44.34375 25.828125 44.34375 
Q 20.125 44.34375 16.15625 39.671875 
Q 12.203125 35.015625 12.203125 24.90625 
Q 12.203125 14.203125 16.15625 9.59375 
Q 20.125 4.984375 25.921875 4.984375 
z
" id="FranklinGothic-Book-111"/>
      <path d="M 11.375 0 
L 7.671875 0 
L 7.671875 66.65625 
L 15.328125 66.65625 
L 15.328125 41.109375 
Q 20.609375 50.6875 29.890625 50.6875 
Q 38.375 50.6875 44.109375 44 
Q 49.859375 37.3125 49.859375 24.5625 
Q 49.859375 13.578125 44.21875 6.125 
Q 38.578125 -1.3125 29.546875 -1.3125 
Q 19.484375 -1.3125 14.109375 8.15625 
z
M 15.328125 19.34375 
Q 15.875 11.765625 20 8.34375 
Q 24.125 4.9375 28.71875 4.9375 
Q 34.578125 4.9375 38.15625 10.015625 
Q 41.75 15.09375 41.75 23.921875 
Q 41.75 33.453125 38.28125 38.890625 
Q 34.8125 44.34375 28.65625 44.34375 
Q 23.828125 44.34375 19.9375 40.453125 
Q 16.0625 36.578125 15.328125 30.421875 
z
" id="FranklinGothic-Book-98"/>
      <path id="FranklinGothic-Book-32"/>
      <path d="M 46.53125 0 
L 39.359375 0 
L 39.359375 31.6875 
Q 39.359375 38.53125 36.375 41.3125 
Q 33.40625 44.09375 29.15625 44.09375 
Q 23.296875 44.09375 19.3125 39.40625 
Q 15.328125 34.71875 15.328125 27.046875 
L 15.328125 0 
L 7.671875 0 
L 7.671875 49.3125 
L 14.796875 49.3125 
L 14.796875 40.234375 
Q 20.796875 50.6875 30.375 50.6875 
Q 35.890625 50.6875 39.765625 47.828125 
Q 43.65625 44.96875 45.09375 41.40625 
Q 46.53125 37.84375 46.53125 28.515625 
z
" id="FranklinGothic-Book-110"/>
      <path d="M 1.03125 12.796875 
L 8.34375 14.3125 
Q 10.796875 4.984375 23.78125 4.984375 
Q 28.5625 4.984375 31.875 7.125 
Q 35.203125 9.28125 35.203125 13.1875 
Q 35.203125 19 26.765625 20.5625 
L 16.359375 22.515625 
Q 10.25 23.6875 6.640625 27.09375 
Q 3.03125 30.515625 3.03125 36.140625 
Q 3.03125 42.328125 7.953125 46.5 
Q 12.890625 50.6875 21.234375 50.6875 
Q 37.3125 50.6875 41.0625 38.140625 
L 34.03125 36.625 
Q 31 44.34375 21.578125 44.34375 
Q 16.890625 44.34375 13.890625 42.40625 
Q 10.890625 40.484375 10.890625 37.015625 
Q 10.890625 31.546875 18.5625 30.125 
L 28.171875 28.421875 
Q 43.265625 25.6875 43.265625 13.8125 
Q 43.265625 7.03125 37.640625 2.859375 
Q 32.03125 -1.3125 22.703125 -1.3125 
Q 5.171875 -1.3125 1.03125 12.796875 
z
" id="FranklinGothic-Book-115"/>
      <path d="M 43.796875 49.3125 
L 26.765625 0 
L 18.796875 0 
L 1.171875 49.3125 
L 9.671875 49.3125 
L 23.390625 9.234375 
L 36.96875 49.3125 
z
" id="FranklinGothic-Book-118"/>
      <path d="M 36.8125 17.28125 
L 43.75 16.0625 
Q 42.28125 7.90625 37.25 3.296875 
Q 32.234375 -1.3125 24.703125 -1.3125 
Q 14.5 -1.3125 9.15625 6.203125 
Q 3.8125 13.71875 3.8125 24.5625 
Q 3.8125 35.796875 9.453125 43.234375 
Q 15.09375 50.6875 24.8125 50.6875 
Q 32.859375 50.6875 37.71875 45.875 
Q 42.578125 41.0625 43.75 33.453125 
L 36.8125 32.125 
Q 34.859375 44.34375 25 44.34375 
Q 18.65625 44.34375 15.234375 38.9375 
Q 11.8125 33.546875 11.8125 24.953125 
Q 11.8125 15.484375 15.203125 10.234375 
Q 18.609375 4.984375 24.75 4.984375 
Q 34.28125 4.984375 36.8125 17.28125 
z
" id="FranklinGothic-Book-99"/>
      <path d="M 46.34375 0 
L 38.671875 0 
L 38.671875 29.9375 
Q 38.671875 35.203125 38.015625 37.84375 
Q 37.359375 40.484375 34.890625 42.40625 
Q 32.421875 44.34375 29.203125 44.34375 
Q 23.296875 44.34375 19.3125 39.5 
Q 15.328125 34.671875 15.328125 26.5625 
L 15.328125 0 
L 7.671875 0 
L 7.671875 66.65625 
L 15.328125 66.65625 
L 15.328125 40.234375 
Q 20.5625 50.6875 30.28125 50.6875 
Q 34.625 50.6875 38.015625 48.96875 
Q 41.40625 47.265625 43.203125 44.484375 
Q 45.015625 41.703125 45.671875 38.984375 
Q 46.34375 36.28125 46.34375 29.9375 
z
" id="FranklinGothic-Book-104"/>
      <path d="M 47.953125 57.03125 
L 47.953125 50.921875 
Q 42.671875 50.921875 40.890625 49.703125 
Q 39.109375 48.484375 38.53125 45.3125 
Q 43.265625 39.84375 43.265625 33.40625 
Q 43.265625 26.65625 38.109375 21.828125 
Q 32.953125 17 24.265625 17 
Q 22.3125 17 20.90625 17.28125 
Q 18.21875 17.828125 17.53125 17.828125 
Q 16.21875 17.828125 14.359375 16.53125 
Q 12.5 15.234375 12.5 13.1875 
Q 12.5 10.25 15.1875 9.375 
Q 17.875 8.5 27.828125 8.25 
Q 36.28125 8.015625 40.3125 7.109375 
Q 44.34375 6.203125 47.125 3.09375 
Q 49.90625 0 49.90625 -4.5 
Q 49.90625 -18.609375 25.09375 -18.609375 
Q 13.328125 -18.609375 7.9375 -15.0625 
Q 2.546875 -11.53125 2.546875 -5.609375 
Q 2.546875 1.5625 10.0625 4.25 
Q 5.21875 7.421875 5.21875 12.203125 
Q 5.21875 17.921875 12.0625 20.953125 
Q 5.671875 26.125 5.671875 33.984375 
Q 5.671875 41.3125 11.140625 46 
Q 16.609375 50.6875 24.46875 50.6875 
Q 30.03125 50.6875 34.578125 48.578125 
Q 35.296875 53.421875 37.953125 55.265625 
Q 40.625 57.125 46.046875 57.125 
Q 46.578125 57.125 47.953125 57.03125 
z
M 24.515625 22.859375 
Q 29.390625 22.859375 32.46875 25.859375 
Q 35.546875 28.859375 35.546875 33.640625 
Q 35.546875 38.53125 32.34375 41.625 
Q 29.15625 44.734375 24.609375 44.734375 
Q 20.265625 44.734375 16.890625 41.828125 
Q 13.53125 38.921875 13.53125 33.546875 
Q 13.53125 28.765625 16.546875 25.8125 
Q 19.578125 22.859375 24.515625 22.859375 
z
M 15.328125 2 
Q 9.96875 -0.34375 9.96875 -4.78125 
Q 9.96875 -8.546875 14.375 -10.625 
Q 18.796875 -12.703125 25.640625 -12.703125 
Q 31.984375 -12.703125 37.25 -10.90625 
Q 42.53125 -9.125 42.53125 -4.890625 
Q 42.53125 -2.59375 40.96875 -1.125 
Q 39.40625 0.34375 36.6875 0.734375 
Q 33.984375 1.125 27.25 1.3125 
Q 19.1875 1.515625 15.328125 2 
z
" id="FranklinGothic-Book-103"/>
     </defs>
     <use xlink:href="#FranklinGothic-Book-71"/>
     <use x="64.697266" xlink:href="#FranklinGothic-Book-108"/>
     <use x="87.695312" xlink:href="#FranklinGothic-Book-111"/>
     <use x="139.648438" xlink:href="#FranklinGothic-Book-98"/>
     <use x="193.359375" xlink:href="#FranklinGothic-Book-97"/>
     <use x="246.240234" xlink:href="#FranklinGothic-Book-108"/>
     <use x="269.238281" xlink:href="#FranklinGothic-Book-32"/>
     <use x="294.238281" xlink:href="#FranklinGothic-Book-109"/>
     <use x="375.634766" xlink:href="#FranklinGothic-Book-101"/>
     <use x="427.685547" xlink:href="#FranklinGothic-Book-97"/>
     <use x="480.566406" xlink:href="#FranklinGothic-Book-110"/>
     <use x="534.765625" xlink:href="#FranklinGothic-Book-32"/>
     <use x="559.765625" xlink:href="#FranklinGothic-Book-115"/>
     <use x="606.152344" xlink:href="#FranklinGothic-Book-101"/>
     <use x="658.203125" xlink:href="#FranklinGothic-Book-97"/>
     <use x="711.083984" xlink:href="#FranklinGothic-Book-32"/>
     <use x="736.083984" xlink:href="#FranklinGothic-Book-108"/>
     <use x="759.082031" xlink:href="#FranklinGothic-Book-101"/>
     <use x="809.382812" xlink:href="#FranklinGothic-Book-118"/>
     <use x="852.902344" xlink:href="#FranklinGothic-Book-101"/>
     <use x="904.953125" xlink:href="#FranklinGothic-Book-108"/>
     <use x="927.951172" xlink:href="#FranklinGothic-Book-32"/>
     <use x="952.951172" xlink:href="#FranklinGothic-Book-99"/>
     <use x="999.533203" xlink:href="#FranklinGothic-Book-104"/>
     <use x="1053.537109" xlink:href="#FranklinGothic-Book-97"/>
     <use x="1106.417969" xlink:href="#FranklinGothic-Book-110"/>
     <use x="1160.617188" xlink:href="#FranklinGothic-Book-103"/>
     <use x="1209.738281" xlink:href="#FranklinGothic-Book-101"/>
    </g>
   </g>
   <g id="legend_1">
    <g id="line2d_15"/>
    <g id="text_18">
     <!-- AVISO CNES (1993.01.05-2022.04.02) -->
     <g style="fill:#ff0000;" transform="translate(185.856 129.7184)scale(0.2 -0.2)">
      <defs>
       <path d="M 53.21875 0 
L 44.671875 0 
L 37.9375 19.484375 
L 13.28125 19.484375 
L 7.328125 0 
L 0.34375 0 
L 21.96875 66.65625 
L 31.5 66.65625 
z
M 36.1875 25.734375 
L 25.921875 57.765625 
L 15.578125 25.734375 
z
" id="FranklinGothic-Book-65"/>
       <path d="M 53.328125 66.65625 
L 30.859375 0 
L 22.796875 0 
L 0.34375 66.65625 
L 9.03125 66.65625 
L 27.640625 11.671875 
L 46.046875 66.65625 
z
" id="FranklinGothic-Book-86"/>
       <path d="M 16.703125 0 
L 8.34375 0 
L 8.34375 66.65625 
L 16.703125 66.65625 
z
" id="FranklinGothic-Book-73"/>
       <path d="M 1.03125 17.71875 
L 8.546875 19.4375 
Q 13.09375 5.8125 28.21875 5.8125 
Q 36.140625 5.8125 40.140625 9.15625 
Q 44.140625 12.5 44.140625 18.109375 
Q 44.140625 22.359375 41.078125 24.953125 
Q 38.03125 27.546875 34.03125 28.515625 
L 20.703125 31.84375 
Q 15.53125 33.15625 12.234375 35.03125 
Q 8.9375 36.921875 6.640625 40.828125 
Q 4.34375 44.734375 4.34375 49.75 
Q 4.34375 58.109375 10.640625 63.0625 
Q 16.9375 68.015625 26.8125 68.015625 
Q 44.96875 68.015625 50.6875 51.5625 
L 43.109375 49.3125 
Q 41.796875 55.171875 36.90625 58.171875 
Q 32.03125 61.1875 26.515625 61.1875 
Q 21.046875 61.1875 16.765625 58.296875 
Q 12.5 55.421875 12.5 50.140625 
Q 12.5 42.78125 23.34375 40.1875 
L 35.796875 37.203125 
Q 52.875 33.109375 52.875 18.796875 
Q 52.875 10.15625 46.453125 4.421875 
Q 40.046875 -1.3125 28.375 -1.3125 
Q 7.671875 -1.3125 1.03125 17.71875 
z
" id="FranklinGothic-Book-83"/>
       <path d="M 31.34375 -1.3125 
Q 18.5 -1.3125 11.328125 8.671875 
Q 4.15625 18.65625 4.15625 33.15625 
Q 4.15625 48.296875 11.671875 58.15625 
Q 19.1875 68.015625 31.59375 68.015625 
Q 43.953125 68.015625 51.421875 58.328125 
Q 58.890625 48.640625 58.890625 33.890625 
Q 58.890625 19.734375 51.640625 9.203125 
Q 44.390625 -1.3125 31.34375 -1.3125 
z
M 31.546875 5.46875 
Q 40.28125 5.46875 45.203125 13.421875 
Q 50.140625 21.390625 50.140625 33.9375 
Q 50.140625 46.828125 45.03125 54 
Q 39.9375 61.1875 31.5 61.1875 
Q 22.953125 61.1875 17.921875 53.421875 
Q 12.890625 45.65625 12.890625 33.109375 
Q 12.890625 20.84375 17.96875 13.15625 
Q 23.046875 5.46875 31.546875 5.46875 
z
" id="FranklinGothic-Book-79"/>
       <path d="M 48.296875 22.40625 
L 55.90625 20.703125 
Q 50.4375 -1.3125 31.203125 -1.3125 
Q 18.5625 -1.3125 11.359375 8.890625 
Q 4.15625 19.09375 4.15625 33.984375 
Q 4.15625 49.359375 11.671875 58.6875 
Q 19.1875 68.015625 31.84375 68.015625 
Q 50.59375 68.015625 55.90625 46.578125 
L 48.046875 45.015625 
Q 43.75 60.9375 31.78125 60.9375 
Q 22.953125 60.9375 18.09375 53.53125 
Q 13.234375 46.140625 13.234375 32.765625 
Q 13.234375 20.515625 18.203125 13.109375 
Q 23.1875 5.71875 31.390625 5.71875 
Q 44.140625 5.71875 48.296875 22.40625 
z
" id="FranklinGothic-Book-67"/>
       <path d="M 57.421875 0 
L 49.3125 0 
L 14.84375 58.109375 
L 14.9375 53.71875 
Q 15.09375 51.21875 15.09375 49.515625 
L 15.09375 0 
L 8.34375 0 
L 8.34375 66.65625 
L 18.796875 66.65625 
L 51.03125 12.3125 
L 50.921875 16.9375 
Q 50.828125 19.671875 50.828125 21.78125 
L 50.828125 66.65625 
L 57.421875 66.65625 
z
" id="FranklinGothic-Book-78"/>
       <path d="M 51.46875 7.328125 
L 51.46875 0 
L 8.34375 0 
L 8.34375 66.65625 
L 50.53125 66.65625 
L 50.53125 59.328125 
L 16.703125 59.328125 
L 16.703125 38.140625 
L 43.5625 38.140625 
L 43.5625 31.34375 
L 16.703125 31.34375 
L 16.703125 7.328125 
z
" id="FranklinGothic-Book-69"/>
       <path d="M 24.703125 -16.65625 
L 19.578125 -16.65625 
Q 5.21875 2.203125 5.21875 25.09375 
Q 5.21875 46.96875 19.578125 66.65625 
L 24.703125 66.65625 
Q 12.359375 48.25 12.359375 25 
Q 12.359375 2.828125 24.703125 -16.65625 
z
" id="FranklinGothic-Book-40"/>
       <path d="M 17.96875 10.9375 
L 17.96875 0 
L 7.078125 0 
L 7.078125 10.9375 
z
" id="FranklinGothic-Book-46"/>
       <path d="M 23.53125 27.984375 
L 23.53125 22.015625 
L 1.46875 22.015625 
L 1.46875 27.984375 
z
" id="FranklinGothic-Book-45"/>
       <path d="M 4.640625 66.65625 
L 9.71875 66.65625 
Q 24.125 47.796875 24.125 24.90625 
Q 24.125 3.03125 9.71875 -16.65625 
L 4.640625 -16.65625 
Q 17 1.765625 17 25 
Q 17 47.171875 4.640625 66.65625 
z
" id="FranklinGothic-Book-41"/>
      </defs>
      <use xlink:href="#FranklinGothic-Book-65"/>
      <use x="49.189453" xlink:href="#FranklinGothic-Book-86"/>
      <use x="102.851562" xlink:href="#FranklinGothic-Book-73"/>
      <use x="127.851562" xlink:href="#FranklinGothic-Book-83"/>
      <use x="184.785156" xlink:href="#FranklinGothic-Book-79"/>
      <use x="247.871094" xlink:href="#FranklinGothic-Book-32"/>
      <use x="272.871094" xlink:href="#FranklinGothic-Book-67"/>
      <use x="330.78125" xlink:href="#FranklinGothic-Book-78"/>
      <use x="396.503906" xlink:href="#FranklinGothic-Book-69"/>
      <use x="451.289062" xlink:href="#FranklinGothic-Book-83"/>
      <use x="508.222656" xlink:href="#FranklinGothic-Book-32"/>
      <use x="533.222656" xlink:href="#FranklinGothic-Book-40"/>
      <use x="562.568359" xlink:href="#FranklinGothic-Book-49"/>
      <use x="619.835938" xlink:href="#FranklinGothic-Book-57"/>
      <use x="678.478516" xlink:href="#FranklinGothic-Book-57"/>
      <use x="737.121094" xlink:href="#FranklinGothic-Book-51"/>
      <use x="795.763672" xlink:href="#FranklinGothic-Book-46"/>
      <use x="820.763672" xlink:href="#FranklinGothic-Book-48"/>
      <use x="875.65625" xlink:href="#FranklinGothic-Book-49"/>
      <use x="933.673828" xlink:href="#FranklinGothic-Book-46"/>
      <use x="958.673828" xlink:href="#FranklinGothic-Book-48"/>
      <use x="1017.316406" xlink:href="#FranklinGothic-Book-53"/>
      <use x="1075.958984" xlink:href="#FranklinGothic-Book-45"/>
      <use x="1100.958984" xlink:href="#FranklinGothic-Book-50"/>
      <use x="1159.601562" xlink:href="#FranklinGothic-Book-48"/>
      <use x="1218.244141" xlink:href="#FranklinGothic-Book-50"/>
      <use x="1276.886719" xlink:href="#FranklinGothic-Book-50"/>
      <use x="1335.529297" xlink:href="#FranklinGothic-Book-46"/>
      <use x="1360.529297" xlink:href="#FranklinGothic-Book-48"/>
      <use x="1419.171875" xlink:href="#FranklinGothic-Book-52"/>
      <use x="1477.814453" xlink:href="#FranklinGothic-Book-46"/>
      <use x="1502.814453" xlink:href="#FranklinGothic-Book-48"/>
      <use x="1561.457031" xlink:href="#FranklinGothic-Book-50"/>
      <use x="1620.099609" xlink:href="#FranklinGothic-Book-41"/>
     </g>
    </g>
    <g id="line2d_16"/>
    <g id="text_19">
     <!-- AVISO (1993.01.05-2022.03.23) -->
     <g style="fill:#009e73;" transform="translate(185.856 157.04965)scale(0.2 -0.2)">
      <use xlink:href="#FranklinGothic-Book-65"/>
      <use x="49.189453" xlink:href="#FranklinGothic-Book-86"/>
      <use x="102.851562" xlink:href="#FranklinGothic-Book-73"/>
      <use x="127.851562" xlink:href="#FranklinGothic-Book-83"/>
      <use x="184.785156" xlink:href="#FranklinGothic-Book-79"/>
      <use x="247.871094" xlink:href="#FranklinGothic-Book-32"/>
      <use x="272.871094" xlink:href="#FranklinGothic-Book-40"/>
      <use x="302.216797" xlink:href="#FranklinGothic-Book-49"/>
      <use x="359.484375" xlink:href="#FranklinGothic-Book-57"/>
      <use x="418.126953" xlink:href="#FranklinGothic-Book-57"/>
      <use x="476.769531" xlink:href="#FranklinGothic-Book-51"/>
      <use x="535.412109" xlink:href="#FranklinGothic-Book-46"/>
      <use x="560.412109" xlink:href="#FranklinGothic-Book-48"/>
      <use x="615.304688" xlink:href="#FranklinGothic-Book-49"/>
      <use x="673.322266" xlink:href="#FranklinGothic-Book-46"/>
      <use x="698.322266" xlink:href="#FranklinGothic-Book-48"/>
      <use x="756.964844" xlink:href="#FranklinGothic-Book-53"/>
      <use x="815.607422" xlink:href="#FranklinGothic-Book-45"/>
      <use x="840.607422" xlink:href="#FranklinGothic-Book-50"/>
      <use x="899.25" xlink:href="#FranklinGothic-Book-48"/>
      <use x="957.892578" xlink:href="#FranklinGothic-Book-50"/>
      <use x="1016.535156" xlink:href="#FranklinGothic-Book-50"/>
      <use x="1075.177734" xlink:href="#FranklinGothic-Book-46"/>
      <use x="1100.177734" xlink:href="#FranklinGothic-Book-48"/>
      <use x="1158.820312" xlink:href="#FranklinGothic-Book-51"/>
      <use x="1217.462891" xlink:href="#FranklinGothic-Book-46"/>
      <use x="1242.462891" xlink:href="#FranklinGothic-Book-50"/>
      <use x="1301.105469" xlink:href="#FranklinGothic-Book-51"/>
      <use x="1359.748047" xlink:href="#FranklinGothic-Book-41"/>
     </g>
    </g>
   </g>
   <g id="line2d_17">
    <path clip-path="url(#p55ee424b76)" d="M 184.581818 554.04 
L 186.102698 544.17776 
L 187.503174 536.730559 
L 188.263614 533.918269 
L 192.965667 522.54135 
L 195.994752 515.416436 
L 196.679147 514.167313 
L 197.439587 513.33664 
L 198.231712 513.041233 
L 198.992152 513.349659 
L 199.752591 514.276355 
L 200.468672 515.789935 
L 201.229112 517.841427 
L 204.226512 527.163011 
L 204.910908 528.646606 
L 205.703032 529.422288 
L 206.463472 529.44741 
L 207.223912 528.726694 
L 207.939993 527.32663 
L 208.700432 525.414239 
L 212.489957 514.086669 
L 213.250397 512.533476 
L 213.934793 511.419054 
L 214.650874 510.656237 
L 215.411313 510.248643 
L 216.171753 510.131022 
L 217.115966 510.209028 
L 220.113366 510.934013 
L 221.66593 510.908502 
L 223.110766 510.777022 
L 223.826847 510.814171 
L 224.587286 510.986563 
L 225.347726 511.299143 
L 226.139851 511.759037 
L 227.66073 513.097467 
L 230.613771 516.56179 
L 231.374211 517.224512 
L 232.058607 517.657334 
L 232.850732 517.714192 
L 233.611172 517.414751 
L 234.371611 516.658901 
L 235.132051 515.453291 
L 236.608572 511.836708 
L 238.161136 507.107766 
L 241.082492 497.728613 
L 241.842932 496.053711 
L 242.559013 494.786192 
L 243.319452 493.92685 
L 244.079892 493.439072 
L 245.024105 493.259533 
L 245.784545 493.293965 
L 250.258465 494.136473 
L 251.734986 494.315584 
L 252.495425 494.598933 
L 253.255865 495.084708 
L 254.04799 495.794806 
L 254.80843 496.749262 
L 256.28495 499.159642 
L 258.445867 502.771305 
L 259.206306 503.687261 
L 259.966746 504.342665 
L 260.758871 504.703891 
L 261.519311 504.771914 
L 262.27975 504.567755 
L 262.995831 504.130888 
L 264.440667 502.922773 
L 266.829715 500.643207 
L 268.230191 499.761646 
L 268.990631 499.527335 
L 269.751071 499.479865 
L 271.227591 499.762406 
L 272.8562 500.08927 
L 273.61664 500.047709 
L 274.377079 499.745431 
L 275.09316 499.136823 
L 275.8536 498.235326 
L 278.09056 494.519651 
L 278.851 493.457878 
L 279.567081 492.718097 
L 280.327521 492.398254 
L 281.08796 492.555596 
L 281.804041 493.178272 
L 282.564481 494.209743 
L 283.324921 495.551159 
L 285.485837 499.942835 
L 286.201918 501.058146 
L 287.722797 502.41558 
L 289.275362 502.451261 
L 290.751882 502.242132 
L 291.512322 502.24085 
L 292.272762 502.403007 
L 293.064887 502.762646 
L 293.825326 503.316013 
L 296.062287 505.712059 
L 297.583166 507.230055 
L 298.299247 507.744309 
L 299.059687 508.003574 
L 300.003899 507.974392 
L 300.764339 507.617749 
L 301.524779 506.906552 
L 302.24086 505.821863 
L 303.001299 504.358583 
L 304.446135 500.35793 
L 305.998699 495.242963 
L 308.996099 484.385711 
L 310.548664 480.209232 
L 311.94914 477.639749 
L 312.70958 477.107687 
L 313.47002 477.077208 
L 314.186101 477.535309 
L 314.946541 478.437983 
L 316.499105 481.253115 
L 318.736065 486.21233 
L 319.496505 487.52658 
L 320.256945 488.477533 
L 320.973026 488.959331 
L 321.733465 488.988003 
L 322.493905 488.545036 
L 323.209986 487.71686 
L 324.730865 485.205247 
L 326.207386 482.486664 
L 326.967826 481.36732 
L 328.672478 479.919539 
L 329.432918 479.594129 
L 330.072955 479.45834 
L 331.593834 479.62336 
L 333.906838 480.180723 
L 334.622919 480.47091 
L 335.383359 480.90247 
L 336.143799 481.537151 
L 336.935923 482.434822 
L 337.696363 483.631881 
L 339.141199 486.721009 
L 340.617719 490.938409 
L 342.09424 494.674193 
L 342.85468 496.04621 
L 343.615119 496.917163 
L 344.407244 497.207762 
L 345.167684 496.890719 
L 345.928124 495.9987 
L 346.644204 494.616765 
L 347.404644 492.879652 
L 348.881165 488.949849 
L 350.402044 485.361194 
L 351.118125 483.932452 
L 351.878565 482.798871 
L 352.639004 481.986592 
L 354.191569 480.886751 
L 354.875965 481.242692 
L 355.820177 481.439316 
L 358.741534 482.699639 
L 359.501973 482.830292 
L 360.294098 482.819216 
L 361.054538 482.665214 
L 362.531058 481.991973 
L 364.051938 481.132996 
L 364.844063 480.806505 
L 365.604502 480.64715 
L 366.288898 480.700599 
L 367.004979 480.977913 
L 368.525858 482.046798 
L 370.002379 483.051625 
L 370.762819 483.135689 
L 371.523258 482.731623 
L 372.315383 481.727672 
L 373.075823 480.068444 
L 373.836263 477.75899 
L 374.552343 474.890829 
L 375.997179 468.193749 
L 377.549744 461.777568 
L 378.310183 459.276249 
L 379.026264 457.503273 
L 379.786704 456.526216 
L 380.547144 456.442381 
L 381.263224 457.188593 
L 382.023664 458.679375 
L 383.576229 463.167029 
L 385.097108 468.071609 
L 385.813189 470.046143 
L 386.573629 471.432774 
L 387.334068 472.130657 
L 388.126193 472.144057 
L 388.886633 471.54172 
L 389.647073 470.489744 
L 392.52407 465.420305 
L 393.284509 464.706736 
L 394.044949 464.320742 
L 394.76103 464.323604 
L 395.52147 464.607451 
L 397.042349 465.512481 
L 397.75843 465.792854 
L 398.51887 465.736647 
L 399.27931 465.252938 
L 400.071434 464.246499 
L 400.831874 462.725147 
L 402.232351 458.392987 
L 405.305795 448.397871 
L 406.066234 446.507914 
L 406.858359 445.100886 
L 407.618799 444.197083 
L 408.379239 443.854407 
L 409.095319 444.014743 
L 409.855759 444.618665 
L 412.244807 447.761664 
L 413.005247 448.689638 
L 413.721328 449.283903 
L 414.481768 449.429728 
L 415.242207 449.06841 
L 416.034332 448.181652 
L 416.794772 446.827995 
L 418.271293 443.267533 
L 419.716128 439.800217 
L 420.508253 438.522845 
L 421.268693 437.702169 
L 422.029132 437.377171 
L 422.745213 437.531402 
L 423.505653 438.11687 
L 424.266093 439.044796 
L 426.503053 442.542259 
L 427.295178 443.474316 
L 428.055617 444.091692 
L 428.740013 444.323085 
L 429.456094 444.139311 
L 430.216534 443.552956 
L 430.976973 442.620383 
L 432.529538 440.033501 
L 434.050417 437.355822 
L 434.766498 436.286583 
L 435.526938 435.532654 
L 436.287378 435.173396 
L 437.003459 435.217667 
L 437.687854 435.699877 
L 439.392507 437.635708 
L 440.913386 439.795824 
L 441.629467 440.43129 
L 442.389907 440.525439 
L 443.150347 439.970214 
L 443.942471 438.734995 
L 444.702911 436.858476 
L 445.463351 434.456924 
L 446.863827 428.934864 
L 447.624267 426.341987 
L 448.416392 424.193488 
L 449.176832 422.676993 
L 449.937271 421.907432 
L 450.653352 421.909713 
L 451.413792 422.625487 
L 452.174232 423.919863 
L 454.411192 429.033169 
L 455.127273 430.332923 
L 455.887712 431.100328 
L 456.648152 431.229108 
L 457.364233 430.682241 
L 458.124673 429.492063 
L 458.885113 427.762357 
L 460.437677 423.379971 
L 461.914198 419.137511 
L 462.674637 417.509384 
L 463.435077 416.354797 
L 464.119473 415.71243 
L 464.835554 415.565831 
L 465.595993 415.843697 
L 466.540206 416.43579 
L 469.537606 419.35328 
L 470.298046 419.638059 
L 471.090171 419.599912 
L 471.85061 419.243024 
L 472.61105 418.620309 
L 475.532406 415.149679 
L 476.324531 414.514035 
L 477.084971 414.123996 
L 477.84541 414.011178 
L 478.561491 414.17856 
L 479.321931 414.59597 
L 480.798452 415.909703 
L 482.243287 417.22595 
L 483.035412 417.619329 
L 483.795852 417.718304 
L 484.556291 417.468453 
L 485.272372 416.849207 
L 486.032812 415.874736 
L 487.585376 413.080092 
L 489.822337 408.387301 
L 490.582776 407.223589 
L 491.267172 406.452048 
L 491.983253 406.129965 
L 492.743693 406.257981 
L 493.504132 406.781423 
L 494.372301 407.595318 
L 496.609261 410.312756 
L 497.369701 410.831394 
L 498.130141 410.971783 
L 498.922266 410.695 
L 499.682705 410.017885 
L 501.127541 407.777854 
L 502.604062 405.172706 
L 503.364501 404.068279 
L 504.080582 403.271242 
L 504.841022 402.871398 
L 505.601462 402.902041 
L 506.317542 403.355419 
L 507.077982 404.190707 
L 507.838422 405.321221 
L 509.238898 407.891626 
L 509.999338 409.00042 
L 510.791463 409.763009 
L 511.551903 410.030401 
L 512.312342 409.707303 
L 513.028423 408.757239 
L 513.788863 407.204029 
L 515.341427 402.697851 
L 517.578388 394.9424 
L 518.338828 392.812991 
L 519.099267 391.143047 
L 519.815348 390.001795 
L 520.575788 389.388268 
L 521.336228 389.225448 
L 522.28044 389.373333 
L 523.80132 389.909049 
L 524.517401 389.963505 
L 525.27784 389.714993 
L 526.03828 389.107585 
L 526.754361 388.153419 
L 528.27524 385.564915 
L 528.991321 384.231133 
L 529.751761 383.101225 
L 530.512201 382.32259 
L 531.304325 381.996161 
L 532.064765 382.170264 
L 532.825205 382.8343 
L 534.301725 385.201197 
L 535.746561 387.776769 
L 536.462642 388.665462 
L 537.223081 389.082871 
L 537.983521 388.949736 
L 538.775646 388.250628 
L 539.536086 387.029563 
L 540.296526 385.389446 
L 542.533486 379.589098 
L 543.325611 377.97816 
L 544.08605 376.804589 
L 544.770446 376.172318 
L 545.486527 376.129357 
L 546.246967 376.660137 
L 547.007406 377.689863 
L 549.244367 382.241886 
L 550.949019 384.45852 
L 551.709459 384.774399 
L 552.42554 384.446167 
L 553.185979 383.475761 
L 554.6625 379.941753 
L 557.6599 370.942694 
L 558.42034 369.244037 
L 559.212464 367.985665 
L 559.972904 367.202893 
L 560.733344 366.891921 
L 561.449425 367.006387 
L 562.209865 367.464269 
L 563.610341 369.010314 
L 565.923345 371.535482 
L 567.444225 372.727538 
L 568.204665 373.124826 
L 569.681185 373.5614 
L 571.157706 373.539501 
L 572.678585 373.117808 
L 574.155106 372.364825 
L 576.392066 370.875984 
L 577.152506 370.36239 
L 578.857158 369.365085 
L 582.570639 366.961431 
L 584.091519 366.395877 
L 584.807599 366.332612 
L 585.568039 366.48061 
L 586.328479 366.870199 
L 587.120604 367.504788 
L 587.881043 368.358075 
L 588.641483 369.381466 
L 590.04196 371.649443 
L 591.51848 373.58521 
L 592.27892 374.167794 
L 593.03936 374.379363 
L 593.831484 374.179808 
L 594.591924 373.562571 
L 595.352364 372.556448 
L 596.828884 369.688256 
L 599.065845 365.080945 
L 599.826284 363.985913 
L 600.586724 363.269602 
L 601.302805 362.952132 
L 602.063245 363.001492 
L 602.823685 363.339822 
L 604.300205 364.352758 
L 605.060645 364.688581 
L 605.928814 364.688251 
L 606.689253 364.220789 
L 607.373649 363.199205 
L 608.08973 361.595788 
L 608.85017 359.465649 
L 612.639694 347.046184 
L 613.400134 345.709803 
L 614.160574 345.171636 
L 614.876655 345.478744 
L 615.637094 346.577574 
L 616.32149 348.324111 
L 619.274531 357.030724 
L 620.034971 358.384947 
L 620.795411 359.043749 
L 621.587536 358.957665 
L 622.347975 358.167158 
L 623.108415 356.785414 
L 624.584936 352.930569 
L 625.269331 350.83273 
L 626.821896 347.104129 
L 627.582336 345.703285 
L 628.37446 344.693916 
L 629.1349 344.074546 
L 629.89534 343.795806 
L 630.65578 343.77676 
L 633.760909 344.518998 
L 634.521348 344.484097 
L 635.281788 344.243238 
L 635.997869 343.77476 
L 636.758309 343.075325 
L 638.310873 341.063095 
L 639.831753 338.507829 
L 642.068713 334.401373 
L 643.545234 331.996448 
L 645.021754 330.133787 
L 646.542634 328.78077 
L 648.019154 327.722103 
L 651.092598 325.672442 
L 652.493075 324.559519 
L 654.045639 323.612961 
L 654.806079 323.308274 
L 655.566519 323.173565 
L 656.282599 323.24661 
L 657.043039 323.554462 
L 657.803479 324.096537 
L 659.279999 325.687997 
L 660.040439 326.5611 
L 660.908608 327.324624 
L 661.669048 327.838361 
L 662.429487 327.965454 
L 663.145568 327.603911 
L 663.906008 326.706798 
L 664.666448 325.294056 
L 665.458573 323.460992 
L 667.695533 317.321773 
L 668.455973 315.831138 
L 669.216412 314.969416 
L 669.900808 314.870352 
L 670.692933 315.594471 
L 671.453373 317.124917 
L 672.213812 319.360778 
L 674.450773 328.380743 
L 675.166853 331.322819 
L 675.927293 333.842402 
L 676.687733 335.790906 
L 677.479858 337.083493 
L 678.240297 337.70473 
L 678.924693 337.71257 
L 679.640774 337.23002 
L 681.161653 335.468014 
L 681.953778 334.557641 
L 682.714218 333.866643 
L 683.474658 333.54024 
L 684.190739 333.683601 
L 684.951178 334.349012 
L 685.711618 335.520066 
L 686.427699 337.113475 
L 687.872534 340.970257 
L 689.577187 344.44013 
L 690.337627 345.530289 
L 691.053707 345.959962 
L 691.814147 345.621422 
L 692.574587 344.481154 
L 693.366712 342.589179 
L 694.127151 340.071075 
L 695.603672 333.912751 
L 696.288068 330.738384 
L 697.048507 327.818453 
L 697.840632 325.353599 
L 698.601072 323.492923 
L 699.361512 322.323177 
L 700.077592 321.85605 
L 700.838032 322.02916 
L 701.598472 322.712628 
L 703.835432 325.732148 
L 704.595872 326.266442 
L 705.311953 326.215654 
L 706.072393 325.44265 
L 706.832832 323.882085 
L 707.548913 321.554609 
L 708.309353 318.558845 
L 712.098878 300.836415 
L 712.859317 298.3867 
L 713.619757 296.692028 
L 714.259794 295.773151 
L 715.020234 295.551098 
L 715.780673 295.855674 
L 718.169722 297.422845 
L 718.885802 297.315339 
L 719.646242 296.576923 
L 720.406682 295.137551 
L 721.198807 293.031882 
L 722.719686 287.412252 
L 723.359723 284.338314 
L 724.880603 278.865664 
L 725.596683 276.878251 
L 726.357123 275.564207 
L 727.117563 274.954576 
L 727.833644 274.995643 
L 728.594083 275.564575 
L 730.114963 277.543335 
L 730.831044 278.519315 
L 731.591483 279.215599 
L 732.275879 279.471655 
L 733.068004 279.194423 
L 733.828444 278.362204 
L 734.588883 277.002504 
L 736.065404 273.053509 
L 738.378408 266.084948 
L 739.138848 264.046033 
L 739.930973 262.345565 
L 740.691412 261.061565 
L 741.375808 260.235032 
L 742.091889 259.881869 
L 742.852329 259.99493 
L 743.612769 260.534669 
L 744.556981 261.423968 
L 745.317421 262.562954 
L 746.001817 264.002966 
L 746.869985 264.90518 
L 747.554381 266.347327 
L 748.314821 267.421683 
L 749.791342 269.111419 
L 752.028302 271.221784 
L 753.580866 273.054059 
L 755.101746 275.44735 
L 756.578266 278.092821 
L 757.338706 279.306258 
L 757.902699 279.416336 
L 758.967315 282.40342 
L 759.499622 281.476802 
L 760.291747 281.490546 
L 761.052187 281.090979 
L 761.812627 280.295755 
L 762.528707 279.144771 
L 763.289147 277.68926 
L 764.841712 274.122192 
L 767.763068 266.724259 
L 768.523508 265.390642 
L 769.283947 264.451509 
L 770.000028 263.956801 
L 770.760468 263.918288 
L 771.520908 264.303523 
L 772.46512 265.022874 
L 774.702081 267.616687 
L 775.46252 268.000515 
L 776.22296 267.875787 
L 776.939041 267.16705 
L 777.699481 265.873687 
L 778.45992 264.072694 
L 780.696881 257.276874 
L 781.489005 255.267502 
L 782.249445 253.720121 
L 783.009885 252.754639 
L 783.725966 252.422133 
L 784.486405 252.696111 
L 785.246845 253.472102 
L 786.647322 255.82875 
L 787.407762 256.983574 
L 788.199886 257.829298 
L 788.960326 258.173434 
L 789.720766 257.874841 
L 790.436847 256.859328 
L 791.197286 255.124994 
L 791.957726 252.736609 
L 792.749851 249.811854 
L 794.27073 243.046222 
L 794.910767 239.615977 
L 796.431647 233.662324 
L 797.192086 231.455505 
L 797.908167 229.877427 
L 798.668607 228.91904 
L 799.61282 228.49705 
L 800.373259 228.470699 
L 801.84978 228.8779 
L 802.61022 228.920258 
L 803.370659 228.616362 
L 804.055055 227.842403 
L 804.84718 226.550106 
L 805.60762 224.762136 
L 806.368059 222.554717 
L 809.397145 212.231315 
L 810.157584 210.024073 
L 810.918024 208.201483 
L 811.634105 206.822491 
L 812.318501 205.903998 
L 813.07894 205.420266 
L 813.795021 205.31328 
L 814.555461 205.496672 
L 816.868465 206.644365 
L 817.628905 206.817058 
L 818.344986 206.705025 
L 819.105425 206.244006 
L 819.865865 205.414316 
L 820.65799 204.235594 
L 823.579346 197.92277 
L 824.339786 196.691935 
L 825.055867 195.895273 
L 825.816306 195.606887 
L 826.576746 195.828885 
L 827.444915 196.487494 
L 828.965794 198.547488 
L 830.366271 200.472517 
L 831.126711 201.004265 
L 831.918835 201.136283 
L 832.679275 200.879187 
L 833.439715 200.323485 
L 834.916235 198.940421 
L 835.676675 198.489568 
L 836.437115 198.423552 
L 837.153196 198.840373 
L 837.913635 199.751917 
L 838.674075 201.077556 
L 840.074552 204.324485 
L 840.834991 205.817597 
L 841.551072 206.937647 
L 842.311512 207.523069 
L 843.071952 207.479443 
L 843.864077 206.794856 
L 844.624516 205.548906 
L 845.384956 203.893203 
L 846.861477 200.154745 
L 848.337997 197.1718 
L 849.098437 196.306803 
L 849.858877 195.927638 
L 850.651001 196.015263 
L 851.411441 196.510321 
L 852.171881 197.322828 
L 854.408841 200.619762 
L 856.113494 202.531056 
L 856.873933 203.131033 
L 857.51397 203.416632 
L 858.27441 203.353954 
L 859.03485 202.917176 
L 859.826974 202.094947 
L 860.587414 200.901257 
L 861.347854 199.381224 
L 864.376939 191.957339 
L 865.137379 190.413122 
L 865.897818 189.208 
L 866.582214 188.378901 
L 867.298295 187.915885 
L 868.058735 187.7599 
L 870.295695 187.865574 
L 871.056135 187.587793 
L 871.84826 186.950155 
L 872.608699 185.900261 
L 873.369139 184.452482 
L 874.769616 180.750755 
L 876.32218 177.080726 
L 877.08262 175.713709 
L 877.84306 174.858747 
L 878.55914 174.604677 
L 879.31958 174.976653 
L 880.08002 175.937988 
L 880.796101 177.391767 
L 883.945589 184.799403 
L 884.706028 186.113169 
L 885.422109 186.908081 
L 886.182549 187.115997 
L 886.942989 186.721632 
L 887.735113 185.757177 
L 888.495553 184.304981 
L 889.255993 182.487309 
L 891.492953 176.284953 
L 892.969474 172.858649 
L 893.729914 171.627026 
L 894.445994 170.749979 
L 895.206434 170.210031 
L 895.966874 169.961929 
L 896.682955 169.942648 
L 898.995959 170.343388 
L 899.756399 170.32471 
L 900.516838 170.103855 
L 901.277278 169.622337 
L 902.677755 167.777411 
L 904.230319 164.929602 
L 907.227719 158.541638 
L 908.70424 156.397583 
L 909.46468 155.746538 
L 909.920943 156.162797 
L 911.245376 154.934617 
L 911.853728 154.97677 
L 912.614168 154.785764 
L 913.330248 154.420236 
L 914.090688 153.764084 
L 914.851128 152.73148 
L 915.643253 151.277536 
L 916.403692 149.410591 
L 917.880213 144.795182 
L 919.401092 140.051195 
L 920.117173 138.084542 
L 920.877613 136.601886 
L 921.638053 135.701376 
L 922.354133 135.414795 
L 923.114573 135.712858 
L 923.875013 136.518203 
L 925.351533 139.147824 
L 926.904098 142.038072 
L 927.664538 143.189098 
L 928.424977 144.006215 
L 929.065014 144.443241 
L 929.825454 144.493739 
L 930.585894 144.204228 
L 931.378019 143.671261 
L 933.659338 141.827729 
L 934.375419 141.470112 
L 935.135858 141.338311 
L 935.74421 142.184223 
L 936.612379 141.535965 
L 937.296775 142.12885 
L 938.057214 142.520243 
L 938.925383 142.769052 
L 939.685823 142.753434 
L 940.446263 142.373232 
L 941.162343 141.564557 
L 941.922783 140.308058 
L 943.475348 136.629994 
L 946.396704 128.101659 
L 947.157143 126.595579 
L 947.873224 125.572056 
L 948.633664 125.079678 
L 949.394104 125.120426 
L 950.110185 125.64134 
L 950.870624 126.533605 
L 953.107585 129.86231 
L 953.868024 130.619182 
L 954.660149 130.961441 
L 955.344545 130.809794 
L 956.104985 130.13546 
L 956.897109 128.986464 
L 958.341945 125.834122 
L 960.654949 120.767287 
L 961.447074 119.559205 
L 962.207514 118.738603 
L 962.967953 118.326856 
L 963.728393 118.294476 
L 964.36843 118.570127 
L 966.833522 120.151827 
L 967.593962 120.473471 
L 968.354402 120.473919 
L 969.070482 120.063739 
L 969.830922 119.19364 
L 970.591362 117.865412 
L 971.383487 116.135138 
L 972.904366 111.914643 
L 973.544403 109.710732 
L 975.065283 105.871724 
L 975.857407 104.472647 
L 976.617847 103.506527 
L 977.378287 102.989738 
L 978.094368 102.901959 
L 978.854807 103.188171 
L 979.615247 103.765243 
L 981.852207 106.0071 
L 982.568288 106.43384 
L 983.328728 106.51091 
L 984.089168 106.234217 
L 984.805248 105.665329 
L 988.639132 101.819195 
L 989.355213 101.44165 
L 990.115653 101.363286 
L 990.876093 101.644277 
L 991.516129 102.317332 
L 992.276569 103.374672 
L 993.981222 106.433803 
L 995.502101 110.306106 
L 995.502101 110.306106 
" style="fill:none;stroke:#009e73;stroke-linecap:round;"/>
   </g>
   <g id="line2d_18">
    <path clip-path="url(#p55ee424b76)" d="M 184.581818 553.872248 
L 186.102698 544.013847 
L 187.503174 536.577551 
L 188.263614 533.782503 
L 191.444787 526.151854 
L 193.757791 520.953829 
L 195.994752 515.861141 
L 196.679147 514.623891 
L 197.439587 513.780594 
L 198.231712 513.448288 
L 198.992152 513.697788 
L 199.752591 514.547683 
L 200.468672 515.972069 
L 201.229112 517.927805 
L 204.226512 526.930583 
L 204.910908 528.372525 
L 205.703032 529.125073 
L 206.463472 529.144129 
L 207.223912 528.431479 
L 207.939993 527.049808 
L 208.700432 525.161391 
L 212.489957 513.91963 
L 213.250397 512.368752 
L 213.934793 511.255363 
L 214.650874 510.495887 
L 215.411313 510.09776 
L 216.171753 509.99916 
L 217.115966 510.108329 
L 220.873806 511.187778 
L 223.826847 511.262456 
L 224.587286 511.442769 
L 226.139851 512.157838 
L 227.66073 513.354714 
L 230.613771 516.451724 
L 231.374211 517.040935 
L 232.058607 517.416783 
L 232.850732 517.435197 
L 233.611172 517.11543 
L 234.371611 516.356071 
L 235.132051 515.160512 
L 236.608572 511.588059 
L 238.161136 506.907057 
L 241.082492 497.564059 
L 241.842932 495.890315 
L 242.559013 494.626888 
L 243.319452 493.778353 
L 244.079892 493.311442 
L 245.024105 493.165183 
L 245.784545 493.24645 
L 247.261065 493.736981 
L 248.781945 494.239027 
L 250.258465 494.512335 
L 251.734986 494.766822 
L 252.495425 495.054097 
L 253.255865 495.519148 
L 254.04799 496.184876 
L 254.80843 497.073868 
L 256.28495 499.310479 
L 258.445867 502.64816 
L 259.206306 503.493118 
L 259.966746 504.094492 
L 260.758871 504.420204 
L 261.519311 504.47094 
L 262.27975 504.265735 
L 262.995831 503.840784 
L 264.440667 502.677113 
L 266.829715 500.462165 
L 268.230191 499.595692 
L 268.990631 499.362929 
L 269.751071 499.316838 
L 271.227591 499.616538 
L 272.8562 500.001718 
L 273.61664 500.009151 
L 274.377079 499.76847 
L 275.09316 499.231487 
L 275.8536 498.407543 
L 278.09056 494.904618 
L 278.851 493.887691 
L 279.567081 493.171649 
L 280.327521 492.851728 
L 281.08796 492.984307 
L 281.880085 493.55883 
L 282.640525 494.521912 
L 283.400965 495.779525 
L 285.561881 499.889664 
L 286.277962 500.922294 
L 287.798841 502.15929 
L 289.351406 502.149086 
L 290.827926 501.954943 
L 291.588366 501.975355 
L 292.348806 502.162796 
L 293.14093 502.547223 
L 293.90137 503.121672 
L 295.301847 504.674215 
L 296.822726 506.368612 
L 298.299247 507.587621 
L 299.059687 507.860682 
L 300.003899 507.856255 
L 300.764339 507.537322 
L 301.524779 506.877295 
L 302.24086 505.856071 
L 303.001299 504.465708 
L 304.446135 500.62086 
L 305.998699 495.636581 
L 308.996099 484.808057 
L 310.548664 480.508544 
L 311.94914 477.759251 
L 312.70958 477.131226 
L 313.47002 477.009654 
L 314.186101 477.387139 
L 314.946541 478.224104 
L 315.70698 479.450669 
L 317.259545 482.641531 
L 318.736065 485.928271 
L 319.496505 487.265108 
L 320.256945 488.241526 
L 320.973026 488.747695 
L 321.733465 488.796615 
L 322.493905 488.36805 
L 323.209986 487.54819 
L 324.730865 485.041135 
L 326.207386 482.331622 
L 326.967826 481.227673 
L 328.672478 479.846603 
L 329.432918 479.574509 
L 330.072955 479.503976 
L 331.593834 479.821481 
L 333.906838 480.582415 
L 335.383359 481.358699 
L 336.143799 481.985175 
L 336.935923 482.850178 
L 337.696363 483.991997 
L 339.141199 486.922278 
L 340.617719 490.946493 
L 342.09424 494.514111 
L 342.85468 495.823181 
L 343.615119 496.649151 
L 344.407244 496.913365 
L 345.167684 496.587385 
L 345.928124 495.701221 
L 346.644204 494.336034 
L 347.404644 492.62228 
L 348.881165 488.741885 
L 350.402044 485.185976 
L 351.118125 483.764632 
L 351.878565 482.633922 
L 352.639004 481.822659 
L 354.191569 480.735263 
L 354.875965 481.106599 
L 355.820177 481.332081 
L 357.265013 482.105206 
L 358.741534 482.832086 
L 359.501973 483.041239 
L 360.294098 483.106618 
L 361.054538 483.0207 
L 361.814978 482.787667 
L 365.604502 480.996269 
L 366.288898 480.973045 
L 367.004979 481.161118 
L 368.525858 482.039592 
L 370.002379 482.880052 
L 370.762819 482.903998 
L 371.523258 482.45801 
L 372.315383 481.430664 
L 373.075823 479.765141 
L 373.836263 477.463593 
L 374.552343 474.613604 
L 375.997179 467.966041 
L 377.549744 461.591599 
L 378.310183 459.102635 
L 379.026264 457.336169 
L 379.786704 456.361478 
L 380.547144 456.278673 
L 381.263224 457.028172 
L 382.023664 458.528296 
L 383.576229 463.065786 
L 385.097108 468.072229 
L 385.813189 470.115213 
L 386.573629 471.578034 
L 387.334068 472.354857 
L 388.126193 472.443372 
L 388.886633 471.907187 
L 389.647073 470.906366 
L 392.600114 465.819855 
L 393.360553 465.044087 
L 394.120993 464.57938 
L 394.837074 464.49138 
L 395.597514 464.67941 
L 397.834474 465.610227 
L 398.594914 465.496885 
L 399.387039 464.974228 
L 400.147478 463.947344 
L 400.907918 462.422263 
L 402.308395 458.119424 
L 405.381839 448.214362 
L 406.142278 446.335743 
L 406.858359 444.934392 
L 407.618799 444.032517 
L 408.379239 443.690984 
L 409.095319 443.855342 
L 409.855759 444.469948 
L 413.005247 448.700839 
L 413.721328 449.365198 
L 414.481768 449.587875 
L 415.242207 449.305072 
L 416.034332 448.492769 
L 416.794772 447.203036 
L 417.555212 445.553537 
L 419.716128 440.235129 
L 420.508253 438.913608 
L 421.268693 438.027846 
L 422.029132 437.621388 
L 422.745213 437.683612 
L 423.505653 438.173063 
L 424.266093 439.007568 
L 426.503053 442.294735 
L 427.295178 443.19101 
L 428.055617 443.790845 
L 428.740013 444.020989 
L 429.456094 443.848963 
L 430.216534 443.283194 
L 430.976973 442.375529 
L 432.529538 439.83577 
L 434.050417 437.184939 
L 434.766498 436.120601 
L 435.526938 435.368235 
L 436.287378 435.010328 
L 437.003459 435.059481 
L 437.687854 435.553795 
L 439.392507 437.547547 
L 440.913386 439.817895 
L 441.629467 440.524867 
L 442.389907 440.696518 
L 443.150347 440.219534 
L 443.942471 439.057352 
L 444.702911 437.242656 
L 445.463351 434.886229 
L 446.863827 429.388495 
L 447.624267 426.77123 
L 448.416392 424.574899 
L 449.176832 422.990278 
L 449.937271 422.137098 
L 450.653352 422.046255 
L 451.413792 422.665993 
L 452.174232 423.867976 
L 454.411192 428.778486 
L 455.127273 430.045517 
L 455.887712 430.798232 
L 456.648152 430.928152 
L 457.364233 430.394785 
L 458.124673 429.226217 
L 458.885113 427.521774 
L 460.437677 423.185361 
L 461.914198 418.967765 
L 462.674637 417.343816 
L 463.435077 416.19052 
L 464.119473 415.549823 
L 464.835554 415.409026 
L 465.595993 415.700533 
L 466.540206 416.317204 
L 469.537606 419.459298 
L 470.298046 419.822086 
L 471.090171 419.861744 
L 471.85061 419.576462 
L 472.61105 419.013181 
L 476.324531 414.885539 
L 477.084971 414.424461 
L 477.84541 414.226027 
L 478.561491 414.299349 
L 479.321931 414.620881 
L 480.082371 415.135029 
L 482.243287 416.964609 
L 483.035412 417.328313 
L 483.795852 417.415387 
L 484.556291 417.168972 
L 485.272372 416.564863 
L 486.032812 415.612907 
L 487.585376 412.868126 
L 489.822337 408.21855 
L 490.582776 407.058354 
L 491.267172 406.287923 
L 491.983253 405.967924 
L 492.743693 406.102786 
L 493.504132 406.641479 
L 494.372301 407.481973 
L 496.609261 410.357373 
L 497.369701 410.950002 
L 498.130141 411.168761 
L 498.922266 410.969182 
L 499.682705 410.362075 
L 501.127541 408.217559 
L 502.604062 405.621026 
L 503.364501 404.484277 
L 504.156626 403.632305 
L 504.917066 403.158646 
L 505.677506 403.101845 
L 506.393586 403.460404 
L 507.154026 404.200149 
L 507.914466 405.240802 
L 509.314942 407.669385 
L 510.075382 408.732927 
L 510.867507 409.468865 
L 511.627947 409.727081 
L 512.388386 409.409616 
L 513.104467 408.476207 
L 513.864907 406.946292 
L 515.417471 402.489568 
L 518.338828 392.648022 
L 519.099267 390.979099 
L 519.815348 389.84045 
L 520.575788 389.234911 
L 521.336228 389.089029 
L 522.28044 389.265586 
L 523.80132 389.8985 
L 524.517401 390.01977 
L 525.27784 389.846313 
L 526.03828 389.317483 
L 526.754361 388.439759 
L 528.27524 385.973723 
L 528.991321 384.675143 
L 529.751761 383.5578 
L 530.512201 382.767255 
L 531.304325 382.404609 
L 532.064765 382.520374 
L 532.825205 383.107962 
L 534.301725 385.290359 
L 535.746561 387.682532 
L 536.462642 388.494886 
L 537.223081 388.851922 
L 537.983521 388.676596 
L 538.775646 387.953831 
L 539.536086 386.726241 
L 540.296526 385.093851 
L 542.533486 379.361028 
L 543.325611 377.773436 
L 544.08605 376.618395 
L 544.770446 375.998569 
L 545.486527 375.962202 
L 546.246967 376.495381 
L 547.007406 377.526134 
L 549.244367 382.109313 
L 550.949019 384.40092 
L 551.709459 384.774102 
L 552.42554 384.514307 
L 553.185979 383.619889 
L 554.6625 380.240027 
L 557.6599 371.399013 
L 558.42034 369.684387 
L 559.212464 368.385961 
L 559.972904 367.541557 
L 560.733344 367.151653 
L 561.449425 367.175529 
L 562.209865 367.53762 
L 563.610341 368.902586 
L 565.923345 371.257201 
L 567.444225 372.424602 
L 568.204665 372.831603 
L 569.681185 373.312011 
L 571.157706 373.338203 
L 572.678585 372.945517 
L 574.155106 372.200243 
L 581.778514 367.615505 
L 583.331079 366.996219 
L 584.091519 366.818559 
L 584.807599 366.783377 
L 585.568039 366.936006 
L 586.328479 367.30558 
L 587.120604 367.896347 
L 588.641483 369.626951 
L 590.04196 371.707022 
L 591.51848 373.46434 
L 592.27892 373.975477 
L 593.03936 374.132494 
L 593.831484 373.896886 
L 594.591924 373.261855 
L 595.352364 372.254268 
L 596.828884 369.418155 
L 599.065845 364.882933 
L 599.826284 363.804498 
L 600.586724 363.098612 
L 601.302805 362.78611 
L 602.063245 362.83706 
L 602.823685 363.176724 
L 604.300205 364.206432 
L 605.060645 364.564696 
L 605.928814 364.599484 
L 606.689253 364.18063 
L 607.373649 363.220308 
L 608.08973 361.688277 
L 608.85017 359.635589 
L 612.639694 347.499376 
L 613.400134 346.163605 
L 614.160574 345.601401 
L 614.952699 345.860996 
L 615.713138 346.89196 
L 616.397534 348.555061 
L 619.350575 356.897079 
L 620.111015 358.182443 
L 620.871455 358.789672 
L 621.66358 358.670599 
L 622.424019 357.865153 
L 623.184459 356.484345 
L 624.66098 352.664377 
L 625.345375 350.591779 
L 626.89794 346.909254 
L 627.65838 345.524007 
L 628.37446 344.524076 
L 629.1349 343.908945 
L 629.89534 343.631517 
L 630.65578 343.614108 
L 632.1323 344.021773 
L 633.760909 344.437294 
L 634.521348 344.453184 
L 635.281788 344.275468 
L 635.997869 343.879688 
L 636.758309 343.258224 
L 638.310873 341.395581 
L 639.831753 338.942172 
L 642.784794 333.511576 
L 644.305673 331.208981 
L 645.021754 330.25595 
L 646.542634 328.715719 
L 648.019154 327.509879 
L 654.045639 323.400669 
L 654.806079 323.11638 
L 655.566519 322.996252 
L 656.282599 323.077777 
L 657.043039 323.3892 
L 657.803479 323.932398 
L 659.279999 325.532653 
L 660.040439 326.420862 
L 661.669048 327.764084 
L 662.429487 327.94412 
L 663.145568 327.647524 
L 663.906008 326.824305 
L 664.666448 325.489906 
L 665.458573 323.734106 
L 667.695533 317.761074 
L 668.455973 316.287237 
L 669.216412 315.418023 
L 669.900808 315.286978 
L 670.692933 315.956464 
L 671.453373 317.413332 
L 672.213812 319.561902 
L 674.450773 328.301543 
L 675.166853 331.164796 
L 675.927293 333.620943 
L 676.687733 335.523928 
L 677.479858 336.789603 
L 678.240297 337.401429 
L 678.924693 337.414715 
L 679.640774 336.948692 
L 681.161653 335.235451 
L 681.953778 334.349042 
L 682.714218 333.677569 
L 683.474658 333.364724 
L 684.190739 333.515641 
L 684.951178 334.184022 
L 685.711618 335.356101 
L 686.427699 336.952064 
L 687.872534 340.833517 
L 689.577187 344.373646 
L 690.337627 345.518861 
L 691.053707 346.015203 
L 691.814147 345.75163 
L 692.574587 344.689928 
L 693.366712 342.874467 
L 694.127151 340.42477 
L 695.603672 334.35641 
L 696.288068 331.19495 
L 697.048507 328.263463 
L 697.840632 325.762729 
L 698.601072 323.844007 
L 699.361512 322.598037 
L 700.077592 322.041945 
L 700.838032 322.119702 
L 701.598472 322.708086 
L 703.835432 325.501941 
L 704.595872 325.993775 
L 705.311953 325.91907 
L 706.072393 325.139313 
L 706.832832 323.586296 
L 707.548913 321.276757 
L 708.309353 318.304897 
L 710.622357 307.310109 
L 712.098878 300.6692 
L 712.859317 298.221926 
L 713.619757 296.528277 
L 714.259794 295.612569 
L 715.020234 295.399631 
L 715.780673 295.722752 
L 718.169722 297.42164 
L 718.885802 297.382435 
L 719.646242 296.71993 
L 720.406682 295.359193 
L 721.198807 293.329125 
L 722.719686 287.827657 
L 723.359723 284.785718 
L 724.880603 279.306417 
L 725.672727 277.279282 
L 726.433167 275.903888 
L 727.193607 275.215536 
L 727.909688 275.166136 
L 728.670127 275.639304 
L 729.430567 276.465493 
L 730.907088 278.338594 
L 731.667527 278.977138 
L 732.351923 279.193802 
L 733.144048 278.895611 
L 733.904488 278.059219 
L 734.664927 276.709063 
L 736.141448 272.803752 
L 738.454452 265.901019 
L 739.930973 262.178979 
L 740.691412 260.896969 
L 741.375808 260.071553 
L 742.091889 259.722276 
L 742.852329 259.845779 
L 743.612769 260.405893 
L 744.556981 261.327941 
L 745.317421 262.513139 
L 746.001817 264.004304 
L 746.869985 264.996443 
L 747.554381 266.50321 
L 748.314821 267.656114 
L 749.791342 269.484812 
L 752.788742 272.503559 
L 754.341306 274.515831 
L 757.338706 279.271628 
L 757.902699 279.307513 
L 758.967315 282.19804 
L 759.499622 281.230587 
L 760.291747 281.20801 
L 761.052187 280.790397 
L 761.812627 279.993494 
L 762.528707 278.85394 
L 763.289147 277.418822 
L 764.841712 273.901841 
L 767.763068 266.558195 
L 768.523508 265.226198 
L 769.283947 264.288377 
L 770.000028 263.798376 
L 770.760468 263.771723 
L 771.520908 264.17923 
L 772.46512 264.933508 
L 774.702081 267.708098 
L 775.46252 268.169324 
L 776.22296 268.122897 
L 776.939041 267.487438 
L 777.699481 266.256301 
L 778.45992 264.500979 
L 781.489005 255.650589 
L 782.249445 254.035604 
L 783.009885 252.98687 
L 783.725966 252.561422 
L 784.486405 252.739355 
L 785.246845 253.422761 
L 787.407762 256.730106 
L 788.199886 257.542574 
L 788.960326 257.871525 
L 789.720766 257.573661 
L 790.436847 256.57135 
L 791.197286 254.858455 
L 791.957726 252.495289 
L 792.749851 249.595417 
L 794.27073 242.866763 
L 794.910767 239.446042 
L 796.431647 233.498022 
L 797.192086 231.29281 
L 797.908167 229.720363 
L 798.668607 228.775345 
L 799.61282 228.377584 
L 800.373259 228.388361 
L 802.61022 229.024089 
L 803.370659 228.798124 
L 804.055055 228.102058 
L 804.84718 226.88163 
L 805.60762 225.153522 
L 806.368059 222.988598 
L 809.397145 212.60459 
L 810.157584 210.326808 
L 810.918024 208.41894 
L 811.634105 206.946037 
L 812.318501 205.931627 
L 813.07894 205.35647 
L 813.795021 205.168313 
L 814.555461 205.285281 
L 817.628905 206.517297 
L 818.344986 206.420122 
L 819.105425 205.981467 
L 819.865865 205.177206 
L 820.65799 204.022972 
L 823.579346 197.757481 
L 824.339786 196.527782 
L 825.055867 195.733124 
L 825.816306 195.451394 
L 826.576746 195.688355 
L 827.444915 196.373207 
L 828.965794 198.525301 
L 830.366271 200.588915 
L 831.126711 201.19898 
L 831.918835 201.40832 
L 832.679275 201.221522 
L 833.439715 200.723172 
L 834.916235 199.396448 
L 835.676675 198.938457 
L 836.437115 198.840803 
L 837.22924 199.203292 
L 837.989679 200.041496 
L 838.750119 201.279997 
L 840.150596 204.336613 
L 840.911035 205.739618 
L 841.627116 206.780652 
L 842.387556 207.302395 
L 843.147996 207.212985 
L 843.94012 206.501222 
L 844.70056 205.245627 
L 845.461 203.595182 
L 846.937521 199.89629 
L 848.414041 196.962884 
L 849.174481 196.11749 
L 849.934921 195.751972 
L 850.651001 195.847232 
L 851.411441 196.345309 
L 852.171881 197.158847 
L 855.353054 201.559882 
L 856.113494 202.463879 
L 856.873933 203.11873 
L 857.51397 203.470851 
L 858.27441 203.48305 
L 859.03485 203.124825 
L 859.826974 202.379183 
L 860.587414 201.254058 
L 861.347854 199.788724 
L 865.137379 190.765176 
L 865.897818 189.484055 
L 866.582214 188.56613 
L 867.298295 188.007806 
L 868.058735 187.756686 
L 870.295695 187.636109 
L 871.056135 187.315601 
L 871.84826 186.653787 
L 872.608699 185.596912 
L 873.369139 184.156501 
L 874.769616 180.496444 
L 876.32218 176.875392 
L 877.08262 175.527066 
L 877.84306 174.684728 
L 878.55914 174.437402 
L 879.31958 174.811862 
L 880.08002 175.774217 
L 880.796101 177.231107 
L 883.945589 184.74035 
L 884.706028 186.111062 
L 885.422109 186.974136 
L 886.182549 187.257886 
L 886.942989 186.942157 
L 887.735113 186.053388 
L 888.495553 184.667866 
L 889.255993 182.902104 
L 891.492953 176.726103 
L 892.969474 173.199342 
L 893.729914 171.889209 
L 894.445994 170.921819 
L 895.206434 170.286136 
L 895.966874 169.943551 
L 896.682955 169.837247 
L 899.756399 170.026074 
L 900.516838 169.800825 
L 901.277278 169.32868 
L 902.677755 167.527288 
L 904.230319 164.727717 
L 907.227719 158.377027 
L 907.988159 157.167019 
L 908.70424 156.237897 
L 909.46468 155.597175 
L 909.920943 156.024116 
L 911.245376 154.842825 
L 911.853728 154.9262 
L 912.614168 154.794159 
L 913.330248 154.498336 
L 914.090688 153.918843 
L 914.851128 152.964801 
L 915.643253 151.585478 
L 916.403692 149.78316 
L 917.164132 147.626919 
L 919.401092 140.487489 
L 920.117173 138.477667 
L 920.877613 136.930745 
L 921.638053 135.949367 
L 922.354133 135.571102 
L 923.114573 135.773183 
L 923.875013 136.484864 
L 925.351533 138.95733 
L 926.904098 141.755924 
L 927.664538 142.888652 
L 928.424977 143.703878 
L 929.065014 144.152173 
L 929.825454 144.222968 
L 930.585894 143.958319 
L 931.378019 143.450565 
L 933.659338 141.656523 
L 934.375419 141.304007 
L 935.135858 141.173854 
L 935.74421 142.020656 
L 936.612379 141.377934 
L 937.296775 141.982049 
L 938.057214 142.395546 
L 938.925383 142.679091 
L 939.685823 142.711699 
L 940.446263 142.392423 
L 941.162343 141.654894 
L 941.922783 140.475741 
L 942.683223 138.880953 
L 943.475348 136.949397 
L 946.396704 128.555788 
L 947.157143 127.026369 
L 947.949268 125.955972 
L 948.709708 125.396252 
L 949.470148 125.353932 
L 950.186229 125.781997 
L 950.946668 126.578213 
L 953.183629 129.66155 
L 953.944068 130.366326 
L 954.736193 130.675062 
L 955.420589 130.507982 
L 956.181029 129.833716 
L 956.973153 128.698812 
L 958.417989 125.592434 
L 960.730993 120.587647 
L 961.447074 119.389174 
L 962.207514 118.572935 
L 962.967953 118.162542 
L 963.728393 118.131738 
L 964.36843 118.412936 
L 967.593962 120.440917 
L 968.354402 120.504184 
L 969.070482 120.166482 
L 969.830922 119.374273 
L 970.591362 118.12398 
L 971.383487 116.465704 
L 972.904366 112.348059 
L 973.544403 110.16544 
L 975.065283 106.296371 
L 975.857407 104.846798 
L 976.617847 103.81039 
L 977.378287 103.208492 
L 978.094368 103.02688 
L 978.854807 103.217156 
L 979.615247 103.702696 
L 981.852207 105.75125 
L 982.568288 106.170012 
L 983.328728 106.264259 
L 984.089168 106.001031 
L 984.805248 105.430488 
L 986.326128 103.763015 
L 987.878692 102.049081 
L 989.355213 100.833097 
L 990.115653 100.516458 
L 990.876093 100.44 
L 991.516129 100.618248 
L 992.276569 101.033639 
L 994.741661 103.072225 
L 996.218182 104.226434 
L 996.218182 104.226434 
" style="fill:none;stroke:#ff0000;stroke-linecap:round;"/>
   </g>
  </g>
 </g>
 <defs>
  <clipPath id="p55ee424b76">
   <rect height="498.96" width="892.8" x="144" y="77.76"/>
  </clipPath>
 </defs>
</svg>
