<?xml version="1.0" encoding="utf-8" standalone="no"?>
<!DOCTYPE svg PUBLIC "-//W3C//DTD SVG 1.1//EN"
  "http://www.w3.org/Graphics/SVG/1.1/DTD/svg11.dtd">
<!-- Created with matplotlib (https://matplotlib.org/) -->
<svg height="648pt" version="1.1" viewBox="0 0 1152 648" width="1152pt" xmlns="http://www.w3.org/2000/svg" xmlns:xlink="http://www.w3.org/1999/xlink">
 <metadata>
  <rdf:RDF xmlns:cc="http://creativecommons.org/ns#" xmlns:dc="http://purl.org/dc/elements/1.1/" xmlns:rdf="http://www.w3.org/1999/02/22-rdf-syntax-ns#">
   <cc:Work>
    <dc:type rdf:resource="http://purl.org/dc/dcmitype/StillImage"/>
    <dc:date>2022-11-23T16:07:45.069392</dc:date>
    <dc:format>image/svg+xml</dc:format>
    <dc:creator>
     <cc:Agent>
      <dc:title>Matplotlib v3.3.1, https://matplotlib.org/</dc:title>
     </cc:Agent>
    </dc:creator>
   </cc:Work>
  </rdf:RDF>
 </metadata>
 <defs>
  <style type="text/css">*{stroke-linecap:butt;stroke-linejoin:round;}</style>
 </defs>
 <g id="figure_1">
  <g id="patch_1">
   <path d="M 0 648 
L 1152 648 
L 1152 0 
L 0 0 
z
" style="fill:#ffffff;"/>
  </g>
  <g id="axes_1">
   <g id="patch_2">
    <path d="M 144 576.72 
L 1036.8 576.72 
L 1036.8 77.76 
L 144 77.76 
z
" style="fill:none;"/>
   </g>
   <g id="patch_3">
    <path d="M 144 576.72 
L 1036.8 576.72 
" style="fill:none;stroke:#d3d3d3;stroke-linecap:square;stroke-linejoin:miter;stroke-width:1.25;"/>
   </g>
   <g id="matplotlib.axis_1">
    <g id="xtick_1">
     <g id="line2d_1">
      <defs>
       <path d="M 0 0 
L 0 6 
" id="m97769d7b26" style="stroke:#696969;stroke-width:1.25;"/>
      </defs>
      <g>
       <use style="fill:#696969;stroke:#696969;stroke-width:1.25;" x="378.57" xlink:href="#m97769d7b26" y="576.72"/>
      </g>
     </g>
     <g id="text_1">
      <!-- 2000 -->
      <g style="fill:#696969;" transform="translate(360.977813 596.218438)scale(0.15 -0.15)">
       <defs>
        <path d="M 52.484375 6.9375 
L 52.484375 0 
L 5.171875 0 
L 5.171875 6.9375 
Q 33.203125 27.9375 38.59375 34.59375 
Q 44 41.265625 44 47.796875 
Q 44 53.90625 39.453125 57.65625 
Q 34.90625 61.421875 29 61.421875 
Q 22.90625 61.421875 18.21875 57.296875 
Q 13.53125 53.171875 12.9375 46.09375 
L 5.171875 48.4375 
Q 10.0625 68.015625 29.109375 68.015625 
Q 39.40625 68.015625 45.84375 62.15625 
Q 52.296875 56.296875 52.296875 47.859375 
Q 52.296875 42.046875 49.234375 36.671875 
Q 46.1875 31.296875 37.6875 23.828125 
Q 29.203125 16.359375 15.71875 6.9375 
z
" id="FranklinGothic-Book-50"/>
        <path d="M 29.390625 -1.3125 
Q 17.875 -1.3125 10.984375 8.671875 
Q 4.109375 18.65625 4.109375 33.453125 
Q 4.109375 48 10.640625 58 
Q 17.1875 68.015625 29.15625 68.015625 
Q 41.65625 68.015625 48.125 57.5625 
Q 54.59375 47.125 54.59375 33.0625 
Q 54.59375 19.28125 47.953125 8.984375 
Q 41.3125 -1.3125 29.390625 -1.3125 
z
M 29.4375 5.21875 
Q 37.890625 5.21875 41.9375 12.859375 
Q 46 20.515625 46 32.078125 
Q 46 44.734375 41.84375 53.125 
Q 37.703125 61.53125 29.046875 61.53125 
Q 20.703125 61.53125 16.625 53.859375 
Q 12.546875 46.1875 12.546875 33.6875 
Q 12.546875 20.703125 16.84375 12.953125 
Q 21.140625 5.21875 29.4375 5.21875 
z
" id="FranklinGothic-Book-48"/>
       </defs>
       <use xlink:href="#FranklinGothic-Book-50"/>
       <use x="58.642578" xlink:href="#FranklinGothic-Book-48"/>
       <use x="117.285156" xlink:href="#FranklinGothic-Book-48"/>
       <use x="175.927734" xlink:href="#FranklinGothic-Book-48"/>
      </g>
     </g>
    </g>
    <g id="xtick_2">
     <g id="line2d_2">
      <g>
       <use style="fill:#696969;stroke:#696969;stroke-width:1.25;" x="656.130511" xlink:href="#m97769d7b26" y="576.72"/>
      </g>
     </g>
     <g id="text_2">
      <!-- 2010 -->
      <g style="fill:#696969;" transform="translate(639.063324 596.218438)scale(0.15 -0.15)">
       <defs>
        <path d="M 55.859375 6.203125 
L 55.859375 0 
L 9.1875 0 
L 9.1875 6.203125 
L 29.203125 6.203125 
L 29.203125 57.671875 
Q 20.359375 48.4375 10.84375 43.265625 
L 10.84375 51.65625 
Q 23.96875 58.546875 31.203125 68.015625 
L 37.15625 68.015625 
L 37.15625 6.203125 
z
" id="FranklinGothic-Book-49"/>
       </defs>
       <use xlink:href="#FranklinGothic-Book-50"/>
       <use x="58.642578" xlink:href="#FranklinGothic-Book-48"/>
       <use x="113.535156" xlink:href="#FranklinGothic-Book-49"/>
       <use x="168.927734" xlink:href="#FranklinGothic-Book-48"/>
      </g>
     </g>
    </g>
    <g id="xtick_3">
     <g id="line2d_3">
      <g>
       <use style="fill:#696969;stroke:#696969;stroke-width:1.25;" x="933.691023" xlink:href="#m97769d7b26" y="576.72"/>
      </g>
     </g>
     <g id="text_3">
      <!-- 2020 -->
      <g style="fill:#696969;" transform="translate(916.098835 596.218438)scale(0.15 -0.15)">
       <use xlink:href="#FranklinGothic-Book-50"/>
       <use x="58.642578" xlink:href="#FranklinGothic-Book-48"/>
       <use x="117.285156" xlink:href="#FranklinGothic-Book-50"/>
       <use x="175.927734" xlink:href="#FranklinGothic-Book-48"/>
      </g>
     </g>
    </g>
    <g id="text_4">
     <!-- Year -->
     <g style="fill:#696969;" transform="translate(572.109375 616.048125)scale(0.2 -0.2)">
      <defs>
       <path d="M 52 66.65625 
L 29.6875 28.03125 
L 29.6875 0 
L 21.34375 0 
L 21.34375 28.03125 
L -0.984375 66.65625 
L 8.84375 66.65625 
L 26.5625 35.984375 
L 44.390625 66.65625 
z
" id="FranklinGothic-Book-89"/>
       <path d="M 40.234375 14.703125 
L 47.359375 13.234375 
Q 45.40625 6.9375 39.734375 2.8125 
Q 34.078125 -1.3125 26.421875 -1.3125 
Q 16.3125 -1.3125 10.0625 5.78125 
Q 3.8125 12.890625 3.8125 24.421875 
Q 3.8125 36.1875 10.296875 43.4375 
Q 16.796875 50.6875 26.609375 50.6875 
Q 36.28125 50.6875 42.15625 44 
Q 48.046875 37.3125 48.1875 23.96875 
L 12.359375 23.96875 
Q 12.359375 12.796875 17.046875 8.890625 
Q 21.734375 4.984375 26.953125 4.984375 
Q 36.375 4.984375 40.234375 14.703125 
z
M 39.796875 29.6875 
Q 39.703125 33.84375 38.421875 37.0625 
Q 37.15625 40.28125 34.125 42.546875 
Q 31.109375 44.828125 26.859375 44.828125 
Q 21.140625 44.828125 17.15625 40.71875 
Q 13.1875 36.625 12.703125 29.6875 
z
" id="FranklinGothic-Book-101"/>
       <path d="M 46.296875 0 
L 38.671875 0 
Q 38.234375 2.34375 37.796875 8.890625 
Q 32.71875 -1.3125 20.515625 -1.3125 
Q 12.203125 -1.3125 7.765625 3.078125 
Q 3.328125 7.46875 3.328125 13.625 
Q 3.328125 21.09375 9.671875 25.90625 
Q 16.015625 30.71875 31.25 30.71875 
Q 33.296875 30.71875 37.796875 30.515625 
Q 37.796875 36.375 36.890625 38.984375 
Q 35.984375 41.609375 33.046875 43.171875 
Q 30.125 44.734375 25.34375 44.734375 
Q 13.671875 44.734375 11.765625 35.84375 
L 4.6875 37.0625 
Q 7.28125 50.6875 26.46875 50.6875 
Q 36.671875 50.6875 40.9375 46.171875 
Q 45.21875 41.65625 45.21875 30.515625 
L 45.21875 9.578125 
Q 45.21875 4.34375 46.296875 0 
z
M 37.796875 24.65625 
Q 33.109375 24.953125 30.671875 24.953125 
Q 21.578125 24.953125 16.546875 21.96875 
Q 11.53125 19 11.53125 13.28125 
Q 11.53125 9.671875 14.234375 7.125 
Q 16.9375 4.59375 22.078125 4.59375 
Q 29 4.59375 33.46875 9.625 
Q 37.9375 14.65625 37.9375 21.4375 
Q 37.9375 22.796875 37.796875 24.65625 
z
" id="FranklinGothic-Book-97"/>
       <path d="M 15.328125 0 
L 7.671875 0 
L 7.671875 49.3125 
L 14.40625 49.3125 
L 14.40625 37.796875 
Q 17.96875 45.953125 21.546875 48.359375 
Q 25.140625 50.78125 28.90625 50.78125 
Q 30.078125 50.78125 31.9375 50.59375 
L 31.9375 43.265625 
L 30.375 43.265625 
Q 24.03125 43.265625 19.828125 38.53125 
Q 15.625 33.796875 15.328125 26.078125 
z
" id="FranklinGothic-Book-114"/>
      </defs>
      <use xlink:href="#FranklinGothic-Book-89"/>
      <use x="45.025391" xlink:href="#FranklinGothic-Book-101"/>
      <use x="97.076172" xlink:href="#FranklinGothic-Book-97"/>
      <use x="149.957031" xlink:href="#FranklinGothic-Book-114"/>
     </g>
    </g>
   </g>
   <g id="matplotlib.axis_2">
    <g id="ytick_1">
     <g id="line2d_4">
      <path clip-path="url(#p7f73c9853c)" d="M 144 555.424972 
L 1036.8 555.424972 
" style="fill:none;stroke:#d3d3d3;stroke-linecap:round;stroke-opacity:0.5;"/>
     </g>
     <g id="text_5">
      <!-- 0 -->
      <g style="fill:#696969;" transform="translate(125.703906 560.424191)scale(0.15 -0.15)">
       <use xlink:href="#FranklinGothic-Book-48"/>
      </g>
     </g>
    </g>
    <g id="ytick_2">
     <g id="line2d_5">
      <path clip-path="url(#p7f73c9853c)" d="M 144 510.789287 
L 1036.8 510.789287 
" style="fill:none;stroke:#d3d3d3;stroke-linecap:round;stroke-opacity:0.5;"/>
     </g>
     <g id="text_6">
      <!-- 10 -->
      <g style="fill:#696969;" transform="translate(117.395313 515.788506)scale(0.15 -0.15)">
       <use xlink:href="#FranklinGothic-Book-49"/>
       <use x="55.392578" xlink:href="#FranklinGothic-Book-48"/>
      </g>
     </g>
    </g>
    <g id="ytick_3">
     <g id="line2d_6">
      <path clip-path="url(#p7f73c9853c)" d="M 144 466.153602 
L 1036.8 466.153602 
" style="fill:none;stroke:#d3d3d3;stroke-linecap:round;stroke-opacity:0.5;"/>
     </g>
     <g id="text_7">
      <!-- 20 -->
      <g style="fill:#696969;" transform="translate(116.907813 471.152821)scale(0.15 -0.15)">
       <use xlink:href="#FranklinGothic-Book-50"/>
       <use x="58.642578" xlink:href="#FranklinGothic-Book-48"/>
      </g>
     </g>
    </g>
    <g id="ytick_4">
     <g id="line2d_7">
      <path clip-path="url(#p7f73c9853c)" d="M 144 421.517917 
L 1036.8 421.517917 
" style="fill:none;stroke:#d3d3d3;stroke-linecap:round;stroke-opacity:0.5;"/>
     </g>
     <g id="text_8">
      <!-- 30 -->
      <g style="fill:#696969;" transform="translate(116.907813 426.517136)scale(0.15 -0.15)">
       <defs>
        <path d="M 19.34375 31.34375 
L 19.34375 37.984375 
L 26.953125 37.984375 
Q 35.296875 37.984375 38.890625 41.40625 
Q 42.484375 44.828125 42.484375 49.703125 
Q 42.484375 55.078125 38.46875 58.21875 
Q 34.46875 61.375 28.421875 61.375 
Q 17.1875 61.375 12.890625 50.53125 
L 5.375 52.6875 
Q 11.8125 68.015625 29.203125 68.015625 
Q 38.96875 68.015625 44.96875 62.8125 
Q 50.984375 57.625 50.984375 50.296875 
Q 50.984375 44.625 47.359375 40.40625 
Q 43.75 36.1875 38.09375 35.109375 
Q 44.4375 34.1875 49 29.78125 
Q 53.5625 25.390625 53.5625 18.40625 
Q 53.5625 10.0625 46.765625 4.375 
Q 39.984375 -1.3125 28.171875 -1.3125 
Q 18.796875 -1.3125 12.125 3.125 
Q 5.46875 7.5625 2.9375 14.9375 
L 10.6875 17.53125 
Q 14.203125 5.46875 28.03125 5.46875 
Q 37.015625 5.46875 40.9375 9.296875 
Q 44.875 13.140625 44.875 18.453125 
Q 44.875 24.21875 40.15625 27.78125 
Q 35.453125 31.34375 26.953125 31.34375 
z
" id="FranklinGothic-Book-51"/>
       </defs>
       <use xlink:href="#FranklinGothic-Book-51"/>
       <use x="58.642578" xlink:href="#FranklinGothic-Book-48"/>
      </g>
     </g>
    </g>
    <g id="ytick_5">
     <g id="line2d_8">
      <path clip-path="url(#p7f73c9853c)" d="M 144 376.882232 
L 1036.8 376.882232 
" style="fill:none;stroke:#d3d3d3;stroke-linecap:round;stroke-opacity:0.5;"/>
     </g>
     <g id="text_9">
      <!-- 40 -->
      <g style="fill:#696969;" transform="translate(116.907813 381.881451)scale(0.15 -0.15)">
       <defs>
        <path d="M 44.09375 0 
L 36.03125 0 
L 36.03125 15.875 
L 3.078125 15.875 
L 3.078125 21.484375 
L 33.640625 68.0625 
L 44.09375 68.0625 
L 44.09375 22.46875 
L 54.890625 22.46875 
L 54.890625 15.875 
L 44.09375 15.875 
z
M 36.03125 22.46875 
L 36.03125 54 
Q 36.03125 57.421875 36.1875 61.375 
Q 34.078125 57.515625 32.5625 55.125 
L 11.765625 22.46875 
z
" id="FranklinGothic-Book-52"/>
       </defs>
       <use xlink:href="#FranklinGothic-Book-52"/>
       <use x="58.642578" xlink:href="#FranklinGothic-Book-48"/>
      </g>
     </g>
    </g>
    <g id="ytick_6">
     <g id="line2d_9">
      <path clip-path="url(#p7f73c9853c)" d="M 144 332.246547 
L 1036.8 332.246547 
" style="fill:none;stroke:#d3d3d3;stroke-linecap:round;stroke-opacity:0.5;"/>
     </g>
     <g id="text_10">
      <!-- 50 -->
      <g style="fill:#696969;" transform="translate(116.907813 337.245766)scale(0.15 -0.15)">
       <defs>
        <path d="M 48.875 66.65625 
L 48.1875 59.46875 
L 15.4375 59.46875 
L 14.015625 37.84375 
Q 21.4375 45.125 30.328125 45.125 
Q 39.703125 45.125 46.515625 38.625 
Q 53.328125 32.125 53.328125 22.015625 
Q 53.328125 11.765625 45.921875 5.21875 
Q 38.53125 -1.3125 27.828125 -1.3125 
Q 19.4375 -1.3125 12.890625 3.078125 
Q 6.34375 7.46875 4.296875 14.453125 
L 11.421875 16.890625 
Q 15.828125 5.28125 27.9375 5.28125 
Q 35.890625 5.28125 40.578125 9.984375 
Q 45.265625 14.703125 45.265625 22.015625 
Q 45.265625 29.6875 40.625 33.984375 
Q 35.984375 38.28125 29.5 38.28125 
Q 20.015625 38.28125 13.8125 29.203125 
L 7.234375 30.609375 
L 9.375 66.65625 
z
" id="FranklinGothic-Book-53"/>
       </defs>
       <use xlink:href="#FranklinGothic-Book-53"/>
       <use x="58.642578" xlink:href="#FranklinGothic-Book-48"/>
      </g>
     </g>
    </g>
    <g id="ytick_7">
     <g id="line2d_10">
      <path clip-path="url(#p7f73c9853c)" d="M 144 287.610862 
L 1036.8 287.610862 
" style="fill:none;stroke:#d3d3d3;stroke-linecap:round;stroke-opacity:0.5;"/>
     </g>
     <g id="text_11">
      <!-- 60 -->
      <g style="fill:#696969;" transform="translate(116.907813 292.610081)scale(0.15 -0.15)">
       <defs>
        <path d="M 53.5625 53.03125 
L 46.046875 50.984375 
Q 42.1875 61.140625 31.984375 61.140625 
Q 13.234375 61.140625 12.796875 30.125 
Q 15.765625 37.015625 21.234375 40.328125 
Q 26.703125 43.65625 32.8125 43.65625 
Q 42.09375 43.65625 48.359375 37.1875 
Q 54.640625 30.71875 54.640625 21.6875 
Q 54.640625 12.3125 47.96875 5.5 
Q 41.3125 -1.3125 30.90625 -1.3125 
Q 19.09375 -1.3125 12.078125 7.59375 
Q 5.078125 16.5 5.078125 31.84375 
Q 5.078125 46.828125 11.6875 57.421875 
Q 18.3125 68.015625 32.171875 68.015625 
Q 48.140625 68.015625 53.5625 53.03125 
z
M 30.765625 5.375 
Q 37.84375 5.375 42.359375 10.03125 
Q 46.875 14.703125 46.875 21.234375 
Q 46.875 27.6875 42.453125 32.296875 
Q 38.03125 36.921875 31.5 36.921875 
Q 24.75 36.921875 19.71875 32.078125 
Q 14.703125 27.25 14.703125 20.75 
Q 14.703125 14.75 19.1875 10.0625 
Q 23.6875 5.375 30.765625 5.375 
z
" id="FranklinGothic-Book-54"/>
       </defs>
       <use xlink:href="#FranklinGothic-Book-54"/>
       <use x="58.642578" xlink:href="#FranklinGothic-Book-48"/>
      </g>
     </g>
    </g>
    <g id="ytick_8">
     <g id="line2d_11">
      <path clip-path="url(#p7f73c9853c)" d="M 144 242.975177 
L 1036.8 242.975177 
" style="fill:none;stroke:#d3d3d3;stroke-linecap:round;stroke-opacity:0.5;"/>
     </g>
     <g id="text_12">
      <!-- 70 -->
      <g style="fill:#696969;" transform="translate(116.907813 247.974396)scale(0.15 -0.15)">
       <defs>
        <path d="M 28.078125 0 
L 19.484375 0 
Q 19.484375 16.75 26.3125 32.59375 
Q 33.15625 48.4375 43.0625 59.328125 
L 6.890625 59.328125 
L 7.71875 66.65625 
L 51.765625 66.65625 
L 51.765625 61.671875 
Q 39.84375 47.3125 33.9375 31.78125 
Q 28.03125 16.265625 28.03125 2.296875 
Q 28.03125 1.515625 28.078125 0 
z
" id="FranklinGothic-Book-55"/>
       </defs>
       <use xlink:href="#FranklinGothic-Book-55"/>
       <use x="58.642578" xlink:href="#FranklinGothic-Book-48"/>
      </g>
     </g>
    </g>
    <g id="ytick_9">
     <g id="line2d_12">
      <path clip-path="url(#p7f73c9853c)" d="M 144 198.339492 
L 1036.8 198.339492 
" style="fill:none;stroke:#d3d3d3;stroke-linecap:round;stroke-opacity:0.5;"/>
     </g>
     <g id="text_13">
      <!-- 80 -->
      <g style="fill:#696969;" transform="translate(116.907813 203.338711)scale(0.15 -0.15)">
       <defs>
        <path d="M 19.484375 34.578125 
Q 6.84375 40.09375 6.84375 50.59375 
Q 6.84375 58.203125 13.140625 63.109375 
Q 19.4375 68.015625 29.828125 68.015625 
Q 40.09375 68.015625 46.140625 63.296875 
Q 52.203125 58.59375 52.203125 50.984375 
Q 52.203125 40.375 39.265625 35.796875 
Q 49.703125 30.953125 52.359375 26.453125 
Q 55.03125 21.96875 55.03125 17.484375 
Q 55.03125 9.46875 48.21875 4.078125 
Q 41.40625 -1.3125 29.734375 -1.3125 
Q 17.28125 -1.3125 10.4375 4.171875 
Q 3.609375 9.671875 3.609375 17.234375 
Q 3.609375 28.515625 19.484375 34.578125 
z
M 29.59375 38.71875 
Q 37.984375 40.96875 41.453125 43.890625 
Q 44.921875 46.828125 44.921875 51.21875 
Q 44.921875 56.34375 40.796875 59 
Q 36.671875 61.671875 29.9375 61.671875 
Q 23.484375 61.671875 19.375 58.859375 
Q 15.28125 56.0625 15.28125 51.3125 
Q 15.28125 46.625 19.84375 43.203125 
Q 24.421875 39.796875 29.59375 38.71875 
z
M 28.65625 31.0625 
Q 11.765625 27.046875 11.765625 16.9375 
Q 11.765625 11.671875 16.375 8.328125 
Q 21 4.984375 29.984375 4.984375 
Q 37.59375 4.984375 42.234375 8.25 
Q 46.875 11.53125 46.875 16.609375 
Q 46.875 26.3125 28.65625 31.0625 
z
" id="FranklinGothic-Book-56"/>
       </defs>
       <use xlink:href="#FranklinGothic-Book-56"/>
       <use x="58.642578" xlink:href="#FranklinGothic-Book-48"/>
      </g>
     </g>
    </g>
    <g id="ytick_10">
     <g id="line2d_13">
      <path clip-path="url(#p7f73c9853c)" d="M 144 153.703807 
L 1036.8 153.703807 
" style="fill:none;stroke:#d3d3d3;stroke-linecap:round;stroke-opacity:0.5;"/>
     </g>
     <g id="text_14">
      <!-- 90 -->
      <g style="fill:#696969;" transform="translate(116.907813 158.703026)scale(0.15 -0.15)">
       <defs>
        <path d="M 5.71875 12.15625 
L 12.40625 14.59375 
Q 16.546875 5.375 26.375 5.375 
Q 35.890625 5.375 40.703125 13.375 
Q 45.515625 21.390625 45.65625 35.109375 
Q 39.109375 23.09375 25.984375 23.09375 
Q 16.703125 23.09375 10.40625 29.421875 
Q 4.109375 35.75 4.109375 45.0625 
Q 4.109375 54.546875 10.71875 61.28125 
Q 17.328125 68.015625 27.59375 68.015625 
Q 40.140625 68.015625 46.828125 59.203125 
Q 53.515625 50.390625 53.515625 34.96875 
Q 53.515625 18.75 46.4375 8.71875 
Q 39.359375 -1.3125 26.265625 -1.3125 
Q 10.984375 -1.3125 5.71875 12.15625 
z
M 27.828125 29.78125 
Q 34.71875 29.78125 39.375 34.59375 
Q 44.046875 39.40625 44.046875 45.84375 
Q 44.046875 52.09375 39.625 56.578125 
Q 35.203125 61.078125 27.984375 61.078125 
Q 20.65625 61.078125 16.40625 56.46875 
Q 12.15625 51.859375 12.15625 45.21875 
Q 12.15625 38.09375 16.859375 33.9375 
Q 21.578125 29.78125 27.828125 29.78125 
z
" id="FranklinGothic-Book-57"/>
       </defs>
       <use xlink:href="#FranklinGothic-Book-57"/>
       <use x="58.642578" xlink:href="#FranklinGothic-Book-48"/>
      </g>
     </g>
    </g>
    <g id="ytick_11">
     <g id="line2d_14">
      <path clip-path="url(#p7f73c9853c)" d="M 144 109.068122 
L 1036.8 109.068122 
" style="fill:none;stroke:#d3d3d3;stroke-linecap:round;stroke-opacity:0.5;"/>
     </g>
     <g id="text_15">
      <!-- 100 -->
      <g style="fill:#696969;" transform="translate(108.599219 114.067341)scale(0.15 -0.15)">
       <use xlink:href="#FranklinGothic-Book-49"/>
       <use x="55.392578" xlink:href="#FranklinGothic-Book-48"/>
       <use x="114.035156" xlink:href="#FranklinGothic-Book-48"/>
      </g>
     </g>
    </g>
    <g id="text_16">
     <!-- mm -->
     <g style="fill:#696969;" transform="translate(95.267969 343.518125)rotate(-90)scale(0.2 -0.2)">
      <defs>
       <path d="M 73.734375 0 
L 66.265625 0 
L 66.265625 30.671875 
Q 66.265625 35.40625 65.59375 37.765625 
Q 64.9375 40.140625 62.390625 42.109375 
Q 59.859375 44.09375 56.6875 44.09375 
Q 52.296875 44.09375 48.21875 40.0625 
Q 44.140625 36.03125 44.140625 27.78125 
L 44.140625 0 
L 36.71875 0 
L 36.71875 32.46875 
Q 36.71875 38.96875 33.609375 41.65625 
Q 30.515625 44.34375 27.09375 44.34375 
Q 22.21875 44.34375 18.59375 40.140625 
Q 14.984375 35.9375 14.984375 29.5 
L 14.984375 0 
L 7.671875 0 
L 7.671875 49.3125 
L 14.265625 49.3125 
L 14.265625 39.84375 
Q 19.78125 50.6875 29.4375 50.6875 
Q 34.765625 50.6875 38.46875 47.21875 
Q 42.1875 43.75 43.265625 38.875 
Q 48.34375 50.6875 58.84375 50.6875 
Q 63.875 50.6875 67.65625 47.796875 
Q 71.4375 44.921875 72.578125 41.1875 
Q 73.734375 37.453125 73.734375 30.671875 
z
" id="FranklinGothic-Book-109"/>
      </defs>
      <use xlink:href="#FranklinGothic-Book-109"/>
      <use x="81.396484" xlink:href="#FranklinGothic-Book-109"/>
     </g>
    </g>
   </g>
   <g id="text_17">
    <!-- Global mean sea level change -->
    <g style="fill:#696969;" transform="translate(144 42.76)scale(0.4 -0.4)">
     <defs>
      <path d="M 57.71875 33.59375 
L 57.71875 -0.875 
L 52.59375 -0.875 
L 50.296875 7.46875 
Q 44.140625 -1.3125 31.984375 -1.3125 
Q 18.796875 -1.3125 11.46875 8.59375 
Q 4.15625 18.5 4.15625 32.671875 
Q 4.15625 47.796875 11.90625 57.90625 
Q 19.671875 68.015625 33.015625 68.015625 
Q 51.421875 68.015625 57.03125 48.6875 
L 49.125 46.78125 
Q 47.40625 54.203125 42.71875 57.5625 
Q 38.03125 60.9375 32.46875 60.9375 
Q 22.609375 60.9375 17.921875 52.96875 
Q 13.234375 45.015625 13.234375 33.015625 
Q 13.234375 20.0625 18.484375 12.765625 
Q 23.734375 5.46875 32.765625 5.46875 
Q 39.796875 5.46875 44.5 10.125 
Q 49.21875 14.796875 49.21875 23 
Q 49.21875 24.515625 49.125 26.609375 
L 32.625 26.609375 
L 32.625 33.59375 
z
" id="FranklinGothic-Book-71"/>
      <path d="M 15.328125 0 
L 7.671875 0 
L 7.671875 66.65625 
L 15.328125 66.65625 
z
" id="FranklinGothic-Book-108"/>
      <path d="M 25.34375 -1.3125 
Q 15.1875 -1.3125 9.5 6.203125 
Q 3.8125 13.71875 3.8125 24.859375 
Q 3.8125 36.625 10.203125 43.65625 
Q 16.609375 50.6875 26.125 50.6875 
Q 36.328125 50.6875 42.203125 43.28125 
Q 48.09375 35.890625 48.09375 24.8125 
Q 48.09375 13.28125 41.75 5.984375 
Q 35.40625 -1.3125 25.34375 -1.3125 
z
M 25.921875 4.984375 
Q 31.78125 4.984375 35.734375 9.8125 
Q 39.703125 14.65625 39.703125 24.859375 
Q 39.703125 35.109375 35.546875 39.71875 
Q 31.390625 44.34375 25.828125 44.34375 
Q 20.125 44.34375 16.15625 39.671875 
Q 12.203125 35.015625 12.203125 24.90625 
Q 12.203125 14.203125 16.15625 9.59375 
Q 20.125 4.984375 25.921875 4.984375 
z
" id="FranklinGothic-Book-111"/>
      <path d="M 11.375 0 
L 7.671875 0 
L 7.671875 66.65625 
L 15.328125 66.65625 
L 15.328125 41.109375 
Q 20.609375 50.6875 29.890625 50.6875 
Q 38.375 50.6875 44.109375 44 
Q 49.859375 37.3125 49.859375 24.5625 
Q 49.859375 13.578125 44.21875 6.125 
Q 38.578125 -1.3125 29.546875 -1.3125 
Q 19.484375 -1.3125 14.109375 8.15625 
z
M 15.328125 19.34375 
Q 15.875 11.765625 20 8.34375 
Q 24.125 4.9375 28.71875 4.9375 
Q 34.578125 4.9375 38.15625 10.015625 
Q 41.75 15.09375 41.75 23.921875 
Q 41.75 33.453125 38.28125 38.890625 
Q 34.8125 44.34375 28.65625 44.34375 
Q 23.828125 44.34375 19.9375 40.453125 
Q 16.0625 36.578125 15.328125 30.421875 
z
" id="FranklinGothic-Book-98"/>
      <path id="FranklinGothic-Book-32"/>
      <path d="M 46.53125 0 
L 39.359375 0 
L 39.359375 31.6875 
Q 39.359375 38.53125 36.375 41.3125 
Q 33.40625 44.09375 29.15625 44.09375 
Q 23.296875 44.09375 19.3125 39.40625 
Q 15.328125 34.71875 15.328125 27.046875 
L 15.328125 0 
L 7.671875 0 
L 7.671875 49.3125 
L 14.796875 49.3125 
L 14.796875 40.234375 
Q 20.796875 50.6875 30.375 50.6875 
Q 35.890625 50.6875 39.765625 47.828125 
Q 43.65625 44.96875 45.09375 41.40625 
Q 46.53125 37.84375 46.53125 28.515625 
z
" id="FranklinGothic-Book-110"/>
      <path d="M 1.03125 12.796875 
L 8.34375 14.3125 
Q 10.796875 4.984375 23.78125 4.984375 
Q 28.5625 4.984375 31.875 7.125 
Q 35.203125 9.28125 35.203125 13.1875 
Q 35.203125 19 26.765625 20.5625 
L 16.359375 22.515625 
Q 10.25 23.6875 6.640625 27.09375 
Q 3.03125 30.515625 3.03125 36.140625 
Q 3.03125 42.328125 7.953125 46.5 
Q 12.890625 50.6875 21.234375 50.6875 
Q 37.3125 50.6875 41.0625 38.140625 
L 34.03125 36.625 
Q 31 44.34375 21.578125 44.34375 
Q 16.890625 44.34375 13.890625 42.40625 
Q 10.890625 40.484375 10.890625 37.015625 
Q 10.890625 31.546875 18.5625 30.125 
L 28.171875 28.421875 
Q 43.265625 25.6875 43.265625 13.8125 
Q 43.265625 7.03125 37.640625 2.859375 
Q 32.03125 -1.3125 22.703125 -1.3125 
Q 5.171875 -1.3125 1.03125 12.796875 
z
" id="FranklinGothic-Book-115"/>
      <path d="M 43.796875 49.3125 
L 26.765625 0 
L 18.796875 0 
L 1.171875 49.3125 
L 9.671875 49.3125 
L 23.390625 9.234375 
L 36.96875 49.3125 
z
" id="FranklinGothic-Book-118"/>
      <path d="M 36.8125 17.28125 
L 43.75 16.0625 
Q 42.28125 7.90625 37.25 3.296875 
Q 32.234375 -1.3125 24.703125 -1.3125 
Q 14.5 -1.3125 9.15625 6.203125 
Q 3.8125 13.71875 3.8125 24.5625 
Q 3.8125 35.796875 9.453125 43.234375 
Q 15.09375 50.6875 24.8125 50.6875 
Q 32.859375 50.6875 37.71875 45.875 
Q 42.578125 41.0625 43.75 33.453125 
L 36.8125 32.125 
Q 34.859375 44.34375 25 44.34375 
Q 18.65625 44.34375 15.234375 38.9375 
Q 11.8125 33.546875 11.8125 24.953125 
Q 11.8125 15.484375 15.203125 10.234375 
Q 18.609375 4.984375 24.75 4.984375 
Q 34.28125 4.984375 36.8125 17.28125 
z
" id="FranklinGothic-Book-99"/>
      <path d="M 46.34375 0 
L 38.671875 0 
L 38.671875 29.9375 
Q 38.671875 35.203125 38.015625 37.84375 
Q 37.359375 40.484375 34.890625 42.40625 
Q 32.421875 44.34375 29.203125 44.34375 
Q 23.296875 44.34375 19.3125 39.5 
Q 15.328125 34.671875 15.328125 26.5625 
L 15.328125 0 
L 7.671875 0 
L 7.671875 66.65625 
L 15.328125 66.65625 
L 15.328125 40.234375 
Q 20.5625 50.6875 30.28125 50.6875 
Q 34.625 50.6875 38.015625 48.96875 
Q 41.40625 47.265625 43.203125 44.484375 
Q 45.015625 41.703125 45.671875 38.984375 
Q 46.34375 36.28125 46.34375 29.9375 
z
" id="FranklinGothic-Book-104"/>
      <path d="M 47.953125 57.03125 
L 47.953125 50.921875 
Q 42.671875 50.921875 40.890625 49.703125 
Q 39.109375 48.484375 38.53125 45.3125 
Q 43.265625 39.84375 43.265625 33.40625 
Q 43.265625 26.65625 38.109375 21.828125 
Q 32.953125 17 24.265625 17 
Q 22.3125 17 20.90625 17.28125 
Q 18.21875 17.828125 17.53125 17.828125 
Q 16.21875 17.828125 14.359375 16.53125 
Q 12.5 15.234375 12.5 13.1875 
Q 12.5 10.25 15.1875 9.375 
Q 17.875 8.5 27.828125 8.25 
Q 36.28125 8.015625 40.3125 7.109375 
Q 44.34375 6.203125 47.125 3.09375 
Q 49.90625 0 49.90625 -4.5 
Q 49.90625 -18.609375 25.09375 -18.609375 
Q 13.328125 -18.609375 7.9375 -15.0625 
Q 2.546875 -11.53125 2.546875 -5.609375 
Q 2.546875 1.5625 10.0625 4.25 
Q 5.21875 7.421875 5.21875 12.203125 
Q 5.21875 17.921875 12.0625 20.953125 
Q 5.671875 26.125 5.671875 33.984375 
Q 5.671875 41.3125 11.140625 46 
Q 16.609375 50.6875 24.46875 50.6875 
Q 30.03125 50.6875 34.578125 48.578125 
Q 35.296875 53.421875 37.953125 55.265625 
Q 40.625 57.125 46.046875 57.125 
Q 46.578125 57.125 47.953125 57.03125 
z
M 24.515625 22.859375 
Q 29.390625 22.859375 32.46875 25.859375 
Q 35.546875 28.859375 35.546875 33.640625 
Q 35.546875 38.53125 32.34375 41.625 
Q 29.15625 44.734375 24.609375 44.734375 
Q 20.265625 44.734375 16.890625 41.828125 
Q 13.53125 38.921875 13.53125 33.546875 
Q 13.53125 28.765625 16.546875 25.8125 
Q 19.578125 22.859375 24.515625 22.859375 
z
M 15.328125 2 
Q 9.96875 -0.34375 9.96875 -4.78125 
Q 9.96875 -8.546875 14.375 -10.625 
Q 18.796875 -12.703125 25.640625 -12.703125 
Q 31.984375 -12.703125 37.25 -10.90625 
Q 42.53125 -9.125 42.53125 -4.890625 
Q 42.53125 -2.59375 40.96875 -1.125 
Q 39.40625 0.34375 36.6875 0.734375 
Q 33.984375 1.125 27.25 1.3125 
Q 19.1875 1.515625 15.328125 2 
z
" id="FranklinGothic-Book-103"/>
     </defs>
     <use xlink:href="#FranklinGothic-Book-71"/>
     <use x="64.697266" xlink:href="#FranklinGothic-Book-108"/>
     <use x="87.695312" xlink:href="#FranklinGothic-Book-111"/>
     <use x="139.648438" xlink:href="#FranklinGothic-Book-98"/>
     <use x="193.359375" xlink:href="#FranklinGothic-Book-97"/>
     <use x="246.240234" xlink:href="#FranklinGothic-Book-108"/>
     <use x="269.238281" xlink:href="#FranklinGothic-Book-32"/>
     <use x="294.238281" xlink:href="#FranklinGothic-Book-109"/>
     <use x="375.634766" xlink:href="#FranklinGothic-Book-101"/>
     <use x="427.685547" xlink:href="#FranklinGothic-Book-97"/>
     <use x="480.566406" xlink:href="#FranklinGothic-Book-110"/>
     <use x="534.765625" xlink:href="#FranklinGothic-Book-32"/>
     <use x="559.765625" xlink:href="#FranklinGothic-Book-115"/>
     <use x="606.152344" xlink:href="#FranklinGothic-Book-101"/>
     <use x="658.203125" xlink:href="#FranklinGothic-Book-97"/>
     <use x="711.083984" xlink:href="#FranklinGothic-Book-32"/>
     <use x="736.083984" xlink:href="#FranklinGothic-Book-108"/>
     <use x="759.082031" xlink:href="#FranklinGothic-Book-101"/>
     <use x="809.382812" xlink:href="#FranklinGothic-Book-118"/>
     <use x="852.902344" xlink:href="#FranklinGothic-Book-101"/>
     <use x="904.953125" xlink:href="#FranklinGothic-Book-108"/>
     <use x="927.951172" xlink:href="#FranklinGothic-Book-32"/>
     <use x="952.951172" xlink:href="#FranklinGothic-Book-99"/>
     <use x="999.533203" xlink:href="#FranklinGothic-Book-104"/>
     <use x="1053.537109" xlink:href="#FranklinGothic-Book-97"/>
     <use x="1106.417969" xlink:href="#FranklinGothic-Book-110"/>
     <use x="1160.617188" xlink:href="#FranklinGothic-Book-103"/>
     <use x="1209.738281" xlink:href="#FranklinGothic-Book-101"/>
    </g>
   </g>
   <g id="legend_1">
    <g id="line2d_15"/>
    <g id="text_18">
     <!-- AVISO CNES (1993.01.05-2022.04.02) -->
     <g style="fill:#ff0000;" transform="translate(185.856 129.7184)scale(0.2 -0.2)">
      <defs>
       <path d="M 53.21875 0 
L 44.671875 0 
L 37.9375 19.484375 
L 13.28125 19.484375 
L 7.328125 0 
L 0.34375 0 
L 21.96875 66.65625 
L 31.5 66.65625 
z
M 36.1875 25.734375 
L 25.921875 57.765625 
L 15.578125 25.734375 
z
" id="FranklinGothic-Book-65"/>
       <path d="M 53.328125 66.65625 
L 30.859375 0 
L 22.796875 0 
L 0.34375 66.65625 
L 9.03125 66.65625 
L 27.640625 11.671875 
L 46.046875 66.65625 
z
" id="FranklinGothic-Book-86"/>
       <path d="M 16.703125 0 
L 8.34375 0 
L 8.34375 66.65625 
L 16.703125 66.65625 
z
" id="FranklinGothic-Book-73"/>
       <path d="M 1.03125 17.71875 
L 8.546875 19.4375 
Q 13.09375 5.8125 28.21875 5.8125 
Q 36.140625 5.8125 40.140625 9.15625 
Q 44.140625 12.5 44.140625 18.109375 
Q 44.140625 22.359375 41.078125 24.953125 
Q 38.03125 27.546875 34.03125 28.515625 
L 20.703125 31.84375 
Q 15.53125 33.15625 12.234375 35.03125 
Q 8.9375 36.921875 6.640625 40.828125 
Q 4.34375 44.734375 4.34375 49.75 
Q 4.34375 58.109375 10.640625 63.0625 
Q 16.9375 68.015625 26.8125 68.015625 
Q 44.96875 68.015625 50.6875 51.5625 
L 43.109375 49.3125 
Q 41.796875 55.171875 36.90625 58.171875 
Q 32.03125 61.1875 26.515625 61.1875 
Q 21.046875 61.1875 16.765625 58.296875 
Q 12.5 55.421875 12.5 50.140625 
Q 12.5 42.78125 23.34375 40.1875 
L 35.796875 37.203125 
Q 52.875 33.109375 52.875 18.796875 
Q 52.875 10.15625 46.453125 4.421875 
Q 40.046875 -1.3125 28.375 -1.3125 
Q 7.671875 -1.3125 1.03125 17.71875 
z
" id="FranklinGothic-Book-83"/>
       <path d="M 31.34375 -1.3125 
Q 18.5 -1.3125 11.328125 8.671875 
Q 4.15625 18.65625 4.15625 33.15625 
Q 4.15625 48.296875 11.671875 58.15625 
Q 19.1875 68.015625 31.59375 68.015625 
Q 43.953125 68.015625 51.421875 58.328125 
Q 58.890625 48.640625 58.890625 33.890625 
Q 58.890625 19.734375 51.640625 9.203125 
Q 44.390625 -1.3125 31.34375 -1.3125 
z
M 31.546875 5.46875 
Q 40.28125 5.46875 45.203125 13.421875 
Q 50.140625 21.390625 50.140625 33.9375 
Q 50.140625 46.828125 45.03125 54 
Q 39.9375 61.1875 31.5 61.1875 
Q 22.953125 61.1875 17.921875 53.421875 
Q 12.890625 45.65625 12.890625 33.109375 
Q 12.890625 20.84375 17.96875 13.15625 
Q 23.046875 5.46875 31.546875 5.46875 
z
" id="FranklinGothic-Book-79"/>
       <path d="M 48.296875 22.40625 
L 55.90625 20.703125 
Q 50.4375 -1.3125 31.203125 -1.3125 
Q 18.5625 -1.3125 11.359375 8.890625 
Q 4.15625 19.09375 4.15625 33.984375 
Q 4.15625 49.359375 11.671875 58.6875 
Q 19.1875 68.015625 31.84375 68.015625 
Q 50.59375 68.015625 55.90625 46.578125 
L 48.046875 45.015625 
Q 43.75 60.9375 31.78125 60.9375 
Q 22.953125 60.9375 18.09375 53.53125 
Q 13.234375 46.140625 13.234375 32.765625 
Q 13.234375 20.515625 18.203125 13.109375 
Q 23.1875 5.71875 31.390625 5.71875 
Q 44.140625 5.71875 48.296875 22.40625 
z
" id="FranklinGothic-Book-67"/>
       <path d="M 57.421875 0 
L 49.3125 0 
L 14.84375 58.109375 
L 14.9375 53.71875 
Q 15.09375 51.21875 15.09375 49.515625 
L 15.09375 0 
L 8.34375 0 
L 8.34375 66.65625 
L 18.796875 66.65625 
L 51.03125 12.3125 
L 50.921875 16.9375 
Q 50.828125 19.671875 50.828125 21.78125 
L 50.828125 66.65625 
L 57.421875 66.65625 
z
" id="FranklinGothic-Book-78"/>
       <path d="M 51.46875 7.328125 
L 51.46875 0 
L 8.34375 0 
L 8.34375 66.65625 
L 50.53125 66.65625 
L 50.53125 59.328125 
L 16.703125 59.328125 
L 16.703125 38.140625 
L 43.5625 38.140625 
L 43.5625 31.34375 
L 16.703125 31.34375 
L 16.703125 7.328125 
z
" id="FranklinGothic-Book-69"/>
       <path d="M 24.703125 -16.65625 
L 19.578125 -16.65625 
Q 5.21875 2.203125 5.21875 25.09375 
Q 5.21875 46.96875 19.578125 66.65625 
L 24.703125 66.65625 
Q 12.359375 48.25 12.359375 25 
Q 12.359375 2.828125 24.703125 -16.65625 
z
" id="FranklinGothic-Book-40"/>
       <path d="M 17.96875 10.9375 
L 17.96875 0 
L 7.078125 0 
L 7.078125 10.9375 
z
" id="FranklinGothic-Book-46"/>
       <path d="M 23.53125 27.984375 
L 23.53125 22.015625 
L 1.46875 22.015625 
L 1.46875 27.984375 
z
" id="FranklinGothic-Book-45"/>
       <path d="M 4.640625 66.65625 
L 9.71875 66.65625 
Q 24.125 47.796875 24.125 24.90625 
Q 24.125 3.03125 9.71875 -16.65625 
L 4.640625 -16.65625 
Q 17 1.765625 17 25 
Q 17 47.171875 4.640625 66.65625 
z
" id="FranklinGothic-Book-41"/>
      </defs>
      <use xlink:href="#FranklinGothic-Book-65"/>
      <use x="49.189453" xlink:href="#FranklinGothic-Book-86"/>
      <use x="102.851562" xlink:href="#FranklinGothic-Book-73"/>
      <use x="127.851562" xlink:href="#FranklinGothic-Book-83"/>
      <use x="184.785156" xlink:href="#FranklinGothic-Book-79"/>
      <use x="247.871094" xlink:href="#FranklinGothic-Book-32"/>
      <use x="272.871094" xlink:href="#FranklinGothic-Book-67"/>
      <use x="330.78125" xlink:href="#FranklinGothic-Book-78"/>
      <use x="396.503906" xlink:href="#FranklinGothic-Book-69"/>
      <use x="451.289062" xlink:href="#FranklinGothic-Book-83"/>
      <use x="508.222656" xlink:href="#FranklinGothic-Book-32"/>
      <use x="533.222656" xlink:href="#FranklinGothic-Book-40"/>
      <use x="562.568359" xlink:href="#FranklinGothic-Book-49"/>
      <use x="619.835938" xlink:href="#FranklinGothic-Book-57"/>
      <use x="678.478516" xlink:href="#FranklinGothic-Book-57"/>
      <use x="737.121094" xlink:href="#FranklinGothic-Book-51"/>
      <use x="795.763672" xlink:href="#FranklinGothic-Book-46"/>
      <use x="820.763672" xlink:href="#FranklinGothic-Book-48"/>
      <use x="875.65625" xlink:href="#FranklinGothic-Book-49"/>
      <use x="933.673828" xlink:href="#FranklinGothic-Book-46"/>
      <use x="958.673828" xlink:href="#FranklinGothic-Book-48"/>
      <use x="1017.316406" xlink:href="#FranklinGothic-Book-53"/>
      <use x="1075.958984" xlink:href="#FranklinGothic-Book-45"/>
      <use x="1100.958984" xlink:href="#FranklinGothic-Book-50"/>
      <use x="1159.601562" xlink:href="#FranklinGothic-Book-48"/>
      <use x="1218.244141" xlink:href="#FranklinGothic-Book-50"/>
      <use x="1276.886719" xlink:href="#FranklinGothic-Book-50"/>
      <use x="1335.529297" xlink:href="#FranklinGothic-Book-46"/>
      <use x="1360.529297" xlink:href="#FranklinGothic-Book-48"/>
      <use x="1419.171875" xlink:href="#FranklinGothic-Book-52"/>
      <use x="1477.814453" xlink:href="#FranklinGothic-Book-46"/>
      <use x="1502.814453" xlink:href="#FranklinGothic-Book-48"/>
      <use x="1561.457031" xlink:href="#FranklinGothic-Book-50"/>
      <use x="1620.099609" xlink:href="#FranklinGothic-Book-41"/>
     </g>
    </g>
    <g id="line2d_16"/>
    <g id="text_19">
     <!-- AVISO (1993.01.05-2022.03.23) -->
     <g style="fill:#009e73;" transform="translate(185.856 157.04965)scale(0.2 -0.2)">
      <use xlink:href="#FranklinGothic-Book-65"/>
      <use x="49.189453" xlink:href="#FranklinGothic-Book-86"/>
      <use x="102.851562" xlink:href="#FranklinGothic-Book-73"/>
      <use x="127.851562" xlink:href="#FranklinGothic-Book-83"/>
      <use x="184.785156" xlink:href="#FranklinGothic-Book-79"/>
      <use x="247.871094" xlink:href="#FranklinGothic-Book-32"/>
      <use x="272.871094" xlink:href="#FranklinGothic-Book-40"/>
      <use x="302.216797" xlink:href="#FranklinGothic-Book-49"/>
      <use x="359.484375" xlink:href="#FranklinGothic-Book-57"/>
      <use x="418.126953" xlink:href="#FranklinGothic-Book-57"/>
      <use x="476.769531" xlink:href="#FranklinGothic-Book-51"/>
      <use x="535.412109" xlink:href="#FranklinGothic-Book-46"/>
      <use x="560.412109" xlink:href="#FranklinGothic-Book-48"/>
      <use x="615.304688" xlink:href="#FranklinGothic-Book-49"/>
      <use x="673.322266" xlink:href="#FranklinGothic-Book-46"/>
      <use x="698.322266" xlink:href="#FranklinGothic-Book-48"/>
      <use x="756.964844" xlink:href="#FranklinGothic-Book-53"/>
      <use x="815.607422" xlink:href="#FranklinGothic-Book-45"/>
      <use x="840.607422" xlink:href="#FranklinGothic-Book-50"/>
      <use x="899.25" xlink:href="#FranklinGothic-Book-48"/>
      <use x="957.892578" xlink:href="#FranklinGothic-Book-50"/>
      <use x="1016.535156" xlink:href="#FranklinGothic-Book-50"/>
      <use x="1075.177734" xlink:href="#FranklinGothic-Book-46"/>
      <use x="1100.177734" xlink:href="#FranklinGothic-Book-48"/>
      <use x="1158.820312" xlink:href="#FranklinGothic-Book-51"/>
      <use x="1217.462891" xlink:href="#FranklinGothic-Book-46"/>
      <use x="1242.462891" xlink:href="#FranklinGothic-Book-50"/>
      <use x="1301.105469" xlink:href="#FranklinGothic-Book-51"/>
      <use x="1359.748047" xlink:href="#FranklinGothic-Book-41"/>
     </g>
    </g>
   </g>
   <g id="line2d_17">
    <path clip-path="url(#p7f73c9853c)" d="M 184.581818 554.04 
L 186.102698 544.177902 
L 187.503174 536.730807 
L 188.263614 533.918557 
L 192.965667 522.541801 
L 195.994752 515.416989 
L 196.679147 514.167884 
L 197.439587 513.337223 
L 198.231712 513.04182 
L 198.992152 513.350242 
L 199.752591 514.276924 
L 200.468672 515.790483 
L 201.229112 517.841946 
L 204.226512 527.163396 
L 204.910908 528.64697 
L 205.703032 529.422641 
L 206.463472 529.447762 
L 207.223912 528.727057 
L 207.939993 527.327013 
L 208.700432 525.414649 
L 212.489957 514.087241 
L 213.250397 512.53407 
L 213.934793 511.419664 
L 214.650874 510.656858 
L 215.411313 510.24927 
L 216.171753 510.131651 
L 217.115966 510.209656 
L 220.113366 510.934631 
L 221.66593 510.90912 
L 223.110766 510.777642 
L 223.826847 510.81479 
L 224.587286 510.98718 
L 225.347726 511.299755 
L 226.139851 511.759642 
L 227.66073 513.098054 
L 230.613771 516.562327 
L 231.374211 517.225039 
L 232.058607 517.657855 
L 232.850732 517.714713 
L 233.611172 517.415276 
L 234.371611 516.659436 
L 235.132051 515.453844 
L 236.608572 511.837312 
L 238.161136 507.108438 
L 241.082492 497.72942 
L 241.842932 496.054541 
L 242.559013 494.787041 
L 243.319452 493.927711 
L 244.079892 493.43994 
L 245.024105 493.260404 
L 245.784545 493.294836 
L 250.258465 494.137331 
L 251.734986 494.316439 
L 252.495425 494.599784 
L 253.255865 495.085552 
L 254.04799 495.79564 
L 254.80843 496.750082 
L 256.28495 499.160428 
L 258.445867 502.772039 
L 259.206306 503.687982 
L 259.966746 504.343377 
L 260.758871 504.704598 
L 261.519311 504.772619 
L 262.27975 504.568464 
L 262.995831 504.131602 
L 264.440667 502.923505 
L 266.829715 500.643971 
L 268.230191 499.762424 
L 268.990631 499.528116 
L 269.751071 499.480646 
L 271.227591 499.763183 
L 272.8562 500.090043 
L 273.61664 500.048483 
L 274.377079 499.746209 
L 275.09316 499.137609 
L 275.8536 498.236125 
L 278.09056 494.520503 
L 278.851 493.458746 
L 279.567081 492.718976 
L 280.327521 492.399137 
L 281.08796 492.556477 
L 281.804041 493.179144 
L 282.564481 494.2106 
L 283.324921 495.551996 
L 285.485837 499.94361 
L 286.201918 501.058905 
L 287.722797 502.416319 
L 289.275362 502.452 
L 290.751882 502.242874 
L 291.512322 502.241592 
L 292.272762 502.403747 
L 293.064887 502.76338 
L 293.825326 503.31674 
L 296.062287 505.712751 
L 297.583166 507.230725 
L 298.299247 507.744972 
L 299.059687 508.004233 
L 300.003899 507.975051 
L 300.764339 507.618414 
L 301.524779 506.907227 
L 302.24086 505.822553 
L 303.001299 504.359295 
L 304.446135 500.358699 
L 305.998699 495.243806 
L 308.996099 484.386709 
L 310.548664 480.210289 
L 311.94914 477.640843 
L 312.70958 477.108789 
L 313.47002 477.07831 
L 314.186101 477.536405 
L 314.946541 478.439066 
L 316.499105 481.254158 
L 318.736065 486.213302 
L 319.496505 487.527533 
L 320.256945 488.478472 
L 320.973026 488.960263 
L 321.733465 488.988935 
L 322.493905 488.545974 
L 323.209986 487.71781 
L 324.730865 485.206233 
L 326.207386 482.487689 
L 326.967826 481.368361 
L 328.672478 479.9206 
L 329.432918 479.595195 
L 330.072955 479.459408 
L 331.593834 479.624426 
L 333.906838 480.181781 
L 334.622919 480.471964 
L 335.383359 480.903518 
L 336.143799 481.538189 
L 336.935923 482.435848 
L 337.696363 483.63289 
L 339.141199 486.721973 
L 340.617719 490.939313 
L 342.09424 494.675043 
L 342.85468 496.047041 
L 343.615119 496.917981 
L 344.407244 497.208576 
L 345.167684 496.891538 
L 345.928124 495.999532 
L 346.644204 494.617616 
L 347.404644 492.880528 
L 348.881165 488.950781 
L 350.402044 485.362178 
L 351.118125 483.933456 
L 351.878565 482.799892 
L 352.639004 481.987624 
L 354.191569 480.887799 
L 354.875965 481.243735 
L 355.820177 481.440356 
L 358.741534 482.700661 
L 359.501973 482.831312 
L 360.294098 482.820236 
L 361.054538 482.666236 
L 362.531058 481.993005 
L 364.051938 481.13404 
L 364.844063 480.807554 
L 365.604502 480.648201 
L 366.288898 480.70165 
L 367.004979 480.97896 
L 368.525858 482.047829 
L 370.002379 483.052641 
L 370.762819 483.136705 
L 371.523258 482.732645 
L 372.315383 481.728708 
L 373.075823 480.069503 
L 373.836263 477.760083 
L 374.552343 474.891963 
L 375.997179 468.194978 
L 377.549744 461.778889 
L 378.310183 459.277606 
L 379.026264 457.504656 
L 379.786704 456.527612 
L 380.547144 456.443779 
L 381.263224 457.189981 
L 382.023664 458.680741 
L 383.576229 463.16833 
L 385.097108 468.07284 
L 385.813189 470.047346 
L 386.573629 471.433957 
L 387.334068 472.13183 
L 388.126193 472.14523 
L 388.886633 471.542902 
L 389.647073 470.490941 
L 392.52407 465.421575 
L 393.284509 464.708015 
L 394.044949 464.322027 
L 394.76103 464.324889 
L 395.52147 464.608732 
L 397.042349 465.513749 
L 397.75843 465.794118 
L 398.51887 465.737912 
L 399.27931 465.254209 
L 400.071434 464.247785 
L 400.831874 462.726455 
L 402.232351 458.394357 
L 405.305795 448.399385 
L 406.066234 446.509454 
L 406.858359 445.102447 
L 407.618799 444.198657 
L 408.379239 443.855986 
L 409.095319 444.016319 
L 409.855759 444.620232 
L 412.244807 447.763187 
L 413.005247 448.691147 
L 413.721328 449.285404 
L 414.481768 449.431227 
L 415.242207 449.069913 
L 416.034332 448.183168 
L 416.794772 446.829531 
L 418.271293 443.269119 
L 419.716128 439.801853 
L 420.508253 438.5245 
L 421.268693 437.703835 
L 422.029132 437.378842 
L 422.745213 437.533071 
L 423.505653 438.11853 
L 424.266093 439.046443 
L 426.503053 442.543856 
L 427.295178 443.4759 
L 428.055617 444.093267 
L 428.740013 444.324656 
L 429.456094 444.140885 
L 430.216534 443.554538 
L 430.976973 442.621979 
L 432.529538 440.035134 
L 434.050417 437.357494 
L 434.766498 436.288269 
L 435.526938 435.534352 
L 436.287378 435.175098 
L 437.003459 435.219369 
L 437.687854 435.701572 
L 439.392507 437.637375 
L 440.913386 439.79746 
L 441.629467 440.432917 
L 442.389907 440.527065 
L 443.150347 439.971848 
L 443.942471 438.736647 
L 444.702911 436.860154 
L 445.463351 434.458637 
L 446.863827 428.936655 
L 447.624267 426.343816 
L 448.416392 424.195348 
L 449.176832 422.678874 
L 449.937271 421.909324 
L 450.653352 421.911605 
L 451.413792 422.627369 
L 452.174232 423.921727 
L 454.411192 429.03496 
L 455.127273 430.334695 
L 455.887712 431.102089 
L 456.648152 431.230867 
L 457.364233 430.684008 
L 458.124673 429.493847 
L 458.885113 427.764166 
L 460.437677 423.381842 
L 461.914198 419.139444 
L 462.674637 417.51134 
L 463.435077 416.356769 
L 464.119473 415.714412 
L 464.835554 415.567814 
L 465.595993 415.845676 
L 466.540206 416.437761 
L 469.537606 419.35521 
L 470.298046 419.639984 
L 471.090171 419.601838 
L 471.85061 419.244955 
L 472.61105 418.622249 
L 475.532406 415.151669 
L 476.324531 414.516034 
L 477.084971 414.126001 
L 477.84541 414.013183 
L 478.561491 414.180564 
L 479.321931 414.597967 
L 480.798452 415.911682 
L 482.243287 417.22791 
L 483.035412 417.621283 
L 483.795852 417.720256 
L 484.556291 417.470409 
L 485.272372 416.851172 
L 486.032812 415.876715 
L 487.585376 413.082111 
L 489.822337 408.389387 
L 490.582776 407.225692 
L 491.267172 406.454162 
L 491.983253 406.132083 
L 492.743693 406.260098 
L 493.504132 406.783533 
L 494.372301 407.597416 
L 496.609261 410.314815 
L 497.369701 410.833445 
L 498.130141 410.973832 
L 498.922266 410.697053 
L 499.682705 410.019948 
L 501.127541 407.779949 
L 502.604062 405.174839 
L 503.364501 404.070427 
L 504.080582 403.273402 
L 504.841022 402.873563 
L 505.601462 402.904206 
L 506.317542 403.357578 
L 507.077982 404.192853 
L 507.838422 405.323351 
L 509.238898 407.893719 
L 509.999338 409.002497 
L 510.791463 409.765076 
L 511.551903 410.032463 
L 512.312342 409.709371 
L 513.028423 408.75932 
L 513.788863 407.206132 
L 515.341427 402.700019 
L 517.578388 394.944679 
L 518.338828 392.8153 
L 519.099267 391.14538 
L 519.815348 390.004145 
L 520.575788 389.390626 
L 521.336228 389.227809 
L 522.28044 389.375691 
L 523.80132 389.9114 
L 524.517401 389.965855 
L 525.27784 389.717347 
L 526.03828 389.109947 
L 526.754361 388.155796 
L 528.27524 385.567328 
L 528.991321 384.233565 
L 529.751761 383.103673 
L 530.512201 382.32505 
L 531.304325 381.998625 
L 532.064765 382.172726 
L 532.825205 382.836752 
L 534.301725 385.203615 
L 535.746561 387.779151 
L 536.462642 388.667831 
L 537.223081 389.085233 
L 537.983521 388.952101 
L 538.775646 388.253002 
L 539.536086 387.031955 
L 540.296526 385.391862 
L 542.533486 379.591597 
L 543.325611 377.980682 
L 544.08605 376.807127 
L 544.770446 376.174865 
L 545.486527 376.131906 
L 546.246967 376.662678 
L 547.007406 377.692389 
L 549.244367 382.244347 
L 550.949019 384.460949 
L 551.709459 384.776824 
L 552.42554 384.448596 
L 553.185979 383.478204 
L 554.6625 379.944247 
L 557.6599 370.945317 
L 558.42034 369.246684 
L 559.212464 367.98833 
L 559.972904 367.205569 
L 560.733344 366.894602 
L 561.449425 367.009066 
L 562.209865 367.466942 
L 563.610341 369.012964 
L 565.923345 371.538096 
L 567.444225 372.730135 
L 568.204665 373.127418 
L 569.681185 373.563985 
L 571.157706 373.542086 
L 572.678585 373.1204 
L 574.155106 372.367428 
L 576.392066 370.878608 
L 577.152506 370.365021 
L 578.857158 369.36773 
L 582.570639 366.964111 
L 584.091519 366.398565 
L 584.807599 366.3353 
L 585.568039 366.483297 
L 586.328479 366.87288 
L 587.120604 367.50746 
L 587.881043 368.360734 
L 588.641483 369.384111 
L 590.04196 371.652056 
L 591.51848 373.587795 
L 592.27892 374.170371 
L 593.03936 374.381937 
L 593.831484 374.182384 
L 594.591924 373.565156 
L 595.352364 372.559047 
L 596.828884 369.690897 
L 599.065845 365.083652 
L 599.826284 363.988635 
L 600.586724 363.272335 
L 601.302805 362.954869 
L 602.063245 363.004228 
L 602.823685 363.342553 
L 604.300205 364.355475 
L 605.060645 364.691293 
L 605.928814 364.690963 
L 606.689253 364.223507 
L 607.373649 363.201939 
L 608.08973 361.598544 
L 608.85017 359.468436 
L 612.639694 347.049149 
L 613.400134 345.712787 
L 614.160574 345.174628 
L 614.876655 345.481731 
L 615.637094 346.580545 
L 616.32149 348.327058 
L 619.274531 357.033546 
L 620.034971 358.38775 
L 620.795411 359.046542 
L 621.587536 358.96046 
L 622.347975 358.169963 
L 623.108415 356.78824 
L 624.584936 352.93345 
L 625.269331 350.83564 
L 626.821896 347.107093 
L 627.582336 345.70627 
L 628.37446 344.696915 
L 629.1349 344.077554 
L 629.89534 343.798818 
L 630.65578 343.779771 
L 633.760909 344.521999 
L 634.521348 344.487099 
L 635.281788 344.246243 
L 635.997869 343.777772 
L 636.758309 343.078347 
L 638.310873 341.066145 
L 639.831753 338.510916 
L 642.068713 334.404519 
L 643.545234 331.999629 
L 645.021754 330.136995 
L 646.542634 328.783997 
L 648.019154 327.725344 
L 651.092598 325.675713 
L 652.493075 324.562806 
L 654.045639 323.616262 
L 654.806079 323.311579 
L 655.566519 323.176872 
L 656.282599 323.249915 
L 657.043039 323.557763 
L 657.803479 324.099831 
L 659.279999 325.691268 
L 660.040439 326.564359 
L 660.908608 327.327871 
L 661.669048 327.841601 
L 662.429487 327.968693 
L 663.145568 327.607154 
L 663.906008 326.710055 
L 664.666448 325.297332 
L 665.458573 323.464294 
L 667.695533 317.325163 
L 668.455973 315.83455 
L 669.216412 314.97284 
L 669.900808 314.873777 
L 670.692933 315.597886 
L 671.453373 317.12831 
L 672.213812 319.36414 
L 674.450773 328.383976 
L 675.166853 331.326009 
L 675.927293 333.845556 
L 676.687733 335.794032 
L 677.479858 337.086601 
L 678.240297 337.707829 
L 678.924693 337.715669 
L 679.640774 337.233125 
L 681.161653 335.471145 
L 681.953778 334.560785 
L 682.714218 333.869796 
L 683.474658 333.543398 
L 684.190739 333.686758 
L 684.951178 334.352159 
L 685.711618 335.523196 
L 686.427699 337.116582 
L 687.872534 340.973309 
L 689.577187 344.443132 
L 690.337627 345.533276 
L 691.053707 345.962943 
L 691.814147 345.624408 
L 692.574587 344.484156 
L 693.366712 342.592208 
L 694.127151 340.074139 
L 695.603672 333.915904 
L 696.288068 330.741583 
L 697.048507 327.821693 
L 697.840632 325.356875 
L 698.601072 323.496225 
L 699.361512 322.326496 
L 700.077592 321.859376 
L 700.838032 322.032483 
L 701.598472 322.715942 
L 703.835432 325.735418 
L 704.595872 326.269705 
L 705.311953 326.218917 
L 706.072393 325.445924 
L 706.832832 323.885382 
L 707.548913 321.557939 
L 708.309353 318.562218 
L 712.098878 300.840042 
L 712.859317 298.390362 
L 713.619757 296.695714 
L 714.259794 295.77685 
L 715.020234 295.5548 
L 715.780673 295.859372 
L 718.169722 297.426521 
L 718.885802 297.319017 
L 719.646242 296.580611 
L 720.406682 295.141259 
L 721.198807 293.035621 
L 722.719686 287.416071 
L 723.359723 284.342177 
L 724.880603 278.869606 
L 725.596683 276.882221 
L 726.357123 275.568195 
L 727.117563 274.958573 
L 727.833644 274.99964 
L 728.594083 275.568563 
L 730.114963 277.547296 
L 730.831044 278.523261 
L 731.591483 279.219535 
L 732.275879 279.475587 
L 733.068004 279.19836 
L 733.828444 278.366152 
L 734.588883 277.006473 
L 736.065404 273.057534 
L 738.378408 266.089072 
L 739.138848 264.050187 
L 739.930973 262.349743 
L 740.691412 261.065762 
L 741.375808 260.23924 
L 742.091889 259.886082 
L 742.852329 259.999142 
L 743.612769 260.538873 
L 744.556981 261.428159 
L 745.317421 262.567129 
L 746.001817 264.007121 
L 746.869985 264.909321 
L 747.554381 266.351448 
L 748.314821 267.425789 
L 749.791342 269.1155 
L 752.028302 271.225835 
L 753.580866 273.058084 
L 755.101746 275.45134 
L 756.578266 278.096774 
L 757.338706 279.310193 
L 757.902699 279.420269 
L 758.967315 282.407311 
L 759.499622 281.480707 
L 760.291747 281.49445 
L 761.052187 281.094889 
L 761.812627 280.299676 
L 762.528707 279.148709 
L 763.289147 277.693218 
L 764.841712 274.126202 
L 767.763068 266.728374 
L 768.523508 265.394776 
L 769.283947 264.455657 
L 770.000028 263.960956 
L 770.760468 263.922444 
L 771.520908 264.307673 
L 772.46512 265.027014 
L 774.702081 267.62079 
L 775.46252 268.004612 
L 776.22296 267.879886 
L 776.939041 267.17116 
L 777.699481 265.877814 
L 778.45992 264.076847 
L 780.696881 257.281125 
L 781.489005 255.271781 
L 782.249445 253.724422 
L 783.009885 252.758955 
L 783.725966 252.426453 
L 784.486405 252.700428 
L 785.246845 253.476408 
L 786.647322 255.833021 
L 787.407762 256.987829 
L 788.199886 257.83354 
L 788.960326 258.177672 
L 789.720766 257.879083 
L 790.436847 256.863585 
L 791.197286 255.129275 
L 791.957726 252.740925 
L 792.749851 249.816211 
L 794.27073 243.050677 
L 794.910767 239.620481 
L 796.431647 233.666913 
L 797.192086 231.460125 
L 797.908167 229.88207 
L 798.668607 228.923697 
L 799.61282 228.501713 
L 800.373259 228.475362 
L 801.84978 228.882557 
L 802.61022 228.924915 
L 803.370659 228.621023 
L 804.055055 227.847076 
L 804.84718 226.554797 
L 805.60762 224.766853 
L 806.368059 222.559465 
L 809.397145 212.236211 
L 810.157584 210.029 
L 810.918024 208.206437 
L 811.634105 206.827464 
L 812.318501 205.908985 
L 813.07894 205.425259 
L 813.795021 205.318275 
L 814.555461 205.501664 
L 816.868465 206.649341 
L 817.628905 206.822032 
L 818.344986 206.71 
L 819.105425 206.248988 
L 819.865865 205.41931 
L 820.65799 204.240605 
L 823.579346 197.927871 
L 824.339786 196.697054 
L 825.055867 195.900403 
L 825.816306 195.612021 
L 826.576746 195.834016 
L 827.444915 196.492616 
L 828.965794 198.55258 
L 830.366271 200.477581 
L 831.126711 201.009322 
L 831.918835 201.141338 
L 832.679275 200.884245 
L 833.439715 200.328552 
L 834.916235 198.945507 
L 835.676675 198.494661 
L 836.437115 198.428646 
L 837.153196 198.84546 
L 837.913635 199.756992 
L 838.674075 201.082612 
L 840.074552 204.329495 
L 840.834991 205.822585 
L 841.551072 206.942619 
L 842.311512 207.528032 
L 843.071952 207.484407 
L 843.864077 206.799829 
L 844.624516 205.553898 
L 845.384956 203.898219 
L 846.861477 200.159814 
L 848.337997 197.176912 
L 849.098437 196.311927 
L 849.858877 195.932767 
L 850.651001 196.020391 
L 851.411441 196.515442 
L 852.171881 197.327938 
L 854.408841 200.624824 
L 856.113494 202.536091 
L 856.873933 203.136059 
L 857.51397 203.421655 
L 858.27441 203.358977 
L 859.03485 202.922205 
L 859.826974 202.099988 
L 860.587414 200.906315 
L 861.347854 199.386304 
L 864.376939 191.962525 
L 865.137379 190.418331 
L 865.897818 189.213226 
L 866.582214 188.384139 
L 867.298295 187.92113 
L 868.058735 187.765147 
L 870.295695 187.870819 
L 871.056135 187.593042 
L 871.84826 186.955413 
L 872.608699 185.905535 
L 873.369139 184.457776 
L 874.769616 180.756102 
L 876.32218 177.086126 
L 877.08262 175.719128 
L 877.84306 174.864178 
L 878.55914 174.610112 
L 879.31958 174.982082 
L 880.08002 175.943404 
L 880.796101 177.397162 
L 883.945589 184.804692 
L 884.706028 186.118439 
L 885.422109 186.91334 
L 886.182549 187.121252 
L 886.942989 186.726893 
L 887.735113 185.762452 
L 888.495553 184.310277 
L 889.255993 182.492631 
L 891.492953 176.290364 
L 892.969474 172.864109 
L 893.729914 171.632504 
L 894.445994 170.755469 
L 895.206434 170.215529 
L 895.966874 169.96743 
L 896.682955 169.948149 
L 898.995959 170.348884 
L 899.756399 170.330206 
L 900.516838 170.109355 
L 901.277278 169.627843 
L 902.677755 167.782944 
L 904.230319 164.935176 
L 907.227719 158.547303 
L 908.70424 156.403279 
L 909.46468 155.752243 
L 909.920943 156.168496 
L 911.245376 154.940333 
L 911.853728 154.982486 
L 912.614168 154.791483 
L 913.330248 154.42596 
L 914.090688 153.769818 
L 914.851128 152.737229 
L 915.643253 151.283305 
L 916.403692 149.416387 
L 917.880213 144.801044 
L 919.401092 140.057125 
L 920.117173 138.0905 
L 920.877613 136.607865 
L 921.638053 135.707369 
L 922.354133 135.420792 
L 923.114573 135.71885 
L 923.875013 136.524183 
L 925.351533 139.153767 
L 926.904098 142.043974 
L 927.664538 143.194983 
L 928.424977 144.012088 
L 929.065014 144.449108 
L 929.825454 144.499606 
L 930.585894 144.210098 
L 931.378019 143.677139 
L 933.659338 141.833634 
L 934.375419 141.476021 
L 935.135858 141.344223 
L 935.74421 142.190122 
L 936.612379 141.541873 
L 937.296775 142.13475 
L 938.057214 142.526138 
L 938.925383 142.774943 
L 939.685823 142.759325 
L 940.446263 142.379128 
L 941.162343 141.570465 
L 941.922783 140.313984 
L 943.475348 136.635973 
L 946.396704 128.10776 
L 947.157143 126.601701 
L 947.873224 125.578193 
L 948.633664 125.085822 
L 949.394104 125.12657 
L 950.110185 125.647476 
L 950.870624 126.539728 
L 953.107585 129.868386 
L 953.868024 130.625247 
L 954.660149 130.967501 
L 955.344545 130.815856 
L 956.104985 130.141532 
L 956.897109 128.992552 
L 958.341945 125.840256 
L 960.654949 120.773493 
L 961.447074 119.565428 
L 962.207514 118.744839 
L 962.967953 118.333097 
L 963.728393 118.300717 
L 964.36843 118.576364 
L 966.833522 120.158042 
L 967.593962 120.479681 
L 968.354402 120.480129 
L 969.070482 120.069955 
L 969.830922 119.199868 
L 970.591362 117.87166 
L 971.383487 116.14141 
L 972.904366 111.920976 
L 973.544403 109.717096 
L 975.065283 105.878143 
L 975.857407 104.479086 
L 976.617847 103.512981 
L 977.378287 102.996199 
L 978.094368 102.908421 
L 978.854807 103.194629 
L 979.615247 103.771692 
L 981.852207 106.013517 
L 982.568288 106.440251 
L 983.328728 106.51732 
L 984.089168 106.240632 
L 984.805248 105.671751 
L 988.639132 101.825673 
L 989.355213 101.448133 
L 990.115653 101.36977 
L 990.876093 101.650757 
L 991.516129 102.323803 
L 992.276569 103.381127 
L 993.981222 106.440215 
L 995.502101 110.312461 
L 995.502101 110.312461 
" style="fill:none;stroke:#009e73;stroke-linecap:round;"/>
   </g>
   <g id="line2d_18">
    <path clip-path="url(#p7f73c9853c)" d="M 184.581818 553.843622 
L 186.102698 544.009516 
L 187.503174 536.578048 
L 188.263614 533.776799 
L 191.444787 526.091714 
L 194.518231 519.083155 
L 195.994752 515.842199 
L 196.679147 514.633997 
L 197.439587 513.821801 
L 198.231712 513.519826 
L 198.992152 513.796038 
L 199.752591 514.666444 
L 200.468672 516.103175 
L 201.229112 518.061886 
L 204.226512 526.990347 
L 204.910908 528.401215 
L 205.703032 529.123024 
L 206.463472 529.114412 
L 207.223912 528.379491 
L 207.939993 526.982455 
L 208.700432 525.086582 
L 212.489957 513.894016 
L 213.250397 512.356558 
L 213.934793 511.252715 
L 214.650874 510.497607 
L 215.411313 510.097988 
L 216.171753 509.992277 
L 217.115966 510.089757 
L 220.873806 511.11319 
L 223.826847 511.248096 
L 224.587286 511.457958 
L 226.139851 512.234103 
L 227.66073 513.476147 
L 230.613771 516.560026 
L 231.374211 517.124953 
L 232.058607 517.471682 
L 232.850732 517.459045 
L 233.611172 517.10873 
L 234.371611 516.322453 
L 235.132051 515.105663 
L 236.608572 511.512958 
L 238.921576 504.339157 
L 241.082492 497.553955 
L 241.842932 495.889009 
L 242.559013 494.628997 
L 243.319452 493.778014 
L 244.079892 493.303155 
L 245.024105 493.14462 
L 245.784545 493.211059 
L 247.261065 493.673555 
L 248.781945 494.1648 
L 252.495425 495.074603 
L 253.255865 495.570804 
L 254.04799 496.265916 
L 255.568869 498.260146 
L 257.80583 501.782756 
L 258.445867 502.75311 
L 259.206306 503.57281 
L 259.966746 504.144522 
L 260.758871 504.438967 
L 261.519311 504.459695 
L 262.27975 504.2284 
L 262.995831 503.783265 
L 264.440667 502.601921 
L 266.829715 500.411322 
L 268.230191 499.57493 
L 268.990631 499.354565 
L 269.751071 499.316433 
L 271.227591 499.615175 
L 272.8562 499.978727 
L 273.61664 499.971141 
L 274.377079 499.715566 
L 275.09316 499.166223 
L 275.8536 498.334678 
L 278.09056 494.851454 
L 278.851 493.855942 
L 279.567081 493.166911 
L 280.327521 492.877325 
L 281.08796 493.041031 
L 281.880085 493.644438 
L 282.640525 494.631471 
L 283.400965 495.905786 
L 285.561881 500.010594 
L 286.277962 501.023533 
L 287.798841 502.203499 
L 289.351406 502.133299 
L 290.827926 501.894818 
L 291.588366 501.903709 
L 292.348806 502.087474 
L 293.14093 502.475535 
L 293.90137 503.059592 
L 295.301847 504.641081 
L 296.822726 506.361795 
L 298.299247 507.589384 
L 299.059687 507.858093 
L 300.003899 507.844122 
L 300.764339 507.511848 
L 301.524779 506.836666 
L 302.24086 505.800811 
L 303.001299 504.398739 
L 304.446135 500.547389 
L 305.998699 495.586463 
L 308.996099 484.86987 
L 310.548664 480.621601 
L 311.94914 477.89398 
L 312.70958 477.262556 
L 313.47002 477.128213 
L 314.186101 477.484803 
L 314.946541 478.294771 
L 315.70698 479.490819 
L 317.259545 482.621469 
L 318.736065 485.865949 
L 319.496505 487.192534 
L 320.256945 488.166526 
L 320.973026 488.677419 
L 321.733465 488.736763 
L 322.493905 488.322285 
L 323.209986 487.517815 
L 324.730865 485.036128 
L 326.207386 482.333424 
L 326.967826 481.224225 
L 328.672478 479.8191 
L 329.432918 479.531765 
L 330.072955 479.446904 
L 331.593834 479.747733 
L 333.906838 480.535717 
L 335.383359 481.363865 
L 336.143799 482.021254 
L 336.935923 482.916919 
L 337.696363 484.086284 
L 339.141199 487.051985 
L 340.617719 491.076147 
L 342.09424 494.607451 
L 342.85468 495.888753 
L 343.615119 496.683903 
L 344.407244 496.917119 
L 345.167684 496.562789 
L 345.928124 495.653128 
L 346.644204 494.271372 
L 347.404644 492.548704 
L 348.881165 488.672979 
L 350.402044 485.142759 
L 351.118125 483.736794 
L 351.878565 482.619991 
L 352.639004 481.819089 
L 354.191569 480.736104 
L 354.875965 481.101777 
L 355.820177 481.316276 
L 357.265013 482.059945 
L 358.741534 482.762587 
L 359.501973 482.967154 
L 360.294098 483.03508 
L 361.054538 482.959511 
L 361.814978 482.744408 
L 365.604502 481.09464 
L 366.288898 481.092064 
L 367.004979 481.292631 
L 368.525858 482.167646 
L 370.002379 482.969326 
L 370.762819 482.964829 
L 371.523258 482.487811 
L 372.315383 481.429726 
L 373.075823 479.736497 
L 373.836263 477.412586 
L 374.552343 474.547214 
L 375.997179 467.892154 
L 377.549744 461.53647 
L 378.310183 459.062317 
L 379.026264 457.311123 
L 379.786704 456.34994 
L 380.547144 456.276735 
L 381.263224 457.03064 
L 382.023664 458.529326 
L 383.576229 463.048081 
L 385.097108 468.024723 
L 385.813189 470.054197 
L 386.573629 471.507507 
L 387.334068 472.280825 
L 388.126193 472.373147 
L 388.886633 471.848601 
L 389.647073 470.866883 
L 392.600114 465.896375 
L 393.360553 465.146652 
L 394.120993 464.701261 
L 394.837074 464.624309 
L 395.597514 464.81386 
L 397.074034 465.512916 
L 397.834474 465.695373 
L 398.594914 465.55303 
L 399.387039 464.999131 
L 400.147478 463.941826 
L 400.907918 462.38977 
L 402.308395 458.051473 
L 405.381839 448.161715 
L 406.142278 446.298147 
L 406.858359 444.911916 
L 407.618799 444.023034 
L 408.379239 443.690335 
L 409.095319 443.85817 
L 409.855759 444.470391 
L 413.005247 448.651211 
L 413.721328 449.302568 
L 414.481768 449.516634 
L 415.242207 449.23147 
L 416.034332 448.424277 
L 416.794772 447.14745 
L 417.555212 445.51819 
L 419.716128 440.287133 
L 420.508253 438.995122 
L 421.268693 438.134405 
L 422.029132 437.746109 
L 422.745213 437.817842 
L 423.505653 438.307212 
L 424.266093 439.132047 
L 426.503053 442.346097 
L 427.295178 443.211099 
L 428.055617 443.780879 
L 428.740013 443.984815 
L 429.456094 443.792543 
L 430.216534 443.21387 
L 430.976973 442.301158 
L 432.529538 439.77252 
L 434.050417 437.150016 
L 434.766498 436.100613 
L 435.526938 435.360638 
L 436.287378 435.010755 
L 437.003459 435.062447 
L 437.687854 435.553428 
L 439.392507 437.525657 
L 440.913386 439.766052 
L 441.629467 440.460593 
L 442.389907 440.624546 
L 443.150347 440.146365 
L 443.942471 438.990562 
L 444.702911 437.190057 
L 445.463351 434.854969 
L 446.863827 429.414602 
L 447.624267 426.82846 
L 448.416392 424.661105 
L 449.176832 423.100561 
L 449.937271 422.264232 
L 450.653352 422.181367 
L 451.413792 422.799422 
L 452.174232 423.990223 
L 454.411192 428.824946 
L 455.127273 430.060704 
L 455.887712 430.783822 
L 456.648152 430.888386 
L 457.364233 430.33591 
L 458.124673 429.155724 
L 458.885113 427.44752 
L 460.437677 423.124252 
L 461.914198 418.935636 
L 462.674637 417.326358 
L 463.435077 416.184854 
L 464.119473 415.551352 
L 464.835554 415.412127 
L 465.595993 415.699366 
L 466.540206 416.306553 
L 469.537606 419.393685 
L 470.298046 419.749732 
L 471.090171 419.789374 
L 471.85061 419.511749 
L 472.61105 418.963883 
L 476.324531 414.976239 
L 477.084971 414.538181 
L 477.84541 414.355225 
L 478.561491 414.434966 
L 479.321931 414.753224 
L 480.082371 415.254722 
L 482.243287 417.006107 
L 483.035412 417.338634 
L 483.795852 417.396653 
L 484.556291 417.125792 
L 485.272372 416.503741 
L 486.032812 415.541451 
L 487.585376 412.798824 
L 489.822337 408.18909 
L 490.582776 407.043228 
L 491.267172 406.283931 
L 491.983253 405.970251 
L 492.743693 406.105715 
L 493.504132 406.639214 
L 494.372301 407.469479 
L 496.609261 410.301481 
L 497.369701 410.883005 
L 498.130141 411.096032 
L 498.922266 410.897658 
L 499.682705 410.299503 
L 501.127541 408.195005 
L 502.604062 405.657746 
L 503.364501 404.551712 
L 504.156626 403.727378 
L 504.917066 403.275638 
L 505.677506 403.232907 
L 506.393586 403.596308 
L 507.154026 404.331186 
L 507.914466 405.357736 
L 509.314942 407.736651 
L 510.075382 408.769393 
L 510.867507 409.474309 
L 511.627947 409.704065 
L 512.388386 409.363112 
L 513.104467 408.412962 
L 513.864907 406.874016 
L 515.417471 402.42177 
L 518.338828 392.635199 
L 519.099267 390.976727 
L 519.815348 389.843511 
L 520.575788 389.237616 
L 521.336228 389.085652 
L 522.28044 389.251287 
L 523.80132 389.854777 
L 524.517401 389.962063 
L 525.27784 389.778259 
L 526.03828 389.244757 
L 526.754361 388.369485 
L 528.27524 385.931541 
L 528.991321 384.657297 
L 529.751761 383.568902 
L 530.512201 382.809436 
L 531.304325 382.477184 
L 532.064765 382.619805 
L 532.825205 383.228137 
L 534.301725 385.426391 
L 535.746561 387.796603 
L 536.462642 388.585892 
L 537.223081 388.914537 
L 537.983521 388.708193 
L 538.775646 387.954662 
L 539.536086 386.699299 
L 540.296526 385.044444 
L 542.533486 379.288358 
L 543.325611 377.707497 
L 544.08605 376.564285 
L 544.770446 375.959218 
L 545.486527 375.938137 
L 546.246967 376.484791 
L 547.007406 377.525219 
L 549.244367 382.104539 
L 550.949019 384.370045 
L 551.709459 384.728003 
L 552.42554 384.454669 
L 553.185979 383.55072 
L 554.6625 380.171012 
L 557.6599 371.415319 
L 558.42034 369.731871 
L 559.212464 368.463465 
L 559.972904 367.645093 
L 560.733344 367.274732 
L 561.449425 367.309758 
L 562.209865 367.67351 
L 563.610341 369.013606 
L 565.923345 371.2839 
L 567.444225 372.393753 
L 568.204665 372.77931 
L 569.681185 373.238961 
L 571.157706 373.273971 
L 572.678585 372.908748 
L 574.155106 372.191613 
L 576.392066 370.728623 
L 577.152506 370.227765 
L 578.857158 369.282858 
L 581.778514 367.543056 
L 583.331079 366.941541 
L 584.091519 366.784001 
L 584.807599 366.774894 
L 585.568039 366.957451 
L 586.328479 367.358183 
L 587.120604 367.978477 
L 588.641483 369.752442 
L 590.04196 371.842193 
L 591.51848 373.571778 
L 592.27892 374.057828 
L 593.03936 374.18528 
L 593.831484 373.918418 
L 594.591924 373.253312 
L 595.352364 372.219463 
L 596.828884 369.350019 
L 599.065845 364.820594 
L 599.826284 363.755209 
L 600.586724 363.064527 
L 601.302805 362.766969 
L 602.063245 362.83035 
L 602.823685 363.178112 
L 604.300205 364.207176 
L 605.060645 364.556808 
L 605.928814 364.578844 
L 606.689253 364.145009 
L 607.373649 363.169766 
L 608.08973 361.625284 
L 608.85017 359.564847 
L 612.639694 347.495886 
L 613.400134 346.190457 
L 614.160574 345.659355 
L 614.952699 345.947941 
L 615.713138 347.003033 
L 616.397534 348.683067 
L 619.350575 357.00105 
L 620.111015 358.260401 
L 620.871455 358.837582 
L 621.66358 358.687252 
L 622.424019 357.852189 
L 623.184459 356.44597 
L 624.66098 352.595092 
L 625.345375 350.518627 
L 626.89794 346.849067 
L 627.65838 345.477392 
L 628.37446 344.492794 
L 629.1349 343.892345 
L 629.89534 343.626751 
L 630.65578 343.616604 
L 634.521348 344.415324 
L 635.281788 344.222914 
L 635.997869 343.815295 
L 636.758309 343.187019 
L 638.310873 341.331822 
L 639.831753 338.916015 
L 642.784794 333.603068 
L 644.305673 331.339208 
L 645.782194 329.565867 
L 647.258714 328.182371 
L 650.332158 325.900155 
L 653.253514 323.736457 
L 654.806079 323.058538 
L 655.566519 322.95242 
L 656.282599 323.049319 
L 657.043039 323.375085 
L 657.803479 323.929458 
L 659.279999 325.536768 
L 660.040439 326.419859 
L 661.669048 327.739188 
L 662.429487 327.903987 
L 663.145568 327.593005 
L 663.906008 326.758639 
L 664.666448 325.418441 
L 665.458573 323.66376 
L 667.695533 317.739442 
L 668.455973 316.293901 
L 669.216412 315.455587 
L 669.900808 315.355266 
L 670.692933 316.052432 
L 671.453373 317.531288 
L 672.213812 319.694022 
L 674.450773 328.419841 
L 675.166853 331.261203 
L 675.927293 333.689694 
L 676.687733 335.561893 
L 677.479858 336.796519 
L 678.240297 337.379827 
L 678.924693 337.369534 
L 679.640774 336.886658 
L 681.161653 335.16289 
L 681.953778 334.282096 
L 682.714218 333.621682 
L 683.474658 333.32324 
L 684.190739 333.489522 
L 684.951178 334.171858 
L 685.711618 335.354409 
L 686.427699 336.955845 
L 687.872534 340.830956 
L 689.577187 344.346053 
L 690.337627 345.47599 
L 691.053707 345.958306 
L 691.814147 345.68432 
L 692.574587 344.617861 
L 693.366712 342.804757 
L 694.127151 340.365216 
L 695.603672 334.338899 
L 696.288068 331.206366 
L 697.048507 328.305978 
L 697.840632 325.835698 
L 698.601072 323.943932 
L 699.361512 322.718835 
L 700.077592 322.175505 
L 700.838032 322.256661 
L 701.598472 322.838743 
L 703.835432 325.565896 
L 704.595872 326.026721 
L 705.311953 325.921216 
L 706.072393 325.113618 
L 706.832832 323.538047 
L 707.548913 321.2129 
L 708.309353 318.233214 
L 712.098878 300.646002 
L 712.859317 298.212287 
L 713.619757 296.528418 
L 714.259794 295.617301 
L 715.020234 295.40312 
L 715.780673 295.719351 
L 718.169722 297.377005 
L 718.885802 297.324216 
L 719.646242 296.652105 
L 720.406682 295.2877 
L 721.198807 293.261246 
L 722.719686 287.790151 
L 723.359723 284.773402 
L 724.880603 279.35475 
L 725.672727 277.357682 
L 726.433167 276.008404 
L 727.193607 275.339707 
L 727.909688 275.301589 
L 728.670127 275.776555 
L 729.430567 276.59488 
L 730.907088 278.4272 
L 731.667527 279.036774 
L 732.351923 279.222269 
L 733.144048 278.893585 
L 733.904488 278.030074 
L 734.664927 276.658407 
L 736.141448 272.732179 
L 738.454452 265.850577 
L 739.930973 262.158734 
L 740.691412 260.889771 
L 741.375808 260.07335 
L 742.091889 259.727723 
L 742.852329 259.849016 
L 743.612769 260.401386 
L 744.556981 261.311284 
L 745.317421 262.481716 
L 746.001817 263.959555 
L 746.869985 264.935006 
L 747.554381 266.43476 
L 748.314821 267.585081 
L 749.791342 269.431293 
L 752.788742 272.557077 
L 754.341306 274.624096 
L 757.338706 279.3988 
L 757.902699 279.419535 
L 758.967315 282.27572 
L 759.499622 281.285146 
L 760.291747 281.231316 
L 761.052187 280.783589 
L 761.812627 279.96035 
L 762.528707 278.800369 
L 764.049587 275.673474 
L 765.602152 271.906484 
L 767.763068 266.540232 
L 768.523508 265.220734 
L 769.283947 264.291103 
L 770.000028 263.803805 
L 770.760468 263.773992 
L 771.520908 264.172937 
L 772.46512 264.9145 
L 774.702081 267.646602 
L 775.46252 268.099961 
L 776.22296 268.052125 
L 776.939041 267.422812 
L 777.699481 266.205639 
L 778.45992 264.471461 
L 781.489005 255.738438 
L 782.249445 254.147707 
L 783.009885 253.116061 
L 783.725966 252.698865 
L 784.486405 252.875401 
L 785.246845 253.547894 
L 787.407762 256.779925 
L 788.199886 257.561119 
L 788.960326 257.860394 
L 789.720766 257.537027 
L 790.436847 256.515413 
L 791.197286 254.790683 
L 791.957726 252.423543 
L 792.749851 249.527059 
L 794.27073 242.821406 
L 794.910767 239.416043 
L 796.431647 233.494692 
L 797.192086 231.296848 
L 797.908167 229.726161 
L 798.668607 228.777056 
L 799.61282 228.369958 
L 800.373259 228.367515 
L 802.61022 228.961481 
L 803.370659 228.728613 
L 804.055055 228.032332 
L 804.84718 226.819348 
L 805.60762 225.106456 
L 806.368059 222.963737 
L 809.397145 212.697436 
L 810.157584 210.442886 
L 810.918024 208.550763 
L 811.634105 207.084575 
L 812.318501 206.067188 
L 813.07894 205.479652 
L 813.795021 205.270922 
L 814.555461 205.361117 
L 817.628905 206.477753 
L 818.344986 206.362422 
L 819.105425 205.913201 
L 819.865865 205.106209 
L 820.65799 203.95644 
L 823.579346 197.744978 
L 824.339786 196.526536 
L 825.055867 195.738358 
L 825.816306 195.457405 
L 826.576746 195.689337 
L 827.444915 196.364088 
L 828.965794 198.48724 
L 830.366271 200.525184 
L 831.126711 201.129333 
L 831.918835 201.339657 
L 832.679275 201.161579 
L 833.439715 200.679653 
L 834.916235 199.404354 
L 835.676675 198.977242 
L 836.437115 198.910334 
L 837.22924 199.30057 
L 837.989679 200.16087 
L 838.750119 201.41367 
L 840.150596 204.470785 
L 840.911035 205.85993 
L 841.627116 206.8792 
L 842.387556 207.37338 
L 843.147996 207.253236 
L 843.94012 206.510438 
L 844.70056 205.226296 
L 845.461 203.552212 
L 846.937521 199.827129 
L 848.414041 196.897783 
L 849.174481 196.063386 
L 849.934921 195.712241 
L 850.651001 195.822869 
L 851.411441 196.334939 
L 852.171881 197.159017 
L 854.408841 200.482277 
L 856.113494 202.438534 
L 856.873933 203.078113 
L 857.51397 203.416176 
L 858.27441 203.417892 
L 859.03485 203.054807 
L 859.826974 202.311397 
L 860.587414 201.196299 
L 861.347854 199.748601 
L 865.137379 190.866659 
L 865.897818 189.606514 
L 866.582214 188.701483 
L 867.298295 188.146705 
L 868.058735 187.889432 
L 870.295695 187.70247 
L 871.056135 187.350982 
L 871.84826 186.658353 
L 872.608699 185.573582 
L 873.369139 184.110526 
L 876.32218 176.812057 
L 877.08262 175.475447 
L 877.84306 174.647819 
L 878.55914 174.415801 
L 879.31958 174.80382 
L 880.08002 175.775982 
L 880.796101 177.23751 
L 883.945589 184.712771 
L 884.706028 186.068233 
L 885.422109 186.91767 
L 886.182549 187.191728 
L 886.942989 186.872219 
L 887.735113 185.98694 
L 888.495553 184.612733 
L 889.255993 182.865783 
L 891.492953 176.775461 
L 892.969474 173.304996 
L 893.729914 172.014635 
L 894.445994 171.058669 
L 895.206434 170.424939 
L 895.966874 170.074641 
L 896.682955 169.951712 
L 899.756399 170.026026 
L 900.516838 169.773584 
L 901.277278 169.279822 
L 902.677755 167.457262 
L 904.230319 164.666177 
L 907.227719 158.371136 
L 908.70424 156.244816 
L 909.46468 155.601978 
L 909.920943 156.024953 
L 911.245376 154.826224 
L 911.853728 154.896537 
L 912.614168 154.749366 
L 913.330248 154.440416 
L 914.090688 153.852091 
L 914.851128 152.895398 
L 915.643253 151.52084 
L 916.403692 149.731121 
L 917.164132 147.594833 
L 919.401092 140.542457 
L 920.117173 138.562286 
L 920.877613 137.040664 
L 921.638053 136.077795 
L 922.354133 135.709444 
L 923.114573 135.911867 
L 923.875013 136.614281 
L 925.351533 139.043841 
L 926.904098 141.781673 
L 927.664538 142.884229 
L 928.424977 143.673026 
L 929.065014 144.100775 
L 929.825454 144.158322 
L 930.585894 143.888278 
L 931.378019 143.382639 
L 933.659338 141.625166 
L 934.375419 141.287636 
L 935.135858 141.170016 
L 935.74421 142.02382 
L 936.612379 141.385098 
L 937.296775 141.986147 
L 938.057214 142.391153 
L 938.925383 142.662037 
L 939.685823 142.67969 
L 940.446263 142.345448 
L 941.162343 141.595354 
L 941.922783 140.408277 
L 942.683223 138.812001 
L 944.235787 134.751465 
L 946.396704 128.584863 
L 947.157143 127.086579 
L 947.949268 126.045291 
L 948.709708 125.509896 
L 949.470148 125.484765 
L 950.186229 125.921205 
L 950.946668 126.716155 
L 953.183629 129.743595 
L 953.944068 130.4184 
L 954.736193 130.695867 
L 955.420589 130.499077 
L 956.181029 129.800727 
L 956.973153 128.644425 
L 959.210114 123.745371 
L 960.730993 120.54383 
L 961.447074 119.360674 
L 962.207514 118.559171 
L 962.967953 118.160722 
L 963.728393 118.13733 
L 964.36843 118.420345 
L 967.593962 120.406705 
L 968.354402 120.45523 
L 969.070482 120.105572 
L 969.830922 119.306384 
L 970.591362 118.05578 
L 971.383487 116.404841 
L 972.904366 112.324423 
L 973.544403 110.169316 
L 975.065283 106.361872 
L 975.857407 104.940811 
L 976.617847 103.92771 
L 977.378287 103.341658 
L 978.094368 103.166878 
L 978.854807 103.354299 
L 979.615247 103.827573 
L 981.852207 105.798552 
L 982.568288 106.186107 
L 983.328728 106.251153 
L 984.089168 105.963237 
L 984.805248 105.374444 
L 987.118253 102.804688 
L 988.639132 101.315501 
L 989.355213 100.807384 
L 990.115653 100.505158 
L 990.876093 100.44 
L 991.516129 100.62479 
L 992.276569 101.041032 
L 996.218182 104.175495 
L 996.218182 104.175495 
" style="fill:none;stroke:#ff0000;stroke-linecap:round;"/>
   </g>
  </g>
 </g>
 <defs>
  <clipPath id="p7f73c9853c">
   <rect height="498.96" width="892.8" x="144" y="77.76"/>
  </clipPath>
 </defs>
</svg>
