<?xml version="1.0" encoding="utf-8" standalone="no"?>
<!DOCTYPE svg PUBLIC "-//W3C//DTD SVG 1.1//EN"
  "http://www.w3.org/Graphics/SVG/1.1/DTD/svg11.dtd">
<!-- Created with matplotlib (https://matplotlib.org/) -->
<svg height="648pt" version="1.1" viewBox="0 0 1152 648" width="1152pt" xmlns="http://www.w3.org/2000/svg" xmlns:xlink="http://www.w3.org/1999/xlink">
 <metadata>
  <rdf:RDF xmlns:cc="http://creativecommons.org/ns#" xmlns:dc="http://purl.org/dc/elements/1.1/" xmlns:rdf="http://www.w3.org/1999/02/22-rdf-syntax-ns#">
   <cc:Work>
    <dc:type rdf:resource="http://purl.org/dc/dcmitype/StillImage"/>
    <dc:date>2024-02-08T11:47:30.028752</dc:date>
    <dc:format>image/svg+xml</dc:format>
    <dc:creator>
     <cc:Agent>
      <dc:title>Matplotlib v3.3.1, https://matplotlib.org/</dc:title>
     </cc:Agent>
    </dc:creator>
   </cc:Work>
  </rdf:RDF>
 </metadata>
 <defs>
  <style type="text/css">*{stroke-linecap:butt;stroke-linejoin:round;}</style>
 </defs>
 <g id="figure_1">
  <g id="patch_1">
   <path d="M 0 648 
L 1152 648 
L 1152 0 
L 0 0 
z
" style="fill:#ffffff;"/>
  </g>
  <g id="axes_1">
   <g id="patch_2">
    <path d="M 144 576.72 
L 1036.8 576.72 
L 1036.8 77.76 
L 144 77.76 
z
" style="fill:none;"/>
   </g>
   <g id="line2d_1">
    <path clip-path="url(#pfb1ac09078)" d="M 705.876718 357.271998 
L 712.475388 372.105944 
L 719.074058 376.46173 
L 725.672727 454.744508 
L 732.271397 415.394095 
L 738.870067 422.123312 
L 745.468736 385.051933 
L 752.067406 407.343308 
L 758.666075 314.914339 
L 765.264745 338.446372 
L 771.863415 380.938884 
L 778.462084 315.683008 
L 785.060754 376.178536 
L 791.659424 461.837831 
L 798.258093 370.595578 
L 804.856763 350.974314 
L 811.455432 343.260662 
L 818.054102 325.446441 
L 824.652772 350.664149 
L 831.251441 273.743397 
L 837.850111 275.590897 
L 844.44878 329.653888 
L 851.04745 261.094086 
L 857.64612 280.688381 
L 864.244789 272.988214 
L 870.843459 296.30448 
L 877.442129 268.888651 
L 884.040798 277.613708 
L 890.639468 276.791098 
L 897.238137 282.454969 
L 903.836807 247.244575 
L 910.435477 124.230707 
L 917.034146 297.612564 
L 923.632816 265.854435 
L 930.231486 260.635583 
L 936.830155 230.751924 
L 943.428825 235.323477 
L 950.027494 189.216876 
L 956.626164 227.097379 
L 963.224834 207.624454 
L 969.823503 233.138841 
L 976.422173 207.745823 
L 983.020843 154.680752 
L 989.619512 209.458469 
L 996.218182 148.814601 
" style="fill:none;stroke:#0072b2;stroke-linecap:round;stroke-width:3;"/>
   </g>
   <g id="line2d_2">
    <path clip-path="url(#pfb1ac09078)" d="M 567.304656 364.324865 
L 573.903326 449.417773 
L 580.501996 350.637178 
L 587.100665 434.799594 
L 593.699335 378.578938 
L 600.298004 381.45133 
L 606.896674 440.369066 
L 613.495344 414.436631 
L 620.094013 366.428588 
L 626.692683 468.44568 
L 633.291353 414.463602 
L 639.890022 330.368614 
L 646.488692 380.655691 
L 653.087361 451.467555 
L 659.686031 437.618043 
L 666.284701 385.065418 
L 672.88337 443.942698 
L 679.48204 443.403282 
L 686.08071 453.625219 
L 692.679379 392.401479 
L 699.278049 382.853812 
L 705.876718 329.020074 
L 712.475388 355.545866 
L 719.074058 360.980484 
L 725.672727 443.99664 
L 732.271397 407.451191 
L 738.870067 402.313252 
L 745.468736 373.346601 
L 752.067406 394.168067 
L 758.666075 306.040943 
L 765.264745 327.900785 
L 771.863415 373.589338 
L 778.462084 308.994246 
L 785.060754 375.355926 
L 791.659424 461.662521 
L 798.258093 371.364246 
L 804.856763 338.71608 
L 811.455432 324.650802 
L 818.054102 311.232824 
L 824.652772 333.90179 
L 831.251441 261.849269 
L 837.850111 260.271477 
L 844.44878 318.636311 
L 851.04745 247.58171 
L 857.64612 269.549436 
L 864.244789 264.964398 
L 870.843459 291.112599 
L 877.442129 273.298378 
L 884.040798 284.531721 
L 890.639468 283.533801 
L 897.238137 284.760973 
L 903.836807 248.606601 
L 910.435477 128.883172 
L 917.034146 287.930043 
L 923.632816 264.923942 
L 930.231486 260.783922 
L 936.830155 229.902344 
L 943.428825 246.502878 
L 950.027494 195.797754 
L 956.626164 244.695834 
L 963.224834 230.225994 
L 969.823503 262.712335 
L 976.422173 243.293351 
L 983.020843 189.176419 
L 989.619512 238.034043 
L 996.218182 187.922277 
" style="fill:none;stroke:#d55e00;stroke-linecap:round;stroke-width:3;"/>
   </g>
   <g id="patch_3">
    <path d="M 144 576.72 
L 1036.8 576.72 
" style="fill:none;stroke:#d3d3d3;stroke-linecap:square;stroke-linejoin:miter;stroke-width:1.25;"/>
   </g>
   <g id="matplotlib.axis_1">
    <g id="xtick_1">
     <g id="line2d_3">
      <defs>
       <path d="M 0 0 
L 0 6 
" id="m05070229d1" style="stroke:#696969;stroke-width:1.25;"/>
      </defs>
      <g>
       <use style="fill:#696969;stroke:#696969;stroke-width:1.25;" x="184.581818" xlink:href="#m05070229d1" y="576.72"/>
      </g>
     </g>
     <g id="text_1">
      <!-- 1900 -->
      <g style="fill:#696969;" transform="translate(157.765256 601.550938)scale(0.23 -0.23)">
       <defs>
        <path d="M 55.859375 6.203125 
L 55.859375 0 
L 9.1875 0 
L 9.1875 6.203125 
L 29.203125 6.203125 
L 29.203125 57.671875 
Q 20.359375 48.4375 10.84375 43.265625 
L 10.84375 51.65625 
Q 23.96875 58.546875 31.203125 68.015625 
L 37.15625 68.015625 
L 37.15625 6.203125 
z
" id="FranklinGothic-Book-49"/>
        <path d="M 5.71875 12.15625 
L 12.40625 14.59375 
Q 16.546875 5.375 26.375 5.375 
Q 35.890625 5.375 40.703125 13.375 
Q 45.515625 21.390625 45.65625 35.109375 
Q 39.109375 23.09375 25.984375 23.09375 
Q 16.703125 23.09375 10.40625 29.421875 
Q 4.109375 35.75 4.109375 45.0625 
Q 4.109375 54.546875 10.71875 61.28125 
Q 17.328125 68.015625 27.59375 68.015625 
Q 40.140625 68.015625 46.828125 59.203125 
Q 53.515625 50.390625 53.515625 34.96875 
Q 53.515625 18.75 46.4375 8.71875 
Q 39.359375 -1.3125 26.265625 -1.3125 
Q 10.984375 -1.3125 5.71875 12.15625 
z
M 27.828125 29.78125 
Q 34.71875 29.78125 39.375 34.59375 
Q 44.046875 39.40625 44.046875 45.84375 
Q 44.046875 52.09375 39.625 56.578125 
Q 35.203125 61.078125 27.984375 61.078125 
Q 20.65625 61.078125 16.40625 56.46875 
Q 12.15625 51.859375 12.15625 45.21875 
Q 12.15625 38.09375 16.859375 33.9375 
Q 21.578125 29.78125 27.828125 29.78125 
z
" id="FranklinGothic-Book-57"/>
        <path d="M 29.390625 -1.3125 
Q 17.875 -1.3125 10.984375 8.671875 
Q 4.109375 18.65625 4.109375 33.453125 
Q 4.109375 48 10.640625 58 
Q 17.1875 68.015625 29.15625 68.015625 
Q 41.65625 68.015625 48.125 57.5625 
Q 54.59375 47.125 54.59375 33.0625 
Q 54.59375 19.28125 47.953125 8.984375 
Q 41.3125 -1.3125 29.390625 -1.3125 
z
M 29.4375 5.21875 
Q 37.890625 5.21875 41.9375 12.859375 
Q 46 20.515625 46 32.078125 
Q 46 44.734375 41.84375 53.125 
Q 37.703125 61.53125 29.046875 61.53125 
Q 20.703125 61.53125 16.625 53.859375 
Q 12.546875 46.1875 12.546875 33.6875 
Q 12.546875 20.703125 16.84375 12.953125 
Q 21.140625 5.21875 29.4375 5.21875 
z
" id="FranklinGothic-Book-48"/>
       </defs>
       <use xlink:href="#FranklinGothic-Book-49"/>
       <use x="57.267578" xlink:href="#FranklinGothic-Book-57"/>
       <use x="115.910156" xlink:href="#FranklinGothic-Book-48"/>
       <use x="174.552734" xlink:href="#FranklinGothic-Book-48"/>
      </g>
     </g>
    </g>
    <g id="xtick_2">
     <g id="line2d_4">
      <g>
       <use style="fill:#696969;stroke:#696969;stroke-width:1.25;" x="316.555211" xlink:href="#m05070229d1" y="576.72"/>
      </g>
     </g>
     <g id="text_2">
      <!-- 1920 -->
      <g style="fill:#696969;" transform="translate(289.738648 601.550938)scale(0.23 -0.23)">
       <defs>
        <path d="M 52.484375 6.9375 
L 52.484375 0 
L 5.171875 0 
L 5.171875 6.9375 
Q 33.203125 27.9375 38.59375 34.59375 
Q 44 41.265625 44 47.796875 
Q 44 53.90625 39.453125 57.65625 
Q 34.90625 61.421875 29 61.421875 
Q 22.90625 61.421875 18.21875 57.296875 
Q 13.53125 53.171875 12.9375 46.09375 
L 5.171875 48.4375 
Q 10.0625 68.015625 29.109375 68.015625 
Q 39.40625 68.015625 45.84375 62.15625 
Q 52.296875 56.296875 52.296875 47.859375 
Q 52.296875 42.046875 49.234375 36.671875 
Q 46.1875 31.296875 37.6875 23.828125 
Q 29.203125 16.359375 15.71875 6.9375 
z
" id="FranklinGothic-Book-50"/>
       </defs>
       <use xlink:href="#FranklinGothic-Book-49"/>
       <use x="57.267578" xlink:href="#FranklinGothic-Book-57"/>
       <use x="115.910156" xlink:href="#FranklinGothic-Book-50"/>
       <use x="174.552734" xlink:href="#FranklinGothic-Book-48"/>
      </g>
     </g>
    </g>
    <g id="xtick_3">
     <g id="line2d_5">
      <g>
       <use style="fill:#696969;stroke:#696969;stroke-width:1.25;" x="448.528603" xlink:href="#m05070229d1" y="576.72"/>
      </g>
     </g>
     <g id="text_3">
      <!-- 1940 -->
      <g style="fill:#696969;" transform="translate(421.769541 601.550938)scale(0.23 -0.23)">
       <defs>
        <path d="M 44.09375 0 
L 36.03125 0 
L 36.03125 15.875 
L 3.078125 15.875 
L 3.078125 21.484375 
L 33.640625 68.0625 
L 44.09375 68.0625 
L 44.09375 22.46875 
L 54.890625 22.46875 
L 54.890625 15.875 
L 44.09375 15.875 
z
M 36.03125 22.46875 
L 36.03125 54 
Q 36.03125 57.421875 36.1875 61.375 
Q 34.078125 57.515625 32.5625 55.125 
L 11.765625 22.46875 
z
" id="FranklinGothic-Book-52"/>
       </defs>
       <use xlink:href="#FranklinGothic-Book-49"/>
       <use x="57.267578" xlink:href="#FranklinGothic-Book-57"/>
       <use x="115.410156" xlink:href="#FranklinGothic-Book-52"/>
       <use x="174.052734" xlink:href="#FranklinGothic-Book-48"/>
      </g>
     </g>
    </g>
    <g id="xtick_4">
     <g id="line2d_6">
      <g>
       <use style="fill:#696969;stroke:#696969;stroke-width:1.25;" x="580.501996" xlink:href="#m05070229d1" y="576.72"/>
      </g>
     </g>
     <g id="text_4">
      <!-- 1960 -->
      <g style="fill:#696969;" transform="translate(553.685433 601.550938)scale(0.23 -0.23)">
       <defs>
        <path d="M 53.5625 53.03125 
L 46.046875 50.984375 
Q 42.1875 61.140625 31.984375 61.140625 
Q 13.234375 61.140625 12.796875 30.125 
Q 15.765625 37.015625 21.234375 40.328125 
Q 26.703125 43.65625 32.8125 43.65625 
Q 42.09375 43.65625 48.359375 37.1875 
Q 54.640625 30.71875 54.640625 21.6875 
Q 54.640625 12.3125 47.96875 5.5 
Q 41.3125 -1.3125 30.90625 -1.3125 
Q 19.09375 -1.3125 12.078125 7.59375 
Q 5.078125 16.5 5.078125 31.84375 
Q 5.078125 46.828125 11.6875 57.421875 
Q 18.3125 68.015625 32.171875 68.015625 
Q 48.140625 68.015625 53.5625 53.03125 
z
M 30.765625 5.375 
Q 37.84375 5.375 42.359375 10.03125 
Q 46.875 14.703125 46.875 21.234375 
Q 46.875 27.6875 42.453125 32.296875 
Q 38.03125 36.921875 31.5 36.921875 
Q 24.75 36.921875 19.71875 32.078125 
Q 14.703125 27.25 14.703125 20.75 
Q 14.703125 14.75 19.1875 10.0625 
Q 23.6875 5.375 30.765625 5.375 
z
" id="FranklinGothic-Book-54"/>
       </defs>
       <use xlink:href="#FranklinGothic-Book-49"/>
       <use x="57.267578" xlink:href="#FranklinGothic-Book-57"/>
       <use x="115.910156" xlink:href="#FranklinGothic-Book-54"/>
       <use x="174.552734" xlink:href="#FranklinGothic-Book-48"/>
      </g>
     </g>
    </g>
    <g id="xtick_5">
     <g id="line2d_7">
      <g>
       <use style="fill:#696969;stroke:#696969;stroke-width:1.25;" x="712.475388" xlink:href="#m05070229d1" y="576.72"/>
      </g>
     </g>
     <g id="text_5">
      <!-- 1980 -->
      <g style="fill:#696969;" transform="translate(685.658826 601.550938)scale(0.23 -0.23)">
       <defs>
        <path d="M 19.484375 34.578125 
Q 6.84375 40.09375 6.84375 50.59375 
Q 6.84375 58.203125 13.140625 63.109375 
Q 19.4375 68.015625 29.828125 68.015625 
Q 40.09375 68.015625 46.140625 63.296875 
Q 52.203125 58.59375 52.203125 50.984375 
Q 52.203125 40.375 39.265625 35.796875 
Q 49.703125 30.953125 52.359375 26.453125 
Q 55.03125 21.96875 55.03125 17.484375 
Q 55.03125 9.46875 48.21875 4.078125 
Q 41.40625 -1.3125 29.734375 -1.3125 
Q 17.28125 -1.3125 10.4375 4.171875 
Q 3.609375 9.671875 3.609375 17.234375 
Q 3.609375 28.515625 19.484375 34.578125 
z
M 29.59375 38.71875 
Q 37.984375 40.96875 41.453125 43.890625 
Q 44.921875 46.828125 44.921875 51.21875 
Q 44.921875 56.34375 40.796875 59 
Q 36.671875 61.671875 29.9375 61.671875 
Q 23.484375 61.671875 19.375 58.859375 
Q 15.28125 56.0625 15.28125 51.3125 
Q 15.28125 46.625 19.84375 43.203125 
Q 24.421875 39.796875 29.59375 38.71875 
z
M 28.65625 31.0625 
Q 11.765625 27.046875 11.765625 16.9375 
Q 11.765625 11.671875 16.375 8.328125 
Q 21 4.984375 29.984375 4.984375 
Q 37.59375 4.984375 42.234375 8.25 
Q 46.875 11.53125 46.875 16.609375 
Q 46.875 26.3125 28.65625 31.0625 
z
" id="FranklinGothic-Book-56"/>
       </defs>
       <use xlink:href="#FranklinGothic-Book-49"/>
       <use x="57.267578" xlink:href="#FranklinGothic-Book-57"/>
       <use x="115.910156" xlink:href="#FranklinGothic-Book-56"/>
       <use x="174.552734" xlink:href="#FranklinGothic-Book-48"/>
      </g>
     </g>
    </g>
    <g id="xtick_6">
     <g id="line2d_8">
      <g>
       <use style="fill:#696969;stroke:#696969;stroke-width:1.25;" x="844.44878" xlink:href="#m05070229d1" y="576.72"/>
      </g>
     </g>
     <g id="text_6">
      <!-- 2000 -->
      <g style="fill:#696969;" transform="translate(817.474093 601.550938)scale(0.23 -0.23)">
       <use xlink:href="#FranklinGothic-Book-50"/>
       <use x="58.642578" xlink:href="#FranklinGothic-Book-48"/>
       <use x="117.285156" xlink:href="#FranklinGothic-Book-48"/>
       <use x="175.927734" xlink:href="#FranklinGothic-Book-48"/>
      </g>
     </g>
    </g>
    <g id="xtick_7">
     <g id="line2d_9">
      <g>
       <use style="fill:#696969;stroke:#696969;stroke-width:1.25;" x="976.422173" xlink:href="#m05070229d1" y="576.72"/>
      </g>
     </g>
     <g id="text_7">
      <!-- 2020 -->
      <g style="fill:#696969;" transform="translate(949.447485 601.550938)scale(0.23 -0.23)">
       <use xlink:href="#FranklinGothic-Book-50"/>
       <use x="58.642578" xlink:href="#FranklinGothic-Book-48"/>
       <use x="117.285156" xlink:href="#FranklinGothic-Book-50"/>
       <use x="175.927734" xlink:href="#FranklinGothic-Book-48"/>
      </g>
     </g>
    </g>
    <g id="text_8">
     <!-- Year -->
     <g style="fill:#696969;" transform="translate(569.365781 624.712813)scale(0.23 -0.23)">
      <defs>
       <path d="M 52 66.65625 
L 29.6875 28.03125 
L 29.6875 0 
L 21.34375 0 
L 21.34375 28.03125 
L -0.984375 66.65625 
L 8.84375 66.65625 
L 26.5625 35.984375 
L 44.390625 66.65625 
z
" id="FranklinGothic-Book-89"/>
       <path d="M 40.234375 14.703125 
L 47.359375 13.234375 
Q 45.40625 6.9375 39.734375 2.8125 
Q 34.078125 -1.3125 26.421875 -1.3125 
Q 16.3125 -1.3125 10.0625 5.78125 
Q 3.8125 12.890625 3.8125 24.421875 
Q 3.8125 36.1875 10.296875 43.4375 
Q 16.796875 50.6875 26.609375 50.6875 
Q 36.28125 50.6875 42.15625 44 
Q 48.046875 37.3125 48.1875 23.96875 
L 12.359375 23.96875 
Q 12.359375 12.796875 17.046875 8.890625 
Q 21.734375 4.984375 26.953125 4.984375 
Q 36.375 4.984375 40.234375 14.703125 
z
M 39.796875 29.6875 
Q 39.703125 33.84375 38.421875 37.0625 
Q 37.15625 40.28125 34.125 42.546875 
Q 31.109375 44.828125 26.859375 44.828125 
Q 21.140625 44.828125 17.15625 40.71875 
Q 13.1875 36.625 12.703125 29.6875 
z
" id="FranklinGothic-Book-101"/>
       <path d="M 46.296875 0 
L 38.671875 0 
Q 38.234375 2.34375 37.796875 8.890625 
Q 32.71875 -1.3125 20.515625 -1.3125 
Q 12.203125 -1.3125 7.765625 3.078125 
Q 3.328125 7.46875 3.328125 13.625 
Q 3.328125 21.09375 9.671875 25.90625 
Q 16.015625 30.71875 31.25 30.71875 
Q 33.296875 30.71875 37.796875 30.515625 
Q 37.796875 36.375 36.890625 38.984375 
Q 35.984375 41.609375 33.046875 43.171875 
Q 30.125 44.734375 25.34375 44.734375 
Q 13.671875 44.734375 11.765625 35.84375 
L 4.6875 37.0625 
Q 7.28125 50.6875 26.46875 50.6875 
Q 36.671875 50.6875 40.9375 46.171875 
Q 45.21875 41.65625 45.21875 30.515625 
L 45.21875 9.578125 
Q 45.21875 4.34375 46.296875 0 
z
M 37.796875 24.65625 
Q 33.109375 24.953125 30.671875 24.953125 
Q 21.578125 24.953125 16.546875 21.96875 
Q 11.53125 19 11.53125 13.28125 
Q 11.53125 9.671875 14.234375 7.125 
Q 16.9375 4.59375 22.078125 4.59375 
Q 29 4.59375 33.46875 9.625 
Q 37.9375 14.65625 37.9375 21.4375 
Q 37.9375 22.796875 37.796875 24.65625 
z
" id="FranklinGothic-Book-97"/>
       <path d="M 15.328125 0 
L 7.671875 0 
L 7.671875 49.3125 
L 14.40625 49.3125 
L 14.40625 37.796875 
Q 17.96875 45.953125 21.546875 48.359375 
Q 25.140625 50.78125 28.90625 50.78125 
Q 30.078125 50.78125 31.9375 50.59375 
L 31.9375 43.265625 
L 30.375 43.265625 
Q 24.03125 43.265625 19.828125 38.53125 
Q 15.625 33.796875 15.328125 26.078125 
z
" id="FranklinGothic-Book-114"/>
      </defs>
      <use xlink:href="#FranklinGothic-Book-89"/>
      <use x="45.025391" xlink:href="#FranklinGothic-Book-101"/>
      <use x="97.076172" xlink:href="#FranklinGothic-Book-97"/>
      <use x="149.957031" xlink:href="#FranklinGothic-Book-114"/>
     </g>
    </g>
   </g>
   <g id="matplotlib.axis_2">
    <g id="ytick_1">
     <g id="line2d_10">
      <path clip-path="url(#pfb1ac09078)" d="M 144 549.749189 
L 1036.8 549.749189 
" style="fill:none;stroke:#d3d3d3;stroke-linecap:round;stroke-opacity:0.5;"/>
     </g>
     <g id="text_9">
      <!-- −2.0 -->
      <g style="fill:#696969;" transform="translate(88.287969 557.414658)scale(0.23 -0.23)">
       <defs>
        <path d="M 6 36.765625 
L 52.6875 36.765625 
L 52.6875 30.03125 
L 6 30.03125 
z
" id="FranklinGothic-Book-8722"/>
        <path d="M 17.96875 10.9375 
L 17.96875 0 
L 7.078125 0 
L 7.078125 10.9375 
z
" id="FranklinGothic-Book-46"/>
       </defs>
       <use xlink:href="#FranklinGothic-Book-8722"/>
       <use x="58.642578" xlink:href="#FranklinGothic-Book-50"/>
       <use x="117.285156" xlink:href="#FranklinGothic-Book-46"/>
       <use x="142.285156" xlink:href="#FranklinGothic-Book-48"/>
      </g>
     </g>
    </g>
    <g id="ytick_2">
     <g id="line2d_11">
      <path clip-path="url(#pfb1ac09078)" d="M 144 482.322162 
L 1036.8 482.322162 
" style="fill:none;stroke:#d3d3d3;stroke-linecap:round;stroke-opacity:0.5;"/>
     </g>
     <g id="text_10">
      <!-- −1.5 -->
      <g style="fill:#696969;" transform="translate(88.431719 489.987631)scale(0.23 -0.23)">
       <defs>
        <path d="M 48.875 66.65625 
L 48.1875 59.46875 
L 15.4375 59.46875 
L 14.015625 37.84375 
Q 21.4375 45.125 30.328125 45.125 
Q 39.703125 45.125 46.515625 38.625 
Q 53.328125 32.125 53.328125 22.015625 
Q 53.328125 11.765625 45.921875 5.21875 
Q 38.53125 -1.3125 27.828125 -1.3125 
Q 19.4375 -1.3125 12.890625 3.078125 
Q 6.34375 7.46875 4.296875 14.453125 
L 11.421875 16.890625 
Q 15.828125 5.28125 27.9375 5.28125 
Q 35.890625 5.28125 40.578125 9.984375 
Q 45.265625 14.703125 45.265625 22.015625 
Q 45.265625 29.6875 40.625 33.984375 
Q 35.984375 38.28125 29.5 38.28125 
Q 20.015625 38.28125 13.8125 29.203125 
L 7.234375 30.609375 
L 9.375 66.65625 
z
" id="FranklinGothic-Book-53"/>
       </defs>
       <use xlink:href="#FranklinGothic-Book-8722"/>
       <use x="58.642578" xlink:href="#FranklinGothic-Book-49"/>
       <use x="116.660156" xlink:href="#FranklinGothic-Book-46"/>
       <use x="141.660156" xlink:href="#FranklinGothic-Book-53"/>
      </g>
     </g>
    </g>
    <g id="ytick_3">
     <g id="line2d_12">
      <path clip-path="url(#pfb1ac09078)" d="M 144 414.895135 
L 1036.8 414.895135 
" style="fill:none;stroke:#d3d3d3;stroke-linecap:round;stroke-opacity:0.5;"/>
     </g>
     <g id="text_11">
      <!-- −1.0 -->
      <g style="fill:#696969;" transform="translate(88.431719 422.560604)scale(0.23 -0.23)">
       <use xlink:href="#FranklinGothic-Book-8722"/>
       <use x="58.642578" xlink:href="#FranklinGothic-Book-49"/>
       <use x="116.660156" xlink:href="#FranklinGothic-Book-46"/>
       <use x="141.660156" xlink:href="#FranklinGothic-Book-48"/>
      </g>
     </g>
    </g>
    <g id="ytick_4">
     <g id="line2d_13">
      <path clip-path="url(#pfb1ac09078)" d="M 144 347.468108 
L 1036.8 347.468108 
" style="fill:none;stroke:#d3d3d3;stroke-linecap:round;stroke-opacity:0.5;"/>
     </g>
     <g id="text_12">
      <!-- −0.5 -->
      <g style="fill:#696969;" transform="translate(88.287969 355.133577)scale(0.23 -0.23)">
       <use xlink:href="#FranklinGothic-Book-8722"/>
       <use x="58.642578" xlink:href="#FranklinGothic-Book-48"/>
       <use x="117.285156" xlink:href="#FranklinGothic-Book-46"/>
       <use x="142.285156" xlink:href="#FranklinGothic-Book-53"/>
      </g>
     </g>
    </g>
    <g id="ytick_5">
     <g id="line2d_14">
      <path clip-path="url(#pfb1ac09078)" d="M 144 280.041081 
L 1036.8 280.041081 
" style="fill:none;stroke:#d3d3d3;stroke-linecap:round;stroke-opacity:0.5;"/>
     </g>
     <g id="text_13">
      <!-- 0.0 -->
      <g style="fill:#696969;" transform="translate(101.775312 287.70655)scale(0.23 -0.23)">
       <use xlink:href="#FranklinGothic-Book-48"/>
       <use x="58.642578" xlink:href="#FranklinGothic-Book-46"/>
       <use x="83.642578" xlink:href="#FranklinGothic-Book-48"/>
      </g>
     </g>
    </g>
    <g id="ytick_6">
     <g id="line2d_15">
      <path clip-path="url(#pfb1ac09078)" d="M 144 212.614054 
L 1036.8 212.614054 
" style="fill:none;stroke:#d3d3d3;stroke-linecap:round;stroke-opacity:0.5;"/>
     </g>
     <g id="text_14">
      <!-- 0.5 -->
      <g style="fill:#696969;" transform="translate(101.775312 220.279523)scale(0.23 -0.23)">
       <use xlink:href="#FranklinGothic-Book-48"/>
       <use x="58.642578" xlink:href="#FranklinGothic-Book-46"/>
       <use x="83.642578" xlink:href="#FranklinGothic-Book-53"/>
      </g>
     </g>
    </g>
    <g id="ytick_7">
     <g id="line2d_16">
      <path clip-path="url(#pfb1ac09078)" d="M 144 145.187027 
L 1036.8 145.187027 
" style="fill:none;stroke:#d3d3d3;stroke-linecap:round;stroke-opacity:0.5;"/>
     </g>
     <g id="text_15">
      <!-- 1.0 -->
      <g style="fill:#696969;" transform="translate(101.919062 152.852496)scale(0.23 -0.23)">
       <use xlink:href="#FranklinGothic-Book-49"/>
       <use x="58.017578" xlink:href="#FranklinGothic-Book-46"/>
       <use x="83.017578" xlink:href="#FranklinGothic-Book-48"/>
      </g>
     </g>
    </g>
    <g id="ytick_8">
     <g id="line2d_17">
      <path clip-path="url(#pfb1ac09078)" d="M 144 77.76 
L 1036.8 77.76 
" style="fill:none;stroke:#d3d3d3;stroke-linecap:round;stroke-opacity:0.5;"/>
     </g>
     <g id="text_16">
      <!-- 1.5 -->
      <g style="fill:#696969;" transform="translate(101.919062 85.425469)scale(0.23 -0.23)">
       <use xlink:href="#FranklinGothic-Book-49"/>
       <use x="58.017578" xlink:href="#FranklinGothic-Book-46"/>
       <use x="83.017578" xlink:href="#FranklinGothic-Book-53"/>
      </g>
     </g>
    </g>
    <g id="text_17">
     <!-- $\!^\circ\!$C -->
     <g style="fill:#696969;" transform="translate(74.457031 338.855)rotate(-90)scale(0.23 -0.23)">
      <defs>
       <path d="M 31.296875 40.671875 
Q 27.390625 40.671875 24.703125 37.953125 
Q 22.015625 35.25 22.015625 31.34375 
Q 22.015625 27.484375 24.703125 24.828125 
Q 27.390625 22.171875 31.296875 22.171875 
Q 35.203125 22.171875 37.890625 24.828125 
Q 40.578125 27.484375 40.578125 31.34375 
Q 40.578125 35.203125 37.859375 37.9375 
Q 35.15625 40.671875 31.296875 40.671875 
z
M 31.296875 46.96875 
Q 34.421875 46.96875 37.296875 45.765625 
Q 40.1875 44.578125 42.28125 42.328125 
Q 44.53125 40.140625 45.65625 37.34375 
Q 46.78125 34.5625 46.78125 31.34375 
Q 46.78125 24.90625 42.265625 20.4375 
Q 37.75 15.96875 31.203125 15.96875 
Q 24.609375 15.96875 20.21875 20.359375 
Q 15.828125 24.75 15.828125 31.34375 
Q 15.828125 37.890625 20.3125 42.421875 
Q 24.8125 46.96875 31.296875 46.96875 
z
" id="DejaVuSans-8728"/>
       <path d="M 48.296875 22.40625 
L 55.90625 20.703125 
Q 50.4375 -1.3125 31.203125 -1.3125 
Q 18.5625 -1.3125 11.359375 8.890625 
Q 4.15625 19.09375 4.15625 33.984375 
Q 4.15625 49.359375 11.671875 58.6875 
Q 19.1875 68.015625 31.84375 68.015625 
Q 50.59375 68.015625 55.90625 46.578125 
L 48.046875 45.015625 
Q 43.75 60.9375 31.78125 60.9375 
Q 22.953125 60.9375 18.09375 53.53125 
Q 13.234375 46.140625 13.234375 32.765625 
Q 13.234375 20.515625 18.203125 13.109375 
Q 23.1875 5.71875 31.390625 5.71875 
Q 44.140625 5.71875 48.296875 22.40625 
z
" id="FranklinGothic-Book-67"/>
      </defs>
      <use transform="translate(-1.64095 39.121875)scale(0.7)" xlink:href="#DejaVuSans-8728"/>
      <use transform="translate(42.313804 0.840625)" xlink:href="#FranklinGothic-Book-67"/>
     </g>
    </g>
   </g>
   <g id="text_18">
    <!-- Compared to 1991-2020 average -->
    <g style="fill:#696969;" transform="translate(144 75.2652)scale(0.3 -0.3)">
     <defs>
      <path d="M 25.34375 -1.3125 
Q 15.1875 -1.3125 9.5 6.203125 
Q 3.8125 13.71875 3.8125 24.859375 
Q 3.8125 36.625 10.203125 43.65625 
Q 16.609375 50.6875 26.125 50.6875 
Q 36.328125 50.6875 42.203125 43.28125 
Q 48.09375 35.890625 48.09375 24.8125 
Q 48.09375 13.28125 41.75 5.984375 
Q 35.40625 -1.3125 25.34375 -1.3125 
z
M 25.921875 4.984375 
Q 31.78125 4.984375 35.734375 9.8125 
Q 39.703125 14.65625 39.703125 24.859375 
Q 39.703125 35.109375 35.546875 39.71875 
Q 31.390625 44.34375 25.828125 44.34375 
Q 20.125 44.34375 16.15625 39.671875 
Q 12.203125 35.015625 12.203125 24.90625 
Q 12.203125 14.203125 16.15625 9.59375 
Q 20.125 4.984375 25.921875 4.984375 
z
" id="FranklinGothic-Book-111"/>
      <path d="M 73.734375 0 
L 66.265625 0 
L 66.265625 30.671875 
Q 66.265625 35.40625 65.59375 37.765625 
Q 64.9375 40.140625 62.390625 42.109375 
Q 59.859375 44.09375 56.6875 44.09375 
Q 52.296875 44.09375 48.21875 40.0625 
Q 44.140625 36.03125 44.140625 27.78125 
L 44.140625 0 
L 36.71875 0 
L 36.71875 32.46875 
Q 36.71875 38.96875 33.609375 41.65625 
Q 30.515625 44.34375 27.09375 44.34375 
Q 22.21875 44.34375 18.59375 40.140625 
Q 14.984375 35.9375 14.984375 29.5 
L 14.984375 0 
L 7.671875 0 
L 7.671875 49.3125 
L 14.265625 49.3125 
L 14.265625 39.84375 
Q 19.78125 50.6875 29.4375 50.6875 
Q 34.765625 50.6875 38.46875 47.21875 
Q 42.1875 43.75 43.265625 38.875 
Q 48.34375 50.6875 58.84375 50.6875 
Q 63.875 50.6875 67.65625 47.796875 
Q 71.4375 44.921875 72.578125 41.1875 
Q 73.734375 37.453125 73.734375 30.671875 
z
" id="FranklinGothic-Book-109"/>
      <path d="M 15.328125 -16.65625 
L 7.671875 -16.65625 
L 7.671875 49.3125 
L 14.546875 49.3125 
L 14.546875 39.75 
Q 19.78125 50.6875 30.125 50.6875 
Q 38.875 50.6875 44.234375 43.375 
Q 49.609375 36.078125 49.609375 24.90625 
Q 49.609375 12.84375 44.09375 5.765625 
Q 38.578125 -1.3125 29.9375 -1.3125 
Q 20.65625 -1.3125 15.328125 7.515625 
z
M 15.328125 31.78125 
L 15.328125 17.921875 
Q 16.0625 12.3125 20.0625 8.640625 
Q 24.078125 4.984375 28.421875 4.984375 
Q 33.453125 4.984375 37.328125 9.375 
Q 41.21875 13.765625 41.21875 24.5625 
Q 41.21875 33.890625 37.703125 38.9375 
Q 34.1875 44 28.375 44 
Q 23.78125 44 20.140625 40.421875 
Q 16.5 36.859375 15.328125 31.78125 
z
" id="FranklinGothic-Book-112"/>
      <path d="M 46.1875 66.65625 
L 46.1875 0 
L 39.203125 0 
L 39.203125 8.453125 
Q 34.03125 -1.3125 23.640625 -1.3125 
Q 14.984375 -1.3125 9.421875 5.9375 
Q 3.859375 13.1875 3.859375 24.265625 
Q 3.859375 35.59375 9.375 43.140625 
Q 14.890625 50.6875 24.03125 50.6875 
Q 32.90625 50.6875 38.53125 42.578125 
L 38.53125 66.65625 
z
M 38.53125 30.28125 
Q 38.53125 36.765625 34.5625 40.671875 
Q 30.609375 44.578125 25.34375 44.578125 
Q 19.625 44.578125 15.9375 39.5 
Q 12.25 34.421875 12.25 25.25 
Q 12.25 15.328125 15.640625 10.15625 
Q 19.046875 4.984375 24.953125 4.984375 
Q 30.328125 4.984375 34.421875 9.46875 
Q 38.53125 13.96875 38.53125 20.015625 
z
" id="FranklinGothic-Book-100"/>
      <path id="FranklinGothic-Book-32"/>
      <path d="M 30.03125 5.28125 
L 30.03125 -0.78125 
Q 25.984375 -1.3125 23 -1.3125 
Q 8.6875 -1.3125 8.6875 13.625 
L 8.6875 43.3125 
L -0.046875 43.3125 
L -0.046875 49.3125 
L 8.6875 49.3125 
L 9.03125 61.71875 
L 16.15625 62.40625 
L 16.15625 49.3125 
L 27.203125 49.3125 
L 27.203125 43.3125 
L 16.15625 43.3125 
L 16.15625 12.359375 
Q 16.15625 4.734375 24.078125 4.734375 
Q 26.703125 4.734375 30.03125 5.28125 
z
" id="FranklinGothic-Book-116"/>
      <path d="M 23.53125 27.984375 
L 23.53125 22.015625 
L 1.46875 22.015625 
L 1.46875 27.984375 
z
" id="FranklinGothic-Book-45"/>
      <path d="M 43.796875 49.3125 
L 26.765625 0 
L 18.796875 0 
L 1.171875 49.3125 
L 9.671875 49.3125 
L 23.390625 9.234375 
L 36.96875 49.3125 
z
" id="FranklinGothic-Book-118"/>
      <path d="M 47.953125 57.03125 
L 47.953125 50.921875 
Q 42.671875 50.921875 40.890625 49.703125 
Q 39.109375 48.484375 38.53125 45.3125 
Q 43.265625 39.84375 43.265625 33.40625 
Q 43.265625 26.65625 38.109375 21.828125 
Q 32.953125 17 24.265625 17 
Q 22.3125 17 20.90625 17.28125 
Q 18.21875 17.828125 17.53125 17.828125 
Q 16.21875 17.828125 14.359375 16.53125 
Q 12.5 15.234375 12.5 13.1875 
Q 12.5 10.25 15.1875 9.375 
Q 17.875 8.5 27.828125 8.25 
Q 36.28125 8.015625 40.3125 7.109375 
Q 44.34375 6.203125 47.125 3.09375 
Q 49.90625 0 49.90625 -4.5 
Q 49.90625 -18.609375 25.09375 -18.609375 
Q 13.328125 -18.609375 7.9375 -15.0625 
Q 2.546875 -11.53125 2.546875 -5.609375 
Q 2.546875 1.5625 10.0625 4.25 
Q 5.21875 7.421875 5.21875 12.203125 
Q 5.21875 17.921875 12.0625 20.953125 
Q 5.671875 26.125 5.671875 33.984375 
Q 5.671875 41.3125 11.140625 46 
Q 16.609375 50.6875 24.46875 50.6875 
Q 30.03125 50.6875 34.578125 48.578125 
Q 35.296875 53.421875 37.953125 55.265625 
Q 40.625 57.125 46.046875 57.125 
Q 46.578125 57.125 47.953125 57.03125 
z
M 24.515625 22.859375 
Q 29.390625 22.859375 32.46875 25.859375 
Q 35.546875 28.859375 35.546875 33.640625 
Q 35.546875 38.53125 32.34375 41.625 
Q 29.15625 44.734375 24.609375 44.734375 
Q 20.265625 44.734375 16.890625 41.828125 
Q 13.53125 38.921875 13.53125 33.546875 
Q 13.53125 28.765625 16.546875 25.8125 
Q 19.578125 22.859375 24.515625 22.859375 
z
M 15.328125 2 
Q 9.96875 -0.34375 9.96875 -4.78125 
Q 9.96875 -8.546875 14.375 -10.625 
Q 18.796875 -12.703125 25.640625 -12.703125 
Q 31.984375 -12.703125 37.25 -10.90625 
Q 42.53125 -9.125 42.53125 -4.890625 
Q 42.53125 -2.59375 40.96875 -1.125 
Q 39.40625 0.34375 36.6875 0.734375 
Q 33.984375 1.125 27.25 1.3125 
Q 19.1875 1.515625 15.328125 2 
z
" id="FranklinGothic-Book-103"/>
     </defs>
     <use xlink:href="#FranklinGothic-Book-67"/>
     <use x="57.910156" xlink:href="#FranklinGothic-Book-111"/>
     <use x="109.863281" xlink:href="#FranklinGothic-Book-109"/>
     <use x="190.384766" xlink:href="#FranklinGothic-Book-112"/>
     <use x="243.802734" xlink:href="#FranklinGothic-Book-97"/>
     <use x="296.683594" xlink:href="#FranklinGothic-Book-114"/>
     <use x="329.642578" xlink:href="#FranklinGothic-Book-101"/>
     <use x="381.693359" xlink:href="#FranklinGothic-Book-100"/>
     <use x="435.550781" xlink:href="#FranklinGothic-Book-32"/>
     <use x="460.550781" xlink:href="#FranklinGothic-Book-116"/>
     <use x="489.8125" xlink:href="#FranklinGothic-Book-111"/>
     <use x="541.765625" xlink:href="#FranklinGothic-Book-32"/>
     <use x="566.765625" xlink:href="#FranklinGothic-Book-49"/>
     <use x="624.033203" xlink:href="#FranklinGothic-Book-57"/>
     <use x="682.675781" xlink:href="#FranklinGothic-Book-57"/>
     <use x="737.193359" xlink:href="#FranklinGothic-Book-49"/>
     <use x="795.835938" xlink:href="#FranklinGothic-Book-45"/>
     <use x="820.835938" xlink:href="#FranklinGothic-Book-50"/>
     <use x="879.478516" xlink:href="#FranklinGothic-Book-48"/>
     <use x="938.121094" xlink:href="#FranklinGothic-Book-50"/>
     <use x="996.763672" xlink:href="#FranklinGothic-Book-48"/>
     <use x="1055.40625" xlink:href="#FranklinGothic-Book-32"/>
     <use x="1080.40625" xlink:href="#FranklinGothic-Book-97"/>
     <use x="1131.037109" xlink:href="#FranklinGothic-Book-118"/>
     <use x="1174.556641" xlink:href="#FranklinGothic-Book-101"/>
     <use x="1226.607422" xlink:href="#FranklinGothic-Book-114"/>
     <use x="1259.566406" xlink:href="#FranklinGothic-Book-97"/>
     <use x="1312.447266" xlink:href="#FranklinGothic-Book-103"/>
     <use x="1361.568359" xlink:href="#FranklinGothic-Book-101"/>
    </g>
   </g>
   <g id="text_19">
    <!-- Arab League States annual temperature -->
    <g style="fill:#696969;" transform="translate(144 42.76)scale(0.4 -0.4)">
     <defs>
      <path d="M 53.21875 0 
L 44.671875 0 
L 37.9375 19.484375 
L 13.28125 19.484375 
L 7.328125 0 
L 0.34375 0 
L 21.96875 66.65625 
L 31.5 66.65625 
z
M 36.1875 25.734375 
L 25.921875 57.765625 
L 15.578125 25.734375 
z
" id="FranklinGothic-Book-65"/>
      <path d="M 11.375 0 
L 7.671875 0 
L 7.671875 66.65625 
L 15.328125 66.65625 
L 15.328125 41.109375 
Q 20.609375 50.6875 29.890625 50.6875 
Q 38.375 50.6875 44.109375 44 
Q 49.859375 37.3125 49.859375 24.5625 
Q 49.859375 13.578125 44.21875 6.125 
Q 38.578125 -1.3125 29.546875 -1.3125 
Q 19.484375 -1.3125 14.109375 8.15625 
z
M 15.328125 19.34375 
Q 15.875 11.765625 20 8.34375 
Q 24.125 4.9375 28.71875 4.9375 
Q 34.578125 4.9375 38.15625 10.015625 
Q 41.75 15.09375 41.75 23.921875 
Q 41.75 33.453125 38.28125 38.890625 
Q 34.8125 44.34375 28.65625 44.34375 
Q 23.828125 44.34375 19.9375 40.453125 
Q 16.0625 36.578125 15.328125 30.421875 
z
" id="FranklinGothic-Book-98"/>
      <path d="M 47.703125 7.328125 
L 47.703125 0 
L 8.34375 0 
L 8.34375 66.65625 
L 16.890625 66.65625 
L 16.890625 7.328125 
z
" id="FranklinGothic-Book-76"/>
      <path d="M 46.484375 0 
L 39.59375 0 
L 39.59375 9.421875 
Q 34.328125 -1.3125 23.875 -1.3125 
Q 16.3125 -1.3125 11.984375 3.65625 
Q 7.671875 8.640625 7.671875 17.828125 
L 7.671875 49.3125 
L 15.328125 49.3125 
L 15.328125 17.828125 
Q 15.328125 10.5 18.375 7.734375 
Q 21.4375 4.984375 25.09375 4.984375 
Q 28.8125 4.984375 31.8125 7.078125 
Q 34.8125 9.1875 36.8125 13.0625 
Q 38.8125 16.9375 38.8125 21.53125 
L 38.8125 49.3125 
L 46.484375 49.3125 
z
" id="FranklinGothic-Book-117"/>
      <path d="M 1.03125 17.71875 
L 8.546875 19.4375 
Q 13.09375 5.8125 28.21875 5.8125 
Q 36.140625 5.8125 40.140625 9.15625 
Q 44.140625 12.5 44.140625 18.109375 
Q 44.140625 22.359375 41.078125 24.953125 
Q 38.03125 27.546875 34.03125 28.515625 
L 20.703125 31.84375 
Q 15.53125 33.15625 12.234375 35.03125 
Q 8.9375 36.921875 6.640625 40.828125 
Q 4.34375 44.734375 4.34375 49.75 
Q 4.34375 58.109375 10.640625 63.0625 
Q 16.9375 68.015625 26.8125 68.015625 
Q 44.96875 68.015625 50.6875 51.5625 
L 43.109375 49.3125 
Q 41.796875 55.171875 36.90625 58.171875 
Q 32.03125 61.1875 26.515625 61.1875 
Q 21.046875 61.1875 16.765625 58.296875 
Q 12.5 55.421875 12.5 50.140625 
Q 12.5 42.78125 23.34375 40.1875 
L 35.796875 37.203125 
Q 52.875 33.109375 52.875 18.796875 
Q 52.875 10.15625 46.453125 4.421875 
Q 40.046875 -1.3125 28.375 -1.3125 
Q 7.671875 -1.3125 1.03125 17.71875 
z
" id="FranklinGothic-Book-83"/>
      <path d="M 1.03125 12.796875 
L 8.34375 14.3125 
Q 10.796875 4.984375 23.78125 4.984375 
Q 28.5625 4.984375 31.875 7.125 
Q 35.203125 9.28125 35.203125 13.1875 
Q 35.203125 19 26.765625 20.5625 
L 16.359375 22.515625 
Q 10.25 23.6875 6.640625 27.09375 
Q 3.03125 30.515625 3.03125 36.140625 
Q 3.03125 42.328125 7.953125 46.5 
Q 12.890625 50.6875 21.234375 50.6875 
Q 37.3125 50.6875 41.0625 38.140625 
L 34.03125 36.625 
Q 31 44.34375 21.578125 44.34375 
Q 16.890625 44.34375 13.890625 42.40625 
Q 10.890625 40.484375 10.890625 37.015625 
Q 10.890625 31.546875 18.5625 30.125 
L 28.171875 28.421875 
Q 43.265625 25.6875 43.265625 13.8125 
Q 43.265625 7.03125 37.640625 2.859375 
Q 32.03125 -1.3125 22.703125 -1.3125 
Q 5.171875 -1.3125 1.03125 12.796875 
z
" id="FranklinGothic-Book-115"/>
      <path d="M 46.53125 0 
L 39.359375 0 
L 39.359375 31.6875 
Q 39.359375 38.53125 36.375 41.3125 
Q 33.40625 44.09375 29.15625 44.09375 
Q 23.296875 44.09375 19.3125 39.40625 
Q 15.328125 34.71875 15.328125 27.046875 
L 15.328125 0 
L 7.671875 0 
L 7.671875 49.3125 
L 14.796875 49.3125 
L 14.796875 40.234375 
Q 20.796875 50.6875 30.375 50.6875 
Q 35.890625 50.6875 39.765625 47.828125 
Q 43.65625 44.96875 45.09375 41.40625 
Q 46.53125 37.84375 46.53125 28.515625 
z
" id="FranklinGothic-Book-110"/>
      <path d="M 15.328125 0 
L 7.671875 0 
L 7.671875 66.65625 
L 15.328125 66.65625 
z
" id="FranklinGothic-Book-108"/>
     </defs>
     <use xlink:href="#FranklinGothic-Book-65"/>
     <use x="53.564453" xlink:href="#FranklinGothic-Book-114"/>
     <use x="86.523438" xlink:href="#FranklinGothic-Book-97"/>
     <use x="139.404297" xlink:href="#FranklinGothic-Book-98"/>
     <use x="193.115234" xlink:href="#FranklinGothic-Book-32"/>
     <use x="218.115234" xlink:href="#FranklinGothic-Book-76"/>
     <use x="267.089844" xlink:href="#FranklinGothic-Book-101"/>
     <use x="319.140625" xlink:href="#FranklinGothic-Book-97"/>
     <use x="372.021484" xlink:href="#FranklinGothic-Book-103"/>
     <use x="421.142578" xlink:href="#FranklinGothic-Book-117"/>
     <use x="475.292969" xlink:href="#FranklinGothic-Book-101"/>
     <use x="527.34375" xlink:href="#FranklinGothic-Book-32"/>
     <use x="552.34375" xlink:href="#FranklinGothic-Book-83"/>
     <use x="609.277344" xlink:href="#FranklinGothic-Book-116"/>
     <use x="640.039062" xlink:href="#FranklinGothic-Book-97"/>
     <use x="692.919922" xlink:href="#FranklinGothic-Book-116"/>
     <use x="721.931641" xlink:href="#FranklinGothic-Book-101"/>
     <use x="773.982422" xlink:href="#FranklinGothic-Book-115"/>
     <use x="820.369141" xlink:href="#FranklinGothic-Book-32"/>
     <use x="845.369141" xlink:href="#FranklinGothic-Book-97"/>
     <use x="898.25" xlink:href="#FranklinGothic-Book-110"/>
     <use x="952.449219" xlink:href="#FranklinGothic-Book-110"/>
     <use x="1006.648438" xlink:href="#FranklinGothic-Book-117"/>
     <use x="1060.798828" xlink:href="#FranklinGothic-Book-97"/>
     <use x="1113.679688" xlink:href="#FranklinGothic-Book-108"/>
     <use x="1136.677734" xlink:href="#FranklinGothic-Book-32"/>
     <use x="1161.677734" xlink:href="#FranklinGothic-Book-116"/>
     <use x="1190.689453" xlink:href="#FranklinGothic-Book-101"/>
     <use x="1242.740234" xlink:href="#FranklinGothic-Book-109"/>
     <use x="1323.261719" xlink:href="#FranklinGothic-Book-112"/>
     <use x="1376.679688" xlink:href="#FranklinGothic-Book-101"/>
     <use x="1428.730469" xlink:href="#FranklinGothic-Book-114"/>
     <use x="1461.689453" xlink:href="#FranklinGothic-Book-97"/>
     <use x="1514.570312" xlink:href="#FranklinGothic-Book-116"/>
     <use x="1545.332031" xlink:href="#FranklinGothic-Book-117"/>
     <use x="1599.482422" xlink:href="#FranklinGothic-Book-114"/>
     <use x="1632.441406" xlink:href="#FranklinGothic-Book-101"/>
    </g>
   </g>
   <g id="legend_1">
    <g id="line2d_18"/>
    <g id="text_20">
     <!-- HadCRUT5 (1900-2023) -->
     <g style="fill:#696969;" transform="translate(185.856 129.7184)scale(0.2 -0.2)">
      <defs>
       <path d="M 55.953125 0 
L 47.609375 0 
L 47.609375 31.734375 
L 16.703125 31.734375 
L 16.703125 0 
L 8.34375 0 
L 8.34375 66.65625 
L 16.703125 66.65625 
L 16.703125 39.0625 
L 47.609375 39.0625 
L 47.609375 66.65625 
L 55.953125 66.65625 
z
" id="FranklinGothic-Book-72"/>
       <path d="M 56.296875 0 
L 47.5625 0 
L 35.25 28.859375 
L 16.15625 28.859375 
L 16.15625 0 
L 8.34375 0 
L 8.34375 66.65625 
L 34.625 66.65625 
Q 45.3125 66.65625 50.453125 60.8125 
Q 55.609375 54.984375 55.609375 48.046875 
Q 55.609375 42.71875 52.734375 37.828125 
Q 49.859375 32.953125 43.21875 30.859375 
z
M 16.15625 35.640625 
L 33.59375 35.640625 
Q 40.484375 35.640625 43.875 39.28125 
Q 47.265625 42.921875 47.265625 48.1875 
Q 47.265625 53.46875 43.671875 56.390625 
Q 40.09375 59.328125 34.625 59.328125 
L 16.15625 59.328125 
z
" id="FranklinGothic-Book-82"/>
       <path d="M 46.34375 66.65625 
L 53.265625 66.65625 
L 53.265625 23.140625 
Q 53.265625 10.0625 46.84375 4.375 
Q 40.4375 -1.3125 30.03125 -1.3125 
Q 18.453125 -1.3125 12.890625 4.546875 
Q 7.328125 10.40625 7.328125 23.140625 
L 7.328125 66.65625 
L 15.671875 66.65625 
L 15.671875 23.140625 
Q 15.671875 15.375 17.46875 12.203125 
Q 19.28125 9.03125 22.9375 7.515625 
Q 26.609375 6 30.609375 6 
Q 38.328125 6 42.328125 10.046875 
Q 46.34375 14.109375 46.34375 23.140625 
z
" id="FranklinGothic-Book-85"/>
       <path d="M 28.421875 0 
L 20.125 0 
L 20.125 59.328125 
L 1.03125 59.328125 
L 1.03125 66.65625 
L 47.5625 66.65625 
L 47.5625 59.328125 
L 28.421875 59.328125 
z
" id="FranklinGothic-Book-84"/>
       <path d="M 24.703125 -16.65625 
L 19.578125 -16.65625 
Q 5.21875 2.203125 5.21875 25.09375 
Q 5.21875 46.96875 19.578125 66.65625 
L 24.703125 66.65625 
Q 12.359375 48.25 12.359375 25 
Q 12.359375 2.828125 24.703125 -16.65625 
z
" id="FranklinGothic-Book-40"/>
       <path d="M 19.34375 31.34375 
L 19.34375 37.984375 
L 26.953125 37.984375 
Q 35.296875 37.984375 38.890625 41.40625 
Q 42.484375 44.828125 42.484375 49.703125 
Q 42.484375 55.078125 38.46875 58.21875 
Q 34.46875 61.375 28.421875 61.375 
Q 17.1875 61.375 12.890625 50.53125 
L 5.375 52.6875 
Q 11.8125 68.015625 29.203125 68.015625 
Q 38.96875 68.015625 44.96875 62.8125 
Q 50.984375 57.625 50.984375 50.296875 
Q 50.984375 44.625 47.359375 40.40625 
Q 43.75 36.1875 38.09375 35.109375 
Q 44.4375 34.1875 49 29.78125 
Q 53.5625 25.390625 53.5625 18.40625 
Q 53.5625 10.0625 46.765625 4.375 
Q 39.984375 -1.3125 28.171875 -1.3125 
Q 18.796875 -1.3125 12.125 3.125 
Q 5.46875 7.5625 2.9375 14.9375 
L 10.6875 17.53125 
Q 14.203125 5.46875 28.03125 5.46875 
Q 37.015625 5.46875 40.9375 9.296875 
Q 44.875 13.140625 44.875 18.453125 
Q 44.875 24.21875 40.15625 27.78125 
Q 35.453125 31.34375 26.953125 31.34375 
z
" id="FranklinGothic-Book-51"/>
       <path d="M 4.640625 66.65625 
L 9.71875 66.65625 
Q 24.125 47.796875 24.125 24.90625 
Q 24.125 3.03125 9.71875 -16.65625 
L 4.640625 -16.65625 
Q 17 1.765625 17 25 
Q 17 47.171875 4.640625 66.65625 
z
" id="FranklinGothic-Book-41"/>
      </defs>
      <use xlink:href="#FranklinGothic-Book-72"/>
      <use x="64.257812" xlink:href="#FranklinGothic-Book-97"/>
      <use x="117.138672" xlink:href="#FranklinGothic-Book-100"/>
      <use x="170.996094" xlink:href="#FranklinGothic-Book-67"/>
      <use x="228.90625" xlink:href="#FranklinGothic-Book-82"/>
      <use x="289.310547" xlink:href="#FranklinGothic-Book-85"/>
      <use x="349.90625" xlink:href="#FranklinGothic-Book-84"/>
      <use x="398.441406" xlink:href="#FranklinGothic-Book-53"/>
      <use x="457.083984" xlink:href="#FranklinGothic-Book-32"/>
      <use x="482.083984" xlink:href="#FranklinGothic-Book-40"/>
      <use x="511.429688" xlink:href="#FranklinGothic-Book-49"/>
      <use x="568.697266" xlink:href="#FranklinGothic-Book-57"/>
      <use x="627.339844" xlink:href="#FranklinGothic-Book-48"/>
      <use x="685.982422" xlink:href="#FranklinGothic-Book-48"/>
      <use x="744.625" xlink:href="#FranklinGothic-Book-45"/>
      <use x="769.625" xlink:href="#FranklinGothic-Book-50"/>
      <use x="828.267578" xlink:href="#FranklinGothic-Book-48"/>
      <use x="886.910156" xlink:href="#FranklinGothic-Book-50"/>
      <use x="945.552734" xlink:href="#FranklinGothic-Book-51"/>
      <use x="1004.195312" xlink:href="#FranklinGothic-Book-41"/>
     </g>
    </g>
    <g id="line2d_19"/>
    <g id="text_21">
     <!-- NOAAGlobalTemp (1900-2023) -->
     <g style="fill:#e69f00;" transform="translate(185.856 157.04965)scale(0.2 -0.2)">
      <defs>
       <path d="M 57.421875 0 
L 49.3125 0 
L 14.84375 58.109375 
L 14.9375 53.71875 
Q 15.09375 51.21875 15.09375 49.515625 
L 15.09375 0 
L 8.34375 0 
L 8.34375 66.65625 
L 18.796875 66.65625 
L 51.03125 12.3125 
L 50.921875 16.9375 
Q 50.828125 19.671875 50.828125 21.78125 
L 50.828125 66.65625 
L 57.421875 66.65625 
z
" id="FranklinGothic-Book-78"/>
       <path d="M 31.34375 -1.3125 
Q 18.5 -1.3125 11.328125 8.671875 
Q 4.15625 18.65625 4.15625 33.15625 
Q 4.15625 48.296875 11.671875 58.15625 
Q 19.1875 68.015625 31.59375 68.015625 
Q 43.953125 68.015625 51.421875 58.328125 
Q 58.890625 48.640625 58.890625 33.890625 
Q 58.890625 19.734375 51.640625 9.203125 
Q 44.390625 -1.3125 31.34375 -1.3125 
z
M 31.546875 5.46875 
Q 40.28125 5.46875 45.203125 13.421875 
Q 50.140625 21.390625 50.140625 33.9375 
Q 50.140625 46.828125 45.03125 54 
Q 39.9375 61.1875 31.5 61.1875 
Q 22.953125 61.1875 17.921875 53.421875 
Q 12.890625 45.65625 12.890625 33.109375 
Q 12.890625 20.84375 17.96875 13.15625 
Q 23.046875 5.46875 31.546875 5.46875 
z
" id="FranklinGothic-Book-79"/>
       <path d="M 57.71875 33.59375 
L 57.71875 -0.875 
L 52.59375 -0.875 
L 50.296875 7.46875 
Q 44.140625 -1.3125 31.984375 -1.3125 
Q 18.796875 -1.3125 11.46875 8.59375 
Q 4.15625 18.5 4.15625 32.671875 
Q 4.15625 47.796875 11.90625 57.90625 
Q 19.671875 68.015625 33.015625 68.015625 
Q 51.421875 68.015625 57.03125 48.6875 
L 49.125 46.78125 
Q 47.40625 54.203125 42.71875 57.5625 
Q 38.03125 60.9375 32.46875 60.9375 
Q 22.609375 60.9375 17.921875 52.96875 
Q 13.234375 45.015625 13.234375 33.015625 
Q 13.234375 20.0625 18.484375 12.765625 
Q 23.734375 5.46875 32.765625 5.46875 
Q 39.796875 5.46875 44.5 10.125 
Q 49.21875 14.796875 49.21875 23 
Q 49.21875 24.515625 49.125 26.609375 
L 32.625 26.609375 
L 32.625 33.59375 
z
" id="FranklinGothic-Book-71"/>
      </defs>
      <use xlink:href="#FranklinGothic-Book-78"/>
      <use x="65.722656" xlink:href="#FranklinGothic-Book-79"/>
      <use x="127.058594" xlink:href="#FranklinGothic-Book-65"/>
      <use x="180.623047" xlink:href="#FranklinGothic-Book-65"/>
      <use x="231.5625" xlink:href="#FranklinGothic-Book-71"/>
      <use x="296.259766" xlink:href="#FranklinGothic-Book-108"/>
      <use x="319.257812" xlink:href="#FranklinGothic-Book-111"/>
      <use x="371.210938" xlink:href="#FranklinGothic-Book-98"/>
      <use x="424.921875" xlink:href="#FranklinGothic-Book-97"/>
      <use x="477.802734" xlink:href="#FranklinGothic-Book-108"/>
      <use x="500.800781" xlink:href="#FranklinGothic-Book-84"/>
      <use x="542.835938" xlink:href="#FranklinGothic-Book-101"/>
      <use x="594.886719" xlink:href="#FranklinGothic-Book-109"/>
      <use x="675.408203" xlink:href="#FranklinGothic-Book-112"/>
      <use x="728.826172" xlink:href="#FranklinGothic-Book-32"/>
      <use x="753.826172" xlink:href="#FranklinGothic-Book-40"/>
      <use x="783.171875" xlink:href="#FranklinGothic-Book-49"/>
      <use x="840.439453" xlink:href="#FranklinGothic-Book-57"/>
      <use x="899.082031" xlink:href="#FranklinGothic-Book-48"/>
      <use x="957.724609" xlink:href="#FranklinGothic-Book-48"/>
      <use x="1016.367188" xlink:href="#FranklinGothic-Book-45"/>
      <use x="1041.367188" xlink:href="#FranklinGothic-Book-50"/>
      <use x="1100.009766" xlink:href="#FranklinGothic-Book-48"/>
      <use x="1158.652344" xlink:href="#FranklinGothic-Book-50"/>
      <use x="1217.294922" xlink:href="#FranklinGothic-Book-51"/>
      <use x="1275.9375" xlink:href="#FranklinGothic-Book-41"/>
     </g>
    </g>
    <g id="line2d_20"/>
    <g id="text_22">
     <!-- GISTEMP (1900-2023) -->
     <g style="fill:#56b4e9;" transform="translate(185.856 184.3809)scale(0.2 -0.2)">
      <defs>
       <path d="M 16.703125 0 
L 8.34375 0 
L 8.34375 66.65625 
L 16.703125 66.65625 
z
" id="FranklinGothic-Book-73"/>
       <path d="M 51.46875 7.328125 
L 51.46875 0 
L 8.34375 0 
L 8.34375 66.65625 
L 50.53125 66.65625 
L 50.53125 59.328125 
L 16.703125 59.328125 
L 16.703125 38.140625 
L 43.5625 38.140625 
L 43.5625 31.34375 
L 16.703125 31.34375 
L 16.703125 7.328125 
z
" id="FranklinGothic-Book-69"/>
       <path d="M 72.703125 0 
L 64.59375 0 
L 64.59375 58.203125 
L 42.921875 0 
L 37.25 0 
L 15.4375 58.203125 
L 15.4375 0 
L 8.34375 0 
L 8.34375 66.65625 
L 20.75 66.65625 
L 40.828125 13.328125 
L 60.5 66.65625 
L 72.703125 66.65625 
z
" id="FranklinGothic-Book-77"/>
       <path d="M 16.703125 0 
L 8.34375 0 
L 8.34375 66.65625 
L 31.984375 66.65625 
Q 43.0625 66.65625 48.328125 60.625 
Q 53.609375 54.59375 53.609375 46.875 
Q 53.609375 38.28125 47.875 32.65625 
Q 42.140625 27.046875 32.859375 27.046875 
L 16.703125 27.046875 
z
M 16.703125 33.984375 
L 32.03125 33.984375 
Q 37.9375 33.984375 41.546875 37.515625 
Q 45.171875 41.0625 45.171875 46.875 
Q 45.171875 51.859375 41.9375 55.765625 
Q 38.71875 59.671875 32.625 59.671875 
L 16.703125 59.671875 
z
" id="FranklinGothic-Book-80"/>
      </defs>
      <use xlink:href="#FranklinGothic-Book-71"/>
      <use x="64.697266" xlink:href="#FranklinGothic-Book-73"/>
      <use x="89.697266" xlink:href="#FranklinGothic-Book-83"/>
      <use x="144.630859" xlink:href="#FranklinGothic-Book-84"/>
      <use x="193.166016" xlink:href="#FranklinGothic-Book-69"/>
      <use x="247.951172" xlink:href="#FranklinGothic-Book-77"/>
      <use x="328.957031" xlink:href="#FranklinGothic-Book-80"/>
      <use x="384.865234" xlink:href="#FranklinGothic-Book-32"/>
      <use x="409.865234" xlink:href="#FranklinGothic-Book-40"/>
      <use x="439.210938" xlink:href="#FranklinGothic-Book-49"/>
      <use x="496.478516" xlink:href="#FranklinGothic-Book-57"/>
      <use x="555.121094" xlink:href="#FranklinGothic-Book-48"/>
      <use x="613.763672" xlink:href="#FranklinGothic-Book-48"/>
      <use x="672.40625" xlink:href="#FranklinGothic-Book-45"/>
      <use x="697.40625" xlink:href="#FranklinGothic-Book-50"/>
      <use x="756.048828" xlink:href="#FranklinGothic-Book-48"/>
      <use x="814.691406" xlink:href="#FranklinGothic-Book-50"/>
      <use x="873.333984" xlink:href="#FranklinGothic-Book-51"/>
      <use x="931.976562" xlink:href="#FranklinGothic-Book-41"/>
     </g>
    </g>
    <g id="line2d_21"/>
    <g id="text_23">
     <!-- Berkeley Earth (1900-2023) -->
     <g style="fill:#009e73;" transform="translate(185.856 211.71215)scale(0.2 -0.2)">
      <defs>
       <path d="M 8.34375 0 
L 8.34375 66.65625 
L 34.71875 66.65625 
Q 44.671875 66.65625 49.484375 61.765625 
Q 54.296875 56.890625 54.296875 50.4375 
Q 54.296875 39.109375 42.484375 35.40625 
Q 49.515625 33.59375 52.921875 28.953125 
Q 56.34375 24.3125 56.34375 18.453125 
Q 56.34375 10.59375 51.046875 5.296875 
Q 45.75 0 34.71875 0 
z
M 16.40625 38.09375 
L 30.90625 38.09375 
Q 39.9375 38.09375 42.96875 41.53125 
Q 46 44.96875 46 49.609375 
Q 46 54.203125 42.75 57.03125 
Q 39.5 59.859375 33.0625 59.859375 
L 16.40625 59.859375 
z
M 16.40625 7.328125 
L 34.28125 7.328125 
Q 40.828125 7.328125 44.390625 10.5 
Q 47.953125 13.671875 47.953125 18.75 
Q 47.953125 22.3125 46.34375 25.359375 
Q 44.734375 28.421875 41.796875 30.078125 
Q 38.875 31.734375 33.0625 31.734375 
L 16.40625 31.734375 
z
" id="FranklinGothic-Book-66"/>
       <path d="M 48.390625 0 
L 40.4375 0 
L 26.03125 27.546875 
L 15.328125 15.234375 
L 15.328125 0 
L 7.671875 0 
L 7.671875 66.65625 
L 15.328125 66.65625 
L 15.328125 23.96875 
L 38.234375 49.3125 
L 46.4375 49.3125 
L 31 31.984375 
z
" id="FranklinGothic-Book-107"/>
       <path d="M 41.5 49.3125 
L 21.734375 -5.765625 
Q 17.4375 -17.671875 8.015625 -17.671875 
Q 5.03125 -17.671875 1.421875 -16.65625 
L 1.421875 -10.640625 
Q 4.390625 -11.328125 6.546875 -11.328125 
Q 10.203125 -11.328125 12.671875 -9.21875 
Q 15.140625 -7.125 17.578125 0.921875 
L 0.53125 49.3125 
L 8.34375 49.3125 
L 21.53125 12.25 
L 35.0625 49.3125 
z
" id="FranklinGothic-Book-121"/>
       <path d="M 46.34375 0 
L 38.671875 0 
L 38.671875 29.9375 
Q 38.671875 35.203125 38.015625 37.84375 
Q 37.359375 40.484375 34.890625 42.40625 
Q 32.421875 44.34375 29.203125 44.34375 
Q 23.296875 44.34375 19.3125 39.5 
Q 15.328125 34.671875 15.328125 26.5625 
L 15.328125 0 
L 7.671875 0 
L 7.671875 66.65625 
L 15.328125 66.65625 
L 15.328125 40.234375 
Q 20.5625 50.6875 30.28125 50.6875 
Q 34.625 50.6875 38.015625 48.96875 
Q 41.40625 47.265625 43.203125 44.484375 
Q 45.015625 41.703125 45.671875 38.984375 
Q 46.34375 36.28125 46.34375 29.9375 
z
" id="FranklinGothic-Book-104"/>
      </defs>
      <use xlink:href="#FranklinGothic-Book-66"/>
      <use x="60.449219" xlink:href="#FranklinGothic-Book-101"/>
      <use x="112.5" xlink:href="#FranklinGothic-Book-114"/>
      <use x="144.958984" xlink:href="#FranklinGothic-Book-107"/>
      <use x="192.806641" xlink:href="#FranklinGothic-Book-101"/>
      <use x="244.857422" xlink:href="#FranklinGothic-Book-108"/>
      <use x="267.855469" xlink:href="#FranklinGothic-Book-101"/>
      <use x="318.28125" xlink:href="#FranklinGothic-Book-121"/>
      <use x="359.785156" xlink:href="#FranklinGothic-Book-32"/>
      <use x="384.785156" xlink:href="#FranklinGothic-Book-69"/>
      <use x="439.570312" xlink:href="#FranklinGothic-Book-97"/>
      <use x="492.451172" xlink:href="#FranklinGothic-Book-114"/>
      <use x="528.785156" xlink:href="#FranklinGothic-Book-116"/>
      <use x="559.546875" xlink:href="#FranklinGothic-Book-104"/>
      <use x="613.550781" xlink:href="#FranklinGothic-Book-32"/>
      <use x="638.550781" xlink:href="#FranklinGothic-Book-40"/>
      <use x="667.896484" xlink:href="#FranklinGothic-Book-49"/>
      <use x="725.164062" xlink:href="#FranklinGothic-Book-57"/>
      <use x="783.806641" xlink:href="#FranklinGothic-Book-48"/>
      <use x="842.449219" xlink:href="#FranklinGothic-Book-48"/>
      <use x="901.091797" xlink:href="#FranklinGothic-Book-45"/>
      <use x="926.091797" xlink:href="#FranklinGothic-Book-50"/>
      <use x="984.734375" xlink:href="#FranklinGothic-Book-48"/>
      <use x="1043.376953" xlink:href="#FranklinGothic-Book-50"/>
      <use x="1102.019531" xlink:href="#FranklinGothic-Book-51"/>
      <use x="1160.662109" xlink:href="#FranklinGothic-Book-41"/>
     </g>
    </g>
    <g id="line2d_22"/>
    <g id="text_24">
     <!-- JRA-55 (1958-2023) -->
     <g style="fill:#d55e00;" transform="translate(185.856 239.246525)scale(0.2 -0.2)">
      <defs>
       <path d="M 29.6875 66.65625 
L 29.6875 20.359375 
Q 29.6875 8.25 24.21875 3.46875 
Q 18.75 -1.3125 9.71875 -1.3125 
Q 4.890625 -1.3125 0 0 
L 0 6.84375 
Q 4.78125 5.859375 8.6875 5.859375 
Q 14.265625 5.859375 16.890625 7.515625 
Q 19.53125 9.1875 20.4375 11.8125 
Q 21.34375 14.453125 21.34375 20.359375 
L 21.34375 66.65625 
z
" id="FranklinGothic-Book-74"/>
      </defs>
      <use xlink:href="#FranklinGothic-Book-74"/>
      <use x="37.353516" xlink:href="#FranklinGothic-Book-82"/>
      <use x="98.632812" xlink:href="#FranklinGothic-Book-65"/>
      <use x="153.947266" xlink:href="#FranklinGothic-Book-45"/>
      <use x="178.947266" xlink:href="#FranklinGothic-Book-53"/>
      <use x="237.589844" xlink:href="#FranklinGothic-Book-53"/>
      <use x="296.232422" xlink:href="#FranklinGothic-Book-32"/>
      <use x="321.232422" xlink:href="#FranklinGothic-Book-40"/>
      <use x="350.578125" xlink:href="#FranklinGothic-Book-49"/>
      <use x="407.845703" xlink:href="#FranklinGothic-Book-57"/>
      <use x="466.488281" xlink:href="#FranklinGothic-Book-53"/>
      <use x="525.130859" xlink:href="#FranklinGothic-Book-56"/>
      <use x="583.773438" xlink:href="#FranklinGothic-Book-45"/>
      <use x="608.773438" xlink:href="#FranklinGothic-Book-50"/>
      <use x="667.416016" xlink:href="#FranklinGothic-Book-48"/>
      <use x="726.058594" xlink:href="#FranklinGothic-Book-50"/>
      <use x="784.701172" xlink:href="#FranklinGothic-Book-51"/>
      <use x="843.34375" xlink:href="#FranklinGothic-Book-41"/>
     </g>
    </g>
    <g id="line2d_23"/>
    <g id="text_25">
     <!-- ERA5 (1979-2023) -->
     <g style="fill:#0072b2;" transform="translate(185.856 266.577775)scale(0.2 -0.2)">
      <defs>
       <path d="M 28.078125 0 
L 19.484375 0 
Q 19.484375 16.75 26.3125 32.59375 
Q 33.15625 48.4375 43.0625 59.328125 
L 6.890625 59.328125 
L 7.71875 66.65625 
L 51.765625 66.65625 
L 51.765625 61.671875 
Q 39.84375 47.3125 33.9375 31.78125 
Q 28.03125 16.265625 28.03125 2.296875 
Q 28.03125 1.515625 28.078125 0 
z
" id="FranklinGothic-Book-55"/>
      </defs>
      <use xlink:href="#FranklinGothic-Book-69"/>
      <use x="54.785156" xlink:href="#FranklinGothic-Book-82"/>
      <use x="116.064453" xlink:href="#FranklinGothic-Book-65"/>
      <use x="169.628906" xlink:href="#FranklinGothic-Book-53"/>
      <use x="228.271484" xlink:href="#FranklinGothic-Book-32"/>
      <use x="253.271484" xlink:href="#FranklinGothic-Book-40"/>
      <use x="282.617188" xlink:href="#FranklinGothic-Book-49"/>
      <use x="339.884766" xlink:href="#FranklinGothic-Book-57"/>
      <use x="392.777344" xlink:href="#FranklinGothic-Book-55"/>
      <use x="451.419922" xlink:href="#FranklinGothic-Book-57"/>
      <use x="510.0625" xlink:href="#FranklinGothic-Book-45"/>
      <use x="535.0625" xlink:href="#FranklinGothic-Book-50"/>
      <use x="593.705078" xlink:href="#FranklinGothic-Book-48"/>
      <use x="652.347656" xlink:href="#FranklinGothic-Book-50"/>
      <use x="710.990234" xlink:href="#FranklinGothic-Book-51"/>
      <use x="769.632812" xlink:href="#FranklinGothic-Book-41"/>
     </g>
    </g>
   </g>
   <g id="line2d_24">
    <path clip-path="url(#pfb1ac09078)" d="M 184.581818 421.381615 
L 191.180488 396.824692 
L 197.779157 407.923181 
L 204.377827 484.466342 
L 210.976497 469.524512 
L 217.575166 472.235079 
L 224.173836 463.226828 
L 230.772506 510.317864 
L 237.371175 464.13035 
L 243.969845 428.043405 
L 250.568514 473.664532 
L 257.167184 490.39992 
L 263.765854 464.77765 
L 270.364523 467.94672 
L 276.963193 423.782017 
L 283.561863 401.382759 
L 290.160532 438.170945 
L 296.759202 469.564969 
L 303.357871 472.059769 
L 309.956541 422.109827 
L 316.555211 460.934309 
L 323.15388 462.539072 
L 329.75255 430.255012 
L 336.35122 453.328541 
L 342.949889 389.421204 
L 349.548559 437.887751 
L 356.147228 389.407719 
L 362.745898 399.373434 
L 369.344568 398.159747 
L 375.943237 442.688556 
L 382.541907 406.601611 
L 389.140576 374.870452 
L 395.739246 417.834954 
L 402.337916 428.879501 
L 408.936585 438.224886 
L 415.535255 418.239516 
L 422.133925 410.539349 
L 428.732594 383.150491 
L 435.331264 448.743503 
L 441.929933 406.210534 
L 448.528603 389.650456 
L 455.127273 372.726272 
L 461.725942 382.017717 
L 468.324612 439.087952 
L 474.923282 409.703254 
L 481.521951 414.220865 
L 488.120621 404.106811 
L 494.71929 351.19008 
L 501.31796 444.643939 
L 507.91663 457.279764 
L 514.515299 453.706132 
L 521.113969 394.869308 
L 527.712639 387.007317 
L 534.311308 422.163769 
L 540.909978 426.384701 
L 547.508647 347.994039 
L 554.107317 448.824415 
L 560.705987 438.845215 
L 567.304656 354.062471 
L 573.903326 432.250852 
L 580.501996 353.617453 
L 587.100665 424.496744 
L 593.699335 365.727347 
L 600.298004 367.197256 
L 606.896674 440.045416 
L 613.495344 432.399191 
L 620.094013 362.585248 
L 626.692683 460.974765 
L 633.291353 424.901306 
L 639.890022 348.155864 
L 646.488692 390.041533 
L 653.087361 454.393888 
L 659.686031 441.892917 
L 666.284701 394.410804 
L 672.88337 446.397042 
L 679.48204 452.856551 
L 686.08071 448.999725 
L 692.679379 375.585178 
L 699.278049 376.879777 
L 705.876718 333.672538 
L 712.475388 357.433823 
L 719.074058 356.948348 
L 725.672727 424.725996 
L 732.271397 397.364108 
L 738.870067 408.152432 
L 745.468736 372.267769 
L 752.067406 395.165987 
L 758.666075 311.313736 
L 765.264745 340.118562 
L 771.863415 379.536402 
L 778.462084 319.661202 
L 785.060754 373.710707 
L 791.659424 440.841055 
L 798.258093 362.706616 
L 804.856763 332.027319 
L 811.455432 329.626917 
L 818.054102 309.425779 
L 824.652772 337.826043 
L 831.251441 271.653159 
L 837.850111 271.302538 
L 844.44878 316.93715 
L 851.04745 263.346149 
L 857.64612 273.554601 
L 864.244789 268.03907 
L 870.843459 287.754733 
L 877.442129 277.950843 
L 884.040798 282.819075 
L 890.639468 288.590828 
L 897.238137 290.276504 
L 903.836807 256.38768 
L 910.435477 145.699472 
L 917.034146 289.184186 
L 923.632816 268.942592 
L 930.231486 265.449872 
L 936.830155 232.302746 
L 943.428825 237.009152 
L 950.027494 196.83613 
L 956.626164 233.556889 
L 963.224834 223.159641 
L 969.823503 248.255981 
L 976.422173 226.059003 
L 983.020843 176.37877 
L 989.619512 226.530992 
L 996.218182 172.818623 
" style="fill:none;stroke:#009e73;stroke-linecap:round;stroke-width:3;"/>
   </g>
   <g id="line2d_25">
    <path clip-path="url(#pfb1ac09078)" d="M 184.581818 409.986448 
L 191.180488 408.031064 
L 197.779157 379.549888 
L 204.377827 454.083723 
L 210.976497 440.396037 
L 217.575166 438.063062 
L 224.173836 440.692716 
L 230.772506 473.543163 
L 237.371175 453.827501 
L 243.969845 428.313114 
L 250.568514 461.46024 
L 257.167184 470.589859 
L 263.765854 462.094054 
L 270.364523 459.491371 
L 276.963193 419.938677 
L 283.561863 385.537408 
L 290.160532 419.601542 
L 296.759202 472.423875 
L 303.357871 459.545312 
L 309.956541 404.214694 
L 316.555211 450.226897 
L 323.15388 454.137665 
L 329.75255 427.868095 
L 336.35122 451.103449 
L 342.949889 386.373503 
L 349.548559 440.396037 
L 356.147228 387.303996 
L 362.745898 385.94197 
L 369.344568 388.11312 
L 375.943237 433.801674 
L 382.541907 394.343377 
L 389.140576 369.665085 
L 395.739246 425.737401 
L 402.337916 427.841124 
L 408.936585 421.786177 
L 415.535255 402.137942 
L 422.133925 392.630731 
L 428.732594 368.195176 
L 435.331264 433.437568 
L 441.929933 400.492722 
L 448.528603 395.044618 
L 455.127273 375.113189 
L 461.725942 374.96485 
L 468.324612 419.668969 
L 474.923282 407.707414 
L 481.521951 409.932506 
L 488.120621 404.430461 
L 494.71929 349.234696 
L 501.31796 440.841055 
L 507.91663 446.100363 
L 514.515299 436.566182 
L 521.113969 402.367194 
L 527.712639 380.035362 
L 534.311308 423.876415 
L 540.909978 422.312108 
L 547.508647 353.158949 
L 554.107317 453.409453 
L 560.705987 435.258097 
L 567.304656 360.926543 
L 573.903326 432.466618 
L 580.501996 355.963914 
L 587.100665 416.567325 
L 593.699335 366.104938 
L 600.298004 366.752238 
L 606.896674 438.265343 
L 613.495344 424.267492 
L 620.094013 358.795849 
L 626.692683 463.226828 
L 633.291353 421.341159 
L 639.890022 362.463879 
L 646.488692 387.398394 
L 653.087361 447.920893 
L 659.686031 445.008045 
L 666.284701 395.988597 
L 672.88337 450.955109 
L 679.48204 441.690636 
L 686.08071 446.086878 
L 692.679379 394.195038 
L 699.278049 396.892119 
L 705.876718 343.38203 
L 712.475388 374.627715 
L 719.074058 364.230467 
L 725.672727 419.331834 
L 732.271397 399.09024 
L 738.870067 401.059109 
L 745.468736 363.785449 
L 752.067406 385.888028 
L 758.666075 320.75352 
L 765.264745 340.523124 
L 771.863415 377.176456 
L 778.462084 327.132117 
L 785.060754 384.633885 
L 791.659424 444.091038 
L 798.258093 370.703462 
L 804.856763 333.22752 
L 811.455432 329.586461 
L 818.054102 321.791896 
L 824.652772 337.448452 
L 831.251441 276.952923 
L 837.850111 268.605457 
L 844.44878 316.964121 
L 851.04745 261.714415 
L 857.64612 272.462283 
L 864.244789 265.706095 
L 870.843459 289.332525 
L 877.442129 280.243362 
L 884.040798 278.679055 
L 890.639468 286.203911 
L 897.238137 285.138564 
L 903.836807 255.308848 
L 910.435477 163.810372 
L 917.034146 287.363656 
L 923.632816 261.417736 
L 930.231486 263.130383 
L 936.830155 235.728039 
L 943.428825 233.071414 
L 950.027494 197.294634 
L 956.626164 224.912744 
L 963.224834 216.834986 
L 969.823503 240.137766 
L 976.422173 218.736428 
L 983.020843 171.294772 
L 989.619512 212.209492 
L 996.218182 157.189038 
" style="fill:none;stroke:#56b4e9;stroke-linecap:round;stroke-width:3;"/>
   </g>
   <g id="line2d_26">
    <path clip-path="url(#pfb1ac09078)" d="M 184.581818 435.635689 
L 191.180488 396.554984 
L 197.779157 403.108891 
L 204.377827 465.074329 
L 210.976497 482.713239 
L 217.575166 458.911498 
L 224.173836 459.949875 
L 230.772506 515.536716 
L 237.371175 453.288084 
L 243.969845 442.203081 
L 250.568514 477.845008 
L 257.167184 494.620852 
L 263.765854 468.917669 
L 270.364523 459.208177 
L 276.963193 456.066078 
L 283.561863 428.056891 
L 290.160532 451.332701 
L 296.759202 484.08875 
L 303.357871 497.317933 
L 309.956541 426.654409 
L 316.555211 468.000662 
L 323.15388 466.288015 
L 329.75255 455.014216 
L 336.35122 478.869898 
L 342.949889 398.604765 
L 349.548559 456.376242 
L 356.147228 411.361959 
L 362.745898 401.328817 
L 369.344568 404.066355 
L 375.943237 437.591072 
L 382.541907 405.212614 
L 389.140576 356.867436 
L 395.739246 422.393021 
L 402.337916 424.672054 
L 408.936585 431.590067 
L 415.535255 408.422141 
L 422.133925 391.120365 
L 428.732594 385.078904 
L 435.331264 442.149139 
L 441.929933 407.275881 
L 448.528603 391.444015 
L 455.127273 370.32587 
L 461.725942 384.930564 
L 468.324612 437.752897 
L 474.923282 420.707345 
L 481.521951 422.676214 
L 488.120621 415.852599 
L 494.71929 361.115338 
L 501.31796 449.539142 
L 507.91663 443.308884 
L 514.515299 449.4852 
L 521.113969 400.384839 
L 527.712639 402.164912 
L 534.311308 426.506069 
L 540.909978 436.728006 
L 547.508647 366.024026 
L 554.107317 456.64595 
L 560.705987 439.317204 
L 567.304656 368.734592 
L 573.903326 434.273663 
L 580.501996 364.83731 
L 587.100665 434.732166 
L 593.699335 378.943044 
L 600.298004 371.566528 
L 606.896674 439.977989 
L 613.495344 433.720761 
L 620.094013 367.804099 
L 626.692683 468.728874 
L 633.291353 423.04032 
L 639.890022 347.238856 
L 646.488692 395.894199 
L 653.087361 452.492445 
L 659.686031 438.737332 
L 666.284701 399.359948 
L 672.88337 452.141825 
L 679.48204 454.609654 
L 686.08071 446.248703 
L 692.679379 399.872394 
L 699.278049 399.494802 
L 705.876718 344.37995 
L 712.475388 374.344521 
L 719.074058 372.955524 
L 725.672727 418.104662 
L 732.271397 397.997922 
L 738.870067 400.142102 
L 745.468736 365.322785 
L 752.067406 387.236569 
L 758.666075 315.359358 
L 765.264745 338.365459 
L 771.863415 383.824761 
L 778.462084 327.617591 
L 785.060754 377.45965 
L 791.659424 438.804759 
L 798.258093 364.270923 
L 804.856763 349.531375 
L 811.455432 326.929836 
L 818.054102 310.302331 
L 824.652772 334.54909 
L 831.251441 267.958158 
L 837.850111 274.930112 
L 844.44878 318.703738 
L 851.04745 267.324344 
L 857.64612 269.589892 
L 864.244789 267.931187 
L 870.843459 290.249533 
L 877.442129 272.934272 
L 884.040798 275.145879 
L 890.639468 285.32736 
L 897.238137 287.538966 
L 903.836807 258.140783 
L 910.435477 152.132011 
L 917.034146 288.739168 
L 923.632816 265.099252 
L 930.231486 264.573321 
L 936.830155 240.501872 
L 943.428825 243.765341 
L 950.027494 197.105838 
L 956.626164 232.167892 
L 963.224834 217.306975 
L 969.823503 242.443771 
L 976.422173 219.801775 
L 983.020843 171.780246 
L 989.619512 222.943875 
L 996.218182 160.304166 
" style="fill:none;stroke:#e69f00;stroke-linecap:round;stroke-width:3;"/>
   </g>
   <g id="line2d_27">
    <path clip-path="url(#pfb1ac09078)" d="M 184.581818 425.575576 
L 191.180488 394.720969 
L 197.779157 410.997853 
L 204.377827 490.39992 
L 210.976497 487.675868 
L 217.575166 467.933235 
L 224.173836 436.808919 
L 230.772506 483.792071 
L 237.371175 452.505931 
L 243.969845 410.620262 
L 250.568514 474.460171 
L 257.167184 489.240175 
L 263.765854 440.234212 
L 270.364523 453.638705 
L 276.963193 428.232201 
L 283.561863 407.532104 
L 290.160532 442.230052 
L 296.759202 469.389658 
L 303.357871 466.382413 
L 309.956541 402.933581 
L 316.555211 457.198852 
L 323.15388 435.83797 
L 329.75255 428.785103 
L 336.35122 463.065003 
L 342.949889 393.588195 
L 349.548559 449.835821 
L 356.147228 401.315332 
L 362.745898 399.818452 
L 369.344568 388.059178 
L 375.943237 428.043405 
L 382.541907 415.029989 
L 389.140576 373.737678 
L 395.739246 430.335924 
L 402.337916 427.301708 
L 408.936585 437.901237 
L 415.535255 389.690912 
L 422.133925 376.933719 
L 428.732594 364.500175 
L 435.331264 419.129552 
L 441.929933 388.908759 
L 448.528603 382.327881 
L 455.127273 371.229392 
L 461.725942 384.013557 
L 468.324612 441.946858 
L 474.923282 415.987453 
L 481.521951 429.688625 
L 488.120621 400.155587 
L 494.71929 362.908897 
L 501.31796 446.612809 
L 507.91663 455.877282 
L 514.515299 458.479965 
L 521.113969 403.742705 
L 527.712639 391.808121 
L 534.311308 432.938608 
L 540.909978 438.656419 
L 547.508647 368.990815 
L 554.107317 456.956115 
L 560.705987 455.310895 
L 567.304656 382.112115 
L 573.903326 457.14491 
L 580.501996 375.652605 
L 587.100665 435.905397 
L 593.699335 384.94405 
L 600.298004 381.329961 
L 606.896674 450.415693 
L 613.495344 436.053736 
L 620.094013 379.023957 
L 626.692683 471.870973 
L 633.291353 431.509155 
L 639.890022 359.658915 
L 646.488692 395.718889 
L 653.087361 461.257959 
L 659.686031 442.32445 
L 666.284701 416.216705 
L 672.88337 454.178121 
L 679.48204 455.594089 
L 686.08071 444.765308 
L 692.679379 396.959546 
L 699.278049 390.149416 
L 705.876718 342.990954 
L 712.475388 371.741838 
L 719.074058 372.254283 
L 725.672727 418.644078 
L 732.271397 393.345457 
L 738.870067 395.705403 
L 745.468736 370.730432 
L 752.067406 394.343377 
L 758.666075 315.723464 
L 765.264745 338.904876 
L 771.863415 380.345526 
L 778.462084 336.018999 
L 785.060754 376.057168 
L 791.659424 445.736257 
L 798.258093 362.544791 
L 804.856763 353.603968 
L 811.455432 334.845769 
L 818.054102 315.318902 
L 824.652772 327.91427 
L 831.251441 275.213306 
L 837.850111 282.576337 
L 844.44878 320.820947 
L 851.04745 268.403176 
L 857.64612 275.064966 
L 864.244789 267.027665 
L 870.843459 281.726757 
L 877.442129 275.995459 
L 884.040798 284.626119 
L 890.639468 279.461209 
L 897.238137 282.427998 
L 903.836807 251.007003 
L 910.435477 137.149725 
L 917.034146 285.448729 
L 923.632816 261.094086 
L 930.231486 260.986203 
L 936.830155 241.054774 
L 943.428825 230.131596 
L 950.027494 190.632843 
L 956.626164 230.805866 
L 963.224834 226.746759 
L 969.823503 245.828608 
L 976.422173 230.981176 
L 983.020843 184.065451 
L 989.619512 225.344277 
L 996.218182 185.009429 
" style="fill:none;stroke:#696969;stroke-linecap:round;stroke-width:3;"/>
   </g>
  </g>
  <g id="text_26">
   <g id="patch_4">
    <path d="M 876.069375 646.18275 
L 1040.76 646.18275 
L 1040.76 628.26525 
L 876.069375 628.26525 
z
" style="fill:#ffffff;stroke:#ffffff;stroke-linejoin:miter;"/>
   </g>
   <!-- Created: 2024-02-08 11:47:29 -->
   <g style="fill:#696969;" transform="translate(880.029375 640.224)scale(0.12 -0.12)">
    <defs>
     <path d="M 17.96875 49.3125 
L 17.96875 38.375 
L 7.078125 38.375 
L 7.078125 49.3125 
z
M 17.96875 10.984375 
L 17.96875 0 
L 7.078125 0 
L 7.078125 10.984375 
z
" id="FranklinGothic-Book-58"/>
    </defs>
    <use xlink:href="#FranklinGothic-Book-67"/>
    <use x="57.910156" xlink:href="#FranklinGothic-Book-114"/>
    <use x="90.869141" xlink:href="#FranklinGothic-Book-101"/>
    <use x="142.919922" xlink:href="#FranklinGothic-Book-97"/>
    <use x="195.800781" xlink:href="#FranklinGothic-Book-116"/>
    <use x="224.8125" xlink:href="#FranklinGothic-Book-101"/>
    <use x="276.863281" xlink:href="#FranklinGothic-Book-100"/>
    <use x="330.720703" xlink:href="#FranklinGothic-Book-58"/>
    <use x="355.720703" xlink:href="#FranklinGothic-Book-32"/>
    <use x="380.720703" xlink:href="#FranklinGothic-Book-50"/>
    <use x="439.363281" xlink:href="#FranklinGothic-Book-48"/>
    <use x="498.005859" xlink:href="#FranklinGothic-Book-50"/>
    <use x="552.273438" xlink:href="#FranklinGothic-Book-52"/>
    <use x="610.916016" xlink:href="#FranklinGothic-Book-45"/>
    <use x="635.916016" xlink:href="#FranklinGothic-Book-48"/>
    <use x="694.558594" xlink:href="#FranklinGothic-Book-50"/>
    <use x="753.201172" xlink:href="#FranklinGothic-Book-45"/>
    <use x="778.201172" xlink:href="#FranklinGothic-Book-48"/>
    <use x="836.84375" xlink:href="#FranklinGothic-Book-56"/>
    <use x="895.486328" xlink:href="#FranklinGothic-Book-32"/>
    <use x="920.486328" xlink:href="#FranklinGothic-Book-49"/>
    <use x="977.378906" xlink:href="#FranklinGothic-Book-49"/>
    <use x="1036.021484" xlink:href="#FranklinGothic-Book-58"/>
    <use x="1061.021484" xlink:href="#FranklinGothic-Book-52"/>
    <use x="1113.164062" xlink:href="#FranklinGothic-Book-55"/>
    <use x="1164.181641" xlink:href="#FranklinGothic-Book-58"/>
    <use x="1189.181641" xlink:href="#FranklinGothic-Book-50"/>
    <use x="1247.824219" xlink:href="#FranklinGothic-Book-57"/>
   </g>
  </g>
 </g>
 <defs>
  <clipPath id="pfb1ac09078">
   <rect height="498.96" width="892.8" x="144" y="77.76"/>
  </clipPath>
 </defs>
</svg>
