<?xml version="1.0" encoding="utf-8" standalone="no"?>
<!DOCTYPE svg PUBLIC "-//W3C//DTD SVG 1.1//EN"
  "http://www.w3.org/Graphics/SVG/1.1/DTD/svg11.dtd">
<!-- Created with matplotlib (https://matplotlib.org/) -->
<svg height="648pt" version="1.1" viewBox="0 0 1152 648" width="1152pt" xmlns="http://www.w3.org/2000/svg" xmlns:xlink="http://www.w3.org/1999/xlink">
 <metadata>
  <rdf:RDF xmlns:cc="http://creativecommons.org/ns#" xmlns:dc="http://purl.org/dc/elements/1.1/" xmlns:rdf="http://www.w3.org/1999/02/22-rdf-syntax-ns#">
   <cc:Work>
    <dc:type rdf:resource="http://purl.org/dc/dcmitype/StillImage"/>
    <dc:date>2022-08-29T17:53:00.280974</dc:date>
    <dc:format>image/svg+xml</dc:format>
    <dc:creator>
     <cc:Agent>
      <dc:title>Matplotlib v3.3.1, https://matplotlib.org/</dc:title>
     </cc:Agent>
    </dc:creator>
   </cc:Work>
  </rdf:RDF>
 </metadata>
 <defs>
  <style type="text/css">*{stroke-linecap:butt;stroke-linejoin:round;}</style>
 </defs>
 <g id="figure_1">
  <g id="patch_1">
   <path d="M 0 648 
L 1152 648 
L 1152 0 
L 0 0 
z
" style="fill:#ffffff;"/>
  </g>
  <g id="axes_1">
   <g id="patch_2">
    <path d="M 144 576.72 
L 1036.8 576.72 
L 1036.8 77.76 
L 144 77.76 
z
" style="fill:none;"/>
   </g>
   <g id="line2d_1">
    <path clip-path="url(#p1599e812bf)" d="M 714.493163 330.603194 
L 721.200902 324.135513 
L 727.90864 354.887179 
L 734.616379 364.028167 
L 741.324117 295.419011 
L 748.031856 342.538221 
L 754.739594 378.360548 
L 761.447333 331.776 
L 768.155071 247.954859 
L 774.86281 293.159635 
L 781.570548 359.267954 
L 788.278287 252.697825 
L 794.986026 295.229293 
L 801.693764 351.472243 
L 808.401503 302.386859 
L 815.109241 322.910966 
L 821.81698 282.552639 
L 828.524718 297.971589 
L 835.232457 281.552304 
L 841.940195 185.830631 
L 848.647934 309.854875 
L 855.355672 321.755407 
L 862.063411 293.677049 
L 868.77115 252.646084 
L 875.478888 227.068563 
L 882.186627 227.20654 
L 888.894365 182.088 
L 895.602104 223.670875 
L 902.309842 224.48149 
L 909.017581 256.561186 
L 915.725319 178.845536 
L 922.433058 132.692167 
L 929.140796 218.151787 
L 935.848535 216.099376 
L 942.556273 160.442829 
L 949.264012 168.393764 
L 955.971751 156.32076 
L 962.679489 101.388593 
L 969.387228 138.521703 
L 976.094966 143.954555 
L 982.802705 120.343209 
L 989.510443 112.306038 
L 996.218182 100.44 
" style="fill:none;stroke:#0072b2;stroke-linecap:round;stroke-width:3;"/>
   </g>
   <g id="patch_3">
    <path d="M 144 576.72 
L 1036.8 576.72 
" style="fill:none;stroke:#d3d3d3;stroke-linecap:square;stroke-linejoin:miter;stroke-width:1.25;"/>
   </g>
   <g id="matplotlib.axis_1">
    <g id="xtick_1">
     <g id="line2d_2">
      <defs>
       <path d="M 0 0 
L 0 6 
" id="m308e5e449a" style="stroke:#696969;stroke-width:1.25;"/>
      </defs>
      <g>
       <use style="fill:#696969;stroke:#696969;stroke-width:1.25;" x="184.581818" xlink:href="#m308e5e449a" y="576.72"/>
      </g>
     </g>
     <g id="text_1">
      <!-- 1900 -->
      <g style="fill:#696969;" transform="translate(167.092756 596.218438)scale(0.15 -0.15)">
       <defs>
        <path d="M 55.859375 6.203125 
L 55.859375 0 
L 9.1875 0 
L 9.1875 6.203125 
L 29.203125 6.203125 
L 29.203125 57.671875 
Q 20.359375 48.4375 10.84375 43.265625 
L 10.84375 51.65625 
Q 23.96875 58.546875 31.203125 68.015625 
L 37.15625 68.015625 
L 37.15625 6.203125 
z
" id="FranklinGothic-Book-49"/>
        <path d="M 5.71875 12.15625 
L 12.40625 14.59375 
Q 16.546875 5.375 26.375 5.375 
Q 35.890625 5.375 40.703125 13.375 
Q 45.515625 21.390625 45.65625 35.109375 
Q 39.109375 23.09375 25.984375 23.09375 
Q 16.703125 23.09375 10.40625 29.421875 
Q 4.109375 35.75 4.109375 45.0625 
Q 4.109375 54.546875 10.71875 61.28125 
Q 17.328125 68.015625 27.59375 68.015625 
Q 40.140625 68.015625 46.828125 59.203125 
Q 53.515625 50.390625 53.515625 34.96875 
Q 53.515625 18.75 46.4375 8.71875 
Q 39.359375 -1.3125 26.265625 -1.3125 
Q 10.984375 -1.3125 5.71875 12.15625 
z
M 27.828125 29.78125 
Q 34.71875 29.78125 39.375 34.59375 
Q 44.046875 39.40625 44.046875 45.84375 
Q 44.046875 52.09375 39.625 56.578125 
Q 35.203125 61.078125 27.984375 61.078125 
Q 20.65625 61.078125 16.40625 56.46875 
Q 12.15625 51.859375 12.15625 45.21875 
Q 12.15625 38.09375 16.859375 33.9375 
Q 21.578125 29.78125 27.828125 29.78125 
z
" id="FranklinGothic-Book-57"/>
        <path d="M 29.390625 -1.3125 
Q 17.875 -1.3125 10.984375 8.671875 
Q 4.109375 18.65625 4.109375 33.453125 
Q 4.109375 48 10.640625 58 
Q 17.1875 68.015625 29.15625 68.015625 
Q 41.65625 68.015625 48.125 57.5625 
Q 54.59375 47.125 54.59375 33.0625 
Q 54.59375 19.28125 47.953125 8.984375 
Q 41.3125 -1.3125 29.390625 -1.3125 
z
M 29.4375 5.21875 
Q 37.890625 5.21875 41.9375 12.859375 
Q 46 20.515625 46 32.078125 
Q 46 44.734375 41.84375 53.125 
Q 37.703125 61.53125 29.046875 61.53125 
Q 20.703125 61.53125 16.625 53.859375 
Q 12.546875 46.1875 12.546875 33.6875 
Q 12.546875 20.703125 16.84375 12.953125 
Q 21.140625 5.21875 29.4375 5.21875 
z
" id="FranklinGothic-Book-48"/>
       </defs>
       <use xlink:href="#FranklinGothic-Book-49"/>
       <use x="57.267578" xlink:href="#FranklinGothic-Book-57"/>
       <use x="115.910156" xlink:href="#FranklinGothic-Book-48"/>
       <use x="174.552734" xlink:href="#FranklinGothic-Book-48"/>
      </g>
     </g>
    </g>
    <g id="xtick_2">
     <g id="line2d_3">
      <g>
       <use style="fill:#696969;stroke:#696969;stroke-width:1.25;" x="318.736589" xlink:href="#m308e5e449a" y="576.72"/>
      </g>
     </g>
     <g id="text_2">
      <!-- 1920 -->
      <g style="fill:#696969;" transform="translate(301.247527 596.218438)scale(0.15 -0.15)">
       <defs>
        <path d="M 52.484375 6.9375 
L 52.484375 0 
L 5.171875 0 
L 5.171875 6.9375 
Q 33.203125 27.9375 38.59375 34.59375 
Q 44 41.265625 44 47.796875 
Q 44 53.90625 39.453125 57.65625 
Q 34.90625 61.421875 29 61.421875 
Q 22.90625 61.421875 18.21875 57.296875 
Q 13.53125 53.171875 12.9375 46.09375 
L 5.171875 48.4375 
Q 10.0625 68.015625 29.109375 68.015625 
Q 39.40625 68.015625 45.84375 62.15625 
Q 52.296875 56.296875 52.296875 47.859375 
Q 52.296875 42.046875 49.234375 36.671875 
Q 46.1875 31.296875 37.6875 23.828125 
Q 29.203125 16.359375 15.71875 6.9375 
z
" id="FranklinGothic-Book-50"/>
       </defs>
       <use xlink:href="#FranklinGothic-Book-49"/>
       <use x="57.267578" xlink:href="#FranklinGothic-Book-57"/>
       <use x="115.910156" xlink:href="#FranklinGothic-Book-50"/>
       <use x="174.552734" xlink:href="#FranklinGothic-Book-48"/>
      </g>
     </g>
    </g>
    <g id="xtick_3">
     <g id="line2d_4">
      <g>
       <use style="fill:#696969;stroke:#696969;stroke-width:1.25;" x="452.89136" xlink:href="#m308e5e449a" y="576.72"/>
      </g>
     </g>
     <g id="text_3">
      <!-- 1940 -->
      <g style="fill:#696969;" transform="translate(435.439797 596.218438)scale(0.15 -0.15)">
       <defs>
        <path d="M 44.09375 0 
L 36.03125 0 
L 36.03125 15.875 
L 3.078125 15.875 
L 3.078125 21.484375 
L 33.640625 68.0625 
L 44.09375 68.0625 
L 44.09375 22.46875 
L 54.890625 22.46875 
L 54.890625 15.875 
L 44.09375 15.875 
z
M 36.03125 22.46875 
L 36.03125 54 
Q 36.03125 57.421875 36.1875 61.375 
Q 34.078125 57.515625 32.5625 55.125 
L 11.765625 22.46875 
z
" id="FranklinGothic-Book-52"/>
       </defs>
       <use xlink:href="#FranklinGothic-Book-49"/>
       <use x="57.267578" xlink:href="#FranklinGothic-Book-57"/>
       <use x="115.410156" xlink:href="#FranklinGothic-Book-52"/>
       <use x="174.052734" xlink:href="#FranklinGothic-Book-48"/>
      </g>
     </g>
    </g>
    <g id="xtick_4">
     <g id="line2d_5">
      <g>
       <use style="fill:#696969;stroke:#696969;stroke-width:1.25;" x="587.046131" xlink:href="#m308e5e449a" y="576.72"/>
      </g>
     </g>
     <g id="text_4">
      <!-- 1960 -->
      <g style="fill:#696969;" transform="translate(569.557068 596.218438)scale(0.15 -0.15)">
       <defs>
        <path d="M 53.5625 53.03125 
L 46.046875 50.984375 
Q 42.1875 61.140625 31.984375 61.140625 
Q 13.234375 61.140625 12.796875 30.125 
Q 15.765625 37.015625 21.234375 40.328125 
Q 26.703125 43.65625 32.8125 43.65625 
Q 42.09375 43.65625 48.359375 37.1875 
Q 54.640625 30.71875 54.640625 21.6875 
Q 54.640625 12.3125 47.96875 5.5 
Q 41.3125 -1.3125 30.90625 -1.3125 
Q 19.09375 -1.3125 12.078125 7.59375 
Q 5.078125 16.5 5.078125 31.84375 
Q 5.078125 46.828125 11.6875 57.421875 
Q 18.3125 68.015625 32.171875 68.015625 
Q 48.140625 68.015625 53.5625 53.03125 
z
M 30.765625 5.375 
Q 37.84375 5.375 42.359375 10.03125 
Q 46.875 14.703125 46.875 21.234375 
Q 46.875 27.6875 42.453125 32.296875 
Q 38.03125 36.921875 31.5 36.921875 
Q 24.75 36.921875 19.71875 32.078125 
Q 14.703125 27.25 14.703125 20.75 
Q 14.703125 14.75 19.1875 10.0625 
Q 23.6875 5.375 30.765625 5.375 
z
" id="FranklinGothic-Book-54"/>
       </defs>
       <use xlink:href="#FranklinGothic-Book-49"/>
       <use x="57.267578" xlink:href="#FranklinGothic-Book-57"/>
       <use x="115.910156" xlink:href="#FranklinGothic-Book-54"/>
       <use x="174.552734" xlink:href="#FranklinGothic-Book-48"/>
      </g>
     </g>
    </g>
    <g id="xtick_5">
     <g id="line2d_6">
      <g>
       <use style="fill:#696969;stroke:#696969;stroke-width:1.25;" x="721.200902" xlink:href="#m308e5e449a" y="576.72"/>
      </g>
     </g>
     <g id="text_5">
      <!-- 1980 -->
      <g style="fill:#696969;" transform="translate(703.711839 596.218438)scale(0.15 -0.15)">
       <defs>
        <path d="M 19.484375 34.578125 
Q 6.84375 40.09375 6.84375 50.59375 
Q 6.84375 58.203125 13.140625 63.109375 
Q 19.4375 68.015625 29.828125 68.015625 
Q 40.09375 68.015625 46.140625 63.296875 
Q 52.203125 58.59375 52.203125 50.984375 
Q 52.203125 40.375 39.265625 35.796875 
Q 49.703125 30.953125 52.359375 26.453125 
Q 55.03125 21.96875 55.03125 17.484375 
Q 55.03125 9.46875 48.21875 4.078125 
Q 41.40625 -1.3125 29.734375 -1.3125 
Q 17.28125 -1.3125 10.4375 4.171875 
Q 3.609375 9.671875 3.609375 17.234375 
Q 3.609375 28.515625 19.484375 34.578125 
z
M 29.59375 38.71875 
Q 37.984375 40.96875 41.453125 43.890625 
Q 44.921875 46.828125 44.921875 51.21875 
Q 44.921875 56.34375 40.796875 59 
Q 36.671875 61.671875 29.9375 61.671875 
Q 23.484375 61.671875 19.375 58.859375 
Q 15.28125 56.0625 15.28125 51.3125 
Q 15.28125 46.625 19.84375 43.203125 
Q 24.421875 39.796875 29.59375 38.71875 
z
M 28.65625 31.0625 
Q 11.765625 27.046875 11.765625 16.9375 
Q 11.765625 11.671875 16.375 8.328125 
Q 21 4.984375 29.984375 4.984375 
Q 37.59375 4.984375 42.234375 8.25 
Q 46.875 11.53125 46.875 16.609375 
Q 46.875 26.3125 28.65625 31.0625 
z
" id="FranklinGothic-Book-56"/>
       </defs>
       <use xlink:href="#FranklinGothic-Book-49"/>
       <use x="57.267578" xlink:href="#FranklinGothic-Book-57"/>
       <use x="115.910156" xlink:href="#FranklinGothic-Book-56"/>
       <use x="174.552734" xlink:href="#FranklinGothic-Book-48"/>
      </g>
     </g>
    </g>
    <g id="xtick_6">
     <g id="line2d_7">
      <g>
       <use style="fill:#696969;stroke:#696969;stroke-width:1.25;" x="855.355672" xlink:href="#m308e5e449a" y="576.72"/>
      </g>
     </g>
     <g id="text_6">
      <!-- 2000 -->
      <g style="fill:#696969;" transform="translate(837.763485 596.218438)scale(0.15 -0.15)">
       <use xlink:href="#FranklinGothic-Book-50"/>
       <use x="58.642578" xlink:href="#FranklinGothic-Book-48"/>
       <use x="117.285156" xlink:href="#FranklinGothic-Book-48"/>
       <use x="175.927734" xlink:href="#FranklinGothic-Book-48"/>
      </g>
     </g>
    </g>
    <g id="xtick_7">
     <g id="line2d_8">
      <g>
       <use style="fill:#696969;stroke:#696969;stroke-width:1.25;" x="989.510443" xlink:href="#m308e5e449a" y="576.72"/>
      </g>
     </g>
     <g id="text_7">
      <!-- 2020 -->
      <g style="fill:#696969;" transform="translate(971.918256 596.218438)scale(0.15 -0.15)">
       <use xlink:href="#FranklinGothic-Book-50"/>
       <use x="58.642578" xlink:href="#FranklinGothic-Book-48"/>
       <use x="117.285156" xlink:href="#FranklinGothic-Book-50"/>
       <use x="175.927734" xlink:href="#FranklinGothic-Book-48"/>
      </g>
     </g>
    </g>
    <g id="text_8">
     <!-- Year -->
     <g style="fill:#696969;" transform="translate(572.109375 616.048125)scale(0.2 -0.2)">
      <defs>
       <path d="M 52 66.65625 
L 29.6875 28.03125 
L 29.6875 0 
L 21.34375 0 
L 21.34375 28.03125 
L -0.984375 66.65625 
L 8.84375 66.65625 
L 26.5625 35.984375 
L 44.390625 66.65625 
z
" id="FranklinGothic-Book-89"/>
       <path d="M 40.234375 14.703125 
L 47.359375 13.234375 
Q 45.40625 6.9375 39.734375 2.8125 
Q 34.078125 -1.3125 26.421875 -1.3125 
Q 16.3125 -1.3125 10.0625 5.78125 
Q 3.8125 12.890625 3.8125 24.421875 
Q 3.8125 36.1875 10.296875 43.4375 
Q 16.796875 50.6875 26.609375 50.6875 
Q 36.28125 50.6875 42.15625 44 
Q 48.046875 37.3125 48.1875 23.96875 
L 12.359375 23.96875 
Q 12.359375 12.796875 17.046875 8.890625 
Q 21.734375 4.984375 26.953125 4.984375 
Q 36.375 4.984375 40.234375 14.703125 
z
M 39.796875 29.6875 
Q 39.703125 33.84375 38.421875 37.0625 
Q 37.15625 40.28125 34.125 42.546875 
Q 31.109375 44.828125 26.859375 44.828125 
Q 21.140625 44.828125 17.15625 40.71875 
Q 13.1875 36.625 12.703125 29.6875 
z
" id="FranklinGothic-Book-101"/>
       <path d="M 46.296875 0 
L 38.671875 0 
Q 38.234375 2.34375 37.796875 8.890625 
Q 32.71875 -1.3125 20.515625 -1.3125 
Q 12.203125 -1.3125 7.765625 3.078125 
Q 3.328125 7.46875 3.328125 13.625 
Q 3.328125 21.09375 9.671875 25.90625 
Q 16.015625 30.71875 31.25 30.71875 
Q 33.296875 30.71875 37.796875 30.515625 
Q 37.796875 36.375 36.890625 38.984375 
Q 35.984375 41.609375 33.046875 43.171875 
Q 30.125 44.734375 25.34375 44.734375 
Q 13.671875 44.734375 11.765625 35.84375 
L 4.6875 37.0625 
Q 7.28125 50.6875 26.46875 50.6875 
Q 36.671875 50.6875 40.9375 46.171875 
Q 45.21875 41.65625 45.21875 30.515625 
L 45.21875 9.578125 
Q 45.21875 4.34375 46.296875 0 
z
M 37.796875 24.65625 
Q 33.109375 24.953125 30.671875 24.953125 
Q 21.578125 24.953125 16.546875 21.96875 
Q 11.53125 19 11.53125 13.28125 
Q 11.53125 9.671875 14.234375 7.125 
Q 16.9375 4.59375 22.078125 4.59375 
Q 29 4.59375 33.46875 9.625 
Q 37.9375 14.65625 37.9375 21.4375 
Q 37.9375 22.796875 37.796875 24.65625 
z
" id="FranklinGothic-Book-97"/>
       <path d="M 15.328125 0 
L 7.671875 0 
L 7.671875 49.3125 
L 14.40625 49.3125 
L 14.40625 37.796875 
Q 17.96875 45.953125 21.546875 48.359375 
Q 25.140625 50.78125 28.90625 50.78125 
Q 30.078125 50.78125 31.9375 50.59375 
L 31.9375 43.265625 
L 30.375 43.265625 
Q 24.03125 43.265625 19.828125 38.53125 
Q 15.625 33.796875 15.328125 26.078125 
z
" id="FranklinGothic-Book-114"/>
      </defs>
      <use xlink:href="#FranklinGothic-Book-89"/>
      <use x="45.025391" xlink:href="#FranklinGothic-Book-101"/>
      <use x="97.076172" xlink:href="#FranklinGothic-Book-97"/>
      <use x="149.957031" xlink:href="#FranklinGothic-Book-114"/>
     </g>
    </g>
   </g>
   <g id="matplotlib.axis_2">
    <g id="ytick_1">
     <g id="line2d_9">
      <path clip-path="url(#p1599e812bf)" d="M 144 537.724198 
L 1036.8 537.724198 
" style="fill:none;stroke:#d3d3d3;stroke-linecap:round;stroke-opacity:0.5;"/>
     </g>
     <g id="text_9">
      <!-- −1.5 -->
      <g style="fill:#696969;" transform="translate(104.455469 542.723416)scale(0.15 -0.15)">
       <defs>
        <path d="M 6 36.765625 
L 52.6875 36.765625 
L 52.6875 30.03125 
L 6 30.03125 
z
" id="FranklinGothic-Book-8722"/>
        <path d="M 17.96875 10.9375 
L 17.96875 0 
L 7.078125 0 
L 7.078125 10.9375 
z
" id="FranklinGothic-Book-46"/>
        <path d="M 48.875 66.65625 
L 48.1875 59.46875 
L 15.4375 59.46875 
L 14.015625 37.84375 
Q 21.4375 45.125 30.328125 45.125 
Q 39.703125 45.125 46.515625 38.625 
Q 53.328125 32.125 53.328125 22.015625 
Q 53.328125 11.765625 45.921875 5.21875 
Q 38.53125 -1.3125 27.828125 -1.3125 
Q 19.4375 -1.3125 12.890625 3.078125 
Q 6.34375 7.46875 4.296875 14.453125 
L 11.421875 16.890625 
Q 15.828125 5.28125 27.9375 5.28125 
Q 35.890625 5.28125 40.578125 9.984375 
Q 45.265625 14.703125 45.265625 22.015625 
Q 45.265625 29.6875 40.625 33.984375 
Q 35.984375 38.28125 29.5 38.28125 
Q 20.015625 38.28125 13.8125 29.203125 
L 7.234375 30.609375 
L 9.375 66.65625 
z
" id="FranklinGothic-Book-53"/>
       </defs>
       <use xlink:href="#FranklinGothic-Book-8722"/>
       <use x="58.642578" xlink:href="#FranklinGothic-Book-49"/>
       <use x="116.660156" xlink:href="#FranklinGothic-Book-46"/>
       <use x="141.660156" xlink:href="#FranklinGothic-Book-53"/>
      </g>
     </g>
    </g>
    <g id="ytick_2">
     <g id="line2d_10">
      <path clip-path="url(#p1599e812bf)" d="M 144 451.488456 
L 1036.8 451.488456 
" style="fill:none;stroke:#d3d3d3;stroke-linecap:round;stroke-opacity:0.5;"/>
     </g>
     <g id="text_10">
      <!-- −1.0 -->
      <g style="fill:#696969;" transform="translate(104.455469 456.487675)scale(0.15 -0.15)">
       <use xlink:href="#FranklinGothic-Book-8722"/>
       <use x="58.642578" xlink:href="#FranklinGothic-Book-49"/>
       <use x="116.660156" xlink:href="#FranklinGothic-Book-46"/>
       <use x="141.660156" xlink:href="#FranklinGothic-Book-48"/>
      </g>
     </g>
    </g>
    <g id="ytick_3">
     <g id="line2d_11">
      <path clip-path="url(#p1599e812bf)" d="M 144 365.252715 
L 1036.8 365.252715 
" style="fill:none;stroke:#d3d3d3;stroke-linecap:round;stroke-opacity:0.5;"/>
     </g>
     <g id="text_11">
      <!-- −0.5 -->
      <g style="fill:#696969;" transform="translate(104.361719 370.251934)scale(0.15 -0.15)">
       <use xlink:href="#FranklinGothic-Book-8722"/>
       <use x="58.642578" xlink:href="#FranklinGothic-Book-48"/>
       <use x="117.285156" xlink:href="#FranklinGothic-Book-46"/>
       <use x="142.285156" xlink:href="#FranklinGothic-Book-53"/>
      </g>
     </g>
    </g>
    <g id="ytick_4">
     <g id="line2d_12">
      <path clip-path="url(#p1599e812bf)" d="M 144 279.016973 
L 1036.8 279.016973 
" style="fill:none;stroke:#d3d3d3;stroke-linecap:round;stroke-opacity:0.5;"/>
     </g>
     <g id="text_12">
      <!-- 0.0 -->
      <g style="fill:#696969;" transform="translate(113.157813 284.016192)scale(0.15 -0.15)">
       <use xlink:href="#FranklinGothic-Book-48"/>
       <use x="58.642578" xlink:href="#FranklinGothic-Book-46"/>
       <use x="83.642578" xlink:href="#FranklinGothic-Book-48"/>
      </g>
     </g>
    </g>
    <g id="ytick_5">
     <g id="line2d_13">
      <path clip-path="url(#p1599e812bf)" d="M 144 192.781232 
L 1036.8 192.781232 
" style="fill:none;stroke:#d3d3d3;stroke-linecap:round;stroke-opacity:0.5;"/>
     </g>
     <g id="text_13">
      <!-- 0.5 -->
      <g style="fill:#696969;" transform="translate(113.157813 197.780451)scale(0.15 -0.15)">
       <use xlink:href="#FranklinGothic-Book-48"/>
       <use x="58.642578" xlink:href="#FranklinGothic-Book-46"/>
       <use x="83.642578" xlink:href="#FranklinGothic-Book-53"/>
      </g>
     </g>
    </g>
    <g id="ytick_6">
     <g id="line2d_14">
      <path clip-path="url(#p1599e812bf)" d="M 144 106.54549 
L 1036.8 106.54549 
" style="fill:none;stroke:#d3d3d3;stroke-linecap:round;stroke-opacity:0.5;"/>
     </g>
     <g id="text_14">
      <!-- 1.0 -->
      <g style="fill:#696969;" transform="translate(113.251563 111.544709)scale(0.15 -0.15)">
       <use xlink:href="#FranklinGothic-Book-49"/>
       <use x="58.017578" xlink:href="#FranklinGothic-Book-46"/>
       <use x="83.017578" xlink:href="#FranklinGothic-Book-48"/>
      </g>
     </g>
    </g>
    <g id="text_15">
     <!-- $\!^\circ\!$C -->
     <g style="fill:#696969;" transform="translate(91.030469 337.34)rotate(-90)scale(0.2 -0.2)">
      <defs>
       <path d="M 31.296875 40.671875 
Q 27.390625 40.671875 24.703125 37.953125 
Q 22.015625 35.25 22.015625 31.34375 
Q 22.015625 27.484375 24.703125 24.828125 
Q 27.390625 22.171875 31.296875 22.171875 
Q 35.203125 22.171875 37.890625 24.828125 
Q 40.578125 27.484375 40.578125 31.34375 
Q 40.578125 35.203125 37.859375 37.9375 
Q 35.15625 40.671875 31.296875 40.671875 
z
M 31.296875 46.96875 
Q 34.421875 46.96875 37.296875 45.765625 
Q 40.1875 44.578125 42.28125 42.328125 
Q 44.53125 40.140625 45.65625 37.34375 
Q 46.78125 34.5625 46.78125 31.34375 
Q 46.78125 24.90625 42.265625 20.4375 
Q 37.75 15.96875 31.203125 15.96875 
Q 24.609375 15.96875 20.21875 20.359375 
Q 15.828125 24.75 15.828125 31.34375 
Q 15.828125 37.890625 20.3125 42.421875 
Q 24.8125 46.96875 31.296875 46.96875 
z
" id="DejaVuSans-8728"/>
       <path d="M 48.296875 22.40625 
L 55.90625 20.703125 
Q 50.4375 -1.3125 31.203125 -1.3125 
Q 18.5625 -1.3125 11.359375 8.890625 
Q 4.15625 19.09375 4.15625 33.984375 
Q 4.15625 49.359375 11.671875 58.6875 
Q 19.1875 68.015625 31.84375 68.015625 
Q 50.59375 68.015625 55.90625 46.578125 
L 48.046875 45.015625 
Q 43.75 60.9375 31.78125 60.9375 
Q 22.953125 60.9375 18.09375 53.53125 
Q 13.234375 46.140625 13.234375 32.765625 
Q 13.234375 20.515625 18.203125 13.109375 
Q 23.1875 5.71875 31.390625 5.71875 
Q 44.140625 5.71875 48.296875 22.40625 
z
" id="FranklinGothic-Book-67"/>
      </defs>
      <use transform="translate(-1.64095 39.121875)scale(0.7)" xlink:href="#DejaVuSans-8728"/>
      <use transform="translate(42.313804 0.840625)" xlink:href="#FranklinGothic-Book-67"/>
     </g>
    </g>
   </g>
   <g id="text_16">
    <!-- Compared to 1981-2010 average -->
    <g style="fill:#696969;" transform="translate(144 75.2652)scale(0.3 -0.3)">
     <defs>
      <path d="M 25.34375 -1.3125 
Q 15.1875 -1.3125 9.5 6.203125 
Q 3.8125 13.71875 3.8125 24.859375 
Q 3.8125 36.625 10.203125 43.65625 
Q 16.609375 50.6875 26.125 50.6875 
Q 36.328125 50.6875 42.203125 43.28125 
Q 48.09375 35.890625 48.09375 24.8125 
Q 48.09375 13.28125 41.75 5.984375 
Q 35.40625 -1.3125 25.34375 -1.3125 
z
M 25.921875 4.984375 
Q 31.78125 4.984375 35.734375 9.8125 
Q 39.703125 14.65625 39.703125 24.859375 
Q 39.703125 35.109375 35.546875 39.71875 
Q 31.390625 44.34375 25.828125 44.34375 
Q 20.125 44.34375 16.15625 39.671875 
Q 12.203125 35.015625 12.203125 24.90625 
Q 12.203125 14.203125 16.15625 9.59375 
Q 20.125 4.984375 25.921875 4.984375 
z
" id="FranklinGothic-Book-111"/>
      <path d="M 73.734375 0 
L 66.265625 0 
L 66.265625 30.671875 
Q 66.265625 35.40625 65.59375 37.765625 
Q 64.9375 40.140625 62.390625 42.109375 
Q 59.859375 44.09375 56.6875 44.09375 
Q 52.296875 44.09375 48.21875 40.0625 
Q 44.140625 36.03125 44.140625 27.78125 
L 44.140625 0 
L 36.71875 0 
L 36.71875 32.46875 
Q 36.71875 38.96875 33.609375 41.65625 
Q 30.515625 44.34375 27.09375 44.34375 
Q 22.21875 44.34375 18.59375 40.140625 
Q 14.984375 35.9375 14.984375 29.5 
L 14.984375 0 
L 7.671875 0 
L 7.671875 49.3125 
L 14.265625 49.3125 
L 14.265625 39.84375 
Q 19.78125 50.6875 29.4375 50.6875 
Q 34.765625 50.6875 38.46875 47.21875 
Q 42.1875 43.75 43.265625 38.875 
Q 48.34375 50.6875 58.84375 50.6875 
Q 63.875 50.6875 67.65625 47.796875 
Q 71.4375 44.921875 72.578125 41.1875 
Q 73.734375 37.453125 73.734375 30.671875 
z
" id="FranklinGothic-Book-109"/>
      <path d="M 15.328125 -16.65625 
L 7.671875 -16.65625 
L 7.671875 49.3125 
L 14.546875 49.3125 
L 14.546875 39.75 
Q 19.78125 50.6875 30.125 50.6875 
Q 38.875 50.6875 44.234375 43.375 
Q 49.609375 36.078125 49.609375 24.90625 
Q 49.609375 12.84375 44.09375 5.765625 
Q 38.578125 -1.3125 29.9375 -1.3125 
Q 20.65625 -1.3125 15.328125 7.515625 
z
M 15.328125 31.78125 
L 15.328125 17.921875 
Q 16.0625 12.3125 20.0625 8.640625 
Q 24.078125 4.984375 28.421875 4.984375 
Q 33.453125 4.984375 37.328125 9.375 
Q 41.21875 13.765625 41.21875 24.5625 
Q 41.21875 33.890625 37.703125 38.9375 
Q 34.1875 44 28.375 44 
Q 23.78125 44 20.140625 40.421875 
Q 16.5 36.859375 15.328125 31.78125 
z
" id="FranklinGothic-Book-112"/>
      <path d="M 46.1875 66.65625 
L 46.1875 0 
L 39.203125 0 
L 39.203125 8.453125 
Q 34.03125 -1.3125 23.640625 -1.3125 
Q 14.984375 -1.3125 9.421875 5.9375 
Q 3.859375 13.1875 3.859375 24.265625 
Q 3.859375 35.59375 9.375 43.140625 
Q 14.890625 50.6875 24.03125 50.6875 
Q 32.90625 50.6875 38.53125 42.578125 
L 38.53125 66.65625 
z
M 38.53125 30.28125 
Q 38.53125 36.765625 34.5625 40.671875 
Q 30.609375 44.578125 25.34375 44.578125 
Q 19.625 44.578125 15.9375 39.5 
Q 12.25 34.421875 12.25 25.25 
Q 12.25 15.328125 15.640625 10.15625 
Q 19.046875 4.984375 24.953125 4.984375 
Q 30.328125 4.984375 34.421875 9.46875 
Q 38.53125 13.96875 38.53125 20.015625 
z
" id="FranklinGothic-Book-100"/>
      <path id="FranklinGothic-Book-32"/>
      <path d="M 30.03125 5.28125 
L 30.03125 -0.78125 
Q 25.984375 -1.3125 23 -1.3125 
Q 8.6875 -1.3125 8.6875 13.625 
L 8.6875 43.3125 
L -0.046875 43.3125 
L -0.046875 49.3125 
L 8.6875 49.3125 
L 9.03125 61.71875 
L 16.15625 62.40625 
L 16.15625 49.3125 
L 27.203125 49.3125 
L 27.203125 43.3125 
L 16.15625 43.3125 
L 16.15625 12.359375 
Q 16.15625 4.734375 24.078125 4.734375 
Q 26.703125 4.734375 30.03125 5.28125 
z
" id="FranklinGothic-Book-116"/>
      <path d="M 23.53125 27.984375 
L 23.53125 22.015625 
L 1.46875 22.015625 
L 1.46875 27.984375 
z
" id="FranklinGothic-Book-45"/>
      <path d="M 43.796875 49.3125 
L 26.765625 0 
L 18.796875 0 
L 1.171875 49.3125 
L 9.671875 49.3125 
L 23.390625 9.234375 
L 36.96875 49.3125 
z
" id="FranklinGothic-Book-118"/>
      <path d="M 47.953125 57.03125 
L 47.953125 50.921875 
Q 42.671875 50.921875 40.890625 49.703125 
Q 39.109375 48.484375 38.53125 45.3125 
Q 43.265625 39.84375 43.265625 33.40625 
Q 43.265625 26.65625 38.109375 21.828125 
Q 32.953125 17 24.265625 17 
Q 22.3125 17 20.90625 17.28125 
Q 18.21875 17.828125 17.53125 17.828125 
Q 16.21875 17.828125 14.359375 16.53125 
Q 12.5 15.234375 12.5 13.1875 
Q 12.5 10.25 15.1875 9.375 
Q 17.875 8.5 27.828125 8.25 
Q 36.28125 8.015625 40.3125 7.109375 
Q 44.34375 6.203125 47.125 3.09375 
Q 49.90625 0 49.90625 -4.5 
Q 49.90625 -18.609375 25.09375 -18.609375 
Q 13.328125 -18.609375 7.9375 -15.0625 
Q 2.546875 -11.53125 2.546875 -5.609375 
Q 2.546875 1.5625 10.0625 4.25 
Q 5.21875 7.421875 5.21875 12.203125 
Q 5.21875 17.921875 12.0625 20.953125 
Q 5.671875 26.125 5.671875 33.984375 
Q 5.671875 41.3125 11.140625 46 
Q 16.609375 50.6875 24.46875 50.6875 
Q 30.03125 50.6875 34.578125 48.578125 
Q 35.296875 53.421875 37.953125 55.265625 
Q 40.625 57.125 46.046875 57.125 
Q 46.578125 57.125 47.953125 57.03125 
z
M 24.515625 22.859375 
Q 29.390625 22.859375 32.46875 25.859375 
Q 35.546875 28.859375 35.546875 33.640625 
Q 35.546875 38.53125 32.34375 41.625 
Q 29.15625 44.734375 24.609375 44.734375 
Q 20.265625 44.734375 16.890625 41.828125 
Q 13.53125 38.921875 13.53125 33.546875 
Q 13.53125 28.765625 16.546875 25.8125 
Q 19.578125 22.859375 24.515625 22.859375 
z
M 15.328125 2 
Q 9.96875 -0.34375 9.96875 -4.78125 
Q 9.96875 -8.546875 14.375 -10.625 
Q 18.796875 -12.703125 25.640625 -12.703125 
Q 31.984375 -12.703125 37.25 -10.90625 
Q 42.53125 -9.125 42.53125 -4.890625 
Q 42.53125 -2.59375 40.96875 -1.125 
Q 39.40625 0.34375 36.6875 0.734375 
Q 33.984375 1.125 27.25 1.3125 
Q 19.1875 1.515625 15.328125 2 
z
" id="FranklinGothic-Book-103"/>
     </defs>
     <use xlink:href="#FranklinGothic-Book-67"/>
     <use x="57.910156" xlink:href="#FranklinGothic-Book-111"/>
     <use x="109.863281" xlink:href="#FranklinGothic-Book-109"/>
     <use x="190.384766" xlink:href="#FranklinGothic-Book-112"/>
     <use x="243.802734" xlink:href="#FranklinGothic-Book-97"/>
     <use x="296.683594" xlink:href="#FranklinGothic-Book-114"/>
     <use x="329.642578" xlink:href="#FranklinGothic-Book-101"/>
     <use x="381.693359" xlink:href="#FranklinGothic-Book-100"/>
     <use x="435.550781" xlink:href="#FranklinGothic-Book-32"/>
     <use x="460.550781" xlink:href="#FranklinGothic-Book-116"/>
     <use x="489.8125" xlink:href="#FranklinGothic-Book-111"/>
     <use x="541.765625" xlink:href="#FranklinGothic-Book-32"/>
     <use x="566.765625" xlink:href="#FranklinGothic-Book-49"/>
     <use x="624.033203" xlink:href="#FranklinGothic-Book-57"/>
     <use x="682.675781" xlink:href="#FranklinGothic-Book-56"/>
     <use x="737.443359" xlink:href="#FranklinGothic-Book-49"/>
     <use x="796.085938" xlink:href="#FranklinGothic-Book-45"/>
     <use x="821.085938" xlink:href="#FranklinGothic-Book-50"/>
     <use x="879.728516" xlink:href="#FranklinGothic-Book-48"/>
     <use x="934.621094" xlink:href="#FranklinGothic-Book-49"/>
     <use x="990.013672" xlink:href="#FranklinGothic-Book-48"/>
     <use x="1048.65625" xlink:href="#FranklinGothic-Book-32"/>
     <use x="1073.65625" xlink:href="#FranklinGothic-Book-97"/>
     <use x="1124.287109" xlink:href="#FranklinGothic-Book-118"/>
     <use x="1167.806641" xlink:href="#FranklinGothic-Book-101"/>
     <use x="1219.857422" xlink:href="#FranklinGothic-Book-114"/>
     <use x="1252.816406" xlink:href="#FranklinGothic-Book-97"/>
     <use x="1305.697266" xlink:href="#FranklinGothic-Book-103"/>
     <use x="1354.818359" xlink:href="#FranklinGothic-Book-101"/>
    </g>
   </g>
   <g id="text_17">
    <!-- Central Africa -->
    <g style="fill:#696969;" transform="translate(144 42.76)scale(0.4 -0.4)">
     <defs>
      <path d="M 46.53125 0 
L 39.359375 0 
L 39.359375 31.6875 
Q 39.359375 38.53125 36.375 41.3125 
Q 33.40625 44.09375 29.15625 44.09375 
Q 23.296875 44.09375 19.3125 39.40625 
Q 15.328125 34.71875 15.328125 27.046875 
L 15.328125 0 
L 7.671875 0 
L 7.671875 49.3125 
L 14.796875 49.3125 
L 14.796875 40.234375 
Q 20.796875 50.6875 30.375 50.6875 
Q 35.890625 50.6875 39.765625 47.828125 
Q 43.65625 44.96875 45.09375 41.40625 
Q 46.53125 37.84375 46.53125 28.515625 
z
" id="FranklinGothic-Book-110"/>
      <path d="M 15.328125 0 
L 7.671875 0 
L 7.671875 66.65625 
L 15.328125 66.65625 
z
" id="FranklinGothic-Book-108"/>
      <path d="M 53.21875 0 
L 44.671875 0 
L 37.9375 19.484375 
L 13.28125 19.484375 
L 7.328125 0 
L 0.34375 0 
L 21.96875 66.65625 
L 31.5 66.65625 
z
M 36.1875 25.734375 
L 25.921875 57.765625 
L 15.578125 25.734375 
z
" id="FranklinGothic-Book-65"/>
      <path d="M 28.125 49.3125 
L 28.125 43.3125 
L 16.40625 43.3125 
L 16.40625 0 
L 8.734375 0 
L 8.734375 43.3125 
L 0.34375 43.3125 
L 0.34375 49.3125 
L 8.734375 49.3125 
Q 8.9375 61.1875 13.296875 64.59375 
Q 17.671875 68.015625 23.96875 68.015625 
Q 27.046875 68.015625 31 67.328125 
L 31 61.234375 
Q 28.515625 61.859375 26.265625 61.859375 
Q 21.234375 61.859375 18.8125 59.640625 
Q 16.40625 57.421875 16.40625 51.3125 
L 16.40625 49.3125 
z
" id="FranklinGothic-Book-102"/>
      <path d="M 15.578125 66.65625 
L 15.578125 58.15625 
L 7.328125 58.15625 
L 7.328125 66.65625 
z
M 15.328125 49.3125 
L 15.328125 0 
L 7.671875 0 
L 7.671875 49.3125 
z
" id="FranklinGothic-Book-105"/>
      <path d="M 36.8125 17.28125 
L 43.75 16.0625 
Q 42.28125 7.90625 37.25 3.296875 
Q 32.234375 -1.3125 24.703125 -1.3125 
Q 14.5 -1.3125 9.15625 6.203125 
Q 3.8125 13.71875 3.8125 24.5625 
Q 3.8125 35.796875 9.453125 43.234375 
Q 15.09375 50.6875 24.8125 50.6875 
Q 32.859375 50.6875 37.71875 45.875 
Q 42.578125 41.0625 43.75 33.453125 
L 36.8125 32.125 
Q 34.859375 44.34375 25 44.34375 
Q 18.65625 44.34375 15.234375 38.9375 
Q 11.8125 33.546875 11.8125 24.953125 
Q 11.8125 15.484375 15.203125 10.234375 
Q 18.609375 4.984375 24.75 4.984375 
Q 34.28125 4.984375 36.8125 17.28125 
z
" id="FranklinGothic-Book-99"/>
     </defs>
     <use xlink:href="#FranklinGothic-Book-67"/>
     <use x="57.910156" xlink:href="#FranklinGothic-Book-101"/>
     <use x="109.960938" xlink:href="#FranklinGothic-Book-110"/>
     <use x="164.160156" xlink:href="#FranklinGothic-Book-116"/>
     <use x="194.921875" xlink:href="#FranklinGothic-Book-114"/>
     <use x="227.880859" xlink:href="#FranklinGothic-Book-97"/>
     <use x="280.761719" xlink:href="#FranklinGothic-Book-108"/>
     <use x="303.759766" xlink:href="#FranklinGothic-Book-32"/>
     <use x="328.759766" xlink:href="#FranklinGothic-Book-65"/>
     <use x="382.324219" xlink:href="#FranklinGothic-Book-102"/>
     <use x="412.304688" xlink:href="#FranklinGothic-Book-114"/>
     <use x="445.263672" xlink:href="#FranklinGothic-Book-105"/>
     <use x="468.212891" xlink:href="#FranklinGothic-Book-99"/>
     <use x="514.794922" xlink:href="#FranklinGothic-Book-97"/>
    </g>
   </g>
   <g id="legend_1">
    <g id="line2d_15"/>
    <g id="text_18">
     <!-- HadCRUT5 -->
     <g style="fill:#696969;" transform="translate(185.856 129.7184)scale(0.2 -0.2)">
      <defs>
       <path d="M 55.953125 0 
L 47.609375 0 
L 47.609375 31.734375 
L 16.703125 31.734375 
L 16.703125 0 
L 8.34375 0 
L 8.34375 66.65625 
L 16.703125 66.65625 
L 16.703125 39.0625 
L 47.609375 39.0625 
L 47.609375 66.65625 
L 55.953125 66.65625 
z
" id="FranklinGothic-Book-72"/>
       <path d="M 56.296875 0 
L 47.5625 0 
L 35.25 28.859375 
L 16.15625 28.859375 
L 16.15625 0 
L 8.34375 0 
L 8.34375 66.65625 
L 34.625 66.65625 
Q 45.3125 66.65625 50.453125 60.8125 
Q 55.609375 54.984375 55.609375 48.046875 
Q 55.609375 42.71875 52.734375 37.828125 
Q 49.859375 32.953125 43.21875 30.859375 
z
M 16.15625 35.640625 
L 33.59375 35.640625 
Q 40.484375 35.640625 43.875 39.28125 
Q 47.265625 42.921875 47.265625 48.1875 
Q 47.265625 53.46875 43.671875 56.390625 
Q 40.09375 59.328125 34.625 59.328125 
L 16.15625 59.328125 
z
" id="FranklinGothic-Book-82"/>
       <path d="M 46.34375 66.65625 
L 53.265625 66.65625 
L 53.265625 23.140625 
Q 53.265625 10.0625 46.84375 4.375 
Q 40.4375 -1.3125 30.03125 -1.3125 
Q 18.453125 -1.3125 12.890625 4.546875 
Q 7.328125 10.40625 7.328125 23.140625 
L 7.328125 66.65625 
L 15.671875 66.65625 
L 15.671875 23.140625 
Q 15.671875 15.375 17.46875 12.203125 
Q 19.28125 9.03125 22.9375 7.515625 
Q 26.609375 6 30.609375 6 
Q 38.328125 6 42.328125 10.046875 
Q 46.34375 14.109375 46.34375 23.140625 
z
" id="FranklinGothic-Book-85"/>
       <path d="M 28.421875 0 
L 20.125 0 
L 20.125 59.328125 
L 1.03125 59.328125 
L 1.03125 66.65625 
L 47.5625 66.65625 
L 47.5625 59.328125 
L 28.421875 59.328125 
z
" id="FranklinGothic-Book-84"/>
      </defs>
      <use xlink:href="#FranklinGothic-Book-72"/>
      <use x="64.257812" xlink:href="#FranklinGothic-Book-97"/>
      <use x="117.138672" xlink:href="#FranklinGothic-Book-100"/>
      <use x="170.996094" xlink:href="#FranklinGothic-Book-67"/>
      <use x="228.90625" xlink:href="#FranklinGothic-Book-82"/>
      <use x="289.310547" xlink:href="#FranklinGothic-Book-85"/>
      <use x="349.90625" xlink:href="#FranklinGothic-Book-84"/>
      <use x="398.441406" xlink:href="#FranklinGothic-Book-53"/>
     </g>
    </g>
    <g id="line2d_16"/>
    <g id="text_19">
     <!-- NOAAGlobalTemp -->
     <g style="fill:#e69f00;" transform="translate(185.856 157.04965)scale(0.2 -0.2)">
      <defs>
       <path d="M 57.421875 0 
L 49.3125 0 
L 14.84375 58.109375 
L 14.9375 53.71875 
Q 15.09375 51.21875 15.09375 49.515625 
L 15.09375 0 
L 8.34375 0 
L 8.34375 66.65625 
L 18.796875 66.65625 
L 51.03125 12.3125 
L 50.921875 16.9375 
Q 50.828125 19.671875 50.828125 21.78125 
L 50.828125 66.65625 
L 57.421875 66.65625 
z
" id="FranklinGothic-Book-78"/>
       <path d="M 31.34375 -1.3125 
Q 18.5 -1.3125 11.328125 8.671875 
Q 4.15625 18.65625 4.15625 33.15625 
Q 4.15625 48.296875 11.671875 58.15625 
Q 19.1875 68.015625 31.59375 68.015625 
Q 43.953125 68.015625 51.421875 58.328125 
Q 58.890625 48.640625 58.890625 33.890625 
Q 58.890625 19.734375 51.640625 9.203125 
Q 44.390625 -1.3125 31.34375 -1.3125 
z
M 31.546875 5.46875 
Q 40.28125 5.46875 45.203125 13.421875 
Q 50.140625 21.390625 50.140625 33.9375 
Q 50.140625 46.828125 45.03125 54 
Q 39.9375 61.1875 31.5 61.1875 
Q 22.953125 61.1875 17.921875 53.421875 
Q 12.890625 45.65625 12.890625 33.109375 
Q 12.890625 20.84375 17.96875 13.15625 
Q 23.046875 5.46875 31.546875 5.46875 
z
" id="FranklinGothic-Book-79"/>
       <path d="M 57.71875 33.59375 
L 57.71875 -0.875 
L 52.59375 -0.875 
L 50.296875 7.46875 
Q 44.140625 -1.3125 31.984375 -1.3125 
Q 18.796875 -1.3125 11.46875 8.59375 
Q 4.15625 18.5 4.15625 32.671875 
Q 4.15625 47.796875 11.90625 57.90625 
Q 19.671875 68.015625 33.015625 68.015625 
Q 51.421875 68.015625 57.03125 48.6875 
L 49.125 46.78125 
Q 47.40625 54.203125 42.71875 57.5625 
Q 38.03125 60.9375 32.46875 60.9375 
Q 22.609375 60.9375 17.921875 52.96875 
Q 13.234375 45.015625 13.234375 33.015625 
Q 13.234375 20.0625 18.484375 12.765625 
Q 23.734375 5.46875 32.765625 5.46875 
Q 39.796875 5.46875 44.5 10.125 
Q 49.21875 14.796875 49.21875 23 
Q 49.21875 24.515625 49.125 26.609375 
L 32.625 26.609375 
L 32.625 33.59375 
z
" id="FranklinGothic-Book-71"/>
       <path d="M 11.375 0 
L 7.671875 0 
L 7.671875 66.65625 
L 15.328125 66.65625 
L 15.328125 41.109375 
Q 20.609375 50.6875 29.890625 50.6875 
Q 38.375 50.6875 44.109375 44 
Q 49.859375 37.3125 49.859375 24.5625 
Q 49.859375 13.578125 44.21875 6.125 
Q 38.578125 -1.3125 29.546875 -1.3125 
Q 19.484375 -1.3125 14.109375 8.15625 
z
M 15.328125 19.34375 
Q 15.875 11.765625 20 8.34375 
Q 24.125 4.9375 28.71875 4.9375 
Q 34.578125 4.9375 38.15625 10.015625 
Q 41.75 15.09375 41.75 23.921875 
Q 41.75 33.453125 38.28125 38.890625 
Q 34.8125 44.34375 28.65625 44.34375 
Q 23.828125 44.34375 19.9375 40.453125 
Q 16.0625 36.578125 15.328125 30.421875 
z
" id="FranklinGothic-Book-98"/>
      </defs>
      <use xlink:href="#FranklinGothic-Book-78"/>
      <use x="65.722656" xlink:href="#FranklinGothic-Book-79"/>
      <use x="127.058594" xlink:href="#FranklinGothic-Book-65"/>
      <use x="180.623047" xlink:href="#FranklinGothic-Book-65"/>
      <use x="231.5625" xlink:href="#FranklinGothic-Book-71"/>
      <use x="296.259766" xlink:href="#FranklinGothic-Book-108"/>
      <use x="319.257812" xlink:href="#FranklinGothic-Book-111"/>
      <use x="371.210938" xlink:href="#FranklinGothic-Book-98"/>
      <use x="424.921875" xlink:href="#FranklinGothic-Book-97"/>
      <use x="477.802734" xlink:href="#FranklinGothic-Book-108"/>
      <use x="500.800781" xlink:href="#FranklinGothic-Book-84"/>
      <use x="542.835938" xlink:href="#FranklinGothic-Book-101"/>
      <use x="594.886719" xlink:href="#FranklinGothic-Book-109"/>
      <use x="675.408203" xlink:href="#FranklinGothic-Book-112"/>
     </g>
    </g>
    <g id="line2d_17"/>
    <g id="text_20">
     <!-- GISTEMP -->
     <g style="fill:#56b4e9;" transform="translate(185.856 184.3809)scale(0.2 -0.2)">
      <defs>
       <path d="M 16.703125 0 
L 8.34375 0 
L 8.34375 66.65625 
L 16.703125 66.65625 
z
" id="FranklinGothic-Book-73"/>
       <path d="M 1.03125 17.71875 
L 8.546875 19.4375 
Q 13.09375 5.8125 28.21875 5.8125 
Q 36.140625 5.8125 40.140625 9.15625 
Q 44.140625 12.5 44.140625 18.109375 
Q 44.140625 22.359375 41.078125 24.953125 
Q 38.03125 27.546875 34.03125 28.515625 
L 20.703125 31.84375 
Q 15.53125 33.15625 12.234375 35.03125 
Q 8.9375 36.921875 6.640625 40.828125 
Q 4.34375 44.734375 4.34375 49.75 
Q 4.34375 58.109375 10.640625 63.0625 
Q 16.9375 68.015625 26.8125 68.015625 
Q 44.96875 68.015625 50.6875 51.5625 
L 43.109375 49.3125 
Q 41.796875 55.171875 36.90625 58.171875 
Q 32.03125 61.1875 26.515625 61.1875 
Q 21.046875 61.1875 16.765625 58.296875 
Q 12.5 55.421875 12.5 50.140625 
Q 12.5 42.78125 23.34375 40.1875 
L 35.796875 37.203125 
Q 52.875 33.109375 52.875 18.796875 
Q 52.875 10.15625 46.453125 4.421875 
Q 40.046875 -1.3125 28.375 -1.3125 
Q 7.671875 -1.3125 1.03125 17.71875 
z
" id="FranklinGothic-Book-83"/>
       <path d="M 51.46875 7.328125 
L 51.46875 0 
L 8.34375 0 
L 8.34375 66.65625 
L 50.53125 66.65625 
L 50.53125 59.328125 
L 16.703125 59.328125 
L 16.703125 38.140625 
L 43.5625 38.140625 
L 43.5625 31.34375 
L 16.703125 31.34375 
L 16.703125 7.328125 
z
" id="FranklinGothic-Book-69"/>
       <path d="M 72.703125 0 
L 64.59375 0 
L 64.59375 58.203125 
L 42.921875 0 
L 37.25 0 
L 15.4375 58.203125 
L 15.4375 0 
L 8.34375 0 
L 8.34375 66.65625 
L 20.75 66.65625 
L 40.828125 13.328125 
L 60.5 66.65625 
L 72.703125 66.65625 
z
" id="FranklinGothic-Book-77"/>
       <path d="M 16.703125 0 
L 8.34375 0 
L 8.34375 66.65625 
L 31.984375 66.65625 
Q 43.0625 66.65625 48.328125 60.625 
Q 53.609375 54.59375 53.609375 46.875 
Q 53.609375 38.28125 47.875 32.65625 
Q 42.140625 27.046875 32.859375 27.046875 
L 16.703125 27.046875 
z
M 16.703125 33.984375 
L 32.03125 33.984375 
Q 37.9375 33.984375 41.546875 37.515625 
Q 45.171875 41.0625 45.171875 46.875 
Q 45.171875 51.859375 41.9375 55.765625 
Q 38.71875 59.671875 32.625 59.671875 
L 16.703125 59.671875 
z
" id="FranklinGothic-Book-80"/>
      </defs>
      <use xlink:href="#FranklinGothic-Book-71"/>
      <use x="64.697266" xlink:href="#FranklinGothic-Book-73"/>
      <use x="89.697266" xlink:href="#FranklinGothic-Book-83"/>
      <use x="144.630859" xlink:href="#FranklinGothic-Book-84"/>
      <use x="193.166016" xlink:href="#FranklinGothic-Book-69"/>
      <use x="247.951172" xlink:href="#FranklinGothic-Book-77"/>
      <use x="328.957031" xlink:href="#FranklinGothic-Book-80"/>
     </g>
    </g>
    <g id="line2d_18"/>
    <g id="text_21">
     <!-- Berkeley Earth -->
     <g style="fill:#009e73;" transform="translate(185.856 211.71215)scale(0.2 -0.2)">
      <defs>
       <path d="M 8.34375 0 
L 8.34375 66.65625 
L 34.71875 66.65625 
Q 44.671875 66.65625 49.484375 61.765625 
Q 54.296875 56.890625 54.296875 50.4375 
Q 54.296875 39.109375 42.484375 35.40625 
Q 49.515625 33.59375 52.921875 28.953125 
Q 56.34375 24.3125 56.34375 18.453125 
Q 56.34375 10.59375 51.046875 5.296875 
Q 45.75 0 34.71875 0 
z
M 16.40625 38.09375 
L 30.90625 38.09375 
Q 39.9375 38.09375 42.96875 41.53125 
Q 46 44.96875 46 49.609375 
Q 46 54.203125 42.75 57.03125 
Q 39.5 59.859375 33.0625 59.859375 
L 16.40625 59.859375 
z
M 16.40625 7.328125 
L 34.28125 7.328125 
Q 40.828125 7.328125 44.390625 10.5 
Q 47.953125 13.671875 47.953125 18.75 
Q 47.953125 22.3125 46.34375 25.359375 
Q 44.734375 28.421875 41.796875 30.078125 
Q 38.875 31.734375 33.0625 31.734375 
L 16.40625 31.734375 
z
" id="FranklinGothic-Book-66"/>
       <path d="M 48.390625 0 
L 40.4375 0 
L 26.03125 27.546875 
L 15.328125 15.234375 
L 15.328125 0 
L 7.671875 0 
L 7.671875 66.65625 
L 15.328125 66.65625 
L 15.328125 23.96875 
L 38.234375 49.3125 
L 46.4375 49.3125 
L 31 31.984375 
z
" id="FranklinGothic-Book-107"/>
       <path d="M 41.5 49.3125 
L 21.734375 -5.765625 
Q 17.4375 -17.671875 8.015625 -17.671875 
Q 5.03125 -17.671875 1.421875 -16.65625 
L 1.421875 -10.640625 
Q 4.390625 -11.328125 6.546875 -11.328125 
Q 10.203125 -11.328125 12.671875 -9.21875 
Q 15.140625 -7.125 17.578125 0.921875 
L 0.53125 49.3125 
L 8.34375 49.3125 
L 21.53125 12.25 
L 35.0625 49.3125 
z
" id="FranklinGothic-Book-121"/>
       <path d="M 46.34375 0 
L 38.671875 0 
L 38.671875 29.9375 
Q 38.671875 35.203125 38.015625 37.84375 
Q 37.359375 40.484375 34.890625 42.40625 
Q 32.421875 44.34375 29.203125 44.34375 
Q 23.296875 44.34375 19.3125 39.5 
Q 15.328125 34.671875 15.328125 26.5625 
L 15.328125 0 
L 7.671875 0 
L 7.671875 66.65625 
L 15.328125 66.65625 
L 15.328125 40.234375 
Q 20.5625 50.6875 30.28125 50.6875 
Q 34.625 50.6875 38.015625 48.96875 
Q 41.40625 47.265625 43.203125 44.484375 
Q 45.015625 41.703125 45.671875 38.984375 
Q 46.34375 36.28125 46.34375 29.9375 
z
" id="FranklinGothic-Book-104"/>
      </defs>
      <use xlink:href="#FranklinGothic-Book-66"/>
      <use x="60.449219" xlink:href="#FranklinGothic-Book-101"/>
      <use x="112.5" xlink:href="#FranklinGothic-Book-114"/>
      <use x="144.958984" xlink:href="#FranklinGothic-Book-107"/>
      <use x="192.806641" xlink:href="#FranklinGothic-Book-101"/>
      <use x="244.857422" xlink:href="#FranklinGothic-Book-108"/>
      <use x="267.855469" xlink:href="#FranklinGothic-Book-101"/>
      <use x="318.28125" xlink:href="#FranklinGothic-Book-121"/>
      <use x="359.785156" xlink:href="#FranklinGothic-Book-32"/>
      <use x="384.785156" xlink:href="#FranklinGothic-Book-69"/>
      <use x="439.570312" xlink:href="#FranklinGothic-Book-97"/>
      <use x="492.451172" xlink:href="#FranklinGothic-Book-114"/>
      <use x="528.785156" xlink:href="#FranklinGothic-Book-116"/>
      <use x="559.546875" xlink:href="#FranklinGothic-Book-104"/>
     </g>
    </g>
    <g id="line2d_19"/>
    <g id="text_22">
     <!-- ERA5 -->
     <g style="fill:#0072b2;" transform="translate(185.856 239.246525)scale(0.2 -0.2)">
      <use xlink:href="#FranklinGothic-Book-69"/>
      <use x="54.785156" xlink:href="#FranklinGothic-Book-82"/>
      <use x="116.064453" xlink:href="#FranklinGothic-Book-65"/>
      <use x="169.628906" xlink:href="#FranklinGothic-Book-53"/>
     </g>
    </g>
   </g>
   <g id="line2d_20">
    <path clip-path="url(#p1599e812bf)" d="M 184.581818 369.116076 
L 191.289557 360.233795 
L 197.997295 407.042555 
L 204.705034 475.099802 
L 211.412772 554.04 
L 218.120511 445.348471 
L 224.828249 499.883954 
L 231.535988 471.822844 
L 238.243727 456.628106 
L 244.951465 457.386981 
L 251.659204 482.412593 
L 258.366942 496.227559 
L 265.074681 377.239483 
L 271.782419 375.876958 
L 278.490158 303.042251 
L 285.197896 331.017125 
L 291.905635 417.201125 
L 298.613373 416.39051 
L 305.321112 438.949779 
L 312.02885 364.528335 
L 318.736589 454.558449 
L 325.444328 396.038875 
L 332.152066 413.079057 
L 338.859805 422.97892 
L 345.567543 360.147559 
L 352.275282 403.662114 
L 358.98302 358.008913 
L 365.690759 361.544578 
L 372.398497 367.563833 
L 379.106236 431.93019 
L 385.813974 395.107529 
L 392.521713 284.984487 
L 399.229452 362.010251 
L 405.93719 352.576061 
L 412.644929 389.622935 
L 419.352667 374.186738 
L 426.060406 360.009582 
L 432.768144 351.420502 
L 439.475883 339.192274 
L 446.183621 363.907437 
L 452.89136 349.902753 
L 459.599098 298.126814 
L 466.306837 338.864578 
L 473.014576 392.123772 
L 479.722314 381.258068 
L 486.430053 360.854692 
L 493.137791 388.381141 
L 499.84553 343.538555 
L 506.553268 392.761916 
L 513.261007 363.027833 
L 519.968745 415.476411 
L 526.676484 384.845475 
L 533.384222 360.285536 
L 540.091961 387.139346 
L 546.799699 414.38984 
L 553.507438 427.99784 
L 560.215177 431.619741 
L 566.922915 388.639848 
L 573.630654 341.486144 
L 580.338392 370.737308 
L 587.046131 366.770464 
L 593.753869 434.413779 
L 600.461608 403.110205 
L 607.169346 366.235802 
L 613.877085 410.957658 
L 620.584823 413.648213 
L 627.292562 380.809643 
L 634.000301 409.319179 
L 640.708039 408.698281 
L 647.415778 326.39489 
L 654.123516 358.043407 
L 660.831255 409.405414 
L 667.538993 346.367087 
L 674.246732 296.126144 
L 680.95447 402.834251 
L 687.662209 397.073703 
L 694.369947 376.014935 
L 701.077686 345.125293 
L 707.785424 346.643042 
L 714.493163 299.006418 
L 721.200902 297.643894 
L 727.90864 335.259924 
L 734.616379 341.227437 
L 741.324117 302.766297 
L 748.031856 326.653597 
L 754.739594 338.726601 
L 761.447333 322.669506 
L 768.155071 251.990692 
L 774.86281 304.732471 
L 781.570548 371.340958 
L 788.278287 290.296608 
L 794.986026 317.374631 
L 801.693764 357.750205 
L 808.401503 312.390205 
L 815.109241 318.53019 
L 821.81698 291.245202 
L 828.524718 304.456517 
L 835.232457 261.925049 
L 841.940195 209.42473 
L 848.647934 304.111574 
L 855.355672 300.834616 
L 862.063411 292.573232 
L 868.77115 241.469932 
L 875.478888 235.398935 
L 882.186627 227.379011 
L 888.894365 151.42257 
L 895.602104 201.68076 
L 902.309842 238.123985 
L 909.017581 257.87197 
L 915.725319 195.489034 
L 922.433058 165.444502 
L 929.140796 261.580106 
L 935.848535 275.533049 
L 942.556273 231.104395 
L 949.264012 223.291437 
L 955.971751 216.133871 
L 962.679489 163.909506 
L 969.387228 201.456548 
L 976.094966 215.581962 
L 982.802705 185.951361 
L 989.510443 192.522525 
L 996.218182 193.798814 
" style="fill:none;stroke:#009e73;stroke-linecap:round;stroke-width:3;"/>
   </g>
   <g id="line2d_21">
    <path clip-path="url(#p1599e812bf)" d="M 184.581818 408.387833 
L 191.289557 439.55343 
L 197.997295 324.583939 
L 204.705034 277.930403 
L 211.412772 426.06616 
L 218.120511 275.671027 
L 224.828249 367.374114 
L 231.535988 364.683559 
L 238.243727 396.280335 
L 244.951465 401.0233 
L 251.659204 430.688395 
L 258.366942 437.638996 
L 265.074681 401.419985 
L 271.782419 361.941262 
L 278.490158 341.106707 
L 285.197896 313.959696 
L 291.905635 399.505551 
L 298.613373 382.775817 
L 305.321112 415.855848 
L 312.02885 307.198814 
L 318.736589 412.199452 
L 325.444328 339.88216 
L 332.152066 415.804106 
L 338.859805 416.459498 
L 345.567543 363.803954 
L 352.275282 389.916137 
L 358.98302 332.776335 
L 365.690759 327.688426 
L 372.398497 279.327422 
L 379.106236 384.310814 
L 385.813974 364.166144 
L 392.521713 270.790084 
L 399.229452 331.379316 
L 405.93719 284.536061 
L 412.644929 287.347346 
L 419.352667 339.951148 
L 426.060406 345.366753 
L 432.768144 350.299437 
L 439.475883 353.869597 
L 446.183621 359.578403 
L 452.89136 313.787224 
L 459.599098 253.905125 
L 466.306837 310.148076 
L 473.014576 386.190753 
L 479.722314 360.302783 
L 486.430053 360.061323 
L 493.137791 365.028502 
L 499.84553 338.881825 
L 506.553268 389.916137 
L 513.261007 339.123285 
L 519.968745 414.355346 
L 526.676484 383.672669 
L 533.384222 350.213202 
L 540.091961 374.893871 
L 546.799699 389.985125 
L 553.507438 406.852837 
L 560.215177 413.66546 
L 566.922915 372.875954 
L 573.630654 324.894388 
L 580.338392 359.561156 
L 587.046131 344.90108 
L 593.753869 415.528152 
L 600.461608 383.293232 
L 607.169346 353.00724 
L 613.877085 404.541719 
L 620.584823 391.502875 
L 627.292562 351.110053 
L 634.000301 395.780167 
L 640.708039 394.883316 
L 647.415778 318.254236 
L 654.123516 348.47124 
L 660.831255 398.281004 
L 667.538993 338.071209 
L 674.246732 283.139042 
L 680.95447 393.089612 
L 687.662209 385.60435 
L 694.369947 370.651072 
L 701.077686 345.86692 
L 707.785424 350.316684 
L 714.493163 307.819711 
L 721.200902 305.146403 
L 727.90864 349.281856 
L 734.616379 346.177369 
L 741.324117 309.164989 
L 748.031856 319.444289 
L 754.739594 346.815513 
L 761.447333 325.101354 
L 768.155071 257.113095 
L 774.86281 314.822053 
L 781.570548 399.108867 
L 788.278287 286.416 
L 794.986026 317.340137 
L 801.693764 375.307802 
L 808.401503 306.940106 
L 815.109241 308.457856 
L 821.81698 284.311848 
L 828.524718 303.421688 
L 835.232457 274.308502 
L 841.940195 198.093354 
L 848.647934 288.968578 
L 855.355672 288.209703 
L 862.063411 295.556989 
L 868.77115 236.002586 
L 875.478888 208.631361 
L 882.186627 211.477141 
L 888.894365 177.758966 
L 895.602104 226.84435 
L 902.309842 230.742205 
L 909.017581 250.386707 
L 915.725319 189.59051 
L 922.433058 143.747589 
L 929.140796 244.26397 
L 935.848535 233.363772 
L 942.556273 210.338829 
L 949.264012 220.894084 
L 955.971751 190.038935 
L 962.679489 134.554859 
L 969.387228 174.533749 
L 976.094966 186.74473 
L 982.802705 146.938312 
L 989.510443 164.616639 
L 996.218182 159.787437 
" style="fill:none;stroke:#56b4e9;stroke-linecap:round;stroke-width:3;"/>
   </g>
   <g id="line2d_22">
    <path clip-path="url(#p1599e812bf)" d="M 184.581818 478.756198 
L 191.289557 429.895027 
L 197.997295 404.214023 
L 204.705034 433.499681 
L 211.412772 446.728243 
L 218.120511 376.256395 
L 224.828249 408.025643 
L 231.535988 431.102327 
L 238.243727 401.126783 
L 244.951465 384.604015 
L 251.659204 418.632639 
L 258.366942 454.248 
L 265.074681 376.135665 
L 271.782419 355.973749 
L 278.490158 323.083437 
L 285.197896 332.586616 
L 291.905635 436.34546 
L 298.613373 430.067498 
L 305.321112 468.028471 
L 312.02885 360.630479 
L 318.736589 424.444928 
L 325.444328 415.735118 
L 332.152066 375.463027 
L 338.859805 403.334418 
L 345.567543 375.756228 
L 352.275282 401.471726 
L 358.98302 352.558814 
L 365.690759 371.168487 
L 372.398497 346.177369 
L 379.106236 386.035529 
L 385.813974 388.760578 
L 392.521713 299.006418 
L 399.229452 362.889856 
L 405.93719 333.22476 
L 412.644929 359.026494 
L 419.352667 382.258403 
L 426.060406 377.049764 
L 432.768144 353.386677 
L 439.475883 340.313338 
L 446.183621 375.911452 
L 452.89136 321.73816 
L 459.599098 272.08362 
L 466.306837 322.186586 
L 473.014576 405.645536 
L 479.722314 349.67854 
L 486.430053 390.640517 
L 493.137791 375.635498 
L 499.84553 345.86692 
L 506.553268 403.920821 
L 513.261007 358.353856 
L 519.968745 423.599817 
L 526.676484 400.091954 
L 533.384222 360.630479 
L 540.091961 390.968213 
L 546.799699 405.024639 
L 553.507438 418.253202 
L 560.215177 422.461506 
L 566.922915 380.34397 
L 573.630654 337.122616 
L 580.338392 373.531346 
L 587.046131 356.180715 
L 593.753869 415.183209 
L 600.461608 377.429202 
L 607.169346 359.888852 
L 613.877085 411.181871 
L 620.584823 397.246175 
L 627.292562 355.42184 
L 634.000301 405.68003 
L 640.708039 405.179863 
L 647.415778 325.049612 
L 654.123516 348.798935 
L 660.831255 398.660441 
L 667.538993 345.677202 
L 674.246732 291.486662 
L 680.95447 396.935726 
L 687.662209 390.795741 
L 694.369947 385.863057 
L 701.077686 349.764776 
L 707.785424 354.783696 
L 714.493163 310.475772 
L 721.200902 306.422692 
L 727.90864 369.064335 
L 734.616379 357.457004 
L 741.324117 301.748715 
L 748.031856 319.927209 
L 754.739594 339.88216 
L 761.447333 322.203833 
L 768.155071 247.540928 
L 774.86281 307.629992 
L 781.570548 387.639513 
L 788.278287 280.103544 
L 794.986026 306.853871 
L 801.693764 352.472578 
L 808.401503 305.474099 
L 815.109241 331.189597 
L 821.81698 277.757932 
L 828.524718 308.940776 
L 835.232457 298.057825 
L 841.940195 204.561034 
L 848.647934 277.550966 
L 855.355672 304.284046 
L 862.063411 290.262114 
L 868.77115 232.639392 
L 875.478888 202.560365 
L 882.186627 216.547802 
L 888.894365 172.77454 
L 895.602104 237.278875 
L 902.309842 227.068563 
L 909.017581 253.81889 
L 915.725319 194.350722 
L 922.433058 143.023209 
L 929.140796 241.142236 
L 935.848535 230.880183 
L 942.556273 209.372989 
L 949.264012 209.304 
L 955.971751 153.992395 
L 962.679489 110.029414 
L 969.387228 163.271361 
L 976.094966 161.305186 
L 982.802705 111.460928 
L 989.510443 155.199696 
L 996.218182 156.406996 
" style="fill:none;stroke:#e69f00;stroke-linecap:round;stroke-width:3;"/>
   </g>
   <g id="line2d_23">
    <path clip-path="url(#p1599e812bf)" d="M 184.581818 385.12143 
L 191.289557 347.039726 
L 197.997295 386.949627 
L 204.705034 435.966023 
L 211.412772 499.642494 
L 218.120511 376.221901 
L 224.828249 377.204989 
L 231.535988 393.210342 
L 238.243727 413.458494 
L 244.951465 383.724411 
L 251.659204 426.66981 
L 258.366942 352.903757 
L 265.074681 267.392395 
L 271.782419 310.475772 
L 278.490158 245.557506 
L 285.197896 227.844684 
L 291.905635 356.939589 
L 298.613373 322.359057 
L 305.321112 317.32289 
L 312.02885 229.207209 
L 318.736589 301.955681 
L 325.444328 318.461202 
L 332.152066 267.599361 
L 338.859805 318.978616 
L 345.567543 226.154464 
L 352.275282 393.95197 
L 358.98302 350.661627 
L 365.690759 327.412471 
L 372.398497 290.46908 
L 379.106236 354.542236 
L 385.813974 304.56 
L 392.521713 311.907285 
L 399.229452 357.646722 
L 405.93719 318.978616 
L 412.644929 391.22692 
L 419.352667 380.447452 
L 426.060406 395.348989 
L 432.768144 384.621262 
L 439.475883 355.007909 
L 446.183621 357.715711 
L 452.89136 335.190935 
L 459.599098 239.452015 
L 466.306837 297.988837 
L 473.014576 362.976091 
L 479.722314 338.381658 
L 486.430053 357.525992 
L 493.137791 298.8167 
L 499.84553 265.029536 
L 506.553268 325.498038 
L 513.261007 303.852867 
L 519.968745 386.242494 
L 526.676484 333.673186 
L 533.384222 295.953673 
L 540.091961 326.412137 
L 546.799699 357.577734 
L 553.507438 366.339285 
L 560.215177 381.43054 
L 566.922915 341.710357 
L 573.630654 294.315194 
L 580.338392 337.03638 
L 587.046131 325.756745 
L 593.753869 397.504882 
L 600.461608 362.493171 
L 607.169346 328.56803 
L 613.877085 375.514768 
L 620.584823 366.529004 
L 627.292562 334.225095 
L 634.000301 385.190418 
L 640.708039 370.927027 
L 647.415778 290.58981 
L 654.123516 337.778008 
L 660.831255 405.266099 
L 667.538993 342.227772 
L 674.246732 299.90327 
L 680.95447 399.57454 
L 687.662209 395.055787 
L 694.369947 386.190753 
L 701.077686 353.058981 
L 707.785424 349.07489 
L 714.493163 292.435255 
L 721.200902 299.989506 
L 727.90864 345.14254 
L 734.616379 355.335605 
L 741.324117 307.871452 
L 748.031856 325.118601 
L 754.739594 352.610555 
L 761.447333 339.244015 
L 768.155071 263.442798 
L 774.86281 299.851529 
L 781.570548 370.702814 
L 788.278287 296.747042 
L 794.986026 283.794433 
L 801.693764 337.76076 
L 808.401503 316.684745 
L 815.109241 351.472243 
L 821.81698 314.321886 
L 828.524718 298.8167 
L 835.232457 237.554829 
L 841.940195 222.963741 
L 848.647934 304.991179 
L 855.355672 296.229627 
L 862.063411 284.915498 
L 868.77115 257.233825 
L 875.478888 246.833795 
L 882.186627 229.914342 
L 888.894365 148.438814 
L 895.602104 198.714251 
L 902.309842 219.497065 
L 909.017581 247.989354 
L 915.725319 178.51784 
L 922.433058 137.797323 
L 929.140796 242.470266 
L 935.848535 254.457034 
L 942.556273 209.079787 
L 949.264012 233.967422 
L 955.971751 224.998905 
L 962.679489 162.874677 
L 969.387228 213.443316 
L 976.094966 199.921551 
L 982.802705 167.738373 
L 989.510443 204.009125 
L 996.218182 202.370646 
" style="fill:none;stroke:#696969;stroke-linecap:round;stroke-width:3;"/>
   </g>
  </g>
 </g>
 <defs>
  <clipPath id="p1599e812bf">
   <rect height="498.96" width="892.8" x="144" y="77.76"/>
  </clipPath>
 </defs>
</svg>
