<?xml version="1.0" encoding="utf-8" standalone="no"?>
<!DOCTYPE svg PUBLIC "-//W3C//DTD SVG 1.1//EN"
  "http://www.w3.org/Graphics/SVG/1.1/DTD/svg11.dtd">
<!-- Created with matplotlib (https://matplotlib.org/) -->
<svg height="648pt" version="1.1" viewBox="0 0 1152 648" width="1152pt" xmlns="http://www.w3.org/2000/svg" xmlns:xlink="http://www.w3.org/1999/xlink">
 <metadata>
  <rdf:RDF xmlns:cc="http://creativecommons.org/ns#" xmlns:dc="http://purl.org/dc/elements/1.1/" xmlns:rdf="http://www.w3.org/1999/02/22-rdf-syntax-ns#">
   <cc:Work>
    <dc:type rdf:resource="http://purl.org/dc/dcmitype/StillImage"/>
    <dc:date>2023-01-17T12:26:40.878246</dc:date>
    <dc:format>image/svg+xml</dc:format>
    <dc:creator>
     <cc:Agent>
      <dc:title>Matplotlib v3.3.1, https://matplotlib.org/</dc:title>
     </cc:Agent>
    </dc:creator>
   </cc:Work>
  </rdf:RDF>
 </metadata>
 <defs>
  <style type="text/css">*{stroke-linecap:butt;stroke-linejoin:round;}</style>
 </defs>
 <g id="figure_1">
  <g id="patch_1">
   <path d="M 0 648 
L 1152 648 
L 1152 0 
L 0 0 
z
" style="fill:#ffffff;"/>
  </g>
  <g id="axes_1">
   <g id="patch_2">
    <path d="M 144 576.72 
L 1036.8 576.72 
L 1036.8 77.76 
L 144 77.76 
z
" style="fill:none;"/>
   </g>
   <g id="line2d_1">
    <path clip-path="url(#pe3d2a1b855)" d="M 710.149627 366.434931 
L 716.802385 329.419251 
L 723.455142 375.678323 
L 730.107899 415.410171 
L 736.760656 362.708096 
L 743.413413 389.02755 
L 750.06617 443.750959 
L 756.718927 402.524167 
L 763.371684 279.349121 
L 770.024441 296.130405 
L 776.677198 429.538454 
L 783.329955 279.285955 
L 789.982712 307.058243 
L 796.635469 388.880162 
L 803.288227 319.712636 
L 809.940984 339.652255 
L 816.593741 300.509962 
L 823.246498 342.326311 
L 829.899255 325.629249 
L 836.552012 237.280106 
L 843.204769 282.275845 
L 849.857526 318.133469 
L 856.510283 299.09924 
L 863.16304 246.102387 
L 869.815797 224.015101 
L 876.468554 241.659663 
L 883.121311 183.546308 
L 889.774069 237.195884 
L 896.426826 238.943495 
L 903.079583 251.892667 
L 909.73234 136.950347 
L 916.385097 131.581178 
L 923.037854 251.513667 
L 929.690611 221.635822 
L 936.343368 200.390759 
L 942.996125 191.357922 
L 949.648882 134.802679 
L 956.301639 105.219613 
L 962.954396 116.063228 
L 969.607154 192.073811 
L 976.259911 142.635349 
L 982.912668 190.010366 
L 989.565425 136.255513 
L 996.218182 177.229639 
" style="fill:none;stroke:#0072b2;stroke-linecap:round;stroke-width:3;"/>
   </g>
   <g id="line2d_2">
    <path clip-path="url(#pe3d2a1b855)" d="M 570.441729 381.279103 
L 577.094486 424.758841 
L 583.747243 347.653369 
L 590.4 444.972182 
L 597.052757 395.617942 
L 603.705514 375.299323 
L 610.358271 488.26242 
L 617.011028 443.435126 
L 623.663785 419.537062 
L 630.316542 485.546253 
L 636.9693 497.632146 
L 643.622057 345.547812 
L 650.274814 417.389394 
L 656.927571 500.432536 
L 663.580328 390.648829 
L 670.233085 331.819585 
L 676.885842 471.060025 
L 683.538599 489.820532 
L 690.191356 443.22457 
L 696.844113 484.472419 
L 703.49687 451.520462 
L 710.149627 348.811425 
L 716.802385 321.039137 
L 723.455142 335.693809 
L 730.107899 390.080329 
L 736.760656 349.822092 
L 743.413413 353.654204 
L 750.06617 418.842228 
L 756.718927 391.175218 
L 763.371684 284.318234 
L 770.024441 261.283448 
L 776.677198 380.121047 
L 783.329955 240.859552 
L 789.982712 271.263785 
L 796.635469 349.611536 
L 803.288227 293.709015 
L 809.940984 300.846851 
L 816.593741 227.047102 
L 823.246498 291.687681 
L 829.899255 276.990898 
L 836.552012 199.843314 
L 843.204769 249.281777 
L 849.857526 303.078741 
L 856.510283 244.986442 
L 863.16304 208.770873 
L 869.815797 198.348369 
L 876.468554 250.671444 
L 883.121311 199.043203 
L 889.774069 248.986999 
L 896.426826 258.18828 
L 903.079583 265.873561 
L 909.73234 159.500855 
L 916.385097 141.329904 
L 923.037854 239.069829 
L 929.690611 232.18466 
L 936.343368 191.631645 
L 942.996125 213.276764 
L 949.648882 185.10442 
L 956.301639 155.373965 
L 962.954396 200.601315 
L 969.607154 255.830057 
L 976.259911 210.181596 
L 982.912668 275.853898 
L 989.565425 207.612817 
L 996.218182 212.139763 
" style="fill:none;stroke:#d55e00;stroke-linecap:round;stroke-width:3;"/>
   </g>
   <g id="patch_3">
    <path d="M 144 576.72 
L 1036.8 576.72 
" style="fill:none;stroke:#d3d3d3;stroke-linecap:square;stroke-linejoin:miter;stroke-width:1.25;"/>
   </g>
   <g id="matplotlib.axis_1">
    <g id="xtick_1">
     <g id="line2d_3">
      <defs>
       <path d="M 0 0 
L 0 6 
" id="mbe987e60e9" style="stroke:#696969;stroke-width:1.25;"/>
      </defs>
      <g>
       <use style="fill:#696969;stroke:#696969;stroke-width:1.25;" x="184.581818" xlink:href="#mbe987e60e9" y="576.72"/>
      </g>
     </g>
     <g id="text_1">
      <!-- 1900 -->
      <g style="fill:#696969;" transform="translate(167.092756 596.218438)scale(0.15 -0.15)">
       <defs>
        <path d="M 55.859375 6.203125 
L 55.859375 0 
L 9.1875 0 
L 9.1875 6.203125 
L 29.203125 6.203125 
L 29.203125 57.671875 
Q 20.359375 48.4375 10.84375 43.265625 
L 10.84375 51.65625 
Q 23.96875 58.546875 31.203125 68.015625 
L 37.15625 68.015625 
L 37.15625 6.203125 
z
" id="FranklinGothic-Book-49"/>
        <path d="M 5.71875 12.15625 
L 12.40625 14.59375 
Q 16.546875 5.375 26.375 5.375 
Q 35.890625 5.375 40.703125 13.375 
Q 45.515625 21.390625 45.65625 35.109375 
Q 39.109375 23.09375 25.984375 23.09375 
Q 16.703125 23.09375 10.40625 29.421875 
Q 4.109375 35.75 4.109375 45.0625 
Q 4.109375 54.546875 10.71875 61.28125 
Q 17.328125 68.015625 27.59375 68.015625 
Q 40.140625 68.015625 46.828125 59.203125 
Q 53.515625 50.390625 53.515625 34.96875 
Q 53.515625 18.75 46.4375 8.71875 
Q 39.359375 -1.3125 26.265625 -1.3125 
Q 10.984375 -1.3125 5.71875 12.15625 
z
M 27.828125 29.78125 
Q 34.71875 29.78125 39.375 34.59375 
Q 44.046875 39.40625 44.046875 45.84375 
Q 44.046875 52.09375 39.625 56.578125 
Q 35.203125 61.078125 27.984375 61.078125 
Q 20.65625 61.078125 16.40625 56.46875 
Q 12.15625 51.859375 12.15625 45.21875 
Q 12.15625 38.09375 16.859375 33.9375 
Q 21.578125 29.78125 27.828125 29.78125 
z
" id="FranklinGothic-Book-57"/>
        <path d="M 29.390625 -1.3125 
Q 17.875 -1.3125 10.984375 8.671875 
Q 4.109375 18.65625 4.109375 33.453125 
Q 4.109375 48 10.640625 58 
Q 17.1875 68.015625 29.15625 68.015625 
Q 41.65625 68.015625 48.125 57.5625 
Q 54.59375 47.125 54.59375 33.0625 
Q 54.59375 19.28125 47.953125 8.984375 
Q 41.3125 -1.3125 29.390625 -1.3125 
z
M 29.4375 5.21875 
Q 37.890625 5.21875 41.9375 12.859375 
Q 46 20.515625 46 32.078125 
Q 46 44.734375 41.84375 53.125 
Q 37.703125 61.53125 29.046875 61.53125 
Q 20.703125 61.53125 16.625 53.859375 
Q 12.546875 46.1875 12.546875 33.6875 
Q 12.546875 20.703125 16.84375 12.953125 
Q 21.140625 5.21875 29.4375 5.21875 
z
" id="FranklinGothic-Book-48"/>
       </defs>
       <use xlink:href="#FranklinGothic-Book-49"/>
       <use x="57.267578" xlink:href="#FranklinGothic-Book-57"/>
       <use x="115.910156" xlink:href="#FranklinGothic-Book-48"/>
       <use x="174.552734" xlink:href="#FranklinGothic-Book-48"/>
      </g>
     </g>
    </g>
    <g id="xtick_2">
     <g id="line2d_4">
      <g>
       <use style="fill:#696969;stroke:#696969;stroke-width:1.25;" x="317.63696" xlink:href="#mbe987e60e9" y="576.72"/>
      </g>
     </g>
     <g id="text_2">
      <!-- 1920 -->
      <g style="fill:#696969;" transform="translate(300.147897 596.218438)scale(0.15 -0.15)">
       <defs>
        <path d="M 52.484375 6.9375 
L 52.484375 0 
L 5.171875 0 
L 5.171875 6.9375 
Q 33.203125 27.9375 38.59375 34.59375 
Q 44 41.265625 44 47.796875 
Q 44 53.90625 39.453125 57.65625 
Q 34.90625 61.421875 29 61.421875 
Q 22.90625 61.421875 18.21875 57.296875 
Q 13.53125 53.171875 12.9375 46.09375 
L 5.171875 48.4375 
Q 10.0625 68.015625 29.109375 68.015625 
Q 39.40625 68.015625 45.84375 62.15625 
Q 52.296875 56.296875 52.296875 47.859375 
Q 52.296875 42.046875 49.234375 36.671875 
Q 46.1875 31.296875 37.6875 23.828125 
Q 29.203125 16.359375 15.71875 6.9375 
z
" id="FranklinGothic-Book-50"/>
       </defs>
       <use xlink:href="#FranklinGothic-Book-49"/>
       <use x="57.267578" xlink:href="#FranklinGothic-Book-57"/>
       <use x="115.910156" xlink:href="#FranklinGothic-Book-50"/>
       <use x="174.552734" xlink:href="#FranklinGothic-Book-48"/>
      </g>
     </g>
    </g>
    <g id="xtick_3">
     <g id="line2d_5">
      <g>
       <use style="fill:#696969;stroke:#696969;stroke-width:1.25;" x="450.692101" xlink:href="#mbe987e60e9" y="576.72"/>
      </g>
     </g>
     <g id="text_3">
      <!-- 1940 -->
      <g style="fill:#696969;" transform="translate(433.240539 596.218438)scale(0.15 -0.15)">
       <defs>
        <path d="M 44.09375 0 
L 36.03125 0 
L 36.03125 15.875 
L 3.078125 15.875 
L 3.078125 21.484375 
L 33.640625 68.0625 
L 44.09375 68.0625 
L 44.09375 22.46875 
L 54.890625 22.46875 
L 54.890625 15.875 
L 44.09375 15.875 
z
M 36.03125 22.46875 
L 36.03125 54 
Q 36.03125 57.421875 36.1875 61.375 
Q 34.078125 57.515625 32.5625 55.125 
L 11.765625 22.46875 
z
" id="FranklinGothic-Book-52"/>
       </defs>
       <use xlink:href="#FranklinGothic-Book-49"/>
       <use x="57.267578" xlink:href="#FranklinGothic-Book-57"/>
       <use x="115.410156" xlink:href="#FranklinGothic-Book-52"/>
       <use x="174.052734" xlink:href="#FranklinGothic-Book-48"/>
      </g>
     </g>
    </g>
    <g id="xtick_4">
     <g id="line2d_6">
      <g>
       <use style="fill:#696969;stroke:#696969;stroke-width:1.25;" x="583.747243" xlink:href="#mbe987e60e9" y="576.72"/>
      </g>
     </g>
     <g id="text_4">
      <!-- 1960 -->
      <g style="fill:#696969;" transform="translate(566.25818 596.218438)scale(0.15 -0.15)">
       <defs>
        <path d="M 53.5625 53.03125 
L 46.046875 50.984375 
Q 42.1875 61.140625 31.984375 61.140625 
Q 13.234375 61.140625 12.796875 30.125 
Q 15.765625 37.015625 21.234375 40.328125 
Q 26.703125 43.65625 32.8125 43.65625 
Q 42.09375 43.65625 48.359375 37.1875 
Q 54.640625 30.71875 54.640625 21.6875 
Q 54.640625 12.3125 47.96875 5.5 
Q 41.3125 -1.3125 30.90625 -1.3125 
Q 19.09375 -1.3125 12.078125 7.59375 
Q 5.078125 16.5 5.078125 31.84375 
Q 5.078125 46.828125 11.6875 57.421875 
Q 18.3125 68.015625 32.171875 68.015625 
Q 48.140625 68.015625 53.5625 53.03125 
z
M 30.765625 5.375 
Q 37.84375 5.375 42.359375 10.03125 
Q 46.875 14.703125 46.875 21.234375 
Q 46.875 27.6875 42.453125 32.296875 
Q 38.03125 36.921875 31.5 36.921875 
Q 24.75 36.921875 19.71875 32.078125 
Q 14.703125 27.25 14.703125 20.75 
Q 14.703125 14.75 19.1875 10.0625 
Q 23.6875 5.375 30.765625 5.375 
z
" id="FranklinGothic-Book-54"/>
       </defs>
       <use xlink:href="#FranklinGothic-Book-49"/>
       <use x="57.267578" xlink:href="#FranklinGothic-Book-57"/>
       <use x="115.910156" xlink:href="#FranklinGothic-Book-54"/>
       <use x="174.552734" xlink:href="#FranklinGothic-Book-48"/>
      </g>
     </g>
    </g>
    <g id="xtick_5">
     <g id="line2d_7">
      <g>
       <use style="fill:#696969;stroke:#696969;stroke-width:1.25;" x="716.802385" xlink:href="#mbe987e60e9" y="576.72"/>
      </g>
     </g>
     <g id="text_5">
      <!-- 1980 -->
      <g style="fill:#696969;" transform="translate(699.313322 596.218438)scale(0.15 -0.15)">
       <defs>
        <path d="M 19.484375 34.578125 
Q 6.84375 40.09375 6.84375 50.59375 
Q 6.84375 58.203125 13.140625 63.109375 
Q 19.4375 68.015625 29.828125 68.015625 
Q 40.09375 68.015625 46.140625 63.296875 
Q 52.203125 58.59375 52.203125 50.984375 
Q 52.203125 40.375 39.265625 35.796875 
Q 49.703125 30.953125 52.359375 26.453125 
Q 55.03125 21.96875 55.03125 17.484375 
Q 55.03125 9.46875 48.21875 4.078125 
Q 41.40625 -1.3125 29.734375 -1.3125 
Q 17.28125 -1.3125 10.4375 4.171875 
Q 3.609375 9.671875 3.609375 17.234375 
Q 3.609375 28.515625 19.484375 34.578125 
z
M 29.59375 38.71875 
Q 37.984375 40.96875 41.453125 43.890625 
Q 44.921875 46.828125 44.921875 51.21875 
Q 44.921875 56.34375 40.796875 59 
Q 36.671875 61.671875 29.9375 61.671875 
Q 23.484375 61.671875 19.375 58.859375 
Q 15.28125 56.0625 15.28125 51.3125 
Q 15.28125 46.625 19.84375 43.203125 
Q 24.421875 39.796875 29.59375 38.71875 
z
M 28.65625 31.0625 
Q 11.765625 27.046875 11.765625 16.9375 
Q 11.765625 11.671875 16.375 8.328125 
Q 21 4.984375 29.984375 4.984375 
Q 37.59375 4.984375 42.234375 8.25 
Q 46.875 11.53125 46.875 16.609375 
Q 46.875 26.3125 28.65625 31.0625 
z
" id="FranklinGothic-Book-56"/>
       </defs>
       <use xlink:href="#FranklinGothic-Book-49"/>
       <use x="57.267578" xlink:href="#FranklinGothic-Book-57"/>
       <use x="115.910156" xlink:href="#FranklinGothic-Book-56"/>
       <use x="174.552734" xlink:href="#FranklinGothic-Book-48"/>
      </g>
     </g>
    </g>
    <g id="xtick_6">
     <g id="line2d_8">
      <g>
       <use style="fill:#696969;stroke:#696969;stroke-width:1.25;" x="849.857526" xlink:href="#mbe987e60e9" y="576.72"/>
      </g>
     </g>
     <g id="text_6">
      <!-- 2000 -->
      <g style="fill:#696969;" transform="translate(832.265339 596.218438)scale(0.15 -0.15)">
       <use xlink:href="#FranklinGothic-Book-50"/>
       <use x="58.642578" xlink:href="#FranklinGothic-Book-48"/>
       <use x="117.285156" xlink:href="#FranklinGothic-Book-48"/>
       <use x="175.927734" xlink:href="#FranklinGothic-Book-48"/>
      </g>
     </g>
    </g>
    <g id="xtick_7">
     <g id="line2d_9">
      <g>
       <use style="fill:#696969;stroke:#696969;stroke-width:1.25;" x="982.912668" xlink:href="#mbe987e60e9" y="576.72"/>
      </g>
     </g>
     <g id="text_7">
      <!-- 2020 -->
      <g style="fill:#696969;" transform="translate(965.32048 596.218438)scale(0.15 -0.15)">
       <use xlink:href="#FranklinGothic-Book-50"/>
       <use x="58.642578" xlink:href="#FranklinGothic-Book-48"/>
       <use x="117.285156" xlink:href="#FranklinGothic-Book-50"/>
       <use x="175.927734" xlink:href="#FranklinGothic-Book-48"/>
      </g>
     </g>
    </g>
    <g id="text_8">
     <!-- Year -->
     <g style="fill:#696969;" transform="translate(572.109375 616.048125)scale(0.2 -0.2)">
      <defs>
       <path d="M 52 66.65625 
L 29.6875 28.03125 
L 29.6875 0 
L 21.34375 0 
L 21.34375 28.03125 
L -0.984375 66.65625 
L 8.84375 66.65625 
L 26.5625 35.984375 
L 44.390625 66.65625 
z
" id="FranklinGothic-Book-89"/>
       <path d="M 40.234375 14.703125 
L 47.359375 13.234375 
Q 45.40625 6.9375 39.734375 2.8125 
Q 34.078125 -1.3125 26.421875 -1.3125 
Q 16.3125 -1.3125 10.0625 5.78125 
Q 3.8125 12.890625 3.8125 24.421875 
Q 3.8125 36.1875 10.296875 43.4375 
Q 16.796875 50.6875 26.609375 50.6875 
Q 36.28125 50.6875 42.15625 44 
Q 48.046875 37.3125 48.1875 23.96875 
L 12.359375 23.96875 
Q 12.359375 12.796875 17.046875 8.890625 
Q 21.734375 4.984375 26.953125 4.984375 
Q 36.375 4.984375 40.234375 14.703125 
z
M 39.796875 29.6875 
Q 39.703125 33.84375 38.421875 37.0625 
Q 37.15625 40.28125 34.125 42.546875 
Q 31.109375 44.828125 26.859375 44.828125 
Q 21.140625 44.828125 17.15625 40.71875 
Q 13.1875 36.625 12.703125 29.6875 
z
" id="FranklinGothic-Book-101"/>
       <path d="M 46.296875 0 
L 38.671875 0 
Q 38.234375 2.34375 37.796875 8.890625 
Q 32.71875 -1.3125 20.515625 -1.3125 
Q 12.203125 -1.3125 7.765625 3.078125 
Q 3.328125 7.46875 3.328125 13.625 
Q 3.328125 21.09375 9.671875 25.90625 
Q 16.015625 30.71875 31.25 30.71875 
Q 33.296875 30.71875 37.796875 30.515625 
Q 37.796875 36.375 36.890625 38.984375 
Q 35.984375 41.609375 33.046875 43.171875 
Q 30.125 44.734375 25.34375 44.734375 
Q 13.671875 44.734375 11.765625 35.84375 
L 4.6875 37.0625 
Q 7.28125 50.6875 26.46875 50.6875 
Q 36.671875 50.6875 40.9375 46.171875 
Q 45.21875 41.65625 45.21875 30.515625 
L 45.21875 9.578125 
Q 45.21875 4.34375 46.296875 0 
z
M 37.796875 24.65625 
Q 33.109375 24.953125 30.671875 24.953125 
Q 21.578125 24.953125 16.546875 21.96875 
Q 11.53125 19 11.53125 13.28125 
Q 11.53125 9.671875 14.234375 7.125 
Q 16.9375 4.59375 22.078125 4.59375 
Q 29 4.59375 33.46875 9.625 
Q 37.9375 14.65625 37.9375 21.4375 
Q 37.9375 22.796875 37.796875 24.65625 
z
" id="FranklinGothic-Book-97"/>
       <path d="M 15.328125 0 
L 7.671875 0 
L 7.671875 49.3125 
L 14.40625 49.3125 
L 14.40625 37.796875 
Q 17.96875 45.953125 21.546875 48.359375 
Q 25.140625 50.78125 28.90625 50.78125 
Q 30.078125 50.78125 31.9375 50.59375 
L 31.9375 43.265625 
L 30.375 43.265625 
Q 24.03125 43.265625 19.828125 38.53125 
Q 15.625 33.796875 15.328125 26.078125 
z
" id="FranklinGothic-Book-114"/>
      </defs>
      <use xlink:href="#FranklinGothic-Book-89"/>
      <use x="45.025391" xlink:href="#FranklinGothic-Book-101"/>
      <use x="97.076172" xlink:href="#FranklinGothic-Book-97"/>
      <use x="149.957031" xlink:href="#FranklinGothic-Book-114"/>
     </g>
    </g>
   </g>
   <g id="matplotlib.axis_2">
    <g id="ytick_1">
     <g id="line2d_10">
      <path clip-path="url(#pe3d2a1b855)" d="M 144 552.439777 
L 1036.8 552.439777 
" style="fill:none;stroke:#d3d3d3;stroke-linecap:round;stroke-opacity:0.5;"/>
     </g>
     <g id="text_9">
      <!-- −1.5 -->
      <g style="fill:#696969;" transform="translate(104.455469 557.438996)scale(0.15 -0.15)">
       <defs>
        <path d="M 6 36.765625 
L 52.6875 36.765625 
L 52.6875 30.03125 
L 6 30.03125 
z
" id="FranklinGothic-Book-8722"/>
        <path d="M 17.96875 10.9375 
L 17.96875 0 
L 7.078125 0 
L 7.078125 10.9375 
z
" id="FranklinGothic-Book-46"/>
        <path d="M 48.875 66.65625 
L 48.1875 59.46875 
L 15.4375 59.46875 
L 14.015625 37.84375 
Q 21.4375 45.125 30.328125 45.125 
Q 39.703125 45.125 46.515625 38.625 
Q 53.328125 32.125 53.328125 22.015625 
Q 53.328125 11.765625 45.921875 5.21875 
Q 38.53125 -1.3125 27.828125 -1.3125 
Q 19.4375 -1.3125 12.890625 3.078125 
Q 6.34375 7.46875 4.296875 14.453125 
L 11.421875 16.890625 
Q 15.828125 5.28125 27.9375 5.28125 
Q 35.890625 5.28125 40.578125 9.984375 
Q 45.265625 14.703125 45.265625 22.015625 
Q 45.265625 29.6875 40.625 33.984375 
Q 35.984375 38.28125 29.5 38.28125 
Q 20.015625 38.28125 13.8125 29.203125 
L 7.234375 30.609375 
L 9.375 66.65625 
z
" id="FranklinGothic-Book-53"/>
       </defs>
       <use xlink:href="#FranklinGothic-Book-8722"/>
       <use x="58.642578" xlink:href="#FranklinGothic-Book-49"/>
       <use x="116.660156" xlink:href="#FranklinGothic-Book-46"/>
       <use x="141.660156" xlink:href="#FranklinGothic-Book-53"/>
      </g>
     </g>
    </g>
    <g id="ytick_2">
     <g id="line2d_11">
      <path clip-path="url(#pe3d2a1b855)" d="M 144 447.161961 
L 1036.8 447.161961 
" style="fill:none;stroke:#d3d3d3;stroke-linecap:round;stroke-opacity:0.5;"/>
     </g>
     <g id="text_10">
      <!-- −1.0 -->
      <g style="fill:#696969;" transform="translate(104.455469 452.161179)scale(0.15 -0.15)">
       <use xlink:href="#FranklinGothic-Book-8722"/>
       <use x="58.642578" xlink:href="#FranklinGothic-Book-49"/>
       <use x="116.660156" xlink:href="#FranklinGothic-Book-46"/>
       <use x="141.660156" xlink:href="#FranklinGothic-Book-48"/>
      </g>
     </g>
    </g>
    <g id="ytick_3">
     <g id="line2d_12">
      <path clip-path="url(#pe3d2a1b855)" d="M 144 341.884144 
L 1036.8 341.884144 
" style="fill:none;stroke:#d3d3d3;stroke-linecap:round;stroke-opacity:0.5;"/>
     </g>
     <g id="text_11">
      <!-- −0.5 -->
      <g style="fill:#696969;" transform="translate(104.361719 346.883363)scale(0.15 -0.15)">
       <use xlink:href="#FranklinGothic-Book-8722"/>
       <use x="58.642578" xlink:href="#FranklinGothic-Book-48"/>
       <use x="117.285156" xlink:href="#FranklinGothic-Book-46"/>
       <use x="142.285156" xlink:href="#FranklinGothic-Book-53"/>
      </g>
     </g>
    </g>
    <g id="ytick_4">
     <g id="line2d_13">
      <path clip-path="url(#pe3d2a1b855)" d="M 144 236.606328 
L 1036.8 236.606328 
" style="fill:none;stroke:#d3d3d3;stroke-linecap:round;stroke-opacity:0.5;"/>
     </g>
     <g id="text_12">
      <!-- 0.0 -->
      <g style="fill:#696969;" transform="translate(113.157813 241.605547)scale(0.15 -0.15)">
       <use xlink:href="#FranklinGothic-Book-48"/>
       <use x="58.642578" xlink:href="#FranklinGothic-Book-46"/>
       <use x="83.642578" xlink:href="#FranklinGothic-Book-48"/>
      </g>
     </g>
    </g>
    <g id="ytick_5">
     <g id="line2d_14">
      <path clip-path="url(#pe3d2a1b855)" d="M 144 131.328511 
L 1036.8 131.328511 
" style="fill:none;stroke:#d3d3d3;stroke-linecap:round;stroke-opacity:0.5;"/>
     </g>
     <g id="text_13">
      <!-- 0.5 -->
      <g style="fill:#696969;" transform="translate(113.157813 136.32773)scale(0.15 -0.15)">
       <use xlink:href="#FranklinGothic-Book-48"/>
       <use x="58.642578" xlink:href="#FranklinGothic-Book-46"/>
       <use x="83.642578" xlink:href="#FranklinGothic-Book-53"/>
      </g>
     </g>
    </g>
    <g id="text_14">
     <!-- $\!^\circ\!$C -->
     <g style="fill:#696969;" transform="translate(91.030469 337.34)rotate(-90)scale(0.2 -0.2)">
      <defs>
       <path d="M 31.296875 40.671875 
Q 27.390625 40.671875 24.703125 37.953125 
Q 22.015625 35.25 22.015625 31.34375 
Q 22.015625 27.484375 24.703125 24.828125 
Q 27.390625 22.171875 31.296875 22.171875 
Q 35.203125 22.171875 37.890625 24.828125 
Q 40.578125 27.484375 40.578125 31.34375 
Q 40.578125 35.203125 37.859375 37.9375 
Q 35.15625 40.671875 31.296875 40.671875 
z
M 31.296875 46.96875 
Q 34.421875 46.96875 37.296875 45.765625 
Q 40.1875 44.578125 42.28125 42.328125 
Q 44.53125 40.140625 45.65625 37.34375 
Q 46.78125 34.5625 46.78125 31.34375 
Q 46.78125 24.90625 42.265625 20.4375 
Q 37.75 15.96875 31.203125 15.96875 
Q 24.609375 15.96875 20.21875 20.359375 
Q 15.828125 24.75 15.828125 31.34375 
Q 15.828125 37.890625 20.3125 42.421875 
Q 24.8125 46.96875 31.296875 46.96875 
z
" id="DejaVuSans-8728"/>
       <path d="M 48.296875 22.40625 
L 55.90625 20.703125 
Q 50.4375 -1.3125 31.203125 -1.3125 
Q 18.5625 -1.3125 11.359375 8.890625 
Q 4.15625 19.09375 4.15625 33.984375 
Q 4.15625 49.359375 11.671875 58.6875 
Q 19.1875 68.015625 31.84375 68.015625 
Q 50.59375 68.015625 55.90625 46.578125 
L 48.046875 45.015625 
Q 43.75 60.9375 31.78125 60.9375 
Q 22.953125 60.9375 18.09375 53.53125 
Q 13.234375 46.140625 13.234375 32.765625 
Q 13.234375 20.515625 18.203125 13.109375 
Q 23.1875 5.71875 31.390625 5.71875 
Q 44.140625 5.71875 48.296875 22.40625 
z
" id="FranklinGothic-Book-67"/>
      </defs>
      <use transform="translate(-1.64095 39.121875)scale(0.7)" xlink:href="#DejaVuSans-8728"/>
      <use transform="translate(42.313804 0.840625)" xlink:href="#FranklinGothic-Book-67"/>
     </g>
    </g>
   </g>
   <g id="text_15">
    <!-- Compared to 1991-2020 average -->
    <g style="fill:#696969;" transform="translate(144 75.2652)scale(0.3 -0.3)">
     <defs>
      <path d="M 25.34375 -1.3125 
Q 15.1875 -1.3125 9.5 6.203125 
Q 3.8125 13.71875 3.8125 24.859375 
Q 3.8125 36.625 10.203125 43.65625 
Q 16.609375 50.6875 26.125 50.6875 
Q 36.328125 50.6875 42.203125 43.28125 
Q 48.09375 35.890625 48.09375 24.8125 
Q 48.09375 13.28125 41.75 5.984375 
Q 35.40625 -1.3125 25.34375 -1.3125 
z
M 25.921875 4.984375 
Q 31.78125 4.984375 35.734375 9.8125 
Q 39.703125 14.65625 39.703125 24.859375 
Q 39.703125 35.109375 35.546875 39.71875 
Q 31.390625 44.34375 25.828125 44.34375 
Q 20.125 44.34375 16.15625 39.671875 
Q 12.203125 35.015625 12.203125 24.90625 
Q 12.203125 14.203125 16.15625 9.59375 
Q 20.125 4.984375 25.921875 4.984375 
z
" id="FranklinGothic-Book-111"/>
      <path d="M 73.734375 0 
L 66.265625 0 
L 66.265625 30.671875 
Q 66.265625 35.40625 65.59375 37.765625 
Q 64.9375 40.140625 62.390625 42.109375 
Q 59.859375 44.09375 56.6875 44.09375 
Q 52.296875 44.09375 48.21875 40.0625 
Q 44.140625 36.03125 44.140625 27.78125 
L 44.140625 0 
L 36.71875 0 
L 36.71875 32.46875 
Q 36.71875 38.96875 33.609375 41.65625 
Q 30.515625 44.34375 27.09375 44.34375 
Q 22.21875 44.34375 18.59375 40.140625 
Q 14.984375 35.9375 14.984375 29.5 
L 14.984375 0 
L 7.671875 0 
L 7.671875 49.3125 
L 14.265625 49.3125 
L 14.265625 39.84375 
Q 19.78125 50.6875 29.4375 50.6875 
Q 34.765625 50.6875 38.46875 47.21875 
Q 42.1875 43.75 43.265625 38.875 
Q 48.34375 50.6875 58.84375 50.6875 
Q 63.875 50.6875 67.65625 47.796875 
Q 71.4375 44.921875 72.578125 41.1875 
Q 73.734375 37.453125 73.734375 30.671875 
z
" id="FranklinGothic-Book-109"/>
      <path d="M 15.328125 -16.65625 
L 7.671875 -16.65625 
L 7.671875 49.3125 
L 14.546875 49.3125 
L 14.546875 39.75 
Q 19.78125 50.6875 30.125 50.6875 
Q 38.875 50.6875 44.234375 43.375 
Q 49.609375 36.078125 49.609375 24.90625 
Q 49.609375 12.84375 44.09375 5.765625 
Q 38.578125 -1.3125 29.9375 -1.3125 
Q 20.65625 -1.3125 15.328125 7.515625 
z
M 15.328125 31.78125 
L 15.328125 17.921875 
Q 16.0625 12.3125 20.0625 8.640625 
Q 24.078125 4.984375 28.421875 4.984375 
Q 33.453125 4.984375 37.328125 9.375 
Q 41.21875 13.765625 41.21875 24.5625 
Q 41.21875 33.890625 37.703125 38.9375 
Q 34.1875 44 28.375 44 
Q 23.78125 44 20.140625 40.421875 
Q 16.5 36.859375 15.328125 31.78125 
z
" id="FranklinGothic-Book-112"/>
      <path d="M 46.1875 66.65625 
L 46.1875 0 
L 39.203125 0 
L 39.203125 8.453125 
Q 34.03125 -1.3125 23.640625 -1.3125 
Q 14.984375 -1.3125 9.421875 5.9375 
Q 3.859375 13.1875 3.859375 24.265625 
Q 3.859375 35.59375 9.375 43.140625 
Q 14.890625 50.6875 24.03125 50.6875 
Q 32.90625 50.6875 38.53125 42.578125 
L 38.53125 66.65625 
z
M 38.53125 30.28125 
Q 38.53125 36.765625 34.5625 40.671875 
Q 30.609375 44.578125 25.34375 44.578125 
Q 19.625 44.578125 15.9375 39.5 
Q 12.25 34.421875 12.25 25.25 
Q 12.25 15.328125 15.640625 10.15625 
Q 19.046875 4.984375 24.953125 4.984375 
Q 30.328125 4.984375 34.421875 9.46875 
Q 38.53125 13.96875 38.53125 20.015625 
z
" id="FranklinGothic-Book-100"/>
      <path id="FranklinGothic-Book-32"/>
      <path d="M 30.03125 5.28125 
L 30.03125 -0.78125 
Q 25.984375 -1.3125 23 -1.3125 
Q 8.6875 -1.3125 8.6875 13.625 
L 8.6875 43.3125 
L -0.046875 43.3125 
L -0.046875 49.3125 
L 8.6875 49.3125 
L 9.03125 61.71875 
L 16.15625 62.40625 
L 16.15625 49.3125 
L 27.203125 49.3125 
L 27.203125 43.3125 
L 16.15625 43.3125 
L 16.15625 12.359375 
Q 16.15625 4.734375 24.078125 4.734375 
Q 26.703125 4.734375 30.03125 5.28125 
z
" id="FranklinGothic-Book-116"/>
      <path d="M 23.53125 27.984375 
L 23.53125 22.015625 
L 1.46875 22.015625 
L 1.46875 27.984375 
z
" id="FranklinGothic-Book-45"/>
      <path d="M 43.796875 49.3125 
L 26.765625 0 
L 18.796875 0 
L 1.171875 49.3125 
L 9.671875 49.3125 
L 23.390625 9.234375 
L 36.96875 49.3125 
z
" id="FranklinGothic-Book-118"/>
      <path d="M 47.953125 57.03125 
L 47.953125 50.921875 
Q 42.671875 50.921875 40.890625 49.703125 
Q 39.109375 48.484375 38.53125 45.3125 
Q 43.265625 39.84375 43.265625 33.40625 
Q 43.265625 26.65625 38.109375 21.828125 
Q 32.953125 17 24.265625 17 
Q 22.3125 17 20.90625 17.28125 
Q 18.21875 17.828125 17.53125 17.828125 
Q 16.21875 17.828125 14.359375 16.53125 
Q 12.5 15.234375 12.5 13.1875 
Q 12.5 10.25 15.1875 9.375 
Q 17.875 8.5 27.828125 8.25 
Q 36.28125 8.015625 40.3125 7.109375 
Q 44.34375 6.203125 47.125 3.09375 
Q 49.90625 0 49.90625 -4.5 
Q 49.90625 -18.609375 25.09375 -18.609375 
Q 13.328125 -18.609375 7.9375 -15.0625 
Q 2.546875 -11.53125 2.546875 -5.609375 
Q 2.546875 1.5625 10.0625 4.25 
Q 5.21875 7.421875 5.21875 12.203125 
Q 5.21875 17.921875 12.0625 20.953125 
Q 5.671875 26.125 5.671875 33.984375 
Q 5.671875 41.3125 11.140625 46 
Q 16.609375 50.6875 24.46875 50.6875 
Q 30.03125 50.6875 34.578125 48.578125 
Q 35.296875 53.421875 37.953125 55.265625 
Q 40.625 57.125 46.046875 57.125 
Q 46.578125 57.125 47.953125 57.03125 
z
M 24.515625 22.859375 
Q 29.390625 22.859375 32.46875 25.859375 
Q 35.546875 28.859375 35.546875 33.640625 
Q 35.546875 38.53125 32.34375 41.625 
Q 29.15625 44.734375 24.609375 44.734375 
Q 20.265625 44.734375 16.890625 41.828125 
Q 13.53125 38.921875 13.53125 33.546875 
Q 13.53125 28.765625 16.546875 25.8125 
Q 19.578125 22.859375 24.515625 22.859375 
z
M 15.328125 2 
Q 9.96875 -0.34375 9.96875 -4.78125 
Q 9.96875 -8.546875 14.375 -10.625 
Q 18.796875 -12.703125 25.640625 -12.703125 
Q 31.984375 -12.703125 37.25 -10.90625 
Q 42.53125 -9.125 42.53125 -4.890625 
Q 42.53125 -2.59375 40.96875 -1.125 
Q 39.40625 0.34375 36.6875 0.734375 
Q 33.984375 1.125 27.25 1.3125 
Q 19.1875 1.515625 15.328125 2 
z
" id="FranklinGothic-Book-103"/>
     </defs>
     <use xlink:href="#FranklinGothic-Book-67"/>
     <use x="57.910156" xlink:href="#FranklinGothic-Book-111"/>
     <use x="109.863281" xlink:href="#FranklinGothic-Book-109"/>
     <use x="190.384766" xlink:href="#FranklinGothic-Book-112"/>
     <use x="243.802734" xlink:href="#FranklinGothic-Book-97"/>
     <use x="296.683594" xlink:href="#FranklinGothic-Book-114"/>
     <use x="329.642578" xlink:href="#FranklinGothic-Book-101"/>
     <use x="381.693359" xlink:href="#FranklinGothic-Book-100"/>
     <use x="435.550781" xlink:href="#FranklinGothic-Book-32"/>
     <use x="460.550781" xlink:href="#FranklinGothic-Book-116"/>
     <use x="489.8125" xlink:href="#FranklinGothic-Book-111"/>
     <use x="541.765625" xlink:href="#FranklinGothic-Book-32"/>
     <use x="566.765625" xlink:href="#FranklinGothic-Book-49"/>
     <use x="624.033203" xlink:href="#FranklinGothic-Book-57"/>
     <use x="682.675781" xlink:href="#FranklinGothic-Book-57"/>
     <use x="737.193359" xlink:href="#FranklinGothic-Book-49"/>
     <use x="795.835938" xlink:href="#FranklinGothic-Book-45"/>
     <use x="820.835938" xlink:href="#FranklinGothic-Book-50"/>
     <use x="879.478516" xlink:href="#FranklinGothic-Book-48"/>
     <use x="938.121094" xlink:href="#FranklinGothic-Book-50"/>
     <use x="996.763672" xlink:href="#FranklinGothic-Book-48"/>
     <use x="1055.40625" xlink:href="#FranklinGothic-Book-32"/>
     <use x="1080.40625" xlink:href="#FranklinGothic-Book-97"/>
     <use x="1131.037109" xlink:href="#FranklinGothic-Book-118"/>
     <use x="1174.556641" xlink:href="#FranklinGothic-Book-101"/>
     <use x="1226.607422" xlink:href="#FranklinGothic-Book-114"/>
     <use x="1259.566406" xlink:href="#FranklinGothic-Book-97"/>
     <use x="1312.447266" xlink:href="#FranklinGothic-Book-103"/>
     <use x="1361.568359" xlink:href="#FranklinGothic-Book-101"/>
    </g>
   </g>
   <g id="text_16">
    <!-- Eastern Africa -->
    <g style="fill:#696969;" transform="translate(144 42.76)scale(0.4 -0.4)">
     <defs>
      <path d="M 51.46875 7.328125 
L 51.46875 0 
L 8.34375 0 
L 8.34375 66.65625 
L 50.53125 66.65625 
L 50.53125 59.328125 
L 16.703125 59.328125 
L 16.703125 38.140625 
L 43.5625 38.140625 
L 43.5625 31.34375 
L 16.703125 31.34375 
L 16.703125 7.328125 
z
" id="FranklinGothic-Book-69"/>
      <path d="M 1.03125 12.796875 
L 8.34375 14.3125 
Q 10.796875 4.984375 23.78125 4.984375 
Q 28.5625 4.984375 31.875 7.125 
Q 35.203125 9.28125 35.203125 13.1875 
Q 35.203125 19 26.765625 20.5625 
L 16.359375 22.515625 
Q 10.25 23.6875 6.640625 27.09375 
Q 3.03125 30.515625 3.03125 36.140625 
Q 3.03125 42.328125 7.953125 46.5 
Q 12.890625 50.6875 21.234375 50.6875 
Q 37.3125 50.6875 41.0625 38.140625 
L 34.03125 36.625 
Q 31 44.34375 21.578125 44.34375 
Q 16.890625 44.34375 13.890625 42.40625 
Q 10.890625 40.484375 10.890625 37.015625 
Q 10.890625 31.546875 18.5625 30.125 
L 28.171875 28.421875 
Q 43.265625 25.6875 43.265625 13.8125 
Q 43.265625 7.03125 37.640625 2.859375 
Q 32.03125 -1.3125 22.703125 -1.3125 
Q 5.171875 -1.3125 1.03125 12.796875 
z
" id="FranklinGothic-Book-115"/>
      <path d="M 46.53125 0 
L 39.359375 0 
L 39.359375 31.6875 
Q 39.359375 38.53125 36.375 41.3125 
Q 33.40625 44.09375 29.15625 44.09375 
Q 23.296875 44.09375 19.3125 39.40625 
Q 15.328125 34.71875 15.328125 27.046875 
L 15.328125 0 
L 7.671875 0 
L 7.671875 49.3125 
L 14.796875 49.3125 
L 14.796875 40.234375 
Q 20.796875 50.6875 30.375 50.6875 
Q 35.890625 50.6875 39.765625 47.828125 
Q 43.65625 44.96875 45.09375 41.40625 
Q 46.53125 37.84375 46.53125 28.515625 
z
" id="FranklinGothic-Book-110"/>
      <path d="M 53.21875 0 
L 44.671875 0 
L 37.9375 19.484375 
L 13.28125 19.484375 
L 7.328125 0 
L 0.34375 0 
L 21.96875 66.65625 
L 31.5 66.65625 
z
M 36.1875 25.734375 
L 25.921875 57.765625 
L 15.578125 25.734375 
z
" id="FranklinGothic-Book-65"/>
      <path d="M 28.125 49.3125 
L 28.125 43.3125 
L 16.40625 43.3125 
L 16.40625 0 
L 8.734375 0 
L 8.734375 43.3125 
L 0.34375 43.3125 
L 0.34375 49.3125 
L 8.734375 49.3125 
Q 8.9375 61.1875 13.296875 64.59375 
Q 17.671875 68.015625 23.96875 68.015625 
Q 27.046875 68.015625 31 67.328125 
L 31 61.234375 
Q 28.515625 61.859375 26.265625 61.859375 
Q 21.234375 61.859375 18.8125 59.640625 
Q 16.40625 57.421875 16.40625 51.3125 
L 16.40625 49.3125 
z
" id="FranklinGothic-Book-102"/>
      <path d="M 15.578125 66.65625 
L 15.578125 58.15625 
L 7.328125 58.15625 
L 7.328125 66.65625 
z
M 15.328125 49.3125 
L 15.328125 0 
L 7.671875 0 
L 7.671875 49.3125 
z
" id="FranklinGothic-Book-105"/>
      <path d="M 36.8125 17.28125 
L 43.75 16.0625 
Q 42.28125 7.90625 37.25 3.296875 
Q 32.234375 -1.3125 24.703125 -1.3125 
Q 14.5 -1.3125 9.15625 6.203125 
Q 3.8125 13.71875 3.8125 24.5625 
Q 3.8125 35.796875 9.453125 43.234375 
Q 15.09375 50.6875 24.8125 50.6875 
Q 32.859375 50.6875 37.71875 45.875 
Q 42.578125 41.0625 43.75 33.453125 
L 36.8125 32.125 
Q 34.859375 44.34375 25 44.34375 
Q 18.65625 44.34375 15.234375 38.9375 
Q 11.8125 33.546875 11.8125 24.953125 
Q 11.8125 15.484375 15.203125 10.234375 
Q 18.609375 4.984375 24.75 4.984375 
Q 34.28125 4.984375 36.8125 17.28125 
z
" id="FranklinGothic-Book-99"/>
     </defs>
     <use xlink:href="#FranklinGothic-Book-69"/>
     <use x="54.785156" xlink:href="#FranklinGothic-Book-97"/>
     <use x="107.666016" xlink:href="#FranklinGothic-Book-115"/>
     <use x="154.052734" xlink:href="#FranklinGothic-Book-116"/>
     <use x="183.064453" xlink:href="#FranklinGothic-Book-101"/>
     <use x="235.115234" xlink:href="#FranklinGothic-Book-114"/>
     <use x="268.074219" xlink:href="#FranklinGothic-Book-110"/>
     <use x="322.273438" xlink:href="#FranklinGothic-Book-32"/>
     <use x="347.273438" xlink:href="#FranklinGothic-Book-65"/>
     <use x="400.837891" xlink:href="#FranklinGothic-Book-102"/>
     <use x="430.818359" xlink:href="#FranklinGothic-Book-114"/>
     <use x="463.777344" xlink:href="#FranklinGothic-Book-105"/>
     <use x="486.726562" xlink:href="#FranklinGothic-Book-99"/>
     <use x="533.308594" xlink:href="#FranklinGothic-Book-97"/>
    </g>
   </g>
   <g id="legend_1">
    <g id="line2d_15"/>
    <g id="text_17">
     <!-- HadCRUT5 (1900-2022) -->
     <g style="fill:#696969;" transform="translate(185.856 129.7184)scale(0.2 -0.2)">
      <defs>
       <path d="M 55.953125 0 
L 47.609375 0 
L 47.609375 31.734375 
L 16.703125 31.734375 
L 16.703125 0 
L 8.34375 0 
L 8.34375 66.65625 
L 16.703125 66.65625 
L 16.703125 39.0625 
L 47.609375 39.0625 
L 47.609375 66.65625 
L 55.953125 66.65625 
z
" id="FranklinGothic-Book-72"/>
       <path d="M 56.296875 0 
L 47.5625 0 
L 35.25 28.859375 
L 16.15625 28.859375 
L 16.15625 0 
L 8.34375 0 
L 8.34375 66.65625 
L 34.625 66.65625 
Q 45.3125 66.65625 50.453125 60.8125 
Q 55.609375 54.984375 55.609375 48.046875 
Q 55.609375 42.71875 52.734375 37.828125 
Q 49.859375 32.953125 43.21875 30.859375 
z
M 16.15625 35.640625 
L 33.59375 35.640625 
Q 40.484375 35.640625 43.875 39.28125 
Q 47.265625 42.921875 47.265625 48.1875 
Q 47.265625 53.46875 43.671875 56.390625 
Q 40.09375 59.328125 34.625 59.328125 
L 16.15625 59.328125 
z
" id="FranklinGothic-Book-82"/>
       <path d="M 46.34375 66.65625 
L 53.265625 66.65625 
L 53.265625 23.140625 
Q 53.265625 10.0625 46.84375 4.375 
Q 40.4375 -1.3125 30.03125 -1.3125 
Q 18.453125 -1.3125 12.890625 4.546875 
Q 7.328125 10.40625 7.328125 23.140625 
L 7.328125 66.65625 
L 15.671875 66.65625 
L 15.671875 23.140625 
Q 15.671875 15.375 17.46875 12.203125 
Q 19.28125 9.03125 22.9375 7.515625 
Q 26.609375 6 30.609375 6 
Q 38.328125 6 42.328125 10.046875 
Q 46.34375 14.109375 46.34375 23.140625 
z
" id="FranklinGothic-Book-85"/>
       <path d="M 28.421875 0 
L 20.125 0 
L 20.125 59.328125 
L 1.03125 59.328125 
L 1.03125 66.65625 
L 47.5625 66.65625 
L 47.5625 59.328125 
L 28.421875 59.328125 
z
" id="FranklinGothic-Book-84"/>
       <path d="M 24.703125 -16.65625 
L 19.578125 -16.65625 
Q 5.21875 2.203125 5.21875 25.09375 
Q 5.21875 46.96875 19.578125 66.65625 
L 24.703125 66.65625 
Q 12.359375 48.25 12.359375 25 
Q 12.359375 2.828125 24.703125 -16.65625 
z
" id="FranklinGothic-Book-40"/>
       <path d="M 4.640625 66.65625 
L 9.71875 66.65625 
Q 24.125 47.796875 24.125 24.90625 
Q 24.125 3.03125 9.71875 -16.65625 
L 4.640625 -16.65625 
Q 17 1.765625 17 25 
Q 17 47.171875 4.640625 66.65625 
z
" id="FranklinGothic-Book-41"/>
      </defs>
      <use xlink:href="#FranklinGothic-Book-72"/>
      <use x="64.257812" xlink:href="#FranklinGothic-Book-97"/>
      <use x="117.138672" xlink:href="#FranklinGothic-Book-100"/>
      <use x="170.996094" xlink:href="#FranklinGothic-Book-67"/>
      <use x="228.90625" xlink:href="#FranklinGothic-Book-82"/>
      <use x="289.310547" xlink:href="#FranklinGothic-Book-85"/>
      <use x="349.90625" xlink:href="#FranklinGothic-Book-84"/>
      <use x="398.441406" xlink:href="#FranklinGothic-Book-53"/>
      <use x="457.083984" xlink:href="#FranklinGothic-Book-32"/>
      <use x="482.083984" xlink:href="#FranklinGothic-Book-40"/>
      <use x="511.429688" xlink:href="#FranklinGothic-Book-49"/>
      <use x="568.697266" xlink:href="#FranklinGothic-Book-57"/>
      <use x="627.339844" xlink:href="#FranklinGothic-Book-48"/>
      <use x="685.982422" xlink:href="#FranklinGothic-Book-48"/>
      <use x="744.625" xlink:href="#FranklinGothic-Book-45"/>
      <use x="769.625" xlink:href="#FranklinGothic-Book-50"/>
      <use x="828.267578" xlink:href="#FranklinGothic-Book-48"/>
      <use x="886.910156" xlink:href="#FranklinGothic-Book-50"/>
      <use x="945.552734" xlink:href="#FranklinGothic-Book-50"/>
      <use x="1004.195312" xlink:href="#FranklinGothic-Book-41"/>
     </g>
    </g>
    <g id="line2d_16"/>
    <g id="text_18">
     <!-- NOAAGlobalTemp (1900-2022) -->
     <g style="fill:#e69f00;" transform="translate(185.856 157.04965)scale(0.2 -0.2)">
      <defs>
       <path d="M 57.421875 0 
L 49.3125 0 
L 14.84375 58.109375 
L 14.9375 53.71875 
Q 15.09375 51.21875 15.09375 49.515625 
L 15.09375 0 
L 8.34375 0 
L 8.34375 66.65625 
L 18.796875 66.65625 
L 51.03125 12.3125 
L 50.921875 16.9375 
Q 50.828125 19.671875 50.828125 21.78125 
L 50.828125 66.65625 
L 57.421875 66.65625 
z
" id="FranklinGothic-Book-78"/>
       <path d="M 31.34375 -1.3125 
Q 18.5 -1.3125 11.328125 8.671875 
Q 4.15625 18.65625 4.15625 33.15625 
Q 4.15625 48.296875 11.671875 58.15625 
Q 19.1875 68.015625 31.59375 68.015625 
Q 43.953125 68.015625 51.421875 58.328125 
Q 58.890625 48.640625 58.890625 33.890625 
Q 58.890625 19.734375 51.640625 9.203125 
Q 44.390625 -1.3125 31.34375 -1.3125 
z
M 31.546875 5.46875 
Q 40.28125 5.46875 45.203125 13.421875 
Q 50.140625 21.390625 50.140625 33.9375 
Q 50.140625 46.828125 45.03125 54 
Q 39.9375 61.1875 31.5 61.1875 
Q 22.953125 61.1875 17.921875 53.421875 
Q 12.890625 45.65625 12.890625 33.109375 
Q 12.890625 20.84375 17.96875 13.15625 
Q 23.046875 5.46875 31.546875 5.46875 
z
" id="FranklinGothic-Book-79"/>
       <path d="M 57.71875 33.59375 
L 57.71875 -0.875 
L 52.59375 -0.875 
L 50.296875 7.46875 
Q 44.140625 -1.3125 31.984375 -1.3125 
Q 18.796875 -1.3125 11.46875 8.59375 
Q 4.15625 18.5 4.15625 32.671875 
Q 4.15625 47.796875 11.90625 57.90625 
Q 19.671875 68.015625 33.015625 68.015625 
Q 51.421875 68.015625 57.03125 48.6875 
L 49.125 46.78125 
Q 47.40625 54.203125 42.71875 57.5625 
Q 38.03125 60.9375 32.46875 60.9375 
Q 22.609375 60.9375 17.921875 52.96875 
Q 13.234375 45.015625 13.234375 33.015625 
Q 13.234375 20.0625 18.484375 12.765625 
Q 23.734375 5.46875 32.765625 5.46875 
Q 39.796875 5.46875 44.5 10.125 
Q 49.21875 14.796875 49.21875 23 
Q 49.21875 24.515625 49.125 26.609375 
L 32.625 26.609375 
L 32.625 33.59375 
z
" id="FranklinGothic-Book-71"/>
       <path d="M 15.328125 0 
L 7.671875 0 
L 7.671875 66.65625 
L 15.328125 66.65625 
z
" id="FranklinGothic-Book-108"/>
       <path d="M 11.375 0 
L 7.671875 0 
L 7.671875 66.65625 
L 15.328125 66.65625 
L 15.328125 41.109375 
Q 20.609375 50.6875 29.890625 50.6875 
Q 38.375 50.6875 44.109375 44 
Q 49.859375 37.3125 49.859375 24.5625 
Q 49.859375 13.578125 44.21875 6.125 
Q 38.578125 -1.3125 29.546875 -1.3125 
Q 19.484375 -1.3125 14.109375 8.15625 
z
M 15.328125 19.34375 
Q 15.875 11.765625 20 8.34375 
Q 24.125 4.9375 28.71875 4.9375 
Q 34.578125 4.9375 38.15625 10.015625 
Q 41.75 15.09375 41.75 23.921875 
Q 41.75 33.453125 38.28125 38.890625 
Q 34.8125 44.34375 28.65625 44.34375 
Q 23.828125 44.34375 19.9375 40.453125 
Q 16.0625 36.578125 15.328125 30.421875 
z
" id="FranklinGothic-Book-98"/>
      </defs>
      <use xlink:href="#FranklinGothic-Book-78"/>
      <use x="65.722656" xlink:href="#FranklinGothic-Book-79"/>
      <use x="127.058594" xlink:href="#FranklinGothic-Book-65"/>
      <use x="180.623047" xlink:href="#FranklinGothic-Book-65"/>
      <use x="231.5625" xlink:href="#FranklinGothic-Book-71"/>
      <use x="296.259766" xlink:href="#FranklinGothic-Book-108"/>
      <use x="319.257812" xlink:href="#FranklinGothic-Book-111"/>
      <use x="371.210938" xlink:href="#FranklinGothic-Book-98"/>
      <use x="424.921875" xlink:href="#FranklinGothic-Book-97"/>
      <use x="477.802734" xlink:href="#FranklinGothic-Book-108"/>
      <use x="500.800781" xlink:href="#FranklinGothic-Book-84"/>
      <use x="542.835938" xlink:href="#FranklinGothic-Book-101"/>
      <use x="594.886719" xlink:href="#FranklinGothic-Book-109"/>
      <use x="675.408203" xlink:href="#FranklinGothic-Book-112"/>
      <use x="728.826172" xlink:href="#FranklinGothic-Book-32"/>
      <use x="753.826172" xlink:href="#FranklinGothic-Book-40"/>
      <use x="783.171875" xlink:href="#FranklinGothic-Book-49"/>
      <use x="840.439453" xlink:href="#FranklinGothic-Book-57"/>
      <use x="899.082031" xlink:href="#FranklinGothic-Book-48"/>
      <use x="957.724609" xlink:href="#FranklinGothic-Book-48"/>
      <use x="1016.367188" xlink:href="#FranklinGothic-Book-45"/>
      <use x="1041.367188" xlink:href="#FranklinGothic-Book-50"/>
      <use x="1100.009766" xlink:href="#FranklinGothic-Book-48"/>
      <use x="1158.652344" xlink:href="#FranklinGothic-Book-50"/>
      <use x="1217.294922" xlink:href="#FranklinGothic-Book-50"/>
      <use x="1275.9375" xlink:href="#FranklinGothic-Book-41"/>
     </g>
    </g>
    <g id="line2d_17"/>
    <g id="text_19">
     <!-- GISTEMP (1900-2022) -->
     <g style="fill:#56b4e9;" transform="translate(185.856 184.3809)scale(0.2 -0.2)">
      <defs>
       <path d="M 16.703125 0 
L 8.34375 0 
L 8.34375 66.65625 
L 16.703125 66.65625 
z
" id="FranklinGothic-Book-73"/>
       <path d="M 1.03125 17.71875 
L 8.546875 19.4375 
Q 13.09375 5.8125 28.21875 5.8125 
Q 36.140625 5.8125 40.140625 9.15625 
Q 44.140625 12.5 44.140625 18.109375 
Q 44.140625 22.359375 41.078125 24.953125 
Q 38.03125 27.546875 34.03125 28.515625 
L 20.703125 31.84375 
Q 15.53125 33.15625 12.234375 35.03125 
Q 8.9375 36.921875 6.640625 40.828125 
Q 4.34375 44.734375 4.34375 49.75 
Q 4.34375 58.109375 10.640625 63.0625 
Q 16.9375 68.015625 26.8125 68.015625 
Q 44.96875 68.015625 50.6875 51.5625 
L 43.109375 49.3125 
Q 41.796875 55.171875 36.90625 58.171875 
Q 32.03125 61.1875 26.515625 61.1875 
Q 21.046875 61.1875 16.765625 58.296875 
Q 12.5 55.421875 12.5 50.140625 
Q 12.5 42.78125 23.34375 40.1875 
L 35.796875 37.203125 
Q 52.875 33.109375 52.875 18.796875 
Q 52.875 10.15625 46.453125 4.421875 
Q 40.046875 -1.3125 28.375 -1.3125 
Q 7.671875 -1.3125 1.03125 17.71875 
z
" id="FranklinGothic-Book-83"/>
       <path d="M 72.703125 0 
L 64.59375 0 
L 64.59375 58.203125 
L 42.921875 0 
L 37.25 0 
L 15.4375 58.203125 
L 15.4375 0 
L 8.34375 0 
L 8.34375 66.65625 
L 20.75 66.65625 
L 40.828125 13.328125 
L 60.5 66.65625 
L 72.703125 66.65625 
z
" id="FranklinGothic-Book-77"/>
       <path d="M 16.703125 0 
L 8.34375 0 
L 8.34375 66.65625 
L 31.984375 66.65625 
Q 43.0625 66.65625 48.328125 60.625 
Q 53.609375 54.59375 53.609375 46.875 
Q 53.609375 38.28125 47.875 32.65625 
Q 42.140625 27.046875 32.859375 27.046875 
L 16.703125 27.046875 
z
M 16.703125 33.984375 
L 32.03125 33.984375 
Q 37.9375 33.984375 41.546875 37.515625 
Q 45.171875 41.0625 45.171875 46.875 
Q 45.171875 51.859375 41.9375 55.765625 
Q 38.71875 59.671875 32.625 59.671875 
L 16.703125 59.671875 
z
" id="FranklinGothic-Book-80"/>
      </defs>
      <use xlink:href="#FranklinGothic-Book-71"/>
      <use x="64.697266" xlink:href="#FranklinGothic-Book-73"/>
      <use x="89.697266" xlink:href="#FranklinGothic-Book-83"/>
      <use x="144.630859" xlink:href="#FranklinGothic-Book-84"/>
      <use x="193.166016" xlink:href="#FranklinGothic-Book-69"/>
      <use x="247.951172" xlink:href="#FranklinGothic-Book-77"/>
      <use x="328.957031" xlink:href="#FranklinGothic-Book-80"/>
      <use x="384.865234" xlink:href="#FranklinGothic-Book-32"/>
      <use x="409.865234" xlink:href="#FranklinGothic-Book-40"/>
      <use x="439.210938" xlink:href="#FranklinGothic-Book-49"/>
      <use x="496.478516" xlink:href="#FranklinGothic-Book-57"/>
      <use x="555.121094" xlink:href="#FranklinGothic-Book-48"/>
      <use x="613.763672" xlink:href="#FranklinGothic-Book-48"/>
      <use x="672.40625" xlink:href="#FranklinGothic-Book-45"/>
      <use x="697.40625" xlink:href="#FranklinGothic-Book-50"/>
      <use x="756.048828" xlink:href="#FranklinGothic-Book-48"/>
      <use x="814.691406" xlink:href="#FranklinGothic-Book-50"/>
      <use x="873.333984" xlink:href="#FranklinGothic-Book-50"/>
      <use x="931.976562" xlink:href="#FranklinGothic-Book-41"/>
     </g>
    </g>
    <g id="line2d_18"/>
    <g id="text_20">
     <!-- Berkeley Earth (1900-2022) -->
     <g style="fill:#009e73;" transform="translate(185.856 211.71215)scale(0.2 -0.2)">
      <defs>
       <path d="M 8.34375 0 
L 8.34375 66.65625 
L 34.71875 66.65625 
Q 44.671875 66.65625 49.484375 61.765625 
Q 54.296875 56.890625 54.296875 50.4375 
Q 54.296875 39.109375 42.484375 35.40625 
Q 49.515625 33.59375 52.921875 28.953125 
Q 56.34375 24.3125 56.34375 18.453125 
Q 56.34375 10.59375 51.046875 5.296875 
Q 45.75 0 34.71875 0 
z
M 16.40625 38.09375 
L 30.90625 38.09375 
Q 39.9375 38.09375 42.96875 41.53125 
Q 46 44.96875 46 49.609375 
Q 46 54.203125 42.75 57.03125 
Q 39.5 59.859375 33.0625 59.859375 
L 16.40625 59.859375 
z
M 16.40625 7.328125 
L 34.28125 7.328125 
Q 40.828125 7.328125 44.390625 10.5 
Q 47.953125 13.671875 47.953125 18.75 
Q 47.953125 22.3125 46.34375 25.359375 
Q 44.734375 28.421875 41.796875 30.078125 
Q 38.875 31.734375 33.0625 31.734375 
L 16.40625 31.734375 
z
" id="FranklinGothic-Book-66"/>
       <path d="M 48.390625 0 
L 40.4375 0 
L 26.03125 27.546875 
L 15.328125 15.234375 
L 15.328125 0 
L 7.671875 0 
L 7.671875 66.65625 
L 15.328125 66.65625 
L 15.328125 23.96875 
L 38.234375 49.3125 
L 46.4375 49.3125 
L 31 31.984375 
z
" id="FranklinGothic-Book-107"/>
       <path d="M 41.5 49.3125 
L 21.734375 -5.765625 
Q 17.4375 -17.671875 8.015625 -17.671875 
Q 5.03125 -17.671875 1.421875 -16.65625 
L 1.421875 -10.640625 
Q 4.390625 -11.328125 6.546875 -11.328125 
Q 10.203125 -11.328125 12.671875 -9.21875 
Q 15.140625 -7.125 17.578125 0.921875 
L 0.53125 49.3125 
L 8.34375 49.3125 
L 21.53125 12.25 
L 35.0625 49.3125 
z
" id="FranklinGothic-Book-121"/>
       <path d="M 46.34375 0 
L 38.671875 0 
L 38.671875 29.9375 
Q 38.671875 35.203125 38.015625 37.84375 
Q 37.359375 40.484375 34.890625 42.40625 
Q 32.421875 44.34375 29.203125 44.34375 
Q 23.296875 44.34375 19.3125 39.5 
Q 15.328125 34.671875 15.328125 26.5625 
L 15.328125 0 
L 7.671875 0 
L 7.671875 66.65625 
L 15.328125 66.65625 
L 15.328125 40.234375 
Q 20.5625 50.6875 30.28125 50.6875 
Q 34.625 50.6875 38.015625 48.96875 
Q 41.40625 47.265625 43.203125 44.484375 
Q 45.015625 41.703125 45.671875 38.984375 
Q 46.34375 36.28125 46.34375 29.9375 
z
" id="FranklinGothic-Book-104"/>
      </defs>
      <use xlink:href="#FranklinGothic-Book-66"/>
      <use x="60.449219" xlink:href="#FranklinGothic-Book-101"/>
      <use x="112.5" xlink:href="#FranklinGothic-Book-114"/>
      <use x="144.958984" xlink:href="#FranklinGothic-Book-107"/>
      <use x="192.806641" xlink:href="#FranklinGothic-Book-101"/>
      <use x="244.857422" xlink:href="#FranklinGothic-Book-108"/>
      <use x="267.855469" xlink:href="#FranklinGothic-Book-101"/>
      <use x="318.28125" xlink:href="#FranklinGothic-Book-121"/>
      <use x="359.785156" xlink:href="#FranklinGothic-Book-32"/>
      <use x="384.785156" xlink:href="#FranklinGothic-Book-69"/>
      <use x="439.570312" xlink:href="#FranklinGothic-Book-97"/>
      <use x="492.451172" xlink:href="#FranklinGothic-Book-114"/>
      <use x="528.785156" xlink:href="#FranklinGothic-Book-116"/>
      <use x="559.546875" xlink:href="#FranklinGothic-Book-104"/>
      <use x="613.550781" xlink:href="#FranklinGothic-Book-32"/>
      <use x="638.550781" xlink:href="#FranklinGothic-Book-40"/>
      <use x="667.896484" xlink:href="#FranklinGothic-Book-49"/>
      <use x="725.164062" xlink:href="#FranklinGothic-Book-57"/>
      <use x="783.806641" xlink:href="#FranklinGothic-Book-48"/>
      <use x="842.449219" xlink:href="#FranklinGothic-Book-48"/>
      <use x="901.091797" xlink:href="#FranklinGothic-Book-45"/>
      <use x="926.091797" xlink:href="#FranklinGothic-Book-50"/>
      <use x="984.734375" xlink:href="#FranklinGothic-Book-48"/>
      <use x="1043.376953" xlink:href="#FranklinGothic-Book-50"/>
      <use x="1102.019531" xlink:href="#FranklinGothic-Book-50"/>
      <use x="1160.662109" xlink:href="#FranklinGothic-Book-41"/>
     </g>
    </g>
    <g id="line2d_19"/>
    <g id="text_21">
     <!-- JRA-55 (1958-2022) -->
     <g style="fill:#d55e00;" transform="translate(185.856 239.246525)scale(0.2 -0.2)">
      <defs>
       <path d="M 29.6875 66.65625 
L 29.6875 20.359375 
Q 29.6875 8.25 24.21875 3.46875 
Q 18.75 -1.3125 9.71875 -1.3125 
Q 4.890625 -1.3125 0 0 
L 0 6.84375 
Q 4.78125 5.859375 8.6875 5.859375 
Q 14.265625 5.859375 16.890625 7.515625 
Q 19.53125 9.1875 20.4375 11.8125 
Q 21.34375 14.453125 21.34375 20.359375 
L 21.34375 66.65625 
z
" id="FranklinGothic-Book-74"/>
      </defs>
      <use xlink:href="#FranklinGothic-Book-74"/>
      <use x="37.353516" xlink:href="#FranklinGothic-Book-82"/>
      <use x="98.632812" xlink:href="#FranklinGothic-Book-65"/>
      <use x="153.947266" xlink:href="#FranklinGothic-Book-45"/>
      <use x="178.947266" xlink:href="#FranklinGothic-Book-53"/>
      <use x="237.589844" xlink:href="#FranklinGothic-Book-53"/>
      <use x="296.232422" xlink:href="#FranklinGothic-Book-32"/>
      <use x="321.232422" xlink:href="#FranklinGothic-Book-40"/>
      <use x="350.578125" xlink:href="#FranklinGothic-Book-49"/>
      <use x="407.845703" xlink:href="#FranklinGothic-Book-57"/>
      <use x="466.488281" xlink:href="#FranklinGothic-Book-53"/>
      <use x="525.130859" xlink:href="#FranklinGothic-Book-56"/>
      <use x="583.773438" xlink:href="#FranklinGothic-Book-45"/>
      <use x="608.773438" xlink:href="#FranklinGothic-Book-50"/>
      <use x="667.416016" xlink:href="#FranklinGothic-Book-48"/>
      <use x="726.058594" xlink:href="#FranklinGothic-Book-50"/>
      <use x="784.701172" xlink:href="#FranklinGothic-Book-50"/>
      <use x="843.34375" xlink:href="#FranklinGothic-Book-41"/>
     </g>
    </g>
    <g id="line2d_20"/>
    <g id="text_22">
     <!-- ERA5 (1979-2022) -->
     <g style="fill:#0072b2;" transform="translate(185.856 266.577775)scale(0.2 -0.2)">
      <defs>
       <path d="M 28.078125 0 
L 19.484375 0 
Q 19.484375 16.75 26.3125 32.59375 
Q 33.15625 48.4375 43.0625 59.328125 
L 6.890625 59.328125 
L 7.71875 66.65625 
L 51.765625 66.65625 
L 51.765625 61.671875 
Q 39.84375 47.3125 33.9375 31.78125 
Q 28.03125 16.265625 28.03125 2.296875 
Q 28.03125 1.515625 28.078125 0 
z
" id="FranklinGothic-Book-55"/>
      </defs>
      <use xlink:href="#FranklinGothic-Book-69"/>
      <use x="54.785156" xlink:href="#FranklinGothic-Book-82"/>
      <use x="116.064453" xlink:href="#FranklinGothic-Book-65"/>
      <use x="169.628906" xlink:href="#FranklinGothic-Book-53"/>
      <use x="228.271484" xlink:href="#FranklinGothic-Book-32"/>
      <use x="253.271484" xlink:href="#FranklinGothic-Book-40"/>
      <use x="282.617188" xlink:href="#FranklinGothic-Book-49"/>
      <use x="339.884766" xlink:href="#FranklinGothic-Book-57"/>
      <use x="392.777344" xlink:href="#FranklinGothic-Book-55"/>
      <use x="451.419922" xlink:href="#FranklinGothic-Book-57"/>
      <use x="510.0625" xlink:href="#FranklinGothic-Book-45"/>
      <use x="535.0625" xlink:href="#FranklinGothic-Book-50"/>
      <use x="593.705078" xlink:href="#FranklinGothic-Book-48"/>
      <use x="652.347656" xlink:href="#FranklinGothic-Book-50"/>
      <use x="710.990234" xlink:href="#FranklinGothic-Book-50"/>
      <use x="769.632812" xlink:href="#FranklinGothic-Book-41"/>
     </g>
    </g>
   </g>
   <g id="line2d_21">
    <path clip-path="url(#pe3d2a1b855)" d="M 184.581818 401.639833 
L 191.234575 361.73954 
L 197.887332 434.149623 
L 204.540089 484.935641 
L 211.192846 542.248885 
L 217.845604 468.912358 
L 224.498361 506.054371 
L 231.151118 513.255374 
L 237.803875 486.030531 
L 244.456632 497.632146 
L 251.109389 485.125141 
L 257.762146 513.318541 
L 264.414903 520.287932 
L 271.06766 526.983601 
L 277.720417 398.081443 
L 284.373174 371.256655 
L 291.025931 512.771096 
L 297.678689 554.04 
L 304.331446 493.042033 
L 310.984203 377.636491 
L 317.63696 512.265762 
L 324.289717 459.83741 
L 330.942474 481.756251 
L 337.595231 492.936755 
L 344.247988 403.155833 
L 350.900745 441.666459 
L 357.553502 424.274563 
L 364.206259 428.717287 
L 370.859016 403.219 
L 377.511773 447.604128 
L 384.164531 461.669244 
L 390.817288 358.74965 
L 397.470045 460.763855 
L 404.122802 400.902888 
L 410.775559 445.056404 
L 417.428316 443.41407 
L 424.081073 426.822287 
L 430.73383 451.878407 
L 437.386587 443.329848 
L 444.039344 390.290884 
L 450.692101 358.981262 
L 457.344858 331.293196 
L 463.997615 381.784437 
L 470.650373 445.83546 
L 477.30313 401.576666 
L 483.955887 426.801231 
L 490.608644 422.379563 
L 497.261401 406.335224 
L 503.914158 471.565359 
L 510.566915 450.804573 
L 517.219672 476.11336 
L 523.872429 458.953076 
L 530.525186 385.005938 
L 537.177943 411.220114 
L 543.8307 427.285509 
L 550.483458 446.425016 
L 557.136215 490.220588 
L 563.788972 441.203236 
L 570.441729 353.464704 
L 577.094486 411.662281 
L 583.747243 382.85827 
L 590.4 460.321688 
L 597.052757 427.411842 
L 603.705514 412.251837 
L 610.358271 492.515644 
L 617.011028 459.795299 
L 623.663785 399.702721 
L 630.316542 482.787974 
L 636.9693 489.715254 
L 643.622057 336.030698 
L 650.274814 405.661445 
L 656.927571 478.787417 
L 663.580328 370.856599 
L 670.233085 328.408584 
L 676.885842 454.61563 
L 683.538599 444.445793 
L 690.191356 382.163437 
L 696.844113 405.703557 
L 703.49687 380.205269 
L 710.149627 337.146643 
L 716.802385 296.993683 
L 723.455142 366.540209 
L 730.107899 370.603933 
L 736.760656 337.209809 
L 743.413413 352.264537 
L 750.06617 379.047213 
L 756.718927 370.224932 
L 763.371684 266.842117 
L 770.024441 315.94369 
L 776.677198 442.65607 
L 783.329955 322.892026 
L 789.982712 330.661529 
L 796.635469 377.362768 
L 803.288227 344.51609 
L 809.940984 338.620532 
L 816.593741 301.162685 
L 823.246498 308.511076 
L 829.899255 289.961125 
L 836.552012 252.629611 
L 843.204769 300.467851 
L 849.857526 298.657073 
L 856.510283 280.7809 
L 863.16304 219.677655 
L 869.815797 203.212204 
L 876.468554 223.446601 
L 883.121311 157.226854 
L 889.774069 226.499657 
L 896.426826 249.723944 
L 903.079583 248.186888 
L 909.73234 139.771792 
L 916.385097 135.286957 
L 923.037854 209.59204 
L 929.690611 208.623484 
L 936.343368 200.138092 
L 942.996125 200.601315 
L 949.648882 148.573018 
L 956.301639 132.002289 
L 962.954396 152.889408 
L 969.607154 227.973547 
L 976.259911 176.366361 
L 982.912668 215.045431 
L 989.565425 188.47331 
L 996.218182 231.784604 
" style="fill:none;stroke:#009e73;stroke-linecap:round;stroke-width:3;"/>
   </g>
   <g id="line2d_22">
    <path clip-path="url(#pe3d2a1b855)" d="M 184.581818 368.224654 
L 191.234575 404.903445 
L 197.887332 328.640195 
L 204.540089 384.774327 
L 211.192846 469.649302 
L 217.845604 381.426492 
L 224.498361 422.505896 
L 231.151118 447.204072 
L 237.803875 479.019028 
L 244.456632 469.817747 
L 251.109389 485.546253 
L 257.762146 481.650973 
L 264.414903 503.822482 
L 271.06766 507.254538 
L 277.720417 380.373714 
L 284.373174 360.307762 
L 291.025931 490.199532 
L 297.678689 523.972656 
L 304.331446 469.649302 
L 310.984203 363.824041 
L 317.63696 469.165024 
L 324.289717 426.969676 
L 330.942474 456.384297 
L 337.595231 450.404517 
L 344.247988 364.329375 
L 350.900745 398.397276 
L 357.553502 371.025044 
L 364.206259 361.486874 
L 370.859016 322.365637 
L 377.511773 396.902331 
L 384.164531 421.874229 
L 390.817288 318.975691 
L 397.470045 409.725169 
L 404.122802 361.423707 
L 410.775559 390.985718 
L 417.428316 388.880162 
L 424.081073 374.709767 
L 430.73383 402.692611 
L 437.386587 401.829333 
L 444.039344 369.551154 
L 450.692101 330.640473 
L 457.344858 275.601231 
L 463.997615 330.851029 
L 470.650373 407.535391 
L 477.30313 372.709489 
L 483.955887 396.733887 
L 490.608644 385.111216 
L 497.261401 384.016326 
L 503.914158 429.833232 
L 510.566915 405.114001 
L 517.219672 443.245626 
L 523.872429 433.244233 
L 530.525186 359.718206 
L 537.177943 391.469996 
L 543.8307 405.303501 
L 550.483458 417.663117 
L 557.136215 462.364077 
L 563.788972 420.505618 
L 570.441729 321.92347 
L 577.094486 386.332438 
L 583.747243 361.318429 
L 590.4 430.022732 
L 597.052757 409.57778 
L 603.705514 395.091553 
L 610.358271 485.504141 
L 617.011028 439.28718 
L 623.663785 379.257769 
L 630.316542 473.018192 
L 636.9693 479.187472 
L 643.622057 324.471193 
L 650.274814 388.101106 
L 656.927571 461.921911 
L 663.580328 365.676931 
L 670.233085 308.426854 
L 676.885842 441.161125 
L 683.538599 420.40034 
L 690.191356 373.551711 
L 696.844113 399.344776 
L 703.49687 385.342827 
L 710.149627 341.231422 
L 716.802385 291.856126 
L 723.455142 360.41304 
L 730.107899 367.213987 
L 736.760656 338.052032 
L 743.413413 338.452087 
L 750.06617 372.204155 
L 756.718927 368.098321 
L 763.371684 263.346893 
L 770.024441 306.279187 
L 776.677198 447.014572 
L 783.329955 330.282529 
L 789.982712 342.199978 
L 796.635469 401.197666 
L 803.288227 358.602262 
L 809.940984 340.368144 
L 816.593741 302.720797 
L 823.246498 313.374912 
L 829.899255 315.269912 
L 836.552012 276.338176 
L 843.204769 315.059357 
L 849.857526 298.762351 
L 856.510283 287.729235 
L 863.16304 219.50921 
L 869.815797 208.033928 
L 876.468554 226.58388 
L 883.121311 173.292249 
L 889.774069 239.701496 
L 896.426826 265.389283 
L 903.079583 253.535001 
L 909.73234 141.772071 
L 916.385097 123.643231 
L 923.037854 204.749261 
L 929.690611 202.685815 
L 936.343368 182.598808 
L 942.996125 194.83209 
L 949.648882 133.160345 
L 956.301639 118.295118 
L 962.954396 120.000618 
L 969.607154 201.232981 
L 976.259911 153.121019 
L 982.912668 184.430642 
L 989.565425 135.834402 
L 996.218182 190.915755 
" style="fill:none;stroke:#56b4e9;stroke-linecap:round;stroke-width:3;"/>
   </g>
   <g id="line2d_23">
    <path clip-path="url(#pe3d2a1b855)" d="M 184.581818 393.364997 
L 191.234575 423.179674 
L 197.887332 409.135613 
L 204.540089 454.468241 
L 211.192846 458.826743 
L 217.845604 417.78945 
L 224.498361 434.002234 
L 231.151118 455.689464 
L 237.803875 460.111132 
L 244.456632 451.836296 
L 251.109389 487.841309 
L 257.762146 488.220309 
L 264.414903 490.346921 
L 271.06766 493.947422 
L 277.720417 422.505896 
L 284.373174 405.682501 
L 291.025931 517.02432 
L 297.678689 532.184325 
L 304.331446 528.773324 
L 310.984203 436.10779 
L 317.63696 497.316312 
L 324.289717 461.100744 
L 330.942474 460.953355 
L 337.595231 465.269745 
L 344.247988 415.347005 
L 350.900745 439.181902 
L 357.553502 399.28161 
L 364.206259 414.167893 
L 370.859016 361.571096 
L 377.511773 424.674619 
L 384.164531 424.085063 
L 390.817288 333.756697 
L 397.470045 410.293669 
L 404.122802 375.194045 
L 410.775559 407.198502 
L 417.428316 418.126339 
L 424.081073 407.409057 
L 430.73383 424.443008 
L 437.386587 416.062894 
L 444.039344 386.964105 
L 450.692101 372.835822 
L 457.344858 310.027077 
L 463.997615 356.517761 
L 470.650373 427.201287 
L 477.30313 401.197666 
L 483.955887 419.11595 
L 490.608644 407.68278 
L 497.261401 399.871166 
L 503.914158 450.825629 
L 510.566915 415.325949 
L 517.219672 471.354803 
L 523.872429 439.66618 
L 530.525186 388.101106 
L 537.177943 414.778504 
L 543.8307 432.128289 
L 550.483458 449.793906 
L 557.136215 472.976081 
L 563.788972 429.685843 
L 570.441729 352.833037 
L 577.094486 411.872837 
L 583.747243 389.55394 
L 590.4 456.489575 
L 597.052757 425.09573 
L 603.705514 405.82989 
L 610.358271 487.841309 
L 617.011028 450.825629 
L 623.663785 397.955109 
L 630.316542 477.58725 
L 636.9693 478.387361 
L 643.622057 336.746587 
L 650.274814 404.798167 
L 656.927571 457.837131 
L 663.580328 372.056766 
L 670.233085 328.198028 
L 676.885842 439.160847 
L 683.538599 433.454789 
L 690.191356 380.794825 
L 696.844113 403.682223 
L 703.49687 387.679994 
L 710.149627 352.243481 
L 716.802385 313.627578 
L 723.455142 375.825712 
L 730.107899 372.856878 
L 736.760656 353.633149 
L 743.413413 357.149428 
L 750.06617 372.246267 
L 756.718927 361.592152 
L 763.371684 276.864565 
L 770.024441 319.649469 
L 776.677198 443.856237 
L 783.329955 324.408027 
L 789.982712 342.305256 
L 796.635469 386.985161 
L 803.288227 339.189032 
L 809.940984 338.515254 
L 816.593741 317.03858 
L 823.246498 315.775246 
L 829.899255 310.595577 
L 836.552012 251.155722 
L 843.204769 300.42574 
L 849.857526 307.437243 
L 856.510283 299.267684 
L 863.16304 232.647882 
L 869.815797 217.04571 
L 876.468554 237.932828 
L 883.121311 199.927537 
L 889.774069 231.426659 
L 896.426826 245.491776 
L 903.079583 255.809002 
L 909.73234 158.595466 
L 916.385097 146.193739 
L 923.037854 209.613096 
L 929.690611 198.053591 
L 936.343368 195.737479 
L 942.996125 191.926423 
L 949.648882 146.172683 
L 956.301639 112.483782 
L 962.954396 140.571904 
L 969.607154 170.007581 
L 976.259911 139.645459 
L 982.912668 160.490467 
L 989.565425 140.129737 
L 996.218182 191.378978 
" style="fill:none;stroke:#e69f00;stroke-linecap:round;stroke-width:3;"/>
   </g>
   <g id="line2d_24">
    <path clip-path="url(#pe3d2a1b855)" d="M 184.581818 429.875343 
L 191.234575 348.242924 
L 197.887332 398.839443 
L 204.540089 475.081638 
L 211.192846 546.249442 
L 217.845604 456.805409 
L 224.498361 437.981735 
L 231.151118 454.447186 
L 237.803875 406.293112 
L 244.456632 415.55756 
L 251.109389 442.971904 
L 257.762146 441.161125 
L 264.414903 468.364913 
L 271.06766 495.379201 
L 277.720417 392.943885 
L 284.373174 364.918931 
L 291.025931 491.862922 
L 297.678689 477.882028 
L 304.331446 425.622119 
L 310.984203 350.790648 
L 317.63696 489.483643 
L 324.289717 439.834625 
L 330.942474 422.653285 
L 337.595231 434.381234 
L 344.247988 313.016967 
L 350.900745 400.923944 
L 357.553502 373.825434 
L 364.206259 350.285314 
L 370.859016 315.396246 
L 377.511773 405.303501 
L 384.164531 456.152686 
L 390.817288 343.463312 
L 397.470045 390.354051 
L 404.122802 307.942576 
L 410.775559 402.082 
L 417.428316 394.186163 
L 424.081073 370.372321 
L 430.73383 402.018833 
L 437.386587 425.411564 
L 444.039344 359.023373 
L 450.692101 328.808639 
L 457.344858 326.239861 
L 463.997615 377.468046 
L 470.650373 477.608305 
L 477.30313 423.853452 
L 483.955887 452.446907 
L 490.608644 442.971904 
L 497.261401 427.959287 
L 503.914158 473.418248 
L 510.566915 473.69197 
L 517.219672 495.505534 
L 523.872429 462.279855 
L 530.525186 377.236435 
L 537.177943 416.631394 
L 543.8307 430.949177 
L 550.483458 433.8759 
L 557.136215 484.935641 
L 563.788972 449.183295 
L 570.441729 370.667099 
L 577.094486 439.687236 
L 583.747243 408.756613 
L 590.4 482.345807 
L 597.052757 451.415185 
L 603.705514 422.842785 
L 610.358271 515.55043 
L 617.011028 480.219195 
L 623.663785 418.252672 
L 630.316542 513.276429 
L 636.9693 519.066709 
L 643.622057 370.624988 
L 650.274814 416.757727 
L 656.927571 502.980259 
L 663.580328 410.209447 
L 670.233085 361.36054 
L 676.885842 458.637243 
L 683.538599 456.868575 
L 690.191356 384.879605 
L 696.844113 414.98906 
L 703.49687 383.468882 
L 710.149627 342.621089 
L 716.802385 312.637967 
L 723.455142 364.203041 
L 730.107899 373.1306 
L 736.760656 339.67331 
L 743.413413 352.538259 
L 750.06617 375.320379 
L 756.718927 364.35043 
L 763.371684 275.517009 
L 770.024441 305.858075 
L 776.677198 429.55951 
L 783.329955 310.721911 
L 789.982712 333.672475 
L 796.635469 409.283002 
L 803.288227 350.748536 
L 809.940984 349.969481 
L 816.593741 317.79658 
L 823.246498 307.689909 
L 829.899255 264.252282 
L 836.552012 252.692778 
L 843.204769 311.353577 
L 849.857526 288.066124 
L 856.510283 270.274174 
L 863.16304 212.01343 
L 869.815797 202.28576 
L 876.468554 220.161933 
L 883.121311 168.344192 
L 889.774069 230.963437 
L 896.426826 225.699546 
L 903.079583 232.268882 
L 909.73234 130.444178 
L 916.385097 100.44 
L 923.037854 200.222314 
L 929.690611 221.509489 
L 936.343368 209.97104 
L 942.996125 205.84415 
L 949.648882 150.804907 
L 956.301639 135.308013 
L 962.954396 167.817803 
L 969.607154 222.6886 
L 976.259911 185.820309 
L 982.912668 219.761877 
L 989.565425 210.939596 
L 996.218182 222.814934 
" style="fill:none;stroke:#696969;stroke-linecap:round;stroke-width:3;"/>
   </g>
  </g>
 </g>
 <defs>
  <clipPath id="pe3d2a1b855">
   <rect height="498.96" width="892.8" x="144" y="77.76"/>
  </clipPath>
 </defs>
</svg>
