<?xml version="1.0" encoding="utf-8" standalone="no"?>
<!DOCTYPE svg PUBLIC "-//W3C//DTD SVG 1.1//EN"
  "http://www.w3.org/Graphics/SVG/1.1/DTD/svg11.dtd">
<!-- Created with matplotlib (https://matplotlib.org/) -->
<svg height="648pt" version="1.1" viewBox="0 0 1152 648" width="1152pt" xmlns="http://www.w3.org/2000/svg" xmlns:xlink="http://www.w3.org/1999/xlink">
 <metadata>
  <rdf:RDF xmlns:cc="http://creativecommons.org/ns#" xmlns:dc="http://purl.org/dc/elements/1.1/" xmlns:rdf="http://www.w3.org/1999/02/22-rdf-syntax-ns#">
   <cc:Work>
    <dc:type rdf:resource="http://purl.org/dc/dcmitype/StillImage"/>
    <dc:date>2023-10-31T15:34:41.153544</dc:date>
    <dc:format>image/svg+xml</dc:format>
    <dc:creator>
     <cc:Agent>
      <dc:title>Matplotlib v3.3.1, https://matplotlib.org/</dc:title>
     </cc:Agent>
    </dc:creator>
   </cc:Work>
  </rdf:RDF>
 </metadata>
 <defs>
  <style type="text/css">*{stroke-linecap:butt;stroke-linejoin:round;}</style>
 </defs>
 <g id="figure_1">
  <g id="patch_1">
   <path d="M 0 648 
L 1152 648 
L 1152 0 
L 0 0 
z
" style="fill:#ffffff;"/>
  </g>
  <g id="axes_1">
   <g id="patch_2">
    <path d="M 144 576.72 
L 1036.8 576.72 
L 1036.8 77.76 
L 144 77.76 
z
" style="fill:none;"/>
   </g>
   <g id="line2d_1">
    <path clip-path="url(#p04cc077045)" d="M 705.876718 339.15888 
L 712.475388 305.509586 
L 719.074058 332.811245 
L 725.672727 311.601268 
L 732.271397 290.203593 
L 738.870067 372.159761 
L 745.468736 360.812509 
L 752.067406 341.172378 
L 758.666075 277.440068 
L 765.264745 318.529064 
L 771.863415 338.442212 
L 778.462084 306.68697 
L 785.060754 315.184611 
L 791.659424 339.739041 
L 798.258093 307.454829 
L 804.856763 270.870606 
L 811.455432 267.935678 
L 818.054102 311.294125 
L 824.652772 257.066205 
L 831.251441 206.575199 
L 837.850111 318.512001 
L 844.44878 335.080695 
L 851.04745 283.19048 
L 857.64612 241.640767 
L 864.244789 243.381248 
L 870.843459 263.447967 
L 877.442129 230.395897 
L 884.040798 232.648283 
L 890.639468 255.25747 
L 897.238137 261.826931 
L 903.836807 219.492297 
L 910.435477 217.103401 
L 917.034146 243.77371 
L 923.632816 208.0256 
L 930.231486 226.556601 
L 936.830155 208.554569 
L 943.428825 147.177027 
L 950.027494 168.625893 
L 956.626164 178.010839 
L 963.224834 223.980007 
L 969.823503 163.88223 
L 976.422173 168.557639 
L 983.020843 215.55062 
L 989.619512 253.482862 
L 996.218182 140.556375 
" style="fill:none;stroke:#0072b2;stroke-linecap:round;stroke-width:3;"/>
   </g>
   <g id="line2d_2">
    <path clip-path="url(#p04cc077045)" d="M 567.304656 266.007498 
L 573.903326 253.056274 
L 580.501996 271.672592 
L 587.100665 286.483742 
L 593.699335 342.605715 
L 600.298004 305.492522 
L 606.896674 370.982377 
L 613.495344 337.589035 
L 620.094013 334.193391 
L 626.692683 342.861668 
L 633.291353 362.84307 
L 639.890022 261.229708 
L 646.488692 292.848441 
L 653.087361 367.262526 
L 659.686031 290.903198 
L 666.284701 317.812396 
L 672.88337 388.984408 
L 679.48204 376.54509 
L 686.08071 398.198718 
L 692.679379 316.908028 
L 699.278049 333.698549 
L 705.876718 347.980729 
L 712.475388 297.080199 
L 719.074058 325.593369 
L 725.672727 290.101212 
L 732.271397 274.84641 
L 738.870067 355.778765 
L 745.468736 343.339447 
L 752.067406 327.896946 
L 758.666075 266.45115 
L 765.264745 312.710398 
L 771.863415 324.927891 
L 778.462084 297.23377 
L 785.060754 303.956804 
L 791.659424 327.231468 
L 798.258093 294.776621 
L 804.856763 257.202713 
L 811.455432 259.540418 
L 818.054102 297.916312 
L 824.652772 248.534436 
L 831.251441 200.995423 
L 837.850111 304.298075 
L 844.44878 319.706448 
L 851.04745 271.723783 
L 857.64612 236.726469 
L 864.244789 243.091168 
L 870.843459 270.051556 
L 877.442129 247.800704 
L 884.040798 246.04316 
L 890.639468 281.876587 
L 897.238137 283.77064 
L 903.836807 230.70304 
L 910.435477 228.706606 
L 917.034146 241.828466 
L 923.632816 206.250992 
L 930.231486 228.894305 
L 936.830155 210.209733 
L 943.428825 153.644108 
L 950.027494 174.700512 
L 956.626164 188.48785 
L 963.224834 232.068123 
L 969.823503 165.878664 
L 976.422173 158.643724 
L 983.020843 210.926401 
L 989.619512 248.397928 
L 996.218182 137.484938 
" style="fill:none;stroke:#d55e00;stroke-linecap:round;stroke-width:3;"/>
   </g>
   <g id="patch_3">
    <path d="M 144 576.72 
L 1036.8 576.72 
" style="fill:none;stroke:#d3d3d3;stroke-linecap:square;stroke-linejoin:miter;stroke-width:1.25;"/>
   </g>
   <g id="matplotlib.axis_1">
    <g id="xtick_1">
     <g id="line2d_3">
      <defs>
       <path d="M 0 0 
L 0 6 
" id="ma0f0b6237d" style="stroke:#696969;stroke-width:1.25;"/>
      </defs>
      <g>
       <use style="fill:#696969;stroke:#696969;stroke-width:1.25;" x="184.581818" xlink:href="#ma0f0b6237d" y="576.72"/>
      </g>
     </g>
     <g id="text_1">
      <!-- 1900 -->
      <g style="fill:#696969;" transform="translate(157.765256 601.550938)scale(0.23 -0.23)">
       <defs>
        <path d="M 55.859375 6.203125 
L 55.859375 0 
L 9.1875 0 
L 9.1875 6.203125 
L 29.203125 6.203125 
L 29.203125 57.671875 
Q 20.359375 48.4375 10.84375 43.265625 
L 10.84375 51.65625 
Q 23.96875 58.546875 31.203125 68.015625 
L 37.15625 68.015625 
L 37.15625 6.203125 
z
" id="FranklinGothic-Book-49"/>
        <path d="M 5.71875 12.15625 
L 12.40625 14.59375 
Q 16.546875 5.375 26.375 5.375 
Q 35.890625 5.375 40.703125 13.375 
Q 45.515625 21.390625 45.65625 35.109375 
Q 39.109375 23.09375 25.984375 23.09375 
Q 16.703125 23.09375 10.40625 29.421875 
Q 4.109375 35.75 4.109375 45.0625 
Q 4.109375 54.546875 10.71875 61.28125 
Q 17.328125 68.015625 27.59375 68.015625 
Q 40.140625 68.015625 46.828125 59.203125 
Q 53.515625 50.390625 53.515625 34.96875 
Q 53.515625 18.75 46.4375 8.71875 
Q 39.359375 -1.3125 26.265625 -1.3125 
Q 10.984375 -1.3125 5.71875 12.15625 
z
M 27.828125 29.78125 
Q 34.71875 29.78125 39.375 34.59375 
Q 44.046875 39.40625 44.046875 45.84375 
Q 44.046875 52.09375 39.625 56.578125 
Q 35.203125 61.078125 27.984375 61.078125 
Q 20.65625 61.078125 16.40625 56.46875 
Q 12.15625 51.859375 12.15625 45.21875 
Q 12.15625 38.09375 16.859375 33.9375 
Q 21.578125 29.78125 27.828125 29.78125 
z
" id="FranklinGothic-Book-57"/>
        <path d="M 29.390625 -1.3125 
Q 17.875 -1.3125 10.984375 8.671875 
Q 4.109375 18.65625 4.109375 33.453125 
Q 4.109375 48 10.640625 58 
Q 17.1875 68.015625 29.15625 68.015625 
Q 41.65625 68.015625 48.125 57.5625 
Q 54.59375 47.125 54.59375 33.0625 
Q 54.59375 19.28125 47.953125 8.984375 
Q 41.3125 -1.3125 29.390625 -1.3125 
z
M 29.4375 5.21875 
Q 37.890625 5.21875 41.9375 12.859375 
Q 46 20.515625 46 32.078125 
Q 46 44.734375 41.84375 53.125 
Q 37.703125 61.53125 29.046875 61.53125 
Q 20.703125 61.53125 16.625 53.859375 
Q 12.546875 46.1875 12.546875 33.6875 
Q 12.546875 20.703125 16.84375 12.953125 
Q 21.140625 5.21875 29.4375 5.21875 
z
" id="FranklinGothic-Book-48"/>
       </defs>
       <use xlink:href="#FranklinGothic-Book-49"/>
       <use x="57.267578" xlink:href="#FranklinGothic-Book-57"/>
       <use x="115.910156" xlink:href="#FranklinGothic-Book-48"/>
       <use x="174.552734" xlink:href="#FranklinGothic-Book-48"/>
      </g>
     </g>
    </g>
    <g id="xtick_2">
     <g id="line2d_4">
      <g>
       <use style="fill:#696969;stroke:#696969;stroke-width:1.25;" x="316.555211" xlink:href="#ma0f0b6237d" y="576.72"/>
      </g>
     </g>
     <g id="text_2">
      <!-- 1920 -->
      <g style="fill:#696969;" transform="translate(289.738648 601.550938)scale(0.23 -0.23)">
       <defs>
        <path d="M 52.484375 6.9375 
L 52.484375 0 
L 5.171875 0 
L 5.171875 6.9375 
Q 33.203125 27.9375 38.59375 34.59375 
Q 44 41.265625 44 47.796875 
Q 44 53.90625 39.453125 57.65625 
Q 34.90625 61.421875 29 61.421875 
Q 22.90625 61.421875 18.21875 57.296875 
Q 13.53125 53.171875 12.9375 46.09375 
L 5.171875 48.4375 
Q 10.0625 68.015625 29.109375 68.015625 
Q 39.40625 68.015625 45.84375 62.15625 
Q 52.296875 56.296875 52.296875 47.859375 
Q 52.296875 42.046875 49.234375 36.671875 
Q 46.1875 31.296875 37.6875 23.828125 
Q 29.203125 16.359375 15.71875 6.9375 
z
" id="FranklinGothic-Book-50"/>
       </defs>
       <use xlink:href="#FranklinGothic-Book-49"/>
       <use x="57.267578" xlink:href="#FranklinGothic-Book-57"/>
       <use x="115.910156" xlink:href="#FranklinGothic-Book-50"/>
       <use x="174.552734" xlink:href="#FranklinGothic-Book-48"/>
      </g>
     </g>
    </g>
    <g id="xtick_3">
     <g id="line2d_5">
      <g>
       <use style="fill:#696969;stroke:#696969;stroke-width:1.25;" x="448.528603" xlink:href="#ma0f0b6237d" y="576.72"/>
      </g>
     </g>
     <g id="text_3">
      <!-- 1940 -->
      <g style="fill:#696969;" transform="translate(421.769541 601.550938)scale(0.23 -0.23)">
       <defs>
        <path d="M 44.09375 0 
L 36.03125 0 
L 36.03125 15.875 
L 3.078125 15.875 
L 3.078125 21.484375 
L 33.640625 68.0625 
L 44.09375 68.0625 
L 44.09375 22.46875 
L 54.890625 22.46875 
L 54.890625 15.875 
L 44.09375 15.875 
z
M 36.03125 22.46875 
L 36.03125 54 
Q 36.03125 57.421875 36.1875 61.375 
Q 34.078125 57.515625 32.5625 55.125 
L 11.765625 22.46875 
z
" id="FranklinGothic-Book-52"/>
       </defs>
       <use xlink:href="#FranklinGothic-Book-49"/>
       <use x="57.267578" xlink:href="#FranklinGothic-Book-57"/>
       <use x="115.410156" xlink:href="#FranklinGothic-Book-52"/>
       <use x="174.052734" xlink:href="#FranklinGothic-Book-48"/>
      </g>
     </g>
    </g>
    <g id="xtick_4">
     <g id="line2d_6">
      <g>
       <use style="fill:#696969;stroke:#696969;stroke-width:1.25;" x="580.501996" xlink:href="#ma0f0b6237d" y="576.72"/>
      </g>
     </g>
     <g id="text_4">
      <!-- 1960 -->
      <g style="fill:#696969;" transform="translate(553.685433 601.550938)scale(0.23 -0.23)">
       <defs>
        <path d="M 53.5625 53.03125 
L 46.046875 50.984375 
Q 42.1875 61.140625 31.984375 61.140625 
Q 13.234375 61.140625 12.796875 30.125 
Q 15.765625 37.015625 21.234375 40.328125 
Q 26.703125 43.65625 32.8125 43.65625 
Q 42.09375 43.65625 48.359375 37.1875 
Q 54.640625 30.71875 54.640625 21.6875 
Q 54.640625 12.3125 47.96875 5.5 
Q 41.3125 -1.3125 30.90625 -1.3125 
Q 19.09375 -1.3125 12.078125 7.59375 
Q 5.078125 16.5 5.078125 31.84375 
Q 5.078125 46.828125 11.6875 57.421875 
Q 18.3125 68.015625 32.171875 68.015625 
Q 48.140625 68.015625 53.5625 53.03125 
z
M 30.765625 5.375 
Q 37.84375 5.375 42.359375 10.03125 
Q 46.875 14.703125 46.875 21.234375 
Q 46.875 27.6875 42.453125 32.296875 
Q 38.03125 36.921875 31.5 36.921875 
Q 24.75 36.921875 19.71875 32.078125 
Q 14.703125 27.25 14.703125 20.75 
Q 14.703125 14.75 19.1875 10.0625 
Q 23.6875 5.375 30.765625 5.375 
z
" id="FranklinGothic-Book-54"/>
       </defs>
       <use xlink:href="#FranklinGothic-Book-49"/>
       <use x="57.267578" xlink:href="#FranklinGothic-Book-57"/>
       <use x="115.910156" xlink:href="#FranklinGothic-Book-54"/>
       <use x="174.552734" xlink:href="#FranklinGothic-Book-48"/>
      </g>
     </g>
    </g>
    <g id="xtick_5">
     <g id="line2d_7">
      <g>
       <use style="fill:#696969;stroke:#696969;stroke-width:1.25;" x="712.475388" xlink:href="#ma0f0b6237d" y="576.72"/>
      </g>
     </g>
     <g id="text_5">
      <!-- 1980 -->
      <g style="fill:#696969;" transform="translate(685.658826 601.550938)scale(0.23 -0.23)">
       <defs>
        <path d="M 19.484375 34.578125 
Q 6.84375 40.09375 6.84375 50.59375 
Q 6.84375 58.203125 13.140625 63.109375 
Q 19.4375 68.015625 29.828125 68.015625 
Q 40.09375 68.015625 46.140625 63.296875 
Q 52.203125 58.59375 52.203125 50.984375 
Q 52.203125 40.375 39.265625 35.796875 
Q 49.703125 30.953125 52.359375 26.453125 
Q 55.03125 21.96875 55.03125 17.484375 
Q 55.03125 9.46875 48.21875 4.078125 
Q 41.40625 -1.3125 29.734375 -1.3125 
Q 17.28125 -1.3125 10.4375 4.171875 
Q 3.609375 9.671875 3.609375 17.234375 
Q 3.609375 28.515625 19.484375 34.578125 
z
M 29.59375 38.71875 
Q 37.984375 40.96875 41.453125 43.890625 
Q 44.921875 46.828125 44.921875 51.21875 
Q 44.921875 56.34375 40.796875 59 
Q 36.671875 61.671875 29.9375 61.671875 
Q 23.484375 61.671875 19.375 58.859375 
Q 15.28125 56.0625 15.28125 51.3125 
Q 15.28125 46.625 19.84375 43.203125 
Q 24.421875 39.796875 29.59375 38.71875 
z
M 28.65625 31.0625 
Q 11.765625 27.046875 11.765625 16.9375 
Q 11.765625 11.671875 16.375 8.328125 
Q 21 4.984375 29.984375 4.984375 
Q 37.59375 4.984375 42.234375 8.25 
Q 46.875 11.53125 46.875 16.609375 
Q 46.875 26.3125 28.65625 31.0625 
z
" id="FranklinGothic-Book-56"/>
       </defs>
       <use xlink:href="#FranklinGothic-Book-49"/>
       <use x="57.267578" xlink:href="#FranklinGothic-Book-57"/>
       <use x="115.910156" xlink:href="#FranklinGothic-Book-56"/>
       <use x="174.552734" xlink:href="#FranklinGothic-Book-48"/>
      </g>
     </g>
    </g>
    <g id="xtick_6">
     <g id="line2d_8">
      <g>
       <use style="fill:#696969;stroke:#696969;stroke-width:1.25;" x="844.44878" xlink:href="#ma0f0b6237d" y="576.72"/>
      </g>
     </g>
     <g id="text_6">
      <!-- 2000 -->
      <g style="fill:#696969;" transform="translate(817.474093 601.550938)scale(0.23 -0.23)">
       <use xlink:href="#FranklinGothic-Book-50"/>
       <use x="58.642578" xlink:href="#FranklinGothic-Book-48"/>
       <use x="117.285156" xlink:href="#FranklinGothic-Book-48"/>
       <use x="175.927734" xlink:href="#FranklinGothic-Book-48"/>
      </g>
     </g>
    </g>
    <g id="xtick_7">
     <g id="line2d_9">
      <g>
       <use style="fill:#696969;stroke:#696969;stroke-width:1.25;" x="976.422173" xlink:href="#ma0f0b6237d" y="576.72"/>
      </g>
     </g>
     <g id="text_7">
      <!-- 2020 -->
      <g style="fill:#696969;" transform="translate(949.447485 601.550938)scale(0.23 -0.23)">
       <use xlink:href="#FranklinGothic-Book-50"/>
       <use x="58.642578" xlink:href="#FranklinGothic-Book-48"/>
       <use x="117.285156" xlink:href="#FranklinGothic-Book-50"/>
       <use x="175.927734" xlink:href="#FranklinGothic-Book-48"/>
      </g>
     </g>
    </g>
    <g id="text_8">
     <!-- Year -->
     <g style="fill:#696969;" transform="translate(569.365781 624.712813)scale(0.23 -0.23)">
      <defs>
       <path d="M 52 66.65625 
L 29.6875 28.03125 
L 29.6875 0 
L 21.34375 0 
L 21.34375 28.03125 
L -0.984375 66.65625 
L 8.84375 66.65625 
L 26.5625 35.984375 
L 44.390625 66.65625 
z
" id="FranklinGothic-Book-89"/>
       <path d="M 40.234375 14.703125 
L 47.359375 13.234375 
Q 45.40625 6.9375 39.734375 2.8125 
Q 34.078125 -1.3125 26.421875 -1.3125 
Q 16.3125 -1.3125 10.0625 5.78125 
Q 3.8125 12.890625 3.8125 24.421875 
Q 3.8125 36.1875 10.296875 43.4375 
Q 16.796875 50.6875 26.609375 50.6875 
Q 36.28125 50.6875 42.15625 44 
Q 48.046875 37.3125 48.1875 23.96875 
L 12.359375 23.96875 
Q 12.359375 12.796875 17.046875 8.890625 
Q 21.734375 4.984375 26.953125 4.984375 
Q 36.375 4.984375 40.234375 14.703125 
z
M 39.796875 29.6875 
Q 39.703125 33.84375 38.421875 37.0625 
Q 37.15625 40.28125 34.125 42.546875 
Q 31.109375 44.828125 26.859375 44.828125 
Q 21.140625 44.828125 17.15625 40.71875 
Q 13.1875 36.625 12.703125 29.6875 
z
" id="FranklinGothic-Book-101"/>
       <path d="M 46.296875 0 
L 38.671875 0 
Q 38.234375 2.34375 37.796875 8.890625 
Q 32.71875 -1.3125 20.515625 -1.3125 
Q 12.203125 -1.3125 7.765625 3.078125 
Q 3.328125 7.46875 3.328125 13.625 
Q 3.328125 21.09375 9.671875 25.90625 
Q 16.015625 30.71875 31.25 30.71875 
Q 33.296875 30.71875 37.796875 30.515625 
Q 37.796875 36.375 36.890625 38.984375 
Q 35.984375 41.609375 33.046875 43.171875 
Q 30.125 44.734375 25.34375 44.734375 
Q 13.671875 44.734375 11.765625 35.84375 
L 4.6875 37.0625 
Q 7.28125 50.6875 26.46875 50.6875 
Q 36.671875 50.6875 40.9375 46.171875 
Q 45.21875 41.65625 45.21875 30.515625 
L 45.21875 9.578125 
Q 45.21875 4.34375 46.296875 0 
z
M 37.796875 24.65625 
Q 33.109375 24.953125 30.671875 24.953125 
Q 21.578125 24.953125 16.546875 21.96875 
Q 11.53125 19 11.53125 13.28125 
Q 11.53125 9.671875 14.234375 7.125 
Q 16.9375 4.59375 22.078125 4.59375 
Q 29 4.59375 33.46875 9.625 
Q 37.9375 14.65625 37.9375 21.4375 
Q 37.9375 22.796875 37.796875 24.65625 
z
" id="FranklinGothic-Book-97"/>
       <path d="M 15.328125 0 
L 7.671875 0 
L 7.671875 49.3125 
L 14.40625 49.3125 
L 14.40625 37.796875 
Q 17.96875 45.953125 21.546875 48.359375 
Q 25.140625 50.78125 28.90625 50.78125 
Q 30.078125 50.78125 31.9375 50.59375 
L 31.9375 43.265625 
L 30.375 43.265625 
Q 24.03125 43.265625 19.828125 38.53125 
Q 15.625 33.796875 15.328125 26.078125 
z
" id="FranklinGothic-Book-114"/>
      </defs>
      <use xlink:href="#FranklinGothic-Book-89"/>
      <use x="45.025391" xlink:href="#FranklinGothic-Book-101"/>
      <use x="97.076172" xlink:href="#FranklinGothic-Book-97"/>
      <use x="149.957031" xlink:href="#FranklinGothic-Book-114"/>
     </g>
    </g>
   </g>
   <g id="matplotlib.axis_2">
    <g id="ytick_1">
     <g id="line2d_10">
      <path clip-path="url(#p04cc077045)" d="M 144 499.795016 
L 1036.8 499.795016 
" style="fill:none;stroke:#d3d3d3;stroke-linecap:round;stroke-opacity:0.5;"/>
     </g>
     <g id="text_9">
      <!-- −1.5 -->
      <g style="fill:#696969;" transform="translate(88.431719 507.460485)scale(0.23 -0.23)">
       <defs>
        <path d="M 6 36.765625 
L 52.6875 36.765625 
L 52.6875 30.03125 
L 6 30.03125 
z
" id="FranklinGothic-Book-8722"/>
        <path d="M 17.96875 10.9375 
L 17.96875 0 
L 7.078125 0 
L 7.078125 10.9375 
z
" id="FranklinGothic-Book-46"/>
        <path d="M 48.875 66.65625 
L 48.1875 59.46875 
L 15.4375 59.46875 
L 14.015625 37.84375 
Q 21.4375 45.125 30.328125 45.125 
Q 39.703125 45.125 46.515625 38.625 
Q 53.328125 32.125 53.328125 22.015625 
Q 53.328125 11.765625 45.921875 5.21875 
Q 38.53125 -1.3125 27.828125 -1.3125 
Q 19.4375 -1.3125 12.890625 3.078125 
Q 6.34375 7.46875 4.296875 14.453125 
L 11.421875 16.890625 
Q 15.828125 5.28125 27.9375 5.28125 
Q 35.890625 5.28125 40.578125 9.984375 
Q 45.265625 14.703125 45.265625 22.015625 
Q 45.265625 29.6875 40.625 33.984375 
Q 35.984375 38.28125 29.5 38.28125 
Q 20.015625 38.28125 13.8125 29.203125 
L 7.234375 30.609375 
L 9.375 66.65625 
z
" id="FranklinGothic-Book-53"/>
       </defs>
       <use xlink:href="#FranklinGothic-Book-8722"/>
       <use x="58.642578" xlink:href="#FranklinGothic-Book-49"/>
       <use x="116.660156" xlink:href="#FranklinGothic-Book-46"/>
       <use x="141.660156" xlink:href="#FranklinGothic-Book-53"/>
      </g>
     </g>
    </g>
    <g id="ytick_2">
     <g id="line2d_11">
      <path clip-path="url(#p04cc077045)" d="M 144 414.477332 
L 1036.8 414.477332 
" style="fill:none;stroke:#d3d3d3;stroke-linecap:round;stroke-opacity:0.5;"/>
     </g>
     <g id="text_10">
      <!-- −1.0 -->
      <g style="fill:#696969;" transform="translate(88.431719 422.142801)scale(0.23 -0.23)">
       <use xlink:href="#FranklinGothic-Book-8722"/>
       <use x="58.642578" xlink:href="#FranklinGothic-Book-49"/>
       <use x="116.660156" xlink:href="#FranklinGothic-Book-46"/>
       <use x="141.660156" xlink:href="#FranklinGothic-Book-48"/>
      </g>
     </g>
    </g>
    <g id="ytick_3">
     <g id="line2d_12">
      <path clip-path="url(#p04cc077045)" d="M 144 329.159648 
L 1036.8 329.159648 
" style="fill:none;stroke:#d3d3d3;stroke-linecap:round;stroke-opacity:0.5;"/>
     </g>
     <g id="text_11">
      <!-- −0.5 -->
      <g style="fill:#696969;" transform="translate(88.287969 336.825117)scale(0.23 -0.23)">
       <use xlink:href="#FranklinGothic-Book-8722"/>
       <use x="58.642578" xlink:href="#FranklinGothic-Book-48"/>
       <use x="117.285156" xlink:href="#FranklinGothic-Book-46"/>
       <use x="142.285156" xlink:href="#FranklinGothic-Book-53"/>
      </g>
     </g>
    </g>
    <g id="ytick_4">
     <g id="line2d_13">
      <path clip-path="url(#p04cc077045)" d="M 144 243.841964 
L 1036.8 243.841964 
" style="fill:none;stroke:#d3d3d3;stroke-linecap:round;stroke-opacity:0.5;"/>
     </g>
     <g id="text_12">
      <!-- 0.0 -->
      <g style="fill:#696969;" transform="translate(101.775312 251.507432)scale(0.23 -0.23)">
       <use xlink:href="#FranklinGothic-Book-48"/>
       <use x="58.642578" xlink:href="#FranklinGothic-Book-46"/>
       <use x="83.642578" xlink:href="#FranklinGothic-Book-48"/>
      </g>
     </g>
    </g>
    <g id="ytick_5">
     <g id="line2d_14">
      <path clip-path="url(#p04cc077045)" d="M 144 158.524279 
L 1036.8 158.524279 
" style="fill:none;stroke:#d3d3d3;stroke-linecap:round;stroke-opacity:0.5;"/>
     </g>
     <g id="text_13">
      <!-- 0.5 -->
      <g style="fill:#696969;" transform="translate(101.775312 166.189748)scale(0.23 -0.23)">
       <use xlink:href="#FranklinGothic-Book-48"/>
       <use x="58.642578" xlink:href="#FranklinGothic-Book-46"/>
       <use x="83.642578" xlink:href="#FranklinGothic-Book-53"/>
      </g>
     </g>
    </g>
    <g id="text_14">
     <!-- $\!^\circ\!$C -->
     <g style="fill:#696969;" transform="translate(74.457031 338.855)rotate(-90)scale(0.23 -0.23)">
      <defs>
       <path d="M 31.296875 40.671875 
Q 27.390625 40.671875 24.703125 37.953125 
Q 22.015625 35.25 22.015625 31.34375 
Q 22.015625 27.484375 24.703125 24.828125 
Q 27.390625 22.171875 31.296875 22.171875 
Q 35.203125 22.171875 37.890625 24.828125 
Q 40.578125 27.484375 40.578125 31.34375 
Q 40.578125 35.203125 37.859375 37.9375 
Q 35.15625 40.671875 31.296875 40.671875 
z
M 31.296875 46.96875 
Q 34.421875 46.96875 37.296875 45.765625 
Q 40.1875 44.578125 42.28125 42.328125 
Q 44.53125 40.140625 45.65625 37.34375 
Q 46.78125 34.5625 46.78125 31.34375 
Q 46.78125 24.90625 42.265625 20.4375 
Q 37.75 15.96875 31.203125 15.96875 
Q 24.609375 15.96875 20.21875 20.359375 
Q 15.828125 24.75 15.828125 31.34375 
Q 15.828125 37.890625 20.3125 42.421875 
Q 24.8125 46.96875 31.296875 46.96875 
z
" id="DejaVuSans-8728"/>
       <path d="M 48.296875 22.40625 
L 55.90625 20.703125 
Q 50.4375 -1.3125 31.203125 -1.3125 
Q 18.5625 -1.3125 11.359375 8.890625 
Q 4.15625 19.09375 4.15625 33.984375 
Q 4.15625 49.359375 11.671875 58.6875 
Q 19.1875 68.015625 31.84375 68.015625 
Q 50.59375 68.015625 55.90625 46.578125 
L 48.046875 45.015625 
Q 43.75 60.9375 31.78125 60.9375 
Q 22.953125 60.9375 18.09375 53.53125 
Q 13.234375 46.140625 13.234375 32.765625 
Q 13.234375 20.515625 18.203125 13.109375 
Q 23.1875 5.71875 31.390625 5.71875 
Q 44.140625 5.71875 48.296875 22.40625 
z
" id="FranklinGothic-Book-67"/>
      </defs>
      <use transform="translate(-1.64095 39.121875)scale(0.7)" xlink:href="#DejaVuSans-8728"/>
      <use transform="translate(42.313804 0.840625)" xlink:href="#FranklinGothic-Book-67"/>
     </g>
    </g>
   </g>
   <g id="text_15">
    <!-- Compared to 1991-2020 average -->
    <g style="fill:#696969;" transform="translate(144 75.2652)scale(0.3 -0.3)">
     <defs>
      <path d="M 25.34375 -1.3125 
Q 15.1875 -1.3125 9.5 6.203125 
Q 3.8125 13.71875 3.8125 24.859375 
Q 3.8125 36.625 10.203125 43.65625 
Q 16.609375 50.6875 26.125 50.6875 
Q 36.328125 50.6875 42.203125 43.28125 
Q 48.09375 35.890625 48.09375 24.8125 
Q 48.09375 13.28125 41.75 5.984375 
Q 35.40625 -1.3125 25.34375 -1.3125 
z
M 25.921875 4.984375 
Q 31.78125 4.984375 35.734375 9.8125 
Q 39.703125 14.65625 39.703125 24.859375 
Q 39.703125 35.109375 35.546875 39.71875 
Q 31.390625 44.34375 25.828125 44.34375 
Q 20.125 44.34375 16.15625 39.671875 
Q 12.203125 35.015625 12.203125 24.90625 
Q 12.203125 14.203125 16.15625 9.59375 
Q 20.125 4.984375 25.921875 4.984375 
z
" id="FranklinGothic-Book-111"/>
      <path d="M 73.734375 0 
L 66.265625 0 
L 66.265625 30.671875 
Q 66.265625 35.40625 65.59375 37.765625 
Q 64.9375 40.140625 62.390625 42.109375 
Q 59.859375 44.09375 56.6875 44.09375 
Q 52.296875 44.09375 48.21875 40.0625 
Q 44.140625 36.03125 44.140625 27.78125 
L 44.140625 0 
L 36.71875 0 
L 36.71875 32.46875 
Q 36.71875 38.96875 33.609375 41.65625 
Q 30.515625 44.34375 27.09375 44.34375 
Q 22.21875 44.34375 18.59375 40.140625 
Q 14.984375 35.9375 14.984375 29.5 
L 14.984375 0 
L 7.671875 0 
L 7.671875 49.3125 
L 14.265625 49.3125 
L 14.265625 39.84375 
Q 19.78125 50.6875 29.4375 50.6875 
Q 34.765625 50.6875 38.46875 47.21875 
Q 42.1875 43.75 43.265625 38.875 
Q 48.34375 50.6875 58.84375 50.6875 
Q 63.875 50.6875 67.65625 47.796875 
Q 71.4375 44.921875 72.578125 41.1875 
Q 73.734375 37.453125 73.734375 30.671875 
z
" id="FranklinGothic-Book-109"/>
      <path d="M 15.328125 -16.65625 
L 7.671875 -16.65625 
L 7.671875 49.3125 
L 14.546875 49.3125 
L 14.546875 39.75 
Q 19.78125 50.6875 30.125 50.6875 
Q 38.875 50.6875 44.234375 43.375 
Q 49.609375 36.078125 49.609375 24.90625 
Q 49.609375 12.84375 44.09375 5.765625 
Q 38.578125 -1.3125 29.9375 -1.3125 
Q 20.65625 -1.3125 15.328125 7.515625 
z
M 15.328125 31.78125 
L 15.328125 17.921875 
Q 16.0625 12.3125 20.0625 8.640625 
Q 24.078125 4.984375 28.421875 4.984375 
Q 33.453125 4.984375 37.328125 9.375 
Q 41.21875 13.765625 41.21875 24.5625 
Q 41.21875 33.890625 37.703125 38.9375 
Q 34.1875 44 28.375 44 
Q 23.78125 44 20.140625 40.421875 
Q 16.5 36.859375 15.328125 31.78125 
z
" id="FranklinGothic-Book-112"/>
      <path d="M 46.1875 66.65625 
L 46.1875 0 
L 39.203125 0 
L 39.203125 8.453125 
Q 34.03125 -1.3125 23.640625 -1.3125 
Q 14.984375 -1.3125 9.421875 5.9375 
Q 3.859375 13.1875 3.859375 24.265625 
Q 3.859375 35.59375 9.375 43.140625 
Q 14.890625 50.6875 24.03125 50.6875 
Q 32.90625 50.6875 38.53125 42.578125 
L 38.53125 66.65625 
z
M 38.53125 30.28125 
Q 38.53125 36.765625 34.5625 40.671875 
Q 30.609375 44.578125 25.34375 44.578125 
Q 19.625 44.578125 15.9375 39.5 
Q 12.25 34.421875 12.25 25.25 
Q 12.25 15.328125 15.640625 10.15625 
Q 19.046875 4.984375 24.953125 4.984375 
Q 30.328125 4.984375 34.421875 9.46875 
Q 38.53125 13.96875 38.53125 20.015625 
z
" id="FranklinGothic-Book-100"/>
      <path id="FranklinGothic-Book-32"/>
      <path d="M 30.03125 5.28125 
L 30.03125 -0.78125 
Q 25.984375 -1.3125 23 -1.3125 
Q 8.6875 -1.3125 8.6875 13.625 
L 8.6875 43.3125 
L -0.046875 43.3125 
L -0.046875 49.3125 
L 8.6875 49.3125 
L 9.03125 61.71875 
L 16.15625 62.40625 
L 16.15625 49.3125 
L 27.203125 49.3125 
L 27.203125 43.3125 
L 16.15625 43.3125 
L 16.15625 12.359375 
Q 16.15625 4.734375 24.078125 4.734375 
Q 26.703125 4.734375 30.03125 5.28125 
z
" id="FranklinGothic-Book-116"/>
      <path d="M 23.53125 27.984375 
L 23.53125 22.015625 
L 1.46875 22.015625 
L 1.46875 27.984375 
z
" id="FranklinGothic-Book-45"/>
      <path d="M 43.796875 49.3125 
L 26.765625 0 
L 18.796875 0 
L 1.171875 49.3125 
L 9.671875 49.3125 
L 23.390625 9.234375 
L 36.96875 49.3125 
z
" id="FranklinGothic-Book-118"/>
      <path d="M 47.953125 57.03125 
L 47.953125 50.921875 
Q 42.671875 50.921875 40.890625 49.703125 
Q 39.109375 48.484375 38.53125 45.3125 
Q 43.265625 39.84375 43.265625 33.40625 
Q 43.265625 26.65625 38.109375 21.828125 
Q 32.953125 17 24.265625 17 
Q 22.3125 17 20.90625 17.28125 
Q 18.21875 17.828125 17.53125 17.828125 
Q 16.21875 17.828125 14.359375 16.53125 
Q 12.5 15.234375 12.5 13.1875 
Q 12.5 10.25 15.1875 9.375 
Q 17.875 8.5 27.828125 8.25 
Q 36.28125 8.015625 40.3125 7.109375 
Q 44.34375 6.203125 47.125 3.09375 
Q 49.90625 0 49.90625 -4.5 
Q 49.90625 -18.609375 25.09375 -18.609375 
Q 13.328125 -18.609375 7.9375 -15.0625 
Q 2.546875 -11.53125 2.546875 -5.609375 
Q 2.546875 1.5625 10.0625 4.25 
Q 5.21875 7.421875 5.21875 12.203125 
Q 5.21875 17.921875 12.0625 20.953125 
Q 5.671875 26.125 5.671875 33.984375 
Q 5.671875 41.3125 11.140625 46 
Q 16.609375 50.6875 24.46875 50.6875 
Q 30.03125 50.6875 34.578125 48.578125 
Q 35.296875 53.421875 37.953125 55.265625 
Q 40.625 57.125 46.046875 57.125 
Q 46.578125 57.125 47.953125 57.03125 
z
M 24.515625 22.859375 
Q 29.390625 22.859375 32.46875 25.859375 
Q 35.546875 28.859375 35.546875 33.640625 
Q 35.546875 38.53125 32.34375 41.625 
Q 29.15625 44.734375 24.609375 44.734375 
Q 20.265625 44.734375 16.890625 41.828125 
Q 13.53125 38.921875 13.53125 33.546875 
Q 13.53125 28.765625 16.546875 25.8125 
Q 19.578125 22.859375 24.515625 22.859375 
z
M 15.328125 2 
Q 9.96875 -0.34375 9.96875 -4.78125 
Q 9.96875 -8.546875 14.375 -10.625 
Q 18.796875 -12.703125 25.640625 -12.703125 
Q 31.984375 -12.703125 37.25 -10.90625 
Q 42.53125 -9.125 42.53125 -4.890625 
Q 42.53125 -2.59375 40.96875 -1.125 
Q 39.40625 0.34375 36.6875 0.734375 
Q 33.984375 1.125 27.25 1.3125 
Q 19.1875 1.515625 15.328125 2 
z
" id="FranklinGothic-Book-103"/>
     </defs>
     <use xlink:href="#FranklinGothic-Book-67"/>
     <use x="57.910156" xlink:href="#FranklinGothic-Book-111"/>
     <use x="109.863281" xlink:href="#FranklinGothic-Book-109"/>
     <use x="190.384766" xlink:href="#FranklinGothic-Book-112"/>
     <use x="243.802734" xlink:href="#FranklinGothic-Book-97"/>
     <use x="296.683594" xlink:href="#FranklinGothic-Book-114"/>
     <use x="329.642578" xlink:href="#FranklinGothic-Book-101"/>
     <use x="381.693359" xlink:href="#FranklinGothic-Book-100"/>
     <use x="435.550781" xlink:href="#FranklinGothic-Book-32"/>
     <use x="460.550781" xlink:href="#FranklinGothic-Book-116"/>
     <use x="489.8125" xlink:href="#FranklinGothic-Book-111"/>
     <use x="541.765625" xlink:href="#FranklinGothic-Book-32"/>
     <use x="566.765625" xlink:href="#FranklinGothic-Book-49"/>
     <use x="624.033203" xlink:href="#FranklinGothic-Book-57"/>
     <use x="682.675781" xlink:href="#FranklinGothic-Book-57"/>
     <use x="737.193359" xlink:href="#FranklinGothic-Book-49"/>
     <use x="795.835938" xlink:href="#FranklinGothic-Book-45"/>
     <use x="820.835938" xlink:href="#FranklinGothic-Book-50"/>
     <use x="879.478516" xlink:href="#FranklinGothic-Book-48"/>
     <use x="938.121094" xlink:href="#FranklinGothic-Book-50"/>
     <use x="996.763672" xlink:href="#FranklinGothic-Book-48"/>
     <use x="1055.40625" xlink:href="#FranklinGothic-Book-32"/>
     <use x="1080.40625" xlink:href="#FranklinGothic-Book-97"/>
     <use x="1131.037109" xlink:href="#FranklinGothic-Book-118"/>
     <use x="1174.556641" xlink:href="#FranklinGothic-Book-101"/>
     <use x="1226.607422" xlink:href="#FranklinGothic-Book-114"/>
     <use x="1259.566406" xlink:href="#FranklinGothic-Book-97"/>
     <use x="1312.447266" xlink:href="#FranklinGothic-Book-103"/>
     <use x="1361.568359" xlink:href="#FranklinGothic-Book-101"/>
    </g>
   </g>
   <g id="text_16">
    <!-- Latin America and the Caribbean -->
    <g style="fill:#696969;" transform="translate(144 42.76)scale(0.4 -0.4)">
     <defs>
      <path d="M 47.703125 7.328125 
L 47.703125 0 
L 8.34375 0 
L 8.34375 66.65625 
L 16.890625 66.65625 
L 16.890625 7.328125 
z
" id="FranklinGothic-Book-76"/>
      <path d="M 15.578125 66.65625 
L 15.578125 58.15625 
L 7.328125 58.15625 
L 7.328125 66.65625 
z
M 15.328125 49.3125 
L 15.328125 0 
L 7.671875 0 
L 7.671875 49.3125 
z
" id="FranklinGothic-Book-105"/>
      <path d="M 46.53125 0 
L 39.359375 0 
L 39.359375 31.6875 
Q 39.359375 38.53125 36.375 41.3125 
Q 33.40625 44.09375 29.15625 44.09375 
Q 23.296875 44.09375 19.3125 39.40625 
Q 15.328125 34.71875 15.328125 27.046875 
L 15.328125 0 
L 7.671875 0 
L 7.671875 49.3125 
L 14.796875 49.3125 
L 14.796875 40.234375 
Q 20.796875 50.6875 30.375 50.6875 
Q 35.890625 50.6875 39.765625 47.828125 
Q 43.65625 44.96875 45.09375 41.40625 
Q 46.53125 37.84375 46.53125 28.515625 
z
" id="FranklinGothic-Book-110"/>
      <path d="M 53.21875 0 
L 44.671875 0 
L 37.9375 19.484375 
L 13.28125 19.484375 
L 7.328125 0 
L 0.34375 0 
L 21.96875 66.65625 
L 31.5 66.65625 
z
M 36.1875 25.734375 
L 25.921875 57.765625 
L 15.578125 25.734375 
z
" id="FranklinGothic-Book-65"/>
      <path d="M 36.8125 17.28125 
L 43.75 16.0625 
Q 42.28125 7.90625 37.25 3.296875 
Q 32.234375 -1.3125 24.703125 -1.3125 
Q 14.5 -1.3125 9.15625 6.203125 
Q 3.8125 13.71875 3.8125 24.5625 
Q 3.8125 35.796875 9.453125 43.234375 
Q 15.09375 50.6875 24.8125 50.6875 
Q 32.859375 50.6875 37.71875 45.875 
Q 42.578125 41.0625 43.75 33.453125 
L 36.8125 32.125 
Q 34.859375 44.34375 25 44.34375 
Q 18.65625 44.34375 15.234375 38.9375 
Q 11.8125 33.546875 11.8125 24.953125 
Q 11.8125 15.484375 15.203125 10.234375 
Q 18.609375 4.984375 24.75 4.984375 
Q 34.28125 4.984375 36.8125 17.28125 
z
" id="FranklinGothic-Book-99"/>
      <path d="M 46.34375 0 
L 38.671875 0 
L 38.671875 29.9375 
Q 38.671875 35.203125 38.015625 37.84375 
Q 37.359375 40.484375 34.890625 42.40625 
Q 32.421875 44.34375 29.203125 44.34375 
Q 23.296875 44.34375 19.3125 39.5 
Q 15.328125 34.671875 15.328125 26.5625 
L 15.328125 0 
L 7.671875 0 
L 7.671875 66.65625 
L 15.328125 66.65625 
L 15.328125 40.234375 
Q 20.5625 50.6875 30.28125 50.6875 
Q 34.625 50.6875 38.015625 48.96875 
Q 41.40625 47.265625 43.203125 44.484375 
Q 45.015625 41.703125 45.671875 38.984375 
Q 46.34375 36.28125 46.34375 29.9375 
z
" id="FranklinGothic-Book-104"/>
      <path d="M 11.375 0 
L 7.671875 0 
L 7.671875 66.65625 
L 15.328125 66.65625 
L 15.328125 41.109375 
Q 20.609375 50.6875 29.890625 50.6875 
Q 38.375 50.6875 44.109375 44 
Q 49.859375 37.3125 49.859375 24.5625 
Q 49.859375 13.578125 44.21875 6.125 
Q 38.578125 -1.3125 29.546875 -1.3125 
Q 19.484375 -1.3125 14.109375 8.15625 
z
M 15.328125 19.34375 
Q 15.875 11.765625 20 8.34375 
Q 24.125 4.9375 28.71875 4.9375 
Q 34.578125 4.9375 38.15625 10.015625 
Q 41.75 15.09375 41.75 23.921875 
Q 41.75 33.453125 38.28125 38.890625 
Q 34.8125 44.34375 28.65625 44.34375 
Q 23.828125 44.34375 19.9375 40.453125 
Q 16.0625 36.578125 15.328125 30.421875 
z
" id="FranklinGothic-Book-98"/>
     </defs>
     <use xlink:href="#FranklinGothic-Book-76"/>
     <use x="48.974609" xlink:href="#FranklinGothic-Book-97"/>
     <use x="101.855469" xlink:href="#FranklinGothic-Book-116"/>
     <use x="132.617188" xlink:href="#FranklinGothic-Book-105"/>
     <use x="155.566406" xlink:href="#FranklinGothic-Book-110"/>
     <use x="209.765625" xlink:href="#FranklinGothic-Book-32"/>
     <use x="234.765625" xlink:href="#FranklinGothic-Book-65"/>
     <use x="288.330078" xlink:href="#FranklinGothic-Book-109"/>
     <use x="369.726562" xlink:href="#FranklinGothic-Book-101"/>
     <use x="421.777344" xlink:href="#FranklinGothic-Book-114"/>
     <use x="454.736328" xlink:href="#FranklinGothic-Book-105"/>
     <use x="477.685547" xlink:href="#FranklinGothic-Book-99"/>
     <use x="524.267578" xlink:href="#FranklinGothic-Book-97"/>
     <use x="577.148438" xlink:href="#FranklinGothic-Book-32"/>
     <use x="602.148438" xlink:href="#FranklinGothic-Book-97"/>
     <use x="655.029297" xlink:href="#FranklinGothic-Book-110"/>
     <use x="709.228516" xlink:href="#FranklinGothic-Book-100"/>
     <use x="763.085938" xlink:href="#FranklinGothic-Book-32"/>
     <use x="788.085938" xlink:href="#FranklinGothic-Book-116"/>
     <use x="818.847656" xlink:href="#FranklinGothic-Book-104"/>
     <use x="872.851562" xlink:href="#FranklinGothic-Book-101"/>
     <use x="924.902344" xlink:href="#FranklinGothic-Book-32"/>
     <use x="949.902344" xlink:href="#FranklinGothic-Book-67"/>
     <use x="1007.8125" xlink:href="#FranklinGothic-Book-97"/>
     <use x="1060.693359" xlink:href="#FranklinGothic-Book-114"/>
     <use x="1093.652344" xlink:href="#FranklinGothic-Book-105"/>
     <use x="1116.601562" xlink:href="#FranklinGothic-Book-98"/>
     <use x="1170.3125" xlink:href="#FranklinGothic-Book-98"/>
     <use x="1224.023438" xlink:href="#FranklinGothic-Book-101"/>
     <use x="1276.074219" xlink:href="#FranklinGothic-Book-97"/>
     <use x="1328.955078" xlink:href="#FranklinGothic-Book-110"/>
    </g>
   </g>
   <g id="legend_1">
    <g id="line2d_15"/>
    <g id="text_17">
     <!-- HadCRUT5 (1900-2023) -->
     <g style="fill:#696969;" transform="translate(185.856 129.7184)scale(0.2 -0.2)">
      <defs>
       <path d="M 55.953125 0 
L 47.609375 0 
L 47.609375 31.734375 
L 16.703125 31.734375 
L 16.703125 0 
L 8.34375 0 
L 8.34375 66.65625 
L 16.703125 66.65625 
L 16.703125 39.0625 
L 47.609375 39.0625 
L 47.609375 66.65625 
L 55.953125 66.65625 
z
" id="FranklinGothic-Book-72"/>
       <path d="M 56.296875 0 
L 47.5625 0 
L 35.25 28.859375 
L 16.15625 28.859375 
L 16.15625 0 
L 8.34375 0 
L 8.34375 66.65625 
L 34.625 66.65625 
Q 45.3125 66.65625 50.453125 60.8125 
Q 55.609375 54.984375 55.609375 48.046875 
Q 55.609375 42.71875 52.734375 37.828125 
Q 49.859375 32.953125 43.21875 30.859375 
z
M 16.15625 35.640625 
L 33.59375 35.640625 
Q 40.484375 35.640625 43.875 39.28125 
Q 47.265625 42.921875 47.265625 48.1875 
Q 47.265625 53.46875 43.671875 56.390625 
Q 40.09375 59.328125 34.625 59.328125 
L 16.15625 59.328125 
z
" id="FranklinGothic-Book-82"/>
       <path d="M 46.34375 66.65625 
L 53.265625 66.65625 
L 53.265625 23.140625 
Q 53.265625 10.0625 46.84375 4.375 
Q 40.4375 -1.3125 30.03125 -1.3125 
Q 18.453125 -1.3125 12.890625 4.546875 
Q 7.328125 10.40625 7.328125 23.140625 
L 7.328125 66.65625 
L 15.671875 66.65625 
L 15.671875 23.140625 
Q 15.671875 15.375 17.46875 12.203125 
Q 19.28125 9.03125 22.9375 7.515625 
Q 26.609375 6 30.609375 6 
Q 38.328125 6 42.328125 10.046875 
Q 46.34375 14.109375 46.34375 23.140625 
z
" id="FranklinGothic-Book-85"/>
       <path d="M 28.421875 0 
L 20.125 0 
L 20.125 59.328125 
L 1.03125 59.328125 
L 1.03125 66.65625 
L 47.5625 66.65625 
L 47.5625 59.328125 
L 28.421875 59.328125 
z
" id="FranklinGothic-Book-84"/>
       <path d="M 24.703125 -16.65625 
L 19.578125 -16.65625 
Q 5.21875 2.203125 5.21875 25.09375 
Q 5.21875 46.96875 19.578125 66.65625 
L 24.703125 66.65625 
Q 12.359375 48.25 12.359375 25 
Q 12.359375 2.828125 24.703125 -16.65625 
z
" id="FranklinGothic-Book-40"/>
       <path d="M 19.34375 31.34375 
L 19.34375 37.984375 
L 26.953125 37.984375 
Q 35.296875 37.984375 38.890625 41.40625 
Q 42.484375 44.828125 42.484375 49.703125 
Q 42.484375 55.078125 38.46875 58.21875 
Q 34.46875 61.375 28.421875 61.375 
Q 17.1875 61.375 12.890625 50.53125 
L 5.375 52.6875 
Q 11.8125 68.015625 29.203125 68.015625 
Q 38.96875 68.015625 44.96875 62.8125 
Q 50.984375 57.625 50.984375 50.296875 
Q 50.984375 44.625 47.359375 40.40625 
Q 43.75 36.1875 38.09375 35.109375 
Q 44.4375 34.1875 49 29.78125 
Q 53.5625 25.390625 53.5625 18.40625 
Q 53.5625 10.0625 46.765625 4.375 
Q 39.984375 -1.3125 28.171875 -1.3125 
Q 18.796875 -1.3125 12.125 3.125 
Q 5.46875 7.5625 2.9375 14.9375 
L 10.6875 17.53125 
Q 14.203125 5.46875 28.03125 5.46875 
Q 37.015625 5.46875 40.9375 9.296875 
Q 44.875 13.140625 44.875 18.453125 
Q 44.875 24.21875 40.15625 27.78125 
Q 35.453125 31.34375 26.953125 31.34375 
z
" id="FranklinGothic-Book-51"/>
       <path d="M 4.640625 66.65625 
L 9.71875 66.65625 
Q 24.125 47.796875 24.125 24.90625 
Q 24.125 3.03125 9.71875 -16.65625 
L 4.640625 -16.65625 
Q 17 1.765625 17 25 
Q 17 47.171875 4.640625 66.65625 
z
" id="FranklinGothic-Book-41"/>
      </defs>
      <use xlink:href="#FranklinGothic-Book-72"/>
      <use x="64.257812" xlink:href="#FranklinGothic-Book-97"/>
      <use x="117.138672" xlink:href="#FranklinGothic-Book-100"/>
      <use x="170.996094" xlink:href="#FranklinGothic-Book-67"/>
      <use x="228.90625" xlink:href="#FranklinGothic-Book-82"/>
      <use x="289.310547" xlink:href="#FranklinGothic-Book-85"/>
      <use x="349.90625" xlink:href="#FranklinGothic-Book-84"/>
      <use x="398.441406" xlink:href="#FranklinGothic-Book-53"/>
      <use x="457.083984" xlink:href="#FranklinGothic-Book-32"/>
      <use x="482.083984" xlink:href="#FranklinGothic-Book-40"/>
      <use x="511.429688" xlink:href="#FranklinGothic-Book-49"/>
      <use x="568.697266" xlink:href="#FranklinGothic-Book-57"/>
      <use x="627.339844" xlink:href="#FranklinGothic-Book-48"/>
      <use x="685.982422" xlink:href="#FranklinGothic-Book-48"/>
      <use x="744.625" xlink:href="#FranklinGothic-Book-45"/>
      <use x="769.625" xlink:href="#FranklinGothic-Book-50"/>
      <use x="828.267578" xlink:href="#FranklinGothic-Book-48"/>
      <use x="886.910156" xlink:href="#FranklinGothic-Book-50"/>
      <use x="945.552734" xlink:href="#FranklinGothic-Book-51"/>
      <use x="1004.195312" xlink:href="#FranklinGothic-Book-41"/>
     </g>
    </g>
    <g id="line2d_16"/>
    <g id="text_18">
     <!-- NOAAGlobalTemp (1900-2023) -->
     <g style="fill:#e69f00;" transform="translate(185.856 157.04965)scale(0.2 -0.2)">
      <defs>
       <path d="M 57.421875 0 
L 49.3125 0 
L 14.84375 58.109375 
L 14.9375 53.71875 
Q 15.09375 51.21875 15.09375 49.515625 
L 15.09375 0 
L 8.34375 0 
L 8.34375 66.65625 
L 18.796875 66.65625 
L 51.03125 12.3125 
L 50.921875 16.9375 
Q 50.828125 19.671875 50.828125 21.78125 
L 50.828125 66.65625 
L 57.421875 66.65625 
z
" id="FranklinGothic-Book-78"/>
       <path d="M 31.34375 -1.3125 
Q 18.5 -1.3125 11.328125 8.671875 
Q 4.15625 18.65625 4.15625 33.15625 
Q 4.15625 48.296875 11.671875 58.15625 
Q 19.1875 68.015625 31.59375 68.015625 
Q 43.953125 68.015625 51.421875 58.328125 
Q 58.890625 48.640625 58.890625 33.890625 
Q 58.890625 19.734375 51.640625 9.203125 
Q 44.390625 -1.3125 31.34375 -1.3125 
z
M 31.546875 5.46875 
Q 40.28125 5.46875 45.203125 13.421875 
Q 50.140625 21.390625 50.140625 33.9375 
Q 50.140625 46.828125 45.03125 54 
Q 39.9375 61.1875 31.5 61.1875 
Q 22.953125 61.1875 17.921875 53.421875 
Q 12.890625 45.65625 12.890625 33.109375 
Q 12.890625 20.84375 17.96875 13.15625 
Q 23.046875 5.46875 31.546875 5.46875 
z
" id="FranklinGothic-Book-79"/>
       <path d="M 57.71875 33.59375 
L 57.71875 -0.875 
L 52.59375 -0.875 
L 50.296875 7.46875 
Q 44.140625 -1.3125 31.984375 -1.3125 
Q 18.796875 -1.3125 11.46875 8.59375 
Q 4.15625 18.5 4.15625 32.671875 
Q 4.15625 47.796875 11.90625 57.90625 
Q 19.671875 68.015625 33.015625 68.015625 
Q 51.421875 68.015625 57.03125 48.6875 
L 49.125 46.78125 
Q 47.40625 54.203125 42.71875 57.5625 
Q 38.03125 60.9375 32.46875 60.9375 
Q 22.609375 60.9375 17.921875 52.96875 
Q 13.234375 45.015625 13.234375 33.015625 
Q 13.234375 20.0625 18.484375 12.765625 
Q 23.734375 5.46875 32.765625 5.46875 
Q 39.796875 5.46875 44.5 10.125 
Q 49.21875 14.796875 49.21875 23 
Q 49.21875 24.515625 49.125 26.609375 
L 32.625 26.609375 
L 32.625 33.59375 
z
" id="FranklinGothic-Book-71"/>
       <path d="M 15.328125 0 
L 7.671875 0 
L 7.671875 66.65625 
L 15.328125 66.65625 
z
" id="FranklinGothic-Book-108"/>
      </defs>
      <use xlink:href="#FranklinGothic-Book-78"/>
      <use x="65.722656" xlink:href="#FranklinGothic-Book-79"/>
      <use x="127.058594" xlink:href="#FranklinGothic-Book-65"/>
      <use x="180.623047" xlink:href="#FranklinGothic-Book-65"/>
      <use x="231.5625" xlink:href="#FranklinGothic-Book-71"/>
      <use x="296.259766" xlink:href="#FranklinGothic-Book-108"/>
      <use x="319.257812" xlink:href="#FranklinGothic-Book-111"/>
      <use x="371.210938" xlink:href="#FranklinGothic-Book-98"/>
      <use x="424.921875" xlink:href="#FranklinGothic-Book-97"/>
      <use x="477.802734" xlink:href="#FranklinGothic-Book-108"/>
      <use x="500.800781" xlink:href="#FranklinGothic-Book-84"/>
      <use x="542.835938" xlink:href="#FranklinGothic-Book-101"/>
      <use x="594.886719" xlink:href="#FranklinGothic-Book-109"/>
      <use x="675.408203" xlink:href="#FranklinGothic-Book-112"/>
      <use x="728.826172" xlink:href="#FranklinGothic-Book-32"/>
      <use x="753.826172" xlink:href="#FranklinGothic-Book-40"/>
      <use x="783.171875" xlink:href="#FranklinGothic-Book-49"/>
      <use x="840.439453" xlink:href="#FranklinGothic-Book-57"/>
      <use x="899.082031" xlink:href="#FranklinGothic-Book-48"/>
      <use x="957.724609" xlink:href="#FranklinGothic-Book-48"/>
      <use x="1016.367188" xlink:href="#FranklinGothic-Book-45"/>
      <use x="1041.367188" xlink:href="#FranklinGothic-Book-50"/>
      <use x="1100.009766" xlink:href="#FranklinGothic-Book-48"/>
      <use x="1158.652344" xlink:href="#FranklinGothic-Book-50"/>
      <use x="1217.294922" xlink:href="#FranklinGothic-Book-51"/>
      <use x="1275.9375" xlink:href="#FranklinGothic-Book-41"/>
     </g>
    </g>
    <g id="line2d_17"/>
    <g id="text_19">
     <!-- Kadow et al. (1900-2023) -->
     <g style="fill:#cc79a7;" transform="translate(185.856 184.3809)scale(0.2 -0.2)">
      <defs>
       <path d="M 61.03125 0 
L 51.90625 0 
L 31.984375 36.765625 
L 16.703125 17.78125 
L 16.703125 0 
L 8.34375 0 
L 8.34375 66.65625 
L 16.703125 66.65625 
L 16.703125 27.984375 
L 46.828125 66.65625 
L 55.859375 66.65625 
L 37.796875 43.3125 
z
" id="FranklinGothic-Book-75"/>
       <path d="M 64.5 49.3125 
L 50.296875 0 
L 44.09375 0 
L 33.0625 36.625 
L 22.953125 0 
L 16.65625 0 
L 1.859375 49.3125 
L 9.578125 49.3125 
L 20.265625 12.546875 
L 30.515625 49.3125 
L 36.140625 49.3125 
L 47.21875 12.40625 
L 58.296875 49.3125 
z
" id="FranklinGothic-Book-119"/>
      </defs>
      <use xlink:href="#FranklinGothic-Book-75"/>
      <use x="62.216797" xlink:href="#FranklinGothic-Book-97"/>
      <use x="115.097656" xlink:href="#FranklinGothic-Book-100"/>
      <use x="168.955078" xlink:href="#FranklinGothic-Book-111"/>
      <use x="219.533203" xlink:href="#FranklinGothic-Book-119"/>
      <use x="285.939453" xlink:href="#FranklinGothic-Book-32"/>
      <use x="310.939453" xlink:href="#FranklinGothic-Book-101"/>
      <use x="362.490234" xlink:href="#FranklinGothic-Book-116"/>
      <use x="393.251953" xlink:href="#FranklinGothic-Book-32"/>
      <use x="418.251953" xlink:href="#FranklinGothic-Book-97"/>
      <use x="471.132812" xlink:href="#FranklinGothic-Book-108"/>
      <use x="494.130859" xlink:href="#FranklinGothic-Book-46"/>
      <use x="519.130859" xlink:href="#FranklinGothic-Book-32"/>
      <use x="544.130859" xlink:href="#FranklinGothic-Book-40"/>
      <use x="573.476562" xlink:href="#FranklinGothic-Book-49"/>
      <use x="630.744141" xlink:href="#FranklinGothic-Book-57"/>
      <use x="689.386719" xlink:href="#FranklinGothic-Book-48"/>
      <use x="748.029297" xlink:href="#FranklinGothic-Book-48"/>
      <use x="806.671875" xlink:href="#FranklinGothic-Book-45"/>
      <use x="831.671875" xlink:href="#FranklinGothic-Book-50"/>
      <use x="890.314453" xlink:href="#FranklinGothic-Book-48"/>
      <use x="948.957031" xlink:href="#FranklinGothic-Book-50"/>
      <use x="1007.599609" xlink:href="#FranklinGothic-Book-51"/>
      <use x="1066.242188" xlink:href="#FranklinGothic-Book-41"/>
     </g>
    </g>
    <g id="line2d_18"/>
    <g id="text_20">
     <!-- GISTEMP (1900-2023) -->
     <g style="fill:#56b4e9;" transform="translate(185.856 211.71215)scale(0.2 -0.2)">
      <defs>
       <path d="M 16.703125 0 
L 8.34375 0 
L 8.34375 66.65625 
L 16.703125 66.65625 
z
" id="FranklinGothic-Book-73"/>
       <path d="M 1.03125 17.71875 
L 8.546875 19.4375 
Q 13.09375 5.8125 28.21875 5.8125 
Q 36.140625 5.8125 40.140625 9.15625 
Q 44.140625 12.5 44.140625 18.109375 
Q 44.140625 22.359375 41.078125 24.953125 
Q 38.03125 27.546875 34.03125 28.515625 
L 20.703125 31.84375 
Q 15.53125 33.15625 12.234375 35.03125 
Q 8.9375 36.921875 6.640625 40.828125 
Q 4.34375 44.734375 4.34375 49.75 
Q 4.34375 58.109375 10.640625 63.0625 
Q 16.9375 68.015625 26.8125 68.015625 
Q 44.96875 68.015625 50.6875 51.5625 
L 43.109375 49.3125 
Q 41.796875 55.171875 36.90625 58.171875 
Q 32.03125 61.1875 26.515625 61.1875 
Q 21.046875 61.1875 16.765625 58.296875 
Q 12.5 55.421875 12.5 50.140625 
Q 12.5 42.78125 23.34375 40.1875 
L 35.796875 37.203125 
Q 52.875 33.109375 52.875 18.796875 
Q 52.875 10.15625 46.453125 4.421875 
Q 40.046875 -1.3125 28.375 -1.3125 
Q 7.671875 -1.3125 1.03125 17.71875 
z
" id="FranklinGothic-Book-83"/>
       <path d="M 51.46875 7.328125 
L 51.46875 0 
L 8.34375 0 
L 8.34375 66.65625 
L 50.53125 66.65625 
L 50.53125 59.328125 
L 16.703125 59.328125 
L 16.703125 38.140625 
L 43.5625 38.140625 
L 43.5625 31.34375 
L 16.703125 31.34375 
L 16.703125 7.328125 
z
" id="FranklinGothic-Book-69"/>
       <path d="M 72.703125 0 
L 64.59375 0 
L 64.59375 58.203125 
L 42.921875 0 
L 37.25 0 
L 15.4375 58.203125 
L 15.4375 0 
L 8.34375 0 
L 8.34375 66.65625 
L 20.75 66.65625 
L 40.828125 13.328125 
L 60.5 66.65625 
L 72.703125 66.65625 
z
" id="FranklinGothic-Book-77"/>
       <path d="M 16.703125 0 
L 8.34375 0 
L 8.34375 66.65625 
L 31.984375 66.65625 
Q 43.0625 66.65625 48.328125 60.625 
Q 53.609375 54.59375 53.609375 46.875 
Q 53.609375 38.28125 47.875 32.65625 
Q 42.140625 27.046875 32.859375 27.046875 
L 16.703125 27.046875 
z
M 16.703125 33.984375 
L 32.03125 33.984375 
Q 37.9375 33.984375 41.546875 37.515625 
Q 45.171875 41.0625 45.171875 46.875 
Q 45.171875 51.859375 41.9375 55.765625 
Q 38.71875 59.671875 32.625 59.671875 
L 16.703125 59.671875 
z
" id="FranklinGothic-Book-80"/>
      </defs>
      <use xlink:href="#FranklinGothic-Book-71"/>
      <use x="64.697266" xlink:href="#FranklinGothic-Book-73"/>
      <use x="89.697266" xlink:href="#FranklinGothic-Book-83"/>
      <use x="144.630859" xlink:href="#FranklinGothic-Book-84"/>
      <use x="193.166016" xlink:href="#FranklinGothic-Book-69"/>
      <use x="247.951172" xlink:href="#FranklinGothic-Book-77"/>
      <use x="328.957031" xlink:href="#FranklinGothic-Book-80"/>
      <use x="384.865234" xlink:href="#FranklinGothic-Book-32"/>
      <use x="409.865234" xlink:href="#FranklinGothic-Book-40"/>
      <use x="439.210938" xlink:href="#FranklinGothic-Book-49"/>
      <use x="496.478516" xlink:href="#FranklinGothic-Book-57"/>
      <use x="555.121094" xlink:href="#FranklinGothic-Book-48"/>
      <use x="613.763672" xlink:href="#FranklinGothic-Book-48"/>
      <use x="672.40625" xlink:href="#FranklinGothic-Book-45"/>
      <use x="697.40625" xlink:href="#FranklinGothic-Book-50"/>
      <use x="756.048828" xlink:href="#FranklinGothic-Book-48"/>
      <use x="814.691406" xlink:href="#FranklinGothic-Book-50"/>
      <use x="873.333984" xlink:href="#FranklinGothic-Book-51"/>
      <use x="931.976562" xlink:href="#FranklinGothic-Book-41"/>
     </g>
    </g>
    <g id="line2d_19"/>
    <g id="text_21">
     <!-- Berkeley Earth (1900-2023) -->
     <g style="fill:#009e73;" transform="translate(185.856 239.0434)scale(0.2 -0.2)">
      <defs>
       <path d="M 8.34375 0 
L 8.34375 66.65625 
L 34.71875 66.65625 
Q 44.671875 66.65625 49.484375 61.765625 
Q 54.296875 56.890625 54.296875 50.4375 
Q 54.296875 39.109375 42.484375 35.40625 
Q 49.515625 33.59375 52.921875 28.953125 
Q 56.34375 24.3125 56.34375 18.453125 
Q 56.34375 10.59375 51.046875 5.296875 
Q 45.75 0 34.71875 0 
z
M 16.40625 38.09375 
L 30.90625 38.09375 
Q 39.9375 38.09375 42.96875 41.53125 
Q 46 44.96875 46 49.609375 
Q 46 54.203125 42.75 57.03125 
Q 39.5 59.859375 33.0625 59.859375 
L 16.40625 59.859375 
z
M 16.40625 7.328125 
L 34.28125 7.328125 
Q 40.828125 7.328125 44.390625 10.5 
Q 47.953125 13.671875 47.953125 18.75 
Q 47.953125 22.3125 46.34375 25.359375 
Q 44.734375 28.421875 41.796875 30.078125 
Q 38.875 31.734375 33.0625 31.734375 
L 16.40625 31.734375 
z
" id="FranklinGothic-Book-66"/>
       <path d="M 48.390625 0 
L 40.4375 0 
L 26.03125 27.546875 
L 15.328125 15.234375 
L 15.328125 0 
L 7.671875 0 
L 7.671875 66.65625 
L 15.328125 66.65625 
L 15.328125 23.96875 
L 38.234375 49.3125 
L 46.4375 49.3125 
L 31 31.984375 
z
" id="FranklinGothic-Book-107"/>
       <path d="M 41.5 49.3125 
L 21.734375 -5.765625 
Q 17.4375 -17.671875 8.015625 -17.671875 
Q 5.03125 -17.671875 1.421875 -16.65625 
L 1.421875 -10.640625 
Q 4.390625 -11.328125 6.546875 -11.328125 
Q 10.203125 -11.328125 12.671875 -9.21875 
Q 15.140625 -7.125 17.578125 0.921875 
L 0.53125 49.3125 
L 8.34375 49.3125 
L 21.53125 12.25 
L 35.0625 49.3125 
z
" id="FranklinGothic-Book-121"/>
      </defs>
      <use xlink:href="#FranklinGothic-Book-66"/>
      <use x="60.449219" xlink:href="#FranklinGothic-Book-101"/>
      <use x="112.5" xlink:href="#FranklinGothic-Book-114"/>
      <use x="144.958984" xlink:href="#FranklinGothic-Book-107"/>
      <use x="192.806641" xlink:href="#FranklinGothic-Book-101"/>
      <use x="244.857422" xlink:href="#FranklinGothic-Book-108"/>
      <use x="267.855469" xlink:href="#FranklinGothic-Book-101"/>
      <use x="318.28125" xlink:href="#FranklinGothic-Book-121"/>
      <use x="359.785156" xlink:href="#FranklinGothic-Book-32"/>
      <use x="384.785156" xlink:href="#FranklinGothic-Book-69"/>
      <use x="439.570312" xlink:href="#FranklinGothic-Book-97"/>
      <use x="492.451172" xlink:href="#FranklinGothic-Book-114"/>
      <use x="528.785156" xlink:href="#FranklinGothic-Book-116"/>
      <use x="559.546875" xlink:href="#FranklinGothic-Book-104"/>
      <use x="613.550781" xlink:href="#FranklinGothic-Book-32"/>
      <use x="638.550781" xlink:href="#FranklinGothic-Book-40"/>
      <use x="667.896484" xlink:href="#FranklinGothic-Book-49"/>
      <use x="725.164062" xlink:href="#FranklinGothic-Book-57"/>
      <use x="783.806641" xlink:href="#FranklinGothic-Book-48"/>
      <use x="842.449219" xlink:href="#FranklinGothic-Book-48"/>
      <use x="901.091797" xlink:href="#FranklinGothic-Book-45"/>
      <use x="926.091797" xlink:href="#FranklinGothic-Book-50"/>
      <use x="984.734375" xlink:href="#FranklinGothic-Book-48"/>
      <use x="1043.376953" xlink:href="#FranklinGothic-Book-50"/>
      <use x="1102.019531" xlink:href="#FranklinGothic-Book-51"/>
      <use x="1160.662109" xlink:href="#FranklinGothic-Book-41"/>
     </g>
    </g>
    <g id="line2d_20"/>
    <g id="text_22">
     <!-- JRA-55 (1958-2023) -->
     <g style="fill:#d55e00;" transform="translate(185.856 266.577775)scale(0.2 -0.2)">
      <defs>
       <path d="M 29.6875 66.65625 
L 29.6875 20.359375 
Q 29.6875 8.25 24.21875 3.46875 
Q 18.75 -1.3125 9.71875 -1.3125 
Q 4.890625 -1.3125 0 0 
L 0 6.84375 
Q 4.78125 5.859375 8.6875 5.859375 
Q 14.265625 5.859375 16.890625 7.515625 
Q 19.53125 9.1875 20.4375 11.8125 
Q 21.34375 14.453125 21.34375 20.359375 
L 21.34375 66.65625 
z
" id="FranklinGothic-Book-74"/>
      </defs>
      <use xlink:href="#FranklinGothic-Book-74"/>
      <use x="37.353516" xlink:href="#FranklinGothic-Book-82"/>
      <use x="98.632812" xlink:href="#FranklinGothic-Book-65"/>
      <use x="153.947266" xlink:href="#FranklinGothic-Book-45"/>
      <use x="178.947266" xlink:href="#FranklinGothic-Book-53"/>
      <use x="237.589844" xlink:href="#FranklinGothic-Book-53"/>
      <use x="296.232422" xlink:href="#FranklinGothic-Book-32"/>
      <use x="321.232422" xlink:href="#FranklinGothic-Book-40"/>
      <use x="350.578125" xlink:href="#FranklinGothic-Book-49"/>
      <use x="407.845703" xlink:href="#FranklinGothic-Book-57"/>
      <use x="466.488281" xlink:href="#FranklinGothic-Book-53"/>
      <use x="525.130859" xlink:href="#FranklinGothic-Book-56"/>
      <use x="583.773438" xlink:href="#FranklinGothic-Book-45"/>
      <use x="608.773438" xlink:href="#FranklinGothic-Book-50"/>
      <use x="667.416016" xlink:href="#FranklinGothic-Book-48"/>
      <use x="726.058594" xlink:href="#FranklinGothic-Book-50"/>
      <use x="784.701172" xlink:href="#FranklinGothic-Book-51"/>
      <use x="843.34375" xlink:href="#FranklinGothic-Book-41"/>
     </g>
    </g>
    <g id="line2d_21"/>
    <g id="text_23">
     <!-- ERA5 (1979-2023) -->
     <g style="fill:#0072b2;" transform="translate(185.856 293.909025)scale(0.2 -0.2)">
      <defs>
       <path d="M 28.078125 0 
L 19.484375 0 
Q 19.484375 16.75 26.3125 32.59375 
Q 33.15625 48.4375 43.0625 59.328125 
L 6.890625 59.328125 
L 7.71875 66.65625 
L 51.765625 66.65625 
L 51.765625 61.671875 
Q 39.84375 47.3125 33.9375 31.78125 
Q 28.03125 16.265625 28.03125 2.296875 
Q 28.03125 1.515625 28.078125 0 
z
" id="FranklinGothic-Book-55"/>
      </defs>
      <use xlink:href="#FranklinGothic-Book-69"/>
      <use x="54.785156" xlink:href="#FranklinGothic-Book-82"/>
      <use x="116.064453" xlink:href="#FranklinGothic-Book-65"/>
      <use x="169.628906" xlink:href="#FranklinGothic-Book-53"/>
      <use x="228.271484" xlink:href="#FranklinGothic-Book-32"/>
      <use x="253.271484" xlink:href="#FranklinGothic-Book-40"/>
      <use x="282.617188" xlink:href="#FranklinGothic-Book-49"/>
      <use x="339.884766" xlink:href="#FranklinGothic-Book-57"/>
      <use x="392.777344" xlink:href="#FranklinGothic-Book-55"/>
      <use x="451.419922" xlink:href="#FranklinGothic-Book-57"/>
      <use x="510.0625" xlink:href="#FranklinGothic-Book-45"/>
      <use x="535.0625" xlink:href="#FranklinGothic-Book-50"/>
      <use x="593.705078" xlink:href="#FranklinGothic-Book-48"/>
      <use x="652.347656" xlink:href="#FranklinGothic-Book-50"/>
      <use x="710.990234" xlink:href="#FranklinGothic-Book-51"/>
      <use x="769.632812" xlink:href="#FranklinGothic-Book-41"/>
     </g>
    </g>
   </g>
   <g id="line2d_22">
    <path clip-path="url(#p04cc077045)" d="M 184.581818 349.43113 
L 191.180488 377.927236 
L 197.779157 381.271689 
L 204.377827 425.671012 
L 210.976497 472.732247 
L 217.575166 407.191202 
L 224.173836 414.938048 
L 230.772506 456.24887 
L 237.371175 434.424607 
L 243.969845 442.171452 
L 250.568514 458.910782 
L 257.167184 450.515522 
L 263.765854 414.733285 
L 270.364523 398.335226 
L 276.963193 372.313333 
L 283.561863 345.28469 
L 290.160532 439.236524 
L 296.759202 502.508119 
L 303.357871 456.521887 
L 309.956541 387.568135 
L 316.555211 439.816684 
L 323.15388 454.866724 
L 329.75255 445.550033 
L 336.35122 462.016346 
L 342.949889 454.55958 
L 349.548559 421.644018 
L 356.147228 367.364907 
L 362.745898 400.809439 
L 369.344568 397.106652 
L 375.943237 418.453136 
L 382.541907 385.298684 
L 389.140576 412.58328 
L 395.739246 377.022869 
L 402.337916 424.015849 
L 408.936585 431.711504 
L 415.535255 409.563034 
L 422.133925 382.807408 
L 428.732594 382.005422 
L 435.331264 406.21858 
L 441.929933 384.326063 
L 448.528603 353.526379 
L 455.127273 342.72516 
L 461.725942 383.83122 
L 468.324612 398.693561 
L 474.923282 359.242663 
L 481.521951 364.412915 
L 488.120621 372.910556 
L 494.71929 393.216165 
L 501.31796 372.842302 
L 507.91663 391.561002 
L 514.515299 391.970527 
L 521.113969 371.852617 
L 527.712639 360.454174 
L 534.311308 339.073563 
L 540.909978 376.084374 
L 547.508647 410.347956 
L 554.107317 441.932563 
L 560.705987 361.136716 
L 567.304656 314.160799 
L 573.903326 349.345812 
L 580.501996 370.862932 
L 587.100665 334.346963 
L 593.699335 366.153396 
L 600.298004 328.989013 
L 606.896674 390.144729 
L 613.495344 346.39382 
L 620.094013 352.434312 
L 626.692683 350.420815 
L 633.291353 385.145112 
L 639.890022 288.719066 
L 646.488692 331.838623 
L 653.087361 402.191586 
L 659.686031 327.845756 
L 666.284701 323.528681 
L 672.88337 387.465753 
L 679.48204 370.862932 
L 686.08071 388.933217 
L 692.679379 299.213141 
L 699.278049 324.484239 
L 705.876718 333.527913 
L 712.475388 297.336152 
L 719.074058 323.562808 
L 725.672727 297.097262 
L 732.271397 275.71665 
L 738.870067 346.308502 
L 745.468736 335.814427 
L 752.067406 319.211606 
L 758.666075 264.983686 
L 765.264745 318.17073 
L 771.863415 333.323151 
L 778.462084 296.124641 
L 785.060754 296.500038 
L 791.659424 316.225487 
L 798.258093 297.609168 
L 804.856763 263.567412 
L 811.455432 254.233658 
L 818.054102 297.011944 
L 824.652772 240.582828 
L 831.251441 204.066859 
L 837.850111 306.226254 
L 844.44878 318.785017 
L 851.04745 272.440451 
L 857.64612 234.781226 
L 864.244789 235.514958 
L 870.843459 261.297962 
L 877.442129 238.910602 
L 884.040798 242.749897 
L 890.639468 276.552764 
L 897.238137 274.607521 
L 903.836807 229.355021 
L 910.435477 241.453069 
L 917.034146 256.042393 
L 923.632816 220.959761 
L 930.231486 247.937213 
L 936.830155 218.536739 
L 943.428825 153.763553 
L 950.027494 180.33148 
L 956.626164 182.242596 
L 963.224834 230.276452 
L 969.823503 174.49575 
L 976.422173 148.166713 
L 983.020843 204.356939 
L 989.619512 243.24474 
L 996.218182 133.918659 
" style="fill:none;stroke:#009e73;stroke-linecap:round;stroke-width:3;"/>
   </g>
   <g id="line2d_23">
    <path clip-path="url(#p04cc077045)" d="M 184.581818 332.521165 
L 191.180488 357.997025 
L 197.779157 352.28074 
L 204.377827 400.33166 
L 210.976497 426.86546 
L 217.575166 377.005805 
L 224.173836 397.396732 
L 230.772506 425.107916 
L 237.371175 419.135678 
L 243.969845 437.53017 
L 250.568514 454.320691 
L 257.167184 453.057989 
L 263.765854 424.271802 
L 270.364523 415.791224 
L 276.963193 401.389599 
L 283.561863 403.693177 
L 290.160532 484.557278 
L 296.759202 527.710963 
L 303.357871 482.816797 
L 309.956541 420.193617 
L 316.555211 451.965923 
L 323.15388 466.435802 
L 329.75255 465.46318 
L 336.35122 475.837811 
L 342.949889 495.546196 
L 349.548559 433.434922 
L 356.147228 404.648735 
L 362.745898 430.687692 
L 369.344568 431.626187 
L 375.943237 438.519856 
L 382.541907 400.741185 
L 389.140576 414.409078 
L 395.739246 375.026435 
L 402.337916 423.145609 
L 408.936585 440.021447 
L 415.535255 413.863045 
L 422.133925 396.492364 
L 428.732594 394.188787 
L 435.331264 417.770595 
L 441.929933 390.622508 
L 448.528603 364.976012 
L 455.127273 352.622011 
L 461.725942 398.232845 
L 468.324612 403.351906 
L 474.923282 362.331164 
L 481.521951 359.976395 
L 488.120621 381.442325 
L 494.71929 396.014585 
L 501.31796 378.183189 
L 507.91663 405.979691 
L 514.515299 404.81937 
L 521.113969 379.377637 
L 527.712639 375.453023 
L 534.311308 347.127552 
L 540.909978 400.587613 
L 547.508647 437.205963 
L 554.107317 464.524686 
L 560.705987 377.790728 
L 567.304656 333.22077 
L 573.903326 372.05738 
L 580.501996 394.137596 
L 587.100665 364.754186 
L 593.699335 395.724505 
L 600.298004 353.731141 
L 606.896674 423.333308 
L 613.495344 370.41928 
L 620.094013 387.994723 
L 626.692683 382.056612 
L 633.291353 413.914235 
L 639.890022 316.464376 
L 646.488692 361.44386 
L 653.087361 423.845214 
L 659.686031 353.91884 
L 666.284701 361.921639 
L 672.88337 417.548769 
L 679.48204 404.443972 
L 686.08071 417.617023 
L 692.679379 327.572739 
L 699.278049 355.727575 
L 705.876718 356.341862 
L 712.475388 313.307622 
L 719.074058 336.906494 
L 725.672727 318.512001 
L 732.271397 294.571859 
L 738.870067 363.849818 
L 745.468736 350.369624 
L 752.067406 324.910827 
L 758.666075 279.555946 
L 765.264745 334.96125 
L 771.863415 344.943419 
L 778.462084 309.792534 
L 785.060754 304.144503 
L 791.659424 329.227902 
L 798.258093 309.792534 
L 804.856763 276.706336 
L 811.455432 274.778156 
L 818.054102 309.400072 
L 824.652772 251.076903 
L 831.251441 214.185537 
L 837.850111 314.536197 
L 844.44878 319.86002 
L 851.04745 270.102747 
L 857.64612 241.128861 
L 864.244789 243.995535 
L 870.843459 261.553915 
L 877.442129 238.825284 
L 884.040798 236.419325 
L 890.639468 277.440068 
L 897.238137 270.222192 
L 903.836807 227.102634 
L 910.435477 240.634019 
L 917.034146 252.612622 
L 923.632816 209.305365 
L 930.231486 245.138792 
L 936.830155 205.107735 
L 943.428825 135.36906 
L 950.027494 172.482253 
L 956.626164 165.144932 
L 963.224834 213.861329 
L 969.823503 162.619528 
L 976.422173 142.467491 
L 983.020843 199.408514 
L 989.619512 236.419325 
L 996.218182 100.44 
" style="fill:none;stroke:#56b4e9;stroke-linecap:round;stroke-width:3;"/>
   </g>
   <g id="line2d_24">
    <path clip-path="url(#p04cc077045)" d="M 184.581818 320.167164 
L 191.180488 325.917576 
L 197.779157 325.439797 
L 204.377827 404.665798 
L 210.976497 421.695208 
L 217.575166 374.514529 
L 224.173836 393.079657 
L 230.772506 438.280966 
L 237.371175 428.162289 
L 243.969845 427.548001 
L 250.568514 450.430204 
L 257.167184 431.626187 
L 263.765854 389.922903 
L 270.364523 368.081575 
L 276.963193 348.339063 
L 283.561863 302.25045 
L 290.160532 441.403593 
L 296.759202 461.146105 
L 303.357871 395.059027 
L 309.956541 356.42718 
L 316.555211 411.678912 
L 323.15388 431.899203 
L 329.75255 437.513107 
L 336.35122 430.653565 
L 342.949889 450.89092 
L 349.548559 383.455822 
L 356.147228 343.800163 
L 362.745898 390.127665 
L 369.344568 395.31498 
L 375.943237 404.853497 
L 382.541907 364.754186 
L 389.140576 375.606595 
L 395.739246 333.374341 
L 402.337916 404.188019 
L 408.936585 415.791224 
L 415.535255 388.60901 
L 422.133925 367.552606 
L 428.732594 351.086293 
L 435.331264 384.41138 
L 441.929933 347.366442 
L 448.528603 317.522316 
L 455.127273 312.932224 
L 461.725942 360.061713 
L 468.324612 372.364523 
L 474.923282 318.972716 
L 481.521951 333.306087 
L 488.120621 354.891461 
L 494.71929 371.801426 
L 501.31796 365.624426 
L 507.91663 389.581632 
L 514.515299 393.233229 
L 521.113969 363.491484 
L 527.712639 350.113671 
L 534.311308 321.156849 
L 540.909978 356.956149 
L 547.508647 391.202668 
L 554.107317 422.531322 
L 560.705987 346.735091 
L 567.304656 296.534165 
L 573.903326 332.674736 
L 580.501996 348.475572 
L 587.100665 306.959986 
L 593.699335 334.875933 
L 600.298004 298.598853 
L 606.896674 357.860517 
L 613.495344 313.700084 
L 620.094013 324.074714 
L 626.692683 324.962018 
L 633.291353 364.122835 
L 639.890022 272.201562 
L 646.488692 315.218738 
L 653.087361 393.318546 
L 659.686031 324.108841 
L 666.284701 333.630295 
L 672.88337 403.027699 
L 679.48204 384.41138 
L 686.08071 397.174906 
L 692.679379 306.294509 
L 699.278049 332.282275 
L 705.876718 335.302521 
L 712.475388 306.175064 
L 719.074058 332.623546 
L 725.672727 303.59847 
L 732.271397 279.28293 
L 738.870067 351.461691 
L 745.468736 338.305704 
L 752.067406 319.604067 
L 758.666075 269.48846 
L 765.264745 327.589803 
L 771.863415 332.16283 
L 778.462084 300.322271 
L 785.060754 302.932992 
L 791.659424 330.610049 
L 798.258093 306.925859 
L 804.856763 273.651963 
L 811.455432 261.656296 
L 818.054102 304.212757 
L 824.652772 243.108232 
L 831.251441 202.172807 
L 837.850111 308.171498 
L 844.44878 308.13737 
L 851.04745 259.830498 
L 857.64612 227.273269 
L 864.244789 234.883607 
L 870.843459 250.803887 
L 877.442129 228.791924 
L 884.040798 232.426458 
L 890.639468 263.089633 
L 897.238137 259.830498 
L 903.836807 220.61849 
L 910.435477 224.918501 
L 917.034146 247.937213 
L 923.632816 219.884758 
L 930.231486 244.012599 
L 936.830155 221.283968 
L 943.428825 159.258012 
L 950.027494 186.133082 
L 956.626164 192.480718 
L 963.224834 241.009417 
L 969.823503 185.877129 
L 976.422173 173.335429 
L 983.020843 220.754998 
L 989.619512 245.463 
L 996.218182 152.876249 
" style="fill:none;stroke:#cc79a7;stroke-linecap:round;stroke-width:3;"/>
   </g>
   <g id="line2d_25">
    <path clip-path="url(#p04cc077045)" d="M 184.581818 394.615375 
L 191.180488 381.766532 
L 197.779157 363.13315 
L 204.377827 389.71814 
L 210.976497 445.123444 
L 217.575166 397.447922 
L 224.173836 408.96581 
L 230.772506 438.366284 
L 237.371175 434.834132 
L 243.969845 436.318659 
L 250.568514 456.880221 
L 257.167184 462.391744 
L 263.765854 422.71902 
L 270.364523 422.036479 
L 276.963193 391.287986 
L 283.561863 378.916921 
L 290.160532 473.773123 
L 296.759202 554.04 
L 303.357871 476.332653 
L 309.956541 413.98249 
L 316.555211 461.606821 
L 323.15388 475.104079 
L 329.75255 472.237404 
L 336.35122 471.725498 
L 342.949889 493.515635 
L 349.548559 443.775425 
L 356.147228 395.587997 
L 362.745898 447.597657 
L 369.344568 433.690875 
L 375.943237 446.642099 
L 382.541907 400.536423 
L 389.140576 427.872209 
L 395.739246 393.489182 
L 402.337916 429.100783 
L 408.936585 431.011899 
L 415.535255 417.07099 
L 422.133925 396.048712 
L 428.732594 397.959828 
L 435.331264 413.146376 
L 441.929933 386.970911 
L 448.528603 357.758136 
L 455.127273 348.629143 
L 461.725942 402.191586 
L 468.324612 410.740418 
L 474.923282 358.065279 
L 481.521951 366.409349 
L 488.120621 380.367322 
L 494.71929 405.075323 
L 501.31796 387.670516 
L 507.91663 404.802307 
L 514.515299 414.460269 
L 521.113969 394.837201 
L 527.712639 378.080808 
L 534.311308 345.455326 
L 540.909978 395.485616 
L 547.508647 434.339289 
L 554.107317 455.122677 
L 560.705987 371.101821 
L 567.304656 328.477106 
L 573.903326 369.071261 
L 580.501996 389.393933 
L 587.100665 355.045033 
L 593.699335 386.424878 
L 600.298004 342.605715 
L 606.896674 407.395964 
L 613.495344 362.689498 
L 620.094013 373.047065 
L 626.692683 373.115319 
L 633.291353 404.512227 
L 639.890022 310.731028 
L 646.488692 351.291055 
L 653.087361 415.603526 
L 659.686031 348.543826 
L 666.284701 348.304936 
L 672.88337 411.47415 
L 679.48204 395.059027 
L 686.08071 404.870561 
L 692.679379 327.146151 
L 699.278049 350.403751 
L 705.876718 352.690265 
L 712.475388 312.437382 
L 719.074058 337.674353 
L 725.672727 323.323918 
L 732.271397 289.623433 
L 738.870067 357.655754 
L 745.468736 350.01129 
L 752.067406 325.832258 
L 758.666075 273.856725 
L 765.264745 326.395355 
L 771.863415 342.503334 
L 778.462084 312.181429 
L 785.060754 304.963553 
L 791.659424 325.098526 
L 798.258093 307.84729 
L 804.856763 280.39206 
L 811.455432 274.999982 
L 818.054102 309.007611 
L 824.652772 253.414608 
L 831.251441 211.830769 
L 837.850111 313.256432 
L 844.44878 316.856838 
L 851.04745 273.225374 
L 857.64612 236.146309 
L 864.244789 244.183234 
L 870.843459 258.090017 
L 877.442129 238.535204 
L 884.040798 240.719336 
L 890.639468 272.167435 
L 897.238137 272.423388 
L 903.836807 232.05106 
L 910.435477 236.914168 
L 917.034146 256.571362 
L 923.632816 213.724821 
L 930.231486 237.69909 
L 936.830155 200.483517 
L 943.428825 141.051218 
L 950.027494 170.622327 
L 956.626164 170.144548 
L 963.224834 216.267288 
L 969.823503 162.534211 
L 976.422173 144.037337 
L 983.020843 193.982309 
L 989.619512 229.099068 
L 996.218182 114.619799 
" style="fill:none;stroke:#e69f00;stroke-linecap:round;stroke-width:3;"/>
   </g>
   <g id="line2d_26">
    <path clip-path="url(#p04cc077045)" d="M 184.581818 336.223952 
L 191.180488 330.985446 
L 197.779157 332.606482 
L 204.377827 371.801426 
L 210.976497 398.761815 
L 217.575166 362.07521 
L 224.173836 368.14983 
L 230.772506 406.986439 
L 237.371175 394.291168 
L 243.969845 388.950281 
L 250.568514 408.419777 
L 257.167184 413.095186 
L 263.765854 368.303401 
L 270.364523 357.843453 
L 276.963193 321.225103 
L 283.561863 299.281395 
L 290.160532 386.373687 
L 296.759202 446.590908 
L 303.357871 409.136445 
L 309.956541 348.595016 
L 316.555211 395.792759 
L 323.15388 424.203548 
L 329.75255 418.248374 
L 336.35122 428.503559 
L 342.949889 418.726153 
L 349.548559 386.10067 
L 356.147228 336.326333 
L 362.745898 377.091123 
L 369.344568 375.691913 
L 375.943237 397.53324 
L 382.541907 359.891078 
L 389.140576 375.777231 
L 395.739246 345.881914 
L 402.337916 396.048712 
L 408.936585 404.4781 
L 415.535255 383.677648 
L 422.133925 353.304553 
L 428.732594 350.062481 
L 435.331264 377.568902 
L 441.929933 358.218851 
L 448.528603 326.907261 
L 455.127273 319.962402 
L 461.725942 365.965697 
L 468.324612 379.172874 
L 474.923282 330.166397 
L 481.521951 342.059682 
L 488.120621 358.355359 
L 494.71929 370.18039 
L 501.31796 363.508548 
L 507.91663 386.970911 
L 514.515299 387.875278 
L 521.113969 360.795445 
L 527.712639 349.72121 
L 534.311308 321.139786 
L 540.909978 355.232732 
L 547.508647 389.172107 
L 554.107317 423.589261 
L 560.705987 348.356127 
L 567.304656 294.708367 
L 573.903326 331.87275 
L 580.501996 347.810094 
L 587.100665 309.058801 
L 593.699335 338.356894 
L 600.298004 300.527033 
L 606.896674 362.02402 
L 613.495344 319.109225 
L 620.094013 330.661239 
L 626.692683 329.842189 
L 633.291353 366.426412 
L 639.890022 276.040858 
L 646.488692 318.631446 
L 653.087361 396.099903 
L 659.686031 325.712813 
L 666.284701 332.316402 
L 672.88337 400.109834 
L 679.48204 382.312565 
L 686.08071 398.335226 
L 692.679379 309.348882 
L 699.278049 332.964817 
L 705.876718 336.650541 
L 712.475388 305.031807 
L 719.074058 329.637427 
L 725.672727 302.284577 
L 732.271397 280.374996 
L 738.870067 348.850969 
L 745.468736 337.025938 
L 752.067406 320.115973 
L 758.666075 268.686473 
L 765.264745 326.85607 
L 771.863415 334.09101 
L 778.462084 301.584972 
L 785.060754 304.588155 
L 791.659424 328.49417 
L 798.258093 308.598086 
L 804.856763 273.054739 
L 811.455432 260.905501 
L 818.054102 303.88855 
L 824.652772 238.313378 
L 831.251441 205.790276 
L 837.850111 305.987365 
L 844.44878 307.55721 
L 851.04745 258.431288 
L 857.64612 229.116131 
L 864.244789 233.672096 
L 870.843459 249.302295 
L 877.442129 228.72367 
L 884.040798 229.883991 
L 890.639468 259.267401 
L 897.238137 259.182083 
L 903.836807 217.564117 
L 910.435477 223.433974 
L 917.034146 247.527688 
L 923.632816 220.550236 
L 930.231486 245.906652 
L 936.830155 223.724054 
L 943.428825 160.452459 
L 950.027494 190.46722 
L 956.626164 193.385085 
L 963.224834 242.596325 
L 969.823503 193.129132 
L 976.422173 171.356059 
L 983.020843 232.597093 
L 989.619512 252.288414 
L 996.218182 138.867085 
" style="fill:none;stroke:#696969;stroke-linecap:round;stroke-width:3;"/>
   </g>
  </g>
  <g id="text_24">
   <g id="patch_4">
    <path d="M 875.574375 646.18275 
L 1040.76 646.18275 
L 1040.76 628.26525 
L 875.574375 628.26525 
z
" style="fill:#ffffff;stroke:#ffffff;stroke-linejoin:miter;"/>
   </g>
   <!-- Created: 2023-10-31 15:34:41 -->
   <g style="fill:#696969;" transform="translate(879.534375 640.224)scale(0.12 -0.12)">
    <defs>
     <path d="M 17.96875 49.3125 
L 17.96875 38.375 
L 7.078125 38.375 
L 7.078125 49.3125 
z
M 17.96875 10.984375 
L 17.96875 0 
L 7.078125 0 
L 7.078125 10.984375 
z
" id="FranklinGothic-Book-58"/>
    </defs>
    <use xlink:href="#FranklinGothic-Book-67"/>
    <use x="57.910156" xlink:href="#FranklinGothic-Book-114"/>
    <use x="90.869141" xlink:href="#FranklinGothic-Book-101"/>
    <use x="142.919922" xlink:href="#FranklinGothic-Book-97"/>
    <use x="195.800781" xlink:href="#FranklinGothic-Book-116"/>
    <use x="224.8125" xlink:href="#FranklinGothic-Book-101"/>
    <use x="276.863281" xlink:href="#FranklinGothic-Book-100"/>
    <use x="330.720703" xlink:href="#FranklinGothic-Book-58"/>
    <use x="355.720703" xlink:href="#FranklinGothic-Book-32"/>
    <use x="380.720703" xlink:href="#FranklinGothic-Book-50"/>
    <use x="439.363281" xlink:href="#FranklinGothic-Book-48"/>
    <use x="498.005859" xlink:href="#FranklinGothic-Book-50"/>
    <use x="556.648438" xlink:href="#FranklinGothic-Book-51"/>
    <use x="615.291016" xlink:href="#FranklinGothic-Book-45"/>
    <use x="640.291016" xlink:href="#FranklinGothic-Book-49"/>
    <use x="695.683594" xlink:href="#FranklinGothic-Book-48"/>
    <use x="754.326172" xlink:href="#FranklinGothic-Book-45"/>
    <use x="779.326172" xlink:href="#FranklinGothic-Book-51"/>
    <use x="833.21875" xlink:href="#FranklinGothic-Book-49"/>
    <use x="891.861328" xlink:href="#FranklinGothic-Book-32"/>
    <use x="916.861328" xlink:href="#FranklinGothic-Book-49"/>
    <use x="974.128906" xlink:href="#FranklinGothic-Book-53"/>
    <use x="1032.771484" xlink:href="#FranklinGothic-Book-58"/>
    <use x="1057.771484" xlink:href="#FranklinGothic-Book-51"/>
    <use x="1116.414062" xlink:href="#FranklinGothic-Book-52"/>
    <use x="1175.056641" xlink:href="#FranklinGothic-Book-58"/>
    <use x="1200.056641" xlink:href="#FranklinGothic-Book-52"/>
    <use x="1251.949219" xlink:href="#FranklinGothic-Book-49"/>
   </g>
  </g>
 </g>
 <defs>
  <clipPath id="p04cc077045">
   <rect height="498.96" width="892.8" x="144" y="77.76"/>
  </clipPath>
 </defs>
</svg>
