<?xml version="1.0" encoding="utf-8" standalone="no"?>
<!DOCTYPE svg PUBLIC "-//W3C//DTD SVG 1.1//EN"
  "http://www.w3.org/Graphics/SVG/1.1/DTD/svg11.dtd">
<!-- Created with matplotlib (https://matplotlib.org/) -->
<svg height="648pt" version="1.1" viewBox="0 0 1152 648" width="1152pt" xmlns="http://www.w3.org/2000/svg" xmlns:xlink="http://www.w3.org/1999/xlink">
 <metadata>
  <rdf:RDF xmlns:cc="http://creativecommons.org/ns#" xmlns:dc="http://purl.org/dc/elements/1.1/" xmlns:rdf="http://www.w3.org/1999/02/22-rdf-syntax-ns#">
   <cc:Work>
    <dc:type rdf:resource="http://purl.org/dc/dcmitype/StillImage"/>
    <dc:date>2024-01-22T15:36:23.781212</dc:date>
    <dc:format>image/svg+xml</dc:format>
    <dc:creator>
     <cc:Agent>
      <dc:title>Matplotlib v3.3.1, https://matplotlib.org/</dc:title>
     </cc:Agent>
    </dc:creator>
   </cc:Work>
  </rdf:RDF>
 </metadata>
 <defs>
  <style type="text/css">*{stroke-linecap:butt;stroke-linejoin:round;}</style>
 </defs>
 <g id="figure_1">
  <g id="patch_1">
   <path d="M 0 648 
L 1152 648 
L 1152 0 
L 0 0 
z
" style="fill:#ffffff;"/>
  </g>
  <g id="axes_1">
   <g id="patch_2">
    <path d="M 144 576.72 
L 1036.8 576.72 
L 1036.8 77.76 
L 144 77.76 
z
" style="fill:none;"/>
   </g>
   <g id="line2d_1">
    <path clip-path="url(#p9d5932247b)" d="M 705.876718 373.53744 
L 712.475388 316.7316 
L 719.074058 371.13336 
L 725.672727 308.61216 
L 732.271397 382.33728 
L 738.870067 404.9568 
L 745.468736 399.22632 
L 752.067406 370.8612 
L 758.666075 420.01632 
L 765.264745 362.18232 
L 771.863415 327.93552 
L 778.462084 328.8276 
L 785.060754 360.30744 
L 791.659424 377.77104 
L 798.258093 319.0752 
L 804.856763 246.66552 
L 811.455432 241.2828 
L 818.054102 276.3612 
L 824.652772 335.41992 
L 831.251441 237.74472 
L 837.850111 291.58704 
L 844.44878 269.6328 
L 851.04745 289.63656 
L 857.64612 268.16616 
L 864.244789 259.51752 
L 870.843459 336.40272 
L 877.442129 246.22704 
L 884.040798 235.12896 
L 890.639468 287.00568 
L 897.238137 279.99 
L 903.836807 212.19192 
L 910.435477 322.0236 
L 917.034146 200.79144 
L 923.632816 202.5 
L 930.231486 268.75584 
L 936.830155 239.02992 
L 943.428825 227.99232 
L 950.027494 202.3488 
L 956.626164 179.75952 
L 963.224834 227.91672 
L 969.823503 184.79448 
L 976.422173 150.00336 
L 983.020843 201.16944 
L 989.619512 241.52472 
L 996.218182 134.33904 
" style="fill:none;stroke:#0072b2;stroke-linecap:round;stroke-width:3;"/>
   </g>
   <g id="line2d_2">
    <path clip-path="url(#p9d5932247b)" d="M 567.304656 368.1396 
L 573.903326 362.3184 
L 580.501996 418.1112 
L 587.100665 428.36256 
L 593.699335 372.02544 
L 600.298004 394.16112 
L 606.896674 444.61656 
L 613.495344 406.12104 
L 620.094013 473.20848 
L 626.692683 356.01336 
L 633.291353 413.43912 
L 639.890022 316.33848 
L 646.488692 372.11616 
L 653.087361 353.45808 
L 659.686031 305.04384 
L 666.284701 418.82184 
L 672.88337 384.3936 
L 679.48204 423.19152 
L 686.08071 473.72256 
L 692.679379 386.17776 
L 699.278049 399.5892 
L 705.876718 398.2284 
L 712.475388 348.1056 
L 719.074058 399.63456 
L 725.672727 332.41104 
L 732.271397 403.56576 
L 738.870067 431.65872 
L 745.468736 409.09968 
L 752.067406 387.22104 
L 758.666075 432.80784 
L 765.264745 394.17624 
L 771.863415 348.1812 
L 778.462084 345.85272 
L 785.060754 373.71888 
L 791.659424 405.95472 
L 798.258093 337.47624 
L 804.856763 266.3064 
L 811.455432 260.81784 
L 818.054102 294.06672 
L 824.652772 331.05024 
L 831.251441 239.15088 
L 837.850111 297.34776 
L 844.44878 282.36384 
L 851.04745 304.21224 
L 857.64612 293.4468 
L 864.244789 255.69216 
L 870.843459 324.79056 
L 877.442129 261.15048 
L 884.040798 259.86528 
L 890.639468 315.53712 
L 897.238137 294.30864 
L 903.836807 202.1976 
L 910.435477 303.97032 
L 917.034146 178.59528 
L 923.632816 172.74384 
L 930.231486 236.0664 
L 936.830155 192.47544 
L 943.428825 181.58904 
L 950.027494 164.33712 
L 956.626164 175.5108 
L 963.224834 222.94224 
L 969.823503 190.69128 
L 976.422173 157.6692 
L 983.020843 201.84984 
L 989.619512 230.66856 
L 996.218182 114.38064 
" style="fill:none;stroke:#d55e00;stroke-linecap:round;stroke-width:3;"/>
   </g>
   <g id="patch_3">
    <path d="M 144 576.72 
L 1036.8 576.72 
" style="fill:none;stroke:#d3d3d3;stroke-linecap:square;stroke-linejoin:miter;stroke-width:1.25;"/>
   </g>
   <g id="matplotlib.axis_1">
    <g id="xtick_1">
     <g id="line2d_3">
      <defs>
       <path d="M 0 0 
L 0 6 
" id="m42428cbe75" style="stroke:#696969;stroke-width:1.25;"/>
      </defs>
      <g>
       <use style="fill:#696969;stroke:#696969;stroke-width:1.25;" x="184.581818" xlink:href="#m42428cbe75" y="576.72"/>
      </g>
     </g>
     <g id="text_1">
      <!-- 1900 -->
      <g style="fill:#696969;" transform="translate(157.765256 601.550938)scale(0.23 -0.23)">
       <defs>
        <path d="M 55.859375 6.203125 
L 55.859375 0 
L 9.1875 0 
L 9.1875 6.203125 
L 29.203125 6.203125 
L 29.203125 57.671875 
Q 20.359375 48.4375 10.84375 43.265625 
L 10.84375 51.65625 
Q 23.96875 58.546875 31.203125 68.015625 
L 37.15625 68.015625 
L 37.15625 6.203125 
z
" id="FranklinGothic-Book-49"/>
        <path d="M 5.71875 12.15625 
L 12.40625 14.59375 
Q 16.546875 5.375 26.375 5.375 
Q 35.890625 5.375 40.703125 13.375 
Q 45.515625 21.390625 45.65625 35.109375 
Q 39.109375 23.09375 25.984375 23.09375 
Q 16.703125 23.09375 10.40625 29.421875 
Q 4.109375 35.75 4.109375 45.0625 
Q 4.109375 54.546875 10.71875 61.28125 
Q 17.328125 68.015625 27.59375 68.015625 
Q 40.140625 68.015625 46.828125 59.203125 
Q 53.515625 50.390625 53.515625 34.96875 
Q 53.515625 18.75 46.4375 8.71875 
Q 39.359375 -1.3125 26.265625 -1.3125 
Q 10.984375 -1.3125 5.71875 12.15625 
z
M 27.828125 29.78125 
Q 34.71875 29.78125 39.375 34.59375 
Q 44.046875 39.40625 44.046875 45.84375 
Q 44.046875 52.09375 39.625 56.578125 
Q 35.203125 61.078125 27.984375 61.078125 
Q 20.65625 61.078125 16.40625 56.46875 
Q 12.15625 51.859375 12.15625 45.21875 
Q 12.15625 38.09375 16.859375 33.9375 
Q 21.578125 29.78125 27.828125 29.78125 
z
" id="FranklinGothic-Book-57"/>
        <path d="M 29.390625 -1.3125 
Q 17.875 -1.3125 10.984375 8.671875 
Q 4.109375 18.65625 4.109375 33.453125 
Q 4.109375 48 10.640625 58 
Q 17.1875 68.015625 29.15625 68.015625 
Q 41.65625 68.015625 48.125 57.5625 
Q 54.59375 47.125 54.59375 33.0625 
Q 54.59375 19.28125 47.953125 8.984375 
Q 41.3125 -1.3125 29.390625 -1.3125 
z
M 29.4375 5.21875 
Q 37.890625 5.21875 41.9375 12.859375 
Q 46 20.515625 46 32.078125 
Q 46 44.734375 41.84375 53.125 
Q 37.703125 61.53125 29.046875 61.53125 
Q 20.703125 61.53125 16.625 53.859375 
Q 12.546875 46.1875 12.546875 33.6875 
Q 12.546875 20.703125 16.84375 12.953125 
Q 21.140625 5.21875 29.4375 5.21875 
z
" id="FranklinGothic-Book-48"/>
       </defs>
       <use xlink:href="#FranklinGothic-Book-49"/>
       <use x="57.267578" xlink:href="#FranklinGothic-Book-57"/>
       <use x="115.910156" xlink:href="#FranklinGothic-Book-48"/>
       <use x="174.552734" xlink:href="#FranklinGothic-Book-48"/>
      </g>
     </g>
    </g>
    <g id="xtick_2">
     <g id="line2d_4">
      <g>
       <use style="fill:#696969;stroke:#696969;stroke-width:1.25;" x="316.555211" xlink:href="#m42428cbe75" y="576.72"/>
      </g>
     </g>
     <g id="text_2">
      <!-- 1920 -->
      <g style="fill:#696969;" transform="translate(289.738648 601.550938)scale(0.23 -0.23)">
       <defs>
        <path d="M 52.484375 6.9375 
L 52.484375 0 
L 5.171875 0 
L 5.171875 6.9375 
Q 33.203125 27.9375 38.59375 34.59375 
Q 44 41.265625 44 47.796875 
Q 44 53.90625 39.453125 57.65625 
Q 34.90625 61.421875 29 61.421875 
Q 22.90625 61.421875 18.21875 57.296875 
Q 13.53125 53.171875 12.9375 46.09375 
L 5.171875 48.4375 
Q 10.0625 68.015625 29.109375 68.015625 
Q 39.40625 68.015625 45.84375 62.15625 
Q 52.296875 56.296875 52.296875 47.859375 
Q 52.296875 42.046875 49.234375 36.671875 
Q 46.1875 31.296875 37.6875 23.828125 
Q 29.203125 16.359375 15.71875 6.9375 
z
" id="FranklinGothic-Book-50"/>
       </defs>
       <use xlink:href="#FranklinGothic-Book-49"/>
       <use x="57.267578" xlink:href="#FranklinGothic-Book-57"/>
       <use x="115.910156" xlink:href="#FranklinGothic-Book-50"/>
       <use x="174.552734" xlink:href="#FranklinGothic-Book-48"/>
      </g>
     </g>
    </g>
    <g id="xtick_3">
     <g id="line2d_5">
      <g>
       <use style="fill:#696969;stroke:#696969;stroke-width:1.25;" x="448.528603" xlink:href="#m42428cbe75" y="576.72"/>
      </g>
     </g>
     <g id="text_3">
      <!-- 1940 -->
      <g style="fill:#696969;" transform="translate(421.769541 601.550938)scale(0.23 -0.23)">
       <defs>
        <path d="M 44.09375 0 
L 36.03125 0 
L 36.03125 15.875 
L 3.078125 15.875 
L 3.078125 21.484375 
L 33.640625 68.0625 
L 44.09375 68.0625 
L 44.09375 22.46875 
L 54.890625 22.46875 
L 54.890625 15.875 
L 44.09375 15.875 
z
M 36.03125 22.46875 
L 36.03125 54 
Q 36.03125 57.421875 36.1875 61.375 
Q 34.078125 57.515625 32.5625 55.125 
L 11.765625 22.46875 
z
" id="FranklinGothic-Book-52"/>
       </defs>
       <use xlink:href="#FranklinGothic-Book-49"/>
       <use x="57.267578" xlink:href="#FranklinGothic-Book-57"/>
       <use x="115.410156" xlink:href="#FranklinGothic-Book-52"/>
       <use x="174.052734" xlink:href="#FranklinGothic-Book-48"/>
      </g>
     </g>
    </g>
    <g id="xtick_4">
     <g id="line2d_6">
      <g>
       <use style="fill:#696969;stroke:#696969;stroke-width:1.25;" x="580.501996" xlink:href="#m42428cbe75" y="576.72"/>
      </g>
     </g>
     <g id="text_4">
      <!-- 1960 -->
      <g style="fill:#696969;" transform="translate(553.685433 601.550938)scale(0.23 -0.23)">
       <defs>
        <path d="M 53.5625 53.03125 
L 46.046875 50.984375 
Q 42.1875 61.140625 31.984375 61.140625 
Q 13.234375 61.140625 12.796875 30.125 
Q 15.765625 37.015625 21.234375 40.328125 
Q 26.703125 43.65625 32.8125 43.65625 
Q 42.09375 43.65625 48.359375 37.1875 
Q 54.640625 30.71875 54.640625 21.6875 
Q 54.640625 12.3125 47.96875 5.5 
Q 41.3125 -1.3125 30.90625 -1.3125 
Q 19.09375 -1.3125 12.078125 7.59375 
Q 5.078125 16.5 5.078125 31.84375 
Q 5.078125 46.828125 11.6875 57.421875 
Q 18.3125 68.015625 32.171875 68.015625 
Q 48.140625 68.015625 53.5625 53.03125 
z
M 30.765625 5.375 
Q 37.84375 5.375 42.359375 10.03125 
Q 46.875 14.703125 46.875 21.234375 
Q 46.875 27.6875 42.453125 32.296875 
Q 38.03125 36.921875 31.5 36.921875 
Q 24.75 36.921875 19.71875 32.078125 
Q 14.703125 27.25 14.703125 20.75 
Q 14.703125 14.75 19.1875 10.0625 
Q 23.6875 5.375 30.765625 5.375 
z
" id="FranklinGothic-Book-54"/>
       </defs>
       <use xlink:href="#FranklinGothic-Book-49"/>
       <use x="57.267578" xlink:href="#FranklinGothic-Book-57"/>
       <use x="115.910156" xlink:href="#FranklinGothic-Book-54"/>
       <use x="174.552734" xlink:href="#FranklinGothic-Book-48"/>
      </g>
     </g>
    </g>
    <g id="xtick_5">
     <g id="line2d_7">
      <g>
       <use style="fill:#696969;stroke:#696969;stroke-width:1.25;" x="712.475388" xlink:href="#m42428cbe75" y="576.72"/>
      </g>
     </g>
     <g id="text_5">
      <!-- 1980 -->
      <g style="fill:#696969;" transform="translate(685.658826 601.550938)scale(0.23 -0.23)">
       <defs>
        <path d="M 19.484375 34.578125 
Q 6.84375 40.09375 6.84375 50.59375 
Q 6.84375 58.203125 13.140625 63.109375 
Q 19.4375 68.015625 29.828125 68.015625 
Q 40.09375 68.015625 46.140625 63.296875 
Q 52.203125 58.59375 52.203125 50.984375 
Q 52.203125 40.375 39.265625 35.796875 
Q 49.703125 30.953125 52.359375 26.453125 
Q 55.03125 21.96875 55.03125 17.484375 
Q 55.03125 9.46875 48.21875 4.078125 
Q 41.40625 -1.3125 29.734375 -1.3125 
Q 17.28125 -1.3125 10.4375 4.171875 
Q 3.609375 9.671875 3.609375 17.234375 
Q 3.609375 28.515625 19.484375 34.578125 
z
M 29.59375 38.71875 
Q 37.984375 40.96875 41.453125 43.890625 
Q 44.921875 46.828125 44.921875 51.21875 
Q 44.921875 56.34375 40.796875 59 
Q 36.671875 61.671875 29.9375 61.671875 
Q 23.484375 61.671875 19.375 58.859375 
Q 15.28125 56.0625 15.28125 51.3125 
Q 15.28125 46.625 19.84375 43.203125 
Q 24.421875 39.796875 29.59375 38.71875 
z
M 28.65625 31.0625 
Q 11.765625 27.046875 11.765625 16.9375 
Q 11.765625 11.671875 16.375 8.328125 
Q 21 4.984375 29.984375 4.984375 
Q 37.59375 4.984375 42.234375 8.25 
Q 46.875 11.53125 46.875 16.609375 
Q 46.875 26.3125 28.65625 31.0625 
z
" id="FranklinGothic-Book-56"/>
       </defs>
       <use xlink:href="#FranklinGothic-Book-49"/>
       <use x="57.267578" xlink:href="#FranklinGothic-Book-57"/>
       <use x="115.910156" xlink:href="#FranklinGothic-Book-56"/>
       <use x="174.552734" xlink:href="#FranklinGothic-Book-48"/>
      </g>
     </g>
    </g>
    <g id="xtick_6">
     <g id="line2d_8">
      <g>
       <use style="fill:#696969;stroke:#696969;stroke-width:1.25;" x="844.44878" xlink:href="#m42428cbe75" y="576.72"/>
      </g>
     </g>
     <g id="text_6">
      <!-- 2000 -->
      <g style="fill:#696969;" transform="translate(817.474093 601.550938)scale(0.23 -0.23)">
       <use xlink:href="#FranklinGothic-Book-50"/>
       <use x="58.642578" xlink:href="#FranklinGothic-Book-48"/>
       <use x="117.285156" xlink:href="#FranklinGothic-Book-48"/>
       <use x="175.927734" xlink:href="#FranklinGothic-Book-48"/>
      </g>
     </g>
    </g>
    <g id="xtick_7">
     <g id="line2d_9">
      <g>
       <use style="fill:#696969;stroke:#696969;stroke-width:1.25;" x="976.422173" xlink:href="#m42428cbe75" y="576.72"/>
      </g>
     </g>
     <g id="text_7">
      <!-- 2020 -->
      <g style="fill:#696969;" transform="translate(949.447485 601.550938)scale(0.23 -0.23)">
       <use xlink:href="#FranklinGothic-Book-50"/>
       <use x="58.642578" xlink:href="#FranklinGothic-Book-48"/>
       <use x="117.285156" xlink:href="#FranklinGothic-Book-50"/>
       <use x="175.927734" xlink:href="#FranklinGothic-Book-48"/>
      </g>
     </g>
    </g>
    <g id="text_8">
     <!-- Year -->
     <g style="fill:#696969;" transform="translate(569.365781 624.712813)scale(0.23 -0.23)">
      <defs>
       <path d="M 52 66.65625 
L 29.6875 28.03125 
L 29.6875 0 
L 21.34375 0 
L 21.34375 28.03125 
L -0.984375 66.65625 
L 8.84375 66.65625 
L 26.5625 35.984375 
L 44.390625 66.65625 
z
" id="FranklinGothic-Book-89"/>
       <path d="M 40.234375 14.703125 
L 47.359375 13.234375 
Q 45.40625 6.9375 39.734375 2.8125 
Q 34.078125 -1.3125 26.421875 -1.3125 
Q 16.3125 -1.3125 10.0625 5.78125 
Q 3.8125 12.890625 3.8125 24.421875 
Q 3.8125 36.1875 10.296875 43.4375 
Q 16.796875 50.6875 26.609375 50.6875 
Q 36.28125 50.6875 42.15625 44 
Q 48.046875 37.3125 48.1875 23.96875 
L 12.359375 23.96875 
Q 12.359375 12.796875 17.046875 8.890625 
Q 21.734375 4.984375 26.953125 4.984375 
Q 36.375 4.984375 40.234375 14.703125 
z
M 39.796875 29.6875 
Q 39.703125 33.84375 38.421875 37.0625 
Q 37.15625 40.28125 34.125 42.546875 
Q 31.109375 44.828125 26.859375 44.828125 
Q 21.140625 44.828125 17.15625 40.71875 
Q 13.1875 36.625 12.703125 29.6875 
z
" id="FranklinGothic-Book-101"/>
       <path d="M 46.296875 0 
L 38.671875 0 
Q 38.234375 2.34375 37.796875 8.890625 
Q 32.71875 -1.3125 20.515625 -1.3125 
Q 12.203125 -1.3125 7.765625 3.078125 
Q 3.328125 7.46875 3.328125 13.625 
Q 3.328125 21.09375 9.671875 25.90625 
Q 16.015625 30.71875 31.25 30.71875 
Q 33.296875 30.71875 37.796875 30.515625 
Q 37.796875 36.375 36.890625 38.984375 
Q 35.984375 41.609375 33.046875 43.171875 
Q 30.125 44.734375 25.34375 44.734375 
Q 13.671875 44.734375 11.765625 35.84375 
L 4.6875 37.0625 
Q 7.28125 50.6875 26.46875 50.6875 
Q 36.671875 50.6875 40.9375 46.171875 
Q 45.21875 41.65625 45.21875 30.515625 
L 45.21875 9.578125 
Q 45.21875 4.34375 46.296875 0 
z
M 37.796875 24.65625 
Q 33.109375 24.953125 30.671875 24.953125 
Q 21.578125 24.953125 16.546875 21.96875 
Q 11.53125 19 11.53125 13.28125 
Q 11.53125 9.671875 14.234375 7.125 
Q 16.9375 4.59375 22.078125 4.59375 
Q 29 4.59375 33.46875 9.625 
Q 37.9375 14.65625 37.9375 21.4375 
Q 37.9375 22.796875 37.796875 24.65625 
z
" id="FranklinGothic-Book-97"/>
       <path d="M 15.328125 0 
L 7.671875 0 
L 7.671875 49.3125 
L 14.40625 49.3125 
L 14.40625 37.796875 
Q 17.96875 45.953125 21.546875 48.359375 
Q 25.140625 50.78125 28.90625 50.78125 
Q 30.078125 50.78125 31.9375 50.59375 
L 31.9375 43.265625 
L 30.375 43.265625 
Q 24.03125 43.265625 19.828125 38.53125 
Q 15.625 33.796875 15.328125 26.078125 
z
" id="FranklinGothic-Book-114"/>
      </defs>
      <use xlink:href="#FranklinGothic-Book-89"/>
      <use x="45.025391" xlink:href="#FranklinGothic-Book-101"/>
      <use x="97.076172" xlink:href="#FranklinGothic-Book-97"/>
      <use x="149.957031" xlink:href="#FranklinGothic-Book-114"/>
     </g>
    </g>
   </g>
   <g id="matplotlib.axis_2">
    <g id="ytick_1">
     <g id="line2d_10">
      <path clip-path="url(#p9d5932247b)" d="M 144 561.6 
L 1036.8 561.6 
" style="fill:none;stroke:#d3d3d3;stroke-linecap:round;stroke-opacity:0.5;"/>
     </g>
     <g id="text_9">
      <!-- −2.0 -->
      <g style="fill:#696969;" transform="translate(88.287969 569.265469)scale(0.23 -0.23)">
       <defs>
        <path d="M 6 36.765625 
L 52.6875 36.765625 
L 52.6875 30.03125 
L 6 30.03125 
z
" id="FranklinGothic-Book-8722"/>
        <path d="M 17.96875 10.9375 
L 17.96875 0 
L 7.078125 0 
L 7.078125 10.9375 
z
" id="FranklinGothic-Book-46"/>
       </defs>
       <use xlink:href="#FranklinGothic-Book-8722"/>
       <use x="58.642578" xlink:href="#FranklinGothic-Book-50"/>
       <use x="117.285156" xlink:href="#FranklinGothic-Book-46"/>
       <use x="142.285156" xlink:href="#FranklinGothic-Book-48"/>
      </g>
     </g>
    </g>
    <g id="ytick_2">
     <g id="line2d_11">
      <path clip-path="url(#p9d5932247b)" d="M 144 486 
L 1036.8 486 
" style="fill:none;stroke:#d3d3d3;stroke-linecap:round;stroke-opacity:0.5;"/>
     </g>
     <g id="text_10">
      <!-- −1.5 -->
      <g style="fill:#696969;" transform="translate(88.431719 493.665469)scale(0.23 -0.23)">
       <defs>
        <path d="M 48.875 66.65625 
L 48.1875 59.46875 
L 15.4375 59.46875 
L 14.015625 37.84375 
Q 21.4375 45.125 30.328125 45.125 
Q 39.703125 45.125 46.515625 38.625 
Q 53.328125 32.125 53.328125 22.015625 
Q 53.328125 11.765625 45.921875 5.21875 
Q 38.53125 -1.3125 27.828125 -1.3125 
Q 19.4375 -1.3125 12.890625 3.078125 
Q 6.34375 7.46875 4.296875 14.453125 
L 11.421875 16.890625 
Q 15.828125 5.28125 27.9375 5.28125 
Q 35.890625 5.28125 40.578125 9.984375 
Q 45.265625 14.703125 45.265625 22.015625 
Q 45.265625 29.6875 40.625 33.984375 
Q 35.984375 38.28125 29.5 38.28125 
Q 20.015625 38.28125 13.8125 29.203125 
L 7.234375 30.609375 
L 9.375 66.65625 
z
" id="FranklinGothic-Book-53"/>
       </defs>
       <use xlink:href="#FranklinGothic-Book-8722"/>
       <use x="58.642578" xlink:href="#FranklinGothic-Book-49"/>
       <use x="116.660156" xlink:href="#FranklinGothic-Book-46"/>
       <use x="141.660156" xlink:href="#FranklinGothic-Book-53"/>
      </g>
     </g>
    </g>
    <g id="ytick_3">
     <g id="line2d_12">
      <path clip-path="url(#p9d5932247b)" d="M 144 410.4 
L 1036.8 410.4 
" style="fill:none;stroke:#d3d3d3;stroke-linecap:round;stroke-opacity:0.5;"/>
     </g>
     <g id="text_11">
      <!-- −1.0 -->
      <g style="fill:#696969;" transform="translate(88.431719 418.065469)scale(0.23 -0.23)">
       <use xlink:href="#FranklinGothic-Book-8722"/>
       <use x="58.642578" xlink:href="#FranklinGothic-Book-49"/>
       <use x="116.660156" xlink:href="#FranklinGothic-Book-46"/>
       <use x="141.660156" xlink:href="#FranklinGothic-Book-48"/>
      </g>
     </g>
    </g>
    <g id="ytick_4">
     <g id="line2d_13">
      <path clip-path="url(#p9d5932247b)" d="M 144 334.8 
L 1036.8 334.8 
" style="fill:none;stroke:#d3d3d3;stroke-linecap:round;stroke-opacity:0.5;"/>
     </g>
     <g id="text_12">
      <!-- −0.5 -->
      <g style="fill:#696969;" transform="translate(88.287969 342.465469)scale(0.23 -0.23)">
       <use xlink:href="#FranklinGothic-Book-8722"/>
       <use x="58.642578" xlink:href="#FranklinGothic-Book-48"/>
       <use x="117.285156" xlink:href="#FranklinGothic-Book-46"/>
       <use x="142.285156" xlink:href="#FranklinGothic-Book-53"/>
      </g>
     </g>
    </g>
    <g id="ytick_5">
     <g id="line2d_14">
      <path clip-path="url(#p9d5932247b)" d="M 144 259.2 
L 1036.8 259.2 
" style="fill:none;stroke:#d3d3d3;stroke-linecap:round;stroke-opacity:0.5;"/>
     </g>
     <g id="text_13">
      <!-- 0.0 -->
      <g style="fill:#696969;" transform="translate(101.775312 266.865469)scale(0.23 -0.23)">
       <use xlink:href="#FranklinGothic-Book-48"/>
       <use x="58.642578" xlink:href="#FranklinGothic-Book-46"/>
       <use x="83.642578" xlink:href="#FranklinGothic-Book-48"/>
      </g>
     </g>
    </g>
    <g id="ytick_6">
     <g id="line2d_15">
      <path clip-path="url(#p9d5932247b)" d="M 144 183.6 
L 1036.8 183.6 
" style="fill:none;stroke:#d3d3d3;stroke-linecap:round;stroke-opacity:0.5;"/>
     </g>
     <g id="text_14">
      <!-- 0.5 -->
      <g style="fill:#696969;" transform="translate(101.775312 191.265469)scale(0.23 -0.23)">
       <use xlink:href="#FranklinGothic-Book-48"/>
       <use x="58.642578" xlink:href="#FranklinGothic-Book-46"/>
       <use x="83.642578" xlink:href="#FranklinGothic-Book-53"/>
      </g>
     </g>
    </g>
    <g id="ytick_7">
     <g id="line2d_16">
      <path clip-path="url(#p9d5932247b)" d="M 144 108 
L 1036.8 108 
" style="fill:none;stroke:#d3d3d3;stroke-linecap:round;stroke-opacity:0.5;"/>
     </g>
     <g id="text_15">
      <!-- 1.0 -->
      <g style="fill:#696969;" transform="translate(101.919062 115.665469)scale(0.23 -0.23)">
       <use xlink:href="#FranklinGothic-Book-49"/>
       <use x="58.017578" xlink:href="#FranklinGothic-Book-46"/>
       <use x="83.017578" xlink:href="#FranklinGothic-Book-48"/>
      </g>
     </g>
    </g>
    <g id="text_16">
     <!-- $\!^\circ\!$C -->
     <g style="fill:#696969;" transform="translate(74.457031 338.855)rotate(-90)scale(0.23 -0.23)">
      <defs>
       <path d="M 31.296875 40.671875 
Q 27.390625 40.671875 24.703125 37.953125 
Q 22.015625 35.25 22.015625 31.34375 
Q 22.015625 27.484375 24.703125 24.828125 
Q 27.390625 22.171875 31.296875 22.171875 
Q 35.203125 22.171875 37.890625 24.828125 
Q 40.578125 27.484375 40.578125 31.34375 
Q 40.578125 35.203125 37.859375 37.9375 
Q 35.15625 40.671875 31.296875 40.671875 
z
M 31.296875 46.96875 
Q 34.421875 46.96875 37.296875 45.765625 
Q 40.1875 44.578125 42.28125 42.328125 
Q 44.53125 40.140625 45.65625 37.34375 
Q 46.78125 34.5625 46.78125 31.34375 
Q 46.78125 24.90625 42.265625 20.4375 
Q 37.75 15.96875 31.203125 15.96875 
Q 24.609375 15.96875 20.21875 20.359375 
Q 15.828125 24.75 15.828125 31.34375 
Q 15.828125 37.890625 20.3125 42.421875 
Q 24.8125 46.96875 31.296875 46.96875 
z
" id="DejaVuSans-8728"/>
       <path d="M 48.296875 22.40625 
L 55.90625 20.703125 
Q 50.4375 -1.3125 31.203125 -1.3125 
Q 18.5625 -1.3125 11.359375 8.890625 
Q 4.15625 19.09375 4.15625 33.984375 
Q 4.15625 49.359375 11.671875 58.6875 
Q 19.1875 68.015625 31.84375 68.015625 
Q 50.59375 68.015625 55.90625 46.578125 
L 48.046875 45.015625 
Q 43.75 60.9375 31.78125 60.9375 
Q 22.953125 60.9375 18.09375 53.53125 
Q 13.234375 46.140625 13.234375 32.765625 
Q 13.234375 20.515625 18.203125 13.109375 
Q 23.1875 5.71875 31.390625 5.71875 
Q 44.140625 5.71875 48.296875 22.40625 
z
" id="FranklinGothic-Book-67"/>
      </defs>
      <use transform="translate(-1.64095 39.121875)scale(0.7)" xlink:href="#DejaVuSans-8728"/>
      <use transform="translate(42.313804 0.840625)" xlink:href="#FranklinGothic-Book-67"/>
     </g>
    </g>
   </g>
   <g id="text_17">
    <!-- Compared to 1991-2020 average -->
    <g style="fill:#696969;" transform="translate(144 75.2652)scale(0.3 -0.3)">
     <defs>
      <path d="M 25.34375 -1.3125 
Q 15.1875 -1.3125 9.5 6.203125 
Q 3.8125 13.71875 3.8125 24.859375 
Q 3.8125 36.625 10.203125 43.65625 
Q 16.609375 50.6875 26.125 50.6875 
Q 36.328125 50.6875 42.203125 43.28125 
Q 48.09375 35.890625 48.09375 24.8125 
Q 48.09375 13.28125 41.75 5.984375 
Q 35.40625 -1.3125 25.34375 -1.3125 
z
M 25.921875 4.984375 
Q 31.78125 4.984375 35.734375 9.8125 
Q 39.703125 14.65625 39.703125 24.859375 
Q 39.703125 35.109375 35.546875 39.71875 
Q 31.390625 44.34375 25.828125 44.34375 
Q 20.125 44.34375 16.15625 39.671875 
Q 12.203125 35.015625 12.203125 24.90625 
Q 12.203125 14.203125 16.15625 9.59375 
Q 20.125 4.984375 25.921875 4.984375 
z
" id="FranklinGothic-Book-111"/>
      <path d="M 73.734375 0 
L 66.265625 0 
L 66.265625 30.671875 
Q 66.265625 35.40625 65.59375 37.765625 
Q 64.9375 40.140625 62.390625 42.109375 
Q 59.859375 44.09375 56.6875 44.09375 
Q 52.296875 44.09375 48.21875 40.0625 
Q 44.140625 36.03125 44.140625 27.78125 
L 44.140625 0 
L 36.71875 0 
L 36.71875 32.46875 
Q 36.71875 38.96875 33.609375 41.65625 
Q 30.515625 44.34375 27.09375 44.34375 
Q 22.21875 44.34375 18.59375 40.140625 
Q 14.984375 35.9375 14.984375 29.5 
L 14.984375 0 
L 7.671875 0 
L 7.671875 49.3125 
L 14.265625 49.3125 
L 14.265625 39.84375 
Q 19.78125 50.6875 29.4375 50.6875 
Q 34.765625 50.6875 38.46875 47.21875 
Q 42.1875 43.75 43.265625 38.875 
Q 48.34375 50.6875 58.84375 50.6875 
Q 63.875 50.6875 67.65625 47.796875 
Q 71.4375 44.921875 72.578125 41.1875 
Q 73.734375 37.453125 73.734375 30.671875 
z
" id="FranklinGothic-Book-109"/>
      <path d="M 15.328125 -16.65625 
L 7.671875 -16.65625 
L 7.671875 49.3125 
L 14.546875 49.3125 
L 14.546875 39.75 
Q 19.78125 50.6875 30.125 50.6875 
Q 38.875 50.6875 44.234375 43.375 
Q 49.609375 36.078125 49.609375 24.90625 
Q 49.609375 12.84375 44.09375 5.765625 
Q 38.578125 -1.3125 29.9375 -1.3125 
Q 20.65625 -1.3125 15.328125 7.515625 
z
M 15.328125 31.78125 
L 15.328125 17.921875 
Q 16.0625 12.3125 20.0625 8.640625 
Q 24.078125 4.984375 28.421875 4.984375 
Q 33.453125 4.984375 37.328125 9.375 
Q 41.21875 13.765625 41.21875 24.5625 
Q 41.21875 33.890625 37.703125 38.9375 
Q 34.1875 44 28.375 44 
Q 23.78125 44 20.140625 40.421875 
Q 16.5 36.859375 15.328125 31.78125 
z
" id="FranklinGothic-Book-112"/>
      <path d="M 46.1875 66.65625 
L 46.1875 0 
L 39.203125 0 
L 39.203125 8.453125 
Q 34.03125 -1.3125 23.640625 -1.3125 
Q 14.984375 -1.3125 9.421875 5.9375 
Q 3.859375 13.1875 3.859375 24.265625 
Q 3.859375 35.59375 9.375 43.140625 
Q 14.890625 50.6875 24.03125 50.6875 
Q 32.90625 50.6875 38.53125 42.578125 
L 38.53125 66.65625 
z
M 38.53125 30.28125 
Q 38.53125 36.765625 34.5625 40.671875 
Q 30.609375 44.578125 25.34375 44.578125 
Q 19.625 44.578125 15.9375 39.5 
Q 12.25 34.421875 12.25 25.25 
Q 12.25 15.328125 15.640625 10.15625 
Q 19.046875 4.984375 24.953125 4.984375 
Q 30.328125 4.984375 34.421875 9.46875 
Q 38.53125 13.96875 38.53125 20.015625 
z
" id="FranklinGothic-Book-100"/>
      <path id="FranklinGothic-Book-32"/>
      <path d="M 30.03125 5.28125 
L 30.03125 -0.78125 
Q 25.984375 -1.3125 23 -1.3125 
Q 8.6875 -1.3125 8.6875 13.625 
L 8.6875 43.3125 
L -0.046875 43.3125 
L -0.046875 49.3125 
L 8.6875 49.3125 
L 9.03125 61.71875 
L 16.15625 62.40625 
L 16.15625 49.3125 
L 27.203125 49.3125 
L 27.203125 43.3125 
L 16.15625 43.3125 
L 16.15625 12.359375 
Q 16.15625 4.734375 24.078125 4.734375 
Q 26.703125 4.734375 30.03125 5.28125 
z
" id="FranklinGothic-Book-116"/>
      <path d="M 23.53125 27.984375 
L 23.53125 22.015625 
L 1.46875 22.015625 
L 1.46875 27.984375 
z
" id="FranklinGothic-Book-45"/>
      <path d="M 43.796875 49.3125 
L 26.765625 0 
L 18.796875 0 
L 1.171875 49.3125 
L 9.671875 49.3125 
L 23.390625 9.234375 
L 36.96875 49.3125 
z
" id="FranklinGothic-Book-118"/>
      <path d="M 47.953125 57.03125 
L 47.953125 50.921875 
Q 42.671875 50.921875 40.890625 49.703125 
Q 39.109375 48.484375 38.53125 45.3125 
Q 43.265625 39.84375 43.265625 33.40625 
Q 43.265625 26.65625 38.109375 21.828125 
Q 32.953125 17 24.265625 17 
Q 22.3125 17 20.90625 17.28125 
Q 18.21875 17.828125 17.53125 17.828125 
Q 16.21875 17.828125 14.359375 16.53125 
Q 12.5 15.234375 12.5 13.1875 
Q 12.5 10.25 15.1875 9.375 
Q 17.875 8.5 27.828125 8.25 
Q 36.28125 8.015625 40.3125 7.109375 
Q 44.34375 6.203125 47.125 3.09375 
Q 49.90625 0 49.90625 -4.5 
Q 49.90625 -18.609375 25.09375 -18.609375 
Q 13.328125 -18.609375 7.9375 -15.0625 
Q 2.546875 -11.53125 2.546875 -5.609375 
Q 2.546875 1.5625 10.0625 4.25 
Q 5.21875 7.421875 5.21875 12.203125 
Q 5.21875 17.921875 12.0625 20.953125 
Q 5.671875 26.125 5.671875 33.984375 
Q 5.671875 41.3125 11.140625 46 
Q 16.609375 50.6875 24.46875 50.6875 
Q 30.03125 50.6875 34.578125 48.578125 
Q 35.296875 53.421875 37.953125 55.265625 
Q 40.625 57.125 46.046875 57.125 
Q 46.578125 57.125 47.953125 57.03125 
z
M 24.515625 22.859375 
Q 29.390625 22.859375 32.46875 25.859375 
Q 35.546875 28.859375 35.546875 33.640625 
Q 35.546875 38.53125 32.34375 41.625 
Q 29.15625 44.734375 24.609375 44.734375 
Q 20.265625 44.734375 16.890625 41.828125 
Q 13.53125 38.921875 13.53125 33.546875 
Q 13.53125 28.765625 16.546875 25.8125 
Q 19.578125 22.859375 24.515625 22.859375 
z
M 15.328125 2 
Q 9.96875 -0.34375 9.96875 -4.78125 
Q 9.96875 -8.546875 14.375 -10.625 
Q 18.796875 -12.703125 25.640625 -12.703125 
Q 31.984375 -12.703125 37.25 -10.90625 
Q 42.53125 -9.125 42.53125 -4.890625 
Q 42.53125 -2.59375 40.96875 -1.125 
Q 39.40625 0.34375 36.6875 0.734375 
Q 33.984375 1.125 27.25 1.3125 
Q 19.1875 1.515625 15.328125 2 
z
" id="FranklinGothic-Book-103"/>
     </defs>
     <use xlink:href="#FranklinGothic-Book-67"/>
     <use x="57.910156" xlink:href="#FranklinGothic-Book-111"/>
     <use x="109.863281" xlink:href="#FranklinGothic-Book-109"/>
     <use x="190.384766" xlink:href="#FranklinGothic-Book-112"/>
     <use x="243.802734" xlink:href="#FranklinGothic-Book-97"/>
     <use x="296.683594" xlink:href="#FranklinGothic-Book-114"/>
     <use x="329.642578" xlink:href="#FranklinGothic-Book-101"/>
     <use x="381.693359" xlink:href="#FranklinGothic-Book-100"/>
     <use x="435.550781" xlink:href="#FranklinGothic-Book-32"/>
     <use x="460.550781" xlink:href="#FranklinGothic-Book-116"/>
     <use x="489.8125" xlink:href="#FranklinGothic-Book-111"/>
     <use x="541.765625" xlink:href="#FranklinGothic-Book-32"/>
     <use x="566.765625" xlink:href="#FranklinGothic-Book-49"/>
     <use x="624.033203" xlink:href="#FranklinGothic-Book-57"/>
     <use x="682.675781" xlink:href="#FranklinGothic-Book-57"/>
     <use x="737.193359" xlink:href="#FranklinGothic-Book-49"/>
     <use x="795.835938" xlink:href="#FranklinGothic-Book-45"/>
     <use x="820.835938" xlink:href="#FranklinGothic-Book-50"/>
     <use x="879.478516" xlink:href="#FranklinGothic-Book-48"/>
     <use x="938.121094" xlink:href="#FranklinGothic-Book-50"/>
     <use x="996.763672" xlink:href="#FranklinGothic-Book-48"/>
     <use x="1055.40625" xlink:href="#FranklinGothic-Book-32"/>
     <use x="1080.40625" xlink:href="#FranklinGothic-Book-97"/>
     <use x="1131.037109" xlink:href="#FranklinGothic-Book-118"/>
     <use x="1174.556641" xlink:href="#FranklinGothic-Book-101"/>
     <use x="1226.607422" xlink:href="#FranklinGothic-Book-114"/>
     <use x="1259.566406" xlink:href="#FranklinGothic-Book-97"/>
     <use x="1312.447266" xlink:href="#FranklinGothic-Book-103"/>
     <use x="1361.568359" xlink:href="#FranklinGothic-Book-101"/>
    </g>
   </g>
   <g id="text_18">
    <!-- Mexico -->
    <g style="fill:#696969;" transform="translate(144 42.76)scale(0.4 -0.4)">
     <defs>
      <path d="M 72.703125 0 
L 64.59375 0 
L 64.59375 58.203125 
L 42.921875 0 
L 37.25 0 
L 15.4375 58.203125 
L 15.4375 0 
L 8.34375 0 
L 8.34375 66.65625 
L 20.75 66.65625 
L 40.828125 13.328125 
L 60.5 66.65625 
L 72.703125 66.65625 
z
" id="FranklinGothic-Book-77"/>
      <path d="M 42.046875 0 
L 33.203125 0 
L 20.65625 20.015625 
L 7.8125 0 
L 0.34375 0 
L 16.9375 25.59375 
L 1.953125 49.3125 
L 10.796875 49.3125 
L 21.34375 32.46875 
L 32.078125 49.3125 
L 39.453125 49.3125 
L 25.09375 27.25 
z
" id="FranklinGothic-Book-120"/>
      <path d="M 15.578125 66.65625 
L 15.578125 58.15625 
L 7.328125 58.15625 
L 7.328125 66.65625 
z
M 15.328125 49.3125 
L 15.328125 0 
L 7.671875 0 
L 7.671875 49.3125 
z
" id="FranklinGothic-Book-105"/>
      <path d="M 36.8125 17.28125 
L 43.75 16.0625 
Q 42.28125 7.90625 37.25 3.296875 
Q 32.234375 -1.3125 24.703125 -1.3125 
Q 14.5 -1.3125 9.15625 6.203125 
Q 3.8125 13.71875 3.8125 24.5625 
Q 3.8125 35.796875 9.453125 43.234375 
Q 15.09375 50.6875 24.8125 50.6875 
Q 32.859375 50.6875 37.71875 45.875 
Q 42.578125 41.0625 43.75 33.453125 
L 36.8125 32.125 
Q 34.859375 44.34375 25 44.34375 
Q 18.65625 44.34375 15.234375 38.9375 
Q 11.8125 33.546875 11.8125 24.953125 
Q 11.8125 15.484375 15.203125 10.234375 
Q 18.609375 4.984375 24.75 4.984375 
Q 34.28125 4.984375 36.8125 17.28125 
z
" id="FranklinGothic-Book-99"/>
     </defs>
     <use xlink:href="#FranklinGothic-Book-77"/>
     <use x="81.005859" xlink:href="#FranklinGothic-Book-101"/>
     <use x="131.306641" xlink:href="#FranklinGothic-Book-120"/>
     <use x="173.689453" xlink:href="#FranklinGothic-Book-105"/>
     <use x="196.638672" xlink:href="#FranklinGothic-Book-99"/>
     <use x="243.220703" xlink:href="#FranklinGothic-Book-111"/>
    </g>
   </g>
   <g id="legend_1">
    <g id="line2d_17"/>
    <g id="text_19">
     <!-- HadCRUT5 (1900-2023) -->
     <g style="fill:#696969;" transform="translate(185.856 129.7184)scale(0.2 -0.2)">
      <defs>
       <path d="M 55.953125 0 
L 47.609375 0 
L 47.609375 31.734375 
L 16.703125 31.734375 
L 16.703125 0 
L 8.34375 0 
L 8.34375 66.65625 
L 16.703125 66.65625 
L 16.703125 39.0625 
L 47.609375 39.0625 
L 47.609375 66.65625 
L 55.953125 66.65625 
z
" id="FranklinGothic-Book-72"/>
       <path d="M 56.296875 0 
L 47.5625 0 
L 35.25 28.859375 
L 16.15625 28.859375 
L 16.15625 0 
L 8.34375 0 
L 8.34375 66.65625 
L 34.625 66.65625 
Q 45.3125 66.65625 50.453125 60.8125 
Q 55.609375 54.984375 55.609375 48.046875 
Q 55.609375 42.71875 52.734375 37.828125 
Q 49.859375 32.953125 43.21875 30.859375 
z
M 16.15625 35.640625 
L 33.59375 35.640625 
Q 40.484375 35.640625 43.875 39.28125 
Q 47.265625 42.921875 47.265625 48.1875 
Q 47.265625 53.46875 43.671875 56.390625 
Q 40.09375 59.328125 34.625 59.328125 
L 16.15625 59.328125 
z
" id="FranklinGothic-Book-82"/>
       <path d="M 46.34375 66.65625 
L 53.265625 66.65625 
L 53.265625 23.140625 
Q 53.265625 10.0625 46.84375 4.375 
Q 40.4375 -1.3125 30.03125 -1.3125 
Q 18.453125 -1.3125 12.890625 4.546875 
Q 7.328125 10.40625 7.328125 23.140625 
L 7.328125 66.65625 
L 15.671875 66.65625 
L 15.671875 23.140625 
Q 15.671875 15.375 17.46875 12.203125 
Q 19.28125 9.03125 22.9375 7.515625 
Q 26.609375 6 30.609375 6 
Q 38.328125 6 42.328125 10.046875 
Q 46.34375 14.109375 46.34375 23.140625 
z
" id="FranklinGothic-Book-85"/>
       <path d="M 28.421875 0 
L 20.125 0 
L 20.125 59.328125 
L 1.03125 59.328125 
L 1.03125 66.65625 
L 47.5625 66.65625 
L 47.5625 59.328125 
L 28.421875 59.328125 
z
" id="FranklinGothic-Book-84"/>
       <path d="M 24.703125 -16.65625 
L 19.578125 -16.65625 
Q 5.21875 2.203125 5.21875 25.09375 
Q 5.21875 46.96875 19.578125 66.65625 
L 24.703125 66.65625 
Q 12.359375 48.25 12.359375 25 
Q 12.359375 2.828125 24.703125 -16.65625 
z
" id="FranklinGothic-Book-40"/>
       <path d="M 19.34375 31.34375 
L 19.34375 37.984375 
L 26.953125 37.984375 
Q 35.296875 37.984375 38.890625 41.40625 
Q 42.484375 44.828125 42.484375 49.703125 
Q 42.484375 55.078125 38.46875 58.21875 
Q 34.46875 61.375 28.421875 61.375 
Q 17.1875 61.375 12.890625 50.53125 
L 5.375 52.6875 
Q 11.8125 68.015625 29.203125 68.015625 
Q 38.96875 68.015625 44.96875 62.8125 
Q 50.984375 57.625 50.984375 50.296875 
Q 50.984375 44.625 47.359375 40.40625 
Q 43.75 36.1875 38.09375 35.109375 
Q 44.4375 34.1875 49 29.78125 
Q 53.5625 25.390625 53.5625 18.40625 
Q 53.5625 10.0625 46.765625 4.375 
Q 39.984375 -1.3125 28.171875 -1.3125 
Q 18.796875 -1.3125 12.125 3.125 
Q 5.46875 7.5625 2.9375 14.9375 
L 10.6875 17.53125 
Q 14.203125 5.46875 28.03125 5.46875 
Q 37.015625 5.46875 40.9375 9.296875 
Q 44.875 13.140625 44.875 18.453125 
Q 44.875 24.21875 40.15625 27.78125 
Q 35.453125 31.34375 26.953125 31.34375 
z
" id="FranklinGothic-Book-51"/>
       <path d="M 4.640625 66.65625 
L 9.71875 66.65625 
Q 24.125 47.796875 24.125 24.90625 
Q 24.125 3.03125 9.71875 -16.65625 
L 4.640625 -16.65625 
Q 17 1.765625 17 25 
Q 17 47.171875 4.640625 66.65625 
z
" id="FranklinGothic-Book-41"/>
      </defs>
      <use xlink:href="#FranklinGothic-Book-72"/>
      <use x="64.257812" xlink:href="#FranklinGothic-Book-97"/>
      <use x="117.138672" xlink:href="#FranklinGothic-Book-100"/>
      <use x="170.996094" xlink:href="#FranklinGothic-Book-67"/>
      <use x="228.90625" xlink:href="#FranklinGothic-Book-82"/>
      <use x="289.310547" xlink:href="#FranklinGothic-Book-85"/>
      <use x="349.90625" xlink:href="#FranklinGothic-Book-84"/>
      <use x="398.441406" xlink:href="#FranklinGothic-Book-53"/>
      <use x="457.083984" xlink:href="#FranklinGothic-Book-32"/>
      <use x="482.083984" xlink:href="#FranklinGothic-Book-40"/>
      <use x="511.429688" xlink:href="#FranklinGothic-Book-49"/>
      <use x="568.697266" xlink:href="#FranklinGothic-Book-57"/>
      <use x="627.339844" xlink:href="#FranklinGothic-Book-48"/>
      <use x="685.982422" xlink:href="#FranklinGothic-Book-48"/>
      <use x="744.625" xlink:href="#FranklinGothic-Book-45"/>
      <use x="769.625" xlink:href="#FranklinGothic-Book-50"/>
      <use x="828.267578" xlink:href="#FranklinGothic-Book-48"/>
      <use x="886.910156" xlink:href="#FranklinGothic-Book-50"/>
      <use x="945.552734" xlink:href="#FranklinGothic-Book-51"/>
      <use x="1004.195312" xlink:href="#FranklinGothic-Book-41"/>
     </g>
    </g>
    <g id="line2d_18"/>
    <g id="text_20">
     <!-- NOAAGlobalTemp (1900-2023) -->
     <g style="fill:#e69f00;" transform="translate(185.856 157.04965)scale(0.2 -0.2)">
      <defs>
       <path d="M 57.421875 0 
L 49.3125 0 
L 14.84375 58.109375 
L 14.9375 53.71875 
Q 15.09375 51.21875 15.09375 49.515625 
L 15.09375 0 
L 8.34375 0 
L 8.34375 66.65625 
L 18.796875 66.65625 
L 51.03125 12.3125 
L 50.921875 16.9375 
Q 50.828125 19.671875 50.828125 21.78125 
L 50.828125 66.65625 
L 57.421875 66.65625 
z
" id="FranklinGothic-Book-78"/>
       <path d="M 31.34375 -1.3125 
Q 18.5 -1.3125 11.328125 8.671875 
Q 4.15625 18.65625 4.15625 33.15625 
Q 4.15625 48.296875 11.671875 58.15625 
Q 19.1875 68.015625 31.59375 68.015625 
Q 43.953125 68.015625 51.421875 58.328125 
Q 58.890625 48.640625 58.890625 33.890625 
Q 58.890625 19.734375 51.640625 9.203125 
Q 44.390625 -1.3125 31.34375 -1.3125 
z
M 31.546875 5.46875 
Q 40.28125 5.46875 45.203125 13.421875 
Q 50.140625 21.390625 50.140625 33.9375 
Q 50.140625 46.828125 45.03125 54 
Q 39.9375 61.1875 31.5 61.1875 
Q 22.953125 61.1875 17.921875 53.421875 
Q 12.890625 45.65625 12.890625 33.109375 
Q 12.890625 20.84375 17.96875 13.15625 
Q 23.046875 5.46875 31.546875 5.46875 
z
" id="FranklinGothic-Book-79"/>
       <path d="M 53.21875 0 
L 44.671875 0 
L 37.9375 19.484375 
L 13.28125 19.484375 
L 7.328125 0 
L 0.34375 0 
L 21.96875 66.65625 
L 31.5 66.65625 
z
M 36.1875 25.734375 
L 25.921875 57.765625 
L 15.578125 25.734375 
z
" id="FranklinGothic-Book-65"/>
       <path d="M 57.71875 33.59375 
L 57.71875 -0.875 
L 52.59375 -0.875 
L 50.296875 7.46875 
Q 44.140625 -1.3125 31.984375 -1.3125 
Q 18.796875 -1.3125 11.46875 8.59375 
Q 4.15625 18.5 4.15625 32.671875 
Q 4.15625 47.796875 11.90625 57.90625 
Q 19.671875 68.015625 33.015625 68.015625 
Q 51.421875 68.015625 57.03125 48.6875 
L 49.125 46.78125 
Q 47.40625 54.203125 42.71875 57.5625 
Q 38.03125 60.9375 32.46875 60.9375 
Q 22.609375 60.9375 17.921875 52.96875 
Q 13.234375 45.015625 13.234375 33.015625 
Q 13.234375 20.0625 18.484375 12.765625 
Q 23.734375 5.46875 32.765625 5.46875 
Q 39.796875 5.46875 44.5 10.125 
Q 49.21875 14.796875 49.21875 23 
Q 49.21875 24.515625 49.125 26.609375 
L 32.625 26.609375 
L 32.625 33.59375 
z
" id="FranklinGothic-Book-71"/>
       <path d="M 15.328125 0 
L 7.671875 0 
L 7.671875 66.65625 
L 15.328125 66.65625 
z
" id="FranklinGothic-Book-108"/>
       <path d="M 11.375 0 
L 7.671875 0 
L 7.671875 66.65625 
L 15.328125 66.65625 
L 15.328125 41.109375 
Q 20.609375 50.6875 29.890625 50.6875 
Q 38.375 50.6875 44.109375 44 
Q 49.859375 37.3125 49.859375 24.5625 
Q 49.859375 13.578125 44.21875 6.125 
Q 38.578125 -1.3125 29.546875 -1.3125 
Q 19.484375 -1.3125 14.109375 8.15625 
z
M 15.328125 19.34375 
Q 15.875 11.765625 20 8.34375 
Q 24.125 4.9375 28.71875 4.9375 
Q 34.578125 4.9375 38.15625 10.015625 
Q 41.75 15.09375 41.75 23.921875 
Q 41.75 33.453125 38.28125 38.890625 
Q 34.8125 44.34375 28.65625 44.34375 
Q 23.828125 44.34375 19.9375 40.453125 
Q 16.0625 36.578125 15.328125 30.421875 
z
" id="FranklinGothic-Book-98"/>
      </defs>
      <use xlink:href="#FranklinGothic-Book-78"/>
      <use x="65.722656" xlink:href="#FranklinGothic-Book-79"/>
      <use x="127.058594" xlink:href="#FranklinGothic-Book-65"/>
      <use x="180.623047" xlink:href="#FranklinGothic-Book-65"/>
      <use x="231.5625" xlink:href="#FranklinGothic-Book-71"/>
      <use x="296.259766" xlink:href="#FranklinGothic-Book-108"/>
      <use x="319.257812" xlink:href="#FranklinGothic-Book-111"/>
      <use x="371.210938" xlink:href="#FranklinGothic-Book-98"/>
      <use x="424.921875" xlink:href="#FranklinGothic-Book-97"/>
      <use x="477.802734" xlink:href="#FranklinGothic-Book-108"/>
      <use x="500.800781" xlink:href="#FranklinGothic-Book-84"/>
      <use x="542.835938" xlink:href="#FranklinGothic-Book-101"/>
      <use x="594.886719" xlink:href="#FranklinGothic-Book-109"/>
      <use x="675.408203" xlink:href="#FranklinGothic-Book-112"/>
      <use x="728.826172" xlink:href="#FranklinGothic-Book-32"/>
      <use x="753.826172" xlink:href="#FranklinGothic-Book-40"/>
      <use x="783.171875" xlink:href="#FranklinGothic-Book-49"/>
      <use x="840.439453" xlink:href="#FranklinGothic-Book-57"/>
      <use x="899.082031" xlink:href="#FranklinGothic-Book-48"/>
      <use x="957.724609" xlink:href="#FranklinGothic-Book-48"/>
      <use x="1016.367188" xlink:href="#FranklinGothic-Book-45"/>
      <use x="1041.367188" xlink:href="#FranklinGothic-Book-50"/>
      <use x="1100.009766" xlink:href="#FranklinGothic-Book-48"/>
      <use x="1158.652344" xlink:href="#FranklinGothic-Book-50"/>
      <use x="1217.294922" xlink:href="#FranklinGothic-Book-51"/>
      <use x="1275.9375" xlink:href="#FranklinGothic-Book-41"/>
     </g>
    </g>
    <g id="line2d_19"/>
    <g id="text_21">
     <!-- Kadow et al. (1900-2023) -->
     <g style="fill:#cc79a7;" transform="translate(185.856 184.3809)scale(0.2 -0.2)">
      <defs>
       <path d="M 61.03125 0 
L 51.90625 0 
L 31.984375 36.765625 
L 16.703125 17.78125 
L 16.703125 0 
L 8.34375 0 
L 8.34375 66.65625 
L 16.703125 66.65625 
L 16.703125 27.984375 
L 46.828125 66.65625 
L 55.859375 66.65625 
L 37.796875 43.3125 
z
" id="FranklinGothic-Book-75"/>
       <path d="M 64.5 49.3125 
L 50.296875 0 
L 44.09375 0 
L 33.0625 36.625 
L 22.953125 0 
L 16.65625 0 
L 1.859375 49.3125 
L 9.578125 49.3125 
L 20.265625 12.546875 
L 30.515625 49.3125 
L 36.140625 49.3125 
L 47.21875 12.40625 
L 58.296875 49.3125 
z
" id="FranklinGothic-Book-119"/>
      </defs>
      <use xlink:href="#FranklinGothic-Book-75"/>
      <use x="62.216797" xlink:href="#FranklinGothic-Book-97"/>
      <use x="115.097656" xlink:href="#FranklinGothic-Book-100"/>
      <use x="168.955078" xlink:href="#FranklinGothic-Book-111"/>
      <use x="219.533203" xlink:href="#FranklinGothic-Book-119"/>
      <use x="285.939453" xlink:href="#FranklinGothic-Book-32"/>
      <use x="310.939453" xlink:href="#FranklinGothic-Book-101"/>
      <use x="362.490234" xlink:href="#FranklinGothic-Book-116"/>
      <use x="393.251953" xlink:href="#FranklinGothic-Book-32"/>
      <use x="418.251953" xlink:href="#FranklinGothic-Book-97"/>
      <use x="471.132812" xlink:href="#FranklinGothic-Book-108"/>
      <use x="494.130859" xlink:href="#FranklinGothic-Book-46"/>
      <use x="519.130859" xlink:href="#FranklinGothic-Book-32"/>
      <use x="544.130859" xlink:href="#FranklinGothic-Book-40"/>
      <use x="573.476562" xlink:href="#FranklinGothic-Book-49"/>
      <use x="630.744141" xlink:href="#FranklinGothic-Book-57"/>
      <use x="689.386719" xlink:href="#FranklinGothic-Book-48"/>
      <use x="748.029297" xlink:href="#FranklinGothic-Book-48"/>
      <use x="806.671875" xlink:href="#FranklinGothic-Book-45"/>
      <use x="831.671875" xlink:href="#FranklinGothic-Book-50"/>
      <use x="890.314453" xlink:href="#FranklinGothic-Book-48"/>
      <use x="948.957031" xlink:href="#FranklinGothic-Book-50"/>
      <use x="1007.599609" xlink:href="#FranklinGothic-Book-51"/>
      <use x="1066.242188" xlink:href="#FranklinGothic-Book-41"/>
     </g>
    </g>
    <g id="line2d_20"/>
    <g id="text_22">
     <!-- GISTEMP (1900-2023) -->
     <g style="fill:#56b4e9;" transform="translate(185.856 211.71215)scale(0.2 -0.2)">
      <defs>
       <path d="M 16.703125 0 
L 8.34375 0 
L 8.34375 66.65625 
L 16.703125 66.65625 
z
" id="FranklinGothic-Book-73"/>
       <path d="M 1.03125 17.71875 
L 8.546875 19.4375 
Q 13.09375 5.8125 28.21875 5.8125 
Q 36.140625 5.8125 40.140625 9.15625 
Q 44.140625 12.5 44.140625 18.109375 
Q 44.140625 22.359375 41.078125 24.953125 
Q 38.03125 27.546875 34.03125 28.515625 
L 20.703125 31.84375 
Q 15.53125 33.15625 12.234375 35.03125 
Q 8.9375 36.921875 6.640625 40.828125 
Q 4.34375 44.734375 4.34375 49.75 
Q 4.34375 58.109375 10.640625 63.0625 
Q 16.9375 68.015625 26.8125 68.015625 
Q 44.96875 68.015625 50.6875 51.5625 
L 43.109375 49.3125 
Q 41.796875 55.171875 36.90625 58.171875 
Q 32.03125 61.1875 26.515625 61.1875 
Q 21.046875 61.1875 16.765625 58.296875 
Q 12.5 55.421875 12.5 50.140625 
Q 12.5 42.78125 23.34375 40.1875 
L 35.796875 37.203125 
Q 52.875 33.109375 52.875 18.796875 
Q 52.875 10.15625 46.453125 4.421875 
Q 40.046875 -1.3125 28.375 -1.3125 
Q 7.671875 -1.3125 1.03125 17.71875 
z
" id="FranklinGothic-Book-83"/>
       <path d="M 51.46875 7.328125 
L 51.46875 0 
L 8.34375 0 
L 8.34375 66.65625 
L 50.53125 66.65625 
L 50.53125 59.328125 
L 16.703125 59.328125 
L 16.703125 38.140625 
L 43.5625 38.140625 
L 43.5625 31.34375 
L 16.703125 31.34375 
L 16.703125 7.328125 
z
" id="FranklinGothic-Book-69"/>
       <path d="M 16.703125 0 
L 8.34375 0 
L 8.34375 66.65625 
L 31.984375 66.65625 
Q 43.0625 66.65625 48.328125 60.625 
Q 53.609375 54.59375 53.609375 46.875 
Q 53.609375 38.28125 47.875 32.65625 
Q 42.140625 27.046875 32.859375 27.046875 
L 16.703125 27.046875 
z
M 16.703125 33.984375 
L 32.03125 33.984375 
Q 37.9375 33.984375 41.546875 37.515625 
Q 45.171875 41.0625 45.171875 46.875 
Q 45.171875 51.859375 41.9375 55.765625 
Q 38.71875 59.671875 32.625 59.671875 
L 16.703125 59.671875 
z
" id="FranklinGothic-Book-80"/>
      </defs>
      <use xlink:href="#FranklinGothic-Book-71"/>
      <use x="64.697266" xlink:href="#FranklinGothic-Book-73"/>
      <use x="89.697266" xlink:href="#FranklinGothic-Book-83"/>
      <use x="144.630859" xlink:href="#FranklinGothic-Book-84"/>
      <use x="193.166016" xlink:href="#FranklinGothic-Book-69"/>
      <use x="247.951172" xlink:href="#FranklinGothic-Book-77"/>
      <use x="328.957031" xlink:href="#FranklinGothic-Book-80"/>
      <use x="384.865234" xlink:href="#FranklinGothic-Book-32"/>
      <use x="409.865234" xlink:href="#FranklinGothic-Book-40"/>
      <use x="439.210938" xlink:href="#FranklinGothic-Book-49"/>
      <use x="496.478516" xlink:href="#FranklinGothic-Book-57"/>
      <use x="555.121094" xlink:href="#FranklinGothic-Book-48"/>
      <use x="613.763672" xlink:href="#FranklinGothic-Book-48"/>
      <use x="672.40625" xlink:href="#FranklinGothic-Book-45"/>
      <use x="697.40625" xlink:href="#FranklinGothic-Book-50"/>
      <use x="756.048828" xlink:href="#FranklinGothic-Book-48"/>
      <use x="814.691406" xlink:href="#FranklinGothic-Book-50"/>
      <use x="873.333984" xlink:href="#FranklinGothic-Book-51"/>
      <use x="931.976562" xlink:href="#FranklinGothic-Book-41"/>
     </g>
    </g>
    <g id="line2d_21"/>
    <g id="text_23">
     <!-- Berkeley Earth (1900-2023) -->
     <g style="fill:#009e73;" transform="translate(185.856 239.0434)scale(0.2 -0.2)">
      <defs>
       <path d="M 8.34375 0 
L 8.34375 66.65625 
L 34.71875 66.65625 
Q 44.671875 66.65625 49.484375 61.765625 
Q 54.296875 56.890625 54.296875 50.4375 
Q 54.296875 39.109375 42.484375 35.40625 
Q 49.515625 33.59375 52.921875 28.953125 
Q 56.34375 24.3125 56.34375 18.453125 
Q 56.34375 10.59375 51.046875 5.296875 
Q 45.75 0 34.71875 0 
z
M 16.40625 38.09375 
L 30.90625 38.09375 
Q 39.9375 38.09375 42.96875 41.53125 
Q 46 44.96875 46 49.609375 
Q 46 54.203125 42.75 57.03125 
Q 39.5 59.859375 33.0625 59.859375 
L 16.40625 59.859375 
z
M 16.40625 7.328125 
L 34.28125 7.328125 
Q 40.828125 7.328125 44.390625 10.5 
Q 47.953125 13.671875 47.953125 18.75 
Q 47.953125 22.3125 46.34375 25.359375 
Q 44.734375 28.421875 41.796875 30.078125 
Q 38.875 31.734375 33.0625 31.734375 
L 16.40625 31.734375 
z
" id="FranklinGothic-Book-66"/>
       <path d="M 48.390625 0 
L 40.4375 0 
L 26.03125 27.546875 
L 15.328125 15.234375 
L 15.328125 0 
L 7.671875 0 
L 7.671875 66.65625 
L 15.328125 66.65625 
L 15.328125 23.96875 
L 38.234375 49.3125 
L 46.4375 49.3125 
L 31 31.984375 
z
" id="FranklinGothic-Book-107"/>
       <path d="M 41.5 49.3125 
L 21.734375 -5.765625 
Q 17.4375 -17.671875 8.015625 -17.671875 
Q 5.03125 -17.671875 1.421875 -16.65625 
L 1.421875 -10.640625 
Q 4.390625 -11.328125 6.546875 -11.328125 
Q 10.203125 -11.328125 12.671875 -9.21875 
Q 15.140625 -7.125 17.578125 0.921875 
L 0.53125 49.3125 
L 8.34375 49.3125 
L 21.53125 12.25 
L 35.0625 49.3125 
z
" id="FranklinGothic-Book-121"/>
       <path d="M 46.34375 0 
L 38.671875 0 
L 38.671875 29.9375 
Q 38.671875 35.203125 38.015625 37.84375 
Q 37.359375 40.484375 34.890625 42.40625 
Q 32.421875 44.34375 29.203125 44.34375 
Q 23.296875 44.34375 19.3125 39.5 
Q 15.328125 34.671875 15.328125 26.5625 
L 15.328125 0 
L 7.671875 0 
L 7.671875 66.65625 
L 15.328125 66.65625 
L 15.328125 40.234375 
Q 20.5625 50.6875 30.28125 50.6875 
Q 34.625 50.6875 38.015625 48.96875 
Q 41.40625 47.265625 43.203125 44.484375 
Q 45.015625 41.703125 45.671875 38.984375 
Q 46.34375 36.28125 46.34375 29.9375 
z
" id="FranklinGothic-Book-104"/>
      </defs>
      <use xlink:href="#FranklinGothic-Book-66"/>
      <use x="60.449219" xlink:href="#FranklinGothic-Book-101"/>
      <use x="112.5" xlink:href="#FranklinGothic-Book-114"/>
      <use x="144.958984" xlink:href="#FranklinGothic-Book-107"/>
      <use x="192.806641" xlink:href="#FranklinGothic-Book-101"/>
      <use x="244.857422" xlink:href="#FranklinGothic-Book-108"/>
      <use x="267.855469" xlink:href="#FranklinGothic-Book-101"/>
      <use x="318.28125" xlink:href="#FranklinGothic-Book-121"/>
      <use x="359.785156" xlink:href="#FranklinGothic-Book-32"/>
      <use x="384.785156" xlink:href="#FranklinGothic-Book-69"/>
      <use x="439.570312" xlink:href="#FranklinGothic-Book-97"/>
      <use x="492.451172" xlink:href="#FranklinGothic-Book-114"/>
      <use x="528.785156" xlink:href="#FranklinGothic-Book-116"/>
      <use x="559.546875" xlink:href="#FranklinGothic-Book-104"/>
      <use x="613.550781" xlink:href="#FranklinGothic-Book-32"/>
      <use x="638.550781" xlink:href="#FranklinGothic-Book-40"/>
      <use x="667.896484" xlink:href="#FranklinGothic-Book-49"/>
      <use x="725.164062" xlink:href="#FranklinGothic-Book-57"/>
      <use x="783.806641" xlink:href="#FranklinGothic-Book-48"/>
      <use x="842.449219" xlink:href="#FranklinGothic-Book-48"/>
      <use x="901.091797" xlink:href="#FranklinGothic-Book-45"/>
      <use x="926.091797" xlink:href="#FranklinGothic-Book-50"/>
      <use x="984.734375" xlink:href="#FranklinGothic-Book-48"/>
      <use x="1043.376953" xlink:href="#FranklinGothic-Book-50"/>
      <use x="1102.019531" xlink:href="#FranklinGothic-Book-51"/>
      <use x="1160.662109" xlink:href="#FranklinGothic-Book-41"/>
     </g>
    </g>
    <g id="line2d_22"/>
    <g id="text_24">
     <!-- JRA-55 (1958-2023) -->
     <g style="fill:#d55e00;" transform="translate(185.856 266.577775)scale(0.2 -0.2)">
      <defs>
       <path d="M 29.6875 66.65625 
L 29.6875 20.359375 
Q 29.6875 8.25 24.21875 3.46875 
Q 18.75 -1.3125 9.71875 -1.3125 
Q 4.890625 -1.3125 0 0 
L 0 6.84375 
Q 4.78125 5.859375 8.6875 5.859375 
Q 14.265625 5.859375 16.890625 7.515625 
Q 19.53125 9.1875 20.4375 11.8125 
Q 21.34375 14.453125 21.34375 20.359375 
L 21.34375 66.65625 
z
" id="FranklinGothic-Book-74"/>
      </defs>
      <use xlink:href="#FranklinGothic-Book-74"/>
      <use x="37.353516" xlink:href="#FranklinGothic-Book-82"/>
      <use x="98.632812" xlink:href="#FranklinGothic-Book-65"/>
      <use x="153.947266" xlink:href="#FranklinGothic-Book-45"/>
      <use x="178.947266" xlink:href="#FranklinGothic-Book-53"/>
      <use x="237.589844" xlink:href="#FranklinGothic-Book-53"/>
      <use x="296.232422" xlink:href="#FranklinGothic-Book-32"/>
      <use x="321.232422" xlink:href="#FranklinGothic-Book-40"/>
      <use x="350.578125" xlink:href="#FranklinGothic-Book-49"/>
      <use x="407.845703" xlink:href="#FranklinGothic-Book-57"/>
      <use x="466.488281" xlink:href="#FranklinGothic-Book-53"/>
      <use x="525.130859" xlink:href="#FranklinGothic-Book-56"/>
      <use x="583.773438" xlink:href="#FranklinGothic-Book-45"/>
      <use x="608.773438" xlink:href="#FranklinGothic-Book-50"/>
      <use x="667.416016" xlink:href="#FranklinGothic-Book-48"/>
      <use x="726.058594" xlink:href="#FranklinGothic-Book-50"/>
      <use x="784.701172" xlink:href="#FranklinGothic-Book-51"/>
      <use x="843.34375" xlink:href="#FranklinGothic-Book-41"/>
     </g>
    </g>
    <g id="line2d_23"/>
    <g id="text_25">
     <!-- ERA5 (1979-2023) -->
     <g style="fill:#0072b2;" transform="translate(185.856 293.909025)scale(0.2 -0.2)">
      <defs>
       <path d="M 28.078125 0 
L 19.484375 0 
Q 19.484375 16.75 26.3125 32.59375 
Q 33.15625 48.4375 43.0625 59.328125 
L 6.890625 59.328125 
L 7.71875 66.65625 
L 51.765625 66.65625 
L 51.765625 61.671875 
Q 39.84375 47.3125 33.9375 31.78125 
Q 28.03125 16.265625 28.03125 2.296875 
Q 28.03125 1.515625 28.078125 0 
z
" id="FranklinGothic-Book-55"/>
      </defs>
      <use xlink:href="#FranklinGothic-Book-69"/>
      <use x="54.785156" xlink:href="#FranklinGothic-Book-82"/>
      <use x="116.064453" xlink:href="#FranklinGothic-Book-65"/>
      <use x="169.628906" xlink:href="#FranklinGothic-Book-53"/>
      <use x="228.271484" xlink:href="#FranklinGothic-Book-32"/>
      <use x="253.271484" xlink:href="#FranklinGothic-Book-40"/>
      <use x="282.617188" xlink:href="#FranklinGothic-Book-49"/>
      <use x="339.884766" xlink:href="#FranklinGothic-Book-57"/>
      <use x="392.777344" xlink:href="#FranklinGothic-Book-55"/>
      <use x="451.419922" xlink:href="#FranklinGothic-Book-57"/>
      <use x="510.0625" xlink:href="#FranklinGothic-Book-45"/>
      <use x="535.0625" xlink:href="#FranklinGothic-Book-50"/>
      <use x="593.705078" xlink:href="#FranklinGothic-Book-48"/>
      <use x="652.347656" xlink:href="#FranklinGothic-Book-50"/>
      <use x="710.990234" xlink:href="#FranklinGothic-Book-51"/>
      <use x="769.632812" xlink:href="#FranklinGothic-Book-41"/>
     </g>
    </g>
   </g>
   <g id="line2d_24">
    <path clip-path="url(#p9d5932247b)" d="M 184.581818 352.38456 
L 191.180488 360.882 
L 197.779157 323.44488 
L 204.377827 404.91144 
L 210.976497 396.77688 
L 217.575166 388.08288 
L 224.173836 406.19664 
L 230.772506 350.02584 
L 237.371175 358.992 
L 243.969845 364.662 
L 250.568514 387.99216 
L 257.167184 352.62648 
L 263.765854 433.20096 
L 270.364523 462.1104 
L 276.963193 407.36088 
L 283.561863 392.31648 
L 290.160532 365.59944 
L 296.759202 384.9228 
L 303.357871 372.17664 
L 309.956541 402.84 
L 316.555211 377.57448 
L 323.15388 335.54088 
L 329.75255 321.05592 
L 336.35122 338.61024 
L 342.949889 360.26208 
L 349.548559 339.16968 
L 356.147228 328.28328 
L 362.745898 280.98792 
L 369.344568 314.41824 
L 375.943237 345.05136 
L 382.541907 332.91 
L 389.140576 350.1468 
L 395.739246 331.41312 
L 402.337916 307.23624 
L 408.936585 301.32432 
L 415.535255 348.19632 
L 422.133925 327.40632 
L 428.732594 295.04952 
L 435.331264 322.9308 
L 441.929933 328.04136 
L 448.528603 320.39064 
L 455.127273 305.70912 
L 461.725942 304.65072 
L 468.324612 303.39576 
L 474.923282 350.7516 
L 481.521951 256.1004 
L 488.120621 263.76624 
L 494.71929 324.56376 
L 501.31796 274.15368 
L 507.91663 302.41296 
L 514.515299 253.89288 
L 521.113969 270.29808 
L 527.712639 303.74352 
L 534.311308 276.3612 
L 540.909978 263.47896 
L 547.508647 337.02264 
L 554.107317 321.08616 
L 560.705987 258.98832 
L 567.304656 307.62936 
L 573.903326 302.56416 
L 580.501996 307.87128 
L 587.100665 321.6456 
L 593.699335 277.07184 
L 600.298004 285.93216 
L 606.896674 339.38136 
L 613.495344 313.23888 
L 620.094013 367.77672 
L 626.692683 330.12792 
L 633.291353 380.32632 
L 639.890022 283.40712 
L 646.488692 350.40384 
L 653.087361 330.264 
L 659.686031 272.1276 
L 666.284701 355.8168 
L 672.88337 334.52784 
L 679.48204 364.72248 
L 686.08071 404.45784 
L 692.679379 302.94216 
L 699.278049 317.77488 
L 705.876718 342.26928 
L 712.475388 276.33096 
L 719.074058 310.29048 
L 725.672727 267.516 
L 732.271397 325.78848 
L 738.870067 351.71928 
L 745.468736 341.69472 
L 752.067406 309.71592 
L 758.666075 361.65312 
L 765.264745 323.02152 
L 771.863415 293.15952 
L 778.462084 288.9108 
L 785.060754 306.6768 
L 791.659424 334.21032 
L 798.258093 294.02136 
L 804.856763 232.4376 
L 811.455432 231.39432 
L 818.054102 267.93936 
L 824.652772 302.79096 
L 831.251441 225.72432 
L 837.850111 289.83312 
L 844.44878 268.18128 
L 851.04745 280.42848 
L 857.64612 261.30168 
L 864.244789 253.21248 
L 870.843459 318.68208 
L 877.442129 254.46744 
L 884.040798 245.4408 
L 890.639468 297.93744 
L 897.238137 303.54696 
L 903.836807 242.88552 
L 910.435477 351.32616 
L 917.034146 247.36104 
L 923.632816 234.79632 
L 930.231486 288.29088 
L 936.830155 255.99456 
L 943.428825 225.13464 
L 950.027494 199.65744 
L 956.626164 178.92792 
L 963.224834 227.31192 
L 969.823503 196.02864 
L 976.422173 160.04304 
L 983.020843 204.57144 
L 989.619512 238.90896 
L 996.218182 136.6524 
" style="fill:none;stroke:#009e73;stroke-linecap:round;stroke-width:3;"/>
   </g>
   <g id="line2d_25">
    <path clip-path="url(#p9d5932247b)" d="M 184.581818 389.74608 
L 191.180488 398.44008 
L 197.779157 365.84136 
L 204.377827 477.86544 
L 210.976497 395.91504 
L 217.575166 446.71824 
L 224.173836 428.02992 
L 230.772506 356.84496 
L 237.371175 392.99688 
L 243.969845 395.24976 
L 250.568514 405.0324 
L 257.167184 386.11728 
L 263.765854 519.17328 
L 270.364523 519.95952 
L 276.963193 455.18544 
L 283.561863 461.92896 
L 290.160532 396.36864 
L 296.759202 443.18016 
L 303.357871 430.44912 
L 309.956541 487.79928 
L 316.555211 453.90024 
L 323.15388 320.69304 
L 329.75255 355.212 
L 336.35122 389.71584 
L 342.949889 412.09344 
L 349.548559 360.51912 
L 356.147228 384.36336 
L 362.745898 316.0512 
L 369.344568 375.91128 
L 375.943237 403.09704 
L 382.541907 409.8708 
L 389.140576 406.60488 
L 395.739246 411.21648 
L 402.337916 329.53824 
L 408.936585 313.76808 
L 415.535255 386.90352 
L 422.133925 387.05472 
L 428.732594 363.36168 
L 435.331264 360.09576 
L 441.929933 361.29024 
L 448.528603 375.89616 
L 455.127273 379.82736 
L 461.725942 381.1428 
L 468.324612 364.99464 
L 474.923282 416.03976 
L 481.521951 335.22336 
L 488.120621 320.22432 
L 494.71929 380.3868 
L 501.31796 354.2292 
L 507.91663 371.75328 
L 514.515299 304.68096 
L 521.113969 335.31408 
L 527.712639 364.19328 
L 534.311308 320.99544 
L 540.909978 293.18976 
L 547.508647 380.79504 
L 554.107317 351.91584 
L 560.705987 322.4772 
L 567.304656 364.22352 
L 573.903326 368.16984 
L 580.501996 384.42384 
L 587.100665 389.0052 
L 593.699335 334.9512 
L 600.298004 342.75312 
L 606.896674 397.65384 
L 613.495344 369.8784 
L 620.094013 420.63624 
L 626.692683 377.42328 
L 633.291353 440.39808 
L 639.890022 346.85064 
L 646.488692 411.88176 
L 653.087361 380.32632 
L 659.686031 337.5216 
L 666.284701 409.266 
L 672.88337 382.33728 
L 679.48204 422.43552 
L 686.08071 452.87208 
L 692.679379 339.35112 
L 699.278049 370.07496 
L 705.876718 409.0392 
L 712.475388 316.33848 
L 719.074058 325.66752 
L 725.672727 324.35208 
L 732.271397 373.38624 
L 738.870067 373.2048 
L 745.468736 370.60416 
L 752.067406 321.948 
L 758.666075 392.31648 
L 765.264745 357.26832 
L 771.863415 331.29216 
L 778.462084 308.0376 
L 785.060754 333.2124 
L 791.659424 360.4284 
L 798.258093 345.36888 
L 804.856763 267.3648 
L 811.455432 270.26784 
L 818.054102 286.46136 
L 824.652772 337.2192 
L 831.251441 241.23744 
L 837.850111 273.74544 
L 844.44878 259.63848 
L 851.04745 288.4572 
L 857.64612 283.05936 
L 864.244789 253.21248 
L 870.843459 308.67264 
L 877.442129 247.75416 
L 884.040798 219.85776 
L 890.639468 290.99736 
L 897.238137 292.13136 
L 903.836807 246.10608 
L 910.435477 333.24264 
L 917.034146 226.45008 
L 923.632816 175.70736 
L 930.231486 292.9176 
L 936.830155 264.44664 
L 943.428825 215.11008 
L 950.027494 164.3976 
L 956.626164 138.14928 
L 963.224834 204.13296 
L 969.823503 213.55272 
L 976.422173 142.7004 
L 983.020843 195.72624 
L 989.619512 216.75816 
L 996.218182 134.65656 
" style="fill:none;stroke:#56b4e9;stroke-linecap:round;stroke-width:3;"/>
   </g>
   <g id="line2d_26">
    <path clip-path="url(#p9d5932247b)" d="M 184.581818 385.79976 
L 191.180488 429.02784 
L 197.779157 389.67048 
L 204.377827 436.89024 
L 210.976497 420.40944 
L 217.575166 399.5892 
L 224.173836 435.36312 
L 230.772506 374.2632 
L 237.371175 409.38696 
L 243.969845 401.79672 
L 250.568514 456.894 
L 257.167184 363.10464 
L 263.765854 446.6124 
L 270.364523 499.3056 
L 276.963193 436.43664 
L 283.561863 407.42136 
L 290.160532 467.9316 
L 296.759202 454.41432 
L 303.357871 389.27736 
L 309.956541 448.36632 
L 316.555211 454.3992 
L 323.15388 389.05056 
L 329.75255 364.7376 
L 336.35122 397.68408 
L 342.949889 451.73808 
L 349.548559 411.6096 
L 356.147228 392.11992 
L 362.745898 354.65256 
L 369.344568 387.52344 
L 375.943237 406.9224 
L 382.541907 391.122 
L 389.140576 398.28888 
L 395.739246 387.02448 
L 402.337916 384.40872 
L 408.936585 355.75632 
L 415.535255 394.99272 
L 422.133925 374.20272 
L 428.732594 339.91056 
L 435.331264 369.7272 
L 441.929933 349.36056 
L 448.528603 354.50136 
L 455.127273 338.02056 
L 461.725942 350.298 
L 468.324612 344.68848 
L 474.923282 377.63496 
L 481.521951 308.14344 
L 488.120621 314.73576 
L 494.71929 381.08232 
L 501.31796 327.24 
L 507.91663 356.40648 
L 514.515299 317.83536 
L 521.113969 328.08672 
L 527.712639 349.542 
L 534.311308 331.03512 
L 540.909978 308.83896 
L 547.508647 381.11256 
L 554.107317 353.4732 
L 560.705987 285.82632 
L 567.304656 342.49608 
L 573.903326 334.48248 
L 580.501996 361.83456 
L 587.100665 377.22672 
L 593.699335 330.65712 
L 600.298004 341.61912 
L 606.896674 394.9776 
L 613.495344 353.60928 
L 620.094013 400.3452 
L 626.692683 374.09688 
L 633.291353 424.94544 
L 639.890022 348.96744 
L 646.488692 410.52096 
L 653.087361 383.77368 
L 659.686031 324.63936 
L 666.284701 399.3624 
L 672.88337 385.13448 
L 679.48204 420.42456 
L 686.08071 432.30888 
L 692.679379 328.6764 
L 699.278049 352.4904 
L 705.876718 386.26848 
L 712.475388 320.95008 
L 719.074058 357.11712 
L 725.672727 310.6836 
L 732.271397 346.20048 
L 738.870067 369.78768 
L 745.468736 376.81848 
L 752.067406 341.6796 
L 758.666075 393.78312 
L 765.264745 403.55064 
L 771.863415 318.50064 
L 778.462084 302.63976 
L 785.060754 321.84216 
L 791.659424 330.14304 
L 798.258093 288.57816 
L 804.856763 259.8048 
L 811.455432 260.66664 
L 818.054102 292.0104 
L 824.652772 290.84616 
L 831.251441 231.606 
L 837.850111 314.59968 
L 844.44878 272.052 
L 851.04745 305.64864 
L 857.64612 286.09848 
L 864.244789 284.49576 
L 870.843459 312.46776 
L 877.442129 239.3928 
L 884.040798 232.5888 
L 890.639468 296.48592 
L 897.238137 284.76792 
L 903.836807 231.21288 
L 910.435477 335.76768 
L 917.034146 237.38184 
L 923.632816 222.3072 
L 930.231486 294.59592 
L 936.830155 239.21136 
L 943.428825 204.60168 
L 950.027494 195.04584 
L 956.626164 164.23128 
L 963.224834 211.20912 
L 969.823503 188.75592 
L 976.422173 147.56904 
L 983.020843 184.00824 
L 989.619512 205.3728 
L 996.218182 99.01872 
" style="fill:none;stroke:#cc79a7;stroke-linecap:round;stroke-width:3;"/>
   </g>
   <g id="line2d_27">
    <path clip-path="url(#p9d5932247b)" d="M 184.581818 349.55712 
L 191.180488 367.03584 
L 197.779157 354.66768 
L 204.377827 414.69408 
L 210.976497 415.96416 
L 217.575166 415.43496 
L 224.173836 425.09664 
L 230.772506 375.72984 
L 237.371175 396.44424 
L 243.969845 417.8088 
L 250.568514 435.22704 
L 257.167184 380.77992 
L 263.765854 449.712 
L 270.364523 487.16424 
L 276.963193 404.5032 
L 283.561863 381.68712 
L 290.160532 438.61392 
L 296.759202 462.51864 
L 303.357871 401.60016 
L 309.956541 426.01896 
L 316.555211 406.34784 
L 323.15388 392.28624 
L 329.75255 357.73704 
L 336.35122 376.81848 
L 342.949889 400.85928 
L 349.548559 358.56864 
L 356.147228 374.14224 
L 362.745898 336.2364 
L 369.344568 372.19176 
L 375.943237 385.48224 
L 382.541907 378.73872 
L 389.140576 390.12408 
L 395.739246 380.56824 
L 402.337916 379.69128 
L 408.936585 353.66976 
L 415.535255 390.18456 
L 422.133925 378.98064 
L 428.732594 342.57168 
L 435.331264 370.58904 
L 441.929933 361.12392 
L 448.528603 359.41536 
L 455.127273 340.96896 
L 461.725942 358.13016 
L 468.324612 354.16872 
L 474.923282 392.30136 
L 481.521951 340.78752 
L 488.120621 336.79584 
L 494.71929 387.342 
L 501.31796 352.21824 
L 507.91663 371.94984 
L 514.515299 319.72536 
L 521.113969 328.94856 
L 527.712639 347.13792 
L 534.311308 332.95536 
L 540.909978 318.57624 
L 547.508647 384.3936 
L 554.107317 352.77768 
L 560.705987 292.64544 
L 567.304656 321.7212 
L 573.903326 332.94024 
L 580.501996 363.95136 
L 587.100665 366.71832 
L 593.699335 326.27232 
L 600.298004 329.09976 
L 606.896674 390.95568 
L 613.495344 355.68072 
L 620.094013 399.816 
L 626.692683 376.5312 
L 633.291353 419.03352 
L 639.890022 342.61704 
L 646.488692 403.974 
L 653.087361 391.43952 
L 659.686031 317.42712 
L 666.284701 402.17472 
L 672.88337 378.85968 
L 679.48204 417.18888 
L 686.08071 423.75096 
L 692.679379 334.76976 
L 699.278049 349.11864 
L 705.876718 383.59224 
L 712.475388 311.364 
L 719.074058 344.91528 
L 725.672727 302.8212 
L 732.271397 330.08256 
L 738.870067 366.12864 
L 745.468736 357.9336 
L 752.067406 335.67696 
L 758.666075 372.76632 
L 765.264745 363.25584 
L 771.863415 319.9824 
L 778.462084 306.1476 
L 785.060754 331.41312 
L 791.659424 331.88184 
L 798.258093 316.23264 
L 804.856763 266.54832 
L 811.455432 274.21416 
L 818.054102 300.19032 
L 824.652772 313.07256 
L 831.251441 252.83448 
L 837.850111 307.87128 
L 844.44878 292.32792 
L 851.04745 302.60952 
L 857.64612 271.08432 
L 864.244789 256.03992 
L 870.843459 289.60632 
L 877.442129 254.04408 
L 884.040798 240.73848 
L 890.639468 301.3848 
L 897.238137 296.12304 
L 903.836807 232.92144 
L 910.435477 334.25568 
L 917.034146 240.9804 
L 923.632816 222.01992 
L 930.231486 281.09376 
L 936.830155 223.2144 
L 943.428825 183.40344 
L 950.027494 170.17344 
L 956.626164 161.25264 
L 963.224834 198.0396 
L 969.823503 183.63024 
L 976.422173 146.79792 
L 983.020843 202.13712 
L 989.619512 221.06736 
L 996.218182 135.17064 
" style="fill:none;stroke:#e69f00;stroke-linecap:round;stroke-width:3;"/>
   </g>
   <g id="line2d_28">
    <path clip-path="url(#p9d5932247b)" d="M 184.581818 397.33632 
L 191.180488 460.9008 
L 197.779157 418.47408 
L 204.377827 478.71216 
L 210.976497 455.20056 
L 217.575166 439.56648 
L 224.173836 449.43984 
L 230.772506 398.2284 
L 237.371175 421.40736 
L 243.969845 434.48616 
L 250.568514 456.10776 
L 257.167184 406.87704 
L 263.765854 478.5912 
L 270.364523 510.08616 
L 276.963193 438.5232 
L 283.561863 426.23064 
L 290.160532 403.1424 
L 296.759202 443.98152 
L 303.357871 438.50808 
L 309.956541 467.67456 
L 316.555211 459.918 
L 323.15388 400.01256 
L 329.75255 391.39416 
L 336.35122 410.6268 
L 342.949889 447.8976 
L 349.548559 412.22952 
L 356.147228 403.08192 
L 362.745898 369.98424 
L 369.344568 392.39208 
L 375.943237 426.44232 
L 382.541907 411.6852 
L 389.140576 410.33952 
L 395.739246 405.1836 
L 402.337916 374.20272 
L 408.936585 349.30008 
L 415.535255 398.5308 
L 422.133925 382.91184 
L 428.732594 356.98104 
L 435.331264 372.32784 
L 441.929933 373.31064 
L 448.528603 362.80224 
L 455.127273 349.3152 
L 461.725942 361.95552 
L 468.324612 345.94344 
L 474.923282 381.86856 
L 481.521951 327.79944 
L 488.120621 327.34584 
L 494.71929 366.23448 
L 501.31796 328.752 
L 507.91663 357.87312 
L 514.515299 324.33696 
L 521.113969 327.4668 
L 527.712639 352.68696 
L 534.311308 323.67168 
L 540.909978 317.47248 
L 547.508647 396.792 
L 554.107317 359.35488 
L 560.705987 298.78416 
L 567.304656 337.64256 
L 573.903326 334.30104 
L 580.501996 367.26264 
L 587.100665 378.84456 
L 593.699335 340.30368 
L 600.298004 340.7724 
L 606.896674 397.80504 
L 613.495344 367.9128 
L 620.094013 408.7368 
L 626.692683 377.2872 
L 633.291353 429.93504 
L 639.890022 350.17704 
L 646.488692 412.25976 
L 653.087361 393.5412 
L 659.686031 328.16232 
L 666.284701 398.9844 
L 672.88337 389.48904 
L 679.48204 416.9772 
L 686.08071 429.79896 
L 692.679379 337.02264 
L 699.278049 358.236 
L 705.876718 401.81184 
L 712.475388 325.84896 
L 719.074058 355.95288 
L 725.672727 319.12056 
L 732.271397 340.22808 
L 738.870067 364.32936 
L 745.468736 375.98688 
L 752.067406 336.2364 
L 758.666075 378.8748 
L 765.264745 379.82736 
L 771.863415 326.90736 
L 778.462084 299.17728 
L 785.060754 317.82024 
L 791.659424 323.5356 
L 798.258093 301.3092 
L 804.856763 263.2824 
L 811.455432 266.57856 
L 818.054102 285.70536 
L 824.652772 292.13136 
L 831.251441 241.14672 
L 837.850111 308.9448 
L 844.44878 271.17504 
L 851.04745 303.00264 
L 857.64612 287.30808 
L 864.244789 273.12552 
L 870.843459 306.38952 
L 877.442129 256.8564 
L 884.040798 236.6712 
L 890.639468 291.43584 
L 897.238137 291.16368 
L 903.836807 229.51944 
L 910.435477 334.24056 
L 917.034146 244.9872 
L 923.632816 218.9052 
L 930.231486 284.34456 
L 936.830155 236.91312 
L 943.428825 210.63456 
L 950.027494 185.45976 
L 956.626164 166.30272 
L 963.224834 209.2284 
L 969.823503 189.13392 
L 976.422173 148.7484 
L 983.020843 190.81224 
L 989.619512 207.62568 
L 996.218182 99.3816 
" style="fill:none;stroke:#696969;stroke-linecap:round;stroke-width:3;"/>
   </g>
  </g>
  <g id="text_26">
   <g id="patch_4">
    <path d="M 874.779375 646.18275 
L 1040.76 646.18275 
L 1040.76 628.26525 
L 874.779375 628.26525 
z
" style="fill:#ffffff;stroke:#ffffff;stroke-linejoin:miter;"/>
   </g>
   <!-- Created: 2024-01-22 15:36:23 -->
   <g style="fill:#696969;" transform="translate(878.739375 640.224)scale(0.12 -0.12)">
    <defs>
     <path d="M 17.96875 49.3125 
L 17.96875 38.375 
L 7.078125 38.375 
L 7.078125 49.3125 
z
M 17.96875 10.984375 
L 17.96875 0 
L 7.078125 0 
L 7.078125 10.984375 
z
" id="FranklinGothic-Book-58"/>
    </defs>
    <use xlink:href="#FranklinGothic-Book-67"/>
    <use x="57.910156" xlink:href="#FranklinGothic-Book-114"/>
    <use x="90.869141" xlink:href="#FranklinGothic-Book-101"/>
    <use x="142.919922" xlink:href="#FranklinGothic-Book-97"/>
    <use x="195.800781" xlink:href="#FranklinGothic-Book-116"/>
    <use x="224.8125" xlink:href="#FranklinGothic-Book-101"/>
    <use x="276.863281" xlink:href="#FranklinGothic-Book-100"/>
    <use x="330.720703" xlink:href="#FranklinGothic-Book-58"/>
    <use x="355.720703" xlink:href="#FranklinGothic-Book-32"/>
    <use x="380.720703" xlink:href="#FranklinGothic-Book-50"/>
    <use x="439.363281" xlink:href="#FranklinGothic-Book-48"/>
    <use x="498.005859" xlink:href="#FranklinGothic-Book-50"/>
    <use x="552.273438" xlink:href="#FranklinGothic-Book-52"/>
    <use x="610.916016" xlink:href="#FranklinGothic-Book-45"/>
    <use x="635.916016" xlink:href="#FranklinGothic-Book-48"/>
    <use x="690.808594" xlink:href="#FranklinGothic-Book-49"/>
    <use x="749.451172" xlink:href="#FranklinGothic-Book-45"/>
    <use x="774.451172" xlink:href="#FranklinGothic-Book-50"/>
    <use x="833.09375" xlink:href="#FranklinGothic-Book-50"/>
    <use x="891.736328" xlink:href="#FranklinGothic-Book-32"/>
    <use x="916.736328" xlink:href="#FranklinGothic-Book-49"/>
    <use x="974.003906" xlink:href="#FranklinGothic-Book-53"/>
    <use x="1032.646484" xlink:href="#FranklinGothic-Book-58"/>
    <use x="1057.646484" xlink:href="#FranklinGothic-Book-51"/>
    <use x="1116.289062" xlink:href="#FranklinGothic-Book-54"/>
    <use x="1174.931641" xlink:href="#FranklinGothic-Book-58"/>
    <use x="1199.931641" xlink:href="#FranklinGothic-Book-50"/>
    <use x="1258.574219" xlink:href="#FranklinGothic-Book-51"/>
   </g>
  </g>
 </g>
 <defs>
  <clipPath id="p9d5932247b">
   <rect height="498.96" width="892.8" x="144" y="77.76"/>
  </clipPath>
 </defs>
</svg>
