<?xml version="1.0" encoding="utf-8" standalone="no"?>
<!DOCTYPE svg PUBLIC "-//W3C//DTD SVG 1.1//EN"
  "http://www.w3.org/Graphics/SVG/1.1/DTD/svg11.dtd">
<!-- Created with matplotlib (https://matplotlib.org/) -->
<svg height="648pt" version="1.1" viewBox="0 0 1152 648" width="1152pt" xmlns="http://www.w3.org/2000/svg" xmlns:xlink="http://www.w3.org/1999/xlink">
 <metadata>
  <rdf:RDF xmlns:cc="http://creativecommons.org/ns#" xmlns:dc="http://purl.org/dc/elements/1.1/" xmlns:rdf="http://www.w3.org/1999/02/22-rdf-syntax-ns#">
   <cc:Work>
    <dc:type rdf:resource="http://purl.org/dc/dcmitype/StillImage"/>
    <dc:date>2023-01-30T10:47:44.040660</dc:date>
    <dc:format>image/svg+xml</dc:format>
    <dc:creator>
     <cc:Agent>
      <dc:title>Matplotlib v3.3.1, https://matplotlib.org/</dc:title>
     </cc:Agent>
    </dc:creator>
   </cc:Work>
  </rdf:RDF>
 </metadata>
 <defs>
  <style type="text/css">*{stroke-linecap:butt;stroke-linejoin:round;}</style>
 </defs>
 <g id="figure_1">
  <g id="patch_1">
   <path d="M 0 648 
L 1152 648 
L 1152 0 
L 0 0 
z
" style="fill:#ffffff;"/>
  </g>
  <g id="axes_1">
   <g id="patch_2">
    <path d="M 144 576.72 
L 1036.8 576.72 
L 1036.8 77.76 
L 144 77.76 
z
" style="fill:none;"/>
   </g>
   <g id="patch_3">
    <path clip-path="url(#pb8b40ece0c)" d="M 184.581818 576.72 
L 385.813974 576.72 
L 385.813974 -171.72 
L 184.581818 -171.72 
z
" style="fill:#eeeeee;stroke:#eeeeee;stroke-linejoin:miter;"/>
   </g>
   <g id="patch_4">
    <path clip-path="url(#pb8b40ece0c)" d="M 189.277235 451.98 
L 250.541247 451.98 
L 250.541247 517.387745 
L 189.277235 517.387745 
z
" style="fill:#f33d3d;"/>
   </g>
   <g id="patch_5">
    <path clip-path="url(#pb8b40ece0c)" d="M 254.56589 451.98 
L 315.829902 451.98 
L 315.829902 390.166404 
L 254.56589 390.166404 
z
" style="fill:#ffd465;"/>
   </g>
   <g id="patch_6">
    <path clip-path="url(#pb8b40ece0c)" d="M 319.854545 451.98 
L 381.118557 451.98 
L 381.118557 442.641497 
L 319.854545 442.641497 
z
" style="fill:#9dd742;"/>
   </g>
   <g id="patch_7">
    <path clip-path="url(#pb8b40ece0c)" d="M 390.509391 451.98 
L 451.773403 451.98 
L 451.773403 422.358621 
L 390.509391 422.358621 
z
" style="fill:#f33d3d;"/>
   </g>
   <g id="patch_8">
    <path clip-path="url(#pb8b40ece0c)" d="M 455.798047 451.98 
L 517.062059 451.98 
L 517.062059 433.383507 
L 455.798047 433.383507 
z
" style="fill:#ffd465;"/>
   </g>
   <g id="patch_9">
    <path clip-path="url(#pb8b40ece0c)" d="M 521.086702 451.98 
L 582.350714 451.98 
L 582.350714 429.20378 
L 521.086702 429.20378 
z
" style="fill:#9dd742;"/>
   </g>
   <g id="patch_10">
    <path clip-path="url(#pb8b40ece0c)" d="M 587.046131 576.72 
L 788.278287 576.72 
L 788.278287 -171.72 
L 587.046131 -171.72 
z
" style="fill:#eeeeee;stroke:#eeeeee;stroke-linejoin:miter;"/>
   </g>
   <g id="patch_11">
    <path clip-path="url(#pb8b40ece0c)" d="M 591.741548 451.98 
L 653.00556 451.98 
L 653.00556 391.529553 
L 591.741548 391.529553 
z
" style="fill:#f33d3d;"/>
   </g>
   <g id="patch_12">
    <path clip-path="url(#pb8b40ece0c)" d="M 657.030203 451.98 
L 718.294215 451.98 
L 718.294215 395.566356 
L 657.030203 395.566356 
z
" style="fill:#ffd465;"/>
   </g>
   <g id="patch_13">
    <path clip-path="url(#pb8b40ece0c)" d="M 722.318858 451.98 
L 783.58287 451.98 
L 783.58287 415.270281 
L 722.318858 415.270281 
z
" style="fill:#9dd742;"/>
   </g>
   <g id="patch_14">
    <path clip-path="url(#pb8b40ece0c)" d="M 792.973704 451.98 
L 854.237716 451.98 
L 854.237716 322.178077 
L 792.973704 322.178077 
z
" style="fill:#f33d3d;"/>
   </g>
   <g id="patch_15">
    <path clip-path="url(#pb8b40ece0c)" d="M 858.262359 451.98 
L 919.526371 451.98 
L 919.526371 276.009226 
L 858.262359 276.009226 
z
" style="fill:#ffd465;"/>
   </g>
   <g id="patch_16">
    <path clip-path="url(#pb8b40ece0c)" d="M 923.551014 451.98 
L 984.815026 451.98 
L 984.815026 313.191146 
L 923.551014 313.191146 
z
" style="fill:#9dd742;"/>
   </g>
   <g id="line2d_1">
    <path clip-path="url(#pb8b40ece0c)" d="M 184.581818 451.98 
L 996.218182 451.98 
" style="fill:none;stroke:#d3d3d3;stroke-linecap:round;stroke-width:1.5;"/>
   </g>
   <g id="line2d_2">
    <path clip-path="url(#pb8b40ece0c)" d="M 219.909241 591.802023 
L 219.909241 450.607582 
" style="fill:none;stroke:#000000;stroke-linecap:round;stroke-width:1.5;"/>
   </g>
   <g id="line2d_3">
    <path clip-path="url(#pb8b40ece0c)" d="M 285.197896 399.689103 
L 285.197896 380.97505 
" style="fill:none;stroke:#000000;stroke-linecap:round;stroke-width:1.5;"/>
   </g>
   <g id="line2d_4">
    <path clip-path="url(#pb8b40ece0c)" d="M 350.486551 476.322061 
L 350.486551 391.619022 
" style="fill:none;stroke:#000000;stroke-linecap:round;stroke-width:1.5;"/>
   </g>
   <g id="line2d_5">
    <path clip-path="url(#pb8b40ece0c)" d="M 421.141397 431.5805 
L 421.141397 415.614197 
" style="fill:none;stroke:#000000;stroke-linecap:round;stroke-width:1.5;"/>
   </g>
   <g id="line2d_6">
    <path clip-path="url(#pb8b40ece0c)" d="M 486.430053 470.815185 
L 486.430053 410.644994 
" style="fill:none;stroke:#000000;stroke-linecap:round;stroke-width:1.5;"/>
   </g>
   <g id="line2d_7">
    <path clip-path="url(#pb8b40ece0c)" d="M 551.718708 470.144864 
L 551.718708 391.634285 
" style="fill:none;stroke:#000000;stroke-linecap:round;stroke-width:1.5;"/>
   </g>
   <g id="line2d_8">
    <path clip-path="url(#pb8b40ece0c)" d="M 622.373554 431.322279 
L 622.373554 357.831687 
" style="fill:none;stroke:#000000;stroke-linecap:round;stroke-width:1.5;"/>
   </g>
   <g id="line2d_9">
    <path clip-path="url(#pb8b40ece0c)" d="M 687.662209 413.216663 
L 687.662209 385.507317 
" style="fill:none;stroke:#000000;stroke-linecap:round;stroke-width:1.5;"/>
   </g>
   <g id="line2d_10">
    <path clip-path="url(#pb8b40ece0c)" d="M 752.950864 463.581098 
L 752.950864 393.01919 
" style="fill:none;stroke:#000000;stroke-linecap:round;stroke-width:1.5;"/>
   </g>
   <g id="line2d_11">
    <path clip-path="url(#pb8b40ece0c)" d="M 823.60571 342.981223 
L 823.60571 303.499961 
" style="fill:none;stroke:#000000;stroke-linecap:round;stroke-width:1.5;"/>
   </g>
   <g id="line2d_12">
    <path clip-path="url(#pb8b40ece0c)" d="M 888.894365 317.309155 
L 888.894365 241.469018 
" style="fill:none;stroke:#000000;stroke-linecap:round;stroke-width:1.5;"/>
   </g>
   <g id="line2d_13">
    <path clip-path="url(#pb8b40ece0c)" d="M 954.18302 347.164906 
L 954.18302 265.007978 
" style="fill:none;stroke:#000000;stroke-linecap:round;stroke-width:1.5;"/>
   </g>
   <g id="patch_17">
    <path d="M 144 576.72 
L 144 77.76 
" style="fill:none;stroke:#d3d3d3;stroke-linecap:square;stroke-linejoin:miter;stroke-width:1.25;"/>
   </g>
   <g id="matplotlib.axis_1">
    <g id="xtick_1"/>
    <g id="xtick_2"/>
    <g id="xtick_3"/>
    <g id="xtick_4"/>
    <g id="xtick_5"/>
    <g id="xtick_6"/>
    <g id="xtick_7"/>
   </g>
   <g id="matplotlib.axis_2">
    <g id="ytick_1">
     <g id="line2d_14">
      <path clip-path="url(#pb8b40ece0c)" d="M 144 576.72 
L 1036.8 576.72 
" style="fill:none;stroke:#ffffff;stroke-linecap:round;stroke-opacity:0;"/>
     </g>
     <g id="text_1">
      <!-- −0.2 -->
      <g style="fill:#696969;" transform="translate(84.269531 585.052031)scale(0.25 -0.25)">
       <defs>
        <path d="M 6 36.765625 
L 52.6875 36.765625 
L 52.6875 30.03125 
L 6 30.03125 
z
" id="FranklinGothic-Book-8722"/>
        <path d="M 29.390625 -1.3125 
Q 17.875 -1.3125 10.984375 8.671875 
Q 4.109375 18.65625 4.109375 33.453125 
Q 4.109375 48 10.640625 58 
Q 17.1875 68.015625 29.15625 68.015625 
Q 41.65625 68.015625 48.125 57.5625 
Q 54.59375 47.125 54.59375 33.0625 
Q 54.59375 19.28125 47.953125 8.984375 
Q 41.3125 -1.3125 29.390625 -1.3125 
z
M 29.4375 5.21875 
Q 37.890625 5.21875 41.9375 12.859375 
Q 46 20.515625 46 32.078125 
Q 46 44.734375 41.84375 53.125 
Q 37.703125 61.53125 29.046875 61.53125 
Q 20.703125 61.53125 16.625 53.859375 
Q 12.546875 46.1875 12.546875 33.6875 
Q 12.546875 20.703125 16.84375 12.953125 
Q 21.140625 5.21875 29.4375 5.21875 
z
" id="FranklinGothic-Book-48"/>
        <path d="M 17.96875 10.9375 
L 17.96875 0 
L 7.078125 0 
L 7.078125 10.9375 
z
" id="FranklinGothic-Book-46"/>
        <path d="M 52.484375 6.9375 
L 52.484375 0 
L 5.171875 0 
L 5.171875 6.9375 
Q 33.203125 27.9375 38.59375 34.59375 
Q 44 41.265625 44 47.796875 
Q 44 53.90625 39.453125 57.65625 
Q 34.90625 61.421875 29 61.421875 
Q 22.90625 61.421875 18.21875 57.296875 
Q 13.53125 53.171875 12.9375 46.09375 
L 5.171875 48.4375 
Q 10.0625 68.015625 29.109375 68.015625 
Q 39.40625 68.015625 45.84375 62.15625 
Q 52.296875 56.296875 52.296875 47.859375 
Q 52.296875 42.046875 49.234375 36.671875 
Q 46.1875 31.296875 37.6875 23.828125 
Q 29.203125 16.359375 15.71875 6.9375 
z
" id="FranklinGothic-Book-50"/>
       </defs>
       <use xlink:href="#FranklinGothic-Book-8722"/>
       <use x="58.642578" xlink:href="#FranklinGothic-Book-48"/>
       <use x="117.285156" xlink:href="#FranklinGothic-Book-46"/>
       <use x="142.285156" xlink:href="#FranklinGothic-Book-50"/>
      </g>
     </g>
    </g>
    <g id="ytick_2">
     <g id="line2d_15">
      <path clip-path="url(#pb8b40ece0c)" d="M 144 451.98 
L 1036.8 451.98 
" style="fill:none;stroke:#ffffff;stroke-linecap:round;stroke-opacity:0;"/>
     </g>
     <g id="text_2">
      <!-- 0.0 -->
      <g style="fill:#696969;" transform="translate(98.929688 460.312031)scale(0.25 -0.25)">
       <use xlink:href="#FranklinGothic-Book-48"/>
       <use x="58.642578" xlink:href="#FranklinGothic-Book-46"/>
       <use x="83.642578" xlink:href="#FranklinGothic-Book-48"/>
      </g>
     </g>
    </g>
    <g id="ytick_3">
     <g id="line2d_16">
      <path clip-path="url(#pb8b40ece0c)" d="M 144 327.24 
L 1036.8 327.24 
" style="fill:none;stroke:#ffffff;stroke-linecap:round;stroke-opacity:0;"/>
     </g>
     <g id="text_3">
      <!-- 0.2 -->
      <g style="fill:#696969;" transform="translate(98.929688 335.572031)scale(0.25 -0.25)">
       <use xlink:href="#FranklinGothic-Book-48"/>
       <use x="58.642578" xlink:href="#FranklinGothic-Book-46"/>
       <use x="83.642578" xlink:href="#FranklinGothic-Book-50"/>
      </g>
     </g>
    </g>
    <g id="ytick_4">
     <g id="line2d_17">
      <path clip-path="url(#pb8b40ece0c)" d="M 144 202.5 
L 1036.8 202.5 
" style="fill:none;stroke:#ffffff;stroke-linecap:round;stroke-opacity:0;"/>
     </g>
     <g id="text_4">
      <!-- 0.4 -->
      <g style="fill:#696969;" transform="translate(98.929688 210.832031)scale(0.25 -0.25)">
       <defs>
        <path d="M 44.09375 0 
L 36.03125 0 
L 36.03125 15.875 
L 3.078125 15.875 
L 3.078125 21.484375 
L 33.640625 68.0625 
L 44.09375 68.0625 
L 44.09375 22.46875 
L 54.890625 22.46875 
L 54.890625 15.875 
L 44.09375 15.875 
z
M 36.03125 22.46875 
L 36.03125 54 
Q 36.03125 57.421875 36.1875 61.375 
Q 34.078125 57.515625 32.5625 55.125 
L 11.765625 22.46875 
z
" id="FranklinGothic-Book-52"/>
       </defs>
       <use xlink:href="#FranklinGothic-Book-48"/>
       <use x="58.642578" xlink:href="#FranklinGothic-Book-46"/>
       <use x="83.642578" xlink:href="#FranklinGothic-Book-52"/>
      </g>
     </g>
    </g>
    <g id="ytick_5">
     <g id="line2d_18">
      <path clip-path="url(#pb8b40ece0c)" d="M 144 77.76 
L 1036.8 77.76 
" style="fill:none;stroke:#ffffff;stroke-linecap:round;stroke-opacity:0;"/>
     </g>
     <g id="text_5">
      <!-- 0.6 -->
      <g style="fill:#696969;" transform="translate(98.929688 86.092031)scale(0.25 -0.25)">
       <defs>
        <path d="M 53.5625 53.03125 
L 46.046875 50.984375 
Q 42.1875 61.140625 31.984375 61.140625 
Q 13.234375 61.140625 12.796875 30.125 
Q 15.765625 37.015625 21.234375 40.328125 
Q 26.703125 43.65625 32.8125 43.65625 
Q 42.09375 43.65625 48.359375 37.1875 
Q 54.640625 30.71875 54.640625 21.6875 
Q 54.640625 12.3125 47.96875 5.5 
Q 41.3125 -1.3125 30.90625 -1.3125 
Q 19.09375 -1.3125 12.078125 7.59375 
Q 5.078125 16.5 5.078125 31.84375 
Q 5.078125 46.828125 11.6875 57.421875 
Q 18.3125 68.015625 32.171875 68.015625 
Q 48.140625 68.015625 53.5625 53.03125 
z
M 30.765625 5.375 
Q 37.84375 5.375 42.359375 10.03125 
Q 46.875 14.703125 46.875 21.234375 
Q 46.875 27.6875 42.453125 32.296875 
Q 38.03125 36.921875 31.5 36.921875 
Q 24.75 36.921875 19.71875 32.078125 
Q 14.703125 27.25 14.703125 20.75 
Q 14.703125 14.75 19.1875 10.0625 
Q 23.6875 5.375 30.765625 5.375 
z
" id="FranklinGothic-Book-54"/>
       </defs>
       <use xlink:href="#FranklinGothic-Book-48"/>
       <use x="58.642578" xlink:href="#FranklinGothic-Book-46"/>
       <use x="83.642578" xlink:href="#FranklinGothic-Book-54"/>
      </g>
     </g>
    </g>
    <g id="text_6">
     <!-- Trend ($\!^\circ\!$C/decade) -->
     <g style="fill:#696969;" transform="translate(75.019531 425.115)rotate(-90)scale(0.25 -0.25)">
      <defs>
       <path d="M 28.421875 0 
L 20.125 0 
L 20.125 59.328125 
L 1.03125 59.328125 
L 1.03125 66.65625 
L 47.5625 66.65625 
L 47.5625 59.328125 
L 28.421875 59.328125 
z
" id="FranklinGothic-Book-84"/>
       <path d="M 15.328125 0 
L 7.671875 0 
L 7.671875 49.3125 
L 14.40625 49.3125 
L 14.40625 37.796875 
Q 17.96875 45.953125 21.546875 48.359375 
Q 25.140625 50.78125 28.90625 50.78125 
Q 30.078125 50.78125 31.9375 50.59375 
L 31.9375 43.265625 
L 30.375 43.265625 
Q 24.03125 43.265625 19.828125 38.53125 
Q 15.625 33.796875 15.328125 26.078125 
z
" id="FranklinGothic-Book-114"/>
       <path d="M 40.234375 14.703125 
L 47.359375 13.234375 
Q 45.40625 6.9375 39.734375 2.8125 
Q 34.078125 -1.3125 26.421875 -1.3125 
Q 16.3125 -1.3125 10.0625 5.78125 
Q 3.8125 12.890625 3.8125 24.421875 
Q 3.8125 36.1875 10.296875 43.4375 
Q 16.796875 50.6875 26.609375 50.6875 
Q 36.28125 50.6875 42.15625 44 
Q 48.046875 37.3125 48.1875 23.96875 
L 12.359375 23.96875 
Q 12.359375 12.796875 17.046875 8.890625 
Q 21.734375 4.984375 26.953125 4.984375 
Q 36.375 4.984375 40.234375 14.703125 
z
M 39.796875 29.6875 
Q 39.703125 33.84375 38.421875 37.0625 
Q 37.15625 40.28125 34.125 42.546875 
Q 31.109375 44.828125 26.859375 44.828125 
Q 21.140625 44.828125 17.15625 40.71875 
Q 13.1875 36.625 12.703125 29.6875 
z
" id="FranklinGothic-Book-101"/>
       <path d="M 46.53125 0 
L 39.359375 0 
L 39.359375 31.6875 
Q 39.359375 38.53125 36.375 41.3125 
Q 33.40625 44.09375 29.15625 44.09375 
Q 23.296875 44.09375 19.3125 39.40625 
Q 15.328125 34.71875 15.328125 27.046875 
L 15.328125 0 
L 7.671875 0 
L 7.671875 49.3125 
L 14.796875 49.3125 
L 14.796875 40.234375 
Q 20.796875 50.6875 30.375 50.6875 
Q 35.890625 50.6875 39.765625 47.828125 
Q 43.65625 44.96875 45.09375 41.40625 
Q 46.53125 37.84375 46.53125 28.515625 
z
" id="FranklinGothic-Book-110"/>
       <path d="M 46.1875 66.65625 
L 46.1875 0 
L 39.203125 0 
L 39.203125 8.453125 
Q 34.03125 -1.3125 23.640625 -1.3125 
Q 14.984375 -1.3125 9.421875 5.9375 
Q 3.859375 13.1875 3.859375 24.265625 
Q 3.859375 35.59375 9.375 43.140625 
Q 14.890625 50.6875 24.03125 50.6875 
Q 32.90625 50.6875 38.53125 42.578125 
L 38.53125 66.65625 
z
M 38.53125 30.28125 
Q 38.53125 36.765625 34.5625 40.671875 
Q 30.609375 44.578125 25.34375 44.578125 
Q 19.625 44.578125 15.9375 39.5 
Q 12.25 34.421875 12.25 25.25 
Q 12.25 15.328125 15.640625 10.15625 
Q 19.046875 4.984375 24.953125 4.984375 
Q 30.328125 4.984375 34.421875 9.46875 
Q 38.53125 13.96875 38.53125 20.015625 
z
" id="FranklinGothic-Book-100"/>
       <path id="FranklinGothic-Book-32"/>
       <path d="M 24.703125 -16.65625 
L 19.578125 -16.65625 
Q 5.21875 2.203125 5.21875 25.09375 
Q 5.21875 46.96875 19.578125 66.65625 
L 24.703125 66.65625 
Q 12.359375 48.25 12.359375 25 
Q 12.359375 2.828125 24.703125 -16.65625 
z
" id="FranklinGothic-Book-40"/>
       <path d="M 31.296875 40.671875 
Q 27.390625 40.671875 24.703125 37.953125 
Q 22.015625 35.25 22.015625 31.34375 
Q 22.015625 27.484375 24.703125 24.828125 
Q 27.390625 22.171875 31.296875 22.171875 
Q 35.203125 22.171875 37.890625 24.828125 
Q 40.578125 27.484375 40.578125 31.34375 
Q 40.578125 35.203125 37.859375 37.9375 
Q 35.15625 40.671875 31.296875 40.671875 
z
M 31.296875 46.96875 
Q 34.421875 46.96875 37.296875 45.765625 
Q 40.1875 44.578125 42.28125 42.328125 
Q 44.53125 40.140625 45.65625 37.34375 
Q 46.78125 34.5625 46.78125 31.34375 
Q 46.78125 24.90625 42.265625 20.4375 
Q 37.75 15.96875 31.203125 15.96875 
Q 24.609375 15.96875 20.21875 20.359375 
Q 15.828125 24.75 15.828125 31.34375 
Q 15.828125 37.890625 20.3125 42.421875 
Q 24.8125 46.96875 31.296875 46.96875 
z
" id="DejaVuSans-8728"/>
       <path d="M 48.296875 22.40625 
L 55.90625 20.703125 
Q 50.4375 -1.3125 31.203125 -1.3125 
Q 18.5625 -1.3125 11.359375 8.890625 
Q 4.15625 19.09375 4.15625 33.984375 
Q 4.15625 49.359375 11.671875 58.6875 
Q 19.1875 68.015625 31.84375 68.015625 
Q 50.59375 68.015625 55.90625 46.578125 
L 48.046875 45.015625 
Q 43.75 60.9375 31.78125 60.9375 
Q 22.953125 60.9375 18.09375 53.53125 
Q 13.234375 46.140625 13.234375 32.765625 
Q 13.234375 20.515625 18.203125 13.109375 
Q 23.1875 5.71875 31.390625 5.71875 
Q 44.140625 5.71875 48.296875 22.40625 
z
" id="FranklinGothic-Book-67"/>
       <path d="M 1.859375 -16.65625 
L -4.6875 -16.65625 
L 35.546875 66.65625 
L 42.09375 66.65625 
z
" id="FranklinGothic-Book-47"/>
       <path d="M 36.8125 17.28125 
L 43.75 16.0625 
Q 42.28125 7.90625 37.25 3.296875 
Q 32.234375 -1.3125 24.703125 -1.3125 
Q 14.5 -1.3125 9.15625 6.203125 
Q 3.8125 13.71875 3.8125 24.5625 
Q 3.8125 35.796875 9.453125 43.234375 
Q 15.09375 50.6875 24.8125 50.6875 
Q 32.859375 50.6875 37.71875 45.875 
Q 42.578125 41.0625 43.75 33.453125 
L 36.8125 32.125 
Q 34.859375 44.34375 25 44.34375 
Q 18.65625 44.34375 15.234375 38.9375 
Q 11.8125 33.546875 11.8125 24.953125 
Q 11.8125 15.484375 15.203125 10.234375 
Q 18.609375 4.984375 24.75 4.984375 
Q 34.28125 4.984375 36.8125 17.28125 
z
" id="FranklinGothic-Book-99"/>
       <path d="M 46.296875 0 
L 38.671875 0 
Q 38.234375 2.34375 37.796875 8.890625 
Q 32.71875 -1.3125 20.515625 -1.3125 
Q 12.203125 -1.3125 7.765625 3.078125 
Q 3.328125 7.46875 3.328125 13.625 
Q 3.328125 21.09375 9.671875 25.90625 
Q 16.015625 30.71875 31.25 30.71875 
Q 33.296875 30.71875 37.796875 30.515625 
Q 37.796875 36.375 36.890625 38.984375 
Q 35.984375 41.609375 33.046875 43.171875 
Q 30.125 44.734375 25.34375 44.734375 
Q 13.671875 44.734375 11.765625 35.84375 
L 4.6875 37.0625 
Q 7.28125 50.6875 26.46875 50.6875 
Q 36.671875 50.6875 40.9375 46.171875 
Q 45.21875 41.65625 45.21875 30.515625 
L 45.21875 9.578125 
Q 45.21875 4.34375 46.296875 0 
z
M 37.796875 24.65625 
Q 33.109375 24.953125 30.671875 24.953125 
Q 21.578125 24.953125 16.546875 21.96875 
Q 11.53125 19 11.53125 13.28125 
Q 11.53125 9.671875 14.234375 7.125 
Q 16.9375 4.59375 22.078125 4.59375 
Q 29 4.59375 33.46875 9.625 
Q 37.9375 14.65625 37.9375 21.4375 
Q 37.9375 22.796875 37.796875 24.65625 
z
" id="FranklinGothic-Book-97"/>
       <path d="M 4.640625 66.65625 
L 9.71875 66.65625 
Q 24.125 47.796875 24.125 24.90625 
Q 24.125 3.03125 9.71875 -16.65625 
L 4.640625 -16.65625 
Q 17 1.765625 17 25 
Q 17 47.171875 4.640625 66.65625 
z
" id="FranklinGothic-Book-41"/>
      </defs>
      <use transform="translate(0 0.840625)" xlink:href="#FranklinGothic-Book-84"/>
      <use transform="translate(48.535156 0.840625)" xlink:href="#FranklinGothic-Book-114"/>
      <use transform="translate(81.494141 0.840625)" xlink:href="#FranklinGothic-Book-101"/>
      <use transform="translate(133.544922 0.840625)" xlink:href="#FranklinGothic-Book-110"/>
      <use transform="translate(187.744141 0.840625)" xlink:href="#FranklinGothic-Book-100"/>
      <use transform="translate(241.601562 0.840625)" xlink:href="#FranklinGothic-Book-32"/>
      <use transform="translate(266.601562 0.840625)" xlink:href="#FranklinGothic-Book-40"/>
      <use transform="translate(294.306316 39.121875)scale(0.7)" xlink:href="#DejaVuSans-8728"/>
      <use transform="translate(338.261069 0.840625)" xlink:href="#FranklinGothic-Book-67"/>
      <use transform="translate(396.171226 0.840625)" xlink:href="#FranklinGothic-Book-47"/>
      <use transform="translate(441.581382 0.840625)" xlink:href="#FranklinGothic-Book-100"/>
      <use transform="translate(495.438804 0.840625)" xlink:href="#FranklinGothic-Book-101"/>
      <use transform="translate(547.489585 0.840625)" xlink:href="#FranklinGothic-Book-99"/>
      <use transform="translate(594.071616 0.840625)" xlink:href="#FranklinGothic-Book-97"/>
      <use transform="translate(646.952476 0.840625)" xlink:href="#FranklinGothic-Book-100"/>
      <use transform="translate(700.809897 0.840625)" xlink:href="#FranklinGothic-Book-101"/>
      <use transform="translate(752.860679 0.840625)" xlink:href="#FranklinGothic-Book-41"/>
     </g>
    </g>
   </g>
   <g id="text_7">
    <!-- Trends -->
    <g style="fill:#696969;" transform="translate(246.68973 607.905)scale(0.25 -0.25)">
     <defs>
      <path d="M 1.03125 12.796875 
L 8.34375 14.3125 
Q 10.796875 4.984375 23.78125 4.984375 
Q 28.5625 4.984375 31.875 7.125 
Q 35.203125 9.28125 35.203125 13.1875 
Q 35.203125 19 26.765625 20.5625 
L 16.359375 22.515625 
Q 10.25 23.6875 6.640625 27.09375 
Q 3.03125 30.515625 3.03125 36.140625 
Q 3.03125 42.328125 7.953125 46.5 
Q 12.890625 50.6875 21.234375 50.6875 
Q 37.3125 50.6875 41.0625 38.140625 
L 34.03125 36.625 
Q 31 44.34375 21.578125 44.34375 
Q 16.890625 44.34375 13.890625 42.40625 
Q 10.890625 40.484375 10.890625 37.015625 
Q 10.890625 31.546875 18.5625 30.125 
L 28.171875 28.421875 
Q 43.265625 25.6875 43.265625 13.8125 
Q 43.265625 7.03125 37.640625 2.859375 
Q 32.03125 -1.3125 22.703125 -1.3125 
Q 5.171875 -1.3125 1.03125 12.796875 
z
" id="FranklinGothic-Book-115"/>
     </defs>
     <use xlink:href="#FranklinGothic-Book-84"/>
     <use x="41.785156" xlink:href="#FranklinGothic-Book-114"/>
     <use x="74.744141" xlink:href="#FranklinGothic-Book-101"/>
     <use x="126.794922" xlink:href="#FranklinGothic-Book-110"/>
     <use x="180.994141" xlink:href="#FranklinGothic-Book-100"/>
     <use x="234.851562" xlink:href="#FranklinGothic-Book-115"/>
    </g>
   </g>
   <g id="text_8">
    <!-- 1901-1930 -->
    <g style="fill:#696969;" transform="translate(220.890902 639.09)scale(0.25 -0.25)">
     <defs>
      <path d="M 55.859375 6.203125 
L 55.859375 0 
L 9.1875 0 
L 9.1875 6.203125 
L 29.203125 6.203125 
L 29.203125 57.671875 
Q 20.359375 48.4375 10.84375 43.265625 
L 10.84375 51.65625 
Q 23.96875 58.546875 31.203125 68.015625 
L 37.15625 68.015625 
L 37.15625 6.203125 
z
" id="FranklinGothic-Book-49"/>
      <path d="M 5.71875 12.15625 
L 12.40625 14.59375 
Q 16.546875 5.375 26.375 5.375 
Q 35.890625 5.375 40.703125 13.375 
Q 45.515625 21.390625 45.65625 35.109375 
Q 39.109375 23.09375 25.984375 23.09375 
Q 16.703125 23.09375 10.40625 29.421875 
Q 4.109375 35.75 4.109375 45.0625 
Q 4.109375 54.546875 10.71875 61.28125 
Q 17.328125 68.015625 27.59375 68.015625 
Q 40.140625 68.015625 46.828125 59.203125 
Q 53.515625 50.390625 53.515625 34.96875 
Q 53.515625 18.75 46.4375 8.71875 
Q 39.359375 -1.3125 26.265625 -1.3125 
Q 10.984375 -1.3125 5.71875 12.15625 
z
M 27.828125 29.78125 
Q 34.71875 29.78125 39.375 34.59375 
Q 44.046875 39.40625 44.046875 45.84375 
Q 44.046875 52.09375 39.625 56.578125 
Q 35.203125 61.078125 27.984375 61.078125 
Q 20.65625 61.078125 16.40625 56.46875 
Q 12.15625 51.859375 12.15625 45.21875 
Q 12.15625 38.09375 16.859375 33.9375 
Q 21.578125 29.78125 27.828125 29.78125 
z
" id="FranklinGothic-Book-57"/>
      <path d="M 23.53125 27.984375 
L 23.53125 22.015625 
L 1.46875 22.015625 
L 1.46875 27.984375 
z
" id="FranklinGothic-Book-45"/>
      <path d="M 19.34375 31.34375 
L 19.34375 37.984375 
L 26.953125 37.984375 
Q 35.296875 37.984375 38.890625 41.40625 
Q 42.484375 44.828125 42.484375 49.703125 
Q 42.484375 55.078125 38.46875 58.21875 
Q 34.46875 61.375 28.421875 61.375 
Q 17.1875 61.375 12.890625 50.53125 
L 5.375 52.6875 
Q 11.8125 68.015625 29.203125 68.015625 
Q 38.96875 68.015625 44.96875 62.8125 
Q 50.984375 57.625 50.984375 50.296875 
Q 50.984375 44.625 47.359375 40.40625 
Q 43.75 36.1875 38.09375 35.109375 
Q 44.4375 34.1875 49 29.78125 
Q 53.5625 25.390625 53.5625 18.40625 
Q 53.5625 10.0625 46.765625 4.375 
Q 39.984375 -1.3125 28.171875 -1.3125 
Q 18.796875 -1.3125 12.125 3.125 
Q 5.46875 7.5625 2.9375 14.9375 
L 10.6875 17.53125 
Q 14.203125 5.46875 28.03125 5.46875 
Q 37.015625 5.46875 40.9375 9.296875 
Q 44.875 13.140625 44.875 18.453125 
Q 44.875 24.21875 40.15625 27.78125 
Q 35.453125 31.34375 26.953125 31.34375 
z
" id="FranklinGothic-Book-51"/>
     </defs>
     <use xlink:href="#FranklinGothic-Book-49"/>
     <use x="57.267578" xlink:href="#FranklinGothic-Book-57"/>
     <use x="115.910156" xlink:href="#FranklinGothic-Book-48"/>
     <use x="170.802734" xlink:href="#FranklinGothic-Book-49"/>
     <use x="229.445312" xlink:href="#FranklinGothic-Book-45"/>
     <use x="254.445312" xlink:href="#FranklinGothic-Book-49"/>
     <use x="311.712891" xlink:href="#FranklinGothic-Book-57"/>
     <use x="370.355469" xlink:href="#FranklinGothic-Book-51"/>
     <use x="428.998047" xlink:href="#FranklinGothic-Book-48"/>
    </g>
   </g>
   <g id="text_9">
    <!-- Trends -->
    <g style="fill:#696969;" transform="translate(246.68973 607.905)scale(0.25 -0.25)">
     <use xlink:href="#FranklinGothic-Book-84"/>
     <use x="41.785156" xlink:href="#FranklinGothic-Book-114"/>
     <use x="74.744141" xlink:href="#FranklinGothic-Book-101"/>
     <use x="126.794922" xlink:href="#FranklinGothic-Book-110"/>
     <use x="180.994141" xlink:href="#FranklinGothic-Book-100"/>
     <use x="234.851562" xlink:href="#FranklinGothic-Book-115"/>
    </g>
   </g>
   <g id="text_10">
    <!-- 1901-1930 -->
    <g style="fill:#696969;" transform="translate(220.890902 639.09)scale(0.25 -0.25)">
     <use xlink:href="#FranklinGothic-Book-49"/>
     <use x="57.267578" xlink:href="#FranklinGothic-Book-57"/>
     <use x="115.910156" xlink:href="#FranklinGothic-Book-48"/>
     <use x="170.802734" xlink:href="#FranklinGothic-Book-49"/>
     <use x="229.445312" xlink:href="#FranklinGothic-Book-45"/>
     <use x="254.445312" xlink:href="#FranklinGothic-Book-49"/>
     <use x="311.712891" xlink:href="#FranklinGothic-Book-57"/>
     <use x="370.355469" xlink:href="#FranklinGothic-Book-51"/>
     <use x="428.998047" xlink:href="#FranklinGothic-Book-48"/>
    </g>
   </g>
   <g id="text_11">
    <!-- Trends -->
    <g style="fill:#696969;" transform="translate(246.68973 607.905)scale(0.25 -0.25)">
     <use xlink:href="#FranklinGothic-Book-84"/>
     <use x="41.785156" xlink:href="#FranklinGothic-Book-114"/>
     <use x="74.744141" xlink:href="#FranklinGothic-Book-101"/>
     <use x="126.794922" xlink:href="#FranklinGothic-Book-110"/>
     <use x="180.994141" xlink:href="#FranklinGothic-Book-100"/>
     <use x="234.851562" xlink:href="#FranklinGothic-Book-115"/>
    </g>
   </g>
   <g id="text_12">
    <!-- 1901-1930 -->
    <g style="fill:#696969;" transform="translate(220.890902 639.09)scale(0.25 -0.25)">
     <use xlink:href="#FranklinGothic-Book-49"/>
     <use x="57.267578" xlink:href="#FranklinGothic-Book-57"/>
     <use x="115.910156" xlink:href="#FranklinGothic-Book-48"/>
     <use x="170.802734" xlink:href="#FranklinGothic-Book-49"/>
     <use x="229.445312" xlink:href="#FranklinGothic-Book-45"/>
     <use x="254.445312" xlink:href="#FranklinGothic-Book-49"/>
     <use x="311.712891" xlink:href="#FranklinGothic-Book-57"/>
     <use x="370.355469" xlink:href="#FranklinGothic-Book-51"/>
     <use x="428.998047" xlink:href="#FranklinGothic-Book-48"/>
    </g>
   </g>
   <g id="text_13">
    <!-- Trends -->
    <g style="fill:#696969;" transform="translate(447.921886 607.905)scale(0.25 -0.25)">
     <use xlink:href="#FranklinGothic-Book-84"/>
     <use x="41.785156" xlink:href="#FranklinGothic-Book-114"/>
     <use x="74.744141" xlink:href="#FranklinGothic-Book-101"/>
     <use x="126.794922" xlink:href="#FranklinGothic-Book-110"/>
     <use x="180.994141" xlink:href="#FranklinGothic-Book-100"/>
     <use x="234.851562" xlink:href="#FranklinGothic-Book-115"/>
    </g>
   </g>
   <g id="text_14">
    <!-- 1931-1960 -->
    <g style="fill:#696969;" transform="translate(422.248058 639.09)scale(0.25 -0.25)">
     <use xlink:href="#FranklinGothic-Book-49"/>
     <use x="57.267578" xlink:href="#FranklinGothic-Book-57"/>
     <use x="115.910156" xlink:href="#FranklinGothic-Book-51"/>
     <use x="169.802734" xlink:href="#FranklinGothic-Book-49"/>
     <use x="228.445312" xlink:href="#FranklinGothic-Book-45"/>
     <use x="253.445312" xlink:href="#FranklinGothic-Book-49"/>
     <use x="310.712891" xlink:href="#FranklinGothic-Book-57"/>
     <use x="369.355469" xlink:href="#FranklinGothic-Book-54"/>
     <use x="427.998047" xlink:href="#FranklinGothic-Book-48"/>
    </g>
   </g>
   <g id="text_15">
    <!-- Trends -->
    <g style="fill:#696969;" transform="translate(447.921886 607.905)scale(0.25 -0.25)">
     <use xlink:href="#FranklinGothic-Book-84"/>
     <use x="41.785156" xlink:href="#FranklinGothic-Book-114"/>
     <use x="74.744141" xlink:href="#FranklinGothic-Book-101"/>
     <use x="126.794922" xlink:href="#FranklinGothic-Book-110"/>
     <use x="180.994141" xlink:href="#FranklinGothic-Book-100"/>
     <use x="234.851562" xlink:href="#FranklinGothic-Book-115"/>
    </g>
   </g>
   <g id="text_16">
    <!-- 1931-1960 -->
    <g style="fill:#696969;" transform="translate(422.248058 639.09)scale(0.25 -0.25)">
     <use xlink:href="#FranklinGothic-Book-49"/>
     <use x="57.267578" xlink:href="#FranklinGothic-Book-57"/>
     <use x="115.910156" xlink:href="#FranklinGothic-Book-51"/>
     <use x="169.802734" xlink:href="#FranklinGothic-Book-49"/>
     <use x="228.445312" xlink:href="#FranklinGothic-Book-45"/>
     <use x="253.445312" xlink:href="#FranklinGothic-Book-49"/>
     <use x="310.712891" xlink:href="#FranklinGothic-Book-57"/>
     <use x="369.355469" xlink:href="#FranklinGothic-Book-54"/>
     <use x="427.998047" xlink:href="#FranklinGothic-Book-48"/>
    </g>
   </g>
   <g id="text_17">
    <!-- Trends -->
    <g style="fill:#696969;" transform="translate(447.921886 607.905)scale(0.25 -0.25)">
     <use xlink:href="#FranklinGothic-Book-84"/>
     <use x="41.785156" xlink:href="#FranklinGothic-Book-114"/>
     <use x="74.744141" xlink:href="#FranklinGothic-Book-101"/>
     <use x="126.794922" xlink:href="#FranklinGothic-Book-110"/>
     <use x="180.994141" xlink:href="#FranklinGothic-Book-100"/>
     <use x="234.851562" xlink:href="#FranklinGothic-Book-115"/>
    </g>
   </g>
   <g id="text_18">
    <!-- 1931-1960 -->
    <g style="fill:#696969;" transform="translate(422.248058 639.09)scale(0.25 -0.25)">
     <use xlink:href="#FranklinGothic-Book-49"/>
     <use x="57.267578" xlink:href="#FranklinGothic-Book-57"/>
     <use x="115.910156" xlink:href="#FranklinGothic-Book-51"/>
     <use x="169.802734" xlink:href="#FranklinGothic-Book-49"/>
     <use x="228.445312" xlink:href="#FranklinGothic-Book-45"/>
     <use x="253.445312" xlink:href="#FranklinGothic-Book-49"/>
     <use x="310.712891" xlink:href="#FranklinGothic-Book-57"/>
     <use x="369.355469" xlink:href="#FranklinGothic-Book-54"/>
     <use x="427.998047" xlink:href="#FranklinGothic-Book-48"/>
    </g>
   </g>
   <g id="text_19">
    <!-- Trends -->
    <g style="fill:#696969;" transform="translate(649.154043 607.905)scale(0.25 -0.25)">
     <use xlink:href="#FranklinGothic-Book-84"/>
     <use x="41.785156" xlink:href="#FranklinGothic-Book-114"/>
     <use x="74.744141" xlink:href="#FranklinGothic-Book-101"/>
     <use x="126.794922" xlink:href="#FranklinGothic-Book-110"/>
     <use x="180.994141" xlink:href="#FranklinGothic-Book-100"/>
     <use x="234.851562" xlink:href="#FranklinGothic-Book-115"/>
    </g>
   </g>
   <g id="text_20">
    <!-- 1961-1990 -->
    <g style="fill:#696969;" transform="translate(623.37084 639.09)scale(0.25 -0.25)">
     <use xlink:href="#FranklinGothic-Book-49"/>
     <use x="57.267578" xlink:href="#FranklinGothic-Book-57"/>
     <use x="115.910156" xlink:href="#FranklinGothic-Book-54"/>
     <use x="170.677734" xlink:href="#FranklinGothic-Book-49"/>
     <use x="229.320312" xlink:href="#FranklinGothic-Book-45"/>
     <use x="254.320312" xlink:href="#FranklinGothic-Book-49"/>
     <use x="311.587891" xlink:href="#FranklinGothic-Book-57"/>
     <use x="370.230469" xlink:href="#FranklinGothic-Book-57"/>
     <use x="428.873047" xlink:href="#FranklinGothic-Book-48"/>
    </g>
   </g>
   <g id="text_21">
    <!-- Trends -->
    <g style="fill:#696969;" transform="translate(649.154043 607.905)scale(0.25 -0.25)">
     <use xlink:href="#FranklinGothic-Book-84"/>
     <use x="41.785156" xlink:href="#FranklinGothic-Book-114"/>
     <use x="74.744141" xlink:href="#FranklinGothic-Book-101"/>
     <use x="126.794922" xlink:href="#FranklinGothic-Book-110"/>
     <use x="180.994141" xlink:href="#FranklinGothic-Book-100"/>
     <use x="234.851562" xlink:href="#FranklinGothic-Book-115"/>
    </g>
   </g>
   <g id="text_22">
    <!-- 1961-1990 -->
    <g style="fill:#696969;" transform="translate(623.37084 639.09)scale(0.25 -0.25)">
     <use xlink:href="#FranklinGothic-Book-49"/>
     <use x="57.267578" xlink:href="#FranklinGothic-Book-57"/>
     <use x="115.910156" xlink:href="#FranklinGothic-Book-54"/>
     <use x="170.677734" xlink:href="#FranklinGothic-Book-49"/>
     <use x="229.320312" xlink:href="#FranklinGothic-Book-45"/>
     <use x="254.320312" xlink:href="#FranklinGothic-Book-49"/>
     <use x="311.587891" xlink:href="#FranklinGothic-Book-57"/>
     <use x="370.230469" xlink:href="#FranklinGothic-Book-57"/>
     <use x="428.873047" xlink:href="#FranklinGothic-Book-48"/>
    </g>
   </g>
   <g id="text_23">
    <!-- Trends -->
    <g style="fill:#696969;" transform="translate(649.154043 607.905)scale(0.25 -0.25)">
     <use xlink:href="#FranklinGothic-Book-84"/>
     <use x="41.785156" xlink:href="#FranklinGothic-Book-114"/>
     <use x="74.744141" xlink:href="#FranklinGothic-Book-101"/>
     <use x="126.794922" xlink:href="#FranklinGothic-Book-110"/>
     <use x="180.994141" xlink:href="#FranklinGothic-Book-100"/>
     <use x="234.851562" xlink:href="#FranklinGothic-Book-115"/>
    </g>
   </g>
   <g id="text_24">
    <!-- 1961-1990 -->
    <g style="fill:#696969;" transform="translate(623.37084 639.09)scale(0.25 -0.25)">
     <use xlink:href="#FranklinGothic-Book-49"/>
     <use x="57.267578" xlink:href="#FranklinGothic-Book-57"/>
     <use x="115.910156" xlink:href="#FranklinGothic-Book-54"/>
     <use x="170.677734" xlink:href="#FranklinGothic-Book-49"/>
     <use x="229.320312" xlink:href="#FranklinGothic-Book-45"/>
     <use x="254.320312" xlink:href="#FranklinGothic-Book-49"/>
     <use x="311.587891" xlink:href="#FranklinGothic-Book-57"/>
     <use x="370.230469" xlink:href="#FranklinGothic-Book-57"/>
     <use x="428.873047" xlink:href="#FranklinGothic-Book-48"/>
    </g>
   </g>
   <g id="text_25">
    <!-- Trends -->
    <g style="fill:#696969;" transform="translate(857.093938 607.905)scale(0.25 -0.25)">
     <use xlink:href="#FranklinGothic-Book-84"/>
     <use x="41.785156" xlink:href="#FranklinGothic-Book-114"/>
     <use x="74.744141" xlink:href="#FranklinGothic-Book-101"/>
     <use x="126.794922" xlink:href="#FranklinGothic-Book-110"/>
     <use x="180.994141" xlink:href="#FranklinGothic-Book-100"/>
     <use x="234.851562" xlink:href="#FranklinGothic-Book-115"/>
    </g>
   </g>
   <g id="text_26">
    <!-- 1991-2022 -->
    <g style="fill:#696969;" transform="translate(831.170109 639.09)scale(0.25 -0.25)">
     <use xlink:href="#FranklinGothic-Book-49"/>
     <use x="57.267578" xlink:href="#FranklinGothic-Book-57"/>
     <use x="115.910156" xlink:href="#FranklinGothic-Book-57"/>
     <use x="170.427734" xlink:href="#FranklinGothic-Book-49"/>
     <use x="229.070312" xlink:href="#FranklinGothic-Book-45"/>
     <use x="254.070312" xlink:href="#FranklinGothic-Book-50"/>
     <use x="312.712891" xlink:href="#FranklinGothic-Book-48"/>
     <use x="371.355469" xlink:href="#FranklinGothic-Book-50"/>
     <use x="429.998047" xlink:href="#FranklinGothic-Book-50"/>
    </g>
   </g>
   <g id="text_27">
    <!-- Trends -->
    <g style="fill:#696969;" transform="translate(857.093938 607.905)scale(0.25 -0.25)">
     <use xlink:href="#FranklinGothic-Book-84"/>
     <use x="41.785156" xlink:href="#FranklinGothic-Book-114"/>
     <use x="74.744141" xlink:href="#FranklinGothic-Book-101"/>
     <use x="126.794922" xlink:href="#FranklinGothic-Book-110"/>
     <use x="180.994141" xlink:href="#FranklinGothic-Book-100"/>
     <use x="234.851562" xlink:href="#FranklinGothic-Book-115"/>
    </g>
   </g>
   <g id="text_28">
    <!-- 1991-2022 -->
    <g style="fill:#696969;" transform="translate(831.170109 639.09)scale(0.25 -0.25)">
     <use xlink:href="#FranklinGothic-Book-49"/>
     <use x="57.267578" xlink:href="#FranklinGothic-Book-57"/>
     <use x="115.910156" xlink:href="#FranklinGothic-Book-57"/>
     <use x="170.427734" xlink:href="#FranklinGothic-Book-49"/>
     <use x="229.070312" xlink:href="#FranklinGothic-Book-45"/>
     <use x="254.070312" xlink:href="#FranklinGothic-Book-50"/>
     <use x="312.712891" xlink:href="#FranklinGothic-Book-48"/>
     <use x="371.355469" xlink:href="#FranklinGothic-Book-50"/>
     <use x="429.998047" xlink:href="#FranklinGothic-Book-50"/>
    </g>
   </g>
   <g id="text_29">
    <!-- Trends -->
    <g style="fill:#696969;" transform="translate(857.093938 607.905)scale(0.25 -0.25)">
     <use xlink:href="#FranklinGothic-Book-84"/>
     <use x="41.785156" xlink:href="#FranklinGothic-Book-114"/>
     <use x="74.744141" xlink:href="#FranklinGothic-Book-101"/>
     <use x="126.794922" xlink:href="#FranklinGothic-Book-110"/>
     <use x="180.994141" xlink:href="#FranklinGothic-Book-100"/>
     <use x="234.851562" xlink:href="#FranklinGothic-Book-115"/>
    </g>
   </g>
   <g id="text_30">
    <!-- 1991-2022 -->
    <g style="fill:#696969;" transform="translate(831.170109 639.09)scale(0.25 -0.25)">
     <use xlink:href="#FranklinGothic-Book-49"/>
     <use x="57.267578" xlink:href="#FranklinGothic-Book-57"/>
     <use x="115.910156" xlink:href="#FranklinGothic-Book-57"/>
     <use x="170.427734" xlink:href="#FranklinGothic-Book-49"/>
     <use x="229.070312" xlink:href="#FranklinGothic-Book-45"/>
     <use x="254.070312" xlink:href="#FranklinGothic-Book-50"/>
     <use x="312.712891" xlink:href="#FranklinGothic-Book-48"/>
     <use x="371.355469" xlink:href="#FranklinGothic-Book-50"/>
     <use x="429.998047" xlink:href="#FranklinGothic-Book-50"/>
    </g>
   </g>
   <g id="text_31">
    <!-- South America -->
    <g style="fill:#f33d3d;" transform="translate(191.289557 171.315)scale(0.25 -0.25)">
     <defs>
      <path d="M 1.03125 17.71875 
L 8.546875 19.4375 
Q 13.09375 5.8125 28.21875 5.8125 
Q 36.140625 5.8125 40.140625 9.15625 
Q 44.140625 12.5 44.140625 18.109375 
Q 44.140625 22.359375 41.078125 24.953125 
Q 38.03125 27.546875 34.03125 28.515625 
L 20.703125 31.84375 
Q 15.53125 33.15625 12.234375 35.03125 
Q 8.9375 36.921875 6.640625 40.828125 
Q 4.34375 44.734375 4.34375 49.75 
Q 4.34375 58.109375 10.640625 63.0625 
Q 16.9375 68.015625 26.8125 68.015625 
Q 44.96875 68.015625 50.6875 51.5625 
L 43.109375 49.3125 
Q 41.796875 55.171875 36.90625 58.171875 
Q 32.03125 61.1875 26.515625 61.1875 
Q 21.046875 61.1875 16.765625 58.296875 
Q 12.5 55.421875 12.5 50.140625 
Q 12.5 42.78125 23.34375 40.1875 
L 35.796875 37.203125 
Q 52.875 33.109375 52.875 18.796875 
Q 52.875 10.15625 46.453125 4.421875 
Q 40.046875 -1.3125 28.375 -1.3125 
Q 7.671875 -1.3125 1.03125 17.71875 
z
" id="FranklinGothic-Book-83"/>
      <path d="M 25.34375 -1.3125 
Q 15.1875 -1.3125 9.5 6.203125 
Q 3.8125 13.71875 3.8125 24.859375 
Q 3.8125 36.625 10.203125 43.65625 
Q 16.609375 50.6875 26.125 50.6875 
Q 36.328125 50.6875 42.203125 43.28125 
Q 48.09375 35.890625 48.09375 24.8125 
Q 48.09375 13.28125 41.75 5.984375 
Q 35.40625 -1.3125 25.34375 -1.3125 
z
M 25.921875 4.984375 
Q 31.78125 4.984375 35.734375 9.8125 
Q 39.703125 14.65625 39.703125 24.859375 
Q 39.703125 35.109375 35.546875 39.71875 
Q 31.390625 44.34375 25.828125 44.34375 
Q 20.125 44.34375 16.15625 39.671875 
Q 12.203125 35.015625 12.203125 24.90625 
Q 12.203125 14.203125 16.15625 9.59375 
Q 20.125 4.984375 25.921875 4.984375 
z
" id="FranklinGothic-Book-111"/>
      <path d="M 46.484375 0 
L 39.59375 0 
L 39.59375 9.421875 
Q 34.328125 -1.3125 23.875 -1.3125 
Q 16.3125 -1.3125 11.984375 3.65625 
Q 7.671875 8.640625 7.671875 17.828125 
L 7.671875 49.3125 
L 15.328125 49.3125 
L 15.328125 17.828125 
Q 15.328125 10.5 18.375 7.734375 
Q 21.4375 4.984375 25.09375 4.984375 
Q 28.8125 4.984375 31.8125 7.078125 
Q 34.8125 9.1875 36.8125 13.0625 
Q 38.8125 16.9375 38.8125 21.53125 
L 38.8125 49.3125 
L 46.484375 49.3125 
z
" id="FranklinGothic-Book-117"/>
      <path d="M 30.03125 5.28125 
L 30.03125 -0.78125 
Q 25.984375 -1.3125 23 -1.3125 
Q 8.6875 -1.3125 8.6875 13.625 
L 8.6875 43.3125 
L -0.046875 43.3125 
L -0.046875 49.3125 
L 8.6875 49.3125 
L 9.03125 61.71875 
L 16.15625 62.40625 
L 16.15625 49.3125 
L 27.203125 49.3125 
L 27.203125 43.3125 
L 16.15625 43.3125 
L 16.15625 12.359375 
Q 16.15625 4.734375 24.078125 4.734375 
Q 26.703125 4.734375 30.03125 5.28125 
z
" id="FranklinGothic-Book-116"/>
      <path d="M 46.34375 0 
L 38.671875 0 
L 38.671875 29.9375 
Q 38.671875 35.203125 38.015625 37.84375 
Q 37.359375 40.484375 34.890625 42.40625 
Q 32.421875 44.34375 29.203125 44.34375 
Q 23.296875 44.34375 19.3125 39.5 
Q 15.328125 34.671875 15.328125 26.5625 
L 15.328125 0 
L 7.671875 0 
L 7.671875 66.65625 
L 15.328125 66.65625 
L 15.328125 40.234375 
Q 20.5625 50.6875 30.28125 50.6875 
Q 34.625 50.6875 38.015625 48.96875 
Q 41.40625 47.265625 43.203125 44.484375 
Q 45.015625 41.703125 45.671875 38.984375 
Q 46.34375 36.28125 46.34375 29.9375 
z
" id="FranklinGothic-Book-104"/>
      <path d="M 53.21875 0 
L 44.671875 0 
L 37.9375 19.484375 
L 13.28125 19.484375 
L 7.328125 0 
L 0.34375 0 
L 21.96875 66.65625 
L 31.5 66.65625 
z
M 36.1875 25.734375 
L 25.921875 57.765625 
L 15.578125 25.734375 
z
" id="FranklinGothic-Book-65"/>
      <path d="M 73.734375 0 
L 66.265625 0 
L 66.265625 30.671875 
Q 66.265625 35.40625 65.59375 37.765625 
Q 64.9375 40.140625 62.390625 42.109375 
Q 59.859375 44.09375 56.6875 44.09375 
Q 52.296875 44.09375 48.21875 40.0625 
Q 44.140625 36.03125 44.140625 27.78125 
L 44.140625 0 
L 36.71875 0 
L 36.71875 32.46875 
Q 36.71875 38.96875 33.609375 41.65625 
Q 30.515625 44.34375 27.09375 44.34375 
Q 22.21875 44.34375 18.59375 40.140625 
Q 14.984375 35.9375 14.984375 29.5 
L 14.984375 0 
L 7.671875 0 
L 7.671875 49.3125 
L 14.265625 49.3125 
L 14.265625 39.84375 
Q 19.78125 50.6875 29.4375 50.6875 
Q 34.765625 50.6875 38.46875 47.21875 
Q 42.1875 43.75 43.265625 38.875 
Q 48.34375 50.6875 58.84375 50.6875 
Q 63.875 50.6875 67.65625 47.796875 
Q 71.4375 44.921875 72.578125 41.1875 
Q 73.734375 37.453125 73.734375 30.671875 
z
" id="FranklinGothic-Book-109"/>
      <path d="M 15.578125 66.65625 
L 15.578125 58.15625 
L 7.328125 58.15625 
L 7.328125 66.65625 
z
M 15.328125 49.3125 
L 15.328125 0 
L 7.671875 0 
L 7.671875 49.3125 
z
" id="FranklinGothic-Book-105"/>
     </defs>
     <use xlink:href="#FranklinGothic-Book-83"/>
     <use x="56.933594" xlink:href="#FranklinGothic-Book-111"/>
     <use x="108.886719" xlink:href="#FranklinGothic-Book-117"/>
     <use x="163.037109" xlink:href="#FranklinGothic-Book-116"/>
     <use x="193.798828" xlink:href="#FranklinGothic-Book-104"/>
     <use x="247.802734" xlink:href="#FranklinGothic-Book-32"/>
     <use x="272.802734" xlink:href="#FranklinGothic-Book-65"/>
     <use x="326.367188" xlink:href="#FranklinGothic-Book-109"/>
     <use x="407.763672" xlink:href="#FranklinGothic-Book-101"/>
     <use x="459.814453" xlink:href="#FranklinGothic-Book-114"/>
     <use x="492.773438" xlink:href="#FranklinGothic-Book-105"/>
     <use x="515.722656" xlink:href="#FranklinGothic-Book-99"/>
     <use x="562.304688" xlink:href="#FranklinGothic-Book-97"/>
    </g>
   </g>
   <g id="text_32">
    <!-- Mexico and Central America -->
    <g style="fill:#ffd465;" transform="translate(191.289557 108.945)scale(0.25 -0.25)">
     <defs>
      <path d="M 72.703125 0 
L 64.59375 0 
L 64.59375 58.203125 
L 42.921875 0 
L 37.25 0 
L 15.4375 58.203125 
L 15.4375 0 
L 8.34375 0 
L 8.34375 66.65625 
L 20.75 66.65625 
L 40.828125 13.328125 
L 60.5 66.65625 
L 72.703125 66.65625 
z
" id="FranklinGothic-Book-77"/>
      <path d="M 42.046875 0 
L 33.203125 0 
L 20.65625 20.015625 
L 7.8125 0 
L 0.34375 0 
L 16.9375 25.59375 
L 1.953125 49.3125 
L 10.796875 49.3125 
L 21.34375 32.46875 
L 32.078125 49.3125 
L 39.453125 49.3125 
L 25.09375 27.25 
z
" id="FranklinGothic-Book-120"/>
      <path d="M 15.328125 0 
L 7.671875 0 
L 7.671875 66.65625 
L 15.328125 66.65625 
z
" id="FranklinGothic-Book-108"/>
     </defs>
     <use xlink:href="#FranklinGothic-Book-77"/>
     <use x="81.005859" xlink:href="#FranklinGothic-Book-101"/>
     <use x="131.306641" xlink:href="#FranklinGothic-Book-120"/>
     <use x="173.689453" xlink:href="#FranklinGothic-Book-105"/>
     <use x="196.638672" xlink:href="#FranklinGothic-Book-99"/>
     <use x="243.220703" xlink:href="#FranklinGothic-Book-111"/>
     <use x="295.173828" xlink:href="#FranklinGothic-Book-32"/>
     <use x="320.173828" xlink:href="#FranklinGothic-Book-97"/>
     <use x="373.054688" xlink:href="#FranklinGothic-Book-110"/>
     <use x="427.253906" xlink:href="#FranklinGothic-Book-100"/>
     <use x="481.111328" xlink:href="#FranklinGothic-Book-32"/>
     <use x="506.111328" xlink:href="#FranklinGothic-Book-67"/>
     <use x="564.021484" xlink:href="#FranklinGothic-Book-101"/>
     <use x="616.072266" xlink:href="#FranklinGothic-Book-110"/>
     <use x="670.271484" xlink:href="#FranklinGothic-Book-116"/>
     <use x="701.033203" xlink:href="#FranklinGothic-Book-114"/>
     <use x="733.992188" xlink:href="#FranklinGothic-Book-97"/>
     <use x="786.873047" xlink:href="#FranklinGothic-Book-108"/>
     <use x="809.871094" xlink:href="#FranklinGothic-Book-32"/>
     <use x="834.871094" xlink:href="#FranklinGothic-Book-65"/>
     <use x="888.435547" xlink:href="#FranklinGothic-Book-109"/>
     <use x="969.832031" xlink:href="#FranklinGothic-Book-101"/>
     <use x="1021.882812" xlink:href="#FranklinGothic-Book-114"/>
     <use x="1054.841797" xlink:href="#FranklinGothic-Book-105"/>
     <use x="1077.791016" xlink:href="#FranklinGothic-Book-99"/>
     <use x="1124.373047" xlink:href="#FranklinGothic-Book-97"/>
    </g>
   </g>
   <g id="text_33">
    <!-- Caribbean -->
    <g style="fill:#9dd742;" transform="translate(191.289557 140.13)scale(0.25 -0.25)">
     <defs>
      <path d="M 11.375 0 
L 7.671875 0 
L 7.671875 66.65625 
L 15.328125 66.65625 
L 15.328125 41.109375 
Q 20.609375 50.6875 29.890625 50.6875 
Q 38.375 50.6875 44.109375 44 
Q 49.859375 37.3125 49.859375 24.5625 
Q 49.859375 13.578125 44.21875 6.125 
Q 38.578125 -1.3125 29.546875 -1.3125 
Q 19.484375 -1.3125 14.109375 8.15625 
z
M 15.328125 19.34375 
Q 15.875 11.765625 20 8.34375 
Q 24.125 4.9375 28.71875 4.9375 
Q 34.578125 4.9375 38.15625 10.015625 
Q 41.75 15.09375 41.75 23.921875 
Q 41.75 33.453125 38.28125 38.890625 
Q 34.8125 44.34375 28.65625 44.34375 
Q 23.828125 44.34375 19.9375 40.453125 
Q 16.0625 36.578125 15.328125 30.421875 
z
" id="FranklinGothic-Book-98"/>
     </defs>
     <use xlink:href="#FranklinGothic-Book-67"/>
     <use x="57.910156" xlink:href="#FranklinGothic-Book-97"/>
     <use x="110.791016" xlink:href="#FranklinGothic-Book-114"/>
     <use x="143.75" xlink:href="#FranklinGothic-Book-105"/>
     <use x="166.699219" xlink:href="#FranklinGothic-Book-98"/>
     <use x="220.410156" xlink:href="#FranklinGothic-Book-98"/>
     <use x="274.121094" xlink:href="#FranklinGothic-Book-101"/>
     <use x="326.171875" xlink:href="#FranklinGothic-Book-97"/>
     <use x="379.052734" xlink:href="#FranklinGothic-Book-110"/>
    </g>
   </g>
   <g id="text_34">
    <!-- Regional trends LAC -->
    <g style="fill:#696969;" transform="translate(144 32.76)scale(0.4 -0.4)">
     <defs>
      <path d="M 56.296875 0 
L 47.5625 0 
L 35.25 28.859375 
L 16.15625 28.859375 
L 16.15625 0 
L 8.34375 0 
L 8.34375 66.65625 
L 34.625 66.65625 
Q 45.3125 66.65625 50.453125 60.8125 
Q 55.609375 54.984375 55.609375 48.046875 
Q 55.609375 42.71875 52.734375 37.828125 
Q 49.859375 32.953125 43.21875 30.859375 
z
M 16.15625 35.640625 
L 33.59375 35.640625 
Q 40.484375 35.640625 43.875 39.28125 
Q 47.265625 42.921875 47.265625 48.1875 
Q 47.265625 53.46875 43.671875 56.390625 
Q 40.09375 59.328125 34.625 59.328125 
L 16.15625 59.328125 
z
" id="FranklinGothic-Book-82"/>
      <path d="M 47.953125 57.03125 
L 47.953125 50.921875 
Q 42.671875 50.921875 40.890625 49.703125 
Q 39.109375 48.484375 38.53125 45.3125 
Q 43.265625 39.84375 43.265625 33.40625 
Q 43.265625 26.65625 38.109375 21.828125 
Q 32.953125 17 24.265625 17 
Q 22.3125 17 20.90625 17.28125 
Q 18.21875 17.828125 17.53125 17.828125 
Q 16.21875 17.828125 14.359375 16.53125 
Q 12.5 15.234375 12.5 13.1875 
Q 12.5 10.25 15.1875 9.375 
Q 17.875 8.5 27.828125 8.25 
Q 36.28125 8.015625 40.3125 7.109375 
Q 44.34375 6.203125 47.125 3.09375 
Q 49.90625 0 49.90625 -4.5 
Q 49.90625 -18.609375 25.09375 -18.609375 
Q 13.328125 -18.609375 7.9375 -15.0625 
Q 2.546875 -11.53125 2.546875 -5.609375 
Q 2.546875 1.5625 10.0625 4.25 
Q 5.21875 7.421875 5.21875 12.203125 
Q 5.21875 17.921875 12.0625 20.953125 
Q 5.671875 26.125 5.671875 33.984375 
Q 5.671875 41.3125 11.140625 46 
Q 16.609375 50.6875 24.46875 50.6875 
Q 30.03125 50.6875 34.578125 48.578125 
Q 35.296875 53.421875 37.953125 55.265625 
Q 40.625 57.125 46.046875 57.125 
Q 46.578125 57.125 47.953125 57.03125 
z
M 24.515625 22.859375 
Q 29.390625 22.859375 32.46875 25.859375 
Q 35.546875 28.859375 35.546875 33.640625 
Q 35.546875 38.53125 32.34375 41.625 
Q 29.15625 44.734375 24.609375 44.734375 
Q 20.265625 44.734375 16.890625 41.828125 
Q 13.53125 38.921875 13.53125 33.546875 
Q 13.53125 28.765625 16.546875 25.8125 
Q 19.578125 22.859375 24.515625 22.859375 
z
M 15.328125 2 
Q 9.96875 -0.34375 9.96875 -4.78125 
Q 9.96875 -8.546875 14.375 -10.625 
Q 18.796875 -12.703125 25.640625 -12.703125 
Q 31.984375 -12.703125 37.25 -10.90625 
Q 42.53125 -9.125 42.53125 -4.890625 
Q 42.53125 -2.59375 40.96875 -1.125 
Q 39.40625 0.34375 36.6875 0.734375 
Q 33.984375 1.125 27.25 1.3125 
Q 19.1875 1.515625 15.328125 2 
z
" id="FranklinGothic-Book-103"/>
      <path d="M 47.703125 7.328125 
L 47.703125 0 
L 8.34375 0 
L 8.34375 66.65625 
L 16.890625 66.65625 
L 16.890625 7.328125 
z
" id="FranklinGothic-Book-76"/>
     </defs>
     <use xlink:href="#FranklinGothic-Book-82"/>
     <use x="59.529297" xlink:href="#FranklinGothic-Book-101"/>
     <use x="111.580078" xlink:href="#FranklinGothic-Book-103"/>
     <use x="160.701172" xlink:href="#FranklinGothic-Book-105"/>
     <use x="183.650391" xlink:href="#FranklinGothic-Book-111"/>
     <use x="235.603516" xlink:href="#FranklinGothic-Book-110"/>
     <use x="289.802734" xlink:href="#FranklinGothic-Book-97"/>
     <use x="342.683594" xlink:href="#FranklinGothic-Book-108"/>
     <use x="365.681641" xlink:href="#FranklinGothic-Book-32"/>
     <use x="390.681641" xlink:href="#FranklinGothic-Book-116"/>
     <use x="421.443359" xlink:href="#FranklinGothic-Book-114"/>
     <use x="454.402344" xlink:href="#FranklinGothic-Book-101"/>
     <use x="506.453125" xlink:href="#FranklinGothic-Book-110"/>
     <use x="560.652344" xlink:href="#FranklinGothic-Book-100"/>
     <use x="614.509766" xlink:href="#FranklinGothic-Book-115"/>
     <use x="660.896484" xlink:href="#FranklinGothic-Book-32"/>
     <use x="685.896484" xlink:href="#FranklinGothic-Book-76"/>
     <use x="734.871094" xlink:href="#FranklinGothic-Book-65"/>
     <use x="785.935547" xlink:href="#FranklinGothic-Book-67"/>
    </g>
   </g>
  </g>
  <g id="text_35">
   <g id="patch_18">
    <path d="M 19.08 646.18275 
L 183.665625 646.18275 
L 183.665625 628.26525 
L 19.08 628.26525 
z
" style="fill:#ffffff;stroke:#ffffff;stroke-linejoin:miter;"/>
   </g>
   <!-- Created: 2023-01-30 10:47:43 -->
   <g style="fill:#696969;" transform="translate(23.04 640.224)scale(0.12 -0.12)">
    <defs>
     <path d="M 17.96875 49.3125 
L 17.96875 38.375 
L 7.078125 38.375 
L 7.078125 49.3125 
z
M 17.96875 10.984375 
L 17.96875 0 
L 7.078125 0 
L 7.078125 10.984375 
z
" id="FranklinGothic-Book-58"/>
     <path d="M 28.078125 0 
L 19.484375 0 
Q 19.484375 16.75 26.3125 32.59375 
Q 33.15625 48.4375 43.0625 59.328125 
L 6.890625 59.328125 
L 7.71875 66.65625 
L 51.765625 66.65625 
L 51.765625 61.671875 
Q 39.84375 47.3125 33.9375 31.78125 
Q 28.03125 16.265625 28.03125 2.296875 
Q 28.03125 1.515625 28.078125 0 
z
" id="FranklinGothic-Book-55"/>
    </defs>
    <use xlink:href="#FranklinGothic-Book-67"/>
    <use x="57.910156" xlink:href="#FranklinGothic-Book-114"/>
    <use x="90.869141" xlink:href="#FranklinGothic-Book-101"/>
    <use x="142.919922" xlink:href="#FranklinGothic-Book-97"/>
    <use x="195.800781" xlink:href="#FranklinGothic-Book-116"/>
    <use x="224.8125" xlink:href="#FranklinGothic-Book-101"/>
    <use x="276.863281" xlink:href="#FranklinGothic-Book-100"/>
    <use x="330.720703" xlink:href="#FranklinGothic-Book-58"/>
    <use x="355.720703" xlink:href="#FranklinGothic-Book-32"/>
    <use x="380.720703" xlink:href="#FranklinGothic-Book-50"/>
    <use x="439.363281" xlink:href="#FranklinGothic-Book-48"/>
    <use x="498.005859" xlink:href="#FranklinGothic-Book-50"/>
    <use x="556.648438" xlink:href="#FranklinGothic-Book-51"/>
    <use x="615.291016" xlink:href="#FranklinGothic-Book-45"/>
    <use x="640.291016" xlink:href="#FranklinGothic-Book-48"/>
    <use x="695.183594" xlink:href="#FranklinGothic-Book-49"/>
    <use x="753.826172" xlink:href="#FranklinGothic-Book-45"/>
    <use x="778.826172" xlink:href="#FranklinGothic-Book-51"/>
    <use x="837.46875" xlink:href="#FranklinGothic-Book-48"/>
    <use x="896.111328" xlink:href="#FranklinGothic-Book-32"/>
    <use x="921.111328" xlink:href="#FranklinGothic-Book-49"/>
    <use x="976.503906" xlink:href="#FranklinGothic-Book-48"/>
    <use x="1035.146484" xlink:href="#FranklinGothic-Book-58"/>
    <use x="1060.146484" xlink:href="#FranklinGothic-Book-52"/>
    <use x="1112.289062" xlink:href="#FranklinGothic-Book-55"/>
    <use x="1163.306641" xlink:href="#FranklinGothic-Book-58"/>
    <use x="1188.306641" xlink:href="#FranklinGothic-Book-52"/>
    <use x="1246.949219" xlink:href="#FranklinGothic-Book-51"/>
   </g>
  </g>
 </g>
 <defs>
  <clipPath id="pb8b40ece0c">
   <rect height="498.96" width="892.8" x="144" y="77.76"/>
  </clipPath>
 </defs>
</svg>
