<?xml version="1.0" encoding="utf-8" standalone="no"?>
<!DOCTYPE svg PUBLIC "-//W3C//DTD SVG 1.1//EN"
  "http://www.w3.org/Graphics/SVG/1.1/DTD/svg11.dtd">
<!-- Created with matplotlib (https://matplotlib.org/) -->
<svg height="648pt" version="1.1" viewBox="0 0 1152 648" width="1152pt" xmlns="http://www.w3.org/2000/svg" xmlns:xlink="http://www.w3.org/1999/xlink">
 <metadata>
  <rdf:RDF xmlns:cc="http://creativecommons.org/ns#" xmlns:dc="http://purl.org/dc/elements/1.1/" xmlns:rdf="http://www.w3.org/1999/02/22-rdf-syntax-ns#">
   <cc:Work>
    <dc:type rdf:resource="http://purl.org/dc/dcmitype/StillImage"/>
    <dc:date>2022-08-26T19:14:58.502863</dc:date>
    <dc:format>image/svg+xml</dc:format>
    <dc:creator>
     <cc:Agent>
      <dc:title>Matplotlib v3.3.1, https://matplotlib.org/</dc:title>
     </cc:Agent>
    </dc:creator>
   </cc:Work>
  </rdf:RDF>
 </metadata>
 <defs>
  <style type="text/css">*{stroke-linecap:butt;stroke-linejoin:round;}</style>
 </defs>
 <g id="figure_1">
  <g id="patch_1">
   <path d="M 0 648 
L 1152 648 
L 1152 0 
L 0 0 
z
" style="fill:#ffffff;"/>
  </g>
  <g id="axes_1">
   <g id="patch_2">
    <path d="M 144 576.72 
L 1036.8 576.72 
L 1036.8 77.76 
L 144 77.76 
z
" style="fill:none;"/>
   </g>
   <g id="line2d_1">
    <path clip-path="url(#pa954c34cb7)" d="M 714.493163 392.633464 
L 721.200902 322.154982 
L 727.90864 196.336726 
L 734.616379 442.922441 
L 741.324117 354.622444 
L 748.031856 359.426861 
L 754.739594 388.198617 
L 761.447333 334.857261 
L 768.155071 234.087678 
L 774.86281 298.269772 
L 781.570548 374.209685 
L 788.278287 335.637465 
L 794.986026 301.226336 
L 801.693764 367.666917 
L 808.401503 337.718011 
L 815.109241 298.447713 
L 821.81698 290.248721 
L 828.524718 374.127558 
L 835.232457 319.102603 
L 841.940195 150.879543 
L 848.647934 232.363015 
L 855.355672 277.094745 
L 862.063411 209.43595 
L 868.77115 276.957867 
L 875.478888 246.475137 
L 882.186627 318.253959 
L 888.894365 193.667605 
L 895.602104 131.374428 
L 902.309842 244.298777 
L 909.017581 306.852022 
L 915.725319 282.980499 
L 922.433058 127.473405 
L 929.140796 221.029517 
L 935.848535 144.350462 
L 942.556273 282.200295 
L 949.264012 273.481166 
L 955.971751 182.470985 
L 962.679489 100.44 
L 969.387228 154.561561 
L 976.094966 242.396172 
L 982.802705 213.213783 
L 989.510443 182.210916 
L 996.218182 140.996951 
" style="fill:none;stroke:#0072b2;stroke-linecap:round;stroke-width:3;"/>
   </g>
   <g id="patch_3">
    <path d="M 144 576.72 
L 1036.8 576.72 
" style="fill:none;stroke:#d3d3d3;stroke-linecap:square;stroke-linejoin:miter;stroke-width:1.25;"/>
   </g>
   <g id="matplotlib.axis_1">
    <g id="xtick_1">
     <g id="line2d_2">
      <defs>
       <path d="M 0 0 
L 0 6 
" id="m1156d2a6f9" style="stroke:#696969;stroke-width:1.25;"/>
      </defs>
      <g>
       <use style="fill:#696969;stroke:#696969;stroke-width:1.25;" x="184.581818" xlink:href="#m1156d2a6f9" y="576.72"/>
      </g>
     </g>
     <g id="text_1">
      <!-- 1900 -->
      <g style="fill:#696969;" transform="translate(167.092756 596.218438)scale(0.15 -0.15)">
       <defs>
        <path d="M 55.859375 6.203125 
L 55.859375 0 
L 9.1875 0 
L 9.1875 6.203125 
L 29.203125 6.203125 
L 29.203125 57.671875 
Q 20.359375 48.4375 10.84375 43.265625 
L 10.84375 51.65625 
Q 23.96875 58.546875 31.203125 68.015625 
L 37.15625 68.015625 
L 37.15625 6.203125 
z
" id="FranklinGothic-Book-49"/>
        <path d="M 5.71875 12.15625 
L 12.40625 14.59375 
Q 16.546875 5.375 26.375 5.375 
Q 35.890625 5.375 40.703125 13.375 
Q 45.515625 21.390625 45.65625 35.109375 
Q 39.109375 23.09375 25.984375 23.09375 
Q 16.703125 23.09375 10.40625 29.421875 
Q 4.109375 35.75 4.109375 45.0625 
Q 4.109375 54.546875 10.71875 61.28125 
Q 17.328125 68.015625 27.59375 68.015625 
Q 40.140625 68.015625 46.828125 59.203125 
Q 53.515625 50.390625 53.515625 34.96875 
Q 53.515625 18.75 46.4375 8.71875 
Q 39.359375 -1.3125 26.265625 -1.3125 
Q 10.984375 -1.3125 5.71875 12.15625 
z
M 27.828125 29.78125 
Q 34.71875 29.78125 39.375 34.59375 
Q 44.046875 39.40625 44.046875 45.84375 
Q 44.046875 52.09375 39.625 56.578125 
Q 35.203125 61.078125 27.984375 61.078125 
Q 20.65625 61.078125 16.40625 56.46875 
Q 12.15625 51.859375 12.15625 45.21875 
Q 12.15625 38.09375 16.859375 33.9375 
Q 21.578125 29.78125 27.828125 29.78125 
z
" id="FranklinGothic-Book-57"/>
        <path d="M 29.390625 -1.3125 
Q 17.875 -1.3125 10.984375 8.671875 
Q 4.109375 18.65625 4.109375 33.453125 
Q 4.109375 48 10.640625 58 
Q 17.1875 68.015625 29.15625 68.015625 
Q 41.65625 68.015625 48.125 57.5625 
Q 54.59375 47.125 54.59375 33.0625 
Q 54.59375 19.28125 47.953125 8.984375 
Q 41.3125 -1.3125 29.390625 -1.3125 
z
M 29.4375 5.21875 
Q 37.890625 5.21875 41.9375 12.859375 
Q 46 20.515625 46 32.078125 
Q 46 44.734375 41.84375 53.125 
Q 37.703125 61.53125 29.046875 61.53125 
Q 20.703125 61.53125 16.625 53.859375 
Q 12.546875 46.1875 12.546875 33.6875 
Q 12.546875 20.703125 16.84375 12.953125 
Q 21.140625 5.21875 29.4375 5.21875 
z
" id="FranklinGothic-Book-48"/>
       </defs>
       <use xlink:href="#FranklinGothic-Book-49"/>
       <use x="57.267578" xlink:href="#FranklinGothic-Book-57"/>
       <use x="115.910156" xlink:href="#FranklinGothic-Book-48"/>
       <use x="174.552734" xlink:href="#FranklinGothic-Book-48"/>
      </g>
     </g>
    </g>
    <g id="xtick_2">
     <g id="line2d_3">
      <g>
       <use style="fill:#696969;stroke:#696969;stroke-width:1.25;" x="318.736589" xlink:href="#m1156d2a6f9" y="576.72"/>
      </g>
     </g>
     <g id="text_2">
      <!-- 1920 -->
      <g style="fill:#696969;" transform="translate(301.247527 596.218438)scale(0.15 -0.15)">
       <defs>
        <path d="M 52.484375 6.9375 
L 52.484375 0 
L 5.171875 0 
L 5.171875 6.9375 
Q 33.203125 27.9375 38.59375 34.59375 
Q 44 41.265625 44 47.796875 
Q 44 53.90625 39.453125 57.65625 
Q 34.90625 61.421875 29 61.421875 
Q 22.90625 61.421875 18.21875 57.296875 
Q 13.53125 53.171875 12.9375 46.09375 
L 5.171875 48.4375 
Q 10.0625 68.015625 29.109375 68.015625 
Q 39.40625 68.015625 45.84375 62.15625 
Q 52.296875 56.296875 52.296875 47.859375 
Q 52.296875 42.046875 49.234375 36.671875 
Q 46.1875 31.296875 37.6875 23.828125 
Q 29.203125 16.359375 15.71875 6.9375 
z
" id="FranklinGothic-Book-50"/>
       </defs>
       <use xlink:href="#FranklinGothic-Book-49"/>
       <use x="57.267578" xlink:href="#FranklinGothic-Book-57"/>
       <use x="115.910156" xlink:href="#FranklinGothic-Book-50"/>
       <use x="174.552734" xlink:href="#FranklinGothic-Book-48"/>
      </g>
     </g>
    </g>
    <g id="xtick_3">
     <g id="line2d_4">
      <g>
       <use style="fill:#696969;stroke:#696969;stroke-width:1.25;" x="452.89136" xlink:href="#m1156d2a6f9" y="576.72"/>
      </g>
     </g>
     <g id="text_3">
      <!-- 1940 -->
      <g style="fill:#696969;" transform="translate(435.439797 596.218438)scale(0.15 -0.15)">
       <defs>
        <path d="M 44.09375 0 
L 36.03125 0 
L 36.03125 15.875 
L 3.078125 15.875 
L 3.078125 21.484375 
L 33.640625 68.0625 
L 44.09375 68.0625 
L 44.09375 22.46875 
L 54.890625 22.46875 
L 54.890625 15.875 
L 44.09375 15.875 
z
M 36.03125 22.46875 
L 36.03125 54 
Q 36.03125 57.421875 36.1875 61.375 
Q 34.078125 57.515625 32.5625 55.125 
L 11.765625 22.46875 
z
" id="FranklinGothic-Book-52"/>
       </defs>
       <use xlink:href="#FranklinGothic-Book-49"/>
       <use x="57.267578" xlink:href="#FranklinGothic-Book-57"/>
       <use x="115.410156" xlink:href="#FranklinGothic-Book-52"/>
       <use x="174.052734" xlink:href="#FranklinGothic-Book-48"/>
      </g>
     </g>
    </g>
    <g id="xtick_4">
     <g id="line2d_5">
      <g>
       <use style="fill:#696969;stroke:#696969;stroke-width:1.25;" x="587.046131" xlink:href="#m1156d2a6f9" y="576.72"/>
      </g>
     </g>
     <g id="text_4">
      <!-- 1960 -->
      <g style="fill:#696969;" transform="translate(569.557068 596.218438)scale(0.15 -0.15)">
       <defs>
        <path d="M 53.5625 53.03125 
L 46.046875 50.984375 
Q 42.1875 61.140625 31.984375 61.140625 
Q 13.234375 61.140625 12.796875 30.125 
Q 15.765625 37.015625 21.234375 40.328125 
Q 26.703125 43.65625 32.8125 43.65625 
Q 42.09375 43.65625 48.359375 37.1875 
Q 54.640625 30.71875 54.640625 21.6875 
Q 54.640625 12.3125 47.96875 5.5 
Q 41.3125 -1.3125 30.90625 -1.3125 
Q 19.09375 -1.3125 12.078125 7.59375 
Q 5.078125 16.5 5.078125 31.84375 
Q 5.078125 46.828125 11.6875 57.421875 
Q 18.3125 68.015625 32.171875 68.015625 
Q 48.140625 68.015625 53.5625 53.03125 
z
M 30.765625 5.375 
Q 37.84375 5.375 42.359375 10.03125 
Q 46.875 14.703125 46.875 21.234375 
Q 46.875 27.6875 42.453125 32.296875 
Q 38.03125 36.921875 31.5 36.921875 
Q 24.75 36.921875 19.71875 32.078125 
Q 14.703125 27.25 14.703125 20.75 
Q 14.703125 14.75 19.1875 10.0625 
Q 23.6875 5.375 30.765625 5.375 
z
" id="FranklinGothic-Book-54"/>
       </defs>
       <use xlink:href="#FranklinGothic-Book-49"/>
       <use x="57.267578" xlink:href="#FranklinGothic-Book-57"/>
       <use x="115.910156" xlink:href="#FranklinGothic-Book-54"/>
       <use x="174.552734" xlink:href="#FranklinGothic-Book-48"/>
      </g>
     </g>
    </g>
    <g id="xtick_5">
     <g id="line2d_6">
      <g>
       <use style="fill:#696969;stroke:#696969;stroke-width:1.25;" x="721.200902" xlink:href="#m1156d2a6f9" y="576.72"/>
      </g>
     </g>
     <g id="text_5">
      <!-- 1980 -->
      <g style="fill:#696969;" transform="translate(703.711839 596.218438)scale(0.15 -0.15)">
       <defs>
        <path d="M 19.484375 34.578125 
Q 6.84375 40.09375 6.84375 50.59375 
Q 6.84375 58.203125 13.140625 63.109375 
Q 19.4375 68.015625 29.828125 68.015625 
Q 40.09375 68.015625 46.140625 63.296875 
Q 52.203125 58.59375 52.203125 50.984375 
Q 52.203125 40.375 39.265625 35.796875 
Q 49.703125 30.953125 52.359375 26.453125 
Q 55.03125 21.96875 55.03125 17.484375 
Q 55.03125 9.46875 48.21875 4.078125 
Q 41.40625 -1.3125 29.734375 -1.3125 
Q 17.28125 -1.3125 10.4375 4.171875 
Q 3.609375 9.671875 3.609375 17.234375 
Q 3.609375 28.515625 19.484375 34.578125 
z
M 29.59375 38.71875 
Q 37.984375 40.96875 41.453125 43.890625 
Q 44.921875 46.828125 44.921875 51.21875 
Q 44.921875 56.34375 40.796875 59 
Q 36.671875 61.671875 29.9375 61.671875 
Q 23.484375 61.671875 19.375 58.859375 
Q 15.28125 56.0625 15.28125 51.3125 
Q 15.28125 46.625 19.84375 43.203125 
Q 24.421875 39.796875 29.59375 38.71875 
z
M 28.65625 31.0625 
Q 11.765625 27.046875 11.765625 16.9375 
Q 11.765625 11.671875 16.375 8.328125 
Q 21 4.984375 29.984375 4.984375 
Q 37.59375 4.984375 42.234375 8.25 
Q 46.875 11.53125 46.875 16.609375 
Q 46.875 26.3125 28.65625 31.0625 
z
" id="FranklinGothic-Book-56"/>
       </defs>
       <use xlink:href="#FranklinGothic-Book-49"/>
       <use x="57.267578" xlink:href="#FranklinGothic-Book-57"/>
       <use x="115.910156" xlink:href="#FranklinGothic-Book-56"/>
       <use x="174.552734" xlink:href="#FranklinGothic-Book-48"/>
      </g>
     </g>
    </g>
    <g id="xtick_6">
     <g id="line2d_7">
      <g>
       <use style="fill:#696969;stroke:#696969;stroke-width:1.25;" x="855.355672" xlink:href="#m1156d2a6f9" y="576.72"/>
      </g>
     </g>
     <g id="text_6">
      <!-- 2000 -->
      <g style="fill:#696969;" transform="translate(837.763485 596.218438)scale(0.15 -0.15)">
       <use xlink:href="#FranklinGothic-Book-50"/>
       <use x="58.642578" xlink:href="#FranklinGothic-Book-48"/>
       <use x="117.285156" xlink:href="#FranklinGothic-Book-48"/>
       <use x="175.927734" xlink:href="#FranklinGothic-Book-48"/>
      </g>
     </g>
    </g>
    <g id="xtick_7">
     <g id="line2d_8">
      <g>
       <use style="fill:#696969;stroke:#696969;stroke-width:1.25;" x="989.510443" xlink:href="#m1156d2a6f9" y="576.72"/>
      </g>
     </g>
     <g id="text_7">
      <!-- 2020 -->
      <g style="fill:#696969;" transform="translate(971.918256 596.218438)scale(0.15 -0.15)">
       <use xlink:href="#FranklinGothic-Book-50"/>
       <use x="58.642578" xlink:href="#FranklinGothic-Book-48"/>
       <use x="117.285156" xlink:href="#FranklinGothic-Book-50"/>
       <use x="175.927734" xlink:href="#FranklinGothic-Book-48"/>
      </g>
     </g>
    </g>
    <g id="text_8">
     <!-- Year -->
     <g style="fill:#696969;" transform="translate(572.109375 616.048125)scale(0.2 -0.2)">
      <defs>
       <path d="M 52 66.65625 
L 29.6875 28.03125 
L 29.6875 0 
L 21.34375 0 
L 21.34375 28.03125 
L -0.984375 66.65625 
L 8.84375 66.65625 
L 26.5625 35.984375 
L 44.390625 66.65625 
z
" id="FranklinGothic-Book-89"/>
       <path d="M 40.234375 14.703125 
L 47.359375 13.234375 
Q 45.40625 6.9375 39.734375 2.8125 
Q 34.078125 -1.3125 26.421875 -1.3125 
Q 16.3125 -1.3125 10.0625 5.78125 
Q 3.8125 12.890625 3.8125 24.421875 
Q 3.8125 36.1875 10.296875 43.4375 
Q 16.796875 50.6875 26.609375 50.6875 
Q 36.28125 50.6875 42.15625 44 
Q 48.046875 37.3125 48.1875 23.96875 
L 12.359375 23.96875 
Q 12.359375 12.796875 17.046875 8.890625 
Q 21.734375 4.984375 26.953125 4.984375 
Q 36.375 4.984375 40.234375 14.703125 
z
M 39.796875 29.6875 
Q 39.703125 33.84375 38.421875 37.0625 
Q 37.15625 40.28125 34.125 42.546875 
Q 31.109375 44.828125 26.859375 44.828125 
Q 21.140625 44.828125 17.15625 40.71875 
Q 13.1875 36.625 12.703125 29.6875 
z
" id="FranklinGothic-Book-101"/>
       <path d="M 46.296875 0 
L 38.671875 0 
Q 38.234375 2.34375 37.796875 8.890625 
Q 32.71875 -1.3125 20.515625 -1.3125 
Q 12.203125 -1.3125 7.765625 3.078125 
Q 3.328125 7.46875 3.328125 13.625 
Q 3.328125 21.09375 9.671875 25.90625 
Q 16.015625 30.71875 31.25 30.71875 
Q 33.296875 30.71875 37.796875 30.515625 
Q 37.796875 36.375 36.890625 38.984375 
Q 35.984375 41.609375 33.046875 43.171875 
Q 30.125 44.734375 25.34375 44.734375 
Q 13.671875 44.734375 11.765625 35.84375 
L 4.6875 37.0625 
Q 7.28125 50.6875 26.46875 50.6875 
Q 36.671875 50.6875 40.9375 46.171875 
Q 45.21875 41.65625 45.21875 30.515625 
L 45.21875 9.578125 
Q 45.21875 4.34375 46.296875 0 
z
M 37.796875 24.65625 
Q 33.109375 24.953125 30.671875 24.953125 
Q 21.578125 24.953125 16.546875 21.96875 
Q 11.53125 19 11.53125 13.28125 
Q 11.53125 9.671875 14.234375 7.125 
Q 16.9375 4.59375 22.078125 4.59375 
Q 29 4.59375 33.46875 9.625 
Q 37.9375 14.65625 37.9375 21.4375 
Q 37.9375 22.796875 37.796875 24.65625 
z
" id="FranklinGothic-Book-97"/>
       <path d="M 15.328125 0 
L 7.671875 0 
L 7.671875 49.3125 
L 14.40625 49.3125 
L 14.40625 37.796875 
Q 17.96875 45.953125 21.546875 48.359375 
Q 25.140625 50.78125 28.90625 50.78125 
Q 30.078125 50.78125 31.9375 50.59375 
L 31.9375 43.265625 
L 30.375 43.265625 
Q 24.03125 43.265625 19.828125 38.53125 
Q 15.625 33.796875 15.328125 26.078125 
z
" id="FranklinGothic-Book-114"/>
      </defs>
      <use xlink:href="#FranklinGothic-Book-89"/>
      <use x="45.025391" xlink:href="#FranklinGothic-Book-101"/>
      <use x="97.076172" xlink:href="#FranklinGothic-Book-97"/>
      <use x="149.957031" xlink:href="#FranklinGothic-Book-114"/>
     </g>
    </g>
   </g>
   <g id="matplotlib.axis_2">
    <g id="ytick_1">
     <g id="line2d_9">
      <path clip-path="url(#pa954c34cb7)" d="M 144 560.596456 
L 1036.8 560.596456 
" style="fill:none;stroke:#d3d3d3;stroke-linecap:round;stroke-opacity:0.5;"/>
     </g>
     <g id="text_9">
      <!-- −2.0 -->
      <g style="fill:#696969;" transform="translate(104.361719 565.595675)scale(0.15 -0.15)">
       <defs>
        <path d="M 6 36.765625 
L 52.6875 36.765625 
L 52.6875 30.03125 
L 6 30.03125 
z
" id="FranklinGothic-Book-8722"/>
        <path d="M 17.96875 10.9375 
L 17.96875 0 
L 7.078125 0 
L 7.078125 10.9375 
z
" id="FranklinGothic-Book-46"/>
       </defs>
       <use xlink:href="#FranklinGothic-Book-8722"/>
       <use x="58.642578" xlink:href="#FranklinGothic-Book-50"/>
       <use x="117.285156" xlink:href="#FranklinGothic-Book-46"/>
       <use x="142.285156" xlink:href="#FranklinGothic-Book-48"/>
      </g>
     </g>
    </g>
    <g id="ytick_2">
     <g id="line2d_10">
      <path clip-path="url(#pa954c34cb7)" d="M 144 492.157457 
L 1036.8 492.157457 
" style="fill:none;stroke:#d3d3d3;stroke-linecap:round;stroke-opacity:0.5;"/>
     </g>
     <g id="text_10">
      <!-- −1.5 -->
      <g style="fill:#696969;" transform="translate(104.455469 497.156676)scale(0.15 -0.15)">
       <defs>
        <path d="M 48.875 66.65625 
L 48.1875 59.46875 
L 15.4375 59.46875 
L 14.015625 37.84375 
Q 21.4375 45.125 30.328125 45.125 
Q 39.703125 45.125 46.515625 38.625 
Q 53.328125 32.125 53.328125 22.015625 
Q 53.328125 11.765625 45.921875 5.21875 
Q 38.53125 -1.3125 27.828125 -1.3125 
Q 19.4375 -1.3125 12.890625 3.078125 
Q 6.34375 7.46875 4.296875 14.453125 
L 11.421875 16.890625 
Q 15.828125 5.28125 27.9375 5.28125 
Q 35.890625 5.28125 40.578125 9.984375 
Q 45.265625 14.703125 45.265625 22.015625 
Q 45.265625 29.6875 40.625 33.984375 
Q 35.984375 38.28125 29.5 38.28125 
Q 20.015625 38.28125 13.8125 29.203125 
L 7.234375 30.609375 
L 9.375 66.65625 
z
" id="FranklinGothic-Book-53"/>
       </defs>
       <use xlink:href="#FranklinGothic-Book-8722"/>
       <use x="58.642578" xlink:href="#FranklinGothic-Book-49"/>
       <use x="116.660156" xlink:href="#FranklinGothic-Book-46"/>
       <use x="141.660156" xlink:href="#FranklinGothic-Book-53"/>
      </g>
     </g>
    </g>
    <g id="ytick_3">
     <g id="line2d_11">
      <path clip-path="url(#pa954c34cb7)" d="M 144 423.718457 
L 1036.8 423.718457 
" style="fill:none;stroke:#d3d3d3;stroke-linecap:round;stroke-opacity:0.5;"/>
     </g>
     <g id="text_11">
      <!-- −1.0 -->
      <g style="fill:#696969;" transform="translate(104.455469 428.717676)scale(0.15 -0.15)">
       <use xlink:href="#FranklinGothic-Book-8722"/>
       <use x="58.642578" xlink:href="#FranklinGothic-Book-49"/>
       <use x="116.660156" xlink:href="#FranklinGothic-Book-46"/>
       <use x="141.660156" xlink:href="#FranklinGothic-Book-48"/>
      </g>
     </g>
    </g>
    <g id="ytick_4">
     <g id="line2d_12">
      <path clip-path="url(#pa954c34cb7)" d="M 144 355.279458 
L 1036.8 355.279458 
" style="fill:none;stroke:#d3d3d3;stroke-linecap:round;stroke-opacity:0.5;"/>
     </g>
     <g id="text_12">
      <!-- −0.5 -->
      <g style="fill:#696969;" transform="translate(104.361719 360.278677)scale(0.15 -0.15)">
       <use xlink:href="#FranklinGothic-Book-8722"/>
       <use x="58.642578" xlink:href="#FranklinGothic-Book-48"/>
       <use x="117.285156" xlink:href="#FranklinGothic-Book-46"/>
       <use x="142.285156" xlink:href="#FranklinGothic-Book-53"/>
      </g>
     </g>
    </g>
    <g id="ytick_5">
     <g id="line2d_13">
      <path clip-path="url(#pa954c34cb7)" d="M 144 286.840459 
L 1036.8 286.840459 
" style="fill:none;stroke:#d3d3d3;stroke-linecap:round;stroke-opacity:0.5;"/>
     </g>
     <g id="text_13">
      <!-- 0.0 -->
      <g style="fill:#696969;" transform="translate(113.157813 291.839677)scale(0.15 -0.15)">
       <use xlink:href="#FranklinGothic-Book-48"/>
       <use x="58.642578" xlink:href="#FranklinGothic-Book-46"/>
       <use x="83.642578" xlink:href="#FranklinGothic-Book-48"/>
      </g>
     </g>
    </g>
    <g id="ytick_6">
     <g id="line2d_14">
      <path clip-path="url(#pa954c34cb7)" d="M 144 218.401459 
L 1036.8 218.401459 
" style="fill:none;stroke:#d3d3d3;stroke-linecap:round;stroke-opacity:0.5;"/>
     </g>
     <g id="text_14">
      <!-- 0.5 -->
      <g style="fill:#696969;" transform="translate(113.157813 223.400678)scale(0.15 -0.15)">
       <use xlink:href="#FranklinGothic-Book-48"/>
       <use x="58.642578" xlink:href="#FranklinGothic-Book-46"/>
       <use x="83.642578" xlink:href="#FranklinGothic-Book-53"/>
      </g>
     </g>
    </g>
    <g id="ytick_7">
     <g id="line2d_15">
      <path clip-path="url(#pa954c34cb7)" d="M 144 149.96246 
L 1036.8 149.96246 
" style="fill:none;stroke:#d3d3d3;stroke-linecap:round;stroke-opacity:0.5;"/>
     </g>
     <g id="text_15">
      <!-- 1.0 -->
      <g style="fill:#696969;" transform="translate(113.251563 154.961679)scale(0.15 -0.15)">
       <use xlink:href="#FranklinGothic-Book-49"/>
       <use x="58.017578" xlink:href="#FranklinGothic-Book-46"/>
       <use x="83.017578" xlink:href="#FranklinGothic-Book-48"/>
      </g>
     </g>
    </g>
    <g id="ytick_8">
     <g id="line2d_16">
      <path clip-path="url(#pa954c34cb7)" d="M 144 81.523461 
L 1036.8 81.523461 
" style="fill:none;stroke:#d3d3d3;stroke-linecap:round;stroke-opacity:0.5;"/>
     </g>
     <g id="text_16">
      <!-- 1.5 -->
      <g style="fill:#696969;" transform="translate(113.251563 86.522679)scale(0.15 -0.15)">
       <use xlink:href="#FranklinGothic-Book-49"/>
       <use x="58.017578" xlink:href="#FranklinGothic-Book-46"/>
       <use x="83.017578" xlink:href="#FranklinGothic-Book-53"/>
      </g>
     </g>
    </g>
    <g id="text_17">
     <!-- $\!^\circ\!$C -->
     <g style="fill:#696969;" transform="translate(91.030469 337.34)rotate(-90)scale(0.2 -0.2)">
      <defs>
       <path d="M 31.296875 40.671875 
Q 27.390625 40.671875 24.703125 37.953125 
Q 22.015625 35.25 22.015625 31.34375 
Q 22.015625 27.484375 24.703125 24.828125 
Q 27.390625 22.171875 31.296875 22.171875 
Q 35.203125 22.171875 37.890625 24.828125 
Q 40.578125 27.484375 40.578125 31.34375 
Q 40.578125 35.203125 37.859375 37.9375 
Q 35.15625 40.671875 31.296875 40.671875 
z
M 31.296875 46.96875 
Q 34.421875 46.96875 37.296875 45.765625 
Q 40.1875 44.578125 42.28125 42.328125 
Q 44.53125 40.140625 45.65625 37.34375 
Q 46.78125 34.5625 46.78125 31.34375 
Q 46.78125 24.90625 42.265625 20.4375 
Q 37.75 15.96875 31.203125 15.96875 
Q 24.609375 15.96875 20.21875 20.359375 
Q 15.828125 24.75 15.828125 31.34375 
Q 15.828125 37.890625 20.3125 42.421875 
Q 24.8125 46.96875 31.296875 46.96875 
z
" id="DejaVuSans-8728"/>
       <path d="M 48.296875 22.40625 
L 55.90625 20.703125 
Q 50.4375 -1.3125 31.203125 -1.3125 
Q 18.5625 -1.3125 11.359375 8.890625 
Q 4.15625 19.09375 4.15625 33.984375 
Q 4.15625 49.359375 11.671875 58.6875 
Q 19.1875 68.015625 31.84375 68.015625 
Q 50.59375 68.015625 55.90625 46.578125 
L 48.046875 45.015625 
Q 43.75 60.9375 31.78125 60.9375 
Q 22.953125 60.9375 18.09375 53.53125 
Q 13.234375 46.140625 13.234375 32.765625 
Q 13.234375 20.515625 18.203125 13.109375 
Q 23.1875 5.71875 31.390625 5.71875 
Q 44.140625 5.71875 48.296875 22.40625 
z
" id="FranklinGothic-Book-67"/>
      </defs>
      <use transform="translate(-1.64095 39.121875)scale(0.7)" xlink:href="#DejaVuSans-8728"/>
      <use transform="translate(42.313804 0.840625)" xlink:href="#FranklinGothic-Book-67"/>
     </g>
    </g>
   </g>
   <g id="text_18">
    <!-- Compared to 1981-2010 average -->
    <g style="fill:#696969;" transform="translate(144 75.2652)scale(0.3 -0.3)">
     <defs>
      <path d="M 25.34375 -1.3125 
Q 15.1875 -1.3125 9.5 6.203125 
Q 3.8125 13.71875 3.8125 24.859375 
Q 3.8125 36.625 10.203125 43.65625 
Q 16.609375 50.6875 26.125 50.6875 
Q 36.328125 50.6875 42.203125 43.28125 
Q 48.09375 35.890625 48.09375 24.8125 
Q 48.09375 13.28125 41.75 5.984375 
Q 35.40625 -1.3125 25.34375 -1.3125 
z
M 25.921875 4.984375 
Q 31.78125 4.984375 35.734375 9.8125 
Q 39.703125 14.65625 39.703125 24.859375 
Q 39.703125 35.109375 35.546875 39.71875 
Q 31.390625 44.34375 25.828125 44.34375 
Q 20.125 44.34375 16.15625 39.671875 
Q 12.203125 35.015625 12.203125 24.90625 
Q 12.203125 14.203125 16.15625 9.59375 
Q 20.125 4.984375 25.921875 4.984375 
z
" id="FranklinGothic-Book-111"/>
      <path d="M 73.734375 0 
L 66.265625 0 
L 66.265625 30.671875 
Q 66.265625 35.40625 65.59375 37.765625 
Q 64.9375 40.140625 62.390625 42.109375 
Q 59.859375 44.09375 56.6875 44.09375 
Q 52.296875 44.09375 48.21875 40.0625 
Q 44.140625 36.03125 44.140625 27.78125 
L 44.140625 0 
L 36.71875 0 
L 36.71875 32.46875 
Q 36.71875 38.96875 33.609375 41.65625 
Q 30.515625 44.34375 27.09375 44.34375 
Q 22.21875 44.34375 18.59375 40.140625 
Q 14.984375 35.9375 14.984375 29.5 
L 14.984375 0 
L 7.671875 0 
L 7.671875 49.3125 
L 14.265625 49.3125 
L 14.265625 39.84375 
Q 19.78125 50.6875 29.4375 50.6875 
Q 34.765625 50.6875 38.46875 47.21875 
Q 42.1875 43.75 43.265625 38.875 
Q 48.34375 50.6875 58.84375 50.6875 
Q 63.875 50.6875 67.65625 47.796875 
Q 71.4375 44.921875 72.578125 41.1875 
Q 73.734375 37.453125 73.734375 30.671875 
z
" id="FranklinGothic-Book-109"/>
      <path d="M 15.328125 -16.65625 
L 7.671875 -16.65625 
L 7.671875 49.3125 
L 14.546875 49.3125 
L 14.546875 39.75 
Q 19.78125 50.6875 30.125 50.6875 
Q 38.875 50.6875 44.234375 43.375 
Q 49.609375 36.078125 49.609375 24.90625 
Q 49.609375 12.84375 44.09375 5.765625 
Q 38.578125 -1.3125 29.9375 -1.3125 
Q 20.65625 -1.3125 15.328125 7.515625 
z
M 15.328125 31.78125 
L 15.328125 17.921875 
Q 16.0625 12.3125 20.0625 8.640625 
Q 24.078125 4.984375 28.421875 4.984375 
Q 33.453125 4.984375 37.328125 9.375 
Q 41.21875 13.765625 41.21875 24.5625 
Q 41.21875 33.890625 37.703125 38.9375 
Q 34.1875 44 28.375 44 
Q 23.78125 44 20.140625 40.421875 
Q 16.5 36.859375 15.328125 31.78125 
z
" id="FranklinGothic-Book-112"/>
      <path d="M 46.1875 66.65625 
L 46.1875 0 
L 39.203125 0 
L 39.203125 8.453125 
Q 34.03125 -1.3125 23.640625 -1.3125 
Q 14.984375 -1.3125 9.421875 5.9375 
Q 3.859375 13.1875 3.859375 24.265625 
Q 3.859375 35.59375 9.375 43.140625 
Q 14.890625 50.6875 24.03125 50.6875 
Q 32.90625 50.6875 38.53125 42.578125 
L 38.53125 66.65625 
z
M 38.53125 30.28125 
Q 38.53125 36.765625 34.5625 40.671875 
Q 30.609375 44.578125 25.34375 44.578125 
Q 19.625 44.578125 15.9375 39.5 
Q 12.25 34.421875 12.25 25.25 
Q 12.25 15.328125 15.640625 10.15625 
Q 19.046875 4.984375 24.953125 4.984375 
Q 30.328125 4.984375 34.421875 9.46875 
Q 38.53125 13.96875 38.53125 20.015625 
z
" id="FranklinGothic-Book-100"/>
      <path id="FranklinGothic-Book-32"/>
      <path d="M 30.03125 5.28125 
L 30.03125 -0.78125 
Q 25.984375 -1.3125 23 -1.3125 
Q 8.6875 -1.3125 8.6875 13.625 
L 8.6875 43.3125 
L -0.046875 43.3125 
L -0.046875 49.3125 
L 8.6875 49.3125 
L 9.03125 61.71875 
L 16.15625 62.40625 
L 16.15625 49.3125 
L 27.203125 49.3125 
L 27.203125 43.3125 
L 16.15625 43.3125 
L 16.15625 12.359375 
Q 16.15625 4.734375 24.078125 4.734375 
Q 26.703125 4.734375 30.03125 5.28125 
z
" id="FranklinGothic-Book-116"/>
      <path d="M 23.53125 27.984375 
L 23.53125 22.015625 
L 1.46875 22.015625 
L 1.46875 27.984375 
z
" id="FranklinGothic-Book-45"/>
      <path d="M 43.796875 49.3125 
L 26.765625 0 
L 18.796875 0 
L 1.171875 49.3125 
L 9.671875 49.3125 
L 23.390625 9.234375 
L 36.96875 49.3125 
z
" id="FranklinGothic-Book-118"/>
      <path d="M 47.953125 57.03125 
L 47.953125 50.921875 
Q 42.671875 50.921875 40.890625 49.703125 
Q 39.109375 48.484375 38.53125 45.3125 
Q 43.265625 39.84375 43.265625 33.40625 
Q 43.265625 26.65625 38.109375 21.828125 
Q 32.953125 17 24.265625 17 
Q 22.3125 17 20.90625 17.28125 
Q 18.21875 17.828125 17.53125 17.828125 
Q 16.21875 17.828125 14.359375 16.53125 
Q 12.5 15.234375 12.5 13.1875 
Q 12.5 10.25 15.1875 9.375 
Q 17.875 8.5 27.828125 8.25 
Q 36.28125 8.015625 40.3125 7.109375 
Q 44.34375 6.203125 47.125 3.09375 
Q 49.90625 0 49.90625 -4.5 
Q 49.90625 -18.609375 25.09375 -18.609375 
Q 13.328125 -18.609375 7.9375 -15.0625 
Q 2.546875 -11.53125 2.546875 -5.609375 
Q 2.546875 1.5625 10.0625 4.25 
Q 5.21875 7.421875 5.21875 12.203125 
Q 5.21875 17.921875 12.0625 20.953125 
Q 5.671875 26.125 5.671875 33.984375 
Q 5.671875 41.3125 11.140625 46 
Q 16.609375 50.6875 24.46875 50.6875 
Q 30.03125 50.6875 34.578125 48.578125 
Q 35.296875 53.421875 37.953125 55.265625 
Q 40.625 57.125 46.046875 57.125 
Q 46.578125 57.125 47.953125 57.03125 
z
M 24.515625 22.859375 
Q 29.390625 22.859375 32.46875 25.859375 
Q 35.546875 28.859375 35.546875 33.640625 
Q 35.546875 38.53125 32.34375 41.625 
Q 29.15625 44.734375 24.609375 44.734375 
Q 20.265625 44.734375 16.890625 41.828125 
Q 13.53125 38.921875 13.53125 33.546875 
Q 13.53125 28.765625 16.546875 25.8125 
Q 19.578125 22.859375 24.515625 22.859375 
z
M 15.328125 2 
Q 9.96875 -0.34375 9.96875 -4.78125 
Q 9.96875 -8.546875 14.375 -10.625 
Q 18.796875 -12.703125 25.640625 -12.703125 
Q 31.984375 -12.703125 37.25 -10.90625 
Q 42.53125 -9.125 42.53125 -4.890625 
Q 42.53125 -2.59375 40.96875 -1.125 
Q 39.40625 0.34375 36.6875 0.734375 
Q 33.984375 1.125 27.25 1.3125 
Q 19.1875 1.515625 15.328125 2 
z
" id="FranklinGothic-Book-103"/>
     </defs>
     <use xlink:href="#FranklinGothic-Book-67"/>
     <use x="57.910156" xlink:href="#FranklinGothic-Book-111"/>
     <use x="109.863281" xlink:href="#FranklinGothic-Book-109"/>
     <use x="190.384766" xlink:href="#FranklinGothic-Book-112"/>
     <use x="243.802734" xlink:href="#FranklinGothic-Book-97"/>
     <use x="296.683594" xlink:href="#FranklinGothic-Book-114"/>
     <use x="329.642578" xlink:href="#FranklinGothic-Book-101"/>
     <use x="381.693359" xlink:href="#FranklinGothic-Book-100"/>
     <use x="435.550781" xlink:href="#FranklinGothic-Book-32"/>
     <use x="460.550781" xlink:href="#FranklinGothic-Book-116"/>
     <use x="489.8125" xlink:href="#FranklinGothic-Book-111"/>
     <use x="541.765625" xlink:href="#FranklinGothic-Book-32"/>
     <use x="566.765625" xlink:href="#FranklinGothic-Book-49"/>
     <use x="624.033203" xlink:href="#FranklinGothic-Book-57"/>
     <use x="682.675781" xlink:href="#FranklinGothic-Book-56"/>
     <use x="737.443359" xlink:href="#FranklinGothic-Book-49"/>
     <use x="796.085938" xlink:href="#FranklinGothic-Book-45"/>
     <use x="821.085938" xlink:href="#FranklinGothic-Book-50"/>
     <use x="879.728516" xlink:href="#FranklinGothic-Book-48"/>
     <use x="934.621094" xlink:href="#FranklinGothic-Book-49"/>
     <use x="990.013672" xlink:href="#FranklinGothic-Book-48"/>
     <use x="1048.65625" xlink:href="#FranklinGothic-Book-32"/>
     <use x="1073.65625" xlink:href="#FranklinGothic-Book-97"/>
     <use x="1124.287109" xlink:href="#FranklinGothic-Book-118"/>
     <use x="1167.806641" xlink:href="#FranklinGothic-Book-101"/>
     <use x="1219.857422" xlink:href="#FranklinGothic-Book-114"/>
     <use x="1252.816406" xlink:href="#FranklinGothic-Book-97"/>
     <use x="1305.697266" xlink:href="#FranklinGothic-Book-103"/>
     <use x="1354.818359" xlink:href="#FranklinGothic-Book-101"/>
    </g>
   </g>
   <g id="text_19">
    <!-- WMO RA IV North America annual temperature -->
    <g style="fill:#696969;" transform="translate(144 42.76)scale(0.4 -0.4)">
     <defs>
      <path d="M 79.828125 66.65625 
L 63.765625 0 
L 55.421875 0 
L 40.875 51.703125 
L 27.34375 0 
L 18.796875 0 
L 1.90625 66.65625 
L 10.546875 66.65625 
L 23.875 12.640625 
L 38.03125 66.65625 
L 44.78125 66.65625 
L 60.0625 12.640625 
L 72.515625 66.65625 
z
" id="FranklinGothic-Book-87"/>
      <path d="M 72.703125 0 
L 64.59375 0 
L 64.59375 58.203125 
L 42.921875 0 
L 37.25 0 
L 15.4375 58.203125 
L 15.4375 0 
L 8.34375 0 
L 8.34375 66.65625 
L 20.75 66.65625 
L 40.828125 13.328125 
L 60.5 66.65625 
L 72.703125 66.65625 
z
" id="FranklinGothic-Book-77"/>
      <path d="M 31.34375 -1.3125 
Q 18.5 -1.3125 11.328125 8.671875 
Q 4.15625 18.65625 4.15625 33.15625 
Q 4.15625 48.296875 11.671875 58.15625 
Q 19.1875 68.015625 31.59375 68.015625 
Q 43.953125 68.015625 51.421875 58.328125 
Q 58.890625 48.640625 58.890625 33.890625 
Q 58.890625 19.734375 51.640625 9.203125 
Q 44.390625 -1.3125 31.34375 -1.3125 
z
M 31.546875 5.46875 
Q 40.28125 5.46875 45.203125 13.421875 
Q 50.140625 21.390625 50.140625 33.9375 
Q 50.140625 46.828125 45.03125 54 
Q 39.9375 61.1875 31.5 61.1875 
Q 22.953125 61.1875 17.921875 53.421875 
Q 12.890625 45.65625 12.890625 33.109375 
Q 12.890625 20.84375 17.96875 13.15625 
Q 23.046875 5.46875 31.546875 5.46875 
z
" id="FranklinGothic-Book-79"/>
      <path d="M 56.296875 0 
L 47.5625 0 
L 35.25 28.859375 
L 16.15625 28.859375 
L 16.15625 0 
L 8.34375 0 
L 8.34375 66.65625 
L 34.625 66.65625 
Q 45.3125 66.65625 50.453125 60.8125 
Q 55.609375 54.984375 55.609375 48.046875 
Q 55.609375 42.71875 52.734375 37.828125 
Q 49.859375 32.953125 43.21875 30.859375 
z
M 16.15625 35.640625 
L 33.59375 35.640625 
Q 40.484375 35.640625 43.875 39.28125 
Q 47.265625 42.921875 47.265625 48.1875 
Q 47.265625 53.46875 43.671875 56.390625 
Q 40.09375 59.328125 34.625 59.328125 
L 16.15625 59.328125 
z
" id="FranklinGothic-Book-82"/>
      <path d="M 53.21875 0 
L 44.671875 0 
L 37.9375 19.484375 
L 13.28125 19.484375 
L 7.328125 0 
L 0.34375 0 
L 21.96875 66.65625 
L 31.5 66.65625 
z
M 36.1875 25.734375 
L 25.921875 57.765625 
L 15.578125 25.734375 
z
" id="FranklinGothic-Book-65"/>
      <path d="M 16.703125 0 
L 8.34375 0 
L 8.34375 66.65625 
L 16.703125 66.65625 
z
" id="FranklinGothic-Book-73"/>
      <path d="M 53.328125 66.65625 
L 30.859375 0 
L 22.796875 0 
L 0.34375 66.65625 
L 9.03125 66.65625 
L 27.640625 11.671875 
L 46.046875 66.65625 
z
" id="FranklinGothic-Book-86"/>
      <path d="M 57.421875 0 
L 49.3125 0 
L 14.84375 58.109375 
L 14.9375 53.71875 
Q 15.09375 51.21875 15.09375 49.515625 
L 15.09375 0 
L 8.34375 0 
L 8.34375 66.65625 
L 18.796875 66.65625 
L 51.03125 12.3125 
L 50.921875 16.9375 
Q 50.828125 19.671875 50.828125 21.78125 
L 50.828125 66.65625 
L 57.421875 66.65625 
z
" id="FranklinGothic-Book-78"/>
      <path d="M 46.34375 0 
L 38.671875 0 
L 38.671875 29.9375 
Q 38.671875 35.203125 38.015625 37.84375 
Q 37.359375 40.484375 34.890625 42.40625 
Q 32.421875 44.34375 29.203125 44.34375 
Q 23.296875 44.34375 19.3125 39.5 
Q 15.328125 34.671875 15.328125 26.5625 
L 15.328125 0 
L 7.671875 0 
L 7.671875 66.65625 
L 15.328125 66.65625 
L 15.328125 40.234375 
Q 20.5625 50.6875 30.28125 50.6875 
Q 34.625 50.6875 38.015625 48.96875 
Q 41.40625 47.265625 43.203125 44.484375 
Q 45.015625 41.703125 45.671875 38.984375 
Q 46.34375 36.28125 46.34375 29.9375 
z
" id="FranklinGothic-Book-104"/>
      <path d="M 15.578125 66.65625 
L 15.578125 58.15625 
L 7.328125 58.15625 
L 7.328125 66.65625 
z
M 15.328125 49.3125 
L 15.328125 0 
L 7.671875 0 
L 7.671875 49.3125 
z
" id="FranklinGothic-Book-105"/>
      <path d="M 36.8125 17.28125 
L 43.75 16.0625 
Q 42.28125 7.90625 37.25 3.296875 
Q 32.234375 -1.3125 24.703125 -1.3125 
Q 14.5 -1.3125 9.15625 6.203125 
Q 3.8125 13.71875 3.8125 24.5625 
Q 3.8125 35.796875 9.453125 43.234375 
Q 15.09375 50.6875 24.8125 50.6875 
Q 32.859375 50.6875 37.71875 45.875 
Q 42.578125 41.0625 43.75 33.453125 
L 36.8125 32.125 
Q 34.859375 44.34375 25 44.34375 
Q 18.65625 44.34375 15.234375 38.9375 
Q 11.8125 33.546875 11.8125 24.953125 
Q 11.8125 15.484375 15.203125 10.234375 
Q 18.609375 4.984375 24.75 4.984375 
Q 34.28125 4.984375 36.8125 17.28125 
z
" id="FranklinGothic-Book-99"/>
      <path d="M 46.53125 0 
L 39.359375 0 
L 39.359375 31.6875 
Q 39.359375 38.53125 36.375 41.3125 
Q 33.40625 44.09375 29.15625 44.09375 
Q 23.296875 44.09375 19.3125 39.40625 
Q 15.328125 34.71875 15.328125 27.046875 
L 15.328125 0 
L 7.671875 0 
L 7.671875 49.3125 
L 14.796875 49.3125 
L 14.796875 40.234375 
Q 20.796875 50.6875 30.375 50.6875 
Q 35.890625 50.6875 39.765625 47.828125 
Q 43.65625 44.96875 45.09375 41.40625 
Q 46.53125 37.84375 46.53125 28.515625 
z
" id="FranklinGothic-Book-110"/>
      <path d="M 46.484375 0 
L 39.59375 0 
L 39.59375 9.421875 
Q 34.328125 -1.3125 23.875 -1.3125 
Q 16.3125 -1.3125 11.984375 3.65625 
Q 7.671875 8.640625 7.671875 17.828125 
L 7.671875 49.3125 
L 15.328125 49.3125 
L 15.328125 17.828125 
Q 15.328125 10.5 18.375 7.734375 
Q 21.4375 4.984375 25.09375 4.984375 
Q 28.8125 4.984375 31.8125 7.078125 
Q 34.8125 9.1875 36.8125 13.0625 
Q 38.8125 16.9375 38.8125 21.53125 
L 38.8125 49.3125 
L 46.484375 49.3125 
z
" id="FranklinGothic-Book-117"/>
      <path d="M 15.328125 0 
L 7.671875 0 
L 7.671875 66.65625 
L 15.328125 66.65625 
z
" id="FranklinGothic-Book-108"/>
     </defs>
     <use xlink:href="#FranklinGothic-Book-87"/>
     <use x="81.738281" xlink:href="#FranklinGothic-Book-77"/>
     <use x="162.744141" xlink:href="#FranklinGothic-Book-79"/>
     <use x="225.830078" xlink:href="#FranklinGothic-Book-32"/>
     <use x="250.830078" xlink:href="#FranklinGothic-Book-82"/>
     <use x="312.109375" xlink:href="#FranklinGothic-Book-65"/>
     <use x="365.673828" xlink:href="#FranklinGothic-Book-32"/>
     <use x="390.673828" xlink:href="#FranklinGothic-Book-73"/>
     <use x="415.673828" xlink:href="#FranklinGothic-Book-86"/>
     <use x="469.335938" xlink:href="#FranklinGothic-Book-32"/>
     <use x="494.335938" xlink:href="#FranklinGothic-Book-78"/>
     <use x="560.058594" xlink:href="#FranklinGothic-Book-111"/>
     <use x="612.011719" xlink:href="#FranklinGothic-Book-114"/>
     <use x="648.345703" xlink:href="#FranklinGothic-Book-116"/>
     <use x="679.107422" xlink:href="#FranklinGothic-Book-104"/>
     <use x="733.111328" xlink:href="#FranklinGothic-Book-32"/>
     <use x="758.111328" xlink:href="#FranklinGothic-Book-65"/>
     <use x="811.675781" xlink:href="#FranklinGothic-Book-109"/>
     <use x="893.072266" xlink:href="#FranklinGothic-Book-101"/>
     <use x="945.123047" xlink:href="#FranklinGothic-Book-114"/>
     <use x="978.082031" xlink:href="#FranklinGothic-Book-105"/>
     <use x="1001.03125" xlink:href="#FranklinGothic-Book-99"/>
     <use x="1047.613281" xlink:href="#FranklinGothic-Book-97"/>
     <use x="1100.494141" xlink:href="#FranklinGothic-Book-32"/>
     <use x="1125.494141" xlink:href="#FranklinGothic-Book-97"/>
     <use x="1178.375" xlink:href="#FranklinGothic-Book-110"/>
     <use x="1232.574219" xlink:href="#FranklinGothic-Book-110"/>
     <use x="1286.773438" xlink:href="#FranklinGothic-Book-117"/>
     <use x="1340.923828" xlink:href="#FranklinGothic-Book-97"/>
     <use x="1393.804688" xlink:href="#FranklinGothic-Book-108"/>
     <use x="1416.802734" xlink:href="#FranklinGothic-Book-32"/>
     <use x="1441.802734" xlink:href="#FranklinGothic-Book-116"/>
     <use x="1470.814453" xlink:href="#FranklinGothic-Book-101"/>
     <use x="1522.865234" xlink:href="#FranklinGothic-Book-109"/>
     <use x="1603.386719" xlink:href="#FranklinGothic-Book-112"/>
     <use x="1656.804688" xlink:href="#FranklinGothic-Book-101"/>
     <use x="1708.855469" xlink:href="#FranklinGothic-Book-114"/>
     <use x="1741.814453" xlink:href="#FranklinGothic-Book-97"/>
     <use x="1794.695312" xlink:href="#FranklinGothic-Book-116"/>
     <use x="1825.457031" xlink:href="#FranklinGothic-Book-117"/>
     <use x="1879.607422" xlink:href="#FranklinGothic-Book-114"/>
     <use x="1912.566406" xlink:href="#FranklinGothic-Book-101"/>
    </g>
   </g>
   <g id="legend_1">
    <g id="line2d_17"/>
    <g id="text_20">
     <!-- HadCRUT5 -->
     <g style="fill:#696969;" transform="translate(185.856 129.7184)scale(0.2 -0.2)">
      <defs>
       <path d="M 55.953125 0 
L 47.609375 0 
L 47.609375 31.734375 
L 16.703125 31.734375 
L 16.703125 0 
L 8.34375 0 
L 8.34375 66.65625 
L 16.703125 66.65625 
L 16.703125 39.0625 
L 47.609375 39.0625 
L 47.609375 66.65625 
L 55.953125 66.65625 
z
" id="FranklinGothic-Book-72"/>
       <path d="M 46.34375 66.65625 
L 53.265625 66.65625 
L 53.265625 23.140625 
Q 53.265625 10.0625 46.84375 4.375 
Q 40.4375 -1.3125 30.03125 -1.3125 
Q 18.453125 -1.3125 12.890625 4.546875 
Q 7.328125 10.40625 7.328125 23.140625 
L 7.328125 66.65625 
L 15.671875 66.65625 
L 15.671875 23.140625 
Q 15.671875 15.375 17.46875 12.203125 
Q 19.28125 9.03125 22.9375 7.515625 
Q 26.609375 6 30.609375 6 
Q 38.328125 6 42.328125 10.046875 
Q 46.34375 14.109375 46.34375 23.140625 
z
" id="FranklinGothic-Book-85"/>
       <path d="M 28.421875 0 
L 20.125 0 
L 20.125 59.328125 
L 1.03125 59.328125 
L 1.03125 66.65625 
L 47.5625 66.65625 
L 47.5625 59.328125 
L 28.421875 59.328125 
z
" id="FranklinGothic-Book-84"/>
      </defs>
      <use xlink:href="#FranklinGothic-Book-72"/>
      <use x="64.257812" xlink:href="#FranklinGothic-Book-97"/>
      <use x="117.138672" xlink:href="#FranklinGothic-Book-100"/>
      <use x="170.996094" xlink:href="#FranklinGothic-Book-67"/>
      <use x="228.90625" xlink:href="#FranklinGothic-Book-82"/>
      <use x="289.310547" xlink:href="#FranklinGothic-Book-85"/>
      <use x="349.90625" xlink:href="#FranklinGothic-Book-84"/>
      <use x="398.441406" xlink:href="#FranklinGothic-Book-53"/>
     </g>
    </g>
    <g id="line2d_18"/>
    <g id="text_21">
     <!-- NOAAGlobalTemp -->
     <g style="fill:#e69f00;" transform="translate(185.856 157.04965)scale(0.2 -0.2)">
      <defs>
       <path d="M 57.71875 33.59375 
L 57.71875 -0.875 
L 52.59375 -0.875 
L 50.296875 7.46875 
Q 44.140625 -1.3125 31.984375 -1.3125 
Q 18.796875 -1.3125 11.46875 8.59375 
Q 4.15625 18.5 4.15625 32.671875 
Q 4.15625 47.796875 11.90625 57.90625 
Q 19.671875 68.015625 33.015625 68.015625 
Q 51.421875 68.015625 57.03125 48.6875 
L 49.125 46.78125 
Q 47.40625 54.203125 42.71875 57.5625 
Q 38.03125 60.9375 32.46875 60.9375 
Q 22.609375 60.9375 17.921875 52.96875 
Q 13.234375 45.015625 13.234375 33.015625 
Q 13.234375 20.0625 18.484375 12.765625 
Q 23.734375 5.46875 32.765625 5.46875 
Q 39.796875 5.46875 44.5 10.125 
Q 49.21875 14.796875 49.21875 23 
Q 49.21875 24.515625 49.125 26.609375 
L 32.625 26.609375 
L 32.625 33.59375 
z
" id="FranklinGothic-Book-71"/>
       <path d="M 11.375 0 
L 7.671875 0 
L 7.671875 66.65625 
L 15.328125 66.65625 
L 15.328125 41.109375 
Q 20.609375 50.6875 29.890625 50.6875 
Q 38.375 50.6875 44.109375 44 
Q 49.859375 37.3125 49.859375 24.5625 
Q 49.859375 13.578125 44.21875 6.125 
Q 38.578125 -1.3125 29.546875 -1.3125 
Q 19.484375 -1.3125 14.109375 8.15625 
z
M 15.328125 19.34375 
Q 15.875 11.765625 20 8.34375 
Q 24.125 4.9375 28.71875 4.9375 
Q 34.578125 4.9375 38.15625 10.015625 
Q 41.75 15.09375 41.75 23.921875 
Q 41.75 33.453125 38.28125 38.890625 
Q 34.8125 44.34375 28.65625 44.34375 
Q 23.828125 44.34375 19.9375 40.453125 
Q 16.0625 36.578125 15.328125 30.421875 
z
" id="FranklinGothic-Book-98"/>
      </defs>
      <use xlink:href="#FranklinGothic-Book-78"/>
      <use x="65.722656" xlink:href="#FranklinGothic-Book-79"/>
      <use x="127.058594" xlink:href="#FranklinGothic-Book-65"/>
      <use x="180.623047" xlink:href="#FranklinGothic-Book-65"/>
      <use x="231.5625" xlink:href="#FranklinGothic-Book-71"/>
      <use x="296.259766" xlink:href="#FranklinGothic-Book-108"/>
      <use x="319.257812" xlink:href="#FranklinGothic-Book-111"/>
      <use x="371.210938" xlink:href="#FranklinGothic-Book-98"/>
      <use x="424.921875" xlink:href="#FranklinGothic-Book-97"/>
      <use x="477.802734" xlink:href="#FranklinGothic-Book-108"/>
      <use x="500.800781" xlink:href="#FranklinGothic-Book-84"/>
      <use x="542.835938" xlink:href="#FranklinGothic-Book-101"/>
      <use x="594.886719" xlink:href="#FranklinGothic-Book-109"/>
      <use x="675.408203" xlink:href="#FranklinGothic-Book-112"/>
     </g>
    </g>
    <g id="line2d_19"/>
    <g id="text_22">
     <!-- GISTEMP -->
     <g style="fill:#56b4e9;" transform="translate(185.856 184.3809)scale(0.2 -0.2)">
      <defs>
       <path d="M 1.03125 17.71875 
L 8.546875 19.4375 
Q 13.09375 5.8125 28.21875 5.8125 
Q 36.140625 5.8125 40.140625 9.15625 
Q 44.140625 12.5 44.140625 18.109375 
Q 44.140625 22.359375 41.078125 24.953125 
Q 38.03125 27.546875 34.03125 28.515625 
L 20.703125 31.84375 
Q 15.53125 33.15625 12.234375 35.03125 
Q 8.9375 36.921875 6.640625 40.828125 
Q 4.34375 44.734375 4.34375 49.75 
Q 4.34375 58.109375 10.640625 63.0625 
Q 16.9375 68.015625 26.8125 68.015625 
Q 44.96875 68.015625 50.6875 51.5625 
L 43.109375 49.3125 
Q 41.796875 55.171875 36.90625 58.171875 
Q 32.03125 61.1875 26.515625 61.1875 
Q 21.046875 61.1875 16.765625 58.296875 
Q 12.5 55.421875 12.5 50.140625 
Q 12.5 42.78125 23.34375 40.1875 
L 35.796875 37.203125 
Q 52.875 33.109375 52.875 18.796875 
Q 52.875 10.15625 46.453125 4.421875 
Q 40.046875 -1.3125 28.375 -1.3125 
Q 7.671875 -1.3125 1.03125 17.71875 
z
" id="FranklinGothic-Book-83"/>
       <path d="M 51.46875 7.328125 
L 51.46875 0 
L 8.34375 0 
L 8.34375 66.65625 
L 50.53125 66.65625 
L 50.53125 59.328125 
L 16.703125 59.328125 
L 16.703125 38.140625 
L 43.5625 38.140625 
L 43.5625 31.34375 
L 16.703125 31.34375 
L 16.703125 7.328125 
z
" id="FranklinGothic-Book-69"/>
       <path d="M 16.703125 0 
L 8.34375 0 
L 8.34375 66.65625 
L 31.984375 66.65625 
Q 43.0625 66.65625 48.328125 60.625 
Q 53.609375 54.59375 53.609375 46.875 
Q 53.609375 38.28125 47.875 32.65625 
Q 42.140625 27.046875 32.859375 27.046875 
L 16.703125 27.046875 
z
M 16.703125 33.984375 
L 32.03125 33.984375 
Q 37.9375 33.984375 41.546875 37.515625 
Q 45.171875 41.0625 45.171875 46.875 
Q 45.171875 51.859375 41.9375 55.765625 
Q 38.71875 59.671875 32.625 59.671875 
L 16.703125 59.671875 
z
" id="FranklinGothic-Book-80"/>
      </defs>
      <use xlink:href="#FranklinGothic-Book-71"/>
      <use x="64.697266" xlink:href="#FranklinGothic-Book-73"/>
      <use x="89.697266" xlink:href="#FranklinGothic-Book-83"/>
      <use x="144.630859" xlink:href="#FranklinGothic-Book-84"/>
      <use x="193.166016" xlink:href="#FranklinGothic-Book-69"/>
      <use x="247.951172" xlink:href="#FranklinGothic-Book-77"/>
      <use x="328.957031" xlink:href="#FranklinGothic-Book-80"/>
     </g>
    </g>
    <g id="line2d_20"/>
    <g id="text_23">
     <!-- Berkeley Earth -->
     <g style="fill:#009e73;" transform="translate(185.856 211.71215)scale(0.2 -0.2)">
      <defs>
       <path d="M 8.34375 0 
L 8.34375 66.65625 
L 34.71875 66.65625 
Q 44.671875 66.65625 49.484375 61.765625 
Q 54.296875 56.890625 54.296875 50.4375 
Q 54.296875 39.109375 42.484375 35.40625 
Q 49.515625 33.59375 52.921875 28.953125 
Q 56.34375 24.3125 56.34375 18.453125 
Q 56.34375 10.59375 51.046875 5.296875 
Q 45.75 0 34.71875 0 
z
M 16.40625 38.09375 
L 30.90625 38.09375 
Q 39.9375 38.09375 42.96875 41.53125 
Q 46 44.96875 46 49.609375 
Q 46 54.203125 42.75 57.03125 
Q 39.5 59.859375 33.0625 59.859375 
L 16.40625 59.859375 
z
M 16.40625 7.328125 
L 34.28125 7.328125 
Q 40.828125 7.328125 44.390625 10.5 
Q 47.953125 13.671875 47.953125 18.75 
Q 47.953125 22.3125 46.34375 25.359375 
Q 44.734375 28.421875 41.796875 30.078125 
Q 38.875 31.734375 33.0625 31.734375 
L 16.40625 31.734375 
z
" id="FranklinGothic-Book-66"/>
       <path d="M 48.390625 0 
L 40.4375 0 
L 26.03125 27.546875 
L 15.328125 15.234375 
L 15.328125 0 
L 7.671875 0 
L 7.671875 66.65625 
L 15.328125 66.65625 
L 15.328125 23.96875 
L 38.234375 49.3125 
L 46.4375 49.3125 
L 31 31.984375 
z
" id="FranklinGothic-Book-107"/>
       <path d="M 41.5 49.3125 
L 21.734375 -5.765625 
Q 17.4375 -17.671875 8.015625 -17.671875 
Q 5.03125 -17.671875 1.421875 -16.65625 
L 1.421875 -10.640625 
Q 4.390625 -11.328125 6.546875 -11.328125 
Q 10.203125 -11.328125 12.671875 -9.21875 
Q 15.140625 -7.125 17.578125 0.921875 
L 0.53125 49.3125 
L 8.34375 49.3125 
L 21.53125 12.25 
L 35.0625 49.3125 
z
" id="FranklinGothic-Book-121"/>
      </defs>
      <use xlink:href="#FranklinGothic-Book-66"/>
      <use x="60.449219" xlink:href="#FranklinGothic-Book-101"/>
      <use x="112.5" xlink:href="#FranklinGothic-Book-114"/>
      <use x="144.958984" xlink:href="#FranklinGothic-Book-107"/>
      <use x="192.806641" xlink:href="#FranklinGothic-Book-101"/>
      <use x="244.857422" xlink:href="#FranklinGothic-Book-108"/>
      <use x="267.855469" xlink:href="#FranklinGothic-Book-101"/>
      <use x="318.28125" xlink:href="#FranklinGothic-Book-121"/>
      <use x="359.785156" xlink:href="#FranklinGothic-Book-32"/>
      <use x="384.785156" xlink:href="#FranklinGothic-Book-69"/>
      <use x="439.570312" xlink:href="#FranklinGothic-Book-97"/>
      <use x="492.451172" xlink:href="#FranklinGothic-Book-114"/>
      <use x="528.785156" xlink:href="#FranklinGothic-Book-116"/>
      <use x="559.546875" xlink:href="#FranklinGothic-Book-104"/>
     </g>
    </g>
    <g id="line2d_21"/>
    <g id="text_24">
     <!-- ERA5 -->
     <g style="fill:#0072b2;" transform="translate(185.856 239.246525)scale(0.2 -0.2)">
      <use xlink:href="#FranklinGothic-Book-69"/>
      <use x="54.785156" xlink:href="#FranklinGothic-Book-82"/>
      <use x="116.064453" xlink:href="#FranklinGothic-Book-65"/>
      <use x="169.628906" xlink:href="#FranklinGothic-Book-53"/>
     </g>
    </g>
   </g>
   <g id="line2d_22">
    <path clip-path="url(#pa954c34cb7)" d="M 184.581818 338.676157 
L 191.289557 378.78141 
L 197.997295 380.437634 
L 204.705034 420.980897 
L 211.412772 449.916906 
L 218.120511 383.845896 
L 224.828249 379.876434 
L 231.535988 479.07192 
L 238.243727 378.890913 
L 244.951465 451.88795 
L 251.659204 375.838533 
L 258.366942 393.27679 
L 265.074681 417.695825 
L 271.782419 435.900599 
L 278.490158 420.65239 
L 285.197896 330.600355 
L 291.905635 435.312024 
L 298.613373 531.920515 
L 305.321112 456.062729 
L 312.02885 419.310986 
L 318.736589 408.607126 
L 325.444328 315.940721 
L 332.152066 420.378634 
L 338.859805 402.666621 
L 345.567543 418.03802 
L 352.275282 384.680852 
L 358.98302 358.824598 
L 365.690759 401.886417 
L 372.398497 326.822522 
L 379.106236 429.919031 
L 385.813974 343.466887 
L 392.521713 254.386685 
L 399.229452 403.898523 
L 405.93719 431.643694 
L 412.644929 336.650362 
L 419.352667 424.799794 
L 426.060406 432.944035 
L 432.768144 354.074932 
L 439.475883 288.154487 
L 446.183621 348.216553 
L 452.89136 303.703828 
L 459.599098 315.228956 
L 466.306837 322.250797 
L 473.014576 338.128645 
L 479.722314 304.25134 
L 486.430053 378.439215 
L 493.137791 350.830923 
L 499.84553 333.529544 
L 506.553268 381.491595 
L 513.261007 364.573474 
L 519.968745 438.720286 
L 526.676484 415.026704 
L 533.384222 302.348736 
L 540.091961 266.965773 
L 546.799699 319.513237 
L 553.507438 389.909592 
L 560.215177 421.432595 
L 566.922915 352.062825 
L 573.630654 317.829638 
L 580.338392 383.955399 
L 587.046131 343.247882 
L 593.753869 388.11649 
L 600.461608 355.14258 
L 607.169346 332.078637 
L 613.877085 424.088028 
L 620.584823 419.365737 
L 627.292562 408.264931 
L 634.000301 395.425775 
L 640.708039 377.535821 
L 647.415778 345.424242 
L 654.123516 395.877472 
L 660.831255 392.5924 
L 667.538993 506.776027 
L 674.246732 322.332924 
L 680.95447 419.461552 
L 687.662209 398.354964 
L 694.369947 384.229155 
L 701.077686 282.693055 
L 707.785424 399.737432 
L 714.493163 394.125434 
L 721.200902 319.06154 
L 727.90864 195.022697 
L 734.616379 440.855583 
L 741.324117 352.350269 
L 748.031856 359.905934 
L 754.739594 385.269428 
L 761.447333 327.89017 
L 768.155071 232.513581 
L 774.86281 297.325313 
L 781.570548 375.263646 
L 788.278287 334.474002 
L 794.986026 300.938893 
L 801.693764 359.741681 
L 808.401503 333.652734 
L 815.109241 305.031545 
L 821.81698 295.641714 
L 828.524718 372.019637 
L 835.232457 305.661183 
L 841.940195 136.630543 
L 848.647934 218.305645 
L 855.355672 264.912603 
L 862.063411 202.838431 
L 868.77115 273.015781 
L 875.478888 245.941313 
L 882.186627 322.319236 
L 888.894365 204.426216 
L 895.602104 145.582364 
L 902.309842 257.001055 
L 909.017581 321.224212 
L 915.725319 295.573275 
L 922.433058 143.857701 
L 929.140796 235.127951 
L 935.848535 161.733968 
L 942.556273 289.63277 
L 949.264012 282.802558 
L 955.971751 190.546787 
L 962.679489 111.102796 
L 969.387228 164.608406 
L 976.094966 257.918138 
L 982.802705 229.502265 
L 989.510443 200.41569 
L 996.218182 150.89323 
" style="fill:none;stroke:#009e73;stroke-linecap:round;stroke-width:3;"/>
   </g>
   <g id="line2d_23">
    <path clip-path="url(#pa954c34cb7)" d="M 184.581818 356.94937 
L 191.289557 391.962762 
L 197.997295 404.500786 
L 204.705034 442.867689 
L 211.412772 469.545211 
L 218.120511 398.546593 
L 224.828249 393.810615 
L 231.535988 491.336189 
L 238.243727 386.405515 
L 244.951465 483.260387 
L 251.659204 390.60767 
L 258.366942 412.220706 
L 265.074681 438.597096 
L 271.782419 431.04143 
L 278.490158 422.678185 
L 285.197896 350.529791 
L 291.905635 463.933213 
L 298.613373 549.454587 
L 305.321112 443.250948 
L 312.02885 430.79505 
L 318.736589 438.063272 
L 325.444328 308.727251 
L 332.152066 412.576588 
L 338.859805 387.965924 
L 345.567543 434.353878 
L 352.275282 370.938301 
L 358.98302 351.351059 
L 365.690759 404.623977 
L 372.398497 327.712229 
L 379.106236 430.179099 
L 385.813974 342.426614 
L 392.521713 237.714945 
L 399.229452 402.666621 
L 405.93719 404.41866 
L 412.644929 301.308463 
L 419.352667 415.341524 
L 426.060406 412.549213 
L 432.768144 358.044394 
L 439.475883 278.217145 
L 446.183621 321.92229 
L 452.89136 311.259494 
L 459.599098 297.311626 
L 466.306837 326.849898 
L 473.014576 346.9299 
L 479.722314 308.576685 
L 486.430053 377.878016 
L 493.137791 338.306586 
L 499.84553 339.073103 
L 506.553268 394.755073 
L 513.261007 360.562949 
L 519.968745 447.480478 
L 526.676484 433.710551 
L 533.384222 314.613005 
L 540.091961 261.257961 
L 546.799699 324.016523 
L 553.507438 408.21018 
L 560.215177 415.451026 
L 566.922915 349.202075 
L 573.630654 328.150239 
L 580.338392 383.243633 
L 587.046131 354.143371 
L 593.753869 389.211514 
L 600.461608 362.520304 
L 607.169346 335.308958 
L 613.877085 416.121728 
L 620.584823 414.903514 
L 627.292562 415.190958 
L 634.000301 390.949865 
L 640.708039 387.240471 
L 647.415778 362.67087 
L 654.123516 398.177023 
L 660.831255 405.322054 
L 667.538993 495.798412 
L 674.246732 331.147867 
L 680.95447 404.979859 
L 687.662209 407.64898 
L 694.369947 380.246005 
L 701.077686 293.834924 
L 707.785424 404.528162 
L 714.493163 403.022504 
L 721.200902 325.371615 
L 727.90864 209.449638 
L 734.616379 438.145398 
L 741.324117 344.972545 
L 748.031856 349.722211 
L 754.739594 391.456313 
L 761.447333 309.658021 
L 768.155071 228.941065 
L 774.86281 287.237405 
L 781.570548 376.057538 
L 788.278287 310.096031 
L 794.986026 285.252674 
L 801.693764 342.631931 
L 808.401503 348.065988 
L 815.109241 305.702247 
L 821.81698 301.062083 
L 828.524718 386.99409 
L 835.232457 309.302138 
L 841.940195 148.730558 
L 848.647934 225.49174 
L 855.355672 267.526973 
L 862.063411 208.614682 
L 868.77115 262.722555 
L 875.478888 248.035546 
L 882.186627 301.869663 
L 888.894365 204.809474 
L 895.602104 160.584193 
L 902.309842 248.870502 
L 909.017581 328.32818 
L 915.725319 301.760161 
L 922.433058 173.135905 
L 929.140796 244.312464 
L 935.848535 156.737921 
L 942.556273 293.958115 
L 949.264012 281.187397 
L 955.971751 179.692361 
L 962.679489 103.013306 
L 969.387228 168.3178 
L 976.094966 241.561217 
L 982.802705 235.374331 
L 989.510443 195.1322 
L 996.218182 162.609987 
" style="fill:none;stroke:#56b4e9;stroke-linecap:round;stroke-width:3;"/>
   </g>
   <g id="line2d_24">
    <path clip-path="url(#pa954c34cb7)" d="M 184.581818 378.822474 
L 191.289557 392.209142 
L 197.997295 405.185176 
L 204.705034 447.234098 
L 211.412772 450.505482 
L 218.120511 411.75532 
L 224.828249 389.156763 
L 231.535988 496.61968 
L 238.243727 407.621605 
L 244.951465 471.132996 
L 251.659204 386.966715 
L 258.366942 417.203065 
L 265.074681 462.495994 
L 271.782419 453.407295 
L 278.490158 419.954312 
L 285.197896 351.638503 
L 291.905635 464.302784 
L 298.613373 537.669391 
L 305.321112 450.792926 
L 312.02885 441.977982 
L 318.736589 423.70477 
L 325.444328 326.452952 
L 332.152066 416.381797 
L 338.859805 408.798756 
L 345.567543 431.055118 
L 352.275282 392.140703 
L 358.98302 366.298137 
L 365.690759 412.850344 
L 372.398497 347.600602 
L 379.106236 447.822673 
L 385.813974 357.674823 
L 392.521713 255.303768 
L 399.229452 411.714257 
L 405.93719 431.547879 
L 412.644929 328.300804 
L 419.352667 415.396275 
L 426.060406 424.471286 
L 432.768144 357.414755 
L 439.475883 294.122368 
L 446.183621 344.19234 
L 452.89136 313.928615 
L 459.599098 301.294775 
L 466.306837 325.645371 
L 473.014576 338.977288 
L 479.722314 300.733576 
L 486.430053 377.084123 
L 493.137791 354.266561 
L 499.84553 355.074141 
L 506.553268 390.183348 
L 513.261007 368.26918 
L 519.968745 446.645522 
L 526.676484 419.59843 
L 533.384222 308.740938 
L 540.091961 271.510123 
L 546.799699 322.620368 
L 553.507438 396.028038 
L 560.215177 407.744795 
L 566.922915 347.846983 
L 573.630654 314.352936 
L 580.338392 382.039107 
L 587.046131 347.73748 
L 593.753869 384.995672 
L 600.461608 360.754578 
L 607.169346 335.117329 
L 613.877085 419.72162 
L 620.584823 416.573426 
L 627.292562 410.112784 
L 634.000301 390.361289 
L 640.708039 381.190463 
L 647.415778 356.579799 
L 654.123516 395.316273 
L 660.831255 397.971706 
L 667.538993 489.844219 
L 674.246732 332.87253 
L 680.95447 409.264141 
L 687.662209 403.29626 
L 694.369947 377.029372 
L 701.077686 287.45641 
L 707.785424 393.180976 
L 714.493163 391.949074 
L 721.200902 319.18473 
L 727.90864 207.629161 
L 734.616379 432.506025 
L 741.324117 340.756702 
L 748.031856 348.818817 
L 754.739594 386.296013 
L 761.447333 314.024429 
L 768.155071 224.643096 
L 774.86281 298.502464 
L 781.570548 366.3392 
L 788.278287 326.302386 
L 794.986026 297.558006 
L 801.693764 344.87673 
L 808.401503 333.420042 
L 815.109241 308.138675 
L 821.81698 299.036288 
L 828.524718 381.163088 
L 835.232457 301.185273 
L 841.940195 155.382829 
L 848.647934 223.041623 
L 855.355672 267.568036 
L 862.063411 210.243531 
L 868.77115 276.588297 
L 875.478888 250.690979 
L 882.186627 306.879398 
L 888.894365 205.110606 
L 895.602104 159.721861 
L 902.309842 256.09766 
L 909.017581 321.566407 
L 915.725319 300.624073 
L 922.433058 165.238045 
L 929.140796 237.851823 
L 935.848535 165.634991 
L 942.556273 288.551434 
L 949.264012 276.834677 
L 955.971751 182.25198 
L 962.679489 110.308904 
L 969.387228 163.390192 
L 976.094966 247.597536 
L 982.802705 234.525688 
L 989.510443 203.235377 
L 996.218182 168.56418 
" style="fill:none;stroke:#e69f00;stroke-linecap:round;stroke-width:3;"/>
   </g>
   <g id="line2d_25">
    <path clip-path="url(#pa954c34cb7)" d="M 184.581818 384.69454 
L 191.289557 412.234393 
L 197.997295 416.901933 
L 204.705034 461.099839 
L 211.412772 484.902923 
L 218.120511 408.826131 
L 224.828249 401.078836 
L 231.535988 497.194567 
L 238.243727 406.855088 
L 244.951465 468.039553 
L 251.659204 396.534487 
L 258.366942 420.255444 
L 265.074681 452.353335 
L 271.782419 452.106954 
L 278.490158 431.260435 
L 285.197896 349.503206 
L 291.905635 462.975067 
L 298.613373 554.04 
L 305.321112 466.314891 
L 312.02885 445.180928 
L 318.736589 442.908753 
L 325.444328 340.414507 
L 332.152066 435.339399 
L 338.859805 412.029076 
L 345.567543 439.432052 
L 352.275282 398.06752 
L 358.98302 381.012522 
L 365.690759 412.097515 
L 372.398497 347.710105 
L 379.106236 447.193034 
L 385.813974 361.261027 
L 392.521713 265.460115 
L 399.229452 407.52579 
L 405.93719 435.996414 
L 412.644929 338.101269 
L 419.352667 424.348096 
L 426.060406 432.807157 
L 432.768144 359.988061 
L 439.475883 295.135265 
L 446.183621 351.446874 
L 452.89136 315.037326 
L 459.599098 320.745139 
L 466.306837 336.376606 
L 473.014576 344.616662 
L 479.722314 309.890714 
L 486.430053 386.651895 
L 493.137791 359.098354 
L 499.84553 344.698789 
L 506.553268 392.537649 
L 513.261007 374.264436 
L 519.968745 448.342809 
L 526.676484 420.419698 
L 533.384222 308.029173 
L 540.091961 272.632522 
L 546.799699 328.76619 
L 553.507438 401.886417 
L 560.215177 421.815853 
L 566.922915 360.6177 
L 573.630654 326.179196 
L 580.338392 386.8709 
L 587.046131 354.088619 
L 593.753869 394.015932 
L 600.461608 362.123358 
L 607.169346 336.896743 
L 613.877085 423.417326 
L 620.584823 416.340733 
L 627.292562 409.661087 
L 634.000301 394.809824 
L 640.708039 383.88696 
L 647.415778 352.090201 
L 654.123516 397.684262 
L 660.831255 398.861413 
L 667.538993 503.14876 
L 674.246732 328.341868 
L 680.95447 417.846391 
L 687.662209 404.938796 
L 694.369947 385.556871 
L 701.077686 287.5796 
L 707.785424 402.351802 
L 714.493163 400.216505 
L 721.200902 323.41426 
L 727.90864 207.492283 
L 734.616379 442.621309 
L 741.324117 350.392913 
L 748.031856 359.536364 
L 754.739594 389.895904 
L 761.447333 324.769352 
L 768.155071 235.278517 
L 774.86281 299.720678 
L 781.570548 378.28865 
L 788.278287 325.960191 
L 794.986026 296.983118 
L 801.693764 353.992805 
L 808.401503 335.801719 
L 815.109241 306.947837 
L 821.81698 294.122368 
L 828.524718 368.255492 
L 835.232457 299.748054 
L 841.940195 136.110406 
L 848.647934 218.305645 
L 855.355672 265.309549 
L 862.063411 207.875541 
L 868.77115 274.453 
L 875.478888 249.445389 
L 882.186627 317.323189 
L 888.894365 202.824743 
L 895.602104 148.210422 
L 902.309842 255.030012 
L 909.017581 317.460067 
L 915.725319 293.465354 
L 922.433058 149.606577 
L 929.140796 236.291414 
L 935.848535 158.503647 
L 942.556273 294.587753 
L 949.264012 282.446675 
L 955.971751 189.09588 
L 962.679489 110.514221 
L 969.387228 171.616559 
L 976.094966 253.770734 
L 982.802705 230.008714 
L 989.510443 186.070876 
L 996.218182 154.575248 
" style="fill:none;stroke:#696969;stroke-linecap:round;stroke-width:3;"/>
   </g>
  </g>
 </g>
 <defs>
  <clipPath id="pa954c34cb7">
   <rect height="498.96" width="892.8" x="144" y="77.76"/>
  </clipPath>
 </defs>
</svg>
