<?xml version="1.0" encoding="utf-8" standalone="no"?>
<!DOCTYPE svg PUBLIC "-//W3C//DTD SVG 1.1//EN"
  "http://www.w3.org/Graphics/SVG/1.1/DTD/svg11.dtd">
<!-- Created with matplotlib (https://matplotlib.org/) -->
<svg height="648pt" version="1.1" viewBox="0 0 1152 648" width="1152pt" xmlns="http://www.w3.org/2000/svg" xmlns:xlink="http://www.w3.org/1999/xlink">
 <metadata>
  <rdf:RDF xmlns:cc="http://creativecommons.org/ns#" xmlns:dc="http://purl.org/dc/elements/1.1/" xmlns:rdf="http://www.w3.org/1999/02/22-rdf-syntax-ns#">
   <cc:Work>
    <dc:type rdf:resource="http://purl.org/dc/dcmitype/StillImage"/>
    <dc:date>2022-11-29T10:43:43.281788</dc:date>
    <dc:format>image/svg+xml</dc:format>
    <dc:creator>
     <cc:Agent>
      <dc:title>Matplotlib v3.3.1, https://matplotlib.org/</dc:title>
     </cc:Agent>
    </dc:creator>
   </cc:Work>
  </rdf:RDF>
 </metadata>
 <defs>
  <style type="text/css">*{stroke-linecap:butt;stroke-linejoin:round;}</style>
 </defs>
 <g id="figure_1">
  <g id="patch_1">
   <path d="M 0 648 
L 1152 648 
L 1152 0 
L 0 0 
z
" style="fill:#ffffff;"/>
  </g>
  <g id="axes_1">
   <g id="patch_2">
    <path d="M 144 576.72 
L 1036.8 576.72 
L 1036.8 77.76 
L 144 77.76 
z
" style="fill:none;"/>
   </g>
   <g id="line2d_1">
    <path clip-path="url(#p207e46b61b)" d="M 710.149627 357.665816 
L 716.802385 343.612637 
L 723.455142 379.008718 
L 730.107899 399.182145 
L 736.760656 314.45375 
L 743.413413 368.834294 
L 750.06617 380.840894 
L 756.718927 375.753682 
L 763.371684 243.330237 
L 770.024441 303.480186 
L 776.677198 368.444469 
L 783.329955 272.800983 
L 789.982712 334.880564 
L 796.635469 370.140206 
L 803.288227 314.239347 
L 809.940984 334.958529 
L 816.593741 285.294864 
L 823.246498 310.360591 
L 829.899255 305.643713 
L 836.552012 216.023018 
L 843.204769 288.627865 
L 849.857526 329.364545 
L 856.510283 268.727315 
L 863.16304 242.803974 
L 869.815797 225.183898 
L 876.468554 250.600468 
L 883.121311 186.454816 
L 889.774069 251.516556 
L 896.426826 238.554885 
L 903.079583 262.080804 
L 909.73234 197.447872 
L 916.385097 103.558597 
L 923.037854 250.405555 
L 929.690611 235.455779 
L 936.343368 194.426731 
L 942.996125 191.581011 
L 949.648882 167.061038 
L 956.301639 100.44 
L 962.954396 168.016109 
L 969.607154 160.687405 
L 976.259911 135.095414 
L 982.912668 145.718137 
L 989.565425 119.346497 
L 996.218182 189.885273 
" style="fill:none;stroke:#0072b2;stroke-linecap:round;stroke-width:3;"/>
   </g>
   <g id="line2d_2">
    <path clip-path="url(#p207e46b61b)" d="M 570.441729 351.214218 
L 577.094486 386.766229 
L 583.747243 354.157394 
L 590.4 433.506208 
L 597.052757 401.462619 
L 603.705514 397.83725 
L 610.358271 422.78603 
L 617.011028 410.175201 
L 623.663785 363.025906 
L 630.316542 453.309302 
L 636.9693 423.89703 
L 643.622057 314.531715 
L 650.274814 370.081733 
L 656.927571 444.889089 
L 663.580328 391.015318 
L 670.233085 345.40583 
L 676.885842 480.109749 
L 683.538599 459.000743 
L 690.191356 464.419306 
L 696.844113 386.356913 
L 703.49687 394.582214 
L 710.149627 338.564407 
L 716.802385 337.999161 
L 723.455142 365.61824 
L 730.107899 388.871282 
L 736.760656 311.276679 
L 743.413413 354.449763 
L 750.06617 366.631784 
L 756.718927 378.24856 
L 763.371684 243.193799 
L 770.024441 295.196411 
L 776.677198 367.547872 
L 783.329955 276.777195 
L 789.982712 341.644022 
L 796.635469 373.453716 
L 803.288227 326.421368 
L 809.940984 331.489089 
L 816.593741 267.187508 
L 823.246498 292.954919 
L 829.899255 288.101602 
L 836.552012 197.038556 
L 843.204769 263.386717 
L 849.857526 311.023293 
L 856.510283 251.886889 
L 863.16304 242.355675 
L 869.815797 230.758391 
L 876.468554 270.130684 
L 883.121311 210.799367 
L 889.774069 275.022984 
L 896.426826 262.236734 
L 903.079583 283.910987 
L 909.73234 227.971145 
L 916.385097 127.026043 
L 923.037854 263.367226 
L 929.690611 260.482523 
L 936.343368 213.99593 
L 942.996125 220.057704 
L 949.648882 208.226525 
L 956.301639 142.112259 
L 962.954396 219.862791 
L 969.607154 214.541684 
L 976.259911 187.059044 
L 982.912668 204.133365 
L 989.565425 177.118515 
L 996.218182 242.706518 
" style="fill:none;stroke:#d55e00;stroke-linecap:round;stroke-width:3;"/>
   </g>
   <g id="patch_3">
    <path d="M 144 576.72 
L 1036.8 576.72 
" style="fill:none;stroke:#d3d3d3;stroke-linecap:square;stroke-linejoin:miter;stroke-width:1.25;"/>
   </g>
   <g id="matplotlib.axis_1">
    <g id="xtick_1">
     <g id="line2d_3">
      <defs>
       <path d="M 0 0 
L 0 6 
" id="m7ced3a47be" style="stroke:#696969;stroke-width:1.25;"/>
      </defs>
      <g>
       <use style="fill:#696969;stroke:#696969;stroke-width:1.25;" x="184.581818" xlink:href="#m7ced3a47be" y="576.72"/>
      </g>
     </g>
     <g id="text_1">
      <!-- 1900 -->
      <g style="fill:#696969;" transform="translate(167.092756 596.218438)scale(0.15 -0.15)">
       <defs>
        <path d="M 55.859375 6.203125 
L 55.859375 0 
L 9.1875 0 
L 9.1875 6.203125 
L 29.203125 6.203125 
L 29.203125 57.671875 
Q 20.359375 48.4375 10.84375 43.265625 
L 10.84375 51.65625 
Q 23.96875 58.546875 31.203125 68.015625 
L 37.15625 68.015625 
L 37.15625 6.203125 
z
" id="FranklinGothic-Book-49"/>
        <path d="M 5.71875 12.15625 
L 12.40625 14.59375 
Q 16.546875 5.375 26.375 5.375 
Q 35.890625 5.375 40.703125 13.375 
Q 45.515625 21.390625 45.65625 35.109375 
Q 39.109375 23.09375 25.984375 23.09375 
Q 16.703125 23.09375 10.40625 29.421875 
Q 4.109375 35.75 4.109375 45.0625 
Q 4.109375 54.546875 10.71875 61.28125 
Q 17.328125 68.015625 27.59375 68.015625 
Q 40.140625 68.015625 46.828125 59.203125 
Q 53.515625 50.390625 53.515625 34.96875 
Q 53.515625 18.75 46.4375 8.71875 
Q 39.359375 -1.3125 26.265625 -1.3125 
Q 10.984375 -1.3125 5.71875 12.15625 
z
M 27.828125 29.78125 
Q 34.71875 29.78125 39.375 34.59375 
Q 44.046875 39.40625 44.046875 45.84375 
Q 44.046875 52.09375 39.625 56.578125 
Q 35.203125 61.078125 27.984375 61.078125 
Q 20.65625 61.078125 16.40625 56.46875 
Q 12.15625 51.859375 12.15625 45.21875 
Q 12.15625 38.09375 16.859375 33.9375 
Q 21.578125 29.78125 27.828125 29.78125 
z
" id="FranklinGothic-Book-57"/>
        <path d="M 29.390625 -1.3125 
Q 17.875 -1.3125 10.984375 8.671875 
Q 4.109375 18.65625 4.109375 33.453125 
Q 4.109375 48 10.640625 58 
Q 17.1875 68.015625 29.15625 68.015625 
Q 41.65625 68.015625 48.125 57.5625 
Q 54.59375 47.125 54.59375 33.0625 
Q 54.59375 19.28125 47.953125 8.984375 
Q 41.3125 -1.3125 29.390625 -1.3125 
z
M 29.4375 5.21875 
Q 37.890625 5.21875 41.9375 12.859375 
Q 46 20.515625 46 32.078125 
Q 46 44.734375 41.84375 53.125 
Q 37.703125 61.53125 29.046875 61.53125 
Q 20.703125 61.53125 16.625 53.859375 
Q 12.546875 46.1875 12.546875 33.6875 
Q 12.546875 20.703125 16.84375 12.953125 
Q 21.140625 5.21875 29.4375 5.21875 
z
" id="FranklinGothic-Book-48"/>
       </defs>
       <use xlink:href="#FranklinGothic-Book-49"/>
       <use x="57.267578" xlink:href="#FranklinGothic-Book-57"/>
       <use x="115.910156" xlink:href="#FranklinGothic-Book-48"/>
       <use x="174.552734" xlink:href="#FranklinGothic-Book-48"/>
      </g>
     </g>
    </g>
    <g id="xtick_2">
     <g id="line2d_4">
      <g>
       <use style="fill:#696969;stroke:#696969;stroke-width:1.25;" x="317.63696" xlink:href="#m7ced3a47be" y="576.72"/>
      </g>
     </g>
     <g id="text_2">
      <!-- 1920 -->
      <g style="fill:#696969;" transform="translate(300.147897 596.218438)scale(0.15 -0.15)">
       <defs>
        <path d="M 52.484375 6.9375 
L 52.484375 0 
L 5.171875 0 
L 5.171875 6.9375 
Q 33.203125 27.9375 38.59375 34.59375 
Q 44 41.265625 44 47.796875 
Q 44 53.90625 39.453125 57.65625 
Q 34.90625 61.421875 29 61.421875 
Q 22.90625 61.421875 18.21875 57.296875 
Q 13.53125 53.171875 12.9375 46.09375 
L 5.171875 48.4375 
Q 10.0625 68.015625 29.109375 68.015625 
Q 39.40625 68.015625 45.84375 62.15625 
Q 52.296875 56.296875 52.296875 47.859375 
Q 52.296875 42.046875 49.234375 36.671875 
Q 46.1875 31.296875 37.6875 23.828125 
Q 29.203125 16.359375 15.71875 6.9375 
z
" id="FranklinGothic-Book-50"/>
       </defs>
       <use xlink:href="#FranklinGothic-Book-49"/>
       <use x="57.267578" xlink:href="#FranklinGothic-Book-57"/>
       <use x="115.910156" xlink:href="#FranklinGothic-Book-50"/>
       <use x="174.552734" xlink:href="#FranklinGothic-Book-48"/>
      </g>
     </g>
    </g>
    <g id="xtick_3">
     <g id="line2d_5">
      <g>
       <use style="fill:#696969;stroke:#696969;stroke-width:1.25;" x="450.692101" xlink:href="#m7ced3a47be" y="576.72"/>
      </g>
     </g>
     <g id="text_3">
      <!-- 1940 -->
      <g style="fill:#696969;" transform="translate(433.240539 596.218438)scale(0.15 -0.15)">
       <defs>
        <path d="M 44.09375 0 
L 36.03125 0 
L 36.03125 15.875 
L 3.078125 15.875 
L 3.078125 21.484375 
L 33.640625 68.0625 
L 44.09375 68.0625 
L 44.09375 22.46875 
L 54.890625 22.46875 
L 54.890625 15.875 
L 44.09375 15.875 
z
M 36.03125 22.46875 
L 36.03125 54 
Q 36.03125 57.421875 36.1875 61.375 
Q 34.078125 57.515625 32.5625 55.125 
L 11.765625 22.46875 
z
" id="FranklinGothic-Book-52"/>
       </defs>
       <use xlink:href="#FranklinGothic-Book-49"/>
       <use x="57.267578" xlink:href="#FranklinGothic-Book-57"/>
       <use x="115.410156" xlink:href="#FranklinGothic-Book-52"/>
       <use x="174.052734" xlink:href="#FranklinGothic-Book-48"/>
      </g>
     </g>
    </g>
    <g id="xtick_4">
     <g id="line2d_6">
      <g>
       <use style="fill:#696969;stroke:#696969;stroke-width:1.25;" x="583.747243" xlink:href="#m7ced3a47be" y="576.72"/>
      </g>
     </g>
     <g id="text_4">
      <!-- 1960 -->
      <g style="fill:#696969;" transform="translate(566.25818 596.218438)scale(0.15 -0.15)">
       <defs>
        <path d="M 53.5625 53.03125 
L 46.046875 50.984375 
Q 42.1875 61.140625 31.984375 61.140625 
Q 13.234375 61.140625 12.796875 30.125 
Q 15.765625 37.015625 21.234375 40.328125 
Q 26.703125 43.65625 32.8125 43.65625 
Q 42.09375 43.65625 48.359375 37.1875 
Q 54.640625 30.71875 54.640625 21.6875 
Q 54.640625 12.3125 47.96875 5.5 
Q 41.3125 -1.3125 30.90625 -1.3125 
Q 19.09375 -1.3125 12.078125 7.59375 
Q 5.078125 16.5 5.078125 31.84375 
Q 5.078125 46.828125 11.6875 57.421875 
Q 18.3125 68.015625 32.171875 68.015625 
Q 48.140625 68.015625 53.5625 53.03125 
z
M 30.765625 5.375 
Q 37.84375 5.375 42.359375 10.03125 
Q 46.875 14.703125 46.875 21.234375 
Q 46.875 27.6875 42.453125 32.296875 
Q 38.03125 36.921875 31.5 36.921875 
Q 24.75 36.921875 19.71875 32.078125 
Q 14.703125 27.25 14.703125 20.75 
Q 14.703125 14.75 19.1875 10.0625 
Q 23.6875 5.375 30.765625 5.375 
z
" id="FranklinGothic-Book-54"/>
       </defs>
       <use xlink:href="#FranklinGothic-Book-49"/>
       <use x="57.267578" xlink:href="#FranklinGothic-Book-57"/>
       <use x="115.910156" xlink:href="#FranklinGothic-Book-54"/>
       <use x="174.552734" xlink:href="#FranklinGothic-Book-48"/>
      </g>
     </g>
    </g>
    <g id="xtick_5">
     <g id="line2d_7">
      <g>
       <use style="fill:#696969;stroke:#696969;stroke-width:1.25;" x="716.802385" xlink:href="#m7ced3a47be" y="576.72"/>
      </g>
     </g>
     <g id="text_5">
      <!-- 1980 -->
      <g style="fill:#696969;" transform="translate(699.313322 596.218438)scale(0.15 -0.15)">
       <defs>
        <path d="M 19.484375 34.578125 
Q 6.84375 40.09375 6.84375 50.59375 
Q 6.84375 58.203125 13.140625 63.109375 
Q 19.4375 68.015625 29.828125 68.015625 
Q 40.09375 68.015625 46.140625 63.296875 
Q 52.203125 58.59375 52.203125 50.984375 
Q 52.203125 40.375 39.265625 35.796875 
Q 49.703125 30.953125 52.359375 26.453125 
Q 55.03125 21.96875 55.03125 17.484375 
Q 55.03125 9.46875 48.21875 4.078125 
Q 41.40625 -1.3125 29.734375 -1.3125 
Q 17.28125 -1.3125 10.4375 4.171875 
Q 3.609375 9.671875 3.609375 17.234375 
Q 3.609375 28.515625 19.484375 34.578125 
z
M 29.59375 38.71875 
Q 37.984375 40.96875 41.453125 43.890625 
Q 44.921875 46.828125 44.921875 51.21875 
Q 44.921875 56.34375 40.796875 59 
Q 36.671875 61.671875 29.9375 61.671875 
Q 23.484375 61.671875 19.375 58.859375 
Q 15.28125 56.0625 15.28125 51.3125 
Q 15.28125 46.625 19.84375 43.203125 
Q 24.421875 39.796875 29.59375 38.71875 
z
M 28.65625 31.0625 
Q 11.765625 27.046875 11.765625 16.9375 
Q 11.765625 11.671875 16.375 8.328125 
Q 21 4.984375 29.984375 4.984375 
Q 37.59375 4.984375 42.234375 8.25 
Q 46.875 11.53125 46.875 16.609375 
Q 46.875 26.3125 28.65625 31.0625 
z
" id="FranklinGothic-Book-56"/>
       </defs>
       <use xlink:href="#FranklinGothic-Book-49"/>
       <use x="57.267578" xlink:href="#FranklinGothic-Book-57"/>
       <use x="115.910156" xlink:href="#FranklinGothic-Book-56"/>
       <use x="174.552734" xlink:href="#FranklinGothic-Book-48"/>
      </g>
     </g>
    </g>
    <g id="xtick_6">
     <g id="line2d_8">
      <g>
       <use style="fill:#696969;stroke:#696969;stroke-width:1.25;" x="849.857526" xlink:href="#m7ced3a47be" y="576.72"/>
      </g>
     </g>
     <g id="text_6">
      <!-- 2000 -->
      <g style="fill:#696969;" transform="translate(832.265339 596.218438)scale(0.15 -0.15)">
       <use xlink:href="#FranklinGothic-Book-50"/>
       <use x="58.642578" xlink:href="#FranklinGothic-Book-48"/>
       <use x="117.285156" xlink:href="#FranklinGothic-Book-48"/>
       <use x="175.927734" xlink:href="#FranklinGothic-Book-48"/>
      </g>
     </g>
    </g>
    <g id="xtick_7">
     <g id="line2d_9">
      <g>
       <use style="fill:#696969;stroke:#696969;stroke-width:1.25;" x="982.912668" xlink:href="#m7ced3a47be" y="576.72"/>
      </g>
     </g>
     <g id="text_7">
      <!-- 2020 -->
      <g style="fill:#696969;" transform="translate(965.32048 596.218438)scale(0.15 -0.15)">
       <use xlink:href="#FranklinGothic-Book-50"/>
       <use x="58.642578" xlink:href="#FranklinGothic-Book-48"/>
       <use x="117.285156" xlink:href="#FranklinGothic-Book-50"/>
       <use x="175.927734" xlink:href="#FranklinGothic-Book-48"/>
      </g>
     </g>
    </g>
    <g id="text_8">
     <!-- Year -->
     <g style="fill:#696969;" transform="translate(572.109375 616.048125)scale(0.2 -0.2)">
      <defs>
       <path d="M 52 66.65625 
L 29.6875 28.03125 
L 29.6875 0 
L 21.34375 0 
L 21.34375 28.03125 
L -0.984375 66.65625 
L 8.84375 66.65625 
L 26.5625 35.984375 
L 44.390625 66.65625 
z
" id="FranklinGothic-Book-89"/>
       <path d="M 40.234375 14.703125 
L 47.359375 13.234375 
Q 45.40625 6.9375 39.734375 2.8125 
Q 34.078125 -1.3125 26.421875 -1.3125 
Q 16.3125 -1.3125 10.0625 5.78125 
Q 3.8125 12.890625 3.8125 24.421875 
Q 3.8125 36.1875 10.296875 43.4375 
Q 16.796875 50.6875 26.609375 50.6875 
Q 36.28125 50.6875 42.15625 44 
Q 48.046875 37.3125 48.1875 23.96875 
L 12.359375 23.96875 
Q 12.359375 12.796875 17.046875 8.890625 
Q 21.734375 4.984375 26.953125 4.984375 
Q 36.375 4.984375 40.234375 14.703125 
z
M 39.796875 29.6875 
Q 39.703125 33.84375 38.421875 37.0625 
Q 37.15625 40.28125 34.125 42.546875 
Q 31.109375 44.828125 26.859375 44.828125 
Q 21.140625 44.828125 17.15625 40.71875 
Q 13.1875 36.625 12.703125 29.6875 
z
" id="FranklinGothic-Book-101"/>
       <path d="M 46.296875 0 
L 38.671875 0 
Q 38.234375 2.34375 37.796875 8.890625 
Q 32.71875 -1.3125 20.515625 -1.3125 
Q 12.203125 -1.3125 7.765625 3.078125 
Q 3.328125 7.46875 3.328125 13.625 
Q 3.328125 21.09375 9.671875 25.90625 
Q 16.015625 30.71875 31.25 30.71875 
Q 33.296875 30.71875 37.796875 30.515625 
Q 37.796875 36.375 36.890625 38.984375 
Q 35.984375 41.609375 33.046875 43.171875 
Q 30.125 44.734375 25.34375 44.734375 
Q 13.671875 44.734375 11.765625 35.84375 
L 4.6875 37.0625 
Q 7.28125 50.6875 26.46875 50.6875 
Q 36.671875 50.6875 40.9375 46.171875 
Q 45.21875 41.65625 45.21875 30.515625 
L 45.21875 9.578125 
Q 45.21875 4.34375 46.296875 0 
z
M 37.796875 24.65625 
Q 33.109375 24.953125 30.671875 24.953125 
Q 21.578125 24.953125 16.546875 21.96875 
Q 11.53125 19 11.53125 13.28125 
Q 11.53125 9.671875 14.234375 7.125 
Q 16.9375 4.59375 22.078125 4.59375 
Q 29 4.59375 33.46875 9.625 
Q 37.9375 14.65625 37.9375 21.4375 
Q 37.9375 22.796875 37.796875 24.65625 
z
" id="FranklinGothic-Book-97"/>
       <path d="M 15.328125 0 
L 7.671875 0 
L 7.671875 49.3125 
L 14.40625 49.3125 
L 14.40625 37.796875 
Q 17.96875 45.953125 21.546875 48.359375 
Q 25.140625 50.78125 28.90625 50.78125 
Q 30.078125 50.78125 31.9375 50.59375 
L 31.9375 43.265625 
L 30.375 43.265625 
Q 24.03125 43.265625 19.828125 38.53125 
Q 15.625 33.796875 15.328125 26.078125 
z
" id="FranklinGothic-Book-114"/>
      </defs>
      <use xlink:href="#FranklinGothic-Book-89"/>
      <use x="45.025391" xlink:href="#FranklinGothic-Book-101"/>
      <use x="97.076172" xlink:href="#FranklinGothic-Book-97"/>
      <use x="149.957031" xlink:href="#FranklinGothic-Book-114"/>
     </g>
    </g>
   </g>
   <g id="matplotlib.axis_2">
    <g id="ytick_1">
     <g id="line2d_10">
      <path clip-path="url(#p207e46b61b)" d="M 144 485.664751 
L 1036.8 485.664751 
" style="fill:none;stroke:#d3d3d3;stroke-linecap:round;stroke-opacity:0.5;"/>
     </g>
     <g id="text_9">
      <!-- −1.0 -->
      <g style="fill:#696969;" transform="translate(104.455469 490.66397)scale(0.15 -0.15)">
       <defs>
        <path d="M 6 36.765625 
L 52.6875 36.765625 
L 52.6875 30.03125 
L 6 30.03125 
z
" id="FranklinGothic-Book-8722"/>
        <path d="M 17.96875 10.9375 
L 17.96875 0 
L 7.078125 0 
L 7.078125 10.9375 
z
" id="FranklinGothic-Book-46"/>
       </defs>
       <use xlink:href="#FranklinGothic-Book-8722"/>
       <use x="58.642578" xlink:href="#FranklinGothic-Book-49"/>
       <use x="116.660156" xlink:href="#FranklinGothic-Book-46"/>
       <use x="141.660156" xlink:href="#FranklinGothic-Book-48"/>
      </g>
     </g>
    </g>
    <g id="ytick_2">
     <g id="line2d_11">
      <path clip-path="url(#p207e46b61b)" d="M 144 388.20858 
L 1036.8 388.20858 
" style="fill:none;stroke:#d3d3d3;stroke-linecap:round;stroke-opacity:0.5;"/>
     </g>
     <g id="text_10">
      <!-- −0.5 -->
      <g style="fill:#696969;" transform="translate(104.361719 393.207799)scale(0.15 -0.15)">
       <defs>
        <path d="M 48.875 66.65625 
L 48.1875 59.46875 
L 15.4375 59.46875 
L 14.015625 37.84375 
Q 21.4375 45.125 30.328125 45.125 
Q 39.703125 45.125 46.515625 38.625 
Q 53.328125 32.125 53.328125 22.015625 
Q 53.328125 11.765625 45.921875 5.21875 
Q 38.53125 -1.3125 27.828125 -1.3125 
Q 19.4375 -1.3125 12.890625 3.078125 
Q 6.34375 7.46875 4.296875 14.453125 
L 11.421875 16.890625 
Q 15.828125 5.28125 27.9375 5.28125 
Q 35.890625 5.28125 40.578125 9.984375 
Q 45.265625 14.703125 45.265625 22.015625 
Q 45.265625 29.6875 40.625 33.984375 
Q 35.984375 38.28125 29.5 38.28125 
Q 20.015625 38.28125 13.8125 29.203125 
L 7.234375 30.609375 
L 9.375 66.65625 
z
" id="FranklinGothic-Book-53"/>
       </defs>
       <use xlink:href="#FranklinGothic-Book-8722"/>
       <use x="58.642578" xlink:href="#FranklinGothic-Book-48"/>
       <use x="117.285156" xlink:href="#FranklinGothic-Book-46"/>
       <use x="142.285156" xlink:href="#FranklinGothic-Book-53"/>
      </g>
     </g>
    </g>
    <g id="ytick_3">
     <g id="line2d_12">
      <path clip-path="url(#p207e46b61b)" d="M 144 290.75241 
L 1036.8 290.75241 
" style="fill:none;stroke:#d3d3d3;stroke-linecap:round;stroke-opacity:0.5;"/>
     </g>
     <g id="text_11">
      <!-- 0.0 -->
      <g style="fill:#696969;" transform="translate(113.157813 295.751629)scale(0.15 -0.15)">
       <use xlink:href="#FranklinGothic-Book-48"/>
       <use x="58.642578" xlink:href="#FranklinGothic-Book-46"/>
       <use x="83.642578" xlink:href="#FranklinGothic-Book-48"/>
      </g>
     </g>
    </g>
    <g id="ytick_4">
     <g id="line2d_13">
      <path clip-path="url(#p207e46b61b)" d="M 144 193.296239 
L 1036.8 193.296239 
" style="fill:none;stroke:#d3d3d3;stroke-linecap:round;stroke-opacity:0.5;"/>
     </g>
     <g id="text_12">
      <!-- 0.5 -->
      <g style="fill:#696969;" transform="translate(113.157813 198.295458)scale(0.15 -0.15)">
       <use xlink:href="#FranklinGothic-Book-48"/>
       <use x="58.642578" xlink:href="#FranklinGothic-Book-46"/>
       <use x="83.642578" xlink:href="#FranklinGothic-Book-53"/>
      </g>
     </g>
    </g>
    <g id="ytick_5">
     <g id="line2d_14">
      <path clip-path="url(#p207e46b61b)" d="M 144 95.840069 
L 1036.8 95.840069 
" style="fill:none;stroke:#d3d3d3;stroke-linecap:round;stroke-opacity:0.5;"/>
     </g>
     <g id="text_13">
      <!-- 1.0 -->
      <g style="fill:#696969;" transform="translate(113.251563 100.839288)scale(0.15 -0.15)">
       <use xlink:href="#FranklinGothic-Book-49"/>
       <use x="58.017578" xlink:href="#FranklinGothic-Book-46"/>
       <use x="83.017578" xlink:href="#FranklinGothic-Book-48"/>
      </g>
     </g>
    </g>
    <g id="text_14">
     <!-- $\!^\circ\!$C -->
     <g style="fill:#696969;" transform="translate(91.030469 337.34)rotate(-90)scale(0.2 -0.2)">
      <defs>
       <path d="M 31.296875 40.671875 
Q 27.390625 40.671875 24.703125 37.953125 
Q 22.015625 35.25 22.015625 31.34375 
Q 22.015625 27.484375 24.703125 24.828125 
Q 27.390625 22.171875 31.296875 22.171875 
Q 35.203125 22.171875 37.890625 24.828125 
Q 40.578125 27.484375 40.578125 31.34375 
Q 40.578125 35.203125 37.859375 37.9375 
Q 35.15625 40.671875 31.296875 40.671875 
z
M 31.296875 46.96875 
Q 34.421875 46.96875 37.296875 45.765625 
Q 40.1875 44.578125 42.28125 42.328125 
Q 44.53125 40.140625 45.65625 37.34375 
Q 46.78125 34.5625 46.78125 31.34375 
Q 46.78125 24.90625 42.265625 20.4375 
Q 37.75 15.96875 31.203125 15.96875 
Q 24.609375 15.96875 20.21875 20.359375 
Q 15.828125 24.75 15.828125 31.34375 
Q 15.828125 37.890625 20.3125 42.421875 
Q 24.8125 46.96875 31.296875 46.96875 
z
" id="DejaVuSans-8728"/>
       <path d="M 48.296875 22.40625 
L 55.90625 20.703125 
Q 50.4375 -1.3125 31.203125 -1.3125 
Q 18.5625 -1.3125 11.359375 8.890625 
Q 4.15625 19.09375 4.15625 33.984375 
Q 4.15625 49.359375 11.671875 58.6875 
Q 19.1875 68.015625 31.84375 68.015625 
Q 50.59375 68.015625 55.90625 46.578125 
L 48.046875 45.015625 
Q 43.75 60.9375 31.78125 60.9375 
Q 22.953125 60.9375 18.09375 53.53125 
Q 13.234375 46.140625 13.234375 32.765625 
Q 13.234375 20.515625 18.203125 13.109375 
Q 23.1875 5.71875 31.390625 5.71875 
Q 44.140625 5.71875 48.296875 22.40625 
z
" id="FranklinGothic-Book-67"/>
      </defs>
      <use transform="translate(-1.64095 39.121875)scale(0.7)" xlink:href="#DejaVuSans-8728"/>
      <use transform="translate(42.313804 0.840625)" xlink:href="#FranklinGothic-Book-67"/>
     </g>
    </g>
   </g>
   <g id="text_15">
    <!-- Compared to 1981-2010 average -->
    <g style="fill:#696969;" transform="translate(144 75.2652)scale(0.3 -0.3)">
     <defs>
      <path d="M 25.34375 -1.3125 
Q 15.1875 -1.3125 9.5 6.203125 
Q 3.8125 13.71875 3.8125 24.859375 
Q 3.8125 36.625 10.203125 43.65625 
Q 16.609375 50.6875 26.125 50.6875 
Q 36.328125 50.6875 42.203125 43.28125 
Q 48.09375 35.890625 48.09375 24.8125 
Q 48.09375 13.28125 41.75 5.984375 
Q 35.40625 -1.3125 25.34375 -1.3125 
z
M 25.921875 4.984375 
Q 31.78125 4.984375 35.734375 9.8125 
Q 39.703125 14.65625 39.703125 24.859375 
Q 39.703125 35.109375 35.546875 39.71875 
Q 31.390625 44.34375 25.828125 44.34375 
Q 20.125 44.34375 16.15625 39.671875 
Q 12.203125 35.015625 12.203125 24.90625 
Q 12.203125 14.203125 16.15625 9.59375 
Q 20.125 4.984375 25.921875 4.984375 
z
" id="FranklinGothic-Book-111"/>
      <path d="M 73.734375 0 
L 66.265625 0 
L 66.265625 30.671875 
Q 66.265625 35.40625 65.59375 37.765625 
Q 64.9375 40.140625 62.390625 42.109375 
Q 59.859375 44.09375 56.6875 44.09375 
Q 52.296875 44.09375 48.21875 40.0625 
Q 44.140625 36.03125 44.140625 27.78125 
L 44.140625 0 
L 36.71875 0 
L 36.71875 32.46875 
Q 36.71875 38.96875 33.609375 41.65625 
Q 30.515625 44.34375 27.09375 44.34375 
Q 22.21875 44.34375 18.59375 40.140625 
Q 14.984375 35.9375 14.984375 29.5 
L 14.984375 0 
L 7.671875 0 
L 7.671875 49.3125 
L 14.265625 49.3125 
L 14.265625 39.84375 
Q 19.78125 50.6875 29.4375 50.6875 
Q 34.765625 50.6875 38.46875 47.21875 
Q 42.1875 43.75 43.265625 38.875 
Q 48.34375 50.6875 58.84375 50.6875 
Q 63.875 50.6875 67.65625 47.796875 
Q 71.4375 44.921875 72.578125 41.1875 
Q 73.734375 37.453125 73.734375 30.671875 
z
" id="FranklinGothic-Book-109"/>
      <path d="M 15.328125 -16.65625 
L 7.671875 -16.65625 
L 7.671875 49.3125 
L 14.546875 49.3125 
L 14.546875 39.75 
Q 19.78125 50.6875 30.125 50.6875 
Q 38.875 50.6875 44.234375 43.375 
Q 49.609375 36.078125 49.609375 24.90625 
Q 49.609375 12.84375 44.09375 5.765625 
Q 38.578125 -1.3125 29.9375 -1.3125 
Q 20.65625 -1.3125 15.328125 7.515625 
z
M 15.328125 31.78125 
L 15.328125 17.921875 
Q 16.0625 12.3125 20.0625 8.640625 
Q 24.078125 4.984375 28.421875 4.984375 
Q 33.453125 4.984375 37.328125 9.375 
Q 41.21875 13.765625 41.21875 24.5625 
Q 41.21875 33.890625 37.703125 38.9375 
Q 34.1875 44 28.375 44 
Q 23.78125 44 20.140625 40.421875 
Q 16.5 36.859375 15.328125 31.78125 
z
" id="FranklinGothic-Book-112"/>
      <path d="M 46.1875 66.65625 
L 46.1875 0 
L 39.203125 0 
L 39.203125 8.453125 
Q 34.03125 -1.3125 23.640625 -1.3125 
Q 14.984375 -1.3125 9.421875 5.9375 
Q 3.859375 13.1875 3.859375 24.265625 
Q 3.859375 35.59375 9.375 43.140625 
Q 14.890625 50.6875 24.03125 50.6875 
Q 32.90625 50.6875 38.53125 42.578125 
L 38.53125 66.65625 
z
M 38.53125 30.28125 
Q 38.53125 36.765625 34.5625 40.671875 
Q 30.609375 44.578125 25.34375 44.578125 
Q 19.625 44.578125 15.9375 39.5 
Q 12.25 34.421875 12.25 25.25 
Q 12.25 15.328125 15.640625 10.15625 
Q 19.046875 4.984375 24.953125 4.984375 
Q 30.328125 4.984375 34.421875 9.46875 
Q 38.53125 13.96875 38.53125 20.015625 
z
" id="FranklinGothic-Book-100"/>
      <path id="FranklinGothic-Book-32"/>
      <path d="M 30.03125 5.28125 
L 30.03125 -0.78125 
Q 25.984375 -1.3125 23 -1.3125 
Q 8.6875 -1.3125 8.6875 13.625 
L 8.6875 43.3125 
L -0.046875 43.3125 
L -0.046875 49.3125 
L 8.6875 49.3125 
L 9.03125 61.71875 
L 16.15625 62.40625 
L 16.15625 49.3125 
L 27.203125 49.3125 
L 27.203125 43.3125 
L 16.15625 43.3125 
L 16.15625 12.359375 
Q 16.15625 4.734375 24.078125 4.734375 
Q 26.703125 4.734375 30.03125 5.28125 
z
" id="FranklinGothic-Book-116"/>
      <path d="M 23.53125 27.984375 
L 23.53125 22.015625 
L 1.46875 22.015625 
L 1.46875 27.984375 
z
" id="FranklinGothic-Book-45"/>
      <path d="M 43.796875 49.3125 
L 26.765625 0 
L 18.796875 0 
L 1.171875 49.3125 
L 9.671875 49.3125 
L 23.390625 9.234375 
L 36.96875 49.3125 
z
" id="FranklinGothic-Book-118"/>
      <path d="M 47.953125 57.03125 
L 47.953125 50.921875 
Q 42.671875 50.921875 40.890625 49.703125 
Q 39.109375 48.484375 38.53125 45.3125 
Q 43.265625 39.84375 43.265625 33.40625 
Q 43.265625 26.65625 38.109375 21.828125 
Q 32.953125 17 24.265625 17 
Q 22.3125 17 20.90625 17.28125 
Q 18.21875 17.828125 17.53125 17.828125 
Q 16.21875 17.828125 14.359375 16.53125 
Q 12.5 15.234375 12.5 13.1875 
Q 12.5 10.25 15.1875 9.375 
Q 17.875 8.5 27.828125 8.25 
Q 36.28125 8.015625 40.3125 7.109375 
Q 44.34375 6.203125 47.125 3.09375 
Q 49.90625 0 49.90625 -4.5 
Q 49.90625 -18.609375 25.09375 -18.609375 
Q 13.328125 -18.609375 7.9375 -15.0625 
Q 2.546875 -11.53125 2.546875 -5.609375 
Q 2.546875 1.5625 10.0625 4.25 
Q 5.21875 7.421875 5.21875 12.203125 
Q 5.21875 17.921875 12.0625 20.953125 
Q 5.671875 26.125 5.671875 33.984375 
Q 5.671875 41.3125 11.140625 46 
Q 16.609375 50.6875 24.46875 50.6875 
Q 30.03125 50.6875 34.578125 48.578125 
Q 35.296875 53.421875 37.953125 55.265625 
Q 40.625 57.125 46.046875 57.125 
Q 46.578125 57.125 47.953125 57.03125 
z
M 24.515625 22.859375 
Q 29.390625 22.859375 32.46875 25.859375 
Q 35.546875 28.859375 35.546875 33.640625 
Q 35.546875 38.53125 32.34375 41.625 
Q 29.15625 44.734375 24.609375 44.734375 
Q 20.265625 44.734375 16.890625 41.828125 
Q 13.53125 38.921875 13.53125 33.546875 
Q 13.53125 28.765625 16.546875 25.8125 
Q 19.578125 22.859375 24.515625 22.859375 
z
M 15.328125 2 
Q 9.96875 -0.34375 9.96875 -4.78125 
Q 9.96875 -8.546875 14.375 -10.625 
Q 18.796875 -12.703125 25.640625 -12.703125 
Q 31.984375 -12.703125 37.25 -10.90625 
Q 42.53125 -9.125 42.53125 -4.890625 
Q 42.53125 -2.59375 40.96875 -1.125 
Q 39.40625 0.34375 36.6875 0.734375 
Q 33.984375 1.125 27.25 1.3125 
Q 19.1875 1.515625 15.328125 2 
z
" id="FranklinGothic-Book-103"/>
     </defs>
     <use xlink:href="#FranklinGothic-Book-67"/>
     <use x="57.910156" xlink:href="#FranklinGothic-Book-111"/>
     <use x="109.863281" xlink:href="#FranklinGothic-Book-109"/>
     <use x="190.384766" xlink:href="#FranklinGothic-Book-112"/>
     <use x="243.802734" xlink:href="#FranklinGothic-Book-97"/>
     <use x="296.683594" xlink:href="#FranklinGothic-Book-114"/>
     <use x="329.642578" xlink:href="#FranklinGothic-Book-101"/>
     <use x="381.693359" xlink:href="#FranklinGothic-Book-100"/>
     <use x="435.550781" xlink:href="#FranklinGothic-Book-32"/>
     <use x="460.550781" xlink:href="#FranklinGothic-Book-116"/>
     <use x="489.8125" xlink:href="#FranklinGothic-Book-111"/>
     <use x="541.765625" xlink:href="#FranklinGothic-Book-32"/>
     <use x="566.765625" xlink:href="#FranklinGothic-Book-49"/>
     <use x="624.033203" xlink:href="#FranklinGothic-Book-57"/>
     <use x="682.675781" xlink:href="#FranklinGothic-Book-56"/>
     <use x="737.443359" xlink:href="#FranklinGothic-Book-49"/>
     <use x="796.085938" xlink:href="#FranklinGothic-Book-45"/>
     <use x="821.085938" xlink:href="#FranklinGothic-Book-50"/>
     <use x="879.728516" xlink:href="#FranklinGothic-Book-48"/>
     <use x="934.621094" xlink:href="#FranklinGothic-Book-49"/>
     <use x="990.013672" xlink:href="#FranklinGothic-Book-48"/>
     <use x="1048.65625" xlink:href="#FranklinGothic-Book-32"/>
     <use x="1073.65625" xlink:href="#FranklinGothic-Book-97"/>
     <use x="1124.287109" xlink:href="#FranklinGothic-Book-118"/>
     <use x="1167.806641" xlink:href="#FranklinGothic-Book-101"/>
     <use x="1219.857422" xlink:href="#FranklinGothic-Book-114"/>
     <use x="1252.816406" xlink:href="#FranklinGothic-Book-97"/>
     <use x="1305.697266" xlink:href="#FranklinGothic-Book-103"/>
     <use x="1354.818359" xlink:href="#FranklinGothic-Book-101"/>
    </g>
   </g>
   <g id="text_16">
    <!-- WMO RA I Africa annual temperature -->
    <g style="fill:#696969;" transform="translate(144 42.76)scale(0.4 -0.4)">
     <defs>
      <path d="M 79.828125 66.65625 
L 63.765625 0 
L 55.421875 0 
L 40.875 51.703125 
L 27.34375 0 
L 18.796875 0 
L 1.90625 66.65625 
L 10.546875 66.65625 
L 23.875 12.640625 
L 38.03125 66.65625 
L 44.78125 66.65625 
L 60.0625 12.640625 
L 72.515625 66.65625 
z
" id="FranklinGothic-Book-87"/>
      <path d="M 72.703125 0 
L 64.59375 0 
L 64.59375 58.203125 
L 42.921875 0 
L 37.25 0 
L 15.4375 58.203125 
L 15.4375 0 
L 8.34375 0 
L 8.34375 66.65625 
L 20.75 66.65625 
L 40.828125 13.328125 
L 60.5 66.65625 
L 72.703125 66.65625 
z
" id="FranklinGothic-Book-77"/>
      <path d="M 31.34375 -1.3125 
Q 18.5 -1.3125 11.328125 8.671875 
Q 4.15625 18.65625 4.15625 33.15625 
Q 4.15625 48.296875 11.671875 58.15625 
Q 19.1875 68.015625 31.59375 68.015625 
Q 43.953125 68.015625 51.421875 58.328125 
Q 58.890625 48.640625 58.890625 33.890625 
Q 58.890625 19.734375 51.640625 9.203125 
Q 44.390625 -1.3125 31.34375 -1.3125 
z
M 31.546875 5.46875 
Q 40.28125 5.46875 45.203125 13.421875 
Q 50.140625 21.390625 50.140625 33.9375 
Q 50.140625 46.828125 45.03125 54 
Q 39.9375 61.1875 31.5 61.1875 
Q 22.953125 61.1875 17.921875 53.421875 
Q 12.890625 45.65625 12.890625 33.109375 
Q 12.890625 20.84375 17.96875 13.15625 
Q 23.046875 5.46875 31.546875 5.46875 
z
" id="FranklinGothic-Book-79"/>
      <path d="M 56.296875 0 
L 47.5625 0 
L 35.25 28.859375 
L 16.15625 28.859375 
L 16.15625 0 
L 8.34375 0 
L 8.34375 66.65625 
L 34.625 66.65625 
Q 45.3125 66.65625 50.453125 60.8125 
Q 55.609375 54.984375 55.609375 48.046875 
Q 55.609375 42.71875 52.734375 37.828125 
Q 49.859375 32.953125 43.21875 30.859375 
z
M 16.15625 35.640625 
L 33.59375 35.640625 
Q 40.484375 35.640625 43.875 39.28125 
Q 47.265625 42.921875 47.265625 48.1875 
Q 47.265625 53.46875 43.671875 56.390625 
Q 40.09375 59.328125 34.625 59.328125 
L 16.15625 59.328125 
z
" id="FranklinGothic-Book-82"/>
      <path d="M 53.21875 0 
L 44.671875 0 
L 37.9375 19.484375 
L 13.28125 19.484375 
L 7.328125 0 
L 0.34375 0 
L 21.96875 66.65625 
L 31.5 66.65625 
z
M 36.1875 25.734375 
L 25.921875 57.765625 
L 15.578125 25.734375 
z
" id="FranklinGothic-Book-65"/>
      <path d="M 16.703125 0 
L 8.34375 0 
L 8.34375 66.65625 
L 16.703125 66.65625 
z
" id="FranklinGothic-Book-73"/>
      <path d="M 28.125 49.3125 
L 28.125 43.3125 
L 16.40625 43.3125 
L 16.40625 0 
L 8.734375 0 
L 8.734375 43.3125 
L 0.34375 43.3125 
L 0.34375 49.3125 
L 8.734375 49.3125 
Q 8.9375 61.1875 13.296875 64.59375 
Q 17.671875 68.015625 23.96875 68.015625 
Q 27.046875 68.015625 31 67.328125 
L 31 61.234375 
Q 28.515625 61.859375 26.265625 61.859375 
Q 21.234375 61.859375 18.8125 59.640625 
Q 16.40625 57.421875 16.40625 51.3125 
L 16.40625 49.3125 
z
" id="FranklinGothic-Book-102"/>
      <path d="M 15.578125 66.65625 
L 15.578125 58.15625 
L 7.328125 58.15625 
L 7.328125 66.65625 
z
M 15.328125 49.3125 
L 15.328125 0 
L 7.671875 0 
L 7.671875 49.3125 
z
" id="FranklinGothic-Book-105"/>
      <path d="M 36.8125 17.28125 
L 43.75 16.0625 
Q 42.28125 7.90625 37.25 3.296875 
Q 32.234375 -1.3125 24.703125 -1.3125 
Q 14.5 -1.3125 9.15625 6.203125 
Q 3.8125 13.71875 3.8125 24.5625 
Q 3.8125 35.796875 9.453125 43.234375 
Q 15.09375 50.6875 24.8125 50.6875 
Q 32.859375 50.6875 37.71875 45.875 
Q 42.578125 41.0625 43.75 33.453125 
L 36.8125 32.125 
Q 34.859375 44.34375 25 44.34375 
Q 18.65625 44.34375 15.234375 38.9375 
Q 11.8125 33.546875 11.8125 24.953125 
Q 11.8125 15.484375 15.203125 10.234375 
Q 18.609375 4.984375 24.75 4.984375 
Q 34.28125 4.984375 36.8125 17.28125 
z
" id="FranklinGothic-Book-99"/>
      <path d="M 46.53125 0 
L 39.359375 0 
L 39.359375 31.6875 
Q 39.359375 38.53125 36.375 41.3125 
Q 33.40625 44.09375 29.15625 44.09375 
Q 23.296875 44.09375 19.3125 39.40625 
Q 15.328125 34.71875 15.328125 27.046875 
L 15.328125 0 
L 7.671875 0 
L 7.671875 49.3125 
L 14.796875 49.3125 
L 14.796875 40.234375 
Q 20.796875 50.6875 30.375 50.6875 
Q 35.890625 50.6875 39.765625 47.828125 
Q 43.65625 44.96875 45.09375 41.40625 
Q 46.53125 37.84375 46.53125 28.515625 
z
" id="FranklinGothic-Book-110"/>
      <path d="M 46.484375 0 
L 39.59375 0 
L 39.59375 9.421875 
Q 34.328125 -1.3125 23.875 -1.3125 
Q 16.3125 -1.3125 11.984375 3.65625 
Q 7.671875 8.640625 7.671875 17.828125 
L 7.671875 49.3125 
L 15.328125 49.3125 
L 15.328125 17.828125 
Q 15.328125 10.5 18.375 7.734375 
Q 21.4375 4.984375 25.09375 4.984375 
Q 28.8125 4.984375 31.8125 7.078125 
Q 34.8125 9.1875 36.8125 13.0625 
Q 38.8125 16.9375 38.8125 21.53125 
L 38.8125 49.3125 
L 46.484375 49.3125 
z
" id="FranklinGothic-Book-117"/>
      <path d="M 15.328125 0 
L 7.671875 0 
L 7.671875 66.65625 
L 15.328125 66.65625 
z
" id="FranklinGothic-Book-108"/>
     </defs>
     <use xlink:href="#FranklinGothic-Book-87"/>
     <use x="81.738281" xlink:href="#FranklinGothic-Book-77"/>
     <use x="162.744141" xlink:href="#FranklinGothic-Book-79"/>
     <use x="225.830078" xlink:href="#FranklinGothic-Book-32"/>
     <use x="250.830078" xlink:href="#FranklinGothic-Book-82"/>
     <use x="312.109375" xlink:href="#FranklinGothic-Book-65"/>
     <use x="365.673828" xlink:href="#FranklinGothic-Book-32"/>
     <use x="390.673828" xlink:href="#FranklinGothic-Book-73"/>
     <use x="415.673828" xlink:href="#FranklinGothic-Book-32"/>
     <use x="440.673828" xlink:href="#FranklinGothic-Book-65"/>
     <use x="494.238281" xlink:href="#FranklinGothic-Book-102"/>
     <use x="524.21875" xlink:href="#FranklinGothic-Book-114"/>
     <use x="557.177734" xlink:href="#FranklinGothic-Book-105"/>
     <use x="580.126953" xlink:href="#FranklinGothic-Book-99"/>
     <use x="626.708984" xlink:href="#FranklinGothic-Book-97"/>
     <use x="679.589844" xlink:href="#FranklinGothic-Book-32"/>
     <use x="704.589844" xlink:href="#FranklinGothic-Book-97"/>
     <use x="757.470703" xlink:href="#FranklinGothic-Book-110"/>
     <use x="811.669922" xlink:href="#FranklinGothic-Book-110"/>
     <use x="865.869141" xlink:href="#FranklinGothic-Book-117"/>
     <use x="920.019531" xlink:href="#FranklinGothic-Book-97"/>
     <use x="972.900391" xlink:href="#FranklinGothic-Book-108"/>
     <use x="995.898438" xlink:href="#FranklinGothic-Book-32"/>
     <use x="1020.898438" xlink:href="#FranklinGothic-Book-116"/>
     <use x="1049.910156" xlink:href="#FranklinGothic-Book-101"/>
     <use x="1101.960938" xlink:href="#FranklinGothic-Book-109"/>
     <use x="1182.482422" xlink:href="#FranklinGothic-Book-112"/>
     <use x="1235.900391" xlink:href="#FranklinGothic-Book-101"/>
     <use x="1287.951172" xlink:href="#FranklinGothic-Book-114"/>
     <use x="1320.910156" xlink:href="#FranklinGothic-Book-97"/>
     <use x="1373.791016" xlink:href="#FranklinGothic-Book-116"/>
     <use x="1404.552734" xlink:href="#FranklinGothic-Book-117"/>
     <use x="1458.703125" xlink:href="#FranklinGothic-Book-114"/>
     <use x="1491.662109" xlink:href="#FranklinGothic-Book-101"/>
    </g>
   </g>
   <g id="legend_1">
    <g id="line2d_15"/>
    <g id="text_17">
     <!-- HadCRUT5 (1900-2022) -->
     <g style="fill:#696969;" transform="translate(185.856 129.7184)scale(0.2 -0.2)">
      <defs>
       <path d="M 55.953125 0 
L 47.609375 0 
L 47.609375 31.734375 
L 16.703125 31.734375 
L 16.703125 0 
L 8.34375 0 
L 8.34375 66.65625 
L 16.703125 66.65625 
L 16.703125 39.0625 
L 47.609375 39.0625 
L 47.609375 66.65625 
L 55.953125 66.65625 
z
" id="FranklinGothic-Book-72"/>
       <path d="M 46.34375 66.65625 
L 53.265625 66.65625 
L 53.265625 23.140625 
Q 53.265625 10.0625 46.84375 4.375 
Q 40.4375 -1.3125 30.03125 -1.3125 
Q 18.453125 -1.3125 12.890625 4.546875 
Q 7.328125 10.40625 7.328125 23.140625 
L 7.328125 66.65625 
L 15.671875 66.65625 
L 15.671875 23.140625 
Q 15.671875 15.375 17.46875 12.203125 
Q 19.28125 9.03125 22.9375 7.515625 
Q 26.609375 6 30.609375 6 
Q 38.328125 6 42.328125 10.046875 
Q 46.34375 14.109375 46.34375 23.140625 
z
" id="FranklinGothic-Book-85"/>
       <path d="M 28.421875 0 
L 20.125 0 
L 20.125 59.328125 
L 1.03125 59.328125 
L 1.03125 66.65625 
L 47.5625 66.65625 
L 47.5625 59.328125 
L 28.421875 59.328125 
z
" id="FranklinGothic-Book-84"/>
       <path d="M 24.703125 -16.65625 
L 19.578125 -16.65625 
Q 5.21875 2.203125 5.21875 25.09375 
Q 5.21875 46.96875 19.578125 66.65625 
L 24.703125 66.65625 
Q 12.359375 48.25 12.359375 25 
Q 12.359375 2.828125 24.703125 -16.65625 
z
" id="FranklinGothic-Book-40"/>
       <path d="M 4.640625 66.65625 
L 9.71875 66.65625 
Q 24.125 47.796875 24.125 24.90625 
Q 24.125 3.03125 9.71875 -16.65625 
L 4.640625 -16.65625 
Q 17 1.765625 17 25 
Q 17 47.171875 4.640625 66.65625 
z
" id="FranklinGothic-Book-41"/>
      </defs>
      <use xlink:href="#FranklinGothic-Book-72"/>
      <use x="64.257812" xlink:href="#FranklinGothic-Book-97"/>
      <use x="117.138672" xlink:href="#FranklinGothic-Book-100"/>
      <use x="170.996094" xlink:href="#FranklinGothic-Book-67"/>
      <use x="228.90625" xlink:href="#FranklinGothic-Book-82"/>
      <use x="289.310547" xlink:href="#FranklinGothic-Book-85"/>
      <use x="349.90625" xlink:href="#FranklinGothic-Book-84"/>
      <use x="398.441406" xlink:href="#FranklinGothic-Book-53"/>
      <use x="457.083984" xlink:href="#FranklinGothic-Book-32"/>
      <use x="482.083984" xlink:href="#FranklinGothic-Book-40"/>
      <use x="511.429688" xlink:href="#FranklinGothic-Book-49"/>
      <use x="568.697266" xlink:href="#FranklinGothic-Book-57"/>
      <use x="627.339844" xlink:href="#FranklinGothic-Book-48"/>
      <use x="685.982422" xlink:href="#FranklinGothic-Book-48"/>
      <use x="744.625" xlink:href="#FranklinGothic-Book-45"/>
      <use x="769.625" xlink:href="#FranklinGothic-Book-50"/>
      <use x="828.267578" xlink:href="#FranklinGothic-Book-48"/>
      <use x="886.910156" xlink:href="#FranklinGothic-Book-50"/>
      <use x="945.552734" xlink:href="#FranklinGothic-Book-50"/>
      <use x="1004.195312" xlink:href="#FranklinGothic-Book-41"/>
     </g>
    </g>
    <g id="line2d_16"/>
    <g id="text_18">
     <!-- NOAAGlobalTemp (1900-2022) -->
     <g style="fill:#e69f00;" transform="translate(185.856 157.04965)scale(0.2 -0.2)">
      <defs>
       <path d="M 57.421875 0 
L 49.3125 0 
L 14.84375 58.109375 
L 14.9375 53.71875 
Q 15.09375 51.21875 15.09375 49.515625 
L 15.09375 0 
L 8.34375 0 
L 8.34375 66.65625 
L 18.796875 66.65625 
L 51.03125 12.3125 
L 50.921875 16.9375 
Q 50.828125 19.671875 50.828125 21.78125 
L 50.828125 66.65625 
L 57.421875 66.65625 
z
" id="FranklinGothic-Book-78"/>
       <path d="M 57.71875 33.59375 
L 57.71875 -0.875 
L 52.59375 -0.875 
L 50.296875 7.46875 
Q 44.140625 -1.3125 31.984375 -1.3125 
Q 18.796875 -1.3125 11.46875 8.59375 
Q 4.15625 18.5 4.15625 32.671875 
Q 4.15625 47.796875 11.90625 57.90625 
Q 19.671875 68.015625 33.015625 68.015625 
Q 51.421875 68.015625 57.03125 48.6875 
L 49.125 46.78125 
Q 47.40625 54.203125 42.71875 57.5625 
Q 38.03125 60.9375 32.46875 60.9375 
Q 22.609375 60.9375 17.921875 52.96875 
Q 13.234375 45.015625 13.234375 33.015625 
Q 13.234375 20.0625 18.484375 12.765625 
Q 23.734375 5.46875 32.765625 5.46875 
Q 39.796875 5.46875 44.5 10.125 
Q 49.21875 14.796875 49.21875 23 
Q 49.21875 24.515625 49.125 26.609375 
L 32.625 26.609375 
L 32.625 33.59375 
z
" id="FranklinGothic-Book-71"/>
       <path d="M 11.375 0 
L 7.671875 0 
L 7.671875 66.65625 
L 15.328125 66.65625 
L 15.328125 41.109375 
Q 20.609375 50.6875 29.890625 50.6875 
Q 38.375 50.6875 44.109375 44 
Q 49.859375 37.3125 49.859375 24.5625 
Q 49.859375 13.578125 44.21875 6.125 
Q 38.578125 -1.3125 29.546875 -1.3125 
Q 19.484375 -1.3125 14.109375 8.15625 
z
M 15.328125 19.34375 
Q 15.875 11.765625 20 8.34375 
Q 24.125 4.9375 28.71875 4.9375 
Q 34.578125 4.9375 38.15625 10.015625 
Q 41.75 15.09375 41.75 23.921875 
Q 41.75 33.453125 38.28125 38.890625 
Q 34.8125 44.34375 28.65625 44.34375 
Q 23.828125 44.34375 19.9375 40.453125 
Q 16.0625 36.578125 15.328125 30.421875 
z
" id="FranklinGothic-Book-98"/>
      </defs>
      <use xlink:href="#FranklinGothic-Book-78"/>
      <use x="65.722656" xlink:href="#FranklinGothic-Book-79"/>
      <use x="127.058594" xlink:href="#FranklinGothic-Book-65"/>
      <use x="180.623047" xlink:href="#FranklinGothic-Book-65"/>
      <use x="231.5625" xlink:href="#FranklinGothic-Book-71"/>
      <use x="296.259766" xlink:href="#FranklinGothic-Book-108"/>
      <use x="319.257812" xlink:href="#FranklinGothic-Book-111"/>
      <use x="371.210938" xlink:href="#FranklinGothic-Book-98"/>
      <use x="424.921875" xlink:href="#FranklinGothic-Book-97"/>
      <use x="477.802734" xlink:href="#FranklinGothic-Book-108"/>
      <use x="500.800781" xlink:href="#FranklinGothic-Book-84"/>
      <use x="542.835938" xlink:href="#FranklinGothic-Book-101"/>
      <use x="594.886719" xlink:href="#FranklinGothic-Book-109"/>
      <use x="675.408203" xlink:href="#FranklinGothic-Book-112"/>
      <use x="728.826172" xlink:href="#FranklinGothic-Book-32"/>
      <use x="753.826172" xlink:href="#FranklinGothic-Book-40"/>
      <use x="783.171875" xlink:href="#FranklinGothic-Book-49"/>
      <use x="840.439453" xlink:href="#FranklinGothic-Book-57"/>
      <use x="899.082031" xlink:href="#FranklinGothic-Book-48"/>
      <use x="957.724609" xlink:href="#FranklinGothic-Book-48"/>
      <use x="1016.367188" xlink:href="#FranklinGothic-Book-45"/>
      <use x="1041.367188" xlink:href="#FranklinGothic-Book-50"/>
      <use x="1100.009766" xlink:href="#FranklinGothic-Book-48"/>
      <use x="1158.652344" xlink:href="#FranklinGothic-Book-50"/>
      <use x="1217.294922" xlink:href="#FranklinGothic-Book-50"/>
      <use x="1275.9375" xlink:href="#FranklinGothic-Book-41"/>
     </g>
    </g>
    <g id="line2d_17"/>
    <g id="text_19">
     <!-- GISTEMP (1900-2022) -->
     <g style="fill:#56b4e9;" transform="translate(185.856 184.3809)scale(0.2 -0.2)">
      <defs>
       <path d="M 1.03125 17.71875 
L 8.546875 19.4375 
Q 13.09375 5.8125 28.21875 5.8125 
Q 36.140625 5.8125 40.140625 9.15625 
Q 44.140625 12.5 44.140625 18.109375 
Q 44.140625 22.359375 41.078125 24.953125 
Q 38.03125 27.546875 34.03125 28.515625 
L 20.703125 31.84375 
Q 15.53125 33.15625 12.234375 35.03125 
Q 8.9375 36.921875 6.640625 40.828125 
Q 4.34375 44.734375 4.34375 49.75 
Q 4.34375 58.109375 10.640625 63.0625 
Q 16.9375 68.015625 26.8125 68.015625 
Q 44.96875 68.015625 50.6875 51.5625 
L 43.109375 49.3125 
Q 41.796875 55.171875 36.90625 58.171875 
Q 32.03125 61.1875 26.515625 61.1875 
Q 21.046875 61.1875 16.765625 58.296875 
Q 12.5 55.421875 12.5 50.140625 
Q 12.5 42.78125 23.34375 40.1875 
L 35.796875 37.203125 
Q 52.875 33.109375 52.875 18.796875 
Q 52.875 10.15625 46.453125 4.421875 
Q 40.046875 -1.3125 28.375 -1.3125 
Q 7.671875 -1.3125 1.03125 17.71875 
z
" id="FranklinGothic-Book-83"/>
       <path d="M 51.46875 7.328125 
L 51.46875 0 
L 8.34375 0 
L 8.34375 66.65625 
L 50.53125 66.65625 
L 50.53125 59.328125 
L 16.703125 59.328125 
L 16.703125 38.140625 
L 43.5625 38.140625 
L 43.5625 31.34375 
L 16.703125 31.34375 
L 16.703125 7.328125 
z
" id="FranklinGothic-Book-69"/>
       <path d="M 16.703125 0 
L 8.34375 0 
L 8.34375 66.65625 
L 31.984375 66.65625 
Q 43.0625 66.65625 48.328125 60.625 
Q 53.609375 54.59375 53.609375 46.875 
Q 53.609375 38.28125 47.875 32.65625 
Q 42.140625 27.046875 32.859375 27.046875 
L 16.703125 27.046875 
z
M 16.703125 33.984375 
L 32.03125 33.984375 
Q 37.9375 33.984375 41.546875 37.515625 
Q 45.171875 41.0625 45.171875 46.875 
Q 45.171875 51.859375 41.9375 55.765625 
Q 38.71875 59.671875 32.625 59.671875 
L 16.703125 59.671875 
z
" id="FranklinGothic-Book-80"/>
      </defs>
      <use xlink:href="#FranklinGothic-Book-71"/>
      <use x="64.697266" xlink:href="#FranklinGothic-Book-73"/>
      <use x="89.697266" xlink:href="#FranklinGothic-Book-83"/>
      <use x="144.630859" xlink:href="#FranklinGothic-Book-84"/>
      <use x="193.166016" xlink:href="#FranklinGothic-Book-69"/>
      <use x="247.951172" xlink:href="#FranklinGothic-Book-77"/>
      <use x="328.957031" xlink:href="#FranklinGothic-Book-80"/>
      <use x="384.865234" xlink:href="#FranklinGothic-Book-32"/>
      <use x="409.865234" xlink:href="#FranklinGothic-Book-40"/>
      <use x="439.210938" xlink:href="#FranklinGothic-Book-49"/>
      <use x="496.478516" xlink:href="#FranklinGothic-Book-57"/>
      <use x="555.121094" xlink:href="#FranklinGothic-Book-48"/>
      <use x="613.763672" xlink:href="#FranklinGothic-Book-48"/>
      <use x="672.40625" xlink:href="#FranklinGothic-Book-45"/>
      <use x="697.40625" xlink:href="#FranklinGothic-Book-50"/>
      <use x="756.048828" xlink:href="#FranklinGothic-Book-48"/>
      <use x="814.691406" xlink:href="#FranklinGothic-Book-50"/>
      <use x="873.333984" xlink:href="#FranklinGothic-Book-50"/>
      <use x="931.976562" xlink:href="#FranklinGothic-Book-41"/>
     </g>
    </g>
    <g id="line2d_18"/>
    <g id="text_20">
     <!-- Berkeley Earth (1900-2022) -->
     <g style="fill:#009e73;" transform="translate(185.856 211.71215)scale(0.2 -0.2)">
      <defs>
       <path d="M 8.34375 0 
L 8.34375 66.65625 
L 34.71875 66.65625 
Q 44.671875 66.65625 49.484375 61.765625 
Q 54.296875 56.890625 54.296875 50.4375 
Q 54.296875 39.109375 42.484375 35.40625 
Q 49.515625 33.59375 52.921875 28.953125 
Q 56.34375 24.3125 56.34375 18.453125 
Q 56.34375 10.59375 51.046875 5.296875 
Q 45.75 0 34.71875 0 
z
M 16.40625 38.09375 
L 30.90625 38.09375 
Q 39.9375 38.09375 42.96875 41.53125 
Q 46 44.96875 46 49.609375 
Q 46 54.203125 42.75 57.03125 
Q 39.5 59.859375 33.0625 59.859375 
L 16.40625 59.859375 
z
M 16.40625 7.328125 
L 34.28125 7.328125 
Q 40.828125 7.328125 44.390625 10.5 
Q 47.953125 13.671875 47.953125 18.75 
Q 47.953125 22.3125 46.34375 25.359375 
Q 44.734375 28.421875 41.796875 30.078125 
Q 38.875 31.734375 33.0625 31.734375 
L 16.40625 31.734375 
z
" id="FranklinGothic-Book-66"/>
       <path d="M 48.390625 0 
L 40.4375 0 
L 26.03125 27.546875 
L 15.328125 15.234375 
L 15.328125 0 
L 7.671875 0 
L 7.671875 66.65625 
L 15.328125 66.65625 
L 15.328125 23.96875 
L 38.234375 49.3125 
L 46.4375 49.3125 
L 31 31.984375 
z
" id="FranklinGothic-Book-107"/>
       <path d="M 41.5 49.3125 
L 21.734375 -5.765625 
Q 17.4375 -17.671875 8.015625 -17.671875 
Q 5.03125 -17.671875 1.421875 -16.65625 
L 1.421875 -10.640625 
Q 4.390625 -11.328125 6.546875 -11.328125 
Q 10.203125 -11.328125 12.671875 -9.21875 
Q 15.140625 -7.125 17.578125 0.921875 
L 0.53125 49.3125 
L 8.34375 49.3125 
L 21.53125 12.25 
L 35.0625 49.3125 
z
" id="FranklinGothic-Book-121"/>
       <path d="M 46.34375 0 
L 38.671875 0 
L 38.671875 29.9375 
Q 38.671875 35.203125 38.015625 37.84375 
Q 37.359375 40.484375 34.890625 42.40625 
Q 32.421875 44.34375 29.203125 44.34375 
Q 23.296875 44.34375 19.3125 39.5 
Q 15.328125 34.671875 15.328125 26.5625 
L 15.328125 0 
L 7.671875 0 
L 7.671875 66.65625 
L 15.328125 66.65625 
L 15.328125 40.234375 
Q 20.5625 50.6875 30.28125 50.6875 
Q 34.625 50.6875 38.015625 48.96875 
Q 41.40625 47.265625 43.203125 44.484375 
Q 45.015625 41.703125 45.671875 38.984375 
Q 46.34375 36.28125 46.34375 29.9375 
z
" id="FranklinGothic-Book-104"/>
      </defs>
      <use xlink:href="#FranklinGothic-Book-66"/>
      <use x="60.449219" xlink:href="#FranklinGothic-Book-101"/>
      <use x="112.5" xlink:href="#FranklinGothic-Book-114"/>
      <use x="144.958984" xlink:href="#FranklinGothic-Book-107"/>
      <use x="192.806641" xlink:href="#FranklinGothic-Book-101"/>
      <use x="244.857422" xlink:href="#FranklinGothic-Book-108"/>
      <use x="267.855469" xlink:href="#FranklinGothic-Book-101"/>
      <use x="318.28125" xlink:href="#FranklinGothic-Book-121"/>
      <use x="359.785156" xlink:href="#FranklinGothic-Book-32"/>
      <use x="384.785156" xlink:href="#FranklinGothic-Book-69"/>
      <use x="439.570312" xlink:href="#FranklinGothic-Book-97"/>
      <use x="492.451172" xlink:href="#FranklinGothic-Book-114"/>
      <use x="528.785156" xlink:href="#FranklinGothic-Book-116"/>
      <use x="559.546875" xlink:href="#FranklinGothic-Book-104"/>
      <use x="613.550781" xlink:href="#FranklinGothic-Book-32"/>
      <use x="638.550781" xlink:href="#FranklinGothic-Book-40"/>
      <use x="667.896484" xlink:href="#FranklinGothic-Book-49"/>
      <use x="725.164062" xlink:href="#FranklinGothic-Book-57"/>
      <use x="783.806641" xlink:href="#FranklinGothic-Book-48"/>
      <use x="842.449219" xlink:href="#FranklinGothic-Book-48"/>
      <use x="901.091797" xlink:href="#FranklinGothic-Book-45"/>
      <use x="926.091797" xlink:href="#FranklinGothic-Book-50"/>
      <use x="984.734375" xlink:href="#FranklinGothic-Book-48"/>
      <use x="1043.376953" xlink:href="#FranklinGothic-Book-50"/>
      <use x="1102.019531" xlink:href="#FranklinGothic-Book-50"/>
      <use x="1160.662109" xlink:href="#FranklinGothic-Book-41"/>
     </g>
    </g>
    <g id="line2d_19"/>
    <g id="text_21">
     <!-- JRA-55 (1958-2022) -->
     <g style="fill:#d55e00;" transform="translate(185.856 239.246525)scale(0.2 -0.2)">
      <defs>
       <path d="M 29.6875 66.65625 
L 29.6875 20.359375 
Q 29.6875 8.25 24.21875 3.46875 
Q 18.75 -1.3125 9.71875 -1.3125 
Q 4.890625 -1.3125 0 0 
L 0 6.84375 
Q 4.78125 5.859375 8.6875 5.859375 
Q 14.265625 5.859375 16.890625 7.515625 
Q 19.53125 9.1875 20.4375 11.8125 
Q 21.34375 14.453125 21.34375 20.359375 
L 21.34375 66.65625 
z
" id="FranklinGothic-Book-74"/>
      </defs>
      <use xlink:href="#FranklinGothic-Book-74"/>
      <use x="37.353516" xlink:href="#FranklinGothic-Book-82"/>
      <use x="98.632812" xlink:href="#FranklinGothic-Book-65"/>
      <use x="153.947266" xlink:href="#FranklinGothic-Book-45"/>
      <use x="178.947266" xlink:href="#FranklinGothic-Book-53"/>
      <use x="237.589844" xlink:href="#FranklinGothic-Book-53"/>
      <use x="296.232422" xlink:href="#FranklinGothic-Book-32"/>
      <use x="321.232422" xlink:href="#FranklinGothic-Book-40"/>
      <use x="350.578125" xlink:href="#FranklinGothic-Book-49"/>
      <use x="407.845703" xlink:href="#FranklinGothic-Book-57"/>
      <use x="466.488281" xlink:href="#FranklinGothic-Book-53"/>
      <use x="525.130859" xlink:href="#FranklinGothic-Book-56"/>
      <use x="583.773438" xlink:href="#FranklinGothic-Book-45"/>
      <use x="608.773438" xlink:href="#FranklinGothic-Book-50"/>
      <use x="667.416016" xlink:href="#FranklinGothic-Book-48"/>
      <use x="726.058594" xlink:href="#FranklinGothic-Book-50"/>
      <use x="784.701172" xlink:href="#FranklinGothic-Book-50"/>
      <use x="843.34375" xlink:href="#FranklinGothic-Book-41"/>
     </g>
    </g>
    <g id="line2d_20"/>
    <g id="text_22">
     <!-- ERA5 (1979-2022) -->
     <g style="fill:#0072b2;" transform="translate(185.856 266.577775)scale(0.2 -0.2)">
      <defs>
       <path d="M 28.078125 0 
L 19.484375 0 
Q 19.484375 16.75 26.3125 32.59375 
Q 33.15625 48.4375 43.0625 59.328125 
L 6.890625 59.328125 
L 7.71875 66.65625 
L 51.765625 66.65625 
L 51.765625 61.671875 
Q 39.84375 47.3125 33.9375 31.78125 
Q 28.03125 16.265625 28.03125 2.296875 
Q 28.03125 1.515625 28.078125 0 
z
" id="FranklinGothic-Book-55"/>
      </defs>
      <use xlink:href="#FranklinGothic-Book-69"/>
      <use x="54.785156" xlink:href="#FranklinGothic-Book-82"/>
      <use x="116.064453" xlink:href="#FranklinGothic-Book-65"/>
      <use x="169.628906" xlink:href="#FranklinGothic-Book-53"/>
      <use x="228.271484" xlink:href="#FranklinGothic-Book-32"/>
      <use x="253.271484" xlink:href="#FranklinGothic-Book-40"/>
      <use x="282.617188" xlink:href="#FranklinGothic-Book-49"/>
      <use x="339.884766" xlink:href="#FranklinGothic-Book-57"/>
      <use x="392.777344" xlink:href="#FranklinGothic-Book-55"/>
      <use x="451.419922" xlink:href="#FranklinGothic-Book-57"/>
      <use x="510.0625" xlink:href="#FranklinGothic-Book-45"/>
      <use x="535.0625" xlink:href="#FranklinGothic-Book-50"/>
      <use x="593.705078" xlink:href="#FranklinGothic-Book-48"/>
      <use x="652.347656" xlink:href="#FranklinGothic-Book-50"/>
      <use x="710.990234" xlink:href="#FranklinGothic-Book-50"/>
      <use x="769.632812" xlink:href="#FranklinGothic-Book-41"/>
     </g>
    </g>
   </g>
   <g id="line2d_21">
    <path clip-path="url(#p207e46b61b)" d="M 184.581818 413.31329 
L 191.234575 412.319237 
L 197.887332 434.94856 
L 204.540089 510.145741 
L 211.192846 554.04 
L 217.845604 492.525665 
L 224.498361 512.426215 
L 231.151118 545.093524 
L 237.803875 485.002049 
L 244.456632 473.424256 
L 251.109389 495.410368 
L 257.762146 524.315868 
L 264.414903 459.254129 
L 271.06766 444.75265 
L 277.720417 382.887473 
L 284.373174 399.182145 
L 291.025931 462.060866 
L 297.678689 483.852066 
L 304.331446 489.562998 
L 310.984203 416.275957 
L 317.63696 451.555091 
L 324.289717 443.739106 
L 330.942474 421.070801 
L 337.595231 447.578879 
L 344.247988 395.985583 
L 350.900745 440.113737 
L 357.553502 379.0477 
L 364.206259 398.967741 
L 370.859016 397.739794 
L 377.511773 453.660144 
L 384.164531 424.715662 
L 390.817288 335.777161 
L 397.470045 409.161657 
L 404.122802 402.72955 
L 410.775559 435.221437 
L 417.428316 447.520406 
L 424.081073 436.137525 
L 430.73383 394.504249 
L 437.386587 424.754644 
L 444.039344 417.971695 
L 450.692101 382.575614 
L 457.344858 326.869667 
L 463.997615 368.658872 
L 470.650373 442.862001 
L 477.30313 403.704111 
L 483.955887 408.459972 
L 490.608644 397.36946 
L 497.261401 360.550519 
L 503.914158 439.762894 
L 510.566915 409.395552 
L 517.219672 459.624462 
L 523.872429 418.653888 
L 530.525186 394.8356 
L 537.177943 429.841856 
L 543.8307 455.394864 
L 550.483458 414.034465 
L 557.136215 472.897992 
L 563.788972 428.613909 
L 570.441729 362.402186 
L 577.094486 404.854094 
L 583.747243 379.905315 
L 590.4 435.143472 
L 597.052757 404.210883 
L 603.705514 389.280598 
L 610.358271 445.356879 
L 617.011028 454.654197 
L 623.663785 381.25021 
L 630.316542 455.433847 
L 636.9693 443.310299 
L 643.622057 337.161038 
L 650.274814 380.879876 
L 656.927571 453.543197 
L 663.580328 404.405796 
L 670.233085 353.358254 
L 676.885842 467.420956 
L 683.538599 451.457635 
L 690.191356 453.387267 
L 696.844113 376.260454 
L 703.49687 382.731543 
L 710.149627 334.100914 
L 716.802385 338.505933 
L 723.455142 368.814802 
L 730.107899 383.491702 
L 736.760656 315.018996 
L 743.413413 351.623534 
L 750.06617 357.860729 
L 756.718927 366.339416 
L 763.371684 248.378467 
L 770.024441 316.071523 
L 776.677198 379.320578 
L 783.329955 292.740516 
L 789.982712 344.002461 
L 796.635469 364.03945 
L 803.288227 323.517174 
L 809.940984 336.576301 
L 816.593741 280.441547 
L 823.246498 298.802289 
L 829.899255 290.59648 
L 836.552012 223.098336 
L 843.204769 281.065266 
L 849.857526 312.758013 
L 856.510283 262.295208 
L 863.16304 234.637147 
L 869.815797 224.872039 
L 876.468554 249.976748 
L 883.121311 191.873379 
L 889.774069 248.573379 
L 896.426826 250.736906 
L 903.079583 269.019684 
L 909.73234 219.648388 
L 916.385097 136.342853 
L 923.037854 264.965507 
L 929.690611 268.103596 
L 936.343368 231.810918 
L 942.996125 222.318687 
L 949.648882 200.157154 
L 956.301639 142.696996 
L 962.954396 203.470663 
L 969.607154 204.269804 
L 976.259911 177.820199 
L 982.912668 190.099677 
L 989.565425 168.113565 
L 996.218182 225.788127 
" style="fill:none;stroke:#009e73;stroke-linecap:round;stroke-width:3;"/>
   </g>
   <g id="line2d_22">
    <path clip-path="url(#p207e46b61b)" d="M 184.581818 374.272348 
L 191.234575 405.633744 
L 197.887332 352.461657 
L 204.540089 414.73615 
L 211.192846 464.029481 
L 217.845604 391.814459 
L 224.498361 454.498267 
L 231.151118 478.823328 
L 237.803875 445.493317 
L 244.456632 441.90693 
L 251.109389 451.555091 
L 257.762146 475.470835 
L 264.414903 433.759594 
L 271.06766 405.41934 
L 277.720417 383.725596 
L 284.373174 397.21353 
L 291.025931 451.496617 
L 297.678689 471.377676 
L 304.331446 475.86066 
L 310.984203 398.266057 
L 317.63696 452.685583 
L 324.289717 445.084001 
L 330.942474 426.021574 
L 337.595231 452.295758 
L 344.247988 405.360866 
L 350.900745 432.882489 
L 357.553502 371.855435 
L 364.206259 384.797614 
L 370.859016 360.628484 
L 377.511773 424.306346 
L 384.164531 411.7345 
L 390.817288 318.020646 
L 397.470045 397.856741 
L 404.122802 380.606999 
L 410.775559 390.294142 
L 417.428316 416.860694 
L 424.081073 397.272004 
L 430.73383 380.606999 
L 437.386587 400.000777 
L 444.039344 402.846497 
L 450.692101 364.858082 
L 457.344858 316.792699 
L 463.997615 347.29648 
L 470.650373 419.141169 
L 477.30313 390.294142 
L 483.955887 397.057601 
L 490.608644 398.538934 
L 497.261401 357.003114 
L 503.914158 430.309646 
L 510.566915 381.89342 
L 517.219672 437.073104 
L 523.872429 420.89538 
L 530.525186 386.78572 
L 537.177943 423.27331 
L 543.8307 440.347631 
L 550.483458 412.280254 
L 557.136215 464.419306 
L 563.788972 416.704765 
L 570.441729 356.028553 
L 577.094486 401.287198 
L 583.747243 373.999471 
L 590.4 420.330134 
L 597.052757 394.933056 
L 603.705514 383.179842 
L 610.358271 441.965404 
L 617.011028 440.269667 
L 623.663785 371.952891 
L 630.316542 447.988195 
L 636.9693 434.675682 
L 643.622057 338.564407 
L 650.274814 371.504593 
L 656.927571 444.830615 
L 663.580328 396.10253 
L 670.233085 338.388986 
L 676.885842 452.841513 
L 683.538599 437.677332 
L 690.191356 440.250175 
L 696.844113 373.979979 
L 703.49687 385.109474 
L 710.149627 333.048388 
L 716.802385 340.494039 
L 723.455142 371.212224 
L 730.107899 372.693558 
L 736.760656 315.057979 
L 743.413413 344.1389 
L 750.06617 351.019306 
L 756.718927 357.802255 
L 763.371684 250.892836 
L 770.024441 316.617277 
L 776.677198 386.551825 
L 783.329955 298.529412 
L 789.982712 353.280289 
L 796.635469 369.360557 
L 803.288227 323.361244 
L 809.940984 332.541616 
L 816.593741 283.150828 
L 823.246498 309.405521 
L 829.899255 298.548903 
L 836.552012 228.224531 
L 843.204769 276.426353 
L 849.857526 309.853819 
L 856.510283 270.890842 
L 863.16304 239.159113 
L 869.815797 219.122124 
L 876.468554 243.135325 
L 883.121311 199.377504 
L 889.774069 251.847906 
L 896.426826 245.493764 
L 903.079583 260.151172 
L 909.73234 210.857841 
L 916.385097 133.692045 
L 923.037854 245.357326 
L 929.690611 241.400605 
L 936.343368 219.395002 
L 942.996125 210.662929 
L 949.648882 172.61604 
L 956.301639 124.589639 
L 962.954396 179.067638 
L 969.607154 180.977779 
L 976.259911 146.673207 
L 982.912668 168.503389 
L 989.565425 150.084173 
L 996.218182 210.916315 
" style="fill:none;stroke:#56b4e9;stroke-linecap:round;stroke-width:3;"/>
   </g>
   <g id="line2d_23">
    <path clip-path="url(#p207e46b61b)" d="M 184.581818 411.247219 
L 191.234575 425.963101 
L 197.887332 412.221781 
L 204.540089 473.112396 
L 211.192846 486.639312 
L 217.845604 440.425596 
L 224.498361 460.014287 
L 231.151118 515.66176 
L 237.803875 443.17386 
L 244.456632 448.37802 
L 251.109389 462.665095 
L 257.762146 505.214459 
L 264.414903 435.240928 
L 271.06766 414.716659 
L 277.720417 403.918515 
L 284.373174 402.378707 
L 291.025931 479.17417 
L 297.678689 488.354541 
L 304.331446 521.723534 
L 310.984203 426.235978 
L 317.63696 473.346291 
L 324.289717 487.165576 
L 330.942474 438.10614 
L 337.595231 477.28352 
L 344.247988 418.147116 
L 350.900745 455.570285 
L 357.553502 390.976336 
L 364.206259 412.260763 
L 370.859016 406.881183 
L 377.511773 450.366126 
L 384.164531 429.724909 
L 390.817288 342.170285 
L 397.470045 419.043713 
L 404.122802 397.700811 
L 410.775559 417.386958 
L 417.428316 433.935015 
L 424.081073 418.283554 
L 430.73383 391.970388 
L 437.386587 415.53529 
L 444.039344 425.690223 
L 450.692101 376.104524 
L 457.344858 325.368842 
L 463.997615 359.809852 
L 470.650373 445.200949 
L 477.30313 398.266057 
L 483.955887 413.527693 
L 490.608644 407.543884 
L 497.261401 370.744435 
L 503.914158 447.734809 
L 510.566915 399.805865 
L 517.219672 456.603321 
L 523.872429 426.138522 
L 530.525186 398.811812 
L 537.177943 432.687576 
L 543.8307 454.244881 
L 550.483458 420.174204 
L 557.136215 469.662448 
L 563.788972 426.937662 
L 570.441729 359.907308 
L 577.094486 413.975992 
L 583.747243 384.193386 
L 590.4 430.465576 
L 597.052757 398.850794 
L 603.705514 385.850141 
L 610.358271 447.306002 
L 617.011028 448.300055 
L 623.663785 374.252857 
L 630.316542 455.472829 
L 636.9693 438.729859 
L 643.622057 337.141547 
L 650.274814 373.570663 
L 656.927571 443.973001 
L 663.580328 401.384655 
L 670.233085 346.380392 
L 676.885842 453.718618 
L 683.538599 445.961107 
L 690.191356 450.093249 
L 696.844113 371.718996 
L 703.49687 382.867982 
L 710.149627 332.034844 
L 716.802385 336.55681 
L 723.455142 376.552822 
L 730.107899 385.713702 
L 736.760656 319.560454 
L 743.413413 354.235359 
L 750.06617 354.293833 
L 756.718927 359.381045 
L 763.371684 250.736906 
L 770.024441 316.149488 
L 776.677198 387.000124 
L 783.329955 294.143884 
L 789.982712 344.996514 
L 796.635469 373.843541 
L 803.288227 319.307068 
L 809.940984 342.794005 
L 816.593741 291.356638 
L 823.246498 305.663204 
L 829.899255 306.559801 
L 836.552012 219.901774 
L 843.204769 269.448491 
L 849.857526 309.658907 
L 856.510283 267.012087 
L 863.16304 237.326937 
L 869.815797 220.973792 
L 876.468554 240.718412 
L 883.121311 197.798714 
L 889.774069 241.47857 
L 896.426826 240.036219 
L 903.079583 258.728312 
L 909.73234 210.623946 
L 916.385097 126.65571 
L 923.037854 244.304799 
L 929.690611 237.404902 
L 936.343368 218.42044 
L 942.996125 206.10198 
L 949.648882 168.561863 
L 956.301639 116.520268 
L 962.954396 176.241409 
L 969.607154 171.641478 
L 976.259911 141.118206 
L 982.912668 158.777264 
L 989.565425 139.305521 
L 996.218182 205.419787 
" style="fill:none;stroke:#e69f00;stroke-linecap:round;stroke-width:3;"/>
   </g>
   <g id="line2d_24">
    <path clip-path="url(#p207e46b61b)" d="M 184.581818 414.911571 
L 191.234575 415.262413 
L 197.887332 421.519099 
L 204.540089 491.726525 
L 211.192846 537.901258 
L 217.845604 461.378673 
L 224.498361 449.781389 
L 231.151118 485.859663 
L 237.803875 438.554438 
L 244.456632 426.411399 
L 251.109389 470.481079 
L 257.762146 454.790636 
L 264.414903 384.992527 
L 271.06766 393.56867 
L 277.720417 357.763273 
L 284.373174 356.379395 
L 291.025931 438.476473 
L 297.678689 454.420303 
L 304.331446 444.050966 
L 310.984203 367.236012 
L 317.63696 421.441134 
L 324.289717 409.200639 
L 330.942474 378.365507 
L 337.595231 423.390258 
L 344.247988 351.584551 
L 350.900745 455.921128 
L 357.553502 390.917862 
L 364.206259 400.643988 
L 370.859016 390.878879 
L 377.511773 439.451035 
L 384.164531 422.16231 
L 390.817288 348.290533 
L 397.470045 423.838556 
L 404.122802 387.273001 
L 410.775559 435.513805 
L 417.428316 410.720956 
L 424.081073 404.600708 
L 430.73383 376.04605 
L 437.386587 395.166951 
L 444.039344 394.972039 
L 450.692101 365.852135 
L 457.344858 308.099608 
L 463.997615 349.284586 
L 470.650373 431.94691 
L 477.30313 386.47386 
L 483.955887 412.826009 
L 490.608644 385.128965 
L 497.261401 353.358254 
L 503.914158 428.224084 
L 510.566915 400.195689 
L 517.219672 458.201602 
L 523.872429 411.812465 
L 530.525186 380.93835 
L 537.177943 419.745397 
L 543.8307 447.247528 
L 550.483458 409.142166 
L 557.136215 461.456638 
L 563.788972 423.42924 
L 570.441729 366.125012 
L 577.094486 407.660832 
L 583.747243 386.006071 
L 590.4 435.260419 
L 597.052757 410.740447 
L 603.705514 392.983933 
L 610.358271 447.383967 
L 617.011028 451.028828 
L 623.663785 385.479807 
L 630.316542 459.780392 
L 636.9693 439.100193 
L 643.622057 337.784758 
L 650.274814 380.334122 
L 656.927571 457.032128 
L 663.580328 406.101533 
L 670.233085 366.826696 
L 676.885842 469.740413 
L 683.538599 458.377023 
L 690.191356 454.732162 
L 696.844113 386.727246 
L 703.49687 390.177195 
L 710.149627 338.44746 
L 716.802385 348.134603 
L 723.455142 378.774823 
L 730.107899 388.325528 
L 736.760656 320.301121 
L 743.413413 350.668463 
L 750.06617 364.936047 
L 756.718927 373.707102 
L 763.371684 264.84856 
L 770.024441 320.028243 
L 776.677198 384.622193 
L 783.329955 303.324256 
L 789.982712 338.096617 
L 796.635469 374.077436 
L 803.288227 327.181526 
L 809.940984 357.41243 
L 816.593741 300.459044 
L 823.246498 302.018343 
L 829.899255 278.648353 
L 836.552012 227.815215 
L 843.204769 288.257532 
L 849.857526 308.801293 
L 856.510283 262.509612 
L 863.16304 244.285308 
L 869.815797 229.335531 
L 876.468554 237.892183 
L 883.121311 183.336219 
L 889.774069 234.520199 
L 896.426826 225.807618 
L 903.079583 246.721712 
L 909.73234 192.282695 
L 916.385097 113.577092 
L 923.037854 234.773585 
L 929.690611 236.566779 
L 936.343368 206.608752 
L 942.996125 217.991633 
L 949.648882 185.207377 
L 956.301639 138.019099 
L 962.954396 201.248663 
L 969.607154 195.381801 
L 976.259911 184.15485 
L 982.912668 200.09868 
L 989.565425 184.174342 
L 996.218182 242.998886 
" style="fill:none;stroke:#696969;stroke-linecap:round;stroke-width:3;"/>
   </g>
  </g>
 </g>
 <defs>
  <clipPath id="p207e46b61b">
   <rect height="498.96" width="892.8" x="144" y="77.76"/>
  </clipPath>
 </defs>
</svg>
