<?xml version="1.0" encoding="utf-8" standalone="no"?>
<!DOCTYPE svg PUBLIC "-//W3C//DTD SVG 1.1//EN"
  "http://www.w3.org/Graphics/SVG/1.1/DTD/svg11.dtd">
<!-- Created with matplotlib (https://matplotlib.org/) -->
<svg height="648pt" version="1.1" viewBox="0 0 1152 648" width="1152pt" xmlns="http://www.w3.org/2000/svg" xmlns:xlink="http://www.w3.org/1999/xlink">
 <metadata>
  <rdf:RDF xmlns:cc="http://creativecommons.org/ns#" xmlns:dc="http://purl.org/dc/elements/1.1/" xmlns:rdf="http://www.w3.org/1999/02/22-rdf-syntax-ns#">
   <cc:Work>
    <dc:type rdf:resource="http://purl.org/dc/dcmitype/StillImage"/>
    <dc:date>2022-08-23T14:46:25.216542</dc:date>
    <dc:format>image/svg+xml</dc:format>
    <dc:creator>
     <cc:Agent>
      <dc:title>Matplotlib v3.3.1, https://matplotlib.org/</dc:title>
     </cc:Agent>
    </dc:creator>
   </cc:Work>
  </rdf:RDF>
 </metadata>
 <defs>
  <style type="text/css">*{stroke-linecap:butt;stroke-linejoin:round;}</style>
 </defs>
 <g id="figure_1">
  <g id="patch_1">
   <path d="M 0 648 
L 1152 648 
L 1152 0 
L 0 0 
z
" style="fill:#ffffff;"/>
  </g>
  <g id="axes_1">
   <g id="patch_2">
    <path d="M 144 576.72 
L 1036.8 576.72 
L 1036.8 77.76 
L 144 77.76 
z
" style="fill:none;"/>
   </g>
   <g id="line2d_1">
    <path clip-path="url(#p8670ea0029)" d="M 714.493163 410.758182 
L 721.200902 440.980217 
L 727.90864 367.196952 
L 734.616379 395.384423 
L 741.324117 369.757 
L 748.031856 399.898191 
L 754.739594 471.781631 
L 761.447333 405.584191 
L 768.155071 478.168276 
L 774.86281 355.461156 
L 781.570548 272.46172 
L 788.278287 284.251412 
L 794.986026 356.714231 
L 801.693764 391.8812 
L 808.401503 436.372131 
L 815.109241 333.552538 
L 821.81698 285.046375 
L 828.524718 365.728293 
L 835.232457 349.478729 
L 841.940195 320.523244 
L 848.647934 274.792711 
L 855.355672 232.780983 
L 862.063411 279.602905 
L 868.77115 260.672027 
L 875.478888 265.50917 
L 882.186627 278.551938 
L 888.894365 239.989538 
L 895.602104 265.81907 
L 902.309842 213.028195 
L 909.017581 223.726499 
L 915.725319 270.090307 
L 922.433058 225.249054 
L 929.140796 269.403137 
L 935.848535 248.505065 
L 942.556273 244.085614 
L 949.264012 181.822563 
L 955.971751 200.713019 
L 962.679489 161.652084 
L 969.387228 208.447058 
L 976.094966 184.773355 
L 982.802705 138.679026 
L 989.510443 123.844224 
L 996.218182 203.017062 
" style="fill:none;stroke:#0072b2;stroke-linecap:round;stroke-width:3;"/>
   </g>
   <g id="patch_3">
    <path d="M 144 576.72 
L 1036.8 576.72 
" style="fill:none;stroke:#d3d3d3;stroke-linecap:square;stroke-linejoin:miter;stroke-width:1.25;"/>
   </g>
   <g id="matplotlib.axis_1">
    <g id="xtick_1">
     <g id="line2d_2">
      <defs>
       <path d="M 0 0 
L 0 6 
" id="m68eed6e575" style="stroke:#696969;stroke-width:1.25;"/>
      </defs>
      <g>
       <use style="fill:#696969;stroke:#696969;stroke-width:1.25;" x="184.581818" xlink:href="#m68eed6e575" y="576.72"/>
      </g>
     </g>
    </g>
    <g id="xtick_2">
     <g id="line2d_3">
      <g>
       <use style="fill:#696969;stroke:#696969;stroke-width:1.25;" x="318.736589" xlink:href="#m68eed6e575" y="576.72"/>
      </g>
     </g>
    </g>
    <g id="xtick_3">
     <g id="line2d_4">
      <g>
       <use style="fill:#696969;stroke:#696969;stroke-width:1.25;" x="452.89136" xlink:href="#m68eed6e575" y="576.72"/>
      </g>
     </g>
    </g>
    <g id="xtick_4">
     <g id="line2d_5">
      <g>
       <use style="fill:#696969;stroke:#696969;stroke-width:1.25;" x="587.046131" xlink:href="#m68eed6e575" y="576.72"/>
      </g>
     </g>
    </g>
    <g id="xtick_5">
     <g id="line2d_6">
      <g>
       <use style="fill:#696969;stroke:#696969;stroke-width:1.25;" x="721.200902" xlink:href="#m68eed6e575" y="576.72"/>
      </g>
     </g>
    </g>
    <g id="xtick_6">
     <g id="line2d_7">
      <g>
       <use style="fill:#696969;stroke:#696969;stroke-width:1.25;" x="855.355672" xlink:href="#m68eed6e575" y="576.72"/>
      </g>
     </g>
    </g>
    <g id="xtick_7">
     <g id="line2d_8">
      <g>
       <use style="fill:#696969;stroke:#696969;stroke-width:1.25;" x="989.510443" xlink:href="#m68eed6e575" y="576.72"/>
      </g>
     </g>
    </g>
    <g id="text_1">
     <!-- Year -->
     <g style="fill:#696969;" transform="translate(572.109375 594.05125)scale(0.2 -0.2)">
      <defs>
       <path d="M 52 66.65625 
L 29.6875 28.03125 
L 29.6875 0 
L 21.34375 0 
L 21.34375 28.03125 
L -0.984375 66.65625 
L 8.84375 66.65625 
L 26.5625 35.984375 
L 44.390625 66.65625 
z
" id="FranklinGothic-Book-89"/>
       <path d="M 40.234375 14.703125 
L 47.359375 13.234375 
Q 45.40625 6.9375 39.734375 2.8125 
Q 34.078125 -1.3125 26.421875 -1.3125 
Q 16.3125 -1.3125 10.0625 5.78125 
Q 3.8125 12.890625 3.8125 24.421875 
Q 3.8125 36.1875 10.296875 43.4375 
Q 16.796875 50.6875 26.609375 50.6875 
Q 36.28125 50.6875 42.15625 44 
Q 48.046875 37.3125 48.1875 23.96875 
L 12.359375 23.96875 
Q 12.359375 12.796875 17.046875 8.890625 
Q 21.734375 4.984375 26.953125 4.984375 
Q 36.375 4.984375 40.234375 14.703125 
z
M 39.796875 29.6875 
Q 39.703125 33.84375 38.421875 37.0625 
Q 37.15625 40.28125 34.125 42.546875 
Q 31.109375 44.828125 26.859375 44.828125 
Q 21.140625 44.828125 17.15625 40.71875 
Q 13.1875 36.625 12.703125 29.6875 
z
" id="FranklinGothic-Book-101"/>
       <path d="M 46.296875 0 
L 38.671875 0 
Q 38.234375 2.34375 37.796875 8.890625 
Q 32.71875 -1.3125 20.515625 -1.3125 
Q 12.203125 -1.3125 7.765625 3.078125 
Q 3.328125 7.46875 3.328125 13.625 
Q 3.328125 21.09375 9.671875 25.90625 
Q 16.015625 30.71875 31.25 30.71875 
Q 33.296875 30.71875 37.796875 30.515625 
Q 37.796875 36.375 36.890625 38.984375 
Q 35.984375 41.609375 33.046875 43.171875 
Q 30.125 44.734375 25.34375 44.734375 
Q 13.671875 44.734375 11.765625 35.84375 
L 4.6875 37.0625 
Q 7.28125 50.6875 26.46875 50.6875 
Q 36.671875 50.6875 40.9375 46.171875 
Q 45.21875 41.65625 45.21875 30.515625 
L 45.21875 9.578125 
Q 45.21875 4.34375 46.296875 0 
z
M 37.796875 24.65625 
Q 33.109375 24.953125 30.671875 24.953125 
Q 21.578125 24.953125 16.546875 21.96875 
Q 11.53125 19 11.53125 13.28125 
Q 11.53125 9.671875 14.234375 7.125 
Q 16.9375 4.59375 22.078125 4.59375 
Q 29 4.59375 33.46875 9.625 
Q 37.9375 14.65625 37.9375 21.4375 
Q 37.9375 22.796875 37.796875 24.65625 
z
" id="FranklinGothic-Book-97"/>
       <path d="M 15.328125 0 
L 7.671875 0 
L 7.671875 49.3125 
L 14.40625 49.3125 
L 14.40625 37.796875 
Q 17.96875 45.953125 21.546875 48.359375 
Q 25.140625 50.78125 28.90625 50.78125 
Q 30.078125 50.78125 31.9375 50.59375 
L 31.9375 43.265625 
L 30.375 43.265625 
Q 24.03125 43.265625 19.828125 38.53125 
Q 15.625 33.796875 15.328125 26.078125 
z
" id="FranklinGothic-Book-114"/>
      </defs>
      <use xlink:href="#FranklinGothic-Book-89"/>
      <use x="45.025391" xlink:href="#FranklinGothic-Book-101"/>
      <use x="97.076172" xlink:href="#FranklinGothic-Book-97"/>
      <use x="149.957031" xlink:href="#FranklinGothic-Book-114"/>
     </g>
    </g>
   </g>
   <g id="matplotlib.axis_2">
    <g id="ytick_1">
     <g id="line2d_9">
      <path clip-path="url(#p8670ea0029)" d="M 144 524.410818 
L 1036.8 524.410818 
" style="fill:none;stroke:#d3d3d3;stroke-linecap:round;stroke-opacity:0.5;"/>
     </g>
     <g id="text_2">
      <!-- −1.5 -->
      <g style="fill:#696969;" transform="translate(104.455469 529.410037)scale(0.15 -0.15)">
       <defs>
        <path d="M 6 36.765625 
L 52.6875 36.765625 
L 52.6875 30.03125 
L 6 30.03125 
z
" id="FranklinGothic-Book-8722"/>
        <path d="M 55.859375 6.203125 
L 55.859375 0 
L 9.1875 0 
L 9.1875 6.203125 
L 29.203125 6.203125 
L 29.203125 57.671875 
Q 20.359375 48.4375 10.84375 43.265625 
L 10.84375 51.65625 
Q 23.96875 58.546875 31.203125 68.015625 
L 37.15625 68.015625 
L 37.15625 6.203125 
z
" id="FranklinGothic-Book-49"/>
        <path d="M 17.96875 10.9375 
L 17.96875 0 
L 7.078125 0 
L 7.078125 10.9375 
z
" id="FranklinGothic-Book-46"/>
        <path d="M 48.875 66.65625 
L 48.1875 59.46875 
L 15.4375 59.46875 
L 14.015625 37.84375 
Q 21.4375 45.125 30.328125 45.125 
Q 39.703125 45.125 46.515625 38.625 
Q 53.328125 32.125 53.328125 22.015625 
Q 53.328125 11.765625 45.921875 5.21875 
Q 38.53125 -1.3125 27.828125 -1.3125 
Q 19.4375 -1.3125 12.890625 3.078125 
Q 6.34375 7.46875 4.296875 14.453125 
L 11.421875 16.890625 
Q 15.828125 5.28125 27.9375 5.28125 
Q 35.890625 5.28125 40.578125 9.984375 
Q 45.265625 14.703125 45.265625 22.015625 
Q 45.265625 29.6875 40.625 33.984375 
Q 35.984375 38.28125 29.5 38.28125 
Q 20.015625 38.28125 13.8125 29.203125 
L 7.234375 30.609375 
L 9.375 66.65625 
z
" id="FranklinGothic-Book-53"/>
       </defs>
       <use xlink:href="#FranklinGothic-Book-8722"/>
       <use x="58.642578" xlink:href="#FranklinGothic-Book-49"/>
       <use x="116.660156" xlink:href="#FranklinGothic-Book-46"/>
       <use x="141.660156" xlink:href="#FranklinGothic-Book-53"/>
      </g>
     </g>
    </g>
    <g id="ytick_2">
     <g id="line2d_10">
      <path clip-path="url(#p8670ea0029)" d="M 144 457.041147 
L 1036.8 457.041147 
" style="fill:none;stroke:#d3d3d3;stroke-linecap:round;stroke-opacity:0.5;"/>
     </g>
     <g id="text_3">
      <!-- −1.0 -->
      <g style="fill:#696969;" transform="translate(104.455469 462.040365)scale(0.15 -0.15)">
       <defs>
        <path d="M 29.390625 -1.3125 
Q 17.875 -1.3125 10.984375 8.671875 
Q 4.109375 18.65625 4.109375 33.453125 
Q 4.109375 48 10.640625 58 
Q 17.1875 68.015625 29.15625 68.015625 
Q 41.65625 68.015625 48.125 57.5625 
Q 54.59375 47.125 54.59375 33.0625 
Q 54.59375 19.28125 47.953125 8.984375 
Q 41.3125 -1.3125 29.390625 -1.3125 
z
M 29.4375 5.21875 
Q 37.890625 5.21875 41.9375 12.859375 
Q 46 20.515625 46 32.078125 
Q 46 44.734375 41.84375 53.125 
Q 37.703125 61.53125 29.046875 61.53125 
Q 20.703125 61.53125 16.625 53.859375 
Q 12.546875 46.1875 12.546875 33.6875 
Q 12.546875 20.703125 16.84375 12.953125 
Q 21.140625 5.21875 29.4375 5.21875 
z
" id="FranklinGothic-Book-48"/>
       </defs>
       <use xlink:href="#FranklinGothic-Book-8722"/>
       <use x="58.642578" xlink:href="#FranklinGothic-Book-49"/>
       <use x="116.660156" xlink:href="#FranklinGothic-Book-46"/>
       <use x="141.660156" xlink:href="#FranklinGothic-Book-48"/>
      </g>
     </g>
    </g>
    <g id="ytick_3">
     <g id="line2d_11">
      <path clip-path="url(#p8670ea0029)" d="M 144 389.671475 
L 1036.8 389.671475 
" style="fill:none;stroke:#d3d3d3;stroke-linecap:round;stroke-opacity:0.5;"/>
     </g>
     <g id="text_4">
      <!-- −0.5 -->
      <g style="fill:#696969;" transform="translate(104.361719 394.670694)scale(0.15 -0.15)">
       <use xlink:href="#FranklinGothic-Book-8722"/>
       <use x="58.642578" xlink:href="#FranklinGothic-Book-48"/>
       <use x="117.285156" xlink:href="#FranklinGothic-Book-46"/>
       <use x="142.285156" xlink:href="#FranklinGothic-Book-53"/>
      </g>
     </g>
    </g>
    <g id="ytick_4">
     <g id="line2d_12">
      <path clip-path="url(#p8670ea0029)" d="M 144 322.301803 
L 1036.8 322.301803 
" style="fill:none;stroke:#d3d3d3;stroke-linecap:round;stroke-opacity:0.5;"/>
     </g>
     <g id="text_5">
      <!-- 0.0 -->
      <g style="fill:#696969;" transform="translate(113.157813 327.301022)scale(0.15 -0.15)">
       <use xlink:href="#FranklinGothic-Book-48"/>
       <use x="58.642578" xlink:href="#FranklinGothic-Book-46"/>
       <use x="83.642578" xlink:href="#FranklinGothic-Book-48"/>
      </g>
     </g>
    </g>
    <g id="ytick_5">
     <g id="line2d_13">
      <path clip-path="url(#p8670ea0029)" d="M 144 254.932131 
L 1036.8 254.932131 
" style="fill:none;stroke:#d3d3d3;stroke-linecap:round;stroke-opacity:0.5;"/>
     </g>
     <g id="text_6">
      <!-- 0.5 -->
      <g style="fill:#696969;" transform="translate(113.157813 259.93135)scale(0.15 -0.15)">
       <use xlink:href="#FranklinGothic-Book-48"/>
       <use x="58.642578" xlink:href="#FranklinGothic-Book-46"/>
       <use x="83.642578" xlink:href="#FranklinGothic-Book-53"/>
      </g>
     </g>
    </g>
    <g id="ytick_6">
     <g id="line2d_14">
      <path clip-path="url(#p8670ea0029)" d="M 144 187.56246 
L 1036.8 187.56246 
" style="fill:none;stroke:#d3d3d3;stroke-linecap:round;stroke-opacity:0.5;"/>
     </g>
     <g id="text_7">
      <!-- 1.0 -->
      <g style="fill:#696969;" transform="translate(113.251563 192.561678)scale(0.15 -0.15)">
       <use xlink:href="#FranklinGothic-Book-49"/>
       <use x="58.017578" xlink:href="#FranklinGothic-Book-46"/>
       <use x="83.017578" xlink:href="#FranklinGothic-Book-48"/>
      </g>
     </g>
    </g>
    <g id="ytick_7">
     <g id="line2d_15">
      <path clip-path="url(#p8670ea0029)" d="M 144 120.192788 
L 1036.8 120.192788 
" style="fill:none;stroke:#d3d3d3;stroke-linecap:round;stroke-opacity:0.5;"/>
     </g>
     <g id="text_8">
      <!-- 1.5 -->
      <g style="fill:#696969;" transform="translate(113.251563 125.192007)scale(0.15 -0.15)">
       <use xlink:href="#FranklinGothic-Book-49"/>
       <use x="58.017578" xlink:href="#FranklinGothic-Book-46"/>
       <use x="83.017578" xlink:href="#FranklinGothic-Book-53"/>
      </g>
     </g>
    </g>
    <g id="text_9">
     <!-- $\!^\circ\!$C -->
     <g style="fill:#696969;" transform="translate(91.030469 337.34)rotate(-90)scale(0.2 -0.2)">
      <defs>
       <path d="M 31.296875 40.671875 
Q 27.390625 40.671875 24.703125 37.953125 
Q 22.015625 35.25 22.015625 31.34375 
Q 22.015625 27.484375 24.703125 24.828125 
Q 27.390625 22.171875 31.296875 22.171875 
Q 35.203125 22.171875 37.890625 24.828125 
Q 40.578125 27.484375 40.578125 31.34375 
Q 40.578125 35.203125 37.859375 37.9375 
Q 35.15625 40.671875 31.296875 40.671875 
z
M 31.296875 46.96875 
Q 34.421875 46.96875 37.296875 45.765625 
Q 40.1875 44.578125 42.28125 42.328125 
Q 44.53125 40.140625 45.65625 37.34375 
Q 46.78125 34.5625 46.78125 31.34375 
Q 46.78125 24.90625 42.265625 20.4375 
Q 37.75 15.96875 31.203125 15.96875 
Q 24.609375 15.96875 20.21875 20.359375 
Q 15.828125 24.75 15.828125 31.34375 
Q 15.828125 37.890625 20.3125 42.421875 
Q 24.8125 46.96875 31.296875 46.96875 
z
" id="DejaVuSans-8728"/>
       <path d="M 48.296875 22.40625 
L 55.90625 20.703125 
Q 50.4375 -1.3125 31.203125 -1.3125 
Q 18.5625 -1.3125 11.359375 8.890625 
Q 4.15625 19.09375 4.15625 33.984375 
Q 4.15625 49.359375 11.671875 58.6875 
Q 19.1875 68.015625 31.84375 68.015625 
Q 50.59375 68.015625 55.90625 46.578125 
L 48.046875 45.015625 
Q 43.75 60.9375 31.78125 60.9375 
Q 22.953125 60.9375 18.09375 53.53125 
Q 13.234375 46.140625 13.234375 32.765625 
Q 13.234375 20.515625 18.203125 13.109375 
Q 23.1875 5.71875 31.390625 5.71875 
Q 44.140625 5.71875 48.296875 22.40625 
z
" id="FranklinGothic-Book-67"/>
      </defs>
      <use transform="translate(-1.64095 39.121875)scale(0.7)" xlink:href="#DejaVuSans-8728"/>
      <use transform="translate(42.313804 0.840625)" xlink:href="#FranklinGothic-Book-67"/>
     </g>
    </g>
   </g>
   <g id="text_10">
    <!-- Compared to 1981-2010 average -->
    <g style="fill:#696969;" transform="translate(144 75.2652)scale(0.3 -0.3)">
     <defs>
      <path d="M 25.34375 -1.3125 
Q 15.1875 -1.3125 9.5 6.203125 
Q 3.8125 13.71875 3.8125 24.859375 
Q 3.8125 36.625 10.203125 43.65625 
Q 16.609375 50.6875 26.125 50.6875 
Q 36.328125 50.6875 42.203125 43.28125 
Q 48.09375 35.890625 48.09375 24.8125 
Q 48.09375 13.28125 41.75 5.984375 
Q 35.40625 -1.3125 25.34375 -1.3125 
z
M 25.921875 4.984375 
Q 31.78125 4.984375 35.734375 9.8125 
Q 39.703125 14.65625 39.703125 24.859375 
Q 39.703125 35.109375 35.546875 39.71875 
Q 31.390625 44.34375 25.828125 44.34375 
Q 20.125 44.34375 16.15625 39.671875 
Q 12.203125 35.015625 12.203125 24.90625 
Q 12.203125 14.203125 16.15625 9.59375 
Q 20.125 4.984375 25.921875 4.984375 
z
" id="FranklinGothic-Book-111"/>
      <path d="M 73.734375 0 
L 66.265625 0 
L 66.265625 30.671875 
Q 66.265625 35.40625 65.59375 37.765625 
Q 64.9375 40.140625 62.390625 42.109375 
Q 59.859375 44.09375 56.6875 44.09375 
Q 52.296875 44.09375 48.21875 40.0625 
Q 44.140625 36.03125 44.140625 27.78125 
L 44.140625 0 
L 36.71875 0 
L 36.71875 32.46875 
Q 36.71875 38.96875 33.609375 41.65625 
Q 30.515625 44.34375 27.09375 44.34375 
Q 22.21875 44.34375 18.59375 40.140625 
Q 14.984375 35.9375 14.984375 29.5 
L 14.984375 0 
L 7.671875 0 
L 7.671875 49.3125 
L 14.265625 49.3125 
L 14.265625 39.84375 
Q 19.78125 50.6875 29.4375 50.6875 
Q 34.765625 50.6875 38.46875 47.21875 
Q 42.1875 43.75 43.265625 38.875 
Q 48.34375 50.6875 58.84375 50.6875 
Q 63.875 50.6875 67.65625 47.796875 
Q 71.4375 44.921875 72.578125 41.1875 
Q 73.734375 37.453125 73.734375 30.671875 
z
" id="FranklinGothic-Book-109"/>
      <path d="M 15.328125 -16.65625 
L 7.671875 -16.65625 
L 7.671875 49.3125 
L 14.546875 49.3125 
L 14.546875 39.75 
Q 19.78125 50.6875 30.125 50.6875 
Q 38.875 50.6875 44.234375 43.375 
Q 49.609375 36.078125 49.609375 24.90625 
Q 49.609375 12.84375 44.09375 5.765625 
Q 38.578125 -1.3125 29.9375 -1.3125 
Q 20.65625 -1.3125 15.328125 7.515625 
z
M 15.328125 31.78125 
L 15.328125 17.921875 
Q 16.0625 12.3125 20.0625 8.640625 
Q 24.078125 4.984375 28.421875 4.984375 
Q 33.453125 4.984375 37.328125 9.375 
Q 41.21875 13.765625 41.21875 24.5625 
Q 41.21875 33.890625 37.703125 38.9375 
Q 34.1875 44 28.375 44 
Q 23.78125 44 20.140625 40.421875 
Q 16.5 36.859375 15.328125 31.78125 
z
" id="FranklinGothic-Book-112"/>
      <path d="M 46.1875 66.65625 
L 46.1875 0 
L 39.203125 0 
L 39.203125 8.453125 
Q 34.03125 -1.3125 23.640625 -1.3125 
Q 14.984375 -1.3125 9.421875 5.9375 
Q 3.859375 13.1875 3.859375 24.265625 
Q 3.859375 35.59375 9.375 43.140625 
Q 14.890625 50.6875 24.03125 50.6875 
Q 32.90625 50.6875 38.53125 42.578125 
L 38.53125 66.65625 
z
M 38.53125 30.28125 
Q 38.53125 36.765625 34.5625 40.671875 
Q 30.609375 44.578125 25.34375 44.578125 
Q 19.625 44.578125 15.9375 39.5 
Q 12.25 34.421875 12.25 25.25 
Q 12.25 15.328125 15.640625 10.15625 
Q 19.046875 4.984375 24.953125 4.984375 
Q 30.328125 4.984375 34.421875 9.46875 
Q 38.53125 13.96875 38.53125 20.015625 
z
" id="FranklinGothic-Book-100"/>
      <path id="FranklinGothic-Book-32"/>
      <path d="M 30.03125 5.28125 
L 30.03125 -0.78125 
Q 25.984375 -1.3125 23 -1.3125 
Q 8.6875 -1.3125 8.6875 13.625 
L 8.6875 43.3125 
L -0.046875 43.3125 
L -0.046875 49.3125 
L 8.6875 49.3125 
L 9.03125 61.71875 
L 16.15625 62.40625 
L 16.15625 49.3125 
L 27.203125 49.3125 
L 27.203125 43.3125 
L 16.15625 43.3125 
L 16.15625 12.359375 
Q 16.15625 4.734375 24.078125 4.734375 
Q 26.703125 4.734375 30.03125 5.28125 
z
" id="FranklinGothic-Book-116"/>
      <path d="M 5.71875 12.15625 
L 12.40625 14.59375 
Q 16.546875 5.375 26.375 5.375 
Q 35.890625 5.375 40.703125 13.375 
Q 45.515625 21.390625 45.65625 35.109375 
Q 39.109375 23.09375 25.984375 23.09375 
Q 16.703125 23.09375 10.40625 29.421875 
Q 4.109375 35.75 4.109375 45.0625 
Q 4.109375 54.546875 10.71875 61.28125 
Q 17.328125 68.015625 27.59375 68.015625 
Q 40.140625 68.015625 46.828125 59.203125 
Q 53.515625 50.390625 53.515625 34.96875 
Q 53.515625 18.75 46.4375 8.71875 
Q 39.359375 -1.3125 26.265625 -1.3125 
Q 10.984375 -1.3125 5.71875 12.15625 
z
M 27.828125 29.78125 
Q 34.71875 29.78125 39.375 34.59375 
Q 44.046875 39.40625 44.046875 45.84375 
Q 44.046875 52.09375 39.625 56.578125 
Q 35.203125 61.078125 27.984375 61.078125 
Q 20.65625 61.078125 16.40625 56.46875 
Q 12.15625 51.859375 12.15625 45.21875 
Q 12.15625 38.09375 16.859375 33.9375 
Q 21.578125 29.78125 27.828125 29.78125 
z
" id="FranklinGothic-Book-57"/>
      <path d="M 19.484375 34.578125 
Q 6.84375 40.09375 6.84375 50.59375 
Q 6.84375 58.203125 13.140625 63.109375 
Q 19.4375 68.015625 29.828125 68.015625 
Q 40.09375 68.015625 46.140625 63.296875 
Q 52.203125 58.59375 52.203125 50.984375 
Q 52.203125 40.375 39.265625 35.796875 
Q 49.703125 30.953125 52.359375 26.453125 
Q 55.03125 21.96875 55.03125 17.484375 
Q 55.03125 9.46875 48.21875 4.078125 
Q 41.40625 -1.3125 29.734375 -1.3125 
Q 17.28125 -1.3125 10.4375 4.171875 
Q 3.609375 9.671875 3.609375 17.234375 
Q 3.609375 28.515625 19.484375 34.578125 
z
M 29.59375 38.71875 
Q 37.984375 40.96875 41.453125 43.890625 
Q 44.921875 46.828125 44.921875 51.21875 
Q 44.921875 56.34375 40.796875 59 
Q 36.671875 61.671875 29.9375 61.671875 
Q 23.484375 61.671875 19.375 58.859375 
Q 15.28125 56.0625 15.28125 51.3125 
Q 15.28125 46.625 19.84375 43.203125 
Q 24.421875 39.796875 29.59375 38.71875 
z
M 28.65625 31.0625 
Q 11.765625 27.046875 11.765625 16.9375 
Q 11.765625 11.671875 16.375 8.328125 
Q 21 4.984375 29.984375 4.984375 
Q 37.59375 4.984375 42.234375 8.25 
Q 46.875 11.53125 46.875 16.609375 
Q 46.875 26.3125 28.65625 31.0625 
z
" id="FranklinGothic-Book-56"/>
      <path d="M 23.53125 27.984375 
L 23.53125 22.015625 
L 1.46875 22.015625 
L 1.46875 27.984375 
z
" id="FranklinGothic-Book-45"/>
      <path d="M 52.484375 6.9375 
L 52.484375 0 
L 5.171875 0 
L 5.171875 6.9375 
Q 33.203125 27.9375 38.59375 34.59375 
Q 44 41.265625 44 47.796875 
Q 44 53.90625 39.453125 57.65625 
Q 34.90625 61.421875 29 61.421875 
Q 22.90625 61.421875 18.21875 57.296875 
Q 13.53125 53.171875 12.9375 46.09375 
L 5.171875 48.4375 
Q 10.0625 68.015625 29.109375 68.015625 
Q 39.40625 68.015625 45.84375 62.15625 
Q 52.296875 56.296875 52.296875 47.859375 
Q 52.296875 42.046875 49.234375 36.671875 
Q 46.1875 31.296875 37.6875 23.828125 
Q 29.203125 16.359375 15.71875 6.9375 
z
" id="FranklinGothic-Book-50"/>
      <path d="M 43.796875 49.3125 
L 26.765625 0 
L 18.796875 0 
L 1.171875 49.3125 
L 9.671875 49.3125 
L 23.390625 9.234375 
L 36.96875 49.3125 
z
" id="FranklinGothic-Book-118"/>
      <path d="M 47.953125 57.03125 
L 47.953125 50.921875 
Q 42.671875 50.921875 40.890625 49.703125 
Q 39.109375 48.484375 38.53125 45.3125 
Q 43.265625 39.84375 43.265625 33.40625 
Q 43.265625 26.65625 38.109375 21.828125 
Q 32.953125 17 24.265625 17 
Q 22.3125 17 20.90625 17.28125 
Q 18.21875 17.828125 17.53125 17.828125 
Q 16.21875 17.828125 14.359375 16.53125 
Q 12.5 15.234375 12.5 13.1875 
Q 12.5 10.25 15.1875 9.375 
Q 17.875 8.5 27.828125 8.25 
Q 36.28125 8.015625 40.3125 7.109375 
Q 44.34375 6.203125 47.125 3.09375 
Q 49.90625 0 49.90625 -4.5 
Q 49.90625 -18.609375 25.09375 -18.609375 
Q 13.328125 -18.609375 7.9375 -15.0625 
Q 2.546875 -11.53125 2.546875 -5.609375 
Q 2.546875 1.5625 10.0625 4.25 
Q 5.21875 7.421875 5.21875 12.203125 
Q 5.21875 17.921875 12.0625 20.953125 
Q 5.671875 26.125 5.671875 33.984375 
Q 5.671875 41.3125 11.140625 46 
Q 16.609375 50.6875 24.46875 50.6875 
Q 30.03125 50.6875 34.578125 48.578125 
Q 35.296875 53.421875 37.953125 55.265625 
Q 40.625 57.125 46.046875 57.125 
Q 46.578125 57.125 47.953125 57.03125 
z
M 24.515625 22.859375 
Q 29.390625 22.859375 32.46875 25.859375 
Q 35.546875 28.859375 35.546875 33.640625 
Q 35.546875 38.53125 32.34375 41.625 
Q 29.15625 44.734375 24.609375 44.734375 
Q 20.265625 44.734375 16.890625 41.828125 
Q 13.53125 38.921875 13.53125 33.546875 
Q 13.53125 28.765625 16.546875 25.8125 
Q 19.578125 22.859375 24.515625 22.859375 
z
M 15.328125 2 
Q 9.96875 -0.34375 9.96875 -4.78125 
Q 9.96875 -8.546875 14.375 -10.625 
Q 18.796875 -12.703125 25.640625 -12.703125 
Q 31.984375 -12.703125 37.25 -10.90625 
Q 42.53125 -9.125 42.53125 -4.890625 
Q 42.53125 -2.59375 40.96875 -1.125 
Q 39.40625 0.34375 36.6875 0.734375 
Q 33.984375 1.125 27.25 1.3125 
Q 19.1875 1.515625 15.328125 2 
z
" id="FranklinGothic-Book-103"/>
     </defs>
     <use xlink:href="#FranklinGothic-Book-67"/>
     <use x="57.910156" xlink:href="#FranklinGothic-Book-111"/>
     <use x="109.863281" xlink:href="#FranklinGothic-Book-109"/>
     <use x="190.384766" xlink:href="#FranklinGothic-Book-112"/>
     <use x="243.802734" xlink:href="#FranklinGothic-Book-97"/>
     <use x="296.683594" xlink:href="#FranklinGothic-Book-114"/>
     <use x="329.642578" xlink:href="#FranklinGothic-Book-101"/>
     <use x="381.693359" xlink:href="#FranklinGothic-Book-100"/>
     <use x="435.550781" xlink:href="#FranklinGothic-Book-32"/>
     <use x="460.550781" xlink:href="#FranklinGothic-Book-116"/>
     <use x="489.8125" xlink:href="#FranklinGothic-Book-111"/>
     <use x="541.765625" xlink:href="#FranklinGothic-Book-32"/>
     <use x="566.765625" xlink:href="#FranklinGothic-Book-49"/>
     <use x="624.033203" xlink:href="#FranklinGothic-Book-57"/>
     <use x="682.675781" xlink:href="#FranklinGothic-Book-56"/>
     <use x="737.443359" xlink:href="#FranklinGothic-Book-49"/>
     <use x="796.085938" xlink:href="#FranklinGothic-Book-45"/>
     <use x="821.085938" xlink:href="#FranklinGothic-Book-50"/>
     <use x="879.728516" xlink:href="#FranklinGothic-Book-48"/>
     <use x="934.621094" xlink:href="#FranklinGothic-Book-49"/>
     <use x="990.013672" xlink:href="#FranklinGothic-Book-48"/>
     <use x="1048.65625" xlink:href="#FranklinGothic-Book-32"/>
     <use x="1073.65625" xlink:href="#FranklinGothic-Book-97"/>
     <use x="1124.287109" xlink:href="#FranklinGothic-Book-118"/>
     <use x="1167.806641" xlink:href="#FranklinGothic-Book-101"/>
     <use x="1219.857422" xlink:href="#FranklinGothic-Book-114"/>
     <use x="1252.816406" xlink:href="#FranklinGothic-Book-97"/>
     <use x="1305.697266" xlink:href="#FranklinGothic-Book-103"/>
     <use x="1354.818359" xlink:href="#FranklinGothic-Book-101"/>
    </g>
   </g>
   <g id="text_11">
    <!-- WMO RA VI Europe annual temperature -->
    <g style="fill:#696969;" transform="translate(144 42.76)scale(0.4 -0.4)">
     <defs>
      <path d="M 79.828125 66.65625 
L 63.765625 0 
L 55.421875 0 
L 40.875 51.703125 
L 27.34375 0 
L 18.796875 0 
L 1.90625 66.65625 
L 10.546875 66.65625 
L 23.875 12.640625 
L 38.03125 66.65625 
L 44.78125 66.65625 
L 60.0625 12.640625 
L 72.515625 66.65625 
z
" id="FranklinGothic-Book-87"/>
      <path d="M 72.703125 0 
L 64.59375 0 
L 64.59375 58.203125 
L 42.921875 0 
L 37.25 0 
L 15.4375 58.203125 
L 15.4375 0 
L 8.34375 0 
L 8.34375 66.65625 
L 20.75 66.65625 
L 40.828125 13.328125 
L 60.5 66.65625 
L 72.703125 66.65625 
z
" id="FranklinGothic-Book-77"/>
      <path d="M 31.34375 -1.3125 
Q 18.5 -1.3125 11.328125 8.671875 
Q 4.15625 18.65625 4.15625 33.15625 
Q 4.15625 48.296875 11.671875 58.15625 
Q 19.1875 68.015625 31.59375 68.015625 
Q 43.953125 68.015625 51.421875 58.328125 
Q 58.890625 48.640625 58.890625 33.890625 
Q 58.890625 19.734375 51.640625 9.203125 
Q 44.390625 -1.3125 31.34375 -1.3125 
z
M 31.546875 5.46875 
Q 40.28125 5.46875 45.203125 13.421875 
Q 50.140625 21.390625 50.140625 33.9375 
Q 50.140625 46.828125 45.03125 54 
Q 39.9375 61.1875 31.5 61.1875 
Q 22.953125 61.1875 17.921875 53.421875 
Q 12.890625 45.65625 12.890625 33.109375 
Q 12.890625 20.84375 17.96875 13.15625 
Q 23.046875 5.46875 31.546875 5.46875 
z
" id="FranklinGothic-Book-79"/>
      <path d="M 56.296875 0 
L 47.5625 0 
L 35.25 28.859375 
L 16.15625 28.859375 
L 16.15625 0 
L 8.34375 0 
L 8.34375 66.65625 
L 34.625 66.65625 
Q 45.3125 66.65625 50.453125 60.8125 
Q 55.609375 54.984375 55.609375 48.046875 
Q 55.609375 42.71875 52.734375 37.828125 
Q 49.859375 32.953125 43.21875 30.859375 
z
M 16.15625 35.640625 
L 33.59375 35.640625 
Q 40.484375 35.640625 43.875 39.28125 
Q 47.265625 42.921875 47.265625 48.1875 
Q 47.265625 53.46875 43.671875 56.390625 
Q 40.09375 59.328125 34.625 59.328125 
L 16.15625 59.328125 
z
" id="FranklinGothic-Book-82"/>
      <path d="M 53.21875 0 
L 44.671875 0 
L 37.9375 19.484375 
L 13.28125 19.484375 
L 7.328125 0 
L 0.34375 0 
L 21.96875 66.65625 
L 31.5 66.65625 
z
M 36.1875 25.734375 
L 25.921875 57.765625 
L 15.578125 25.734375 
z
" id="FranklinGothic-Book-65"/>
      <path d="M 53.328125 66.65625 
L 30.859375 0 
L 22.796875 0 
L 0.34375 66.65625 
L 9.03125 66.65625 
L 27.640625 11.671875 
L 46.046875 66.65625 
z
" id="FranklinGothic-Book-86"/>
      <path d="M 16.703125 0 
L 8.34375 0 
L 8.34375 66.65625 
L 16.703125 66.65625 
z
" id="FranklinGothic-Book-73"/>
      <path d="M 51.46875 7.328125 
L 51.46875 0 
L 8.34375 0 
L 8.34375 66.65625 
L 50.53125 66.65625 
L 50.53125 59.328125 
L 16.703125 59.328125 
L 16.703125 38.140625 
L 43.5625 38.140625 
L 43.5625 31.34375 
L 16.703125 31.34375 
L 16.703125 7.328125 
z
" id="FranklinGothic-Book-69"/>
      <path d="M 46.484375 0 
L 39.59375 0 
L 39.59375 9.421875 
Q 34.328125 -1.3125 23.875 -1.3125 
Q 16.3125 -1.3125 11.984375 3.65625 
Q 7.671875 8.640625 7.671875 17.828125 
L 7.671875 49.3125 
L 15.328125 49.3125 
L 15.328125 17.828125 
Q 15.328125 10.5 18.375 7.734375 
Q 21.4375 4.984375 25.09375 4.984375 
Q 28.8125 4.984375 31.8125 7.078125 
Q 34.8125 9.1875 36.8125 13.0625 
Q 38.8125 16.9375 38.8125 21.53125 
L 38.8125 49.3125 
L 46.484375 49.3125 
z
" id="FranklinGothic-Book-117"/>
      <path d="M 46.53125 0 
L 39.359375 0 
L 39.359375 31.6875 
Q 39.359375 38.53125 36.375 41.3125 
Q 33.40625 44.09375 29.15625 44.09375 
Q 23.296875 44.09375 19.3125 39.40625 
Q 15.328125 34.71875 15.328125 27.046875 
L 15.328125 0 
L 7.671875 0 
L 7.671875 49.3125 
L 14.796875 49.3125 
L 14.796875 40.234375 
Q 20.796875 50.6875 30.375 50.6875 
Q 35.890625 50.6875 39.765625 47.828125 
Q 43.65625 44.96875 45.09375 41.40625 
Q 46.53125 37.84375 46.53125 28.515625 
z
" id="FranklinGothic-Book-110"/>
      <path d="M 15.328125 0 
L 7.671875 0 
L 7.671875 66.65625 
L 15.328125 66.65625 
z
" id="FranklinGothic-Book-108"/>
     </defs>
     <use xlink:href="#FranklinGothic-Book-87"/>
     <use x="81.738281" xlink:href="#FranklinGothic-Book-77"/>
     <use x="162.744141" xlink:href="#FranklinGothic-Book-79"/>
     <use x="225.830078" xlink:href="#FranklinGothic-Book-32"/>
     <use x="250.830078" xlink:href="#FranklinGothic-Book-82"/>
     <use x="312.109375" xlink:href="#FranklinGothic-Book-65"/>
     <use x="365.673828" xlink:href="#FranklinGothic-Book-32"/>
     <use x="390.673828" xlink:href="#FranklinGothic-Book-86"/>
     <use x="444.335938" xlink:href="#FranklinGothic-Book-73"/>
     <use x="469.335938" xlink:href="#FranklinGothic-Book-32"/>
     <use x="494.335938" xlink:href="#FranklinGothic-Book-69"/>
     <use x="549.121094" xlink:href="#FranklinGothic-Book-117"/>
     <use x="603.271484" xlink:href="#FranklinGothic-Book-114"/>
     <use x="634.480469" xlink:href="#FranklinGothic-Book-111"/>
     <use x="686.433594" xlink:href="#FranklinGothic-Book-112"/>
     <use x="739.851562" xlink:href="#FranklinGothic-Book-101"/>
     <use x="791.902344" xlink:href="#FranklinGothic-Book-32"/>
     <use x="816.902344" xlink:href="#FranklinGothic-Book-97"/>
     <use x="869.783203" xlink:href="#FranklinGothic-Book-110"/>
     <use x="923.982422" xlink:href="#FranklinGothic-Book-110"/>
     <use x="978.181641" xlink:href="#FranklinGothic-Book-117"/>
     <use x="1032.332031" xlink:href="#FranklinGothic-Book-97"/>
     <use x="1085.212891" xlink:href="#FranklinGothic-Book-108"/>
     <use x="1108.210938" xlink:href="#FranklinGothic-Book-32"/>
     <use x="1133.210938" xlink:href="#FranklinGothic-Book-116"/>
     <use x="1162.222656" xlink:href="#FranklinGothic-Book-101"/>
     <use x="1214.273438" xlink:href="#FranklinGothic-Book-109"/>
     <use x="1294.794922" xlink:href="#FranklinGothic-Book-112"/>
     <use x="1348.212891" xlink:href="#FranklinGothic-Book-101"/>
     <use x="1400.263672" xlink:href="#FranklinGothic-Book-114"/>
     <use x="1433.222656" xlink:href="#FranklinGothic-Book-97"/>
     <use x="1486.103516" xlink:href="#FranklinGothic-Book-116"/>
     <use x="1516.865234" xlink:href="#FranklinGothic-Book-117"/>
     <use x="1571.015625" xlink:href="#FranklinGothic-Book-114"/>
     <use x="1603.974609" xlink:href="#FranklinGothic-Book-101"/>
    </g>
   </g>
   <g id="legend_1">
    <g id="line2d_16"/>
    <g id="text_12">
     <!-- HadCRUT5 -->
     <g style="fill:#696969;" transform="translate(185.856 129.7184)scale(0.2 -0.2)">
      <defs>
       <path d="M 55.953125 0 
L 47.609375 0 
L 47.609375 31.734375 
L 16.703125 31.734375 
L 16.703125 0 
L 8.34375 0 
L 8.34375 66.65625 
L 16.703125 66.65625 
L 16.703125 39.0625 
L 47.609375 39.0625 
L 47.609375 66.65625 
L 55.953125 66.65625 
z
" id="FranklinGothic-Book-72"/>
       <path d="M 46.34375 66.65625 
L 53.265625 66.65625 
L 53.265625 23.140625 
Q 53.265625 10.0625 46.84375 4.375 
Q 40.4375 -1.3125 30.03125 -1.3125 
Q 18.453125 -1.3125 12.890625 4.546875 
Q 7.328125 10.40625 7.328125 23.140625 
L 7.328125 66.65625 
L 15.671875 66.65625 
L 15.671875 23.140625 
Q 15.671875 15.375 17.46875 12.203125 
Q 19.28125 9.03125 22.9375 7.515625 
Q 26.609375 6 30.609375 6 
Q 38.328125 6 42.328125 10.046875 
Q 46.34375 14.109375 46.34375 23.140625 
z
" id="FranklinGothic-Book-85"/>
       <path d="M 28.421875 0 
L 20.125 0 
L 20.125 59.328125 
L 1.03125 59.328125 
L 1.03125 66.65625 
L 47.5625 66.65625 
L 47.5625 59.328125 
L 28.421875 59.328125 
z
" id="FranklinGothic-Book-84"/>
      </defs>
      <use xlink:href="#FranklinGothic-Book-72"/>
      <use x="64.257812" xlink:href="#FranklinGothic-Book-97"/>
      <use x="117.138672" xlink:href="#FranklinGothic-Book-100"/>
      <use x="170.996094" xlink:href="#FranklinGothic-Book-67"/>
      <use x="228.90625" xlink:href="#FranklinGothic-Book-82"/>
      <use x="289.310547" xlink:href="#FranklinGothic-Book-85"/>
      <use x="349.90625" xlink:href="#FranklinGothic-Book-84"/>
      <use x="398.441406" xlink:href="#FranklinGothic-Book-53"/>
     </g>
    </g>
    <g id="line2d_17"/>
    <g id="text_13">
     <!-- NOAAGlobalTemp -->
     <g style="fill:#e69f00;" transform="translate(185.856 157.04965)scale(0.2 -0.2)">
      <defs>
       <path d="M 57.421875 0 
L 49.3125 0 
L 14.84375 58.109375 
L 14.9375 53.71875 
Q 15.09375 51.21875 15.09375 49.515625 
L 15.09375 0 
L 8.34375 0 
L 8.34375 66.65625 
L 18.796875 66.65625 
L 51.03125 12.3125 
L 50.921875 16.9375 
Q 50.828125 19.671875 50.828125 21.78125 
L 50.828125 66.65625 
L 57.421875 66.65625 
z
" id="FranklinGothic-Book-78"/>
       <path d="M 57.71875 33.59375 
L 57.71875 -0.875 
L 52.59375 -0.875 
L 50.296875 7.46875 
Q 44.140625 -1.3125 31.984375 -1.3125 
Q 18.796875 -1.3125 11.46875 8.59375 
Q 4.15625 18.5 4.15625 32.671875 
Q 4.15625 47.796875 11.90625 57.90625 
Q 19.671875 68.015625 33.015625 68.015625 
Q 51.421875 68.015625 57.03125 48.6875 
L 49.125 46.78125 
Q 47.40625 54.203125 42.71875 57.5625 
Q 38.03125 60.9375 32.46875 60.9375 
Q 22.609375 60.9375 17.921875 52.96875 
Q 13.234375 45.015625 13.234375 33.015625 
Q 13.234375 20.0625 18.484375 12.765625 
Q 23.734375 5.46875 32.765625 5.46875 
Q 39.796875 5.46875 44.5 10.125 
Q 49.21875 14.796875 49.21875 23 
Q 49.21875 24.515625 49.125 26.609375 
L 32.625 26.609375 
L 32.625 33.59375 
z
" id="FranklinGothic-Book-71"/>
       <path d="M 11.375 0 
L 7.671875 0 
L 7.671875 66.65625 
L 15.328125 66.65625 
L 15.328125 41.109375 
Q 20.609375 50.6875 29.890625 50.6875 
Q 38.375 50.6875 44.109375 44 
Q 49.859375 37.3125 49.859375 24.5625 
Q 49.859375 13.578125 44.21875 6.125 
Q 38.578125 -1.3125 29.546875 -1.3125 
Q 19.484375 -1.3125 14.109375 8.15625 
z
M 15.328125 19.34375 
Q 15.875 11.765625 20 8.34375 
Q 24.125 4.9375 28.71875 4.9375 
Q 34.578125 4.9375 38.15625 10.015625 
Q 41.75 15.09375 41.75 23.921875 
Q 41.75 33.453125 38.28125 38.890625 
Q 34.8125 44.34375 28.65625 44.34375 
Q 23.828125 44.34375 19.9375 40.453125 
Q 16.0625 36.578125 15.328125 30.421875 
z
" id="FranklinGothic-Book-98"/>
      </defs>
      <use xlink:href="#FranklinGothic-Book-78"/>
      <use x="65.722656" xlink:href="#FranklinGothic-Book-79"/>
      <use x="127.058594" xlink:href="#FranklinGothic-Book-65"/>
      <use x="180.623047" xlink:href="#FranklinGothic-Book-65"/>
      <use x="231.5625" xlink:href="#FranklinGothic-Book-71"/>
      <use x="296.259766" xlink:href="#FranklinGothic-Book-108"/>
      <use x="319.257812" xlink:href="#FranklinGothic-Book-111"/>
      <use x="371.210938" xlink:href="#FranklinGothic-Book-98"/>
      <use x="424.921875" xlink:href="#FranklinGothic-Book-97"/>
      <use x="477.802734" xlink:href="#FranklinGothic-Book-108"/>
      <use x="500.800781" xlink:href="#FranklinGothic-Book-84"/>
      <use x="542.835938" xlink:href="#FranklinGothic-Book-101"/>
      <use x="594.886719" xlink:href="#FranklinGothic-Book-109"/>
      <use x="675.408203" xlink:href="#FranklinGothic-Book-112"/>
     </g>
    </g>
    <g id="line2d_18"/>
    <g id="text_14">
     <!-- GISTEMP -->
     <g style="fill:#56b4e9;" transform="translate(185.856 184.3809)scale(0.2 -0.2)">
      <defs>
       <path d="M 1.03125 17.71875 
L 8.546875 19.4375 
Q 13.09375 5.8125 28.21875 5.8125 
Q 36.140625 5.8125 40.140625 9.15625 
Q 44.140625 12.5 44.140625 18.109375 
Q 44.140625 22.359375 41.078125 24.953125 
Q 38.03125 27.546875 34.03125 28.515625 
L 20.703125 31.84375 
Q 15.53125 33.15625 12.234375 35.03125 
Q 8.9375 36.921875 6.640625 40.828125 
Q 4.34375 44.734375 4.34375 49.75 
Q 4.34375 58.109375 10.640625 63.0625 
Q 16.9375 68.015625 26.8125 68.015625 
Q 44.96875 68.015625 50.6875 51.5625 
L 43.109375 49.3125 
Q 41.796875 55.171875 36.90625 58.171875 
Q 32.03125 61.1875 26.515625 61.1875 
Q 21.046875 61.1875 16.765625 58.296875 
Q 12.5 55.421875 12.5 50.140625 
Q 12.5 42.78125 23.34375 40.1875 
L 35.796875 37.203125 
Q 52.875 33.109375 52.875 18.796875 
Q 52.875 10.15625 46.453125 4.421875 
Q 40.046875 -1.3125 28.375 -1.3125 
Q 7.671875 -1.3125 1.03125 17.71875 
z
" id="FranklinGothic-Book-83"/>
       <path d="M 16.703125 0 
L 8.34375 0 
L 8.34375 66.65625 
L 31.984375 66.65625 
Q 43.0625 66.65625 48.328125 60.625 
Q 53.609375 54.59375 53.609375 46.875 
Q 53.609375 38.28125 47.875 32.65625 
Q 42.140625 27.046875 32.859375 27.046875 
L 16.703125 27.046875 
z
M 16.703125 33.984375 
L 32.03125 33.984375 
Q 37.9375 33.984375 41.546875 37.515625 
Q 45.171875 41.0625 45.171875 46.875 
Q 45.171875 51.859375 41.9375 55.765625 
Q 38.71875 59.671875 32.625 59.671875 
L 16.703125 59.671875 
z
" id="FranklinGothic-Book-80"/>
      </defs>
      <use xlink:href="#FranklinGothic-Book-71"/>
      <use x="64.697266" xlink:href="#FranklinGothic-Book-73"/>
      <use x="89.697266" xlink:href="#FranklinGothic-Book-83"/>
      <use x="144.630859" xlink:href="#FranklinGothic-Book-84"/>
      <use x="193.166016" xlink:href="#FranklinGothic-Book-69"/>
      <use x="247.951172" xlink:href="#FranklinGothic-Book-77"/>
      <use x="328.957031" xlink:href="#FranklinGothic-Book-80"/>
     </g>
    </g>
    <g id="line2d_19"/>
    <g id="text_15">
     <!-- Berkeley Earth -->
     <g style="fill:#009e73;" transform="translate(185.856 211.71215)scale(0.2 -0.2)">
      <defs>
       <path d="M 8.34375 0 
L 8.34375 66.65625 
L 34.71875 66.65625 
Q 44.671875 66.65625 49.484375 61.765625 
Q 54.296875 56.890625 54.296875 50.4375 
Q 54.296875 39.109375 42.484375 35.40625 
Q 49.515625 33.59375 52.921875 28.953125 
Q 56.34375 24.3125 56.34375 18.453125 
Q 56.34375 10.59375 51.046875 5.296875 
Q 45.75 0 34.71875 0 
z
M 16.40625 38.09375 
L 30.90625 38.09375 
Q 39.9375 38.09375 42.96875 41.53125 
Q 46 44.96875 46 49.609375 
Q 46 54.203125 42.75 57.03125 
Q 39.5 59.859375 33.0625 59.859375 
L 16.40625 59.859375 
z
M 16.40625 7.328125 
L 34.28125 7.328125 
Q 40.828125 7.328125 44.390625 10.5 
Q 47.953125 13.671875 47.953125 18.75 
Q 47.953125 22.3125 46.34375 25.359375 
Q 44.734375 28.421875 41.796875 30.078125 
Q 38.875 31.734375 33.0625 31.734375 
L 16.40625 31.734375 
z
" id="FranklinGothic-Book-66"/>
       <path d="M 48.390625 0 
L 40.4375 0 
L 26.03125 27.546875 
L 15.328125 15.234375 
L 15.328125 0 
L 7.671875 0 
L 7.671875 66.65625 
L 15.328125 66.65625 
L 15.328125 23.96875 
L 38.234375 49.3125 
L 46.4375 49.3125 
L 31 31.984375 
z
" id="FranklinGothic-Book-107"/>
       <path d="M 41.5 49.3125 
L 21.734375 -5.765625 
Q 17.4375 -17.671875 8.015625 -17.671875 
Q 5.03125 -17.671875 1.421875 -16.65625 
L 1.421875 -10.640625 
Q 4.390625 -11.328125 6.546875 -11.328125 
Q 10.203125 -11.328125 12.671875 -9.21875 
Q 15.140625 -7.125 17.578125 0.921875 
L 0.53125 49.3125 
L 8.34375 49.3125 
L 21.53125 12.25 
L 35.0625 49.3125 
z
" id="FranklinGothic-Book-121"/>
       <path d="M 46.34375 0 
L 38.671875 0 
L 38.671875 29.9375 
Q 38.671875 35.203125 38.015625 37.84375 
Q 37.359375 40.484375 34.890625 42.40625 
Q 32.421875 44.34375 29.203125 44.34375 
Q 23.296875 44.34375 19.3125 39.5 
Q 15.328125 34.671875 15.328125 26.5625 
L 15.328125 0 
L 7.671875 0 
L 7.671875 66.65625 
L 15.328125 66.65625 
L 15.328125 40.234375 
Q 20.5625 50.6875 30.28125 50.6875 
Q 34.625 50.6875 38.015625 48.96875 
Q 41.40625 47.265625 43.203125 44.484375 
Q 45.015625 41.703125 45.671875 38.984375 
Q 46.34375 36.28125 46.34375 29.9375 
z
" id="FranklinGothic-Book-104"/>
      </defs>
      <use xlink:href="#FranklinGothic-Book-66"/>
      <use x="60.449219" xlink:href="#FranklinGothic-Book-101"/>
      <use x="112.5" xlink:href="#FranklinGothic-Book-114"/>
      <use x="144.958984" xlink:href="#FranklinGothic-Book-107"/>
      <use x="192.806641" xlink:href="#FranklinGothic-Book-101"/>
      <use x="244.857422" xlink:href="#FranklinGothic-Book-108"/>
      <use x="267.855469" xlink:href="#FranklinGothic-Book-101"/>
      <use x="318.28125" xlink:href="#FranklinGothic-Book-121"/>
      <use x="359.785156" xlink:href="#FranklinGothic-Book-32"/>
      <use x="384.785156" xlink:href="#FranklinGothic-Book-69"/>
      <use x="439.570312" xlink:href="#FranklinGothic-Book-97"/>
      <use x="492.451172" xlink:href="#FranklinGothic-Book-114"/>
      <use x="528.785156" xlink:href="#FranklinGothic-Book-116"/>
      <use x="559.546875" xlink:href="#FranklinGothic-Book-104"/>
     </g>
    </g>
    <g id="line2d_20"/>
    <g id="text_16">
     <!-- ERA5 -->
     <g style="fill:#0072b2;" transform="translate(185.856 239.246525)scale(0.2 -0.2)">
      <use xlink:href="#FranklinGothic-Book-69"/>
      <use x="54.785156" xlink:href="#FranklinGothic-Book-82"/>
      <use x="116.064453" xlink:href="#FranklinGothic-Book-65"/>
      <use x="169.628906" xlink:href="#FranklinGothic-Book-53"/>
     </g>
    </g>
   </g>
   <g id="line2d_21">
    <path clip-path="url(#p8670ea0029)" d="M 184.581818 430.254965 
L 191.289557 394.656831 
L 197.997295 529.557861 
L 204.705034 393.834921 
L 211.412772 468.62873 
L 218.120511 413.601182 
L 224.828249 410.71776 
L 231.535988 517.835538 
L 238.243727 484.514499 
L 244.951465 452.729488 
L 251.659204 417.373884 
L 258.366942 452.662118 
L 265.074681 469.706645 
L 271.782419 412.078628 
L 278.490158 452.729488 
L 285.197896 470.986669 
L 291.905635 393.363333 
L 298.613373 498.446547 
L 305.321112 457.377995 
L 312.02885 489.769333 
L 318.736589 411.256718 
L 325.444328 416.888822 
L 332.152066 445.844307 
L 338.859805 383.810313 
L 345.567543 426.670899 
L 352.275282 369.972583 
L 358.98302 405.894092 
L 365.690759 419.085074 
L 372.398497 409.168258 
L 379.106236 454.427203 
L 385.813974 330.103211 
L 392.521713 446.720113 
L 399.229452 358.843113 
L 405.93719 455.720701 
L 412.644929 310.997172 
L 419.352667 371.346924 
L 426.060406 326.680832 
L 432.768144 307.440053 
L 439.475883 306.200452 
L 446.183621 340.585932 
L 452.89136 475.13664 
L 459.599098 515.369808 
L 466.306837 509.980235 
L 473.014576 360.958521 
L 479.722314 378.73064 
L 486.430053 419.260235 
L 493.137791 350.40843 
L 499.84553 337.998937 
L 506.553268 365.081545 
L 513.261007 357.886464 
L 519.968745 362.076857 
L 526.676484 386.612892 
L 533.384222 381.371531 
L 540.091961 381.600588 
L 546.799699 397.890575 
L 553.507438 409.424263 
L 560.215177 529.261435 
L 566.922915 328.176438 
L 573.630654 399.251442 
L 580.338392 372.411365 
L 587.046131 337.918093 
L 593.753869 315.335779 
L 600.461608 355.434208 
L 607.169346 429.877695 
L 613.877085 412.078628 
L 620.584823 436.64161 
L 627.292562 384.228005 
L 634.000301 373.920446 
L 640.708039 442.664459 
L 647.415778 493.097395 
L 654.123516 408.225082 
L 660.831255 432.22216 
L 667.538993 383.055773 
L 674.246732 421.281325 
L 680.95447 331.531448 
L 687.662209 332.01651 
L 694.369947 472.751754 
L 701.077686 387.569541 
L 707.785424 465.192877 
L 714.493163 403.212779 
L 721.200902 436.291288 
L 727.90864 359.422492 
L 734.616379 394.643357 
L 741.324117 380.37446 
L 748.031856 408.305926 
L 754.739594 462.484616 
L 761.447333 404.51975 
L 768.155071 501.909348 
L 774.86281 356.175274 
L 781.570548 282.957915 
L 788.278287 284.642157 
L 794.986026 345.018856 
L 801.693764 380.670887 
L 808.401503 436.062231 
L 815.109241 336.8806 
L 821.81698 293.305896 
L 828.524718 375.362157 
L 835.232457 355.299468 
L 841.940195 319.499225 
L 848.647934 275.439459 
L 855.355672 227.041087 
L 862.063411 282.432431 
L 868.77115 253.167046 
L 875.478888 257.249648 
L 882.186627 277.123701 
L 888.894365 238.440036 
L 895.602104 263.407236 
L 902.309842 202.168204 
L 909.017581 221.732357 
L 915.725319 253.342207 
L 922.433058 239.96259 
L 929.140796 248.747595 
L 935.848535 251.078586 
L 942.556273 236.189889 
L 949.264012 171.81143 
L 955.971751 197.80265 
L 962.679489 167.634511 
L 969.387228 218.202186 
L 976.094966 189.610498 
L 982.802705 152.9075 
L 989.510443 125.555414 
L 996.218182 201.225029 
" style="fill:none;stroke:#009e73;stroke-linecap:round;stroke-width:3;"/>
   </g>
   <g id="line2d_22">
    <path clip-path="url(#p8670ea0029)" d="M 184.581818 450.115544 
L 191.289557 431.979629 
L 197.997295 554.04 
L 204.705034 423.733581 
L 211.412772 493.3534 
L 218.120511 436.345183 
L 224.828249 439.188184 
L 231.535988 546.023009 
L 238.243727 505.385623 
L 244.951465 485.039982 
L 251.659204 442.906989 
L 258.366942 472.320588 
L 265.074681 498.123172 
L 271.782419 438.703122 
L 278.490158 479.165347 
L 285.197896 491.008935 
L 291.905635 424.259064 
L 298.613373 517.283107 
L 305.321112 484.864821 
L 312.02885 527.940989 
L 318.736589 436.587714 
L 325.444328 437.921634 
L 332.152066 484.864821 
L 338.859805 412.644533 
L 345.567543 451.314724 
L 352.275282 409.343419 
L 358.98302 423.666211 
L 365.690759 430.06633 
L 372.398497 418.600012 
L 379.106236 473.438925 
L 385.813974 343.226823 
L 392.521713 453.45708 
L 399.229452 375.806796 
L 405.93719 469.342849 
L 412.644929 322.854234 
L 419.352667 381.883541 
L 426.060406 343.994837 
L 432.768144 319.782177 
L 439.475883 325.737656 
L 446.183621 359.233857 
L 452.89136 484.770503 
L 459.599098 516.36688 
L 466.306837 517.310055 
L 473.014576 368.342237 
L 479.722314 394.158295 
L 486.430053 437.975529 
L 493.137791 375.06573 
L 499.84553 365.13544 
L 506.553268 376.682602 
L 513.261007 373.853076 
L 519.968745 388.175868 
L 526.676484 395.856011 
L 533.384222 405.368608 
L 540.091961 382.705451 
L 546.799699 424.771074 
L 553.507438 429.217472 
L 560.215177 549.55318 
L 566.922915 353.925127 
L 573.630654 408.710144 
L 580.338392 383.203986 
L 587.046131 360.810307 
L 593.753869 329.052244 
L 600.461608 392.851323 
L 607.169346 453.322341 
L 613.877085 425.404349 
L 620.584823 454.858369 
L 627.292562 399.588291 
L 634.000301 390.843707 
L 640.708039 452.32527 
L 647.415778 493.420769 
L 654.123516 429.473477 
L 660.831255 428.691989 
L 667.538993 406.338732 
L 674.246732 424.488121 
L 680.95447 345.881188 
L 687.662209 335.964372 
L 694.369947 478.882394 
L 701.077686 391.773409 
L 707.785424 476.78046 
L 714.493163 413.911083 
L 721.200902 445.035871 
L 727.90864 367.102635 
L 734.616379 394.360404 
L 741.324117 374.62109 
L 748.031856 408.427191 
L 754.739594 473.277237 
L 761.447333 420.055197 
L 768.155071 501.289547 
L 774.86281 356.242644 
L 781.570548 289.573617 
L 788.278287 285.881759 
L 794.986026 349.330515 
L 801.693764 369.393204 
L 808.401503 430.1337 
L 815.109241 332.003036 
L 821.81698 300.244973 
L 828.524718 394.643357 
L 835.232457 347.039947 
L 841.940195 314.837243 
L 848.647934 271.532018 
L 855.355672 224.440618 
L 862.063411 277.77045 
L 868.77115 253.369155 
L 875.478888 260.739397 
L 882.186627 280.802085 
L 888.894365 243.088543 
L 895.602104 243.667922 
L 902.309842 196.441782 
L 909.017581 215.709508 
L 915.725319 247.211567 
L 922.433058 245.810278 
L 929.140796 233.751106 
L 935.848535 243.910453 
L 942.556273 233.589419 
L 949.264012 164.454662 
L 955.971751 189.866502 
L 962.679489 162.635681 
L 969.387228 206.587655 
L 976.094966 182.226782 
L 982.802705 139.366196 
L 989.510443 100.44 
L 996.218182 188.869431 
" style="fill:none;stroke:#56b4e9;stroke-linecap:round;stroke-width:3;"/>
   </g>
   <g id="line2d_23">
    <path clip-path="url(#p8670ea0029)" d="M 184.581818 446.8818 
L 191.289557 409.127836 
L 197.997295 543.341696 
L 204.705034 400.005982 
L 211.412772 471.390887 
L 218.120511 423.517998 
L 224.828249 398.591219 
L 231.535988 517.983752 
L 238.243727 509.441277 
L 244.951465 463.522109 
L 251.659204 393.471124 
L 258.366942 463.414318 
L 265.074681 501.801557 
L 271.782419 421.766386 
L 278.490158 430.524444 
L 285.197896 470.33992 
L 291.905635 406.837267 
L 298.613373 489.701963 
L 305.321112 445.130189 
L 312.02885 492.15422 
L 318.736589 401.919281 
L 325.444328 411.53967 
L 332.152066 450.950928 
L 338.859805 410.663865 
L 345.567543 444.779866 
L 352.275282 384.362745 
L 358.98302 423.881794 
L 365.690759 426.832586 
L 372.398497 433.475235 
L 379.106236 484.676186 
L 385.813974 355.232099 
L 392.521713 457.337573 
L 399.229452 375.860692 
L 405.93719 478.882394 
L 412.644929 318.542575 
L 419.352667 379.040541 
L 426.060406 334.320553 
L 432.768144 322.140116 
L 439.475883 323.406666 
L 446.183621 361.106734 
L 452.89136 507.164182 
L 459.599098 537.2919 
L 466.306837 515.908766 
L 473.014576 350.624013 
L 479.722314 371.831986 
L 486.430053 438.271956 
L 493.137791 370.093848 
L 499.84553 385.23855 
L 506.553268 359.947976 
L 513.261007 363.882364 
L 519.968745 376.830815 
L 526.676484 381.64101 
L 533.384222 396.206333 
L 540.091961 387.690806 
L 546.799699 409.693741 
L 553.507438 412.011258 
L 560.215177 531.228629 
L 566.922915 340.653302 
L 573.630654 411.863045 
L 580.338392 375.416052 
L 587.046131 354.127236 
L 593.753869 308.989556 
L 600.461608 372.869479 
L 607.169346 440.832004 
L 613.877085 408.723618 
L 620.584823 452.621696 
L 627.292562 375.469948 
L 634.000301 371.84546 
L 640.708039 426.239733 
L 647.415778 501.343443 
L 654.123516 409.734163 
L 660.831255 413.897609 
L 667.538993 383.621678 
L 674.246732 407.228011 
L 680.95447 335.829633 
L 687.662209 309.218613 
L 694.369947 484.635764 
L 701.077686 387.717754 
L 707.785424 468.480517 
L 714.493163 402.741191 
L 721.200902 447.609393 
L 727.90864 361.524426 
L 734.616379 383.244408 
L 741.324117 355.299468 
L 748.031856 401.757594 
L 754.739594 465.516251 
L 761.447333 402.080968 
L 768.155071 494.660371 
L 774.86281 361.928644 
L 781.570548 271.814971 
L 788.278287 286.164711 
L 794.986026 344.008311 
L 801.693764 364.960279 
L 808.401503 426.347524 
L 815.109241 335.425415 
L 821.81698 295.353934 
L 828.524718 391.800356 
L 835.232457 356.148326 
L 841.940195 337.689036 
L 848.647934 269.901672 
L 855.355672 234.061007 
L 862.063411 277.918663 
L 868.77115 265.684331 
L 875.478888 267.732369 
L 882.186627 274.213331 
L 888.894365 257.492179 
L 895.602104 268.567753 
L 902.309842 201.602299 
L 909.017581 216.760475 
L 915.725319 251.348065 
L 922.433058 248.127794 
L 929.140796 247.49452 
L 935.848535 252.42598 
L 942.556273 234.869443 
L 949.264012 180.650331 
L 955.971751 181.377924 
L 962.679489 175.382023 
L 969.387228 213.001248 
L 976.094966 181.243184 
L 982.802705 149.768074 
L 989.510443 113.65793 
L 996.218182 219.872954 
" style="fill:none;stroke:#e69f00;stroke-linecap:round;stroke-width:3;"/>
   </g>
   <g id="line2d_24">
    <path clip-path="url(#p8670ea0029)" d="M 184.581818 442.071606 
L 191.289557 402.485186 
L 197.997295 527.132553 
L 204.705034 400.140722 
L 211.412772 466.863645 
L 218.120511 411.849571 
L 224.828249 403.45531 
L 231.535988 513.793358 
L 238.243727 484.083333 
L 244.951465 445.264928 
L 251.659204 401.636329 
L 258.366942 445.143663 
L 265.074681 480.836115 
L 271.782419 415.474059 
L 278.490158 440.293046 
L 285.197896 462.632829 
L 291.905635 410.758182 
L 298.613373 504.240339 
L 305.321112 457.984322 
L 312.02885 488.543205 
L 318.736589 402.579504 
L 325.444328 407.888234 
L 332.152066 437.180567 
L 338.859805 393.228593 
L 345.567543 421.860704 
L 352.275282 374.917517 
L 358.98302 401.74412 
L 365.690759 404.775755 
L 372.398497 404.331115 
L 379.106236 461.622284 
L 385.813974 335.155936 
L 392.521713 429.230946 
L 399.229452 352.49689 
L 405.93719 452.756435 
L 412.644929 304.044622 
L 419.352667 361.632217 
L 426.060406 323.325822 
L 432.768144 303.923357 
L 439.475883 303.007129 
L 446.183621 340.437719 
L 452.89136 468.480517 
L 459.599098 507.824405 
L 466.306837 497.46295 
L 473.014576 355.393786 
L 479.722314 365.189336 
L 486.430053 419.206339 
L 493.137791 357.118449 
L 499.84553 357.751724 
L 506.553268 362.454127 
L 513.261007 357.334032 
L 519.968745 365.997772 
L 526.676484 384.308849 
L 533.384222 381.937437 
L 540.091961 375.267839 
L 546.799699 405.40903 
L 553.507438 411.660936 
L 560.215177 523.939231 
L 566.922915 336.921022 
L 573.630654 407.928656 
L 580.338392 379.202228 
L 587.046131 348.090913 
L 593.753869 322.126642 
L 600.461608 367.008317 
L 607.169346 439.673245 
L 613.877085 417.522097 
L 620.584823 440.144833 
L 627.292562 386.464678 
L 634.000301 372.775161 
L 640.708039 433.744714 
L 647.415778 490.294817 
L 654.123516 411.903467 
L 660.831255 425.88941 
L 667.538993 388.095025 
L 674.246732 417.037035 
L 680.95447 341.771638 
L 687.662209 332.32641 
L 694.369947 468.31883 
L 701.077686 392.649214 
L 707.785424 468.157142 
L 714.493163 407.672651 
L 721.200902 437.867738 
L 727.90864 357.563089 
L 734.616379 393.269015 
L 741.324117 370.080374 
L 748.031856 401.74412 
L 754.739594 466.068683 
L 761.447333 412.846642 
L 768.155071 496.411983 
L 774.86281 356.134852 
L 781.570548 287.687266 
L 788.278287 284.359204 
L 794.986026 344.479899 
L 801.693764 367.830227 
L 808.401503 426.630477 
L 815.109241 338.039358 
L 821.81698 294.96319 
L 828.524718 384.228005 
L 835.232457 360.177033 
L 841.940195 323.514457 
L 848.647934 275.533777 
L 855.355672 236.930955 
L 862.063411 280.936825 
L 868.77115 257.370913 
L 875.478888 263.137757 
L 882.186627 276.301791 
L 888.894365 244.772785 
L 895.602104 259.37853 
L 902.309842 203.084432 
L 909.017581 217.151219 
L 915.725319 250.701316 
L 922.433058 237.752865 
L 929.140796 245.971965 
L 935.848535 242.832538 
L 942.556273 231.05632 
L 949.264012 170.261928 
L 955.971751 181.337502 
L 962.679489 155.763974 
L 969.387228 210.845418 
L 976.094966 183.789758 
L 982.802705 148.784476 
L 989.510443 119.748148 
L 996.218182 195.175232 
" style="fill:none;stroke:#696969;stroke-linecap:round;stroke-width:3;"/>
   </g>
  </g>
 </g>
 <defs>
  <clipPath id="p8670ea0029">
   <rect height="498.96" width="892.8" x="144" y="77.76"/>
  </clipPath>
 </defs>
</svg>
