<?xml version="1.0" encoding="utf-8" standalone="no"?>
<!DOCTYPE svg PUBLIC "-//W3C//DTD SVG 1.1//EN"
  "http://www.w3.org/Graphics/SVG/1.1/DTD/svg11.dtd">
<!-- Created with matplotlib (https://matplotlib.org/) -->
<svg height="648pt" version="1.1" viewBox="0 0 1152 648" width="1152pt" xmlns="http://www.w3.org/2000/svg" xmlns:xlink="http://www.w3.org/1999/xlink">
 <metadata>
  <rdf:RDF xmlns:cc="http://creativecommons.org/ns#" xmlns:dc="http://purl.org/dc/elements/1.1/" xmlns:rdf="http://www.w3.org/1999/02/22-rdf-syntax-ns#">
   <cc:Work>
    <dc:type rdf:resource="http://purl.org/dc/dcmitype/StillImage"/>
    <dc:date>2023-11-02T20:04:57.055055</dc:date>
    <dc:format>image/svg+xml</dc:format>
    <dc:creator>
     <cc:Agent>
      <dc:title>Matplotlib v3.3.1, https://matplotlib.org/</dc:title>
     </cc:Agent>
    </dc:creator>
   </cc:Work>
  </rdf:RDF>
 </metadata>
 <defs>
  <style type="text/css">*{stroke-linecap:butt;stroke-linejoin:round;}</style>
 </defs>
 <g id="figure_1">
  <g id="patch_1">
   <path d="M 0 648 
L 1152 648 
L 1152 0 
L 0 0 
z
" style="fill:#ffffff;"/>
  </g>
  <g id="axes_1">
   <g id="patch_2">
    <path d="M 144 576.72 
L 1036.8 576.72 
L 1036.8 77.76 
L 144 77.76 
z
" style="fill:none;"/>
   </g>
   <g id="line2d_1">
    <path clip-path="url(#p4c75086862)" d="M 705.876718 339.89544 
L 712.475388 313.19352 
L 719.074058 333.10656 
L 725.672727 320.07312 
L 732.271397 291.43584 
L 738.870067 369.6516 
L 745.468736 358.41744 
L 752.067406 341.982 
L 758.666075 274.65264 
L 765.264745 322.2504 
L 771.863415 344.15928 
L 778.462084 313.7832 
L 785.060754 319.86144 
L 791.659424 341.42256 
L 798.258093 314.52408 
L 804.856763 287.15688 
L 811.455432 285.44832 
L 818.054102 322.34112 
L 824.652772 264.40128 
L 831.251441 224.75664 
L 837.850111 327.07368 
L 844.44878 347.33448 
L 851.04745 293.76432 
L 857.64612 256.64472 
L 864.244789 259.2756 
L 870.843459 269.49672 
L 877.442129 247.52736 
L 884.040798 250.06752 
L 890.639468 268.272 
L 897.238137 273.42792 
L 903.836807 240.49656 
L 910.435477 225.72432 
L 917.034146 265.41432 
L 923.632816 228.68784 
L 930.231486 241.67592 
L 936.830155 226.90368 
L 943.428825 168.08688 
L 950.027494 191.73456 
L 956.626164 202.16736 
L 963.224834 243.21816 
L 969.823503 190.404 
L 976.422173 198.65952 
L 983.020843 238.62168 
L 989.619512 272.29392 
L 996.218182 173.65104 
" style="fill:none;stroke:#0072b2;stroke-linecap:round;stroke-width:3;"/>
   </g>
   <g id="line2d_2">
    <path clip-path="url(#p4c75086862)" d="M 567.304656 269.16408 
L 573.903326 256.76568 
L 580.501996 267.15312 
L 587.100665 281.29032 
L 593.699335 342.37512 
L 600.298004 304.80192 
L 606.896674 366.4008 
L 613.495344 335.64672 
L 620.094013 324.79056 
L 626.692683 345.79224 
L 633.291353 358.41744 
L 639.890022 269.96544 
L 646.488692 293.08392 
L 653.087361 370.42272 
L 659.686031 300.9312 
L 666.284701 315.58248 
L 672.88337 388.26432 
L 679.48204 372.64536 
L 686.08071 388.1736 
L 692.679379 317.82024 
L 699.278049 333.09144 
L 705.876718 348.16608 
L 712.475388 302.8212 
L 719.074058 324.17064 
L 725.672727 297.71064 
L 732.271397 275.09112 
L 738.870067 350.7516 
L 745.468736 340.78752 
L 752.067406 328.23792 
L 758.666075 263.29752 
L 765.264745 314.19144 
L 771.863415 329.38704 
L 778.462084 303.56208 
L 785.060754 308.00736 
L 791.659424 326.66544 
L 798.258093 300.22056 
L 804.856763 271.40184 
L 811.455432 275.31792 
L 818.054102 307.37232 
L 824.652772 256.49352 
L 831.251441 219.132 
L 837.850111 312.55848 
L 844.44878 330.95952 
L 851.04745 280.92744 
L 857.64612 248.9184 
L 864.244789 260.07696 
L 870.843459 278.37216 
L 877.442129 263.53944 
L 884.040798 261.48312 
L 890.639468 291.57192 
L 897.238137 293.71896 
L 903.836807 251.44344 
L 910.435477 238.16808 
L 917.034146 265.30848 
L 923.632816 229.80672 
L 930.231486 246.86208 
L 936.830155 233.40528 
L 943.428825 179.26056 
L 950.027494 201.91032 
L 956.626164 213.02352 
L 963.224834 251.24688 
L 969.823503 191.02392 
L 976.422173 187.81848 
L 983.020843 233.7984 
L 989.619512 268.01496 
L 996.218182 172.98576 
" style="fill:none;stroke:#d55e00;stroke-linecap:round;stroke-width:3;"/>
   </g>
   <g id="patch_3">
    <path d="M 144 576.72 
L 1036.8 576.72 
" style="fill:none;stroke:#d3d3d3;stroke-linecap:square;stroke-linejoin:miter;stroke-width:1.25;"/>
   </g>
   <g id="matplotlib.axis_1">
    <g id="xtick_1">
     <g id="line2d_3">
      <defs>
       <path d="M 0 0 
L 0 6 
" id="m64c69bf8af" style="stroke:#696969;stroke-width:1.25;"/>
      </defs>
      <g>
       <use style="fill:#696969;stroke:#696969;stroke-width:1.25;" x="184.581818" xlink:href="#m64c69bf8af" y="576.72"/>
      </g>
     </g>
     <g id="text_1">
      <!-- 1900 -->
      <g style="fill:#696969;" transform="translate(157.765256 601.550938)scale(0.23 -0.23)">
       <defs>
        <path d="M 55.859375 6.203125 
L 55.859375 0 
L 9.1875 0 
L 9.1875 6.203125 
L 29.203125 6.203125 
L 29.203125 57.671875 
Q 20.359375 48.4375 10.84375 43.265625 
L 10.84375 51.65625 
Q 23.96875 58.546875 31.203125 68.015625 
L 37.15625 68.015625 
L 37.15625 6.203125 
z
" id="FranklinGothic-Book-49"/>
        <path d="M 5.71875 12.15625 
L 12.40625 14.59375 
Q 16.546875 5.375 26.375 5.375 
Q 35.890625 5.375 40.703125 13.375 
Q 45.515625 21.390625 45.65625 35.109375 
Q 39.109375 23.09375 25.984375 23.09375 
Q 16.703125 23.09375 10.40625 29.421875 
Q 4.109375 35.75 4.109375 45.0625 
Q 4.109375 54.546875 10.71875 61.28125 
Q 17.328125 68.015625 27.59375 68.015625 
Q 40.140625 68.015625 46.828125 59.203125 
Q 53.515625 50.390625 53.515625 34.96875 
Q 53.515625 18.75 46.4375 8.71875 
Q 39.359375 -1.3125 26.265625 -1.3125 
Q 10.984375 -1.3125 5.71875 12.15625 
z
M 27.828125 29.78125 
Q 34.71875 29.78125 39.375 34.59375 
Q 44.046875 39.40625 44.046875 45.84375 
Q 44.046875 52.09375 39.625 56.578125 
Q 35.203125 61.078125 27.984375 61.078125 
Q 20.65625 61.078125 16.40625 56.46875 
Q 12.15625 51.859375 12.15625 45.21875 
Q 12.15625 38.09375 16.859375 33.9375 
Q 21.578125 29.78125 27.828125 29.78125 
z
" id="FranklinGothic-Book-57"/>
        <path d="M 29.390625 -1.3125 
Q 17.875 -1.3125 10.984375 8.671875 
Q 4.109375 18.65625 4.109375 33.453125 
Q 4.109375 48 10.640625 58 
Q 17.1875 68.015625 29.15625 68.015625 
Q 41.65625 68.015625 48.125 57.5625 
Q 54.59375 47.125 54.59375 33.0625 
Q 54.59375 19.28125 47.953125 8.984375 
Q 41.3125 -1.3125 29.390625 -1.3125 
z
M 29.4375 5.21875 
Q 37.890625 5.21875 41.9375 12.859375 
Q 46 20.515625 46 32.078125 
Q 46 44.734375 41.84375 53.125 
Q 37.703125 61.53125 29.046875 61.53125 
Q 20.703125 61.53125 16.625 53.859375 
Q 12.546875 46.1875 12.546875 33.6875 
Q 12.546875 20.703125 16.84375 12.953125 
Q 21.140625 5.21875 29.4375 5.21875 
z
" id="FranklinGothic-Book-48"/>
       </defs>
       <use xlink:href="#FranklinGothic-Book-49"/>
       <use x="57.267578" xlink:href="#FranklinGothic-Book-57"/>
       <use x="115.910156" xlink:href="#FranklinGothic-Book-48"/>
       <use x="174.552734" xlink:href="#FranklinGothic-Book-48"/>
      </g>
     </g>
    </g>
    <g id="xtick_2">
     <g id="line2d_4">
      <g>
       <use style="fill:#696969;stroke:#696969;stroke-width:1.25;" x="316.555211" xlink:href="#m64c69bf8af" y="576.72"/>
      </g>
     </g>
     <g id="text_2">
      <!-- 1920 -->
      <g style="fill:#696969;" transform="translate(289.738648 601.550938)scale(0.23 -0.23)">
       <defs>
        <path d="M 52.484375 6.9375 
L 52.484375 0 
L 5.171875 0 
L 5.171875 6.9375 
Q 33.203125 27.9375 38.59375 34.59375 
Q 44 41.265625 44 47.796875 
Q 44 53.90625 39.453125 57.65625 
Q 34.90625 61.421875 29 61.421875 
Q 22.90625 61.421875 18.21875 57.296875 
Q 13.53125 53.171875 12.9375 46.09375 
L 5.171875 48.4375 
Q 10.0625 68.015625 29.109375 68.015625 
Q 39.40625 68.015625 45.84375 62.15625 
Q 52.296875 56.296875 52.296875 47.859375 
Q 52.296875 42.046875 49.234375 36.671875 
Q 46.1875 31.296875 37.6875 23.828125 
Q 29.203125 16.359375 15.71875 6.9375 
z
" id="FranklinGothic-Book-50"/>
       </defs>
       <use xlink:href="#FranklinGothic-Book-49"/>
       <use x="57.267578" xlink:href="#FranklinGothic-Book-57"/>
       <use x="115.910156" xlink:href="#FranklinGothic-Book-50"/>
       <use x="174.552734" xlink:href="#FranklinGothic-Book-48"/>
      </g>
     </g>
    </g>
    <g id="xtick_3">
     <g id="line2d_5">
      <g>
       <use style="fill:#696969;stroke:#696969;stroke-width:1.25;" x="448.528603" xlink:href="#m64c69bf8af" y="576.72"/>
      </g>
     </g>
     <g id="text_3">
      <!-- 1940 -->
      <g style="fill:#696969;" transform="translate(421.769541 601.550938)scale(0.23 -0.23)">
       <defs>
        <path d="M 44.09375 0 
L 36.03125 0 
L 36.03125 15.875 
L 3.078125 15.875 
L 3.078125 21.484375 
L 33.640625 68.0625 
L 44.09375 68.0625 
L 44.09375 22.46875 
L 54.890625 22.46875 
L 54.890625 15.875 
L 44.09375 15.875 
z
M 36.03125 22.46875 
L 36.03125 54 
Q 36.03125 57.421875 36.1875 61.375 
Q 34.078125 57.515625 32.5625 55.125 
L 11.765625 22.46875 
z
" id="FranklinGothic-Book-52"/>
       </defs>
       <use xlink:href="#FranklinGothic-Book-49"/>
       <use x="57.267578" xlink:href="#FranklinGothic-Book-57"/>
       <use x="115.410156" xlink:href="#FranklinGothic-Book-52"/>
       <use x="174.052734" xlink:href="#FranklinGothic-Book-48"/>
      </g>
     </g>
    </g>
    <g id="xtick_4">
     <g id="line2d_6">
      <g>
       <use style="fill:#696969;stroke:#696969;stroke-width:1.25;" x="580.501996" xlink:href="#m64c69bf8af" y="576.72"/>
      </g>
     </g>
     <g id="text_4">
      <!-- 1960 -->
      <g style="fill:#696969;" transform="translate(553.685433 601.550938)scale(0.23 -0.23)">
       <defs>
        <path d="M 53.5625 53.03125 
L 46.046875 50.984375 
Q 42.1875 61.140625 31.984375 61.140625 
Q 13.234375 61.140625 12.796875 30.125 
Q 15.765625 37.015625 21.234375 40.328125 
Q 26.703125 43.65625 32.8125 43.65625 
Q 42.09375 43.65625 48.359375 37.1875 
Q 54.640625 30.71875 54.640625 21.6875 
Q 54.640625 12.3125 47.96875 5.5 
Q 41.3125 -1.3125 30.90625 -1.3125 
Q 19.09375 -1.3125 12.078125 7.59375 
Q 5.078125 16.5 5.078125 31.84375 
Q 5.078125 46.828125 11.6875 57.421875 
Q 18.3125 68.015625 32.171875 68.015625 
Q 48.140625 68.015625 53.5625 53.03125 
z
M 30.765625 5.375 
Q 37.84375 5.375 42.359375 10.03125 
Q 46.875 14.703125 46.875 21.234375 
Q 46.875 27.6875 42.453125 32.296875 
Q 38.03125 36.921875 31.5 36.921875 
Q 24.75 36.921875 19.71875 32.078125 
Q 14.703125 27.25 14.703125 20.75 
Q 14.703125 14.75 19.1875 10.0625 
Q 23.6875 5.375 30.765625 5.375 
z
" id="FranklinGothic-Book-54"/>
       </defs>
       <use xlink:href="#FranklinGothic-Book-49"/>
       <use x="57.267578" xlink:href="#FranklinGothic-Book-57"/>
       <use x="115.910156" xlink:href="#FranklinGothic-Book-54"/>
       <use x="174.552734" xlink:href="#FranklinGothic-Book-48"/>
      </g>
     </g>
    </g>
    <g id="xtick_5">
     <g id="line2d_7">
      <g>
       <use style="fill:#696969;stroke:#696969;stroke-width:1.25;" x="712.475388" xlink:href="#m64c69bf8af" y="576.72"/>
      </g>
     </g>
     <g id="text_5">
      <!-- 1980 -->
      <g style="fill:#696969;" transform="translate(685.658826 601.550938)scale(0.23 -0.23)">
       <defs>
        <path d="M 19.484375 34.578125 
Q 6.84375 40.09375 6.84375 50.59375 
Q 6.84375 58.203125 13.140625 63.109375 
Q 19.4375 68.015625 29.828125 68.015625 
Q 40.09375 68.015625 46.140625 63.296875 
Q 52.203125 58.59375 52.203125 50.984375 
Q 52.203125 40.375 39.265625 35.796875 
Q 49.703125 30.953125 52.359375 26.453125 
Q 55.03125 21.96875 55.03125 17.484375 
Q 55.03125 9.46875 48.21875 4.078125 
Q 41.40625 -1.3125 29.734375 -1.3125 
Q 17.28125 -1.3125 10.4375 4.171875 
Q 3.609375 9.671875 3.609375 17.234375 
Q 3.609375 28.515625 19.484375 34.578125 
z
M 29.59375 38.71875 
Q 37.984375 40.96875 41.453125 43.890625 
Q 44.921875 46.828125 44.921875 51.21875 
Q 44.921875 56.34375 40.796875 59 
Q 36.671875 61.671875 29.9375 61.671875 
Q 23.484375 61.671875 19.375 58.859375 
Q 15.28125 56.0625 15.28125 51.3125 
Q 15.28125 46.625 19.84375 43.203125 
Q 24.421875 39.796875 29.59375 38.71875 
z
M 28.65625 31.0625 
Q 11.765625 27.046875 11.765625 16.9375 
Q 11.765625 11.671875 16.375 8.328125 
Q 21 4.984375 29.984375 4.984375 
Q 37.59375 4.984375 42.234375 8.25 
Q 46.875 11.53125 46.875 16.609375 
Q 46.875 26.3125 28.65625 31.0625 
z
" id="FranklinGothic-Book-56"/>
       </defs>
       <use xlink:href="#FranklinGothic-Book-49"/>
       <use x="57.267578" xlink:href="#FranklinGothic-Book-57"/>
       <use x="115.910156" xlink:href="#FranklinGothic-Book-56"/>
       <use x="174.552734" xlink:href="#FranklinGothic-Book-48"/>
      </g>
     </g>
    </g>
    <g id="xtick_6">
     <g id="line2d_8">
      <g>
       <use style="fill:#696969;stroke:#696969;stroke-width:1.25;" x="844.44878" xlink:href="#m64c69bf8af" y="576.72"/>
      </g>
     </g>
     <g id="text_6">
      <!-- 2000 -->
      <g style="fill:#696969;" transform="translate(817.474093 601.550938)scale(0.23 -0.23)">
       <use xlink:href="#FranklinGothic-Book-50"/>
       <use x="58.642578" xlink:href="#FranklinGothic-Book-48"/>
       <use x="117.285156" xlink:href="#FranklinGothic-Book-48"/>
       <use x="175.927734" xlink:href="#FranklinGothic-Book-48"/>
      </g>
     </g>
    </g>
    <g id="xtick_7">
     <g id="line2d_9">
      <g>
       <use style="fill:#696969;stroke:#696969;stroke-width:1.25;" x="976.422173" xlink:href="#m64c69bf8af" y="576.72"/>
      </g>
     </g>
     <g id="text_7">
      <!-- 2020 -->
      <g style="fill:#696969;" transform="translate(949.447485 601.550938)scale(0.23 -0.23)">
       <use xlink:href="#FranklinGothic-Book-50"/>
       <use x="58.642578" xlink:href="#FranklinGothic-Book-48"/>
       <use x="117.285156" xlink:href="#FranklinGothic-Book-50"/>
       <use x="175.927734" xlink:href="#FranklinGothic-Book-48"/>
      </g>
     </g>
    </g>
    <g id="text_8">
     <!-- Year -->
     <g style="fill:#696969;" transform="translate(569.365781 624.712813)scale(0.23 -0.23)">
      <defs>
       <path d="M 52 66.65625 
L 29.6875 28.03125 
L 29.6875 0 
L 21.34375 0 
L 21.34375 28.03125 
L -0.984375 66.65625 
L 8.84375 66.65625 
L 26.5625 35.984375 
L 44.390625 66.65625 
z
" id="FranklinGothic-Book-89"/>
       <path d="M 40.234375 14.703125 
L 47.359375 13.234375 
Q 45.40625 6.9375 39.734375 2.8125 
Q 34.078125 -1.3125 26.421875 -1.3125 
Q 16.3125 -1.3125 10.0625 5.78125 
Q 3.8125 12.890625 3.8125 24.421875 
Q 3.8125 36.1875 10.296875 43.4375 
Q 16.796875 50.6875 26.609375 50.6875 
Q 36.28125 50.6875 42.15625 44 
Q 48.046875 37.3125 48.1875 23.96875 
L 12.359375 23.96875 
Q 12.359375 12.796875 17.046875 8.890625 
Q 21.734375 4.984375 26.953125 4.984375 
Q 36.375 4.984375 40.234375 14.703125 
z
M 39.796875 29.6875 
Q 39.703125 33.84375 38.421875 37.0625 
Q 37.15625 40.28125 34.125 42.546875 
Q 31.109375 44.828125 26.859375 44.828125 
Q 21.140625 44.828125 17.15625 40.71875 
Q 13.1875 36.625 12.703125 29.6875 
z
" id="FranklinGothic-Book-101"/>
       <path d="M 46.296875 0 
L 38.671875 0 
Q 38.234375 2.34375 37.796875 8.890625 
Q 32.71875 -1.3125 20.515625 -1.3125 
Q 12.203125 -1.3125 7.765625 3.078125 
Q 3.328125 7.46875 3.328125 13.625 
Q 3.328125 21.09375 9.671875 25.90625 
Q 16.015625 30.71875 31.25 30.71875 
Q 33.296875 30.71875 37.796875 30.515625 
Q 37.796875 36.375 36.890625 38.984375 
Q 35.984375 41.609375 33.046875 43.171875 
Q 30.125 44.734375 25.34375 44.734375 
Q 13.671875 44.734375 11.765625 35.84375 
L 4.6875 37.0625 
Q 7.28125 50.6875 26.46875 50.6875 
Q 36.671875 50.6875 40.9375 46.171875 
Q 45.21875 41.65625 45.21875 30.515625 
L 45.21875 9.578125 
Q 45.21875 4.34375 46.296875 0 
z
M 37.796875 24.65625 
Q 33.109375 24.953125 30.671875 24.953125 
Q 21.578125 24.953125 16.546875 21.96875 
Q 11.53125 19 11.53125 13.28125 
Q 11.53125 9.671875 14.234375 7.125 
Q 16.9375 4.59375 22.078125 4.59375 
Q 29 4.59375 33.46875 9.625 
Q 37.9375 14.65625 37.9375 21.4375 
Q 37.9375 22.796875 37.796875 24.65625 
z
" id="FranklinGothic-Book-97"/>
       <path d="M 15.328125 0 
L 7.671875 0 
L 7.671875 49.3125 
L 14.40625 49.3125 
L 14.40625 37.796875 
Q 17.96875 45.953125 21.546875 48.359375 
Q 25.140625 50.78125 28.90625 50.78125 
Q 30.078125 50.78125 31.9375 50.59375 
L 31.9375 43.265625 
L 30.375 43.265625 
Q 24.03125 43.265625 19.828125 38.53125 
Q 15.625 33.796875 15.328125 26.078125 
z
" id="FranklinGothic-Book-114"/>
      </defs>
      <use xlink:href="#FranklinGothic-Book-89"/>
      <use x="45.025391" xlink:href="#FranklinGothic-Book-101"/>
      <use x="97.076172" xlink:href="#FranklinGothic-Book-97"/>
      <use x="149.957031" xlink:href="#FranklinGothic-Book-114"/>
     </g>
    </g>
   </g>
   <g id="matplotlib.axis_2">
    <g id="ytick_1">
     <g id="line2d_10">
      <path clip-path="url(#p4c75086862)" d="M 144 561.6 
L 1036.8 561.6 
" style="fill:none;stroke:#d3d3d3;stroke-linecap:round;stroke-opacity:0.5;"/>
     </g>
     <g id="text_9">
      <!-- −2.0 -->
      <g style="fill:#696969;" transform="translate(88.287969 569.265469)scale(0.23 -0.23)">
       <defs>
        <path d="M 6 36.765625 
L 52.6875 36.765625 
L 52.6875 30.03125 
L 6 30.03125 
z
" id="FranklinGothic-Book-8722"/>
        <path d="M 17.96875 10.9375 
L 17.96875 0 
L 7.078125 0 
L 7.078125 10.9375 
z
" id="FranklinGothic-Book-46"/>
       </defs>
       <use xlink:href="#FranklinGothic-Book-8722"/>
       <use x="58.642578" xlink:href="#FranklinGothic-Book-50"/>
       <use x="117.285156" xlink:href="#FranklinGothic-Book-46"/>
       <use x="142.285156" xlink:href="#FranklinGothic-Book-48"/>
      </g>
     </g>
    </g>
    <g id="ytick_2">
     <g id="line2d_11">
      <path clip-path="url(#p4c75086862)" d="M 144 486 
L 1036.8 486 
" style="fill:none;stroke:#d3d3d3;stroke-linecap:round;stroke-opacity:0.5;"/>
     </g>
     <g id="text_10">
      <!-- −1.5 -->
      <g style="fill:#696969;" transform="translate(88.431719 493.665469)scale(0.23 -0.23)">
       <defs>
        <path d="M 48.875 66.65625 
L 48.1875 59.46875 
L 15.4375 59.46875 
L 14.015625 37.84375 
Q 21.4375 45.125 30.328125 45.125 
Q 39.703125 45.125 46.515625 38.625 
Q 53.328125 32.125 53.328125 22.015625 
Q 53.328125 11.765625 45.921875 5.21875 
Q 38.53125 -1.3125 27.828125 -1.3125 
Q 19.4375 -1.3125 12.890625 3.078125 
Q 6.34375 7.46875 4.296875 14.453125 
L 11.421875 16.890625 
Q 15.828125 5.28125 27.9375 5.28125 
Q 35.890625 5.28125 40.578125 9.984375 
Q 45.265625 14.703125 45.265625 22.015625 
Q 45.265625 29.6875 40.625 33.984375 
Q 35.984375 38.28125 29.5 38.28125 
Q 20.015625 38.28125 13.8125 29.203125 
L 7.234375 30.609375 
L 9.375 66.65625 
z
" id="FranklinGothic-Book-53"/>
       </defs>
       <use xlink:href="#FranklinGothic-Book-8722"/>
       <use x="58.642578" xlink:href="#FranklinGothic-Book-49"/>
       <use x="116.660156" xlink:href="#FranklinGothic-Book-46"/>
       <use x="141.660156" xlink:href="#FranklinGothic-Book-53"/>
      </g>
     </g>
    </g>
    <g id="ytick_3">
     <g id="line2d_12">
      <path clip-path="url(#p4c75086862)" d="M 144 410.4 
L 1036.8 410.4 
" style="fill:none;stroke:#d3d3d3;stroke-linecap:round;stroke-opacity:0.5;"/>
     </g>
     <g id="text_11">
      <!-- −1.0 -->
      <g style="fill:#696969;" transform="translate(88.431719 418.065469)scale(0.23 -0.23)">
       <use xlink:href="#FranklinGothic-Book-8722"/>
       <use x="58.642578" xlink:href="#FranklinGothic-Book-49"/>
       <use x="116.660156" xlink:href="#FranklinGothic-Book-46"/>
       <use x="141.660156" xlink:href="#FranklinGothic-Book-48"/>
      </g>
     </g>
    </g>
    <g id="ytick_4">
     <g id="line2d_13">
      <path clip-path="url(#p4c75086862)" d="M 144 334.8 
L 1036.8 334.8 
" style="fill:none;stroke:#d3d3d3;stroke-linecap:round;stroke-opacity:0.5;"/>
     </g>
     <g id="text_12">
      <!-- −0.5 -->
      <g style="fill:#696969;" transform="translate(88.287969 342.465469)scale(0.23 -0.23)">
       <use xlink:href="#FranklinGothic-Book-8722"/>
       <use x="58.642578" xlink:href="#FranklinGothic-Book-48"/>
       <use x="117.285156" xlink:href="#FranklinGothic-Book-46"/>
       <use x="142.285156" xlink:href="#FranklinGothic-Book-53"/>
      </g>
     </g>
    </g>
    <g id="ytick_5">
     <g id="line2d_14">
      <path clip-path="url(#p4c75086862)" d="M 144 259.2 
L 1036.8 259.2 
" style="fill:none;stroke:#d3d3d3;stroke-linecap:round;stroke-opacity:0.5;"/>
     </g>
     <g id="text_13">
      <!-- 0.0 -->
      <g style="fill:#696969;" transform="translate(101.775312 266.865469)scale(0.23 -0.23)">
       <use xlink:href="#FranklinGothic-Book-48"/>
       <use x="58.642578" xlink:href="#FranklinGothic-Book-46"/>
       <use x="83.642578" xlink:href="#FranklinGothic-Book-48"/>
      </g>
     </g>
    </g>
    <g id="ytick_6">
     <g id="line2d_15">
      <path clip-path="url(#p4c75086862)" d="M 144 183.6 
L 1036.8 183.6 
" style="fill:none;stroke:#d3d3d3;stroke-linecap:round;stroke-opacity:0.5;"/>
     </g>
     <g id="text_14">
      <!-- 0.5 -->
      <g style="fill:#696969;" transform="translate(101.775312 191.265469)scale(0.23 -0.23)">
       <use xlink:href="#FranklinGothic-Book-48"/>
       <use x="58.642578" xlink:href="#FranklinGothic-Book-46"/>
       <use x="83.642578" xlink:href="#FranklinGothic-Book-53"/>
      </g>
     </g>
    </g>
    <g id="ytick_7">
     <g id="line2d_16">
      <path clip-path="url(#p4c75086862)" d="M 144 108 
L 1036.8 108 
" style="fill:none;stroke:#d3d3d3;stroke-linecap:round;stroke-opacity:0.5;"/>
     </g>
     <g id="text_15">
      <!-- 1.0 -->
      <g style="fill:#696969;" transform="translate(101.919062 115.665469)scale(0.23 -0.23)">
       <use xlink:href="#FranklinGothic-Book-49"/>
       <use x="58.017578" xlink:href="#FranklinGothic-Book-46"/>
       <use x="83.017578" xlink:href="#FranklinGothic-Book-48"/>
      </g>
     </g>
    </g>
    <g id="text_16">
     <!-- $\!^\circ\!$C -->
     <g style="fill:#696969;" transform="translate(74.457031 338.855)rotate(-90)scale(0.23 -0.23)">
      <defs>
       <path d="M 31.296875 40.671875 
Q 27.390625 40.671875 24.703125 37.953125 
Q 22.015625 35.25 22.015625 31.34375 
Q 22.015625 27.484375 24.703125 24.828125 
Q 27.390625 22.171875 31.296875 22.171875 
Q 35.203125 22.171875 37.890625 24.828125 
Q 40.578125 27.484375 40.578125 31.34375 
Q 40.578125 35.203125 37.859375 37.9375 
Q 35.15625 40.671875 31.296875 40.671875 
z
M 31.296875 46.96875 
Q 34.421875 46.96875 37.296875 45.765625 
Q 40.1875 44.578125 42.28125 42.328125 
Q 44.53125 40.140625 45.65625 37.34375 
Q 46.78125 34.5625 46.78125 31.34375 
Q 46.78125 24.90625 42.265625 20.4375 
Q 37.75 15.96875 31.203125 15.96875 
Q 24.609375 15.96875 20.21875 20.359375 
Q 15.828125 24.75 15.828125 31.34375 
Q 15.828125 37.890625 20.3125 42.421875 
Q 24.8125 46.96875 31.296875 46.96875 
z
" id="DejaVuSans-8728"/>
       <path d="M 48.296875 22.40625 
L 55.90625 20.703125 
Q 50.4375 -1.3125 31.203125 -1.3125 
Q 18.5625 -1.3125 11.359375 8.890625 
Q 4.15625 19.09375 4.15625 33.984375 
Q 4.15625 49.359375 11.671875 58.6875 
Q 19.1875 68.015625 31.84375 68.015625 
Q 50.59375 68.015625 55.90625 46.578125 
L 48.046875 45.015625 
Q 43.75 60.9375 31.78125 60.9375 
Q 22.953125 60.9375 18.09375 53.53125 
Q 13.234375 46.140625 13.234375 32.765625 
Q 13.234375 20.515625 18.203125 13.109375 
Q 23.1875 5.71875 31.390625 5.71875 
Q 44.140625 5.71875 48.296875 22.40625 
z
" id="FranklinGothic-Book-67"/>
      </defs>
      <use transform="translate(-1.64095 39.121875)scale(0.7)" xlink:href="#DejaVuSans-8728"/>
      <use transform="translate(42.313804 0.840625)" xlink:href="#FranklinGothic-Book-67"/>
     </g>
    </g>
   </g>
   <g id="text_17">
    <!-- Compared to 1991-2020 average -->
    <g style="fill:#696969;" transform="translate(144 75.2652)scale(0.3 -0.3)">
     <defs>
      <path d="M 25.34375 -1.3125 
Q 15.1875 -1.3125 9.5 6.203125 
Q 3.8125 13.71875 3.8125 24.859375 
Q 3.8125 36.625 10.203125 43.65625 
Q 16.609375 50.6875 26.125 50.6875 
Q 36.328125 50.6875 42.203125 43.28125 
Q 48.09375 35.890625 48.09375 24.8125 
Q 48.09375 13.28125 41.75 5.984375 
Q 35.40625 -1.3125 25.34375 -1.3125 
z
M 25.921875 4.984375 
Q 31.78125 4.984375 35.734375 9.8125 
Q 39.703125 14.65625 39.703125 24.859375 
Q 39.703125 35.109375 35.546875 39.71875 
Q 31.390625 44.34375 25.828125 44.34375 
Q 20.125 44.34375 16.15625 39.671875 
Q 12.203125 35.015625 12.203125 24.90625 
Q 12.203125 14.203125 16.15625 9.59375 
Q 20.125 4.984375 25.921875 4.984375 
z
" id="FranklinGothic-Book-111"/>
      <path d="M 73.734375 0 
L 66.265625 0 
L 66.265625 30.671875 
Q 66.265625 35.40625 65.59375 37.765625 
Q 64.9375 40.140625 62.390625 42.109375 
Q 59.859375 44.09375 56.6875 44.09375 
Q 52.296875 44.09375 48.21875 40.0625 
Q 44.140625 36.03125 44.140625 27.78125 
L 44.140625 0 
L 36.71875 0 
L 36.71875 32.46875 
Q 36.71875 38.96875 33.609375 41.65625 
Q 30.515625 44.34375 27.09375 44.34375 
Q 22.21875 44.34375 18.59375 40.140625 
Q 14.984375 35.9375 14.984375 29.5 
L 14.984375 0 
L 7.671875 0 
L 7.671875 49.3125 
L 14.265625 49.3125 
L 14.265625 39.84375 
Q 19.78125 50.6875 29.4375 50.6875 
Q 34.765625 50.6875 38.46875 47.21875 
Q 42.1875 43.75 43.265625 38.875 
Q 48.34375 50.6875 58.84375 50.6875 
Q 63.875 50.6875 67.65625 47.796875 
Q 71.4375 44.921875 72.578125 41.1875 
Q 73.734375 37.453125 73.734375 30.671875 
z
" id="FranklinGothic-Book-109"/>
      <path d="M 15.328125 -16.65625 
L 7.671875 -16.65625 
L 7.671875 49.3125 
L 14.546875 49.3125 
L 14.546875 39.75 
Q 19.78125 50.6875 30.125 50.6875 
Q 38.875 50.6875 44.234375 43.375 
Q 49.609375 36.078125 49.609375 24.90625 
Q 49.609375 12.84375 44.09375 5.765625 
Q 38.578125 -1.3125 29.9375 -1.3125 
Q 20.65625 -1.3125 15.328125 7.515625 
z
M 15.328125 31.78125 
L 15.328125 17.921875 
Q 16.0625 12.3125 20.0625 8.640625 
Q 24.078125 4.984375 28.421875 4.984375 
Q 33.453125 4.984375 37.328125 9.375 
Q 41.21875 13.765625 41.21875 24.5625 
Q 41.21875 33.890625 37.703125 38.9375 
Q 34.1875 44 28.375 44 
Q 23.78125 44 20.140625 40.421875 
Q 16.5 36.859375 15.328125 31.78125 
z
" id="FranklinGothic-Book-112"/>
      <path d="M 46.1875 66.65625 
L 46.1875 0 
L 39.203125 0 
L 39.203125 8.453125 
Q 34.03125 -1.3125 23.640625 -1.3125 
Q 14.984375 -1.3125 9.421875 5.9375 
Q 3.859375 13.1875 3.859375 24.265625 
Q 3.859375 35.59375 9.375 43.140625 
Q 14.890625 50.6875 24.03125 50.6875 
Q 32.90625 50.6875 38.53125 42.578125 
L 38.53125 66.65625 
z
M 38.53125 30.28125 
Q 38.53125 36.765625 34.5625 40.671875 
Q 30.609375 44.578125 25.34375 44.578125 
Q 19.625 44.578125 15.9375 39.5 
Q 12.25 34.421875 12.25 25.25 
Q 12.25 15.328125 15.640625 10.15625 
Q 19.046875 4.984375 24.953125 4.984375 
Q 30.328125 4.984375 34.421875 9.46875 
Q 38.53125 13.96875 38.53125 20.015625 
z
" id="FranklinGothic-Book-100"/>
      <path id="FranklinGothic-Book-32"/>
      <path d="M 30.03125 5.28125 
L 30.03125 -0.78125 
Q 25.984375 -1.3125 23 -1.3125 
Q 8.6875 -1.3125 8.6875 13.625 
L 8.6875 43.3125 
L -0.046875 43.3125 
L -0.046875 49.3125 
L 8.6875 49.3125 
L 9.03125 61.71875 
L 16.15625 62.40625 
L 16.15625 49.3125 
L 27.203125 49.3125 
L 27.203125 43.3125 
L 16.15625 43.3125 
L 16.15625 12.359375 
Q 16.15625 4.734375 24.078125 4.734375 
Q 26.703125 4.734375 30.03125 5.28125 
z
" id="FranklinGothic-Book-116"/>
      <path d="M 23.53125 27.984375 
L 23.53125 22.015625 
L 1.46875 22.015625 
L 1.46875 27.984375 
z
" id="FranklinGothic-Book-45"/>
      <path d="M 43.796875 49.3125 
L 26.765625 0 
L 18.796875 0 
L 1.171875 49.3125 
L 9.671875 49.3125 
L 23.390625 9.234375 
L 36.96875 49.3125 
z
" id="FranklinGothic-Book-118"/>
      <path d="M 47.953125 57.03125 
L 47.953125 50.921875 
Q 42.671875 50.921875 40.890625 49.703125 
Q 39.109375 48.484375 38.53125 45.3125 
Q 43.265625 39.84375 43.265625 33.40625 
Q 43.265625 26.65625 38.109375 21.828125 
Q 32.953125 17 24.265625 17 
Q 22.3125 17 20.90625 17.28125 
Q 18.21875 17.828125 17.53125 17.828125 
Q 16.21875 17.828125 14.359375 16.53125 
Q 12.5 15.234375 12.5 13.1875 
Q 12.5 10.25 15.1875 9.375 
Q 17.875 8.5 27.828125 8.25 
Q 36.28125 8.015625 40.3125 7.109375 
Q 44.34375 6.203125 47.125 3.09375 
Q 49.90625 0 49.90625 -4.5 
Q 49.90625 -18.609375 25.09375 -18.609375 
Q 13.328125 -18.609375 7.9375 -15.0625 
Q 2.546875 -11.53125 2.546875 -5.609375 
Q 2.546875 1.5625 10.0625 4.25 
Q 5.21875 7.421875 5.21875 12.203125 
Q 5.21875 17.921875 12.0625 20.953125 
Q 5.671875 26.125 5.671875 33.984375 
Q 5.671875 41.3125 11.140625 46 
Q 16.609375 50.6875 24.46875 50.6875 
Q 30.03125 50.6875 34.578125 48.578125 
Q 35.296875 53.421875 37.953125 55.265625 
Q 40.625 57.125 46.046875 57.125 
Q 46.578125 57.125 47.953125 57.03125 
z
M 24.515625 22.859375 
Q 29.390625 22.859375 32.46875 25.859375 
Q 35.546875 28.859375 35.546875 33.640625 
Q 35.546875 38.53125 32.34375 41.625 
Q 29.15625 44.734375 24.609375 44.734375 
Q 20.265625 44.734375 16.890625 41.828125 
Q 13.53125 38.921875 13.53125 33.546875 
Q 13.53125 28.765625 16.546875 25.8125 
Q 19.578125 22.859375 24.515625 22.859375 
z
M 15.328125 2 
Q 9.96875 -0.34375 9.96875 -4.78125 
Q 9.96875 -8.546875 14.375 -10.625 
Q 18.796875 -12.703125 25.640625 -12.703125 
Q 31.984375 -12.703125 37.25 -10.90625 
Q 42.53125 -9.125 42.53125 -4.890625 
Q 42.53125 -2.59375 40.96875 -1.125 
Q 39.40625 0.34375 36.6875 0.734375 
Q 33.984375 1.125 27.25 1.3125 
Q 19.1875 1.515625 15.328125 2 
z
" id="FranklinGothic-Book-103"/>
     </defs>
     <use xlink:href="#FranklinGothic-Book-67"/>
     <use x="57.910156" xlink:href="#FranklinGothic-Book-111"/>
     <use x="109.863281" xlink:href="#FranklinGothic-Book-109"/>
     <use x="190.384766" xlink:href="#FranklinGothic-Book-112"/>
     <use x="243.802734" xlink:href="#FranklinGothic-Book-97"/>
     <use x="296.683594" xlink:href="#FranklinGothic-Book-114"/>
     <use x="329.642578" xlink:href="#FranklinGothic-Book-101"/>
     <use x="381.693359" xlink:href="#FranklinGothic-Book-100"/>
     <use x="435.550781" xlink:href="#FranklinGothic-Book-32"/>
     <use x="460.550781" xlink:href="#FranklinGothic-Book-116"/>
     <use x="489.8125" xlink:href="#FranklinGothic-Book-111"/>
     <use x="541.765625" xlink:href="#FranklinGothic-Book-32"/>
     <use x="566.765625" xlink:href="#FranklinGothic-Book-49"/>
     <use x="624.033203" xlink:href="#FranklinGothic-Book-57"/>
     <use x="682.675781" xlink:href="#FranklinGothic-Book-57"/>
     <use x="737.193359" xlink:href="#FranklinGothic-Book-49"/>
     <use x="795.835938" xlink:href="#FranklinGothic-Book-45"/>
     <use x="820.835938" xlink:href="#FranklinGothic-Book-50"/>
     <use x="879.478516" xlink:href="#FranklinGothic-Book-48"/>
     <use x="938.121094" xlink:href="#FranklinGothic-Book-50"/>
     <use x="996.763672" xlink:href="#FranklinGothic-Book-48"/>
     <use x="1055.40625" xlink:href="#FranklinGothic-Book-32"/>
     <use x="1080.40625" xlink:href="#FranklinGothic-Book-97"/>
     <use x="1131.037109" xlink:href="#FranklinGothic-Book-118"/>
     <use x="1174.556641" xlink:href="#FranklinGothic-Book-101"/>
     <use x="1226.607422" xlink:href="#FranklinGothic-Book-114"/>
     <use x="1259.566406" xlink:href="#FranklinGothic-Book-97"/>
     <use x="1312.447266" xlink:href="#FranklinGothic-Book-103"/>
     <use x="1361.568359" xlink:href="#FranklinGothic-Book-101"/>
    </g>
   </g>
   <g id="text_18">
    <!-- WMO RA III South America annual temperature -->
    <g style="fill:#696969;" transform="translate(144 42.76)scale(0.4 -0.4)">
     <defs>
      <path d="M 79.828125 66.65625 
L 63.765625 0 
L 55.421875 0 
L 40.875 51.703125 
L 27.34375 0 
L 18.796875 0 
L 1.90625 66.65625 
L 10.546875 66.65625 
L 23.875 12.640625 
L 38.03125 66.65625 
L 44.78125 66.65625 
L 60.0625 12.640625 
L 72.515625 66.65625 
z
" id="FranklinGothic-Book-87"/>
      <path d="M 72.703125 0 
L 64.59375 0 
L 64.59375 58.203125 
L 42.921875 0 
L 37.25 0 
L 15.4375 58.203125 
L 15.4375 0 
L 8.34375 0 
L 8.34375 66.65625 
L 20.75 66.65625 
L 40.828125 13.328125 
L 60.5 66.65625 
L 72.703125 66.65625 
z
" id="FranklinGothic-Book-77"/>
      <path d="M 31.34375 -1.3125 
Q 18.5 -1.3125 11.328125 8.671875 
Q 4.15625 18.65625 4.15625 33.15625 
Q 4.15625 48.296875 11.671875 58.15625 
Q 19.1875 68.015625 31.59375 68.015625 
Q 43.953125 68.015625 51.421875 58.328125 
Q 58.890625 48.640625 58.890625 33.890625 
Q 58.890625 19.734375 51.640625 9.203125 
Q 44.390625 -1.3125 31.34375 -1.3125 
z
M 31.546875 5.46875 
Q 40.28125 5.46875 45.203125 13.421875 
Q 50.140625 21.390625 50.140625 33.9375 
Q 50.140625 46.828125 45.03125 54 
Q 39.9375 61.1875 31.5 61.1875 
Q 22.953125 61.1875 17.921875 53.421875 
Q 12.890625 45.65625 12.890625 33.109375 
Q 12.890625 20.84375 17.96875 13.15625 
Q 23.046875 5.46875 31.546875 5.46875 
z
" id="FranklinGothic-Book-79"/>
      <path d="M 56.296875 0 
L 47.5625 0 
L 35.25 28.859375 
L 16.15625 28.859375 
L 16.15625 0 
L 8.34375 0 
L 8.34375 66.65625 
L 34.625 66.65625 
Q 45.3125 66.65625 50.453125 60.8125 
Q 55.609375 54.984375 55.609375 48.046875 
Q 55.609375 42.71875 52.734375 37.828125 
Q 49.859375 32.953125 43.21875 30.859375 
z
M 16.15625 35.640625 
L 33.59375 35.640625 
Q 40.484375 35.640625 43.875 39.28125 
Q 47.265625 42.921875 47.265625 48.1875 
Q 47.265625 53.46875 43.671875 56.390625 
Q 40.09375 59.328125 34.625 59.328125 
L 16.15625 59.328125 
z
" id="FranklinGothic-Book-82"/>
      <path d="M 53.21875 0 
L 44.671875 0 
L 37.9375 19.484375 
L 13.28125 19.484375 
L 7.328125 0 
L 0.34375 0 
L 21.96875 66.65625 
L 31.5 66.65625 
z
M 36.1875 25.734375 
L 25.921875 57.765625 
L 15.578125 25.734375 
z
" id="FranklinGothic-Book-65"/>
      <path d="M 16.703125 0 
L 8.34375 0 
L 8.34375 66.65625 
L 16.703125 66.65625 
z
" id="FranklinGothic-Book-73"/>
      <path d="M 1.03125 17.71875 
L 8.546875 19.4375 
Q 13.09375 5.8125 28.21875 5.8125 
Q 36.140625 5.8125 40.140625 9.15625 
Q 44.140625 12.5 44.140625 18.109375 
Q 44.140625 22.359375 41.078125 24.953125 
Q 38.03125 27.546875 34.03125 28.515625 
L 20.703125 31.84375 
Q 15.53125 33.15625 12.234375 35.03125 
Q 8.9375 36.921875 6.640625 40.828125 
Q 4.34375 44.734375 4.34375 49.75 
Q 4.34375 58.109375 10.640625 63.0625 
Q 16.9375 68.015625 26.8125 68.015625 
Q 44.96875 68.015625 50.6875 51.5625 
L 43.109375 49.3125 
Q 41.796875 55.171875 36.90625 58.171875 
Q 32.03125 61.1875 26.515625 61.1875 
Q 21.046875 61.1875 16.765625 58.296875 
Q 12.5 55.421875 12.5 50.140625 
Q 12.5 42.78125 23.34375 40.1875 
L 35.796875 37.203125 
Q 52.875 33.109375 52.875 18.796875 
Q 52.875 10.15625 46.453125 4.421875 
Q 40.046875 -1.3125 28.375 -1.3125 
Q 7.671875 -1.3125 1.03125 17.71875 
z
" id="FranklinGothic-Book-83"/>
      <path d="M 46.484375 0 
L 39.59375 0 
L 39.59375 9.421875 
Q 34.328125 -1.3125 23.875 -1.3125 
Q 16.3125 -1.3125 11.984375 3.65625 
Q 7.671875 8.640625 7.671875 17.828125 
L 7.671875 49.3125 
L 15.328125 49.3125 
L 15.328125 17.828125 
Q 15.328125 10.5 18.375 7.734375 
Q 21.4375 4.984375 25.09375 4.984375 
Q 28.8125 4.984375 31.8125 7.078125 
Q 34.8125 9.1875 36.8125 13.0625 
Q 38.8125 16.9375 38.8125 21.53125 
L 38.8125 49.3125 
L 46.484375 49.3125 
z
" id="FranklinGothic-Book-117"/>
      <path d="M 46.34375 0 
L 38.671875 0 
L 38.671875 29.9375 
Q 38.671875 35.203125 38.015625 37.84375 
Q 37.359375 40.484375 34.890625 42.40625 
Q 32.421875 44.34375 29.203125 44.34375 
Q 23.296875 44.34375 19.3125 39.5 
Q 15.328125 34.671875 15.328125 26.5625 
L 15.328125 0 
L 7.671875 0 
L 7.671875 66.65625 
L 15.328125 66.65625 
L 15.328125 40.234375 
Q 20.5625 50.6875 30.28125 50.6875 
Q 34.625 50.6875 38.015625 48.96875 
Q 41.40625 47.265625 43.203125 44.484375 
Q 45.015625 41.703125 45.671875 38.984375 
Q 46.34375 36.28125 46.34375 29.9375 
z
" id="FranklinGothic-Book-104"/>
      <path d="M 15.578125 66.65625 
L 15.578125 58.15625 
L 7.328125 58.15625 
L 7.328125 66.65625 
z
M 15.328125 49.3125 
L 15.328125 0 
L 7.671875 0 
L 7.671875 49.3125 
z
" id="FranklinGothic-Book-105"/>
      <path d="M 36.8125 17.28125 
L 43.75 16.0625 
Q 42.28125 7.90625 37.25 3.296875 
Q 32.234375 -1.3125 24.703125 -1.3125 
Q 14.5 -1.3125 9.15625 6.203125 
Q 3.8125 13.71875 3.8125 24.5625 
Q 3.8125 35.796875 9.453125 43.234375 
Q 15.09375 50.6875 24.8125 50.6875 
Q 32.859375 50.6875 37.71875 45.875 
Q 42.578125 41.0625 43.75 33.453125 
L 36.8125 32.125 
Q 34.859375 44.34375 25 44.34375 
Q 18.65625 44.34375 15.234375 38.9375 
Q 11.8125 33.546875 11.8125 24.953125 
Q 11.8125 15.484375 15.203125 10.234375 
Q 18.609375 4.984375 24.75 4.984375 
Q 34.28125 4.984375 36.8125 17.28125 
z
" id="FranklinGothic-Book-99"/>
      <path d="M 46.53125 0 
L 39.359375 0 
L 39.359375 31.6875 
Q 39.359375 38.53125 36.375 41.3125 
Q 33.40625 44.09375 29.15625 44.09375 
Q 23.296875 44.09375 19.3125 39.40625 
Q 15.328125 34.71875 15.328125 27.046875 
L 15.328125 0 
L 7.671875 0 
L 7.671875 49.3125 
L 14.796875 49.3125 
L 14.796875 40.234375 
Q 20.796875 50.6875 30.375 50.6875 
Q 35.890625 50.6875 39.765625 47.828125 
Q 43.65625 44.96875 45.09375 41.40625 
Q 46.53125 37.84375 46.53125 28.515625 
z
" id="FranklinGothic-Book-110"/>
      <path d="M 15.328125 0 
L 7.671875 0 
L 7.671875 66.65625 
L 15.328125 66.65625 
z
" id="FranklinGothic-Book-108"/>
     </defs>
     <use xlink:href="#FranklinGothic-Book-87"/>
     <use x="81.738281" xlink:href="#FranklinGothic-Book-77"/>
     <use x="162.744141" xlink:href="#FranklinGothic-Book-79"/>
     <use x="225.830078" xlink:href="#FranklinGothic-Book-32"/>
     <use x="250.830078" xlink:href="#FranklinGothic-Book-82"/>
     <use x="312.109375" xlink:href="#FranklinGothic-Book-65"/>
     <use x="365.673828" xlink:href="#FranklinGothic-Book-32"/>
     <use x="390.673828" xlink:href="#FranklinGothic-Book-73"/>
     <use x="415.673828" xlink:href="#FranklinGothic-Book-73"/>
     <use x="440.673828" xlink:href="#FranklinGothic-Book-73"/>
     <use x="465.673828" xlink:href="#FranklinGothic-Book-32"/>
     <use x="490.673828" xlink:href="#FranklinGothic-Book-83"/>
     <use x="547.607422" xlink:href="#FranklinGothic-Book-111"/>
     <use x="599.560547" xlink:href="#FranklinGothic-Book-117"/>
     <use x="653.710938" xlink:href="#FranklinGothic-Book-116"/>
     <use x="684.472656" xlink:href="#FranklinGothic-Book-104"/>
     <use x="738.476562" xlink:href="#FranklinGothic-Book-32"/>
     <use x="763.476562" xlink:href="#FranklinGothic-Book-65"/>
     <use x="817.041016" xlink:href="#FranklinGothic-Book-109"/>
     <use x="898.4375" xlink:href="#FranklinGothic-Book-101"/>
     <use x="950.488281" xlink:href="#FranklinGothic-Book-114"/>
     <use x="983.447266" xlink:href="#FranklinGothic-Book-105"/>
     <use x="1006.396484" xlink:href="#FranklinGothic-Book-99"/>
     <use x="1052.978516" xlink:href="#FranklinGothic-Book-97"/>
     <use x="1105.859375" xlink:href="#FranklinGothic-Book-32"/>
     <use x="1130.859375" xlink:href="#FranklinGothic-Book-97"/>
     <use x="1183.740234" xlink:href="#FranklinGothic-Book-110"/>
     <use x="1237.939453" xlink:href="#FranklinGothic-Book-110"/>
     <use x="1292.138672" xlink:href="#FranklinGothic-Book-117"/>
     <use x="1346.289062" xlink:href="#FranklinGothic-Book-97"/>
     <use x="1399.169922" xlink:href="#FranklinGothic-Book-108"/>
     <use x="1422.167969" xlink:href="#FranklinGothic-Book-32"/>
     <use x="1447.167969" xlink:href="#FranklinGothic-Book-116"/>
     <use x="1476.179688" xlink:href="#FranklinGothic-Book-101"/>
     <use x="1528.230469" xlink:href="#FranklinGothic-Book-109"/>
     <use x="1608.751953" xlink:href="#FranklinGothic-Book-112"/>
     <use x="1662.169922" xlink:href="#FranklinGothic-Book-101"/>
     <use x="1714.220703" xlink:href="#FranklinGothic-Book-114"/>
     <use x="1747.179688" xlink:href="#FranklinGothic-Book-97"/>
     <use x="1800.060547" xlink:href="#FranklinGothic-Book-116"/>
     <use x="1830.822266" xlink:href="#FranklinGothic-Book-117"/>
     <use x="1884.972656" xlink:href="#FranklinGothic-Book-114"/>
     <use x="1917.931641" xlink:href="#FranklinGothic-Book-101"/>
    </g>
   </g>
   <g id="legend_1">
    <g id="line2d_17"/>
    <g id="text_19">
     <!-- HadCRUT5 (1900-2023) -->
     <g style="fill:#696969;" transform="translate(185.856 129.7184)scale(0.2 -0.2)">
      <defs>
       <path d="M 55.953125 0 
L 47.609375 0 
L 47.609375 31.734375 
L 16.703125 31.734375 
L 16.703125 0 
L 8.34375 0 
L 8.34375 66.65625 
L 16.703125 66.65625 
L 16.703125 39.0625 
L 47.609375 39.0625 
L 47.609375 66.65625 
L 55.953125 66.65625 
z
" id="FranklinGothic-Book-72"/>
       <path d="M 46.34375 66.65625 
L 53.265625 66.65625 
L 53.265625 23.140625 
Q 53.265625 10.0625 46.84375 4.375 
Q 40.4375 -1.3125 30.03125 -1.3125 
Q 18.453125 -1.3125 12.890625 4.546875 
Q 7.328125 10.40625 7.328125 23.140625 
L 7.328125 66.65625 
L 15.671875 66.65625 
L 15.671875 23.140625 
Q 15.671875 15.375 17.46875 12.203125 
Q 19.28125 9.03125 22.9375 7.515625 
Q 26.609375 6 30.609375 6 
Q 38.328125 6 42.328125 10.046875 
Q 46.34375 14.109375 46.34375 23.140625 
z
" id="FranklinGothic-Book-85"/>
       <path d="M 28.421875 0 
L 20.125 0 
L 20.125 59.328125 
L 1.03125 59.328125 
L 1.03125 66.65625 
L 47.5625 66.65625 
L 47.5625 59.328125 
L 28.421875 59.328125 
z
" id="FranklinGothic-Book-84"/>
       <path d="M 24.703125 -16.65625 
L 19.578125 -16.65625 
Q 5.21875 2.203125 5.21875 25.09375 
Q 5.21875 46.96875 19.578125 66.65625 
L 24.703125 66.65625 
Q 12.359375 48.25 12.359375 25 
Q 12.359375 2.828125 24.703125 -16.65625 
z
" id="FranklinGothic-Book-40"/>
       <path d="M 19.34375 31.34375 
L 19.34375 37.984375 
L 26.953125 37.984375 
Q 35.296875 37.984375 38.890625 41.40625 
Q 42.484375 44.828125 42.484375 49.703125 
Q 42.484375 55.078125 38.46875 58.21875 
Q 34.46875 61.375 28.421875 61.375 
Q 17.1875 61.375 12.890625 50.53125 
L 5.375 52.6875 
Q 11.8125 68.015625 29.203125 68.015625 
Q 38.96875 68.015625 44.96875 62.8125 
Q 50.984375 57.625 50.984375 50.296875 
Q 50.984375 44.625 47.359375 40.40625 
Q 43.75 36.1875 38.09375 35.109375 
Q 44.4375 34.1875 49 29.78125 
Q 53.5625 25.390625 53.5625 18.40625 
Q 53.5625 10.0625 46.765625 4.375 
Q 39.984375 -1.3125 28.171875 -1.3125 
Q 18.796875 -1.3125 12.125 3.125 
Q 5.46875 7.5625 2.9375 14.9375 
L 10.6875 17.53125 
Q 14.203125 5.46875 28.03125 5.46875 
Q 37.015625 5.46875 40.9375 9.296875 
Q 44.875 13.140625 44.875 18.453125 
Q 44.875 24.21875 40.15625 27.78125 
Q 35.453125 31.34375 26.953125 31.34375 
z
" id="FranklinGothic-Book-51"/>
       <path d="M 4.640625 66.65625 
L 9.71875 66.65625 
Q 24.125 47.796875 24.125 24.90625 
Q 24.125 3.03125 9.71875 -16.65625 
L 4.640625 -16.65625 
Q 17 1.765625 17 25 
Q 17 47.171875 4.640625 66.65625 
z
" id="FranklinGothic-Book-41"/>
      </defs>
      <use xlink:href="#FranklinGothic-Book-72"/>
      <use x="64.257812" xlink:href="#FranklinGothic-Book-97"/>
      <use x="117.138672" xlink:href="#FranklinGothic-Book-100"/>
      <use x="170.996094" xlink:href="#FranklinGothic-Book-67"/>
      <use x="228.90625" xlink:href="#FranklinGothic-Book-82"/>
      <use x="289.310547" xlink:href="#FranklinGothic-Book-85"/>
      <use x="349.90625" xlink:href="#FranklinGothic-Book-84"/>
      <use x="398.441406" xlink:href="#FranklinGothic-Book-53"/>
      <use x="457.083984" xlink:href="#FranklinGothic-Book-32"/>
      <use x="482.083984" xlink:href="#FranklinGothic-Book-40"/>
      <use x="511.429688" xlink:href="#FranklinGothic-Book-49"/>
      <use x="568.697266" xlink:href="#FranklinGothic-Book-57"/>
      <use x="627.339844" xlink:href="#FranklinGothic-Book-48"/>
      <use x="685.982422" xlink:href="#FranklinGothic-Book-48"/>
      <use x="744.625" xlink:href="#FranklinGothic-Book-45"/>
      <use x="769.625" xlink:href="#FranklinGothic-Book-50"/>
      <use x="828.267578" xlink:href="#FranklinGothic-Book-48"/>
      <use x="886.910156" xlink:href="#FranklinGothic-Book-50"/>
      <use x="945.552734" xlink:href="#FranklinGothic-Book-51"/>
      <use x="1004.195312" xlink:href="#FranklinGothic-Book-41"/>
     </g>
    </g>
    <g id="line2d_18"/>
    <g id="text_20">
     <!-- NOAAGlobalTemp (1900-2023) -->
     <g style="fill:#e69f00;" transform="translate(185.856 157.04965)scale(0.2 -0.2)">
      <defs>
       <path d="M 57.421875 0 
L 49.3125 0 
L 14.84375 58.109375 
L 14.9375 53.71875 
Q 15.09375 51.21875 15.09375 49.515625 
L 15.09375 0 
L 8.34375 0 
L 8.34375 66.65625 
L 18.796875 66.65625 
L 51.03125 12.3125 
L 50.921875 16.9375 
Q 50.828125 19.671875 50.828125 21.78125 
L 50.828125 66.65625 
L 57.421875 66.65625 
z
" id="FranklinGothic-Book-78"/>
       <path d="M 57.71875 33.59375 
L 57.71875 -0.875 
L 52.59375 -0.875 
L 50.296875 7.46875 
Q 44.140625 -1.3125 31.984375 -1.3125 
Q 18.796875 -1.3125 11.46875 8.59375 
Q 4.15625 18.5 4.15625 32.671875 
Q 4.15625 47.796875 11.90625 57.90625 
Q 19.671875 68.015625 33.015625 68.015625 
Q 51.421875 68.015625 57.03125 48.6875 
L 49.125 46.78125 
Q 47.40625 54.203125 42.71875 57.5625 
Q 38.03125 60.9375 32.46875 60.9375 
Q 22.609375 60.9375 17.921875 52.96875 
Q 13.234375 45.015625 13.234375 33.015625 
Q 13.234375 20.0625 18.484375 12.765625 
Q 23.734375 5.46875 32.765625 5.46875 
Q 39.796875 5.46875 44.5 10.125 
Q 49.21875 14.796875 49.21875 23 
Q 49.21875 24.515625 49.125 26.609375 
L 32.625 26.609375 
L 32.625 33.59375 
z
" id="FranklinGothic-Book-71"/>
       <path d="M 11.375 0 
L 7.671875 0 
L 7.671875 66.65625 
L 15.328125 66.65625 
L 15.328125 41.109375 
Q 20.609375 50.6875 29.890625 50.6875 
Q 38.375 50.6875 44.109375 44 
Q 49.859375 37.3125 49.859375 24.5625 
Q 49.859375 13.578125 44.21875 6.125 
Q 38.578125 -1.3125 29.546875 -1.3125 
Q 19.484375 -1.3125 14.109375 8.15625 
z
M 15.328125 19.34375 
Q 15.875 11.765625 20 8.34375 
Q 24.125 4.9375 28.71875 4.9375 
Q 34.578125 4.9375 38.15625 10.015625 
Q 41.75 15.09375 41.75 23.921875 
Q 41.75 33.453125 38.28125 38.890625 
Q 34.8125 44.34375 28.65625 44.34375 
Q 23.828125 44.34375 19.9375 40.453125 
Q 16.0625 36.578125 15.328125 30.421875 
z
" id="FranklinGothic-Book-98"/>
      </defs>
      <use xlink:href="#FranklinGothic-Book-78"/>
      <use x="65.722656" xlink:href="#FranklinGothic-Book-79"/>
      <use x="127.058594" xlink:href="#FranklinGothic-Book-65"/>
      <use x="180.623047" xlink:href="#FranklinGothic-Book-65"/>
      <use x="231.5625" xlink:href="#FranklinGothic-Book-71"/>
      <use x="296.259766" xlink:href="#FranklinGothic-Book-108"/>
      <use x="319.257812" xlink:href="#FranklinGothic-Book-111"/>
      <use x="371.210938" xlink:href="#FranklinGothic-Book-98"/>
      <use x="424.921875" xlink:href="#FranklinGothic-Book-97"/>
      <use x="477.802734" xlink:href="#FranklinGothic-Book-108"/>
      <use x="500.800781" xlink:href="#FranklinGothic-Book-84"/>
      <use x="542.835938" xlink:href="#FranklinGothic-Book-101"/>
      <use x="594.886719" xlink:href="#FranklinGothic-Book-109"/>
      <use x="675.408203" xlink:href="#FranklinGothic-Book-112"/>
      <use x="728.826172" xlink:href="#FranklinGothic-Book-32"/>
      <use x="753.826172" xlink:href="#FranklinGothic-Book-40"/>
      <use x="783.171875" xlink:href="#FranklinGothic-Book-49"/>
      <use x="840.439453" xlink:href="#FranklinGothic-Book-57"/>
      <use x="899.082031" xlink:href="#FranklinGothic-Book-48"/>
      <use x="957.724609" xlink:href="#FranklinGothic-Book-48"/>
      <use x="1016.367188" xlink:href="#FranklinGothic-Book-45"/>
      <use x="1041.367188" xlink:href="#FranklinGothic-Book-50"/>
      <use x="1100.009766" xlink:href="#FranklinGothic-Book-48"/>
      <use x="1158.652344" xlink:href="#FranklinGothic-Book-50"/>
      <use x="1217.294922" xlink:href="#FranklinGothic-Book-51"/>
      <use x="1275.9375" xlink:href="#FranklinGothic-Book-41"/>
     </g>
    </g>
    <g id="line2d_19"/>
    <g id="text_21">
     <!-- Kadow et al. (1900-2023) -->
     <g style="fill:#cc79a7;" transform="translate(185.856 184.3809)scale(0.2 -0.2)">
      <defs>
       <path d="M 61.03125 0 
L 51.90625 0 
L 31.984375 36.765625 
L 16.703125 17.78125 
L 16.703125 0 
L 8.34375 0 
L 8.34375 66.65625 
L 16.703125 66.65625 
L 16.703125 27.984375 
L 46.828125 66.65625 
L 55.859375 66.65625 
L 37.796875 43.3125 
z
" id="FranklinGothic-Book-75"/>
       <path d="M 64.5 49.3125 
L 50.296875 0 
L 44.09375 0 
L 33.0625 36.625 
L 22.953125 0 
L 16.65625 0 
L 1.859375 49.3125 
L 9.578125 49.3125 
L 20.265625 12.546875 
L 30.515625 49.3125 
L 36.140625 49.3125 
L 47.21875 12.40625 
L 58.296875 49.3125 
z
" id="FranklinGothic-Book-119"/>
      </defs>
      <use xlink:href="#FranklinGothic-Book-75"/>
      <use x="62.216797" xlink:href="#FranklinGothic-Book-97"/>
      <use x="115.097656" xlink:href="#FranklinGothic-Book-100"/>
      <use x="168.955078" xlink:href="#FranklinGothic-Book-111"/>
      <use x="219.533203" xlink:href="#FranklinGothic-Book-119"/>
      <use x="285.939453" xlink:href="#FranklinGothic-Book-32"/>
      <use x="310.939453" xlink:href="#FranklinGothic-Book-101"/>
      <use x="362.490234" xlink:href="#FranklinGothic-Book-116"/>
      <use x="393.251953" xlink:href="#FranklinGothic-Book-32"/>
      <use x="418.251953" xlink:href="#FranklinGothic-Book-97"/>
      <use x="471.132812" xlink:href="#FranklinGothic-Book-108"/>
      <use x="494.130859" xlink:href="#FranklinGothic-Book-46"/>
      <use x="519.130859" xlink:href="#FranklinGothic-Book-32"/>
      <use x="544.130859" xlink:href="#FranklinGothic-Book-40"/>
      <use x="573.476562" xlink:href="#FranklinGothic-Book-49"/>
      <use x="630.744141" xlink:href="#FranklinGothic-Book-57"/>
      <use x="689.386719" xlink:href="#FranklinGothic-Book-48"/>
      <use x="748.029297" xlink:href="#FranklinGothic-Book-48"/>
      <use x="806.671875" xlink:href="#FranklinGothic-Book-45"/>
      <use x="831.671875" xlink:href="#FranklinGothic-Book-50"/>
      <use x="890.314453" xlink:href="#FranklinGothic-Book-48"/>
      <use x="948.957031" xlink:href="#FranklinGothic-Book-50"/>
      <use x="1007.599609" xlink:href="#FranklinGothic-Book-51"/>
      <use x="1066.242188" xlink:href="#FranklinGothic-Book-41"/>
     </g>
    </g>
    <g id="line2d_20"/>
    <g id="text_22">
     <!-- GISTEMP (1900-2023) -->
     <g style="fill:#56b4e9;" transform="translate(185.856 211.71215)scale(0.2 -0.2)">
      <defs>
       <path d="M 51.46875 7.328125 
L 51.46875 0 
L 8.34375 0 
L 8.34375 66.65625 
L 50.53125 66.65625 
L 50.53125 59.328125 
L 16.703125 59.328125 
L 16.703125 38.140625 
L 43.5625 38.140625 
L 43.5625 31.34375 
L 16.703125 31.34375 
L 16.703125 7.328125 
z
" id="FranklinGothic-Book-69"/>
       <path d="M 16.703125 0 
L 8.34375 0 
L 8.34375 66.65625 
L 31.984375 66.65625 
Q 43.0625 66.65625 48.328125 60.625 
Q 53.609375 54.59375 53.609375 46.875 
Q 53.609375 38.28125 47.875 32.65625 
Q 42.140625 27.046875 32.859375 27.046875 
L 16.703125 27.046875 
z
M 16.703125 33.984375 
L 32.03125 33.984375 
Q 37.9375 33.984375 41.546875 37.515625 
Q 45.171875 41.0625 45.171875 46.875 
Q 45.171875 51.859375 41.9375 55.765625 
Q 38.71875 59.671875 32.625 59.671875 
L 16.703125 59.671875 
z
" id="FranklinGothic-Book-80"/>
      </defs>
      <use xlink:href="#FranklinGothic-Book-71"/>
      <use x="64.697266" xlink:href="#FranklinGothic-Book-73"/>
      <use x="89.697266" xlink:href="#FranklinGothic-Book-83"/>
      <use x="144.630859" xlink:href="#FranklinGothic-Book-84"/>
      <use x="193.166016" xlink:href="#FranklinGothic-Book-69"/>
      <use x="247.951172" xlink:href="#FranklinGothic-Book-77"/>
      <use x="328.957031" xlink:href="#FranklinGothic-Book-80"/>
      <use x="384.865234" xlink:href="#FranklinGothic-Book-32"/>
      <use x="409.865234" xlink:href="#FranklinGothic-Book-40"/>
      <use x="439.210938" xlink:href="#FranklinGothic-Book-49"/>
      <use x="496.478516" xlink:href="#FranklinGothic-Book-57"/>
      <use x="555.121094" xlink:href="#FranklinGothic-Book-48"/>
      <use x="613.763672" xlink:href="#FranklinGothic-Book-48"/>
      <use x="672.40625" xlink:href="#FranklinGothic-Book-45"/>
      <use x="697.40625" xlink:href="#FranklinGothic-Book-50"/>
      <use x="756.048828" xlink:href="#FranklinGothic-Book-48"/>
      <use x="814.691406" xlink:href="#FranklinGothic-Book-50"/>
      <use x="873.333984" xlink:href="#FranklinGothic-Book-51"/>
      <use x="931.976562" xlink:href="#FranklinGothic-Book-41"/>
     </g>
    </g>
    <g id="line2d_21"/>
    <g id="text_23">
     <!-- Berkeley Earth (1900-2023) -->
     <g style="fill:#009e73;" transform="translate(185.856 239.0434)scale(0.2 -0.2)">
      <defs>
       <path d="M 8.34375 0 
L 8.34375 66.65625 
L 34.71875 66.65625 
Q 44.671875 66.65625 49.484375 61.765625 
Q 54.296875 56.890625 54.296875 50.4375 
Q 54.296875 39.109375 42.484375 35.40625 
Q 49.515625 33.59375 52.921875 28.953125 
Q 56.34375 24.3125 56.34375 18.453125 
Q 56.34375 10.59375 51.046875 5.296875 
Q 45.75 0 34.71875 0 
z
M 16.40625 38.09375 
L 30.90625 38.09375 
Q 39.9375 38.09375 42.96875 41.53125 
Q 46 44.96875 46 49.609375 
Q 46 54.203125 42.75 57.03125 
Q 39.5 59.859375 33.0625 59.859375 
L 16.40625 59.859375 
z
M 16.40625 7.328125 
L 34.28125 7.328125 
Q 40.828125 7.328125 44.390625 10.5 
Q 47.953125 13.671875 47.953125 18.75 
Q 47.953125 22.3125 46.34375 25.359375 
Q 44.734375 28.421875 41.796875 30.078125 
Q 38.875 31.734375 33.0625 31.734375 
L 16.40625 31.734375 
z
" id="FranklinGothic-Book-66"/>
       <path d="M 48.390625 0 
L 40.4375 0 
L 26.03125 27.546875 
L 15.328125 15.234375 
L 15.328125 0 
L 7.671875 0 
L 7.671875 66.65625 
L 15.328125 66.65625 
L 15.328125 23.96875 
L 38.234375 49.3125 
L 46.4375 49.3125 
L 31 31.984375 
z
" id="FranklinGothic-Book-107"/>
       <path d="M 41.5 49.3125 
L 21.734375 -5.765625 
Q 17.4375 -17.671875 8.015625 -17.671875 
Q 5.03125 -17.671875 1.421875 -16.65625 
L 1.421875 -10.640625 
Q 4.390625 -11.328125 6.546875 -11.328125 
Q 10.203125 -11.328125 12.671875 -9.21875 
Q 15.140625 -7.125 17.578125 0.921875 
L 0.53125 49.3125 
L 8.34375 49.3125 
L 21.53125 12.25 
L 35.0625 49.3125 
z
" id="FranklinGothic-Book-121"/>
      </defs>
      <use xlink:href="#FranklinGothic-Book-66"/>
      <use x="60.449219" xlink:href="#FranklinGothic-Book-101"/>
      <use x="112.5" xlink:href="#FranklinGothic-Book-114"/>
      <use x="144.958984" xlink:href="#FranklinGothic-Book-107"/>
      <use x="192.806641" xlink:href="#FranklinGothic-Book-101"/>
      <use x="244.857422" xlink:href="#FranklinGothic-Book-108"/>
      <use x="267.855469" xlink:href="#FranklinGothic-Book-101"/>
      <use x="318.28125" xlink:href="#FranklinGothic-Book-121"/>
      <use x="359.785156" xlink:href="#FranklinGothic-Book-32"/>
      <use x="384.785156" xlink:href="#FranklinGothic-Book-69"/>
      <use x="439.570312" xlink:href="#FranklinGothic-Book-97"/>
      <use x="492.451172" xlink:href="#FranklinGothic-Book-114"/>
      <use x="528.785156" xlink:href="#FranklinGothic-Book-116"/>
      <use x="559.546875" xlink:href="#FranklinGothic-Book-104"/>
      <use x="613.550781" xlink:href="#FranklinGothic-Book-32"/>
      <use x="638.550781" xlink:href="#FranklinGothic-Book-40"/>
      <use x="667.896484" xlink:href="#FranklinGothic-Book-49"/>
      <use x="725.164062" xlink:href="#FranklinGothic-Book-57"/>
      <use x="783.806641" xlink:href="#FranklinGothic-Book-48"/>
      <use x="842.449219" xlink:href="#FranklinGothic-Book-48"/>
      <use x="901.091797" xlink:href="#FranklinGothic-Book-45"/>
      <use x="926.091797" xlink:href="#FranklinGothic-Book-50"/>
      <use x="984.734375" xlink:href="#FranklinGothic-Book-48"/>
      <use x="1043.376953" xlink:href="#FranklinGothic-Book-50"/>
      <use x="1102.019531" xlink:href="#FranklinGothic-Book-51"/>
      <use x="1160.662109" xlink:href="#FranklinGothic-Book-41"/>
     </g>
    </g>
    <g id="line2d_22"/>
    <g id="text_24">
     <!-- JRA-55 (1958-2023) -->
     <g style="fill:#d55e00;" transform="translate(185.856 266.577775)scale(0.2 -0.2)">
      <defs>
       <path d="M 29.6875 66.65625 
L 29.6875 20.359375 
Q 29.6875 8.25 24.21875 3.46875 
Q 18.75 -1.3125 9.71875 -1.3125 
Q 4.890625 -1.3125 0 0 
L 0 6.84375 
Q 4.78125 5.859375 8.6875 5.859375 
Q 14.265625 5.859375 16.890625 7.515625 
Q 19.53125 9.1875 20.4375 11.8125 
Q 21.34375 14.453125 21.34375 20.359375 
L 21.34375 66.65625 
z
" id="FranklinGothic-Book-74"/>
      </defs>
      <use xlink:href="#FranklinGothic-Book-74"/>
      <use x="37.353516" xlink:href="#FranklinGothic-Book-82"/>
      <use x="98.632812" xlink:href="#FranklinGothic-Book-65"/>
      <use x="153.947266" xlink:href="#FranklinGothic-Book-45"/>
      <use x="178.947266" xlink:href="#FranklinGothic-Book-53"/>
      <use x="237.589844" xlink:href="#FranklinGothic-Book-53"/>
      <use x="296.232422" xlink:href="#FranklinGothic-Book-32"/>
      <use x="321.232422" xlink:href="#FranklinGothic-Book-40"/>
      <use x="350.578125" xlink:href="#FranklinGothic-Book-49"/>
      <use x="407.845703" xlink:href="#FranklinGothic-Book-57"/>
      <use x="466.488281" xlink:href="#FranklinGothic-Book-53"/>
      <use x="525.130859" xlink:href="#FranklinGothic-Book-56"/>
      <use x="583.773438" xlink:href="#FranklinGothic-Book-45"/>
      <use x="608.773438" xlink:href="#FranklinGothic-Book-50"/>
      <use x="667.416016" xlink:href="#FranklinGothic-Book-48"/>
      <use x="726.058594" xlink:href="#FranklinGothic-Book-50"/>
      <use x="784.701172" xlink:href="#FranklinGothic-Book-51"/>
      <use x="843.34375" xlink:href="#FranklinGothic-Book-41"/>
     </g>
    </g>
    <g id="line2d_23"/>
    <g id="text_25">
     <!-- ERA5 (1979-2023) -->
     <g style="fill:#0072b2;" transform="translate(185.856 293.909025)scale(0.2 -0.2)">
      <defs>
       <path d="M 28.078125 0 
L 19.484375 0 
Q 19.484375 16.75 26.3125 32.59375 
Q 33.15625 48.4375 43.0625 59.328125 
L 6.890625 59.328125 
L 7.71875 66.65625 
L 51.765625 66.65625 
L 51.765625 61.671875 
Q 39.84375 47.3125 33.9375 31.78125 
Q 28.03125 16.265625 28.03125 2.296875 
Q 28.03125 1.515625 28.078125 0 
z
" id="FranklinGothic-Book-55"/>
      </defs>
      <use xlink:href="#FranklinGothic-Book-69"/>
      <use x="54.785156" xlink:href="#FranklinGothic-Book-82"/>
      <use x="116.064453" xlink:href="#FranklinGothic-Book-65"/>
      <use x="169.628906" xlink:href="#FranklinGothic-Book-53"/>
      <use x="228.271484" xlink:href="#FranklinGothic-Book-32"/>
      <use x="253.271484" xlink:href="#FranklinGothic-Book-40"/>
      <use x="282.617188" xlink:href="#FranklinGothic-Book-49"/>
      <use x="339.884766" xlink:href="#FranklinGothic-Book-57"/>
      <use x="392.777344" xlink:href="#FranklinGothic-Book-55"/>
      <use x="451.419922" xlink:href="#FranklinGothic-Book-57"/>
      <use x="510.0625" xlink:href="#FranklinGothic-Book-45"/>
      <use x="535.0625" xlink:href="#FranklinGothic-Book-50"/>
      <use x="593.705078" xlink:href="#FranklinGothic-Book-48"/>
      <use x="652.347656" xlink:href="#FranklinGothic-Book-50"/>
      <use x="710.990234" xlink:href="#FranklinGothic-Book-51"/>
      <use x="769.632812" xlink:href="#FranklinGothic-Book-41"/>
     </g>
    </g>
   </g>
   <g id="line2d_24">
    <path clip-path="url(#p4c75086862)" d="M 184.581818 351.90072 
L 191.180488 377.19648 
L 197.779157 386.7372 
L 204.377827 422.90424 
L 210.976497 469.2924 
L 217.575166 406.13616 
L 224.173836 410.91408 
L 230.772506 458.73864 
L 237.371175 435.77136 
L 243.969845 443.22552 
L 250.568514 454.48992 
L 257.167184 453.1896 
L 263.765854 409.38696 
L 270.364523 386.84304 
L 276.963193 367.64064 
L 283.561863 344.26512 
L 290.160532 438.79536 
L 296.759202 497.4912 
L 303.357871 455.59368 
L 309.956541 384.40872 
L 316.555211 438.94656 
L 323.15388 458.67816 
L 329.75255 451.25424 
L 336.35122 465.588 
L 342.949889 456.71256 
L 349.548559 425.4444 
L 356.147228 373.85496 
L 362.745898 411.70032 
L 369.344568 404.51832 
L 375.943237 422.58672 
L 382.541907 391.16736 
L 389.140576 416.1456 
L 395.739246 381.49056 
L 402.337916 431.68896 
L 408.936585 440.57952 
L 415.535255 412.22952 
L 422.133925 388.83888 
L 428.732594 391.878 
L 435.331264 410.67216 
L 441.929933 388.89936 
L 448.528603 359.70264 
L 455.127273 353.33712 
L 461.725942 393.79824 
L 468.324612 406.36296 
L 474.923282 361.45656 
L 481.521951 376.95456 
L 488.120621 386.78256 
L 494.71929 401.79672 
L 501.31796 386.91864 
L 507.91663 400.33008 
L 514.515299 404.5032 
L 521.113969 384.71112 
L 527.712639 369.59112 
L 534.311308 351.91584 
L 540.909978 389.18664 
L 547.508647 415.40472 
L 554.107317 447.95808 
L 560.705987 375.97176 
L 567.304656 324.2916 
L 573.903326 359.73288 
L 580.501996 379.34352 
L 587.100665 341.604 
L 593.699335 376.69752 
L 600.298004 339.336 
L 606.896674 396.39888 
L 613.495344 353.95704 
L 620.094013 353.71512 
L 626.692683 355.65048 
L 633.291353 384.19704 
L 639.890022 300.78 
L 646.488692 334.84536 
L 653.087361 408.17736 
L 659.686031 341.16552 
L 666.284701 327.96576 
L 672.88337 392.07456 
L 679.48204 372.6 
L 686.08071 385.86024 
L 692.679379 308.76336 
L 699.278049 331.97256 
L 705.876718 338.44392 
L 712.475388 309.71592 
L 719.074058 330.83856 
L 725.672727 310.44168 
L 732.271397 283.52808 
L 738.870067 349.25472 
L 745.468736 339.42672 
L 752.067406 327.1644 
L 758.666075 268.58952 
L 765.264745 325.89432 
L 771.863415 342.55656 
L 778.462084 307.26648 
L 785.060754 306.81288 
L 791.659424 323.27856 
L 798.258093 307.87128 
L 804.856763 281.88 
L 811.455432 273.29184 
L 818.054102 308.95992 
L 824.652772 252.04824 
L 831.251441 223.94016 
L 837.850111 316.36872 
L 844.44878 331.29216 
L 851.04745 284.40504 
L 857.64612 249.93144 
L 864.244789 251.97264 
L 870.843459 269.4816 
L 877.442129 254.54304 
L 884.040798 258.95808 
L 890.639468 288.29088 
L 897.238137 283.21056 
L 903.836807 246.1212 
L 910.435477 245.68272 
L 917.034146 272.08224 
L 923.632816 238.50072 
L 930.231486 261.02952 
L 936.830155 235.11384 
L 943.428825 175.2084 
L 950.027494 203.4072 
L 956.626164 206.26488 
L 963.224834 249.47784 
L 969.823503 199.12824 
L 976.422173 177.46128 
L 983.020843 227.10024 
L 989.619512 262.11816 
L 996.218182 164.6244 
" style="fill:none;stroke:#009e73;stroke-linecap:round;stroke-width:3;"/>
   </g>
   <g id="line2d_25">
    <path clip-path="url(#p4c75086862)" d="M 184.581818 328.58568 
L 191.180488 352.65672 
L 197.779157 354.21408 
L 204.377827 387.40248 
L 210.976497 425.33856 
L 217.575166 368.47224 
L 224.173836 390.80448 
L 230.772506 430.26768 
L 237.371175 418.51944 
L 243.969845 435.54456 
L 250.568514 448.68384 
L 257.167184 453.97584 
L 263.765854 407.95056 
L 270.364523 395.8848 
L 276.963193 391.8024 
L 283.561863 395.8848 
L 290.160532 483.86808 
L 296.759202 519.7176 
L 303.357871 477.9108 
L 309.956541 407.92032 
L 316.555211 444.31416 
L 323.15388 476.68608 
L 329.75255 472.11984 
L 336.35122 477.85032 
L 342.949889 495.10224 
L 349.548559 438.53832 
L 356.147228 407.79936 
L 362.745898 441.07848 
L 369.344568 434.48616 
L 375.943237 438.38712 
L 382.541907 399.16584 
L 389.140576 413.046 
L 395.739246 373.29552 
L 402.337916 432.4752 
L 408.936585 450.468 
L 415.535255 415.32912 
L 422.133925 398.0772 
L 428.732594 399.45312 
L 435.331264 420.95376 
L 441.929933 394.08552 
L 448.528603 367.05096 
L 455.127273 355.80168 
L 461.725942 400.20912 
L 468.324612 404.4276 
L 474.923282 358.56864 
L 481.521951 366.0228 
L 488.120621 390.2904 
L 494.71929 397.95624 
L 501.31796 383.562 
L 507.91663 408.23784 
L 514.515299 411.71544 
L 521.113969 384.0912 
L 527.712639 377.22672 
L 534.311308 354.456 
L 540.909978 409.17528 
L 547.508647 437.0112 
L 554.107317 466.93368 
L 560.705987 385.01352 
L 567.304656 336.0852 
L 573.903326 374.83776 
L 580.501996 394.00992 
L 587.100665 364.82832 
L 593.699335 400.73832 
L 600.298004 357.97896 
L 606.896674 422.99496 
L 613.495344 371.36016 
L 620.094013 382.83624 
L 626.692683 381.58128 
L 633.291353 406.06056 
L 639.890022 321.0408 
L 646.488692 357.04152 
L 653.087361 424.29528 
L 659.686031 360.08064 
L 666.284701 360.24696 
L 672.88337 417.47616 
L 679.48204 400.67784 
L 686.08071 409.09968 
L 692.679379 332.81928 
L 699.278049 357.75216 
L 705.876718 354.13848 
L 712.475388 321.78168 
L 719.074058 343.32768 
L 725.672727 326.60496 
L 732.271397 297.03024 
L 738.870067 364.8888 
L 745.468736 351.70416 
L 752.067406 332.154 
L 758.666075 279.47592 
L 765.264745 338.94288 
L 771.863415 350.63064 
L 778.462084 319.6044 
L 785.060754 312.15024 
L 791.659424 332.81928 
L 798.258093 314.52408 
L 804.856763 291.20904 
L 811.455432 289.50048 
L 818.054102 319.51368 
L 824.652772 257.92992 
L 831.251441 231.86304 
L 837.850111 326.6352 
L 844.44878 333.39384 
L 851.04745 280.95768 
L 857.64612 253.51488 
L 864.244789 260.01648 
L 870.843459 270.40392 
L 877.442129 255.29904 
L 884.040798 255.32928 
L 890.639468 289.93896 
L 897.238137 280.15632 
L 903.836807 244.2312 
L 910.435477 247.1796 
L 917.034146 271.4472 
L 923.632816 232.9668 
L 930.231486 257.17392 
L 936.830155 220.02408 
L 943.428825 157.88088 
L 950.027494 200.232 
L 956.626164 194.27472 
L 963.224834 236.08152 
L 969.823503 185.5656 
L 976.422173 173.72664 
L 983.020843 223.38072 
L 989.619512 258.05088 
L 996.218182 132.7968 
" style="fill:none;stroke:#56b4e9;stroke-linecap:round;stroke-width:3;"/>
   </g>
   <g id="line2d_26">
    <path clip-path="url(#p4c75086862)" d="M 184.581818 318.07728 
L 191.180488 317.50272 
L 197.779157 322.8552 
L 204.377827 398.2284 
L 210.976497 416.25144 
L 217.575166 372.69072 
L 224.173836 386.84304 
L 230.772506 437.81256 
L 237.371175 424.37088 
L 243.969845 424.28016 
L 250.568514 438.2964 
L 257.167184 433.80576 
L 263.765854 383.09328 
L 270.364523 352.88352 
L 276.963193 340.56072 
L 283.561863 299.96352 
L 290.160532 430.434 
L 296.759202 449.06184 
L 303.357871 392.98176 
L 309.956541 349.20936 
L 316.555211 402.29568 
L 323.15388 429.99552 
L 329.75255 438.79536 
L 336.35122 428.49864 
L 342.949889 443.4372 
L 349.548559 380.16 
L 356.147228 343.50912 
L 362.745898 393.25392 
L 369.344568 394.6752 
L 375.943237 401.35824 
L 382.541907 364.45032 
L 389.140576 374.70168 
L 395.739246 333.48456 
L 402.337916 404.68464 
L 408.936585 419.74416 
L 415.535255 386.99424 
L 422.133925 369.59112 
L 428.732594 357.49512 
L 435.331264 384.71112 
L 441.929933 349.81416 
L 448.528603 320.2848 
L 455.127273 319.72536 
L 461.725942 364.5108 
L 468.324612 374.4144 
L 474.923282 318.13776 
L 481.521951 340.78752 
L 488.120621 362.56032 
L 494.71929 374.53536 
L 501.31796 373.91544 
L 507.91663 393.02712 
L 514.515299 399.2112 
L 521.113969 369.90864 
L 527.712639 355.00032 
L 534.311308 328.374 
L 540.909978 365.35752 
L 547.508647 391.1976 
L 554.107317 425.03616 
L 560.705987 358.47792 
L 567.304656 302.50368 
L 573.903326 339.66864 
L 580.501996 351.46224 
L 587.100665 308.43072 
L 593.699335 340.00128 
L 600.298004 303.24456 
L 606.896674 357.48 
L 613.495344 316.67112 
L 620.094013 321.55488 
L 626.692683 324.68472 
L 633.291353 358.28136 
L 639.890022 277.4952 
L 646.488692 311.16744 
L 653.087361 392.8608 
L 659.686031 331.48872 
L 666.284701 333.0612 
L 672.88337 402.03864 
L 679.48204 379.20744 
L 686.08071 391.21272 
L 692.679379 312.90624 
L 699.278049 336.2364 
L 705.876718 336.03984 
L 712.475388 314.66016 
L 719.074058 336.0852 
L 725.672727 313.04232 
L 732.271397 286.29504 
L 738.870067 353.4732 
L 745.468736 338.06592 
L 752.067406 324.39744 
L 758.666075 270.20736 
L 765.264745 326.77128 
L 771.863415 339.39648 
L 778.462084 310.89528 
L 785.060754 312.21072 
L 791.659424 338.91264 
L 798.258093 318.8484 
L 804.856763 288.9864 
L 811.455432 277.8732 
L 818.054102 314.07048 
L 824.652772 255.9492 
L 831.251441 221.35464 
L 837.850111 315.62784 
L 844.44878 320.19408 
L 851.04745 269.05824 
L 857.64612 239.71032 
L 864.244789 248.14728 
L 870.843459 259.45704 
L 877.442129 246.09096 
L 884.040798 249.9768 
L 890.639468 274.81896 
L 897.238137 271.20528 
L 903.836807 238.57632 
L 910.435477 232.04448 
L 917.034146 265.3992 
L 923.632816 238.90896 
L 930.231486 255.3444 
L 936.830155 239.42304 
L 943.428825 182.07288 
L 950.027494 210.19608 
L 956.626164 218.31552 
L 963.224834 260.95392 
L 969.823503 209.48544 
L 976.422173 202.74192 
L 983.020843 244.3824 
L 989.619512 267.69744 
L 996.218182 176.25168 
" style="fill:none;stroke:#cc79a7;stroke-linecap:round;stroke-width:3;"/>
   </g>
   <g id="line2d_27">
    <path clip-path="url(#p4c75086862)" d="M 184.581818 399.5136 
L 191.180488 383.21424 
L 197.779157 366.0228 
L 204.377827 387.55368 
L 210.976497 442.65096 
L 217.575166 395.26488 
L 224.173836 405.06264 
L 230.772506 439.5816 
L 237.371175 434.30472 
L 243.969845 431.97624 
L 250.568514 448.83504 
L 257.167184 463.90968 
L 263.765854 417.582 
L 270.364523 410.6268 
L 276.963193 389.9124 
L 283.561863 381.43008 
L 290.160532 468.5364 
L 296.759202 545.07384 
L 303.357871 475.73352 
L 309.956541 410.08248 
L 316.555211 459.82728 
L 323.15388 475.23456 
L 329.75255 475.80912 
L 336.35122 473.526 
L 342.949889 493.21224 
L 349.548559 448.18488 
L 356.147228 399.52872 
L 362.745898 454.97376 
L 369.344568 437.1624 
L 375.943237 447.65568 
L 382.541907 402.90048 
L 389.140576 429.66288 
L 395.739246 396.2628 
L 402.337916 432.08208 
L 408.936585 437.19264 
L 415.535255 418.74624 
L 422.133925 399.69504 
L 428.732594 406.60488 
L 435.331264 416.11536 
L 441.929933 391.60584 
L 448.528603 364.32936 
L 455.127273 358.49304 
L 461.725942 408.85776 
L 468.324612 415.81296 
L 474.923282 359.12808 
L 481.521951 373.0536 
L 488.120621 387.38736 
L 494.71929 406.51416 
L 501.31796 393.34464 
L 507.91663 407.6784 
L 514.515299 421.19568 
L 521.113969 402.22008 
L 527.712639 384.33312 
L 534.311308 353.41272 
L 540.909978 403.6716 
L 547.508647 435.0456 
L 554.107317 459.47952 
L 560.705987 383.66784 
L 567.304656 338.94288 
L 573.903326 377.80128 
L 580.501996 394.146 
L 587.100665 359.26416 
L 593.699335 394.26696 
L 600.298004 350.5248 
L 606.896674 408.79728 
L 613.495344 366.52176 
L 620.094013 372.2976 
L 626.692683 373.94568 
L 633.291353 400.95 
L 639.890022 317.97144 
L 646.488692 349.48152 
L 653.087361 414.96624 
L 659.686031 357.46488 
L 666.284701 347.86368 
L 672.88337 412.19928 
L 679.48204 391.62096 
L 686.08071 400.33008 
L 692.679379 333.57528 
L 699.278049 355.69584 
L 705.876718 353.8512 
L 712.475388 322.12944 
L 719.074058 342.75312 
L 725.672727 333.8172 
L 732.271397 298.22472 
L 738.870067 360.0504 
L 745.468736 352.50552 
L 752.067406 331.71552 
L 758.666075 277.37424 
L 765.264745 330.1128 
L 771.863415 349.48152 
L 778.462084 322.03872 
L 785.060754 312.73992 
L 791.659424 332.57736 
L 798.258093 316.30824 
L 804.856763 294.8076 
L 811.455432 289.53072 
L 818.054102 318.03192 
L 824.652772 263.358 
L 831.251441 228.09816 
L 837.850111 321.52464 
L 844.44878 326.75616 
L 851.04745 282.54528 
L 857.64612 250.11288 
L 864.244789 260.45496 
L 870.843459 269.30016 
L 877.442129 254.08944 
L 884.040798 257.4612 
L 890.639468 283.02912 
L 897.238137 282.04632 
L 903.836807 249.56856 
L 910.435477 243.80784 
L 917.034146 273.20112 
L 923.632816 232.5888 
L 930.231486 250.18848 
L 936.830155 220.7952 
L 943.428825 166.86216 
L 950.027494 198.20592 
L 956.626164 197.34408 
L 963.224834 239.19624 
L 969.823503 187.6068 
L 976.422173 173.8476 
L 983.020843 216.27432 
L 989.619512 250.00704 
L 996.218182 146.84328 
" style="fill:none;stroke:#e69f00;stroke-linecap:round;stroke-width:3;"/>
   </g>
   <g id="line2d_28">
    <path clip-path="url(#p4c75086862)" d="M 184.581818 331.82136 
L 191.180488 318.74256 
L 197.779157 327.30048 
L 204.377827 360.06552 
L 210.976497 388.46088 
L 217.575166 354.80376 
L 224.173836 359.38512 
L 230.772506 403.5204 
L 237.371175 387.82584 
L 243.969845 380.74968 
L 250.568514 396.17208 
L 257.167184 410.41512 
L 263.765854 357.97896 
L 270.364523 341.604 
L 276.963193 313.51104 
L 283.561863 293.91552 
L 290.160532 382.32216 
L 296.759202 435.60504 
L 303.357871 401.07096 
L 309.956541 338.71608 
L 316.555211 386.26848 
L 323.15388 421.45272 
L 329.75255 416.3724 
L 336.35122 424.6884 
L 342.949889 411.29208 
L 349.548559 382.54896 
L 356.147228 335.01168 
L 362.745898 378.22464 
L 369.344568 374.58072 
L 375.943237 392.11992 
L 382.541907 357.2532 
L 389.140576 373.70376 
L 395.739246 344.18952 
L 402.337916 397.33632 
L 408.936585 408.87288 
L 415.535255 381.23352 
L 422.133925 353.95704 
L 428.732594 353.94192 
L 435.331264 377.2872 
L 441.929933 358.02432 
L 448.528603 328.752 
L 455.127273 325.18368 
L 461.725942 368.88048 
L 468.324612 382.09536 
L 474.923282 329.97672 
L 481.521951 347.16816 
L 488.120621 365.07024 
L 494.71929 374.06664 
L 501.31796 371.5416 
L 507.91663 389.80656 
L 514.515299 392.49792 
L 521.113969 366.89976 
L 527.712639 353.82096 
L 534.311308 328.93344 
L 540.909978 362.1672 
L 547.508647 387.10008 
L 554.107317 425.2932 
L 560.705987 358.49304 
L 567.304656 301.11264 
L 573.903326 338.5044 
L 580.501996 349.93512 
L 587.100665 310.06368 
L 593.699335 342.39024 
L 600.298004 305.11944 
L 606.896674 361.12392 
L 613.495344 320.3604 
L 620.094013 327.14928 
L 626.692683 329.13 
L 633.291353 359.94456 
L 639.890022 281.00304 
L 646.488692 314.388 
L 653.087361 394.43328 
L 659.686031 332.56224 
L 666.284701 331.5492 
L 672.88337 398.304 
L 679.48204 377.5896 
L 686.08071 392.46768 
L 692.679379 314.75088 
L 699.278049 336.26664 
L 705.876718 335.26872 
L 712.475388 312.60384 
L 719.074058 332.86464 
L 725.672727 310.50216 
L 732.271397 287.71632 
L 738.870067 351.03888 
L 745.468736 336.75048 
L 752.067406 325.36512 
L 758.666075 271.0692 
L 765.264745 328.374 
L 771.863415 340.19784 
L 778.462084 312.28632 
L 785.060754 314.25192 
L 791.659424 337.30992 
L 798.258093 319.02984 
L 804.856763 287.97336 
L 811.455432 276.24024 
L 818.054102 314.56944 
L 824.652772 250.92936 
L 831.251441 223.94016 
L 837.850111 314.14608 
L 844.44878 320.08824 
L 851.04745 268.01496 
L 857.64612 241.52472 
L 864.244789 248.10192 
L 870.843459 258.48936 
L 877.442129 243.94392 
L 884.040798 247.0284 
L 890.639468 271.4472 
L 897.238137 269.58744 
L 903.836807 235.9152 
L 910.435477 230.72904 
L 917.034146 263.82672 
L 923.632816 240.04296 
L 930.231486 258.32304 
L 936.830155 242.12952 
L 943.428825 182.49624 
L 950.027494 215.60904 
L 956.626164 219.10176 
L 963.224834 262.73808 
L 969.823503 217.33272 
L 976.422173 200.74608 
L 983.020843 255.76776 
L 989.619512 274.10832 
L 996.218182 159.80112 
" style="fill:none;stroke:#696969;stroke-linecap:round;stroke-width:3;"/>
   </g>
  </g>
  <g id="text_26">
   <g id="patch_4">
    <path d="M 873.849375 646.18275 
L 1040.76 646.18275 
L 1040.76 628.26525 
L 873.849375 628.26525 
z
" style="fill:#ffffff;stroke:#ffffff;stroke-linejoin:miter;"/>
   </g>
   <!-- Created: 2023-11-02 20:04:56 -->
   <g style="fill:#696969;" transform="translate(877.809375 640.224)scale(0.12 -0.12)">
    <defs>
     <path d="M 17.96875 49.3125 
L 17.96875 38.375 
L 7.078125 38.375 
L 7.078125 49.3125 
z
M 17.96875 10.984375 
L 17.96875 0 
L 7.078125 0 
L 7.078125 10.984375 
z
" id="FranklinGothic-Book-58"/>
    </defs>
    <use xlink:href="#FranklinGothic-Book-67"/>
    <use x="57.910156" xlink:href="#FranklinGothic-Book-114"/>
    <use x="90.869141" xlink:href="#FranklinGothic-Book-101"/>
    <use x="142.919922" xlink:href="#FranklinGothic-Book-97"/>
    <use x="195.800781" xlink:href="#FranklinGothic-Book-116"/>
    <use x="224.8125" xlink:href="#FranklinGothic-Book-101"/>
    <use x="276.863281" xlink:href="#FranklinGothic-Book-100"/>
    <use x="330.720703" xlink:href="#FranklinGothic-Book-58"/>
    <use x="355.720703" xlink:href="#FranklinGothic-Book-32"/>
    <use x="380.720703" xlink:href="#FranklinGothic-Book-50"/>
    <use x="439.363281" xlink:href="#FranklinGothic-Book-48"/>
    <use x="498.005859" xlink:href="#FranklinGothic-Book-50"/>
    <use x="556.648438" xlink:href="#FranklinGothic-Book-51"/>
    <use x="615.291016" xlink:href="#FranklinGothic-Book-45"/>
    <use x="640.291016" xlink:href="#FranklinGothic-Book-49"/>
    <use x="697.183594" xlink:href="#FranklinGothic-Book-49"/>
    <use x="755.826172" xlink:href="#FranklinGothic-Book-45"/>
    <use x="780.826172" xlink:href="#FranklinGothic-Book-48"/>
    <use x="839.46875" xlink:href="#FranklinGothic-Book-50"/>
    <use x="898.111328" xlink:href="#FranklinGothic-Book-32"/>
    <use x="923.111328" xlink:href="#FranklinGothic-Book-50"/>
    <use x="981.753906" xlink:href="#FranklinGothic-Book-48"/>
    <use x="1040.396484" xlink:href="#FranklinGothic-Book-58"/>
    <use x="1065.396484" xlink:href="#FranklinGothic-Book-48"/>
    <use x="1124.039062" xlink:href="#FranklinGothic-Book-52"/>
    <use x="1182.681641" xlink:href="#FranklinGothic-Book-58"/>
    <use x="1207.681641" xlink:href="#FranklinGothic-Book-53"/>
    <use x="1266.324219" xlink:href="#FranklinGothic-Book-54"/>
   </g>
  </g>
 </g>
 <defs>
  <clipPath id="p4c75086862">
   <rect height="498.96" width="892.8" x="144" y="77.76"/>
  </clipPath>
 </defs>
</svg>
