<?xml version="1.0" encoding="utf-8" standalone="no"?>
<!DOCTYPE svg PUBLIC "-//W3C//DTD SVG 1.1//EN"
  "http://www.w3.org/Graphics/SVG/1.1/DTD/svg11.dtd">
<!-- Created with matplotlib (https://matplotlib.org/) -->
<svg height="648pt" version="1.1" viewBox="0 0 1152 648" width="1152pt" xmlns="http://www.w3.org/2000/svg" xmlns:xlink="http://www.w3.org/1999/xlink">
 <metadata>
  <rdf:RDF xmlns:cc="http://creativecommons.org/ns#" xmlns:dc="http://purl.org/dc/elements/1.1/" xmlns:rdf="http://www.w3.org/1999/02/22-rdf-syntax-ns#">
   <cc:Work>
    <dc:type rdf:resource="http://purl.org/dc/dcmitype/StillImage"/>
    <dc:date>2024-01-25T13:01:04.747478</dc:date>
    <dc:format>image/svg+xml</dc:format>
    <dc:creator>
     <cc:Agent>
      <dc:title>Matplotlib v3.3.1, https://matplotlib.org/</dc:title>
     </cc:Agent>
    </dc:creator>
   </cc:Work>
  </rdf:RDF>
 </metadata>
 <defs>
  <style type="text/css">*{stroke-linecap:butt;stroke-linejoin:round;}</style>
 </defs>
 <g id="figure_1">
  <g id="patch_1">
   <path d="M 0 648 
L 1152 648 
L 1152 0 
L 0 0 
z
" style="fill:#ffffff;"/>
  </g>
  <g id="axes_1">
   <g id="patch_2">
    <path d="M 144 576.72 
L 1036.8 576.72 
L 1036.8 77.76 
L 144 77.76 
z
" style="fill:none;"/>
   </g>
   <g id="line2d_1">
    <path clip-path="url(#pb8c79acd31)" d="M 705.876718 416.035473 
L 712.475388 389.074075 
L 719.074058 334.896076 
L 725.672727 402.91506 
L 732.271397 328.185751 
L 738.870067 448.881541 
L 745.468736 417.596712 
L 752.067406 389.764623 
L 758.666075 419.983606 
L 765.264745 309.405846 
L 771.863415 334.175504 
L 778.462084 287.938809 
L 785.060754 322.511247 
L 791.659424 403.350405 
L 798.258093 368.192502 
L 804.856763 338.468912 
L 811.455432 239.375266 
L 818.054102 374.542542 
L 824.652772 308.159857 
L 831.251441 308.985512 
L 837.850111 298.882494 
L 844.44878 326.804654 
L 851.04745 285.687021 
L 857.64612 247.511724 
L 864.244789 262.598697 
L 870.843459 268.168118 
L 877.442129 241.612041 
L 884.040798 270.194726 
L 890.639468 165.786863 
L 897.238137 221.826338 
L 903.836807 279.862399 
L 910.435477 263.529436 
L 917.034146 249.463272 
L 923.632816 282.669627 
L 930.231486 229.137141 
L 936.830155 258.170183 
L 943.428825 164.540874 
L 950.027494 161.133169 
L 956.626164 149.694091 
L 963.224834 210.957712 
L 969.823503 161.61355 
L 976.422173 101.46081 
L 983.020843 189.100365 
L 989.619512 146.151279 
L 996.218182 123.18305 
" style="fill:none;stroke:#0072b2;stroke-linecap:round;stroke-width:3;"/>
   </g>
   <g id="line2d_2">
    <path clip-path="url(#pb8c79acd31)" d="M 567.304656 425.027609 
L 573.903326 397.97614 
L 580.501996 455.937141 
L 587.100665 394.283209 
L 593.699335 370.969706 
L 600.298004 361.061843 
L 606.896674 463.142859 
L 613.495344 421.319666 
L 620.094013 440.71506 
L 626.692683 393.532613 
L 633.291353 443.14699 
L 639.890022 524.346434 
L 646.488692 433.464305 
L 653.087361 398.246354 
L 659.686031 475.948022 
L 666.284701 352.039682 
L 672.88337 471.14421 
L 679.48204 347.521096 
L 686.08071 475.737855 
L 692.679379 414.234043 
L 699.278049 385.336108 
L 705.876718 417.611724 
L 712.475388 389.50942 
L 719.074058 337.027768 
L 725.672727 399.207117 
L 732.271397 332.599253 
L 738.870067 454.225782 
L 745.468736 419.818475 
L 752.067406 392.481779 
L 758.666075 424.081859 
L 765.264745 319.94421 
L 771.863415 330.107276 
L 778.462084 288.178999 
L 785.060754 327.94556 
L 791.659424 402.509738 
L 798.258093 368.402669 
L 804.856763 338.829198 
L 811.455432 238.849849 
L 818.054102 368.627847 
L 824.652772 298.792423 
L 831.251441 298.837458 
L 837.850111 289.845322 
L 844.44878 310.576775 
L 851.04745 278.901636 
L 857.64612 236.703145 
L 864.244789 255.888372 
L 870.843459 264.89552 
L 877.442129 240.861446 
L 884.040798 273.872645 
L 890.639468 174.839047 
L 897.238137 232.199571 
L 903.836807 281.964067 
L 910.435477 265.225782 
L 917.034146 248.50251 
L 923.632816 280.853185 
L 930.231486 225.414186 
L 936.830155 256.518872 
L 943.428825 167.25803 
L 950.027494 169.975187 
L 956.626164 159.331739 
L 963.224834 221.375981 
L 969.823503 171.776616 
L 976.422173 115.346831 
L 983.020843 201.365099 
L 989.619512 153.146831 
L 996.218182 130.058507 
" style="fill:none;stroke:#d55e00;stroke-linecap:round;stroke-width:3;"/>
   </g>
   <g id="patch_3">
    <path d="M 144 576.72 
L 1036.8 576.72 
" style="fill:none;stroke:#d3d3d3;stroke-linecap:square;stroke-linejoin:miter;stroke-width:1.25;"/>
   </g>
   <g id="matplotlib.axis_1">
    <g id="xtick_1">
     <g id="line2d_3">
      <defs>
       <path d="M 0 0 
L 0 6 
" id="md183c747e0" style="stroke:#696969;stroke-width:1.25;"/>
      </defs>
      <g>
       <use style="fill:#696969;stroke:#696969;stroke-width:1.25;" x="184.581818" xlink:href="#md183c747e0" y="576.72"/>
      </g>
     </g>
     <g id="text_1">
      <!-- 1900 -->
      <g style="fill:#696969;" transform="translate(157.765256 601.550938)scale(0.23 -0.23)">
       <defs>
        <path d="M 55.859375 6.203125 
L 55.859375 0 
L 9.1875 0 
L 9.1875 6.203125 
L 29.203125 6.203125 
L 29.203125 57.671875 
Q 20.359375 48.4375 10.84375 43.265625 
L 10.84375 51.65625 
Q 23.96875 58.546875 31.203125 68.015625 
L 37.15625 68.015625 
L 37.15625 6.203125 
z
" id="FranklinGothic-Book-49"/>
        <path d="M 5.71875 12.15625 
L 12.40625 14.59375 
Q 16.546875 5.375 26.375 5.375 
Q 35.890625 5.375 40.703125 13.375 
Q 45.515625 21.390625 45.65625 35.109375 
Q 39.109375 23.09375 25.984375 23.09375 
Q 16.703125 23.09375 10.40625 29.421875 
Q 4.109375 35.75 4.109375 45.0625 
Q 4.109375 54.546875 10.71875 61.28125 
Q 17.328125 68.015625 27.59375 68.015625 
Q 40.140625 68.015625 46.828125 59.203125 
Q 53.515625 50.390625 53.515625 34.96875 
Q 53.515625 18.75 46.4375 8.71875 
Q 39.359375 -1.3125 26.265625 -1.3125 
Q 10.984375 -1.3125 5.71875 12.15625 
z
M 27.828125 29.78125 
Q 34.71875 29.78125 39.375 34.59375 
Q 44.046875 39.40625 44.046875 45.84375 
Q 44.046875 52.09375 39.625 56.578125 
Q 35.203125 61.078125 27.984375 61.078125 
Q 20.65625 61.078125 16.40625 56.46875 
Q 12.15625 51.859375 12.15625 45.21875 
Q 12.15625 38.09375 16.859375 33.9375 
Q 21.578125 29.78125 27.828125 29.78125 
z
" id="FranklinGothic-Book-57"/>
        <path d="M 29.390625 -1.3125 
Q 17.875 -1.3125 10.984375 8.671875 
Q 4.109375 18.65625 4.109375 33.453125 
Q 4.109375 48 10.640625 58 
Q 17.1875 68.015625 29.15625 68.015625 
Q 41.65625 68.015625 48.125 57.5625 
Q 54.59375 47.125 54.59375 33.0625 
Q 54.59375 19.28125 47.953125 8.984375 
Q 41.3125 -1.3125 29.390625 -1.3125 
z
M 29.4375 5.21875 
Q 37.890625 5.21875 41.9375 12.859375 
Q 46 20.515625 46 32.078125 
Q 46 44.734375 41.84375 53.125 
Q 37.703125 61.53125 29.046875 61.53125 
Q 20.703125 61.53125 16.625 53.859375 
Q 12.546875 46.1875 12.546875 33.6875 
Q 12.546875 20.703125 16.84375 12.953125 
Q 21.140625 5.21875 29.4375 5.21875 
z
" id="FranklinGothic-Book-48"/>
       </defs>
       <use xlink:href="#FranklinGothic-Book-49"/>
       <use x="57.267578" xlink:href="#FranklinGothic-Book-57"/>
       <use x="115.910156" xlink:href="#FranklinGothic-Book-48"/>
       <use x="174.552734" xlink:href="#FranklinGothic-Book-48"/>
      </g>
     </g>
    </g>
    <g id="xtick_2">
     <g id="line2d_4">
      <g>
       <use style="fill:#696969;stroke:#696969;stroke-width:1.25;" x="316.555211" xlink:href="#md183c747e0" y="576.72"/>
      </g>
     </g>
     <g id="text_2">
      <!-- 1920 -->
      <g style="fill:#696969;" transform="translate(289.738648 601.550938)scale(0.23 -0.23)">
       <defs>
        <path d="M 52.484375 6.9375 
L 52.484375 0 
L 5.171875 0 
L 5.171875 6.9375 
Q 33.203125 27.9375 38.59375 34.59375 
Q 44 41.265625 44 47.796875 
Q 44 53.90625 39.453125 57.65625 
Q 34.90625 61.421875 29 61.421875 
Q 22.90625 61.421875 18.21875 57.296875 
Q 13.53125 53.171875 12.9375 46.09375 
L 5.171875 48.4375 
Q 10.0625 68.015625 29.109375 68.015625 
Q 39.40625 68.015625 45.84375 62.15625 
Q 52.296875 56.296875 52.296875 47.859375 
Q 52.296875 42.046875 49.234375 36.671875 
Q 46.1875 31.296875 37.6875 23.828125 
Q 29.203125 16.359375 15.71875 6.9375 
z
" id="FranklinGothic-Book-50"/>
       </defs>
       <use xlink:href="#FranklinGothic-Book-49"/>
       <use x="57.267578" xlink:href="#FranklinGothic-Book-57"/>
       <use x="115.910156" xlink:href="#FranklinGothic-Book-50"/>
       <use x="174.552734" xlink:href="#FranklinGothic-Book-48"/>
      </g>
     </g>
    </g>
    <g id="xtick_3">
     <g id="line2d_5">
      <g>
       <use style="fill:#696969;stroke:#696969;stroke-width:1.25;" x="448.528603" xlink:href="#md183c747e0" y="576.72"/>
      </g>
     </g>
     <g id="text_3">
      <!-- 1940 -->
      <g style="fill:#696969;" transform="translate(421.769541 601.550938)scale(0.23 -0.23)">
       <defs>
        <path d="M 44.09375 0 
L 36.03125 0 
L 36.03125 15.875 
L 3.078125 15.875 
L 3.078125 21.484375 
L 33.640625 68.0625 
L 44.09375 68.0625 
L 44.09375 22.46875 
L 54.890625 22.46875 
L 54.890625 15.875 
L 44.09375 15.875 
z
M 36.03125 22.46875 
L 36.03125 54 
Q 36.03125 57.421875 36.1875 61.375 
Q 34.078125 57.515625 32.5625 55.125 
L 11.765625 22.46875 
z
" id="FranklinGothic-Book-52"/>
       </defs>
       <use xlink:href="#FranklinGothic-Book-49"/>
       <use x="57.267578" xlink:href="#FranklinGothic-Book-57"/>
       <use x="115.410156" xlink:href="#FranklinGothic-Book-52"/>
       <use x="174.052734" xlink:href="#FranklinGothic-Book-48"/>
      </g>
     </g>
    </g>
    <g id="xtick_4">
     <g id="line2d_6">
      <g>
       <use style="fill:#696969;stroke:#696969;stroke-width:1.25;" x="580.501996" xlink:href="#md183c747e0" y="576.72"/>
      </g>
     </g>
     <g id="text_4">
      <!-- 1960 -->
      <g style="fill:#696969;" transform="translate(553.685433 601.550938)scale(0.23 -0.23)">
       <defs>
        <path d="M 53.5625 53.03125 
L 46.046875 50.984375 
Q 42.1875 61.140625 31.984375 61.140625 
Q 13.234375 61.140625 12.796875 30.125 
Q 15.765625 37.015625 21.234375 40.328125 
Q 26.703125 43.65625 32.8125 43.65625 
Q 42.09375 43.65625 48.359375 37.1875 
Q 54.640625 30.71875 54.640625 21.6875 
Q 54.640625 12.3125 47.96875 5.5 
Q 41.3125 -1.3125 30.90625 -1.3125 
Q 19.09375 -1.3125 12.078125 7.59375 
Q 5.078125 16.5 5.078125 31.84375 
Q 5.078125 46.828125 11.6875 57.421875 
Q 18.3125 68.015625 32.171875 68.015625 
Q 48.140625 68.015625 53.5625 53.03125 
z
M 30.765625 5.375 
Q 37.84375 5.375 42.359375 10.03125 
Q 46.875 14.703125 46.875 21.234375 
Q 46.875 27.6875 42.453125 32.296875 
Q 38.03125 36.921875 31.5 36.921875 
Q 24.75 36.921875 19.71875 32.078125 
Q 14.703125 27.25 14.703125 20.75 
Q 14.703125 14.75 19.1875 10.0625 
Q 23.6875 5.375 30.765625 5.375 
z
" id="FranklinGothic-Book-54"/>
       </defs>
       <use xlink:href="#FranklinGothic-Book-49"/>
       <use x="57.267578" xlink:href="#FranklinGothic-Book-57"/>
       <use x="115.910156" xlink:href="#FranklinGothic-Book-54"/>
       <use x="174.552734" xlink:href="#FranklinGothic-Book-48"/>
      </g>
     </g>
    </g>
    <g id="xtick_5">
     <g id="line2d_7">
      <g>
       <use style="fill:#696969;stroke:#696969;stroke-width:1.25;" x="712.475388" xlink:href="#md183c747e0" y="576.72"/>
      </g>
     </g>
     <g id="text_5">
      <!-- 1980 -->
      <g style="fill:#696969;" transform="translate(685.658826 601.550938)scale(0.23 -0.23)">
       <defs>
        <path d="M 19.484375 34.578125 
Q 6.84375 40.09375 6.84375 50.59375 
Q 6.84375 58.203125 13.140625 63.109375 
Q 19.4375 68.015625 29.828125 68.015625 
Q 40.09375 68.015625 46.140625 63.296875 
Q 52.203125 58.59375 52.203125 50.984375 
Q 52.203125 40.375 39.265625 35.796875 
Q 49.703125 30.953125 52.359375 26.453125 
Q 55.03125 21.96875 55.03125 17.484375 
Q 55.03125 9.46875 48.21875 4.078125 
Q 41.40625 -1.3125 29.734375 -1.3125 
Q 17.28125 -1.3125 10.4375 4.171875 
Q 3.609375 9.671875 3.609375 17.234375 
Q 3.609375 28.515625 19.484375 34.578125 
z
M 29.59375 38.71875 
Q 37.984375 40.96875 41.453125 43.890625 
Q 44.921875 46.828125 44.921875 51.21875 
Q 44.921875 56.34375 40.796875 59 
Q 36.671875 61.671875 29.9375 61.671875 
Q 23.484375 61.671875 19.375 58.859375 
Q 15.28125 56.0625 15.28125 51.3125 
Q 15.28125 46.625 19.84375 43.203125 
Q 24.421875 39.796875 29.59375 38.71875 
z
M 28.65625 31.0625 
Q 11.765625 27.046875 11.765625 16.9375 
Q 11.765625 11.671875 16.375 8.328125 
Q 21 4.984375 29.984375 4.984375 
Q 37.59375 4.984375 42.234375 8.25 
Q 46.875 11.53125 46.875 16.609375 
Q 46.875 26.3125 28.65625 31.0625 
z
" id="FranklinGothic-Book-56"/>
       </defs>
       <use xlink:href="#FranklinGothic-Book-49"/>
       <use x="57.267578" xlink:href="#FranklinGothic-Book-57"/>
       <use x="115.910156" xlink:href="#FranklinGothic-Book-56"/>
       <use x="174.552734" xlink:href="#FranklinGothic-Book-48"/>
      </g>
     </g>
    </g>
    <g id="xtick_6">
     <g id="line2d_8">
      <g>
       <use style="fill:#696969;stroke:#696969;stroke-width:1.25;" x="844.44878" xlink:href="#md183c747e0" y="576.72"/>
      </g>
     </g>
     <g id="text_6">
      <!-- 2000 -->
      <g style="fill:#696969;" transform="translate(817.474093 601.550938)scale(0.23 -0.23)">
       <use xlink:href="#FranklinGothic-Book-50"/>
       <use x="58.642578" xlink:href="#FranklinGothic-Book-48"/>
       <use x="117.285156" xlink:href="#FranklinGothic-Book-48"/>
       <use x="175.927734" xlink:href="#FranklinGothic-Book-48"/>
      </g>
     </g>
    </g>
    <g id="xtick_7">
     <g id="line2d_9">
      <g>
       <use style="fill:#696969;stroke:#696969;stroke-width:1.25;" x="976.422173" xlink:href="#md183c747e0" y="576.72"/>
      </g>
     </g>
     <g id="text_7">
      <!-- 2020 -->
      <g style="fill:#696969;" transform="translate(949.447485 601.550938)scale(0.23 -0.23)">
       <use xlink:href="#FranklinGothic-Book-50"/>
       <use x="58.642578" xlink:href="#FranklinGothic-Book-48"/>
       <use x="117.285156" xlink:href="#FranklinGothic-Book-50"/>
       <use x="175.927734" xlink:href="#FranklinGothic-Book-48"/>
      </g>
     </g>
    </g>
    <g id="text_8">
     <!-- Year -->
     <g style="fill:#696969;" transform="translate(569.365781 624.712813)scale(0.23 -0.23)">
      <defs>
       <path d="M 52 66.65625 
L 29.6875 28.03125 
L 29.6875 0 
L 21.34375 0 
L 21.34375 28.03125 
L -0.984375 66.65625 
L 8.84375 66.65625 
L 26.5625 35.984375 
L 44.390625 66.65625 
z
" id="FranklinGothic-Book-89"/>
       <path d="M 40.234375 14.703125 
L 47.359375 13.234375 
Q 45.40625 6.9375 39.734375 2.8125 
Q 34.078125 -1.3125 26.421875 -1.3125 
Q 16.3125 -1.3125 10.0625 5.78125 
Q 3.8125 12.890625 3.8125 24.421875 
Q 3.8125 36.1875 10.296875 43.4375 
Q 16.796875 50.6875 26.609375 50.6875 
Q 36.28125 50.6875 42.15625 44 
Q 48.046875 37.3125 48.1875 23.96875 
L 12.359375 23.96875 
Q 12.359375 12.796875 17.046875 8.890625 
Q 21.734375 4.984375 26.953125 4.984375 
Q 36.375 4.984375 40.234375 14.703125 
z
M 39.796875 29.6875 
Q 39.703125 33.84375 38.421875 37.0625 
Q 37.15625 40.28125 34.125 42.546875 
Q 31.109375 44.828125 26.859375 44.828125 
Q 21.140625 44.828125 17.15625 40.71875 
Q 13.1875 36.625 12.703125 29.6875 
z
" id="FranklinGothic-Book-101"/>
       <path d="M 46.296875 0 
L 38.671875 0 
Q 38.234375 2.34375 37.796875 8.890625 
Q 32.71875 -1.3125 20.515625 -1.3125 
Q 12.203125 -1.3125 7.765625 3.078125 
Q 3.328125 7.46875 3.328125 13.625 
Q 3.328125 21.09375 9.671875 25.90625 
Q 16.015625 30.71875 31.25 30.71875 
Q 33.296875 30.71875 37.796875 30.515625 
Q 37.796875 36.375 36.890625 38.984375 
Q 35.984375 41.609375 33.046875 43.171875 
Q 30.125 44.734375 25.34375 44.734375 
Q 13.671875 44.734375 11.765625 35.84375 
L 4.6875 37.0625 
Q 7.28125 50.6875 26.46875 50.6875 
Q 36.671875 50.6875 40.9375 46.171875 
Q 45.21875 41.65625 45.21875 30.515625 
L 45.21875 9.578125 
Q 45.21875 4.34375 46.296875 0 
z
M 37.796875 24.65625 
Q 33.109375 24.953125 30.671875 24.953125 
Q 21.578125 24.953125 16.546875 21.96875 
Q 11.53125 19 11.53125 13.28125 
Q 11.53125 9.671875 14.234375 7.125 
Q 16.9375 4.59375 22.078125 4.59375 
Q 29 4.59375 33.46875 9.625 
Q 37.9375 14.65625 37.9375 21.4375 
Q 37.9375 22.796875 37.796875 24.65625 
z
" id="FranklinGothic-Book-97"/>
       <path d="M 15.328125 0 
L 7.671875 0 
L 7.671875 49.3125 
L 14.40625 49.3125 
L 14.40625 37.796875 
Q 17.96875 45.953125 21.546875 48.359375 
Q 25.140625 50.78125 28.90625 50.78125 
Q 30.078125 50.78125 31.9375 50.59375 
L 31.9375 43.265625 
L 30.375 43.265625 
Q 24.03125 43.265625 19.828125 38.53125 
Q 15.625 33.796875 15.328125 26.078125 
z
" id="FranklinGothic-Book-114"/>
      </defs>
      <use xlink:href="#FranklinGothic-Book-89"/>
      <use x="45.025391" xlink:href="#FranklinGothic-Book-101"/>
      <use x="97.076172" xlink:href="#FranklinGothic-Book-97"/>
      <use x="149.957031" xlink:href="#FranklinGothic-Book-114"/>
     </g>
    </g>
   </g>
   <g id="matplotlib.axis_2">
    <g id="ytick_1">
     <g id="line2d_10">
      <path clip-path="url(#pb8c79acd31)" d="M 144 559.068991 
L 1036.8 559.068991 
" style="fill:none;stroke:#d3d3d3;stroke-linecap:round;stroke-opacity:0.5;"/>
     </g>
     <g id="text_9">
      <!-- −2.0 -->
      <g style="fill:#696969;" transform="translate(88.287969 566.73446)scale(0.23 -0.23)">
       <defs>
        <path d="M 6 36.765625 
L 52.6875 36.765625 
L 52.6875 30.03125 
L 6 30.03125 
z
" id="FranklinGothic-Book-8722"/>
        <path d="M 17.96875 10.9375 
L 17.96875 0 
L 7.078125 0 
L 7.078125 10.9375 
z
" id="FranklinGothic-Book-46"/>
       </defs>
       <use xlink:href="#FranklinGothic-Book-8722"/>
       <use x="58.642578" xlink:href="#FranklinGothic-Book-50"/>
       <use x="117.285156" xlink:href="#FranklinGothic-Book-46"/>
       <use x="142.285156" xlink:href="#FranklinGothic-Book-48"/>
      </g>
     </g>
    </g>
    <g id="ytick_2">
     <g id="line2d_11">
      <path clip-path="url(#pb8c79acd31)" d="M 144 484.00942 
L 1036.8 484.00942 
" style="fill:none;stroke:#d3d3d3;stroke-linecap:round;stroke-opacity:0.5;"/>
     </g>
     <g id="text_10">
      <!-- −1.5 -->
      <g style="fill:#696969;" transform="translate(88.431719 491.674889)scale(0.23 -0.23)">
       <defs>
        <path d="M 48.875 66.65625 
L 48.1875 59.46875 
L 15.4375 59.46875 
L 14.015625 37.84375 
Q 21.4375 45.125 30.328125 45.125 
Q 39.703125 45.125 46.515625 38.625 
Q 53.328125 32.125 53.328125 22.015625 
Q 53.328125 11.765625 45.921875 5.21875 
Q 38.53125 -1.3125 27.828125 -1.3125 
Q 19.4375 -1.3125 12.890625 3.078125 
Q 6.34375 7.46875 4.296875 14.453125 
L 11.421875 16.890625 
Q 15.828125 5.28125 27.9375 5.28125 
Q 35.890625 5.28125 40.578125 9.984375 
Q 45.265625 14.703125 45.265625 22.015625 
Q 45.265625 29.6875 40.625 33.984375 
Q 35.984375 38.28125 29.5 38.28125 
Q 20.015625 38.28125 13.8125 29.203125 
L 7.234375 30.609375 
L 9.375 66.65625 
z
" id="FranklinGothic-Book-53"/>
       </defs>
       <use xlink:href="#FranklinGothic-Book-8722"/>
       <use x="58.642578" xlink:href="#FranklinGothic-Book-49"/>
       <use x="116.660156" xlink:href="#FranklinGothic-Book-46"/>
       <use x="141.660156" xlink:href="#FranklinGothic-Book-53"/>
      </g>
     </g>
    </g>
    <g id="ytick_3">
     <g id="line2d_12">
      <path clip-path="url(#pb8c79acd31)" d="M 144 408.949849 
L 1036.8 408.949849 
" style="fill:none;stroke:#d3d3d3;stroke-linecap:round;stroke-opacity:0.5;"/>
     </g>
     <g id="text_11">
      <!-- −1.0 -->
      <g style="fill:#696969;" transform="translate(88.431719 416.615318)scale(0.23 -0.23)">
       <use xlink:href="#FranklinGothic-Book-8722"/>
       <use x="58.642578" xlink:href="#FranklinGothic-Book-49"/>
       <use x="116.660156" xlink:href="#FranklinGothic-Book-46"/>
       <use x="141.660156" xlink:href="#FranklinGothic-Book-48"/>
      </g>
     </g>
    </g>
    <g id="ytick_4">
     <g id="line2d_13">
      <path clip-path="url(#pb8c79acd31)" d="M 144 333.890278 
L 1036.8 333.890278 
" style="fill:none;stroke:#d3d3d3;stroke-linecap:round;stroke-opacity:0.5;"/>
     </g>
     <g id="text_12">
      <!-- −0.5 -->
      <g style="fill:#696969;" transform="translate(88.287969 341.555747)scale(0.23 -0.23)">
       <use xlink:href="#FranklinGothic-Book-8722"/>
       <use x="58.642578" xlink:href="#FranklinGothic-Book-48"/>
       <use x="117.285156" xlink:href="#FranklinGothic-Book-46"/>
       <use x="142.285156" xlink:href="#FranklinGothic-Book-53"/>
      </g>
     </g>
    </g>
    <g id="ytick_5">
     <g id="line2d_14">
      <path clip-path="url(#pb8c79acd31)" d="M 144 258.830707 
L 1036.8 258.830707 
" style="fill:none;stroke:#d3d3d3;stroke-linecap:round;stroke-opacity:0.5;"/>
     </g>
     <g id="text_13">
      <!-- 0.0 -->
      <g style="fill:#696969;" transform="translate(101.775312 266.496176)scale(0.23 -0.23)">
       <use xlink:href="#FranklinGothic-Book-48"/>
       <use x="58.642578" xlink:href="#FranklinGothic-Book-46"/>
       <use x="83.642578" xlink:href="#FranklinGothic-Book-48"/>
      </g>
     </g>
    </g>
    <g id="ytick_6">
     <g id="line2d_15">
      <path clip-path="url(#pb8c79acd31)" d="M 144 183.771136 
L 1036.8 183.771136 
" style="fill:none;stroke:#d3d3d3;stroke-linecap:round;stroke-opacity:0.5;"/>
     </g>
     <g id="text_14">
      <!-- 0.5 -->
      <g style="fill:#696969;" transform="translate(101.775312 191.436605)scale(0.23 -0.23)">
       <use xlink:href="#FranklinGothic-Book-48"/>
       <use x="58.642578" xlink:href="#FranklinGothic-Book-46"/>
       <use x="83.642578" xlink:href="#FranklinGothic-Book-53"/>
      </g>
     </g>
    </g>
    <g id="ytick_7">
     <g id="line2d_16">
      <path clip-path="url(#pb8c79acd31)" d="M 144 108.711565 
L 1036.8 108.711565 
" style="fill:none;stroke:#d3d3d3;stroke-linecap:round;stroke-opacity:0.5;"/>
     </g>
     <g id="text_15">
      <!-- 1.0 -->
      <g style="fill:#696969;" transform="translate(101.919062 116.377033)scale(0.23 -0.23)">
       <use xlink:href="#FranklinGothic-Book-49"/>
       <use x="58.017578" xlink:href="#FranklinGothic-Book-46"/>
       <use x="83.017578" xlink:href="#FranklinGothic-Book-48"/>
      </g>
     </g>
    </g>
    <g id="text_16">
     <!-- $\!^\circ\!$C -->
     <g style="fill:#696969;" transform="translate(74.457031 338.855)rotate(-90)scale(0.23 -0.23)">
      <defs>
       <path d="M 31.296875 40.671875 
Q 27.390625 40.671875 24.703125 37.953125 
Q 22.015625 35.25 22.015625 31.34375 
Q 22.015625 27.484375 24.703125 24.828125 
Q 27.390625 22.171875 31.296875 22.171875 
Q 35.203125 22.171875 37.890625 24.828125 
Q 40.578125 27.484375 40.578125 31.34375 
Q 40.578125 35.203125 37.859375 37.9375 
Q 35.15625 40.671875 31.296875 40.671875 
z
M 31.296875 46.96875 
Q 34.421875 46.96875 37.296875 45.765625 
Q 40.1875 44.578125 42.28125 42.328125 
Q 44.53125 40.140625 45.65625 37.34375 
Q 46.78125 34.5625 46.78125 31.34375 
Q 46.78125 24.90625 42.265625 20.4375 
Q 37.75 15.96875 31.203125 15.96875 
Q 24.609375 15.96875 20.21875 20.359375 
Q 15.828125 24.75 15.828125 31.34375 
Q 15.828125 37.890625 20.3125 42.421875 
Q 24.8125 46.96875 31.296875 46.96875 
z
" id="DejaVuSans-8728"/>
       <path d="M 48.296875 22.40625 
L 55.90625 20.703125 
Q 50.4375 -1.3125 31.203125 -1.3125 
Q 18.5625 -1.3125 11.359375 8.890625 
Q 4.15625 19.09375 4.15625 33.984375 
Q 4.15625 49.359375 11.671875 58.6875 
Q 19.1875 68.015625 31.84375 68.015625 
Q 50.59375 68.015625 55.90625 46.578125 
L 48.046875 45.015625 
Q 43.75 60.9375 31.78125 60.9375 
Q 22.953125 60.9375 18.09375 53.53125 
Q 13.234375 46.140625 13.234375 32.765625 
Q 13.234375 20.515625 18.203125 13.109375 
Q 23.1875 5.71875 31.390625 5.71875 
Q 44.140625 5.71875 48.296875 22.40625 
z
" id="FranklinGothic-Book-67"/>
      </defs>
      <use transform="translate(-1.64095 39.121875)scale(0.7)" xlink:href="#DejaVuSans-8728"/>
      <use transform="translate(42.313804 0.840625)" xlink:href="#FranklinGothic-Book-67"/>
     </g>
    </g>
   </g>
   <g id="text_17">
    <!-- Compared to 1991-2020 average -->
    <g style="fill:#696969;" transform="translate(144 75.2652)scale(0.3 -0.3)">
     <defs>
      <path d="M 25.34375 -1.3125 
Q 15.1875 -1.3125 9.5 6.203125 
Q 3.8125 13.71875 3.8125 24.859375 
Q 3.8125 36.625 10.203125 43.65625 
Q 16.609375 50.6875 26.125 50.6875 
Q 36.328125 50.6875 42.203125 43.28125 
Q 48.09375 35.890625 48.09375 24.8125 
Q 48.09375 13.28125 41.75 5.984375 
Q 35.40625 -1.3125 25.34375 -1.3125 
z
M 25.921875 4.984375 
Q 31.78125 4.984375 35.734375 9.8125 
Q 39.703125 14.65625 39.703125 24.859375 
Q 39.703125 35.109375 35.546875 39.71875 
Q 31.390625 44.34375 25.828125 44.34375 
Q 20.125 44.34375 16.15625 39.671875 
Q 12.203125 35.015625 12.203125 24.90625 
Q 12.203125 14.203125 16.15625 9.59375 
Q 20.125 4.984375 25.921875 4.984375 
z
" id="FranklinGothic-Book-111"/>
      <path d="M 73.734375 0 
L 66.265625 0 
L 66.265625 30.671875 
Q 66.265625 35.40625 65.59375 37.765625 
Q 64.9375 40.140625 62.390625 42.109375 
Q 59.859375 44.09375 56.6875 44.09375 
Q 52.296875 44.09375 48.21875 40.0625 
Q 44.140625 36.03125 44.140625 27.78125 
L 44.140625 0 
L 36.71875 0 
L 36.71875 32.46875 
Q 36.71875 38.96875 33.609375 41.65625 
Q 30.515625 44.34375 27.09375 44.34375 
Q 22.21875 44.34375 18.59375 40.140625 
Q 14.984375 35.9375 14.984375 29.5 
L 14.984375 0 
L 7.671875 0 
L 7.671875 49.3125 
L 14.265625 49.3125 
L 14.265625 39.84375 
Q 19.78125 50.6875 29.4375 50.6875 
Q 34.765625 50.6875 38.46875 47.21875 
Q 42.1875 43.75 43.265625 38.875 
Q 48.34375 50.6875 58.84375 50.6875 
Q 63.875 50.6875 67.65625 47.796875 
Q 71.4375 44.921875 72.578125 41.1875 
Q 73.734375 37.453125 73.734375 30.671875 
z
" id="FranklinGothic-Book-109"/>
      <path d="M 15.328125 -16.65625 
L 7.671875 -16.65625 
L 7.671875 49.3125 
L 14.546875 49.3125 
L 14.546875 39.75 
Q 19.78125 50.6875 30.125 50.6875 
Q 38.875 50.6875 44.234375 43.375 
Q 49.609375 36.078125 49.609375 24.90625 
Q 49.609375 12.84375 44.09375 5.765625 
Q 38.578125 -1.3125 29.9375 -1.3125 
Q 20.65625 -1.3125 15.328125 7.515625 
z
M 15.328125 31.78125 
L 15.328125 17.921875 
Q 16.0625 12.3125 20.0625 8.640625 
Q 24.078125 4.984375 28.421875 4.984375 
Q 33.453125 4.984375 37.328125 9.375 
Q 41.21875 13.765625 41.21875 24.5625 
Q 41.21875 33.890625 37.703125 38.9375 
Q 34.1875 44 28.375 44 
Q 23.78125 44 20.140625 40.421875 
Q 16.5 36.859375 15.328125 31.78125 
z
" id="FranklinGothic-Book-112"/>
      <path d="M 46.1875 66.65625 
L 46.1875 0 
L 39.203125 0 
L 39.203125 8.453125 
Q 34.03125 -1.3125 23.640625 -1.3125 
Q 14.984375 -1.3125 9.421875 5.9375 
Q 3.859375 13.1875 3.859375 24.265625 
Q 3.859375 35.59375 9.375 43.140625 
Q 14.890625 50.6875 24.03125 50.6875 
Q 32.90625 50.6875 38.53125 42.578125 
L 38.53125 66.65625 
z
M 38.53125 30.28125 
Q 38.53125 36.765625 34.5625 40.671875 
Q 30.609375 44.578125 25.34375 44.578125 
Q 19.625 44.578125 15.9375 39.5 
Q 12.25 34.421875 12.25 25.25 
Q 12.25 15.328125 15.640625 10.15625 
Q 19.046875 4.984375 24.953125 4.984375 
Q 30.328125 4.984375 34.421875 9.46875 
Q 38.53125 13.96875 38.53125 20.015625 
z
" id="FranklinGothic-Book-100"/>
      <path id="FranklinGothic-Book-32"/>
      <path d="M 30.03125 5.28125 
L 30.03125 -0.78125 
Q 25.984375 -1.3125 23 -1.3125 
Q 8.6875 -1.3125 8.6875 13.625 
L 8.6875 43.3125 
L -0.046875 43.3125 
L -0.046875 49.3125 
L 8.6875 49.3125 
L 9.03125 61.71875 
L 16.15625 62.40625 
L 16.15625 49.3125 
L 27.203125 49.3125 
L 27.203125 43.3125 
L 16.15625 43.3125 
L 16.15625 12.359375 
Q 16.15625 4.734375 24.078125 4.734375 
Q 26.703125 4.734375 30.03125 5.28125 
z
" id="FranklinGothic-Book-116"/>
      <path d="M 23.53125 27.984375 
L 23.53125 22.015625 
L 1.46875 22.015625 
L 1.46875 27.984375 
z
" id="FranklinGothic-Book-45"/>
      <path d="M 43.796875 49.3125 
L 26.765625 0 
L 18.796875 0 
L 1.171875 49.3125 
L 9.671875 49.3125 
L 23.390625 9.234375 
L 36.96875 49.3125 
z
" id="FranklinGothic-Book-118"/>
      <path d="M 47.953125 57.03125 
L 47.953125 50.921875 
Q 42.671875 50.921875 40.890625 49.703125 
Q 39.109375 48.484375 38.53125 45.3125 
Q 43.265625 39.84375 43.265625 33.40625 
Q 43.265625 26.65625 38.109375 21.828125 
Q 32.953125 17 24.265625 17 
Q 22.3125 17 20.90625 17.28125 
Q 18.21875 17.828125 17.53125 17.828125 
Q 16.21875 17.828125 14.359375 16.53125 
Q 12.5 15.234375 12.5 13.1875 
Q 12.5 10.25 15.1875 9.375 
Q 17.875 8.5 27.828125 8.25 
Q 36.28125 8.015625 40.3125 7.109375 
Q 44.34375 6.203125 47.125 3.09375 
Q 49.90625 0 49.90625 -4.5 
Q 49.90625 -18.609375 25.09375 -18.609375 
Q 13.328125 -18.609375 7.9375 -15.0625 
Q 2.546875 -11.53125 2.546875 -5.609375 
Q 2.546875 1.5625 10.0625 4.25 
Q 5.21875 7.421875 5.21875 12.203125 
Q 5.21875 17.921875 12.0625 20.953125 
Q 5.671875 26.125 5.671875 33.984375 
Q 5.671875 41.3125 11.140625 46 
Q 16.609375 50.6875 24.46875 50.6875 
Q 30.03125 50.6875 34.578125 48.578125 
Q 35.296875 53.421875 37.953125 55.265625 
Q 40.625 57.125 46.046875 57.125 
Q 46.578125 57.125 47.953125 57.03125 
z
M 24.515625 22.859375 
Q 29.390625 22.859375 32.46875 25.859375 
Q 35.546875 28.859375 35.546875 33.640625 
Q 35.546875 38.53125 32.34375 41.625 
Q 29.15625 44.734375 24.609375 44.734375 
Q 20.265625 44.734375 16.890625 41.828125 
Q 13.53125 38.921875 13.53125 33.546875 
Q 13.53125 28.765625 16.546875 25.8125 
Q 19.578125 22.859375 24.515625 22.859375 
z
M 15.328125 2 
Q 9.96875 -0.34375 9.96875 -4.78125 
Q 9.96875 -8.546875 14.375 -10.625 
Q 18.796875 -12.703125 25.640625 -12.703125 
Q 31.984375 -12.703125 37.25 -10.90625 
Q 42.53125 -9.125 42.53125 -4.890625 
Q 42.53125 -2.59375 40.96875 -1.125 
Q 39.40625 0.34375 36.6875 0.734375 
Q 33.984375 1.125 27.25 1.3125 
Q 19.1875 1.515625 15.328125 2 
z
" id="FranklinGothic-Book-103"/>
     </defs>
     <use xlink:href="#FranklinGothic-Book-67"/>
     <use x="57.910156" xlink:href="#FranklinGothic-Book-111"/>
     <use x="109.863281" xlink:href="#FranklinGothic-Book-109"/>
     <use x="190.384766" xlink:href="#FranklinGothic-Book-112"/>
     <use x="243.802734" xlink:href="#FranklinGothic-Book-97"/>
     <use x="296.683594" xlink:href="#FranklinGothic-Book-114"/>
     <use x="329.642578" xlink:href="#FranklinGothic-Book-101"/>
     <use x="381.693359" xlink:href="#FranklinGothic-Book-100"/>
     <use x="435.550781" xlink:href="#FranklinGothic-Book-32"/>
     <use x="460.550781" xlink:href="#FranklinGothic-Book-116"/>
     <use x="489.8125" xlink:href="#FranklinGothic-Book-111"/>
     <use x="541.765625" xlink:href="#FranklinGothic-Book-32"/>
     <use x="566.765625" xlink:href="#FranklinGothic-Book-49"/>
     <use x="624.033203" xlink:href="#FranklinGothic-Book-57"/>
     <use x="682.675781" xlink:href="#FranklinGothic-Book-57"/>
     <use x="737.193359" xlink:href="#FranklinGothic-Book-49"/>
     <use x="795.835938" xlink:href="#FranklinGothic-Book-45"/>
     <use x="820.835938" xlink:href="#FranklinGothic-Book-50"/>
     <use x="879.478516" xlink:href="#FranklinGothic-Book-48"/>
     <use x="938.121094" xlink:href="#FranklinGothic-Book-50"/>
     <use x="996.763672" xlink:href="#FranklinGothic-Book-48"/>
     <use x="1055.40625" xlink:href="#FranklinGothic-Book-32"/>
     <use x="1080.40625" xlink:href="#FranklinGothic-Book-97"/>
     <use x="1131.037109" xlink:href="#FranklinGothic-Book-118"/>
     <use x="1174.556641" xlink:href="#FranklinGothic-Book-101"/>
     <use x="1226.607422" xlink:href="#FranklinGothic-Book-114"/>
     <use x="1259.566406" xlink:href="#FranklinGothic-Book-97"/>
     <use x="1312.447266" xlink:href="#FranklinGothic-Book-103"/>
     <use x="1361.568359" xlink:href="#FranklinGothic-Book-101"/>
    </g>
   </g>
   <g id="text_18">
    <!-- WMO RA II Asia annual temperature -->
    <g style="fill:#696969;" transform="translate(144 42.76)scale(0.4 -0.4)">
     <defs>
      <path d="M 79.828125 66.65625 
L 63.765625 0 
L 55.421875 0 
L 40.875 51.703125 
L 27.34375 0 
L 18.796875 0 
L 1.90625 66.65625 
L 10.546875 66.65625 
L 23.875 12.640625 
L 38.03125 66.65625 
L 44.78125 66.65625 
L 60.0625 12.640625 
L 72.515625 66.65625 
z
" id="FranklinGothic-Book-87"/>
      <path d="M 72.703125 0 
L 64.59375 0 
L 64.59375 58.203125 
L 42.921875 0 
L 37.25 0 
L 15.4375 58.203125 
L 15.4375 0 
L 8.34375 0 
L 8.34375 66.65625 
L 20.75 66.65625 
L 40.828125 13.328125 
L 60.5 66.65625 
L 72.703125 66.65625 
z
" id="FranklinGothic-Book-77"/>
      <path d="M 31.34375 -1.3125 
Q 18.5 -1.3125 11.328125 8.671875 
Q 4.15625 18.65625 4.15625 33.15625 
Q 4.15625 48.296875 11.671875 58.15625 
Q 19.1875 68.015625 31.59375 68.015625 
Q 43.953125 68.015625 51.421875 58.328125 
Q 58.890625 48.640625 58.890625 33.890625 
Q 58.890625 19.734375 51.640625 9.203125 
Q 44.390625 -1.3125 31.34375 -1.3125 
z
M 31.546875 5.46875 
Q 40.28125 5.46875 45.203125 13.421875 
Q 50.140625 21.390625 50.140625 33.9375 
Q 50.140625 46.828125 45.03125 54 
Q 39.9375 61.1875 31.5 61.1875 
Q 22.953125 61.1875 17.921875 53.421875 
Q 12.890625 45.65625 12.890625 33.109375 
Q 12.890625 20.84375 17.96875 13.15625 
Q 23.046875 5.46875 31.546875 5.46875 
z
" id="FranklinGothic-Book-79"/>
      <path d="M 56.296875 0 
L 47.5625 0 
L 35.25 28.859375 
L 16.15625 28.859375 
L 16.15625 0 
L 8.34375 0 
L 8.34375 66.65625 
L 34.625 66.65625 
Q 45.3125 66.65625 50.453125 60.8125 
Q 55.609375 54.984375 55.609375 48.046875 
Q 55.609375 42.71875 52.734375 37.828125 
Q 49.859375 32.953125 43.21875 30.859375 
z
M 16.15625 35.640625 
L 33.59375 35.640625 
Q 40.484375 35.640625 43.875 39.28125 
Q 47.265625 42.921875 47.265625 48.1875 
Q 47.265625 53.46875 43.671875 56.390625 
Q 40.09375 59.328125 34.625 59.328125 
L 16.15625 59.328125 
z
" id="FranklinGothic-Book-82"/>
      <path d="M 53.21875 0 
L 44.671875 0 
L 37.9375 19.484375 
L 13.28125 19.484375 
L 7.328125 0 
L 0.34375 0 
L 21.96875 66.65625 
L 31.5 66.65625 
z
M 36.1875 25.734375 
L 25.921875 57.765625 
L 15.578125 25.734375 
z
" id="FranklinGothic-Book-65"/>
      <path d="M 16.703125 0 
L 8.34375 0 
L 8.34375 66.65625 
L 16.703125 66.65625 
z
" id="FranklinGothic-Book-73"/>
      <path d="M 1.03125 12.796875 
L 8.34375 14.3125 
Q 10.796875 4.984375 23.78125 4.984375 
Q 28.5625 4.984375 31.875 7.125 
Q 35.203125 9.28125 35.203125 13.1875 
Q 35.203125 19 26.765625 20.5625 
L 16.359375 22.515625 
Q 10.25 23.6875 6.640625 27.09375 
Q 3.03125 30.515625 3.03125 36.140625 
Q 3.03125 42.328125 7.953125 46.5 
Q 12.890625 50.6875 21.234375 50.6875 
Q 37.3125 50.6875 41.0625 38.140625 
L 34.03125 36.625 
Q 31 44.34375 21.578125 44.34375 
Q 16.890625 44.34375 13.890625 42.40625 
Q 10.890625 40.484375 10.890625 37.015625 
Q 10.890625 31.546875 18.5625 30.125 
L 28.171875 28.421875 
Q 43.265625 25.6875 43.265625 13.8125 
Q 43.265625 7.03125 37.640625 2.859375 
Q 32.03125 -1.3125 22.703125 -1.3125 
Q 5.171875 -1.3125 1.03125 12.796875 
z
" id="FranklinGothic-Book-115"/>
      <path d="M 15.578125 66.65625 
L 15.578125 58.15625 
L 7.328125 58.15625 
L 7.328125 66.65625 
z
M 15.328125 49.3125 
L 15.328125 0 
L 7.671875 0 
L 7.671875 49.3125 
z
" id="FranklinGothic-Book-105"/>
      <path d="M 46.53125 0 
L 39.359375 0 
L 39.359375 31.6875 
Q 39.359375 38.53125 36.375 41.3125 
Q 33.40625 44.09375 29.15625 44.09375 
Q 23.296875 44.09375 19.3125 39.40625 
Q 15.328125 34.71875 15.328125 27.046875 
L 15.328125 0 
L 7.671875 0 
L 7.671875 49.3125 
L 14.796875 49.3125 
L 14.796875 40.234375 
Q 20.796875 50.6875 30.375 50.6875 
Q 35.890625 50.6875 39.765625 47.828125 
Q 43.65625 44.96875 45.09375 41.40625 
Q 46.53125 37.84375 46.53125 28.515625 
z
" id="FranklinGothic-Book-110"/>
      <path d="M 46.484375 0 
L 39.59375 0 
L 39.59375 9.421875 
Q 34.328125 -1.3125 23.875 -1.3125 
Q 16.3125 -1.3125 11.984375 3.65625 
Q 7.671875 8.640625 7.671875 17.828125 
L 7.671875 49.3125 
L 15.328125 49.3125 
L 15.328125 17.828125 
Q 15.328125 10.5 18.375 7.734375 
Q 21.4375 4.984375 25.09375 4.984375 
Q 28.8125 4.984375 31.8125 7.078125 
Q 34.8125 9.1875 36.8125 13.0625 
Q 38.8125 16.9375 38.8125 21.53125 
L 38.8125 49.3125 
L 46.484375 49.3125 
z
" id="FranklinGothic-Book-117"/>
      <path d="M 15.328125 0 
L 7.671875 0 
L 7.671875 66.65625 
L 15.328125 66.65625 
z
" id="FranklinGothic-Book-108"/>
     </defs>
     <use xlink:href="#FranklinGothic-Book-87"/>
     <use x="81.738281" xlink:href="#FranklinGothic-Book-77"/>
     <use x="162.744141" xlink:href="#FranklinGothic-Book-79"/>
     <use x="225.830078" xlink:href="#FranklinGothic-Book-32"/>
     <use x="250.830078" xlink:href="#FranklinGothic-Book-82"/>
     <use x="312.109375" xlink:href="#FranklinGothic-Book-65"/>
     <use x="365.673828" xlink:href="#FranklinGothic-Book-32"/>
     <use x="390.673828" xlink:href="#FranklinGothic-Book-73"/>
     <use x="415.673828" xlink:href="#FranklinGothic-Book-73"/>
     <use x="440.673828" xlink:href="#FranklinGothic-Book-32"/>
     <use x="465.673828" xlink:href="#FranklinGothic-Book-65"/>
     <use x="519.238281" xlink:href="#FranklinGothic-Book-115"/>
     <use x="565.625" xlink:href="#FranklinGothic-Book-105"/>
     <use x="588.574219" xlink:href="#FranklinGothic-Book-97"/>
     <use x="641.455078" xlink:href="#FranklinGothic-Book-32"/>
     <use x="666.455078" xlink:href="#FranklinGothic-Book-97"/>
     <use x="719.335938" xlink:href="#FranklinGothic-Book-110"/>
     <use x="773.535156" xlink:href="#FranklinGothic-Book-110"/>
     <use x="827.734375" xlink:href="#FranklinGothic-Book-117"/>
     <use x="881.884766" xlink:href="#FranklinGothic-Book-97"/>
     <use x="934.765625" xlink:href="#FranklinGothic-Book-108"/>
     <use x="957.763672" xlink:href="#FranklinGothic-Book-32"/>
     <use x="982.763672" xlink:href="#FranklinGothic-Book-116"/>
     <use x="1011.775391" xlink:href="#FranklinGothic-Book-101"/>
     <use x="1063.826172" xlink:href="#FranklinGothic-Book-109"/>
     <use x="1144.347656" xlink:href="#FranklinGothic-Book-112"/>
     <use x="1197.765625" xlink:href="#FranklinGothic-Book-101"/>
     <use x="1249.816406" xlink:href="#FranklinGothic-Book-114"/>
     <use x="1282.775391" xlink:href="#FranklinGothic-Book-97"/>
     <use x="1335.65625" xlink:href="#FranklinGothic-Book-116"/>
     <use x="1366.417969" xlink:href="#FranklinGothic-Book-117"/>
     <use x="1420.568359" xlink:href="#FranklinGothic-Book-114"/>
     <use x="1453.527344" xlink:href="#FranklinGothic-Book-101"/>
    </g>
   </g>
   <g id="legend_1">
    <g id="line2d_17"/>
    <g id="text_19">
     <!-- HadCRUT5 (1900-2023) -->
     <g style="fill:#696969;" transform="translate(185.856 129.7184)scale(0.2 -0.2)">
      <defs>
       <path d="M 55.953125 0 
L 47.609375 0 
L 47.609375 31.734375 
L 16.703125 31.734375 
L 16.703125 0 
L 8.34375 0 
L 8.34375 66.65625 
L 16.703125 66.65625 
L 16.703125 39.0625 
L 47.609375 39.0625 
L 47.609375 66.65625 
L 55.953125 66.65625 
z
" id="FranklinGothic-Book-72"/>
       <path d="M 46.34375 66.65625 
L 53.265625 66.65625 
L 53.265625 23.140625 
Q 53.265625 10.0625 46.84375 4.375 
Q 40.4375 -1.3125 30.03125 -1.3125 
Q 18.453125 -1.3125 12.890625 4.546875 
Q 7.328125 10.40625 7.328125 23.140625 
L 7.328125 66.65625 
L 15.671875 66.65625 
L 15.671875 23.140625 
Q 15.671875 15.375 17.46875 12.203125 
Q 19.28125 9.03125 22.9375 7.515625 
Q 26.609375 6 30.609375 6 
Q 38.328125 6 42.328125 10.046875 
Q 46.34375 14.109375 46.34375 23.140625 
z
" id="FranklinGothic-Book-85"/>
       <path d="M 28.421875 0 
L 20.125 0 
L 20.125 59.328125 
L 1.03125 59.328125 
L 1.03125 66.65625 
L 47.5625 66.65625 
L 47.5625 59.328125 
L 28.421875 59.328125 
z
" id="FranklinGothic-Book-84"/>
       <path d="M 24.703125 -16.65625 
L 19.578125 -16.65625 
Q 5.21875 2.203125 5.21875 25.09375 
Q 5.21875 46.96875 19.578125 66.65625 
L 24.703125 66.65625 
Q 12.359375 48.25 12.359375 25 
Q 12.359375 2.828125 24.703125 -16.65625 
z
" id="FranklinGothic-Book-40"/>
       <path d="M 19.34375 31.34375 
L 19.34375 37.984375 
L 26.953125 37.984375 
Q 35.296875 37.984375 38.890625 41.40625 
Q 42.484375 44.828125 42.484375 49.703125 
Q 42.484375 55.078125 38.46875 58.21875 
Q 34.46875 61.375 28.421875 61.375 
Q 17.1875 61.375 12.890625 50.53125 
L 5.375 52.6875 
Q 11.8125 68.015625 29.203125 68.015625 
Q 38.96875 68.015625 44.96875 62.8125 
Q 50.984375 57.625 50.984375 50.296875 
Q 50.984375 44.625 47.359375 40.40625 
Q 43.75 36.1875 38.09375 35.109375 
Q 44.4375 34.1875 49 29.78125 
Q 53.5625 25.390625 53.5625 18.40625 
Q 53.5625 10.0625 46.765625 4.375 
Q 39.984375 -1.3125 28.171875 -1.3125 
Q 18.796875 -1.3125 12.125 3.125 
Q 5.46875 7.5625 2.9375 14.9375 
L 10.6875 17.53125 
Q 14.203125 5.46875 28.03125 5.46875 
Q 37.015625 5.46875 40.9375 9.296875 
Q 44.875 13.140625 44.875 18.453125 
Q 44.875 24.21875 40.15625 27.78125 
Q 35.453125 31.34375 26.953125 31.34375 
z
" id="FranklinGothic-Book-51"/>
       <path d="M 4.640625 66.65625 
L 9.71875 66.65625 
Q 24.125 47.796875 24.125 24.90625 
Q 24.125 3.03125 9.71875 -16.65625 
L 4.640625 -16.65625 
Q 17 1.765625 17 25 
Q 17 47.171875 4.640625 66.65625 
z
" id="FranklinGothic-Book-41"/>
      </defs>
      <use xlink:href="#FranklinGothic-Book-72"/>
      <use x="64.257812" xlink:href="#FranklinGothic-Book-97"/>
      <use x="117.138672" xlink:href="#FranklinGothic-Book-100"/>
      <use x="170.996094" xlink:href="#FranklinGothic-Book-67"/>
      <use x="228.90625" xlink:href="#FranklinGothic-Book-82"/>
      <use x="289.310547" xlink:href="#FranklinGothic-Book-85"/>
      <use x="349.90625" xlink:href="#FranklinGothic-Book-84"/>
      <use x="398.441406" xlink:href="#FranklinGothic-Book-53"/>
      <use x="457.083984" xlink:href="#FranklinGothic-Book-32"/>
      <use x="482.083984" xlink:href="#FranklinGothic-Book-40"/>
      <use x="511.429688" xlink:href="#FranklinGothic-Book-49"/>
      <use x="568.697266" xlink:href="#FranklinGothic-Book-57"/>
      <use x="627.339844" xlink:href="#FranklinGothic-Book-48"/>
      <use x="685.982422" xlink:href="#FranklinGothic-Book-48"/>
      <use x="744.625" xlink:href="#FranklinGothic-Book-45"/>
      <use x="769.625" xlink:href="#FranklinGothic-Book-50"/>
      <use x="828.267578" xlink:href="#FranklinGothic-Book-48"/>
      <use x="886.910156" xlink:href="#FranklinGothic-Book-50"/>
      <use x="945.552734" xlink:href="#FranklinGothic-Book-51"/>
      <use x="1004.195312" xlink:href="#FranklinGothic-Book-41"/>
     </g>
    </g>
    <g id="line2d_18"/>
    <g id="text_20">
     <!-- NOAAGlobalTemp (1900-2023) -->
     <g style="fill:#e69f00;" transform="translate(185.856 157.04965)scale(0.2 -0.2)">
      <defs>
       <path d="M 57.421875 0 
L 49.3125 0 
L 14.84375 58.109375 
L 14.9375 53.71875 
Q 15.09375 51.21875 15.09375 49.515625 
L 15.09375 0 
L 8.34375 0 
L 8.34375 66.65625 
L 18.796875 66.65625 
L 51.03125 12.3125 
L 50.921875 16.9375 
Q 50.828125 19.671875 50.828125 21.78125 
L 50.828125 66.65625 
L 57.421875 66.65625 
z
" id="FranklinGothic-Book-78"/>
       <path d="M 57.71875 33.59375 
L 57.71875 -0.875 
L 52.59375 -0.875 
L 50.296875 7.46875 
Q 44.140625 -1.3125 31.984375 -1.3125 
Q 18.796875 -1.3125 11.46875 8.59375 
Q 4.15625 18.5 4.15625 32.671875 
Q 4.15625 47.796875 11.90625 57.90625 
Q 19.671875 68.015625 33.015625 68.015625 
Q 51.421875 68.015625 57.03125 48.6875 
L 49.125 46.78125 
Q 47.40625 54.203125 42.71875 57.5625 
Q 38.03125 60.9375 32.46875 60.9375 
Q 22.609375 60.9375 17.921875 52.96875 
Q 13.234375 45.015625 13.234375 33.015625 
Q 13.234375 20.0625 18.484375 12.765625 
Q 23.734375 5.46875 32.765625 5.46875 
Q 39.796875 5.46875 44.5 10.125 
Q 49.21875 14.796875 49.21875 23 
Q 49.21875 24.515625 49.125 26.609375 
L 32.625 26.609375 
L 32.625 33.59375 
z
" id="FranklinGothic-Book-71"/>
       <path d="M 11.375 0 
L 7.671875 0 
L 7.671875 66.65625 
L 15.328125 66.65625 
L 15.328125 41.109375 
Q 20.609375 50.6875 29.890625 50.6875 
Q 38.375 50.6875 44.109375 44 
Q 49.859375 37.3125 49.859375 24.5625 
Q 49.859375 13.578125 44.21875 6.125 
Q 38.578125 -1.3125 29.546875 -1.3125 
Q 19.484375 -1.3125 14.109375 8.15625 
z
M 15.328125 19.34375 
Q 15.875 11.765625 20 8.34375 
Q 24.125 4.9375 28.71875 4.9375 
Q 34.578125 4.9375 38.15625 10.015625 
Q 41.75 15.09375 41.75 23.921875 
Q 41.75 33.453125 38.28125 38.890625 
Q 34.8125 44.34375 28.65625 44.34375 
Q 23.828125 44.34375 19.9375 40.453125 
Q 16.0625 36.578125 15.328125 30.421875 
z
" id="FranklinGothic-Book-98"/>
      </defs>
      <use xlink:href="#FranklinGothic-Book-78"/>
      <use x="65.722656" xlink:href="#FranklinGothic-Book-79"/>
      <use x="127.058594" xlink:href="#FranklinGothic-Book-65"/>
      <use x="180.623047" xlink:href="#FranklinGothic-Book-65"/>
      <use x="231.5625" xlink:href="#FranklinGothic-Book-71"/>
      <use x="296.259766" xlink:href="#FranklinGothic-Book-108"/>
      <use x="319.257812" xlink:href="#FranklinGothic-Book-111"/>
      <use x="371.210938" xlink:href="#FranklinGothic-Book-98"/>
      <use x="424.921875" xlink:href="#FranklinGothic-Book-97"/>
      <use x="477.802734" xlink:href="#FranklinGothic-Book-108"/>
      <use x="500.800781" xlink:href="#FranklinGothic-Book-84"/>
      <use x="542.835938" xlink:href="#FranklinGothic-Book-101"/>
      <use x="594.886719" xlink:href="#FranklinGothic-Book-109"/>
      <use x="675.408203" xlink:href="#FranklinGothic-Book-112"/>
      <use x="728.826172" xlink:href="#FranklinGothic-Book-32"/>
      <use x="753.826172" xlink:href="#FranklinGothic-Book-40"/>
      <use x="783.171875" xlink:href="#FranklinGothic-Book-49"/>
      <use x="840.439453" xlink:href="#FranklinGothic-Book-57"/>
      <use x="899.082031" xlink:href="#FranklinGothic-Book-48"/>
      <use x="957.724609" xlink:href="#FranklinGothic-Book-48"/>
      <use x="1016.367188" xlink:href="#FranklinGothic-Book-45"/>
      <use x="1041.367188" xlink:href="#FranklinGothic-Book-50"/>
      <use x="1100.009766" xlink:href="#FranklinGothic-Book-48"/>
      <use x="1158.652344" xlink:href="#FranklinGothic-Book-50"/>
      <use x="1217.294922" xlink:href="#FranklinGothic-Book-51"/>
      <use x="1275.9375" xlink:href="#FranklinGothic-Book-41"/>
     </g>
    </g>
    <g id="line2d_19"/>
    <g id="text_21">
     <!-- Kadow et al. (1900-2023) -->
     <g style="fill:#cc79a7;" transform="translate(185.856 184.3809)scale(0.2 -0.2)">
      <defs>
       <path d="M 61.03125 0 
L 51.90625 0 
L 31.984375 36.765625 
L 16.703125 17.78125 
L 16.703125 0 
L 8.34375 0 
L 8.34375 66.65625 
L 16.703125 66.65625 
L 16.703125 27.984375 
L 46.828125 66.65625 
L 55.859375 66.65625 
L 37.796875 43.3125 
z
" id="FranklinGothic-Book-75"/>
       <path d="M 64.5 49.3125 
L 50.296875 0 
L 44.09375 0 
L 33.0625 36.625 
L 22.953125 0 
L 16.65625 0 
L 1.859375 49.3125 
L 9.578125 49.3125 
L 20.265625 12.546875 
L 30.515625 49.3125 
L 36.140625 49.3125 
L 47.21875 12.40625 
L 58.296875 49.3125 
z
" id="FranklinGothic-Book-119"/>
      </defs>
      <use xlink:href="#FranklinGothic-Book-75"/>
      <use x="62.216797" xlink:href="#FranklinGothic-Book-97"/>
      <use x="115.097656" xlink:href="#FranklinGothic-Book-100"/>
      <use x="168.955078" xlink:href="#FranklinGothic-Book-111"/>
      <use x="219.533203" xlink:href="#FranklinGothic-Book-119"/>
      <use x="285.939453" xlink:href="#FranklinGothic-Book-32"/>
      <use x="310.939453" xlink:href="#FranklinGothic-Book-101"/>
      <use x="362.490234" xlink:href="#FranklinGothic-Book-116"/>
      <use x="393.251953" xlink:href="#FranklinGothic-Book-32"/>
      <use x="418.251953" xlink:href="#FranklinGothic-Book-97"/>
      <use x="471.132812" xlink:href="#FranklinGothic-Book-108"/>
      <use x="494.130859" xlink:href="#FranklinGothic-Book-46"/>
      <use x="519.130859" xlink:href="#FranklinGothic-Book-32"/>
      <use x="544.130859" xlink:href="#FranklinGothic-Book-40"/>
      <use x="573.476562" xlink:href="#FranklinGothic-Book-49"/>
      <use x="630.744141" xlink:href="#FranklinGothic-Book-57"/>
      <use x="689.386719" xlink:href="#FranklinGothic-Book-48"/>
      <use x="748.029297" xlink:href="#FranklinGothic-Book-48"/>
      <use x="806.671875" xlink:href="#FranklinGothic-Book-45"/>
      <use x="831.671875" xlink:href="#FranklinGothic-Book-50"/>
      <use x="890.314453" xlink:href="#FranklinGothic-Book-48"/>
      <use x="948.957031" xlink:href="#FranklinGothic-Book-50"/>
      <use x="1007.599609" xlink:href="#FranklinGothic-Book-51"/>
      <use x="1066.242188" xlink:href="#FranklinGothic-Book-41"/>
     </g>
    </g>
    <g id="line2d_20"/>
    <g id="text_22">
     <!-- GISTEMP (1900-2023) -->
     <g style="fill:#56b4e9;" transform="translate(185.856 211.71215)scale(0.2 -0.2)">
      <defs>
       <path d="M 1.03125 17.71875 
L 8.546875 19.4375 
Q 13.09375 5.8125 28.21875 5.8125 
Q 36.140625 5.8125 40.140625 9.15625 
Q 44.140625 12.5 44.140625 18.109375 
Q 44.140625 22.359375 41.078125 24.953125 
Q 38.03125 27.546875 34.03125 28.515625 
L 20.703125 31.84375 
Q 15.53125 33.15625 12.234375 35.03125 
Q 8.9375 36.921875 6.640625 40.828125 
Q 4.34375 44.734375 4.34375 49.75 
Q 4.34375 58.109375 10.640625 63.0625 
Q 16.9375 68.015625 26.8125 68.015625 
Q 44.96875 68.015625 50.6875 51.5625 
L 43.109375 49.3125 
Q 41.796875 55.171875 36.90625 58.171875 
Q 32.03125 61.1875 26.515625 61.1875 
Q 21.046875 61.1875 16.765625 58.296875 
Q 12.5 55.421875 12.5 50.140625 
Q 12.5 42.78125 23.34375 40.1875 
L 35.796875 37.203125 
Q 52.875 33.109375 52.875 18.796875 
Q 52.875 10.15625 46.453125 4.421875 
Q 40.046875 -1.3125 28.375 -1.3125 
Q 7.671875 -1.3125 1.03125 17.71875 
z
" id="FranklinGothic-Book-83"/>
       <path d="M 51.46875 7.328125 
L 51.46875 0 
L 8.34375 0 
L 8.34375 66.65625 
L 50.53125 66.65625 
L 50.53125 59.328125 
L 16.703125 59.328125 
L 16.703125 38.140625 
L 43.5625 38.140625 
L 43.5625 31.34375 
L 16.703125 31.34375 
L 16.703125 7.328125 
z
" id="FranklinGothic-Book-69"/>
       <path d="M 16.703125 0 
L 8.34375 0 
L 8.34375 66.65625 
L 31.984375 66.65625 
Q 43.0625 66.65625 48.328125 60.625 
Q 53.609375 54.59375 53.609375 46.875 
Q 53.609375 38.28125 47.875 32.65625 
Q 42.140625 27.046875 32.859375 27.046875 
L 16.703125 27.046875 
z
M 16.703125 33.984375 
L 32.03125 33.984375 
Q 37.9375 33.984375 41.546875 37.515625 
Q 45.171875 41.0625 45.171875 46.875 
Q 45.171875 51.859375 41.9375 55.765625 
Q 38.71875 59.671875 32.625 59.671875 
L 16.703125 59.671875 
z
" id="FranklinGothic-Book-80"/>
      </defs>
      <use xlink:href="#FranklinGothic-Book-71"/>
      <use x="64.697266" xlink:href="#FranklinGothic-Book-73"/>
      <use x="89.697266" xlink:href="#FranklinGothic-Book-83"/>
      <use x="144.630859" xlink:href="#FranklinGothic-Book-84"/>
      <use x="193.166016" xlink:href="#FranklinGothic-Book-69"/>
      <use x="247.951172" xlink:href="#FranklinGothic-Book-77"/>
      <use x="328.957031" xlink:href="#FranklinGothic-Book-80"/>
      <use x="384.865234" xlink:href="#FranklinGothic-Book-32"/>
      <use x="409.865234" xlink:href="#FranklinGothic-Book-40"/>
      <use x="439.210938" xlink:href="#FranklinGothic-Book-49"/>
      <use x="496.478516" xlink:href="#FranklinGothic-Book-57"/>
      <use x="555.121094" xlink:href="#FranklinGothic-Book-48"/>
      <use x="613.763672" xlink:href="#FranklinGothic-Book-48"/>
      <use x="672.40625" xlink:href="#FranklinGothic-Book-45"/>
      <use x="697.40625" xlink:href="#FranklinGothic-Book-50"/>
      <use x="756.048828" xlink:href="#FranklinGothic-Book-48"/>
      <use x="814.691406" xlink:href="#FranklinGothic-Book-50"/>
      <use x="873.333984" xlink:href="#FranklinGothic-Book-51"/>
      <use x="931.976562" xlink:href="#FranklinGothic-Book-41"/>
     </g>
    </g>
    <g id="line2d_21"/>
    <g id="text_23">
     <!-- Berkeley Earth (1900-2023) -->
     <g style="fill:#009e73;" transform="translate(185.856 239.0434)scale(0.2 -0.2)">
      <defs>
       <path d="M 8.34375 0 
L 8.34375 66.65625 
L 34.71875 66.65625 
Q 44.671875 66.65625 49.484375 61.765625 
Q 54.296875 56.890625 54.296875 50.4375 
Q 54.296875 39.109375 42.484375 35.40625 
Q 49.515625 33.59375 52.921875 28.953125 
Q 56.34375 24.3125 56.34375 18.453125 
Q 56.34375 10.59375 51.046875 5.296875 
Q 45.75 0 34.71875 0 
z
M 16.40625 38.09375 
L 30.90625 38.09375 
Q 39.9375 38.09375 42.96875 41.53125 
Q 46 44.96875 46 49.609375 
Q 46 54.203125 42.75 57.03125 
Q 39.5 59.859375 33.0625 59.859375 
L 16.40625 59.859375 
z
M 16.40625 7.328125 
L 34.28125 7.328125 
Q 40.828125 7.328125 44.390625 10.5 
Q 47.953125 13.671875 47.953125 18.75 
Q 47.953125 22.3125 46.34375 25.359375 
Q 44.734375 28.421875 41.796875 30.078125 
Q 38.875 31.734375 33.0625 31.734375 
L 16.40625 31.734375 
z
" id="FranklinGothic-Book-66"/>
       <path d="M 48.390625 0 
L 40.4375 0 
L 26.03125 27.546875 
L 15.328125 15.234375 
L 15.328125 0 
L 7.671875 0 
L 7.671875 66.65625 
L 15.328125 66.65625 
L 15.328125 23.96875 
L 38.234375 49.3125 
L 46.4375 49.3125 
L 31 31.984375 
z
" id="FranklinGothic-Book-107"/>
       <path d="M 41.5 49.3125 
L 21.734375 -5.765625 
Q 17.4375 -17.671875 8.015625 -17.671875 
Q 5.03125 -17.671875 1.421875 -16.65625 
L 1.421875 -10.640625 
Q 4.390625 -11.328125 6.546875 -11.328125 
Q 10.203125 -11.328125 12.671875 -9.21875 
Q 15.140625 -7.125 17.578125 0.921875 
L 0.53125 49.3125 
L 8.34375 49.3125 
L 21.53125 12.25 
L 35.0625 49.3125 
z
" id="FranklinGothic-Book-121"/>
       <path d="M 46.34375 0 
L 38.671875 0 
L 38.671875 29.9375 
Q 38.671875 35.203125 38.015625 37.84375 
Q 37.359375 40.484375 34.890625 42.40625 
Q 32.421875 44.34375 29.203125 44.34375 
Q 23.296875 44.34375 19.3125 39.5 
Q 15.328125 34.671875 15.328125 26.5625 
L 15.328125 0 
L 7.671875 0 
L 7.671875 66.65625 
L 15.328125 66.65625 
L 15.328125 40.234375 
Q 20.5625 50.6875 30.28125 50.6875 
Q 34.625 50.6875 38.015625 48.96875 
Q 41.40625 47.265625 43.203125 44.484375 
Q 45.015625 41.703125 45.671875 38.984375 
Q 46.34375 36.28125 46.34375 29.9375 
z
" id="FranklinGothic-Book-104"/>
      </defs>
      <use xlink:href="#FranklinGothic-Book-66"/>
      <use x="60.449219" xlink:href="#FranklinGothic-Book-101"/>
      <use x="112.5" xlink:href="#FranklinGothic-Book-114"/>
      <use x="144.958984" xlink:href="#FranklinGothic-Book-107"/>
      <use x="192.806641" xlink:href="#FranklinGothic-Book-101"/>
      <use x="244.857422" xlink:href="#FranklinGothic-Book-108"/>
      <use x="267.855469" xlink:href="#FranklinGothic-Book-101"/>
      <use x="318.28125" xlink:href="#FranklinGothic-Book-121"/>
      <use x="359.785156" xlink:href="#FranklinGothic-Book-32"/>
      <use x="384.785156" xlink:href="#FranklinGothic-Book-69"/>
      <use x="439.570312" xlink:href="#FranklinGothic-Book-97"/>
      <use x="492.451172" xlink:href="#FranklinGothic-Book-114"/>
      <use x="528.785156" xlink:href="#FranklinGothic-Book-116"/>
      <use x="559.546875" xlink:href="#FranklinGothic-Book-104"/>
      <use x="613.550781" xlink:href="#FranklinGothic-Book-32"/>
      <use x="638.550781" xlink:href="#FranklinGothic-Book-40"/>
      <use x="667.896484" xlink:href="#FranklinGothic-Book-49"/>
      <use x="725.164062" xlink:href="#FranklinGothic-Book-57"/>
      <use x="783.806641" xlink:href="#FranklinGothic-Book-48"/>
      <use x="842.449219" xlink:href="#FranklinGothic-Book-48"/>
      <use x="901.091797" xlink:href="#FranklinGothic-Book-45"/>
      <use x="926.091797" xlink:href="#FranklinGothic-Book-50"/>
      <use x="984.734375" xlink:href="#FranklinGothic-Book-48"/>
      <use x="1043.376953" xlink:href="#FranklinGothic-Book-50"/>
      <use x="1102.019531" xlink:href="#FranklinGothic-Book-51"/>
      <use x="1160.662109" xlink:href="#FranklinGothic-Book-41"/>
     </g>
    </g>
    <g id="line2d_22"/>
    <g id="text_24">
     <!-- JRA-55 (1958-2023) -->
     <g style="fill:#d55e00;" transform="translate(185.856 266.577775)scale(0.2 -0.2)">
      <defs>
       <path d="M 29.6875 66.65625 
L 29.6875 20.359375 
Q 29.6875 8.25 24.21875 3.46875 
Q 18.75 -1.3125 9.71875 -1.3125 
Q 4.890625 -1.3125 0 0 
L 0 6.84375 
Q 4.78125 5.859375 8.6875 5.859375 
Q 14.265625 5.859375 16.890625 7.515625 
Q 19.53125 9.1875 20.4375 11.8125 
Q 21.34375 14.453125 21.34375 20.359375 
L 21.34375 66.65625 
z
" id="FranklinGothic-Book-74"/>
      </defs>
      <use xlink:href="#FranklinGothic-Book-74"/>
      <use x="37.353516" xlink:href="#FranklinGothic-Book-82"/>
      <use x="98.632812" xlink:href="#FranklinGothic-Book-65"/>
      <use x="153.947266" xlink:href="#FranklinGothic-Book-45"/>
      <use x="178.947266" xlink:href="#FranklinGothic-Book-53"/>
      <use x="237.589844" xlink:href="#FranklinGothic-Book-53"/>
      <use x="296.232422" xlink:href="#FranklinGothic-Book-32"/>
      <use x="321.232422" xlink:href="#FranklinGothic-Book-40"/>
      <use x="350.578125" xlink:href="#FranklinGothic-Book-49"/>
      <use x="407.845703" xlink:href="#FranklinGothic-Book-57"/>
      <use x="466.488281" xlink:href="#FranklinGothic-Book-53"/>
      <use x="525.130859" xlink:href="#FranklinGothic-Book-56"/>
      <use x="583.773438" xlink:href="#FranklinGothic-Book-45"/>
      <use x="608.773438" xlink:href="#FranklinGothic-Book-50"/>
      <use x="667.416016" xlink:href="#FranklinGothic-Book-48"/>
      <use x="726.058594" xlink:href="#FranklinGothic-Book-50"/>
      <use x="784.701172" xlink:href="#FranklinGothic-Book-51"/>
      <use x="843.34375" xlink:href="#FranklinGothic-Book-41"/>
     </g>
    </g>
    <g id="line2d_23"/>
    <g id="text_25">
     <!-- ERA5 (1979-2023) -->
     <g style="fill:#0072b2;" transform="translate(185.856 293.909025)scale(0.2 -0.2)">
      <defs>
       <path d="M 28.078125 0 
L 19.484375 0 
Q 19.484375 16.75 26.3125 32.59375 
Q 33.15625 48.4375 43.0625 59.328125 
L 6.890625 59.328125 
L 7.71875 66.65625 
L 51.765625 66.65625 
L 51.765625 61.671875 
Q 39.84375 47.3125 33.9375 31.78125 
Q 28.03125 16.265625 28.03125 2.296875 
Q 28.03125 1.515625 28.078125 0 
z
" id="FranklinGothic-Book-55"/>
      </defs>
      <use xlink:href="#FranklinGothic-Book-69"/>
      <use x="54.785156" xlink:href="#FranklinGothic-Book-82"/>
      <use x="116.064453" xlink:href="#FranklinGothic-Book-65"/>
      <use x="169.628906" xlink:href="#FranklinGothic-Book-53"/>
      <use x="228.271484" xlink:href="#FranklinGothic-Book-32"/>
      <use x="253.271484" xlink:href="#FranklinGothic-Book-40"/>
      <use x="282.617188" xlink:href="#FranklinGothic-Book-49"/>
      <use x="339.884766" xlink:href="#FranklinGothic-Book-57"/>
      <use x="392.777344" xlink:href="#FranklinGothic-Book-55"/>
      <use x="451.419922" xlink:href="#FranklinGothic-Book-57"/>
      <use x="510.0625" xlink:href="#FranklinGothic-Book-45"/>
      <use x="535.0625" xlink:href="#FranklinGothic-Book-50"/>
      <use x="593.705078" xlink:href="#FranklinGothic-Book-48"/>
      <use x="652.347656" xlink:href="#FranklinGothic-Book-50"/>
      <use x="710.990234" xlink:href="#FranklinGothic-Book-51"/>
      <use x="769.632812" xlink:href="#FranklinGothic-Book-41"/>
     </g>
    </g>
   </g>
   <g id="line2d_24">
    <path clip-path="url(#pb8c79acd31)" d="M 184.581818 444.87336 
L 191.180488 416.816092 
L 197.779157 474.867164 
L 204.377827 466.025147 
L 210.976497 437.022129 
L 217.575166 492.446116 
L 224.173836 425.748181 
L 230.772506 476.683606 
L 237.371175 476.818713 
L 243.969845 454.165735 
L 250.568514 490.854853 
L 257.167184 472.059936 
L 263.765854 526.087816 
L 270.364523 472.180032 
L 276.963193 391.415933 
L 283.561863 450.187577 
L 290.160532 494.262558 
L 296.759202 455.231581 
L 303.357871 481.007037 
L 309.956541 462.332216 
L 316.555211 446.029277 
L 323.15388 405.917442 
L 329.75255 432.128245 
L 336.35122 439.679237 
L 342.949889 405.647228 
L 349.548559 414.414186 
L 356.147228 407.328562 
L 362.745898 442.951835 
L 369.344568 453.835473 
L 375.943237 514.348499 
L 382.541907 463.608229 
L 389.140576 464.614027 
L 395.739246 392.001398 
L 402.337916 495.118237 
L 408.936585 449.001636 
L 415.535255 438.613392 
L 422.133925 455.62189 
L 428.732594 450.848102 
L 435.331264 393.03722 
L 441.929933 380.111962 
L 448.528603 410.616172 
L 455.127273 421.454774 
L 461.725942 404.686465 
L 468.324612 368.132454 
L 474.923282 378.025306 
L 481.521951 436.361604 
L 488.120621 432.863828 
L 494.71929 415.14977 
L 501.31796 355.717601 
L 507.91663 428.870659 
L 514.515299 482.523241 
L 521.113969 397.315616 
L 527.712639 473.50108 
L 534.311308 362.773201 
L 540.909978 447.035075 
L 547.508647 421.74 
L 554.107317 467.256124 
L 560.705987 467.916648 
L 567.304656 432.938888 
L 573.903326 391.430945 
L 580.501996 452.544448 
L 587.100665 385.651358 
L 593.699335 358.599889 
L 600.298004 353.781064 
L 606.896674 467.871612 
L 613.495344 434.875425 
L 620.094013 447.830707 
L 626.692683 387.632931 
L 633.291353 439.318952 
L 639.890022 515.174154 
L 646.488692 428.570421 
L 653.087361 393.11228 
L 659.686031 477.254059 
L 666.284701 353.90116 
L 672.88337 471.444448 
L 679.48204 349.022288 
L 686.08071 472.134996 
L 692.679379 404.761525 
L 699.278049 376.058745 
L 705.876718 408.48448 
L 712.475388 384.315298 
L 719.074058 326.429357 
L 725.672727 391.611088 
L 732.271397 319.809102 
L 738.870067 450.893137 
L 745.468736 412.192423 
L 752.067406 382.558904 
L 758.666075 417.611724 
L 765.264745 308.114821 
L 771.863415 329.942145 
L 778.462084 288.088928 
L 785.060754 321.625544 
L 791.659424 398.651676 
L 798.258093 366.571215 
L 804.856763 337.11784 
L 811.455432 240.03579 
L 818.054102 365.385274 
L 824.652772 296.03023 
L 831.251441 304.211724 
L 837.850111 296.075266 
L 844.44878 318.262875 
L 851.04745 281.1234 
L 857.64612 241.807196 
L 864.244789 258.755647 
L 870.843459 272.386465 
L 877.442129 242.828006 
L 884.040798 277.52054 
L 890.639468 171.986783 
L 897.238137 226.765258 
L 903.836807 281.018316 
L 910.435477 266.411724 
L 917.034146 251.32475 
L 923.632816 284.155806 
L 930.231486 231.554059 
L 936.830155 259.64135 
L 943.428825 166.087101 
L 950.027494 168.458983 
L 956.626164 156.764702 
L 963.224834 213.389643 
L 969.823503 165.336505 
L 976.422173 103.667562 
L 983.020843 186.683447 
L 989.619512 143.704337 
L 996.218182 116.59282 
" style="fill:none;stroke:#009e73;stroke-linecap:round;stroke-width:3;"/>
   </g>
   <g id="line2d_25">
    <path clip-path="url(#pb8c79acd31)" d="M 184.581818 468.502113 
L 191.180488 442.786704 
L 197.779157 497.114821 
L 204.377827 478.530071 
L 210.976497 456.957951 
L 217.575166 498.495917 
L 224.173836 443.267085 
L 230.772506 505.146195 
L 237.371175 501.753503 
L 243.969845 471.14421 
L 250.568514 509.25946 
L 257.167184 493.271771 
L 263.765854 544.117125 
L 270.364523 486.876696 
L 276.963193 399.297188 
L 283.561863 457.918713 
L 290.160532 506.722446 
L 296.759202 471.474472 
L 303.357871 490.509579 
L 309.956541 491.875663 
L 316.555211 465.394647 
L 323.15388 420.208785 
L 329.75255 445.924194 
L 336.35122 450.908149 
L 342.949889 420.809261 
L 349.548559 417.176378 
L 356.147228 420.95938 
L 362.745898 459.329833 
L 369.344568 470.04834 
L 375.943237 526.67328 
L 382.541907 466.91085 
L 389.140576 475.737855 
L 395.739246 395.364067 
L 402.337916 504.00529 
L 408.936585 448.761446 
L 415.535255 437.442462 
L 422.133925 451.343495 
L 428.732594 453.475187 
L 435.331264 386.041668 
L 441.929933 374.242303 
L 448.528603 409.400207 
L 455.127273 422.685751 
L 461.725942 411.516886 
L 468.324612 367.982335 
L 474.923282 379.556521 
L 481.521951 450.637935 
L 488.120621 427.609658 
L 494.71929 419.217998 
L 501.31796 359.815854 
L 507.91663 437.682653 
L 514.515299 481.112121 
L 521.113969 411.126577 
L 527.712639 476.473439 
L 534.311308 376.734281 
L 540.909978 459.46494 
L 547.508647 423.556442 
L 554.107317 478.530071 
L 560.705987 476.968832 
L 567.304656 438.238094 
L 573.903326 399.70251 
L 580.501996 456.462558 
L 587.100665 391.986386 
L 593.699335 366.691311 
L 600.298004 362.968356 
L 606.896674 476.32332 
L 613.495344 443.447228 
L 620.094013 448.416172 
L 626.692683 402.269547 
L 633.291353 444.107752 
L 639.890022 528.910056 
L 646.488692 431.15247 
L 653.087361 396.024591 
L 659.686031 479.175584 
L 666.284701 363.133487 
L 672.88337 473.215854 
L 679.48204 351.919587 
L 686.08071 476.353344 
L 692.679379 409.940635 
L 699.278049 380.72745 
L 705.876718 401.398856 
L 712.475388 388.848896 
L 719.074058 331.308229 
L 725.672727 392.33166 
L 732.271397 322.991628 
L 738.870067 451.928959 
L 745.468736 413.828721 
L 752.067406 382.874154 
L 758.666075 418.797665 
L 765.264745 312.948658 
L 771.863415 328.155727 
L 778.462084 280.282732 
L 785.060754 323.907355 
L 791.659424 393.082256 
L 798.258093 373.446672 
L 804.856763 336.172089 
L 811.455432 240.74135 
L 818.054102 371.63023 
L 824.652772 295.79004 
L 831.251441 298.206958 
L 837.850111 295.279635 
L 844.44878 317.347149 
L 851.04745 280.41784 
L 857.64612 236.447943 
L 864.244789 259.761446 
L 870.843459 266.186545 
L 877.442129 243.098221 
L 884.040798 276.995123 
L 890.639468 168.759222 
L 897.238137 224.34834 
L 903.836807 281.768912 
L 910.435477 266.531819 
L 917.034146 257.149373 
L 923.632816 284.365973 
L 930.231486 229.572486 
L 936.830155 262.898936 
L 943.428825 165.081303 
L 950.027494 174.989166 
L 956.626164 159.406799 
L 963.224834 213.494726 
L 969.823503 163.189801 
L 976.422173 104.823479 
L 983.020843 180.708705 
L 989.619512 146.811803 
L 996.218182 114.190913 
" style="fill:none;stroke:#56b4e9;stroke-linecap:round;stroke-width:3;"/>
   </g>
   <g id="line2d_26">
    <path clip-path="url(#pb8c79acd31)" d="M 184.581818 480.091311 
L 191.180488 431.017363 
L 197.779157 502.188848 
L 204.377827 485.690755 
L 210.976497 461.821811 
L 217.575166 505.041112 
L 224.173836 426.018396 
L 230.772506 479.370739 
L 237.371175 485.090278 
L 243.969845 462.512359 
L 250.568514 501.618396 
L 257.167184 484.639921 
L 263.765854 536.94143 
L 270.364523 487.777411 
L 276.963193 396.925306 
L 283.561863 464.854218 
L 290.160532 497.745322 
L 296.759202 445.89417 
L 303.357871 479.866132 
L 309.956541 468.186863 
L 316.555211 443.657395 
L 323.15388 407.343574 
L 329.75255 440.670024 
L 336.35122 445.233646 
L 342.949889 418.827689 
L 349.548559 409.835552 
L 356.147228 396.009579 
L 362.745898 433.689484 
L 369.344568 445.548896 
L 375.943237 502.954456 
L 382.541907 445.428801 
L 389.140576 456.522605 
L 395.739246 381.102748 
L 402.337916 479.280667 
L 408.936585 437.412438 
L 415.535255 428.270183 
L 422.133925 447.125147 
L 428.732594 447.545481 
L 435.331264 387.918157 
L 441.929933 378.430627 
L 448.528603 413.408388 
L 455.127273 428.165099 
L 461.725942 413.783685 
L 468.324612 372.320778 
L 474.923282 382.423797 
L 481.521951 440.865179 
L 488.120621 436.211485 
L 494.71929 424.622288 
L 501.31796 357.714186 
L 507.91663 429.621255 
L 514.515299 485.570659 
L 521.113969 404.311168 
L 527.712639 481.547466 
L 534.311308 363.583844 
L 540.909978 453.129913 
L 547.508647 429.576219 
L 554.107317 477.41919 
L 560.705987 475.993058 
L 567.304656 442.186227 
L 573.903326 401.35382 
L 580.501996 459.720143 
L 587.100665 395.424114 
L 593.699335 364.049214 
L 600.298004 364.394488 
L 606.896674 474.9122 
L 613.495344 438.433249 
L 620.094013 454.150723 
L 626.692683 395.379079 
L 633.291353 446.719825 
L 639.890022 521.118872 
L 646.488692 436.511724 
L 653.087361 402.464702 
L 659.686031 485.225385 
L 666.284701 365.760572 
L 672.88337 479.701001 
L 679.48204 352.625147 
L 686.08071 480.691787 
L 692.679379 419.93857 
L 699.278049 389.059063 
L 705.876718 418.467403 
L 712.475388 394.178125 
L 719.074058 333.650087 
L 725.672727 395.349055 
L 732.271397 324.73301 
L 738.870067 455.261604 
L 745.468736 417.161366 
L 752.067406 392.286624 
L 758.666075 420.824273 
L 765.264745 310.937061 
L 771.863415 335.196315 
L 778.462084 289.575107 
L 785.060754 327.375107 
L 791.659424 395.754376 
L 798.258093 365.74556 
L 804.856763 337.74834 
L 811.455432 242.392661 
L 818.054102 367.727133 
L 824.652772 295.069468 
L 831.251441 300.413709 
L 837.850111 294.679158 
L 844.44878 319.448817 
L 851.04745 278.106005 
L 857.64612 239.525385 
L 864.244789 259.671374 
L 870.843459 272.596632 
L 877.442129 248.007117 
L 884.040798 276.154456 
L 890.639468 170.245401 
L 897.238137 225.128959 
L 903.836807 281.43865 
L 910.435477 261.803066 
L 917.034146 247.496712 
L 923.632816 283.029913 
L 930.231486 225.834519 
L 936.830155 250.138809 
L 943.428825 167.498221 
L 950.027494 163.505052 
L 956.626164 153.011724 
L 963.224834 221.541112 
L 969.823503 172.031819 
L 976.422173 121.786942 
L 983.020843 199.893932 
L 989.619512 166.957792 
L 996.218182 129.623161 
" style="fill:none;stroke:#cc79a7;stroke-linecap:round;stroke-width:3;"/>
   </g>
   <g id="line2d_27">
    <path clip-path="url(#pb8c79acd31)" d="M 184.581818 486.666529 
L 191.180488 469.042542 
L 197.779157 507.262875 
L 204.377827 501.363193 
L 210.976497 473.035711 
L 217.575166 515.594488 
L 224.173836 476.353344 
L 230.772506 515.024035 
L 237.371175 518.251597 
L 243.969845 496.033963 
L 250.568514 518.086465 
L 257.167184 511.090913 
L 263.765854 554.04 
L 270.364523 510.655568 
L 276.963193 418.122129 
L 283.561863 470.708864 
L 290.160532 510.925782 
L 296.759202 490.644686 
L 303.357871 514.933963 
L 309.956541 503.975266 
L 316.555211 480.211406 
L 323.15388 421.679952 
L 329.75255 463.818396 
L 336.35122 478.950405 
L 342.949889 437.81776 
L 349.548559 430.852232 
L 356.147228 428.390278 
L 362.745898 464.01355 
L 369.344568 469.703066 
L 375.943237 526.988531 
L 382.541907 466.985909 
L 389.140576 480.16637 
L 395.739246 402.960095 
L 402.337916 511.76645 
L 408.936585 456.627689 
L 415.535255 445.083527 
L 422.133925 462.092025 
L 428.732594 456.117284 
L 435.331264 396.685115 
L 441.929933 385.561287 
L 448.528603 418.28726 
L 455.127273 434.04977 
L 461.725942 414.714424 
L 468.324612 376.028721 
L 474.923282 384.555488 
L 481.521951 443.597347 
L 488.120621 438.117998 
L 494.71929 427.06923 
L 501.31796 363.914106 
L 507.91663 436.391628 
L 514.515299 489.864067 
L 521.113969 412.687816 
L 527.712639 484.459778 
L 534.311308 375.488292 
L 540.909978 464.223717 
L 547.508647 434.935473 
L 554.107317 481.037061 
L 560.705987 479.175584 
L 567.304656 446.945004 
L 573.903326 400.933487 
L 580.501996 461.626656 
L 587.100665 398.876855 
L 593.699335 371.585195 
L 600.298004 366.676299 
L 606.896674 476.083129 
L 613.495344 444.55811 
L 620.094013 458.294011 
L 626.692683 397.210532 
L 633.291353 446.539682 
L 639.890022 522.154694 
L 646.488692 435.926259 
L 653.087361 395.289007 
L 659.686031 480.151358 
L 666.284701 360.656521 
L 672.88337 475.467641 
L 679.48204 350.673598 
L 686.08071 474.867164 
L 692.679379 414.924591 
L 699.278049 383.204416 
L 705.876718 412.64278 
L 712.475388 388.999015 
L 719.074058 329.852073 
L 725.672727 391.265814 
L 732.271397 323.577093 
L 738.870067 451.028245 
L 745.468736 412.687816 
L 752.067406 385.996632 
L 758.666075 418.647546 
L 765.264745 308.204893 
L 771.863415 332.434122 
L 778.462084 287.623558 
L 785.060754 324.763034 
L 791.659424 396.309817 
L 798.258093 366.165894 
L 804.856763 339.850008 
L 811.455432 243.098221 
L 818.054102 369.318396 
L 824.652772 294.258824 
L 831.251441 300.113471 
L 837.850111 296.510612 
L 844.44878 319.658983 
L 851.04745 281.528721 
L 857.64612 242.752947 
L 864.244789 261.532851 
L 870.843459 272.386465 
L 877.442129 243.398459 
L 884.040798 274.653264 
L 890.639468 171.536426 
L 897.238137 223.372566 
L 903.836807 280.057554 
L 910.435477 265.135711 
L 917.034146 248.997903 
L 923.632816 280.943257 
L 930.231486 231.524035 
L 936.830155 264.985592 
L 943.428825 169.074472 
L 950.027494 168.113709 
L 956.626164 155.863987 
L 963.224834 213.239523 
L 969.823503 165.366529 
L 976.422173 100.44 
L 983.020843 182.299968 
L 989.619512 143.839444 
L 996.218182 115.917284 
" style="fill:none;stroke:#e69f00;stroke-linecap:round;stroke-width:3;"/>
   </g>
   <g id="line2d_28">
    <path clip-path="url(#pb8c79acd31)" d="M 184.581818 460.470739 
L 191.180488 426.60386 
L 197.779157 486.471374 
L 204.377827 481.65255 
L 210.976497 466.100207 
L 217.575166 498.781144 
L 224.173836 430.491946 
L 230.772506 489.0234 
L 237.371175 485.645719 
L 243.969845 458.44413 
L 250.568514 492.521176 
L 257.167184 480.901954 
L 263.765854 534.944845 
L 270.364523 481.142145 
L 276.963193 401.278761 
L 283.561863 447.095123 
L 290.160532 483.799253 
L 296.759202 452.094091 
L 303.357871 474.191628 
L 309.956541 459.600048 
L 316.555211 443.192025 
L 323.15388 401.909261 
L 329.75255 432.9539 
L 336.35122 439.54413 
L 342.949889 415.495044 
L 349.548559 410.13579 
L 356.147228 401.443892 
L 362.745898 433.329198 
L 369.344568 442.801716 
L 375.943237 504.906005 
L 382.541907 445.548896 
L 389.140576 454.631104 
L 395.739246 378.595759 
L 402.337916 480.616728 
L 408.936585 437.157236 
L 415.535255 425.102669 
L 422.133925 447.965814 
L 428.732594 452.184162 
L 435.331264 385.98162 
L 441.929933 373.641827 
L 448.528603 405.842383 
L 455.127273 420.01363 
L 461.725942 411.396791 
L 468.324612 371.029754 
L 474.923282 378.971056 
L 481.521951 435.806164 
L 488.120621 429.381064 
L 494.71929 414.954615 
L 501.31796 359.86089 
L 507.91663 428.975743 
L 514.515299 479.836108 
L 521.113969 400.873439 
L 527.712639 474.476855 
L 534.311308 364.4095 
L 540.909978 450.728006 
L 547.508647 426.153503 
L 554.107317 474.311724 
L 560.705987 469.147625 
L 567.304656 436.256521 
L 573.903326 397.991152 
L 580.501996 456.492581 
L 587.100665 393.772804 
L 593.699335 364.139285 
L 600.298004 365.160095 
L 606.896674 474.011485 
L 613.495344 436.691867 
L 620.094013 453.475187 
L 626.692683 396.234758 
L 633.291353 446.28448 
L 639.890022 520.578443 
L 646.488692 437.50251 
L 653.087361 403.905846 
L 659.686031 479.625941 
L 666.284701 367.261763 
L 672.88337 475.332534 
L 679.48204 352.625147 
L 686.08071 477.749452 
L 692.679379 417.987021 
L 699.278049 387.617919 
L 705.876718 416.515854 
L 712.475388 392.526815 
L 719.074058 335.391469 
L 725.672727 395.304019 
L 732.271397 328.005608 
L 738.870067 453.084877 
L 745.468736 418.902748 
L 752.067406 391.671136 
L 758.666075 420.554059 
L 765.264745 314.179635 
L 771.863415 334.475743 
L 778.462084 289.995441 
L 785.060754 324.988213 
L 791.659424 396.159698 
L 798.258093 366.781382 
L 804.856763 339.759936 
L 811.455432 242.948102 
L 818.054102 370.459301 
L 824.652772 297.381303 
L 831.251441 300.713948 
L 837.850111 296.990993 
L 844.44878 318.037697 
L 851.04745 278.601398 
L 857.64612 238.819825 
L 864.244789 259.626338 
L 870.843459 272.056203 
L 877.442129 247.79695 
L 884.040798 278.045957 
L 890.639468 170.15533 
L 897.238137 223.372566 
L 903.836807 281.393614 
L 910.435477 263.289245 
L 917.034146 247.046354 
L 923.632816 280.943257 
L 930.231486 227.891152 
L 936.830155 247.601795 
L 943.428825 163.925385 
L 950.027494 167.978602 
L 956.626164 152.831581 
L 963.224834 219.244289 
L 969.823503 169.750008 
L 976.422173 120.345798 
L 983.020843 198.347705 
L 989.619512 163.17479 
L 996.218182 132.685592 
" style="fill:none;stroke:#696969;stroke-linecap:round;stroke-width:3;"/>
   </g>
  </g>
  <g id="text_26">
   <g id="patch_4">
    <path d="M 875.169375 646.18275 
L 1040.76 646.18275 
L 1040.76 628.26525 
L 875.169375 628.26525 
z
" style="fill:#ffffff;stroke:#ffffff;stroke-linejoin:miter;"/>
   </g>
   <!-- Created: 2024-01-25 13:01:04 -->
   <g style="fill:#696969;" transform="translate(879.129375 640.224)scale(0.12 -0.12)">
    <defs>
     <path d="M 17.96875 49.3125 
L 17.96875 38.375 
L 7.078125 38.375 
L 7.078125 49.3125 
z
M 17.96875 10.984375 
L 17.96875 0 
L 7.078125 0 
L 7.078125 10.984375 
z
" id="FranklinGothic-Book-58"/>
    </defs>
    <use xlink:href="#FranklinGothic-Book-67"/>
    <use x="57.910156" xlink:href="#FranklinGothic-Book-114"/>
    <use x="90.869141" xlink:href="#FranklinGothic-Book-101"/>
    <use x="142.919922" xlink:href="#FranklinGothic-Book-97"/>
    <use x="195.800781" xlink:href="#FranklinGothic-Book-116"/>
    <use x="224.8125" xlink:href="#FranklinGothic-Book-101"/>
    <use x="276.863281" xlink:href="#FranklinGothic-Book-100"/>
    <use x="330.720703" xlink:href="#FranklinGothic-Book-58"/>
    <use x="355.720703" xlink:href="#FranklinGothic-Book-32"/>
    <use x="380.720703" xlink:href="#FranklinGothic-Book-50"/>
    <use x="439.363281" xlink:href="#FranklinGothic-Book-48"/>
    <use x="498.005859" xlink:href="#FranklinGothic-Book-50"/>
    <use x="552.273438" xlink:href="#FranklinGothic-Book-52"/>
    <use x="610.916016" xlink:href="#FranklinGothic-Book-45"/>
    <use x="635.916016" xlink:href="#FranklinGothic-Book-48"/>
    <use x="690.808594" xlink:href="#FranklinGothic-Book-49"/>
    <use x="749.451172" xlink:href="#FranklinGothic-Book-45"/>
    <use x="774.451172" xlink:href="#FranklinGothic-Book-50"/>
    <use x="833.09375" xlink:href="#FranklinGothic-Book-53"/>
    <use x="891.736328" xlink:href="#FranklinGothic-Book-32"/>
    <use x="916.736328" xlink:href="#FranklinGothic-Book-49"/>
    <use x="974.503906" xlink:href="#FranklinGothic-Book-51"/>
    <use x="1033.146484" xlink:href="#FranklinGothic-Book-58"/>
    <use x="1058.146484" xlink:href="#FranklinGothic-Book-48"/>
    <use x="1113.039062" xlink:href="#FranklinGothic-Book-49"/>
    <use x="1171.681641" xlink:href="#FranklinGothic-Book-58"/>
    <use x="1196.681641" xlink:href="#FranklinGothic-Book-48"/>
    <use x="1255.324219" xlink:href="#FranklinGothic-Book-52"/>
   </g>
  </g>
 </g>
 <defs>
  <clipPath id="pb8c79acd31">
   <rect height="498.96" width="892.8" x="144" y="77.76"/>
  </clipPath>
 </defs>
</svg>
