<?xml version="1.0" encoding="utf-8" standalone="no"?>
<!DOCTYPE svg PUBLIC "-//W3C//DTD SVG 1.1//EN"
  "http://www.w3.org/Graphics/SVG/1.1/DTD/svg11.dtd">
<!-- Created with matplotlib (https://matplotlib.org/) -->
<svg height="648pt" version="1.1" viewBox="0 0 1152 648" width="1152pt" xmlns="http://www.w3.org/2000/svg" xmlns:xlink="http://www.w3.org/1999/xlink">
 <metadata>
  <rdf:RDF xmlns:cc="http://creativecommons.org/ns#" xmlns:dc="http://purl.org/dc/elements/1.1/" xmlns:rdf="http://www.w3.org/1999/02/22-rdf-syntax-ns#">
   <cc:Work>
    <dc:type rdf:resource="http://purl.org/dc/dcmitype/StillImage"/>
    <dc:date>2023-01-30T16:53:22.597821</dc:date>
    <dc:format>image/svg+xml</dc:format>
    <dc:creator>
     <cc:Agent>
      <dc:title>Matplotlib v3.3.1, https://matplotlib.org/</dc:title>
     </cc:Agent>
    </dc:creator>
   </cc:Work>
  </rdf:RDF>
 </metadata>
 <defs>
  <style type="text/css">*{stroke-linecap:butt;stroke-linejoin:round;}</style>
 </defs>
 <g id="figure_1">
  <g id="patch_1">
   <path d="M 0 648 
L 1152 648 
L 1152 0 
L 0 0 
z
" style="fill:#ffffff;"/>
  </g>
  <g id="axes_1">
   <g id="patch_2">
    <path d="M 144 576.72 
L 1036.8 576.72 
L 1036.8 77.76 
L 144 77.76 
z
" style="fill:none;"/>
   </g>
   <g id="PolyCollection_1">
    <defs>
     <path d="M 382.541907 -184.896701 
L 382.541907 -253.329517 
L 392.439911 -278.237094 
L 402.337916 -334.915029 
L 412.23592 -277.506675 
L 422.133925 -272.700151 
L 432.031929 -265.652351 
L 441.929933 -294.334663 
L 451.827938 -235.563482 
L 461.725942 -206.274132 
L 471.623947 -229.119306 
L 481.521951 -227.397529 
L 491.419956 -242.215332 
L 501.31796 -255.150214 
L 511.215965 -255.446791 
L 521.113969 -256.608059 
L 531.011973 -309.310421 
L 540.909978 -277.264158 
L 550.807982 -340.039683 
L 560.705987 -316.585257 
L 570.603991 -283.915954 
L 580.501996 -350.713888 
L 590.4 -350.550423 
L 600.298004 -292.152001 
L 610.196009 -268.594023 
L 620.094013 -304.292199 
L 629.992018 -311.664109 
L 639.890022 -300.591865 
L 649.788027 -295.195293 
L 659.686031 -313.963342 
L 669.584035 -324.259091 
L 679.48204 -318.301912 
L 689.380044 -333.709117 
L 699.278049 -321.334375 
L 709.176053 -323.85484 
L 719.074058 -327.935216 
L 728.972062 -320.422854 
L 738.870067 -336.288539 
L 748.768071 -338.531097 
L 758.666075 -337.761034 
L 768.56408 -379.126936 
L 778.462084 -361.17269 
L 788.360089 -356.216832 
L 798.258093 -395.436954 
L 808.156098 -427.322905 
L 818.054102 -415.906331 
L 827.952106 -409.947535 
L 837.850111 -415.887886 
L 847.748115 -402.022305 
L 857.64612 -415.010692 
L 867.544124 -422.866395 
L 877.442129 -419.091005 
L 887.340133 -425.991509 
L 897.238137 -435.874382 
L 907.136142 -451.33115 
L 917.034146 -460.470507 
L 926.932151 -482.459203 
L 936.830155 -474.988102 
L 946.72816 -487.903278 
L 956.626164 -505.891828 
L 966.524169 -525.580151 
L 976.422173 -524.372464 
L 976.422173 -499.485925 
L 976.422173 -499.485925 
L 966.524169 -490.808631 
L 956.626164 -479.227736 
L 946.72816 -466.941024 
L 936.830155 -436.730901 
L 926.932151 -454.711903 
L 917.034146 -439.655328 
L 907.136142 -431.315144 
L 897.238137 -407.479066 
L 887.340133 -408.413397 
L 877.442129 -400.267532 
L 867.544124 -408.421682 
L 857.64612 -393.221897 
L 847.748115 -376.415844 
L 837.850111 -371.302919 
L 827.952106 -363.797935 
L 818.054102 -359.518745 
L 808.156098 -353.421117 
L 798.258093 -330.978183 
L 788.360089 -306.957024 
L 778.462084 -293.792763 
L 768.56408 -291.136365 
L 758.666075 -278.308714 
L 748.768071 -254.47593 
L 738.870067 -291.864425 
L 728.972062 -248.006816 
L 719.074058 -269.193966 
L 709.176053 -253.904302 
L 699.278049 -268.243208 
L 689.380044 -270.824213 
L 679.48204 -215.584667 
L 669.584035 -221.826989 
L 659.686031 -226.429652 
L 649.788027 -223.664358 
L 639.890022 -232.115205 
L 629.992018 -216.213861 
L 620.094013 -193.154792 
L 610.196009 -205.414035 
L 600.298004 -226.528728 
L 590.4 -232.696879 
L 580.501996 -219.741202 
L 570.603991 -208.995353 
L 560.705987 -198.623126 
L 550.807982 -178.112819 
L 540.909978 -185.304708 
L 531.011973 -164.043025 
L 521.113969 -163.346869 
L 511.215965 -154.131231 
L 501.31796 -167.060245 
L 491.419956 -164.258362 
L 481.521951 -158.446052 
L 471.623947 -147.199591 
L 461.725942 -158.740112 
L 451.827938 -180.993244 
L 441.929933 -168.941431 
L 432.031929 -165.337698 
L 422.133925 -173.932522 
L 412.23592 -207.348097 
L 402.337916 -188.171784 
L 392.439911 -187.919967 
L 382.541907 -184.896701 
z
" id="m220a844be6" style="stroke:#555555;stroke-opacity:0.1;"/>
    </defs>
    <g clip-path="url(#pca645a5327)">
     <use style="fill:#555555;fill-opacity:0.1;stroke:#555555;stroke-opacity:0.1;" x="0" xlink:href="#m220a844be6" y="648"/>
    </g>
   </g>
   <g id="PolyCollection_2">
    <defs>
     <path d="M 333.051885 -194.042662 
L 333.051885 -242.298601 
L 342.949889 -236.791747 
L 352.847894 -203.750621 
L 362.745898 -251.594966 
L 372.643902 -244.782363 
L 382.541907 -250.218253 
L 392.439911 -239.559367 
L 402.337916 -261.785485 
L 412.23592 -240.581258 
L 422.133925 -232.391941 
L 432.031929 -224.529061 
L 441.929933 -214.097263 
L 451.827938 -206.986608 
L 461.725942 -194.482642 
L 471.623947 -207.568518 
L 481.521951 -200.642371 
L 491.419956 -217.375828 
L 501.31796 -205.624087 
L 511.215965 -231.483594 
L 521.113969 -234.563458 
L 531.011973 -248.217051 
L 540.909978 -235.400841 
L 550.807982 -274.232679 
L 560.705987 -270.471555 
L 570.603991 -257.073435 
L 580.501996 -285.076073 
L 590.4 -273.125631 
L 600.298004 -243.874016 
L 610.196009 -250.942092 
L 620.094013 -274.999097 
L 629.992018 -282.578118 
L 639.890022 -264.62407 
L 649.788027 -258.464341 
L 659.686031 -285.033494 
L 669.584035 -283.812903 
L 679.48204 -278.973116 
L 689.380044 -305.144867 
L 699.278049 -276.801599 
L 709.176053 -279.540833 
L 719.074058 -295.621415 
L 728.972062 -304.946166 
L 738.870067 -343.210288 
L 748.768071 -317.308202 
L 758.666075 -332.593981 
L 768.56408 -351.76862 
L 778.462084 -351.655077 
L 788.360089 -337.859555 
L 798.258093 -367.380836 
L 808.156098 -413.678153 
L 818.054102 -412.954314 
L 827.952106 -387.492209 
L 837.850111 -414.458763 
L 847.748115 -401.42966 
L 857.64612 -412.854963 
L 867.544124 -412.386597 
L 877.442129 -415.934828 
L 887.340133 -424.180916 
L 897.238137 -424.010601 
L 907.136142 -450.991349 
L 917.034146 -458.598756 
L 926.932151 -481.974501 
L 936.830155 -469.995673 
L 946.72816 -493.953328 
L 956.626164 -508.728161 
L 966.524169 -518.421928 
L 976.422173 -521.998545 
L 986.320177 -534.715404 
L 996.218182 -547.56 
L 996.218182 -538.476529 
L 996.218182 -538.476529 
L 986.320177 -524.297798 
L 976.422173 -502.639397 
L 966.524169 -511.949955 
L 956.626164 -493.144331 
L 946.72816 -483.96151 
L 936.830155 -453.81574 
L 926.932151 -474.480637 
L 917.034146 -445.030321 
L 907.136142 -433.903069 
L 897.238137 -413.76331 
L 887.340133 -411.549214 
L 877.442129 -405.545608 
L 867.544124 -402.252849 
L 857.64612 -399.68393 
L 847.748115 -394.815757 
L 837.850111 -408.80998 
L 827.952106 -378.493895 
L 818.054102 -404.921119 
L 808.156098 -396.022156 
L 798.258093 -352.535038 
L 788.360089 -306.209336 
L 778.462084 -336.553806 
L 768.56408 -344.132828 
L 758.666075 -316.783064 
L 748.768071 -302.008231 
L 738.870067 -312.97936 
L 728.972062 -286.523751 
L 719.074058 -274.445573 
L 709.176053 -267.079446 
L 699.278049 -266.639465 
L 689.380044 -297.168444 
L 679.48204 -253.255538 
L 669.584035 -269.023876 
L 659.686031 -273.054667 
L 649.788027 -243.391457 
L 639.890022 -233.144166 
L 629.992018 -247.748684 
L 620.094013 -239.176158 
L 610.196009 -197.832172 
L 600.298004 -217.87258 
L 590.4 -257.541801 
L 580.501996 -273.097245 
L 570.603991 -242.880511 
L 560.705987 -258.208869 
L 550.807982 -253.880027 
L 540.909978 -217.915159 
L 531.011973 -234.96086 
L 521.113969 -213.870176 
L 511.215965 -195.83097 
L 501.31796 -172.86682 
L 491.419956 -202.899046 
L 481.521951 -176.173771 
L 471.623947 -192.438861 
L 461.725942 -170.127586 
L 451.827938 -196.427073 
L 441.929933 -201.153316 
L 432.031929 -215.814606 
L 422.133925 -206.22019 
L 412.23592 -222.130457 
L 402.337916 -234.904088 
L 392.439911 -227.608926 
L 382.541907 -236.053715 
L 372.643902 -220.285377 
L 362.745898 -232.093889 
L 352.847894 -192.509826 
L 342.949889 -216.382323 
L 333.051885 -194.042662 
z
" id="m74785576e0" style="stroke:#e69f00;stroke-opacity:0.1;"/>
    </defs>
    <g clip-path="url(#pca645a5327)">
     <use style="fill:#e69f00;fill-opacity:0.1;stroke:#e69f00;stroke-opacity:0.1;" x="0" xlink:href="#m74785576e0" y="648"/>
    </g>
   </g>
   <g id="patch_3">
    <path d="M 144 576.72 
L 1036.8 576.72 
" style="fill:none;stroke:#d3d3d3;stroke-linecap:square;stroke-linejoin:miter;stroke-width:1.25;"/>
   </g>
   <g id="matplotlib.axis_1">
    <g id="xtick_1">
     <g id="line2d_1">
      <defs>
       <path d="M 0 0 
L 0 6 
" id="m2782c43d4c" style="stroke:#696969;stroke-width:1.25;"/>
      </defs>
      <g>
       <use style="fill:#696969;stroke:#696969;stroke-width:1.25;" x="184.581818" xlink:href="#m2782c43d4c" y="576.72"/>
      </g>
     </g>
     <g id="text_1">
      <!-- 1940 -->
      <g style="fill:#696969;" transform="translate(167.130256 596.218438)scale(0.15 -0.15)">
       <defs>
        <path d="M 55.859375 6.203125 
L 55.859375 0 
L 9.1875 0 
L 9.1875 6.203125 
L 29.203125 6.203125 
L 29.203125 57.671875 
Q 20.359375 48.4375 10.84375 43.265625 
L 10.84375 51.65625 
Q 23.96875 58.546875 31.203125 68.015625 
L 37.15625 68.015625 
L 37.15625 6.203125 
z
" id="FranklinGothic-Book-49"/>
        <path d="M 5.71875 12.15625 
L 12.40625 14.59375 
Q 16.546875 5.375 26.375 5.375 
Q 35.890625 5.375 40.703125 13.375 
Q 45.515625 21.390625 45.65625 35.109375 
Q 39.109375 23.09375 25.984375 23.09375 
Q 16.703125 23.09375 10.40625 29.421875 
Q 4.109375 35.75 4.109375 45.0625 
Q 4.109375 54.546875 10.71875 61.28125 
Q 17.328125 68.015625 27.59375 68.015625 
Q 40.140625 68.015625 46.828125 59.203125 
Q 53.515625 50.390625 53.515625 34.96875 
Q 53.515625 18.75 46.4375 8.71875 
Q 39.359375 -1.3125 26.265625 -1.3125 
Q 10.984375 -1.3125 5.71875 12.15625 
z
M 27.828125 29.78125 
Q 34.71875 29.78125 39.375 34.59375 
Q 44.046875 39.40625 44.046875 45.84375 
Q 44.046875 52.09375 39.625 56.578125 
Q 35.203125 61.078125 27.984375 61.078125 
Q 20.65625 61.078125 16.40625 56.46875 
Q 12.15625 51.859375 12.15625 45.21875 
Q 12.15625 38.09375 16.859375 33.9375 
Q 21.578125 29.78125 27.828125 29.78125 
z
" id="FranklinGothic-Book-57"/>
        <path d="M 44.09375 0 
L 36.03125 0 
L 36.03125 15.875 
L 3.078125 15.875 
L 3.078125 21.484375 
L 33.640625 68.0625 
L 44.09375 68.0625 
L 44.09375 22.46875 
L 54.890625 22.46875 
L 54.890625 15.875 
L 44.09375 15.875 
z
M 36.03125 22.46875 
L 36.03125 54 
Q 36.03125 57.421875 36.1875 61.375 
Q 34.078125 57.515625 32.5625 55.125 
L 11.765625 22.46875 
z
" id="FranklinGothic-Book-52"/>
        <path d="M 29.390625 -1.3125 
Q 17.875 -1.3125 10.984375 8.671875 
Q 4.109375 18.65625 4.109375 33.453125 
Q 4.109375 48 10.640625 58 
Q 17.1875 68.015625 29.15625 68.015625 
Q 41.65625 68.015625 48.125 57.5625 
Q 54.59375 47.125 54.59375 33.0625 
Q 54.59375 19.28125 47.953125 8.984375 
Q 41.3125 -1.3125 29.390625 -1.3125 
z
M 29.4375 5.21875 
Q 37.890625 5.21875 41.9375 12.859375 
Q 46 20.515625 46 32.078125 
Q 46 44.734375 41.84375 53.125 
Q 37.703125 61.53125 29.046875 61.53125 
Q 20.703125 61.53125 16.625 53.859375 
Q 12.546875 46.1875 12.546875 33.6875 
Q 12.546875 20.703125 16.84375 12.953125 
Q 21.140625 5.21875 29.4375 5.21875 
z
" id="FranklinGothic-Book-48"/>
       </defs>
       <use xlink:href="#FranklinGothic-Book-49"/>
       <use x="57.267578" xlink:href="#FranklinGothic-Book-57"/>
       <use x="115.410156" xlink:href="#FranklinGothic-Book-52"/>
       <use x="174.052734" xlink:href="#FranklinGothic-Book-48"/>
      </g>
     </g>
    </g>
    <g id="xtick_2">
     <g id="line2d_2">
      <g>
       <use style="fill:#696969;stroke:#696969;stroke-width:1.25;" x="382.541907" xlink:href="#m2782c43d4c" y="576.72"/>
      </g>
     </g>
     <g id="text_2">
      <!-- 1960 -->
      <g style="fill:#696969;" transform="translate(365.052844 596.218438)scale(0.15 -0.15)">
       <defs>
        <path d="M 53.5625 53.03125 
L 46.046875 50.984375 
Q 42.1875 61.140625 31.984375 61.140625 
Q 13.234375 61.140625 12.796875 30.125 
Q 15.765625 37.015625 21.234375 40.328125 
Q 26.703125 43.65625 32.8125 43.65625 
Q 42.09375 43.65625 48.359375 37.1875 
Q 54.640625 30.71875 54.640625 21.6875 
Q 54.640625 12.3125 47.96875 5.5 
Q 41.3125 -1.3125 30.90625 -1.3125 
Q 19.09375 -1.3125 12.078125 7.59375 
Q 5.078125 16.5 5.078125 31.84375 
Q 5.078125 46.828125 11.6875 57.421875 
Q 18.3125 68.015625 32.171875 68.015625 
Q 48.140625 68.015625 53.5625 53.03125 
z
M 30.765625 5.375 
Q 37.84375 5.375 42.359375 10.03125 
Q 46.875 14.703125 46.875 21.234375 
Q 46.875 27.6875 42.453125 32.296875 
Q 38.03125 36.921875 31.5 36.921875 
Q 24.75 36.921875 19.71875 32.078125 
Q 14.703125 27.25 14.703125 20.75 
Q 14.703125 14.75 19.1875 10.0625 
Q 23.6875 5.375 30.765625 5.375 
z
" id="FranklinGothic-Book-54"/>
       </defs>
       <use xlink:href="#FranklinGothic-Book-49"/>
       <use x="57.267578" xlink:href="#FranklinGothic-Book-57"/>
       <use x="115.910156" xlink:href="#FranklinGothic-Book-54"/>
       <use x="174.552734" xlink:href="#FranklinGothic-Book-48"/>
      </g>
     </g>
    </g>
    <g id="xtick_3">
     <g id="line2d_3">
      <g>
       <use style="fill:#696969;stroke:#696969;stroke-width:1.25;" x="580.501996" xlink:href="#m2782c43d4c" y="576.72"/>
      </g>
     </g>
     <g id="text_3">
      <!-- 1980 -->
      <g style="fill:#696969;" transform="translate(563.012933 596.218438)scale(0.15 -0.15)">
       <defs>
        <path d="M 19.484375 34.578125 
Q 6.84375 40.09375 6.84375 50.59375 
Q 6.84375 58.203125 13.140625 63.109375 
Q 19.4375 68.015625 29.828125 68.015625 
Q 40.09375 68.015625 46.140625 63.296875 
Q 52.203125 58.59375 52.203125 50.984375 
Q 52.203125 40.375 39.265625 35.796875 
Q 49.703125 30.953125 52.359375 26.453125 
Q 55.03125 21.96875 55.03125 17.484375 
Q 55.03125 9.46875 48.21875 4.078125 
Q 41.40625 -1.3125 29.734375 -1.3125 
Q 17.28125 -1.3125 10.4375 4.171875 
Q 3.609375 9.671875 3.609375 17.234375 
Q 3.609375 28.515625 19.484375 34.578125 
z
M 29.59375 38.71875 
Q 37.984375 40.96875 41.453125 43.890625 
Q 44.921875 46.828125 44.921875 51.21875 
Q 44.921875 56.34375 40.796875 59 
Q 36.671875 61.671875 29.9375 61.671875 
Q 23.484375 61.671875 19.375 58.859375 
Q 15.28125 56.0625 15.28125 51.3125 
Q 15.28125 46.625 19.84375 43.203125 
Q 24.421875 39.796875 29.59375 38.71875 
z
M 28.65625 31.0625 
Q 11.765625 27.046875 11.765625 16.9375 
Q 11.765625 11.671875 16.375 8.328125 
Q 21 4.984375 29.984375 4.984375 
Q 37.59375 4.984375 42.234375 8.25 
Q 46.875 11.53125 46.875 16.609375 
Q 46.875 26.3125 28.65625 31.0625 
z
" id="FranklinGothic-Book-56"/>
       </defs>
       <use xlink:href="#FranklinGothic-Book-49"/>
       <use x="57.267578" xlink:href="#FranklinGothic-Book-57"/>
       <use x="115.910156" xlink:href="#FranklinGothic-Book-56"/>
       <use x="174.552734" xlink:href="#FranklinGothic-Book-48"/>
      </g>
     </g>
    </g>
    <g id="xtick_4">
     <g id="line2d_4">
      <g>
       <use style="fill:#696969;stroke:#696969;stroke-width:1.25;" x="778.462084" xlink:href="#m2782c43d4c" y="576.72"/>
      </g>
     </g>
     <g id="text_4">
      <!-- 2000 -->
      <g style="fill:#696969;" transform="translate(760.869897 596.218438)scale(0.15 -0.15)">
       <defs>
        <path d="M 52.484375 6.9375 
L 52.484375 0 
L 5.171875 0 
L 5.171875 6.9375 
Q 33.203125 27.9375 38.59375 34.59375 
Q 44 41.265625 44 47.796875 
Q 44 53.90625 39.453125 57.65625 
Q 34.90625 61.421875 29 61.421875 
Q 22.90625 61.421875 18.21875 57.296875 
Q 13.53125 53.171875 12.9375 46.09375 
L 5.171875 48.4375 
Q 10.0625 68.015625 29.109375 68.015625 
Q 39.40625 68.015625 45.84375 62.15625 
Q 52.296875 56.296875 52.296875 47.859375 
Q 52.296875 42.046875 49.234375 36.671875 
Q 46.1875 31.296875 37.6875 23.828125 
Q 29.203125 16.359375 15.71875 6.9375 
z
" id="FranklinGothic-Book-50"/>
       </defs>
       <use xlink:href="#FranklinGothic-Book-50"/>
       <use x="58.642578" xlink:href="#FranklinGothic-Book-48"/>
       <use x="117.285156" xlink:href="#FranklinGothic-Book-48"/>
       <use x="175.927734" xlink:href="#FranklinGothic-Book-48"/>
      </g>
     </g>
    </g>
    <g id="xtick_5">
     <g id="line2d_5">
      <g>
       <use style="fill:#696969;stroke:#696969;stroke-width:1.25;" x="976.422173" xlink:href="#m2782c43d4c" y="576.72"/>
      </g>
     </g>
     <g id="text_5">
      <!-- 2020 -->
      <g style="fill:#696969;" transform="translate(958.829985 596.218438)scale(0.15 -0.15)">
       <use xlink:href="#FranklinGothic-Book-50"/>
       <use x="58.642578" xlink:href="#FranklinGothic-Book-48"/>
       <use x="117.285156" xlink:href="#FranklinGothic-Book-50"/>
       <use x="175.927734" xlink:href="#FranklinGothic-Book-48"/>
      </g>
     </g>
    </g>
    <g id="text_6">
     <!-- Year -->
     <g style="fill:#696969;" transform="translate(572.109375 616.048125)scale(0.2 -0.2)">
      <defs>
       <path d="M 52 66.65625 
L 29.6875 28.03125 
L 29.6875 0 
L 21.34375 0 
L 21.34375 28.03125 
L -0.984375 66.65625 
L 8.84375 66.65625 
L 26.5625 35.984375 
L 44.390625 66.65625 
z
" id="FranklinGothic-Book-89"/>
       <path d="M 40.234375 14.703125 
L 47.359375 13.234375 
Q 45.40625 6.9375 39.734375 2.8125 
Q 34.078125 -1.3125 26.421875 -1.3125 
Q 16.3125 -1.3125 10.0625 5.78125 
Q 3.8125 12.890625 3.8125 24.421875 
Q 3.8125 36.1875 10.296875 43.4375 
Q 16.796875 50.6875 26.609375 50.6875 
Q 36.28125 50.6875 42.15625 44 
Q 48.046875 37.3125 48.1875 23.96875 
L 12.359375 23.96875 
Q 12.359375 12.796875 17.046875 8.890625 
Q 21.734375 4.984375 26.953125 4.984375 
Q 36.375 4.984375 40.234375 14.703125 
z
M 39.796875 29.6875 
Q 39.703125 33.84375 38.421875 37.0625 
Q 37.15625 40.28125 34.125 42.546875 
Q 31.109375 44.828125 26.859375 44.828125 
Q 21.140625 44.828125 17.15625 40.71875 
Q 13.1875 36.625 12.703125 29.6875 
z
" id="FranklinGothic-Book-101"/>
       <path d="M 46.296875 0 
L 38.671875 0 
Q 38.234375 2.34375 37.796875 8.890625 
Q 32.71875 -1.3125 20.515625 -1.3125 
Q 12.203125 -1.3125 7.765625 3.078125 
Q 3.328125 7.46875 3.328125 13.625 
Q 3.328125 21.09375 9.671875 25.90625 
Q 16.015625 30.71875 31.25 30.71875 
Q 33.296875 30.71875 37.796875 30.515625 
Q 37.796875 36.375 36.890625 38.984375 
Q 35.984375 41.609375 33.046875 43.171875 
Q 30.125 44.734375 25.34375 44.734375 
Q 13.671875 44.734375 11.765625 35.84375 
L 4.6875 37.0625 
Q 7.28125 50.6875 26.46875 50.6875 
Q 36.671875 50.6875 40.9375 46.171875 
Q 45.21875 41.65625 45.21875 30.515625 
L 45.21875 9.578125 
Q 45.21875 4.34375 46.296875 0 
z
M 37.796875 24.65625 
Q 33.109375 24.953125 30.671875 24.953125 
Q 21.578125 24.953125 16.546875 21.96875 
Q 11.53125 19 11.53125 13.28125 
Q 11.53125 9.671875 14.234375 7.125 
Q 16.9375 4.59375 22.078125 4.59375 
Q 29 4.59375 33.46875 9.625 
Q 37.9375 14.65625 37.9375 21.4375 
Q 37.9375 22.796875 37.796875 24.65625 
z
" id="FranklinGothic-Book-97"/>
       <path d="M 15.328125 0 
L 7.671875 0 
L 7.671875 49.3125 
L 14.40625 49.3125 
L 14.40625 37.796875 
Q 17.96875 45.953125 21.546875 48.359375 
Q 25.140625 50.78125 28.90625 50.78125 
Q 30.078125 50.78125 31.9375 50.59375 
L 31.9375 43.265625 
L 30.375 43.265625 
Q 24.03125 43.265625 19.828125 38.53125 
Q 15.625 33.796875 15.328125 26.078125 
z
" id="FranklinGothic-Book-114"/>
      </defs>
      <use xlink:href="#FranklinGothic-Book-89"/>
      <use x="45.025391" xlink:href="#FranklinGothic-Book-101"/>
      <use x="97.076172" xlink:href="#FranklinGothic-Book-97"/>
      <use x="149.957031" xlink:href="#FranklinGothic-Book-114"/>
     </g>
    </g>
   </g>
   <g id="matplotlib.axis_2">
    <g id="ytick_1">
     <g id="line2d_6">
      <path clip-path="url(#pca645a5327)" d="M 144 542.275643 
L 1036.8 542.275643 
" style="fill:none;stroke:#d3d3d3;stroke-linecap:round;stroke-opacity:0.5;"/>
     </g>
     <g id="text_7">
      <!-- −150 -->
      <g style="fill:#696969;" transform="translate(99.521875 547.274862)scale(0.15 -0.15)">
       <defs>
        <path d="M 6 36.765625 
L 52.6875 36.765625 
L 52.6875 30.03125 
L 6 30.03125 
z
" id="FranklinGothic-Book-8722"/>
        <path d="M 48.875 66.65625 
L 48.1875 59.46875 
L 15.4375 59.46875 
L 14.015625 37.84375 
Q 21.4375 45.125 30.328125 45.125 
Q 39.703125 45.125 46.515625 38.625 
Q 53.328125 32.125 53.328125 22.015625 
Q 53.328125 11.765625 45.921875 5.21875 
Q 38.53125 -1.3125 27.828125 -1.3125 
Q 19.4375 -1.3125 12.890625 3.078125 
Q 6.34375 7.46875 4.296875 14.453125 
L 11.421875 16.890625 
Q 15.828125 5.28125 27.9375 5.28125 
Q 35.890625 5.28125 40.578125 9.984375 
Q 45.265625 14.703125 45.265625 22.015625 
Q 45.265625 29.6875 40.625 33.984375 
Q 35.984375 38.28125 29.5 38.28125 
Q 20.015625 38.28125 13.8125 29.203125 
L 7.234375 30.609375 
L 9.375 66.65625 
z
" id="FranklinGothic-Book-53"/>
       </defs>
       <use xlink:href="#FranklinGothic-Book-8722"/>
       <use x="58.642578" xlink:href="#FranklinGothic-Book-49"/>
       <use x="115.910156" xlink:href="#FranklinGothic-Book-53"/>
       <use x="174.552734" xlink:href="#FranklinGothic-Book-48"/>
      </g>
     </g>
    </g>
    <g id="ytick_2">
     <g id="line2d_7">
      <path clip-path="url(#pca645a5327)" d="M 144 471.311026 
L 1036.8 471.311026 
" style="fill:none;stroke:#d3d3d3;stroke-linecap:round;stroke-opacity:0.5;"/>
     </g>
     <g id="text_8">
      <!-- −100 -->
      <g style="fill:#696969;" transform="translate(99.803125 476.310245)scale(0.15 -0.15)">
       <use xlink:href="#FranklinGothic-Book-8722"/>
       <use x="58.642578" xlink:href="#FranklinGothic-Book-49"/>
       <use x="114.035156" xlink:href="#FranklinGothic-Book-48"/>
       <use x="172.677734" xlink:href="#FranklinGothic-Book-48"/>
      </g>
     </g>
    </g>
    <g id="ytick_3">
     <g id="line2d_8">
      <path clip-path="url(#pca645a5327)" d="M 144 400.346408 
L 1036.8 400.346408 
" style="fill:none;stroke:#d3d3d3;stroke-linecap:round;stroke-opacity:0.5;"/>
     </g>
     <g id="text_9">
      <!-- −50 -->
      <g style="fill:#696969;" transform="translate(108.111719 405.345627)scale(0.15 -0.15)">
       <use xlink:href="#FranklinGothic-Book-8722"/>
       <use x="58.642578" xlink:href="#FranklinGothic-Book-53"/>
       <use x="117.285156" xlink:href="#FranklinGothic-Book-48"/>
      </g>
     </g>
    </g>
    <g id="ytick_4">
     <g id="line2d_9">
      <path clip-path="url(#pca645a5327)" d="M 144 329.381791 
L 1036.8 329.381791 
" style="fill:none;stroke:#d3d3d3;stroke-linecap:round;stroke-opacity:0.5;"/>
     </g>
     <g id="text_10">
      <!-- 0 -->
      <g style="fill:#696969;" transform="translate(125.703906 334.38101)scale(0.15 -0.15)">
       <use xlink:href="#FranklinGothic-Book-48"/>
      </g>
     </g>
    </g>
    <g id="ytick_5">
     <g id="line2d_10">
      <path clip-path="url(#pca645a5327)" d="M 144 258.417174 
L 1036.8 258.417174 
" style="fill:none;stroke:#d3d3d3;stroke-linecap:round;stroke-opacity:0.5;"/>
     </g>
     <g id="text_11">
      <!-- 50 -->
      <g style="fill:#696969;" transform="translate(116.907813 263.416392)scale(0.15 -0.15)">
       <use xlink:href="#FranklinGothic-Book-53"/>
       <use x="58.642578" xlink:href="#FranklinGothic-Book-48"/>
      </g>
     </g>
    </g>
    <g id="ytick_6">
     <g id="line2d_11">
      <path clip-path="url(#pca645a5327)" d="M 144 187.452556 
L 1036.8 187.452556 
" style="fill:none;stroke:#d3d3d3;stroke-linecap:round;stroke-opacity:0.5;"/>
     </g>
     <g id="text_12">
      <!-- 100 -->
      <g style="fill:#696969;" transform="translate(108.599219 192.451775)scale(0.15 -0.15)">
       <use xlink:href="#FranklinGothic-Book-49"/>
       <use x="55.392578" xlink:href="#FranklinGothic-Book-48"/>
       <use x="114.035156" xlink:href="#FranklinGothic-Book-48"/>
      </g>
     </g>
    </g>
    <g id="ytick_7">
     <g id="line2d_12">
      <path clip-path="url(#pca645a5327)" d="M 144 116.487939 
L 1036.8 116.487939 
" style="fill:none;stroke:#d3d3d3;stroke-linecap:round;stroke-opacity:0.5;"/>
     </g>
     <g id="text_13">
      <!-- 150 -->
      <g style="fill:#696969;" transform="translate(108.317969 121.487157)scale(0.15 -0.15)">
       <use xlink:href="#FranklinGothic-Book-49"/>
       <use x="57.267578" xlink:href="#FranklinGothic-Book-53"/>
       <use x="115.910156" xlink:href="#FranklinGothic-Book-48"/>
      </g>
     </g>
    </g>
    <g id="text_14">
     <!-- zJ -->
     <g style="fill:#696969;" transform="translate(86.190625 335.20875)rotate(-90)scale(0.2 -0.2)">
      <defs>
       <path d="M 39.65625 5.90625 
L 39.65625 0 
L 3.328125 0 
L 3.328125 5.90625 
L 29.546875 43.3125 
L 5.328125 43.3125 
L 5.328125 49.3125 
L 39.65625 49.3125 
L 39.65625 45.171875 
L 12.5 5.90625 
z
" id="FranklinGothic-Book-122"/>
       <path d="M 29.6875 66.65625 
L 29.6875 20.359375 
Q 29.6875 8.25 24.21875 3.46875 
Q 18.75 -1.3125 9.71875 -1.3125 
Q 4.890625 -1.3125 0 0 
L 0 6.84375 
Q 4.78125 5.859375 8.6875 5.859375 
Q 14.265625 5.859375 16.890625 7.515625 
Q 19.53125 9.1875 20.4375 11.8125 
Q 21.34375 14.453125 21.34375 20.359375 
L 21.34375 66.65625 
z
" id="FranklinGothic-Book-74"/>
      </defs>
      <use xlink:href="#FranklinGothic-Book-122"/>
      <use x="42.333984" xlink:href="#FranklinGothic-Book-74"/>
     </g>
    </g>
   </g>
   <g id="text_15">
    <!-- Compared to 1981-2010 average -->
    <g style="fill:#696969;" transform="translate(144 75.2652)scale(0.3 -0.3)">
     <defs>
      <path d="M 48.296875 22.40625 
L 55.90625 20.703125 
Q 50.4375 -1.3125 31.203125 -1.3125 
Q 18.5625 -1.3125 11.359375 8.890625 
Q 4.15625 19.09375 4.15625 33.984375 
Q 4.15625 49.359375 11.671875 58.6875 
Q 19.1875 68.015625 31.84375 68.015625 
Q 50.59375 68.015625 55.90625 46.578125 
L 48.046875 45.015625 
Q 43.75 60.9375 31.78125 60.9375 
Q 22.953125 60.9375 18.09375 53.53125 
Q 13.234375 46.140625 13.234375 32.765625 
Q 13.234375 20.515625 18.203125 13.109375 
Q 23.1875 5.71875 31.390625 5.71875 
Q 44.140625 5.71875 48.296875 22.40625 
z
" id="FranklinGothic-Book-67"/>
      <path d="M 25.34375 -1.3125 
Q 15.1875 -1.3125 9.5 6.203125 
Q 3.8125 13.71875 3.8125 24.859375 
Q 3.8125 36.625 10.203125 43.65625 
Q 16.609375 50.6875 26.125 50.6875 
Q 36.328125 50.6875 42.203125 43.28125 
Q 48.09375 35.890625 48.09375 24.8125 
Q 48.09375 13.28125 41.75 5.984375 
Q 35.40625 -1.3125 25.34375 -1.3125 
z
M 25.921875 4.984375 
Q 31.78125 4.984375 35.734375 9.8125 
Q 39.703125 14.65625 39.703125 24.859375 
Q 39.703125 35.109375 35.546875 39.71875 
Q 31.390625 44.34375 25.828125 44.34375 
Q 20.125 44.34375 16.15625 39.671875 
Q 12.203125 35.015625 12.203125 24.90625 
Q 12.203125 14.203125 16.15625 9.59375 
Q 20.125 4.984375 25.921875 4.984375 
z
" id="FranklinGothic-Book-111"/>
      <path d="M 73.734375 0 
L 66.265625 0 
L 66.265625 30.671875 
Q 66.265625 35.40625 65.59375 37.765625 
Q 64.9375 40.140625 62.390625 42.109375 
Q 59.859375 44.09375 56.6875 44.09375 
Q 52.296875 44.09375 48.21875 40.0625 
Q 44.140625 36.03125 44.140625 27.78125 
L 44.140625 0 
L 36.71875 0 
L 36.71875 32.46875 
Q 36.71875 38.96875 33.609375 41.65625 
Q 30.515625 44.34375 27.09375 44.34375 
Q 22.21875 44.34375 18.59375 40.140625 
Q 14.984375 35.9375 14.984375 29.5 
L 14.984375 0 
L 7.671875 0 
L 7.671875 49.3125 
L 14.265625 49.3125 
L 14.265625 39.84375 
Q 19.78125 50.6875 29.4375 50.6875 
Q 34.765625 50.6875 38.46875 47.21875 
Q 42.1875 43.75 43.265625 38.875 
Q 48.34375 50.6875 58.84375 50.6875 
Q 63.875 50.6875 67.65625 47.796875 
Q 71.4375 44.921875 72.578125 41.1875 
Q 73.734375 37.453125 73.734375 30.671875 
z
" id="FranklinGothic-Book-109"/>
      <path d="M 15.328125 -16.65625 
L 7.671875 -16.65625 
L 7.671875 49.3125 
L 14.546875 49.3125 
L 14.546875 39.75 
Q 19.78125 50.6875 30.125 50.6875 
Q 38.875 50.6875 44.234375 43.375 
Q 49.609375 36.078125 49.609375 24.90625 
Q 49.609375 12.84375 44.09375 5.765625 
Q 38.578125 -1.3125 29.9375 -1.3125 
Q 20.65625 -1.3125 15.328125 7.515625 
z
M 15.328125 31.78125 
L 15.328125 17.921875 
Q 16.0625 12.3125 20.0625 8.640625 
Q 24.078125 4.984375 28.421875 4.984375 
Q 33.453125 4.984375 37.328125 9.375 
Q 41.21875 13.765625 41.21875 24.5625 
Q 41.21875 33.890625 37.703125 38.9375 
Q 34.1875 44 28.375 44 
Q 23.78125 44 20.140625 40.421875 
Q 16.5 36.859375 15.328125 31.78125 
z
" id="FranklinGothic-Book-112"/>
      <path d="M 46.1875 66.65625 
L 46.1875 0 
L 39.203125 0 
L 39.203125 8.453125 
Q 34.03125 -1.3125 23.640625 -1.3125 
Q 14.984375 -1.3125 9.421875 5.9375 
Q 3.859375 13.1875 3.859375 24.265625 
Q 3.859375 35.59375 9.375 43.140625 
Q 14.890625 50.6875 24.03125 50.6875 
Q 32.90625 50.6875 38.53125 42.578125 
L 38.53125 66.65625 
z
M 38.53125 30.28125 
Q 38.53125 36.765625 34.5625 40.671875 
Q 30.609375 44.578125 25.34375 44.578125 
Q 19.625 44.578125 15.9375 39.5 
Q 12.25 34.421875 12.25 25.25 
Q 12.25 15.328125 15.640625 10.15625 
Q 19.046875 4.984375 24.953125 4.984375 
Q 30.328125 4.984375 34.421875 9.46875 
Q 38.53125 13.96875 38.53125 20.015625 
z
" id="FranklinGothic-Book-100"/>
      <path id="FranklinGothic-Book-32"/>
      <path d="M 30.03125 5.28125 
L 30.03125 -0.78125 
Q 25.984375 -1.3125 23 -1.3125 
Q 8.6875 -1.3125 8.6875 13.625 
L 8.6875 43.3125 
L -0.046875 43.3125 
L -0.046875 49.3125 
L 8.6875 49.3125 
L 9.03125 61.71875 
L 16.15625 62.40625 
L 16.15625 49.3125 
L 27.203125 49.3125 
L 27.203125 43.3125 
L 16.15625 43.3125 
L 16.15625 12.359375 
Q 16.15625 4.734375 24.078125 4.734375 
Q 26.703125 4.734375 30.03125 5.28125 
z
" id="FranklinGothic-Book-116"/>
      <path d="M 23.53125 27.984375 
L 23.53125 22.015625 
L 1.46875 22.015625 
L 1.46875 27.984375 
z
" id="FranklinGothic-Book-45"/>
      <path d="M 43.796875 49.3125 
L 26.765625 0 
L 18.796875 0 
L 1.171875 49.3125 
L 9.671875 49.3125 
L 23.390625 9.234375 
L 36.96875 49.3125 
z
" id="FranklinGothic-Book-118"/>
      <path d="M 47.953125 57.03125 
L 47.953125 50.921875 
Q 42.671875 50.921875 40.890625 49.703125 
Q 39.109375 48.484375 38.53125 45.3125 
Q 43.265625 39.84375 43.265625 33.40625 
Q 43.265625 26.65625 38.109375 21.828125 
Q 32.953125 17 24.265625 17 
Q 22.3125 17 20.90625 17.28125 
Q 18.21875 17.828125 17.53125 17.828125 
Q 16.21875 17.828125 14.359375 16.53125 
Q 12.5 15.234375 12.5 13.1875 
Q 12.5 10.25 15.1875 9.375 
Q 17.875 8.5 27.828125 8.25 
Q 36.28125 8.015625 40.3125 7.109375 
Q 44.34375 6.203125 47.125 3.09375 
Q 49.90625 0 49.90625 -4.5 
Q 49.90625 -18.609375 25.09375 -18.609375 
Q 13.328125 -18.609375 7.9375 -15.0625 
Q 2.546875 -11.53125 2.546875 -5.609375 
Q 2.546875 1.5625 10.0625 4.25 
Q 5.21875 7.421875 5.21875 12.203125 
Q 5.21875 17.921875 12.0625 20.953125 
Q 5.671875 26.125 5.671875 33.984375 
Q 5.671875 41.3125 11.140625 46 
Q 16.609375 50.6875 24.46875 50.6875 
Q 30.03125 50.6875 34.578125 48.578125 
Q 35.296875 53.421875 37.953125 55.265625 
Q 40.625 57.125 46.046875 57.125 
Q 46.578125 57.125 47.953125 57.03125 
z
M 24.515625 22.859375 
Q 29.390625 22.859375 32.46875 25.859375 
Q 35.546875 28.859375 35.546875 33.640625 
Q 35.546875 38.53125 32.34375 41.625 
Q 29.15625 44.734375 24.609375 44.734375 
Q 20.265625 44.734375 16.890625 41.828125 
Q 13.53125 38.921875 13.53125 33.546875 
Q 13.53125 28.765625 16.546875 25.8125 
Q 19.578125 22.859375 24.515625 22.859375 
z
M 15.328125 2 
Q 9.96875 -0.34375 9.96875 -4.78125 
Q 9.96875 -8.546875 14.375 -10.625 
Q 18.796875 -12.703125 25.640625 -12.703125 
Q 31.984375 -12.703125 37.25 -10.90625 
Q 42.53125 -9.125 42.53125 -4.890625 
Q 42.53125 -2.59375 40.96875 -1.125 
Q 39.40625 0.34375 36.6875 0.734375 
Q 33.984375 1.125 27.25 1.3125 
Q 19.1875 1.515625 15.328125 2 
z
" id="FranklinGothic-Book-103"/>
     </defs>
     <use xlink:href="#FranklinGothic-Book-67"/>
     <use x="57.910156" xlink:href="#FranklinGothic-Book-111"/>
     <use x="109.863281" xlink:href="#FranklinGothic-Book-109"/>
     <use x="190.384766" xlink:href="#FranklinGothic-Book-112"/>
     <use x="243.802734" xlink:href="#FranklinGothic-Book-97"/>
     <use x="296.683594" xlink:href="#FranklinGothic-Book-114"/>
     <use x="329.642578" xlink:href="#FranklinGothic-Book-101"/>
     <use x="381.693359" xlink:href="#FranklinGothic-Book-100"/>
     <use x="435.550781" xlink:href="#FranklinGothic-Book-32"/>
     <use x="460.550781" xlink:href="#FranklinGothic-Book-116"/>
     <use x="489.8125" xlink:href="#FranklinGothic-Book-111"/>
     <use x="541.765625" xlink:href="#FranklinGothic-Book-32"/>
     <use x="566.765625" xlink:href="#FranklinGothic-Book-49"/>
     <use x="624.033203" xlink:href="#FranklinGothic-Book-57"/>
     <use x="682.675781" xlink:href="#FranklinGothic-Book-56"/>
     <use x="737.443359" xlink:href="#FranklinGothic-Book-49"/>
     <use x="796.085938" xlink:href="#FranklinGothic-Book-45"/>
     <use x="821.085938" xlink:href="#FranklinGothic-Book-50"/>
     <use x="879.728516" xlink:href="#FranklinGothic-Book-48"/>
     <use x="934.621094" xlink:href="#FranklinGothic-Book-49"/>
     <use x="990.013672" xlink:href="#FranklinGothic-Book-48"/>
     <use x="1048.65625" xlink:href="#FranklinGothic-Book-32"/>
     <use x="1073.65625" xlink:href="#FranklinGothic-Book-97"/>
     <use x="1124.287109" xlink:href="#FranklinGothic-Book-118"/>
     <use x="1167.806641" xlink:href="#FranklinGothic-Book-101"/>
     <use x="1219.857422" xlink:href="#FranklinGothic-Book-114"/>
     <use x="1252.816406" xlink:href="#FranklinGothic-Book-97"/>
     <use x="1305.697266" xlink:href="#FranklinGothic-Book-103"/>
     <use x="1354.818359" xlink:href="#FranklinGothic-Book-101"/>
    </g>
   </g>
   <g id="text_16">
    <!-- Ocean heat content -->
    <g style="fill:#696969;" transform="translate(144 42.76)scale(0.4 -0.4)">
     <defs>
      <path d="M 31.34375 -1.3125 
Q 18.5 -1.3125 11.328125 8.671875 
Q 4.15625 18.65625 4.15625 33.15625 
Q 4.15625 48.296875 11.671875 58.15625 
Q 19.1875 68.015625 31.59375 68.015625 
Q 43.953125 68.015625 51.421875 58.328125 
Q 58.890625 48.640625 58.890625 33.890625 
Q 58.890625 19.734375 51.640625 9.203125 
Q 44.390625 -1.3125 31.34375 -1.3125 
z
M 31.546875 5.46875 
Q 40.28125 5.46875 45.203125 13.421875 
Q 50.140625 21.390625 50.140625 33.9375 
Q 50.140625 46.828125 45.03125 54 
Q 39.9375 61.1875 31.5 61.1875 
Q 22.953125 61.1875 17.921875 53.421875 
Q 12.890625 45.65625 12.890625 33.109375 
Q 12.890625 20.84375 17.96875 13.15625 
Q 23.046875 5.46875 31.546875 5.46875 
z
" id="FranklinGothic-Book-79"/>
      <path d="M 36.8125 17.28125 
L 43.75 16.0625 
Q 42.28125 7.90625 37.25 3.296875 
Q 32.234375 -1.3125 24.703125 -1.3125 
Q 14.5 -1.3125 9.15625 6.203125 
Q 3.8125 13.71875 3.8125 24.5625 
Q 3.8125 35.796875 9.453125 43.234375 
Q 15.09375 50.6875 24.8125 50.6875 
Q 32.859375 50.6875 37.71875 45.875 
Q 42.578125 41.0625 43.75 33.453125 
L 36.8125 32.125 
Q 34.859375 44.34375 25 44.34375 
Q 18.65625 44.34375 15.234375 38.9375 
Q 11.8125 33.546875 11.8125 24.953125 
Q 11.8125 15.484375 15.203125 10.234375 
Q 18.609375 4.984375 24.75 4.984375 
Q 34.28125 4.984375 36.8125 17.28125 
z
" id="FranklinGothic-Book-99"/>
      <path d="M 46.53125 0 
L 39.359375 0 
L 39.359375 31.6875 
Q 39.359375 38.53125 36.375 41.3125 
Q 33.40625 44.09375 29.15625 44.09375 
Q 23.296875 44.09375 19.3125 39.40625 
Q 15.328125 34.71875 15.328125 27.046875 
L 15.328125 0 
L 7.671875 0 
L 7.671875 49.3125 
L 14.796875 49.3125 
L 14.796875 40.234375 
Q 20.796875 50.6875 30.375 50.6875 
Q 35.890625 50.6875 39.765625 47.828125 
Q 43.65625 44.96875 45.09375 41.40625 
Q 46.53125 37.84375 46.53125 28.515625 
z
" id="FranklinGothic-Book-110"/>
      <path d="M 46.34375 0 
L 38.671875 0 
L 38.671875 29.9375 
Q 38.671875 35.203125 38.015625 37.84375 
Q 37.359375 40.484375 34.890625 42.40625 
Q 32.421875 44.34375 29.203125 44.34375 
Q 23.296875 44.34375 19.3125 39.5 
Q 15.328125 34.671875 15.328125 26.5625 
L 15.328125 0 
L 7.671875 0 
L 7.671875 66.65625 
L 15.328125 66.65625 
L 15.328125 40.234375 
Q 20.5625 50.6875 30.28125 50.6875 
Q 34.625 50.6875 38.015625 48.96875 
Q 41.40625 47.265625 43.203125 44.484375 
Q 45.015625 41.703125 45.671875 38.984375 
Q 46.34375 36.28125 46.34375 29.9375 
z
" id="FranklinGothic-Book-104"/>
     </defs>
     <use xlink:href="#FranklinGothic-Book-79"/>
     <use x="63.085938" xlink:href="#FranklinGothic-Book-99"/>
     <use x="109.667969" xlink:href="#FranklinGothic-Book-101"/>
     <use x="161.71875" xlink:href="#FranklinGothic-Book-97"/>
     <use x="214.599609" xlink:href="#FranklinGothic-Book-110"/>
     <use x="268.798828" xlink:href="#FranklinGothic-Book-32"/>
     <use x="293.798828" xlink:href="#FranklinGothic-Book-104"/>
     <use x="347.802734" xlink:href="#FranklinGothic-Book-101"/>
     <use x="399.853516" xlink:href="#FranklinGothic-Book-97"/>
     <use x="452.734375" xlink:href="#FranklinGothic-Book-116"/>
     <use x="483.496094" xlink:href="#FranklinGothic-Book-32"/>
     <use x="508.496094" xlink:href="#FranklinGothic-Book-99"/>
     <use x="555.078125" xlink:href="#FranklinGothic-Book-111"/>
     <use x="607.03125" xlink:href="#FranklinGothic-Book-110"/>
     <use x="661.230469" xlink:href="#FranklinGothic-Book-116"/>
     <use x="690.242188" xlink:href="#FranklinGothic-Book-101"/>
     <use x="742.292969" xlink:href="#FranklinGothic-Book-110"/>
     <use x="796.492188" xlink:href="#FranklinGothic-Book-116"/>
    </g>
   </g>
   <g id="legend_1">
    <g id="line2d_13"/>
    <g id="text_17">
     <!-- GCOS (1960-2020) -->
     <g style="fill:#555555;" transform="translate(185.856 129.7184)scale(0.2 -0.2)">
      <defs>
       <path d="M 57.71875 33.59375 
L 57.71875 -0.875 
L 52.59375 -0.875 
L 50.296875 7.46875 
Q 44.140625 -1.3125 31.984375 -1.3125 
Q 18.796875 -1.3125 11.46875 8.59375 
Q 4.15625 18.5 4.15625 32.671875 
Q 4.15625 47.796875 11.90625 57.90625 
Q 19.671875 68.015625 33.015625 68.015625 
Q 51.421875 68.015625 57.03125 48.6875 
L 49.125 46.78125 
Q 47.40625 54.203125 42.71875 57.5625 
Q 38.03125 60.9375 32.46875 60.9375 
Q 22.609375 60.9375 17.921875 52.96875 
Q 13.234375 45.015625 13.234375 33.015625 
Q 13.234375 20.0625 18.484375 12.765625 
Q 23.734375 5.46875 32.765625 5.46875 
Q 39.796875 5.46875 44.5 10.125 
Q 49.21875 14.796875 49.21875 23 
Q 49.21875 24.515625 49.125 26.609375 
L 32.625 26.609375 
L 32.625 33.59375 
z
" id="FranklinGothic-Book-71"/>
       <path d="M 1.03125 17.71875 
L 8.546875 19.4375 
Q 13.09375 5.8125 28.21875 5.8125 
Q 36.140625 5.8125 40.140625 9.15625 
Q 44.140625 12.5 44.140625 18.109375 
Q 44.140625 22.359375 41.078125 24.953125 
Q 38.03125 27.546875 34.03125 28.515625 
L 20.703125 31.84375 
Q 15.53125 33.15625 12.234375 35.03125 
Q 8.9375 36.921875 6.640625 40.828125 
Q 4.34375 44.734375 4.34375 49.75 
Q 4.34375 58.109375 10.640625 63.0625 
Q 16.9375 68.015625 26.8125 68.015625 
Q 44.96875 68.015625 50.6875 51.5625 
L 43.109375 49.3125 
Q 41.796875 55.171875 36.90625 58.171875 
Q 32.03125 61.1875 26.515625 61.1875 
Q 21.046875 61.1875 16.765625 58.296875 
Q 12.5 55.421875 12.5 50.140625 
Q 12.5 42.78125 23.34375 40.1875 
L 35.796875 37.203125 
Q 52.875 33.109375 52.875 18.796875 
Q 52.875 10.15625 46.453125 4.421875 
Q 40.046875 -1.3125 28.375 -1.3125 
Q 7.671875 -1.3125 1.03125 17.71875 
z
" id="FranklinGothic-Book-83"/>
       <path d="M 24.703125 -16.65625 
L 19.578125 -16.65625 
Q 5.21875 2.203125 5.21875 25.09375 
Q 5.21875 46.96875 19.578125 66.65625 
L 24.703125 66.65625 
Q 12.359375 48.25 12.359375 25 
Q 12.359375 2.828125 24.703125 -16.65625 
z
" id="FranklinGothic-Book-40"/>
       <path d="M 4.640625 66.65625 
L 9.71875 66.65625 
Q 24.125 47.796875 24.125 24.90625 
Q 24.125 3.03125 9.71875 -16.65625 
L 4.640625 -16.65625 
Q 17 1.765625 17 25 
Q 17 47.171875 4.640625 66.65625 
z
" id="FranklinGothic-Book-41"/>
      </defs>
      <use xlink:href="#FranklinGothic-Book-71"/>
      <use x="64.697266" xlink:href="#FranklinGothic-Book-67"/>
      <use x="122.607422" xlink:href="#FranklinGothic-Book-79"/>
      <use x="185.693359" xlink:href="#FranklinGothic-Book-83"/>
      <use x="242.626953" xlink:href="#FranklinGothic-Book-32"/>
      <use x="267.626953" xlink:href="#FranklinGothic-Book-40"/>
      <use x="296.972656" xlink:href="#FranklinGothic-Book-49"/>
      <use x="354.240234" xlink:href="#FranklinGothic-Book-57"/>
      <use x="412.882812" xlink:href="#FranklinGothic-Book-54"/>
      <use x="471.525391" xlink:href="#FranklinGothic-Book-48"/>
      <use x="530.167969" xlink:href="#FranklinGothic-Book-45"/>
      <use x="555.167969" xlink:href="#FranklinGothic-Book-50"/>
      <use x="613.810547" xlink:href="#FranklinGothic-Book-48"/>
      <use x="672.453125" xlink:href="#FranklinGothic-Book-50"/>
      <use x="731.095703" xlink:href="#FranklinGothic-Book-48"/>
      <use x="789.738281" xlink:href="#FranklinGothic-Book-41"/>
     </g>
    </g>
    <g id="line2d_14"/>
    <g id="text_18">
     <!-- Levitus (1955-2022) -->
     <g style="fill:#e69f00;" transform="translate(185.856 157.04965)scale(0.2 -0.2)">
      <defs>
       <path d="M 47.703125 7.328125 
L 47.703125 0 
L 8.34375 0 
L 8.34375 66.65625 
L 16.890625 66.65625 
L 16.890625 7.328125 
z
" id="FranklinGothic-Book-76"/>
       <path d="M 15.578125 66.65625 
L 15.578125 58.15625 
L 7.328125 58.15625 
L 7.328125 66.65625 
z
M 15.328125 49.3125 
L 15.328125 0 
L 7.671875 0 
L 7.671875 49.3125 
z
" id="FranklinGothic-Book-105"/>
       <path d="M 46.484375 0 
L 39.59375 0 
L 39.59375 9.421875 
Q 34.328125 -1.3125 23.875 -1.3125 
Q 16.3125 -1.3125 11.984375 3.65625 
Q 7.671875 8.640625 7.671875 17.828125 
L 7.671875 49.3125 
L 15.328125 49.3125 
L 15.328125 17.828125 
Q 15.328125 10.5 18.375 7.734375 
Q 21.4375 4.984375 25.09375 4.984375 
Q 28.8125 4.984375 31.8125 7.078125 
Q 34.8125 9.1875 36.8125 13.0625 
Q 38.8125 16.9375 38.8125 21.53125 
L 38.8125 49.3125 
L 46.484375 49.3125 
z
" id="FranklinGothic-Book-117"/>
       <path d="M 1.03125 12.796875 
L 8.34375 14.3125 
Q 10.796875 4.984375 23.78125 4.984375 
Q 28.5625 4.984375 31.875 7.125 
Q 35.203125 9.28125 35.203125 13.1875 
Q 35.203125 19 26.765625 20.5625 
L 16.359375 22.515625 
Q 10.25 23.6875 6.640625 27.09375 
Q 3.03125 30.515625 3.03125 36.140625 
Q 3.03125 42.328125 7.953125 46.5 
Q 12.890625 50.6875 21.234375 50.6875 
Q 37.3125 50.6875 41.0625 38.140625 
L 34.03125 36.625 
Q 31 44.34375 21.578125 44.34375 
Q 16.890625 44.34375 13.890625 42.40625 
Q 10.890625 40.484375 10.890625 37.015625 
Q 10.890625 31.546875 18.5625 30.125 
L 28.171875 28.421875 
Q 43.265625 25.6875 43.265625 13.8125 
Q 43.265625 7.03125 37.640625 2.859375 
Q 32.03125 -1.3125 22.703125 -1.3125 
Q 5.171875 -1.3125 1.03125 12.796875 
z
" id="FranklinGothic-Book-115"/>
      </defs>
      <use xlink:href="#FranklinGothic-Book-76"/>
      <use x="48.974609" xlink:href="#FranklinGothic-Book-101"/>
      <use x="99.275391" xlink:href="#FranklinGothic-Book-118"/>
      <use x="144.294922" xlink:href="#FranklinGothic-Book-105"/>
      <use x="167.244141" xlink:href="#FranklinGothic-Book-116"/>
      <use x="198.005859" xlink:href="#FranklinGothic-Book-117"/>
      <use x="252.15625" xlink:href="#FranklinGothic-Book-115"/>
      <use x="298.542969" xlink:href="#FranklinGothic-Book-32"/>
      <use x="323.542969" xlink:href="#FranklinGothic-Book-40"/>
      <use x="352.888672" xlink:href="#FranklinGothic-Book-49"/>
      <use x="410.15625" xlink:href="#FranklinGothic-Book-57"/>
      <use x="468.798828" xlink:href="#FranklinGothic-Book-53"/>
      <use x="527.441406" xlink:href="#FranklinGothic-Book-53"/>
      <use x="586.083984" xlink:href="#FranklinGothic-Book-45"/>
      <use x="611.083984" xlink:href="#FranklinGothic-Book-50"/>
      <use x="669.726562" xlink:href="#FranklinGothic-Book-48"/>
      <use x="728.369141" xlink:href="#FranklinGothic-Book-50"/>
      <use x="787.011719" xlink:href="#FranklinGothic-Book-50"/>
      <use x="845.654297" xlink:href="#FranklinGothic-Book-41"/>
     </g>
    </g>
    <g id="line2d_15"/>
    <g id="text_19">
     <!-- Cheng et al (1940-2021) -->
     <g style="fill:#009e73;" transform="translate(185.856 184.3809)scale(0.2 -0.2)">
      <defs>
       <path d="M 15.328125 0 
L 7.671875 0 
L 7.671875 66.65625 
L 15.328125 66.65625 
z
" id="FranklinGothic-Book-108"/>
      </defs>
      <use xlink:href="#FranklinGothic-Book-67"/>
      <use x="57.910156" xlink:href="#FranklinGothic-Book-104"/>
      <use x="111.914062" xlink:href="#FranklinGothic-Book-101"/>
      <use x="163.964844" xlink:href="#FranklinGothic-Book-110"/>
      <use x="218.164062" xlink:href="#FranklinGothic-Book-103"/>
      <use x="267.285156" xlink:href="#FranklinGothic-Book-32"/>
      <use x="292.285156" xlink:href="#FranklinGothic-Book-101"/>
      <use x="343.835938" xlink:href="#FranklinGothic-Book-116"/>
      <use x="374.597656" xlink:href="#FranklinGothic-Book-32"/>
      <use x="399.597656" xlink:href="#FranklinGothic-Book-97"/>
      <use x="452.478516" xlink:href="#FranklinGothic-Book-108"/>
      <use x="475.476562" xlink:href="#FranklinGothic-Book-32"/>
      <use x="500.476562" xlink:href="#FranklinGothic-Book-40"/>
      <use x="529.822266" xlink:href="#FranklinGothic-Book-49"/>
      <use x="587.089844" xlink:href="#FranklinGothic-Book-57"/>
      <use x="645.232422" xlink:href="#FranklinGothic-Book-52"/>
      <use x="703.875" xlink:href="#FranklinGothic-Book-48"/>
      <use x="762.517578" xlink:href="#FranklinGothic-Book-45"/>
      <use x="787.517578" xlink:href="#FranklinGothic-Book-50"/>
      <use x="846.160156" xlink:href="#FranklinGothic-Book-48"/>
      <use x="904.802734" xlink:href="#FranklinGothic-Book-50"/>
      <use x="959.945312" xlink:href="#FranklinGothic-Book-49"/>
      <use x="1018.587891" xlink:href="#FranklinGothic-Book-41"/>
     </g>
    </g>
   </g>
   <g id="line2d_16">
    <path clip-path="url(#pca645a5327)" d="M 184.581818 554.04 
L 194.479823 551.27238 
L 204.377827 521.928511 
L 214.275831 507.238835 
L 224.173836 506.19802 
L 234.07184 503.288471 
L 243.969845 514.335297 
L 253.867849 496.736071 
L 263.765854 511.626814 
L 273.663858 526.600348 
L 283.561863 545.476936 
L 293.459867 499.006939 
L 303.357871 509.805388 
L 313.255876 495.233987 
L 323.15388 451.779986 
L 333.051885 501.549838 
L 342.949889 489.876158 
L 352.847894 489.947123 
L 362.745898 425.55856 
L 372.643902 465.736361 
L 382.541907 453.707858 
L 392.439911 454.34654 
L 402.337916 416.049301 
L 412.23592 424.624193 
L 422.133925 471.212464 
L 432.031929 469.698552 
L 441.929933 450.10049 
L 451.827938 453.211106 
L 461.725942 465.192299 
L 471.623947 460.697873 
L 481.521951 471.933938 
L 491.419956 439.148284 
L 501.31796 444.754489 
L 511.215965 447.321043 
L 521.113969 423.737135 
L 531.011973 415.576204 
L 540.909978 419.029815 
L 550.807982 404.446586 
L 560.705987 396.534032 
L 570.603991 415.103106 
L 580.501996 412.430106 
L 590.4 405.877706 
L 600.298004 416.415952 
L 610.196009 424.22206 
L 620.094013 429.721818 
L 629.992018 406.788419 
L 639.890022 385.049591 
L 649.788027 390.939654 
L 659.686031 389.236503 
L 669.584035 401.43059 
L 679.48204 401.832723 
L 689.380044 347.450171 
L 699.278049 363.736551 
L 709.176053 357.018567 
L 719.074058 349.236114 
L 728.972062 366.338587 
L 738.870067 329.425158 
L 748.768071 337.172129 
L 758.666075 320.28255 
L 768.56408 303.972515 
L 778.462084 325.498449 
L 788.360089 314.534416 
L 798.258093 282.328307 
L 808.156098 250.323265 
L 818.054102 249.660928 
L 827.952106 238.909789 
L 837.850111 216.733346 
L 847.748115 235.893792 
L 857.64612 222.43417 
L 867.544124 205.284387 
L 877.442129 213.705522 
L 887.340133 201.215749 
L 897.238137 191.375322 
L 907.136142 176.48458 
L 917.034146 177.194226 
L 926.932151 147.554671 
L 936.830155 153.231841 
L 946.72816 133.610124 
L 956.626164 134.248805 
L 966.524169 117.938771 
L 976.422173 114.85181 
L 986.320177 100.564267 
" style="fill:none;stroke:#009e73;stroke-linecap:round;stroke-width:3;"/>
   </g>
   <g id="line2d_17">
    <path clip-path="url(#pca645a5327)" d="M 333.051885 429.829368 
L 342.949889 421.412965 
L 352.847894 449.869776 
L 362.745898 406.155572 
L 372.643902 415.46613 
L 382.541907 404.864016 
L 392.439911 414.415854 
L 402.337916 399.655213 
L 412.23592 416.644143 
L 422.133925 428.693935 
L 432.031929 427.828166 
L 441.929933 440.374711 
L 451.827938 446.29316 
L 461.725942 465.694886 
L 471.623947 447.996311 
L 481.521951 459.591929 
L 491.419956 437.862563 
L 501.31796 458.754547 
L 511.215965 434.342718 
L 521.113969 423.783183 
L 531.011973 406.411045 
L 540.909978 421.342 
L 550.807982 383.943647 
L 560.705987 383.659788 
L 570.603991 398.023027 
L 580.501996 368.913341 
L 590.4 382.666284 
L 600.298004 417.126702 
L 610.196009 423.612868 
L 620.094013 390.912372 
L 629.992018 382.836599 
L 639.890022 399.115882 
L 649.788027 397.072101 
L 659.686031 368.95592 
L 669.584035 371.58161 
L 679.48204 381.885673 
L 689.380044 346.843345 
L 699.278049 376.279468 
L 709.176053 374.689861 
L 719.074058 362.966506 
L 728.972062 352.265042 
L 738.870067 319.905176 
L 748.768071 338.341784 
L 758.666075 323.311478 
L 768.56408 300.049276 
L 778.462084 303.895558 
L 788.360089 325.965554 
L 798.258093 288.042063 
L 808.156098 243.149846 
L 818.054102 239.062284 
L 827.952106 265.006948 
L 837.850111 236.365628 
L 847.748115 249.877291 
L 857.64612 241.730553 
L 867.544124 240.680277 
L 877.442129 237.259782 
L 887.340133 230.134935 
L 897.238137 229.113044 
L 907.136142 205.552791 
L 917.034146 196.185462 
L 926.932151 169.772431 
L 936.830155 186.094293 
L 946.72816 159.042581 
L 956.626164 147.063754 
L 966.524169 132.814058 
L 976.422173 135.681029 
L 986.320177 118.493399 
L 996.218182 104.981736 
" style="fill:none;stroke:#e69f00;stroke-linecap:round;stroke-width:3;"/>
   </g>
   <g id="line2d_18">
    <path clip-path="url(#pca645a5327)" d="M 382.541907 428.886891 
L 392.439911 414.921469 
L 402.337916 386.456593 
L 412.23592 405.572614 
L 422.133925 424.683664 
L 432.031929 432.504976 
L 441.929933 416.361953 
L 451.827938 439.721637 
L 461.725942 465.492878 
L 471.623947 459.840552 
L 481.521951 455.078209 
L 491.419956 444.763153 
L 501.31796 436.894771 
L 511.215965 443.210989 
L 521.113969 438.022536 
L 531.011973 411.323277 
L 540.909978 416.715567 
L 550.807982 388.923749 
L 560.705987 390.395808 
L 570.603991 401.544346 
L 580.501996 362.772455 
L 590.4 356.376349 
L 600.298004 388.659635 
L 610.196009 410.995971 
L 620.094013 399.276505 
L 629.992018 384.061015 
L 639.890022 381.646465 
L 649.788027 388.570174 
L 659.686031 377.803503 
L 669.584035 374.95696 
L 679.48204 381.05671 
L 689.380044 345.733335 
L 699.278049 353.211209 
L 709.176053 359.120429 
L 719.074058 349.435409 
L 728.972062 363.785165 
L 738.870067 333.923518 
L 748.768071 351.496487 
L 758.666075 339.965126 
L 768.56408 312.86835 
L 778.462084 320.517273 
L 788.360089 316.413072 
L 798.258093 284.792432 
L 808.156098 257.627989 
L 818.054102 260.287462 
L 827.952106 261.127265 
L 837.850111 254.404598 
L 847.748115 258.780926 
L 857.64612 243.883705 
L 867.544124 232.355961 
L 877.442129 238.320732 
L 887.340133 230.797547 
L 897.238137 226.323276 
L 907.136142 206.676853 
L 917.034146 197.937082 
L 926.932151 179.414447 
L 936.830155 192.140498 
L 946.72816 170.577849 
L 956.626164 155.440218 
L 966.524169 139.805609 
L 976.422173 136.070806 
" style="fill:none;stroke:#555555;stroke-linecap:round;stroke-width:3;"/>
   </g>
  </g>
  <g id="text_20">
   <g id="patch_4">
    <path d="M 874.494375 646.18275 
L 1040.76 646.18275 
L 1040.76 628.26525 
L 874.494375 628.26525 
z
" style="fill:#ffffff;stroke:#ffffff;stroke-linejoin:miter;"/>
   </g>
   <!-- Created: 2023-01-30 16:53:22 -->
   <g style="fill:#696969;" transform="translate(878.454375 640.224)scale(0.12 -0.12)">
    <defs>
     <path d="M 17.96875 49.3125 
L 17.96875 38.375 
L 7.078125 38.375 
L 7.078125 49.3125 
z
M 17.96875 10.984375 
L 17.96875 0 
L 7.078125 0 
L 7.078125 10.984375 
z
" id="FranklinGothic-Book-58"/>
     <path d="M 19.34375 31.34375 
L 19.34375 37.984375 
L 26.953125 37.984375 
Q 35.296875 37.984375 38.890625 41.40625 
Q 42.484375 44.828125 42.484375 49.703125 
Q 42.484375 55.078125 38.46875 58.21875 
Q 34.46875 61.375 28.421875 61.375 
Q 17.1875 61.375 12.890625 50.53125 
L 5.375 52.6875 
Q 11.8125 68.015625 29.203125 68.015625 
Q 38.96875 68.015625 44.96875 62.8125 
Q 50.984375 57.625 50.984375 50.296875 
Q 50.984375 44.625 47.359375 40.40625 
Q 43.75 36.1875 38.09375 35.109375 
Q 44.4375 34.1875 49 29.78125 
Q 53.5625 25.390625 53.5625 18.40625 
Q 53.5625 10.0625 46.765625 4.375 
Q 39.984375 -1.3125 28.171875 -1.3125 
Q 18.796875 -1.3125 12.125 3.125 
Q 5.46875 7.5625 2.9375 14.9375 
L 10.6875 17.53125 
Q 14.203125 5.46875 28.03125 5.46875 
Q 37.015625 5.46875 40.9375 9.296875 
Q 44.875 13.140625 44.875 18.453125 
Q 44.875 24.21875 40.15625 27.78125 
Q 35.453125 31.34375 26.953125 31.34375 
z
" id="FranklinGothic-Book-51"/>
    </defs>
    <use xlink:href="#FranklinGothic-Book-67"/>
    <use x="57.910156" xlink:href="#FranklinGothic-Book-114"/>
    <use x="90.869141" xlink:href="#FranklinGothic-Book-101"/>
    <use x="142.919922" xlink:href="#FranklinGothic-Book-97"/>
    <use x="195.800781" xlink:href="#FranklinGothic-Book-116"/>
    <use x="224.8125" xlink:href="#FranklinGothic-Book-101"/>
    <use x="276.863281" xlink:href="#FranklinGothic-Book-100"/>
    <use x="330.720703" xlink:href="#FranklinGothic-Book-58"/>
    <use x="355.720703" xlink:href="#FranklinGothic-Book-32"/>
    <use x="380.720703" xlink:href="#FranklinGothic-Book-50"/>
    <use x="439.363281" xlink:href="#FranklinGothic-Book-48"/>
    <use x="498.005859" xlink:href="#FranklinGothic-Book-50"/>
    <use x="556.648438" xlink:href="#FranklinGothic-Book-51"/>
    <use x="615.291016" xlink:href="#FranklinGothic-Book-45"/>
    <use x="640.291016" xlink:href="#FranklinGothic-Book-48"/>
    <use x="695.183594" xlink:href="#FranklinGothic-Book-49"/>
    <use x="753.826172" xlink:href="#FranklinGothic-Book-45"/>
    <use x="778.826172" xlink:href="#FranklinGothic-Book-51"/>
    <use x="837.46875" xlink:href="#FranklinGothic-Book-48"/>
    <use x="896.111328" xlink:href="#FranklinGothic-Book-32"/>
    <use x="921.111328" xlink:href="#FranklinGothic-Book-49"/>
    <use x="976.378906" xlink:href="#FranklinGothic-Book-54"/>
    <use x="1035.021484" xlink:href="#FranklinGothic-Book-58"/>
    <use x="1060.021484" xlink:href="#FranklinGothic-Book-53"/>
    <use x="1118.664062" xlink:href="#FranklinGothic-Book-51"/>
    <use x="1177.306641" xlink:href="#FranklinGothic-Book-58"/>
    <use x="1202.306641" xlink:href="#FranklinGothic-Book-50"/>
    <use x="1260.949219" xlink:href="#FranklinGothic-Book-50"/>
   </g>
  </g>
 </g>
 <defs>
  <clipPath id="pca645a5327">
   <rect height="498.96" width="892.8" x="144" y="77.76"/>
  </clipPath>
 </defs>
</svg>
