<?xml version="1.0" encoding="utf-8" standalone="no"?>
<!DOCTYPE svg PUBLIC "-//W3C//DTD SVG 1.1//EN"
  "http://www.w3.org/Graphics/SVG/1.1/DTD/svg11.dtd">
<!-- Created with matplotlib (https://matplotlib.org/) -->
<svg height="648pt" version="1.1" viewBox="0 0 1152 648" width="1152pt" xmlns="http://www.w3.org/2000/svg" xmlns:xlink="http://www.w3.org/1999/xlink">
 <metadata>
  <rdf:RDF xmlns:cc="http://creativecommons.org/ns#" xmlns:dc="http://purl.org/dc/elements/1.1/" xmlns:rdf="http://www.w3.org/1999/02/22-rdf-syntax-ns#">
   <cc:Work>
    <dc:type rdf:resource="http://purl.org/dc/dcmitype/StillImage"/>
    <dc:date>2023-01-30T16:53:22.992369</dc:date>
    <dc:format>image/svg+xml</dc:format>
    <dc:creator>
     <cc:Agent>
      <dc:title>Matplotlib v3.3.1, https://matplotlib.org/</dc:title>
     </cc:Agent>
    </dc:creator>
   </cc:Work>
  </rdf:RDF>
 </metadata>
 <defs>
  <style type="text/css">*{stroke-linecap:butt;stroke-linejoin:round;}</style>
 </defs>
 <g id="figure_1">
  <g id="patch_1">
   <path d="M 0 648 
L 1152 648 
L 1152 0 
L 0 0 
z
" style="fill:#ffffff;"/>
  </g>
  <g id="axes_1">
   <g id="patch_2">
    <path d="M 144 576.72 
L 1036.8 576.72 
L 1036.8 77.76 
L 144 77.76 
z
" style="fill:none;"/>
   </g>
   <g id="patch_3">
    <path d="M 144 576.72 
L 1036.8 576.72 
" style="fill:none;stroke:#d3d3d3;stroke-linecap:square;stroke-linejoin:miter;stroke-width:1.25;"/>
   </g>
   <g id="matplotlib.axis_1">
    <g id="xtick_1">
     <g id="line2d_1">
      <defs>
       <path d="M 0 0 
L 0 6 
" id="m01312f3dde" style="stroke:#696969;stroke-width:1.25;"/>
      </defs>
      <g>
       <use style="fill:#696969;stroke:#696969;stroke-width:1.25;" x="378.57" xlink:href="#m01312f3dde" y="576.72"/>
      </g>
     </g>
     <g id="text_1">
      <!-- 2000 -->
      <g style="fill:#696969;" transform="translate(360.977813 596.218438)scale(0.15 -0.15)">
       <defs>
        <path d="M 52.484375 6.9375 
L 52.484375 0 
L 5.171875 0 
L 5.171875 6.9375 
Q 33.203125 27.9375 38.59375 34.59375 
Q 44 41.265625 44 47.796875 
Q 44 53.90625 39.453125 57.65625 
Q 34.90625 61.421875 29 61.421875 
Q 22.90625 61.421875 18.21875 57.296875 
Q 13.53125 53.171875 12.9375 46.09375 
L 5.171875 48.4375 
Q 10.0625 68.015625 29.109375 68.015625 
Q 39.40625 68.015625 45.84375 62.15625 
Q 52.296875 56.296875 52.296875 47.859375 
Q 52.296875 42.046875 49.234375 36.671875 
Q 46.1875 31.296875 37.6875 23.828125 
Q 29.203125 16.359375 15.71875 6.9375 
z
" id="FranklinGothic-Book-50"/>
        <path d="M 29.390625 -1.3125 
Q 17.875 -1.3125 10.984375 8.671875 
Q 4.109375 18.65625 4.109375 33.453125 
Q 4.109375 48 10.640625 58 
Q 17.1875 68.015625 29.15625 68.015625 
Q 41.65625 68.015625 48.125 57.5625 
Q 54.59375 47.125 54.59375 33.0625 
Q 54.59375 19.28125 47.953125 8.984375 
Q 41.3125 -1.3125 29.390625 -1.3125 
z
M 29.4375 5.21875 
Q 37.890625 5.21875 41.9375 12.859375 
Q 46 20.515625 46 32.078125 
Q 46 44.734375 41.84375 53.125 
Q 37.703125 61.53125 29.046875 61.53125 
Q 20.703125 61.53125 16.625 53.859375 
Q 12.546875 46.1875 12.546875 33.6875 
Q 12.546875 20.703125 16.84375 12.953125 
Q 21.140625 5.21875 29.4375 5.21875 
z
" id="FranklinGothic-Book-48"/>
       </defs>
       <use xlink:href="#FranklinGothic-Book-50"/>
       <use x="58.642578" xlink:href="#FranklinGothic-Book-48"/>
       <use x="117.285156" xlink:href="#FranklinGothic-Book-48"/>
       <use x="175.927734" xlink:href="#FranklinGothic-Book-48"/>
      </g>
     </g>
    </g>
    <g id="xtick_2">
     <g id="line2d_2">
      <g>
       <use style="fill:#696969;stroke:#696969;stroke-width:1.25;" x="656.130511" xlink:href="#m01312f3dde" y="576.72"/>
      </g>
     </g>
     <g id="text_2">
      <!-- 2010 -->
      <g style="fill:#696969;" transform="translate(639.063324 596.218438)scale(0.15 -0.15)">
       <defs>
        <path d="M 55.859375 6.203125 
L 55.859375 0 
L 9.1875 0 
L 9.1875 6.203125 
L 29.203125 6.203125 
L 29.203125 57.671875 
Q 20.359375 48.4375 10.84375 43.265625 
L 10.84375 51.65625 
Q 23.96875 58.546875 31.203125 68.015625 
L 37.15625 68.015625 
L 37.15625 6.203125 
z
" id="FranklinGothic-Book-49"/>
       </defs>
       <use xlink:href="#FranklinGothic-Book-50"/>
       <use x="58.642578" xlink:href="#FranklinGothic-Book-48"/>
       <use x="113.535156" xlink:href="#FranklinGothic-Book-49"/>
       <use x="168.927734" xlink:href="#FranklinGothic-Book-48"/>
      </g>
     </g>
    </g>
    <g id="xtick_3">
     <g id="line2d_3">
      <g>
       <use style="fill:#696969;stroke:#696969;stroke-width:1.25;" x="933.691023" xlink:href="#m01312f3dde" y="576.72"/>
      </g>
     </g>
     <g id="text_3">
      <!-- 2020 -->
      <g style="fill:#696969;" transform="translate(916.098835 596.218438)scale(0.15 -0.15)">
       <use xlink:href="#FranklinGothic-Book-50"/>
       <use x="58.642578" xlink:href="#FranklinGothic-Book-48"/>
       <use x="117.285156" xlink:href="#FranklinGothic-Book-50"/>
       <use x="175.927734" xlink:href="#FranklinGothic-Book-48"/>
      </g>
     </g>
    </g>
    <g id="text_4">
     <!-- Year -->
     <g style="fill:#696969;" transform="translate(572.109375 616.048125)scale(0.2 -0.2)">
      <defs>
       <path d="M 52 66.65625 
L 29.6875 28.03125 
L 29.6875 0 
L 21.34375 0 
L 21.34375 28.03125 
L -0.984375 66.65625 
L 8.84375 66.65625 
L 26.5625 35.984375 
L 44.390625 66.65625 
z
" id="FranklinGothic-Book-89"/>
       <path d="M 40.234375 14.703125 
L 47.359375 13.234375 
Q 45.40625 6.9375 39.734375 2.8125 
Q 34.078125 -1.3125 26.421875 -1.3125 
Q 16.3125 -1.3125 10.0625 5.78125 
Q 3.8125 12.890625 3.8125 24.421875 
Q 3.8125 36.1875 10.296875 43.4375 
Q 16.796875 50.6875 26.609375 50.6875 
Q 36.28125 50.6875 42.15625 44 
Q 48.046875 37.3125 48.1875 23.96875 
L 12.359375 23.96875 
Q 12.359375 12.796875 17.046875 8.890625 
Q 21.734375 4.984375 26.953125 4.984375 
Q 36.375 4.984375 40.234375 14.703125 
z
M 39.796875 29.6875 
Q 39.703125 33.84375 38.421875 37.0625 
Q 37.15625 40.28125 34.125 42.546875 
Q 31.109375 44.828125 26.859375 44.828125 
Q 21.140625 44.828125 17.15625 40.71875 
Q 13.1875 36.625 12.703125 29.6875 
z
" id="FranklinGothic-Book-101"/>
       <path d="M 46.296875 0 
L 38.671875 0 
Q 38.234375 2.34375 37.796875 8.890625 
Q 32.71875 -1.3125 20.515625 -1.3125 
Q 12.203125 -1.3125 7.765625 3.078125 
Q 3.328125 7.46875 3.328125 13.625 
Q 3.328125 21.09375 9.671875 25.90625 
Q 16.015625 30.71875 31.25 30.71875 
Q 33.296875 30.71875 37.796875 30.515625 
Q 37.796875 36.375 36.890625 38.984375 
Q 35.984375 41.609375 33.046875 43.171875 
Q 30.125 44.734375 25.34375 44.734375 
Q 13.671875 44.734375 11.765625 35.84375 
L 4.6875 37.0625 
Q 7.28125 50.6875 26.46875 50.6875 
Q 36.671875 50.6875 40.9375 46.171875 
Q 45.21875 41.65625 45.21875 30.515625 
L 45.21875 9.578125 
Q 45.21875 4.34375 46.296875 0 
z
M 37.796875 24.65625 
Q 33.109375 24.953125 30.671875 24.953125 
Q 21.578125 24.953125 16.546875 21.96875 
Q 11.53125 19 11.53125 13.28125 
Q 11.53125 9.671875 14.234375 7.125 
Q 16.9375 4.59375 22.078125 4.59375 
Q 29 4.59375 33.46875 9.625 
Q 37.9375 14.65625 37.9375 21.4375 
Q 37.9375 22.796875 37.796875 24.65625 
z
" id="FranklinGothic-Book-97"/>
       <path d="M 15.328125 0 
L 7.671875 0 
L 7.671875 49.3125 
L 14.40625 49.3125 
L 14.40625 37.796875 
Q 17.96875 45.953125 21.546875 48.359375 
Q 25.140625 50.78125 28.90625 50.78125 
Q 30.078125 50.78125 31.9375 50.59375 
L 31.9375 43.265625 
L 30.375 43.265625 
Q 24.03125 43.265625 19.828125 38.53125 
Q 15.625 33.796875 15.328125 26.078125 
z
" id="FranklinGothic-Book-114"/>
      </defs>
      <use xlink:href="#FranklinGothic-Book-89"/>
      <use x="45.025391" xlink:href="#FranklinGothic-Book-101"/>
      <use x="97.076172" xlink:href="#FranklinGothic-Book-97"/>
      <use x="149.957031" xlink:href="#FranklinGothic-Book-114"/>
     </g>
    </g>
   </g>
   <g id="matplotlib.axis_2">
    <g id="ytick_1">
     <g id="line2d_4">
      <path clip-path="url(#pb076d99847)" d="M 144 555.424198 
L 1036.8 555.424198 
" style="fill:none;stroke:#d3d3d3;stroke-linecap:round;stroke-opacity:0.5;"/>
     </g>
     <g id="text_5">
      <!-- 0 -->
      <g style="fill:#696969;" transform="translate(125.703906 560.423416)scale(0.15 -0.15)">
       <use xlink:href="#FranklinGothic-Book-48"/>
      </g>
     </g>
    </g>
    <g id="ytick_2">
     <g id="line2d_5">
      <path clip-path="url(#pb076d99847)" d="M 144 510.813471 
L 1036.8 510.813471 
" style="fill:none;stroke:#d3d3d3;stroke-linecap:round;stroke-opacity:0.5;"/>
     </g>
     <g id="text_6">
      <!-- 10 -->
      <g style="fill:#696969;" transform="translate(117.395313 515.81269)scale(0.15 -0.15)">
       <use xlink:href="#FranklinGothic-Book-49"/>
       <use x="55.392578" xlink:href="#FranklinGothic-Book-48"/>
      </g>
     </g>
    </g>
    <g id="ytick_3">
     <g id="line2d_6">
      <path clip-path="url(#pb076d99847)" d="M 144 466.202744 
L 1036.8 466.202744 
" style="fill:none;stroke:#d3d3d3;stroke-linecap:round;stroke-opacity:0.5;"/>
     </g>
     <g id="text_7">
      <!-- 20 -->
      <g style="fill:#696969;" transform="translate(116.907813 471.201963)scale(0.15 -0.15)">
       <use xlink:href="#FranklinGothic-Book-50"/>
       <use x="58.642578" xlink:href="#FranklinGothic-Book-48"/>
      </g>
     </g>
    </g>
    <g id="ytick_4">
     <g id="line2d_7">
      <path clip-path="url(#pb076d99847)" d="M 144 421.592017 
L 1036.8 421.592017 
" style="fill:none;stroke:#d3d3d3;stroke-linecap:round;stroke-opacity:0.5;"/>
     </g>
     <g id="text_8">
      <!-- 30 -->
      <g style="fill:#696969;" transform="translate(116.907813 426.591236)scale(0.15 -0.15)">
       <defs>
        <path d="M 19.34375 31.34375 
L 19.34375 37.984375 
L 26.953125 37.984375 
Q 35.296875 37.984375 38.890625 41.40625 
Q 42.484375 44.828125 42.484375 49.703125 
Q 42.484375 55.078125 38.46875 58.21875 
Q 34.46875 61.375 28.421875 61.375 
Q 17.1875 61.375 12.890625 50.53125 
L 5.375 52.6875 
Q 11.8125 68.015625 29.203125 68.015625 
Q 38.96875 68.015625 44.96875 62.8125 
Q 50.984375 57.625 50.984375 50.296875 
Q 50.984375 44.625 47.359375 40.40625 
Q 43.75 36.1875 38.09375 35.109375 
Q 44.4375 34.1875 49 29.78125 
Q 53.5625 25.390625 53.5625 18.40625 
Q 53.5625 10.0625 46.765625 4.375 
Q 39.984375 -1.3125 28.171875 -1.3125 
Q 18.796875 -1.3125 12.125 3.125 
Q 5.46875 7.5625 2.9375 14.9375 
L 10.6875 17.53125 
Q 14.203125 5.46875 28.03125 5.46875 
Q 37.015625 5.46875 40.9375 9.296875 
Q 44.875 13.140625 44.875 18.453125 
Q 44.875 24.21875 40.15625 27.78125 
Q 35.453125 31.34375 26.953125 31.34375 
z
" id="FranklinGothic-Book-51"/>
       </defs>
       <use xlink:href="#FranklinGothic-Book-51"/>
       <use x="58.642578" xlink:href="#FranklinGothic-Book-48"/>
      </g>
     </g>
    </g>
    <g id="ytick_5">
     <g id="line2d_8">
      <path clip-path="url(#pb076d99847)" d="M 144 376.98129 
L 1036.8 376.98129 
" style="fill:none;stroke:#d3d3d3;stroke-linecap:round;stroke-opacity:0.5;"/>
     </g>
     <g id="text_9">
      <!-- 40 -->
      <g style="fill:#696969;" transform="translate(116.907813 381.980509)scale(0.15 -0.15)">
       <defs>
        <path d="M 44.09375 0 
L 36.03125 0 
L 36.03125 15.875 
L 3.078125 15.875 
L 3.078125 21.484375 
L 33.640625 68.0625 
L 44.09375 68.0625 
L 44.09375 22.46875 
L 54.890625 22.46875 
L 54.890625 15.875 
L 44.09375 15.875 
z
M 36.03125 22.46875 
L 36.03125 54 
Q 36.03125 57.421875 36.1875 61.375 
Q 34.078125 57.515625 32.5625 55.125 
L 11.765625 22.46875 
z
" id="FranklinGothic-Book-52"/>
       </defs>
       <use xlink:href="#FranklinGothic-Book-52"/>
       <use x="58.642578" xlink:href="#FranklinGothic-Book-48"/>
      </g>
     </g>
    </g>
    <g id="ytick_6">
     <g id="line2d_9">
      <path clip-path="url(#pb076d99847)" d="M 144 332.370563 
L 1036.8 332.370563 
" style="fill:none;stroke:#d3d3d3;stroke-linecap:round;stroke-opacity:0.5;"/>
     </g>
     <g id="text_10">
      <!-- 50 -->
      <g style="fill:#696969;" transform="translate(116.907813 337.369782)scale(0.15 -0.15)">
       <defs>
        <path d="M 48.875 66.65625 
L 48.1875 59.46875 
L 15.4375 59.46875 
L 14.015625 37.84375 
Q 21.4375 45.125 30.328125 45.125 
Q 39.703125 45.125 46.515625 38.625 
Q 53.328125 32.125 53.328125 22.015625 
Q 53.328125 11.765625 45.921875 5.21875 
Q 38.53125 -1.3125 27.828125 -1.3125 
Q 19.4375 -1.3125 12.890625 3.078125 
Q 6.34375 7.46875 4.296875 14.453125 
L 11.421875 16.890625 
Q 15.828125 5.28125 27.9375 5.28125 
Q 35.890625 5.28125 40.578125 9.984375 
Q 45.265625 14.703125 45.265625 22.015625 
Q 45.265625 29.6875 40.625 33.984375 
Q 35.984375 38.28125 29.5 38.28125 
Q 20.015625 38.28125 13.8125 29.203125 
L 7.234375 30.609375 
L 9.375 66.65625 
z
" id="FranklinGothic-Book-53"/>
       </defs>
       <use xlink:href="#FranklinGothic-Book-53"/>
       <use x="58.642578" xlink:href="#FranklinGothic-Book-48"/>
      </g>
     </g>
    </g>
    <g id="ytick_7">
     <g id="line2d_10">
      <path clip-path="url(#pb076d99847)" d="M 144 287.759837 
L 1036.8 287.759837 
" style="fill:none;stroke:#d3d3d3;stroke-linecap:round;stroke-opacity:0.5;"/>
     </g>
     <g id="text_11">
      <!-- 60 -->
      <g style="fill:#696969;" transform="translate(116.907813 292.759055)scale(0.15 -0.15)">
       <defs>
        <path d="M 53.5625 53.03125 
L 46.046875 50.984375 
Q 42.1875 61.140625 31.984375 61.140625 
Q 13.234375 61.140625 12.796875 30.125 
Q 15.765625 37.015625 21.234375 40.328125 
Q 26.703125 43.65625 32.8125 43.65625 
Q 42.09375 43.65625 48.359375 37.1875 
Q 54.640625 30.71875 54.640625 21.6875 
Q 54.640625 12.3125 47.96875 5.5 
Q 41.3125 -1.3125 30.90625 -1.3125 
Q 19.09375 -1.3125 12.078125 7.59375 
Q 5.078125 16.5 5.078125 31.84375 
Q 5.078125 46.828125 11.6875 57.421875 
Q 18.3125 68.015625 32.171875 68.015625 
Q 48.140625 68.015625 53.5625 53.03125 
z
M 30.765625 5.375 
Q 37.84375 5.375 42.359375 10.03125 
Q 46.875 14.703125 46.875 21.234375 
Q 46.875 27.6875 42.453125 32.296875 
Q 38.03125 36.921875 31.5 36.921875 
Q 24.75 36.921875 19.71875 32.078125 
Q 14.703125 27.25 14.703125 20.75 
Q 14.703125 14.75 19.1875 10.0625 
Q 23.6875 5.375 30.765625 5.375 
z
" id="FranklinGothic-Book-54"/>
       </defs>
       <use xlink:href="#FranklinGothic-Book-54"/>
       <use x="58.642578" xlink:href="#FranklinGothic-Book-48"/>
      </g>
     </g>
    </g>
    <g id="ytick_8">
     <g id="line2d_11">
      <path clip-path="url(#pb076d99847)" d="M 144 243.14911 
L 1036.8 243.14911 
" style="fill:none;stroke:#d3d3d3;stroke-linecap:round;stroke-opacity:0.5;"/>
     </g>
     <g id="text_12">
      <!-- 70 -->
      <g style="fill:#696969;" transform="translate(116.907813 248.148328)scale(0.15 -0.15)">
       <defs>
        <path d="M 28.078125 0 
L 19.484375 0 
Q 19.484375 16.75 26.3125 32.59375 
Q 33.15625 48.4375 43.0625 59.328125 
L 6.890625 59.328125 
L 7.71875 66.65625 
L 51.765625 66.65625 
L 51.765625 61.671875 
Q 39.84375 47.3125 33.9375 31.78125 
Q 28.03125 16.265625 28.03125 2.296875 
Q 28.03125 1.515625 28.078125 0 
z
" id="FranklinGothic-Book-55"/>
       </defs>
       <use xlink:href="#FranklinGothic-Book-55"/>
       <use x="58.642578" xlink:href="#FranklinGothic-Book-48"/>
      </g>
     </g>
    </g>
    <g id="ytick_9">
     <g id="line2d_12">
      <path clip-path="url(#pb076d99847)" d="M 144 198.538383 
L 1036.8 198.538383 
" style="fill:none;stroke:#d3d3d3;stroke-linecap:round;stroke-opacity:0.5;"/>
     </g>
     <g id="text_13">
      <!-- 80 -->
      <g style="fill:#696969;" transform="translate(116.907813 203.537602)scale(0.15 -0.15)">
       <defs>
        <path d="M 19.484375 34.578125 
Q 6.84375 40.09375 6.84375 50.59375 
Q 6.84375 58.203125 13.140625 63.109375 
Q 19.4375 68.015625 29.828125 68.015625 
Q 40.09375 68.015625 46.140625 63.296875 
Q 52.203125 58.59375 52.203125 50.984375 
Q 52.203125 40.375 39.265625 35.796875 
Q 49.703125 30.953125 52.359375 26.453125 
Q 55.03125 21.96875 55.03125 17.484375 
Q 55.03125 9.46875 48.21875 4.078125 
Q 41.40625 -1.3125 29.734375 -1.3125 
Q 17.28125 -1.3125 10.4375 4.171875 
Q 3.609375 9.671875 3.609375 17.234375 
Q 3.609375 28.515625 19.484375 34.578125 
z
M 29.59375 38.71875 
Q 37.984375 40.96875 41.453125 43.890625 
Q 44.921875 46.828125 44.921875 51.21875 
Q 44.921875 56.34375 40.796875 59 
Q 36.671875 61.671875 29.9375 61.671875 
Q 23.484375 61.671875 19.375 58.859375 
Q 15.28125 56.0625 15.28125 51.3125 
Q 15.28125 46.625 19.84375 43.203125 
Q 24.421875 39.796875 29.59375 38.71875 
z
M 28.65625 31.0625 
Q 11.765625 27.046875 11.765625 16.9375 
Q 11.765625 11.671875 16.375 8.328125 
Q 21 4.984375 29.984375 4.984375 
Q 37.59375 4.984375 42.234375 8.25 
Q 46.875 11.53125 46.875 16.609375 
Q 46.875 26.3125 28.65625 31.0625 
z
" id="FranklinGothic-Book-56"/>
       </defs>
       <use xlink:href="#FranklinGothic-Book-56"/>
       <use x="58.642578" xlink:href="#FranklinGothic-Book-48"/>
      </g>
     </g>
    </g>
    <g id="ytick_10">
     <g id="line2d_13">
      <path clip-path="url(#pb076d99847)" d="M 144 153.927656 
L 1036.8 153.927656 
" style="fill:none;stroke:#d3d3d3;stroke-linecap:round;stroke-opacity:0.5;"/>
     </g>
     <g id="text_14">
      <!-- 90 -->
      <g style="fill:#696969;" transform="translate(116.907813 158.926875)scale(0.15 -0.15)">
       <defs>
        <path d="M 5.71875 12.15625 
L 12.40625 14.59375 
Q 16.546875 5.375 26.375 5.375 
Q 35.890625 5.375 40.703125 13.375 
Q 45.515625 21.390625 45.65625 35.109375 
Q 39.109375 23.09375 25.984375 23.09375 
Q 16.703125 23.09375 10.40625 29.421875 
Q 4.109375 35.75 4.109375 45.0625 
Q 4.109375 54.546875 10.71875 61.28125 
Q 17.328125 68.015625 27.59375 68.015625 
Q 40.140625 68.015625 46.828125 59.203125 
Q 53.515625 50.390625 53.515625 34.96875 
Q 53.515625 18.75 46.4375 8.71875 
Q 39.359375 -1.3125 26.265625 -1.3125 
Q 10.984375 -1.3125 5.71875 12.15625 
z
M 27.828125 29.78125 
Q 34.71875 29.78125 39.375 34.59375 
Q 44.046875 39.40625 44.046875 45.84375 
Q 44.046875 52.09375 39.625 56.578125 
Q 35.203125 61.078125 27.984375 61.078125 
Q 20.65625 61.078125 16.40625 56.46875 
Q 12.15625 51.859375 12.15625 45.21875 
Q 12.15625 38.09375 16.859375 33.9375 
Q 21.578125 29.78125 27.828125 29.78125 
z
" id="FranklinGothic-Book-57"/>
       </defs>
       <use xlink:href="#FranklinGothic-Book-57"/>
       <use x="58.642578" xlink:href="#FranklinGothic-Book-48"/>
      </g>
     </g>
    </g>
    <g id="ytick_11">
     <g id="line2d_14">
      <path clip-path="url(#pb076d99847)" d="M 144 109.316929 
L 1036.8 109.316929 
" style="fill:none;stroke:#d3d3d3;stroke-linecap:round;stroke-opacity:0.5;"/>
     </g>
     <g id="text_15">
      <!-- 100 -->
      <g style="fill:#696969;" transform="translate(108.599219 114.316148)scale(0.15 -0.15)">
       <use xlink:href="#FranklinGothic-Book-49"/>
       <use x="55.392578" xlink:href="#FranklinGothic-Book-48"/>
       <use x="114.035156" xlink:href="#FranklinGothic-Book-48"/>
      </g>
     </g>
    </g>
    <g id="text_16">
     <!-- mm -->
     <g style="fill:#696969;" transform="translate(95.267969 343.518125)rotate(-90)scale(0.2 -0.2)">
      <defs>
       <path d="M 73.734375 0 
L 66.265625 0 
L 66.265625 30.671875 
Q 66.265625 35.40625 65.59375 37.765625 
Q 64.9375 40.140625 62.390625 42.109375 
Q 59.859375 44.09375 56.6875 44.09375 
Q 52.296875 44.09375 48.21875 40.0625 
Q 44.140625 36.03125 44.140625 27.78125 
L 44.140625 0 
L 36.71875 0 
L 36.71875 32.46875 
Q 36.71875 38.96875 33.609375 41.65625 
Q 30.515625 44.34375 27.09375 44.34375 
Q 22.21875 44.34375 18.59375 40.140625 
Q 14.984375 35.9375 14.984375 29.5 
L 14.984375 0 
L 7.671875 0 
L 7.671875 49.3125 
L 14.265625 49.3125 
L 14.265625 39.84375 
Q 19.78125 50.6875 29.4375 50.6875 
Q 34.765625 50.6875 38.46875 47.21875 
Q 42.1875 43.75 43.265625 38.875 
Q 48.34375 50.6875 58.84375 50.6875 
Q 63.875 50.6875 67.65625 47.796875 
Q 71.4375 44.921875 72.578125 41.1875 
Q 73.734375 37.453125 73.734375 30.671875 
z
" id="FranklinGothic-Book-109"/>
      </defs>
      <use xlink:href="#FranklinGothic-Book-109"/>
      <use x="81.396484" xlink:href="#FranklinGothic-Book-109"/>
     </g>
    </g>
   </g>
   <g id="text_17">
    <!-- Global mean sea level -->
    <g style="fill:#696969;" transform="translate(144 42.76)scale(0.4 -0.4)">
     <defs>
      <path d="M 57.71875 33.59375 
L 57.71875 -0.875 
L 52.59375 -0.875 
L 50.296875 7.46875 
Q 44.140625 -1.3125 31.984375 -1.3125 
Q 18.796875 -1.3125 11.46875 8.59375 
Q 4.15625 18.5 4.15625 32.671875 
Q 4.15625 47.796875 11.90625 57.90625 
Q 19.671875 68.015625 33.015625 68.015625 
Q 51.421875 68.015625 57.03125 48.6875 
L 49.125 46.78125 
Q 47.40625 54.203125 42.71875 57.5625 
Q 38.03125 60.9375 32.46875 60.9375 
Q 22.609375 60.9375 17.921875 52.96875 
Q 13.234375 45.015625 13.234375 33.015625 
Q 13.234375 20.0625 18.484375 12.765625 
Q 23.734375 5.46875 32.765625 5.46875 
Q 39.796875 5.46875 44.5 10.125 
Q 49.21875 14.796875 49.21875 23 
Q 49.21875 24.515625 49.125 26.609375 
L 32.625 26.609375 
L 32.625 33.59375 
z
" id="FranklinGothic-Book-71"/>
      <path d="M 15.328125 0 
L 7.671875 0 
L 7.671875 66.65625 
L 15.328125 66.65625 
z
" id="FranklinGothic-Book-108"/>
      <path d="M 25.34375 -1.3125 
Q 15.1875 -1.3125 9.5 6.203125 
Q 3.8125 13.71875 3.8125 24.859375 
Q 3.8125 36.625 10.203125 43.65625 
Q 16.609375 50.6875 26.125 50.6875 
Q 36.328125 50.6875 42.203125 43.28125 
Q 48.09375 35.890625 48.09375 24.8125 
Q 48.09375 13.28125 41.75 5.984375 
Q 35.40625 -1.3125 25.34375 -1.3125 
z
M 25.921875 4.984375 
Q 31.78125 4.984375 35.734375 9.8125 
Q 39.703125 14.65625 39.703125 24.859375 
Q 39.703125 35.109375 35.546875 39.71875 
Q 31.390625 44.34375 25.828125 44.34375 
Q 20.125 44.34375 16.15625 39.671875 
Q 12.203125 35.015625 12.203125 24.90625 
Q 12.203125 14.203125 16.15625 9.59375 
Q 20.125 4.984375 25.921875 4.984375 
z
" id="FranklinGothic-Book-111"/>
      <path d="M 11.375 0 
L 7.671875 0 
L 7.671875 66.65625 
L 15.328125 66.65625 
L 15.328125 41.109375 
Q 20.609375 50.6875 29.890625 50.6875 
Q 38.375 50.6875 44.109375 44 
Q 49.859375 37.3125 49.859375 24.5625 
Q 49.859375 13.578125 44.21875 6.125 
Q 38.578125 -1.3125 29.546875 -1.3125 
Q 19.484375 -1.3125 14.109375 8.15625 
z
M 15.328125 19.34375 
Q 15.875 11.765625 20 8.34375 
Q 24.125 4.9375 28.71875 4.9375 
Q 34.578125 4.9375 38.15625 10.015625 
Q 41.75 15.09375 41.75 23.921875 
Q 41.75 33.453125 38.28125 38.890625 
Q 34.8125 44.34375 28.65625 44.34375 
Q 23.828125 44.34375 19.9375 40.453125 
Q 16.0625 36.578125 15.328125 30.421875 
z
" id="FranklinGothic-Book-98"/>
      <path id="FranklinGothic-Book-32"/>
      <path d="M 46.53125 0 
L 39.359375 0 
L 39.359375 31.6875 
Q 39.359375 38.53125 36.375 41.3125 
Q 33.40625 44.09375 29.15625 44.09375 
Q 23.296875 44.09375 19.3125 39.40625 
Q 15.328125 34.71875 15.328125 27.046875 
L 15.328125 0 
L 7.671875 0 
L 7.671875 49.3125 
L 14.796875 49.3125 
L 14.796875 40.234375 
Q 20.796875 50.6875 30.375 50.6875 
Q 35.890625 50.6875 39.765625 47.828125 
Q 43.65625 44.96875 45.09375 41.40625 
Q 46.53125 37.84375 46.53125 28.515625 
z
" id="FranklinGothic-Book-110"/>
      <path d="M 1.03125 12.796875 
L 8.34375 14.3125 
Q 10.796875 4.984375 23.78125 4.984375 
Q 28.5625 4.984375 31.875 7.125 
Q 35.203125 9.28125 35.203125 13.1875 
Q 35.203125 19 26.765625 20.5625 
L 16.359375 22.515625 
Q 10.25 23.6875 6.640625 27.09375 
Q 3.03125 30.515625 3.03125 36.140625 
Q 3.03125 42.328125 7.953125 46.5 
Q 12.890625 50.6875 21.234375 50.6875 
Q 37.3125 50.6875 41.0625 38.140625 
L 34.03125 36.625 
Q 31 44.34375 21.578125 44.34375 
Q 16.890625 44.34375 13.890625 42.40625 
Q 10.890625 40.484375 10.890625 37.015625 
Q 10.890625 31.546875 18.5625 30.125 
L 28.171875 28.421875 
Q 43.265625 25.6875 43.265625 13.8125 
Q 43.265625 7.03125 37.640625 2.859375 
Q 32.03125 -1.3125 22.703125 -1.3125 
Q 5.171875 -1.3125 1.03125 12.796875 
z
" id="FranklinGothic-Book-115"/>
      <path d="M 43.796875 49.3125 
L 26.765625 0 
L 18.796875 0 
L 1.171875 49.3125 
L 9.671875 49.3125 
L 23.390625 9.234375 
L 36.96875 49.3125 
z
" id="FranklinGothic-Book-118"/>
     </defs>
     <use xlink:href="#FranklinGothic-Book-71"/>
     <use x="64.697266" xlink:href="#FranklinGothic-Book-108"/>
     <use x="87.695312" xlink:href="#FranklinGothic-Book-111"/>
     <use x="139.648438" xlink:href="#FranklinGothic-Book-98"/>
     <use x="193.359375" xlink:href="#FranklinGothic-Book-97"/>
     <use x="246.240234" xlink:href="#FranklinGothic-Book-108"/>
     <use x="269.238281" xlink:href="#FranklinGothic-Book-32"/>
     <use x="294.238281" xlink:href="#FranklinGothic-Book-109"/>
     <use x="375.634766" xlink:href="#FranklinGothic-Book-101"/>
     <use x="427.685547" xlink:href="#FranklinGothic-Book-97"/>
     <use x="480.566406" xlink:href="#FranklinGothic-Book-110"/>
     <use x="534.765625" xlink:href="#FranklinGothic-Book-32"/>
     <use x="559.765625" xlink:href="#FranklinGothic-Book-115"/>
     <use x="606.152344" xlink:href="#FranklinGothic-Book-101"/>
     <use x="658.203125" xlink:href="#FranklinGothic-Book-97"/>
     <use x="711.083984" xlink:href="#FranklinGothic-Book-32"/>
     <use x="736.083984" xlink:href="#FranklinGothic-Book-108"/>
     <use x="759.082031" xlink:href="#FranklinGothic-Book-101"/>
     <use x="809.382812" xlink:href="#FranklinGothic-Book-118"/>
     <use x="852.902344" xlink:href="#FranklinGothic-Book-101"/>
     <use x="904.953125" xlink:href="#FranklinGothic-Book-108"/>
    </g>
   </g>
   <g id="legend_1">
    <g id="line2d_15"/>
    <g id="text_18">
     <!-- AVISO CNES (1993.01.05-2022.04.02) -->
     <g style="fill:#ff0000;" transform="translate(185.856 129.7184)scale(0.2 -0.2)">
      <defs>
       <path d="M 53.21875 0 
L 44.671875 0 
L 37.9375 19.484375 
L 13.28125 19.484375 
L 7.328125 0 
L 0.34375 0 
L 21.96875 66.65625 
L 31.5 66.65625 
z
M 36.1875 25.734375 
L 25.921875 57.765625 
L 15.578125 25.734375 
z
" id="FranklinGothic-Book-65"/>
       <path d="M 53.328125 66.65625 
L 30.859375 0 
L 22.796875 0 
L 0.34375 66.65625 
L 9.03125 66.65625 
L 27.640625 11.671875 
L 46.046875 66.65625 
z
" id="FranklinGothic-Book-86"/>
       <path d="M 16.703125 0 
L 8.34375 0 
L 8.34375 66.65625 
L 16.703125 66.65625 
z
" id="FranklinGothic-Book-73"/>
       <path d="M 1.03125 17.71875 
L 8.546875 19.4375 
Q 13.09375 5.8125 28.21875 5.8125 
Q 36.140625 5.8125 40.140625 9.15625 
Q 44.140625 12.5 44.140625 18.109375 
Q 44.140625 22.359375 41.078125 24.953125 
Q 38.03125 27.546875 34.03125 28.515625 
L 20.703125 31.84375 
Q 15.53125 33.15625 12.234375 35.03125 
Q 8.9375 36.921875 6.640625 40.828125 
Q 4.34375 44.734375 4.34375 49.75 
Q 4.34375 58.109375 10.640625 63.0625 
Q 16.9375 68.015625 26.8125 68.015625 
Q 44.96875 68.015625 50.6875 51.5625 
L 43.109375 49.3125 
Q 41.796875 55.171875 36.90625 58.171875 
Q 32.03125 61.1875 26.515625 61.1875 
Q 21.046875 61.1875 16.765625 58.296875 
Q 12.5 55.421875 12.5 50.140625 
Q 12.5 42.78125 23.34375 40.1875 
L 35.796875 37.203125 
Q 52.875 33.109375 52.875 18.796875 
Q 52.875 10.15625 46.453125 4.421875 
Q 40.046875 -1.3125 28.375 -1.3125 
Q 7.671875 -1.3125 1.03125 17.71875 
z
" id="FranklinGothic-Book-83"/>
       <path d="M 31.34375 -1.3125 
Q 18.5 -1.3125 11.328125 8.671875 
Q 4.15625 18.65625 4.15625 33.15625 
Q 4.15625 48.296875 11.671875 58.15625 
Q 19.1875 68.015625 31.59375 68.015625 
Q 43.953125 68.015625 51.421875 58.328125 
Q 58.890625 48.640625 58.890625 33.890625 
Q 58.890625 19.734375 51.640625 9.203125 
Q 44.390625 -1.3125 31.34375 -1.3125 
z
M 31.546875 5.46875 
Q 40.28125 5.46875 45.203125 13.421875 
Q 50.140625 21.390625 50.140625 33.9375 
Q 50.140625 46.828125 45.03125 54 
Q 39.9375 61.1875 31.5 61.1875 
Q 22.953125 61.1875 17.921875 53.421875 
Q 12.890625 45.65625 12.890625 33.109375 
Q 12.890625 20.84375 17.96875 13.15625 
Q 23.046875 5.46875 31.546875 5.46875 
z
" id="FranklinGothic-Book-79"/>
       <path d="M 48.296875 22.40625 
L 55.90625 20.703125 
Q 50.4375 -1.3125 31.203125 -1.3125 
Q 18.5625 -1.3125 11.359375 8.890625 
Q 4.15625 19.09375 4.15625 33.984375 
Q 4.15625 49.359375 11.671875 58.6875 
Q 19.1875 68.015625 31.84375 68.015625 
Q 50.59375 68.015625 55.90625 46.578125 
L 48.046875 45.015625 
Q 43.75 60.9375 31.78125 60.9375 
Q 22.953125 60.9375 18.09375 53.53125 
Q 13.234375 46.140625 13.234375 32.765625 
Q 13.234375 20.515625 18.203125 13.109375 
Q 23.1875 5.71875 31.390625 5.71875 
Q 44.140625 5.71875 48.296875 22.40625 
z
" id="FranklinGothic-Book-67"/>
       <path d="M 57.421875 0 
L 49.3125 0 
L 14.84375 58.109375 
L 14.9375 53.71875 
Q 15.09375 51.21875 15.09375 49.515625 
L 15.09375 0 
L 8.34375 0 
L 8.34375 66.65625 
L 18.796875 66.65625 
L 51.03125 12.3125 
L 50.921875 16.9375 
Q 50.828125 19.671875 50.828125 21.78125 
L 50.828125 66.65625 
L 57.421875 66.65625 
z
" id="FranklinGothic-Book-78"/>
       <path d="M 51.46875 7.328125 
L 51.46875 0 
L 8.34375 0 
L 8.34375 66.65625 
L 50.53125 66.65625 
L 50.53125 59.328125 
L 16.703125 59.328125 
L 16.703125 38.140625 
L 43.5625 38.140625 
L 43.5625 31.34375 
L 16.703125 31.34375 
L 16.703125 7.328125 
z
" id="FranklinGothic-Book-69"/>
       <path d="M 24.703125 -16.65625 
L 19.578125 -16.65625 
Q 5.21875 2.203125 5.21875 25.09375 
Q 5.21875 46.96875 19.578125 66.65625 
L 24.703125 66.65625 
Q 12.359375 48.25 12.359375 25 
Q 12.359375 2.828125 24.703125 -16.65625 
z
" id="FranklinGothic-Book-40"/>
       <path d="M 17.96875 10.9375 
L 17.96875 0 
L 7.078125 0 
L 7.078125 10.9375 
z
" id="FranklinGothic-Book-46"/>
       <path d="M 23.53125 27.984375 
L 23.53125 22.015625 
L 1.46875 22.015625 
L 1.46875 27.984375 
z
" id="FranklinGothic-Book-45"/>
       <path d="M 4.640625 66.65625 
L 9.71875 66.65625 
Q 24.125 47.796875 24.125 24.90625 
Q 24.125 3.03125 9.71875 -16.65625 
L 4.640625 -16.65625 
Q 17 1.765625 17 25 
Q 17 47.171875 4.640625 66.65625 
z
" id="FranklinGothic-Book-41"/>
      </defs>
      <use xlink:href="#FranklinGothic-Book-65"/>
      <use x="49.189453" xlink:href="#FranklinGothic-Book-86"/>
      <use x="102.851562" xlink:href="#FranklinGothic-Book-73"/>
      <use x="127.851562" xlink:href="#FranklinGothic-Book-83"/>
      <use x="184.785156" xlink:href="#FranklinGothic-Book-79"/>
      <use x="247.871094" xlink:href="#FranklinGothic-Book-32"/>
      <use x="272.871094" xlink:href="#FranklinGothic-Book-67"/>
      <use x="330.78125" xlink:href="#FranklinGothic-Book-78"/>
      <use x="396.503906" xlink:href="#FranklinGothic-Book-69"/>
      <use x="451.289062" xlink:href="#FranklinGothic-Book-83"/>
      <use x="508.222656" xlink:href="#FranklinGothic-Book-32"/>
      <use x="533.222656" xlink:href="#FranklinGothic-Book-40"/>
      <use x="562.568359" xlink:href="#FranklinGothic-Book-49"/>
      <use x="619.835938" xlink:href="#FranklinGothic-Book-57"/>
      <use x="678.478516" xlink:href="#FranklinGothic-Book-57"/>
      <use x="737.121094" xlink:href="#FranklinGothic-Book-51"/>
      <use x="795.763672" xlink:href="#FranklinGothic-Book-46"/>
      <use x="820.763672" xlink:href="#FranklinGothic-Book-48"/>
      <use x="875.65625" xlink:href="#FranklinGothic-Book-49"/>
      <use x="933.673828" xlink:href="#FranklinGothic-Book-46"/>
      <use x="958.673828" xlink:href="#FranklinGothic-Book-48"/>
      <use x="1017.316406" xlink:href="#FranklinGothic-Book-53"/>
      <use x="1075.958984" xlink:href="#FranklinGothic-Book-45"/>
      <use x="1100.958984" xlink:href="#FranklinGothic-Book-50"/>
      <use x="1159.601562" xlink:href="#FranklinGothic-Book-48"/>
      <use x="1218.244141" xlink:href="#FranklinGothic-Book-50"/>
      <use x="1276.886719" xlink:href="#FranklinGothic-Book-50"/>
      <use x="1335.529297" xlink:href="#FranklinGothic-Book-46"/>
      <use x="1360.529297" xlink:href="#FranklinGothic-Book-48"/>
      <use x="1419.171875" xlink:href="#FranklinGothic-Book-52"/>
      <use x="1477.814453" xlink:href="#FranklinGothic-Book-46"/>
      <use x="1502.814453" xlink:href="#FranklinGothic-Book-48"/>
      <use x="1561.457031" xlink:href="#FranklinGothic-Book-50"/>
      <use x="1620.099609" xlink:href="#FranklinGothic-Book-41"/>
     </g>
    </g>
    <g id="line2d_16"/>
    <g id="text_19">
     <!-- AVISO (1993.01.05-2022.03.23) -->
     <g style="fill:#009e73;" transform="translate(185.856 157.04965)scale(0.2 -0.2)">
      <use xlink:href="#FranklinGothic-Book-65"/>
      <use x="49.189453" xlink:href="#FranklinGothic-Book-86"/>
      <use x="102.851562" xlink:href="#FranklinGothic-Book-73"/>
      <use x="127.851562" xlink:href="#FranklinGothic-Book-83"/>
      <use x="184.785156" xlink:href="#FranklinGothic-Book-79"/>
      <use x="247.871094" xlink:href="#FranklinGothic-Book-32"/>
      <use x="272.871094" xlink:href="#FranklinGothic-Book-40"/>
      <use x="302.216797" xlink:href="#FranklinGothic-Book-49"/>
      <use x="359.484375" xlink:href="#FranklinGothic-Book-57"/>
      <use x="418.126953" xlink:href="#FranklinGothic-Book-57"/>
      <use x="476.769531" xlink:href="#FranklinGothic-Book-51"/>
      <use x="535.412109" xlink:href="#FranklinGothic-Book-46"/>
      <use x="560.412109" xlink:href="#FranklinGothic-Book-48"/>
      <use x="615.304688" xlink:href="#FranklinGothic-Book-49"/>
      <use x="673.322266" xlink:href="#FranklinGothic-Book-46"/>
      <use x="698.322266" xlink:href="#FranklinGothic-Book-48"/>
      <use x="756.964844" xlink:href="#FranklinGothic-Book-53"/>
      <use x="815.607422" xlink:href="#FranklinGothic-Book-45"/>
      <use x="840.607422" xlink:href="#FranklinGothic-Book-50"/>
      <use x="899.25" xlink:href="#FranklinGothic-Book-48"/>
      <use x="957.892578" xlink:href="#FranklinGothic-Book-50"/>
      <use x="1016.535156" xlink:href="#FranklinGothic-Book-50"/>
      <use x="1075.177734" xlink:href="#FranklinGothic-Book-46"/>
      <use x="1100.177734" xlink:href="#FranklinGothic-Book-48"/>
      <use x="1158.820312" xlink:href="#FranklinGothic-Book-51"/>
      <use x="1217.462891" xlink:href="#FranklinGothic-Book-46"/>
      <use x="1242.462891" xlink:href="#FranklinGothic-Book-50"/>
      <use x="1301.105469" xlink:href="#FranklinGothic-Book-51"/>
      <use x="1359.748047" xlink:href="#FranklinGothic-Book-41"/>
     </g>
    </g>
   </g>
   <g id="line2d_17">
    <path clip-path="url(#pb076d99847)" d="M 184.581818 554.04 
L 186.102698 544.183416 
L 187.503174 536.740485 
L 188.263614 533.929808 
L 192.965667 522.559413 
L 195.994752 515.438585 
L 196.679147 514.190179 
L 197.439587 513.359982 
L 198.231712 513.064744 
L 198.992152 513.372994 
L 199.752591 514.299158 
L 200.468672 515.811871 
L 201.229112 517.862186 
L 204.226512 527.178424 
L 204.910908 528.661168 
L 205.703032 529.436406 
L 206.463472 529.461513 
L 207.223912 528.741211 
L 207.939993 527.341949 
L 208.700432 525.430655 
L 212.489957 514.109581 
L 213.250397 512.557278 
L 213.934793 511.443495 
L 214.650874 510.681116 
L 215.411313 510.273755 
L 216.171753 510.156203 
L 217.115966 510.234164 
L 220.113366 510.958733 
L 221.66593 510.933237 
L 223.110766 510.801832 
L 223.826847 510.838959 
L 224.587286 511.011253 
L 225.347726 511.323654 
L 226.139851 511.783283 
L 227.66073 513.120947 
L 230.613771 516.583283 
L 231.374211 517.245624 
L 232.058607 517.678198 
L 232.850732 517.735024 
L 233.611172 517.435755 
L 234.371611 516.680338 
L 235.132051 515.47542 
L 236.608572 511.86091 
L 238.161136 507.13468 
L 241.082492 497.760906 
L 241.842932 496.086964 
L 242.559013 494.820172 
L 243.319452 493.961323 
L 244.079892 493.473825 
L 245.024105 493.294389 
L 245.784545 493.328801 
L 250.258465 494.170826 
L 251.734986 494.349834 
L 252.495425 494.633021 
L 253.255865 495.118517 
L 254.04799 495.828208 
L 254.80843 496.782116 
L 256.28495 499.191115 
L 258.445867 502.800706 
L 259.206306 503.716137 
L 259.966746 504.371165 
L 260.758871 504.732184 
L 261.519311 504.800167 
L 262.27975 504.596126 
L 262.995831 504.159509 
L 264.440667 502.952087 
L 266.829715 500.673828 
L 268.230191 499.792773 
L 268.990631 499.558596 
L 269.751071 499.511153 
L 271.227591 499.793532 
L 272.8562 500.120209 
L 273.61664 500.078672 
L 274.377079 499.776567 
L 275.09316 499.168308 
L 275.8536 498.267328 
L 278.09056 494.553784 
L 278.851 493.49262 
L 279.567081 492.753264 
L 280.327521 492.433603 
L 281.08796 492.590855 
L 281.804041 493.213175 
L 282.564481 494.244054 
L 283.324921 495.5847 
L 285.485837 499.973858 
L 286.201918 501.088529 
L 287.722797 502.445185 
L 289.275362 502.480846 
L 290.751882 502.271837 
L 291.512322 502.270555 
L 292.272762 502.432619 
L 293.064887 502.792052 
L 293.825326 503.345102 
L 296.062287 505.739773 
L 297.583166 507.256899 
L 298.299247 507.770858 
L 299.059687 508.029974 
L 300.003899 508.000809 
L 300.764339 507.644371 
L 301.524779 506.933581 
L 302.24086 505.849514 
L 303.001299 504.387074 
L 304.446135 500.388715 
L 305.998699 495.276682 
L 308.996099 484.425655 
L 310.548664 480.251571 
L 311.94914 477.683562 
L 312.70958 477.151806 
L 313.47002 477.121344 
L 314.186101 477.579182 
L 314.946541 478.481338 
L 316.499105 481.294856 
L 318.736065 486.251227 
L 319.496505 487.564724 
L 320.256945 488.515131 
L 320.973026 488.996652 
L 321.733465 489.025309 
L 322.493905 488.582596 
L 323.209986 487.754894 
L 324.730865 485.244722 
L 326.207386 482.527698 
L 326.967826 481.408995 
L 328.672478 479.962044 
L 329.432918 479.636821 
L 330.072955 479.50111 
L 331.593834 479.666036 
L 333.906838 480.223079 
L 334.622919 480.513099 
L 335.383359 480.944412 
L 336.143799 481.578729 
L 336.935923 482.475885 
L 337.696363 483.672258 
L 339.141199 486.759614 
L 340.617719 490.974596 
L 342.09424 494.708237 
L 342.85468 496.079468 
L 343.615119 496.949921 
L 344.407244 497.240354 
L 345.167684 496.923492 
L 345.928124 496.031985 
L 346.644204 494.650843 
L 347.404644 492.914726 
L 348.881165 488.987176 
L 350.402044 485.400579 
L 351.118125 483.972657 
L 351.878565 482.839726 
L 352.639004 482.027912 
L 354.191569 480.928702 
L 354.875965 481.284439 
L 355.820177 481.48095 
L 358.741534 482.740551 
L 359.501973 482.871128 
L 360.294098 482.860059 
L 361.054538 482.706145 
L 362.531058 482.03329 
L 364.051938 481.174806 
L 364.844063 480.848502 
L 365.604502 480.689238 
L 366.288898 480.742657 
L 367.004979 481.019812 
L 368.525858 482.088084 
L 370.002379 483.092334 
L 370.762819 483.17635 
L 371.523258 482.772516 
L 372.315383 481.769141 
L 373.075823 480.110864 
L 373.836263 477.802735 
L 374.552343 474.936219 
L 375.997179 468.242979 
L 377.549744 461.830477 
L 378.310183 459.330593 
L 379.026264 457.558634 
L 379.786704 456.582137 
L 380.547144 456.49835 
L 381.263224 457.244135 
L 382.023664 458.734061 
L 383.576229 463.219141 
L 385.097108 468.120909 
L 385.813189 470.094311 
L 386.573629 471.480146 
L 387.334068 472.17763 
L 388.126193 472.191022 
L 388.886633 471.58903 
L 389.647073 470.537658 
L 392.52407 465.471126 
L 393.284509 464.757966 
L 394.044949 464.372193 
L 394.76103 464.375054 
L 395.52147 464.658738 
L 397.042349 465.563249 
L 397.75843 465.843461 
L 398.51887 465.787286 
L 399.27931 465.303854 
L 400.071434 464.297993 
L 400.831874 462.777514 
L 402.232351 458.447837 
L 405.305795 448.458454 
L 406.066234 446.56958 
L 406.858359 445.163359 
L 407.618799 444.260075 
L 408.379239 443.917595 
L 409.095319 444.077839 
L 409.855759 444.681415 
L 412.244807 447.822612 
L 413.005247 448.750053 
L 413.721328 449.343977 
L 414.481768 449.489719 
L 415.242207 449.128608 
L 416.034332 448.242358 
L 416.794772 446.889478 
L 418.271293 443.331057 
L 419.716128 439.86573 
L 420.508253 438.589091 
L 421.268693 437.768885 
L 422.029132 437.444074 
L 422.745213 437.598216 
L 423.505653 438.183348 
L 424.266093 439.110742 
L 426.503053 442.606199 
L 427.295178 443.537722 
L 428.055617 444.154744 
L 428.740013 444.386004 
L 429.456094 444.202335 
L 430.216534 443.616317 
L 430.976973 442.684278 
L 432.529538 440.09888 
L 434.050417 437.422737 
L 434.766498 436.354111 
L 435.526938 435.600614 
L 436.287378 435.241562 
L 437.003459 435.285807 
L 437.687854 435.767741 
L 439.392507 437.702462 
L 440.913386 439.861339 
L 441.629467 440.496441 
L 442.389907 440.590536 
L 443.150347 440.035629 
L 443.942471 438.801119 
L 444.702911 436.925675 
L 445.463351 434.525501 
L 446.863827 429.006607 
L 447.624267 426.415218 
L 448.416392 424.267951 
L 449.176832 422.752325 
L 449.937271 421.983206 
L 450.653352 421.985485 
L 451.413792 422.700849 
L 452.174232 423.994483 
L 454.411192 429.104857 
L 455.127273 430.403865 
L 455.887712 431.17083 
L 456.648152 431.299536 
L 457.364233 430.752983 
L 458.124673 429.563488 
L 458.885113 427.834774 
L 460.437677 423.4549 
L 461.914198 419.214874 
L 462.674637 417.58768 
L 463.435077 416.433755 
L 464.119473 415.791757 
L 464.835554 415.645241 
L 465.595993 415.922948 
L 466.540206 416.514702 
L 469.537606 419.430519 
L 470.298046 419.715134 
L 471.090171 419.677009 
L 471.85061 419.320326 
L 472.61105 418.697968 
L 475.532406 415.229329 
L 476.324531 414.594049 
L 477.084971 414.204234 
L 477.84541 414.09148 
L 478.561491 414.258767 
L 479.321931 414.675937 
L 480.798452 415.988917 
L 482.243287 417.304409 
L 483.035412 417.697562 
L 483.795852 417.79648 
L 484.556291 417.546772 
L 485.272372 416.927881 
L 486.032812 415.953969 
L 487.585376 413.160928 
L 489.822337 408.470828 
L 490.582776 407.307784 
L 491.267172 406.536685 
L 491.983253 406.214786 
L 492.743693 406.342729 
L 493.504132 406.865871 
L 494.372301 407.6793 
L 496.609261 410.395179 
L 497.369701 410.913519 
L 498.130141 411.053828 
L 498.922266 410.777203 
L 499.682705 410.100477 
L 501.127541 407.86173 
L 502.604062 405.258077 
L 503.364501 404.154283 
L 504.080582 403.357704 
L 504.841022 402.958088 
L 505.601462 402.988714 
L 506.317542 403.441832 
L 507.077982 404.27664 
L 507.838422 405.406506 
L 509.238898 407.975437 
L 509.999338 409.083596 
L 510.791463 409.845747 
L 511.551903 410.112986 
L 512.312342 409.790073 
L 513.028423 408.840554 
L 513.788863 407.288234 
L 515.341427 402.784641 
L 517.578388 395.033637 
L 518.338828 392.90545 
L 519.099267 391.236463 
L 519.815348 390.095866 
L 520.575788 389.48269 
L 521.336228 389.319964 
L 522.28044 389.467764 
L 523.80132 390.003173 
L 524.517401 390.057598 
L 525.27784 389.809229 
L 526.03828 389.202168 
L 526.754361 388.24855 
L 528.27524 385.66153 
L 528.991321 384.328513 
L 529.751761 383.199253 
L 530.512201 382.421065 
L 531.304325 382.094823 
L 532.064765 382.268826 
L 532.825205 382.932481 
L 534.301725 385.298021 
L 535.746561 387.872116 
L 536.462642 388.760299 
L 537.223081 389.177468 
L 537.983521 389.04441 
L 538.775646 388.345703 
L 539.536086 387.125338 
L 540.296526 385.486162 
L 542.533486 379.68914 
L 543.325611 378.079126 
L 544.08605 376.906228 
L 544.770446 376.274319 
L 545.486527 376.231383 
L 546.246967 376.761859 
L 547.007406 377.790995 
L 549.244367 382.340407 
L 550.949019 384.555769 
L 551.709459 384.871468 
L 552.42554 384.543424 
L 553.185979 383.573574 
L 554.6625 380.041593 
L 557.6599 371.047695 
L 558.42034 369.350011 
L 559.212464 368.092361 
L 559.972904 367.310038 
L 560.733344 366.999245 
L 561.449425 367.113645 
L 562.209865 367.571265 
L 563.610341 369.116423 
L 565.923345 371.640143 
L 567.444225 372.831515 
L 568.204665 373.228575 
L 569.681185 373.664899 
L 571.157706 373.643012 
L 572.678585 373.221561 
L 574.155106 372.46901 
L 576.392066 370.981023 
L 577.152506 370.467723 
L 578.857158 369.47099 
L 582.570639 367.068715 
L 584.091519 366.503485 
L 584.807599 366.440256 
L 585.568039 366.58817 
L 586.328479 366.977535 
L 587.120604 367.61176 
L 587.881043 368.464557 
L 588.641483 369.487362 
L 590.04196 371.754039 
L 591.51848 373.688696 
L 592.27892 374.270945 
L 593.03936 374.482393 
L 593.831484 374.282952 
L 594.591924 373.666069 
L 595.352364 372.660523 
L 596.828884 369.793976 
L 599.065845 365.189307 
L 599.826284 364.094903 
L 600.586724 363.379003 
L 601.302805 363.061715 
L 602.063245 363.111046 
L 602.823685 363.449182 
L 604.300205 364.461537 
L 605.060645 364.797168 
L 605.928814 364.796838 
L 606.689253 364.329644 
L 607.373649 363.308646 
L 608.08973 361.706148 
L 608.85017 359.577231 
L 612.639694 347.164888 
L 613.400134 345.829273 
L 614.160574 345.291416 
L 614.876655 345.598347 
L 615.637094 346.696547 
L 616.32149 348.442083 
L 619.274531 357.143702 
L 620.034971 358.497149 
L 620.795411 359.155573 
L 621.587536 359.069539 
L 622.347975 358.279485 
L 623.108415 356.898533 
L 624.584936 353.045899 
L 625.269331 350.949262 
L 626.821896 347.2228 
L 627.582336 345.82276 
L 628.37446 344.813969 
L 629.1349 344.194955 
L 629.89534 343.916375 
L 630.65578 343.897339 
L 633.760909 344.639151 
L 634.521348 344.604271 
L 635.281788 344.36355 
L 635.997869 343.89534 
L 636.758309 343.196306 
L 638.310873 341.18523 
L 639.831753 338.63143 
L 642.068713 334.527328 
L 643.545234 332.123783 
L 645.021754 330.262191 
L 646.542634 328.909949 
L 648.019154 327.851889 
L 651.092598 325.803404 
L 652.493075 324.691119 
L 654.045639 323.745104 
L 654.806079 323.440592 
L 655.566519 323.30596 
L 656.282599 323.378962 
L 657.043039 323.686638 
L 657.803479 324.228402 
L 659.279999 325.81895 
L 660.040439 326.691552 
L 660.908608 327.454638 
L 661.669048 327.96808 
L 662.429487 328.095101 
L 663.145568 327.733765 
L 663.906008 326.837167 
L 664.666448 325.425234 
L 665.458573 323.593221 
L 667.695533 317.457523 
L 668.455973 315.967743 
L 669.216412 315.106515 
L 669.900808 315.007508 
L 670.692933 315.731212 
L 671.453373 317.26078 
L 672.213812 319.49536 
L 674.450773 328.510152 
L 675.166853 331.45054 
L 675.927293 333.968678 
L 676.687733 335.916065 
L 677.479858 337.207911 
L 678.240297 337.828792 
L 678.924693 337.836627 
L 679.640774 337.354354 
L 681.161653 335.593358 
L 681.953778 334.683507 
L 682.714218 333.992905 
L 683.474658 333.666689 
L 684.190739 333.809969 
L 684.951178 334.474998 
L 685.711618 335.64538 
L 686.427699 337.237876 
L 687.872534 341.092446 
L 689.577187 344.560328 
L 690.337627 345.649863 
L 691.053707 346.07929 
L 691.814147 345.740944 
L 692.574587 344.601329 
L 693.366712 342.710439 
L 694.127151 340.193779 
L 695.603672 334.038987 
L 696.288068 330.866441 
L 697.048507 327.948184 
L 697.840632 325.484744 
L 698.601072 323.625135 
L 699.361512 322.456059 
L 700.077592 321.9892 
L 700.838032 322.16221 
L 701.598472 322.845287 
L 703.835432 325.863075 
L 704.595872 326.397063 
L 705.311953 326.346304 
L 706.072393 325.573743 
L 706.832832 324.014074 
L 707.548913 321.687932 
L 708.309353 318.693886 
L 712.098878 300.981619 
L 712.859317 298.533309 
L 713.619757 296.839609 
L 714.259794 295.921259 
L 715.020234 295.699333 
L 715.780673 296.003734 
L 718.169722 297.570007 
L 718.885802 297.462563 
L 719.646242 296.72457 
L 720.406682 295.286023 
L 721.198807 293.181562 
L 722.719686 287.565155 
L 723.359723 284.49298 
L 724.880603 279.023468 
L 725.596683 277.037194 
L 726.357123 275.723904 
L 727.117563 275.114622 
L 727.833644 275.155666 
L 728.594083 275.724271 
L 730.114963 277.701897 
L 730.831044 278.677317 
L 731.591483 279.373202 
L 732.275879 279.629111 
L 733.068004 279.352038 
L 733.828444 278.520296 
L 734.588883 277.161377 
L 736.065404 273.214646 
L 738.378408 266.250081 
L 739.138848 264.212335 
L 739.930973 262.512842 
L 740.691412 261.229579 
L 741.375808 260.403519 
L 742.091889 260.050559 
L 742.852329 260.163556 
L 743.612769 260.702985 
L 744.556981 261.591774 
L 745.317421 262.730107 
L 746.001817 264.169294 
L 746.869985 265.07099 
L 747.554381 266.51231 
L 748.314821 267.58605 
L 749.791342 269.274817 
L 752.028302 271.383971 
L 753.580866 273.215196 
L 755.101746 275.607114 
L 756.578266 278.251068 
L 757.338706 279.463809 
L 757.902699 279.573824 
L 758.967315 282.559195 
L 759.499622 281.633109 
L 760.291747 281.646845 
L 761.052187 281.247507 
L 761.812627 280.452738 
L 762.528707 279.302415 
L 763.289147 277.847738 
L 764.841712 274.282716 
L 767.763068 266.889025 
L 768.523508 265.556173 
L 769.283947 264.617579 
L 770.000028 264.123155 
L 770.760468 264.084664 
L 771.520908 264.469678 
L 772.46512 265.188617 
L 774.702081 267.780942 
L 775.46252 268.164549 
L 776.22296 268.039893 
L 776.939041 267.331563 
L 777.699481 266.038941 
L 778.45992 264.238981 
L 780.696881 257.447059 
L 781.489005 255.438838 
L 782.249445 253.892345 
L 783.009885 252.927417 
L 783.725966 252.595101 
L 784.486405 252.868923 
L 785.246845 253.644469 
L 786.647322 255.999764 
L 787.407762 257.153926 
L 788.199886 257.999165 
L 788.960326 258.343105 
L 789.720766 258.044682 
L 790.436847 257.029752 
L 791.197286 255.296412 
L 791.957726 252.909397 
L 792.749851 249.986319 
L 794.27073 243.224567 
L 794.910767 239.796289 
L 796.431647 233.84605 
L 797.192086 231.640497 
L 797.908167 230.063324 
L 798.668607 229.105487 
L 799.61282 228.683739 
L 800.373259 228.657402 
L 801.84978 229.06437 
L 802.61022 229.106704 
L 803.370659 228.802982 
L 804.055055 228.029467 
L 804.84718 226.737912 
L 805.60762 224.950967 
L 806.368059 222.744814 
L 809.397145 212.427332 
L 810.157584 210.221355 
L 810.918024 208.399811 
L 811.634105 207.021609 
L 812.318501 206.103643 
L 813.07894 205.620188 
L 813.795021 205.513264 
L 814.555461 205.69655 
L 816.868465 206.843585 
L 817.628905 207.01618 
L 818.344986 206.90421 
L 819.105425 206.443456 
L 819.865865 205.614242 
L 820.65799 204.436196 
L 823.579346 198.126992 
L 824.339786 196.896863 
L 825.055867 196.100657 
L 825.816306 195.812437 
L 826.576746 196.034308 
L 827.444915 196.692539 
L 828.965794 198.751352 
L 830.366271 200.675276 
L 831.126711 201.20672 
L 831.918835 201.338663 
L 832.679275 201.081713 
L 833.439715 200.526331 
L 834.916235 199.144059 
L 835.676675 198.693465 
L 836.437115 198.627487 
L 837.153196 199.044068 
L 837.913635 199.95509 
L 838.674075 201.279969 
L 840.074552 204.525036 
L 840.834991 206.017292 
L 841.551072 207.136699 
L 842.311512 207.721785 
L 843.071952 207.678184 
L 843.864077 206.99399 
L 844.624516 205.748755 
L 845.384956 204.094001 
L 846.861477 200.357687 
L 848.337997 197.376453 
L 849.098437 196.511952 
L 849.858877 196.133004 
L 850.651001 196.220579 
L 851.411441 196.715353 
L 852.171881 197.527394 
L 854.408841 200.822437 
L 856.113494 202.732635 
L 856.873933 203.332268 
L 857.51397 203.617704 
L 858.27441 203.555061 
L 859.03485 203.118533 
L 859.826974 202.296776 
L 860.587414 201.103771 
L 861.347854 199.58461 
L 864.376939 192.164982 
L 865.137379 190.621651 
L 865.897818 189.41722 
L 866.582214 188.588597 
L 867.298295 188.125846 
L 868.058735 187.96995 
L 870.295695 188.075564 
L 871.056135 187.797942 
L 871.84826 187.160669 
L 872.608699 186.111378 
L 873.369139 184.664428 
L 874.769616 180.964824 
L 876.32218 177.2969 
L 877.08262 175.930667 
L 877.84306 175.076195 
L 878.55914 174.822272 
L 879.31958 175.194034 
L 880.08002 176.154818 
L 880.796101 177.607763 
L 883.945589 185.011151 
L 884.706028 186.324164 
L 885.422109 187.11862 
L 886.182549 187.326416 
L 886.942989 186.932277 
L 887.735113 185.968376 
L 888.495553 184.517012 
L 889.255993 182.700383 
L 891.492953 176.501583 
L 892.969474 173.077244 
L 893.729914 171.846328 
L 894.445994 170.969784 
L 895.206434 170.430145 
L 895.966874 170.182185 
L 896.682955 170.162915 
L 898.995959 170.563426 
L 899.756399 170.544759 
L 900.516838 170.324031 
L 901.277278 169.842788 
L 902.677755 167.99892 
L 904.230319 165.152745 
L 907.227719 158.768443 
L 908.70424 156.625619 
L 909.46468 155.974947 
L 909.920943 156.390967 
L 911.245376 155.163491 
L 911.853728 155.20562 
L 912.614168 155.014723 
L 913.330248 154.649405 
L 914.090688 153.99363 
L 914.851128 152.961618 
L 915.643253 151.508507 
L 916.403692 149.642633 
L 917.880213 145.029871 
L 919.401092 140.288605 
L 920.117173 138.32308 
L 920.877613 136.841273 
L 921.638053 135.94128 
L 922.354133 135.654864 
L 923.114573 135.952755 
L 923.875013 136.757638 
L 925.351533 139.385751 
L 926.904098 142.274342 
L 927.664538 143.424708 
L 928.424977 144.241357 
L 929.065014 144.678132 
L 929.825454 144.728601 
L 930.585894 144.439256 
L 931.378019 143.906595 
L 933.659338 142.06412 
L 934.375419 141.706707 
L 935.135858 141.574983 
L 935.74421 142.420409 
L 936.612379 141.772522 
L 937.296775 142.365068 
L 938.057214 142.756237 
L 938.925383 143.004903 
L 939.685823 142.989294 
L 940.446263 142.60931 
L 941.162343 141.801099 
L 941.922783 140.54532 
L 943.475348 136.869366 
L 946.396704 128.345921 
L 947.157143 126.840705 
L 947.873224 125.817769 
L 948.633664 125.325673 
L 949.394104 125.366398 
L 950.110185 125.887013 
L 950.870624 126.778766 
L 953.107585 130.105563 
L 953.868024 130.862001 
L 954.660149 131.204063 
L 955.344545 131.052503 
L 956.104985 130.378556 
L 956.897109 129.230219 
L 958.341945 126.079685 
L 960.654949 121.015755 
L 961.447074 119.808366 
L 962.207514 118.988235 
L 962.967953 118.576723 
L 963.728393 118.544362 
L 964.36843 118.819855 
L 966.833522 120.400648 
L 967.593962 120.722107 
L 968.354402 120.722555 
L 969.070482 120.31261 
L 969.830922 119.44301 
L 970.591362 118.115545 
L 971.383487 116.386263 
L 972.904366 112.168188 
L 973.544403 109.965541 
L 975.065283 106.128734 
L 975.857407 104.73046 
L 976.617847 103.764894 
L 977.378287 103.248401 
L 978.094368 103.160672 
L 978.854807 103.44672 
L 979.615247 104.023461 
L 981.852207 106.264032 
L 982.568288 106.690528 
L 983.328728 106.767553 
L 984.089168 106.49102 
L 984.805248 105.922457 
L 988.639132 102.07853 
L 989.355213 101.7012 
L 990.115653 101.622882 
L 990.876093 101.903711 
L 991.516129 102.576381 
L 992.276569 103.633114 
L 993.981222 106.690491 
L 995.502101 110.560573 
L 995.502101 110.560573 
" style="fill:none;stroke:#009e73;stroke-linecap:round;"/>
   </g>
   <g id="line2d_18">
    <path clip-path="url(#pb076d99847)" d="M 184.581818 553.58935 
L 186.102698 543.76702 
L 187.503174 536.419255 
L 188.263614 533.66844 
L 194.518231 518.908899 
L 195.994752 515.592464 
L 196.679147 514.374024 
L 197.439587 513.576999 
L 198.231712 513.317621 
L 198.992152 513.662794 
L 199.752591 514.624278 
L 200.468672 516.167372 
L 201.989552 520.633886 
L 203.466072 525.508426 
L 204.226512 527.492515 
L 204.910908 528.9146 
L 205.703032 529.613214 
L 206.463472 529.549322 
L 207.223912 528.732549 
L 207.939993 527.234172 
L 208.700432 525.228558 
L 212.489957 513.658802 
L 213.250397 512.117496 
L 213.934793 511.032907 
L 214.650874 510.314674 
L 215.411313 509.962023 
L 216.171753 509.904992 
L 217.115966 510.044989 
L 220.113366 510.97286 
L 221.66593 511.01122 
L 223.110766 510.932744 
L 223.826847 510.997552 
L 224.587286 511.200327 
L 225.347726 511.546368 
L 226.139851 512.042211 
L 227.66073 513.451538 
L 230.613771 516.961164 
L 231.374211 517.596572 
L 232.058607 517.98353 
L 232.850732 517.977224 
L 233.611172 517.598679 
L 234.371611 516.752659 
L 235.132051 515.45042 
L 236.608572 511.64403 
L 238.921576 504.187645 
L 241.082492 497.324765 
L 241.842932 495.682845 
L 242.559013 494.462201 
L 243.319452 493.659249 
L 244.079892 493.232807 
L 245.024105 493.115213 
L 245.784545 493.208799 
L 249.498025 494.204747 
L 251.734986 494.513218 
L 252.495425 494.827412 
L 253.255865 495.347074 
L 254.04799 496.093136 
L 254.80843 497.083857 
L 256.28495 499.554981 
L 258.445867 503.175434 
L 259.206306 504.060871 
L 259.966746 504.667252 
L 260.758871 504.962056 
L 261.519311 504.948894 
L 262.27975 504.65294 
L 262.995831 504.118265 
L 264.440667 502.724898 
L 266.829715 500.251407 
L 268.230191 499.343377 
L 268.990631 499.126579 
L 269.751071 499.113755 
L 271.227591 499.501146 
L 272.8562 499.951082 
L 273.61664 499.967914 
L 274.377079 499.718429 
L 275.09316 499.155793 
L 275.8536 498.293397 
L 278.09056 494.667046 
L 278.851 493.632382 
L 279.567081 492.92152 
L 280.327521 492.633341 
L 281.08796 492.825283 
L 281.880085 493.484256 
L 282.640525 494.551669 
L 283.400965 495.925696 
L 285.561881 500.359629 
L 286.277962 501.45961 
L 287.798841 502.73009 
L 289.351406 502.615225 
L 291.588366 502.115644 
L 292.348806 502.187049 
L 293.14093 502.467996 
L 293.90137 502.959211 
L 295.301847 504.423538 
L 297.583166 506.866586 
L 298.299247 507.430302 
L 299.059687 507.747611 
L 300.003899 507.780233 
L 300.764339 507.485137 
L 301.524779 506.831909 
L 302.24086 505.799366 
L 303.001299 504.381365 
L 304.446135 500.452229 
L 305.998699 495.394229 
L 308.996099 484.666009 
L 310.548664 480.564977 
L 311.94914 478.054619 
L 312.70958 477.536893 
L 313.47002 477.50591 
L 314.186101 477.946116 
L 314.946541 478.812127 
L 316.499105 481.499633 
L 318.736065 486.177515 
L 319.496505 487.394304 
L 320.256945 488.255699 
L 320.973026 488.661194 
L 321.733465 488.631092 
L 322.493905 488.149803 
L 323.209986 487.30503 
L 324.730865 484.822285 
L 326.207386 482.196339 
L 326.967826 481.136645 
L 328.672478 479.8126 
L 329.432918 479.54407 
L 330.072955 479.458758 
L 331.593834 479.70339 
L 333.906838 480.344873 
L 334.622919 480.661933 
L 335.383359 481.122671 
L 336.143799 481.789591 
L 336.935923 482.722215 
L 337.696363 483.955488 
L 339.141199 487.109425 
L 340.617719 491.360676 
L 342.09424 495.070522 
L 342.85468 496.402529 
L 343.615119 497.215445 
L 344.407244 497.431882 
L 345.167684 497.028073 
L 345.928124 496.04049 
L 346.644204 494.560958 
L 347.404644 492.729006 
L 348.881165 488.640785 
L 350.402044 484.963495 
L 351.118125 483.522045 
L 351.878565 482.396548 
L 352.639004 481.610956 
L 354.191569 480.614361 
L 354.875965 481.022182 
L 355.820177 481.280758 
L 358.741534 482.747889 
L 359.501973 482.91386 
L 360.294098 482.933041 
L 361.054538 482.806174 
L 362.531058 482.186758 
L 364.051938 481.391322 
L 364.844063 481.100849 
L 365.604502 480.97851 
L 366.288898 481.067331 
L 367.004979 481.375007 
L 368.525858 482.474749 
L 370.002379 483.449465 
L 370.762819 483.491188 
L 371.523258 483.026944 
L 372.315383 481.947152 
L 373.075823 480.200023 
L 373.836263 477.795371 
L 374.552343 474.830239 
L 375.997179 467.956905 
L 377.549744 461.421263 
L 378.310183 458.889803 
L 379.026264 457.107843 
L 379.786704 456.1421 
L 380.547144 456.087354 
L 381.263224 456.87707 
L 382.023664 458.421489 
L 383.576229 463.02908 
L 385.097108 468.045476 
L 385.813189 470.066887 
L 386.573629 471.493732 
L 387.334068 472.225795 
L 388.126193 472.268604 
L 388.886633 471.693356 
L 389.647073 470.668185 
L 391.884033 466.75449 
L 392.600114 465.729521 
L 393.360553 465.053381 
L 394.120993 464.702256 
L 394.837074 464.734538 
L 395.597514 465.038337 
L 397.074034 465.941384 
L 397.834474 466.19493 
L 398.594914 466.093515 
L 399.387039 465.54675 
L 400.147478 464.462149 
L 400.907918 462.851204 
L 402.308395 458.325867 
L 405.381839 448.042584 
L 406.142278 446.12567 
L 406.858359 444.712944 
L 407.618799 443.823627 
L 408.379239 443.512904 
L 409.095319 443.719122 
L 409.855759 444.378486 
L 410.540155 445.371364 
L 411.484368 446.538217 
L 413.005247 448.683006 
L 413.721328 449.32384 
L 414.481768 449.509377 
L 415.242207 449.181786 
L 416.034332 448.32452 
L 416.794772 446.998086 
L 418.271293 443.494017 
L 419.716128 440.093775 
L 420.508253 438.853556 
L 421.268693 438.070106 
L 422.029132 437.779492 
L 422.745213 437.96174 
L 423.505653 438.56511 
L 424.266093 439.497307 
L 426.503053 442.903117 
L 427.295178 443.768665 
L 428.055617 444.304726 
L 428.740013 444.444039 
L 429.456094 444.162519 
L 430.216534 443.478484 
L 430.976973 442.454339 
L 432.529538 439.722656 
L 434.050417 436.976292 
L 434.766498 435.904641 
L 435.526938 435.168216 
L 436.287378 434.843473 
L 437.003459 434.935808 
L 437.687854 435.474597 
L 439.392507 437.532461 
L 440.913386 439.80249 
L 441.629467 440.483319 
L 442.389907 440.616094 
L 443.150347 440.093821 
L 443.942471 438.887682 
L 444.702911 437.03856 
L 445.463351 434.664868 
L 446.863827 429.205923 
L 447.624267 426.649124 
L 448.416392 424.538495 
L 449.176832 423.059425 
L 449.937271 422.323756 
L 450.653352 422.35278 
L 451.413792 423.084409 
L 452.174232 424.380338 
L 454.411192 429.392099 
L 455.127273 430.622453 
L 455.887712 431.306346 
L 456.648152 431.341764 
L 457.364233 430.696928 
L 458.124673 429.409956 
L 459.677237 425.406991 
L 461.914198 418.766477 
L 462.674637 417.139693 
L 463.435077 416.005906 
L 464.119473 415.400804 
L 464.835554 415.303989 
L 465.595993 415.639704 
L 466.540206 416.293223 
L 468.777166 418.820931 
L 469.537606 419.424216 
L 470.298046 419.746425 
L 471.090171 419.740096 
L 471.85061 419.411292 
L 472.61105 418.815136 
L 475.532406 415.469157 
L 476.324531 414.870675 
L 477.084971 414.517132 
L 477.84541 414.436985 
L 478.561491 414.629552 
L 479.321931 415.060918 
L 480.798452 416.356237 
L 482.243287 417.581501 
L 483.035412 417.903396 
L 483.795852 417.917244 
L 484.556291 417.573048 
L 485.272372 416.8556 
L 486.032812 415.784905 
L 487.585376 412.826459 
L 489.822337 408.021058 
L 490.582776 406.861815 
L 491.267172 406.113842 
L 491.983253 405.831235 
L 492.743693 406.010562 
L 493.504132 406.592638 
L 494.372301 407.46803 
L 496.609261 410.352146 
L 497.369701 410.91385 
L 498.130141 411.090697 
L 498.922266 410.845081 
L 499.682705 410.195802 
L 501.127541 408.010158 
L 502.604062 405.468443 
L 503.364501 404.400084 
L 504.156626 403.640398 
L 504.917066 403.276688 
L 505.677506 403.338976 
L 506.393586 403.815808 
L 507.154026 404.662649 
L 507.914466 405.789571 
L 508.554503 407.056307 
L 510.075382 409.350078 
L 510.867507 410.038453 
L 511.627947 410.218742 
L 512.388386 409.800286 
L 513.104467 408.752095 
L 513.864907 407.103857 
L 515.417471 402.439195 
L 518.338828 392.462023 
L 519.099267 390.819064 
L 519.815348 389.720042 
L 520.575788 389.159805 
L 521.336228 389.056813 
L 522.28044 389.266675 
L 523.80132 389.918405 
L 524.517401 390.022183 
L 525.27784 389.816006 
L 526.03828 389.244465 
L 526.754361 388.321123 
L 528.27524 385.787318 
L 528.991321 384.481569 
L 529.751761 383.382187 
L 530.512201 382.637078 
L 531.304325 382.346637 
L 532.064765 382.557565 
L 532.825205 383.256669 
L 534.301725 385.67487 
L 535.746561 388.253081 
L 536.462642 389.117905 
L 537.223081 389.493049 
L 537.983521 389.299832 
L 538.775646 388.524921 
L 539.536086 387.215852 
L 540.296526 385.480225 
L 542.533486 379.404209 
L 543.325611 377.723188 
L 544.08605 376.497628 
L 544.770446 375.833833 
L 545.486527 375.780586 
L 546.246967 376.321488 
L 547.007406 377.379462 
L 549.244367 382.087405 
L 550.949019 384.424706 
L 551.709459 384.795286 
L 552.42554 384.515432 
L 553.185979 383.586617 
L 554.6625 380.118773 
L 557.6599 371.235842 
L 558.42034 369.571749 
L 559.212464 368.350222 
L 559.972904 367.604784 
L 560.733344 367.32889 
L 561.449425 367.472761 
L 562.209865 367.950656 
L 563.610341 369.494808 
L 565.131221 371.167128 
L 566.683785 372.468129 
L 567.444225 372.906575 
L 568.204665 373.20643 
L 569.681185 373.450599 
L 571.157706 373.27708 
L 572.678585 372.777903 
L 574.915545 371.596985 
L 577.152506 370.224913 
L 578.857158 369.349346 
L 582.570639 367.150426 
L 584.091519 366.638021 
L 584.807599 366.602792 
L 585.568039 366.781619 
L 586.328479 367.205067 
L 587.120604 367.87569 
L 588.641483 369.82232 
L 590.04196 372.135625 
L 591.51848 374.064014 
L 592.27892 374.616809 
L 593.03936 374.780141 
L 593.831484 374.514963 
L 594.591924 373.817311 
L 595.352364 372.719943 
L 596.828884 369.657534 
L 599.065845 364.813893 
L 599.826284 363.673462 
L 600.586724 362.932758 
L 601.302805 362.612141 
L 602.063245 362.678269 
L 602.823685 363.050575 
L 604.300205 364.167527 
L 605.060645 364.564573 
L 605.928814 364.625961 
L 606.689253 364.217271 
L 607.373649 363.249083 
L 608.08973 361.692417 
L 608.85017 359.602277 
L 612.639694 347.332283 
L 613.400134 346.028113 
L 614.160574 345.524807 
L 614.952699 345.868359 
L 615.713138 347.003135 
L 616.397534 348.782191 
L 618.634494 355.620298 
L 619.350575 357.51546 
L 620.111015 358.836381 
L 620.871455 359.443682 
L 621.66358 359.289224 
L 622.424019 358.416278 
L 623.184459 356.94215 
L 624.66098 352.893728 
L 625.345375 350.706159 
L 626.89794 346.838425 
L 627.65838 345.395758 
L 628.37446 344.365719 
L 629.1349 343.746817 
L 629.89534 343.488111 
L 630.65578 343.505758 
L 634.521348 344.501017 
L 635.281788 344.312013 
L 635.997869 343.888451 
L 636.758309 343.227105 
L 638.310873 341.275815 
L 639.831753 338.774902 
L 642.068713 334.766639 
L 643.545234 332.43618 
L 645.021754 330.632684 
L 646.542634 329.29476 
L 648.779594 327.643996 
L 650.332158 326.47276 
L 654.045639 323.411613 
L 654.806079 323.047796 
L 655.566519 322.873981 
L 656.282599 322.929289 
L 657.043039 323.240472 
L 657.803479 323.805106 
L 659.279999 325.48598 
L 660.040439 326.41744 
L 661.669048 327.816927 
L 662.429487 328.000797 
L 663.145568 327.690059 
L 663.906008 326.836927 
L 664.666448 325.461624 
L 665.458573 323.660686 
L 667.695533 317.605551 
L 668.455973 316.14511 
L 669.216412 315.316393 
L 669.900808 315.252786 
L 670.692933 316.013379 
L 671.453373 317.578887 
L 672.213812 319.845215 
L 675.927293 334.293131 
L 676.687733 336.18349 
L 677.479858 337.401775 
L 678.240297 337.935865 
L 678.924693 337.848243 
L 679.640774 337.267302 
L 681.161653 335.322762 
L 681.953778 334.338999 
L 682.714218 333.592235 
L 683.474658 333.230316 
L 684.190739 333.359447 
L 684.951178 334.03133 
L 685.711618 335.22749 
L 686.427699 336.861366 
L 687.872534 340.828413 
L 689.577187 344.418868 
L 690.337627 345.564338 
L 691.053707 346.043219 
L 691.814147 345.747167 
L 692.574587 344.643159 
L 693.366712 342.782606 
L 694.127151 340.293052 
L 695.603672 334.191637 
L 696.288068 331.048925 
L 697.048507 328.163702 
L 697.840632 325.736032 
L 698.601072 323.913348 
L 699.361512 322.779764 
L 700.077592 322.343618 
L 700.838032 322.538822 
L 701.598472 323.23188 
L 703.835432 326.179391 
L 704.595872 326.653469 
L 705.311953 326.526712 
L 706.072393 325.665595 
L 706.832832 324.009549 
L 707.548913 321.584769 
L 708.309353 318.495725 
L 712.098878 300.53082 
L 712.859317 298.092651 
L 713.619757 296.427548 
L 714.259794 295.552759 
L 715.020234 295.385084 
L 715.780673 295.749845 
L 718.169722 297.493083 
L 718.885802 297.433932 
L 719.646242 296.737073 
L 720.406682 295.333149 
L 721.198807 293.258344 
L 722.719686 287.694916 
L 723.359723 284.650324 
L 724.880603 279.244703 
L 725.672727 277.294527 
L 726.433167 276.018127 
L 727.193607 275.443797 
L 727.909688 275.514415 
L 728.670127 276.103455 
L 729.430567 277.031184 
L 730.907088 279.029816 
L 731.667527 279.680887 
L 732.351923 279.87406 
L 733.144048 279.518648 
L 733.904488 278.596713 
L 734.664927 277.140649 
L 736.141448 273.001631 
L 738.454452 265.835338 
L 739.930973 262.062328 
L 740.691412 260.792432 
L 741.375808 259.997694 
L 742.091889 259.690358 
L 742.852329 259.858925 
L 743.612769 260.459283 
L 744.556981 261.41002 
L 745.317421 262.607646 
L 746.001817 264.094442 
L 746.869985 265.056568 
L 747.554381 266.530915 
L 748.314821 267.638337 
L 749.791342 269.382674 
L 752.028302 271.576954 
L 753.580866 273.478596 
L 755.101746 275.941615 
L 756.578266 278.632477 
L 757.338706 279.850452 
L 757.902699 279.951975 
L 758.967315 282.896403 
L 759.499622 281.931676 
L 760.291747 281.879913 
L 761.052187 281.399997 
L 761.812627 280.513531 
L 762.528707 279.265448 
L 764.049587 275.922825 
L 767.123031 268.084544 
L 767.763068 266.439352 
L 768.523508 265.123024 
L 769.283947 264.218376 
L 770.000028 263.771521 
L 770.760468 263.789794 
L 771.520908 264.23619 
L 772.46512 265.01687 
L 774.702081 267.766604 
L 775.46252 268.189085 
L 776.22296 268.097214 
L 776.939041 267.417351 
L 777.699481 266.151077 
L 778.45992 264.377567 
L 780.696881 257.679935 
L 781.489005 255.708319 
L 782.249445 254.198421 
L 783.009885 253.267082 
L 783.725966 252.961757 
L 784.486405 253.252195 
L 785.246845 254.03048 
L 786.647322 256.339596 
L 787.407762 257.442895 
L 788.199886 258.219943 
L 788.960326 258.481171 
L 789.720766 258.089685 
L 790.436847 256.976536 
L 791.197286 255.145614 
L 791.957726 252.66753 
L 792.749851 249.665339 
L 794.27073 242.79803 
L 794.910767 239.348192 
L 796.431647 233.417372 
L 797.192086 231.248285 
L 797.908167 229.720506 
L 798.668607 228.820504 
L 799.61282 228.460473 
L 800.373259 228.495575 
L 801.84978 229.012137 
L 802.61022 229.099222 
L 803.370659 228.833282 
L 804.055055 228.091706 
L 804.84718 226.828112 
L 805.60762 225.067385 
L 806.368059 222.887889 
L 809.397145 212.702895 
L 810.157584 210.533246 
L 810.918024 208.744463 
L 811.634105 207.391805 
L 812.318501 206.488404 
L 813.07894 206.005117 
L 813.795021 205.881338 
L 814.555461 206.029289 
L 816.868465 206.966947 
L 817.628905 207.045253 
L 818.344986 206.834763 
L 819.105425 206.277098 
L 819.865865 205.358425 
L 820.65799 204.103693 
L 823.579346 197.680632 
L 824.339786 196.473113 
L 825.055867 195.715788 
L 825.816306 195.478663 
L 826.576746 195.759315 
L 827.444915 196.479487 
L 828.965794 198.65627 
L 830.366271 200.674461 
L 831.126711 201.242625 
L 831.918835 201.40571 
L 832.679275 201.176279 
L 833.439715 200.647044 
L 834.916235 199.320982 
L 835.676675 198.902856 
L 836.437115 198.872244 
L 837.22924 199.325707 
L 837.989679 200.272704 
L 838.750119 201.629417 
L 840.150596 204.910895 
L 840.911035 206.400674 
L 841.627116 207.500254 
L 842.387556 208.046924 
L 843.147996 207.946548 
L 843.94012 207.189009 
L 844.70056 205.857143 
L 845.461 204.10702 
L 846.937521 200.175962 
L 848.414041 197.032886 
L 849.174481 196.111946 
L 849.934921 195.69699 
L 850.651001 195.770108 
L 851.411441 196.271446 
L 852.171881 197.109016 
L 855.353054 201.667844 
L 856.113494 202.590336 
L 856.873933 203.245986 
L 857.51397 203.580976 
L 858.27441 203.560728 
L 859.03485 203.159895 
L 859.826974 202.368537 
L 860.587414 201.202668 
L 861.347854 199.709643 
L 864.376939 192.415746 
L 865.137379 190.909339 
L 865.897818 189.740442 
L 866.582214 188.942626 
L 867.298295 188.502218 
L 868.058735 188.356502 
L 870.295695 188.392608 
L 871.056135 188.055325 
L 871.84826 187.342263 
L 872.608699 186.204564 
L 873.369139 184.661312 
L 876.32218 176.942756 
L 877.08262 175.523294 
L 877.84306 174.636322 
L 878.55914 174.371474 
L 879.31958 174.753093 
L 880.08002 175.742233 
L 880.796101 177.238554 
L 883.945589 184.878431 
L 884.706028 186.246498 
L 885.422109 187.089348 
L 886.182549 187.338379 
L 886.942989 186.978947 
L 887.735113 186.044759 
L 888.495553 184.620211 
L 889.255993 182.829763 
L 891.492953 176.722318 
L 892.969474 173.370946 
L 893.729914 172.175032 
L 894.445994 171.328165 
L 895.206434 170.809118 
L 895.966874 170.569014 
L 896.682955 170.541786 
L 898.995959 170.80939 
L 899.756399 170.712583 
L 900.516838 170.401799 
L 901.277278 169.823472 
L 902.677755 167.787188 
L 904.230319 164.788519 
L 907.227719 158.330971 
L 907.988159 157.151641 
L 908.70424 156.264684 
L 909.46468 155.669473 
L 909.920943 156.121444 
L 911.245376 154.988172 
L 911.853728 155.082344 
L 912.614168 154.945493 
L 913.330248 154.627395 
L 914.090688 154.011711 
L 914.851128 153.013461 
L 915.643253 151.589434 
L 916.403692 149.750118 
L 917.880213 145.191567 
L 919.401092 140.515121 
L 920.117173 138.58595 
L 920.877613 137.14094 
L 921.638053 136.275323 
L 922.354133 136.017352 
L 923.114573 136.333984 
L 923.875013 137.144315 
L 925.351533 139.73272 
L 926.904098 142.508462 
L 927.664538 143.57844 
L 928.424977 144.303517 
L 929.065014 144.64258 
L 929.825454 144.594918 
L 930.585894 144.212922 
L 932.138458 142.880116 
L 933.659338 141.618284 
L 934.375419 141.256939 
L 935.135858 141.141467 
L 935.74421 142.012681 
L 936.612379 141.42356 
L 937.296775 142.069343 
L 938.057214 142.521859 
L 938.925383 142.832288 
L 939.685823 142.875314 
L 940.446263 142.548327 
L 941.162343 141.786155 
L 941.922783 140.569346 
L 942.683223 138.930052 
L 944.235787 134.771071 
L 946.396704 128.543815 
L 947.157143 127.073069 
L 947.949268 126.086719 
L 948.709708 125.631239 
L 949.470148 125.705621 
L 950.186229 126.253347 
L 950.946668 127.161891 
L 953.183629 130.445988 
L 953.944068 131.151825 
L 954.736193 131.425927 
L 955.420589 131.191837 
L 956.181029 130.43118 
L 956.973153 129.175225 
L 959.210114 123.95544 
L 960.730993 120.589684 
L 961.447074 119.360424 
L 962.207514 118.539808 
L 962.967953 118.147637 
L 963.728393 118.151527 
L 964.36843 118.476259 
L 966.833522 120.23796 
L 967.593962 120.617271 
L 968.354402 120.66963 
L 969.070482 120.304539 
L 969.830922 119.472815 
L 970.591362 118.177359 
L 971.383487 116.476081 
L 972.904366 112.31087 
L 973.544403 110.137009 
L 975.065283 106.367006 
L 975.857407 105.005493 
L 976.617847 104.076282 
L 977.378287 103.592627 
L 978.094368 103.530571 
L 978.854807 103.831366 
L 979.615247 104.408502 
L 981.091768 105.911071 
L 981.852207 106.547623 
L 982.568288 106.926015 
L 983.328728 106.948268 
L 984.089168 106.58816 
L 984.805248 105.904734 
L 988.639132 101.362584 
L 989.355213 100.812432 
L 990.115653 100.495212 
L 990.876093 100.44 
L 991.516129 100.654856 
L 992.276569 101.114402 
L 996.218182 104.397746 
L 996.218182 104.397746 
" style="fill:none;stroke:#ff0000;stroke-linecap:round;"/>
   </g>
  </g>
  <g id="text_20">
   <g id="patch_4">
    <path d="M 874.494375 646.18275 
L 1040.76 646.18275 
L 1040.76 628.26525 
L 874.494375 628.26525 
z
" style="fill:#ffffff;stroke:#ffffff;stroke-linejoin:miter;"/>
   </g>
   <!-- Created: 2023-01-30 16:53:22 -->
   <g style="fill:#696969;" transform="translate(878.454375 640.224)scale(0.12 -0.12)">
    <defs>
     <path d="M 30.03125 5.28125 
L 30.03125 -0.78125 
Q 25.984375 -1.3125 23 -1.3125 
Q 8.6875 -1.3125 8.6875 13.625 
L 8.6875 43.3125 
L -0.046875 43.3125 
L -0.046875 49.3125 
L 8.6875 49.3125 
L 9.03125 61.71875 
L 16.15625 62.40625 
L 16.15625 49.3125 
L 27.203125 49.3125 
L 27.203125 43.3125 
L 16.15625 43.3125 
L 16.15625 12.359375 
Q 16.15625 4.734375 24.078125 4.734375 
Q 26.703125 4.734375 30.03125 5.28125 
z
" id="FranklinGothic-Book-116"/>
     <path d="M 46.1875 66.65625 
L 46.1875 0 
L 39.203125 0 
L 39.203125 8.453125 
Q 34.03125 -1.3125 23.640625 -1.3125 
Q 14.984375 -1.3125 9.421875 5.9375 
Q 3.859375 13.1875 3.859375 24.265625 
Q 3.859375 35.59375 9.375 43.140625 
Q 14.890625 50.6875 24.03125 50.6875 
Q 32.90625 50.6875 38.53125 42.578125 
L 38.53125 66.65625 
z
M 38.53125 30.28125 
Q 38.53125 36.765625 34.5625 40.671875 
Q 30.609375 44.578125 25.34375 44.578125 
Q 19.625 44.578125 15.9375 39.5 
Q 12.25 34.421875 12.25 25.25 
Q 12.25 15.328125 15.640625 10.15625 
Q 19.046875 4.984375 24.953125 4.984375 
Q 30.328125 4.984375 34.421875 9.46875 
Q 38.53125 13.96875 38.53125 20.015625 
z
" id="FranklinGothic-Book-100"/>
     <path d="M 17.96875 49.3125 
L 17.96875 38.375 
L 7.078125 38.375 
L 7.078125 49.3125 
z
M 17.96875 10.984375 
L 17.96875 0 
L 7.078125 0 
L 7.078125 10.984375 
z
" id="FranklinGothic-Book-58"/>
    </defs>
    <use xlink:href="#FranklinGothic-Book-67"/>
    <use x="57.910156" xlink:href="#FranklinGothic-Book-114"/>
    <use x="90.869141" xlink:href="#FranklinGothic-Book-101"/>
    <use x="142.919922" xlink:href="#FranklinGothic-Book-97"/>
    <use x="195.800781" xlink:href="#FranklinGothic-Book-116"/>
    <use x="224.8125" xlink:href="#FranklinGothic-Book-101"/>
    <use x="276.863281" xlink:href="#FranklinGothic-Book-100"/>
    <use x="330.720703" xlink:href="#FranklinGothic-Book-58"/>
    <use x="355.720703" xlink:href="#FranklinGothic-Book-32"/>
    <use x="380.720703" xlink:href="#FranklinGothic-Book-50"/>
    <use x="439.363281" xlink:href="#FranklinGothic-Book-48"/>
    <use x="498.005859" xlink:href="#FranklinGothic-Book-50"/>
    <use x="556.648438" xlink:href="#FranklinGothic-Book-51"/>
    <use x="615.291016" xlink:href="#FranklinGothic-Book-45"/>
    <use x="640.291016" xlink:href="#FranklinGothic-Book-48"/>
    <use x="695.183594" xlink:href="#FranklinGothic-Book-49"/>
    <use x="753.826172" xlink:href="#FranklinGothic-Book-45"/>
    <use x="778.826172" xlink:href="#FranklinGothic-Book-51"/>
    <use x="837.46875" xlink:href="#FranklinGothic-Book-48"/>
    <use x="896.111328" xlink:href="#FranklinGothic-Book-32"/>
    <use x="921.111328" xlink:href="#FranklinGothic-Book-49"/>
    <use x="976.378906" xlink:href="#FranklinGothic-Book-54"/>
    <use x="1035.021484" xlink:href="#FranklinGothic-Book-58"/>
    <use x="1060.021484" xlink:href="#FranklinGothic-Book-53"/>
    <use x="1118.664062" xlink:href="#FranklinGothic-Book-51"/>
    <use x="1177.306641" xlink:href="#FranklinGothic-Book-58"/>
    <use x="1202.306641" xlink:href="#FranklinGothic-Book-50"/>
    <use x="1260.949219" xlink:href="#FranklinGothic-Book-50"/>
   </g>
  </g>
 </g>
 <defs>
  <clipPath id="pb076d99847">
   <rect height="498.96" width="892.8" x="144" y="77.76"/>
  </clipPath>
 </defs>
</svg>
